<svg xmlns="http://www.w3.org/2000/svg" style="display: none;">
<symbol id="ae" viewBox="80 0 480 480">
    <path fill="#00732f" d="M0 0h640v160H0z"/>
    <path fill="#fff" d="M0 160h640v160H0z"/>
    <path d="M0 320h640v160H0z"/>
    <path fill="red" d="M0 0h220v480H0z"/>
</symbol>
    
<symbol id="jo" viewBox="80 0 480 480"><defs><clipPath id="a"><path fill-opacity=".7" d="M-117.8 0h682.6v512h-682.6z"/></clipPath></defs><g clip-path="url(#a)" transform="translate(110.5) scale(.9375)"><g fill-rule="evenodd" stroke-width="1pt"><path d="M-117.8 0h1024v170.7h-1024z"/><path fill="#fff" d="M-117.8 170.7h1024v170.6h-1024z"/><path fill="#090" d="M-117.8 341.3h1024V512h-1024z"/><path fill="red" d="M-117.8 512l512-256-512-256v512z"/><path fill="#fff" d="M24.5 289l5.7-24.9H4.7l23-11-15.9-19.9 23 11 5.6-24.8 5.7 24.9L69 233.2l-16 19.9 23 11H50.6l5.7 24.9-15.9-20z"/></g></g></symbol>
<symbol id="bh" viewBox="80 0 480 480"><defs><clipPath id="a"><path fill-opacity=".7" d="M0 0h640v480H0z"/></clipPath></defs><g fill-rule="evenodd" stroke-width="1pt" clip-path="url(#a)"><path fill="#e10011" d="M-32.5 0h720v480h-720z"/><path fill="#fff" d="M114.3 479.8l-146.8.2V0h146l94.3 30.4-93.5 29.5 93.5 30.5-93.5 29.5 93.5 30.5-93.5 29.5 93.5 30.5-93.5 29.5 93.5 30.5-93.5 29.5 93.5 30.5-93.5 29.5 93.5 30.5-93.5 29.5 93.5 30.5-93.5 29.5"/></g></symbol>
<symbol id="dz" viewBox="80 0 480 480"><path fill="#fff" d="M320 0h320v480H320z"/><path fill="#006233" d="M0 0h320v480H0z"/><path fill="#d21034" d="M424 180a120 120 0 1 0 0 120 96 96 0 1 1 0-120m4 60l-108-35.2 67.2 92V183.2l-67.2 92z"/></symbol>
<symbol id="sa" viewBox="80 0 480 480">
        <defs><clipPath id="a"><path fill-opacity=".7" d="M-85.3 0h682.6v512H-85.3z"/></clipPath>
        </defs>
        <g fill-rule="evenodd" clip-path="url(#a)" transform="translate(80) scale(.9375)">
            <path fill="#199d00" d="M-128 0h768v512h-768z"/>
            <path fill="#fff" d="M65.5 145.1c-.8 12-2 33 8.3 35.2 12.3 1.2 5.5-20.8 10-24.8.8-2 2.3-2 2.4.5v18.7c0 6 4 7.8 7 9 3.2-.2 5.4 0 6.6 3l1.6 32.3s7.4 2.2 7.8-18.1c.3-12-2.4-21.9-.8-24.2 0-2.3 3-2.4 5-1.3 3.2 2.2 4.6 5 9.6 4 7.6-2.2 12.2-5.9 12.3-11.7a47 47 0 0 0-3.5-16.6c.4-1-1.4-3.7-1-4.7 1.3 2.2 3.4 2 3.8 0-1.3-4.2-3.3-8.3-6.5-10-2.7-2.4-6.7-2-8 3-.8 5.7 2 12.4 6.1 18 .9 2.1 2.1 5.7 1.6 8.9-2.2 1.3-4.4.7-6.3-1.2 0 0-6-4.5-6-5.6 1.6-10.2.3-11.4-.6-14.3-.6-3.9-2.5-5.2-4-7.8-1.5-1.6-3.5-1.6-4.5 0-2.7 4.6-1.4 14.5.5 19 1.4 4.1 3.5 6.7 2.5 6.7-.8 2.3-2.5 1.7-3.8-1a66.6 66.6 0 0 1-2.1-17.4c-.5-4.6-1.1-14.4-4.2-17-1.8-2.4-4.5-1.2-5.5 1a82.4 82.4 0 0 0 .3 13.4c2 7.4 2.7 14 3.7 21.5.3 10.1-5.8 4.4-5.5-.7a45 45 0 0 0-.3-19.4c-1-2.6-2.1-3.2-4.6-2.8-1.9 0-6.8 5.3-8.2 14.3 0 0-1.2 4.6-1.7 8.7-.7 4.6-3.7 8-5.9-.6-1.8-6.3-3-21.6-6-18z"/>
            <path fill="#fff" d="M99 194.2l-32 15.4c.3-7.3 15.1-20.4 25.3-20.5 6.5.1 4.9 2.5 6.6 5.1z"/>
            <path fill="#fff" d="M93.3 204.2c-16.8 43.5 39.5 49.6 45.8 1.8.6-2 3-3.9 3.4-.7-1.3 43.3-43.6 46.2-50.8 32.6a41.9 41.9 0 0 1-2.5-14.6c-1-8.5-5.5-5.2-6.2 3.2-.7 4.7-.5 6-.5 10.5 2.2 34.2 56.7 19.5 65.6-8.7 4.7-15.6-.8-27.1 1.7-27.1 5.4 5.8 13 .8 14.7-1.2.7-1 2.5-1.7 3.7-.4 4.2 3 11.6 1.6 13.2-3.7.9-5.3 1.6-10.7 1.8-16.2-3.5 1-6 1.7-6.3 3.2l-.7 4.6c-.3 1.5-3.2 1.5-3.4-.4-1.3-6-6.7-6.7-10 2.5-2.1 1.8-6.1 2.2-6.5-.5.5-6.2-2-7-7-4.1l-4.8-36.2c2 0 4 1.5 5.9-.9-2-6.5-6.5-19.7-9-20.7-1.1-1.4-2.1-.5-3.7-.1-2.6.8-5 3-4.2 7.4 3 18.8 5 33.1 8.1 52 .5 2.1-1.3 5-3.7 4.7-4-2.7-5-8.2-12-8-5 0-10.6 5.5-11.3 10.7-.9 4.2-1.2 8.7 0 12.3 3.5 4.2 7.7 3.8 11.4 2.9 3-1.3 5.5-4.3 6.6-3.6.7.9.1 10.9-14.3 18.5-8.7 4-15.7 4.8-19.4-2.3-2.3-4.5.2-21.4-5.6-17.5z"/>
            <path fill="#fff" d="M165 160c3.3-1.2 19.3-19.6 19.3-19.6l-2.4-2c-.9-.7-.8-1.5 0-2.2 4-2.4 2.7-7.4.7-9.8a9.7 9.7 0 0 0-8.7.1c-2.8 2.7-3.4 7-1.2 9.6 2.1 1 4.2 3.2 2.8 4.4-6.6 7-24.5 19.1-22.4 19.5.4.6 11.5.6 11.8 0zm-97 65c-6 9.6-6.5 23.9-3.2 28.2 1.8 2 4.7 2.9 6.8 2.2 3.8-1.6 5.5-9.3 4.6-12-1.3-2-2.3-2.3-3.6-.7-2.6 5.4-3.7 1.7-4-1.3a70 70 0 0 1 .8-15.2c.7-4.2 0-3-1.4-1.2zm257.1-15.3c-5.8-12.6-13.9-25-16.4-29.7a557.6 557.6 0 0 0-24.8-36c-6.2-7.4 10.2 3.1-2-11.7l-8.9-7.5c-2-1.4-6.8-4-7.6.2-.4 3.8-.2 5.8.4 8.9.5 2 3.5 5.5 5 7.5a565 565 0 0 1 53.8 86.5c2.6-1.3 2-16.1.5-18.2z"/>
            <path fill="#fff" d="M299.6 251.5c-1.2 1.3 2.8 6.8 8 6.8 8.6-1 16.2-5.8 23.2-18.6a33 33 0 0 0 5.3-14.2 317 317 0 0 0-5.8-72.4c-.3-2 0-4.4.2-5 .6-.7 2.5 0 3.5-1.7 1.5-1.5-4-14-7-18.7-1-2.2-1.5-3.6-3.3.2a27 27 0 0 0-3 13.6c4.1 28.5 5.4 53.4 8 81.9.3 2.8-.1 6.8-2 8.4a80.2 80.2 0 0 1-27.1 19.7zm116.5-.1c-6.2 3.6-6.2 7.7-1.2 7.8 8.6-1 18.8-1.7 25.8-12.3a41 41 0 0 0 4.2-16 303 303 0 0 0-4.7-71.4c-.2-2-1.1-6.7-.8-7.3.6-1.4 3.4.1 4.4-1.5 1.4-1.5-7.3-12.7-10.4-17.5-1-2.2-1.4-3.6-3.3.2a22.3 22.3 0 0 0-1.8 13.6c4.6 31 8 54.2 8.7 81.6-.4 2.6-.5 4-1.7 7.3-2.7 3.4-5.7 7.8-8.5 9.9-2.8 2-8.8 4-10.7 5.6z"/>
            <path fill="#fff" d="M420.7 223.7c0-7.3.1-13.5-.1-19a34 34 0 0 0-3-13.5c-1.8-4.1-.7-7.4-1.6-11.8-.8-4.4-.6-11-1.8-16.1-.4-2-1.4-8.5-1.1-9.2.5-1.4 2.4 0 3.4-1.6 1.4-1.5-5-18-8.2-22.7-1.1-2.1-3.3-1.4-5.8 2-2.5 2.3-1.6 7.4-.6 12.3 6.1 32.3 10.8 61.6 9.8 92.3-.4 2.6 9-7.8 9-12.7zm-45.7-40c-3.9-.2-12-7.7-14.4-12a8 8 0 0 1 .4-6.5c1.5-1 3.7-2 5.4-1 0 0 1.7 2.4 1.4 2.7 2 1 3 .5 3.2-.4.1-1.5-.6-2.4-.6-4 .9-4.6 6-5.3 8-2.4 1.4 1.8 2 5.5 2.1 8 0 1.3-2-.2-3.3 0-1.1.4-1.4 1.8-1.5 3-.2 3.3-.6 8.6-.7 12.5zm-71.8 48c1-9.8-.4-27.3-.5-33.1A477 477 0 0 0 299 154c-1.2-8.4 3.4.9 2.8-4-1.5-8.3-6.1-14-11.6-21.5-1.7-2.5-1.7-3-4.4.6-3 6.7-.4 11.4.4 16.7 3.9 17.2 6.2 33 7.3 48.7a393.4 393.4 0 0 1 .4 49c3 .1 7.6-4.7 9.3-11.8z"/>
            <path fill="#fff" d="M434 216c-6.9-11.6-17.2-24-20-28.7a658 658 0 0 0-29.2-37.8c-8.5-9 4-1.5-1.6-8.5-4.7-5.1-6-6.8-10.1-9.9-2-1.3-3.2-3.8-4 .5a83 83 0 0 0-.2 11.2c0 1.7 1.8 5 3.4 7 20.7 25.5 43.4 51.5 61.6 84.2 2.6-1.3 1.7-16 0-18z"/>
            <path fill="#1ba400" d="M122.6 194.7c-.5.9-1.6 2-1.2 3.1.7 1 1.4 1.3 2.6 1.3 1.1 0 2.7.3 3-.3.6-.7 1-2 .6-3.3-1.2-3-4.4-1.8-5-.8z"/>
            <path fill="#fff" d="M354.2 362.5c9.2.4 15.2.5 23.3 1.4l9.6-1c10.6-1 11 15.1 11 15.1 0 9.5-3.7 10-8.4 11-2.7.4-4-1.6-5.5-3.6a14 14 0 0 1-7 .4c-3.9-.2-7.7-.2-11.5-.5-4-.3-6.2.5-10.3.1-.8 1.3-2 3.1-4.4 2.6-2-.3-4.5-6-3.8-10.5 1.5-3.2 1-2.1 1-3.5-37.6-1-75.5-2.7-112.3-2.2-28.8.1-57.2 1.3-85.7 2.5-15.2-.2-26.8-2.6-34.8-14.3.8 0 38.8 2.1 49.9 1.4 20.5-.2 39.3-1.9 60.2-2.5 41.2.7 82.1.7 123.3 3.6-4-2.7-4-9 2-10.6.5-.4.8 3.1 1.7 3 4.9-.3 2.7 6.3 1.7 7.6zM188.6 135.3c-6.2 17.8 3.6 37.4 10.4 35.5 5 2 8-7.4 10-17.6 1.5-2.9 2.5-3.2 3.2-1.7-.2 13.6 1 16.7 4.5 20.8 7.8 6 14.3.8 14.8.3l6-6.1c1.4-1.5 3.2-1.5 5.1-.3 1.9 1.7 1.6 4.6 5.6 6.6 3.4 1.4 10.5.4 12.2-2.5 2.2-3.9 2.8-5.2 3.8-6.6 1.6-2.1 4.3-1.2 4.3-.5-.3 1.2-1.9 2.3-.8 4.5 2 1.4 2.4.5 3.5.2 4-2 7-10.6 7-10.6.1-3.2-1.7-3-2.9-2.2l-3.1 2.1c-2 .3-5.7 1.6-7.6-1.3-1.9-3.4-1.9-8.3-3.3-11.8 0-.2-2.6-5.5-.2-5.8 1.2.2 3.7.9 4.1-1.2 1.2-2.1-2.6-8-5.3-11-2.3-2.5-5.5-2.8-8.6-.2-2.2 2-1.9 4.2-2.3 6.3a9.8 9.8 0 0 0 2 8.7c2.2 4.2 6.1 9.7 4.8 17.5 0 0-2.3 3.6-6.3 3.1-1.7-.3-4.4-1-5.8-11.8-1.1-8 .2-19.4-3.2-24.7-1.3-3.3-2.2-6.4-5.2-.9-.8 2.2-4.3 5.5-1.8 12.2a36 36 0 0 1 2 19c-1.5 2.2-1.8 2.9-3.7 5-2.6 3-5.5 2.2-7.7 1.1-2-1.3-3.6-2-4.6-6.5.2-7 .6-18.5-.7-20.9-1.9-3.8-5-2.4-6.3-1.2a47.7 47.7 0 0 0-11.5 23.5c-1.8 5.8-3.7 4.1-5 1.8-3.2-3-3.5-26.7-7.4-22.8z"/>
            <path fill="#fff" d="M207.4 174.1c2.9-2 1.6-3.4 5.8.8a72 72 0 0 1 9.2 31.3c-.2 2.6 1.6 4.2 2.5 3.6.4-6 15.1-14.4 28.6-15.6 2-.5 1-4.4 1.3-6.4-.8-7.5 4.2-14.3 11.2-14.8 9.6 1.4 12.8 6.5 13 14.2-1.1 15-16.7 17.5-25.4 18.7-1.3.5-1.9 1.1 0 1.8l36.6.2 1.9 1c.2 1-.6.2-2 2.6a29.5 29.5 0 0 0-3.7 11.5c-10.9 3.6-22.2 5-33.6 6.5-4 2-6 4.7-5.2 7.7 1.4 3.3 10.2 6.7 10.2 6.8 1.7 1 3.6 3.5-.5 8.6-17.8-.8-31.7-8.4-36.5-19.1-1.4-1.1-3 0-4 1.4-7 9-13.8 17-25.7 21.4-7 1.8-14.3-1.1-17.7-5.7-2.3-2.7-2.2-5.6-3-6.2-3.9 1.7-36.9 15.7-32.7 9.1 8-8.5 22-14.9 34.2-23.3.9-2.9 2.5-12.5 7.3-15.6.3 0-.7 5.6-.6 8 0 2-.2 2.7.2 2.2.9-.5 15.7-12.2 17-15.8 1.4-2 .3-7.2.3-7.4-2.8-7.2-6.7-7.8-8.1-11.4-1.3-4.7-.7-10.1 2-11.7 2.4-2.1 5.2-1.9 7.9.5 3 2.7 5.6 8 6.4 11.9-.5 1.5-4-1-5-.3a16 16 0 0 1 3.7 7.8c2 8.2 1.4 11.4-.6 16.7-6.6 13.9-15 18-22.4 23.2-.2 0-.3 3.5 2.4 5.4 1 1 4.9 1.5 9.4 0a54.5 54.5 0 0 0 22.3-23.3 51 51 0 0 0-2.4-22.2c-2.9-6.7-6.3-16.2-6.3-16.4-.1-4.2.2-5.6 2-7.7zm-95.8-38.6c4.2 2 12.2 1.1 11.8-5.7l-.2-3.1c-.8-2-3.2-1.5-3.7.5-.2.7.3 1.8-.3 2.1-.4.4-1.7.2-1.7-1.7 0-.6-.4-1.2-.7-1.6-.2-.2-.4-.2-.9-.2-.6 0-.6.1-.9.6-.1.5-.3 1-.3 1.6 0 .7-.4.9-.8 1-.6 0-.5 0-1-.2-.2-.3-.5-.4-.5-1l-.3-1.6c-.2-.3-.6-.5-1-.6-2.3 0-2.5 2.7-2.3 3.7-.2.2-.3 4.9 2.8 6.2z"/>
            <path fill="#fff" d="M235.1 187.7c4.2 2 14.3.9 11.8-5.6l-.2-3.2c-.9-2-3.2-1.5-3.7.6-.2.6.3 1.7-.4 2-.3.4-1.7.2-1.6-1.6 0-.6-.4-1.3-.7-1.7-.3-.1-.4-.2-1-.2-.5 0-.5.2-.8.7-.2.5-.3 1-.3 1.6-.1.6-.4.8-.9 1-.5 0-.4 0-.8-.3-.3-.3-.6-.4-.6-.9l-.3-1.6c-.2-.3-.6-.5-1-.6-2.3 0-2.5 2.6-2.4 3.6-.1.2-.2 5 3 6.2zm72-21.6c4.2 2 12.1 1.1 11.8-5.6l-.2-3.2c-.9-2-3.2-1.5-3.7.5-.2.7.3 1.8-.4 2.2-.3.3-1.7.1-1.6-1.8 0-.6-.4-1.2-.7-1.6-.3-.2-.4-.2-1-.2-.5 0-.5.2-.8.7l-.3 1.5c-.1.7-.4 1-.9 1s-.4 0-.8-.2c-.3-.3-.6-.4-.6-.9s-.1-1.3-.3-1.7c-.2-.3-.6-.4-1-.5-2.3 0-2.5 2.6-2.4 3.6-.1.2-.2 4.9 3 6.2zm37.3 54.3c-7.3 8.3-4.1 22-2.4 25 2.4 4.8 4.3 7.9 9 10.3 4.3 3.1 7.7 1.2 9.5-1 4.3-4.5 4.4-16 6.4-18.2 1.4-4.2 5-3.5 6.7-1.6a16.5 16.5 0 0 0 6.2 5.3c4 3.5 8.8 4.2 13.6 1 3.2-1.9 5.3-4.2 7.2-8.9 2-5.6 1-31.6.5-47l-4.2-21.5c0-.2-.5-10.2-1-12.5 0-1-.3-1.3.7-1.2 1.1 1 1.2 1 2 1.3 1 .2 2-1.7 1.3-3.3l-10-18.6c-.8-.8-1.9-1.6-3.2.2a7.3 7.3 0 0 0-2.4 5.5c.3 4.4 1 8.9 1.3 13.3l4 22.6c1.3 16 1.6 29.2 2.9 45.3-.2 6.8-2.3 12.7-4.3 13.6 0 0-3 1.7-5-.2-1.5-.6-7.4-9.9-7.4-9.9-3-2.7-5-2-7.1 0-6 5.8-8.6 16.4-12.7 23.8-1 1.7-4 3-7.2-.1-8.2-11.3-3.4-27.3-4.4-23.2zM309 126.7c3.8 1.5 6.4 9.2 5.6 13-.8 4.5-2.8 9.5-4.2 8.9-1.6-.6 1-4.6-.5-8.8-.8-2.8-6-7.8-5.4-9.2-1-3.1 2.2-4.5 4.5-4z"/>
            <path fill="#fff" d="M356.6 225c.7-9.2-.6-14.8-.8-20.2s-6.1-46.6-7.3-50.6c-1.5-7.8 5.7-1 4.9-5.6-2.5-5.6-8.6-13.9-10.5-18.8-1.2-2-.7-4-3.3-.5a42.3 42.3 0 0 0-2.3 19.2c6.2 32.3 12.5 59.1 11.5 89.8 3 0 6.3-6.7 7.8-13.3zm64.4-85.3c3.5 1.7 5.5 11.3 5.1 14-.7 5-2.5 10.4-3.8 9.7-1.5-.6.3-7.4-.4-9.5-.8-3-5.5-8.4-5-10-1-3.4 2-4.8 4.1-4.2zm-255.7 67.9c3.3 1.3 5.3 8.3 5 10.3-.8 3.7-2.5 7.7-3.8 7.1-1.3-.4.3-5.4-.3-7-.3-3.7-4.9-5.7-4.8-7.3-.8-3 2-3.5 4-3.1z"/>
            <path fill="#1b9d00" d="M244.9 218.2c4.2.2 6.3 3.6 2.4 5-4 1.3-7.7 2.4-7.8 8 1.5 8-2 5.2-4 4.2-2.4-1.8-9.2-6-10.2-15-.1-2.1 1.6-4 4.3-4 4 1.1 10 1.2 15.3 1.8z"/>
            <path fill="#fff" d="M77.4 124.4c4.8 1.4 5.1 8.6 4.8 10.7-.7 3.8-2.4 7.9-3.6 7.4-1.4-.5 0-5.7-.7-7.3-.7-2.2-4.8-6.4-4.4-7.6-.9-2.5 2-3.7 3.9-3.2zm95.9 33.6c-3.8 2-5.2 8-2.9 11.6 2.2 3 5.6 1.9 6 1.9 3.7.4 5.9-6.9 5.9-6.9s.1-2-4.2 1.9c-1.9.3-2-.4-2.5-1.4a9 9 0 0 1 .5-5.7c.7-1.8-.7-2.6-2.8-1.4zm28-36.4c-2 1.3-5.7 5.2-5.8 9.6-.1 2.5-.6 2.5 1 4 1.3 1.8 2.4 1.7 4.8.4a5.1 5.1 0 0 0 2.3-3.4c.6-2.8-3 1.4-3.4-1.8-.8-3 1.5-4.2 3.7-7 0-2 0-3.3-2.7-1.8zm22.4 4a59.5 59.5 0 0 0-1.6 11.1c-.6 2.8 3 4 4.5.4 2.4-6.5 2.4-9.3 2.6-12-.7-4.3-3.6-4.2-5.5.5zm142 72.3c.4-.5 20-14.4 20-14.4 2-.7 1.5 7.2.6 7.1a77.8 77.8 0 0 1-20.7 14.3c-1 .7-1.9-5.3 0-7zm17.7-.2c3.5 1.7 4.9 11.8 4.5 14.5 0 5.4-3.3 9.6-4.7 9-1.4-.7.2-6.7-.5-8.8-.8-3-3.7-8.5-3.2-10.1-1-3.4 1.8-5.2 4-4.6zm-116 43.4a26 26 0 0 1 5.6-4.9c2-1 3.8.8 3.7.7.3 2-1.2 3.7-.7 6.3.4 1 .7 2.2 2.6 1.8 3.1-2.5 6-2.7 9-2.8 2.5.1 2.6 4.2 1 4.2-5.7 1.2-8.2 2.8-12.3 4.3-2 1.2-3.6-.3-3.6-.4s-1.1-1.1-.4-3.7c.2-2-.6-3.2-2.4-3-1.2.8-2.4 1.2-3-.3-.3-1-.4-1.6.5-2.2zm136.6 5.4c.8 1 1.4 2-.1 3.8l-3.7 3.2c-.6 1-1 2.8 1 3.3 3.6 1 12-4.5 12-4.6 1.4-1 1-3 .8-3-.8-.9-2.6-.3-3.8-.5-.6 0-2.5-.2-1.6-2a11.4 11.4 0 0 0 1.6-2.9c.5-1.2 0-2-2-2.7-2.1-.4-3-.2-5.3 0-1.2.2-1.6.8-1.9 2.3.1 2.3 1.5 2.2 3 3z"/>
            <path fill="#259f00" d="M268.1 189.7c-.5 1-2.3 1-4 0s-2.7-2.6-2.1-3.5 2.3-.9 4 0 2.6 2.6 2.1 3.5zm-89-53.6c-1 .3-2.4-.6-3-2s-.3-2.6.7-2.9 2.3.7 3 2 .3 2.7-.8 3z"/>
            <path fill="#209000" d="M355.2 375c9.4.4 18.2 0 27.5.5 1.7 1.5.5 5-.6 4.8l-7.8-.3c-.1-3-7.7-2.5-7.5.1-4.1.5-7.8-.1-12-.3-1.2-1.5-1-4.2.4-4.8z"/>
        </g>
    </symbol>
<symbol id="sd" viewBox="80 0 480 480">
        <defs>
            <clipPath id="a">
                <path fill-opacity=".7" d="M0 0h682.7v512H0z"/>
            </clipPath>
        </defs>
        <g fill-rule="evenodd" stroke-width="1pt" clip-path="url(#a)" transform="scale(.9375)">
            <path d="M0 341.3h1024V512H0z"/>
            <path fill="#fff" d="M0 170.6h1024v170.7H0z"/>
            <path fill="red" d="M0 0h1024.8v170.7H0z"/>
            <path fill="#009a00" d="M0 0v512l341.3-256L0 0z"/>
        </g>
    </symbol>
<symbol id="iq" viewBox="80 0 480 480">
        <path fill="#fff" d="M0 160h640v160H0z"/>
        <path fill="#ce1126" d="M0 0h640v160H0z"/>
        <path d="M0 320h640v160H0z"/>
        <g fill="#007a3d" transform="translate(-179.3 -92.8) scale(1.75182)">
            <path d="M325.5 173.2a5 5 0 0 1-1.4-1c-.3-.5-.1-.5 1.2-.2 2.3.7 3.8.4 5.3-.8l1.3-1.1 1.5.7c.9.5 1.8.8 2 .7.7-.2 2.1-2 2-2.6 0-.7.6-.5 1 .3.6 1.6-.3 3.5-2 3.9-.7.2-1.4.1-2.6-.3-1.4-.5-1.7-.5-2.4 0a5.4 5.4 0 0 1-5.9.4zm5.8-5.3a8 8 0 0 1-1-4c.1-.6.3-.8.8-.6 1 .3 1.2 1 1 3 0 1.8-.3 2.3-.8 1.6zm-67.6-1.9c-.1 1.3 2.4 4.6 3.5 5.2-.8.3-1.7.2-2.4.5-4 4-18.4 18-21 21.4 7.8.2 16.4-.1 23.7-.4 0-5.3 5-5.6 8.4-7.5 1.7 2.7 6 2.5 6.6 6.6v17.6H216a9.7 9.7 0 0 1-12.3 7.5c2-2 5.4-2.8 6.6-5.7 1-6.4-2-10.3-4-14a24 24 0 0 0 7-3.6c-2.3 7 6.2 6.3 12.4 6.1.2-2.4.1-5.2-1.7-5.6 2.3-.9 2.7-1.2 6.6-4.4v9.6l46.1-.1c0-3 .8-7.9-1.6-7.9-2.2 0 0 6.2-1.8 6.2h-35.7v-6c1.5-1.6 1.3-1.5 11.6-11.8 1-1 8.3-7.6 14.6-13.7zm89.1-.3c2.5 1.4 4.5 3.2 7.5 4-.3 1.3-1.5 1.8-1.8 3.1v27c3.4.7 4.2-1.3 5.8-2.3.4 4.3 3.2 8.5 3 12h-14.5v-43.7zm-19.4 14.5s5.3-4.5 5.3-4.7V199h3.8l-.1-26.3c1.5-1.6 4.6-3.8 5.3-5.4v42h-33.4c-.5-8.7-.6-17.7 9.6-15.8V190c-.3-.6-.9.1-1-.7 1.6-1.6 2.1-2 6.5-5.8l.1 15.5h3.9v-18.8zm-12.6 18.6c.7 1 3.2 1 3-.8-.3-1.5-3.5-1-3 .8z"/>
            <circle cx="224" cy="214.4" r="2"/>
            <path d="M287 165.8c2.5 1.3 4.5 3.2 7.6 4-.4 1.2-1.5 1.7-1.8 3v27c3.4.7 4.1-1.2 5.7-2.3.5 4.3 3.2 8.6 3.1 12H287v-43.7z"/>
        </g>
    </symbol>
<symbol id="kw" viewBox="80 0 480 480">
        <defs>
            <clipPath id="a">
                <path fill-opacity=".7" d="M0 0h682.7v512H0z"/>
            </clipPath>
        </defs>
        <g fill-rule="evenodd" stroke-width="1pt" clip-path="url(#a)" transform="scale(.9375)">
            <path fill="#fff" d="M0 170.6h1024v170.7H0z"/>
            <path fill="#f31830" d="M0 341.3h1024V512H0z"/>
            <path fill="#00d941" d="M0 0h1024v170.7H0z"/>
            <path d="M0 0v512l255.4-170.7.6-170.8L0 0z"/>
        </g>
    </symbol>
<symbol id="ma" viewBox="80 0 480 480">
        <path fill="#c1272d" d="M640 0H0v480h640z"/>
        <path fill="none" stroke="#006233" stroke-width="11.7" d="M320 179.4L284.4 289l93.2-67.6H262.4l93.2 67.6z"/>
    </symbol>
<symbol id="ye" viewBox="80 0 480 480">
        <g fill-rule="evenodd" stroke-width="1pt">
            <path fill="#fff" d="M0 0h640v472.8H0z"/>
            <path fill="#f10600" d="M0 0h640v157.4H0z"/>
            <path d="M0 322.6h640V480H0z"/>
        </g>
    </symbol>
<symbol id="tn" viewBox="80 0 480 480">
        <defs>
            <clipPath id="a">
                <path fill-opacity=".7" d="M-85.3 0h682.6v512H-85.3z"/>
            </clipPath>
        </defs>
        <g fill-rule="evenodd" clip-path="url(#a)" transform="translate(80) scale(.9375)">
            <path fill="#e70013" d="M-128 0h768v512h-768z"/>
            <path fill="#fff" d="M385.8 255.8a129.1 129.1 0 1 1-258.2 0 129.1 129.1 0 0 1 258.2 0z"/>
            <path fill="#e70013" d="M256.7 341.4a85.7 85.7 0 0 1 0-171.3c11.8 0 25.3 2.8 34.4 9.5-62.6 2.3-78.5 55.5-78.5 76.9s10.1 69.1 78.5 76.2c-7.8 5-22.6 8.7-34.4 8.7z"/>
            <path fill="#e70013" d="M332.1 291.8l-38.9-14.2-25.7 32.4 1.5-41.3-38.8-14.5 39.8-11.4 1.7-41.3 23.2 34.3 39.8-11-25.5 32.5z"/>
        </g>
    </symbol>
<symbol id="om" viewBox="80 0 480 480">
        <defs>
            <clipPath id="a">
                <path fill-opacity=".7" d="M0 0h640v480H0z"/>
            </clipPath>
        </defs>
        <g clip-path="url(#a)">
            <path fill="#ef2d29" fill-rule="evenodd" d="M-3.3-21.6H699v553H-3.3z"/>
            <path fill="#009025" fill-rule="evenodd" d="M174.6 317.3h535.7V525H174.6z"/>
            <path fill="#fff" fill-rule="evenodd" d="M174.6-35.4h564.9v190h-565z"/>
            <g stroke="#ef2d28">
                <g fill="#fff" fill-rule="evenodd" transform="matrix(.19848 0 0 .17744 111.3 -13.4)">
                    <rect width="138.2" height="85" x="17.7" y="467.7" stroke-width="1.4" rx="11.3" ry="11.8"/>
                    <rect width="131.1" height="78" x="21.3" y="471.3" stroke-width="1.3" rx="10.7" ry="10.9"/>
                    <path stroke-width="1.3" d="M65 396l9.7.5.4 5.8 8 5.3 6.2-6.7 7.5 5.3-7 5.8 1.7 8 8.8-.5V430l-7-.4-3.6 6.6 8 7.5-6.2 6.2-6.7-6.6-9.7 2.6.5 9.7-10.6 1-1.4-9.4-8.8-4.8-4.9 6.6-7.5-4.9 4.4-7.5-5.3-4.8H34l-.4-13.7 7.5.9 5.3-8-6.2-6.2 8-7 5.7 5.7 9.7-1.8L65 396z" transform="matrix(.68108 0 0 .5852 38 260.7)"/>
                    <ellipse cx="68.9" cy="426.8" stroke-width="1.3" rx="11.1" ry="9.9" transform="matrix(.65819 0 0 .70224 38.8 209.6)"/>
                    <path stroke-width="1.3" d="M39 474.8l-10.7 10.6m17.8-10.6l-10.7 10.6m17.7-10.6l-10.6 10.6m17.7-10.6l-10.6 10.6m17.7-10.6l-10.6 10.6m17.7-10.6l-10.6 10.6m17.7-10.6l-10.6 10.6m17.7-10.6L78 485.4m17.7-10.6L85 485.4m17.8-10.6L92 485.4m17.7-10.6l-10.6 10.6m17.7-10.6l-10.6 10.6m-17.7-10.6L78 485.4m46-10.6l-10.6 10.6m17.7-10.6l-10.6 10.6m17.7-10.6l-10.6 10.6m17.7-10.6l-10.6 10.6m0-10.6l10.6 10.6m-17.7-10.6l10.6 10.6m-17.7-10.6l10.6 10.6m-17.7-10.6l10.6 10.6m-17.7-10.6l10.6 10.6m-17.7-10.6l10.6 10.6m-17.7-10.6l10.7 10.6M85 474.8l10.6 10.6m-17.8-10.6l10.7 10.6m-17.7-10.6l10.6 10.6m-17.7-10.6l10.6 10.6m-17.7-10.6l10.6 10.6M85 474.8l10.6 10.6m-46-10.6l10.5 10.6m-17.7-10.6l10.7 10.6m-17.8-10.6L46 485.4m-17.8-10.6L39 485.4m0 49.6l-10.6 10.7M46 535l-10.7 10.7M53.2 535l-10.7 10.7M60.2 535l-10.6 10.7M67.3 535l-10.6 10.7M74.4 535l-10.6 10.7M81.5 535L71 545.7M88.6 535L78 545.7M95.7 535L85 545.7m17.7-10.7L92 545.7m18-10.7l-10.7 10.7M117 535l-10.6 10.7M88.6 535L78 545.7m46-10.7l-10.6 10.7m17.7-10.7l-10.6 10.7m17.7-10.7l-10.6 10.7m17.7-10.7l-10.6 10.7m0-10.7l10.6 10.7M127.6 535l10.6 10.7M120.5 535l10.6 10.7M113.4 535l10.6 10.7M106.3 535l10.6 10.7M99.2 535l10.7 10.7M92 535l10.7 10.7M85 535l10.6 10.7M78 535l10.6 10.7M70.9 535l10.6 10.7M63.8 535l10.6 10.7M56.7 535l10.6 10.7M85.1 535l10.6 10.7m-46-10.7l10.5 10.7M42.5 535l10.7 10.7M35.4 535l10.7 10.7M28.4 535L39 545.7"/>
                </g>
                <g fill="#fff" fill-rule="evenodd" transform="matrix(.19848 0 0 .17744 19.1 -14)">
                    <rect width="138.2" height="85" x="17.7" y="467.7" stroke-width="1.4" rx="11.3" ry="11.8"/>
                    <rect width="131.1" height="78" x="21.3" y="471.3" stroke-width="1.3" rx="10.7" ry="10.9"/>
                    <path stroke-width="1.3" d="M65 396l9.7.5.4 5.8 8 5.3 6.2-6.7 7.5 5.3-7 5.8 1.7 8 8.8-.5V430l-7-.4-3.6 6.6 8 7.5-6.2 6.2-6.7-6.6-9.7 2.6.5 9.7-10.6 1-1.4-9.4-8.8-4.8-4.9 6.6-7.5-4.9 4.4-7.5-5.3-4.8H34l-.4-13.7 7.5.9 5.3-8-6.2-6.2 8-7 5.7 5.7 9.7-1.8L65 396z" transform="matrix(.68108 0 0 .5852 38 260.7)"/>
                    <ellipse cx="68.9" cy="426.8" stroke-width="1.3" rx="11.1" ry="9.9" transform="matrix(.65819 0 0 .70224 38.8 209.6)"/>
                    <path stroke-width="1.3" d="M39 474.8l-10.7 10.6m17.8-10.6l-10.7 10.6m17.7-10.6l-10.6 10.6m17.7-10.6l-10.6 10.6m17.7-10.6l-10.6 10.6m17.7-10.6l-10.6 10.6m17.7-10.6l-10.6 10.6m17.7-10.6L78 485.4m17.7-10.6L85 485.4m17.8-10.6L92 485.4m17.7-10.6l-10.6 10.6m17.7-10.6l-10.6 10.6m-17.7-10.6L78 485.4m46-10.6l-10.6 10.6m17.7-10.6l-10.6 10.6m17.7-10.6l-10.6 10.6m17.7-10.6l-10.6 10.6m0-10.6l10.6 10.6m-17.7-10.6l10.6 10.6m-17.7-10.6l10.6 10.6m-17.7-10.6l10.6 10.6m-17.7-10.6l10.6 10.6m-17.7-10.6l10.6 10.6m-17.7-10.6l10.7 10.6M85 474.8l10.6 10.6m-17.8-10.6l10.7 10.6m-17.7-10.6l10.6 10.6m-17.7-10.6l10.6 10.6m-17.7-10.6l10.6 10.6M85 474.8l10.6 10.6m-46-10.6l10.5 10.6m-17.7-10.6l10.7 10.6m-17.8-10.6L46 485.4m-17.8-10.6L39 485.4m0 49.6l-10.6 10.7M46 535l-10.7 10.7M53.2 535l-10.7 10.7M60.2 535l-10.6 10.7M67.3 535l-10.6 10.7M74.4 535l-10.6 10.7M81.5 535L71 545.7M88.6 535L78 545.7M95.7 535L85 545.7m17.7-10.7L92 545.7m18-10.7l-10.7 10.7M117 535l-10.6 10.7M88.6 535L78 545.7m46-10.7l-10.6 10.7m17.7-10.7l-10.6 10.7m17.7-10.7l-10.6 10.7m17.7-10.7l-10.6 10.7m0-10.7l10.6 10.7M127.6 535l10.6 10.7M120.5 535l10.6 10.7M113.4 535l10.6 10.7M106.3 535l10.6 10.7M99.2 535l10.7 10.7M92 535l10.7 10.7M85 535l10.6 10.7M78 535l10.6 10.7M70.9 535l10.6 10.7M63.8 535l10.6 10.7M56.7 535l10.6 10.7M85.1 535l10.6 10.7m-46-10.7l10.5 10.7M42.5 535l10.7 10.7M35.4 535l10.7 10.7M28.4 535L39 545.7"/>
                </g>
                <path fill="#fff" fill-rule="evenodd" stroke-width="1.3" d="M538.6 531.5c1.7 166.6 24.8 202 3.5 202s-31.9-92.1-31.9-205.5 14.2-205.5 35.5-205.5-9 31.9-7.1 209z" transform="matrix(-.32136 -.12684 -.20158 .20221 345.9 61.4)"/>
                <path fill="#fff" fill-rule="evenodd" stroke-width="1.2" d="M545.7 779.5l-60.3 17.7c56.7 60.3 120.5 85 138.2 74.4 17.7-10.6-31.9-35.4-78-92z" transform="matrix(-.19848 0 0 .17744 145.3 -13.4)"/>
                <path fill="#fff" fill-rule="evenodd" stroke-width="1.3" d="M547.3 786.9l-51 14.7c56.7 60.3 112.8 77.4 127.3 70 14.6-7.3-30.3-28-76.3-84.7z" transform="matrix(-.19334 0 0 .17062 142.8 -8.1)"/>
                <path fill="none" stroke-width="1.8" d="M353.1 634.2c.2 1.3.8 7.1 1.3 9.4 0 3.2.3 5.6.6 8.1.8 2.2.7 4.2 3.1 5a9.9 9.9 0 0 0 5 4.4 27.7 27.7 0 0 0 6.3 3.8 11.6 11.6 0 0 0 7.5.6c2.2-1.5 3.8-3.1 5.6-4.4.4-2 .8-4.9 1.3-6.9a32.6 32.6 0 0 0-1.3 8.2c.2 3 1.3 4.4 2.5 6.8" transform="matrix(-.13978 0 0 .12414 123 20.4)"/>
                <path fill="none" stroke-width="1.8" d="M389.4 681.7l.6-.6c-1.5 1.5-.9.8 2.5-1.3 2.4-1.2 5-1.8 8.1-2.4h8.8c3.4 0 5.7.5 8.1 1.2 1.8 1.8 4.4 2.8 6.3 4.4a11 11 0 0 1 3.7 5c1.7 1.7 2.8 4.3 4.4 5.6.7 2.9 2.1 2.8 3.1 5-3 .2-5.3.6-6.9 2.5-2.6 1.3 2.2-1.3 3.2-2.5 2-.6 2.5-1.2 5.6-1.2 2.8-1 4.6.7 7.5 1.2 1.7 1 2.2 1.3 4.4 1.3" transform="matrix(-.13978 0 0 .12414 124.9 19.7)"/>
                <path fill="none" stroke-width="1.8" d="M438.1 724.9c1.3 0 7.1 1.1 9.4 0 2.6-.7 4-2 5.6-4.4.8-1.7 0 3 0 5 .3 3.7 1.4 3.7 3.2 6.2 1.8 1.2 3.7 2.8 5.6 3.8a18 18 0 0 0 5.6 3.1c2 1 4.1 1.8 5.6 3.1 2.1 1.5 2 3.3 3.2 5.7-.3 3-.8 4.8-2.5 6.2-.8 2.1-2.4 4.2-3.8 5.6-1.5 3-3.3 4.3.6 5 2.2 1 3.4.2 5.7 0" transform="matrix(-.13978 0 0 .12414 127 18.2)"/>
                <path fill="none" stroke-width="1.8" d="M480.6 771.7c1.6-.4 7-2.2 9.4-3.1h8.8c3.3.3 4 1.3 6.8 2.5 1.9 1.9 3.1 3.2 5.7 4.4 1.3 1.7 4 4.7 5 6.9a25.5 25.5 0 0 1 1.2 8c0 3.7-1 4.4-1.2 7.6a19.3 19.3 0 0 1-3.8 7.5c-.3.8-.5 1-1.2 1.2" transform="matrix(-.13978 0 0 .12414 127.4 17.8)"/>
                <path fill="none" stroke-width="2.3" d="M538.1 818c.4 0 1.2 2 2.5 3.7 2.9 3 3.2 3.2 7.5 3.2 4-.2 3.5-1.6 6.3-2.5 1.3-2 2.9-3.6 4.4-6.3 1-1.6 1.9-4.1 3-5.6 1.2-1.9 2.6-3.3 3.8-5 1.2-.5 1.6-1 3.2-1.3-3.6.6-4 1.9-6.3 3.8a58.9 58.9 0 0 0-3.1 5.6c-.4 2.7-1.2 4.8-1.3 8.1 0 3.5 0 5.9 1.3 8.8 1.5 1.5 2.5 3.1 4.4 4.4a36.7 36.7 0 0 1 4.3 5l5.7 3.7c1.8 1.1 3.9 2.2 6.8 2.5 3.7-.3 4.8-1.3 7.5-2.5 2.4-1.7 4.2-2.8 6.3-4.4a21 21 0 0 0 4.4-5c3.3-.8 5.5-.5 7.5 1.3a16.5 16.5 0 0 1 4.3 4.4c1 .5 2.8 2 3.8 2.5" transform="matrix(-.09924 0 0 .09799 109.5 38.8)"/>
                <path fill="none" stroke-width="1.9" d="M503.8 836.1c-.8.3-3.8 2.4-5 3.1-.8 2.7-2.1 4.1-2.5 7-.7 2.6-.7 5.6-.7 8.7.7 3.2 2 5.5 3.2 8 2 1.4 3 2.4 5.6 3.8 2.5.4 5 .7 8.1.7 2 .6 5.6.9 7.5 0 2.8-.4 4.9-1.5 6.9-2.5 2.3-1.3 3.7-2.6 6.2-3.8 1.3-1.8 3.2-3.5 5-5.6 1.6-2.1 2.7-3.3 3.8-5.6-1 2.6-2.3 5-3.1 7.5-1.5 2.6-2.3 3.6-2.5 6.8-1 2.6-.7 5.8-.7 8.8.3 2 .4 5.8 1.3 7.5v1.9" transform="matrix(-.12338 0 0 .12229 111.4 19.3)"/>
                <path fill="none" stroke-width="1.2" d="M541.3 799.2v.7c0-1.7 0-.9-.7 2.5-1.1 1.4-4 1.8-6.2 1.2-2-1.7-2-3-5.6-3.7-3.6.2-5 1.2-7 2.5a9.5 9.5 0 0 0-5 4.3c-.7 2.1-1.1 3.6 1.3 4.4a15.2 15.2 0 0 0 7 2.5c2.8 0 4.9-.3 6.2 1.3 2 2 1.8 3.2 1.8 6.8.7 1.1.8 4.4 1.3 5.7a10.6 10.6 0 0 0 5.6 1.2c.7-2 1.4-5.4 1.9-7.5.5-2.2.6-5.4 1.9-6.9a16.6 16.6 0 0 1 4.3-4.4 8 8 0 0 1 3.8-2.4c-2.5 1.2-2.8 2.6-3.1 5.6 2.1 1 2.7 1.8 6.2 1.9 3.5-.3 4.3-1.2 5.6-3.2.3 3.2 1.3 4.2 2 7 1.2 1.8 1.7 3.7 3 6.2-.5 3-1.7 3.1-1.8 6.8-.8 2.5-.8 4.8-2.5 6.3-.8 1-1.4 1.1-3.2 1.2 3.6 0 5.8-.4 8.2-1.8 1.8-1.2 3.2-2.6 5-3.8a23.9 23.9 0 0 1 7.5-3.8c2.9 0 5-.3 6.2 1.3 1.8 1.3 3 3.5 3.8 6.3.5 3.2.8 5.4-.7 7.5-1 2.4-1.3 3.3 0 6.2 1.5 2 3.6 2.3 7 3.1 2.3-.1 4.6-.6 6.2-1.2" transform="matrix(-.19848 0 0 .17744 145.3 -13.4)"/>
                <g fill-rule="evenodd" stroke-width="1.3" transform="matrix(-.19848 0 0 .17744 145.3 -13.4)">
                    <path fill="#fff" d="M531.5 359.6c0-165.2 8-299.4 17.7-299.4 9.8 0 17.7 134.2 17.7 299.4h-35.4z" transform="matrix(1.4216 -.73423 .46161 .89375 -716.8 541)"/>
                    <path fill="#fff" d="M531.5 359.6c0-165.2 8-299.4 17.7-299.4 9.8 0 17.7 134.2 17.7 299.4" transform="matrix(1.1373 -.58739 .44532 .86221 -554.8 471.8)"/>
                    <path fill="#fff" d="M563.4 301.2c.2 18.9 0 40.2 0 60.2H535c0-20-.2-41.3 0-60.2h28.4z" transform="matrix(1.4216 -.73423 .45889 .88849 -716.7 541.4)"/>
                    <path fill="#fff" d="M559.8 304.7c.2 19 0 33.1 0 53.2h-21.2c0-20-.2-34.3 0-53.2h21.2z" transform="matrix(1.4216 -.73423 .45889 .88849 -716.7 541.4)"/>
                    <path fill="#fff" d="M542.1 311.8h14.2v39h-14.2zm0 0l14.2 39m-14.2 0l14.2-39m-14.2-198.4h14.2" transform="matrix(1.4216 -.73423 .45889 .88849 -716.7 541.4)"/>
                    <ellipse cx="545.7" cy="92.1" fill="#ef0000" rx="3.5" ry="3.5" transform="matrix(1.6046 .45375 -.36215 1.5787 -734.9 -170.8)"/>
                </g>
                <path fill="#fff" fill-rule="evenodd" stroke-width="1.3" d="M538.6 531.5c1.7 166.6 24.8 202 3.5 202s-31.9-92.1-31.9-205.5 14.2-205.5 35.5-205.5-9 31.9-7.1 209z" transform="matrix(.32136 -.12684 .20158 .20221 -181.5 60.8)"/>
                <path fill="#fff" fill-rule="evenodd" stroke-width="1.2" d="M545.7 779.5l-60.3 17.7c56.7 60.3 120.5 85 138.2 74.4 17.7-10.6-31.9-35.4-78-92z" transform="matrix(.19848 0 0 .17744 19.1 -14)"/>
                <path fill="#fff" fill-rule="evenodd" stroke-width="1.3" d="M547.3 786.9l-51 14.7c56.7 60.3 112.8 77.4 127.3 70 14.6-7.3-30.3-28-76.3-84.7z" transform="matrix(.19334 0 0 .17062 21.6 -8.8)"/>
                <path fill="none" stroke-width="1.8" d="M353.1 634.2c.2 1.3.8 7.1 1.3 9.4 0 3.2.3 5.6.6 8.1.8 2.2.7 4.2 3.1 5a9.9 9.9 0 0 0 5 4.4 27.7 27.7 0 0 0 6.3 3.8 11.6 11.6 0 0 0 7.5.6c2.2-1.5 3.8-3.1 5.6-4.4.4-2 .8-4.9 1.3-6.9a32.6 32.6 0 0 0-1.3 8.2c.2 3 1.3 4.4 2.5 6.8" transform="matrix(.13978 0 0 .12414 41.4 19.7)"/>
                <path fill="none" stroke-width="1.8" d="M389.4 681.7l.6-.6c-1.5 1.5-.9.8 2.5-1.3 2.4-1.2 5-1.8 8.1-2.4h8.8c3.4 0 5.7.5 8.1 1.2 1.8 1.8 4.4 2.8 6.3 4.4a11 11 0 0 1 3.7 5c1.7 1.7 2.8 4.3 4.4 5.6.7 2.9 2.1 2.8 3.1 5-3 .2-5.3.6-6.9 2.5-2.6 1.3 2.2-1.3 3.2-2.5 2-.6 2.5-1.2 5.6-1.2 2.8-1 4.6.7 7.5 1.2 1.7 1 2.2 1.3 4.4 1.3" transform="matrix(.13978 0 0 .12414 39.5 19)"/>
                <path fill="none" stroke-width="1.8" d="M438.1 724.9c1.3 0 7.1 1.1 9.4 0 2.6-.7 4-2 5.6-4.4.8-1.7 0 3 0 5 .3 3.7 1.4 3.7 3.2 6.2 1.8 1.2 3.7 2.8 5.6 3.8a18 18 0 0 0 5.6 3.1c2 1 4.1 1.8 5.6 3.1 2.1 1.5 2 3.3 3.2 5.7-.3 3-.8 4.8-2.5 6.2-.8 2.1-2.4 4.2-3.8 5.6-1.5 3-3.3 4.3.6 5 2.2 1 3.4.2 5.7 0" transform="matrix(.13978 0 0 .12414 37.4 17.6)"/>
                <path fill="none" stroke-width="1.8" d="M480.6 771.7c1.6-.4 7-2.2 9.4-3.1h8.8c3.3.3 4 1.3 6.8 2.5 1.9 1.9 3.1 3.2 5.7 4.4 1.3 1.7 4 4.7 5 6.9a25.5 25.5 0 0 1 1.2 8c0 3.7-1 4.4-1.2 7.6a19.3 19.3 0 0 1-3.8 7.5c-.3.8-.5 1-1.2 1.2" transform="matrix(.13978 0 0 .12414 37 17.2)"/>
                <path fill="none" stroke-width="2.3" d="M538.1 818c.4 0 1.2 2 2.5 3.7 2.9 3 3.2 3.2 7.5 3.2 4-.2 3.5-1.6 6.3-2.5 1.3-2 2.9-3.6 4.4-6.3 1-1.6 1.9-4.1 3-5.6 1.2-1.9 2.6-3.3 3.8-5 1.2-.5 1.6-1 3.2-1.3-3.6.6-4 1.9-6.3 3.8a58.9 58.9 0 0 0-3.1 5.6c-.4 2.7-1.2 4.8-1.3 8.1 0 3.5 0 5.9 1.3 8.8 1.5 1.5 2.5 3.1 4.4 4.4a36.7 36.7 0 0 1 4.3 5l5.7 3.7c1.8 1.1 3.9 2.2 6.8 2.5 3.7-.3 4.8-1.3 7.5-2.5 2.4-1.7 4.2-2.8 6.3-4.4a21 21 0 0 0 4.4-5c3.3-.8 5.5-.5 7.5 1.3a16.5 16.5 0 0 1 4.3 4.4c1 .5 2.8 2 3.8 2.5" transform="matrix(.09924 0 0 .09799 55 38.2)"/>
                <path fill="none" stroke-width="1.9" d="M503.8 836.1c-.8.3-3.8 2.4-5 3.1-.8 2.7-2.1 4.1-2.5 7-.7 2.6-.7 5.6-.7 8.7.7 3.2 2 5.5 3.2 8 2 1.4 3 2.4 5.6 3.8 2.5.4 5 .7 8.1.7 2 .6 5.6.9 7.5 0 2.8-.4 4.9-1.5 6.9-2.5 2.3-1.3 3.7-2.6 6.2-3.8 1.3-1.8 3.2-3.5 5-5.6 1.6-2.1 2.7-3.3 3.8-5.6-1 2.6-2.3 5-3.1 7.5-1.5 2.6-2.3 3.6-2.5 6.8-1 2.6-.7 5.8-.7 8.8.3 2 .4 5.8 1.3 7.5v1.9" transform="matrix(.12338 0 0 .12229 53 18.6)"/>
                <path fill="none" stroke-width="1.2" d="M541.3 799.2v.7c0-1.7 0-.9-.7 2.5-1.1 1.4-4 1.8-6.2 1.2-2-1.7-2-3-5.6-3.7-3.6.2-5 1.2-7 2.5a9.5 9.5 0 0 0-5 4.3c-.7 2.1-1.1 3.6 1.3 4.4a15.2 15.2 0 0 0 7 2.5c2.8 0 4.9-.3 6.2 1.3 2 2 1.8 3.2 1.8 6.8.7 1.1.8 4.4 1.3 5.7a10.6 10.6 0 0 0 5.6 1.2c.7-2 1.4-5.4 1.9-7.5.5-2.2.6-5.4 1.9-6.9a16.6 16.6 0 0 1 4.3-4.4 8 8 0 0 1 3.8-2.4c-2.5 1.2-2.8 2.6-3.1 5.6 2.1 1 2.7 1.8 6.2 1.9 3.5-.3 4.3-1.2 5.6-3.2.3 3.2 1.3 4.2 2 7 1.2 1.8 1.7 3.7 3 6.2-.5 3-1.7 3.1-1.8 6.8-.8 2.5-.8 4.8-2.5 6.3-.8 1-1.4 1.1-3.2 1.2 3.6 0 5.8-.4 8.2-1.8 1.8-1.2 3.2-2.6 5-3.8a23.9 23.9 0 0 1 7.5-3.8c2.9 0 5-.3 6.2 1.3 1.8 1.3 3 3.5 3.8 6.3.5 3.2.8 5.4-.7 7.5-1 2.4-1.3 3.3 0 6.2 1.5 2 3.6 2.3 7 3.1 2.3-.1 4.6-.6 6.2-1.2" transform="matrix(.19848 0 0 .17744 19.1 -14)"/>
                <g fill-rule="evenodd" stroke-width="1.3" transform="matrix(.19848 0 0 .17744 19.1 -14)">
                    <path fill="#fff" d="M531.5 359.6c0-165.2 8-299.4 17.7-299.4 9.8 0 17.7 134.2 17.7 299.4h-35.4z" transform="matrix(1.4216 -.73423 .46161 .89375 -716.8 541)"/>
                    <path fill="#fff" d="M531.5 359.6c0-165.2 8-299.4 17.7-299.4 9.8 0 17.7 134.2 17.7 299.4" transform="matrix(1.1373 -.58739 .44532 .86221 -554.8 471.8)"/>
                    <path fill="#fff" d="M563.4 301.2c.2 18.9 0 40.2 0 60.2H535c0-20-.2-41.3 0-60.2h28.4z" transform="matrix(1.4216 -.73423 .45889 .88849 -716.7 541.4)"/>
                    <path fill="#fff" d="M559.8 304.7c.2 19 0 33.1 0 53.2h-21.2c0-20-.2-34.3 0-53.2h21.2z" transform="matrix(1.4216 -.73423 .45889 .88849 -716.7 541.4)"/>
                    <path fill="#fff" d="M542.1 311.8h14.2v39h-14.2zm0 0l14.2 39m-14.2 0l14.2-39m-14.2-198.4h14.2" transform="matrix(1.4216 -.73423 .45889 .88849 -716.7 541.4)"/>
                    <ellipse cx="545.7" cy="92.1" fill="#ef0000" rx="3.5" ry="3.5" transform="matrix(1.6046 .45375 -.36215 1.5787 -734.9 -170.8)"/>
                </g>
                <g fill="#fff" fill-rule="evenodd" transform="matrix(.19848 0 0 .17744 19.1 -14)">
                    <path stroke-width="1.3" d="M305.6 396.9c0 124 .5 170.7-5.6 177.1-5.8 6.9-167.1 0-167.1 35.4s132.8 71 172.7 71c53.2 0 79.7-35.5 79.7-106.4V397h-79.7z" transform="matrix(1.3333 0 0 1 -141.7 0)"/>
                    <path stroke-width="1.3" d="M265.8 396.9v17.7a321.1 321.1 0 0 0 106.2 0v-17.7a321.1 321.1 0 0 1-106.2 0z" transform="matrix(1 0 0 .99999 0 35.4)"/>
                    <path stroke-width="1.3" d="M265.8 396.9v17.7a321.1 321.1 0 0 0 106.2 0v-17.7a321.1 321.1 0 0 1-106.2 0z" transform="scale(1 .99999)"/>
                    <path stroke-width="1.3" d="M265.8 396.9v17.7a321.1 321.1 0 0 0 106.2 0v-17.7a321.1 321.1 0 0 1-106.2 0z" transform="matrix(1 0 0 .99999 0 17.7)"/>
                    <path stroke-width="1.3" d="M265.8 396.9v17.7a321.1 321.1 0 0 0 106.2 0v-17.7a321.1 321.1 0 0 1-106.2 0z" transform="matrix(1 0 0 .99999 0 53.1)"/>
                    <ellipse cx="256.9" cy="210.8" stroke-width="4.4" rx="8.9" ry="26.6" transform="matrix(.54545 0 0 .14383 130.5 394.3)"/>
                    <ellipse cx="292.3" cy="246.3" stroke-width="4.4" rx="8.9" ry="26.6" transform="matrix(.54545 0 0 .14383 130.5 391.1)"/>
                    <ellipse cx="327.8" cy="264" stroke-width="4.4" rx="8.9" ry="26.6" transform="matrix(.54545 0 0 .14383 130.5 390.5)"/>
                    <ellipse cx="363.2" cy="264" stroke-width="4.4" rx="8.9" ry="26.6" transform="matrix(.54545 0 0 .14383 130.5 390.5)"/>
                    <ellipse cx="398.6" cy="246.3" stroke-width="4.4" rx="8.9" ry="26.6" transform="matrix(.54545 0 0 .14383 130.5 391.1)"/>
                    <ellipse cx="434.1" cy="210.8" stroke-width="4.4" rx="8.9" ry="26.6" transform="matrix(.54545 0 0 .14383 130.5 394.3)"/>
                    <path stroke-width="1.3" d="M265.8 485.4L372 581.1m-95.6-95.7l95.7 85M290.5 489l81.6 70.9m-71-71l71 60.3M311.8 489l60.2 49.6M322.4 489l49.6 39m-39-39l39 28.3M343.8 489l28.4 21.2M354.3 489l17.8 14.2M365 489l7 7m-106.2 0L372 591.8m0-106.3L255 591.7m106.3-106.3l-102.7 92.2m88.6-88.6l-81.5 70.8m70.8-70.8l-70.8 60.2M326 489l-60.2 49.6m49.6-49.6l-49.6 39m39-39l-39 28.3M294 489l-28.3 21.2m17.7-21.2l-17.7 14.2m7-14.2l-7 7m106.3 0L255 602.5m117-95.7L255 613m117-95.7L255 623.6m117-95.7L255 634.4m117-95.7L255 644.9m117-95.7L255 655.5m117-95.7L255 666.1m117-95.6L255 676.8m117-95.7l-109.9 99.2M372 591.7l-99.2 88.6m95.6-74.4l-78 70.9M365 620l-63.8 56.7m56.7-39l-32 28.3m-60.1-159.4l102.7 92.1m-102.7-81.5l102.7 92.2M265.8 528l99.2 88.5m-99.2-78l99.2 88.7m-99.2-78l95.6 85m-99.2-77.9l95.7 85M262.2 567l88.6 78m-92.1-71l88.6 78M255 581l85 74.4m-85-63.8l81.5 70.9M255 602.3l71 63.7"/>
                    <path stroke-width="1.3" d="M265.8 396.9v17.7a321.1 321.1 0 0 0 106.2 0v-17.7a321.1 321.1 0 0 1-106.2 0z" transform="matrix(1 0 0 .99999 0 70.9)"/>
                    <path stroke-width="1.3" d="M255.1 613l63.8 56.7m-63.8-46l56.7 49.5m-56.7-39l49.6 42.6m-49.6-32l35.5 32M255 655.5l28.4 24.8M255 666.1l17.7 14.2"/>
                    <ellipse cx="256.9" cy="210.8" stroke-width="4.4" rx="8.9" ry="26.6" transform="matrix(.54545 0 0 .14383 130.5 447.5)"/>
                    <ellipse cx="292.3" cy="246.3" stroke-width="4.4" rx="8.9" ry="26.6" transform="matrix(.54545 0 0 .14383 130.5 444.3)"/>
                    <ellipse cx="327.8" cy="264" stroke-width="4.4" rx="8.9" ry="26.6" transform="matrix(.54545 0 0 .14383 130.5 443.6)"/>
                    <ellipse cx="363.2" cy="264" stroke-width="4.4" rx="8.9" ry="26.6" transform="matrix(.54545 0 0 .14383 130.5 443.6)"/>
                    <ellipse cx="398.6" cy="246.3" stroke-width="4.4" rx="8.9" ry="26.6" transform="matrix(.54545 0 0 .14383 130.5 444.3)"/>
                    <ellipse cx="434.1" cy="210.8" stroke-width="4.4" rx="8.9" ry="26.6" transform="matrix(.54545 0 0 .14383 130.5 447.5)"/>
                    <path stroke-width="1.3" d="M113.4 652l127.5-74.4m-134.6 70.8l120.5-70.8m-124 63.7l109.8-63.7M99.2 634.3l95.7-56.7M92 627.2l88.6-49.6m-85 39l60.2-35.5M92 609.4l46-28.3m-46 17.7l32-17.7m0 74.4l120.4-70.9M134.7 659L248 591.7m-102.7 70.9l106.3-63.8m-95.7 67.3l88.6-53.1M170 666.1l78-46m-67.4 49.6l67.3-39m-56.7 42.5l53.2-31.9m-39 32l42.5-24.9m-28.3 28.4L248 659m-14 17.8l17.7-10.6"/>
                    <path stroke-width="1.3" d="M265.8 396.9v17.7a321.1 321.1 0 0 0 106.2 0v-17.7a321.1 321.1 0 0 1-106.2 0z" transform="matrix(0 1 -.99999 0 655.5 308.3)"/>
                    <path stroke-width="1.3" d="M49.6 623.6l42.5-35.4m-42.5 10.6l42.5 42.5"/>
                    <path stroke-width="1.3" d="M260.1 388l5.6 26.6c35.5 5.9 65.3 5.9 100.8 0l11.1-26.6c-35.4 5.9-82 5.9-117.5 0z" transform="matrix(0 .63333 -.8 0 423.8 416.3)"/>
                    <path stroke-width="1.3" d="M258.7 350.8v-17.9c-10.7.2-17.8-10.5-17.8-21.2l-35.4.1c0 10.6-7 21.3-17.7 21.3v17.7h70.9z" transform="matrix(1.4983 0 0 1 -15.6 53.1)"/>
                    <path stroke-width="1.4" d="M296 343.7h45.6V365H296zm3.9-21.3h37.9v21.3h-38zm0-21.2h37.9v21.2h-38zm3.8-28.4H334v28.4h-30.3zm-1.3-24.8h33v24.8h-33z"/>
                    <ellipse cx="237.4" cy="161.2" stroke-width="1.3" rx="42.5" ry="33.7" transform="matrix(1.0333 0 0 1 75.3 63.8)"/>
                    <path stroke-width="1.3" d="M258.7 159.4c0 9.3 10.6 24.8 10.6 24.8-7.7 6.2-20.2 10.7-31.9 10.7s-26.3-2.6-31.9-10.7c0 0 10.6-15.4 10.6-24.7s-10.6-21.3-10.6-21.3a54.6 54.6 0 0 1 32-10.6c11.6 0 24 4.5 31.8 10.6 0 0-10.6 12-10.6 21.3z" transform="matrix(1.0333 0 0 1 75.3 63.8)"/>
                    <path stroke-width="1.3" d="M251.6 159.4c0 9.3 10.6 28.4 10.6 28.4-7.7 6-13 7-24.8 7s-19.2 1.1-24.8-7c0 0 10.6-19 10.6-28.4s-10.6-24.8-10.6-24.8c7.7-6 13-7 24.8-7 11.7 0 17.1 1 24.8 7 0 0-10.6 15.5-10.6 24.8z" transform="matrix(1.0333 0 0 1 75.3 63.8)"/>
                    <ellipse cx="194.9" cy="166.5" stroke-width="1.3" rx="10.6" ry="10.6" transform="matrix(1.0333 0 0 1 75.3 60.2)"/>
                    <ellipse cx="194.9" cy="166.5" stroke-width="1.3" rx="10.6" ry="10.6" transform="matrix(1.0333 0 0 1 163.2 60.2)"/>
                    <ellipse cx="194.9" cy="166.5" stroke-width="1.3" rx="10.6" ry="10.6" transform="matrix(1.0333 0 0 1 119.3 60.2)"/>
                    <ellipse cx="194.9" cy="166.5" stroke-width="1.3" rx="10.6" ry="10.6" transform="matrix(1.0333 0 0 1 119.3 24.8)"/>
                    <ellipse cx="194.9" cy="166.5" stroke-width="1.3" rx="10.6" ry="10.6" transform="matrix(1.0702 0 0 1 80 226.8)"/>
                    <ellipse cx="194.9" cy="166.5" stroke-width="1.3" rx="10.6" ry="10.6" transform="matrix(1.0702 0 0 1 140.6 226.8)"/>
                    <path stroke-width="1.3" d="M212.6 311.8h49.6l-24.8 31.9-24.8-31.9z" transform="matrix(1.0702 0 0 1 64.8 53.1)"/>
                    <ellipse cx="194.9" cy="166.5" stroke-width="1.3" rx="10.6" ry="10.6" transform="matrix(1.427 0 0 1.3333 40.7 167.7)"/>
                </g>
                <g fill="#fff" fill-rule="evenodd" transform="matrix(.19848 0 0 .17744 18.8 -19.1)">
                    <rect width="81.5" height="21.3" x="262.2" y="524.4" stroke-width="1.2" rx="4.3" ry="3.7"/>
                    <path stroke-width="1.2" d="M368.5 506.7c-9.8 0-17.7 8.3-17.7 18.5v16.1a18 18 0 0 0 17.7 18.5 18 18 0 0 0 17.7-18.5v-16a18 18 0 0 0-17.7-18.6zm0 7c-5.9 0-10.6 6.7-10.6 14.9v9.3c0 8.2 4.7 14.8 10.6 14.8 5.9 0 10.6-6.6 10.6-14.8v-9.3c0-8.2-4.7-14.8-10.6-14.8zm-92.1-3.5c-6 0-10.6 6.6-10.6 14.9v16.4c0 8.2 4.7 14.8 10.6 14.8 5.9 0 10.6-6.6 10.6-14.8V525c0-8.3-4.7-14.9-10.6-14.9zm0-7a18 18 0 0 0-17.7 18.5v23.2a18 18 0 0 0 17.7 18.5c9.8 0 17.7-8.3 17.7-18.5v-23.2a18 18 0 0 0-17.7-18.6z"/>
                    <path stroke-width="1.2" d="M248 517.3c-5.9 0-10.6 6.6-10.6 14.8v3.9c0 8.2 4.7 14.8 10.6 14.8 6 0 10.7-6.6 10.7-14.8v-3.9c0-8.2-4.8-14.8-10.7-14.8zm0-7a18 18 0 0 0-17.7 18.5v10.6a18 18 0 0 0 17.7 18.5c9.8 0 17.8-8.3 17.8-18.5v-10.6a18 18 0 0 0-17.8-18.6z"/>
                    <path stroke-width=".9" d="M478.4 237.4c-6 0-10.7 6.6-10.7 14.8v16.5c0 8.1 4.8 14.8 10.7 14.8 5.8 0 10.6-6.6 10.6-14.9v-16.4c0-8.2-4.8-14.8-10.6-14.8zm0-7a18 18 0 0 0-17.8 18.4V272a18 18 0 0 0 17.7 18.6c9.9 0 17.8-8.3 17.8-18.6v-23.2a18 18 0 0 0-17.7-18.5z" transform="matrix(1.8 0 0 1.1176 -655.5 242.2)"/>
                    <path stroke-width=".9" d="M478.4 237.4c-6 0-10.7 6.6-10.7 14.8v16.5c0 8.1 4.8 14.8 10.7 14.8 5.8 0 10.6-6.6 10.6-14.9v-16.4c0-8.2-4.8-14.8-10.6-14.8zm0-7a18 18 0 0 0-17.8 18.4V272a18 18 0 0 0 17.7 18.6c9.9 0 17.8-8.3 17.8-18.6v-23.2a18 18 0 0 0-17.7-18.5z" transform="matrix(1.8 0 0 1.1176 -425.2 245.7)"/>
                    <rect width="42.5" height="21.3" x="375.6" y="524.4" stroke-width="1.2" rx="2.3" ry="3.7"/>
                    <rect width="24.8" height="28.4" x="336.6" y="520.9" stroke-width="1.2" rx="1.3" ry="4.9"/>
                    <rect width="24.8" height="28.4" x="219.7" y="520.9" stroke-width="1.2" rx="1.3" ry="4.9"/>
                    <rect width="49.6" height="35.4" x="141.7" y="517.3" stroke-width="1.2" rx="2.6" ry="6.1"/>
                    <rect width="46.1" height="35.4" x="450" y="520.9" stroke-width="1.2" rx="2.5" ry="6.1"/>
                </g>
            </g>
        </g>
    </symbol>
<symbol id="qa" viewBox="80 0 480 480">
        <path fill="#8d1b3d" d="M0 0h640v480H0z"/>
        <path fill="#fff" d="M0 0v480h158.4l97.8-26.7-97.8-26.6 97.7-26.7-97.7-26.7 97.7-26.6-97.7-26.7 97.8-26.7-97.8-26.6 97.7-26.7-97.7-26.7 97.7-26.6-97.7-26.7 97.8-26.7-97.8-26.6L256.1 80l-97.7-26.7 97.8-26.6L158.3 0H0z"/>
    </symbol>
<symbol id="lb" viewBox="80 0 480 480">
        <defs>
            <clipPath id="a">
                <path fill-opacity=".7" d="M-85.3 0h682.6v512H-85.3z"/>
            </clipPath>
        </defs>
        <g clip-path="url(#a)" transform="translate(80) scale(.9375)">
            <g fill-rule="evenodd" stroke-width="1pt">
                <path fill="red" d="M-128 384h768v128h-768zm0-384h768v128h-768z"/>
                <path fill="#fff" d="M-128 128h768v256h-768z"/>
            </g>
            <path fill="#007900" d="M252.1 130c-7.8 15.5-13 15.5-26 26-5.2 5.1-13 7.7-2.6 13-10.5 5.1-15.7 7.7-20.9 18.1l2.6 2.6s10-4.8 10.4-2.6c1.8 2.1-13 10-14.9 11.3l-11 7c-13.1 10.3-21 7.7-28.7 23.3l26-2.6c5.2 18.2-13 20.8-26 28.6l-20.9 13c5.3 18.2 20.9 7.8 33.9 2.6l2.6 2.6v5.2l-26 13s-30.8 17.6-31.3 18.2c-.2 1 0 5.2 0 5.2 10.4 2.6 26 5.2 36.5 0 13-5.2 15.6-10.4 31.2-10.4a100.6 100.6 0 0 1-52 20.8v10.4c15.6 0 26 0 39-2.6l33.8-10.4c7.8 0 15.7 7.8 13 15.6-7.7 28.6-39 23.4-49.4 46.8L213 369c10.4-5.2 20.8-10.3 33.8-7.7 15.6 5.2 15.6 15.6 36.4 20.8l-5.2-13c5.2 2.6 10.4 2.6 15.7 5.2 13 5.2 15.6 10.4 31.2 7.8-13-15.6-15.6-13-26-23.4-10.4-15.6-15.7-39 0-41.6l18.2 5.2c18.2 2.6 18.2-2.6 44.2 7.8 15.7 5.2 20.9 13 39 7.8-7.7-18.2-36.3-31.2-54.6-36.4 20.9-13 15.6 5.2 44.3-2.6v-5.2C369.3 278 361.4 265 332.8 265l44.3-5.2v-5.2s-43.7-11.4-44.7-11.9c.3-1.3 1.4-3.3 4.3-4.5 8.3 5.4 33.3 4.8 34.8 4.7-.8-6.4-12.7-11.7-23-16.9 0 0-44.7-27.5-44.9-29.9.9-7 18.3 1.1 37 6.5-5.2-10.4-15.6-15.6-26-18.2l15.6-2.6c-10.4-23.4-36.4-20.8-52-31.2-10.5-7.8-10.5-13-26.1-20.7z"/>
            <path fill="#fff" fill-rule="evenodd" stroke="#fff" stroke-linecap="round" stroke-linejoin="round" stroke-width="3.2" d="M224 303c1.9-6.1 4.4-11.6-7.2-16.9-11.6-5.3 5.8 21.1 7.2 17zm13.7-12.3c-2.3.3-3.6 8.8 1.1 11.2 5.2.8 1-11.1-1.1-11.2zm13.5-1c-2.4.8-2.5 12.8 6 10.6 8.6-2.1 0-11.5-6-10.5zM267 259c1.8-3-.1-15-7.4-10-7.4 5.1 5 10.8 7.4 10zm-16-10c2.3-.9 2.5-8.3-4-6.3-6.3 1.9 2.3 7.8 4 6.3zm-14.4 2.9s-4.5-6.2-8-4.9c-4.3 4.2 8.3 5 8 4.9zM187 271.7c1.9.2 16-2.3 20.9-7.8 4.9-5.5-25.1 2.3-25.1 2.4 0 .1 2.8 4.9 4.2 5.4zm141.1-35c.7-1.3-7.5-7.1-12.4-4.8-1.3 4.3 12.4 5.7 12.4 4.8zm-27.8-14c1.6-2.2-3.5-11.3-13.7-6.2-10.2 5 10.7 9.8 13.7 6.3zm-32.1-5.3s2.5-8.2 8.6-6.6c7 5.3-8.3 6.9-8.6 6.6zm-6-6.2c-1-2.3-7.3-1-14.6 3.9-7.4 4.7 16.8 1.4 14.6-4zm18.7-22.1s6.5-3 8.5 0c2.7 4.3-8.6 0-8.5 0zm-5.5-2.9c-1.3-2.6-8.5-2.9-8.3 1-1.2 3 9.4 2.4 8.3-1zm-17.2 0c-.7-1.5-11 0-14 6.2 5 2.4 16.3-2.3 14-6.2zm-22 6.3s-13.4 8.3-14.3 14.3c.4 5.2 16.8-9.4 16.8-9.4s1.4-5.8-2.4-4.9zm-14.9-7.5c.4-1.7 6.7-5.6 7.2-5.3.5 1.7-5.1 6.3-7.2 5.3zm4.3 31.6c.3-2.5-16-2.3-9.9 5.2 5.2 6.3 11-4.1 9.9-5.2zm-15 10.7c-.8-1.6-2-6-4.2-6.4-1.9 0-11.7 2-12.5 3.6-.4 1.3 4.1 9.4 5.6 9.6 1.8.7 10.9-6 11.2-6.8zm88.4 55.2c.5-1.8 17.3-7.5 23-2 6.8 9.3-23.4 5-23 2zm46 10.9c3.7-6.2-11.3-13.6-17.6-6.5 2.2 8.5 14.6 11.6 17.6 6.5z"/>
        </g>        
    </symbol>
<symbol id="ly" viewBox="80 0 480 480">
        <defs>
            <clipPath id="a">
                <path d="M166.7-20h666.6v500H166.7z"/>
            </clipPath>
        </defs>
        <g clip-path="url(#a)" transform="matrix(.96 0 0 .96 -160 19.2)">
            <path fill="#239e46" d="M0-20h1000v500H0z"/>
            <path d="M0-20h1000v375H0z"/>
            <path fill="#e70013" d="M0-20h1000v125H0z"/>
            <path fill="#fff" d="M544.2 185.8a54.3 54.3 0 1 0 0 88.4 62.5 62.5 0 1 1 0-88.4M530.4 230l84.1-27.3-52 71.5v-88.4l52 71.5z"/>
        </g>
    </symbol>
    
<symbol id="eg" viewBox="80 0 480 480">
        <path d="M0 320h640v160H0z"/>
        <path fill="#fff" d="M0 160h640v160H0z"/>
        <path fill="#ce1126" d="M0 0h640v160H0z"/>
        <g fill="#fff" stroke="#c09300" transform="matrix(.8 0 0 .8 -40 0)">
            <path stroke-linejoin="round" stroke-width="1.3" d="M450.8 302.4l68.5 63.6-4.9-115.5c-.7-17.5-15.9-13.5-27-7.2-11.1 7.2-24 7.2-37.4 2.5-13.5 4.7-26.3 4.7-37.4-2.5-11-6.3-26.3-10.3-27 7.2L380.7 366l70.1-63.6z"/>
            <path id="a" fill="#c09300" stroke="none" d="M393.5 246.5l-4.8 112.3-8 7.2 4.9-115.5a24 24 0 0 1 7.9-4zm9.6 8l-4 94-8 8.2 4.8-108.5c1.6 1.6 6.3 5.5 7.2 6.3zm8.7 7.2l-3.1 78.4-6.5 6.3 4-89.4c1.6 1.5 4.8 3.8 5.6 4.7zm9.5 4l-3.1 66.8-6.3 5.1 3.1-74.3c1.6.7 4.7 2.4 6.3 2.4zm8.8 0l-2.3 55.7-6.5 6.3 2.5-61.3c1.5 0 5.6 0 6.3-.7z"/>
            <use width="100%" height="100%" transform="matrix(-1 0 0 1 900 0)" />
            <path fill="#c09300" stroke-width="1.1" d="M453.2 315l9.6 43.8-3.2 3.2-3.3-2.5-5.4-39 2.3 39-3.2 4-3.1-4 2.3-39-5.5 39-3.3 2.5-3.2-3.2 9.6-43.7h6.4z"/>
            <g id="b" fill="none" stroke-linejoin="round" stroke-width="1.3">
                <path fill="#fff" stroke-width="1.2" d="M428.5 295.8l-19.1 67.7 26.3 4 11.1-50.9-18.3-20.8z"/>
                <path d="M422.2 319l2.3 5.5 12.4-11.8"/>
                <path d="M430.8 305l2.6 24.3 7.9-10.4m-3.2 4l4.3 15m1.7-5.5l-8.7 13.2m2.7 13.2l-2.8-13.2-2.4-13.4-5.9 7.9-2.5-9.1-8.2 8.4 4.1 15.2 5.8-9.4 3.1 9.6 6-9.2"/>
                <path d="M415 362l5.3-7.5 3.4 11.5 4.8-8 3.1 9.6"/>
            </g>
            <use width="100%" height="100%" transform="matrix(-1 0 0 1 900 0)" />
            <g stroke-linecap="round" stroke-linejoin="round" stroke-width="1.3">
                <path stroke-width="2.4" d="M450 393.8c20 0 39-1.6 50.2-4.7 4.7-.9 4.7-3.3 4.7-6.5 4.8-1.6 2.4-7.2 5.7-7.2-3.4 1-4-5.5-8-4.7 0-5.6-5.7-6.3-10.4-4.7-9.5 3.1-26.3 3.9-42.2 3.9-16-.8-32.6-.8-42.2-4-4.7-1.5-10.3-.8-10.3 4.8-4-.8-4.7 5.6-8 4.7 3.3 0 .8 5.7 5.6 7.2 0 3.2 0 5.6 4.8 6.5 11 3.1 30.2 4.7 50.1 4.7z"/>
                <path d="M422.9 363.5c6.4.9 13.6 1.6 19.2.9 3.2 0 5.5 5.5-.9 6.3-5.5.7-14.3 0-19-.8a231 231 0 0 1-18.4-4c-5.6-2.4-1.6-7 1.6-6.4a105.3 105.3 0 0 0 17.5 4zm54.2 0c-6.4.9-13.6 1.6-19 .9-3.4 0-5.7 5.5.7 6.3 5.6.7 14.3 0 19-.8 4-.8 12.8-2.3 18.4-4 5.6-2.4 1.6-7-1.6-6.4a105.2 105.2 0 0 1-17.5 4z"/>
                <path d="M403 360.4c-4.8-.9-7 4.7-5.5 7.9.7-1.6 4-1.6 4.7-3.2.9-2.4-.7-2.4.9-4.7zm19.2 14.7c0-3.2 3.1-2.8 3.1-6 0-1.5-.8-4-2.4-4a3.4 3.4 0 0 0-3.2 3.2c-.7 3.1 2.5 3.6 2.5 6.8zm22.7-9.1c4.7 0 4.2 6.3 2 9.5 0-2.3-4-3.2-4-4.8 0-2.4 3.6-2.4 2-4.7zm52-5.6c4.9-.9 7.2 4.7 5.6 7.9-.7-1.6-4-1.6-4.7-3.2-.9-2.4.7-2.4-.9-4.7zM478 375c0-3.2-3.2-2.8-3.2-6 0-1.5.8-4 2.4-4a3.4 3.4 0 0 1 3.2 3.2c.7 3.1-2.5 3.6-2.5 6.8zm-23-9c-4.7 0-4.2 6.3-2 9.5 0-2.3 4-3.2 4-4.8 0-2.4-3.6-2.4-2-4.7z"/>
                <path stroke-width=".9" d="M404.7 362c1.6 0 4 .7 4.7 1.6l-4.7-1.6zm7.9 2.4c.8 0 4 .7 5.5 1.6l-5.5-1.6zm28.6 3.2c-1.5 0-4.7 0-5.5.7l5.5-.8zm-8.7 0c-.9-.9-4-.9-5.6 0h5.6zm62.8-5.6a8 8 0 0 0-4.7 1.6l4.7-1.6zm-7.8 2.4c-1 0-4 .7-5.6 1.6l5.6-1.6zm-28.7 3.2c1.5 0 4.7 0 5.6.7l-5.6-.8zm8.7 0c.9-.9 4-.9 5.6 0h-5.6z"/>
                <g fill="#c09300" stroke="none">
                    <path d="M403.3 374.6c-.5-.1-.8-.6-.6-1 .1-.7.6-1 1-.8.4 0 .9.6.9.8l-.4.7-.2.1c0 .2-.4.2-.7.2zm55 3.9c-.2 0-.6-.5-.6-.7 0-.4.6-1 1-1l.8.4c.3.3.3.9-.1 1.2-.2.2-.8.2-1.1 0zm.3 2.5c-.4-.2-.5-.4-.6-.8 0-.5 0-.6.5-.9l.4-.2.4.2c.4.2.7.4.7.8 0 .3-.3.6-.7.8-.3.2-.4.2-.7 0z"/>
                    <path d="M407.8 370c-.4 0-.9.4-1.2.6-.6.1-1.4.5-2 0-.6-.1-1.4 0-1.5.8.1.7 1 1 1.6.6.4-.5 1.5-.9 1.7 0-.5.8-.4 1.7-.8 2.4 0 .5-.3.9-.5 1.3-.5 0-1 0-1.4.3a2 2 0 0 0-1.6.8c-.4.6-.8 1.2-.9 2 .1.6 1 .8 1.6.9l2 .6 3.2.9c1.6.5 3.2.7 4.8 1.1l.5.1c.7.2 1-.5 1-1l1-3.6c.2-.5.5-1.5-.4-1.3-.5.3-1 .8-1.6.8-.9 0-.4 1 0 1.3 0 .6-.2 1.3-.5 1.8-.6.3-1.2 0-1.8-.2-.5 0-1.7-.3-1.2-1l.5-1.8c.3-.6.3-1.3.5-2-.4-.7-1 .3-1.5.4-.4.2-1.6.3-1 1 .6.4.2 1.1 0 1.7 0 .7-.8 1-1.4.7-.6 0-1.5-.5-1-1.1l.5-1.8.7-2c0-.7.3-1.2.6-1.8 0-.7.5-1.3.5-2 0-.3-.2-.4-.4-.4zm-3.7 7.3a.3.3 0 0 1 .3 0c.2.2.2.4 0 .6l-.3.2c-.5 0-.6-.1-.6-.3 0-.1 0-.2.3-.3a1.4 1.4 0 0 1 .4-.2zm-1 5c-.5-.4-.4-.7.3-1.3.4-.2.5-.2.9.1.6.5.6.8 0 1.3-.2.2-.3.2-.5.2-.3 0-.4 0-.7-.2zm3 1a.9.9 0 0 1-.6-1.1c.2-.4.3-.5.9-.5.7 0 .8.1.9.7 0 .4 0 .5-.3.7a1 1 0 0 1-.8.2zm89.2 0c-.2-.1-.3-.2-.3-.5 0-.4.2-.7.8-.9.6-.3 1-.3 1.2.2.3.6.3.8-.1 1.2-.2.3-.3.3-.8.3s-.6 0-.8-.2zm-85 1.2c-.4 0-.6-.4-.6-.8 0-.3 0-.4.2-.6l.6-.2.6.1c.5.4.6.8.3 1.2-.3.4-.6.4-1.2.3zm21.8 1l-.2-.3c0-.6 0-1.1.2-1.7.1-.5 0-1 .2-1.5l.4-2.8c0-.5 0-1 .2-1.4.1-.8 0-1.5.2-2.2 0-.3.3-1 .6-.6.4.6.9 1 1.4 1.5.4.3 0 .7-.3.8-.4.1-.5.6-.5 1l-.2 1.2c0 .7 0 1.3-.2 2l-.1 1.8-.2 1.2c0 .4 0 .9-.4 1.1-.3.2-.8.2-1-.1zm29.7-9.8l-1.3 1.2c-.6.5.5.7.6 1.1.2.6.2 1.2.2 1.8.2.6.3 1.1.2 1.7 0 .7-.8.5-1.2.9-.5.2-.7.7-1 1a4.2 4.2 0 0 0-.4 1.6c0 .5-.3 1 0 1.4l.1.2h.5l1.5-.1c1.2-.2 2.5-.2 3.7-.3l2.2-.2c.6.1.9-.5.9-1-.4-.7-.1-1.4-.4-2-.2-.8-.1-1.5-.2-2.2 0-.6-.7-.8-1-.4-.4.4-1 .5-1.2.9-.3.6.6.6.8 1l.1 1.5c.1.6-.5.6-1 .7-.5.2-1.2.3-1.5-.3-.2-.5-.2-1-.2-1.5 0-1-.3-1.8-.3-2.7 0-1-.3-2.1-.3-3.2 0-.5-.1-1.2-.8-1.1zm-.6 8.2h.3v.8l-.3.1a3.3 3.3 0 0 1-.4.1 2.5 2.5 0 0 1-.2 0c-.2-.2-.2-.5.1-.8l.5-.2zm-30-9.2c-.3 0-.8.7-1.2.6-.9.1-.8 1-.1 1.3v.8c.1.8-.4 1.5-.3 2.3 0 .8-.3 1.7-.3 2.6-.3.9-.3 1.8-.4 2.7-.1.8-.7.5-1.2.3v-1c.1-.9-.5-1.1-1.2-1.2-.7 0-1-.5-.8-1.1.3-.4 1-.3 1.5-.3 1 .2.9-1.1.4-1.6-.4-.6-1.2-1-1.4-1.6 0-.8-.5-1.7-1.2-2.1-1.1-.1-2 .8-2.3 1.8-.5 0-1 .2-1.4.4-.7.2-1.7 1.4-.7 1.9.5.1 2.2.5 1.4 1.2-.4.8-1.2.8-1.9.6-.7 0-1.5-.4-1.5-1.2-.1-.8-.1-1.6-.4-2.3-.2-.8-1.1-.6-1.2.2-.7.5-.6 1.4-.1 2 .3.7 0 1.6-.3 2.2-.2 1-1.2 1-1.9 1.2-.3.2-1.6 0-1.1.7a4 4 0 0 0 2.4.3c.8 0 1.5-.7 2-1.4.5-.5 1.4-.2 2.2-.2.7 0 1.5.5 2.3.1.2-.5 1.2-1.5 1.5-.5 0 .9.7 1.3 1.5 1.2.9 0 .5.6.5 1.2 0 .9.7 1.4 1.5 1.8h.8c.7-.3 1.5-.6 1.8-1.4.3-.7.3-1.5.5-2.2.2-1.1.4-2.3.4-3.4.3-1 .2-2.1.4-3.2l.3-2.3c0-.5-.2-.5-.5-.4zm-6.7 4.1c.1 0 .2.2.2.5 0 .4.2.7.5.8v.3l-.8.2c-.5 0-.9-.2-1.2-.5l-.2-.2.3-.2.5-.5c.3-.3.5-.4.7-.4zm66-7.9a8.4 8.4 0 0 0-1.7.3c-1 0-1.5 1-.5 1.6.6 1.5 1.5-.4 2.5-.2 1.4.2 1.5 1.8 1.8 3 0 1.1.4 2.2.7 3.3 1 1.1-.7 1.8-1.4 1-.6-.7-2-1.5-2.7-.6-.9.4-1 1.6-1.7 2-1.2.3-1.3-1.2-2-1.8-.6-.9-1.7-1-2.6-1.2-.4-.9-.2-2.4-1-3-.8.3-2.2 1.7-1 2.4 1 1-.5 1.4-1 2-.8.9-1 2-1 3-1.3.7-1.5-.8-1.7-1.7 0-1.1-1-.8-1.7-.4-1 .4-1.4 1.3-2 2v2c.2.9 1.2.5 1.8.4 1-.4 1.4.7.6 1.3-.6.6-2.2.3-2 1.4h1.6c1-.3 2.2-1.1 2.3-2.3.2-1 1.7-.9 2.5-1.1 1-.3 2.3-.4 2.6 1 .7.7 2.2 1.5 3 .5a2.4 2.4 0 0 0 1.1-2.3c-.1-.8 1.3-.8 1.7-.3.5.8 2.1.6 2.9 0 .8-.5 1-1.6 2.2-1.6l5.4-1.5c1.4-.3-.2-1.2-.6-1.8-1-.5-2 1.7-3.2.6-1-.7-.9-2-1.2-3.1-.3-1.4-.2-3-1.2-4-.6-.7-1.6-.9-2.5-.9zm-6.8 9.5c.1 0 .3 0 .5.2.4.2.7.6.7 1 0 .2 0 .2-.3.3l-.5.2c-.2 0-.7-.3-.7-.5v-.4c-.2-.4-.2-.4 0-.6l.3-.2zm6.5.4c.4 0 .6 0 .8.3.1.4 0 .6-.4.8l-.5.2-.4-.3c-.2-.1-.3-.2-.3-.4 0-.3.4-.6.8-.7zm-9 0c.2 0 .3 0 .4.2.2.2.3.3.3.6v.6c0 .3 0 .2-.6.2s-.7 0-.7-.6c0-.4 0-.5.3-.7.1-.2.3-.2.4-.2zm-5.4 1.5a.6.6 0 0 1 .4.4c0 .3 0 .5-.2.6-.3.1-.8.2-1 0a.6.6 0 0 1 0-.1c-.2-.1-.2-.2 0-.3v-.1l.2-.3a.5.5 0 0 1 .6-.2zm9.2 1.2l.5.1v.6h-1.2l-.1-.2c0-.2 0-.3.2-.4l.6-.1zm-17.1 4.8c-.1 0-.3-.1-.1-.2.1-.3.5-.4.8-.6a3.4 3.4 0 0 0 1.4-1c0-.4.4-.6.4-1l-.1-1.4a1.8 1.8 0 0 0-.8-1c-.3-.1-.7-.2-.8-.6 0-.3.3-.6.4-.9l.6-1.2c.3-.3.7 0 .8.2l.5 1c.3.3.5.6.6 1 .2.4.4.7.4 1l.2 1.3c0 .5 0 1.1-.2 1.6l-.6.8c-.3.3-.6.6-1 .7-.3.1-.5.4-.9.4H468l-.1-.1zm-6.9.4c-.2-.2-.3-.3-.3-.6s0-.3.3-.6c.4-.4.6-.4 1.4 0 .7.4 1 .4 1 .1.1-.2.5-.5 1-.5a.8.8 0 0 1 .5.2c.2.2.3.3.3.7 0 .5 0 .5-.3.8-.3.2-.3.2-.7.2a.9.9 0 0 1-.8-.6c0-.2 0-.3-.2-.1l-.2.1c-.2 0-.6.3-.8.5l-.5.1c-.4 0-.4 0-.7-.3zm-19.8-8.9c-.7 0-1.4.6-1.5 1.3.2.7.8 1.5.4 2.2.3 1-.8 1.4-1.5.9-.4-1-.6-2-1.3-3-.8-.2-1.1 1.1-1.7 1.6.3.7 1.1 1.4 1.2 2.3.2 1-.4 2-1.1 2.4-.7.7-1.7.5-2.5.6-1 .6.7.8 1.2.8 1 .1 2.1 0 3-.8.7-.3.6-1.7 1.5-1.8l4.8.3c.8.2 2.1-.1 2.7.5 0 1 1 1.8 1.9 2.2.5.2 1-.5 1.5-.6 1-.3.7-1.5 1.3-2h5c.2 0 .3-.5.6-.7l-.2-1.9c-.3-.8 0-1.8-.5-2.5-.9-.2-1.6.5-2.4.6-1 .4-1.7 1.3-1.8 2.3-.5.9-1.4-.2-1-1l-.1-1c-.5-.5-1.4-.3-2.1-.4l-3-.2c-1 0-1.9.1-2.7-.1-1 0-1-1-1-1.8a1 1 0 0 0-.7-.2zm2 3.7l1 .1h1.3c1 .2 2 .2 3 .2.2 0 .4.2.6.4v2c0 .3 0 .7-.2.8a.7.7 0 0 1-.2.2 1 1 0 0 1-.7-.5v-1.4a1.3 1.3 0 0 0-.7-.3l-2.6-.1-2-.1c-.3-.1-.7 0-.9-.4-.2-.2.1-.6.4-.7a2.3 2.3 0 0 1 1-.2zm11.3.3c.1 0 .2 0 .2.3l.2.5c0 .1 0 .2-.2.2-.5.2-1 .2-1.2 0 0-.1 0-.5.2-.6l.8-.4z"/>
                </g>
            </g>
            <path stroke-width="1.1" d="M450 327.2c32.6-25 29.8-61.8 29.8-61.8l-2.5.2c-6.9 0-23.2-4-27-8.9-4 4.5-20.8 9-27.6 9l-2.5-.3s-2.9 36.7 29.8 61.8z"/>
            <path stroke-width=".9" d="M477.2 268h-.8c-6.2 0-20.6-3.1-26.2-7.9-5.8 4.4-20.5 8-26.6 8a4.7 4.7 0 0 1-.8-.1 73.1 73.1 0 0 0 2.6 18.7 71 71 0 0 0 24.6 37.1 71.2 71.2 0 0 0 24.6-37.2 73.1 73.1 0 0 0 2.6-18.6z"/>
            <path fill="#c09300" stroke="none" d="M439.4 265a62.2 62.2 0 0 1-16.6 3l.1 4.1a72.8 72.8 0 0 0 2.5 14.5 71 71 0 0 0 14 26.8V265zm20.6 0v49.2a71.1 71.1 0 0 0 14.6-27.6 73 73 0 0 0 2.5-14.5l.1-4h-.8c-3.8 0-10.4-1.2-16.4-3.2z"/>
            <g stroke-width="1.3">
                <path stroke-width="1.2" d="M462.3 253c.7.1-.9-3.5-.9-3.5 1.8 1.8 8.4 2.3 8.4 2.3-4-1.8-8-15.1-7.5-25.8.4-10.6-1.5-14.8-3-16.4-2-2-8.5-3.8-12.7-4-2.5-.1-2 1.8-2 1.8-4.5-1.1-9-1.6-11-.2-1.8 1.2-2.2 7.5-.8 6.4 3.3-2.7 6.2-.2 8.2 2.7 1.8 2.5 1.7 9.7-.9 18.2a60 60 0 0 1-10 17.7c4 0 9.6-3.5 9.6-3.5l-1.3 5.5c4.2-2 7.5-5.1 7.5-5.1l4 4.2c1.3-1.8 4-4.2 4-4.2s3.3 3.5 8.4 4z"/>
                <path fill="none" d="M446.1 227.6s-2.2 16.4-6.4 21m10-21.5s-1 16.7-3.8 22m6.9-21.3s0 18.2 1 21.3m3-20.4s.8 15.3 4.6 20.8"/>
                <path fill="#c09300" stroke-width=".3" d="M442 219.6a8 8 0 0 0-1-3.3c-2-3-4.9-5.4-8.2-2.7 0 0 1.1-3.5 3.6-3.6 1.8-.1 6.1 1.4 9.9 7.8 0 0-2.8-.6-3.5 0-1.2 1-.7 1.8-.7 1.8z"/>
                <path fill="#c09300" stroke-width=".3" d="M432.4 209.3c.3-1 .7-1.8 1.3-2.1 2-1.4 6.4-1 10.9.2 0 0-.4-1.9 2-1.8 4.2.2 10.6 2 12.6 4a7.9 7.9 0 0 1 1.5 2.4c-1-1.4-3.8-1.3-4.5-1.2-1 .1-1.7 0-3.1.4-.7.2-1.7.4-2.3.8-.4.4-.8 1.6-1.4 1.6-1 0-1-.2-1.3-.5-.3-.5-.5-1.1-.9-1-1 .1-2.8-.7-5-2.5-2.3-1.8-3.2-2.2-6-2-3 .2-3.8 1.9-3.8 1.9v-.2z"/>
                <circle cx="448.8" cy="210.7" r="1.2" stroke="none"/>
            </g>
        </g>
    </symbol>
    
</svg>