<svg xmlns="http://www.w3.org/2000/svg" viewBox="0 0 32 31.14"><defs><style>.a{fill-rule:evenodd;}</style></defs><title>bathroom</title><path class="a" d="M19.05,5.93h.07A1.42,1.42,0,0,1,20.37,7H17.78a1.43,1.43,0,0,1,1.27-1.09m-17,9.35a2.07,2.07,0,0,0,0,4.14h.6v0l2.15,6.71A3.09,3.09,0,0,0,7.5,28.39h2L7.58,31a.4.4,0,0,0,.08.52.39.39,0,0,0,.53-.08l2.21-3H21.59l2.21,3a.39.39,0,0,0,.53.08.4.4,0,0,0,.08-.52L22.5,28.39h2a3.07,3.07,0,0,0,2.68-2.24l2.16-6.71a0,0,0,0,1,0,0h.59a2.07,2.07,0,0,0,0-4.14H27.64V5.56c0-2.79-2-5.13-4.47-5.13s-4.29,2.15-4.45,4.78A2.32,2.32,0,0,0,17,7.36a.39.39,0,0,0,.38.41h3.5a.39.39,0,0,0,.37-.41,2.33,2.33,0,0,0-1.74-2.14,4.05,4.05,0,0,1,3.71-4c2,0,3.73,1.94,3.73,4.38v9.72Zm0,.74c9.1,0,19.41,0,27.87,0a1.33,1.33,0,0,1,0,2.66H2.06a1.33,1.33,0,0,1,0-2.66m1.38,3.4H28.55l-2.09,6.5a2.51,2.51,0,0,1-2,1.72H7.5a2.53,2.53,0,0,1-2-1.72Z" transform="translate(0 -0.43)"/></svg>