<svg xmlns="http://www.w3.org/2000/svg" viewBox="0 0 26.62 32"><title>car-doors</title><path d="M29.14,19.2a.42.42,0,0,1-.58-.1l-5-7.16-.13-.13a.42.42,0,0,1-.22-.33c-.16-2.7-.47-6.85-.5-7.32A3.77,3.77,0,0,0,19,.82l-6.08,0A3.75,3.75,0,0,0,9.28,4.21l0,.65c-.08,1.36-.29,4.49-.41,6.62a.4.4,0,0,1-.22.33L3.44,19.1a.41.41,0,0,1-.57.1.43.43,0,0,1-.11-.58L8,11.13l.09-1.59.08-1.15.26-4.25A4.62,4.62,0,0,1,12.93,0H19a4.6,4.6,0,0,1,4.49,4.09c0,.06.16,1.92.3,4v.27l.08,1,.1,1.8,5.26,7.47A.43.43,0,0,1,29.14,19.2Z" transform="translate(-2.69)"/><path d="M24.11,27.75a4.19,4.19,0,0,1-1.23,3,4.26,4.26,0,0,1-3,1.25H12.14a4.3,4.3,0,0,1-3-1.15A3.91,3.91,0,0,1,7.91,28V21.23a.42.42,0,0,1,.41-.41.41.41,0,0,1,.41.41l0,6.75a3.11,3.11,0,0,0,1,2.27,3.52,3.52,0,0,0,2.38.93l7.77,0a3.4,3.4,0,0,0,3.39-3.41V21.42a.42.42,0,0,1,.12-.3.43.43,0,0,1,.7.29Z" transform="translate(-2.69)"/><path d="M21.06,21.41l-.3-.13V13.8l.29-.14a1.17,1.17,0,0,0,.32-.18,1.23,1.23,0,0,0,.4-1h0L21.39,7.9a1.2,1.2,0,0,0-.74-1A13.07,13.07,0,0,0,16,6.05a12.71,12.71,0,0,0-4.66.84,1.21,1.21,0,0,0-.74,1l-.38,4.55a1.31,1.31,0,0,0,.42,1,1.12,1.12,0,0,0,.31.19l.3.13V21.3l-.3.13a1.25,1.25,0,0,0-.7,1.29l.39,3a1.21,1.21,0,0,0,.73,1,12.75,12.75,0,0,0,4.64.81,13.5,13.5,0,0,0,4.69-.82,1.22,1.22,0,0,0,.73-1l.37-3A1.22,1.22,0,0,0,21.06,21.41ZM11,13.09l.43-5.35.23-.09A12.49,12.49,0,0,1,16,6.88a12.94,12.94,0,0,1,4.29.73l.25.1L21,13.06l-.55-.13A21.07,21.07,0,0,0,16,12.37a21.36,21.36,0,0,0-4.46.57Zm.84.63.39-.08A19.44,19.44,0,0,1,16,13.2a19.33,19.33,0,0,1,3.76.42l.4.09L20,21.1l-.49-.2A13.48,13.48,0,0,0,16,20.39a12.93,12.93,0,0,0-3.53.53L12,21Zm8.77,12.13-.22.09a12.06,12.06,0,0,1-4.36.77,12.41,12.41,0,0,1-4.3-.73l-.24-.09,0-.25L11,22.29l.32-.12a14.15,14.15,0,0,1,4.7-1,11.36,11.36,0,0,1,4.9,1.09l.08.14Z" transform="translate(-2.69)"/></svg>