<svg xmlns="http://www.w3.org/2000/svg" viewBox="0 0 32 29.65"><defs><style>.a{fill:#fff;}.b{fill:#475660;}</style></defs><title>furnished</title><path d="M32,1.77V30.23a.6.6,0,0,1-.6.6H26.19a.6.6,0,0,1-.59-.6.59.59,0,0,1,.59-.59h4.62V2.36H19.24V7.73a.59.59,0,1,1-1.18,0v-6a.6.6,0,0,1,.6-.6H31.4a.6.6,0,0,1,.6.6" transform="translate(0 -1.17)"/><path d="M28.41,4.15H21.64a.6.6,0,0,0-.59.59V7.21a.6.6,0,0,0,.59.6h6.77a.6.6,0,0,0,.6-.6V4.74a.6.6,0,0,0-.6-.59M28,6.77H22.08V5.18H28Z" transform="translate(0 -1.17)"/><path d="M9.54,11.94,7,5.52a.46.46,0,0,0-.42-.28H3a.42.42,0,0,0-.41.28L0,11.94a.46.46,0,0,0,0,.41.44.44,0,0,0,.37.2H4.26V30.23a.45.45,0,1,0,.89,0V12.55H9.06a.45.45,0,0,0,.23,0,.44.44,0,0,0,.25-.57M1.1,11.66,3.32,6.13H6.26l0,.1,2.18,5.43Z" transform="translate(0 -1.17)"/><path d="M23.39,28.06v0Zm0,0v0Zm0,0v0Zm0,0v0Zm0,0v0Zm0,0v0Zm3.27-10a2.33,2.33,0,0,0-1.57-.72,2,2,0,0,0-.68.13l-.24.09,0-.24c.45-3.43.07-5.7-1.1-6.79-2-1.86-9-1.86-11,0-1.18,1.1-1.55,3.41-1.09,6.91l0,.28-.27-.14a2.1,2.1,0,0,0-2.51.48,2.25,2.25,0,0,0-.77,2.14,4.55,4.55,0,0,0,2,2.65l.07,0,.12,4.44a.44.44,0,0,0,.43.43h.18l.34,2.58a.43.43,0,0,0,.43.38H12a.47.47,0,0,0,.46-.4l.32-2.55h.12a.47.47,0,0,0,.3-.14l0-.06h8.4l0,0a.47.47,0,0,0,.32.16h.12l.34,2.57a.44.44,0,0,0,.43.38h.95a.45.45,0,0,0,.44-.38l.32-2.58h.14a.47.47,0,0,0,.49-.43l.12-4.44.06,0a4.63,4.63,0,0,0,2-2.65,2.31,2.31,0,0,0-.78-2.14M11.57,30.45l-.34-2.69h.68Zm.91-3.57H10.6l-.12-4.27a.48.48,0,0,0-.29-.41,3.78,3.78,0,0,1-1.78-2.14,1.4,1.4,0,0,1,.51-1.35,1.24,1.24,0,0,1,1.94,0l.23.22a1.8,1.8,0,0,0,.2.19,2.49,2.49,0,0,0,.23.23,3.37,3.37,0,0,1,1,2.32Zm9.14-.21H13.36V24.54h8.26Zm1.77,3.78-.34-2.69h.69Zm3.17-10.39a2.91,2.91,0,0,1-.86,1.43,3.77,3.77,0,0,1-.93.71.44.44,0,0,0-.27.4l-.13,4.28H22.5V21.66a3.31,3.31,0,0,1,.95-2.31l.21-.2.21-.2.24-.25a1.23,1.23,0,0,1,1.94,0,1.4,1.4,0,0,1,.51,1.35m-3.16,8h0v0Zm0,0v0Zm0,0v0Zm0,0v0Zm0,0v0Z" transform="translate(0 -1.17)"/><polygon class="a" points="11.57 26.89 11.58 26.91 11.58 26.89 11.57 26.89"/><rect class="a" x="13.36" y="21.08" width="8.25" height="1.4"/><path class="a" d="M22.46,11.22c-1.63-1.52-8-1.52-9.68,0-1.46,1.35-1,5.25-.57,7.47l0,0,0,0a4.23,4.23,0,0,1,1.13,2.43v.13h8.2l0-.13a4,4,0,0,1,1.16-2.49l.31-.31v0c.45-2.57.71-5.89-.62-7.13" transform="translate(0 -1.17)"/><polygon class="b" points="23.4 26.89 23.4 26.91 23.39 26.89 23.4 26.89"/></svg>