<svg xmlns="http://www.w3.org/2000/svg" viewBox="0 0 31.28 32"><title>location</title><path d="M16.36,1a8.05,8.05,0,0,1,8,8c0,6.83-8,14.06-8,14.06s-8-7.08-8-14.06a8.06,8.06,0,0,1,8-8m0,11.22a3.2,3.2,0,1,0-3.2-3.2,3.21,3.21,0,0,0,3.2,3.2M16.36,0A9.06,9.06,0,0,0,7.3,9.06c0,7.33,8.05,14.53,8.38,14.81a1,1,0,0,0,1.36,0c.36-.32,8.38-7.58,8.38-14.81A9.06,9.06,0,0,0,16.36,0m0,11.25a2.19,2.19,0,1,1,2.19-2.19,2.2,2.2,0,0,1-2.19,2.19" transform="translate(-0.36)"/><path d="M16,32C8.77,32,.36,30.53.36,26.35c0-2.48,3.13-4.63,8.38-5.75a.56.56,0,0,1,.64.43.52.52,0,0,1-.43.65c-4.56.94-7.51,2.8-7.51,4.67C1.44,29,7.55,30.92,16,30.92S30.56,29,30.56,26.35c0-2-2.8-3.77-7.51-4.67a.53.53,0,0,1-.43-.65.54.54,0,0,1,.64-.43c5.32,1,8.38,3.13,8.38,5.75C31.64,30.53,23.19,32,16,32" transform="translate(-0.36)"/></svg>