<svg xmlns="http://www.w3.org/2000/svg" viewBox="0 0 32.95 17.17"><defs><style>.a{stroke:#000;stroke-linecap:round;stroke-linejoin:round;}</style></defs><title>mileage</title><path class="a" d="M16,7.91a16,16,0,0,0-16,16h.2v.2H2.44v-.4h-2A15.55,15.55,0,0,1,4.85,13l1.42,1.42.28-.28L5.13,12.74A15.56,15.56,0,0,1,15.8,8.31v2h.4v-2a15.56,15.56,0,0,1,10.67,4.43l-1.42,1.42.27.28L27.15,13a15.55,15.55,0,0,1,4.43,10.67h-2v.4h2.22v-.2H32A16,16,0,0,0,16,7.91Z" transform="translate(0.48 -7.41)"/><path class="a" d="M24,15.86l-6.63,6.45A2.06,2.06,0,0,0,16,21.8a2.1,2.1,0,0,0-2.09,2.09h.4A1.69,1.69,0,0,1,16,22.2a1.71,1.71,0,0,1,1.06.38l-1.2,1.17.28.28,1.2-1.17a1.69,1.69,0,0,1,.35,1h.4a2.07,2.07,0,0,0-.47-1.3l6.63-6.45Z" transform="translate(0.48 -7.41)"/></svg>