<svg xmlns="http://www.w3.org/2000/svg" viewBox="0 0 32 31.9"><title>size</title><path d="M28.76,22.27v-.43a1.07,1.07,0,0,0-1.1-1.1H12.08a1.05,1.05,0,0,0-.78.33l-8,8a1.08,1.08,0,0,0-.32.78,1.11,1.11,0,0,0,.32.78l.34.33L0,32l1-3.63.32.33a1.1,1.1,0,0,0,1.56,0l8-8a1,1,0,0,0,.32-.77V4.44a1.07,1.07,0,0,0-1.1-1.1H9.69L11.56.05l1.85,3.29H13a1.07,1.07,0,0,0-1.1,1.1V19A1.08,1.08,0,0,0,13,20.15H27.66A1.07,1.07,0,0,0,28.76,19V18.6L32,20.44Z" transform="translate(0 -0.05)"/><path d="M32,20.44,28.76,18.6V19a1.07,1.07,0,0,1-1.1,1.11H13A1.08,1.08,0,0,1,11.88,19V4.44A1.07,1.07,0,0,1,13,3.34h.43L11.56.05,9.69,3.33h.44a1.07,1.07,0,0,1,1.1,1.1V19.87a1,1,0,0,1-.32.77l-8,8a1.1,1.1,0,0,1-1.56,0L1,28.32,0,32l3.63-1-.34-.33A1.11,1.11,0,0,1,3,29.85a1.08,1.08,0,0,1,.32-.78l8-8a1.05,1.05,0,0,1,.78-.33H27.66a1.07,1.07,0,0,1,1.1,1.1v.43Z" transform="translate(0 -0.05)"/></svg>