<svg xmlns="http://www.w3.org/2000/svg" viewBox="0 0 26.92 32"><title>warranty</title><path d="M18.55,26.44a4.58,4.58,0,0,1-1.37-.28A4.5,4.5,0,0,0,16,25.92a4.5,4.5,0,0,0-1.18.24,4.58,4.58,0,0,1-1.37.28,2.3,2.3,0,0,1-.45-.05,3.72,3.72,0,0,1-1.58-1,4,4,0,0,0-.91-.71,4.12,4.12,0,0,0-1.15-.28,3.6,3.6,0,0,1-1.75-.6,3.56,3.56,0,0,1-1-1.59,4.12,4.12,0,0,0-.53-1.05,3.81,3.81,0,0,0-.9-.75,3.71,3.71,0,0,1-1.33-1.31,3.59,3.59,0,0,1-.19-1.84,4.33,4.33,0,0,0,0-1.2,4.32,4.32,0,0,0-.48-1,3.59,3.59,0,0,1-.64-1.78,3.59,3.59,0,0,1,.64-1.78,4.38,4.38,0,0,0,.48-1,4.25,4.25,0,0,0,0-1.19,3.58,3.58,0,0,1,.19-1.84A3.56,3.56,0,0,1,5.2,6.05a4.36,4.36,0,0,0,.9-.75,4.12,4.12,0,0,0,.53-1,3.5,3.5,0,0,1,1-1.59,3.6,3.6,0,0,1,1.75-.6,4.12,4.12,0,0,0,1.15-.29,4.27,4.27,0,0,0,.91-.7A3.63,3.63,0,0,1,13,.05a2.3,2.3,0,0,1,.45,0,4.9,4.9,0,0,1,1.37.27A4.16,4.16,0,0,0,16,.52,4.16,4.16,0,0,0,17.18.27,4.9,4.9,0,0,1,18.55,0,2.3,2.3,0,0,1,19,.05a3.63,3.63,0,0,1,1.58,1,4.27,4.27,0,0,0,.91.7,4.12,4.12,0,0,0,1.15.29,3.6,3.6,0,0,1,1.75.6,3.5,3.5,0,0,1,1,1.59,4.12,4.12,0,0,0,.53,1,4.36,4.36,0,0,0,.9.75,3.56,3.56,0,0,1,1.33,1.31,3.59,3.59,0,0,1,.19,1.84,4.25,4.25,0,0,0,0,1.19,4.38,4.38,0,0,0,.48,1,3.59,3.59,0,0,1,.64,1.78A3.59,3.59,0,0,1,28.82,15a4.32,4.32,0,0,0-.48,1,4.33,4.33,0,0,0,0,1.2,3.59,3.59,0,0,1-.19,1.84,3.71,3.71,0,0,1-1.33,1.31,3.81,3.81,0,0,0-.9.75,4.12,4.12,0,0,0-.53,1.05,3.56,3.56,0,0,1-1,1.59,3.6,3.6,0,0,1-1.75.6,4.12,4.12,0,0,0-1.15.28,4,4,0,0,0-.91.71,3.72,3.72,0,0,1-1.58,1A2.3,2.3,0,0,1,18.55,26.44ZM16,25.12a4.9,4.9,0,0,1,1.41.28,3,3,0,0,0,1.41.21A2.93,2.93,0,0,0,20,24.78a5.23,5.23,0,0,1,1.11-.84,5,5,0,0,1,1.37-.35,3,3,0,0,0,1.38-.44,3,3,0,0,0,.73-1.26,5.31,5.31,0,0,1,.65-1.25,4.92,4.92,0,0,1,1.07-.91,3,3,0,0,0,1.07-1,3,3,0,0,0,.11-1.44,5.19,5.19,0,0,1,0-1.42,4.81,4.81,0,0,1,.57-1.27,3.05,3.05,0,0,0,.53-1.38,3.09,3.09,0,0,0-.53-1.39,4.61,4.61,0,0,1-.57-1.26,5.26,5.26,0,0,1,0-1.43,3,3,0,0,0-.11-1.44,3.15,3.15,0,0,0-1.07-1,4.61,4.61,0,0,1-1.07-.9,5.18,5.18,0,0,1-.65-1.26,3,3,0,0,0-.73-1.26,3.12,3.12,0,0,0-1.38-.43,4.7,4.7,0,0,1-1.37-.36A4.92,4.92,0,0,1,20,1.65,3,3,0,0,0,18.82.83,3,3,0,0,0,17.41,1,4.9,4.9,0,0,1,16,1.32,4.9,4.9,0,0,1,14.59,1,3,3,0,0,0,13.18.83,3,3,0,0,0,12,1.65a4.92,4.92,0,0,1-1.11.84,4.7,4.7,0,0,1-1.37.36,3.12,3.12,0,0,0-1.38.43,3,3,0,0,0-.73,1.26A5.18,5.18,0,0,1,6.73,5.8a4.87,4.87,0,0,1-1.07.9,3.15,3.15,0,0,0-1.07,1,3,3,0,0,0-.11,1.44,5.26,5.26,0,0,1,0,1.43,4.61,4.61,0,0,1-.57,1.26,3.09,3.09,0,0,0-.53,1.39,3.13,3.13,0,0,0,.53,1.39,4.61,4.61,0,0,1,.57,1.26,5.19,5.19,0,0,1,0,1.42,3,3,0,0,0,.11,1.44,3,3,0,0,0,1.07,1,4.92,4.92,0,0,1,1.07.91,5.31,5.31,0,0,1,.65,1.25,3,3,0,0,0,.73,1.26,3,3,0,0,0,1.38.44,5,5,0,0,1,1.37.35,4.94,4.94,0,0,1,1.1.84,3,3,0,0,0,1.22.83,3,3,0,0,0,1.41-.21A4.9,4.9,0,0,1,16,25.12Z" transform="translate(-2.54)"/><path d="M16,23.92a10.7,10.7,0,1,1,10.66-10.7A10.69,10.69,0,0,1,16,23.92Zm0-20.6a9.9,9.9,0,1,0,9.86,9.9A9.89,9.89,0,0,0,16,3.32Z" transform="translate(-2.54)"/><path d="M15.34,17.76l-3.83-4.24a.42.42,0,0,1,0-.57.4.4,0,0,1,.57,0l3.12,3.47,4.62-7.17a.4.4,0,0,1,.56-.12.4.4,0,0,1,.11.55Z" transform="translate(-2.54)"/><path d="M13,30.79l-1.85-1.51-2.33,0,1.34-4.93a.4.4,0,0,1,.78.21l-1.06,3.9,1.55,0,1.24,1,1.45-3.61a.41.41,0,0,1,.52-.22.39.39,0,0,1,.22.52Z" transform="translate(-2.54)"/><path d="M21,32l-3.15-5.48a.4.4,0,1,1,.7-.4l2.6,4.54,1.06-1.14,1.57-.17-2.27-4.88a.4.4,0,0,1,.72-.34L25,30l-2.38.27Z" transform="translate(-2.54)"/></svg>