<svg version="1.1" xmlns="http://www.w3.org/2000/svg" viewBox="0 0 256 256">
<path d="M246.2,245.9h-34.5V5.1c0-2.8-2.3-5.1-5.1-5.1H49.7c-2.8,0-5.1,2.3-5.1,5.1v240.8H10.1c-2.8,0-5.1,2.3-5.1,5.1s2.3,5.1,5.1,5.1h236.1c2.8,0,5.1-2.3,5.1-5.1S249,245.9,246.2,245.9z M54.8,10.1h146.8v235.7H153v-58.2c0-2.8-2.3-5.1-5.1-5.1h-35.2c-2.8,0-5.1,2.3-5.1,5.1v58.2H54.8V10.1z M142.9,245.9h-25.1v-53.1h25.1V245.9z"/>
<g><rect x="80.6" y="35.8" width="26.7" height="26.7"/><rect x="144.4" y="35.8" width="26.7" height="26.7"/><rect x="80.6" y="81" width="26.7" height="26.7"/><rect x="144.4" y="81" width="26.7" height="26.7"/><rect x="80.6" y="126.2" width="26.7" height="26.7"/><rect x="144.4" y="126.2" width="26.7" height="26.7"/></g>
</svg>