<svg xmlns="http://www.w3.org/2000/svg" viewBox="0 0 28.24 32.75"><defs><style>.a{fill:none;stroke:#000;stroke-linecap:round;stroke-linejoin:round;stroke-width:0.75px;}</style></defs><title>1</title><rect class="a" x="7.98" y="5.75" width="2.72" height="4.08"/><rect class="a" x="7.98" y="11.95" width="2.72" height="4.08"/><rect class="a" x="17.63" y="5.75" width="2.72" height="4.08"/><rect class="a" x="12.76" y="11.95" width="2.72" height="4.08"/><line class="a" x1="5.93" y1="0.38" x2="22.31" y2="0.38"/><line class="a" x1="0.38" y1="32.38" x2="27.87" y2="32.38"/><rect class="a" x="17.63" y="11.95" width="2.72" height="4.08"/><rect class="a" x="12.76" y="5.75" width="2.72" height="4.08"/><rect class="a" x="7.98" y="18.17" width="2.72" height="4.08"/><rect class="a" x="12.76" y="18.17" width="2.72" height="4.08"/><rect class="a" x="17.63" y="18.17" width="2.72" height="4.08"/><path class="a" d="M6.7,32V2.87H25.29V32a.06.06,0,0,0,0,0m-7,0V25.26H13.67V32" transform="translate(-1.88 0.38)"/></svg>