<svg xmlns="http://www.w3.org/2000/svg" viewBox="0 0 256 256"><path d="M246.2 245.9h-34.5V5.1c0-2.8-2.3-5.1-5.1-5.1H49.7c-2.8 0-5.1 2.3-5.1 5.1v240.8H10.1c-2.8 0-5.1 2.3-5.1 5.1s2.3 5.1 5.1 5.1h236.1c2.8 0 5.1-2.3 5.1-5.1s-2.3-5.1-5.1-5.1zM54.8 10.1h146.8v235.7H153v-58.2c0-2.8-2.3-5.1-5.1-5.1h-35.2c-2.8 0-5.1 2.3-5.1 5.1v58.2H54.8V10.1zm88.1 235.8h-25.1v-53.1h25.1v53.1z"/><path d="M80.6 35.8h26.7v26.7H80.6zm63.8 0h26.7v26.7h-26.7zM80.6 81h26.7v26.7H80.6zm63.8 0h26.7v26.7h-26.7zm-63.8 45.2h26.7v26.7H80.6zm63.8 0h26.7v26.7h-26.7z"/></svg>