<?xml version="1.0" encoding="utf-8"?>
<!-- Generator: Adobe Illustrator 24.0.0, SVG Export Plug-In . SVG Version: 6.00 Build 0)  -->
<svg version="1.1" id="Layer_1" xmlns="http://www.w3.org/2000/svg" xmlns:xlink="http://www.w3.org/1999/xlink" x="0px" y="0px"
	 viewBox="0 0 256 256" style="enable-background:new 0 0 256 256;" xml:space="preserve">
<style type="text/css">
	.st0{fill:#8699A3;}
</style>
<g>
	<path class="st0" d="M246.21,245.86h-34.53V5.07c0-2.8-2.27-5.07-5.07-5.07H49.68c-2.8,0-5.07,2.27-5.07,5.07v240.78H10.07
		c-2.8,0-5.07,2.27-5.07,5.07S7.27,256,10.07,256h236.14c2.8,0,5.07-2.27,5.07-5.07S249.02,245.86,246.21,245.86z M54.75,10.14
		h146.79v235.71h-48.52v-58.17c0-2.8-2.27-5.07-5.07-5.07h-35.2c-2.8,0-5.07,2.27-5.07,5.07v58.17H54.75V10.14z M142.87,245.86
		h-25.05v-53.1h25.05V245.86z"/>
	<g>
		<rect x="80.62" y="35.78" class="st0" width="26.73" height="26.73"/>
		<rect x="144.35" y="35.78" class="st0" width="26.73" height="26.73"/>
		<rect x="80.62" y="81" class="st0" width="26.73" height="26.73"/>
		<rect x="144.35" y="81" class="st0" width="26.73" height="26.73"/>
		<rect x="80.62" y="126.23" class="st0" width="26.73" height="26.73"/>
		<rect x="144.35" y="126.23" class="st0" width="26.73" height="26.73"/>
	</g>
</g>
</svg>
