<?xml version="1.0" encoding="utf-8"?>
<!-- Generator: Adobe Illustrator 24.0.0, SVG Export Plug-In . SVG Version: 6.00 Build 0)  -->
<svg version="1.1" id="Layer_1" xmlns="http://www.w3.org/2000/svg" xmlns:xlink="http://www.w3.org/1999/xlink" x="0px" y="0px"
	 viewBox="0 0 30 30" style="enable-background:new 0 0 30 30;" xml:space="preserve">
<style type="text/css">
	.st0{fill:#8699A3;}
</style>
<g>
	<g>
		<path class="st0" d="M15,0.21C6.84,0.21,0.21,6.85,0.21,15c0,8.15,6.63,14.79,14.79,14.79c8.15,0,14.79-6.64,14.79-14.79
			C29.79,6.85,23.15,0.21,15,0.21z M15,29.38C7.07,29.38,0.62,22.93,0.62,15C0.62,7.07,7.07,0.62,15,0.62
			c7.93,0,14.38,6.45,14.38,14.38C29.38,22.93,22.93,29.38,15,29.38z"/>
		<path class="st0" d="M7.17,9.6c0.01,0.01,0.03,0.02,0.04,0.03c0,0,0.01-0.01,0.01-0.01c0.27-0.33,0.54-0.67,0.8-1
			c0.1-0.12,0.2-0.24,0.29-0.37c0.1-0.12,0.12-0.28,0.06-0.43C8.3,7.68,8.16,7.58,7.99,7.58c-0.14,0-0.25,0.08-0.33,0.19
			C7.53,7.92,7.42,8.07,7.3,8.21c-0.24,0.3-0.49,0.61-0.73,0.91c0.13,0.1,0.25,0.2,0.38,0.3C7.02,9.49,7.09,9.55,7.17,9.6z"/>
		<path class="st0" d="M15,1.87C7.75,1.87,1.87,7.75,1.87,15c0,7.25,5.88,13.13,13.13,13.13c7.25,0,13.13-5.88,13.13-13.13
			C28.13,7.75,22.25,1.87,15,1.87z M12.88,2.69l1.23-0.14L15,5.15l0.89-2.6l1.23,0.14l0.14,3.69L16.3,6.25l-0.09-2.46l-0.86,2.46
			h-0.68l-0.87-2.46L13.7,6.25l-0.96,0.14L12.88,2.69z M4.59,8.77C4.5,8.69,4.4,8.61,4.3,8.53c0,0-0.04-0.03-0.04-0.03
			C4.28,8.48,4.3,8.46,4.31,8.44C4.57,8.12,4.82,7.8,5.08,7.48c0.3-0.37,0.59-0.74,0.89-1.11C6.03,6.3,6.08,6.23,6.14,6.16
			c0.1-0.12,0.23-0.22,0.38-0.28c0.32-0.12,0.69-0.04,0.93,0.2C7.58,6.19,7.66,6.34,7.7,6.5C7.74,6.67,7.72,6.83,7.68,7
			C7.7,6.98,7.72,6.96,7.74,6.94c0.29-0.2,0.67-0.26,0.99-0.11c0.33,0.15,0.54,0.44,0.59,0.79c0.01,0.13,0.01,0.26-0.03,0.39
			C9.21,8.26,9.04,8.45,8.88,8.64C8.58,9.02,8.27,9.4,7.96,9.79c-0.25,0.32-0.51,0.64-0.76,0.95c-0.02,0.02-0.04,0.05-0.06,0.07
			c0,0.01-0.03-0.02-0.03-0.02c-0.09-0.08-0.19-0.15-0.28-0.23c-0.37-0.3-0.74-0.59-1.11-0.89C5.34,9.37,4.97,9.07,4.59,8.77z
			 M15,23.21c-4.53,0-8.2-3.67-8.2-8.21s3.67-8.2,8.2-8.2c4.53,0,8.2,3.67,8.2,8.2S19.53,23.21,15,23.21z M22.82,10.76l-0.47-0.81
			l1.62-2.13l-2.43,1.12L20.85,8.3l2.22-2.92l0.68,0.63L22.47,7.7l2.05-0.94l0.6,0.75l-1.37,1.79l1.92-0.88l0.47,0.81L22.82,10.76z"
			/>
		<path class="st0" d="M7.14,7.26c0.03-0.14,0-0.27-0.09-0.38c-0.11-0.13-0.3-0.17-0.46-0.1C6.47,6.83,6.4,6.93,6.32,7.03
			C6.03,7.38,5.75,7.74,5.46,8.1c0,0-0.07,0.08-0.06,0.08c0.06,0.05,0.12,0.09,0.18,0.14C5.72,8.45,5.88,8.57,6.03,8.7
			c0.15-0.19,0.3-0.38,0.45-0.57c0.15-0.19,0.3-0.38,0.46-0.57C7.02,7.47,7.1,7.38,7.14,7.26z"/>
		<path class="st0" d="M7.84,15H15V7.84C11.09,7.94,7.94,11.09,7.84,15z"/>
		<path class="st0" d="M15,22.16c3.91-0.1,7.06-3.25,7.16-7.16H15V22.16z"/>
	</g>
</g>
</svg>
