<?xml version="1.0" encoding="utf-8"?>
<!-- Generator: Adobe Illustrator 24.0.0, SVG Export Plug-In . SVG Version: 6.00 Build 0)  -->
<svg version="1.1" id="Layer_1" xmlns="http://www.w3.org/2000/svg" xmlns:xlink="http://www.w3.org/1999/xlink" x="0px" y="0px"
	 viewBox="0 0 256 256" style="enable-background:new 0 0 256 256;" xml:space="preserve">
<style type="text/css">
	.st0{fill:#8699A3;}
</style>
<g>
	<g>
		<path class="st0" d="M128,0C57.38,0,0,57.47,0,128s57.38,128,128,128c70.53,0,128-57.47,128-128S198.53,0,128,0z M128,252.45
			C59.37,252.45,3.55,196.63,3.55,128S59.37,3.55,128,3.55S252.45,59.37,252.45,128C252.45,196.63,196.63,252.45,128,252.45z"/>
		<path class="st0" d="M60.24,81.27c0.09,0.09,0.26,0.17,0.35,0.26l0.09-0.09c2.34-2.86,4.67-5.8,6.92-8.65
			c0.87-1.04,1.73-2.08,2.51-3.2c0.87-1.04,1.04-2.42,0.52-3.72c-0.61-1.21-1.82-2.08-3.29-2.08c-1.21,0-2.16,0.69-2.86,1.64
			c-1.13,1.3-2.08,2.6-3.12,3.81c-2.08,2.6-4.24,5.28-6.32,7.88c1.13,0.87,2.16,1.73,3.29,2.6C58.94,80.31,59.54,80.83,60.24,81.27z
			"/>
		<path class="st0" d="M128,14.37C65.25,14.37,14.37,65.25,14.37,128S65.25,241.63,128,241.63S241.63,190.75,241.63,128
			C241.63,65.25,190.75,14.37,128,14.37z M109.65,21.46l10.65-1.21l7.7,22.5l7.7-22.5l10.65,1.21l1.21,31.94l-8.31-1.13l-0.78-21.29
			l-7.44,21.29h-5.89l-7.53-21.29l-0.87,21.29l-8.31,1.21L109.65,21.46z M37.91,74.08c-0.78-0.69-1.64-1.38-2.51-2.08l-0.35-0.26
			c0.17-0.17,0.35-0.35,0.43-0.52c2.25-2.77,4.41-5.54,6.66-8.31c2.6-3.2,5.11-6.4,7.7-9.61c0.52-0.61,0.95-1.21,1.47-1.82
			c0.87-1.04,1.99-1.9,3.29-2.42c2.77-1.04,5.97-0.35,8.05,1.73c1.13,0.95,1.82,2.25,2.16,3.63c0.35,1.47,0.17,2.86-0.17,4.33
			c0.17-0.17,0.35-0.35,0.52-0.52c2.51-1.73,5.8-2.25,8.57-0.95c2.86,1.3,4.67,3.81,5.11,6.84c0.09,1.13,0.09,2.25-0.26,3.38
			c-0.69,2.16-2.16,3.81-3.55,5.45c-2.6,3.29-5.28,6.58-7.96,9.95c-2.16,2.77-4.41,5.54-6.58,8.22c-0.17,0.17-0.35,0.43-0.52,0.61
			c0,0.09-0.26-0.17-0.26-0.17c-0.78-0.69-1.64-1.3-2.42-1.99c-3.2-2.6-6.4-5.11-9.61-7.7C44.4,79.28,41.2,76.68,37.91,74.08z
			 M128,199.05c-39.2,0-70.97-31.76-70.97-71.05S88.8,57.03,128,57.03S198.97,88.8,198.97,128S167.2,199.05,128,199.05z
			 M195.68,91.3l-4.07-7.01l14.02-18.43l-21.03,9.69l-5.97-5.54l19.21-25.27l5.89,5.45l-11.08,14.63l17.74-8.14l5.19,6.49
			l-11.86,15.49l16.62-7.62l4.07,7.01L195.68,91.3z"/>
		<path class="st0" d="M59.98,61.01c0.26-1.21,0-2.34-0.78-3.29c-0.95-1.13-2.6-1.47-3.98-0.87c-1.04,0.43-1.64,1.3-2.34,2.16
			c-2.51,3.03-4.93,6.14-7.44,9.26c0,0-0.61,0.69-0.52,0.69c0.52,0.43,1.04,0.78,1.56,1.21c1.21,1.13,2.6,2.16,3.89,3.29
			c1.3-1.64,2.6-3.29,3.89-4.93c1.3-1.64,2.6-3.29,3.98-4.93C58.94,62.83,59.63,62.05,59.98,61.01z"/>
		<path class="st0" d="M66.03,128H128V66.03C94.16,66.9,66.9,94.16,66.03,128z"/>
		<path class="st0" d="M128,189.97c33.84-0.87,61.1-28.13,61.97-61.97H128V189.97z"/>
	</g>
</g>
</svg>
