<svg xmlns="http://www.w3.org/2000/svg" viewBox="0 0 256 256">
<path d="M128,0C57.4,0,0,57.5,0,128s57.4,128,128,128c70.5,0,128-57.5,128-128S198.5,0,128,0z M128,252.4C59.4,252.4,3.5,196.6,3.5,128S59.4,3.5,128,3.5S252.4,59.4,252.4,128S196.6,252.4,128,252.4z"/>
<path d="M60.2,81.3c0.1,0.1,0.3,0.2,0.3,0.3l0.1-0.1c2.3-2.9,4.7-5.8,6.9-8.7c0.9-1,1.7-2.1,2.5-3.2c0.9-1,1-2.4,0.5-3.7c-0.6-1.2-1.8-2.1-3.3-2.1c-1.2,0-2.2,0.7-2.9,1.6c-1.1,1.3-2.1,2.6-3.1,3.8c-2.1,2.6-4.2,5.3-6.3,7.9c1.1,0.9,2.2,1.7,3.3,2.6C58.9,80.3,59.5,80.8,60.2,81.3z"/>
<path d="M128,14.4C65.2,14.4,14.4,65.2,14.4,128S65.2,241.6,128,241.6S241.6,190.8,241.6,128S190.8,14.4,128,14.4z M109.7,21.5l10.7-1.2l7.7,22.5l7.7-22.5l10.6,1.2l1.2,31.9l-8.3-1.1L138.5,31L131,52.3h-5.9L117.6,31l-0.9,21.3l-8.3,1.2L109.7,21.5zM37.9,74.1c-0.8-0.7-1.6-1.4-2.5-2.1l-0.3-0.3c0.2-0.2,0.3-0.3,0.4-0.5c2.2-2.8,4.4-5.5,6.7-8.3c2.6-3.2,5.1-6.4,7.7-9.6c0.5-0.6,1-1.2,1.5-1.8c0.9-1,2-1.9,3.3-2.4c2.8-1,6-0.3,8,1.7c1.1,1,1.8,2.2,2.2,3.6c0.3,1.5,0.2,2.9-0.2,4.3c0.2-0.2,0.3-0.3,0.5-0.5c2.5-1.7,5.8-2.2,8.6-1c2.9,1.3,4.7,3.8,5.1,6.8c0.1,1.1,0.1,2.2-0.3,3.4c-0.7,2.2-2.2,3.8-3.6,5.4c-2.6,3.3-5.3,6.6-8,9.9c-2.2,2.8-4.4,5.5-6.6,8.2c-0.2,0.2-0.3,0.4-0.5,0.6c0,0.1-0.3-0.2-0.3-0.2c-0.8-0.7-1.6-1.3-2.4-2c-3.2-2.6-6.4-5.1-9.6-7.7C44.4,79.3,41.2,76.7,37.9,74.1z M128,199.1c-39.2,0-71-31.8-71-71.1s31.8-71,71-71s71,31.8,71,71S167.2,199.1,128,199.1z M195.7,91.3l-4.1-7l14-18.4l-21,9.7l-6-5.5l19.2-25.3l5.9,5.5l-11.1,14.6l17.7-8.1l5.2,6.5l-11.9,15.5l16.6-7.6l4.1,7L195.7,91.3z"/>
<path d="M60,61c0.3-1.2,0-2.3-0.8-3.3c-1-1.1-2.6-1.5-4-0.9c-1,0.4-1.6,1.3-2.3,2.2c-2.5,3-4.9,6.1-7.4,9.3c0,0-0.6,0.7-0.5,0.7c0.5,0.4,1,0.8,1.6,1.2c1.2,1.1,2.6,2.2,3.9,3.3c1.3-1.6,2.6-3.3,3.9-4.9c1.3-1.6,2.6-3.3,4-4.9C58.9,62.8,59.6,62,60,61z"/>
<path d="M66,128h62V66C94.2,66.9,66.9,94.2,66,128z"/><path d="M128,190c33.8-0.9,61.1-28.1,62-62h-62V190z"/></svg>
