<?xml version="1.0" encoding="utf-8"?>
<!-- Generator: Adobe Illustrator 24.0.0, SVG Export Plug-In . SVG Version: 6.00 Build 0)  -->
<svg version="1.1" id="Layer_1" xmlns="http://www.w3.org/2000/svg" xmlns:xlink="http://www.w3.org/1999/xlink" x="0px" y="0px"
	 viewBox="0 0 250 250" style="enable-background:new 0 0 250 250;" xml:space="preserve">
<g>
	<path d="M249.3,227.5L129.9,44.7l14.7-22.4c1.2-1.9,0.7-4.4-1.2-5.6c-1.9-1.2-4.4-0.7-5.6,1.2L125,37.3l-12.7-19.4
		c-1.2-1.9-3.8-2.4-5.6-1.2c-0.9,0.6-1.5,1.5-1.8,2.6c-0.2,1.1,0,2.1,0.6,3.1l14.7,22.4L0.7,227.5c-0.8,1.3-0.9,2.8-0.2,4.2
		c0.7,1.3,2.1,2.1,3.6,2.1h241.9c1.5,0,2.9-0.8,3.6-2.1C250.2,230.3,250.2,228.7,249.3,227.5z M145.1,169.3v56.4h-40.2v-56.4H145.1z
		 M149.2,161.1h-48.4c-2.2,0-4.1,1.8-4.1,4.1v60.4H11.6L125,53.1l113.4,172.5h-85.1v-60.4C153.3,162.9,151.4,161.1,149.2,161.1z"/>
</g>
</svg>
