<svg xmlns="http://www.w3.org/2000/svg" viewBox="0 0 256 256">
<path d="M128,0c-20.6,0-39.9,13.5-54.3,37.9C59.5,62,51.7,94,51.7,128c0,34,7.8,66,22.1,90.1C88.1,242.6,107.4,256,128,256
c20.6,0,39.9-13.4,54.3-37.9c14.2-24.1,22-56.1,22-90.1c0-34-7.8-66-22-90.1C167.9,13.5,148.6,0,128,0z M128,252.2
c-19.2,0-37.2-12.8-51-36c-13.9-23.5-21.5-54.8-21.5-88.2c0-33.4,7.6-64.7,21.5-88.2c13.8-23.2,31.8-36,51-36
c19.2,0,37.3,12.8,51,36c13.9,23.5,21.5,54.8,21.5,88.2s-7.6,64.7-21.5,88.2C165.3,239.4,147.2,252.2,128,252.2z"/>
<polygon points="163.6,120.8 163.6,119.5 128,119.5 128,119.5 92.4,119.5 92.4,120.8 128,120.8"/>
<polygon points="128,128.4 163.6,128.4 163.6,127 128,127 128,127 92.4,127 92.4,128.4"/>
<polygon points="167.4,123 128,123 128,123 88.6,123 88.6,124.3 128,124.3 128,124.3 167.4,124.3"/>
<path d="M158.6,137.8c3.5,0,5.1-3.1,5.1-5.7h3.5v-1.6H128l0,0H88.9v1.6h3.5c0,2.5,1.6,5.7,5.1,5.7c3.5,0,4.7-2.2,4.7-5.4
c3.5,0,16.2,0,16.2,15.1h9.6l0,0h9.7c0-15.1,12.7-15.1,16.1-15.1C153.8,135.6,155.1,137.8,158.6,137.8z"/>
<path d="M141.4,149.3H128l0,0h-13.3c-0.4,0-0.7,0.3-0.7,0.7v5.3c0,0.4,0.3,0.7,0.7,0.7H128l0,0h13.4c0.3,0,0.6-0.3,0.6-0.7V150
C142,149.6,141.7,149.3,141.4,149.3z"/>
<path d="M88.6,114.2v4H128h39.4v-4H164c0-18.8,3.4-42.1,16.5-59.4c-8.5,1.9-18.9,10.9-23.1,16.5c3.5-1.2,6.6-3.4,9.6-4.6
c-3,6.5-11.9,33.4-11.9,47.5h-8.5c-10-16.8-15.8-26.1-15.8-60.5c5.4,3.1,7.3,5.4,13.1,6.5c-6.5-6.5-16-21.1-16-35.2
c0,14.2-9.4,28.8-15.9,35.2c5.8-1.1,7.7-3.4,13.1-6.5c0,34.5-5.7,43.7-15.8,60.5h-8.4c0-14.1-8.9-41-11.9-47.5
c3.1,1.1,6.1,3.4,9.6,4.6C94.4,65.8,84,56.8,75.5,54.8c13.1,17.3,16.5,40.6,16.5,59.4L88.6,114.2L88.6,114.2z M131.6,97.4
c1.1,6.5,5.4,11.5,8.1,16.8h-8.1V97.4z M124.4,97.4v16.8h-8.1C119,108.9,123.2,103.9,124.4,97.4z"/>
<polygon points="153.7,194.8 157.7,194.8 155.7,187.2"/>
<path d="M138.3,169.7v-11.6c0-0.4-0.3-0.7-0.7-0.7H128l0,0h-9.6c-0.4,0-0.7,0.3-0.7,0.7v11.6l-54.9,0C72.5,216,98,249.1,128,249.1
c30,0,55.6-33.1,65.3-79.5L138.3,169.7z M89.6,201.1H87l0-16.1l-4.4,12.8L78.5,185l0,16.1h-2.7v-20.5h4.3l2.6,8.9l2.6-8.9h4.3
C89.6,180.6,89.6,201.1,89.6,201.1z M102.7,201.1l-0.8-3.2h-5.8l-0.7,3.2h-3.6l5.6-20.5h3.1l5.8,20.5H102.7z M119.2,198.4
c-0.5,1-1.1,1.8-1.9,2.3c-0.8,0.5-1.9,0.8-3.1,0.8c-1.8,0-3.2-0.6-6.3-2.9l2.1-2.7c2.6,1.8,3.3,2.1,4.2,2.1c0.9,0,1.6-0.3,2.1-0.8
c0.5-0.6,0.7-1.2,0.7-2c0-0.5-0.1-0.9-0.3-1.2c-0.2-0.3-0.6-0.6-1-0.9c-0.4-0.2-1.2-0.7-2.4-1.2c-1.7-0.9-2.9-1.9-3.7-2.5
c-1-0.9-1.9-2.2-1.9-3.8c0-1.1,0.3-2.1,0.7-3c0.4-0.9,1.1-1.4,1.8-1.9c0.8-0.5,2.3-0.6,3.4-0.6c1.8,0,3.6,0.9,5.3,2.7l-2.3,2.4
c-1.2-1.2-2.1-1.6-2.9-1.7c-0.7-0.1-1.6,0-2.1,0.5c-0.3,0.3-0.5,0.7-0.5,1.3c0,0.5,0.2,0.9,0.5,1.2c0.4,0.4,1.5,1.4,2.8,2.2
c1.4,0.8,2.6,1.5,3.3,1.9c1.6,1.2,1.7,1.9,1.8,2.2c0.4,0.9,0.4,1.4,0.4,2.7C119.9,196.6,119.6,197.4,119.2,198.4z M131.7,201.1
h-9.4v-20.5h9.1v3.4h-6.2v4.5h5.7v3.4h-5.7v5.6h6.5L131.7,201.1L131.7,201.1z M145.3,201.1h-2.9l-2.3-4.6
c-0.6,0.1-1.2,0.1-1.7,0.1v4.5h-2.9v-20.5h2.9c4.4,0,8.9,1.3,8.9,7.6c0,4.8-2.1,6.9-4.6,7.8L145.3,201.1z M159.4,201.1l-0.8-3.2
h-5.8l-0.7,3.2h-3.6l5.6-20.5h3.1l5.8,20.5H159.4z M173.6,184.1h-4.2v17h-2.9v-17h-4.2v-3.4h11.4L173.6,184.1L173.6,184.1z
 M176.9,201.1v-20.5h2.9v20.5H176.9z"/>
<polygon points="97.1,194.8 101,194.8 99,187.2"/>
<path d="M138.4,183.7v9.9c2.4,0,5.6-0.5,5.6-5.3C144.1,184.4,141.2,183.7,138.4,183.7z"/>
</svg>
