<?xml version="1.0" encoding="utf-8"?>
<!-- Generator: Adobe Illustrator 24.0.0, SVG Export Plug-In . SVG Version: 6.00 Build 0)  -->
<svg version="1.1" id="Layer_1" xmlns="http://www.w3.org/2000/svg" xmlns:xlink="http://www.w3.org/1999/xlink" x="0px" y="0px"
	 viewBox="0 0 256 256" style="enable-background:new 0 0 256 256;" xml:space="preserve">
<style type="text/css">
	.st0{fill:#8699A3;}
</style>
<g>
	<g>
		<path class="st0" d="M127.99,0c-20.57,0-39.86,13.47-54.27,37.87c-14.24,24.11-22.07,56.14-22.07,90.13
			c0,34.01,7.83,66.03,22.07,90.14c14.41,24.41,33.7,37.85,54.27,37.85c20.62,0,39.9-13.44,54.32-37.85
			c14.23-24.1,22.04-56.13,22.04-90.14c0-34-7.81-66.02-22.04-90.13C167.89,13.47,148.61,0,127.99,0z M127.99,252.21
			c-19.16,0-37.25-12.78-51-36c-13.9-23.51-21.53-54.84-21.53-88.21c0-33.36,7.63-64.68,21.53-88.21c13.75-23.21,31.84-36,51-36
			c19.21,0,37.33,12.79,51.04,36c13.88,23.53,21.53,54.85,21.53,88.21c0,33.36-7.65,64.69-21.53,88.21
			C165.32,239.43,147.2,252.21,127.99,252.21z"/>
		<polygon class="st0" points="163.63,120.81 163.63,119.5 127.99,119.5 127.99,119.5 92.39,119.5 92.39,120.81 127.99,120.81 		"/>
		<polygon class="st0" points="127.99,128.36 163.63,128.36 163.63,127.03 127.99,127.03 127.99,127.03 92.39,127.03 92.39,128.36 
			127.99,128.36 		"/>
		<polygon class="st0" points="167.4,122.96 127.99,122.96 127.99,122.96 88.6,122.96 88.6,124.29 127.99,124.29 127.99,124.29 
			167.4,124.29 		"/>
		<path class="st0" d="M158.56,137.83c3.46,0,5.06-3.15,5.06-5.68h3.47v-1.58h-39.11l0,0H88.92v1.58h3.47
			c0,2.53,1.58,5.68,5.06,5.68c3.46,0,4.74-2.22,4.74-5.37c3.49,0,16.15,0,16.15,15.14h9.64l0,0h9.66
			c0-15.14,12.66-15.14,16.15-15.14C153.8,135.61,155.06,137.83,158.56,137.83z"/>
		<path class="st0" d="M141.36,149.33h-13.37l0,0h-13.35c-0.36,0-0.65,0.3-0.65,0.67v5.3c0,0.35,0.29,0.67,0.65,0.67h13.35l0,0
			h13.37c0.34,0,0.65-0.31,0.65-0.67V150C142.01,149.63,141.71,149.33,141.36,149.33z"/>
		<path class="st0" d="M88.6,114.24v3.96h39.39h39.41v-3.96h-3.43c0-18.77,3.43-42.14,16.53-59.4
			c-8.48,1.92-18.86,10.92-23.07,16.49c3.46-1.16,6.55-3.45,9.58-4.6c-3.03,6.51-11.9,33.41-11.9,47.5h-8.46
			c-10.02-16.85-15.77-26.06-15.77-60.54c5.37,3.07,7.29,5.36,13.08,6.5c-6.53-6.5-15.96-21.07-15.96-35.25
			c0,14.19-9.41,28.75-15.92,35.25c5.75-1.14,7.68-3.43,13.06-6.5c0,34.48-5.73,43.68-15.77,60.54h-8.44
			c0-14.09-8.87-40.99-11.92-47.5c3.05,1.14,6.14,3.44,9.6,4.6C94.38,65.76,84,56.77,75.53,54.85
			c13.07,17.26,16.52,40.62,16.52,59.4H88.6z M131.64,97.39c1.15,6.5,5.39,11.49,8.06,16.85h-8.06V97.39z M124.36,97.39v16.85h-8.07
			C119,108.89,123.2,103.9,124.36,97.39z"/>
		<polygon class="st0" points="153.74,194.84 157.69,194.84 155.67,187.25 		"/>
		<path class="st0" d="M138.32,169.67v-11.56c0-0.36-0.28-0.66-0.67-0.66h-9.66l0,0h-9.64c-0.42,0-0.69,0.3-0.69,0.66v11.56
			l-54.92,0.01c9.73,46.37,35.28,79.46,65.25,79.46c30.01,0,55.57-33.1,65.3-79.48L138.32,169.67z M89.62,201.1h-2.66l-0.02-16.12
			l-4.37,12.8l-4.1-12.8l-0.02,16.12H75.8v-20.48h4.34l2.57,8.95l2.56-8.95h4.35V201.1z M102.74,201.1l-0.82-3.18h-5.76l-0.72,3.18
			h-3.57l5.55-20.48h3.07l5.81,20.48H102.74z M119.16,198.42c-0.47,1.02-1.14,1.8-1.95,2.29c-0.85,0.51-1.9,0.75-3.12,0.75
			c-1.85,0-3.22-0.6-6.3-2.91l2.11-2.68c2.63,1.76,3.33,2.07,4.21,2.07c0.92,0,1.63-0.28,2.08-0.84c0.47-0.57,0.71-1.22,0.71-1.97
			c0-0.47-0.1-0.89-0.3-1.23c-0.19-0.34-0.55-0.64-1.02-0.89c-0.36-0.16-1.23-0.68-2.38-1.24c-1.65-0.85-2.87-1.88-3.65-2.53
			c-0.97-0.85-1.95-2.18-1.95-3.78c0-1.05,0.27-2.06,0.68-2.97c0.43-0.91,1.06-1.45,1.84-1.93c0.78-0.49,2.29-0.59,3.38-0.59
			c1.79,0,3.57,0.86,5.34,2.69l-2.28,2.41c-1.24-1.17-2.13-1.57-2.92-1.73c-0.69-0.14-1.61,0.02-2.08,0.52
			c-0.32,0.32-0.49,0.74-0.49,1.27c0,0.48,0.16,0.89,0.47,1.24c0.36,0.45,1.54,1.42,2.8,2.18c1.45,0.84,2.6,1.46,3.26,1.95
			c1.57,1.18,1.71,1.91,1.83,2.24c0.39,0.89,0.45,1.37,0.45,2.68C119.86,196.58,119.62,197.39,119.16,198.42z M131.72,201.1h-9.44
			v-20.48h9.15v3.45h-6.23v4.54h5.66v3.43h-5.66v5.61h6.51V201.1L131.72,201.1z M145.32,201.1h-2.91l-2.28-4.55
			c-0.59,0.06-1.16,0.08-1.68,0.08v4.46h-2.89v-20.48h2.89c4.38,0,8.87,1.33,8.87,7.55c0,4.78-2.08,6.91-4.58,7.81L145.32,201.1z
			 M159.45,201.1l-0.8-3.18h-5.78l-0.74,3.18h-3.57l5.55-20.48h3.1l5.81,20.48H159.45z M173.56,184.07h-4.24v17.03h-2.92v-17.03
			h-4.24v-3.45h11.41V184.07L173.56,184.07z M176.87,201.1v-20.48h2.89v20.48H176.87z"/>
		<polygon class="st0" points="97.06,194.84 101.04,194.84 98.98,187.25 		"/>
		<path class="st0" d="M138.44,183.7v9.91c2.37,0,5.65-0.48,5.65-5.28C144.09,184.36,141.22,183.7,138.44,183.7z"/>
	</g>
</g>
</svg>
