<?xml version="1.0" encoding="utf-8"?>
<!-- Generator: Adobe Illustrator 24.0.0, SVG Export Plug-In . SVG Version: 6.00 Build 0)  -->
<svg version="1.1" id="Layer_1" xmlns="http://www.w3.org/2000/svg" xmlns:xlink="http://www.w3.org/1999/xlink" x="0px" y="0px"
	 viewBox="0 0 256 256" style="enable-background:new 0 0 256 256;" xml:space="preserve">
<g>
	<g>
		<path d="M72.7,0L0,72.7v110.8L72.1,256h111.2l72.7-72.7V72.2L184.4,0H72.7z M233.9,173.4l-60.5,60.5H82.6l-60.5-60.2V82.6
			l60.5-60.2h91.9L233.9,82V173.4z"/>
		<polygon points="73.7,98.9 58.2,67.4 35.2,89 35.2,166.1 57.3,188.5 57.3,113.4 76.6,156.2 98.4,99.2 98.4,218.7 122.8,218.7 
			122.8,36.6 96.9,36.6 		"/>
		<path d="M139.9,36.6v182.1h27.9l52.9-52.6v-38.4H180v22.1h15.2c4-0.6,4.3,4,1.4,7.5c-2.9,3.5-32.3,32.3-32.3,32.3V65.7l34.3,35.8
			v8.7h22.1V89.9l-52.3-53.2L139.9,36.6L139.9,36.6z"/>
	</g>
</g>
</svg>
