<?xml version="1.0" encoding="utf-8"?>
<!-- Generator: Adobe Illustrator 24.0.0, SVG Export Plug-In . SVG Version: 6.00 Build 0)  -->
<svg version="1.1" id="Layer_1" xmlns="http://www.w3.org/2000/svg" xmlns:xlink="http://www.w3.org/1999/xlink" x="0px" y="0px"
	 viewBox="0 0 256 256" style="enable-background:new 0 0 256 256;" xml:space="preserve">
<style type="text/css">
	.st0{fill:#8699A3;}
</style>
<g>
	<g>
		<path class="st0" d="M72.72,0L0,72.73v110.81l72.11,72.43h111.16L256,183.28V72.16L184.44,0H72.72z M233.88,173.37l-60.49,60.51
			H82.63L22.1,173.67V82.6l60.53-60.22h91.9l59.35,59.65V173.37z"/>
		<polygon class="st0" points="73.65,98.89 58.21,67.45 35.24,89.02 35.24,166.11 57.35,188.51 57.35,113.44 76.55,156.18 
			98.37,99.19 98.37,218.72 122.82,218.72 122.82,36.62 96.9,36.62 		"/>
		<path class="st0" d="M139.9,36.62v182.1h27.91l52.94-52.61v-38.43h-40.74v22.13h15.18c4.02-0.6,4.33,4.03,1.43,7.54
			c-2.94,3.52-32.31,32.28-32.31,32.28V65.71l34.33,35.8v8.72h22.11V89.87l-52.33-53.24H139.9z"/>
	</g>
</g>
</svg>
