<svg xmlns="http://www.w3.org/2000/svg" viewBox="0 0 28.11 32.75"><defs><style>.a{fill:none;stroke:#000;stroke-linecap:round;stroke-linejoin:round;stroke-width:0.75px;}</style></defs><title>1030</title><path class="a" d="M8.49,20c.31-2.08,2.35-3.3,5.56-3.63A1.92,1.92,0,0,1,16,15a1.9,1.9,0,0,1,1.94,1.41c2.71.49,5.25,1.15,5.62,3.6" transform="translate(-1.95 0.38)"/><path class="a" d="M21,28.37H11a2.42,2.42,0,0,1-2.55-2.28V22.31H8a.81.81,0,0,1,0-1.62H24a.81.81,0,0,1,0,1.62h-.41v3.78A2.43,2.43,0,0,1,21,28.37Zm3-6.76h0Z" transform="translate(-1.95 0.38)"/><path class="a" d="M29.45,11.27,16.29.11A.44.44,0,0,0,16,0a.3.3,0,0,0-.26.11L2.53,11.32a.45.45,0,0,0-.19.52.4.4,0,0,0,.41.32h.81V31.53A.44.44,0,0,0,4,32H28a.44.44,0,0,0,.46-.47V12.16h.81a.44.44,0,0,0,.46-.47A.49.49,0,0,0,29.45,11.27Z" transform="translate(-1.95 0.38)"/><line class="a" x1="11.07" y1="13.43" x2="11.07" y2="11.03"/><line class="a" x1="13.84" y1="13.43" x2="13.84" y2="8.47"/><line class="a" x1="16.61" y1="13.43" x2="16.61" y2="9.75"/></svg>