<?xml version="1.0" encoding="utf-8"?>
<!-- Generator: Adobe Illustrator 24.0.0, SVG Export Plug-In . SVG Version: 6.00 Build 0)  -->
<svg version="1.1" id="Layer_1" xmlns="http://www.w3.org/2000/svg" xmlns:xlink="http://www.w3.org/1999/xlink" x="0px" y="0px"
	 viewBox="0 0 256 256" style="enable-background:new 0 0 256 256;" xml:space="preserve">
<style type="text/css">
	.st0{fill:#8699A3;}
</style>
<g>
	<g>
		<path class="st0" d="M192.03,199.38c0.2-0.28,0.39-0.52,0.56-0.81c-0.78,1.11-1.53,2.24-2.35,3.32
			C190.86,201.06,191.43,200.22,192.03,199.38z"/>
		<path class="st0" d="M174.71,220.19c0.23-0.17,0.42-0.4,0.62-0.61c0.2-0.21,0.4-0.43,0.59-0.63c-0.59,0.59-1.14,1.22-1.73,1.81
			C174.37,220.58,174.54,220.42,174.71,220.19z"/>
		<polygon class="st0" points="194.98,46.51 189.55,53.96 200.55,53.96 		"/>
		<path class="st0" d="M59.59,39.6l-6.62-0.09v17.08h6.62C69.93,55.87,68.8,39.3,59.59,39.6z"/>
		<polygon class="st0" points="91.57,53.96 102.58,53.96 97.02,46.51 		"/>
		<path class="st0" d="M31.13,0v104.3c0.39,8.23,1.37,16.58,2.97,24.93l0.84-0.83l18.96-19.45v21.09H35.27h-1.01
			c1.25,6.39,2.91,12.73,4.91,19.07l0.74-0.79l14-14.32v21.11H42.17h-0.97c1.46,4.04,3.04,8.08,4.8,12.11l0.73-0.79l7.26-7.4v21.09
			h-0.53h-1.11c1.05,1.98,2.17,3.97,3.34,5.92c0.39,0.67,0.77,1.33,1.16,2c2.43,3.99,5.04,7.9,7.79,11.77l0.74-0.75l13.25-13.61
			v21.09h-7.56h-1.4c1.91,2.43,3.93,4.78,5.96,7.15l0.72-0.78l2.33-2.38v4.98v1.61c2.92,3.16,5.98,6.22,9.16,9.27l0.72-0.73
			l14.78-15.13v21.05h-8.21H93.5c0.67,0.57,1.28,1.14,1.95,1.7c1.82,1.61,3.69,3.11,5.62,4.62l0.72-0.75l1.59-1.55v2.81v1.29
			c3.88,2.96,7.9,5.9,12.12,8.62l0.72-0.7l11.79-12.02v19.26V256l0,0c3.94-2.21,7.75-4.54,11.45-6.93l3.27-3.38l9.88-10.07v2.96
			v1.25c2.57-1.99,5.11-3.96,7.48-5.99c0.9-0.69,1.74-1.47,2.6-2.22h-1.53h-4.54l20.59-21.05v5.5v1.51c3.32-3.59,6.48-7.25,9.42-11
			h-1.27h-4.16l15.57-15.88l2.99-3.07c6.34-10.53,11.33-21.42,15.24-32.48h-0.94h-8.27l12.12-12.46l1.31-1.37
			c0.99-3.74,1.84-7.51,2.57-11.24h-0.99h-15.08l17.6-18.05l1.08-1.11c0.17-1.96,0.31-3.91,0.4-5.87h-0.98h-18.16l18.19-18.62
			l0.99-1.04V0h-96.85H31.13z M53.84,105.02H33.25l20.59-21.05V105.02L53.84,105.02z M41.9,61.55V39.14l-4.1-4.6h23.43
			c22.2,0.36,21.68,25.83,0,27.01H41.9z M78.46,83.96v21.05H57.85L78.46,83.96z M78.5,108.98v21.07H57.95L78.5,108.98z
			 M78.56,134.01v21.11H57.98L78.56,134.01z M78.59,180.15H58.02l20.57-21.09V180.15L78.59,180.15z M82.52,105.02l20.56-21.05v21.05
			H82.52z M103.13,108.98v21.07H82.58L103.13,108.98z M103.19,134.01v21.11H82.6L103.19,134.01z M103.24,159.05v21.09H82.62
			L103.24,159.05z M103.28,206.56H82.69l20.59-21.09V206.56z M89.33,57.29l-3.12,4.31H74.87L91.4,39.17l-3.27-4.63h11.63L120,61.59
			h-11.87l-3.24-4.31H89.33z M127.74,83.96v21.05h-20.58L127.74,83.96z M127.76,108.98v21.07h-20.58L127.76,108.98z M127.82,134.01
			v21.11h-20.58L127.82,134.01z M127.87,159.05v21.09h-20.58L127.87,159.05z M127.93,185.47v21.09h-20.58L127.93,185.47z
			 M127.95,231.61h-20.58l20.58-21.05V231.61L127.95,231.61z M131.79,105.02l20.58-21.05v21.05H131.79z M152.39,108.98v21.07h-20.55
			L152.39,108.98z M152.45,134.01v21.11h-20.59L152.45,134.01z M152.51,159.05v21.09h-20.58L152.51,159.05z M152.54,185.47v21.09
			h-20.58L152.54,185.47z M152.6,231.61h-20.59l20.59-21.05V231.61z M156.42,105.02l20.55-21.05v21.05H156.42z M177.03,108.98v21.07
			h-20.57L177.03,108.98z M177.1,134.01v21.11h-20.6L177.1,134.01z M177.12,159.05v21.09h-20.56L177.12,159.05z M177.17,206.56
			h-20.56l20.56-21.09V206.56z M181.05,105.02l20.58-21.05v21.05H181.05z M201.7,108.98v21.07h-20.6L201.7,108.98z M201.72,134.01
			v21.11h-20.55L201.72,134.01z M201.74,180.15h-20.55l20.55-21.09V180.15z M186.09,34.54h11.64l20.21,27.06h-11.83l-3.25-4.31
			h-15.55l-3.15,4.31h-11.33l16.55-22.42L186.09,34.54z M170.81,34.54v27.01h-11.69V39.14l-4.1-4.6H170.81z M152.89,36.68
			l-1.55,8.14h-3.72v-3.19c-21.27-9.2-31.75,20.73,4.34,12.99v5.97C99.38,69.34,110.76,24.41,152.89,36.68z"/>
	</g>
</g>
</svg>
