<svg xmlns="http://www.w3.org/2000/svg" viewBox="0 0 256 256">
<path d="M192,199.4c0.2-0.3,0.4-0.5,0.6-0.8c-0.8,1.1-1.5,2.2-2.4,3.3C190.9,201.1,191.4,200.2,192,199.4z"/>
<path d="M174.7,220.2c0.2-0.2,0.4-0.4,0.6-0.6s0.4-0.4,0.6-0.6c-0.6,0.6-1.1,1.2-1.7,1.8C174.4,220.6,174.5,220.4,174.7,220.2z"/>
<polygon points="195,46.5 189.6,54 200.6,54"/>
<path d="M59.6,39.6L53,39.5v17.1h6.6C69.9,55.9,68.8,39.3,59.6,39.6z"/>
<polygon points="91.6,54 102.6,54 97,46.5"/>
<path d="M31.1,0v104.3c0.4,8.2,1.4,16.6,3,24.9l0.8-0.8l19-19.4V130H35.3h-1c1.2,6.4,2.9,12.7,4.9,19.1l0.7-0.8l14-14.3v21.1H42.2
h-1c1.5,4,3,8.1,4.8,12.1l0.7-0.8L54,159v21.1h-0.5h-1.1c1,2,2.2,4,3.3,5.9c0.4,0.7,0.8,1.3,1.2,2c2.4,4,5,7.9,7.8,11.8l0.7-0.8
l13.2-13.6v21.1h-7.6h-1.4c1.9,2.4,3.9,4.8,6,7.1l0.7-0.8l2.3-2.4v5v1.6c2.9,3.2,6,6.2,9.2,9.3l0.7-0.7l14.8-15.1v21.1h-8.2h-1.6
c0.7,0.6,1.3,1.1,1.9,1.7c1.8,1.6,3.7,3.1,5.6,4.6l0.7-0.8l1.6-1.6v2.8v1.3c3.9,3,7.9,5.9,12.1,8.6l0.7-0.7l11.8-12v19.3v1.1l0,0
c3.9-2.2,7.8-4.5,11.4-6.9l3.3-3.4l9.9-10.1v3v1.2c2.6-2,5.1-4,7.5-6c0.9-0.7,1.7-1.5,2.6-2.2h-1.5h-4.5l20.6-21.1v5.5v1.5
c3.3-3.6,6.5-7.2,9.4-11h-1.3h-4.2l15.6-15.9l3-3.1c6.3-10.5,11.3-21.4,15.2-32.5h-0.9h-8.3l12.1-12.5l1.3-1.4
c1-3.7,1.8-7.5,2.6-11.2h-1h-15.1l17.6-18.1l1.1-1.1c0.2-2,0.3-3.9,0.4-5.9h-1h-18.2l18.2-18.6l1-1V0H128H31.1z M53.8,105H33.2
l20.6-21V105L53.8,105z M41.9,61.5V39.1l-4.1-4.6h23.4c22.2,0.4,21.7,25.8,0,27C61.2,61.6,41.9,61.6,41.9,61.5z M78.5,84v21H57.8
L78.5,84z M78.5,109v21.1H58L78.5,109z M78.6,134v21.1H58L78.6,134z M78.6,180.1H58l20.6-21.1V180.1L78.6,180.1z M82.5,105
l20.6-21V105C103.1,105,82.5,105,82.5,105z M103.1,109v21.1H82.6L103.1,109z M103.2,134v21.1H82.6L103.2,134z M103.2,159.1v21.1
H82.6L103.2,159.1z M103.3,206.6H82.7l20.6-21.1V206.6z M89.3,57.3l-3.1,4.3H74.9l16.5-22.4l-3.3-4.6h11.6L120,61.6h-11.9
l-3.2-4.3L89.3,57.3L89.3,57.3z M127.7,84v21h-20.6L127.7,84z M127.8,109v21.1h-20.6L127.8,109z M127.8,134v21.1h-20.6L127.8,134z
 M127.9,159.1v21.1h-20.6L127.9,159.1z M127.9,185.5v21.1h-20.6L127.9,185.5z M127.9,231.6h-20.6l20.6-21.1V231.6L127.9,231.6z
 M131.8,105l20.6-21V105C152.4,105,131.8,105,131.8,105z M152.4,109v21.1h-20.6L152.4,109z M152.4,134v21.1h-20.6L152.4,134z
 M152.5,159.1v21.1h-20.6L152.5,159.1z M152.5,185.5v21.1H132L152.5,185.5z M152.6,231.6H132l20.6-21.1V231.6z M156.4,105L177,84
V105C177,105,156.4,105,156.4,105z M177,109v21.1h-20.6L177,109z M177.1,134v21.1h-20.6L177.1,134z M177.1,159.1v21.1h-20.6
L177.1,159.1z M177.2,206.6h-20.6l20.6-21.1V206.6z M181.1,105l20.6-21V105C201.6,105,181.1,105,181.1,105z M201.7,109v21.1h-20.6
L201.7,109z M201.7,134v21.1h-20.6L201.7,134z M201.7,180.1h-20.6l20.6-21.1V180.1z M186.1,34.5h11.6l20.2,27.1h-11.8l-3.2-4.3
h-15.6l-3.1,4.3h-11.3l16.6-22.4L186.1,34.5z M170.8,34.5v27h-11.7V39.1l-4.1-4.6H170.8z M152.9,36.7l-1.6,8.1h-3.7v-3.2
c-21.3-9.2-31.8,20.7,4.3,13v6C99.4,69.3,110.8,24.4,152.9,36.7z"/>
</svg>
