<svg xmlns="http://www.w3.org/2000/svg" viewBox="0 0 32.75 27.89"><defs><style>.a{fill:none;stroke:#000;stroke-linecap:round;stroke-linejoin:round;stroke-width:0.75px;}</style></defs><title>105</title><polyline class="a" points="13.34 24.28 13.34 16.6 19.41 16.6 19.41 24.45"/><line class="a" x1="7.24" y1="11.37" x2="25.65" y2="11.37"/><path class="a" d="M25.6,13.68A2.11,2.11,0,0,0,25,12.33L17.2,5.66A1.7,1.7,0,0,0,16,5.15a1.79,1.79,0,0,0-1.28.52L6.94,12.33A2.21,2.21,0,0,0,6.4,13.7V25.08a1.81,1.81,0,0,0,1.8,1.77H23.81a1.81,1.81,0,0,0,1.79-1.78Z" transform="translate(0.38 -2.06)"/><line class="a" x1="24.09" y1="1.36" x2="24.85" y2="0.38"/><line class="a" x1="8.66" y1="1.36" x2="7.9" y2="0.38"/><line class="a" x1="24.09" y1="26.53" x2="24.85" y2="27.51"/><line class="a" x1="8.66" y1="26.53" x2="7.9" y2="27.51"/><line class="a" x1="1.61" y1="13.73" x2="0.38" y2="13.85"/><line class="a" x1="31.14" y1="14.16" x2="32.38" y2="14.03"/></svg>