<?xml version="1.0" encoding="utf-8"?>
<!-- Generator: Adobe Illustrator 24.0.0, SVG Export Plug-In . SVG Version: 6.00 Build 0)  -->
<svg version="1.1" id="Layer_1" xmlns="http://www.w3.org/2000/svg" xmlns:xlink="http://www.w3.org/1999/xlink" x="0px" y="0px"
	 viewBox="0 0 256 256" style="enable-background:new 0 0 256 256;" xml:space="preserve">
<g>
	<g>
		<path d="M128,45.5c-45.5,0-82.5,37-82.5,82.5s37,82.5,82.5,82.5s82.5-37,82.5-82.5C210.5,82.5,173.5,45.5,128,45.5z M128,198.1
			c-38.6,0-70.1-31.4-70.1-70.1S89.4,57.9,128,57.9s70.1,31.4,70.1,70.1S166.6,198.1,128,198.1z"/>
		<path d="M128,91.5c-20.1,0-36.5,16.4-36.5,36.5s16.4,36.5,36.5,36.5s36.5-16.4,36.5-36.5S148.1,91.5,128,91.5z M128,153.1
			c-13.8,0-25.1-11.3-25.1-25.1s11.3-25.1,25.1-25.1s25.1,11.3,25.1,25.1S141.9,153.1,128,153.1z"/>
		<path d="M128,0C57.4,0,0,57.4,0,128s57.4,128,128,128s128-57.4,128-128S198.6,0,128,0z M128,244.6c-64.3,0-116.7-52.3-116.7-116.6
			S63.7,11.4,128,11.4c64.3,0,116.6,52.3,116.6,116.6S192.3,244.6,128,244.6z"/>
	</g>
</g>
</svg>
