<?xml version="1.0" encoding="utf-8"?>
<!-- Generator: Adobe Illustrator 24.0.0, SVG Export Plug-In . SVG Version: 6.00 Build 0)  -->
<svg version="1.1" id="Layer_1" xmlns="http://www.w3.org/2000/svg" xmlns:xlink="http://www.w3.org/1999/xlink" x="0px" y="0px"
	 viewBox="0 0 256 256" style="enable-background:new 0 0 256 256;" xml:space="preserve">
<style type="text/css">
	.st0{fill:#8699A3;}
</style>
<g>
	<g>
		<path class="st0" d="M128.01,45.48c-45.5,0-82.52,37.02-82.52,82.52c0,45.5,37.02,82.51,82.52,82.51s82.52-37.02,82.52-82.51
			C210.52,82.5,173.51,45.48,128.01,45.48z M128.01,198.08c-38.63,0-70.07-31.44-70.07-70.08s31.44-70.08,70.07-70.08
			s70.07,31.44,70.07,70.08S166.64,198.08,128.01,198.08z"/>
		<path class="st0" d="M128.01,91.52c-20.12,0-36.48,16.37-36.48,36.48s16.36,36.48,36.48,36.48s36.48-16.37,36.48-36.48
			S148.13,91.52,128.01,91.52z M128.01,153.12c-13.85,0-25.12-11.27-25.12-25.12s11.27-25.12,25.12-25.12
			c13.85,0,25.12,11.27,25.12,25.12S141.86,153.12,128.01,153.12z"/>
		<path class="st0" d="M128.01,0C57.43,0,0,57.42,0,128s57.43,128,128.01,128S256,198.58,256,128S198.59,0,128.01,0z M128.01,244.64
			c-64.32,0-116.65-52.32-116.65-116.64S63.68,11.36,128.01,11.36c64.31,0,116.64,52.32,116.64,116.64S192.32,244.64,128.01,244.64z
			"/>
	</g>
</g>
</svg>
