<svg xmlns="http://www.w3.org/2000/svg" viewBox="0 0 250 250">
<path d="M190.3,146.6l-37.2-10.9c-0.7-0.2-1.1-0.8-1.1-1.5v-3.4c0-0.6,0.3-1.1,0.9-1.3c11.7-5.8,19.9-14.9,22.6-25.2c0.2-0.7,0.8-1.1,1.5-1.1h3.1c7,0,12.7-6.6,12.7-14.8s-5.7-14.8-12.7-14.8c-0.9,0-1.6-0.7-1.6-1.5s0.7-1.6,1.6-1.6h12.7V49H186c-0.8,0-1.4-0.6-1.5-1.3C182,24.7,158.6,0,125,0C91.4,0,68,24.7,65.6,47.6C65.5,48.4,64.8,49,64,49h-6.9v21.4h12.8c0.8,0,1.5,0.7,1.5,1.6s-0.7,1.5-1.5,1.5c-7.1,0-12.8,6.7-12.8,14.8s5.7,14.8,12.8,14.8H73c0.7,0,1.3,0.5,1.5,1.1c2.7,10.3,11,19.5,22.6,25.2c0.5,0.2,0.9,0.8,0.9,1.3v3.4c0,0.7-0.4,1.3-1.1,1.5l-37.1,10.9c-18.3,5.4-31.1,22.5-31.1,41.6V250h192.9v-61.8C221.4,169.1,208.7,152,190.3,146.6z M180.1,78.6c4.1,0,7.6,4.4,7.6,9.7c0,5.3-3.5,9.7-7.6,9.7h-2c-0.9,0-1.6-0.7-1.6-1.5V80.1c0-0.9,0.7-1.6,1.6-1.6H180.1z M139.3,8.8c0-0.4,0.3-0.9,0.7-1.1c0.4-0.2,0.9-0.3,1.3-0.2c20,5.8,35.7,22.2,38,39.8c0,0.4-0.1,0.9-0.4,1.2c-0.3,0.3-0.7,0.5-1.1,0.5h-40.2c-0.4,0-0.8-0.2-1.1-0.5c-0.3-0.3-0.4-0.7-0.4-1.1L139.3,8.8z M117.1,5.7c6-0.8,9.9-0.8,15.9,0c0.8,0.1,1.4,0.9,1.3,1.6l-0.6,7.6c-0.1,0.8-0.7,1.4-1.6,1.4h-14.2c-0.8,0-1.5-0.6-1.5-1.4l-0.7-7.6C115.7,6.6,116.2,5.8,117.1,5.7z M130.8,32.7h-11.6c-0.8,0-1.4-0.6-1.5-1.4l-0.7-8.2c0-0.4,0.1-0.9,0.4-1.1c0.3-0.3,0.7-0.5,1.1-0.5h12.9c0.4,0,0.8,0.2,1.1,0.5c0.3,0.3,0.4,0.7,0.4,1.1l-0.7,8.2C132.2,32.1,131.6,32.7,130.8,32.7z M131.6,39.4l-0.7,8.2c-0.1,0.8-0.7,1.4-1.5,1.4h-8.8c-0.8,0-1.5-0.6-1.6-1.4l-0.7-8.2c0-0.4,0.1-0.9,0.4-1.1c0.3-0.3,0.7-0.5,1.1-0.5h10.2c0.4,0,0.9,0.2,1.1,0.5C131.5,38.6,131.7,39,131.6,39.4z M108.8,7.4c0.4-0.1,0.9,0,1.3,0.2c0.4,0.2,0.6,0.7,0.7,1.1l3.2,38.6c0,0.4-0.1,0.9-0.4,1.1c-0.3,0.3-0.7,0.5-1.1,0.5H72.2c-0.4,0-0.9-0.2-1.1-0.5c-0.3-0.3-0.4-0.8-0.4-1.2C73.1,29.6,88.7,13.2,108.8,7.4z M73.5,96.4c0,0.9-0.7,1.5-1.5,1.5h-2c-4.2,0-7.7-4.3-7.7-9.7c0-5.3,3.4-9.7,7.7-9.7h2c0.8,0,1.5,0.7,1.5,1.6V96.4z M63.8,65.3c-0.9,0-1.6-0.7-1.6-1.5v-8.2c0-0.9,0.7-1.6,1.6-1.6h122.4c0.8,0,1.5,0.7,1.5,1.6v8.2c0,0.9-0.7,1.5-1.5,1.5H63.8z M78.6,96.4V72c0-0.9,0.7-1.6,1.6-1.6h89.8c0.8,0,1.5,0.7,1.5,1.6v24.5c0,0.9-0.7,1.5-1.5,1.5h-26.1c-1,0-2-0.4-2.7-1.1c-0.1-0.1-0.2-0.2-0.3-0.4L135.1,85c-1.6-2-4.2-3.3-6.9-3.3h-6.3c-2.8,0-5.4,1.3-7.1,3.5l-5.7,11.4c-0.1,0.2-0.2,0.3-0.3,0.4c-0.7,0.7-1.6,1.1-2.7,1.1h-26C79.3,98,78.6,97.3,78.6,96.4z M80.2,105.1c-0.2-0.5-0.1-1,0.2-1.4c0.3-0.4,0.8-0.7,1.3-0.7h24.6c2.8,0,5.4-1.3,7.1-3.4l5.7-11.4c0.1-0.2,0.2-0.3,0.3-0.4c0.7-0.7,1.6-1.1,2.7-1.1h6.3c1,0,2,0.4,2.7,1.1c0.1,0.1,0.2,0.2,0.3,0.4l5.8,11.5c1.6,2,4.2,3.3,6.9,3.3h24.6c0.5,0,0.9,0.2,1.2,0.7c0.3,0.4,0.4,0.9,0.2,1.4c-5.3,15-23.8,25.5-44.9,25.5C104,130.6,85.5,120.1,80.2,105.1z M146.9,134.1v1.8c0,0.4-0.1,0.7-0.3,1c-1.4,1.7-4.4,4.9-9.1,7.1c-3.9,2-8.2,3-12.4,3c-4.4,0-8.7-1-12.7-3.1c-4.8-2.4-7.8-5.8-8.9-7.1c-0.2-0.3-0.4-0.6-0.4-1v-1.8c0-0.5,0.2-0.9,0.7-1.2c0.4-0.3,0.9-0.4,1.3-0.2c12.7,4.1,27.2,4.1,39.9,0c0.5-0.2,1-0.1,1.4,0.2C146.7,133.2,146.9,133.6,146.9,134.1z M70.4,149.9c0-0.7,0.4-1.3,1.1-1.5l27.1-8c0.5-0.2,1.2,0,1.6,0.4c2.7,3.1,6,5.7,9.8,7.6c9.3,4.7,20.6,4.7,29.8,0.1c4.8-2.4,8.1-5.5,10-7.6c0.4-0.4,1-0.6,1.6-0.4l27.1,8c0.7,0.2,1.1,0.8,1.1,1.5v64.9c0,0.9-0.7,1.5-1.5,1.5h-46.9c-0.5,0-0.9-0.2-1.2-0.6l-14.8-19.6c-0.4-0.5-0.4-1.1-0.1-1.7c2-3.6,3-7.8,3-12.4c0-5.8-1.9-11.4-5.1-16c-5.3-7.5-14.4-11.6-23.7-10.9l-4.5,0.4l2.6,3.7c2.7,3.8,7.2,10.1,7.3,10.1c1.3,2,1.9,4.3,1.5,6.7c-0.4,2.4-1.8,4.4-3.8,5.9c-4.2,2.9-10,1.9-12.9-2.2c0,0-4.5-6.3-7.1-10.1l-1.5-2.2c-0.2-0.2-0.3-0.5-0.3-0.9V149.9z M71.5,179.3c0.6-0.2,1.3,0,1.7,0.6l2,2.8c0,0,0,0,0,0c4.6,6.4,13.5,7.9,20,3.5c3.2-2.2,5.3-5.5,6-9.2c0.7-3.7-0.2-7.4-2.4-10.5l-1.9-2.6c-0.4-0.6-0.4-1.3,0-1.8c0.4-0.5,1.1-0.7,1.7-0.5c4.1,1.4,7.6,4,10.1,7.6c2.7,3.7,4.2,8.4,4.2,13.1c0,4.5-1.2,8.6-3.6,11.8l-1.1,1.5l14.1,18.7c0.3,0.4,0.4,1,0.2,1.6c-0.2,0.5-0.7,0.9-1.2,0.9c-2.8,0.3-5.5,1.2-7.6,2.7c-0.2,0.2-0.5,0.3-0.8,0.3c-0.5,0-1-0.2-1.3-0.7l-12-17.4l-1.8,0.5c-8.2,2.2-18.3-1.7-23.6-9.2c-2.5-3.5-3.8-7.6-3.8-11.9C70.4,180.1,70.9,179.5,71.5,179.3z M65.3,243.4c0,0.9-0.7,1.5-1.5,1.5H35.2c-0.9,0-1.6-0.7-1.6-1.5v-55.2c0-16.9,11.3-32,27.5-36.7l2.2-0.7c0.5-0.1,1,0,1.3,0.2c0.4,0.3,0.6,0.7,0.6,1.2V243.4zM109.1,244.1c-0.3,0.5-0.8,0.8-1.3,0.8H72c-0.9,0-1.6-0.7-1.6-1.5v-43.2c0-0.6,0.4-1.2,0.9-1.4c0.6-0.2,1.2-0.1,1.7,0.3c6.3,6.3,15.3,9.4,23.4,8.2c0.6,0,1.2,0.2,1.5,0.7l10.4,15.3c0.3,0.5,0.3,1.1,0,1.6c-1.5,2.7-2.3,5.5-2.3,8.3c0,3.3,1,6.6,2.9,9.3C109.3,243,109.3,243.6,109.1,244.1z M171.4,243.4c0,0.9-0.7,1.5-1.5,1.5H123c-6.5,0-11.8-5.3-11.8-11.7c0-6.5,5.3-11.8,11.8-11.8h46.9c0.8,0,1.5,0.7,1.5,1.6V243.4z M216.3,243.4c0,0.9-0.7,1.5-1.5,1.5h-36.7c-0.9,0-1.6-0.7-1.6-1.5V223c0-0.9,0.7-1.6,1.6-1.6h6.6v-69.1c0-0.5,0.2-0.9,0.6-1.2c0.4-0.3,0.9-0.4,1.3-0.2l2.2,0.7c16.2,4.7,27.5,19.8,27.5,36.7V243.4z"/>
<rect x="85.7" y="32.7" width="13.3" height="5.1"/><rect x="151" y="32.7" width="13.3" height="5.1"/></svg>
