<svg xmlns="http://www.w3.org/2000/svg" viewBox="0 0 25.23 32.75"><defs><style>.a{fill:none;stroke:#000;stroke-linecap:round;stroke-linejoin:round;stroke-width:0.75px;}</style></defs><title>1058</title><rect class="a" x="4.17" y="6.72" width="16.97" height="2.3"/><path class="a" d="M8.63,6S9,0,16.11,0" transform="translate(-3.38 0.38)"/><path class="a" d="M23.4,6s-.33-6-7.48-6" transform="translate(-3.38 0.38)"/><line class="a" x1="10.55" y1="0.64" x2="11.31" y2="6.75"/><line class="a" x1="14.58" y1="0.64" x2="13.81" y2="6.75"/><path class="a" d="M22,9v3.87s-.67,4.38-6,4.38h0c-5.34,0-6-4.38-6-4.38V9" transform="translate(-3.38 0.38)"/><path class="a" d="M21.93,12.61H18.56a1.25,1.25,0,0,1-1-.47c-.3-.46-.53-1.6-1-1.6H15.53c-.43,0-.67,1.14-1,1.6a1.25,1.25,0,0,1-1,.47H10.22" transform="translate(-3.38 0.38)"/><path class="a" d="M13,16.68,12.9,18S9.45,19.09,8,19.69c-1.86.76-4.23,2.5-4.23,5V32H28.24V24.68c0-2.49-2.37-4.23-4.23-5C22.55,19.09,19.1,18,19.1,18l-.1-1.3" transform="translate(-3.38 0.38)"/><path class="a" d="M23,19.86v9l-6.22-.25s-3-.29-3,1.72a6.86,6.86,0,0,0,0,1.53" transform="translate(-3.38 0.38)"/><path class="a" d="M14.57,29,13,26.81a3.23,3.23,0,0,1-3.4-.63C7.91,24.78,9.08,22,9.08,22s1.28,3.43,3.1,2.12l-.06.05c1.8-1.33-1.08-3.61-1.08-3.61s3-.26,3.83,1.74a3.24,3.24,0,0,1-.45,3.43l2.34,2.87" transform="translate(-3.38 0.38)"/><path class="a" d="M8.76,22" transform="translate(-3.38 0.38)"/><path class="a" d="M8.76,19.34" transform="translate(-3.38 0.38)"/><path class="a" d="M8.76,32" transform="translate(-3.38 0.38)"/><path class="a" d="M8.76,25.46" transform="translate(-3.38 0.38)"/><path class="a" d="M12.57,18.07A4.45,4.45,0,0,0,16,19.92a5,5,0,0,0,3.56-2" transform="translate(-3.38 0.38)"/></svg>