<?xml version="1.0" encoding="utf-8"?>
<!-- Generator: Adobe Illustrator 24.0.0, SVG Export Plug-In . SVG Version: 6.00 Build 0)  -->
<svg version="1.1" id="Layer_1" xmlns="http://www.w3.org/2000/svg" xmlns:xlink="http://www.w3.org/1999/xlink" x="0px" y="0px"
	 viewBox="0 0 256 256" style="enable-background:new 0 0 256 256;" xml:space="preserve">
<g>
	<g>
		<path d="M204.6,150.1l-38.1-11.2c-0.7-0.2-1.1-0.8-1.1-1.5v-3.5c0-0.6,0.3-1.1,0.9-1.4c11.9-5.9,20.4-15.3,23.1-25.8
			c0.2-0.7,0.8-1.2,1.6-1.2h3.2c7.2,0,13-6.8,13-15.1s-5.9-15.2-13-15.2c-0.9,0-1.6-0.7-1.6-1.6s0.7-1.6,1.6-1.6h13V50.2h-7.1
			c-0.8,0-1.5-0.6-1.6-1.4C196.1,25.3,172.2,0,137.8,0c-34.4,0-58.4,25.3-60.9,48.8c-0.1,0.8-0.8,1.4-1.6,1.4h-7.1v21.9h13.1
			c0.8,0,1.6,0.7,1.6,1.6s-0.7,1.6-1.6,1.6c-7.2,0-13.1,6.8-13.1,15.2s5.8,15.1,13.1,15.1h3.2c0.7,0,1.3,0.5,1.5,1.2
			c2.8,10.5,11.2,19.9,23.2,25.8c0.5,0.2,0.9,0.8,0.9,1.4v3.5c0,0.7-0.5,1.3-1.1,1.5l-38,11.2c-18.8,5.5-31.9,23-31.9,42.6V256
			h197.5v-63.3C236.5,173.2,223.4,155.6,204.6,150.1z M194.2,80.5c4.2,0,7.8,4.6,7.8,9.9s-3.6,9.9-7.8,9.9h-2.1
			c-0.9,0-1.6-0.7-1.6-1.6V82.1c0-0.9,0.7-1.6,1.6-1.6C192.1,80.5,194.2,80.5,194.2,80.5z M152.4,9c0-0.5,0.3-0.9,0.7-1.2
			s0.9-0.3,1.3-0.2c20.5,5.9,36.6,22.7,38.9,40.8c0,0.5-0.1,0.9-0.4,1.2s-0.7,0.5-1.2,0.5h-41.2c-0.4,0-0.8-0.2-1.1-0.5
			c-0.3-0.3-0.5-0.8-0.4-1.2L152.4,9z M129.6,5.8c6.1-0.8,10.2-0.8,16.3,0c0.8,0.1,1.4,0.9,1.3,1.7l-0.6,7.8
			c-0.1,0.8-0.8,1.4-1.6,1.4h-14.6c-0.8,0-1.5-0.6-1.6-1.4l-0.7-7.8C128.2,6.7,128.8,6,129.6,5.8z M143.7,33.4h-11.8
			c-0.8,0-1.5-0.6-1.6-1.4l-0.7-8.4c0-0.4,0.1-0.9,0.4-1.2c0.3-0.3,0.7-0.5,1.2-0.5h13.2c0.4,0,0.8,0.2,1.1,0.5
			c0.3,0.3,0.5,0.8,0.4,1.2l-0.7,8.4C145.2,32.8,144.5,33.4,143.7,33.4z M144.5,40.4l-0.7,8.4c-0.1,0.8-0.8,1.4-1.6,1.4h-9
			c-0.8,0-1.5-0.6-1.6-1.4l-0.7-8.4c0-0.4,0.1-0.9,0.4-1.2c0.3-0.3,0.8-0.5,1.2-0.5h10.4c0.5,0,0.9,0.2,1.2,0.5
			C144.4,39.5,144.6,40,144.5,40.4z M121.1,7.6c0.5-0.1,0.9,0,1.3,0.2c0.4,0.2,0.6,0.7,0.7,1.2l3.3,39.5c0,0.4-0.1,0.9-0.4,1.2
			c-0.3,0.3-0.8,0.5-1.2,0.5H83.7c-0.4,0-0.9-0.2-1.2-0.5s-0.4-0.8-0.4-1.2C84.6,30.3,100.6,13.5,121.1,7.6z M85,98.8
			c0,0.9-0.7,1.6-1.6,1.6h-2.1c-4.3,0-7.9-4.4-7.9-9.9c0-5.5,3.5-9.9,7.9-9.9h2.1c0.8,0,1.6,0.7,1.6,1.6V98.8z M75.1,66.9
			c-0.9,0-1.6-0.7-1.6-1.6V57c0-0.9,0.7-1.6,1.6-1.6h125.4c0.8,0,1.6,0.7,1.6,1.6v8.4c0,0.9-0.7,1.6-1.6,1.6H75.1z M90.2,98.8V73.7
			c0-0.9,0.7-1.6,1.6-1.6h91.9c0.8,0,1.6,0.7,1.6,1.6v25.1c0,0.9-0.7,1.6-1.6,1.6H157c-1,0-2-0.4-2.7-1.1c-0.1-0.1-0.2-0.2-0.3-0.4
			L148.1,87c-1.6-2.1-4.3-3.4-7.1-3.4h-6.4c-2.8,0-5.5,1.3-7.2,3.6l-5.8,11.7c-0.1,0.2-0.2,0.3-0.3,0.4c-0.7,0.7-1.7,1.1-2.7,1.1
			H91.8C90.9,100.3,90.2,99.6,90.2,98.8z M91.8,107.7c-0.2-0.5-0.1-1,0.2-1.5c0.3-0.4,0.8-0.7,1.3-0.7h25.2c2.8,0,5.5-1.3,7.2-3.5
			l5.8-11.7c0.1-0.2,0.2-0.3,0.3-0.4c0.7-0.7,1.7-1.1,2.7-1.1h6.4c1,0,2,0.4,2.7,1.1c0.1,0.1,0.2,0.2,0.3,0.4l5.9,11.8
			c1.6,2.1,4.3,3.4,7.1,3.4h25.2c0.5,0,1,0.2,1.2,0.7s0.4,1,0.2,1.4c-5.5,15.4-24.4,26.1-45.9,26.1C116.2,133.8,97.3,123,91.8,107.7
			z M160.2,137.3v1.8c0,0.4-0.1,0.7-0.3,1c-1.4,1.7-4.5,5-9.3,7.3c-4,2.1-8.4,3.1-12.8,3.1c-4.5,0-8.9-1-13-3.1
			c-4.9-2.5-8-5.9-9.1-7.2c-0.2-0.3-0.4-0.6-0.4-1v-1.8c0-0.5,0.2-1,0.7-1.2c0.4-0.3,0.9-0.4,1.4-0.2c13,4.2,27.9,4.2,40.8,0
			c0.5-0.2,1-0.1,1.4,0.2C160,136.4,160.2,136.8,160.2,137.3z M81.8,153.5c0-0.7,0.5-1.3,1.1-1.5l27.8-8.1c0.5-0.2,1.2,0,1.6,0.5
			c2.8,3.2,6.2,5.8,10,7.7c9.5,4.9,21.1,4.9,30.5,0.1c4.9-2.4,8.3-5.6,10.2-7.8c0.4-0.5,1-0.6,1.6-0.5l27.8,8.1
			c0.7,0.2,1.1,0.8,1.1,1.5V220c0,0.9-0.7,1.6-1.6,1.6H144c-0.5,0-1-0.2-1.2-0.6l-15.2-20.1c-0.4-0.5-0.4-1.2-0.1-1.7
			c2-3.7,3.1-8,3.1-12.7c0-5.9-1.9-11.7-5.3-16.4c-5.4-7.7-14.7-11.9-24.2-11.1l-4.6,0.4l2.7,3.8c2.8,3.9,7.4,10.4,7.4,10.4
			c1.4,2,2,4.4,1.6,6.8c-0.5,2.5-1.8,4.6-3.9,6c-4.3,3-10.2,2-13.2-2.3c0,0-4.6-6.5-7.3-10.4l-1.6-2.3c-0.2-0.2-0.3-0.5-0.3-0.9
			L81.8,153.5L81.8,153.5z M83,183.6c0.6-0.2,1.3,0,1.7,0.6l2,2.8c0,0,0,0,0,0c4.7,6.5,13.8,8.1,20.4,3.6c3.3-2.3,5.4-5.6,6.1-9.4
			c0.7-3.8-0.2-7.6-2.5-10.8l-1.9-2.7c-0.4-0.6-0.4-1.3,0-1.9c0.4-0.5,1.1-0.8,1.8-0.5c4.2,1.5,7.8,4.1,10.4,7.8
			c2.8,3.8,4.3,8.6,4.3,13.4c0,4.6-1.2,8.8-3.7,12l-1.1,1.6l14.4,19.1c0.3,0.5,0.4,1,0.2,1.6c-0.2,0.5-0.7,0.9-1.2,0.9
			c-2.9,0.3-5.6,1.2-7.8,2.7c-0.2,0.2-0.5,0.3-0.8,0.3c-0.5,0-1-0.2-1.3-0.7l-12.2-17.9l-1.8,0.5c-8.4,2.3-18.7-1.7-24.2-9.4
			c-2.6-3.6-3.9-7.8-3.9-12.2C81.9,184.4,82.3,183.8,83,183.6z M76.6,249.2c0,0.9-0.7,1.6-1.6,1.6H45.8c-0.9,0-1.6-0.7-1.6-1.6
			v-56.5c0-17.3,11.6-32.7,28.1-37.6l2.3-0.7c0.5-0.1,1,0,1.4,0.2c0.4,0.3,0.6,0.8,0.6,1.2C76.6,156,76.6,249.2,76.6,249.2z
			 M121.4,250c-0.3,0.5-0.8,0.8-1.4,0.8H83.4c-0.9,0-1.6-0.7-1.6-1.6V205c0-0.6,0.4-1.2,1-1.5s1.2-0.1,1.7,0.3
			c6.4,6.4,15.6,9.6,24,8.4c0.6,0,1.2,0.2,1.6,0.7l10.7,15.7c0.3,0.5,0.3,1.1,0,1.6c-1.6,2.7-2.3,5.6-2.3,8.5c0,3.4,1,6.7,2.9,9.6
			C121.7,248.9,121.7,249.4,121.4,250z M185.3,249.2c0,0.9-0.7,1.6-1.6,1.6h-48.1c-6.6,0-12-5.4-12-12c0-6.6,5.4-12,12-12h48.1
			c0.8,0,1.6,0.7,1.6,1.6V249.2z M231.3,249.2c0,0.9-0.7,1.6-1.6,1.6h-37.6c-0.9,0-1.6-0.7-1.6-1.6v-20.9c0-0.9,0.7-1.6,1.6-1.6h6.8
			V156c0-0.5,0.2-1,0.6-1.2c0.4-0.3,0.9-0.4,1.4-0.2l2.3,0.7c16.6,4.9,28.1,20.3,28.1,37.6L231.3,249.2L231.3,249.2z"/>
	</g>
	<g>
		<rect x="97.5" y="33.4" width="13.6" height="5.2"/>
	</g>
	<g>
		<rect x="164.4" y="33.4" width="13.6" height="5.2"/>
	</g>
</g>
</svg>
