<?xml version="1.0" encoding="utf-8"?>
<!-- Generator: Adobe Illustrator 24.0.0, SVG Export Plug-In . SVG Version: 6.00 Build 0)  -->
<svg version="1.1" id="Layer_1" xmlns="http://www.w3.org/2000/svg" xmlns:xlink="http://www.w3.org/1999/xlink" x="0px" y="0px"
	 viewBox="0 0 256 256" style="enable-background:new 0 0 256 256;" xml:space="preserve">
<style type="text/css">
	.st0{fill:#8699A3;}
</style>
<g>
	<g>
		<path class="st0" d="M204.64,150.13l-38.08-11.2c-0.67-0.21-1.13-0.79-1.13-1.5v-3.51c0-0.58,0.33-1.13,0.88-1.38
			c11.95-5.89,20.4-15.3,23.15-25.83c0.21-0.67,0.84-1.17,1.55-1.17h3.18c7.19,0,13.04-6.77,13.04-15.13s-5.85-15.17-13.04-15.17
			c-0.88,0-1.59-0.67-1.59-1.55s0.71-1.59,1.59-1.59h13.04V50.16h-7.06c-0.79,0-1.46-0.59-1.55-1.38C196.15,25.33,172.16,0,137.76,0
			c-34.44,0-58.43,25.33-60.9,48.78c-0.08,0.79-0.75,1.38-1.55,1.38h-7.06V72.1h13.08c0.84,0,1.55,0.71,1.55,1.59
			s-0.71,1.55-1.55,1.55c-7.23,0-13.08,6.81-13.08,15.17s5.85,15.13,13.08,15.13h3.18c0.71,0,1.34,0.5,1.5,1.17
			c2.8,10.53,11.24,19.94,23.16,25.83c0.54,0.25,0.88,0.79,0.88,1.38v3.51c0,0.71-0.46,1.3-1.13,1.5l-38.03,11.2
			C52.12,155.65,39,173.16,39,192.72V256h197.49v-63.28C236.49,173.16,223.4,155.65,204.64,150.13z M194.19,80.46
			c4.22,0,7.82,4.56,7.82,9.95c0,5.39-3.59,9.91-7.82,9.91h-2.09c-0.88,0-1.59-0.67-1.59-1.55V82.05c0-0.88,0.71-1.59,1.59-1.59
			H194.19z M152.39,8.99c0.04-0.46,0.29-0.92,0.67-1.17c0.38-0.25,0.88-0.33,1.34-0.21c20.52,5.93,36.57,22.7,38.95,40.79
			c0.04,0.46-0.08,0.92-0.38,1.25s-0.71,0.5-1.17,0.5h-41.17c-0.42,0-0.84-0.17-1.13-0.5c-0.29-0.29-0.46-0.75-0.42-1.17
			L152.39,8.99z M129.61,5.85c6.1-0.84,10.16-0.84,16.3,0c0.84,0.13,1.42,0.88,1.34,1.67l-0.63,7.77c-0.08,0.84-0.75,1.42-1.59,1.42
			h-14.59c-0.79,0-1.5-0.59-1.55-1.42l-0.67-7.77C128.19,6.73,128.78,5.98,129.61,5.85z M143.66,33.44h-11.83
			c-0.79,0-1.46-0.59-1.55-1.42l-0.71-8.36c-0.04-0.42,0.13-0.88,0.42-1.17c0.29-0.33,0.71-0.54,1.17-0.54h13.21
			c0.42,0,0.84,0.21,1.13,0.54c0.29,0.29,0.46,0.75,0.42,1.17l-0.71,8.36C145.16,32.85,144.49,33.44,143.66,33.44z M144.53,40.38
			l-0.71,8.36c-0.08,0.84-0.75,1.42-1.55,1.42h-9.03c-0.84,0-1.5-0.59-1.59-1.42l-0.67-8.36c-0.04-0.42,0.08-0.88,0.38-1.17
			c0.33-0.33,0.75-0.54,1.17-0.54h10.41c0.46,0,0.88,0.21,1.17,0.54C144.41,39.5,144.58,39.96,144.53,40.38z M121.13,7.61
			c0.46-0.13,0.92-0.04,1.34,0.21c0.38,0.25,0.63,0.71,0.67,1.17l3.26,39.5c0.04,0.42-0.08,0.88-0.38,1.17
			c-0.29,0.33-0.75,0.5-1.17,0.5H83.68c-0.42,0-0.88-0.17-1.17-0.5s-0.42-0.79-0.38-1.25C84.56,30.3,100.57,13.54,121.13,7.61z
			 M84.98,98.76c0,0.88-0.71,1.55-1.55,1.55h-2.09c-4.35,0-7.86-4.43-7.86-9.91c0-5.48,3.51-9.95,7.86-9.95h2.09
			c0.84,0,1.55,0.71,1.55,1.59V98.76z M75.07,66.87c-0.88,0-1.59-0.67-1.59-1.55v-8.36c0-0.88,0.71-1.59,1.59-1.59h125.39
			c0.84,0,1.55,0.71,1.55,1.59v8.36c0,0.88-0.71,1.55-1.55,1.55H75.07z M90.2,98.76V73.69c0-0.88,0.71-1.59,1.59-1.59h91.95
			c0.84,0,1.55,0.71,1.55,1.59v25.08c0,0.88-0.71,1.55-1.55,1.55h-26.71c-1,0-2.01-0.38-2.72-1.09c-0.13-0.13-0.25-0.25-0.29-0.42
			l-5.93-11.79c-1.59-2.09-4.31-3.43-7.11-3.43h-6.44c-2.84,0-5.52,1.34-7.23,3.55l-5.81,11.66c-0.08,0.17-0.21,0.29-0.33,0.42
			c-0.71,0.71-1.67,1.09-2.72,1.09H91.79C90.91,100.31,90.2,99.64,90.2,98.76z M91.83,107.67c-0.21-0.5-0.13-1.04,0.17-1.46
			c0.29-0.42,0.79-0.67,1.3-0.67h25.16c2.84,0,5.52-1.3,7.23-3.51l5.81-11.66c0.08-0.17,0.21-0.29,0.33-0.42
			c0.71-0.71,1.67-1.13,2.72-1.13h6.44c1,0,2.01,0.42,2.72,1.13c0.13,0.13,0.21,0.25,0.29,0.42l5.94,11.79
			c1.59,2.09,4.3,3.39,7.11,3.39h25.2c0.5,0,0.96,0.25,1.25,0.67c0.29,0.42,0.38,0.96,0.21,1.42
			c-5.48,15.38-24.37,26.12-45.93,26.12C116.2,133.75,97.31,123.01,91.83,107.67z M160.21,137.34v1.8c0,0.38-0.13,0.71-0.33,1
			c-1.42,1.71-4.51,4.97-9.32,7.31c-3.97,2.05-8.36,3.05-12.75,3.05c-4.47,0-8.94-1.04-13.04-3.13c-4.93-2.47-8.02-5.89-9.11-7.23
			c-0.25-0.29-0.38-0.63-0.38-1v-1.8c0-0.5,0.25-0.96,0.67-1.25c0.38-0.29,0.92-0.42,1.38-0.25c13.04,4.18,27.88,4.18,40.83,0
			c0.5-0.17,1-0.08,1.42,0.25C159.96,136.38,160.21,136.84,160.21,137.34z M81.84,153.52c0-0.71,0.46-1.3,1.13-1.5l27.79-8.15
			c0.54-0.21,1.21,0,1.63,0.46c2.8,3.22,6.19,5.81,10.03,7.73c9.53,4.85,21.11,4.85,30.47,0.08c4.89-2.42,8.28-5.6,10.24-7.82
			c0.42-0.46,1.04-0.63,1.63-0.46l27.75,8.15c0.67,0.21,1.13,0.84,1.13,1.5v66.46c0,0.88-0.71,1.55-1.55,1.55h-48.07
			c-0.5,0-0.96-0.21-1.25-0.59l-15.17-20.06c-0.38-0.5-0.42-1.17-0.08-1.71c2.01-3.72,3.05-7.98,3.05-12.66
			c-0.04-5.89-1.92-11.7-5.27-16.43c-5.43-7.69-14.71-11.91-24.24-11.12l-4.6,0.38l2.67,3.76c2.8,3.89,7.4,10.37,7.44,10.37
			c1.38,2.01,1.96,4.43,1.55,6.81c-0.46,2.47-1.84,4.56-3.93,6.02c-4.26,2.97-10.2,1.96-13.21-2.26c0,0-4.6-6.48-7.31-10.37
			l-1.55-2.3c-0.17-0.25-0.29-0.54-0.29-0.88V153.52z M82.97,183.61c0.63-0.21,1.34,0.04,1.71,0.59l2.01,2.84c0.04,0,0.04,0,0.04,0
			c4.68,6.52,13.83,8.11,20.44,3.55c3.26-2.26,5.39-5.6,6.1-9.4c0.67-3.8-0.21-7.61-2.47-10.78l-1.92-2.68
			c-0.38-0.59-0.38-1.34,0.04-1.88c0.38-0.54,1.13-0.75,1.76-0.5c4.22,1.46,7.82,4.14,10.37,7.77c2.76,3.8,4.26,8.61,4.31,13.42
			c0,4.64-1.25,8.78-3.68,12.04l-1.13,1.55l14.42,19.1c0.33,0.46,0.38,1.04,0.17,1.59c-0.21,0.5-0.71,0.88-1.25,0.92
			c-2.88,0.29-5.6,1.25-7.82,2.72c-0.25,0.21-0.54,0.29-0.84,0.29c-0.5,0-1-0.25-1.3-0.71l-12.25-17.85l-1.8,0.5
			c-8.36,2.3-18.72-1.71-24.16-9.4c-2.55-3.55-3.89-7.77-3.89-12.2C81.88,184.4,82.3,183.82,82.97,183.61z M76.62,249.23
			c0,0.88-0.71,1.55-1.55,1.55H45.81c-0.88,0-1.59-0.67-1.59-1.55v-56.51c0-17.26,11.58-32.73,28.13-37.57l2.26-0.67
			c0.5-0.13,1-0.04,1.38,0.25c0.42,0.29,0.63,0.75,0.63,1.25V249.23z M121.42,249.98c-0.29,0.5-0.79,0.79-1.38,0.79H83.43
			c-0.88,0-1.59-0.67-1.59-1.55v-44.22c0-0.63,0.38-1.21,0.96-1.46c0.58-0.25,1.25-0.13,1.71,0.33c6.44,6.44,15.63,9.65,23.95,8.4
			c0.63-0.04,1.21,0.17,1.55,0.67l10.7,15.67c0.33,0.5,0.33,1.13,0.04,1.63c-1.55,2.72-2.34,5.6-2.34,8.53c0,3.43,1,6.73,2.93,9.57
			C121.67,248.85,121.71,249.44,121.42,249.98z M185.29,249.23c0,0.88-0.71,1.55-1.55,1.55h-48.07c-6.65,0-12.04-5.39-12.04-12
			c0-6.65,5.39-12.04,12.04-12.04h48.07c0.84,0,1.55,0.71,1.55,1.59V249.23z M231.26,249.23c0,0.88-0.71,1.55-1.55,1.55H192.1
			c-0.88,0-1.59-0.67-1.59-1.55v-20.9c0-0.88,0.71-1.59,1.59-1.59h6.77v-70.76c0-0.5,0.25-0.96,0.63-1.25
			c0.42-0.29,0.92-0.38,1.38-0.25l2.26,0.67c16.55,4.85,28.13,20.31,28.13,37.57V249.23z"/>
	</g>
	<g>
		<rect x="97.51" y="33.44" class="st0" width="13.58" height="5.22"/>
	</g>
	<g>
		<rect x="164.39" y="33.44" class="st0" width="13.58" height="5.22"/>
	</g>
</g>
</svg>
