<?xml version="1.0" encoding="utf-8"?>
<!-- Generator: Adobe Illustrator 24.0.0, SVG Export Plug-In . SVG Version: 6.00 Build 0)  -->
<svg version="1.1" id="Layer_1" xmlns="http://www.w3.org/2000/svg" xmlns:xlink="http://www.w3.org/1999/xlink" x="0px" y="0px"
	 viewBox="0 0 256 256" style="enable-background:new 0 0 256 256;" xml:space="preserve">
<style type="text/css">
	.st0{fill:#8699A3;}
</style>
<g>
	<g>
		<path class="st0" d="M110.59,147.94c-4.51-5.34-11.16-8.82-18.68-8.82c-13.53,0-24.54,11.01-24.54,24.54
			c0,13.53,11.01,24.54,24.54,24.54c7.52,0,14.18-3.48,18.69-8.82l27.08,11.75c-0.14,0.98-0.3,1.95-0.3,2.97
			c0,11.28,9.18,20.46,20.46,20.46c11.28,0,20.46-9.18,20.46-20.46c0-11.28-9.18-20.46-20.46-20.46c-6.44,0-12.13,3.05-15.88,7.72
			l-26.41-11.46c0.53-2,0.9-4.07,0.9-6.24c0-2.17-0.37-4.24-0.91-6.24l26.42-11.51c3.75,4.66,9.44,7.71,15.88,7.71
			c11.28,0,20.46-9.18,20.46-20.46c0-11.28-9.18-20.46-20.46-20.46c-11.28,0-20.46,9.18-20.46,20.46c0,1.02,0.16,2,0.3,2.98
			L110.59,147.94z M91.91,177.54c-7.65,0-13.87-6.22-13.87-13.87c0-7.65,6.22-13.87,13.87-13.87c7.65,0,13.87,6.22,13.87,13.87
			C105.78,171.32,99.56,177.54,91.91,177.54z M157.84,184.31c5.4,0,9.79,4.39,9.79,9.79c0,5.4-4.39,9.79-9.79,9.79
			c-5.4,0-9.8-4.39-9.8-9.79C148.04,188.7,152.44,184.31,157.84,184.31z M157.84,123.38c5.4,0,9.79,4.39,9.79,9.79
			c0,5.4-4.39,9.79-9.79,9.79c-5.4,0-9.8-4.39-9.8-9.79C148.04,127.77,152.44,123.38,157.84,123.38z"/>
		<path class="st0" d="M246.94,108.53L131.48,1.42c-2.04-1.9-5.21-1.9-7.25,0L8.71,108.53c-1.61,1.49-2.14,3.82-1.34,5.86
			c0.8,2.04,2.77,3.39,4.96,3.39h20.63v132.89c0,2.95,2.39,5.33,5.33,5.33h179c2.95,0,5.33-2.39,5.33-5.33V117.78h20.69
			c2.19,0,4.16-1.34,4.96-3.39S248.55,110.02,246.94,108.53z M217.3,107.11c-2.95,0-5.33,2.39-5.33,5.33v132.89H43.63V112.44
			c0-2.95-2.39-5.33-5.33-5.33H25.93l101.92-94.5l101.87,94.5H217.3z"/>
	</g>
</g>
</svg>
