<svg xmlns="http://www.w3.org/2000/svg" viewBox="0 0 256 256"><path d="M110.6 147.9c-4.5-5.3-11.2-8.8-18.7-8.8-13.5 0-24.5 11-24.5 24.5s11 24.5 24.5 24.5c7.5 0 14.2-3.5 18.7-8.8l27.1 11.8c-.1 1-.3 1.9-.3 3 0 11.3 9.2 20.5 20.5 20.5s20.5-9.2 20.5-20.5-9.2-20.5-20.5-20.5c-6.4 0-12.1 3.1-15.9 7.7l-26.4-11.5c.5-2 .9-4.1.9-6.2s-.4-4.2-.9-6.2l26.4-11.5c3.8 4.7 9.4 7.7 15.9 7.7 11.3 0 20.5-9.2 20.5-20.5s-9.2-20.5-20.5-20.5-20.5 9.2-20.5 20.5c0 1 .2 2 .3 3l-27.1 11.8zm-18.7 29.6c-7.7 0-13.9-6.2-13.9-13.9s6.2-13.9 13.9-13.9 13.9 6.2 13.9 13.9-6.2 13.9-13.9 13.9zm65.9 6.8c5.4 0 9.8 4.4 9.8 9.8s-4.4 9.8-9.8 9.8-9.8-4.4-9.8-9.8 4.4-9.8 9.8-9.8zm0-60.9c5.4 0 9.8 4.4 9.8 9.8s-4.4 9.8-9.8 9.8-9.8-4.4-9.8-9.8 4.4-9.8 9.8-9.8z"/><path d="M246.9 108.5L131.5 1.4c-2-1.9-5.2-1.9-7.2 0L8.7 108.5a5.38 5.38 0 003.7 9.3H33v132.9c0 2.9 2.4 5.3 5.3 5.3h179c2.9 0 5.3-2.4 5.3-5.3V117.8h20.7c2.2 0 4.2-1.3 5-3.4s.3-4.4-1.4-5.9zm-29.6-1.4c-2.9 0-5.3 2.4-5.3 5.3v132.9H43.6V112.4c0-2.9-2.4-5.3-5.3-5.3H25.9l101.9-94.5 101.9 94.5h-12.4z"/></svg>