<?xml version="1.0" encoding="utf-8"?>
<!-- Generator: Adobe Illustrator 24.0.0, SVG Export Plug-In . SVG Version: 6.00 Build 0)  -->
<svg version="1.1" id="Layer_1" xmlns="http://www.w3.org/2000/svg" xmlns:xlink="http://www.w3.org/1999/xlink" x="0px" y="0px"
	 viewBox="0 0 256 256" style="enable-background:new 0 0 256 256;" xml:space="preserve">
<g>
	<g>
		<path d="M110.6,147.9c-4.5-5.3-11.2-8.8-18.7-8.8c-13.5,0-24.5,11-24.5,24.5c0,13.5,11,24.5,24.5,24.5c7.5,0,14.2-3.5,18.7-8.8
			l27.1,11.8c-0.1,1-0.3,1.9-0.3,3c0,11.3,9.2,20.5,20.5,20.5s20.5-9.2,20.5-20.5s-9.2-20.5-20.5-20.5c-6.4,0-12.1,3.1-15.9,7.7
			l-26.4-11.5c0.5-2,0.9-4.1,0.9-6.2s-0.4-4.2-0.9-6.2l26.4-11.5c3.8,4.7,9.4,7.7,15.9,7.7c11.3,0,20.5-9.2,20.5-20.5
			s-9.2-20.5-20.5-20.5s-20.5,9.2-20.5,20.5c0,1,0.2,2,0.3,3L110.6,147.9z M91.9,177.5c-7.7,0-13.9-6.2-13.9-13.9
			s6.2-13.9,13.9-13.9s13.9,6.2,13.9,13.9C105.8,171.3,99.6,177.5,91.9,177.5z M157.8,184.3c5.4,0,9.8,4.4,9.8,9.8s-4.4,9.8-9.8,9.8
			s-9.8-4.4-9.8-9.8S152.4,184.3,157.8,184.3z M157.8,123.4c5.4,0,9.8,4.4,9.8,9.8c0,5.4-4.4,9.8-9.8,9.8s-9.8-4.4-9.8-9.8
			C148,127.8,152.4,123.4,157.8,123.4z"/>
		<path d="M246.9,108.5L131.5,1.4c-2-1.9-5.2-1.9-7.2,0L8.7,108.5c-1.6,1.5-2.1,3.8-1.3,5.9s2.8,3.4,5,3.4H33v132.9
			c0,2.9,2.4,5.3,5.3,5.3h179c2.9,0,5.3-2.4,5.3-5.3V117.8h20.7c2.2,0,4.2-1.3,5-3.4S248.6,110,246.9,108.5z M217.3,107.1
			c-2.9,0-5.3,2.4-5.3,5.3v132.9H43.6V112.4c0-2.9-2.4-5.3-5.3-5.3H25.9l101.9-94.5l101.9,94.5H217.3z"/>
	</g>
</g>
</svg>
