<svg xmlns="http://www.w3.org/2000/svg" viewBox="0 0 30.96 32.75"><defs><style>.a{fill:none;stroke:#000;stroke-linecap:round;stroke-linejoin:round;stroke-width:0.75px;}</style></defs><title>106</title><path class="a" d="M15,19.76a3.08,3.08,0,1,0-3.08,3.08A3.08,3.08,0,0,0,15,19.76Zm7.62-4.12A2.34,2.34,0,1,0,20.24,18,2.33,2.33,0,0,0,22.58,15.64ZM18,16.81l-3.38,1.64m8,5A2.48,2.48,0,1,0,20.15,26,2.48,2.48,0,0,0,22.62,23.47Zm-8.21-1.81,3,1.06" transform="translate(-0.52 0.38)"/><path class="a" d="M27.85,31.33V14.72h2.59a.68.68,0,0,0,.62-.42.66.66,0,0,0-.17-.73L16.46.18a.67.67,0,0,0-.91,0L1.11,13.57a.66.66,0,0,0-.17.73.68.68,0,0,0,.62.42H4.14V31.33a.67.67,0,0,0,.67.67H27.18A.67.67,0,0,0,27.85,31.33Z" transform="translate(-0.52 0.38)"/><line class="a" x1="4.01" y1="14.6" x2="16.7" y2="3.07"/></svg>