<svg xmlns="http://www.w3.org/2000/svg" viewBox="0 0 32.75 32.35"><defs><style>.a{fill:none;stroke:#000;stroke-linecap:round;stroke-linejoin:round;stroke-width:0.75px;}</style></defs><title>1061</title><path class="a" d="M14,26.51H27.78a2,2,0,0,0,2-1.64c.09-.51.17-1,.24-1.51l.1-.79c1-7.93-.82-13.8-5.38-17.45a3,3,0,0,0-1.84-.63H18V1.69A1.47,1.47,0,0,0,16.57.2h-.06l-11,1.59a1.47,1.47,0,0,0-1.41,1.5v1.2H2.92A2.91,2.91,0,0,0,0,7.4V23.59a2.92,2.92,0,0,0,2.92,2.92H6.58m10.27,0V10.1a.85.85,0,0,1,.84-.84h5.52a.85.85,0,0,1,.84.84V26.49" transform="translate(0.38 0.18)"/><path class="a" d="M4.6,14.18h7.71a1.5,1.5,0,0,0,1.5-1.5V10.21a1.5,1.5,0,0,0-1.5-1.5H4.6a1.5,1.5,0,0,0-1.5,1.5v2.47A1.5,1.5,0,0,0,4.6,14.18Z" transform="translate(0.38 0.18)"/><circle class="a" cx="10.66" cy="26.31" r="3.41"/><line class="a" x1="24.47" y1="17.52" x2="30.68" y2="17.52"/><line class="a" x1="0.49" y1="17.52" x2="17.2" y2="17.52"/><line class="a" x1="4.43" y1="4.65" x2="18.39" y2="4.66"/><line class="a" x1="10.91" y1="8.92" x2="10.91" y2="14.33"/><path class="a" d="M.16,31.8s16.57-4.58,31.84,0" transform="translate(0.38 0.18)"/><line class="a" x1="23.34" y1="26.69" x2="23.34" y2="30.08"/><line class="a" x1="21.75" y1="18.65" x2="21.75" y2="19.53"/></svg>