<svg xmlns="http://www.w3.org/2000/svg" viewBox="0 0 32.75 19.8"><defs><style>.a{fill:none;stroke:#000;stroke-linecap:round;stroke-linejoin:round;stroke-width:0.75px;}</style></defs><title>107</title><path class="a" d="M22.53,20a4.74,4.74,0,1,0,4.74-4.74A4.74,4.74,0,0,0,22.53,20Zm4.74-2.29A2.29,2.29,0,1,1,25,20,2.3,2.3,0,0,1,27.27,17.71Z" transform="translate(0.38 -6.1)"/><path class="a" d="M6.45,24.73A4.74,4.74,0,1,0,1.72,20,4.74,4.74,0,0,0,6.45,24.73Zm0-7A2.29,2.29,0,1,1,4.16,20,2.3,2.3,0,0,1,6.45,17.71Z" transform="translate(0.38 -6.1)"/><path class="a" d="M12.49,19.78,14.57,22a.58.58,0,0,0,.36.12h6.66A5.93,5.93,0,0,1,21.22,20a6.06,6.06,0,0,1,3.69-5.57l-.49-.88,1.11-.2A.7.7,0,0,0,26,13a.62.62,0,0,0,.06-.53L25.22,9.9a.64.64,0,0,0-.73-.45l-2.25.39-1.75-2A.68.68,0,0,0,20,7.63L16.17,6.48a.66.66,0,1,0,0,1.31l3.52,1.15.45.5c-2.48-.11-5,2.28-6.28,3.21A6.07,6.07,0,0,0,10,11.23H6.88a4,4,0,0,0-4,3.92A6,6,0,0,1,6.45,14,6.05,6.05,0,0,1,12.49,19.78Zm3.68-2.47h2.46" transform="translate(0.38 -6.1)"/><line class="a" x1="0.38" y1="19.42" x2="32.27" y2="19.42"/></svg>