<svg xmlns="http://www.w3.org/2000/svg" viewBox="0 0 32.75 32.23"><defs><style>.a{fill:none;stroke:#000;stroke-linecap:round;stroke-linejoin:round;stroke-width:0.75px;}</style></defs><title>1079</title><path class="a" d="M19.08.65V2.49h-2a.38.38,0,0,0-.39.4V6a.34.34,0,0,0,.12.27l.71,3.3c.15.35,0,.59-.28,1.22a6,6,0,0,0-.39.86,9.12,9.12,0,1,0-.16,12.21v.9a2.27,2.27,0,0,0,2.47,2h4.32a2.3,2.3,0,0,0,2.48-2V11.92h0v-.16h0l-.75-1.61c-.16-.35,0-.59.27-1.22.16-.27.32-2.43.48-2.86h0S26,6,26,6h0V2.89a.4.4,0,0,0-.4-.4h-2V.65m.28-.39H18.8M10.46,9.33,1.6,21.24c4.88.19,6.61-12.12,10.17-12.56M16.7,23.81l.12-.11a8.9,8.9,0,0,0,2.29-6.05A8.87,8.87,0,0,0,17,11.73l-.1-.13-.16,3c-4.12.75-3.93,10.27-8.28,12" transform="translate(0.38 0.12)"/><path class="a" d="M21.26,19.06a2,2,0,0,0,2-2c0-.94-1.38-3.65-1.65-4.2a.4.4,0,0,0-.71,0c-.27.55-1.65,3.26-1.65,4.2A2,2,0,0,0,21.26,19.06Z" transform="translate(0.38 0.12)"/><path class="a" d="M18.78,21.24h5" transform="translate(0.38 0.12)"/><line class="a" x1="19.24" y1="2.61" x2="23.79" y2="2.61"/><line class="a" x1="17.08" y1="5.96" x2="26.38" y2="5.96"/><line class="a" x1="0.38" y1="28.21" x2="32.38" y2="28.21"/><line class="a" x1="3.99" y1="31.86" x2="20.22" y2="31.86"/></svg>