<svg xmlns="http://www.w3.org/2000/svg" viewBox="0 0 32.82 32.75"><defs><style>.a{fill:none;stroke:#000;stroke-linecap:round;stroke-linejoin:round;stroke-width:0.75px;}</style></defs><title>108</title><path class="a" d="M29.5,17l-2.21-2.21a.63.63,0,0,0-.87,0L24.21,17M6.31,15.5a10.33,10.33,0,0,0,20.55,0M9,17l-2.21-2.3a.62.62,0,0,0-.86,0L3.66,17M14.87,2.31A1.72,1.72,0,1,1,16.58,4,1.71,1.71,0,0,1,14.87,2.31Z" transform="translate(0.41 0.38)"/><line class="a" x1="16.99" y1="25.19" x2="16.99" y2="4.99"/><line class="a" x1="12.3" y1="8.31" x2="21.68" y2="8.31"/><circle class="a" cx="16.99" cy="2.68" r="2.31"/><path class="a" d="M32,28l-1-.91a3.32,3.32,0,0,0-4.43,0,2.53,2.53,0,0,1-3.36,0,3.31,3.31,0,0,0-4.44,0,4.84,4.84,0,0,1-5.7,0,3.31,3.31,0,0,0-4.44,0,2.53,2.53,0,0,1-3.36,0,3.32,3.32,0,0,0-4.43,0L0,28" transform="translate(0.41 0.38)"/><path class="a" d="M32,32l-1-.91a3.32,3.32,0,0,0-4.43,0,2.53,2.53,0,0,1-3.36,0,3.31,3.31,0,0,0-4.44,0,4.84,4.84,0,0,1-5.7,0,3.31,3.31,0,0,0-4.44,0,2.53,2.53,0,0,1-3.36,0,3.32,3.32,0,0,0-4.43,0L0,32" transform="translate(0.41 0.38)"/></svg>