<svg xmlns="http://www.w3.org/2000/svg" viewBox="0 0 23.16 32.75"><defs><style>.a{fill:none;stroke:#000;stroke-linecap:round;stroke-linejoin:round;stroke-width:0.75px;}</style></defs><title>109</title><path class="a" d="M19.53,23.12s3.06,2.49,6.39,2.1c0,0-1.44-3.38.11-5.35s3.82-13.34-10-13.34" transform="translate(-4.42 0.38)"/><path class="a" d="M12.65,23.37a9.23,9.23,0,0,1-6.13,1.85S8,21.84,6.41,19.87,2.59,6.53,16.36,6.53" transform="translate(-4.42 0.38)"/><path class="a" d="M7.88,14.69s6.68-.51,9.17-4.52" transform="translate(-4.42 0.38)"/><path class="a" d="M16.05,11.48s3,4,7.52,4.11" transform="translate(-4.42 0.38)"/><path class="a" d="M21.56,15.43v4.39A5.63,5.63,0,0,1,15.84,24" transform="translate(-4.42 0.38)"/><path class="a" d="M10.5,14.67v5.15A5.64,5.64,0,0,0,16.23,24" transform="translate(-4.42 0.38)"/><line class="a" x1="8.16" y1="27.61" x2="11.44" y2="30.89"/><path class="a" d="M17.86,23.94v3.29H22s5,0,5,4.77H4.8c0-4.81,5-4.77,5-4.77H14V23.94" transform="translate(-4.42 0.38)"/><line class="a" x1="14.81" y1="27.61" x2="11.53" y2="30.89"/><path class="a" d="M9,7.73l-1.79-4S9.34,0,16.11,0h0C22.87,0,25,3.76,25,3.76l-1.79,4" transform="translate(-4.42 0.38)"/><line class="a" x1="11.69" y1="2.65" x2="11.69" y2="5.32"/><line class="a" x1="10.35" y1="3.98" x2="13.02" y2="3.98"/></svg>