<svg xmlns="http://www.w3.org/2000/svg" viewBox="0 0 250 250"><path d="M197.1 214.2a46.22 46.22 0 00-32.9-13.6H141v-18c4.1-1.1 7.8-2.8 11.1-4.9 8.9 7.5 22.8 16.1 40.2 16.1 2.4 0 4.9-.2 7.3-.5.9-.1 1.7-.7 2.2-1.5.4-.8.4-1.8 0-2.6-.3-.7-7.8-16.7 0-32.3 8.4-16.9 14.4-58.2-9.3-81.8-3.7-3.6-7.7-6.9-12-9.8l16.9-30.4c.5-1 .5-2.2-.2-3.1-1-1.3-24-31.7-72.1-31.7C76.8 0 53.8 30.4 52.9 31.7c-.7.9-.7 2.1-.2 3.1l16.9 30.4c-4.3 2.8-8.4 6.1-12 9.8-23.7 23.6-17.7 65-9.3 81.8 7.8 15.6.3 31.6 0 32.3-.4.8-.4 1.8 0 2.6s1.2 1.4 2.2 1.5c21.5 3 38.8-8.2 47.5-15.6 3.3 2.1 7 3.7 11 4.9v18H85.8c-25.7 0-46.5 20.9-46.5 46.5 0 1.6 1.3 2.9 2.9 2.9h165.7c1.6 0 2.9-1.3 2.9-2.9 0-12.3-4.9-24-13.7-32.8zm-143.6-60C44.3 136 42 98.7 61.6 79.1c4-4.1 8.5-7.6 13.3-10.4 17.6-10.5 36.4-10.5 50.1-10.5 2.6 0 5.4 0 8.3.1 1 0 2 .1 3.1.1 1.9.1 3.8.2 5.7.4h.4c12.7 1.2 23.3 4.4 32.6 10 4.7 2.9 9.2 6.4 13.3 10.4 19.6 19.6 17.3 56.9 8.2 75.2-6.9 13.8-3.8 27.3-1.5 33.7-16 1-29.6-6.7-38.3-13.9l.3-.2c.3-.3.7-.7 1-1l2.5-2.9c.3-.4.5-.7.8-1.1.2-.3.4-.7.6-.9.2-.4.5-.7.7-1.1.2-.3.4-.7.5-.9.2-.3.4-.7.6-1.1.2-.3.3-.6.4-.9l.9-2.1c.1-.3.2-.6.4-1l.2-.7c.1-.2.1-.4.2-.7l.1-.3c.1-.3.2-.6.2-.8l.5-2.4c.1-.2.1-.5.1-.7l.3-1.9-1.1-.1 1.2-.3c0-.2 0-.4.1-.8v-31.6c7.1 2 12.4 2.7 14 2.8h.3c1.5 0 2.7-1.1 2.9-2.6.1-.8-.2-1.5-.7-2.1-.5-.6-1.2-1-2-1-.1 0-7.2-.7-16.5-3.7-10-3.2-23.6-9.6-32.9-21.7 2.2-2.1 4.1-4.1 5.7-6.1.8-.9 1.5-1.8 2.4-2.9l.7-1-4.7-3.3-.7.9c-.7.9-1.4 1.8-2.1 2.7-2.1 2.5-4.5 5-7.1 7.3-13.2 11.7-29.8 17.5-41.4 20.2-5.6 1.3-11.3 2.3-17.1 2.9-.8.1-1.5.5-1.9 1.1-.5.6-.7 1.4-.6 2.1.1 1.5 1.4 2.6 2.9 2.6h.3c4.5-.5 9.3-1.2 14.2-2.3v34.9c0 .1 0 .2 0 .4v.4c0 .1 0 .3 0 .5l.1 1.4c0 .1 0 .3.1.6l.1.8 1.9 6.7.1.3c.1.2.2.4.2.6.2.4.3.7.5 1.1.1.3.3.6.4.9.2.4.4.8.6 1.1.1.3.3.5.5.9s.5.8.7 1.1l.6.9c.2.3.4.6.6.9l.9 1.2c.2.3.5.6.7.8l.3.3c.3.3.5.6.8.9.3.4.7.7 1.2 1.2 0 0 .1.1.1.1-8.2 6.7-20.5 14-35.4 14-1 0-1.9 0-2.9-.1 2.1-7 5.2-20.5-1.6-34.3zm60.2-100.6zm61.8 8.6c-1.9-1-3.7-1.9-5.6-2.7l-.9-.4c-2.2-.9-4.2-1.7-6.1-2.3l-.8-.3c-2-.6-4.1-1.2-6.2-1.7-.2-.1-.4-.1-.6-.1-2.1-.5-4.1-.8-6-1.1l-.7-.1c-2-.3-4-.5-5.9-.7-.2 0-.3 0-.5 0-1.9-.2-3.9-.3-5.7-.3h-.4c-1.9-.1-3.7-.1-5.5-.1h-.3c-3.5 0-6.8 0-10.3 0h-.3c-1.8 0-3.6.1-5.5.1v1.1l-.5-1.1c-1.9.1-3.8.2-5.8.3h-.5c-1.9.2-3.9.4-5.9.7l-.7.1c-2 .3-4 .7-6 1.1l-.8.2c-2 .5-4 1-6 1.6l-.9.3c-2 .6-4 1.4-6.1 2.3l-.9.4c-1.8.8-3.6 1.7-5.6 2.7L58.7 33.7c5-5.9 26.4-27.9 66.3-27.9s61.3 22.1 66.3 27.9l-15.8 28.5zM84 151.6zm79.9 9.7zM88.6 115c.6-.1 1.2-.3 1.7-.5l1.5-.4c.4-.1.9-.2 1.3-.4 1.3-.4 2.6-.8 3.9-1.3l1-.3c.4-.1.8-.2 1.1-.4 2-.7 3.9-1.4 5.9-2.3 1.8-.8 3.6-1.6 5.4-2.4l1.8-.9c1.2-.6 2.3-1.2 3.4-1.8.4-.2.8-.5 1.2-.7l.8-.5c1-.6 2-1.2 2.9-1.8.5-.3 1-.7 1.4-1l1-.7c.8-.5 1.5-1 2.2-1.6.5-.3.9-.7 1.3-1l1.1-.9c.1 0 .1-.1.2-.1.1.1.2.3.4.4l1 1.2c.4.5.8 1 1.3 1.5.8.9 1.7 1.8 2.6 2.7l.6.6c.4.4.8.8 1.2 1.1 1 .9 2 1.7 3 2.5l.6.5c.3.3.6.5 1 .8 1.4 1 2.7 1.9 4.3 2.9l.5.3c1.5.9 3 1.8 4.8 2.8.3.2.7.3 1 .5l.7.3c1 .5 2.1 1 3.1 1.5.4.2.8.3 1.2.5l1.1.5c.8.3 1.6.7 2.4 1 .5.2 1 .4 1.5.5l1 .4c.1.1.3.1.4.2v32.5c0 .1 0 .5-.1 1.2-.3 2.8-1.6 10-7.2 16.2a26 26 0 01-3.5 3.2c-3.7 2.7-8 4.6-13.1 5.8-5.4 1.2-12.5 1.6-18.9.9-2.1-.2-4.1-.5-6-1-5.1-1.1-9.4-3-13.1-5.8-10.6-8-10.8-20.5-10.8-20.6V115zm26.2 88.5v-19.7c.2 0 .3 0 .5.1l1.8.2c.5.1.9.1 1.4.2 1.8.2 3.8.3 6.1.3.3 0 .3 0 1.1 0 2 0 4-.1 5.8-.3.6-.1 1.1-.1 1.7-.2l1.4-.2c.2 0 .4 0 .6-.1v19.7c0 1.6 1.3 2.9 2.9 2.9h10.5L125 229.9l-23.5-23.5h10.4c1.6 0 2.9-1.3 2.9-2.9zm90.1 40.7H45.1a40.58 40.58 0 0140.6-37.8h7.5l29.7 29.7c1.1 1.1 3.1 1.1 4.1 0l29.7-29.7h7.5c10.9 0 21.1 4.2 28.8 11.9 7 7 11.2 16.1 11.9 25.9z"/><path d="M138.1 26.2h-10.2V16a2.9 2.9 0 00-5.8 0v10.2h-10.2a2.9 2.9 0 000 5.8h10.2v10.2a2.9 2.9 0 005.8 0V32h10.2a2.9 2.9 0 000-5.8z"/></svg>