<?xml version="1.0" encoding="utf-8"?>
<!-- Generator: Adobe Illustrator 24.0.0, SVG Export Plug-In . SVG Version: 6.00 Build 0)  -->
<svg version="1.1" id="Layer_1" xmlns="http://www.w3.org/2000/svg" xmlns:xlink="http://www.w3.org/1999/xlink" x="0px" y="0px"
	 viewBox="0 0 250 250" style="enable-background:new 0 0 250 250;" xml:space="preserve">
<g>
	<path d="M197.1,214.2c-8.8-8.8-20.5-13.6-32.9-13.6H141v-18c4.1-1.1,7.8-2.8,11.1-4.9c8.9,7.5,22.8,16.1,40.2,16.1
		c2.4,0,4.9-0.2,7.3-0.5c0.9-0.1,1.7-0.7,2.2-1.5c0.4-0.8,0.4-1.8,0-2.6c-0.3-0.7-7.8-16.7,0-32.3c8.4-16.9,14.4-58.2-9.3-81.8
		c-3.7-3.6-7.7-6.9-12-9.8l16.9-30.4c0.5-1,0.5-2.2-0.2-3.1c-1-1.3-24-31.7-72.1-31.7C76.8,0,53.8,30.4,52.9,31.7
		c-0.7,0.9-0.7,2.1-0.2,3.1l16.9,30.4c-4.3,2.8-8.4,6.1-12,9.8c-23.7,23.6-17.7,65-9.3,81.8c7.8,15.6,0.3,31.6,0,32.3
		c-0.4,0.8-0.4,1.8,0,2.6c0.4,0.8,1.2,1.4,2.2,1.5c21.5,3,38.8-8.2,47.5-15.6c3.3,2.1,7,3.7,11,4.9v18H85.8
		c-25.7,0-46.5,20.9-46.5,46.5c0,1.6,1.3,2.9,2.9,2.9h165.7c1.6,0,2.9-1.3,2.9-2.9C210.8,234.7,205.9,223,197.1,214.2z M53.5,154.2
		C44.3,136,42,98.7,61.6,79.1c4-4.1,8.5-7.6,13.3-10.4c17.6-10.5,36.4-10.5,50.1-10.5c2.6,0,5.4,0,8.3,0.1c1,0,2,0.1,3.1,0.1
		c1.9,0.1,3.8,0.2,5.7,0.4l0.4,0c12.7,1.2,23.3,4.4,32.6,10c4.7,2.9,9.2,6.4,13.3,10.4c19.6,19.6,17.3,56.9,8.2,75.2
		c-6.9,13.8-3.8,27.3-1.5,33.7c-16,1-29.6-6.7-38.3-13.9l0.3-0.2c0.3-0.3,0.7-0.7,1-1l2.5-2.9c0.3-0.4,0.5-0.7,0.8-1.1
		c0.2-0.3,0.4-0.7,0.6-0.9c0.2-0.4,0.5-0.7,0.7-1.1c0.2-0.3,0.4-0.7,0.5-0.9c0.2-0.3,0.4-0.7,0.6-1.1c0.2-0.3,0.3-0.6,0.4-0.9
		l0.9-2.1c0.1-0.3,0.2-0.6,0.4-1l0.2-0.7c0.1-0.2,0.1-0.4,0.2-0.7l0.1-0.3c0.1-0.3,0.2-0.6,0.2-0.8l0.5-2.4c0.1-0.2,0.1-0.5,0.1-0.7
		l0.3-1.9l-1.1-0.1l1.2-0.3c0-0.2,0-0.4,0.1-0.8l0-31.6c7.1,2,12.4,2.7,14,2.8l0.3,0c1.5,0,2.7-1.1,2.9-2.6c0.1-0.8-0.2-1.5-0.7-2.1
		c-0.5-0.6-1.2-1-2-1c-0.1,0-7.2-0.7-16.5-3.7c-10-3.2-23.6-9.6-32.9-21.7c2.2-2.1,4.1-4.1,5.7-6.1c0.8-0.9,1.5-1.8,2.4-2.9l0.7-1
		l-4.7-3.3l-0.7,0.9c-0.7,0.9-1.4,1.8-2.1,2.7c-2.1,2.5-4.5,5-7.1,7.3c-13.2,11.7-29.8,17.5-41.4,20.2c-5.6,1.3-11.3,2.3-17.1,2.9
		c-0.8,0.1-1.5,0.5-1.9,1.1c-0.5,0.6-0.7,1.4-0.6,2.1c0.1,1.5,1.4,2.6,2.9,2.6l0.3,0c4.5-0.5,9.3-1.2,14.2-2.3v34.9
		c0,0.1,0,0.2,0,0.4l0,0.4c0,0.1,0,0.3,0,0.5l0.1,1.4c0,0.1,0,0.3,0.1,0.6l0.1,0.8l1.9,6.7l0.1,0.3c0.1,0.2,0.2,0.4,0.2,0.6
		c0.2,0.4,0.3,0.7,0.5,1.1c0.1,0.3,0.3,0.6,0.4,0.9c0.2,0.4,0.4,0.8,0.6,1.1c0.1,0.3,0.3,0.5,0.5,0.9c0.2,0.4,0.5,0.8,0.7,1.1
		l0.6,0.9c0.2,0.3,0.4,0.6,0.6,0.9l0.9,1.2c0.2,0.3,0.5,0.6,0.7,0.8l0.3,0.3c0.3,0.3,0.5,0.6,0.8,0.9c0.3,0.4,0.7,0.7,1.2,1.2
		c0,0,0.1,0.1,0.1,0.1c-8.2,6.7-20.5,14-35.4,14c-1,0-1.9,0-2.9-0.1C57.2,181.5,60.3,168,53.5,154.2z M113.7,53.6L113.7,53.6
		L113.7,53.6L113.7,53.6z M175.5,62.2c-1.9-1-3.7-1.9-5.6-2.7l-0.9-0.4c-2.2-0.9-4.2-1.7-6.1-2.3l-0.8-0.3c-2-0.6-4.1-1.2-6.2-1.7
		c-0.2-0.1-0.4-0.1-0.6-0.1c-2.1-0.5-4.1-0.8-6-1.1l-0.7-0.1c-2-0.3-4-0.5-5.9-0.7c-0.2,0-0.3,0-0.5,0c-1.9-0.2-3.9-0.3-5.7-0.3
		l-0.4,0c-1.9-0.1-3.7-0.1-5.5-0.1h-0.3c-3.5,0-6.8,0-10.3,0h-0.3c-1.8,0-3.6,0.1-5.5,0.1l0,1.1l0,0l-0.5-1.1
		c-1.9,0.1-3.8,0.2-5.8,0.3l-0.5,0c-1.9,0.2-3.9,0.4-5.9,0.7l-0.7,0.1c-2,0.3-4,0.7-6,1.1L94,54.9c-2,0.5-4,1-6,1.6l-0.9,0.3
		c-2,0.6-4,1.4-6.1,2.3l-0.9,0.4c-1.8,0.8-3.6,1.7-5.6,2.7L58.7,33.7c5-5.9,26.4-27.9,66.3-27.9c39.9,0,61.3,22.1,66.3,27.9
		L175.5,62.2z M84,151.6L84,151.6L84,151.6L84,151.6L84,151.6z M163.9,161.3L163.9,161.3L163.9,161.3L163.9,161.3z M88.6,115
		c0.6-0.1,1.2-0.3,1.7-0.5l1.5-0.4c0.4-0.1,0.9-0.2,1.3-0.4c1.3-0.4,2.6-0.8,3.9-1.3l1-0.3c0.4-0.1,0.8-0.2,1.1-0.4
		c2-0.7,3.9-1.4,5.9-2.3c1.8-0.8,3.6-1.6,5.4-2.4l1.8-0.9c1.2-0.6,2.3-1.2,3.4-1.8c0.4-0.2,0.8-0.5,1.2-0.7l0.8-0.5
		c1-0.6,2-1.2,2.9-1.8c0.5-0.3,1-0.7,1.4-1l1-0.7c0.8-0.5,1.5-1,2.2-1.6c0.5-0.3,0.9-0.7,1.3-1l1.1-0.9c0.1,0,0.1-0.1,0.2-0.1
		c0.1,0.1,0.2,0.3,0.4,0.4l1,1.2c0.4,0.5,0.8,1,1.3,1.5c0.8,0.9,1.7,1.8,2.6,2.7l0.6,0.6c0.4,0.4,0.8,0.8,1.2,1.1c1,0.9,2,1.7,3,2.5
		l0.6,0.5c0.3,0.3,0.6,0.5,1,0.8c1.4,1,2.7,1.9,4.3,2.9l0.5,0.3c1.5,0.9,3,1.8,4.8,2.8c0.3,0.2,0.7,0.3,1,0.5l0.7,0.3
		c1,0.5,2.1,1,3.1,1.5c0.4,0.2,0.8,0.3,1.2,0.5l1.1,0.5c0.8,0.3,1.6,0.7,2.4,1c0.5,0.2,1,0.4,1.5,0.5l1,0.4c0.1,0.1,0.3,0.1,0.4,0.2
		v32.5c0,0.1,0,0.5-0.1,1.2c-0.3,2.8-1.6,10-7.2,16.2c-1.1,1.2-2.3,2.3-3.5,3.2c-3.7,2.7-8,4.6-13.1,5.8c-5.4,1.2-12.5,1.6-18.9,0.9
		c-2.1-0.2-4.1-0.5-6-1c-5.1-1.1-9.4-3-13.1-5.8c-10.6-8-10.8-20.5-10.8-20.6V115z M114.8,203.5v-19.7c0.2,0,0.3,0,0.5,0.1l1.8,0.2
		c0.5,0.1,0.9,0.1,1.4,0.2c1.8,0.2,3.8,0.3,6.1,0.3c0.3,0,0.3,0,1.1,0c2,0,4-0.1,5.8-0.3c0.6-0.1,1.1-0.1,1.7-0.2l1.4-0.2
		c0.2,0,0.4,0,0.6-0.1v19.7c0,1.6,1.3,2.9,2.9,2.9h10.5L125,229.9l-23.5-23.5h10.4C113.5,206.4,114.8,205.1,114.8,203.5z
		 M204.9,244.2H45.1c1.5-21.3,19.1-37.8,40.6-37.8h7.5l29.7,29.7c1.1,1.1,3.1,1.1,4.1,0l29.7-29.7h7.5c10.9,0,21.1,4.2,28.8,11.9
		C200,225.3,204.2,234.4,204.9,244.2z"/>
	<path d="M138.1,26.2h-10.2V16c0-1.6-1.3-2.9-2.9-2.9c-1.6,0-2.9,1.3-2.9,2.9v10.2h-10.2c-1.6,0-2.9,1.3-2.9,2.9
		c0,1.6,1.3,2.9,2.9,2.9h10.2v10.2c0,1.6,1.3,2.9,2.9,2.9c1.6,0,2.9-1.3,2.9-2.9V32h10.2c1.6,0,2.9-1.3,2.9-2.9
		C141,27.5,139.7,26.2,138.1,26.2z"/>
</g>
</svg>
