<?xml version="1.0" encoding="utf-8"?>
<!-- Generator: Adobe Illustrator 24.0.0, SVG Export Plug-In . SVG Version: 6.00 Build 0)  -->
<svg version="1.1" id="Layer_1" xmlns="http://www.w3.org/2000/svg" xmlns:xlink="http://www.w3.org/1999/xlink" x="0px" y="0px"
	 viewBox="0 0 29.6 10.5" style="enable-background:new 0 0 29.6 10.5;" xml:space="preserve">
<style type="text/css">
	.st0{fill:#8699A3;}
</style>
<path class="st0" d="M24.4,0c-1.2,0-2.4,0.4-3.3,1.1C20.3,0.4,19.2,0,18,0c-1.2,0-2.4,0.4-3.3,1.1C13.9,0.4,12.8,0,11.6,0
	c-1.2,0-2.3,0.4-3.2,1.1C7.5,0.4,6.5,0,5.3,0C2.4,0,0,2.3,0,5.2c0,2.9,2.3,5.3,5.2,5.3c1.2,0,2.3-0.4,3.2-1.1
	c0.9,0.7,1.9,1.1,3.1,1.1c1.2,0,2.4-0.4,3.3-1.1c0.9,0.7,1.9,1.1,3.1,1.1c1.2,0,2.4-0.4,3.3-1.1c0.9,0.7,1.9,1.1,3.1,1.1
	c2.9,0,5.3-2.3,5.3-5.2C29.6,2.4,27.3,0,24.4,0z M24.3,9.9c-1.2,0-2.3-0.5-3.1-1.3c-0.9,0.8-2,1.3-3.2,1.3c-1.2,0-2.3-0.5-3.1-1.3
	c-0.9,0.8-2.1,1.3-3.3,1.3c-1.2,0-2.3-0.5-3.1-1.2C8.3,8.8,8.1,8.9,7.9,9C7.2,9.6,6.2,9.9,5.2,9.9C3.3,9.9,1.7,8.7,1,7.1
	C0.8,7,0.6,7,0.5,7C0.3,6.4,0.2,5.8,0.2,5.2c0-2.7,2.2-4.9,4.9-5c0.1,0.1,0.2,0.2,0.2,0.4c0,0,0,0,0,0c1.2,0,2.3,0.5,3.2,1.3l0-0.7
	c0.8-0.6,1.8-1.1,3-1.1c0,0.1,0.1,0.2,0.2,0.4c1.2,0,2.4,0.5,3.2,1.3l0-0.6c0.8-0.7,1.9-1.1,3-1.1c0.1,0.1,0.1,0.2,0.2,0.4
	c0,0,0,0,0,0c1.2,0,2.3,0.6,3.2,1.4l0-0.7c0.8-0.7,1.9-1.1,3-1.1c0,0.1,0.2,0.4,0.2,0.4c2.5,0.1,4.5,1.6,4.6,4.7
	C29,7.9,26.8,9.9,24.3,9.9z"/>
<path class="st0" d="M6.8,7C6.6,6.4,6.5,5.8,6.5,5.2C6.5,4,6.9,3,7.6,2.1c0.3,0,0.5,0,0.7,0c-0.8-0.8-1.9-1.2-3-1.2
	c-2.4,0-4.4,1.9-4.4,4.3c0,2.1,1.4,3.9,3.4,4.3c0.1-0.1,0.1-0.2,0.2-0.3c0.2,0,0.5,0.1,0.7,0.1c0.9,0,1.8-0.3,2.5-0.8l0.6,0
	c-0.4-0.4-0.7-0.9-1-1.5C7.1,7,7,7,6.8,7z M5.2,9.1c-2.1,0-3.8-1.8-3.8-3.9c0-2.1,1.8-3.8,3.9-3.8c0.8,0,1.5,0.3,2.1,0.7
	C6.8,2.9,6.4,4,6.3,5.2c0,1.2,0.4,2.3,1.1,3.2C6.9,8.7,6.2,9.1,5.2,9.1z"/>
<path class="st0" d="M9.1,4c0.1-0.2,0.2-0.3,0.2-0.3c-0.1-0.5-0.6-1-0.9-1.4C7.7,3,7.2,4.1,7.2,5.2c0,0.8,0.3,2,0.9,2.7
	C8.2,8,8.3,8.2,8.4,8.3l0-0.6C9,7.1,9.3,6.2,9.3,5.3C9.3,4.9,9.2,4.4,9.1,4z M8.4,7.4C8,6.8,7.7,6,7.7,5.2c0-0.8,0.3-1.5,0.7-2.1
	c0.4,0.6,0.7,1.4,0.7,2.2C9.1,6.1,8.8,6.8,8.4,7.4z"/>
<path class="st0" d="M15.4,4c0.1-0.2,0.2-0.3,0.2-0.3c-0.1-0.4-0.6-1.1-0.9-1.4C14,3,13.6,4.1,13.6,5.2c0,1.2,0.5,2.3,1.2,3.1l0-0.5
	c0.5-0.8,0.8-1.5,0.8-2.4C15.6,4.9,15.6,4.4,15.4,4z M14.8,7.4c-0.4-0.6-0.7-1.4-0.7-2.2c0-0.8,0.3-1.5,0.7-2.1
	c0.4,0.6,0.7,1.4,0.7,2.2C15.4,6.1,15.2,6.8,14.8,7.4z"/>
<path class="st0" d="M19.6,6.9c-0.2-0.6-0.3-1.2-0.3-1.8c0-1.2,0.4-2.2,1.1-3.1l0.7,0c-0.8-0.8-1.8-1.2-3-1.2
	c-1.2,0-2.3,0.4-3.1,1.2c0.8,0.9,1.3,2,1.3,3.2c0,1.1-0.5,2.3-1.3,3.1c0.6,0.5,1.2,0.9,2,1.1c0.1-0.1,0.1-0.2,0.2-0.3
	c0.2,0,0.5,0.1,0.7,0.1c1,0,1.8-0.3,2.5-0.8l0.6,0c-0.4-0.4-0.7-0.9-1-1.4C19.9,7,19.7,7,19.6,6.9z M17.9,9.1
	c-0.8,0-1.5-0.3-2.2-0.7c0.7-0.9,1-1.9,1.1-3.1c0-1.2-0.4-2.3-1.1-3.2c0.6-0.5,1.4-0.7,2.3-0.7c0.8,0,1.5,0.3,2.1,0.7
	c-0.7,0.9-1,1.9-1.1,3.1c0,1.2,0.4,2.3,1.1,3.2C19.7,8.7,18.9,9.1,17.9,9.1z"/>
<path class="st0" d="M28.4,3.7c-0.3-1.2-2.1-2.8-4-2.8c-1.2,0-2.3,0.4-3.1,1.2c0.8,0.9,1.3,2.1,1.3,3.3c0,1.1-0.5,2.3-1.3,3.1
	c0.6,0.5,1.3,0.9,2,1.1c0.1-0.1,0.1-0.2,0.2-0.3c0.2,0,0.5,0.1,0.7,0.1c2.2,0,4.1-1.8,4.1-4c0-0.5-0.1-0.9-0.2-1.3
	C28.3,3.8,28.4,3.7,28.4,3.7z M24.3,9.1c-0.8,0-1.5-0.3-2.1-0.7c0.7-0.9,1-1.9,1.1-3.1c0-1.2-0.4-2.3-1.1-3.2
	c0.6-0.4,1.4-0.7,2.3-0.7c2.1,0,3.8,1.8,3.8,3.9C28.1,7.4,26.4,9.1,24.3,9.1z"/>
<path class="st0" d="M21.8,4c0.1-0.2,0.2-0.3,0.2-0.3c-0.1-0.5-0.6-1-0.9-1.4C20.4,3,20,4,19.9,5.2c0,1.2,0.5,2.3,1.2,3.1l0-0.5
	C21.7,7,22,6.3,22,5.3C22,4.8,22,4.4,21.8,4z M21.1,7.4c-0.4-0.6-0.7-1.4-0.7-2.2c0-0.8,0.3-1.5,0.7-2.1c0.4,0.6,0.7,1.4,0.7,2.2
	C21.8,6.1,21.5,6.8,21.1,7.4z"/>
<path class="st0" d="M13.2,7c-0.2-0.6-0.3-1.2-0.3-1.8C12.9,4,13.3,3,14,2.1l0.6,0c-0.8-0.8-1.8-1.2-3-1.2c-1.2,0-2.2,0.4-3,1.2
	c0.8,0.9,1.3,2,1.3,3.3c0,1.2-0.5,2.3-1.3,3.1c0.6,0.5,1.3,0.9,2,1.1c0.1-0.1,0.1-0.2,0.2-0.3c0.2,0,0.5,0.1,0.7,0.1
	c0.8,0,1.9-0.3,2.5-0.8l0.6,0c-0.4-0.4-0.7-0.9-1-1.4C13.5,7,13.3,7,13.2,7z M11.5,9.1c-0.8,0-1.5-0.3-2.1-0.7
	c0.7-0.9,1.1-1.9,1.1-3.1c0-1.2-0.4-2.4-1.1-3.2c0.6-0.4,1.4-0.7,2.2-0.7c0.8,0,1.5,0.3,2.1,0.7c-0.7,0.9-1,1.9-1.1,3.1
	c0,1.2,0.4,2.3,1.1,3.2C13.3,8.7,12.5,9.1,11.5,9.1z"/>
</svg>
