<?xml version="1.0" encoding="utf-8"?>
<!-- Generator: Adobe Illustrator 24.0.0, SVG Export Plug-In . SVG Version: 6.00 Build 0)  -->
<svg version="1.1" id="Layer_1" xmlns="http://www.w3.org/2000/svg" xmlns:xlink="http://www.w3.org/1999/xlink" x="0px" y="0px"
	 viewBox="0 0 256 256" style="enable-background:new 0 0 256 256;" xml:space="preserve">
<style type="text/css">
	.st0{fill:#8699A3;}
</style>
<g>
	<path class="st0" d="M211.03,79c-10.38,0-20.76,3.46-28.54,9.51c-6.92-6.05-16.43-9.51-26.81-9.51c-10.38,0-20.76,3.46-28.54,9.51
		C120.22,82.46,110.7,79,100.32,79s-19.89,3.46-27.68,9.51C64.86,82.46,56.22,79,45.84,79C20.76,79,0,98.89,0,123.97
		s19.89,45.84,44.97,45.84c10.38,0,19.89-3.46,27.68-9.51c7.78,6.05,16.43,9.51,26.81,9.51s20.76-3.46,28.54-9.51
		c7.78,6.05,16.43,9.51,26.81,9.51s20.76-3.46,28.54-9.51c7.78,6.05,16.43,9.51,26.81,9.51c25.08,0,45.84-19.89,45.84-44.97
		C256,99.76,236.11,79,211.03,79z M210.16,164.62c-10.38,0-19.89-4.32-26.81-11.24c-7.78,6.92-17.3,11.24-27.68,11.24
		c-10.38,0-19.89-4.32-26.81-11.24c-7.78,6.92-18.16,11.24-28.54,11.24s-19.89-4.32-26.81-10.38c-1.73,0.86-3.46,1.73-5.19,2.59
		c-6.05,5.19-14.7,7.78-23.35,7.78c-16.43,0-30.27-10.38-36.32-24.22c-1.73-0.86-3.46-0.86-4.32-0.86
		c-1.73-5.19-2.59-10.38-2.59-15.57c0-23.35,19.03-42.38,42.38-43.24c0.86,0.86,1.73,1.73,1.73,3.46l0,0
		c10.38,0,19.89,4.32,27.68,11.24v-6.05c6.92-5.19,15.57-9.51,25.95-9.51c0,0.86,0.86,1.73,1.73,3.46
		c10.38,0,20.76,4.32,27.68,11.24v-5.19c6.92-6.05,16.43-9.51,25.95-9.51c0.86,0.86,0.86,1.73,1.73,3.46l0,0
		c10.38,0,19.89,5.19,27.68,12.11v-6.05c6.92-6.05,16.43-9.51,25.95-9.51c0,0.86,1.73,3.46,1.73,3.46
		c21.62,0.86,38.92,13.84,39.78,40.65C250.81,147.32,231.78,164.62,210.16,164.62z"/>
	<path class="st0" d="M58.81,139.54c-1.73-5.19-2.59-10.38-2.59-15.57c0-10.38,3.46-19.03,9.51-26.81c2.59,0,4.32,0,6.05,0
		c-6.92-6.92-16.43-10.38-25.95-10.38c-20.76,0-38.05,16.43-38.05,37.19c0,18.16,12.11,33.73,29.41,37.19
		c0.86-0.86,0.86-1.73,1.73-2.59c1.73,0,4.32,0.86,6.05,0.86c7.78,0,15.57-2.59,21.62-6.92h5.19c-3.46-3.46-6.05-7.78-8.65-12.97
		C61.41,139.54,60.54,139.54,58.81,139.54z M44.97,157.7c-18.16,0-32.86-15.57-32.86-33.73s15.57-32.86,33.73-32.86
		c6.92,0,12.97,2.59,18.16,6.05c-5.19,6.92-8.65,16.43-9.51,26.81c0,10.38,3.46,19.89,9.51,27.68
		C59.68,154.24,53.62,157.7,44.97,157.7z"/>
	<path class="st0" d="M78.7,113.59c0.86-1.73,1.73-2.59,1.73-2.59c-0.86-4.32-5.19-8.65-7.78-12.11
		c-6.05,6.05-10.38,15.57-10.38,25.08c0,6.92,2.59,17.3,7.78,23.35c0.86,0.86,1.73,2.59,2.59,3.46v-5.19
		c5.19-5.19,7.78-12.97,7.78-20.76C80.43,121.38,79.57,117.05,78.7,113.59z M72.65,143c-3.46-5.19-6.05-12.11-6.05-19.03
		c0-6.92,2.59-12.97,6.05-18.16c3.46,5.19,6.05,12.11,6.05,19.03C78.7,131.76,76.11,137.81,72.65,143z"/>
	<path class="st0" d="M133.19,113.59c0.86-1.73,1.73-2.59,1.73-2.59c-0.86-3.46-5.19-9.51-7.78-12.11
		c-6.05,6.05-9.51,15.57-9.51,25.08c0,10.38,4.32,19.89,10.38,26.81v-4.32c4.32-6.92,6.92-12.97,6.92-20.76
		C134.92,121.38,134.92,117.05,133.19,113.59z M128,143c-3.46-5.19-6.05-12.11-6.05-19.03c0-6.92,2.59-12.97,6.05-18.16
		c3.46,5.19,6.05,12.11,6.05,19.03C133.19,131.76,131.46,137.81,128,143z"/>
	<path class="st0" d="M169.51,138.68c-1.73-5.19-2.59-10.38-2.59-15.57c0-10.38,3.46-19.03,9.51-26.81h6.05
		c-6.92-6.92-15.57-10.38-25.95-10.38s-19.89,3.46-26.81,10.38c6.92,7.78,11.24,17.3,11.24,27.68c0,9.51-4.32,19.89-11.24,26.81
		c5.19,4.32,10.38,7.78,17.3,9.51c0.86-0.86,0.86-1.73,1.73-2.59c1.73,0,4.32,0.86,6.05,0.86c8.65,0,15.57-2.59,21.62-6.92h5.19
		c-3.46-3.46-6.05-7.78-8.65-12.11C172.11,139.54,170.38,139.54,169.51,138.68z M154.81,157.7c-6.92,0-12.97-2.59-19.03-6.05
		c6.05-7.78,8.65-16.43,9.51-26.81c0-10.38-3.46-19.89-9.51-27.68c5.19-4.32,12.11-6.05,19.89-6.05c6.92,0,12.97,2.59,18.16,6.05
		c-6.05,7.78-8.65,16.43-9.51,26.81c0,10.38,3.46,19.89,9.51,27.68C170.38,154.24,163.46,157.7,154.81,157.7z"/>
	<path class="st0" d="M245.62,111c-2.59-10.38-18.16-24.22-34.59-24.22c-10.38,0-19.89,3.46-26.81,10.38
		c6.92,7.78,11.24,18.16,11.24,28.54c0,9.51-4.32,19.89-11.24,26.81c5.19,4.32,11.24,7.78,17.3,9.51c0.86-0.86,0.86-1.73,1.73-2.59
		c1.73,0,4.32,0.86,6.05,0.86c19.03,0,35.46-15.57,35.46-34.59c0-4.32-0.86-7.78-1.73-11.24C244.76,111.86,245.62,111,245.62,111z
		 M210.16,157.7c-6.92,0-12.97-2.59-18.16-6.05c6.05-7.78,8.65-16.43,9.51-26.81c0-10.38-3.46-19.89-9.51-27.68
		c5.19-3.46,12.11-6.05,19.89-6.05c18.16,0,32.86,15.57,32.86,33.73C243.03,143,228.32,157.7,210.16,157.7z"/>
	<path class="st0" d="M188.54,113.59c0.86-1.73,1.73-2.59,1.73-2.59c-0.86-4.32-5.19-8.65-7.78-12.11
		c-6.05,6.05-9.51,14.7-10.38,25.08c0,10.38,4.32,19.89,10.38,26.81v-4.32c5.19-6.92,7.78-12.97,7.78-21.62
		C190.27,120.51,190.27,117.05,188.54,113.59z M182.49,143c-3.46-5.19-6.05-12.11-6.05-19.03c0-6.92,2.59-12.97,6.05-18.16
		c3.46,5.19,6.05,12.11,6.05,19.03C188.54,131.76,185.95,137.81,182.49,143z"/>
	<path class="st0" d="M114.16,139.54c-1.73-5.19-2.59-10.38-2.59-15.57c0-10.38,3.46-19.03,9.51-26.81h5.19
		c-6.92-6.92-15.57-10.38-25.95-10.38S81.3,90.24,74.38,97.16c6.92,7.78,11.24,17.3,11.24,28.54c0,10.38-4.32,19.89-11.24,26.81
		c5.19,4.32,11.24,7.78,17.3,9.51c0.86-0.86,0.86-1.73,1.73-2.59c1.73,0,4.32,0.86,6.05,0.86c6.92,0,16.43-2.59,21.62-6.92h5.19
		c-3.46-3.46-6.05-7.78-8.65-12.11C116.76,139.54,115.03,139.54,114.16,139.54z M99.46,157.7c-6.92,0-12.97-2.59-18.16-6.05
		c6.05-7.78,9.51-16.43,9.51-26.81s-3.46-20.76-9.51-27.68c5.19-3.46,12.11-6.05,19.03-6.05s12.97,2.59,18.16,6.05
		c-6.05,7.78-8.65,16.43-9.51,26.81c0,10.38,3.46,19.89,9.51,27.68C115.03,154.24,108.11,157.7,99.46,157.7z"/>
</g>
</svg>
