<?xml version="1.0" encoding="utf-8"?>
<!-- Generator: Adobe Illustrator 24.0.0, SVG Export Plug-In . SVG Version: 6.00 Build 0)  -->
<svg version="1.1" id="Layer_1" xmlns="http://www.w3.org/2000/svg" xmlns:xlink="http://www.w3.org/1999/xlink" x="0px" y="0px"
	 viewBox="0 0 256 256" style="enable-background:new 0 0 256 256;" xml:space="preserve">
<g>
	<path d="M211,79c-10.4,0-20.8,3.5-28.5,9.5c-6.9-6.1-16.4-9.5-26.8-9.5s-20.8,3.5-28.5,9.5c-6.9-6.1-16.4-9.5-26.8-9.5
		s-19.9,3.5-27.7,9.5C64.9,82.5,56.2,79,45.8,79C20.8,79,0,98.9,0,124s19.9,45.8,45,45.8c10.4,0,19.9-3.5,27.7-9.5
		c7.8,6.1,16.4,9.5,26.8,9.5s20.8-3.5,28.5-9.5c7.8,6.1,16.4,9.5,26.8,9.5s20.8-3.5,28.5-9.5c7.8,6.1,16.4,9.5,26.8,9.5
		c25.1,0,45.8-19.9,45.8-45S236.1,79,211,79z M210.2,164.6c-10.4,0-19.9-4.3-26.8-11.2c-7.8,6.9-17.3,11.2-27.7,11.2
		c-10.4,0-19.9-4.3-26.8-11.2c-7.8,6.9-18.2,11.2-28.5,11.2s-19.9-4.3-26.8-10.4c-1.7,0.9-3.5,1.7-5.2,2.6c-6,5.2-14.7,7.8-23.3,7.8
		c-16.4,0-30.3-10.4-36.3-24.2c-1.7-0.9-3.5-0.9-4.3-0.9c-1.7-5.2-2.6-10.4-2.6-15.6c0-23.3,19-42.4,42.4-43.2
		c0.9,0.9,1.7,1.7,1.7,3.5l0,0c10.4,0,19.9,4.3,27.7,11.2v-6.1c6.9-5.2,15.6-9.5,25.9-9.5c0,0.9,0.9,1.7,1.7,3.5
		c10.4,0,20.8,4.3,27.7,11.2v-5.2c6.9-6.1,16.4-9.5,25.9-9.5c0.9,0.9,0.9,1.7,1.7,3.5l0,0c10.4,0,19.9,5.2,27.7,12.1v-6.1
		c6.9-6.1,16.4-9.5,25.9-9.5c0,0.9,1.7,3.5,1.7,3.5c21.6,0.9,38.9,13.8,39.8,40.7C250.8,147.3,231.8,164.6,210.2,164.6z"/>
	<path d="M58.8,139.5c-1.7-5.2-2.6-10.4-2.6-15.6c0-10.4,3.5-19,9.5-26.8c2.6,0,4.3,0,6.1,0c-6.9-6.9-16.4-10.4-26-10.4
		c-20.8,0-38,16.4-38,37.2c0,18.2,12.1,33.7,29.4,37.2c0.9-0.9,0.9-1.7,1.7-2.6c1.7,0,4.3,0.9,6,0.9c7.8,0,15.6-2.6,21.6-6.9h5.2
		c-3.5-3.5-6.1-7.8-8.7-13C61.4,139.5,60.5,139.5,58.8,139.5z M45,157.7c-18.2,0-32.9-15.6-32.9-33.7s15.6-32.9,33.7-32.9
		c6.9,0,13,2.6,18.2,6.1c-5.2,6.9-8.7,16.4-9.5,26.8c0,10.4,3.5,19.9,9.5,27.7C59.7,154.2,53.6,157.7,45,157.7z"/>
	<path d="M78.7,113.6c0.9-1.7,1.7-2.6,1.7-2.6c-0.9-4.3-5.2-8.7-7.8-12.1c-6.1,6.1-10.4,15.6-10.4,25.1c0,6.9,2.6,17.3,7.8,23.4
		c0.9,0.9,1.7,2.6,2.6,3.5v-5.2c5.2-5.2,7.8-13,7.8-20.8C80.4,121.4,79.6,117.1,78.7,113.6z M72.7,143c-3.5-5.2-6.1-12.1-6.1-19
		s2.6-13,6.1-18.2c3.5,5.2,6.1,12.1,6.1,19C78.7,131.8,76.1,137.8,72.7,143z"/>
	<path d="M133.2,113.6c0.9-1.7,1.7-2.6,1.7-2.6c-0.9-3.5-5.2-9.5-7.8-12.1c-6.1,6.1-9.5,15.6-9.5,25.1c0,10.4,4.3,19.9,10.4,26.8
		v-4.3c4.3-6.9,6.9-13,6.9-20.8C134.9,121.4,134.9,117.1,133.2,113.6z M128,143c-3.5-5.2-6.1-12.1-6.1-19s2.6-13,6.1-18.2
		c3.5,5.2,6.1,12.1,6.1,19C133.2,131.8,131.5,137.8,128,143z"/>
	<path d="M169.5,138.7c-1.7-5.2-2.6-10.4-2.6-15.6c0-10.4,3.5-19,9.5-26.8h6.1c-6.9-6.9-15.6-10.4-25.9-10.4s-19.9,3.5-26.8,10.4
		c6.9,7.8,11.2,17.3,11.2,27.7c0,9.5-4.3,19.9-11.2,26.8c5.2,4.3,10.4,7.8,17.3,9.5c0.9-0.9,0.9-1.7,1.7-2.6c1.7,0,4.3,0.9,6.1,0.9
		c8.6,0,15.6-2.6,21.6-6.9h5.2c-3.5-3.5-6.1-7.8-8.6-12.1C172.1,139.5,170.4,139.5,169.5,138.7z M154.8,157.7c-6.9,0-13-2.6-19-6.1
		c6.1-7.8,8.6-16.4,9.5-26.8c0-10.4-3.5-19.9-9.5-27.7c5.2-4.3,12.1-6.1,19.9-6.1c6.9,0,13,2.6,18.2,6.1c-6.1,7.8-8.6,16.4-9.5,26.8
		c0,10.4,3.5,19.9,9.5,27.7C170.4,154.2,163.5,157.7,154.8,157.7z"/>
	<path d="M245.6,111c-2.6-10.4-18.2-24.2-34.6-24.2c-10.4,0-19.9,3.5-26.8,10.4c6.9,7.8,11.2,18.2,11.2,28.5
		c0,9.5-4.3,19.9-11.2,26.8c5.2,4.3,11.2,7.8,17.3,9.5c0.9-0.9,0.9-1.7,1.7-2.6c1.7,0,4.3,0.9,6.1,0.9c19,0,35.5-15.6,35.5-34.6
		c0-4.3-0.9-7.8-1.7-11.2C244.8,111.9,245.6,111,245.6,111z M210.2,157.7c-6.9,0-13-2.6-18.2-6.1c6.1-7.8,8.6-16.4,9.5-26.8
		c0-10.4-3.5-19.9-9.5-27.7c5.2-3.5,12.1-6.1,19.9-6.1c18.2,0,32.9,15.6,32.9,33.7C243,143,228.3,157.7,210.2,157.7z"/>
	<path d="M188.5,113.6c0.9-1.7,1.7-2.6,1.7-2.6c-0.9-4.3-5.2-8.7-7.8-12.1c-6.1,6.1-9.5,14.7-10.4,25.1c0,10.4,4.3,19.9,10.4,26.8
		v-4.3c5.2-6.9,7.8-13,7.8-21.6C190.3,120.5,190.3,117.1,188.5,113.6z M182.5,143c-3.5-5.2-6.1-12.1-6.1-19s2.6-13,6.1-18.2
		c3.5,5.2,6.1,12.1,6.1,19C188.5,131.8,185.9,137.8,182.5,143z"/>
	<path d="M114.2,139.5c-1.7-5.2-2.6-10.4-2.6-15.6c0-10.4,3.5-19,9.5-26.8h5.2c-6.9-6.9-15.6-10.4-26-10.4s-19,3.5-25.9,10.4
		c6.9,7.8,11.2,17.3,11.2,28.5c0,10.4-4.3,19.9-11.2,26.8c5.2,4.3,11.2,7.8,17.3,9.5c0.9-0.9,0.9-1.7,1.7-2.6c1.7,0,4.3,0.9,6.1,0.9
		c6.9,0,16.4-2.6,21.6-6.9h5.2c-3.5-3.5-6.1-7.8-8.7-12.1C116.8,139.5,115,139.5,114.2,139.5z M99.5,157.7c-6.9,0-13-2.6-18.2-6.1
		c6.1-7.8,9.5-16.4,9.5-26.8s-3.5-20.8-9.5-27.7c5.2-3.5,12.1-6.1,19-6.1s13,2.6,18.2,6.1c-6.1,7.8-8.7,16.4-9.5,26.8
		c0,10.4,3.5,19.9,9.5,27.7C115,154.2,108.1,157.7,99.5,157.7z"/>
</g>
</svg>
