<?xml version="1.0" encoding="utf-8"?>
<!-- Generator: Adobe Illustrator 24.0.0, SVG Export Plug-In . SVG Version: 6.00 Build 0)  -->
<svg version="1.1" id="Layer_1" xmlns="http://www.w3.org/2000/svg" xmlns:xlink="http://www.w3.org/1999/xlink" x="0px" y="0px"
	 viewBox="0 0 250 250" style="enable-background:new 0 0 250 250;" xml:space="preserve">
<g>
	<g>
		<path d="M246.4,193.3l-60.6-85.1c-0.8-1.1-0.5-2.8,0.8-3.6l23.6-16.9l0.3,0.4l2.9,4.1c2.9,4,7.6,6.4,12.5,6.4c3.2,0,6.2-1,8.8-2.8
			l3.2-2.3c6.9-5,8.5-14.6,3.6-21.4L194.5,6.4c-5-6.9-14.6-8.4-21.4-3.5L170,5.1c-6.9,4.9-8.4,14.5-3.6,21.4l2.9,4l-0.4,0.3L89,87.6
			l-3-4c-4.9-6.9-14.5-8.4-21.4-3.6l-3.1,2.3c-6.8,5-8.4,14.6-3.5,21.4l46.9,65.8c2.9,4.1,7.5,6.5,12.5,6.5c3.3-0.1,6.3-1.1,8.9-3
			l3.2-2.2c6.8-4.9,8.4-14.5,3.5-21.4l-3.3-4.5l0.5-0.3l23.4-16.5c0.5-0.3,1-0.4,1.4-0.4c0.9,0,1.7,0.4,2.3,1.1l60.5,84.9
			c2.7,3.7,6.8,6.3,11.4,7.1c0.9,0.2,1.9,0.3,2.9,0.3c3.6,0,7.4-1.2,10.3-3.4c3.7-2.8,6.2-6.8,7-11.4
			C250.3,201.7,249.1,197.1,246.4,193.3z M174.1,10.9l3.3-2.2c1.3-1,3-1.5,4.6-1.5c0.5,0,0.9,0.1,1.4,0.1c2.1,0.4,3.9,1.5,5.2,3.4
			l46.9,65.8c2.5,3.6,1.7,8.6-1.9,11.2l-3.2,2.2c-1.4,1.1-3.1,1.5-4.7,1.5c-2.5,0-5-1.1-6.5-3.4l-46.9-65.9
			C169.7,18.6,170.6,13.5,174.1,10.9z M125.2,164.8l-3,2.1v0.3h-0.3c-1.4,0.9-3,1.4-4.6,1.4c-0.4,0-0.9-0.1-1.3-0.2
			c-2.1-0.3-3.9-1.4-5.2-3.3L64,99.4c-2.6-3.5-1.7-8.6,1.8-11.2l3.2-2.3c1.4-1,3.1-1.4,4.7-1.4c2.6,0,5.1,1.2,6.5,3.4l46.9,65.8
			C129.7,157.3,128.8,162.3,125.2,164.8z M238.1,212.2c-1.7,1.1-3.6,1.7-5.7,1.7c-0.7,0-1.3-0.1-2-0.2c-2.7-0.5-5-2-6.5-4.3
			l-60.5-84.9c-1.5-2.1-3.9-3.6-6.5-4c-0.6-0.1-1.1-0.2-1.7-0.2h-0.1c-2.1,0-4.1,0.7-5.8,1.9L125.6,139l-0.3-0.4l-32.1-45l0.4-0.3
			l79.8-56.9l0.3,0.4l32.2,45.1l-0.4,0.3l-23.1,16.5c-2.2,1.5-3.6,3.8-4.1,6.5c-0.4,2.7,0.2,5.3,1.7,7.5l60.5,84.9
			c0.1,0.1,0.2,0.3,0.3,0.4C244.1,202.6,242.8,208.9,238.1,212.2z"/>
	</g>
	<g>
		<path d="M115.3,220.2H106v-14c0-8.1-6.6-14.7-14.8-14.8H28c-8.1,0.1-14.8,6.6-14.8,14.8v14H3.9c-2,0-3.6,1.6-3.6,3.6v22.5
			c0,2,1.6,3.6,3.6,3.6h111.3c2.1,0,3.7-1.6,3.7-3.6v-22.5C118.9,221.7,117.2,220.2,115.3,220.2z M27.8,198.8h63.2
			c4.1,0,7.4,3.3,7.4,7.4v14h-78v-0.5l-0.1-13.5C20.4,202.1,23.7,198.8,27.8,198.8z M111.7,242.7H7.4l0.1-15.2h104.1V242.7z"/>
	</g>
</g>
</svg>
