<svg xmlns="http://www.w3.org/2000/svg" viewBox="0 0 32.68 32.75"><defs><style>.a{fill:none;stroke:#000;stroke-linecap:round;stroke-linejoin:round;stroke-width:0.75px;}</style></defs><title>110</title><path class="a" d="M31.55,24.74,23.78,13.85a.34.34,0,0,1,.1-.46l3-2.16,0,0,.37.53a2,2,0,0,0,2.74.46l.4-.29a2,2,0,0,0,.47-2.74L24.9.82A2,2,0,0,0,22.16.36l-.4.29a2,2,0,0,0-.47,2.73l.37.52-.05,0L11.39,11.22,11,10.7a2,2,0,0,0-2.74-.46l-.39.29a2,2,0,0,0-.45,2.73l6,8.43a1.93,1.93,0,0,0,2.74.45l.4-.28A2,2,0,0,0,17,19.13l-.42-.58.06,0,3-2.11a.45.45,0,0,1,.19,0,.35.35,0,0,1,.29.15l7.75,10.87a2.28,2.28,0,0,0,1.46.9,1.5,1.5,0,0,0,.37,0A2.33,2.33,0,0,0,31,27.88a2.26,2.26,0,0,0,.51-3.14Z" transform="translate(0.34 0.38)"/><path class="a" d="M14.76,28.19H13.57V26.4a1.89,1.89,0,0,0-1.89-1.89H3.59A1.89,1.89,0,0,0,1.7,26.4v1.79H.5a.47.47,0,0,0-.47.46v2.88A.47.47,0,0,0,.5,32H14.75a.46.46,0,0,0,.47-.47V28.65A.46.46,0,0,0,14.76,28.19Z" transform="translate(0.34 0.38)"/><line class="a" x1="1.11" y1="28.52" x2="14.51" y2="28.52"/><line class="a" x1="11.73" y1="11.59" x2="16.95" y2="18.92"/><line class="a" x1="22.01" y1="4.27" x2="27.23" y2="11.6"/></svg>