<svg xmlns="http://www.w3.org/2000/svg" viewBox="0 0 32.75 23.44"><defs><style>.a{fill:none;stroke:#000;stroke-linecap:round;stroke-linejoin:round;stroke-width:0.75px;}</style></defs><title>111</title><path class="a" d="M19.65,5.07,32,12.76V27.34H27V17.83a.27.27,0,0,0-.27-.27H12.58a.27.27,0,0,0-.26.27v9.51h-5V12.77L17.16,6.5a.16.16,0,0,0,.08-.06l2.41-1.37Z" transform="translate(0.38 -4.28)"/><path class="a" d="M8.85,27.34H3.48V12.77L13.35,6.5a.15.15,0,0,0,.09-.06l2.41-1.37h0l1.81,1" transform="translate(0.38 -4.28)"/><path class="a" d="M7.2,27.34H0V12.68L9.76,6.09,9.84,6l2.41-1.37L14.42,5.9" transform="translate(0.38 -4.28)"/><line class="a" x1="12.82" y1="16.82" x2="27.24" y2="16.82"/><line class="a" x1="12.82" y1="20.17" x2="27.24" y2="20.17"/></svg>