<?xml version="1.0" encoding="utf-8"?>
<!-- Generator: Adobe Illustrator 24.0.0, SVG Export Plug-In . SVG Version: 6.00 Build 0)  -->
<svg version="1.1" id="Layer_1" xmlns="http://www.w3.org/2000/svg" xmlns:xlink="http://www.w3.org/1999/xlink" x="0px" y="0px"
	 viewBox="0 0 256 256" style="enable-background:new 0 0 256 256;" xml:space="preserve">
<g>
	<g>
		<g>
			<path d="M247.9,256h-24.4c-2.7,0-4.9-2.2-4.9-4.9V75.3H38.2v175.8c0,2.7-2.2,4.9-4.9,4.9H8.9c-2.7,0-4.9-2.2-4.9-4.9V70.5
				l0.5-19.6c0.1-2,1.3-3.7,3.1-4.4L125.7,0.3c1.1-0.4,2.4-0.4,3.5,0l120.2,46.1c1.9,0.7,3.1,2.5,3.1,4.5l0.2,19.5c0,0,0,0,0,0.1
				v180.7C252.8,253.8,250.6,256,247.9,256z M228.4,246.2H243l-0.2-191.9L127.5,10.1L14.2,54.3l-0.4,16.3v175.6h14.6V70.5
				c0-2.7,2.2-4.9,4.9-4.9h190.2c2.7,0,4.9,2.2,4.9,4.9V246.2z"/>
		</g>
		<g>
			<path d="M221.6,125.4H33.3c-2.7,0-4.9-2.2-4.9-4.9V96.1c0-2.7,2.2-4.9,4.9-4.9h188.2c2.7,0,4.9,2.2,4.9,4.9v24.4
				C226.5,123.2,224.3,125.4,221.6,125.4z M38.2,115.7h178.5V101H38.2V115.7z"/>
		</g>
		<g>
			<path d="M150.8,252.6h-50.1c-2.7,0-4.9-2.2-4.9-4.9v-50.1c0-2.7,2.2-4.9,4.9-4.9h50.1c2.7,0,4.9,2.2,4.9,4.9v50.1
				C155.7,250.4,153.5,252.6,150.8,252.6z M105.6,242.9H146v-40.3h-40.3C105.6,202.5,105.6,242.9,105.6,242.9z"/>
		</g>
		<g>
			<path d="M201,252.6h-50.1c-2.7,0-4.9-2.2-4.9-4.9v-50.1c0-2.7,2.2-4.9,4.9-4.9H201c2.7,0,4.9,2.2,4.9,4.9v50.1
				C205.9,250.4,203.7,252.6,201,252.6z M155.8,242.9h40.3v-40.3h-40.3L155.8,242.9L155.8,242.9z"/>
		</g>
		<g>
			<path d="M201,202.5h-50.1c-2.7,0-4.9-2.2-4.9-4.9v-50.1c0-2.7,2.2-4.9,4.9-4.9H201c2.7,0,4.9,2.2,4.9,4.9v50.1
				C205.9,200.3,203.7,202.5,201,202.5z M155.8,192.7h40.3v-40.3h-40.3L155.8,192.7L155.8,192.7z"/>
		</g>
	</g>
</g>
</svg>
