<?xml version="1.0" encoding="utf-8"?>
<!-- Generator: Adobe Illustrator 24.0.0, SVG Export Plug-In . SVG Version: 6.00 Build 0)  -->
<svg version="1.1" id="Layer_1" xmlns="http://www.w3.org/2000/svg" xmlns:xlink="http://www.w3.org/1999/xlink" x="0px" y="0px"
	 viewBox="0 0 256 256" style="enable-background:new 0 0 256 256;" xml:space="preserve">
<style type="text/css">
	.st0{fill:#8699A3;}
</style>
<g>
	<g>
		<g>
			<path class="st0" d="M247.9,256h-24.4c-2.7,0-4.88-2.18-4.88-4.88V75.34H38.16v175.78c0,2.7-2.18,4.88-4.88,4.88H8.88
				c-2.7,0-4.88-2.18-4.88-4.88V70.46l0.5-19.64c0.05-1.96,1.28-3.71,3.11-4.42L125.69,0.33c1.14-0.44,2.38-0.44,3.52-0.01
				l120.24,46.06c1.88,0.71,3.12,2.5,3.14,4.51l0.19,19.52c0,0.01,0,0.03,0,0.05v180.66C252.78,253.82,250.6,256,247.9,256z
				 M228.38,246.24h14.64l-0.16-191.93l-115.37-44.2L14.17,54.31l-0.41,16.27v175.65H28.4V70.46c0-2.7,2.18-4.88,4.88-4.88H223.5
				c2.7,0,4.88,2.18,4.88,4.88V246.24z"/>
		</g>
		<g>
			<path class="st0" d="M221.58,125.41H33.35c-2.7,0-4.88-2.18-4.88-4.88V96.14c0-2.7,2.18-4.88,4.88-4.88h188.23
				c2.7,0,4.88,2.18,4.88,4.88v24.39C226.46,123.23,224.27,125.41,221.58,125.41z M38.23,115.65H216.7v-14.63H38.23V115.65z"/>
		</g>
		<g>
			<path class="st0" d="M150.83,252.63h-50.09c-2.7,0-4.88-2.18-4.88-4.88v-50.08c0-2.7,2.18-4.88,4.88-4.88h50.09
				c2.7,0,4.88,2.18,4.88,4.88v50.08C155.71,250.45,153.52,252.63,150.83,252.63z M105.62,242.87h40.33v-40.32h-40.33V242.87z"/>
		</g>
		<g>
			<path class="st0" d="M200.97,252.63h-50.08c-2.7,0-4.88-2.18-4.88-4.88v-50.08c0-2.7,2.18-4.88,4.88-4.88h50.08
				c2.7,0,4.88,2.18,4.88,4.88v50.08C205.85,250.45,203.67,252.63,200.97,252.63z M155.77,242.87h40.32v-40.32h-40.32V242.87z"/>
		</g>
		<g>
			<path class="st0" d="M200.97,202.48h-50.08c-2.7,0-4.88-2.18-4.88-4.88v-50.08c0-2.7,2.18-4.88,4.88-4.88h50.08
				c2.7,0,4.88,2.18,4.88,4.88v50.08C205.85,200.3,203.67,202.48,200.97,202.48z M155.77,192.72h40.32V152.4h-40.32V192.72z"/>
		</g>
	</g>
</g>
</svg>
