<svg xmlns="http://www.w3.org/2000/svg" viewBox="0 0 256 256"><path d="M247.9 256h-24.4a4.9 4.9 0 01-4.9-4.9V75.3H38.2v175.8c0 2.7-2.2 4.9-4.9 4.9H8.9a4.9 4.9 0 01-4.9-4.9V70.5l.5-19.6c.1-2 1.3-3.7 3.1-4.4L125.7.3c1.1-.4 2.4-.4 3.5 0l120.2 46.1c1.9.7 3.1 2.5 3.1 4.5l.2 19.5s0 0 0 .1v180.7c.1 2.6-2.1 4.8-4.8 4.8zm-19.5-9.8H243l-.2-191.9-115.3-44.2L14.2 54.3l-.4 16.3v175.6h14.6V70.5c0-2.7 2.2-4.9 4.9-4.9h190.2c2.7 0 4.9 2.2 4.9 4.9v175.7z"/><path d="M221.6 125.4H33.3a4.9 4.9 0 01-4.9-4.9V96.1c0-2.7 2.2-4.9 4.9-4.9h188.2c2.7 0 4.9 2.2 4.9 4.9v24.4c.1 2.7-2.1 4.9-4.8 4.9zm-183.4-9.7h178.5V101H38.2v14.7zM150.8 252.6h-50.1a4.9 4.9 0 01-4.9-4.9v-50.1c0-2.7 2.2-4.9 4.9-4.9h50.1c2.7 0 4.9 2.2 4.9 4.9v50.1c0 2.7-2.2 4.9-4.9 4.9zm-45.2-9.7H146v-40.3h-40.3c-.1-.1-.1 40.3-.1 40.3z"/><path d="M201 252.6h-50.1a4.9 4.9 0 01-4.9-4.9v-50.1c0-2.7 2.2-4.9 4.9-4.9H201c2.7 0 4.9 2.2 4.9 4.9v50.1c0 2.7-2.2 4.9-4.9 4.9zm-45.2-9.7h40.3v-40.3h-40.3v40.3z"/><path d="M201 202.5h-50.1a4.9 4.9 0 01-4.9-4.9v-50.1c0-2.7 2.2-4.9 4.9-4.9H201c2.7 0 4.9 2.2 4.9 4.9v50.1c0 2.7-2.2 4.9-4.9 4.9zm-45.2-9.8h40.3v-40.3h-40.3v40.3z"/></svg>