<svg xmlns="http://www.w3.org/2000/svg" viewBox="0 0 32.75 22.74"><defs><style>.a{fill:none;stroke:#000;stroke-linecap:round;stroke-linejoin:round;stroke-width:0.75px;}</style></defs><title>1112</title><path class="a" d="M1,22.42a2,2,0,0,0,.53.24l14,4.2.44.14.23-.25L19.78,23l1.53.46.44.13.23-.24L32,12.92V8.87l-.44-.12L18.79,5.11a2.7,2.7,0,0,0-2.69.72L13.37,8.66l-.43-.12a2.69,2.69,0,0,0-2.69.72L1,18.89a2.47,2.47,0,0,0-.93,1.32,2.12,2.12,0,0,0,0,.44A2.08,2.08,0,0,0,1,22.42ZM13.37,8.66,6.84,15.45a2.39,2.39,0,0,0-.92,1.32A2.06,2.06,0,0,0,6.84,19a2.45,2.45,0,0,0,.52.24L19.78,23M6.84,15.45s.44-.48,2.43.19,12.37,3.81,12.37,3.81v4.1m0-4.1L32,8.87M15.89,27V23.51l-13-3.84s-2.4-.76-2.88.54m15.84,3.3,1.27-1.34" transform="translate(0.38 -4.63)"/></svg>