<svg xmlns="http://www.w3.org/2000/svg" viewBox="0 0 28.11 32.75"><defs><style>.a{fill:none;stroke:#000;stroke-linecap:round;stroke-linejoin:round;stroke-width:0.75px;}</style></defs><title>1114</title><path class="a" d="M29.45,11.27,16.29.11A.44.44,0,0,0,16,0a.3.3,0,0,0-.26.11L2.53,11.32a.45.45,0,0,0-.19.52.4.4,0,0,0,.41.32h.81V31.53A.44.44,0,0,0,4,32H28a.44.44,0,0,0,.46-.47V12.16h.81a.44.44,0,0,0,.46-.47A.49.49,0,0,0,29.45,11.27Z" transform="translate(-1.95 0.38)"/><path class="a" d="M13.88,20.79A2.36,2.36,0,0,0,11,21.4L8.63,24.27h0l-.45.55a2.37,2.37,0,0,0,3.67,3l2.79-3.42a2.37,2.37,0,0,0,.06-2.9Zm-5.06-9.9,2.63,2.47L9.76,14.81,7.58,12.13a.52.52,0,0,0-.4.32A3.61,3.61,0,0,0,8,16.39a3.61,3.61,0,0,0,4.47.51l.82-.7a3.6,3.6,0,0,0,.88-2.37,3.62,3.62,0,0,0-3.61-3.61,3.66,3.66,0,0,0-1.39.27.52.52,0,0,0-.32.4ZM20.4,15.41l2.24-2.92a1.21,1.21,0,0,0-.22-1.7l-.15-.11a1.21,1.21,0,0,0-1.7.22l-2.24,2.91Zm-7.3,1.11,5.33,4.77M23,26.87l-2.77-2.3L21.87,23l2.34,2.55a.56.56,0,0,0,.37-.35,3.61,3.61,0,0,0-3.64-4.79,3.55,3.55,0,0,0-1.87.66l-.78.75a3.62,3.62,0,0,0,4.46,5.45.52.52,0,0,0,.29-.41Z" transform="translate(-1.95 0.38)"/><line class="a" x1="12.67" y1="21.14" x2="17.5" y2="15.06"/></svg>