<svg xmlns="http://www.w3.org/2000/svg" viewBox="0 0 24.79 32.75"><defs><style>.a{fill:none;stroke:#000;stroke-linecap:round;stroke-linejoin:round;stroke-width:0.75px;}</style></defs><title>112</title><path class="a" d="M4,32V0H22.36V5.58H28V32Z" transform="translate(-3.6 0.38)"/><path d="M16,7.26a7.11,7.11,0,1,1-7.11,7.11A7.12,7.12,0,0,1,16,7.26m0-.75a7.86,7.86,0,1,0,7.86,7.86A7.87,7.87,0,0,0,16,6.51Z" transform="translate(-3.6 0.38)"/><path d="M16.08,11.64A2.35,2.35,0,0,1,18.43,14a2.32,2.32,0,0,1-1.29,2.09.42.42,0,0,0,.06.78,3.83,3.83,0,0,1,2.63,3.53,6.24,6.24,0,0,1-7.65,0,3.81,3.81,0,0,1,2.71-3.56.43.43,0,0,0,.3-.36A.44.44,0,0,0,15,16a2.34,2.34,0,0,1,1.11-4.4m0-.75a3.09,3.09,0,0,0-2,5.44,4.55,4.55,0,0,0-2.64,4,.75.75,0,0,0,.29.62,7,7,0,0,0,8.56,0,.75.75,0,0,0,.29-.62,4.59,4.59,0,0,0-2.54-4A3.05,3.05,0,0,0,19.18,14a3.1,3.1,0,0,0-3.1-3.09Z" transform="translate(-3.6 0.38)"/><line class="a" x1="18.76" y1="0.38" x2="24.42" y2="5.95"/><line class="a" x1="4.63" y1="27.39" x2="20.1" y2="27.39"/></svg>