<svg xmlns="http://www.w3.org/2000/svg" viewBox="0 0 250 250"><path d="M181.6 121.6H68.4c-1.9 0-3.4 1.5-3.4 3.4s1.5 3.4 3.4 3.4h113.3c1.9 0 3.4-1.5 3.4-3.4s-1.6-3.4-3.5-3.4z"/><path d="M181.6 121.6H68.4c-1.9 0-3.4 1.5-3.4 3.4s1.5 3.4 3.4 3.4h113.3c1.9 0 3.4-1.5 3.4-3.4s-1.6-3.4-3.5-3.4z"/><path d="M172.1 0H32.8c-1.9 0-3.4 1.5-3.4 3.4v243.3c0 1.9 1.5 3.4 3.4 3.4h184.4c1.9 0 3.4-1.5 3.4-3.4V48L172.1 0zM36.2 243.2V6.7H172V48h41.9v195.3H36.2z"/><path d="M125 50.4c-31.3 0-56.7 25.4-56.7 56.7 0 31.3 25.4 56.7 56.7 56.7s56.7-25.4 56.7-56.7c0-31.3-25.4-56.7-56.7-56.7zm0 106.7a49.9 49.9 0 01-30.3-10.3c.3-13.1 8.9-24.4 21.5-28.2 1.3-.4 2.2-1.5 2.4-2.9.1-1.4-.6-2.7-1.7-3.3a18.57 18.57 0 018.9-34.9c10.3 0 18.6 8.3 18.6 18.6 0 7-3.9 13.3-10.2 16.5-1.2.6-1.9 1.9-1.8 3.3.1 1.4 1 2.5 2.3 2.9 12.2 4 20.4 15.2 20.8 28a50.93 50.93 0 01-30.5 10.3zm36.5-16c-2-11.2-8.9-20.9-18.9-26.3 5.3-4.7 8.4-11.5 8.4-18.9 0-14-11.4-25.3-25.3-25.3a25.41 25.41 0 00-17.4 43.8 36.8 36.8 0 00-19.8 26.7 49.88 49.88 0 01-13.5-34c0-27.6 22.4-50 50-50s50 22.4 50 50c0 13.2-5.2 25.1-13.5 34z"/></svg>