<?xml version="1.0" encoding="utf-8"?>
<!-- Generator: Adobe Illustrator 24.0.0, SVG Export Plug-In . SVG Version: 6.00 Build 0)  -->
<svg version="1.1" id="Layer_1" xmlns="http://www.w3.org/2000/svg" xmlns:xlink="http://www.w3.org/1999/xlink" x="0px" y="0px"
	 viewBox="0 0 250 250" style="enable-background:new 0 0 250 250;" xml:space="preserve">
<path d="M181.6,121.6H68.4c-1.9,0-3.4,1.5-3.4,3.4s1.5,3.4,3.4,3.4h113.3c1.9,0,3.4-1.5,3.4-3.4S183.5,121.6,181.6,121.6z"/>
<path d="M181.6,121.6H68.4c-1.9,0-3.4,1.5-3.4,3.4s1.5,3.4,3.4,3.4h113.3c1.9,0,3.4-1.5,3.4-3.4S183.5,121.6,181.6,121.6z"/>
<g>
	<path d="M172.1,0H32.8c-1.9,0-3.4,1.5-3.4,3.4v243.3c0,1.9,1.5,3.4,3.4,3.4h184.4c1.9,0,3.4-1.5,3.4-3.4V48L172.1,0z M36.2,243.2
		V6.7H172V48h41.9v195.3H36.2z"/>
	<path d="M125,50.4c-31.3,0-56.7,25.4-56.7,56.7c0,31.3,25.4,56.7,56.7,56.7s56.7-25.4,56.7-56.7C181.7,75.8,156.3,50.4,125,50.4z
		 M125,157.1c-11.4,0-21.9-3.9-30.3-10.3c0.3-13.1,8.9-24.4,21.5-28.2c1.3-0.4,2.2-1.5,2.4-2.9c0.1-1.4-0.6-2.7-1.7-3.3
		c-6-3.3-9.7-9.5-9.7-16.3c0-10.2,8.3-18.6,18.6-18.6s18.6,8.3,18.6,18.6c0,7-3.9,13.3-10.2,16.5c-1.2,0.6-1.9,1.9-1.8,3.3
		c0.1,1.4,1,2.5,2.3,2.9c12.2,4,20.4,15.2,20.8,28C146.9,153.2,136.4,157.1,125,157.1z M161.5,141.1c-2-11.2-8.9-20.9-18.9-26.3
		c5.3-4.7,8.4-11.5,8.4-18.9c0-14-11.4-25.3-25.3-25.3S100.4,82,100.4,96c0,7.1,2.9,13.7,7.9,18.4c-10.5,5.3-17.8,15.1-19.8,26.7
		c-8.3-8.9-13.5-20.9-13.5-34c0-27.6,22.4-50,50-50s50,22.4,50,50C175,120.3,169.8,132.2,161.5,141.1z"/>
</g>
</svg>
