<svg xmlns="http://www.w3.org/2000/svg" viewBox="0 0 26.9 32.75"><defs><style>.a{fill:none;stroke:#000;stroke-linecap:round;stroke-linejoin:round;stroke-width:0.75px;}</style></defs><title>113</title><path class="a" d="M11.55,0A1.6,1.6,0,0,0,9.93,1.62a1.63,1.63,0,1,0,3.25,0A1.61,1.61,0,0,0,11.55,0Z" transform="translate(-2.55 0.38)"/><path class="a" d="M19.39,0a1.6,1.6,0,0,0-1.62,1.62,1.63,1.63,0,1,0,3.25,0A1.6,1.6,0,0,0,19.39,0Z" transform="translate(-2.55 0.38)"/><path class="a" d="M27.45,0a1.6,1.6,0,0,0-1.62,1.62,1.63,1.63,0,1,0,3.25,0A1.6,1.6,0,0,0,27.45,0Z" transform="translate(-2.55 0.38)"/><path class="a" d="M13.18,8.8a1.63,1.63,0,1,0-3.25,0" transform="translate(-2.55 0.38)"/><path class="a" d="M19.39,7.07A1.63,1.63,0,1,0,21,8.7,1.6,1.6,0,0,0,19.39,7.07Z" transform="translate(-2.55 0.38)"/><path class="a" d="M27.45,7.07A1.63,1.63,0,1,0,29.08,8.7,1.6,1.6,0,0,0,27.45,7.07Z" transform="translate(-2.55 0.38)"/><path class="a" d="M19.39,14.41A1.63,1.63,0,1,0,21,16,1.6,1.6,0,0,0,19.39,14.41Z" transform="translate(-2.55 0.38)"/><path class="a" d="M27.45,14.41A1.63,1.63,0,1,0,29.08,16,1.6,1.6,0,0,0,27.45,14.41Z" transform="translate(-2.55 0.38)"/><path class="a" d="M12.46,32h-6a.93.93,0,0,1-.82-.41A21.8,21.8,0,0,1,3.43,27a8.89,8.89,0,0,1-.51-2.74V20.78a2.26,2.26,0,0,1,2.24-2.24H9.44a.22.22,0,0,0,.2-.2l.1-3.45c0-1.52.29-2.74,1.81-2.74s2,1.22,2,2.74h0l-.1,8c1.12-1,3-1.59,4.15-.78a1.72,1.72,0,0,1,.47,1.22c0,1.12-2.38,2.24-3.29,3.15L13.18,31.7A1,1,0,0,1,12.46,32Z" transform="translate(-2.55 0.38)"/></svg>