<?xml version="1.0" encoding="utf-8"?>
<!-- Generator: Adobe Illustrator 24.0.0, SVG Export Plug-In . SVG Version: 6.00 Build 0)  -->
<svg version="1.1" id="Layer_1" xmlns="http://www.w3.org/2000/svg" xmlns:xlink="http://www.w3.org/1999/xlink" x="0px" y="0px"
	 viewBox="0 0 250 250" style="enable-background:new 0 0 250 250;" xml:space="preserve">
<g>
	<path d="M249.7,155.9l-0.1-0.1v-0.4L219,55.9c-0.6-2-1.9-3.6-3.8-4.7c-1.9-1-4-1.2-6.1-0.6l-28,8.2c-2,0.7-3.6,2-4.6,3.9
		c-0.9,1.8-1.1,3.8-0.7,5.6l0.2,0.2v0.3l1,3.2l-1.4,0.3c-1.8,0.4-3.3,0.9-4.7,1.3l-3.3,1.1l-0.6-0.1l-10.7-3.9l-0.2-0.4
		c-3.4-6.4-10.9-9.5-17.9-7.2l-1.9,0.7l-0.4-0.2l-27.2-9.7c-3.6-1.3-7.7-1-11.2,0.7c-3.5,1.7-6.2,4.6-7.4,8.3c-1,3.1-1,6.5,0,9.5
		c0.4,1.2,1.1,2.4,1.9,3.5l1.1,1.5l-16.9,5.3l-0.4-0.1c-1.4-0.4-3-0.9-4.5-1.2l-1.4-0.3l1-3.4c1.1-4.2-1.3-8.5-5.5-9.7l-28.2-8.2
		c-2-0.6-4.2-0.3-6.1,0.8c-1.8,1-3.1,2.6-3.6,4.6l-3.2,11.6l-24,88c-1.2,4.2,1.2,8.6,5.4,9.7l28.4,8.1c0.8,0.2,1.4,0.3,2.2,0.3
		c3.4,0,6.5-2.3,7.5-5.7l0.9-3.2l2.6,1c21,6.7,76.1,24.3,79.6,24.7c7.7,1.1,15.1-4.5,16.1-12.5l0.1-0.8l0.9-0.6l61.5-20.8l1,3.3
		c1.1,3.3,4.1,5.5,7.6,5.5c0.8,0,1.5-0.1,2.2-0.3l28-8.2c2-0.6,3.6-2,4.6-3.9C250,159.9,250.3,157.8,249.7,155.9z M37.3,176.8
		l-31.1-8.9l0.3-1.3L34,65.6l31.1,9.1L37.3,176.8z M156.3,157L112,142.3c-1.4-0.4-2.4,0-3,0.4c-0.9,0.9-1.4,2.3-1.1,3.5
		c0.1,0.8,0.6,1.7,2,2.1l42.7,14.4c2.3,2.2,3.1,5.4,2.1,8.4c-0.7,2.1-1.9,3.5-3.5,4.4c-3.4,1.8-8.1,0.2-11.8-1
		c-0.6-0.2-1.1-0.3-1.7-0.6l-23.8-7.3c-1.4-0.4-2.3,0-2.9,0.6c-1,0.8-1.4,2.2-1.1,3.4c0.1,0.7,0.7,1.7,2.1,2.1l22,6.7
		c0.7,0.2,1.5,0.9,2.2,2.2c0.9,2.3,0.6,5.9-0.3,7.4c-1.5,3-4.2,4-7.3,4c-4,0-8.6-1.7-12.1-3.1c-1.2-0.4-2.3-0.8-3.2-1.1
		c-24.3-7.6-65.1-20.5-65.7-20.9l-1.1-0.4l0.3-1.2l21.5-79.2l1.4,0.4c2.6,0.8,5.4,1.2,8.2,1.3l22.9-7.2l0.3,0.1l23.4,7.4l-12.3,7.1
		l-1.5-0.4c-1.4-0.4-2.3,0.1-2.9,0.6c-1,0.9-1.4,2.3-1.1,3.5c0.2,1.1,0.9,1.8,2,2.1l59,18.1c2.2,0.9,3.9,2.4,4.7,4.4
		c0.9,2.1,0.9,4.3,0.1,6.4c-0.7,1.7-1.8,3-3.3,4c-2,1-4.2,1.2-6.3,0.4l-53-17.6c-1.3-0.4-2.3,0-2.9,0.6c-1,0.8-1.4,2.2-1.2,3.4
		c0.2,0.8,0.7,1.8,2.1,2.2l52.9,17.6c4.3,1.4,6.6,6,5.4,10.2C164.9,156,160.4,158.4,156.3,157z M201.1,159.8l-40,13.4l0.3-2.2
		c0.3-1.9,0.2-3.8-0.3-5.6l-0.3-1.3l1.3-0.3c1.1-0.3,2.1-0.8,3.1-1.3c3.4-1.8,6.1-4.7,7.2-8.4c1.2-3.8,0.8-7.6-1-11l-0.7-1.2
		l1.2-0.7c3.4-1.8,6.1-4.7,7.2-8.4c2.3-7.7-2-16-9.5-18.4L121,99.3l12.8-6.2c1.8-0.7,2.6-2.5,2.1-4.2c-0.3-0.9-1.1-1.7-2-2
		l-32.5-11.6c-2.3-0.8-4.2-2.6-5-5.1c-0.7-1.7-0.7-3.5-0.1-5.3c0.7-2,2.1-3.5,4.1-4.5c1.9-0.9,4.2-1,6.2-0.2l59.8,21.1
		c0.7,0.2,1.4,0.2,2.1,0l4.3-1.5c1.5-0.4,3.1-0.9,4.9-1.3l1.2-0.2l24.7,80.4L201.1,159.8z M213.3,167.7L181.7,65.6l30.8-8.9
		l31.6,102.1L213.3,167.7z"/>
</g>
</svg>
