<svg xmlns="http://www.w3.org/2000/svg" viewBox="0 0 32.75 17.9"><defs><style>.a,.b{fill:none;stroke:#000;stroke-linecap:round;stroke-linejoin:round;stroke-width:0.75px;}.a{fill-rule:evenodd;}</style></defs><title>115</title><path class="a" d="M28.06,17.83a17.9,17.9,0,0,1-1.82.68,4.41,4.41,0,0,1-2.08.22c-2.22-1.65-4.07-3.2-6.25-4.7a6.84,6.84,0,0,0-1.69-1h0c-1.37-.38-2.78.53-3.57.78h0c-1.26.4-2,.28-2.28,0a.82.82,0,0,1-.23-.6,2.37,2.37,0,0,1,.24-.94,7.34,7.34,0,0,1,5.21-3.64h0c1.67-.24,3.55.58,4.84,1.06h0c2.13.78,3.33,1.2,4.68,1.66" transform="translate(0.38 -7.05)"/><line class="b" x1="7.69" y1="2.94" x2="12.4" y2="3.25"/><path class="a" d="M24.16,18.73c.88.49.95,1.66.34,2h0a2.49,2.49,0,0,1-1.29.18,3.55,3.55,0,0,1-1.37-.41h0c.39.29.48.53.44.75a1,1,0,0,1-.55.63,2.52,2.52,0,0,1-2.45-.08h0a.65.65,0,0,1,.24.29.33.33,0,0,1,0,.29,1.67,1.67,0,0,1-.84.67h0A2.38,2.38,0,0,1,16.47,23h0c.27.17.32.33.27.54a1.27,1.27,0,0,1-.53.67,2.11,2.11,0,0,1-2.39,0h0c-3.37-2.27-6.5-4.38-10-6.56" transform="translate(0.38 -7.05)"/><path class="a" d="M24.16,18.73" transform="translate(0.38 -7.05)"/><path class="a" d="M4.74,7.43A11.61,11.61,0,0,1,6.85,8a2.45,2.45,0,0,1,.59.3.52.52,0,0,1,.17.17c-.11.51-.2,1-.3,1.53-1.73,3.77-2.39,5.25-4.11,9L0,17.93Z" transform="translate(0.38 -7.05)"/><path class="a" d="M32,18.15l-3.2,1.09L25,11.05c-.09-.51-.19-1-.29-1.53a1.9,1.9,0,0,1,.76-.47,11.61,11.61,0,0,1,2.11-.56Z" transform="translate(0.38 -7.05)"/><line class="b" x1="16.85" y1="15.92" x2="10.74" y2="11.71"/><line class="b" x1="19.59" y1="14.74" x2="13.39" y2="10.54"/><line class="b" x1="22.17" y1="13.44" x2="16.46" y2="9.61"/></svg>