<svg xmlns="http://www.w3.org/2000/svg" viewBox="0 0 32.75 27.18"><defs><style>.a{fill:none;stroke:#000;stroke-linecap:round;stroke-linejoin:round;stroke-width:0.75px;}</style></defs><title>116</title><path class="a" d="M7.43,12.78c-.79,2.05-5,13.14-3.55,15.05,1.6,2.1,7.33-.36,9,0s1.46-.8,1.46-.8L12.89,14.58" transform="translate(0.38 -2.41)"/><path class="a" d="M13.19,12.34l0-.11s.05-1,.71-1.23c.45-.16,2.65-.61,3.26-1.23a2.82,2.82,0,0,0,.38-2.55c-.44-.59-2.93-.47-2.93-.47a5.72,5.72,0,0,0-1-1.6,4.52,4.52,0,0,0-1.8-.24s.12-2-.48-2.11c-1.14-.28-2.66,5.81-3.14,7.86" transform="translate(0.38 -2.41)"/><path class="a" d="M13.43,13.47c-.74-.24-5.12-1.78-6.69-2.3" transform="translate(0.38 -2.41)"/><path class="a" d="M1.25,24.09a2.27,2.27,0,0,0-.59,3.63c1,1.16,3.11.8,3.19.08" transform="translate(0.38 -2.41)"/><path class="a" d="M22,16.57a6.87,6.87,0,0,1,.25-1.84,3.49,3.49,0,0,0-.43-2.12c-.06-.19-.37-2.21-1-2.27s-1.41,2-1.41,2-1.75,0-2,.78c-.25.94-1.22,1.45-1.25,1.58-.15.53.11,2,1,2.18.51.13.88.8,1.06,1.35" transform="translate(0.38 -2.41)"/><path class="a" d="M18.62,19.63c.47,2.18.2,7.68.22,7.92s-.21.56,0,.84.76.47,1.36.36,5.05,1.12,7.84,0c3.42-2.06-2.29-9.4-5.32-10.59a1.16,1.16,0,0,1-.2-.25" transform="translate(0.38 -2.41)"/><path class="a" d="M22.65,16.91a37.61,37.61,0,0,1-4.75,2.16" transform="translate(0.38 -2.41)"/><path class="a" d="M31.32,19.49c-1.48.88-1.6,2.35-.6,3.06a2.47,2.47,0,0,1,1.21,1.6c.35,1.27-.69,3.29-2.7,3.93" transform="translate(0.38 -2.41)"/></svg>