<svg xmlns="http://www.w3.org/2000/svg" viewBox="0 0 250 250">
<path d="M151.1,142.3c-10.6,0-19.3,8.7-19.3,19.3s8.7,19.3,19.3,19.3c10.7,0,19.3-8.7,19.3-19.3S161.7,142.3,151.1,142.3z
M151.1,149.1c6.9,0,12.5,5.6,12.5,12.5s-5.6,12.5-12.5,12.5c-6.9,0-12.5-5.6-12.5-12.5S144.2,149.1,151.1,149.1z"/>
<path d="M44.2,142.3c-10.7,0-19.3,8.7-19.3,19.3s8.7,19.3,19.3,19.3s19.3-8.7,19.3-19.3S54.9,142.3,44.2,142.3z M44.2,174.1
c-6.9,0-12.5-5.6-12.5-12.5s5.6-12.5,12.5-12.5s12.5,5.6,12.5,12.5S51.1,174.1,44.2,174.1z"/>
<path d="M150.2,130.8c1.1,0,2.2-0.6,2.8-1.6c0.7-1,0.7-2.3,0.2-3.4c-1.7-3.2-3.4-9.2-5.2-15.2c-1.7-5.9-3.4-11.4-5.2-15.1
c-3.2-5.5-7.9-6.4-12.3-6.9c-22.2-3.1-43.9-3.1-66.3,0c-3.4,0.4-9.1,1.1-12.3,7.1c-1.9,3.7-3.6,9.5-5.4,15.7
c-1.6,5.6-3.3,11.4-4.9,14.5c-0.6,1.1-0.5,2.4,0.2,3.5c0.6,1,1.7,1.5,2.9,1.5l0.3,0c25.5-1.9,100-0.3,104.9,0
C150,130.8,150.1,130.8,150.2,130.8z M145,123.8c-11.1-0.3-36.1-0.7-59.4-0.7c-15.3,0-27.3,0.2-35.6,0.6c1.1-3.1,2.1-6.7,3.2-10.5
c1.6-5.6,3.3-11.3,4.9-14.4c1.3-2.4,3.2-3,7.1-3.5c21.8-3,42.9-3,64.5,0c3.9,0.4,5.8,1,7.1,3.3c1.4,3,3.1,8.5,4.7,13.9
C142.5,116.2,143.8,120.3,145,123.8z"/>
<path d="M249.8,68.6c-0.5-1.4-1.8-2.4-3.4-2.4l-23.8,0.1l-6.8-23c-0.9-3-5.9-3-6.8,0l-6.8,22.9h-23.8c-1.5,0-2.9,1-3.4,2.4
c-0.5,1.4,0,3,1.2,4l18.9,14.2l-13.8,22.9c-1.5-0.5-3-0.7-4.5-0.5c-3.2,0.4-5.9,2.3-7.9,4.4c-1.4-3.5-2.9-7.6-4.2-11.6
c-2-5.6-3.8-10.9-6-15.4c-3.8-6.2-9.5-10.3-17-12.2c-29.9-5.1-59-5.1-88.9,0C45.3,76.4,39.6,80.6,36,87c-2.1,4.4-4.2,10.2-6.3,16.2
c-1.3,3.6-2.6,7.3-3.9,10.6c-2-2.1-4.7-4.1-8-4.5c-3.5-0.4-6.9,1-10,4.2c-3.3,3.5-4.8,7.3-4.3,11.1c0.5,4,2.9,6.9,4.8,8.6
c-1.8,14.1-8.3,69-8.4,69.5c0,3.9,3.1,7,7,7h30.8c3.9,0,7-3.1,7-7v-6.7h105.2v6.7c0,3.8,3.2,7,7,7H188c1.9,0,3.6-0.7,4.9-2
c1.3-1.3,2.1-3.2,2-5.4c0,0-7-55.8-8.6-69.1c1.9-1.7,4.3-4.6,4.8-8.6c0.3-2.5-0.3-5-1.6-7.4l22.8-20l20.7,16.1c1.3,1,3,1,4.3,0
c1.3-1,1.8-2.7,1.2-4.2l-8.9-22.3l19-14.2C249.8,71.7,250.3,70.1,249.8,68.6z M184.3,123.6c-0.3,2.9-3.4,5.1-3.5,5.2
c-1.1,0.7-1.7,2-1.5,3.3c6.6,53.4,8.2,67,9.1,70.6l-0.4,0l-31.2-0.1v-10.1c0-1.9-1.5-3.4-3.4-3.4h-112c-1.9,0-3.4,1.5-3.4,3.4
l-0.1,10.2l-30.9-0.1c1.2-10.1,7.3-61.1,8.5-70c0.4-1.4-0.2-3-1.4-3.8c0,0-3.2-2.2-3.5-5.1c-0.2-1.7,0.6-3.6,2.5-5.6
c1.9-2.1,3.3-2.2,4.1-2.1c2.7,0.3,5.5,4.1,6.5,5.9c0.7,1.2,2.1,1.8,3.2,1.8c1.3,0,2.5-0.7,3.1-1.9c2.1-4.4,4.3-10.6,6.5-16.6
c2-5.5,4-11.3,5.8-15.1c2.6-4.5,6.7-7.5,12.3-8.9c28.9-5,57.1-5,86.1-0.1c5.6,1.4,9.7,4.3,12.4,8.8c1.8,3.8,3.6,8.9,5.5,14.4
c2.2,6.3,4.5,12.8,6.9,17.5c0.6,1.1,1.6,1.9,3.4,1.8c0.6-0.1,1.9-0.5,2.6-1.8c0.9-1.7,3.7-5.4,6.4-5.9l-2.9,4.8
c-0.9,1.5-0.6,3.4,0.8,4.5c0.7,0.6,1.5,0.8,2.3,0.8c0.8,0,1.7-0.3,2.3-0.9l3.9-3.4C184.2,122.5,184.4,123.1,184.3,123.6z
M225.3,81.2c-2.5,1.9-3.5,5.2-2.3,8.1l4.1,10.2l-10.4-8.1c-2.5-2-6-2-8.7,0.1l-15.6,13.6l9.5-15.9c1.2-2.9,0.2-6.3-2.3-8.1
L189,73.3H202c3.1,0,6-1.9,7-5l3.4-11.5l3.4,11.6c0.9,3,3.8,5.1,6.8,4.9h13.2L225.3,81.2z"/>
</svg>