<svg xmlns="http://www.w3.org/2000/svg" viewBox="0 0 23.36 32.75"><defs><style>.a{fill:none;stroke:#000;stroke-linecap:round;stroke-linejoin:round;stroke-width:0.75px;}</style></defs><title>1179</title><path class="a" d="M26.48,18.54a.25.25,0,0,0,0-.12.43.43,0,0,0,0-.07l-2-5.24a.26.26,0,0,0-.25-.18l-3.39-.06a.24.24,0,0,0-.25.16l-2.84,6.91a4.19,4.19,0,0,0,.64,3.83l.1.16c.55.88,3.41,1,4,1h.28c.92,0,3.23-.08,3.74-.83l.1-.16A4.16,4.16,0,0,0,27,20.12Z" transform="translate(-4.32 0.38)"/><path class="a" d="M17.51,8.87a5.36,5.36,0,0,1,1.56.45,2.24,2.24,0,0,1,1.51,2.06.25.25,0,0,0,.25.25h3.28a.26.26,0,0,0,.26-.25l.15-1.82,2,.15a.24.24,0,0,0,.27-.18l.34-1.19A.26.26,0,0,0,27,8a13,13,0,0,0-9.51-1.58.26.26,0,0,0-.21.26v1.9A.24.24,0,0,0,17.51,8.87Z" transform="translate(-4.32 0.38)"/><path class="a" d="M14.78,8.62l1,.19h0a.26.26,0,0,0,.25-.28V6.79A.31.31,0,0,0,16,6.57a.21.21,0,0,0-.21-.06l-1,.19a.27.27,0,0,0-.22.28V8.33A.28.28,0,0,0,14.78,8.62Z" transform="translate(-4.32 0.38)"/><path class="a" d="M20.48,19.19a.95.95,0,0,0,0,1.9.94.94,0,0,0,.95-.95h0A1,1,0,0,0,20.48,19.19Z" transform="translate(-4.32 0.38)"/><path class="a" d="M18,28.24h0a2.55,2.55,0,0,1-2.48-.48c-.87-1-.19-3.12-.18-3.14s0-.05,0-.07a4.36,4.36,0,0,0-1.15-4,2.92,2.92,0,0,0-1.45-.69V18.64a.36.36,0,0,0-.34-.37H12V8.3h0A.35.35,0,0,0,12.4,8V1.47a1.47,1.47,0,1,0-2.93,0V7.94a.35.35,0,0,0,.38.36h.07v10H9.46a.38.38,0,0,0-.39.35v1.22a5.38,5.38,0,0,0-.69,10.39l.06,0a5.3,5.3,0,0,0,1,.85,6.79,6.79,0,0,0,3.62.89,13.2,13.2,0,0,0,1.78-.13h.07A4.31,4.31,0,0,0,17.26,31a3.87,3.87,0,0,0,1.53-2.28.42.42,0,0,0-.1-.37C18.56,28.23,18.36,28.19,18,28.24Z" transform="translate(-4.32 0.38)"/><path class="a" d="M14.87,31.87s-2.21-.6-2.21-1.8" transform="translate(-4.32 0.38)"/><path class="a" d="M8.38,30.23s-1.14-1.92-.76-3.12" transform="translate(-4.32 0.38)"/><line class="a" x1="5.6" y1="8.68" x2="7.69" y2="8.68"/><line class="a" x1="4.77" y1="20.21" x2="8.48" y2="20.21"/><path class="a" d="M18.6,17.82a3.3,3.3,0,0,1,2.83-.17c1.32.68,3.36,1.62,5.05.89" transform="translate(-4.32 0.38)"/><path class="a" d="M14.87,31.87s-2.21-.6-2.21-1.8" transform="translate(-4.32 0.38)"/><path class="a" d="M8.38,30.23s-1.14-1.92-.76-3.12" transform="translate(-4.32 0.38)"/><line class="a" x1="5.6" y1="8.68" x2="7.69" y2="8.68"/><line class="a" x1="4.77" y1="20.21" x2="8.48" y2="20.21"/><path class="a" d="M18.6,17.82a3.3,3.3,0,0,1,2.83-.17c1.32.68,3.36,1.62,5.05.89" transform="translate(-4.32 0.38)"/></svg>