<svg xmlns="http://www.w3.org/2000/svg" viewBox="0 0 256 256">
<path d="M128,62.7C57.5,62.7,0,91.7,0,128s57.5,65.2,128,65.2c70.5,0,128-28.9,128-65.2S198.5,62.7,128,62.7z M128,192.1c-70.7,0-126.9-29-126.9-64.1S57.3,63.8,128,63.8s126.9,29,126.9,64.2C254.9,163.2,198.7,192.1,128,192.1z"/>
<path d="M128,74.5C56,74.5,11.8,104,11.8,128S56,181.5,128,181.5S244.2,152,244.2,128C244.2,104,200,74.5,128,74.5z M128,180.4c-72.1,0-115.1-29.5-115.1-52.4c0-22.9,43-52.4,115.1-52.4c72.1,0,115.2,29.5,115.2,52.4C243.1,150.9,200.1,180.4,128,180.4z"/>
<path d="M128,66.2c1.6,0,3,1.3,3,2.9c0,1.6-1.3,2.9-2.9,2.9c-1.6,0-2.9-1.3-2.9-2.9C125.1,67.6,126.4,66.2,128,66.2z"/>
<path d="M118.3,66.4c1.6,0,2.9,1.3,2.9,3s-1.3,2.9-2.9,2.9c-1.6,0-2.9-1.3-2.9-2.9C115.3,67.8,116.7,66.4,118.3,66.4z"/>
<path d="M108.6,67c1.6,0,2.9,1.3,2.9,2.9s-1.3,3-2.9,3c-1.6,0-2.9-1.3-2.9-3C105.6,68.3,107,67,108.6,67z"/>
<path d="M98.9,67.9c1.6,0,2.9,1.3,2.9,2.9c0,1.7-1.3,2.9-2.9,2.9c-1.6,0-2.9-1.3-2.9-2.9C96,69.2,97.3,67.9,98.9,67.9z"/>
<path d="M89.3,69.3c1.6,0,2.9,1.3,2.9,2.9s-1.3,2.9-2.9,2.9c-1.6,0-2.9-1.3-2.9-2.9C86.4,70.6,87.7,69.3,89.3,69.3z"/>
<path d="M79.8,71.1c1.6,0,2.9,1.3,2.9,2.9c0,1.6-1.3,2.9-2.9,2.9s-2.9-1.3-2.9-2.9C76.8,72.4,78.1,71.1,79.8,71.1z"/>
<path d="M70.3,73.3c1.6,0,2.9,1.3,2.9,3c0,1.6-1.3,2.9-2.9,2.9c-1.6,0-2.9-1.3-2.9-2.9C67.4,74.7,68.7,73.3,70.3,73.3z"/>
<path d="M61,76.1c1.6,0,2.9,1.3,2.9,2.9c0,1.6-1.3,2.9-2.9,2.9c-1.6,0-2.9-1.3-2.9-2.9C58,77.4,59.4,76.1,61,76.1z"/>
<path d="M51.9,79.4c1.6,0,2.9,1.3,2.9,2.9c0,1.6-1.3,2.9-2.9,2.9c-1.6,0-3-1.3-3-2.9C48.9,80.7,50.2,79.4,51.9,79.4z"/>
<path d="M43,83.3c1.6,0,3,1.3,3,2.9c0,1.6-1.3,2.9-3,2.9c-1.6,0-2.9-1.3-2.9-2.9C40,84.6,41.3,83.3,43,83.3z"/>
<path d="M34.4,87.9c1.6,0,3,1.3,3,2.9s-1.3,2.9-3,2.9c-1.6,0-2.9-1.3-2.9-2.9C31.5,89.2,32.8,87.9,34.4,87.9z"/>
<path d="M26.3,93.3c1.6,0,2.9,1.3,2.9,3c0,1.6-1.3,2.9-2.9,2.9c-1.6,0-2.9-1.3-2.9-2.9C23.4,94.6,24.7,93.3,26.3,93.3z"/>
<path d="M18.9,99.6c1.6,0,2.9,1.3,2.9,2.9s-1.3,2.9-2.9,2.9s-2.9-1.3-2.9-2.9C16,100.9,17.3,99.6,18.9,99.6z"/>
<path d="M12.6,107c1.6,0,2.9,1.3,2.9,2.9c0,1.6-1.3,2.9-2.9,2.9c-1.6,0-2.9-1.3-2.9-2.9C9.7,108.3,11,107,12.6,107z"/>
<path d="M8.1,115.5c1.6,0,2.9,1.3,2.9,2.9c0,1.6-1.3,2.9-2.9,2.9c-1.6,0-2.9-1.3-2.9-2.9C5.2,116.9,6.5,115.5,8.1,115.5z"/>
<path d="M128,183.9c1.6,0,2.9,1.3,2.9,3c0,1.6-1.3,2.9-2.9,2.9c-1.6,0-2.9-1.3-2.9-2.9C125.1,185.2,126.4,183.9,128,183.9z"/>
<path d="M118.3,183.7c1.6,0,2.9,1.3,2.9,2.9c0,1.6-1.3,2.9-2.9,2.9c-1.6,0-2.9-1.3-2.9-2.9C115.3,185,116.7,183.7,118.3,183.7z"/>
<path d="M108.6,183.1c1.6,0,2.9,1.3,2.9,2.9c0,1.6-1.3,3-2.9,3s-2.9-1.3-2.9-3C105.6,184.5,107,183.1,108.6,183.1z"/>
<path d="M98.9,182.2c1.6,0,2.9,1.3,2.9,2.9c0,1.6-1.3,2.9-2.9,2.9c-1.6,0-2.9-1.3-2.9-2.9C96,183.5,97.3,182.2,98.9,182.2z"/>
<path d="M89.3,180.8c1.6,0,2.9,1.3,2.9,3c0,1.6-1.3,3-2.9,3c-1.6,0-2.9-1.4-2.9-3C86.4,182.2,87.7,180.8,89.3,180.8z"/>
<path d="M79.8,179c1.6,0,2.9,1.3,2.9,2.9c0,1.6-1.3,2.9-2.9,2.9s-2.9-1.3-2.9-2.9C76.8,180.4,78.1,179,79.8,179z"/>
<path d="M70.3,176.8c1.6,0,2.9,1.3,2.9,2.9c0,1.6-1.3,2.9-2.9,2.9c-1.6,0-2.9-1.3-2.9-2.9C67.4,178.1,68.7,176.8,70.3,176.8z"/>
<path d="M61,174c1.6,0,2.9,1.3,2.9,3c0,1.6-1.3,2.9-2.9,2.9c-1.6,0-2.9-1.3-2.9-2.9C58,175.4,59.4,174,61,174z"/>
<path d="M51.9,170.7c1.6,0,2.9,1.3,2.9,2.9c0,1.6-1.3,2.9-2.9,2.9c-1.6,0-3-1.3-3-2.9C48.9,172,50.2,170.7,51.9,170.7z"/>
<path d="M43,166.8c1.6,0,3,1.3,3,2.9c0,1.6-1.3,2.9-3,2.9c-1.6,0-2.9-1.3-2.9-2.9C40,168.1,41.3,166.8,43,166.8z"/>
<path d="M34.4,162.2c1.6,0,2.9,1.3,2.9,2.9c0,1.6-1.3,2.9-2.9,2.9c-1.6,0-2.9-1.3-2.9-2.9C31.5,163.6,32.8,162.2,34.4,162.2z"/>
<path d="M26.3,156.9c1.6,0,2.9,1.3,2.9,2.9c0,1.6-1.3,2.9-2.9,2.9c-1.6,0-2.9-1.3-2.9-2.9C23.4,158.2,24.7,156.9,26.3,156.9z"/>
<path d="M18.9,150.5c1.6,0,3,1.3,3,3c0,1.6-1.3,2.9-3,2.9c-1.6,0-2.9-1.3-2.9-2.9C16,151.9,17.3,150.5,18.9,150.5z"/>
<path d="M12.6,143.1c1.6,0,2.9,1.3,2.9,2.9s-1.3,2.9-2.9,2.9c-1.6,0-2.9-1.3-2.9-2.9C9.7,144.5,11,143.1,12.6,143.1z"/>
<path d="M8.1,134.6c1.6,0,2.9,1.3,2.9,2.9c0,1.6-1.3,2.9-2.9,2.9c-1.6,0-2.9-1.3-2.9-2.9C5.2,135.9,6.5,134.6,8.1,134.6z"/>
<path d="M6.4,125.1c1.6,0,2.9,1.3,2.9,3c0,1.6-1.3,2.9-2.9,2.9c-1.6,0-2.9-1.3-2.9-2.9C3.5,126.4,4.8,125.1,6.4,125.1z"/>
<path d="M249.6,125.1c1.6,0,2.9,1.3,2.9,3c0,1.6-1.3,2.9-2.9,2.9c-1.6,0-2.9-1.3-2.9-2.9C246.6,126.4,247.9,125.1,249.6,125.1z"/>
<path d="M247.9,134.6c1.6,0,3,1.3,3,2.9c0,1.6-1.3,2.9-3,2.9c-1.6,0-2.9-1.3-2.9-2.9C244.9,135.9,246.2,134.6,247.9,134.6z"/>
<path d="M243.4,143.1c1.6,0,2.9,1.3,2.9,2.9s-1.3,2.9-2.9,2.9s-2.9-1.3-2.9-2.9C240.4,144.5,241.7,143.1,243.4,143.1z"/>
<path d="M237.1,150.5c1.6,0,2.9,1.3,2.9,3c0,1.6-1.3,2.9-2.9,2.9c-1.6,0-2.9-1.3-2.9-2.9C234.1,151.9,235.4,150.5,237.1,150.5z"/>
<path d="M229.7,156.9c1.6,0,2.9,1.3,2.9,2.9c0,1.6-1.3,2.9-2.9,2.9c-1.6,0-2.9-1.3-2.9-2.9C226.7,158.2,228.1,156.9,229.7,156.9z"/>
<path d="M221.6,162.2c1.6,0,2.9,1.3,2.9,2.9c0,1.6-1.3,2.9-2.9,2.9s-2.9-1.3-2.9-2.9C218.7,163.6,220,162.2,221.6,162.2z"/>
<path d="M213.1,166.8c1.6,0,2.9,1.3,2.9,2.9c0,1.6-1.3,2.9-2.9,2.9c-1.6,0-3-1.3-3-2.9C210.1,168.1,211.4,166.8,213.1,166.8z"/>
<path d="M204.2,170.7c1.6,0,2.9,1.3,2.9,2.9c0,1.6-1.3,2.9-2.9,2.9c-1.6,0-2.9-1.3-2.9-2.9C201.2,172,202.5,170.7,204.2,170.7z"/>
<path d="M195,174c1.6,0,2.9,1.3,2.9,3c0,1.6-1.3,2.9-2.9,2.9c-1.6,0-2.9-1.3-2.9-2.9C192.1,175.4,193.4,174,195,174z"/>
<path d="M185.7,176.8c1.6,0,2.9,1.3,2.9,2.9c0,1.6-1.3,2.9-2.9,2.9c-1.6,0-2.9-1.3-2.9-2.9C182.8,178.1,184.1,176.8,185.7,176.8z"/>
<path d="M176.3,179c1.6,0,2.9,1.3,2.9,2.9c0,1.6-1.3,2.9-2.9,2.9c-1.6,0-2.9-1.3-2.9-2.9C173.3,180.4,174.6,179,176.3,179z"/>
<path d="M166.7,180.8c1.6,0,2.9,1.3,2.9,3c0,1.6-1.3,3-2.9,3c-1.6,0-2.9-1.4-2.9-3C163.8,182.2,165.1,180.8,166.7,180.8z"/>
<path d="M157.1,182.2c1.6,0,2.9,1.3,2.9,2.9c0,1.6-1.3,2.9-2.9,2.9s-2.9-1.3-2.9-2.9C154.1,183.5,155.5,182.2,157.1,182.2z"/>
<path d="M147.4,183.1c1.6,0,2.9,1.3,2.9,2.9c0,1.6-1.3,3-2.9,3c-1.6,0-2.9-1.3-2.9-3C144.5,184.5,145.8,183.1,147.4,183.1z"/>
<path d="M137.7,183.7c1.6,0,2.9,1.3,2.9,2.9c0,1.6-1.3,2.9-2.9,2.9c-1.6,0-2.9-1.3-2.9-2.9C134.8,185,136.1,183.7,137.7,183.7z"/>
<path d="M137.7,66.4c1.6,0,2.9,1.3,2.9,3s-1.3,2.9-2.9,2.9c-1.6,0-2.9-1.3-2.9-2.9C134.8,67.8,136.1,66.4,137.7,66.4z"/>
<path d="M147.4,67c1.6,0,2.9,1.3,2.9,2.9s-1.3,3-2.9,3c-1.6,0-2.9-1.3-2.9-3C144.5,68.3,145.8,67,147.4,67z"/>
<path d="M157.1,67.9c1.6,0,2.9,1.3,2.9,2.9c0,1.7-1.3,2.9-2.9,2.9s-2.9-1.3-2.9-2.9C154.1,69.2,155.5,67.9,157.1,67.9z"/>
<path d="M166.7,69.3c1.6,0,2.9,1.3,2.9,2.9s-1.3,2.9-2.9,2.9c-1.6,0-2.9-1.3-2.9-2.9C163.8,70.6,165.1,69.3,166.7,69.3z"/>
<path d="M176.3,71.1c1.6,0,2.9,1.3,2.9,2.9c0,1.6-1.3,2.9-2.9,2.9c-1.6,0-3-1.3-3-2.9C173.3,72.4,174.6,71.1,176.3,71.1z"/>
<path d="M185.7,73.3c1.6,0,2.9,1.3,2.9,3c0,1.6-1.3,2.9-2.9,2.9c-1.6,0-2.9-1.3-2.9-2.9C182.8,74.7,184.1,73.3,185.7,73.3z"/>
<path d="M195,76.1c1.6,0,2.9,1.3,2.9,2.9c0,1.6-1.3,2.9-2.9,2.9c-1.6,0-2.9-1.3-2.9-2.9C192.1,77.4,193.4,76.1,195,76.1z"/>
<path d="M204.2,79.4c1.6,0,2.9,1.3,2.9,2.9c0,1.6-1.3,2.9-2.9,2.9c-1.6,0-2.9-1.3-2.9-2.9C201.2,80.7,202.5,79.4,204.2,79.4z"/>
<path d="M213.1,83.3c1.6,0,2.9,1.3,2.9,2.9c0,1.6-1.3,2.9-2.9,2.9c-1.6,0-3-1.3-3-2.9C210.1,84.6,211.4,83.3,213.1,83.3z"/>
<path d="M221.6,87.9c1.6,0,2.9,1.3,2.9,2.9s-1.3,2.9-2.9,2.9s-2.9-1.3-2.9-2.9C218.7,89.2,220,87.9,221.6,87.9z"/>
<path d="M229.7,93.3c1.6,0,2.9,1.3,2.9,3c0,1.6-1.3,2.9-2.9,2.9c-1.6,0-2.9-1.3-2.9-2.9C226.7,94.6,228.1,93.3,229.7,93.3z"/>
<path d="M237.1,99.6c1.6,0,2.9,1.3,2.9,2.9s-1.3,2.9-2.9,2.9c-1.6,0-2.9-1.3-2.9-2.9C234.1,100.9,235.4,99.6,237.1,99.6z"/>
<path d="M243.4,107c1.6,0,3,1.3,3,2.9c0,1.6-1.3,2.9-3,2.9c-1.6,0-2.9-1.3-2.9-2.9C240.4,108.3,241.7,107,243.4,107z"/>
<path d="M247.9,115.5c1.6,0,2.9,1.3,2.9,3c0,1.6-1.3,2.9-2.9,2.9c-1.6,0-2.9-1.3-2.9-2.9C244.9,116.9,246.2,115.5,247.9,115.5z"/>
<path d="M48.4,121.7c0-3.6-2.3-5.6-5-5.6h-4v11.2h4C46.7,127.3,48.4,124.9,48.4,121.7z M44,120.8H47l0.3,0c0,0.3,0.1,0.6,0.1,1c0,2.6-1.2,4.2-3.2,4.4V120.8z"/>
<path d="M55,132.5c2.2-1.6,3.6-5.3,3.6-7.8c0-1.8-0.6-4-1.9-5.9c-0.4-0.6-1-1.4-1.8-2.2c-0.8-1-1.8-1.8-2.3-2.3c-0.3-0.3-1.1-1-2.3-1.7c-1.3-0.8-3-1.4-5-1.4H32.8v37.9l3.5,3.5h13.6c5.8,0,9.7-6.1,9.7-11c0-3.5-1.3-6-3-7.7L55,132.5zM46.3,148H33.9v-35.7h11.5c6,0,8.6,5.2,8.6,8.9c0,2.4-1.4,5.8-3.3,7.1l-1.6,1l1.7,0.9c2.3,1.2,4.3,3.7,4.3,8C54.9,142.7,51.3,148,46.3,148z"/>
<path d="M44.4,131.1h-5v13.2h5c3.5,0,5-3.7,5-6.6C49.4,134.4,47.3,131.1,44.4,131.1z M48.3,137.7c0,2.8-1.4,5.5-3.9,5.5H44v-7.5h4C48.2,136.3,48.3,137,48.3,137.7z"/>
<path d="M78.8,111.2v27.2c0,2-1.6,3.8-3.9,3.8h-0.3l0-0.2v-27.2l-3.5-3.5h-7.8v27.2c0,2.7,1,5.3,2.6,7.2c0.3,0.7,2.3,3.2,4.2,4.6c2.8,2.1,5.6,3.2,8.3,3.2c6.3,0,11.6-5.2,11.6-11.5v-27.2l-3.5-3.5L78.8,111.2L78.8,111.2z M85.5,138.5c0,5.7-4.8,10.4-10.5,10.4c-5.7,0-10.5-4.7-10.5-10.4v-26.1H70v26.1c0,2.6,2.1,4.9,5,4.9c2.9,0,5-2.2,5-4.9v-26.1h5.5V138.5L85.5,138.5z"/>
<path d="M118,115.9c-1-1.2-2.1-2.1-3-2.8c-0.8-0.6-1.6-1.1-2.6-1.6c-1.6-0.8-3.6-1.2-5.9-1.2c-6.3,0-11.7,5.2-11.7,11.6v16.6c0,2.7,0.9,5.1,2.5,7.1c0.5,0.9,2.4,3.3,4.3,4.8c2.8,2.1,5.5,3.2,8.4,3.2c7.9,0,11.5-4.6,11.5-11.5v-9.3l-3.5-3.5h-10.7v6l3.5,3.5h0.4c-0.1,2.6-2,4.3-4.8,4c-0.1,0-0.2,0-0.4,0c0-0.2-0.1-0.4-0.1-0.7v-16.6c0-2.3,1.6-4.3,3.9-4.5c0.4,0,0.8,0,1.2,0.1c0.1,0.3,0.1,0.6,0.1,0.8v0.8l3.5,3.5h6.8v-0.8c0-2.5-0.5-4.7-1.4-6.4C119.6,118.1,118.9,117,118,115.9z M112.3,121.6c-0.1-3.2-2.5-5.6-5.9-5.3c-2.9,0.2-4.9,2.7-4.9,5.6v16.6c0,2.6,2.1,5.1,4.9,5.3c3.4,0.3,6-1.9,6-5.3v-4.4h-3.9v-3.8h8.5v8.2c0,6.4-3.2,10.4-10.4,10.4c-5.7,0-10.6-4.7-10.6-10.4v-16.6c0-5.7,4.9-10.4,10.6-10.4c7.1,0,10.3,3.9,10.4,10.1L112.3,121.6L112.3,121.6z"/>
<path d="M144.1,111.2h-10.6l-9.7,37.9l3.5,3.5h8l1.6-7h7.2l0.7,3.4l3.5,3.5h8.3l-9-37.9L144.1,111.2z M145.7,148l-1.4-7h-11.8l-1.6,7h-5.7l9.1-35.7h8.9l8.2,35.7H145.7z"/>
<path d="M137.6,118.5l-4.1,18.1h9.9l-3.7-18.1L137.6,118.5z M142,135.5h-2.9l1.5-6.7L142,135.5z"/>
<path d="M154.4,111.2v7l3.5,3.5h4.2v27.4l3.5,3.5h7.8v-31h7.7v-7l-3.5-3.5L154.4,111.2L154.4,111.2z M176.5,117.2h-7.7v30.9h-5.6v-30.9h-7.7v-4.8h21L176.5,117.2L176.5,117.2z"/>
<path d="M182.7,111.2v7l3.5,3.5h4.2v27.4l3.5,3.5h7.7v-31h7.8v-7l-3.5-3.5L182.7,111.2L182.7,111.2z M204.8,117.2h-7.7v30.9h-5.6v-30.9h-7.7v-4.8h21L204.8,117.2L204.8,117.2z"/>
<path d="M211.9,111.2v37.9l3.5,3.5h7.8v-37.9l-3.5-3.5L211.9,111.2L211.9,111.2z M218.6,148H213v-35.7h5.6V148z"/>
<path d="M136.5,104.5c4,0,7.2-3.2,7.2-7.2c0-1.9-0.8-3.7-2-5c1.1-1.2,1.7-2.8,1.7-4.5c0-3.8-3.1-6.8-6.8-6.8h-24.1v3.8v1.9h3.8v-1.9h9.2v5.4h-3.6v-1.5h-3.8v1.5v4.5v1.5h3.8v-1.5h3.6v6.1h-9.2v-1.9h-3.8v1.9v3.8C112.3,104.5,136.5,104.5,136.5,104.5zM130.3,84.7h6.1c1.7,0,2.7,1.2,2.7,2.7c0,1.5-1,2.7-2.7,2.7h-6.1V84.7z M130.3,94.6h6.1c1.9,0,3,1.3,3,3c0,1.7-1.1,3-3,3h-6.1V94.6z"/>
</svg>