<?xml version="1.0" encoding="utf-8"?>
<!-- Generator: Adobe Illustrator 24.0.0, SVG Export Plug-In . SVG Version: 6.00 Build 0)  -->
<svg version="1.1" id="Layer_1" xmlns="http://www.w3.org/2000/svg" xmlns:xlink="http://www.w3.org/1999/xlink" x="0px" y="0px"
	 viewBox="0 0 256 256" style="enable-background:new 0 0 256 256;" xml:space="preserve">
<style type="text/css">
	.st0{fill:#8699A3;}
</style>
<g>
	<g>
		<path class="st0" d="M127.99,62.74C57.47,62.74,0,91.69,0,128.01s57.47,65.25,127.99,65.25c70.53,0,128.01-28.93,128.01-65.25
			S198.52,62.74,127.99,62.74z M127.99,192.15c-70.66,0-126.9-28.98-126.9-64.14c0-35.16,56.24-64.16,126.9-64.16
			c70.66,0,126.91,29,126.91,64.16C254.9,163.18,198.66,192.15,127.99,192.15z"/>
		<path class="st0" d="M127.99,74.53c-72,0-116.24,29.47-116.24,53.48c0,24.01,44.24,53.5,116.24,53.5
			c72,0,116.25-29.49,116.25-53.5C244.24,103.98,199.99,74.53,127.99,74.53z M127.99,180.4c-72.13,0-115.14-29.51-115.14-52.39
			c0-22.89,43.02-52.39,115.14-52.39c72.11,0,115.15,29.51,115.15,52.39C243.14,150.88,200.11,180.4,127.99,180.4z"/>
		<path class="st0" d="M127.99,66.23c1.63,0,2.95,1.32,2.95,2.95c0,1.61-1.32,2.94-2.95,2.94c-1.63,0-2.93-1.33-2.93-2.94
			C125.06,67.55,126.37,66.23,127.99,66.23z"/>
		<path class="st0" d="M118.28,66.41c1.63,0,2.94,1.34,2.94,2.96c0,1.62-1.32,2.94-2.94,2.94c-1.63,0-2.94-1.32-2.94-2.94
			C115.35,67.75,116.65,66.41,118.28,66.41z"/>
		<path class="st0" d="M108.59,66.98c1.62,0,2.94,1.33,2.94,2.94c0,1.61-1.32,2.96-2.94,2.96c-1.63,0-2.95-1.35-2.95-2.96
			C105.64,68.31,106.96,66.98,108.59,66.98z"/>
		<path class="st0" d="M98.92,67.94c1.63,0,2.94,1.31,2.94,2.92c0,1.65-1.3,2.94-2.94,2.94c-1.62,0-2.93-1.3-2.93-2.94
			C95.98,69.25,97.3,67.94,98.92,67.94z"/>
		<path class="st0" d="M89.29,69.29c1.63,0,2.94,1.34,2.94,2.95c0,1.61-1.32,2.92-2.94,2.92c-1.61,0-2.93-1.3-2.93-2.92
			C86.36,70.63,87.68,69.29,89.29,69.29z"/>
		<path class="st0" d="M79.75,71.1c1.63,0,2.94,1.31,2.94,2.94c0,1.61-1.32,2.94-2.94,2.94c-1.62,0-2.95-1.33-2.95-2.94
			C76.8,72.4,78.13,71.1,79.75,71.1z"/>
		<path class="st0" d="M70.31,73.35c1.61,0,2.93,1.31,2.93,2.96c0,1.59-1.32,2.93-2.93,2.93c-1.64,0-2.95-1.33-2.95-2.93
			C67.36,74.66,68.67,73.35,70.31,73.35z"/>
		<path class="st0" d="M60.99,76.1c1.63,0,2.94,1.32,2.94,2.94c0,1.64-1.31,2.94-2.94,2.94c-1.63,0-2.93-1.31-2.93-2.94
			C58.05,77.41,59.36,76.1,60.99,76.1z"/>
		<path class="st0" d="M51.86,79.41c1.62,0,2.94,1.31,2.94,2.94c0,1.62-1.32,2.94-2.94,2.94c-1.63,0-2.95-1.32-2.95-2.94
			C48.91,80.72,50.23,79.41,51.86,79.41z"/>
		<path class="st0" d="M42.95,83.31c1.63,0,2.95,1.31,2.95,2.93c0,1.64-1.32,2.93-2.95,2.93c-1.62,0-2.94-1.29-2.94-2.93
			C40.02,84.63,41.33,83.31,42.95,83.31z"/>
		<path class="st0" d="M34.39,87.9c1.63,0,2.95,1.3,2.95,2.94c0,1.64-1.32,2.94-2.95,2.94c-1.61,0-2.94-1.31-2.94-2.94
			C31.45,89.2,32.78,87.9,34.39,87.9z"/>
		<path class="st0" d="M26.31,93.26c1.63,0,2.94,1.34,2.94,2.97c0,1.6-1.31,2.93-2.94,2.93c-1.62,0-2.94-1.32-2.94-2.93
			C23.37,94.6,24.69,93.26,26.31,93.26z"/>
		<path class="st0" d="M18.93,99.59c1.63,0,2.94,1.3,2.94,2.93c0,1.63-1.32,2.94-2.94,2.94c-1.62,0-2.94-1.31-2.94-2.94
			C15.99,100.89,17.31,99.59,18.93,99.59z"/>
		<path class="st0" d="M12.65,106.97c1.62,0,2.94,1.31,2.94,2.94c0,1.63-1.32,2.94-2.94,2.94c-1.63,0-2.94-1.32-2.94-2.94
			C9.71,108.28,11.02,106.97,12.65,106.97z"/>
		<path class="st0" d="M8.14,115.54c1.63,0,2.95,1.32,2.95,2.94c0,1.63-1.32,2.94-2.95,2.94c-1.61,0-2.94-1.31-2.94-2.94
			C5.2,116.86,6.53,115.54,8.14,115.54z"/>
		<path class="st0" d="M128,183.89c1.63,0,2.94,1.31,2.94,2.96c0,1.61-1.31,2.92-2.94,2.92c-1.61,0-2.94-1.31-2.94-2.92
			C125.06,185.19,126.39,183.89,128,183.89z"/>
		<path class="st0" d="M118.28,183.71c1.63,0,2.94,1.29,2.94,2.94c0,1.63-1.32,2.93-2.94,2.93c-1.61,0-2.93-1.3-2.93-2.93
			C115.35,185,116.67,183.71,118.28,183.71z"/>
		<path class="st0" d="M108.59,183.13c1.63,0,2.95,1.34,2.95,2.95c0,1.63-1.32,2.96-2.95,2.96c-1.63,0-2.95-1.32-2.95-2.96
			C105.64,184.47,106.96,183.13,108.59,183.13z"/>
		<path class="st0" d="M98.92,182.21c1.63,0,2.94,1.3,2.94,2.93c0,1.65-1.3,2.93-2.94,2.93c-1.62,0-2.93-1.29-2.93-2.93
			C95.99,183.51,97.3,182.21,98.92,182.21z"/>
		<path class="st0" d="M89.3,180.83c1.62,0,2.94,1.32,2.94,2.96c0,1.61-1.32,2.96-2.94,2.96c-1.61,0-2.94-1.35-2.94-2.96
			C86.36,182.16,87.69,180.83,89.3,180.83z"/>
		<path class="st0" d="M79.75,179.03c1.63,0,2.94,1.32,2.94,2.93c0,1.63-1.32,2.94-2.94,2.94c-1.62,0-2.94-1.31-2.94-2.94
			C76.81,180.35,78.13,179.03,79.75,179.03z"/>
		<path class="st0" d="M70.31,176.77c1.62,0,2.93,1.32,2.93,2.94c0,1.63-1.31,2.94-2.93,2.94c-1.64,0-2.95-1.31-2.95-2.94
			C67.36,178.09,68.67,176.77,70.31,176.77z"/>
		<path class="st0" d="M60.99,174.02c1.63,0,2.94,1.34,2.94,2.96c0,1.59-1.3,2.93-2.94,2.93c-1.63,0-2.93-1.34-2.93-2.93
			C58.05,175.35,59.36,174.02,60.99,174.02z"/>
		<path class="st0" d="M51.86,170.72c1.62,0,2.94,1.32,2.94,2.94c0,1.63-1.32,2.94-2.94,2.94c-1.63,0-2.95-1.31-2.95-2.94
			C48.91,172.04,50.23,170.72,51.86,170.72z"/>
		<path class="st0" d="M42.95,166.81c1.63,0,2.95,1.31,2.95,2.94c0,1.61-1.32,2.94-2.95,2.94c-1.62,0-2.94-1.34-2.94-2.94
			C40.02,168.12,41.33,166.81,42.95,166.81z"/>
		<path class="st0" d="M34.39,162.23c1.63,0,2.94,1.32,2.94,2.94c0,1.63-1.32,2.93-2.94,2.93c-1.61,0-2.94-1.3-2.94-2.93
			C31.45,163.55,32.78,162.23,34.39,162.23z"/>
		<path class="st0" d="M26.31,156.86c1.63,0,2.94,1.3,2.94,2.94c0,1.61-1.31,2.93-2.94,2.93c-1.62,0-2.94-1.32-2.94-2.93
			C23.37,158.16,24.69,156.86,26.31,156.86z"/>
		<path class="st0" d="M18.92,150.54c1.63,0,2.95,1.32,2.95,2.96c0,1.62-1.32,2.93-2.95,2.93c-1.63,0-2.93-1.3-2.93-2.93
			C15.99,151.86,17.29,150.54,18.92,150.54z"/>
		<path class="st0" d="M12.64,143.15c1.63,0,2.93,1.31,2.93,2.94c0,1.63-1.31,2.93-2.93,2.93c-1.63,0-2.93-1.29-2.93-2.93
			C9.71,144.47,11.01,143.15,12.64,143.15z"/>
		<path class="st0" d="M8.13,134.58c1.63,0,2.94,1.31,2.94,2.94c0,1.64-1.31,2.93-2.94,2.93c-1.62,0-2.93-1.29-2.93-2.93
			C5.2,135.89,6.51,134.58,8.13,134.58z"/>
		<path class="st0" d="M6.42,125.05c1.62,0,2.93,1.34,2.93,2.96c0,1.62-1.31,2.94-2.93,2.94c-1.63,0-2.94-1.32-2.94-2.94
			C3.48,126.4,4.79,125.05,6.42,125.05z"/>
		<path class="st0" d="M249.58,125.05c1.61,0,2.94,1.34,2.94,2.96c0,1.62-1.34,2.94-2.94,2.94c-1.64,0-2.94-1.32-2.94-2.94
			C246.64,126.4,247.94,125.05,249.58,125.05z"/>
		<path class="st0" d="M247.85,134.58c1.63,0,2.96,1.31,2.96,2.94c0,1.64-1.33,2.93-2.96,2.93c-1.61,0-2.93-1.29-2.93-2.93
			C244.93,135.89,246.24,134.58,247.85,134.58z"/>
		<path class="st0" d="M243.36,143.15c1.63,0,2.94,1.31,2.94,2.94c0,1.63-1.32,2.93-2.94,2.93c-1.62,0-2.93-1.29-2.93-2.93
			C240.43,144.47,241.74,143.15,243.36,143.15z"/>
		<path class="st0" d="M237.09,150.54c1.61,0,2.93,1.32,2.93,2.96c0,1.62-1.32,2.93-2.93,2.93c-1.64,0-2.94-1.3-2.94-2.93
			C234.14,151.86,235.45,150.54,237.09,150.54z"/>
		<path class="st0" d="M229.69,156.86c1.62,0,2.94,1.3,2.94,2.94c0,1.61-1.32,2.93-2.94,2.93c-1.63,0-2.95-1.32-2.95-2.93
			C226.74,158.16,228.06,156.86,229.69,156.86z"/>
		<path class="st0" d="M221.61,162.23c1.63,0,2.94,1.32,2.94,2.94c0,1.63-1.31,2.93-2.94,2.93c-1.63,0-2.94-1.3-2.94-2.93
			C218.66,163.55,219.98,162.23,221.61,162.23z"/>
		<path class="st0" d="M213.05,166.81c1.61,0,2.92,1.31,2.92,2.94c0,1.61-1.3,2.94-2.92,2.94c-1.64,0-2.96-1.34-2.96-2.94
			C210.1,168.12,211.41,166.81,213.05,166.81z"/>
		<path class="st0" d="M204.16,170.72c1.62,0,2.93,1.32,2.93,2.94c0,1.63-1.31,2.94-2.93,2.94c-1.63,0-2.95-1.31-2.95-2.94
			C201.21,172.04,202.53,170.72,204.16,170.72z"/>
		<path class="st0" d="M195,174.02c1.62,0,2.94,1.34,2.94,2.96c0,1.59-1.32,2.93-2.94,2.93c-1.61,0-2.94-1.34-2.94-2.93
			C192.06,175.35,193.39,174.02,195,174.02z"/>
		<path class="st0" d="M185.7,176.77c1.63,0,2.94,1.32,2.94,2.94c0,1.63-1.31,2.94-2.94,2.94c-1.62,0-2.94-1.31-2.94-2.94
			C182.75,178.09,184.07,176.77,185.7,176.77z"/>
		<path class="st0" d="M176.26,179.03c1.61,0,2.92,1.32,2.92,2.93c0,1.63-1.3,2.94-2.92,2.94c-1.63,0-2.95-1.31-2.95-2.94
			C173.31,180.35,174.62,179.03,176.26,179.03z"/>
		<path class="st0" d="M166.69,180.83c1.63,0,2.94,1.32,2.94,2.96c0,1.61-1.31,2.96-2.94,2.96c-1.61,0-2.94-1.35-2.94-2.96
			C163.75,182.16,165.08,180.83,166.69,180.83z"/>
		<path class="st0" d="M157.08,182.21c1.62,0,2.94,1.3,2.94,2.93c0,1.65-1.32,2.93-2.94,2.93c-1.62,0-2.94-1.29-2.94-2.93
			C154.14,183.51,155.46,182.21,157.08,182.21z"/>
		<path class="st0" d="M147.42,183.13c1.61,0,2.94,1.34,2.94,2.95c0,1.63-1.33,2.96-2.94,2.96c-1.63,0-2.95-1.32-2.95-2.96
			C144.47,184.47,145.79,183.13,147.42,183.13z"/>
		<path class="st0" d="M137.7,183.71c1.63,0,2.95,1.29,2.95,2.94c0,1.63-1.32,2.93-2.95,2.93c-1.61,0-2.91-1.3-2.91-2.93
			C134.79,185,136.1,183.71,137.7,183.71z"/>
		<path class="st0" d="M137.72,66.41c1.63,0,2.95,1.34,2.95,2.96c0,1.62-1.32,2.94-2.95,2.94c-1.62,0-2.93-1.32-2.93-2.94
			C134.79,67.75,136.1,66.41,137.72,66.41z"/>
		<path class="st0" d="M147.42,66.98c1.61,0,2.94,1.33,2.94,2.94c0,1.61-1.33,2.96-2.94,2.96c-1.63,0-2.94-1.35-2.94-2.96
			C144.48,68.31,145.79,66.98,147.42,66.98z"/>
		<path class="st0" d="M157.08,67.94c1.62,0,2.94,1.31,2.94,2.92c0,1.65-1.32,2.94-2.94,2.94c-1.62,0-2.94-1.3-2.94-2.94
			C154.14,69.25,155.46,67.94,157.08,67.94z"/>
		<path class="st0" d="M166.69,69.29c1.63,0,2.94,1.34,2.94,2.95c0,1.61-1.31,2.92-2.94,2.92c-1.61,0-2.94-1.3-2.94-2.92
			C163.75,70.63,165.08,69.29,166.69,69.29z"/>
		<path class="st0" d="M176.26,71.1c1.61,0,2.91,1.31,2.91,2.94c0,1.61-1.3,2.94-2.91,2.94c-1.64,0-2.96-1.33-2.96-2.94
			C173.31,72.4,174.62,71.1,176.26,71.1z"/>
		<path class="st0" d="M185.7,73.35c1.63,0,2.94,1.31,2.94,2.96c0,1.59-1.31,2.93-2.94,2.93c-1.62,0-2.94-1.33-2.94-2.93
			C182.76,74.66,184.07,73.35,185.7,73.35z"/>
		<path class="st0" d="M195,76.1c1.63,0,2.95,1.32,2.95,2.94c0,1.64-1.32,2.94-2.95,2.94c-1.61,0-2.93-1.31-2.93-2.94
			C192.08,77.41,193.39,76.1,195,76.1z"/>
		<path class="st0" d="M204.16,79.41c1.62,0,2.93,1.31,2.93,2.94c0,1.62-1.31,2.94-2.93,2.94c-1.63,0-2.95-1.32-2.95-2.94
			C201.21,80.72,202.53,79.41,204.16,79.41z"/>
		<path class="st0" d="M213.05,83.31c1.61,0,2.92,1.31,2.92,2.93c0,1.64-1.3,2.93-2.92,2.93c-1.64,0-2.96-1.29-2.96-2.93
			C210.1,84.63,211.41,83.31,213.05,83.31z"/>
		<path class="st0" d="M221.61,87.9c1.63,0,2.94,1.3,2.94,2.94c0,1.64-1.31,2.94-2.94,2.94c-1.63,0-2.94-1.31-2.94-2.94
			C218.66,89.2,219.98,87.9,221.61,87.9z"/>
		<path class="st0" d="M229.69,93.26c1.62,0,2.94,1.34,2.94,2.97c0,1.6-1.32,2.94-2.94,2.94c-1.63,0-2.95-1.34-2.95-2.94
			C226.74,94.6,228.06,93.26,229.69,93.26z"/>
		<path class="st0" d="M237.07,99.59c1.63,0,2.95,1.3,2.95,2.93c0,1.63-1.32,2.94-2.95,2.94c-1.62,0-2.93-1.31-2.93-2.94
			C234.14,100.89,235.45,99.59,237.07,99.59z"/>
		<path class="st0" d="M243.35,106.97c1.64,0,2.96,1.31,2.96,2.94c0,1.63-1.32,2.94-2.96,2.94c-1.61,0-2.92-1.32-2.92-2.94
			C240.43,108.28,241.74,106.97,243.35,106.97z"/>
		<path class="st0" d="M247.85,115.54c1.63,0,2.94,1.33,2.94,2.96c0,1.62-1.31,2.93-2.94,2.93c-1.61,0-2.93-1.31-2.93-2.93
			C244.93,116.87,246.24,115.54,247.85,115.54z"/>
		<path class="st0" d="M48.41,121.73c0-3.57-2.33-5.6-4.98-5.6h-4v11.18h4C46.65,127.31,48.41,124.95,48.41,121.73z M44.05,120.76
			h2.9l0.28,0.01c0.04,0.3,0.07,0.62,0.07,0.96c0,2.55-1.18,4.18-3.25,4.45V120.76z"/>
		<path class="st0" d="M55.01,132.53c2.23-1.61,3.56-5.3,3.56-7.8c0-1.8-0.59-3.97-1.86-5.86c-0.42-0.63-1.02-1.39-1.76-2.24
			c-0.85-0.96-1.78-1.81-2.32-2.31c-0.3-0.26-1.07-1.03-2.27-1.7c-1.35-0.84-3-1.38-5-1.38H32.79v37.88l3.51,3.54h13.56
			c5.79,0,9.69-6.1,9.69-10.97c0-3.53-1.27-6.03-3-7.67L55.01,132.53z M46.33,148.02H33.88v-35.67h11.49c5.95,0,8.59,5.25,8.59,8.87
			c0,2.41-1.37,5.84-3.35,7.06l-1.63,0.98l1.68,0.92c2.26,1.23,4.26,3.71,4.26,7.98C54.92,142.67,51.3,148.02,46.33,148.02z"/>
		<path class="st0" d="M44.4,131.07h-4.97v13.2h4.97c3.45,0,4.98-3.69,4.98-6.58C49.38,134.43,47.32,131.07,44.4,131.07z
			 M48.26,137.69c0,2.76-1.41,5.47-3.86,5.47h-0.35v-7.47H48C48.17,136.31,48.26,136.98,48.26,137.69z"/>
		<path class="st0" d="M78.85,111.24v27.24c0,2.04-1.58,3.79-3.87,3.79h-0.33l-0.01-0.25v-27.23l-3.54-3.54h-7.75v27.24
			c0,2.73,0.99,5.27,2.62,7.23c0.35,0.72,2.28,3.21,4.23,4.64c2.77,2.07,5.59,3.2,8.3,3.2c6.27,0,11.61-5.19,11.61-11.53v-27.23
			l-3.52-3.54H78.85z M85.49,138.48c0,5.73-4.82,10.45-10.51,10.45c-5.67,0-10.51-4.72-10.51-10.45v-26.13h5.54v26.13
			c0,2.65,2.05,4.9,4.97,4.9c2.93,0,4.97-2.24,4.97-4.9v-26.13h5.54V138.48L85.49,138.48z"/>
		<path class="st0" d="M117.98,115.86c-1.04-1.2-2.07-2.05-3.02-2.79c-0.76-0.57-1.59-1.13-2.57-1.55c-1.61-0.75-3.57-1.15-5.9-1.15
			c-6.26,0-11.69,5.2-11.69,11.55v16.56c0,2.68,0.95,5.14,2.52,7.1c0.5,0.87,2.38,3.34,4.31,4.77c2.79,2.1,5.52,3.2,8.38,3.2
			c7.89,0,11.54-4.64,11.54-11.53v-9.29l-3.53-3.54h-10.69v5.99l3.53,3.51h0.37c-0.09,2.63-2,4.29-4.75,4.02
			c-0.12,0-0.24-0.02-0.36-0.03c-0.04-0.22-0.06-0.44-0.06-0.66v-16.59c0-2.29,1.63-4.27,3.94-4.49c0.42-0.02,0.81,0.04,1.18,0.14
			c0.05,0.27,0.06,0.56,0.06,0.85v0.76l3.53,3.53h6.77v-0.79c0-2.49-0.47-4.65-1.44-6.45C119.63,118.06,118.93,116.99,117.98,115.86
			z M112.34,121.61c-0.14-3.18-2.54-5.55-5.95-5.26c-2.93,0.25-4.94,2.72-4.94,5.57v16.58c0,2.61,2.05,5.06,4.94,5.31
			c3.45,0.32,5.96-1.92,5.96-5.33v-4.39h-3.91v-3.79h8.51v8.18c0,6.35-3.25,10.45-10.45,10.45c-5.69,0-10.6-4.72-10.6-10.45v-16.56
			c0-5.74,4.91-10.45,10.6-10.45c7.09,0,10.33,3.95,10.44,10.14H112.34L112.34,121.61z"/>
		<path class="st0" d="M144.05,111.24h-10.62l-9.68,37.88l3.5,3.54h8.04l1.58-6.99h7.23l0.7,3.45l3.54,3.54h8.28l-9.03-37.88
			L144.05,111.24z M145.69,148.02l-1.41-6.97h-11.81l-1.58,6.97h-5.74l9.12-35.67h8.91l8.22,35.67H145.69z"/>
		<path class="st0" d="M137.58,118.5l-4.1,18.12h9.92l-3.69-18.1L137.58,118.5z M142.03,135.51h-2.86l1.52-6.7L142.03,135.51z"/>
		<path class="st0" d="M154.37,111.24v6.99l3.52,3.53h4.22v27.44l3.52,3.52h7.76v-30.97h7.74v-6.98l-3.54-3.54H154.37z
			 M176.49,117.16h-7.74v30.95h-5.55v-30.95h-7.74v-4.81h21.03V117.16L176.49,117.16z"/>
		<path class="st0" d="M182.71,111.24v6.99l3.52,3.53h4.22v27.44l3.52,3.52h7.74v-30.97h7.75v-6.98l-3.54-3.54H182.71z
			 M204.83,117.16h-7.72v30.95h-5.57v-30.95h-7.74v-4.81h21.03V117.16L204.83,117.16z"/>
		<path class="st0" d="M211.9,111.24v37.88l3.52,3.54h7.75v-37.88l-3.52-3.54H211.9z M218.55,148.02H213v-35.67h5.55V148.02z"/>
		<path class="st0" d="M136.47,104.47c3.97,0,7.19-3.22,7.19-7.18c0-1.95-0.78-3.71-2.04-5.01c1.05-1.22,1.68-2.79,1.68-4.5
			c0-3.76-3.06-6.84-6.83-6.84h-24.13v3.8v1.91h3.81v-1.91h9.15v5.38h-3.63V88.6h-3.81v1.51v4.51v1.49h3.81v-1.49h3.63v6.05h-9.15
			v-1.9h-3.81v1.9v3.8H136.47z M130.32,84.74h6.15c1.66,0,2.69,1.21,2.69,2.69c0,1.46-1.03,2.69-2.69,2.69h-6.15V84.74z
			 M130.32,94.63h6.15c1.9,0,3.02,1.34,3.02,3.01c0,1.68-1.12,3.04-3.02,3.04h-6.15V94.63z"/>
	</g>
</g>
</svg>
