<?xml version="1.0" encoding="utf-8"?>
<!-- Generator: Adobe Illustrator 24.0.0, SVG Export Plug-In . SVG Version: 6.00 Build 0)  -->
<svg version="1.1" id="Layer_1" xmlns="http://www.w3.org/2000/svg" xmlns:xlink="http://www.w3.org/1999/xlink" x="0px" y="0px"
	 viewBox="0 0 256 256" style="enable-background:new 0 0 256 256;" xml:space="preserve">
<g>
	<g>
		<polygon points="130.1,101.3 124.2,107.8 130.1,107.8 		"/>
		<polygon points="149.8,124.3 149.6,124.3 148.3,129.6 151,129.6 		"/>
		<path d="M75.9,136.7h104v-17.8h-45.4H75.9V136.7z M158.9,121.7h4.9l3.9,9.5v-9.5h3.1v12.9h-4.9l-3.8-9.6v9.6h-3.1L158.9,121.7
			L158.9,121.7z M147.1,121.7h5.1l3.4,12.9h-3.5l-0.6-2.3h-3.8l-0.6,2.3h-3.5L147.1,121.7z M130,127.2c0-2,0.4-3.4,1.1-4.3
			c0.7-1,2-1.4,3.6-1.4h1.8c1.3,0,2.4,0.3,3.3,1.1c0.9,0.7,1.3,1.6,1.3,2.6v0.6h-3.3c0-0.8-0.6-1.2-1.8-1.2h-0.8
			c-0.9,0-1.4,0.2-1.6,0.5c-0.2,0.3-0.2,1-0.2,2.1v2.1c0,1,0,1.6,0.2,2c0.3,0.3,0.8,0.5,1.6,0.5h0.9l1.3-0.2c0.2-0.2,0.4-0.6,0.4-1
			v-0.5h-1.9v-2.4h5.2v2.2c0,1.7-0.4,2.9-1.1,3.8c-0.8,0.8-1.9,1.2-3.5,1.2h-2.2c-2.8,0-4.3-1.8-4.3-5.4L130,127.2L130,127.2z
			 M116.5,121.7h5.1c1.8,0,3,0.2,3.7,0.7c0.8,0.5,1.2,1.4,1.2,2.8v1.1c0,1.8-0.8,2.8-2.4,2.9c0.8,0.1,1.4,0.4,1.8,0.9
			c0.4,0.4,0.6,1,0.6,1.8v2.7h-3.4v-2.4c0-0.5-0.2-0.9-0.3-1.1c-0.2-0.2-0.6-0.3-1.1-0.3h-1.8v3.8h-3.3V121.7L116.5,121.7z
			 M101.6,126.7c0-1.9,0.3-3.3,1-4.1c0.7-0.8,2-1.2,3.7-1.2h1.6c1.8,0,3,0.4,3.7,1.2c0.7,0.8,1.1,2.2,1.1,4.1v2.7
			c0,1.9-0.3,3.3-1.1,4.1c-0.7,0.8-2,1.2-3.7,1.2h-1.6c-1.8,0-3-0.4-3.7-1.2c-0.7-0.8-1-2.2-1-4.1V126.7z M83,121.7h4.8l2.6,9.3
			l2.6-9.3h4.8v12.9h-3.3V125l-2.4,9.5h-3.3l-2.5-9.6v9.6H83L83,121.7L83,121.7z"/>
		<path d="M122.7,127.5c0.2-0.2,0.3-0.5,0.3-1v-0.5c0-0.6-0.2-1-0.3-1.2c-0.2-0.2-0.5-0.2-1.1-0.2h-1.8v3.3h1.8
			C122.2,127.8,122.5,127.7,122.7,127.5z"/>
		<polygon points="130.1,152.1 130.1,145.7 124.2,152.1 		"/>
		<path d="M106.8,131.6h0.6c0.8,0,1.3-0.2,1.6-0.5c0.2-0.3,0.3-1,0.3-2V127c0-1.1-0.1-1.7-0.3-2.1c-0.2-0.3-0.8-0.5-1.6-0.5h-0.6
			c-0.8,0-1.3,0.2-1.5,0.5c-0.2,0.3-0.3,1-0.3,2.1v2.1c0,1,0.1,1.6,0.3,2C105.5,131.4,106,131.6,106.8,131.6z"/>
		<path d="M254.3,122.8c-6.5,2.4-13.3,2.9-20.2,1.8c-5.1-1-8.7-1.9-10.8-2.7c-1.7-0.7-4.4-2.1-8.2-4.5L197.6,105
			c-4.7-3.2-9.9-5.5-15.6-6.7c-5.6-1-10-0.3-13.4,2.3c-2.6,2.1-3.9,4.7-3.9,7.6c-1.9-3.7-4.4-7.1-7.4-10.2
			c-8-8.2-17.8-12.4-29.1-12.4c-11.3,0-21.1,4.2-29.2,12.4c-3.2,3.3-5.7,6.7-7.5,10.3c0.3-3.3-1-6.1-3.8-8.2
			c-3.4-2.2-8-2.8-13.6-1.6c-5.2,1-10.4,3.2-15.6,6.6l-17.5,12.3c-3.4,2.2-6.3,3.8-8,4.5c-2.6,1-6.3,1.9-10.9,2.7
			c-5.9,1.1-12.8,0.5-20.4-1.7c-0.2,0-0.3,0-0.4,0.2c-1.2,2.1-1.6,4.1-1,6.1c1,3.5,5,6.9,11.7,10c0,0,0.1,0,0.1,0
			c1.4,2,2.3,3.1,3.3,3.7c1.2,0.8,2.8,1.3,5.1,1.7c4.5,3.8,10.3,5.2,17.2,4.1c3.3,1.4,4.5,1.8,4.9,1.9c2.5,0.5,5.8,0.1,9.9-1.2
			c2.7,1.2,5.7,1.4,9.2,0.8c4.2-1.4,7.9-4,11.1-7.9c0,0,0,0,0,0l0.5-0.6c-0.3,5.6,0.9,10,3.3,13c2.5,3.1,5.5,4.2,8.9,3.3
			c1.8,1.9,3.8,3.1,6,3.7c2.4,0.5,3.1,0.4,3.5,0.2c0.9,0.9,2.2,1.5,3.8,1.7l3.7-0.4c0.5,0.5,1.3,0.9,2.5,1.2
			c1.1,0.3,1.9,0.3,2.4,0.1c6.2,3.7,13.1,5.6,20.7,5.6c7.6,0,14.6-1.9,20.8-5.6l2.1-0.1c0,0,0.1,0,0.1,0c1.1-0.4,1.8-0.8,2.4-1.2
			l3.7,0.2c1.6-0.2,2.9-0.7,3.8-1.6c0.3,0.2,1.1,0.3,3.5-0.3c2.3-0.4,4.4-1.7,6-3.7c3.5,0.9,6.6-0.2,9-3.3c2.4-2.9,3.3-7.2,2.8-12.9
			l0.7,0.8c0,0,0,0,0,0c3.5,3.8,7.3,6.4,11.4,7.7c3.6,0.6,6.8,0.3,9.3-0.8l0.2,0c0,0,0,0,0,0c3.9,1.2,7.2,1.6,9.8,1.1l4.6-1.9
			l0.2-0.1c5,0.9,8.9,0.9,11.5-0.1l5.7-3.8c0,0,0,0,0,0l0.1-0.1c2.1-0.3,3.8-0.9,5-1.6c1.1-0.8,2.1-2.1,3.3-3.9c0.1,0,0.1,0,0.1,0
			c6.6-3.1,10.4-6.5,11.5-9.9c0.6-2,0.3-4.1-1-6.2C254.6,122.8,254.5,122.7,254.3,122.8z M91,111.1c1.8-4.4,4.7-8.6,8.4-12.5
			c8-8.2,17.4-12.2,28.7-12.2c11.1,0,20.8,4.1,28.6,12.2c3.4,3.5,6.1,7.4,8.1,11.7c0.2,1.3,0.6,2.5,1.3,3.4l0.9,3.1H164
			c-1.7-6-4.8-11.4-9.5-16.2c-7.3-7.6-16.2-11.4-26.4-11.4c-10.4,0-19.4,3.8-26.6,11.4c-4.6,4.7-7.8,10.2-9.5,16.2h-3
			c0.4-1.5,0.8-2.8,1.3-3.9c0,0,0,0,0,0L91,111.1L91,111.1z M177.2,109.2c-0.4-1.4-1-2.5-1.6-3.1c2.8-0.1,5.4,0.4,7.8,1.4
			c3.8,1.7,7.8,4,12,6.9c-0.2,1.8-1.1,3-2.8,3.8c-0.1,0-0.1,0.1-0.2,0.2c-1,2.3-2.7,3.6-5.3,4c-0.1,0-0.2,0.1-0.2,0.2
			c-1.3,2-2.8,3-4.6,3v-8.4c0-0.2-0.2-0.3-0.4-0.3h-13.9l-0.6-2.1c1,0.8,2.4,1.2,4.1,1.2c2,0,3.5-0.6,4.5-1.6
			C176.9,113.1,177.3,111.4,177.2,109.2z M189.9,126.1c2.2-0.5,3.8-1.7,4.6-3.6c3.9,4.6,8.8,8.7,14.6,12.2c-2,1.9-4.5,2.6-7.8,2.4
			C196.4,133.4,192.7,129.8,189.9,126.1z M200.5,137.3c-1.8,2.2-4.6,2.9-8.4,2.1l-9.4-9.2c2.9-0.2,5.1-1.4,6.7-3.6
			C192,130.1,195.7,133.7,200.5,137.3z M195.1,122.1c2.2-0.7,3.7-2.2,4.6-4.6l13.1,9.1c1.6,1.2,3.3,2.3,5,3.2
			c-1.4,2.7-4.1,4.2-8.1,4.4C203.9,130.7,199,126.6,195.1,122.1z M194.4,121.5c-0.1,0-0.1,0-0.2,0.1c0,0.1-0.1,0.1-0.1,0.2
			c-0.8,2.1-2.4,3.4-4.9,3.8c-0.1,0-0.1,0-0.1,0l0,0c0,0,0,0-0.1,0c0,0-0.1,0.1-0.1,0.1c-1.6,2.5-3.8,3.7-6.9,3.7v-3.2
			c0,0,0.1,0,0.1,0c1.9,0,3.5-1.1,4.9-3.2c2.7-0.5,4.6-1.9,5.6-4.3c1.7-0.8,2.7-2.1,3.1-3.9l3.2,2.1
			C198.3,119.5,196.7,121,194.4,121.5z M181.5,117.5v20.8h-0.9h0h-7.6c0,0,0,0,0,0h-5.2c0,0,0,0,0,0h-3.8c0,0,0,0,0,0h-14.3
			c0,0,0,0,0,0h-3h0h-40.4c0,0,0,0,0,0h-3.1c0,0,0,0,0,0h-2.9c0,0,0,0,0,0h-7.9c0,0,0,0,0,0h-3.7l0,0h-5.3h0h-8h0h-0.7v-20.8h28.9
			c0,0,0,0,0,0H181.5z M112.7,143.8l3.8,3v2.4c-1.9-1.1-3.7-2.4-5.4-4.2c-1.8-1.9-3.3-3.9-4.3-6.1h2.3
			C109.9,140.7,111.1,142.3,112.7,143.8z M109.8,139h6.7v7l-3.3-2.7C111.8,141.9,110.7,140.5,109.8,139z M110.5,145.6
			c1.9,1.9,3.9,3.4,5.9,4.5v2.2c-4.4-2.2-8-5.4-10.7-9.4c-0.8-1.1-1.5-2.3-2.2-3.8h2.4C107,141.3,108.6,143.5,110.5,145.6z
			 M105.1,143.2c2.8,4.2,6.7,7.6,11.3,9.8v2.4c-5.4-2.5-9.7-6.2-12.9-11.1c-1.1-1.6-2.1-3.3-3-5.3h2.2
			C103.5,140.6,104.3,142,105.1,143.2z M103,144.8c3.3,5,7.8,8.9,13.5,11.4v7.1c0,0.2,0.2,0.3,0.3,0.3H139c0.2,0,0.3-0.2,0.3-0.3
			V150c2.2-1.2,4.1-2.7,5.9-4.6c1.9-2.1,3.5-4.2,4.6-6.4h13.7c-1.6,5.9-4.8,11.2-9.4,15.9c-7.1,7.4-15.9,11.2-25.9,11.2
			c-10.2,0-19-3.8-26.1-11.2c-4.6-4.7-7.7-10-9.3-15.9h7.2C100.8,141.1,101.8,143,103,144.8z M137.4,161.4V139h1.2v7.7v0v3.1
			c0,0,0,0,0,0v13.1h-21.5V156v0v-3.1c0,0,0,0,0,0v-2.9c0,0,0,0,0,0v-3.1v0V139h1.2v22.5L137.4,161.4L137.4,161.4z M132.4,152.1v1.3
			H131v2.2h-0.9v-2.2h-7v-1.7l6.6-7h1.3v7.5H132.4L132.4,152.1z M143.3,143.5c1.4-1.4,2.5-3,3.4-4.5h2.2c-1.1,2.1-2.5,4-4.3,5.9
			c-1.6,1.7-3.4,3.1-5.4,4.2v-2.3C140.9,145.9,142.2,144.8,143.3,143.5z M139.3,146.1V139h6.6c-0.8,1.4-1.9,2.8-3.1,4.1
			C141.8,144.2,140.7,145.1,139.3,146.1z M61.5,122.8c1,2,2.6,3.2,4.7,3.5c-2.9,3.8-6.7,7.5-11.4,10.9c-3.4,0.5-6-0.3-7.9-2.4
			C52.9,131.2,57.7,127.2,61.5,122.8z M46.2,134.3C46.2,134.4,46.2,134.4,46.2,134.3c-3.7,0-6.2-1.5-7.8-4.5l4.8-3.1l13.1-9.2
			c0.8,2.3,2.3,3.9,4.5,4.7C57.1,126.8,52.3,130.7,46.2,134.3z M66.8,126.6c1.4,2.1,3.2,3.3,5.3,3.6c-1.7,2.5-4.4,5.6-8,9.3
			c-3.7,0.8-6.5,0.1-8.7-1.9C60.1,134.1,63.9,130.4,66.8,126.6z M67.1,125.8C67.1,125.8,67.1,125.7,67.1,125.8
			c-0.1-0.1-0.1-0.1-0.1-0.1l0,0l0,0c-0.1,0-0.1-0.1-0.2-0.1c-2.3-0.2-3.9-1.4-5-3.7c0,0,0,0,0,0l0,0c0-0.1-0.1-0.1-0.2-0.2l0,0l0,0
			c0,0,0,0,0,0l0,0l0,0l0,0l0,0l0,0l0,0l0,0l0,0c0,0,0,0,0,0l0,0l0,0l0,0l0,0c0,0,0,0,0,0c-2.3-0.7-3.8-2.2-4.6-4.6l3.1-2.1
			c0.5,1.8,1.5,3.1,3.1,3.8c1.1,2.6,3.1,4.1,5.7,4.4c1.4,2.2,3,3.3,4.8,3.1v3.2h-0.9l0,0C70.4,129.4,68.6,128.2,67.1,125.8z
			 M69.4,122.7c-0.1-0.1-0.2-0.2-0.3-0.2c-2.5-0.2-4.2-1.5-5.3-4.1c0-0.1-0.1-0.2-0.2-0.2c-1.5-0.7-2.5-1.9-2.9-3.7
			c4.5-3.2,8.6-5.5,12.1-7c2.4-1,5-1.5,7.8-1.4c-0.7,0.6-1.2,1.6-1.6,3c-0.2,2.2,0.2,3.9,1.2,5c1,1.1,2.5,1.6,4.6,1.6
			c1.7,0,3-0.5,4.1-1.4c-0.2,0.7-0.4,1.4-0.7,2.2H74c-0.2,0-0.3,0.2-0.3,0.3v8.6C72.1,125.8,70.7,124.9,69.4,122.7z M143.6,112.4
			c-1.3-1.3-2.7-2.4-4.2-3.2V107c1.8,1,3.6,2.3,5.4,4c1.8,1.7,3.3,3.6,4.4,5.8h-2.3C146.1,115.2,145,113.8,143.6,112.4z
			 M146.1,116.8h-6.7v-6.8c1.3,0.8,2.5,1.7,3.7,2.9C144.3,114.1,145.3,115.4,146.1,116.8z M145.2,110.5c-1.9-1.8-3.8-3.2-5.9-4.3
			v-2.3c2.7,1.4,5.2,3.3,7.8,5.9c0.1,0.1,0.4,0.1,0.5,0c0.1-0.1,0.1-0.3,0-0.5c-2.7-2.7-5.4-4.7-8.3-6.1v-2.1l4.8,2.6
			c0.2,0.1,0.4,0,0.5-0.1c0.1-0.2,0-0.4-0.1-0.5l-5.1-2.8v-7.3c0-0.2-0.2-0.3-0.3-0.3h-22.2c-0.2,0-0.3,0.2-0.3,0.3v7.4
			c-3.5,1.5-6.6,3.7-9.5,6.5c-3.1,3-5.4,6.4-7.1,10.1h-7.2c1.7-5.8,4.8-11.1,9.3-15.7c7.1-7.4,15.9-11.2,26.1-11.2
			c10.1,0,18.8,3.8,25.9,11.2c4.5,4.6,7.6,9.9,9.3,15.7h-13.4C148.8,114.4,147.2,112.3,145.2,110.5z M118.4,94.7v22.1h-1.2v-7.2
			c0,0,0,0,0,0v-3.1c0,0,0,0,0,0v-3.1c0,0,0,0,0,0v-2.9c0,0,0,0,0,0v-7.2h21.5v7.2c0,0,0,0,0,0v2.9c0,0,0,0,0,0v3.1c0,0,0,0,0,0v2.9
			c0,0,0,0,0,0v7.4h-1.2V94.7H118.4z M123.1,109v-1.7l6.6-7h1.3v7.5h1.4v1.2H131v2.2h-0.9V109L123.1,109L123.1,109z M112.2,112.6
			c-1.2,1.2-2.3,2.6-3.2,4.1h-2.3c1.1-2.1,2.5-4,4.2-5.7c1.6-1.6,3.3-2.9,5.4-4.1v2.4C114.9,110.2,113.5,111.3,112.2,112.6z
			 M116.5,110.2v6.6h-6.6c0.8-1.3,1.8-2.6,2.9-3.7C113.8,112,115.1,111,116.5,110.2z M110.5,110.6c-1.8,1.8-3.3,3.9-4.5,6.2h-2.2
			c1.3-2.8,3.1-5.4,5.4-7.7c2.1-2.2,4.5-3.9,7.2-5.3v2.4C114.2,107.5,112.2,108.9,110.5,110.6z M108.8,108.6
			c-2.5,2.4-4.4,5.1-5.7,8.2h-2.4c1.6-3.5,3.8-6.7,6.8-9.6c2.8-2.8,5.7-4.8,9-6.3v2.1C113.5,104.5,111,106.3,108.8,108.6z M1,129.1
			c-0.5-1.7-0.3-3.5,0.8-5.3c7.6,2.2,14.5,2.7,20.4,1.6c4.6-0.9,8.3-1.8,11-2.8c1.8-0.7,4.7-2.3,8.2-4.6l17.5-12.3
			c5.1-3.3,10.3-5.5,15.4-6.4c5.4-1.2,9.8-0.6,13.1,1.5c2.7,2.1,3.8,4.6,3.5,7.9l-0.4,2.2l-0.7,1.7c-1.1,1.8-2.7,2.7-4.9,2.7
			c-1.9,0-3.2-0.5-4.1-1.4c-0.9-1-1.2-2.5-1.1-4.4c0.4-1.3,0.9-2.2,1.5-2.7l1.7-0.3h0.8c1.1,0,1.9,0.2,2.3,0.8
			c0.4,0.4,0.5,1,0.4,1.8c0,0.2,0.1,0.4,0.3,0.4c0.2,0,0.4-0.1,0.4-0.3c0.1-1-0.1-1.8-0.6-2.4c-0.6-0.6-1.6-1-2.9-1h-0.8
			c-3.6-0.5-7,0-10.2,1.3c-3.6,1.5-7.7,3.9-12.4,7.2l-3.7,2.5l0,0l-13.5,9.4l-5,3.2l0,0c-8.1,4.8-16.7,7.9-25.7,9.3
			C5.7,135.6,2,132.4,1,129.1z M15.7,142.5c-0.8-0.5-1.6-1.5-2.8-3.2c8.8-1.4,17.2-4.4,25.1-9.1c1.5,2.9,3.9,4.5,7.2,4.8
			c-5.8,3.2-13.9,6.2-24.6,9C18.3,143.7,16.8,143.2,15.7,142.5z M37.5,148.2c-6.5,1-11.9-0.2-16.2-3.6c11-2.9,19.1-6,25-9.4
			c1.9,2.1,4.4,3,7.5,2.8C47.6,142.5,42.2,145.9,37.5,148.2z M52.3,148.9c-4,1.3-7.3,1.8-9.7,1.2c-0.4-0.1-2.2-0.8-4.1-1.6
			c4.6-2.3,9.9-5.7,15.9-10.1l0.5-0.5c2.1,2.1,4.9,2.9,8.3,2.4C58.9,144.5,55.4,147.3,52.3,148.9z M61.5,149.7
			c-3.1,0.5-5.8,0.3-8.2-0.6c3-1.7,6.5-4.4,10.7-8.5l0.5-0.5c1.8,1.5,4.2,2.3,7.4,2.4C68.7,146.1,65.3,148.4,61.5,149.7z
			 M72.3,141.9c-3.2-0.1-5.7-0.8-7.4-2.3c3.7-3.8,6.3-6.9,8-9.4h0.8v8.4c0,0.2,0.2,0.4,0.3,0.4h0.5l-1.1,1.7L72.3,141.9z
			 M77.1,154.5c-2.5-3-3.6-7.5-3.1-13.5l1.3-1.9h7.5c-0.8,8.1,0,14.4,2.4,18.6C82.1,158.3,79.4,157.2,77.1,154.5z M91.7,161.2
			c-2.2-0.6-4.1-1.7-5.8-3.6c-2.5-4.1-3.3-10.4-2.5-18.6h4.8c0.8,3.5,2.1,6.8,3.9,10l0.2,0.3c-0.3,4.8,0.4,8.9,2.2,12.3
			C94.4,161.6,93.7,161.7,91.7,161.2z M98.8,163.1c-1.5-0.2-2.8-0.8-3.6-1.8c-1.7-3-2.4-6.7-2.3-11c1.6,2.6,3.6,5.1,5.9,7.6l3.2,2.9
			c0.1,1,0.1,1.5,0.1,1.9L98.8,163.1z M105.2,164c-1.1-0.3-1.9-0.7-2.2-1.1c0,0-0.1-0.1-0.1-0.1c-0.1-0.2-0.1-0.7-0.1-1.3
			c1.3,1,2.5,1.9,3.8,2.7C106.3,164.2,105.9,164.2,105.2,164z M153.1,162.7c-0.5,0.4-1.2,0.8-2.2,1.2l-0.8,0.1
			c1.1-0.7,2.2-1.6,3.4-2.6C153.5,162,153.4,162.4,153.1,162.7z M148.6,164c-6.1,3.7-13,5.6-20.5,5.6c-7.5,0-14.4-1.9-20.5-5.6l0,0
			c-1.7-1-3.3-2.1-5-3.6l-3.2-3c-2.6-2.8-4.7-5.5-6.4-8.4c0,0,0,0,0-0.1l-0.3-0.3c-1.7-3.1-2.9-6.2-3.8-9.6h2.9
			c1.7,6.1,4.9,11.6,9.6,16.3c7.3,7.6,16.2,11.4,26.6,11.4c10.3,0,19.2-3.8,26.4-11.4c4.8-4.8,8-10.3,9.6-16.3h3.1
			c-1,3.8-2.4,7.4-4.4,10.7c-1.8,2.8-3.8,5.3-6.1,7.8l-3.1,2.9C151.8,161.9,150.2,163.1,148.6,164z M160.9,161.1
			c-0.9,1-2.1,1.6-3.6,1.8l-3.3-0.2c0.2-0.5,0.3-1.1,0.3-1.9l3-2.8c2.1-2.3,4-4.6,5.6-7C163,155.3,162.3,158.7,160.9,161.1z
			 M170.1,157.4c-1.5,1.9-3.5,3.2-5.7,3.6c-2,0.5-2.6,0.4-2.8,0.4c1.6-2.7,2.3-6.4,2-11.4c1.9-3.4,3.4-7.1,4.4-10.9h4.6
			C173.5,147.3,172.7,153.3,170.1,157.4z M179,154.2c-2.3,2.9-4.9,3.9-8.1,3.1c2.5-4.2,3.3-10.2,2.4-18.4h7.1l1.2,1.7
			C182.2,146.8,181.4,151.3,179,154.2z M182.2,140.4l-0.9-1.4h0.6c0.2,0,0.4-0.1,0.4-0.4v-8l9,8.8c-1.8,1.6-4.4,2.4-7.7,2.5
			L182.2,140.4z M194.6,149.6c-3.7-1.2-7.3-3.5-10.5-6.9c3.2-0.2,5.8-1.1,7.5-2.6h0.1l0.5,0.5c3.8,3.9,7.4,6.7,10.8,8.5
			C200.6,149.9,197.8,150.1,194.6,149.6z M213.5,149.8c-2.3,0.5-5.5,0.2-9.3-1c0,0,0,0,0,0c-3.5-1.6-7.3-4.5-11.2-8.6
			c3.6,0.6,6.3-0.3,8.1-2.5l0.8,0.6c5.7,4.2,11,7.6,15.5,9.9L213.5,149.8z M229.6,147.9c-2.4,0.9-6.1,0.9-11.1,0c0,0,0,0-0.1,0
			c0,0,0,0-0.1,0l-0.1,0c-4.5-2.2-10-5.7-15.9-10.1c3.1,0.1,5.5-0.9,7.4-2.7c6,3.3,14.1,6.4,24.9,9.4L229.6,147.9z M240.4,142.4
			c-1.1,0.7-2.8,1.2-4.8,1.5c-0.1,0-0.1,0-0.2,0.1l0,0c-10.6-2.9-18.7-6-24.7-9.2c3.7-0.4,6.3-2,7.6-4.7c8,4.7,16.2,7.6,24.9,8.9
			C242.3,140.6,241.3,141.7,240.4,142.4z M255,128.9c-1,3.3-4.7,6.5-11.1,9.5c-9-1.3-17.4-4.3-25.6-9.1l0,0
			c-1.7-0.9-3.4-2.1-5.2-3.3l-13.4-9.4c0,0,0,0,0,0l-3.7-2.5l-0.1-0.1c0,0,0,0,0,0c-4.3-3-8.4-5.3-12.3-7.1
			c-3.2-1.4-6.9-1.8-10.9-1.2h0h-0.1c-1.3,0-2.3,0.3-2.9,1c-0.5,0.6-0.7,1.4-0.6,2.4c0,0.2,0.1,0.4,0.4,0.3c0.2,0,0.3-0.2,0.3-0.4
			c-0.1-0.8,0.1-1.4,0.4-1.8c0.5-0.5,1.3-0.8,2.4-0.8h0.1l2.4,0.3c0.4,0.3,0.9,1.1,1.4,2.6c0.1,2-0.2,3.5-1.2,4.5
			c-0.8,0.9-2.2,1.4-4,1.4c-2.1,0-3.6-0.6-4.5-1.9l0,0c-0.6-0.8-1-1.8-1.2-3.1c0-0.1,0-0.1,0-0.1c-0.2-0.4-0.2-1-0.2-1.5
			c-0.1-2.9,1.1-5.3,3.6-7.4c3.2-2.4,7.4-3.1,12.8-2.1c5.6,1.2,10.8,3.3,15.4,6.5l17.5,12.3c3.9,2.4,6.7,3.9,8.4,4.6
			c2.2,0.9,5.8,1.8,10.9,2.8c6.9,1.2,13.7,0.7,20.3-1.7C255.3,125.4,255.6,127.2,255,128.9z"/>
	</g>
</g>
</svg>
