<?xml version="1.0" encoding="utf-8"?>
<!-- Generator: Adobe Illustrator 24.0.0, SVG Export Plug-In . SVG Version: 6.00 Build 0)  -->
<svg version="1.1" id="Layer_1" xmlns="http://www.w3.org/2000/svg" xmlns:xlink="http://www.w3.org/1999/xlink" x="0px" y="0px"
	 viewBox="0 0 256 256" style="enable-background:new 0 0 256 256;" xml:space="preserve">
<style type="text/css">
	.st0{fill:#8699A3;}
</style>
<g>
	<g>
		<polygon class="st0" points="130.14,101.31 124.18,107.78 130.14,107.78 		"/>
		<polygon class="st0" points="149.78,124.3 149.55,124.3 148.29,129.59 150.96,129.59 		"/>
		<path class="st0" d="M75.87,136.68h103.99V118.9h-45.36H75.87V136.68z M158.88,121.65h4.89l3.85,9.52v-9.52h3.13v12.87h-4.9
			l-3.84-9.63v9.63h-3.13V121.65z M147.11,121.65h5.1l3.44,12.87h-3.53l-0.58-2.31h-3.84l-0.59,2.31h-3.53L147.11,121.65z
			 M129.98,127.23c0-1.96,0.39-3.42,1.14-4.33c0.71-0.97,1.97-1.44,3.57-1.44h1.84c1.29,0,2.43,0.31,3.26,1.05
			c0.87,0.7,1.26,1.57,1.26,2.55v0.59h-3.34c0-0.79-0.59-1.18-1.76-1.18h-0.79c-0.86,0-1.37,0.2-1.65,0.51
			c-0.19,0.32-0.22,1-0.22,2.05v2.08c0,0.99,0.03,1.65,0.22,1.97c0.28,0.32,0.79,0.51,1.65,0.51h0.91l1.33-0.25
			c0.24-0.19,0.39-0.55,0.39-0.99v-0.54h-1.92v-2.4h5.18v2.19c0,1.73-0.39,2.94-1.09,3.83c-0.75,0.77-1.92,1.17-3.49,1.17h-2.2
			c-2.82,0-4.27-1.84-4.27-5.44V127.23L129.98,127.23z M116.46,121.65h5.05c1.76,0,2.97,0.2,3.72,0.68c0.83,0.5,1.22,1.42,1.22,2.79
			v1.06c0,1.77-0.79,2.76-2.39,2.94c0.82,0.12,1.41,0.4,1.81,0.87c0.38,0.4,0.58,0.99,0.58,1.83v2.7h-3.37v-2.36
			c0-0.54-0.16-0.93-0.35-1.13c-0.22-0.2-0.6-0.31-1.11-0.31h-1.83v3.81h-3.33V121.65L116.46,121.65z M101.64,126.69
			c0-1.89,0.31-3.26,0.98-4.06c0.71-0.78,1.96-1.17,3.72-1.17h1.57c1.76,0,3.02,0.39,3.72,1.17c0.71,0.81,1.06,2.17,1.06,4.06v2.7
			c0,1.9-0.35,3.27-1.06,4.07c-0.7,0.77-1.96,1.17-3.72,1.17h-1.57c-1.76,0-3.01-0.4-3.72-1.17c-0.67-0.79-0.98-2.17-0.98-4.07
			V126.69z M83.01,121.65h4.82l2.55,9.33l2.55-9.33h4.85v12.87h-3.3v-9.52l-2.38,9.52h-3.34l-2.51-9.6v9.6h-3.25V121.65
			L83.01,121.65z"/>
		<path class="st0" d="M122.73,127.47c0.19-0.19,0.35-0.5,0.35-1.02v-0.54c0-0.6-0.16-1-0.35-1.19c-0.22-0.19-0.51-0.24-1.09-0.24
			h-1.85v3.34h1.85C122.22,127.82,122.52,127.67,122.73,127.47z"/>
		<polygon class="st0" points="130.14,152.13 130.14,145.72 124.18,152.13 		"/>
		<path class="st0" d="M106.8,131.6h0.64c0.78,0,1.33-0.2,1.56-0.51c0.19-0.32,0.27-0.98,0.27-1.97v-2.08
			c0-1.06-0.08-1.72-0.27-2.05c-0.23-0.3-0.78-0.51-1.56-0.51h-0.64c-0.78,0-1.34,0.21-1.52,0.51c-0.2,0.33-0.31,1-0.31,2.05v2.08
			c0,0.99,0.11,1.65,0.31,1.97C105.47,131.41,106.02,131.6,106.8,131.6z"/>
		<path class="st0" d="M254.3,122.78c-6.52,2.36-13.31,2.95-20.16,1.76c-5.13-0.98-8.67-1.88-10.84-2.74
			c-1.67-0.67-4.37-2.14-8.24-4.49l-17.49-12.28c-4.7-3.22-9.95-5.47-15.63-6.65c-5.58-1-9.96-0.26-13.37,2.28
			c-2.57,2.1-3.87,4.66-3.91,7.61c-1.93-3.71-4.43-7.13-7.43-10.17c-8.03-8.22-17.83-12.38-29.15-12.38
			c-11.34,0-21.14,4.16-29.19,12.38c-3.15,3.26-5.67,6.73-7.47,10.32c0.27-3.32-0.99-6.06-3.8-8.18c-3.43-2.25-8.02-2.81-13.59-1.61
			c-5.17,0.96-10.44,3.16-15.63,6.55l-17.47,12.26c-3.44,2.19-6.31,3.78-8.03,4.49c-2.62,0.97-6.26,1.89-10.85,2.74
			c-5.93,1.06-12.78,0.51-20.38-1.65c-0.17-0.04-0.32,0.03-0.4,0.17c-1.25,2.06-1.59,4.12-0.97,6.13
			c1.04,3.49,4.98,6.88,11.66,10.04c0.03,0.01,0.05,0.02,0.08,0.02c1.4,2,2.34,3.07,3.26,3.69c1.16,0.76,2.84,1.31,5.11,1.66
			c4.52,3.79,10.32,5.18,17.18,4.15c3.29,1.37,4.48,1.84,4.88,1.91c2.51,0.53,5.77,0.14,9.93-1.23c2.66,1.16,5.66,1.43,9.23,0.83
			c4.16-1.35,7.92-3.98,11.13-7.85c0.01,0,0.01-0.01,0.02-0.01l0.47-0.59c-0.26,5.63,0.86,10.01,3.33,12.98
			c2.53,3.06,5.52,4.17,8.94,3.31c1.81,1.92,3.78,3.1,6.03,3.69c2.37,0.53,3.13,0.45,3.47,0.21c0.92,0.88,2.21,1.46,3.82,1.67
			l3.74-0.37c0.5,0.5,1.29,0.9,2.47,1.23c1.07,0.29,1.86,0.32,2.38,0.07c6.16,3.7,13.11,5.57,20.67,5.57c7.65,0,14.65-1.9,20.8-5.64
			l2.06-0.09c0.04-0.01,0.07-0.01,0.1-0.03c1.07-0.36,1.84-0.76,2.44-1.23l3.72,0.25c1.64-0.17,2.86-0.7,3.83-1.65
			c0.33,0.23,1.1,0.31,3.46-0.26c2.3-0.44,4.37-1.73,5.98-3.7c3.54,0.92,6.58-0.2,9.04-3.32c2.36-2.85,3.31-7.21,2.84-12.93
			l0.66,0.8c0,0,0.02,0.01,0.03,0.01c3.47,3.82,7.26,6.4,11.36,7.71c3.63,0.61,6.77,0.34,9.33-0.81l0.19,0.02c0,0,0,0,0.01,0
			c3.93,1.23,7.2,1.61,9.76,1.05l4.59-1.88l0.21-0.06c5.04,0.91,8.87,0.89,11.46-0.06l5.68-3.8c0.01-0.01,0.03-0.02,0.03-0.02
			l0.09-0.08c2.12-0.32,3.84-0.87,5.01-1.62c1.06-0.79,2.14-2.05,3.31-3.86c0.05,0,0.09-0.01,0.12-0.03
			c6.58-3.11,10.44-6.46,11.49-9.95c0.61-2.02,0.29-4.11-0.97-6.21C254.64,122.78,254.46,122.73,254.3,122.78z M90.98,111.09
			c1.8-4.39,4.65-8.6,8.44-12.52c7.99-8.18,17.37-12.15,28.67-12.15c11.12,0,20.75,4.09,28.64,12.15c3.42,3.47,6.15,7.4,8.15,11.7
			c0.21,1.34,0.64,2.48,1.33,3.37l0.92,3.13h-3.11c-1.66-5.98-4.84-11.44-9.49-16.21c-7.27-7.56-16.17-11.39-26.45-11.39
			c-10.41,0-19.38,3.83-26.64,11.39c-4.6,4.71-7.78,10.17-9.51,16.21h-3c0.41-1.52,0.84-2.81,1.32-3.92c0.01,0,0.01-0.01,0.01-0.01
			L90.98,111.09C90.98,111.09,90.98,111.09,90.98,111.09z M177.16,109.17c-0.4-1.42-0.97-2.49-1.62-3.07
			c2.8-0.05,5.42,0.43,7.77,1.43c3.78,1.66,7.79,3.98,11.97,6.89c-0.22,1.75-1.15,2.97-2.83,3.76c-0.08,0.02-0.15,0.1-0.17,0.19
			c-1.02,2.32-2.69,3.62-5.3,4.02c-0.1,0.03-0.17,0.08-0.24,0.17c-1.31,2.03-2.83,3.04-4.57,3v-8.44c0-0.2-0.16-0.35-0.35-0.35
			h-13.93l-0.63-2.1c1.04,0.76,2.38,1.16,4.09,1.16c2,0,3.52-0.55,4.5-1.61C176.87,113.13,177.33,111.45,177.16,109.17z
			 M189.95,126.14c2.22-0.5,3.77-1.72,4.64-3.62c3.91,4.6,8.82,8.71,14.59,12.16c-1.99,1.88-4.54,2.64-7.83,2.37
			C196.4,133.39,192.66,129.81,189.95,126.14z M200.49,137.27c-1.8,2.23-4.63,2.93-8.43,2.08l-9.4-9.22
			c2.86-0.17,5.07-1.35,6.68-3.61C192.03,130.15,195.67,133.67,200.49,137.27z M195.11,122.05c2.19-0.68,3.74-2.24,4.6-4.64
			l13.08,9.14c1.65,1.18,3.33,2.26,4.97,3.2c-1.37,2.73-4.08,4.21-8.1,4.39C203.87,130.7,198.98,126.63,195.11,122.05z
			 M194.42,121.51c-0.06,0-0.11,0.04-0.17,0.06c-0.03,0.05-0.09,0.11-0.09,0.16c-0.77,2.12-2.41,3.41-4.86,3.83
			c-0.05,0-0.09,0.01-0.12,0.04l0,0c-0.02,0.01-0.04,0.02-0.06,0.04c-0.02,0.02-0.06,0.06-0.07,0.08c-1.6,2.46-3.84,3.68-6.88,3.73
			v-3.18c0.04,0,0.08,0,0.13,0c1.88,0,3.54-1.07,4.93-3.2c2.69-0.46,4.55-1.87,5.64-4.3c1.72-0.85,2.74-2.13,3.05-3.91l3.19,2.14
			C198.27,119.5,196.71,120.97,194.42,121.51z M181.48,117.48v20.82h-0.92h-0.01h-7.62c-0.01,0-0.01,0-0.01,0h-5.2
			c-0.02,0-0.02,0-0.02,0h-3.78c-0.01,0-0.01,0-0.03,0h-14.33c0,0,0,0-0.01,0h-3h-0.01h-40.37c-0.01,0-0.01,0-0.01,0h-3.11
			c-0.01,0-0.01,0-0.01,0h-2.93c-0.01,0-0.01,0-0.01,0h-7.91c-0.01,0-0.01,0-0.01,0h-3.66l0,0h-5.35h-0.01h-8.04h-0.01h-0.73v-20.82
			h28.91c0,0,0,0,0.01,0H181.48z M112.67,143.83l3.79,3.04v2.39c-1.88-1.05-3.66-2.43-5.43-4.17c-1.83-1.91-3.28-3.95-4.32-6.1h2.28
			C109.93,140.71,111.13,142.28,112.67,143.83z M109.78,138.99h6.68v6.99l-3.32-2.67C111.77,141.95,110.66,140.53,109.78,138.99z
			 M110.52,145.59c1.94,1.9,3.89,3.37,5.94,4.48v2.18c-4.42-2.19-8.02-5.38-10.74-9.45c-0.78-1.07-1.49-2.33-2.17-3.81h2.37
			C107.02,141.31,108.55,143.54,110.52,145.59z M105.14,143.2c2.84,4.25,6.65,7.55,11.32,9.83v2.36c-5.36-2.5-9.7-6.22-12.89-11.05
			c-1.1-1.59-2.08-3.34-2.98-5.34h2.18C103.51,140.65,104.3,142.02,105.14,143.2z M102.99,144.75c3.32,5.02,7.85,8.86,13.47,11.43
			v7.07c0,0.17,0.17,0.34,0.33,0.34h22.2c0.19,0,0.34-0.17,0.34-0.34v-13.26c2.18-1.21,4.09-2.71,5.87-4.58
			c1.93-2.05,3.46-4.22,4.55-6.41h13.67c-1.62,5.89-4.78,11.21-9.4,15.85c-7.12,7.42-15.85,11.18-25.93,11.18
			c-10.21,0-19.01-3.76-26.14-11.18c-4.55-4.66-7.69-9.98-9.35-15.85h7.24C100.78,141.14,101.81,143.04,102.99,144.75z
			 M137.43,161.45v-22.46h1.2v7.71v0.01v3.06c0,0,0,0,0,0.01v13.11h-21.47v-6.93v-0.02v-3.13c0-0.01,0-0.01,0-0.01v-2.95
			c0,0,0,0,0-0.01v-3.13v-0.01v-7.71h1.2v22.46H137.43L137.43,161.45z M132.42,152.13v1.27h-1.39v2.2h-0.89v-2.2h-7.03v-1.74
			l6.63-6.99h1.29v7.46H132.42L132.42,152.13z M143.33,143.53c1.37-1.44,2.5-2.97,3.41-4.52h2.25c-1.05,2.05-2.47,4-4.29,5.93
			c-1.63,1.7-3.39,3.1-5.36,4.24v-2.28C140.89,145.88,142.19,144.76,143.33,143.53z M139.34,146.05v-7.06h6.58
			c-0.84,1.4-1.87,2.76-3.09,4.06C141.82,144.16,140.67,145.13,139.34,146.05z M61.45,122.75c1.05,1.99,2.65,3.17,4.73,3.51
			c-2.88,3.8-6.71,7.47-11.42,10.91c-3.37,0.47-5.96-0.31-7.91-2.39C52.87,131.19,57.66,127.25,61.45,122.75z M46.25,134.34
			c-0.04,0.02-0.05,0.03-0.08,0.07c-3.6-0.08-6.11-1.59-7.67-4.56l4.79-3.07l13.13-9.17c0.79,2.35,2.28,3.89,4.49,4.7
			C57.12,126.79,52.33,130.74,46.25,134.34z M66.79,126.59c1.4,2.13,3.17,3.33,5.3,3.61c-1.74,2.51-4.43,5.63-8,9.3
			c-3.65,0.8-6.55,0.15-8.66-1.95C60.09,134.11,63.91,130.42,66.79,126.59z M67.12,125.8c-0.01-0.04-0.04-0.07-0.08-0.09
			c-0.01,0-0.02-0.01-0.04-0.01l0,0l0,0c-0.05-0.04-0.11-0.06-0.17-0.06c-2.31-0.21-3.94-1.39-5-3.65c0-0.01-0.02-0.03-0.02-0.04
			l0,0c-0.03-0.08-0.09-0.12-0.16-0.15l0,0l0,0c-0.01,0-0.01,0-0.01,0l0,0l0,0l0,0l0,0l0,0l0,0l0,0l0,0c-0.01,0-0.01,0-0.01,0l0,0
			l0,0l0,0l0,0c-0.01-0.01-0.01-0.01-0.02-0.01c-2.35-0.71-3.81-2.16-4.58-4.59l3.09-2.13c0.47,1.78,1.51,3.06,3.08,3.81
			c1.14,2.64,3.05,4.11,5.68,4.37c1.38,2.24,2.97,3.27,4.75,3.12v3.2h-0.93l0,0C70.42,129.44,68.55,128.2,67.12,125.8z M69.4,122.73
			c-0.07-0.1-0.18-0.15-0.28-0.16c-2.51-0.19-4.25-1.52-5.31-4.08c-0.04-0.08-0.1-0.15-0.19-0.19c-1.53-0.71-2.48-1.9-2.88-3.65
			c4.52-3.15,8.6-5.49,12.08-6.96c2.45-1.03,5.03-1.49,7.75-1.41c-0.66,0.59-1.21,1.58-1.63,3.01c-0.22,2.21,0.19,3.92,1.21,5.04
			c1,1.09,2.54,1.64,4.61,1.64c1.67,0,3.03-0.47,4.12-1.41c-0.22,0.68-0.45,1.41-0.65,2.19H73.98c-0.19,0-0.34,0.16-0.34,0.35v8.55
			C72.07,125.81,70.66,124.86,69.4,122.73z M143.55,112.36c-1.32-1.34-2.7-2.38-4.21-3.22V107c1.84,0.99,3.61,2.28,5.37,3.98
			c1.84,1.7,3.32,3.64,4.4,5.79h-2.26C146.06,115.23,144.98,113.78,143.55,112.36z M146.06,116.77h-6.72v-6.83
			c1.32,0.77,2.54,1.72,3.73,2.91C144.33,114.13,145.32,115.41,146.06,116.77z M145.21,110.46c-1.92-1.84-3.83-3.24-5.87-4.26v-2.35
			c2.68,1.41,5.23,3.32,7.8,5.87c0.15,0.12,0.36,0.12,0.49-0.02c0.15-0.13,0.15-0.35,0-0.5c-2.72-2.68-5.44-4.7-8.29-6.13v-2.14
			l4.75,2.62c0.17,0.09,0.38,0.03,0.48-0.14c0.08-0.16,0.04-0.39-0.14-0.47l-5.07-2.82v-7.3c0-0.19-0.16-0.35-0.34-0.35h-22.21
			c-0.17,0-0.33,0.16-0.33,0.35v7.37c-3.48,1.5-6.59,3.67-9.5,6.54c-3.07,3.01-5.44,6.39-7.05,10.05h-7.24
			c1.7-5.85,4.82-11.14,9.28-15.72c7.13-7.43,15.93-11.19,26.14-11.19c10.09,0,18.81,3.76,25.93,11.19
			c4.51,4.63,7.64,9.93,9.29,15.72h-13.44C148.76,114.43,147.17,112.3,145.21,110.46z M118.36,94.71v22.06h-1.2v-7.18
			c0-0.01,0-0.01,0-0.02v-3.14c0,0,0-0.01,0-0.02v-3.11c0-0.02,0-0.02,0-0.02v-2.86c0-0.01,0-0.01,0-0.02v-7.24h21.47v7.16
			c0,0,0,0.01,0,0.02v2.93c0,0,0,0,0,0.01v3.12c0,0.01,0,0.02,0,0.02v2.91c0,0.01,0,0.01,0,0.01v7.43h-1.2V94.71H118.36z
			 M123.11,108.98v-1.69l6.63-6.99h1.29v7.48h1.39v1.21h-1.39v2.24h-0.89v-2.24H123.11L123.11,108.98z M112.25,112.63
			c-1.22,1.18-2.32,2.62-3.17,4.14h-2.26c1.12-2.11,2.52-4.01,4.2-5.68c1.56-1.57,3.34-2.91,5.43-4.08v2.36
			C114.91,110.24,113.49,111.35,112.25,112.63z M116.46,110.18v6.6h-6.58c0.79-1.34,1.77-2.6,2.86-3.65
			C113.85,111.97,115.1,110.99,116.46,110.18z M110.52,110.58c-1.8,1.8-3.3,3.89-4.47,6.19h-2.24c1.28-2.82,3.1-5.38,5.44-7.66
			c2.1-2.17,4.46-3.9,7.21-5.27v2.37C114.16,107.46,112.22,108.9,110.52,110.58z M108.76,108.62c-2.48,2.4-4.4,5.14-5.7,8.15h-2.38
			c1.56-3.47,3.85-6.68,6.77-9.55c2.76-2.75,5.73-4.79,9.02-6.27v2.11C113.5,104.47,110.99,106.31,108.76,108.62z M0.97,129.1
			c-0.53-1.73-0.27-3.53,0.77-5.35c7.6,2.15,14.49,2.67,20.44,1.59c4.64-0.87,8.33-1.8,10.98-2.77c1.77-0.72,4.66-2.34,8.19-4.57
			l17.46-12.26c5.11-3.33,10.27-5.52,15.38-6.45c5.4-1.15,9.79-0.62,13.05,1.51c2.71,2.05,3.84,4.64,3.47,7.9l-0.39,2.16l-0.68,1.7
			c-1.09,1.84-2.68,2.73-4.87,2.73c-1.87,0-3.25-0.48-4.08-1.4c-0.9-0.98-1.25-2.5-1.07-4.44c0.39-1.31,0.89-2.23,1.49-2.69
			l1.65-0.3h0.84c1.1,0,1.9,0.25,2.34,0.75c0.37,0.4,0.52,1.01,0.44,1.81c-0.02,0.19,0.11,0.38,0.3,0.4
			c0.2,0.03,0.37-0.12,0.39-0.32c0.09-1-0.11-1.81-0.62-2.37c-0.58-0.63-1.55-0.96-2.86-0.96h-0.84c-3.59-0.46-7.01-0.02-10.21,1.29
			c-3.57,1.51-7.74,3.93-12.39,7.16l-3.73,2.54l0,0L42.9,126.2l-5.04,3.2l0,0c-8.06,4.8-16.7,7.91-25.69,9.26
			C5.73,135.62,1.95,132.4,0.97,129.1z M15.68,142.49c-0.76-0.54-1.63-1.5-2.84-3.22c8.76-1.38,17.18-4.43,25.06-9.08
			c1.55,2.92,3.93,4.5,7.23,4.84c-5.83,3.22-13.89,6.17-24.59,8.99C18.33,143.71,16.76,143.2,15.68,142.49z M37.55,148.17
			c-6.48,1-11.94-0.23-16.25-3.62c10.95-2.92,19.14-5.99,24.97-9.36c1.92,2.09,4.36,3.01,7.51,2.78
			C47.64,142.49,42.18,145.92,37.55,148.17z M52.29,148.86c-4.05,1.32-7.3,1.75-9.68,1.24c-0.4-0.07-2.17-0.8-4.13-1.59
			c4.57-2.31,9.9-5.68,15.85-10.05l0.54-0.46c2.08,2.12,4.88,2.91,8.34,2.38C58.94,144.51,55.37,147.29,52.29,148.86z M61.47,149.71
			c-3.14,0.53-5.85,0.34-8.22-0.57c3.04-1.67,6.55-4.45,10.68-8.49l0.48-0.46c1.8,1.46,4.21,2.26,7.37,2.42
			C68.71,146.13,65.32,148.44,61.47,149.71z M72.33,141.95c-3.21-0.1-5.65-0.84-7.44-2.27c3.66-3.78,6.27-6.86,8-9.43h0.76v8.37
			c0,0.22,0.15,0.36,0.34,0.36h0.47l-1.05,1.66L72.33,141.95z M77.11,154.47c-2.5-3.01-3.55-7.54-3.09-13.51l1.26-1.95h7.46
			c-0.8,8.12-0.02,14.39,2.37,18.62C82.07,158.26,79.39,157.22,77.11,154.47z M91.72,161.25c-2.15-0.55-4.05-1.74-5.81-3.61
			c-2.46-4.12-3.31-10.37-2.46-18.63h4.77c0.85,3.51,2.14,6.77,3.92,9.99l0.19,0.29c-0.32,4.79,0.43,8.91,2.23,12.29
			C94.37,161.62,93.7,161.68,91.72,161.25z M98.85,163.11c-1.53-0.21-2.76-0.82-3.6-1.75c-1.66-3.03-2.42-6.74-2.28-11.01
			c1.61,2.56,3.57,5.07,5.94,7.61l3.16,2.91c0.05,0.96,0.08,1.52,0.14,1.9L98.85,163.11z M105.25,164c-1.13-0.34-1.87-0.7-2.25-1.14
			c-0.02-0.04-0.05-0.07-0.09-0.08c-0.05-0.22-0.08-0.7-0.11-1.3c1.31,1.04,2.53,1.95,3.78,2.73
			C106.27,164.22,105.86,164.17,105.25,164z M153.13,162.7c-0.52,0.45-1.24,0.82-2.24,1.16l-0.81,0.05
			c1.08-0.73,2.19-1.57,3.42-2.58C153.48,161.96,153.35,162.4,153.13,162.7z M148.62,164.03c-6.06,3.7-12.97,5.57-20.52,5.57
			c-7.49,0-14.39-1.87-20.48-5.57l0,0c-1.66-1.01-3.26-2.15-4.97-3.6l-3.23-2.96c-2.61-2.79-4.72-5.54-6.43-8.45
			c0-0.01-0.01-0.04-0.02-0.06l-0.26-0.34c-1.68-3.09-2.92-6.25-3.78-9.63h2.94c1.67,6.06,4.89,11.55,9.58,16.33
			c7.27,7.56,16.23,11.39,26.64,11.39c10.27,0,19.18-3.83,26.43-11.38c4.75-4.77,7.99-10.26,9.63-16.34h3.08
			c-0.97,3.8-2.44,7.39-4.35,10.67c-1.78,2.76-3.78,5.33-6.14,7.79l-3.13,2.86C151.78,161.88,150.18,163.06,148.62,164.03z
			 M160.87,161.09c-0.89,1.03-2.08,1.58-3.65,1.8l-3.26-0.24c0.2-0.5,0.27-1.09,0.26-1.92l3.03-2.77c2.14-2.26,3.99-4.55,5.65-7.01
			C163.01,155.31,162.33,158.71,160.87,161.09z M170.07,157.36c-1.51,1.94-3.48,3.18-5.71,3.6c-1.99,0.49-2.64,0.45-2.84,0.4
			c1.62-2.7,2.28-6.45,2.02-11.42c1.95-3.38,3.45-7.05,4.43-10.94h4.62C173.53,147.3,172.7,153.31,170.07,157.36z M179,154.2
			c-2.27,2.85-4.93,3.86-8.08,3.15c2.51-4.17,3.29-10.19,2.39-18.36h7.07l1.18,1.74C182.23,146.78,181.36,151.31,179,154.2z
			 M182.17,140.39l-0.95-1.4h0.6c0.19,0,0.35-0.14,0.35-0.36v-8.01l9.02,8.84c-1.76,1.56-4.36,2.39-7.71,2.49L182.17,140.39z
			 M194.59,149.55c-3.73-1.19-7.26-3.53-10.51-6.93c3.23-0.19,5.77-1.05,7.54-2.61h0.12l0.48,0.5c3.8,3.88,7.43,6.73,10.78,8.47
			C200.65,149.9,197.81,150.09,194.59,149.55z M213.5,149.82c-2.32,0.51-5.5,0.16-9.29-1.02c0-0.01-0.01-0.01-0.01-0.01
			c-3.47-1.62-7.26-4.51-11.25-8.55c3.55,0.58,6.28-0.26,8.1-2.54l0.83,0.64c5.67,4.24,11,7.65,15.48,9.92L213.5,149.82z
			 M229.64,147.87c-2.4,0.89-6.15,0.88-11.1-0.01c-0.03,0-0.04,0-0.08,0c-0.02,0-0.04,0-0.09,0.01l-0.15,0.03
			c-4.53-2.24-10.03-5.72-15.9-10.11c3.1,0.08,5.53-0.85,7.45-2.73c5.96,3.34,14.08,6.43,24.85,9.44L229.64,147.87z M240.36,142.41
			c-1.07,0.69-2.75,1.22-4.8,1.5c-0.06,0.02-0.11,0.04-0.17,0.07l-0.01,0.03c-10.64-2.94-18.72-5.98-24.67-9.22
			c3.72-0.4,6.29-1.99,7.64-4.68c7.99,4.67,16.16,7.59,24.95,8.9C242.26,140.6,241.28,141.7,240.36,142.41z M255.03,128.93
			c-0.99,3.27-4.7,6.46-11.05,9.47c-9.03-1.28-17.4-4.26-25.61-9.09l-0.02-0.01c-1.69-0.95-3.45-2.07-5.17-3.32l-13.43-9.41
			c-0.02-0.01-0.04-0.01-0.04-0.01l-3.7-2.46l-0.15-0.12c0,0-0.02-0.01-0.03-0.01c-4.27-2.98-8.4-5.35-12.26-7.08
			c-3.22-1.37-6.94-1.81-10.92-1.24h-0.01h-0.14c-1.33,0-2.3,0.34-2.89,0.98c-0.53,0.59-0.74,1.38-0.63,2.39
			c0.01,0.19,0.15,0.36,0.38,0.32c0.18-0.02,0.33-0.18,0.32-0.38c-0.08-0.8,0.08-1.43,0.43-1.85c0.47-0.5,1.26-0.75,2.39-0.75h0.12
			l2.44,0.3c0.35,0.3,0.92,1.05,1.41,2.63c0.13,2.02-0.25,3.54-1.16,4.48c-0.84,0.91-2.18,1.37-3.98,1.37
			c-2.09,0-3.58-0.62-4.54-1.86l-0.01-0.02c-0.59-0.77-1.01-1.81-1.2-3.08c0-0.05-0.02-0.09-0.03-0.12
			c-0.16-0.43-0.17-1.03-0.17-1.46c-0.08-2.86,1.15-5.34,3.62-7.38c3.25-2.4,7.43-3.1,12.81-2.13c5.57,1.16,10.75,3.35,15.37,6.54
			l17.5,12.28c3.92,2.39,6.67,3.88,8.37,4.57c2.2,0.88,5.78,1.78,10.95,2.75c6.87,1.23,13.69,0.66,20.27-1.67
			C255.31,125.37,255.56,127.18,255.03,128.93z"/>
	</g>
</g>
</svg>
