<svg xmlns="http://www.w3.org/2000/svg" viewBox="0 0 250 250"><path d="M80 65.6a28.7 28.7 0 0028.7-28.7C108.7 21 95.9 8.2 80 8.2 64.1 8.2 51.3 21 51.3 36.9c0 15.9 12.8 28.7 28.7 28.7zm0-51.5a22.79 22.79 0 110 45.6 22.79 22.79 0 110-45.6z"/><path d="M247 115.5h-38.3V98.7h35.4a3 3 0 003-3V34.1a3 3 0 00-3-3h-99.9a3 3 0 00-3 3v61.6a3 3 0 003 3h35.2v16.9H130c-2.6-27.7-27.2-48-54.9-45.4-.3 0-.6.1-.9.1-1.9.2-3.8.5-5.6 1a49.96 49.96 0 00-38.8 44.2H3a3 3 0 00-3 3v14.8a3 3 0 003 3h11.9v89.4a3 3 0 003 3h11.9v10.2a3 3 0 003 3h14.8a3 3 0 003-3v-10.2h149.3v10.2a3 3 0 003 3h14.8a3 3 0 003-3v-10.2h11.9a3 3 0 003-3v-89.4H247a3 3 0 003-3v-14.8a3 3 0 00-3-3zm-99.9-22.7V37h94v55.7h-94zm55.7 5.9v16.9h-17.5V98.7h17.5zM92.9 77.9a43.8 43.8 0 0131 37.6H98L90.9 90l2-12.1zm-1 37.6h-24L74 93.1h11.4l6.5 22.4zM74.1 76.3l1.2-.1c3-.3 6.1-.3 9.1 0h1.2l1.5.2L85.3 87h-11l-1.7-10.3c.5-.3 1-.4 1.5-.4zm-7.3 1.6l2 12.1-7.1 25.5H35.8c1.8-17.6 14-32.5 31-37.6zm-22.4 158h-8.9v-7.2h8.9v7.2zm170 0h-8.9v-7.2h8.9v7.2zm14.9-13.1H20.7v-86.5h208.5v86.5zm14.8-92.4H5.9v-8.9H244v8.9z"/></svg>