<svg xmlns="http://www.w3.org/2000/svg" viewBox="0 0 26.82 32.75"><defs><style>.a{fill:none;stroke:#000;stroke-linecap:round;stroke-linejoin:round;stroke-width:0.75px;}</style></defs><title>12</title><path class="a" d="M8.56,15.43,7.07,4.78a4.2,4.2,0,0,1,1-3.33A4.11,4.11,0,0,1,11.23,0h9.54a4.14,4.14,0,0,1,3.15,1.45,4.34,4.34,0,0,1,1,3.33L23.44,15.43a1.13,1.13,0,0,1-1.09,1H9.65A1.09,1.09,0,0,1,8.56,15.43Z" transform="translate(-2.59 0.38)"/><circle class="a" cx="5.04" cy="31.94" r="0.44"/><circle class="a" cx="13.23" cy="31.94" r="0.44"/><circle class="a" cx="21.78" cy="31.94" r="0.44"/><path class="a" d="M26.64,20.12a1.06,1.06,0,0,1-1.05,1.05H6.41a1.06,1.06,0,0,1-1-1.05V19.9a1.06,1.06,0,0,1,1-1H25.59a1.06,1.06,0,0,1,1.05,1Z" transform="translate(-2.59 0.38)"/><line class="a" x1="13.23" y1="17.06" x2="13.23" y2="19.03"/><line class="a" x1="24.48" y1="12.57" x2="26.45" y2="12.57"/><line class="a" x1="0.38" y1="12.57" x2="2.35" y2="12.57"/><line class="a" x1="13.23" y1="21.55" x2="13.23" y2="27.86"/><line class="a" x1="13.23" y1="27.86" x2="5.04" y2="31.5"/><line class="a" x1="13.23" y1="27.86" x2="13.23" y2="31.5"/><line class="a" x1="13.23" y1="27.86" x2="21.78" y2="31.5"/><path class="a" d="M5.37,20.3S4,20,4,19.16V12.8" transform="translate(-2.59 0.38)"/><path class="a" d="M26.63,20.29s1.42-.25,1.42-1.13V12.8" transform="translate(-2.59 0.38)"/></svg>