<?xml version="1.0" encoding="utf-8"?>
<!-- Generator: Adobe Illustrator 24.0.0, SVG Export Plug-In . SVG Version: 6.00 Build 0)  -->
<svg version="1.1" id="Layer_1" xmlns="http://www.w3.org/2000/svg" xmlns:xlink="http://www.w3.org/1999/xlink" x="0px" y="0px"
	 viewBox="0 0 256 256" style="enable-background:new 0 0 256 256;" xml:space="preserve">
<g>
	<path d="M128.2,147c-6.5,0-12.9-0.2-19.2-0.5l22.1-62.9l45,97.6h29.9l-14.7-23.9l1.8,2.7c37.6-8,62.7-22.7,62.7-39.6
		c0-21-39.5-38.8-93.3-44.2l0.1,0.2c-4.5-0.5-9.2-0.8-13.9-1.1l0.4,0.4c0,0,0,0-0.1,0l6.5,8.6c0,0,13.6,1.2,24.8,2.6
		c30.5,5,51.9,14.3,54.9,25.2c0.2,0.7,0.3,1.4,0.3,2.2c0,9.4-13.5,18-35.1,23.8l0.2,0.2c-5.6,1.5-11.8,2.8-18.4,4l-41.1-66.9h-19.9
		l-36,68.6c-8.2-1.1-15.9-2.4-22.8-4l0.2-0.1c-25.4-5.9-41.8-15-42.1-25.3c0.3-12.4,24.3-23.1,59.2-28.3c12.4-1.6,28.6-2.9,28.6-2.9
		l6.9-8.6c-2.4,0-4.8,0.1-7.1,0.3c-4.3,0.2-8.6,0.6-12.7,0.9l0.1-0.1c-14.6,1.4-28.1,3.7-40.2,6.7C55.2,82.9,55,83,54.7,83
		c-1,0.3-1.9,0.5-2.9,0.8c-0.8,0.2-1.6,0.5-2.5,0.7c-0.1,0.1-0.2,0.1-0.4,0.1C19.2,93,0,106,0,120.7c0,14.7,19.3,27.8,49.3,36.2
		l0.1-0.1c8.1,2.3,17,4.2,26.5,5.8l-9.9,18.9h30.8l5.6-15.8c8.3,0.6,17,1,25.9,1c9.5,0,18.8-0.4,27.7-1.1l-7.3-18.8
		C143.6,146.9,133.5,147,128.2,147z"/>
</g>
</svg>
