<svg xmlns="http://www.w3.org/2000/svg" viewBox="0 0 256 256"><path d="M128.2 147c-6.5 0-12.9-.2-19.2-.5l22.1-62.9 45 97.6H206l-14.7-23.9 1.8 2.7c37.6-8 62.7-22.7 62.7-39.6 0-21-39.5-38.8-93.3-44.2l.1.2c-4.5-.5-9.2-.8-13.9-1.1l.4.4s0 0-.1 0l6.5 8.6s13.6 1.2 24.8 2.6c30.5 5 51.9 14.3 54.9 25.2.2.7.3 1.4.3 2.2 0 9.4-13.5 18-35.1 23.8l.2.2c-5.6 1.5-11.8 2.8-18.4 4l-41.1-66.9h-19.9l-36 68.6c-8.2-1.1-15.9-2.4-22.8-4l.2-.1c-25.4-5.9-41.8-15-42.1-25.3.3-12.4 24.3-23.1 59.2-28.3 12.4-1.6 28.6-2.9 28.6-2.9l6.9-8.6c-2.4 0-4.8.1-7.1.3-4.3.2-8.6.6-12.7.9l.1-.1c-14.6 1.4-28.1 3.7-40.2 6.7-.1.3-.3.4-.6.4-1 .3-1.9.5-2.9.8-.8.2-1.6.5-2.5.7-.1.1-.2.1-.4.1C19.2 93 0 106 0 120.7c0 14.7 19.3 27.8 49.3 36.2l.1-.1c8.1 2.3 17 4.2 26.5 5.8L66 181.5h30.8l5.6-15.8c8.3.6 17 1 25.9 1 9.5 0 18.8-.4 27.7-1.1l-7.3-18.8c-5.1.1-15.2.2-20.5.2z"/></svg>