<svg xmlns="http://www.w3.org/2000/svg" viewBox="0 0 27.52 32.75"><defs><style>.a{fill:none;stroke:#000;stroke-linecap:round;stroke-linejoin:round;stroke-width:0.75px;}</style></defs><title>1201</title><path class="a" d="M3.19,20.81a1.78,1.78,0,0,0,2.5-.1l1.36-1.46v8.28A1.77,1.77,0,0,0,8.82,29.3a2.26,2.26,0,0,0,1.23-.38v1.32a1.77,1.77,0,0,0,3.54,0V30a1.81,1.81,0,0,0,1.1.38,1.77,1.77,0,0,0,1.77-1.77v-.14a1.77,1.77,0,0,0,2.86-1.39V6.84a1.79,1.79,0,0,0-1.79-1.78H9A1.91,1.91,0,0,0,7.05,6.84v6.59a1.6,1.6,0,0,1-.42,1.07L3.09,18.31A1.76,1.76,0,0,0,3.19,20.81Z" transform="translate(-2.24 0.38)"/><line class="a" x1="7.8" y1="29.29" x2="7.8" y2="17.68"/><line class="a" x1="11.35" y1="30.38" x2="11.35" y2="17.68"/><line class="a" x1="14.22" y1="28.85" x2="14.22" y2="17.68"/><line class="a" x1="10.77" y1="9.03" x2="16.71" y2="9.03"/><path class="a" d="M21,0a8.44,8.44,0,1,0,0,16.87,8.19,8.19,0,0,0,5.94-2.46,8.23,8.23,0,0,0,2.49-6A8.46,8.46,0,0,0,21,0Z" transform="translate(-2.24 0.38)"/><line class="a" x1="23.46" y1="15.76" x2="26.77" y2="23.26"/><path class="a" d="M25.62,6a2.72,2.72,0,0,0-2.71-2.71" transform="translate(-2.24 0.38)"/></svg>