<svg xmlns="http://www.w3.org/2000/svg" viewBox="0 0 32.75 27.63"><defs><style>.a{fill:none;stroke:#000;stroke-linecap:round;stroke-linejoin:round;stroke-width:0.75px;}</style></defs><title>122</title><path class="a" d="M32,3.19a.75.75,0,0,0-.17-.44l0,0a.55.55,0,0,0-.45-.16L16,5.31.58,2.56a.54.54,0,0,0-.41.19A.7.7,0,0,0,0,3.22V21.75a.69.69,0,0,0,.31.59l15.41,7a.57.57,0,0,0,.28.08.45.45,0,0,0,.26-.08l15.44-7a.68.68,0,0,0,.3-.58Z" transform="translate(0.38 -2.19)"/><polyline class="a" points="16.39 3.12 16.39 17.18 32.38 19.56"/><line class="a" x1="16.39" y1="17.18" x2="0.68" y2="20.15"/><polyline class="a" points="11.24 17.89 11.24 10.49 7.42 9.66 7.42 18.85"/><polygon class="a" points="26.23 5.9 29.4 5.18 29.4 9.37 26.23 9.37 26.23 5.9"/><polygon class="a" points="22.01 6.83 24.55 6.25 24.55 9.61 22.01 9.61 22.01 6.83"/></svg>