<?xml version="1.0" encoding="utf-8"?>
<!-- Generator: Adobe Illustrator 24.0.0, SVG Export Plug-In . SVG Version: 6.00 Build 0)  -->
<svg version="1.1" id="Layer_1" xmlns="http://www.w3.org/2000/svg" xmlns:xlink="http://www.w3.org/1999/xlink" x="0px" y="0px"
	 viewBox="0 0 256 256" style="enable-background:new 0 0 256 256;" xml:space="preserve">
<path d="M255.9,166.9c0-0.2,0.1-0.3,0.1-0.4v-150c0-1.3-0.6-2.5-1.6-3.4s-2.2-1.2-3.6-1L128.7,30.5L5.1,12.1c-1.3-0.2-2.6,0.2-3.6,1
	c-1,0.9-1.5,2.1-1.5,3.4v150c0,0.2,0.1,0.3,0.1,0.5c0,0.4,0.1,0.8,0.3,1.2c0.1,0.2,0.2,0.4,0.3,0.6c0.2,0.3,0.4,0.6,0.7,0.9
	c0.1,0.1,0.1,0.2,0.3,0.3c0.1,0.1,0.2,0,0.2,0.1c0.2,0.1,0.3,0.3,0.5,0.4l122.8,63.8c0.6,0.3,1.3,0.5,2.1,0.5c0.7,0,1.4-0.2,2-0.5
	l124.2-63.8c0.2-0.1,0.3-0.3,0.5-0.4c0.1-0.1,0.2,0,0.2-0.1c0.1-0.1,0.1-0.2,0.2-0.3c0.3-0.3,0.5-0.6,0.8-0.9
	c0.1-0.2,0.2-0.4,0.3-0.6C255.8,167.7,255.9,167.3,255.9,166.9z M247.1,160.8l-113.9-27.8V38.9l113.9-17.2L247.1,160.8L247.1,160.8z
	 M8.9,21.6l115.3,17.2v94l-35.4,8.5l-0.1-47c0-3-2.2-5.6-4.9-5.9l-22.1-3.5c-1.7-0.2-3.5,0.3-4.8,1.6c-1.1,1.1-1.8,2.7-1.8,4.3
	l0.2,58.5L8.9,160.8V21.6z M64.1,94.5L79.9,97l0.1,45.8l-15.7,3.1L64.1,94.5z M127.3,225.2L17.1,168L128.7,141l110.2,26.9
	L127.3,225.2z"/>
</svg>
