<?xml version="1.0" encoding="utf-8"?>
<!-- Generator: Adobe Illustrator 24.0.0, SVG Export Plug-In . SVG Version: 6.00 Build 0)  -->
<svg version="1.1" id="Layer_1" xmlns="http://www.w3.org/2000/svg" xmlns:xlink="http://www.w3.org/1999/xlink" x="0px" y="0px"
	 viewBox="0 0 256 256" style="enable-background:new 0 0 256 256;" xml:space="preserve">
<style type="text/css">
	.st0{fill:#8699A3;}
</style>
<path class="st0" d="M255.9,166.88c0.02-0.16,0.1-0.29,0.1-0.45V16.46c0-1.3-0.57-2.54-1.55-3.38c-0.98-0.84-2.24-1.24-3.58-1.03
	L128.72,30.52L5.12,12.05c-1.32-0.18-2.6,0.19-3.57,1.03C0.57,13.93,0,15.17,0,16.46v149.97c0,0.16,0.09,0.3,0.11,0.46
	c0.04,0.42,0.12,0.82,0.28,1.21c0.09,0.22,0.21,0.41,0.33,0.61c0.2,0.33,0.43,0.62,0.72,0.89c0.1,0.1,0.15,0.24,0.26,0.33
	c0.07,0.06,0.18,0.03,0.25,0.09c0.16,0.11,0.27,0.27,0.45,0.37l122.85,63.84c0.64,0.34,1.35,0.5,2.06,0.5c0.7,0,1.4-0.17,2.04-0.49
	l124.23-63.84c0.19-0.1,0.31-0.26,0.47-0.38c0.07-0.05,0.17-0.03,0.24-0.08c0.11-0.08,0.15-0.21,0.25-0.31
	c0.3-0.28,0.54-0.58,0.75-0.92c0.12-0.2,0.24-0.38,0.33-0.59C255.78,167.72,255.85,167.31,255.9,166.88z M247.08,160.75
	l-113.9-27.82V38.87l113.9-17.22V160.75z M8.92,21.64l115.34,17.24v94.05l-35.37,8.54l-0.06-46.99c0-3.03-2.19-5.58-4.94-5.92
	l-22.09-3.46c-1.71-0.24-3.48,0.3-4.84,1.59c-1.14,1.12-1.79,2.7-1.79,4.35l0.22,58.52L8.92,160.76V21.64z M64.1,94.48l15.8,2.48
	l0.06,45.77l-15.67,3.05L64.1,94.48z M127.32,225.25L17.09,167.97l111.61-26.94l110.16,26.9L127.32,225.25z"/>
</svg>
