<svg xmlns="http://www.w3.org/2000/svg" viewBox="0 0 32.75 32.34"><defs><style>.a{fill:none;stroke:#000;stroke-linecap:round;stroke-linejoin:round;stroke-width:0.75px;}</style></defs><title>123</title><path class="a" d="M29,31.8H16a3.05,3.05,0,0,1-3.06-3V3.22A3.05,3.05,0,0,1,16,.2H29a3,3,0,0,1,3.05,3v25.6A3,3,0,0,1,29,31.8Z" transform="translate(0.38 0.17)"/><path class="a" d="M31.61,5.29" transform="translate(0.38 0.17)"/><path class="a" d="M13.33,5.29" transform="translate(0.38 0.17)"/><path class="a" d="M31.61,7.15H13.33" transform="translate(0.38 0.17)"/><path class="a" d="M25.31,3.46H19.65" transform="translate(0.38 0.17)"/><path class="a" d="M31.61,24.75H13.33" transform="translate(0.38 0.17)"/><path class="a" d="M22.49,27.57a.73.73,0,0,0-.74.7.71.71,0,0,0,.74.71.71.71,0,1,0,0-1.41Z" transform="translate(0.38 0.17)"/><rect class="a" x="0.38" y="3.79" width="12.88" height="26.01"/><polyline class="a" points="9.82 7.81 4.35 7.81 4.35 25.73 9.82 25.73"/></svg>