<svg xmlns="http://www.w3.org/2000/svg" viewBox="0 0 32.75 29.09"><defs><style>.a{fill:none;stroke:#000;stroke-linecap:round;stroke-linejoin:round;stroke-width:0.75px;}</style></defs><title>124</title><path class="a" d="M14.07,30.17h-5a.57.57,0,0,1-.57-.57l0-21.5V2.4a.57.57,0,0,1,.57-.57H31.43A.56.56,0,0,1,32,2.4V29.6a.56.56,0,0,1-.57.57H14.07Z" transform="translate(0.38 -1.46)"/><polyline class="a" points="23.61 0.62 23.61 7.68 26.22 5.91"/><polyline class="a" points="28.77 0.62 28.77 7.68 26.23 5.91"/><line class="a" x1="12.95" y1="13.17" x2="27.67" y2="13.17"/><line class="a" x1="12.95" y1="17.22" x2="27.67" y2="17.22"/><line class="a" x1="12.95" y1="21.26" x2="27.67" y2="21.26"/><path class="a" d="M7.88,27.94H.6A.56.56,0,0,1,0,27.38L0,5.88V5a.56.56,0,0,1,.57-.56H8.23" transform="translate(0.38 -1.46)"/><line class="a" x1="4.45" y1="10.95" x2="8.6" y2="10.95"/><line class="a" x1="4.45" y1="14.99" x2="8.6" y2="14.99"/><line class="a" x1="4.45" y1="19.04" x2="8.6" y2="19.04"/></svg>