<svg xmlns="http://www.w3.org/2000/svg" viewBox="0 0 32.75 29.72"><defs><style>.a{fill:none;stroke:#000;stroke-linecap:round;stroke-linejoin:round;stroke-width:0.75px;}</style></defs><title>125</title><path class="a" d="M15.27,28.84a2.56,2.56,0,1,1,2.56-2.56A2.56,2.56,0,0,1,15.27,28.84Z" transform="translate(0.38 -1.14)"/><path class="a" d="M25.42,24.12c0-.12,0-.24,0-.36a2.9,2.9,0,0,0-1.74-2.65l-.82-.36c.28-.74.25-1.94-.49-2.3l-1.17-.56A2.06,2.06,0,0,0,18.89,19l0,0-6.82-3a2.86,2.86,0,0,0-2.75.23A2.9,2.9,0,0,0,8,18.66v5.1a2.89,2.89,0,0,0,2.89,2.89h.24" transform="translate(0.38 -1.14)"/><polygon class="a" points="29.72 26.99 28.69 26.99 27.89 29.34 32.38 29.34 31.58 26.99 30.43 26.99 29.72 26.99"/><path class="a" d="M19.45,26.65h3.1a2.9,2.9,0,0,0,2.68-1.83" transform="translate(0.38 -1.14)"/><line class="a" x1="23.25" y1="19.6" x2="19.25" y2="17.85"/><path class="a" d="M12.93,16.33V2.9a1.38,1.38,0,0,0-1.37-1.38H1.37A1.37,1.37,0,0,0,0,2.9V22.38a1.38,1.38,0,0,0,1.37,1.38h.38v.34a.89.89,0,1,0,1.77,0v-.34H8m-5.62-18V8m0,6.87v3.49" transform="translate(0.38 -1.14)"/><line class="a" x1="0.46" y1="9.68" x2="13.25" y2="9.68"/><path class="a" d="M25.73,24.59a1.51,1.51,0,0,0,1.7-1.42V17.41h2.31V27.87" transform="translate(0.38 -1.14)"/></svg>