<svg xmlns="http://www.w3.org/2000/svg" viewBox="0 0 250 250"><path d="M247.3 167.3H211l.3-.9c1.2-2.8 1.9-5.9 1.9-9.3 0-9.3-12.1-23-25.8-29.1-.2-.1-.5-.1-.8-.2h-.6v-19.2c0-1.5-1.2-2.8-2.8-2.8h-22.5l.4-.8c1.4-3.1 2.4-6.3 2.8-9.7v-.2c.1-.1.1-.2.2-.2.2-.6.2-1 .1-1.5l-.1-.2c.2-1.1.2-2.1.2-3 0-19.5-15.9-35.4-35.4-35.4S93.5 70.9 93.5 90.3c0 5.1 1.1 10.1 3.2 14.7l.4.8H74.6a2.8 2.8 0 00-2.8 2.8v19.2l-.5.1c-.4 0-.6.1-.7.2-20.2 9.3-30.2 24.8-32.8 29.5l-.2.2-.2.1a18.8 18.8 0 00-11.3 9.2l-.2.3H2.8a2.8 2.8 0 00-2.8 2.8c0 1.5 1.2 2.7 2.8 2.7h21.4l-.1.7c-.1.8-.2 1.5-.2 2.1 0 1.5.2 2.9.6 4.5.1.3.2.7.6 1.1l.3.3-.2.3c-.8 1.6-1.3 3.2-1.3 5 0 1.1.2 2.4.7 3.7.4 1.1 1.5 1.7 2.6 1.7h30.4c1.1 0 2.2-.6 2.6-1.7a11.47 11.47 0 00-.6-8.7l-.2-.3.3-.3c.2-.3.5-.6.6-1.1.4-1.6.6-3.1.6-4.5 0-.7 0-1.5-.1-2.1l-.1-.7h11.1v19.6c0 1.5 1.2 2.8 2.8 2.8h108.6c1.4 0 2.5-1.1 2.7-2.4l.1-10.3h.5c4-.6 13.7-2.5 20.5-9.3l.2-.2h40.3c1.5 0 2.7-1.2 2.7-2.7-.2-1.9-1.4-3.1-2.9-3.1zm-217.8 8.3c0-7.1 5.8-13 13-13 7.1 0 13 5.8 13 13v1.1h-26v-1.1zm-.1 11.1l.1-.7c.2-1.2 1.1-2.5 2.4-3.7l.2-.2H53l.2.2c1.3 1.1 2 2.4 2.3 3.7l.2.7H29.4zm42.4-19.4H58.9l-.2-.3c-2.7-5.1-7.7-8.7-13.4-9.6l-1-.2.6-.8c3.7-5.4 12.1-15.6 26-22.5l.9-.4v33.8zm83.4-89.6l.6-.4.3.6c1.6 3.6 2.5 7.4 2.7 11.3v1l-.8-.4c-4.1-1.6-8-3.6-11.6-5.8l-1-.5 1-.6c4.2-2.2 7.1-4.1 8.8-5.2zm3.1 18.1l-.1.5c-.7 3.4-1.9 6.5-3.5 9.3l-.2.2h-51.3l-.2-.2c-.6-1.1-1.2-2.3-1.7-3.4l-.2-.6.6-.2c14.3-4.6 27-9.6 37.7-14.9l.3-.2.3.2c2.2 1.6 8.3 5.6 17.6 9l.7.3zm-50.6-26.6c5.7-5.7 13.2-8.8 21.2-8.8 9.3 0 17.9 4.3 23.6 11.7l.4.5-.6.4c-5.4 3.7-21.4 13.3-52.1 23.1l-.6.2-.1-.6c-.4-1.9-.6-3.7-.6-5.3 0-8 3.2-15.6 8.8-21.2zm72.8 120.4H77.3v-78.2h103.2v78.2zm6.1-12.9l-.6.1v-43.3l.9.4c11.7 5.9 20.8 17.4 20.8 23.3-.1 14.5-14.8 18.4-21.1 19.5z"/></svg>