<svg xmlns="http://www.w3.org/2000/svg" viewBox="0 0 32.75 18.43"><defs><style>.a{fill:none;stroke:#000;stroke-linecap:round;stroke-linejoin:round;stroke-width:0.75px;}</style></defs><title>126</title><path class="a" d="M9.32,22v2.47a.35.35,0,0,0,.35.35h13.7a.35.35,0,0,0,.34-.31v-1.3h.06a4.63,4.63,0,0,0,2.58-1.17l0,0,.49-.68,0-.11a3,3,0,0,0,.24-1.17c0-1.18-1.53-2.9-3.26-3.68l-.17,0V13.93a.35.35,0,0,0-.35-.35H20.53l0-.1a4.39,4.39,0,0,0,.36-1.22s0-.52,0-.64a4.46,4.46,0,0,0-8.92,0,4.41,4.41,0,0,0,.4,1.86l0,.1H9.67a.35.35,0,0,0-.35.35v2.42" transform="translate(0.38 -6.79)"/><line class="a" x1="12.83" y1="6.8" x2="20.91" y2="6.8"/><line class="a" x1="24.09" y1="9.57" x2="24.09" y2="16.44"/><path class="a" d="M3.6,23.16s-.5-2.52,1.9-2.52,1.87,2.52,1.87,2.52Z" transform="translate(0.38 -6.79)"/><polyline class="a" points="7.75 16.38 7.75 18.05 3.97 18.05 3.97 16.38"/><path class="a" d="M5.42,20.62s.88-3.55,3.9-4.27V22" transform="translate(0.38 -6.79)"/><line class="a" x1="0.38" y1="15.32" x2="3.63" y2="15.32"/><line class="a" x1="7.88" y1="15.32" x2="9.59" y2="15.32"/><line class="a" x1="26.69" y1="15.32" x2="32.38" y2="15.32"/></svg>