<svg xmlns="http://www.w3.org/2000/svg" viewBox="0 0 250 250"><path d="M235 133.5c-6.7 0-12.7 4.6-14.4 11.3l-.2.6h-41.1v-40.8h39.3V53.1l.5-.1c6.6-1.7 11.3-7.7 11.3-14.4 0-8.2-6.7-15.1-15-15.1s-15.1 6.8-15.1 15.1c0 6.7 4.6 12.7 11.3 14.4l.6.1v45.1h-32.9V70.7h-27.5V29.6l.5-.2c6.6-1.7 11.3-7.7 11.3-14.4a15.04 15.04 0 00-30.1 0c0 6.7 4.6 12.7 11.3 14.4l.6.2v41.1h-40.8V31.4H53.1l-.1-.5c-1.7-6.6-7.7-11.3-14.4-11.3-8.3 0-15.1 6.7-15.1 15s6.7 15.1 15.1 15.1c6.7 0 12.7-4.6 14.4-11.3l.1-.6h45.1v32.9H70.7v27.5H29.6l-.2-.5c-1.7-6.6-7.7-11.3-14.4-11.3a15.04 15.04 0 000 30.1c6.7 0 12.7-4.6 14.4-11.3l.2-.6h41.1v40.8H31.4V197l-.5.1c-6.6 1.7-11.3 7.7-11.3 14.4 0 8.3 6.7 15.1 15 15.1s15.1-6.7 15.1-15.1c0-6.7-4.6-12.7-11.3-14.4l-.6-.1v-45.1h32.9v27.5h27.5v41.1l-.5.2c-6.6 1.7-11.3 7.7-11.3 14.4a15.04 15.04 0 0030.1 0c0-6.7-4.6-12.7-11.3-14.4l-.6-.2v-41.1h40.8v39.3H197l.1.5c1.7 6.6 7.7 11.3 14.4 11.3 8.3 0 15.1-6.7 15.1-15s-6.7-15.1-15.1-15.1c-6.7 0-12.7 4.6-14.4 11.3l-.1.6h-45.1v-32.9h27.5V173H77.1V77.1h95.7v74.7h47.6l.2.5c1.7 6.6 7.7 11.3 14.4 11.3a15.04 15.04 0 000-30.1zm-28.2-94.9c0-4.8 3.8-8.6 8.6-8.6 4.7 0 8.5 3.8 8.5 8.6 0 4.7-3.8 8.5-8.5 8.5-4.8 0-8.6-3.8-8.6-8.5zM38.6 43.2c-4.8 0-8.6-3.8-8.6-8.6 0-4.7 3.8-8.5 8.6-8.5 4.7 0 8.5 3.8 8.5 8.5 0 4.8-3.8 8.6-8.5 8.6zM15 110c-4.8 0-8.5-3.8-8.5-8.6 0-4.7 3.7-8.5 8.5-8.5s8.5 3.8 8.5 8.5c0 4.8-3.7 8.6-8.5 8.6zm28.2 101.4c0 4.8-3.8 8.6-8.6 8.6-4.7 0-8.5-3.8-8.5-8.6 0-4.7 3.8-8.5 8.5-8.5 4.8 0 8.6 3.8 8.6 8.5zm168.2-4.6c4.8 0 8.6 3.8 8.6 8.6 0 4.7-3.8 8.5-8.6 8.5a8.5 8.5 0 01-8.5-8.5c0-4.8 3.8-8.6 8.5-8.6zM110 235c0 4.8-3.8 8.5-8.6 8.5s-8.5-3.7-8.5-8.5 3.7-8.5 8.5-8.5 8.6 3.7 8.6 8.5zm30-220c0-4.8 3.8-8.5 8.6-8.5s8.5 3.7 8.5 8.5-3.7 8.5-8.5 8.5-8.6-3.7-8.6-8.5zm95 142.1c-4.8 0-8.5-3.7-8.5-8.5s3.7-8.6 8.5-8.6 8.5 3.8 8.5 8.6c.1 4.8-3.6 8.5-8.5 8.5z"/></svg>