<svg xmlns="http://www.w3.org/2000/svg" viewBox="0 0 32.75 31.24"><defs><style>.a{fill:none;stroke:#000;stroke-linecap:round;stroke-linejoin:round;stroke-width:0.75px;}</style></defs><title>129</title><circle class="a" cx="19.5" cy="2.28" r="1.91"/><circle class="a" cx="28.17" cy="5.43" r="1.91"/><circle class="a" cx="27.51" cy="27.05" r="1.91"/><circle class="a" cx="13.48" cy="28.96" r="1.91"/><circle class="a" cx="2.28" cy="12.58" r="1.91"/><circle class="a" cx="4.84" cy="26.53" r="1.91"/><circle class="a" cx="5.37" cy="3.99" r="1.91"/><circle class="a" cx="30.47" cy="18.64" r="1.91"/><polyline class="a" points="28.57 18.38 23.11 18.38 23.11 9.38 10.3 9.38 10.3 22.19 19.43 22.19 19.43 27.07 25.61 27.07"/><line class="a" x1="13.48" y1="27.05" x2="13.48" y2="22.18"/><polyline class="a" points="4.84 24.62 4.84 18.54 10.28 18.54"/><line class="a" x1="4.19" y1="12.58" x2="10.28" y2="12.58"/><polyline class="a" points="7.27 3.99 13.47 3.99 13.47 9.37"/><line class="a" x1="19.5" y1="4.19" x2="19.5" y2="9.37"/><polyline class="a" points="28.17 7.34 28.17 12.46 23.11 12.46"/></svg>