<?xml version="1.0" encoding="utf-8"?>
<!-- Generator: Adobe Illustrator 24.0.0, SVG Export Plug-In . SVG Version: 6.00 Build 0)  -->
<svg version="1.1" id="Layer_1" xmlns="http://www.w3.org/2000/svg" xmlns:xlink="http://www.w3.org/1999/xlink" x="0px" y="0px"
	 viewBox="0 0 250 250" style="enable-background:new 0 0 250 250;" xml:space="preserve">
<g>
	<path d="M235,133.5c-6.7,0-12.7,4.6-14.4,11.3l-0.2,0.6h-41.1v-40.8h39.3V53.1l0.5-0.1c6.6-1.7,11.3-7.7,11.3-14.4
		c0-8.2-6.7-15.1-15-15.1c-8.3,0-15.1,6.8-15.1,15.1c0,6.7,4.6,12.7,11.3,14.4l0.6,0.1v45.1h-32.9V70.7h-27.5V29.6l0.5-0.2
		c6.6-1.7,11.3-7.7,11.3-14.4c0-8.2-6.7-15-15-15s-15.1,6.7-15.1,15c0,6.7,4.6,12.7,11.3,14.4l0.6,0.2v41.1h-40.8V31.4H53.1L53,30.9
		c-1.7-6.6-7.7-11.3-14.4-11.3c-8.3,0-15.1,6.7-15.1,15c0,8.3,6.7,15.1,15.1,15.1c6.7,0,12.7-4.6,14.4-11.3l0.1-0.6h45.1v32.9H70.7
		v27.5H29.6l-0.2-0.5c-1.7-6.6-7.7-11.3-14.4-11.3c-8.2,0-15,6.7-15,15s6.7,15.1,15,15.1c6.7,0,12.7-4.6,14.4-11.3l0.2-0.6h41.1
		v40.8H31.4v51.6l-0.5,0.1c-6.6,1.7-11.3,7.7-11.3,14.4c0,8.3,6.7,15.1,15,15.1c8.3,0,15.1-6.7,15.1-15.1c0-6.7-4.6-12.7-11.3-14.4
		l-0.6-0.1v-45.1h32.9v27.5h27.5v41.1l-0.5,0.2c-6.6,1.7-11.3,7.7-11.3,14.4c0,8.2,6.7,15,15,15s15.1-6.7,15.1-15
		c0-6.7-4.6-12.7-11.3-14.4l-0.6-0.2v-41.1h40.8v39.3h51.6l0.1,0.5c1.7,6.6,7.7,11.3,14.4,11.3c8.3,0,15.1-6.7,15.1-15
		c0-8.3-6.7-15.1-15.1-15.1c-6.7,0-12.7,4.6-14.4,11.3l-0.1,0.6h-45.1v-32.9h27.5v-6.4H77.1V77.1h95.7v74.7h47.6l0.2,0.5
		c1.7,6.6,7.7,11.3,14.4,11.3c8.2,0,15-6.7,15-15C250,140.3,243.3,133.5,235,133.5z M206.8,38.6c0-4.8,3.8-8.6,8.6-8.6
		c4.7,0,8.5,3.8,8.5,8.6c0,4.7-3.8,8.5-8.5,8.5C210.6,47.1,206.8,43.3,206.8,38.6z M38.6,43.2c-4.8,0-8.6-3.8-8.6-8.6
		c0-4.7,3.8-8.5,8.6-8.5c4.7,0,8.5,3.8,8.5,8.5C47.1,39.4,43.3,43.2,38.6,43.2z M15,110c-4.8,0-8.5-3.8-8.5-8.6
		c0-4.7,3.7-8.5,8.5-8.5s8.5,3.8,8.5,8.5C23.5,106.2,19.8,110,15,110z M43.2,211.4c0,4.8-3.8,8.6-8.6,8.6c-4.7,0-8.5-3.8-8.5-8.6
		c0-4.7,3.8-8.5,8.5-8.5C39.4,202.9,43.2,206.7,43.2,211.4z M211.4,206.8c4.8,0,8.6,3.8,8.6,8.6c0,4.7-3.8,8.5-8.6,8.5
		c-4.7,0-8.5-3.8-8.5-8.5C202.9,210.6,206.7,206.8,211.4,206.8z M110,235c0,4.8-3.8,8.5-8.6,8.5s-8.5-3.7-8.5-8.5
		c0-4.8,3.7-8.5,8.5-8.5S110,230.2,110,235z M140,15c0-4.8,3.8-8.5,8.6-8.5c4.8,0,8.5,3.7,8.5,8.5c0,4.8-3.7,8.5-8.5,8.5
		C143.8,23.5,140,19.8,140,15z M235,157.1c-4.8,0-8.5-3.7-8.5-8.5c0-4.8,3.7-8.6,8.5-8.6c4.8,0,8.5,3.8,8.5,8.6
		C243.6,153.4,239.9,157.1,235,157.1z"/>
</g>
</svg>
