<?xml version="1.0" encoding="utf-8"?>
<!-- Generator: Adobe Illustrator 24.0.0, SVG Export Plug-In . SVG Version: 6.00 Build 0)  -->
<svg version="1.1" id="Layer_1" xmlns="http://www.w3.org/2000/svg" xmlns:xlink="http://www.w3.org/1999/xlink" x="0px" y="0px"
	 viewBox="0 0 29.46 18.43" style="enable-background:new 0 0 29.46 18.43;" xml:space="preserve">
<style type="text/css">
	.st0{fill:#8699A3;}
</style>
<g>
	<g>
		<path class="st0" d="M14.73,18.43c8.12,0,14.73-4.14,14.73-9.22C29.46,4.13,22.85,0,14.73,0C6.61,0,0,4.13,0,9.22
			C0,14.3,6.61,18.43,14.73,18.43z M12.43,9.06L12.43,9.06c0,2.68,0.68,4.83,1.61,5.54C13.11,13.89,12.43,11.74,12.43,9.06z
			 M12.58,3.17c0.02-0.03,0.03-0.06,0.05-0.1c0,0,0,0,0,0C12.61,3.11,12.6,3.14,12.58,3.17z M12.67,7.01L12.67,7.01l-0.11,0.08l0,0
			L12.67,7.01z M14.73,13.88c-0.83,0-1.72-1.88-1.75-4.7c0.58,0.04,1.16,0.07,1.75,0.07c0.59,0,1.18-0.03,1.75-0.07
			C16.45,12,15.56,13.88,14.73,13.88z M14.73,6.66c-0.51,0-1.02-0.02-1.52-0.05c0.31-1.48,0.89-2.43,1.52-2.43
			c0.63,0,1.22,0.95,1.52,2.43C15.75,6.64,15.24,6.66,14.73,6.66z M16.79,7.01l0.04,0.03L16.79,7.01L16.79,7.01z M15.41,14.6
			c0.94-0.71,1.61-2.86,1.61-5.54l0,0C17.03,11.74,16.35,13.89,15.41,14.6z M17.01,8.4L17.01,8.4c0.01,0.22,0.02,0.43,0.02,0.66
			C17.03,8.84,17.02,8.62,17.01,8.4z M24.58,4.54c0,0.01,0,0.03,0,0.04c0-0.03,0-0.05,0.01-0.08C24.58,4.51,24.58,4.53,24.58,4.54
			c0-0.01,0-0.01,0-0.01C24.58,4.54,24.58,4.54,24.58,4.54z M24.55,4.74C24.55,4.74,24.55,4.75,24.55,4.74c0,0.02,0,0.03-0.01,0.04
			h0C24.55,4.77,24.55,4.75,24.55,4.74z M24.64,5.47c1.27,1.16,1.95,2.49,1.95,3.88c0,3.45-4.16,6.38-9.78,6.98
			c1.18-1.41,1.9-4.01,1.9-7.03c0,0,0-0.22-0.01-0.4C21.84,8.29,24.05,7.01,24.64,5.47z M18.1,8.26L18.1,8.26L18.1,8.26
			C18.1,8.26,18.1,8.26,18.1,8.26c0.02,0,0.04-0.01,0.07-0.01C18.15,8.25,18.13,8.26,18.1,8.26z M17.98,6.96L17.98,6.96l0.07-0.08
			L17.98,6.96z M19.25,6.74c0.25-0.05,0.49-0.11,0.72-0.17C19.74,6.63,19.5,6.69,19.25,6.74z M23.69,6.14
			C23.69,6.14,23.68,6.15,23.69,6.14c-0.05,0.04-0.09,0.08-0.13,0.11C23.6,6.22,23.65,6.18,23.69,6.14z M22.07,4.15
			c0.03,0.08,0.04,0.15,0.04,0.23c0,0.12-0.04,0.25-0.11,0.37C21.61,5.42,20.29,6,18.46,6.34c-0.32-1.79-0.94-3.26-1.75-4.17
			C19.53,2.43,21.75,3.24,22.07,4.15z M16.87,3.16c-0.01-0.02-0.02-0.05-0.04-0.07c0,0,0,0,0,0C16.85,3.12,16.86,3.14,16.87,3.16z
			 M16.9,7.08L16.9,7.08c-0.16-1.16-0.45-2.1-0.82-2.76C16.45,4.98,16.74,5.93,16.9,7.08z M12.99,5.21
			c-0.07,0.2-0.13,0.41-0.19,0.63C12.85,5.62,12.92,5.41,12.99,5.21z M7.39,4.15c0.33-0.92,2.54-1.72,5.37-1.98
			C11.94,3.08,11.32,4.55,11,6.34C9.16,6,7.84,5.42,7.45,4.75C7.38,4.63,7.34,4.5,7.34,4.38C7.34,4.3,7.36,4.23,7.39,4.15z
			 M11.14,8.51L11.14,8.51l0.21-0.25v0c-0.02,0-0.05-0.01-0.07-0.01c0.03,0,0.05,0.01,0.08,0.01c0,0,0,0,0,0h0L11.14,8.51z
			 M9.52,6.57c0.21,0.06,0.43,0.11,0.66,0.16C9.95,6.68,9.73,6.63,9.52,6.57z M4.91,4.78L4.91,4.78c0-0.01,0-0.02-0.01-0.03
			c0,0,0,0,0,0C4.91,4.75,4.91,4.77,4.91,4.78z M4.88,4.58c0-0.01,0-0.02,0-0.04c0,0,0-0.01,0-0.01c0,0,0,0,0,0
			c0-0.01,0-0.02,0-0.03C4.88,4.53,4.88,4.55,4.88,4.58z M4.81,5.47c0.59,1.54,2.81,2.83,5.94,3.42c0,0.18-0.01,0.4-0.01,0.4
			c0,3.02,0.72,5.63,1.9,7.03c-5.61-0.6-9.78-3.53-9.78-6.98C2.86,7.96,3.54,6.63,4.81,5.47z M1.78,9.06c0,0.04,0,0.09,0,0.14
			c0,4.2,5.09,7.65,11.63,8.07C6.87,16.84,1.78,13.39,1.78,9.19C1.78,9.15,1.78,9.1,1.78,9.06z"/>
	</g>
</g>
</svg>
