<?xml version="1.0" encoding="utf-8"?>
<!-- Generator: Adobe Illustrator 24.0.0, SVG Export Plug-In . SVG Version: 6.00 Build 0)  -->
<svg version="1.1" id="Layer_1" xmlns="http://www.w3.org/2000/svg" xmlns:xlink="http://www.w3.org/1999/xlink" x="0px" y="0px"
	 viewBox="0 0 256 256" style="enable-background:new 0 0 256 256;" xml:space="preserve">
<g>
	<g>
		<path d="M128,203.1c70.6,0,128-36,128-80.1s-57.4-80-128-80S0,78.9,0,123.1C0,167.3,57.4,203.1,128,203.1z M108,121.7L108,121.7
			c0,23.3,5.9,42,14,48.1C113.9,163.7,108,145,108,121.7z M109.3,70.6c0.2-0.3,0.3-0.5,0.4-0.9l0,0C109.6,70,109.5,70.3,109.3,70.6z
			 M110.1,103.9L110.1,103.9l-1,0.7l0,0L110.1,103.9z M128,163.6c-7.2,0-14.9-16.3-15.2-40.8c5,0.3,10.1,0.6,15.2,0.6
			c5.1,0,10.2-0.3,15.2-0.6C142.9,147.3,135.2,163.6,128,163.6z M128,100.9c-4.4,0-8.9-0.2-13.2-0.4c2.7-12.9,7.7-21.1,13.2-21.1
			c5.5,0,10.6,8.3,13.2,21.1C136.9,100.7,132.4,100.9,128,100.9z M145.9,103.9l0.4,0.3L145.9,103.9L145.9,103.9z M133.9,169.9
			c8.2-6.2,14-24.9,14-48.1l0,0C148,145,142.1,163.7,133.9,169.9z M147.8,116L147.8,116c0.1,1.9,0.2,3.7,0.2,5.7
			C148,119.8,147.9,117.9,147.8,116z M213.6,82.4c0,0.1,0,0.3,0,0.3c0-0.3,0-0.4,0.1-0.7C213.6,82.2,213.6,82.4,213.6,82.4
			C213.6,82.4,213.6,82.4,213.6,82.4C213.6,82.4,213.6,82.4,213.6,82.4z M213.3,84.2C213.3,84.2,213.3,84.3,213.3,84.2
			c0,0.2,0,0.3-0.1,0.3l0,0C213.3,84.4,213.3,84.3,213.3,84.2z M214.1,90.5c11,10.1,16.9,21.6,16.9,33.7c0,30-36.2,55.4-85,60.6
			c10.2-12.2,16.5-34.9,16.5-61.1c0,0,0-1.9-0.1-3.5C189.8,115,209,103.9,214.1,90.5z M157.3,114.8L157.3,114.8L157.3,114.8
			L157.3,114.8c0.2,0,0.4-0.1,0.6-0.1C157.7,114.7,157.6,114.8,157.3,114.8z M156.2,103.5L156.2,103.5l0.6-0.7L156.2,103.5z
			 M167.3,101.6c2.2-0.4,4.3-1,6.3-1.5C171.5,100.6,169.4,101.1,167.3,101.6z M205.9,96.4C205.9,96.4,205.8,96.4,205.9,96.4
			c-0.4,0.3-0.8,0.7-1.1,1C205.1,97.1,205.5,96.7,205.9,96.4z M191.8,79.1c0.3,0.7,0.4,1.3,0.4,2c0,1-0.4,2.2-1,3.2
			c-3.4,5.8-14.9,10.9-30.8,13.8c-2.8-15.6-8.2-28.3-15.2-36.2C169.7,64.1,189,71.2,191.8,79.1z M146.6,70.5
			c-0.1-0.2-0.2-0.4-0.4-0.6l0,0C146.4,70.1,146.5,70.3,146.6,70.5z M146.9,104.5L146.9,104.5c-1.4-10.1-3.9-18.2-7.1-24
			C142.9,86.3,145.5,94.5,146.9,104.5z M112.9,88.3c-0.6,1.7-1.1,3.6-1.7,5.5C111.7,91.8,112.3,90,112.9,88.3z M64.2,79.1
			c2.9-8,22.1-14.9,46.7-17.2c-7.1,7.9-12.5,20.7-15.3,36.2c-16-2.9-27.5-8-30.9-13.8c-0.6-1-1-2.2-1-3.2
			C63.8,80.4,64,79.8,64.2,79.1z M96.8,116.9L96.8,116.9l1.8-2.2l0,0c-0.2,0-0.4-0.1-0.6-0.1c0.3,0,0.4,0.1,0.7,0.1l0,0l0,0
			L96.8,116.9z M82.7,100.1c1.8,0.5,3.7,1,5.7,1.4C86.5,101.1,84.6,100.6,82.7,100.1z M42.7,84.5L42.7,84.5c0-0.1,0-0.2-0.1-0.3l0,0
			C42.7,84.3,42.7,84.4,42.7,84.5z M42.4,82.8c0-0.1,0-0.2,0-0.3v-0.1l0,0c0-0.1,0-0.2,0-0.3C42.4,82.4,42.4,82.5,42.4,82.8z
			 M41.8,90.5c5.1,13.4,24.4,24.6,51.6,29.7c0,1.6-0.1,3.5-0.1,3.5c0,26.2,6.3,48.9,16.5,61.1c-48.8-5.2-85-30.7-85-60.7
			C24.9,112.2,30.8,100.6,41.8,90.5z M15.5,121.7c0,0.3,0,0.8,0,1.2c0,36.5,44.2,66.5,101.1,70.1c-56.8-3.7-101.1-33.7-101.1-70.2
			C15.5,122.5,15.5,122.1,15.5,121.7z"/>
	</g>
</g>
</svg>
