<?xml version="1.0" encoding="utf-8"?>
<!-- Generator: Adobe Illustrator 24.0.0, SVG Export Plug-In . SVG Version: 6.00 Build 0)  -->
<svg version="1.1" id="Layer_1" xmlns="http://www.w3.org/2000/svg" xmlns:xlink="http://www.w3.org/1999/xlink" x="0px" y="0px"
	 viewBox="0 0 256 256" style="enable-background:new 0 0 256 256;" xml:space="preserve">
<style type="text/css">
	.st0{fill:#8699A3;}
</style>
<g>
	<g>
		<path class="st0" d="M128,203.15c70.56,0,128-35.98,128-80.12S198.56,43,128,43S0,78.89,0,123.12
			C0,167.26,57.44,203.15,128,203.15z M108.01,121.73L108.01,121.73c0,23.29,5.91,41.97,13.99,48.14
			C113.92,163.7,108.01,145.02,108.01,121.73z M109.32,70.55c0.17-0.26,0.26-0.52,0.43-0.87l0,0
			C109.58,70.03,109.49,70.29,109.32,70.55z M110.1,103.92L110.1,103.92l-0.96,0.7l0,0L110.1,103.92z M128,163.61
			c-7.21,0-14.95-16.34-15.21-40.84c5.04,0.35,10.08,0.61,15.21,0.61s10.25-0.26,15.21-0.61C142.95,147.28,135.21,163.61,128,163.61
			z M128,100.87c-4.43,0-8.86-0.17-13.21-0.43c2.69-12.86,7.73-21.12,13.21-21.12c5.47,0,10.6,8.26,13.21,21.12
			C136.86,100.7,132.43,100.87,128,100.87z M145.9,103.92l0.35,0.26L145.9,103.92L145.9,103.92z M133.91,169.87
			c8.17-6.17,13.99-24.85,13.99-48.14l0,0C147.99,145.02,142.08,163.7,133.91,169.87z M147.81,115.99L147.81,115.99
			c0.09,1.91,0.17,3.74,0.17,5.74C147.99,119.82,147.9,117.91,147.81,115.99z M213.59,82.45c0,0.09,0,0.26,0,0.35
			c0-0.26,0-0.43,0.09-0.7C213.59,82.19,213.59,82.36,213.59,82.45c0-0.09,0-0.09,0-0.09C213.59,82.45,213.59,82.45,213.59,82.45z
			 M213.33,84.19C213.33,84.19,213.33,84.28,213.33,84.19c0,0.17,0,0.26-0.09,0.35l0,0C213.33,84.45,213.33,84.28,213.33,84.19z
			 M214.12,90.53c11.04,10.08,16.95,21.64,16.95,33.72c0,29.98-36.15,55.44-84.99,60.65c10.25-12.25,16.51-34.85,16.51-61.09
			c0,0,0-1.91-0.09-3.48C189.78,115.04,208.99,103.92,214.12,90.53z M157.28,114.78L157.28,114.78L157.28,114.78L157.28,114.78
			c0.17,0,0.35-0.09,0.61-0.09C157.72,114.69,157.55,114.78,157.28,114.78z M156.24,103.48L156.24,103.48l0.61-0.7L156.24,103.48z
			 M167.28,101.57c2.17-0.43,4.26-0.96,6.26-1.48C171.54,100.61,169.45,101.13,167.28,101.57z M205.86,96.36
			C205.86,96.36,205.77,96.44,205.86,96.36c-0.43,0.35-0.78,0.7-1.13,0.96C205.08,97.05,205.51,96.7,205.86,96.36z M191.78,79.06
			c0.26,0.7,0.35,1.3,0.35,2c0,1.04-0.35,2.17-0.96,3.22c-3.39,5.82-14.86,10.86-30.76,13.82c-2.78-15.55-8.17-28.33-15.21-36.24
			C169.71,64.12,189,71.15,191.78,79.06z M146.6,70.46c-0.09-0.17-0.17-0.43-0.35-0.61l0,0C146.42,70.11,146.51,70.29,146.6,70.46z
			 M146.86,104.52L146.86,104.52c-1.39-10.08-3.91-18.25-7.13-23.98C142.95,86.27,145.47,94.53,146.86,104.52z M112.88,88.27
			c-0.61,1.74-1.13,3.56-1.65,5.47C111.66,91.84,112.27,90.01,112.88,88.27z M64.22,79.06c2.87-7.99,22.07-14.95,46.66-17.21
			c-7.13,7.91-12.51,20.68-15.29,36.24C79.6,95.14,68.13,90.1,64.74,84.28c-0.61-1.04-0.96-2.17-0.96-3.22
			C63.78,80.37,63.96,79.76,64.22,79.06z M96.8,116.95L96.8,116.95l1.82-2.17l0,0c-0.17,0-0.43-0.09-0.61-0.09
			c0.26,0,0.43,0.09,0.7,0.09l0,0l0,0L96.8,116.95z M82.73,100.09c1.82,0.52,3.74,0.96,5.74,1.39
			C86.46,101.05,84.55,100.61,82.73,100.09z M42.67,84.54L42.67,84.54c0-0.09,0-0.17-0.09-0.26l0,0
			C42.67,84.28,42.67,84.45,42.67,84.54z M42.41,82.8c0-0.09,0-0.17,0-0.35v-0.09l0,0c0-0.09,0-0.17,0-0.26
			C42.41,82.36,42.41,82.54,42.41,82.8z M41.8,90.53c5.13,13.38,24.42,24.59,51.62,29.72c0,1.56-0.09,3.48-0.09,3.48
			c0,26.24,6.26,48.92,16.51,61.09c-48.75-5.21-84.99-30.67-84.99-60.65C24.85,112.17,30.76,100.61,41.8,90.53z M15.47,121.73
			c0,0.35,0,0.78,0,1.22c0,36.5,44.23,66.48,101.06,70.13c-56.83-3.74-101.06-33.72-101.06-70.21
			C15.47,122.51,15.47,122.08,15.47,121.73z"/>
	</g>
</g>
</svg>
