<svg xmlns="http://www.w3.org/2000/svg" viewBox="0 0 31.95 32.75"><defs><style>.a{fill:none;stroke:#000;stroke-linecap:round;stroke-linejoin:round;stroke-width:0.75px;}</style></defs><title>1314</title><path class="a" d="M5.31,1.83,3.84.78S-4,8,4,17L1.94,20.67,5,19.05l3.33,1.81L6.53,17C13.53,7.59,6.45.74,6.45.74Zm.36,3.25A.85.85,0,0,1,4,5.08a.85.85,0,0,1,1.69,0Z" transform="translate(-0.02 0.38)"/><circle class="a" cx="21.24" cy="8.01" r="3.17"/><path class="a" d="M10.8,23.52a.54.54,0,0,0-.15.38v2.75a5.35,5.35,0,0,0,4,5.19A5.64,5.64,0,0,0,16,32a5.3,5.3,0,0,0,5.3-5.28V0" transform="translate(-0.02 0.38)"/><path class="a" d="M15.16,27.12" transform="translate(-0.02 0.38)"/><path class="a" d="M31.6,15.21a3.6,3.6,0,0,0-4.83,0,2.74,2.74,0,0,1-3.65,0,3.61,3.61,0,0,0-4.82,0l-1,1" transform="translate(-0.02 0.38)"/><path class="a" d="M31.6,18.76a3.6,3.6,0,0,0-4.83,0,2.74,2.74,0,0,1-3.65,0,3.61,3.61,0,0,0-4.82,0l-1,1" transform="translate(-0.02 0.38)"/></svg>