<svg xmlns="http://www.w3.org/2000/svg" viewBox="0 0 30.59 32.75"><defs><style>.a{fill:none;stroke:#000;stroke-linecap:round;stroke-linejoin:round;stroke-width:0.75px;}</style></defs><title>132</title><path class="a" d="M6.31,30.49l1.24,1.24a1,1,0,0,0,.66.27,1,1,0,0,0,.67-.27l2-2a5.31,5.31,0,0,0,.61-6.78l-1.3-1.32a5.31,5.31,0,0,0-6.83.58l-2,2a1,1,0,0,0,0,1.33h0l1.24,1.24M17.39,18c2.86-1.61,7.4-3.31,9.83-5.75A7.2,7.2,0,0,0,17.11,2,7.2,7.2,0,0,0,7,12.28c2.44,2.44,7,4,10,5.71L17,18Zm10.3,11.71a3.23,3.23,0,1,1,3.23-3.23A3.24,3.24,0,0,1,27.69,29.74Z" transform="translate(-0.7 0.38)"/><line class="a" x1="10.14" y1="22.6" x2="16.36" y2="18.37"/><line class="a" x1="16.58" y1="18.37" x2="24.71" y2="24.54"/><path class="a" d="M26.28,6.69a7.07,7.07,0,0,0-1.56-2.33,6.9,6.9,0,0,0-1.64-1.23" transform="translate(-0.7 0.38)"/></svg>