<svg xmlns="http://www.w3.org/2000/svg" viewBox="0 0 250 250"><path d="M229 83.8C226.9 37 188.3.2 141.5.2h-33.4c-46.7.1-85 36.9-87 83.6A22.8 22.8 0 000 106.5v28.9a22.9 22.9 0 0022.9 22.9h21.8a79.87 79.87 0 0076.9 58.3h6.7c35.7-.2 66.9-24 76.6-58.3H221c-1.9 39.6-33 71.7-72.5 74.9-1.8-4.8-6.4-8-11.5-8.1h-25a12.3 12.3 0 100 24.6h25c5.3-.1 9.9-3.5 11.5-8.5 44.1-3.2 78.7-39 80.6-83.1 11.9-.9 21-10.8 21-22.7v-28.9c-.1-11.9-9.3-21.8-21.1-22.7zM136.8 242h-25c-2.4 0-4.3-1.9-4.3-4.3s1.9-4.3 4.3-4.3h25c2.3 0 4.3 1.9 4.4 4.2 0 2.4-1.9 4.4-4.4 4.4zM108.1 8.3h33.4c42.3-.1 77.3 33.1 79.5 75.4h-16.1c-9.6-34.5-41-58.3-76.8-58.3h-6.7a80.1 80.1 0 00-76.9 58.3H29.1a79.28 79.28 0 0179-75.4zm-66.4 142H22.9c-8.2 0-14.8-6.6-14.8-14.8v-28.9c0-8.2 6.6-14.8 14.8-14.8h18.8v58.5zm86.5 58.3h-6.7c-39.5 0-71.5-31.9-71.8-71.4V105c0-39.6 32.2-71.7 71.8-71.7h6.7c39.6 0 71.7 32.1 71.8 71.7v32.2a71.78 71.78 0 01-71.8 71.4zm113.5-73.2c0 8.2-6.7 14.8-14.8 14.8h-18.8V91.7h18.8c8.2 0 14.8 6.6 14.8 14.8v28.9z"/><path d="M149.5 172.6a37.72 37.72 0 01-53.3 0 3.93 3.93 0 00-5.5-.2c-.1.1-.1.1-.2.2a3.98 3.98 0 000 5.7 46 46 0 0064.5 0c1.5-1.6 1.5-4.1 0-5.7a3.92 3.92 0 00-5.5 0z"/></svg>