<?xml version="1.0" encoding="utf-8"?>
<!-- Generator: Adobe Illustrator 24.0.0, SVG Export Plug-In . SVG Version: 6.00 Build 0)  -->
<svg version="1.1" id="Layer_1" xmlns="http://www.w3.org/2000/svg" xmlns:xlink="http://www.w3.org/1999/xlink" x="0px" y="0px"
	 viewBox="0 0 250 250" style="enable-background:new 0 0 250 250;" xml:space="preserve">
<g>
	<path d="M229,83.8C226.9,37,188.3,0.2,141.5,0.2h-33.4c-46.7,0.1-85,36.9-87,83.6C9.2,84.7,0,94.6,0,106.5v28.9
		c0,12.6,10.2,22.9,22.9,22.9l0,0h21.8c9.7,34.5,41.1,58.3,76.9,58.3h6.7c35.7-0.2,66.9-24,76.6-58.3h16.1
		c-1.9,39.6-33,71.7-72.5,74.9c-1.8-4.8-6.4-8-11.5-8.1h-25c-6.8,0-12.3,5.5-12.3,12.3c0,6.8,5.5,12.3,12.3,12.3h25
		c5.3-0.1,9.9-3.5,11.5-8.5c44.1-3.2,78.7-39,80.6-83.1c11.9-0.9,21-10.8,21-22.7v-28.9C250,94.6,240.8,84.7,229,83.8z M136.8,242
		h-25c-2.4,0-4.3-1.9-4.3-4.3c0-2.4,1.9-4.3,4.3-4.3h25c2.3,0,4.3,1.9,4.4,4.2l0,0C141.2,240,139.3,242,136.8,242L136.8,242z
		 M108.1,8.3h33.4c42.3-0.1,77.3,33.1,79.5,75.4h-16.1c-9.6-34.5-41-58.3-76.8-58.3h-6.7c-35.8,0.1-67.2,23.9-76.9,58.3H29.1
		C31.2,41.5,65.9,8.4,108.1,8.3z M41.7,150.3H22.9c-8.2,0-14.8-6.6-14.8-14.8l0,0v-28.9c0-8.2,6.6-14.8,14.8-14.8l0,0h18.8V150.3z
		 M128.2,208.6h-6.7c-39.5,0-71.5-31.9-71.8-71.4V105c0-39.6,32.2-71.7,71.8-71.7h6.7c39.6,0,71.7,32.1,71.8,71.7v32.2
		C199.8,176.7,167.7,208.6,128.2,208.6z M241.7,135.4c0,8.2-6.7,14.8-14.8,14.8h-18.8V91.7h18.8c8.2,0,14.8,6.6,14.8,14.8l0,0
		L241.7,135.4z"/>
	<path d="M149.5,172.6c-14.7,14.7-38.6,14.7-53.3,0c-1.5-1.6-3.9-1.6-5.5-0.2c-0.1,0.1-0.1,0.1-0.2,0.2c-1.6,1.6-1.6,4.1,0,5.7
		c0,0,0,0,0,0c17.9,17.6,46.6,17.6,64.5,0c1.5-1.6,1.5-4.1,0-5.7C153.5,171.1,151.1,171.1,149.5,172.6z"/>
</g>
</svg>
