<svg xmlns="http://www.w3.org/2000/svg" viewBox="0 0 32.32 32.75"><defs><style>.a{fill:none;stroke:#000;stroke-linecap:round;stroke-linejoin:round;stroke-width:0.75px;}</style></defs><title>134</title><path class="a" d="M11.93,21.11h0a5.8,5.8,0,0,0,8.15,0" transform="translate(0.16 0.38)"/><path class="a" d="M18.88,30.92A1.57,1.57,0,0,1,17.42,32H14.27a1.56,1.56,0,1,1,0-3.11h3.15c1.38,0,1.53,1.55,1.53,1.55A11,11,0,0,0,29.13,20a2.89,2.89,0,0,0,2.66-2.87V13.42a2.89,2.89,0,0,0-2.66-2.87A11,11,0,0,0,18.09,0H13.86a11,11,0,0,0-11,10.55A2.89,2.89,0,0,0,.21,13.42v3.66A2.89,2.89,0,0,0,3.1,20H5.85" transform="translate(0.16 0.38)"/><path class="a" d="M26.08,12.45a9.68,9.68,0,0,0-9.66-9.66h-.9a9.67,9.67,0,0,0-9.67,9.66V20h0a10.12,10.12,0,0,0,9.71,7.37h.85A10.1,10.1,0,0,0,26.08,20Z" transform="translate(0.16 0.38)"/><line class="a" x1="29.29" y1="10.93" x2="26.05" y2="10.93"/><line class="a" x1="29.29" y1="20.34" x2="26.24" y2="20.34"/><line class="a" x1="6.2" y1="10.93" x2="3.04" y2="10.93"/></svg>