<svg xmlns="http://www.w3.org/2000/svg" viewBox="0 0 32.75 30.64"><defs><style>.a{fill:none;stroke:#000;stroke-linecap:round;stroke-linejoin:round;stroke-width:0.75px;}</style></defs><title>1341</title><path class="a" d="M27.34,16.76H24.39a.52.52,0,0,0-.52.52v4.1a.52.52,0,0,0,.52.52h6.94a.52.52,0,0,0,.52-.52v-4.1a.52.52,0,0,0-.52-.52h-4Zm-14.8,14L8.42,8.29H28.09V7.78s0,0,0-.06a.36.36,0,0,0,0-.11.3.3,0,0,0,0-.08A.47.47,0,0,0,28,7.44l-.06-.06-.08,0-.09,0-.05,0L8.16,2.85,8,2.82l-7,4.52a.51.51,0,0,0,.28.95H7.63l-3.9,21.2s0,.05,0,.08l-.2,1.15" transform="translate(0.38 -0.68)"/><line class="a" x1="8.35" y1="7.69" x2="8.35" y2="0.38"/><line class="a" x1="6.63" y1="15.28" x2="10.93" y2="19.14"/><line class="a" x1="10.45" y1="18.65" x2="5.21" y2="23.08"/><line class="a" x1="5.57" y1="22.39" x2="12.35" y2="26.73"/><line class="a" x1="11.34" y1="26.04" x2="4.11" y2="28.81"/><line class="a" x1="28.47" y1="7.61" x2="28.47" y2="15.97"/><line class="a" x1="0.38" y1="30.26" x2="32.38" y2="30.26"/></svg>