<?xml version="1.0" encoding="utf-8"?>
<!-- Generator: Adobe Illustrator 24.0.0, SVG Export Plug-In . SVG Version: 6.00 Build 0)  -->
<svg version="1.1" id="Layer_1" xmlns="http://www.w3.org/2000/svg" xmlns:xlink="http://www.w3.org/1999/xlink" x="0px" y="0px"
	 viewBox="0 0 256 256" style="enable-background:new 0 0 256 256;" xml:space="preserve">
<style type="text/css">
	.st0{fill:#8699A3;}
</style>
<path class="st0" d="M242.37,23.62h-41.73V4.12c0-2.28-1.84-4.12-4.12-4.12H164.7c-2.28,0-4.12,1.84-4.12,4.12v19.5H13.12
	c-2.28,0-4.12,1.84-4.12,4.12v20.59c0,2.28,1.84,4.12,4.12,4.12h61.74v18.34L47.98,90.94c-0.86,0.64-1.28,1.6-1.46,2.61
	c-0.08,0.31-0.19,0.61-0.19,0.95v21.39c0,2.28,1.84,4.12,4.12,4.12h57.04c2.28,0,4.12-1.84,4.12-4.12V94.5
	c0-0.34-0.12-0.64-0.19-0.95c-0.17-1.01-0.59-1.96-1.46-2.61L83.1,70.79V52.44h77.49v127.03h-21.74v-37.07
	c0-2.28-1.84-4.12-4.12-4.12H24.35c-2.28,0-4.12,1.84-4.12,4.12v109.47c0,2.28,1.84,4.12,4.12,4.12H217.1
	c2.28,0,4.12-1.84,4.12-4.12v-68.29c0-2.28-1.84-4.12-4.12-4.12h-16.47V52.44h41.73c2.28,0,4.12-1.84,4.12-4.12V27.74
	C246.49,25.46,244.65,23.62,242.37,23.62z M103.38,111.77h-48.8V98.62h48.8V111.77z M62.81,90.12l16.17-12.13l16.16,12.13H62.81z
	 M168.82,8.24h23.58v15.38h-23.58V8.24z M192.4,31.86v12.35h-23.58V31.86H192.4z M17.24,44.21V31.86h143.35v12.35H17.24z
	 M212.99,247.76H28.47V146.53h102.15v37.07c0,2.28,1.84,4.12,4.12,4.12h29.97h31.81h16.47V247.76z M192.4,179.48h-23.58V52.44h23.58
	V179.48z M238.25,44.21h-37.61V31.86h37.61V44.21z"/>
</svg>
