<?xml version="1.0" encoding="utf-8"?>
<!-- Generator: Adobe Illustrator 24.0.0, SVG Export Plug-In . SVG Version: 6.00 Build 0)  -->
<svg version="1.1" id="Layer_1" xmlns="http://www.w3.org/2000/svg" xmlns:xlink="http://www.w3.org/1999/xlink" x="0px" y="0px"
	 viewBox="0 0 256 256" style="enable-background:new 0 0 256 256;" xml:space="preserve">
<path d="M242.4,23.6h-41.7V4.1c0-2.3-1.8-4.1-4.1-4.1h-31.8c-2.3,0-4.1,1.8-4.1,4.1v19.5H13.1c-2.3,0-4.1,1.8-4.1,4.1v20.6
	c0,2.3,1.8,4.1,4.1,4.1h61.7v18.3L48,90.9c-0.9,0.6-1.3,1.6-1.5,2.6c-0.1,0.3-0.2,0.6-0.2,0.9v21.4c0,2.3,1.8,4.1,4.1,4.1h57
	c2.3,0,4.1-1.8,4.1-4.1V94.5c0-0.3-0.1-0.6-0.2-0.9c-0.2-1-0.6-2-1.5-2.6L83.1,70.8V52.4h77.5v127h-21.7v-37.1
	c0-2.3-1.8-4.1-4.1-4.1H24.4c-2.3,0-4.1,1.8-4.1,4.1v109.5c0,2.3,1.8,4.1,4.1,4.1h192.8c2.3,0,4.1-1.8,4.1-4.1v-68.3
	c0-2.3-1.8-4.1-4.1-4.1h-16.5v-127h41.7c2.3,0,4.1-1.8,4.1-4.1V27.7C246.5,25.5,244.6,23.6,242.4,23.6z M103.4,111.8H54.6V98.6h48.8
	V111.8z M62.8,90.1L79,78l16.2,12.1H62.8z M168.8,8.2h23.6v15.4h-23.6V8.2z M192.4,31.9v12.3h-23.6V31.9H192.4z M17.2,44.2V31.9
	h143.4v12.3H17.2z M213,247.8H28.5V146.5h102.1v37.1c0,2.3,1.8,4.1,4.1,4.1h30h31.8H213L213,247.8L213,247.8z M192.4,179.5h-23.6
	v-127h23.6V179.5z M238.2,44.2h-37.6V31.9h37.6V44.2z"/>
</svg>
