<svg xmlns="http://www.w3.org/2000/svg" viewBox="0 0 256 256"><path d="M242.4 23.6h-41.7V4.1c0-2.3-1.8-4.1-4.1-4.1h-31.8c-2.3 0-4.1 1.8-4.1 4.1v19.5H13.1c-2.3 0-4.1 1.8-4.1 4.1v20.6c0 2.3 1.8 4.1 4.1 4.1h61.7v18.3L48 90.9c-.9.6-1.3 1.6-1.5 2.6-.1.3-.2.6-.2.9v21.4c0 2.3 1.8 4.1 4.1 4.1h57c2.3 0 4.1-1.8 4.1-4.1V94.5c0-.3-.1-.6-.2-.9-.2-1-.6-2-1.5-2.6L83.1 70.8V52.4h77.5v127h-21.7v-37.1c0-2.3-1.8-4.1-4.1-4.1H24.4c-2.3 0-4.1 1.8-4.1 4.1v109.5c0 2.3 1.8 4.1 4.1 4.1h192.8c2.3 0 4.1-1.8 4.1-4.1v-68.3c0-2.3-1.8-4.1-4.1-4.1h-16.5v-127h41.7c2.3 0 4.1-1.8 4.1-4.1V27.7c0-2.2-1.9-4.1-4.1-4.1zm-139 88.2H54.6V98.6h48.8v13.2zM62.8 90.1L79 78l16.2 12.1H62.8zm106-81.9h23.6v15.4h-23.6V8.2zm23.6 23.7v12.3h-23.6V31.9h23.6zM17.2 44.2V31.9h143.4v12.3H17.2zM213 247.8H28.5V146.5h102.1v37.1c0 2.3 1.8 4.1 4.1 4.1H213v60.1zm-20.6-68.3h-23.6v-127h23.6v127zm45.8-135.3h-37.6V31.9h37.6v12.3z"/></svg>