<svg xmlns="http://www.w3.org/2000/svg" viewBox="0 0 23.59 32.75"><defs><style>.a{fill:none;stroke:#000;stroke-linecap:round;stroke-linejoin:round;stroke-width:0.75px;}</style></defs><title>135</title><path class="a" d="M20,24.48a1.44,1.44,0,1,1-1.12-1.7A1.39,1.39,0,0,1,20,24.48Z" transform="translate(-4.2 0.38)"/><path class="a" d="M17,31.89a5.53,5.53,0,0,0,4.15-.8v0a5.49,5.49,0,0,0,1.64-7.59.84.84,0,0,1,.05-1,4.33,4.33,0,0,0-.48-6.1,4.45,4.45,0,0,0-.95-.62L23.75,5.53l.76.15A.4.4,0,0,0,25,5.37h0l.12-.56.61-2.92.11-.55a.4.4,0,0,0-.31-.47L21.66.09" transform="translate(-4.2 0.38)"/><line class="a" x1="21.44" y1="3.07" x2="23.22" y2="3.41"/><line class="a" x1="21.08" y1="4.97" x2="22.98" y2="5.34"/><path class="a" d="M18.74,15.24,21.05,5l-.76-.16A.4.4,0,0,1,20,4.35h0l.12-.56L20.67.87l.1-.55A.4.4,0,0,1,21.24,0L25.1.79" transform="translate(-4.2 0.38)"/><line class="a" x1="16.27" y1="1.68" x2="14.5" y2="1.31"/><line class="a" x1="15.86" y1="3.57" x2="13.97" y2="3.17"/><path class="a" d="M16.58,29.35,15,29.6h0l-1.05.17-2.64.41M12.19,29l-.71-4.52a3.13,3.13,0,0,1-2,1.15,3.2,3.2,0,0,1-1.65-.17h0a3.25,3.25,0,0,1-2-2.5l-1-6.34a3.21,3.21,0,0,1,2.67-3.66,3.3,3.3,0,0,1,1.65.18,3.4,3.4,0,0,1,.54.27A7.18,7.18,0,0,0,5,8.4a.53.53,0,0,1-.37-.55A.54.54,0,0,1,5,7.36L15.59,5.71a.56.56,0,0,1,.58.33.55.55,0,0,1-.19.64,7.17,7.17,0,0,0-2.94,7l2.32,14.81" transform="translate(-4.2 0.38)"/><line class="a" x1="9.47" y1="16.74" x2="12.03" y2="16.32"/><line class="a" x1="9.95" y1="19.05" x2="12.52" y2="18.63"/><line class="a" x1="10.44" y1="21.36" x2="13.01" y2="20.94"/><line class="a" x1="5.53" y1="13.86" x2="7.28" y2="24.95"/></svg>