<svg xmlns="http://www.w3.org/2000/svg" viewBox="0 0 250 250">
<path d="M83.7,68.6c0,1.7-1.4,3.1-3.1,3.1H74l-0.3,1.1c-2,6.9-5.3,13.3-9.7,18.9l-0.9,1.2l1.1,0.9c4.2,3.3,8.6,6.1,13.3,8.5
c0.7,0.4,1.3,1,1.5,1.8c0.3,0.8,0.2,1.6-0.2,2.4c-0.3,0.8-1,1.3-1.8,1.5c-0.8,0.3-1.6,0.3-2.4-0.2c-5.3-2.6-10.4-5.9-15-9.7
l-0.9-0.8l-0.9,0.8c-5.1,4.5-10.9,7.7-17.2,9.8c-0.8,0.3-1.6,0.2-2.4-0.2s-1.3-1-1.5-1.8c-0.3-0.8-0.3-1.6,0.2-2.4
c0.3-0.7,1-1.3,1.8-1.5c5.2-1.7,10-4.4,14.3-7.9l1.3-1.1L53,92c-2.5-2.5-4.8-5.3-6.8-8.1c-0.9-1.4-0.6-3.3,0.8-4.2
c0.7-0.4,1.4-0.6,2.3-0.5c0.8,0.2,1.4,0.7,2,1.4c1.8,2.5,3.8,4.8,5.9,7l1.2,1.2l1.1-1.3c3.2-4.2,5.7-8.8,7.5-13.8l0.7-2H35.1
c-1.7,0-3.1-1.4-3.1-3.1c0-1.7,1.4-3.1,3.1-3.1h19.7v-6c0-1.7,1.4-3.1,3.1-3.1c1.7,0,3.1,1.4,3.1,3.1v6h19.7
C82.3,65.4,83.7,66.9,83.7,68.6z"/>
<path d="M98.9,38.1H16.8C7.6,38.1,0,45.6,0,54.8v63.2c0,9.3,7.6,16.8,16.8,16.8h49.1l22,17.6c1.4,1.1,3.3,0.8,4.3-0.5
c0.4-0.5,0.7-1.2,0.7-1.9v-15.2h6c9.3,0,16.8-7.6,16.8-16.8V54.8C115.7,45.6,108.1,38.1,98.9,38.1z M109.5,118.1
c0,5.9-4.8,10.6-10.6,10.6h-9.1c-1.7,0-3.1,1.4-3.1,3.1v11.8l-17.7-14.3c-0.6-0.4-1.3-0.7-2-0.7H16.8c-5.9,0-10.6-4.8-10.6-10.6
V54.8c0-5.9,4.8-10.6,10.6-10.6h82.1c5.9,0,10.6,4.8,10.6,10.6V118.1z"/>
<path d="M233.2,96.9H151c-9.2,0-16.7,7.6-16.7,16.8v63.2c0,9.3,7.6,16.7,16.7,16.7h6.1v15.2c0,1.7,1.4,3.1,3.1,3.1
c0.7,0,1.4-0.3,2-0.7l21.9-17.6h49.2c9.3,0,16.8-7.5,16.8-16.7v-63.2C250,104.4,242.4,96.9,233.2,96.9z M243.8,176.9
c0,5.9-4.8,10.6-10.6,10.6H183c-0.7,0-1.4,0.2-2,0.7l-17.8,14.3v-11.9c0-1.7-1.4-3.1-3.1-3.1H151c-5.9,0-10.6-4.8-10.6-10.6v-63.2
c0-5.9,4.8-10.6,10.6-10.6h82.2c5.9,0,10.6,4.8,10.6,10.6V176.9z"/>
<path d="M217.8,164.8c-0.3,0.8-0.8,1.4-1.5,1.8c-0.8,0.4-1.5,0.4-2.3,0.2c-0.8-0.3-1.4-0.8-1.8-1.5l-6-12h-14.1
c-1.7,0-3.1-1.4-3.1-3.1s1.4-3.1,3.1-3.1h11l-11-22l-20,40.2c-0.3,0.8-1,1.3-1.8,1.5c-0.8,0.3-1.6,0.3-2.4-0.2
c-0.7-0.3-1.3-0.9-1.5-1.8c-0.3-0.8-0.2-1.6,0.2-2.3l22.7-45.6c0.3-0.4,0.7-0.8,1.2-1.1c0.5-0.3,1.1-0.5,1.6-0.5
c1.1,0,2.2,0.6,2.8,1.6l22.7,45.6C218.1,163.2,218.1,164,217.8,164.8z"/>
</svg>
