<svg xmlns="http://www.w3.org/2000/svg" viewBox="0 0 32.75 27.43"><defs><style>.a{fill:none;stroke:#000;stroke-linecap:round;stroke-linejoin:round;stroke-width:0.75px;}</style></defs><title>137</title><path class="a" d="M13.93,2.66H2.57A2.56,2.56,0,0,0,0,5.21v9.67a2.57,2.57,0,0,0,2.57,2.57H8.88l3.36,2.69a.46.46,0,0,0,.66-.08.44.44,0,0,0,.11-.29V17.45h.92a2.58,2.58,0,0,0,2.57-2.57V5.21A2.56,2.56,0,0,0,13.93,2.66Z" transform="translate(0.38 -2.28)"/><path class="a" d="M15.5,20.87V24a2.56,2.56,0,0,0,2.56,2.55H19v2.32a.47.47,0,0,0,.47.47.54.54,0,0,0,.3-.1l3.35-2.69h6.32A2.56,2.56,0,0,0,32,24V14.33a2.58,2.58,0,0,0-2.57-2.57H19.06" transform="translate(0.38 -2.28)"/><polyline class="a" points="20.84 20.18 24.34 12.8 27.61 20.39"/><line class="a" x1="26.06" y1="18.35" x2="23.91" y2="18.35"/><line class="a" x1="4.81" y1="5.38" x2="12.3" y2="5.38"/><path class="a" d="M5.16,13.38s4.44-1.31,5.24-5.7" transform="translate(0.38 -2.28)"/><path class="a" d="M6.62,10s2.12,3.44,4.72,3.67" transform="translate(0.38 -2.28)"/><line class="a" x1="8.66" y1="5.19" x2="8.66" y2="3.51"/></svg>