<svg xmlns="http://www.w3.org/2000/svg" viewBox="0 0 250 250"><path d="M163.8 55h-108v41.2h108.1V55zm-5.7 35.4H61.5V60.8h96.9v29.6h-.3zM63.5 176.5h30.4v5.8H63.5zM138.1 189.6h6.2v5.8h-6.2zM126.2 176.5h30.4v5.8h-30.4zM138.1 163.1h6.2v5.8h-6.2zM81.5 113.1h-5.7v12.3H63.5v5.4h12.3v12.3h5.7v-12.3h12v-5.4h-12zM150 115.4l-8.8 8.8-8.5-8.8-4.2 4.2 8.8 8.5-8.8 8.8 4.2 3.9 8.5-8.5 8.8 8.5 3.8-3.9-8.4-8.8 8.4-8.5zM183.35 168.13l38.61-38.61 4.1 4.1-38.6 38.6zM216.5 153.5c-5.8 0-10.4 4.6-10.4 10.4 0 5.8 4.6 10.4 10.4 10.4 5.8 0 10.4-4.6 10.4-10.4s-4.6-10.4-10.4-10.4zm0 14.6c-2.3 0-4.6-1.9-4.6-4.6 0-2.3 1.9-4.6 4.6-4.6 2.3 0 4.6 1.9 4.6 4.6.1 2.7-2.3 4.6-4.6 4.6zM191.9 149.2c5.8 0 10.4-4.6 10.4-10.4 0-5.8-4.6-10.4-10.4-10.4s-10.4 4.6-10.4 10.4c0 5.8 4.7 10.4 10.4 10.4zm0-15c2.3 0 4.6 1.9 4.6 4.6 0 2.3-1.9 4.6-4.6 4.6-2.3 0-4.6-1.9-4.6-4.6 0-2.6 1.9-4.6 4.6-4.6z"/><path d="M236.5 118.8c-8.5-8.8-20-13.5-32.7-13.5-7.3 0-14.2 1.9-20 4.6V32.3h-148v185.4h148.1v-25.4c6.2 3.1 12.7 4.6 20 4.6h.4c25 0 45.8-20.4 45.8-45.8-.1-11.9-4.7-23.4-13.6-32.3zm-58.4 93.1H41.5V38.1h136.9v75.4c-11.9 8.1-20 21.9-20 37.7s7.7 29.6 20 38.1V212h-.3zm26.1-20.4c-10.8 0-21.2-4.2-28.5-11.9-7.7-7.7-11.5-17.7-11.5-28.5 0-21.9 18.1-40 40.4-40 10.8 0 20.8 4.2 28.5 11.9s11.5 17.7 11.5 28.5c-.4 22-18.4 40-40.4 40zM10.8 75.8C5 75.8 0 80.8 0 86.5v109.2l10.8 21.5 10.8-21.5V86.5c-.1-5.7-4.7-10.7-10.8-10.7zm0 5.7c2.7 0 5 2.3 5 5v13.8h-10V86.5c0-2.7 2.3-5 5-5zm5 24.7v77.7h-10v-77.7h10zm-5 98.4l-5-10.4v-5h10.4v5l-5.4 10.4z"/></svg>