<?xml version="1.0" encoding="utf-8"?>
<!-- Generator: Adobe Illustrator 24.0.0, SVG Export Plug-In . SVG Version: 6.00 Build 0)  -->
<svg version="1.1" id="Layer_1" xmlns="http://www.w3.org/2000/svg" xmlns:xlink="http://www.w3.org/1999/xlink" x="0px" y="0px"
	 viewBox="0 0 250 250" style="enable-background:new 0 0 250 250;" xml:space="preserve">
<g>
	<path d="M163.8,55H55.8v41.2h108.1V55z M158.1,90.4H61.5V60.8h96.9v29.6H158.1z"/>
	<rect x="63.5" y="176.5" width="30.4" height="5.8"/>
	<rect x="138.1" y="189.6" width="6.2" height="5.8"/>
	<rect x="126.2" y="176.5" width="30.4" height="5.8"/>
	<rect x="138.1" y="163.1" width="6.2" height="5.8"/>
	<polygon points="81.5,113.1 75.8,113.1 75.8,125.4 63.5,125.4 63.5,130.8 75.8,130.8 75.8,143.1 81.5,143.1 81.5,130.8 93.5,130.8 
		93.5,125.4 81.5,125.4 	"/>
	<polygon points="150,115.4 141.2,124.2 132.7,115.4 128.5,119.6 137.3,128.1 128.5,136.9 132.7,140.8 141.2,132.3 150,140.8 
		153.8,136.9 145.4,128.1 153.8,119.6 	"/>
	<rect x="177.4" y="148" transform="matrix(0.7071 -0.7071 0.7071 0.7071 -46.737 188.9158)" width="54.6" height="5.8"/>
	<path d="M216.5,153.5c-5.8,0-10.4,4.6-10.4,10.4c0,5.8,4.6,10.4,10.4,10.4c5.8,0,10.4-4.6,10.4-10.4S222.3,153.5,216.5,153.5z
		 M216.5,168.1c-2.3,0-4.6-1.9-4.6-4.6c0-2.3,1.9-4.6,4.6-4.6c2.3,0,4.6,1.9,4.6,4.6C221.2,166.2,218.8,168.1,216.5,168.1z"/>
	<path d="M191.9,149.2c5.8,0,10.4-4.6,10.4-10.4c0-5.8-4.6-10.4-10.4-10.4s-10.4,4.6-10.4,10.4C181.5,144.6,186.2,149.2,191.9,149.2
		z M191.9,134.2c2.3,0,4.6,1.9,4.6,4.6c0,2.3-1.9,4.6-4.6,4.6c-2.3,0-4.6-1.9-4.6-4.6C187.3,136.2,189.2,134.2,191.9,134.2z"/>
	<path d="M236.5,118.8c-8.5-8.8-20-13.5-32.7-13.5c-7.3,0-14.2,1.9-20,4.6V32.3H35.8v185.4h148.1v-25.4c6.2,3.1,12.7,4.6,20,4.6h0.4
		c25,0,45.8-20.4,45.8-45.8C250,139.2,245.4,127.7,236.5,118.8z M178.1,211.9H41.5V38.1h136.9v75.4c-11.9,8.1-20,21.9-20,37.7
		s7.7,29.6,20,38.1v22.7H178.1z M204.2,191.5L204.2,191.5c-10.8,0-21.2-4.2-28.5-11.9c-7.7-7.7-11.5-17.7-11.5-28.5
		c0-21.9,18.1-40,40.4-40c10.8,0,20.8,4.2,28.5,11.9s11.5,17.7,11.5,28.5C244.2,173.5,226.2,191.5,204.2,191.5z"/>
	<path d="M10.8,75.8C5,75.8,0,80.8,0,86.5v109.2l10.8,21.5l10.8-21.5V86.5C21.5,80.8,16.9,75.8,10.8,75.8z M10.8,81.5
		c2.7,0,5,2.3,5,5v13.8h-10V86.5C5.8,83.8,8.1,81.5,10.8,81.5z M15.8,106.2v77.7h-10v-77.7H15.8z M10.8,204.6l-5-10.4v-5h10.4v5
		L10.8,204.6z"/>
</g>
</svg>
