<svg xmlns="http://www.w3.org/2000/svg" viewBox="0 0 32.9 32.75"><defs><style>.a{fill:none;stroke:#000;stroke-linecap:round;stroke-linejoin:round;stroke-width:0.75px;}</style></defs><title>14</title><path class="a" d="M21,10H4.37V4.91H21.1V10Z" transform="translate(0.45 0.38)"/><path class="a" d="M29,28.41m-3.52-8.3V0H-.08V32H25.48V27.62" transform="translate(0.45 0.38)"/><line class="a" x1="7.8" y1="14.41" x2="7.8" y2="19.21"/><line class="a" x1="5.4" y1="16.81" x2="10.2" y2="16.81"/><line class="a" x1="5.4" y1="25.7" x2="10.2" y2="25.7"/><line class="a" x1="16.2" y1="25.7" x2="21" y2="25.7"/><line class="a" x1="16.96" y1="15.11" x2="20.35" y2="18.51"/><line class="a" x1="16.96" y1="18.51" x2="20.35" y2="15.11"/><rect class="a" x="18.34" y="23.16" width="0.46" height="0.52"/><rect class="a" x="18.34" y="27.78" width="0.46" height="0.52"/><line class="a" x1="32.28" y1="10.73" x2="29.6" y2="9.97"/><line class="a" x1="28.35" y1="24.58" x2="25.67" y2="23.82"/><path class="a" d="M32.08,9.46,27.1,27s-.6,1.34-1.73,1-.95-1.7-.95-1.7l5-17.56,2.43-3.25Z" transform="translate(0.45 0.38)"/></svg>