<svg xmlns="http://www.w3.org/2000/svg" viewBox="0 0 32.75 29.93"><defs><style>.a{fill:none;stroke:#000;stroke-linecap:round;stroke-linejoin:round;stroke-width:0.75px;}</style></defs><title>144</title><path class="a" d="M12,9.32V3.5A2.1,2.1,0,0,0,9.9,1.41H2.08A2.09,2.09,0,0,0,0,3.5v24a2.09,2.09,0,0,0,2.08,2.09H9.9A2.1,2.1,0,0,0,12,27.53v-1" transform="translate(0.38 -1.04)"/><path class="a" d="M3.34,6.29h5.3" transform="translate(0.38 -1.04)"/><path class="a" d="M3.34,9.44h2" transform="translate(0.38 -1.04)"/><path class="a" d="M5.19,25.86A1.87,1.87,0,1,1,7.06,24,1.87,1.87,0,0,1,5.19,25.86Z" transform="translate(0.38 -1.04)"/><path class="a" d="M28.39,30.24,25.2,26.49h6.07a.73.73,0,0,0,.73-.73V10.25a.73.73,0,0,0-.73-.73H10.38a.73.73,0,0,0-.73.73V25.76a.73.73,0,0,0,.73.73h6.07l-3,3.75m-.14.35H28.36" transform="translate(0.38 -1.04)"/><rect class="a" x="13.2" y="11.59" width="15.96" height="10.84"/></svg>