<svg xmlns="http://www.w3.org/2000/svg" viewBox="0 0 256 256">
<path d="M236.4,170.6c-1.9-10.5-10.4-18.6-20.9-20.2c-1.2-6.5-5-11.9-10.1-15.5l-0.1-93c0-1.3-0.5-2.6-1.4-3.5
c-0.9-0.9-2.2-1.4-3.5-1.4c0,0,0,0,0,0L55.5,37.3c-2.7,0-4.9,2.2-4.9,5l0.2,92.6c-5.2,3.6-9,9.1-10.2,15.6
c-10.5,1.5-19,9.7-20.9,20.2C8.2,173,0,183.1,0,194.8v19.9c0,2.7,2.2,5,5,5H251c2.7,0,5-2.2,5-5v-19.9
C256,183.1,247.8,173,236.4,170.6z M9.9,209.7v-14.9c0-8.2,6.7-14.9,14.9-14.9h1.3c8.2,0,14.9,6.7,14.9,14.9v14.9H9.9z M196.4,170.9
c1.8-6.4,7.6-10.8,14.3-10.8h1.3c6.5,0,12.1,4.2,14.1,10.2c-6.4,1-12.2,4.4-16.1,9.6C206.6,175.5,201.9,172.3,196.4,170.9z
M50.9,194.8c0-8.2,6.7-14.9,14.9-14.9h1.3c8.2,0,14.9,6.7,14.9,14.9v14.9H50.9L50.9,194.8L50.9,194.8z M64.8,140.3h1.3
c6.6,0,12.3,4.3,14.2,10.5c-6,1.3-11.3,4.8-14.9,9.8c-3.6-5-8.9-8.5-14.9-9.8C52.5,144.6,58.2,140.3,64.8,140.3z M101.2,170.7
c-5.7,1.3-10.8,4.6-14.2,9.3c-3.8-5-9.3-8.4-15.5-9.6c2-6.1,7.6-10.3,14.2-10.3H87C93.6,160.1,99.4,164.4,101.2,170.7z M107.2,160.6
c-3.6-5-8.9-8.5-14.9-9.8c1.9-6.2,7.6-10.5,14.2-10.5h1.3c6.6,0,12.3,4.3,14.2,10.5C116.1,152.1,110.7,155.6,107.2,160.6z
M91.9,194.8c0-8.2,6.7-14.9,14.9-14.9h1.3c8.2,0,14.9,6.7,14.9,14.9v14.9H91.9V194.8z M142.9,170.6c-5.9,1.2-11.2,4.6-14.9,9.4
c-3.6-4.8-8.9-8.2-14.9-9.4c1.9-6.2,7.6-10.5,14.2-10.5h1.3C135.2,160.1,140.9,164.4,142.9,170.6z M148.8,160.6
c-3.6-5-8.9-8.5-14.9-9.8c1.9-6.2,7.6-10.5,14.2-10.5h1.3c6.6,0,12.3,4.3,14.2,10.5C157.7,152.1,152.4,155.6,148.8,160.6z
M133,194.8c0-8.2,6.7-14.9,14.9-14.9h1.3c8.2,0,14.9,6.7,14.9,14.9v14.9H133V194.8z M184.5,170.4c-6.2,1.1-11.7,4.5-15.5,9.6
c-3.5-4.6-8.6-7.9-14.2-9.3c1.9-6.3,7.6-10.6,14.2-10.6h1.3C176.9,160.1,182.5,164.3,184.5,170.4z M174,194.8
c0-8.2,6.7-14.9,14.9-14.9h1.3c8.2,0,14.9,6.7,14.9,14.9v14.9H174V194.8z M190.5,160.6c-3.6-5-8.9-8.5-14.9-9.8
c1.9-6.2,7.6-10.5,14.2-10.5h1.3c6.6,0,12.3,4.3,14.2,10.5C199.4,152.1,194.1,155.6,190.5,160.6z M29.9,170.3
c2-6.1,7.7-10.2,14.1-10.2h1.3c6.7,0,12.5,4.4,14.3,10.8c-5.5,1.4-10.2,4.6-13.6,9.1C42.1,174.8,36.3,171.3,29.9,170.3z M215,209.7
v-14.9c0-8.2,6.7-14.9,14.9-14.9h1.3c8.2,0,14.9,6.7,14.9,14.9v14.9H215z M60.5,47.1l135-0.3l0.1,83.9c-0.9-0.2-1.8-0.4-2.7-0.4
c-4.8-0.4-8.3,0.5-8.7,0.6c-5.9,1.4-11,4.8-14.5,9.8c-3.5-4.9-8.6-8.4-14.6-9.8c-7.7-1.3-12.4,0-12.6,0c-5.9,1.4-11,4.8-14.5,9.8
c-3.5-4.9-8.6-8.4-14.6-9.8c-6.9-1.3-12.3,0-12.6,0c-5.9,1.4-11,4.8-14.5,9.8c-3.5-4.9-8.6-8.4-14.5-9.8c-4.2-1.1-8.5-0.6-8.7-0.6
c-0.9,0.1-1.7,0.2-2.5,0.4L60.5,47.1z"/>
</svg>
