<?xml version="1.0" encoding="utf-8"?>
<!-- Generator: Adobe Illustrator 24.0.0, SVG Export Plug-In . SVG Version: 6.00 Build 0)  -->
<svg version="1.1" id="Layer_1" xmlns="http://www.w3.org/2000/svg" xmlns:xlink="http://www.w3.org/1999/xlink" x="0px" y="0px"
	 viewBox="0 0 256 256" style="enable-background:new 0 0 256 256;" xml:space="preserve">
<style type="text/css">
	.st0{fill:#8699A3;}
</style>
<path class="st0" d="M236.4,170.6c-1.9-10.49-10.35-18.64-20.9-20.16c-1.25-6.47-4.97-11.9-10.07-15.5l-0.15-93.02
	c0-1.31-0.53-2.57-1.45-3.49c-0.93-0.93-2.18-1.44-3.49-1.44c0,0,0,0-0.01,0L55.5,37.27c-2.72,0-4.93,2.22-4.93,4.95l0.15,92.61
	c-5.18,3.59-8.96,9.08-10.22,15.61c-10.55,1.52-19,9.67-20.9,20.16C8.22,173.04,0.01,183.13,0,194.83v19.85
	c0,2.73,2.22,4.96,4.96,4.96h246.08c2.73,0,4.96-2.22,4.96-4.96v-19.85C255.99,183.13,247.78,173.04,236.4,170.6z M9.92,209.72
	v-14.89c0.01-8.2,6.68-14.88,14.88-14.89h1.33c8.19,0.01,14.87,6.69,14.89,14.89v14.89H9.92z M196.39,170.86
	c1.83-6.38,7.58-10.76,14.3-10.76h1.33c6.47,0.01,12.13,4.17,14.13,10.24c-6.44,0.98-12.21,4.43-16.11,9.64
	C206.64,175.47,201.87,172.27,196.39,170.86z M50.93,194.83c0.01-8.2,6.69-14.88,14.89-14.89h1.33c8.2,0.01,14.88,6.69,14.89,14.89
	v14.89h-31.1V194.83z M64.83,140.26h1.32c6.62,0.01,12.33,4.29,14.23,10.54c-6,1.32-11.32,4.83-14.89,9.82
	c-3.57-4.99-8.89-8.5-14.89-9.82C52.5,144.55,58.21,140.27,64.83,140.26z M101.23,170.72c-5.66,1.31-10.75,4.63-14.25,9.26
	c-3.76-5.03-9.29-8.45-15.48-9.56c1.97-6.12,7.64-10.31,14.15-10.32h1.33C93.64,160.11,99.36,164.43,101.23,170.72z M107.16,160.62
	c-3.57-4.99-8.89-8.5-14.89-9.82c1.91-6.25,7.62-10.53,14.23-10.54h1.32c6.61,0.01,12.33,4.29,14.23,10.54
	C116.05,152.12,110.73,155.63,107.16,160.62z M91.95,194.83c0.01-8.2,6.68-14.88,14.88-14.89h1.33c8.19,0.01,14.87,6.69,14.89,14.89
	v14.89h-31.1V194.83z M142.87,170.57c-5.93,1.22-11.23,4.58-14.87,9.41c-3.63-4.83-8.94-8.19-14.86-9.41
	c1.92-6.21,7.63-10.47,14.2-10.48h1.33C135.24,160.11,140.94,164.37,142.87,170.57z M148.84,160.62c-3.57-4.99-8.89-8.5-14.89-9.82
	c1.91-6.25,7.62-10.53,14.23-10.54h1.32c6.61,0.01,12.33,4.29,14.23,10.54C157.73,152.12,152.41,155.63,148.84,160.62z
	 M132.96,194.83c0.01-8.2,6.69-14.88,14.89-14.89h1.33c8.2,0.01,14.87,6.69,14.88,14.89v14.89h-31.1V194.83z M184.49,170.42
	c-6.18,1.12-11.72,4.54-15.48,9.56c-3.5-4.64-8.58-7.95-14.25-9.26c1.87-6.29,7.6-10.61,14.25-10.62h1.33
	C176.85,160.11,182.52,164.3,184.49,170.42z M173.97,194.83c0.01-8.2,6.69-14.88,14.89-14.89h1.33c8.2,0.01,14.87,6.69,14.88,14.89
	v14.89h-31.1V194.83z M190.51,160.62c-3.57-4.99-8.89-8.5-14.89-9.82c1.9-6.25,7.61-10.53,14.23-10.54h1.32
	c6.61,0.01,12.33,4.29,14.23,10.54C199.4,152.12,194.08,155.63,190.51,160.62z M29.86,170.34c1.99-6.07,7.65-10.23,14.13-10.24h1.32
	c6.72,0.01,12.47,4.39,14.3,10.76c-5.48,1.41-10.25,4.61-13.63,9.12C42.07,174.77,36.3,171.32,29.86,170.34z M214.99,209.72v-14.89
	c0.01-8.2,6.69-14.88,14.89-14.89h1.33c8.2,0.01,14.87,6.69,14.88,14.89v14.89H214.99z M60.46,47.14l134.95-0.26l0.14,83.95
	c-0.89-0.16-1.76-0.35-2.68-0.41c-4.8-0.39-8.34,0.52-8.68,0.6c-5.91,1.4-11.01,4.84-14.51,9.75c-3.5-4.91-8.61-8.35-14.59-9.76
	c-7.71-1.29-12.4-0.02-12.55,0.01c-5.92,1.39-11.03,4.83-14.53,9.75c-3.5-4.91-8.61-8.35-14.57-9.76
	c-6.89-1.31-12.34-0.04-12.57,0.01c-5.92,1.39-11.03,4.83-14.53,9.75c-3.5-4.91-8.61-8.35-14.51-9.75c-4.19-1.05-8.53-0.63-8.67-0.6
	c-0.87,0.06-1.7,0.24-2.55,0.39L60.46,47.14z"/>
</svg>
