<svg xmlns="http://www.w3.org/2000/svg" viewBox="0 0 250 250"><path d="M239.1 110.2h-4.6V98c0-8.1-6.5-14.7-14.7-14.7-2.7 0-5.2.7-7.4 2l-1.1.6v-8.8a18.54 18.54 0 00-37.1 0v33.2H75.8V77.1a18.6 18.6 0 00-37.2 0v8.8l-1-.6A14.81 14.81 0 0015.4 98v12.3h-4.5c-6 0-10.9 4.9-10.9 10.9v7.7c0 6 4.9 10.9 10.9 10.9h4.5V152c0 8.1 6.6 14.7 14.8 14.7 2.6 0 5.2-.6 7.4-2l1-.6v8.8c0 10.2 8.4 18.6 18.6 18.6 10.2 0 18.6-8.4 18.6-18.6v-33.1h98.5v33.1c0 10.2 8.3 18.6 18.6 18.6 10.2 0 18.5-8.4 18.5-18.6v-8.8l1.1.6c2.2 1.4 4.7 2 7.4 2 8.1 0 14.7-6.5 14.7-14.7v-12.3h4.6c6 0 10.9-4.9 10.9-10.9v-7.7c-.1-6-5-10.9-11-10.9zM15.4 133.4h-4.5c-2.5 0-4.6-2-4.6-4.5v-7.7c0-2.5 2.1-4.5 4.6-4.5h4.5v16.7zM38.5 152c0 4.6-3.8 8.4-8.4 8.4s-8.4-3.8-8.4-8.4V98c0-4.6 3.8-8.4 8.4-8.4s8.4 3.8 8.4 8.4v54zm30.9 20.8a12.3 12.3 0 11-24.6 0V77.1a12.3 12.3 0 1124.6 0v95.7zm104.8-39.4H75.8v-16.8h98.5v16.8zm30.9 39.4a12.3 12.3 0 11-24.6 0V77.1a12.3 12.3 0 1124.6 0v95.7zm23.1-20.8a8.45 8.45 0 01-16.9 0V98a8.45 8.45 0 0116.9 0v54zm15.4-23.1c0 2.5-2 4.5-4.5 4.5h-4.6v-16.8h4.6c2.5 0 4.5 2 4.5 4.5v7.8z"/></svg>