<?xml version="1.0" encoding="utf-8"?>
<!-- Generator: Adobe Illustrator 24.0.0, SVG Export Plug-In . SVG Version: 6.00 Build 0)  -->
<svg version="1.1" id="Layer_1" xmlns="http://www.w3.org/2000/svg" xmlns:xlink="http://www.w3.org/1999/xlink" x="0px" y="0px"
	 viewBox="0 0 250 250" style="enable-background:new 0 0 250 250;" xml:space="preserve">
<g>
	<g>
		<path d="M239.1,110.2h-4.6V98c0-8.1-6.5-14.7-14.7-14.7c-2.7,0-5.2,0.7-7.4,2l-1.1,0.6v-8.8c0-10.2-8.3-18.5-18.5-18.5
			c-10.3,0-18.6,8.3-18.6,18.5v33.2H75.8V77.1c0-10.2-8.4-18.5-18.6-18.5c-10.2,0-18.6,8.3-18.6,18.5v8.8l-1-0.6
			c-2.2-1.3-4.8-2-7.4-2c-8.1,0-14.8,6.6-14.8,14.7v12.3h-4.5c-6,0-10.9,4.9-10.9,10.9v7.7c0,6,4.9,10.9,10.9,10.9h4.5V152
			c0,8.1,6.6,14.7,14.8,14.7c2.6,0,5.2-0.6,7.4-2l1-0.6v8.8c0,10.2,8.4,18.6,18.6,18.6c10.2,0,18.6-8.4,18.6-18.6v-33.1h98.5v33.1
			c0,10.2,8.3,18.6,18.6,18.6c10.2,0,18.5-8.4,18.5-18.6v-8.8l1.1,0.6c2.2,1.4,4.7,2,7.4,2c8.1,0,14.7-6.5,14.7-14.7v-12.3h4.6
			c6,0,10.9-4.9,10.9-10.9v-7.7C250,115.1,245.1,110.2,239.1,110.2z M15.4,133.4h-4.5c-2.5,0-4.6-2-4.6-4.5v-7.7
			c0-2.5,2.1-4.5,4.6-4.5h4.5V133.4z M38.5,152c0,4.6-3.8,8.4-8.4,8.4s-8.4-3.8-8.4-8.4V98c0-4.6,3.8-8.4,8.4-8.4s8.4,3.8,8.4,8.4
			V152z M69.4,172.8c0,6.7-5.5,12.3-12.3,12.3s-12.3-5.5-12.3-12.3V77.1c0-6.7,5.5-12.3,12.3-12.3s12.3,5.5,12.3,12.3V172.8z
			 M174.2,133.4H75.8v-16.8h98.5V133.4z M205.1,172.8c0,6.7-5.5,12.3-12.3,12.3c-6.8,0-12.3-5.5-12.3-12.3V77.1
			c0-6.7,5.4-12.3,12.3-12.3c6.7,0,12.3,5.5,12.3,12.3V172.8z M228.2,152c0,4.6-3.8,8.4-8.4,8.4c-4.7,0-8.5-3.8-8.5-8.4V98
			c0-4.6,3.8-8.4,8.5-8.4c4.6,0,8.4,3.8,8.4,8.4V152z M243.6,128.9c0,2.5-2,4.5-4.5,4.5h-4.6v-16.8h4.6c2.5,0,4.5,2,4.5,4.5V128.9z"
			/>
	</g>
</g>
</svg>
