<svg xmlns="http://www.w3.org/2000/svg" viewBox="0 0 28.52 32.72"><defs><style>.a{fill:none;stroke:#000;stroke-linecap:round;stroke-linejoin:round;stroke-width:0.75px;}</style></defs><title>1487</title><path class="a" d="M14.28,11.21a.35.35,0,0,0,.17-.41,7,7,0,0,1,0-3.46.35.35,0,0,0-.17-.41l-1.72-1A8.94,8.94,0,0,1,14.1,3.28l1.72,1a.36.36,0,0,0,.44-.06,6.92,6.92,0,0,1,3-1.73.36.36,0,0,0,.27-.35v-2a9.3,9.3,0,0,1,3.07,0v2a.36.36,0,0,0,.27.35,6.83,6.83,0,0,1,3,1.73.38.38,0,0,0,.45.06l1.72-1a8.94,8.94,0,0,1,1.54,2.66l-1.72,1a.36.36,0,0,0-.18.41,6.76,6.76,0,0,1,0,3.46.36.36,0,0,0,.18.41l1.72,1A9.12,9.12,0,0,1,28,14.87l-1.72-1a.38.38,0,0,0-.45.06,6.83,6.83,0,0,1-3,1.73.37.37,0,0,0-.27.36v2a9.3,9.3,0,0,1-3.07,0V16a.37.37,0,0,0-.27-.36,6.87,6.87,0,0,1-3-1.73.36.36,0,0,0-.44-.06l-1.72,1a9.12,9.12,0,0,1-1.54-2.67Z" transform="translate(-1.74 0.36)"/><path class="a" d="M21.06,5.2A3.87,3.87,0,1,1,17.2,9.07,3.87,3.87,0,0,1,21.06,5.2Z" transform="translate(-1.74 0.36)"/><path class="a" d="M4.57,31.51H15.31l13.49-7.9s1.51-1.36,1-2.49-2.32-.87-2.32-.87l-7.71,2" transform="translate(-1.74 0.36)"/><path class="a" d="M4.57,24.39l4.56-3.87,8.94.27s1.37.34,1.31,1.55-.63,1.91-1.16,2.05L11,26.29" transform="translate(-1.74 0.36)"/><rect class="a" x="0.38" y="23.38" width="2.45" height="8.97"/></svg>