<?xml version="1.0" encoding="utf-8"?>
<!-- Generator: Adobe Illustrator 24.0.0, SVG Export Plug-In . SVG Version: 6.00 Build 0)  -->
<svg version="1.1" id="Layer_1" xmlns="http://www.w3.org/2000/svg" xmlns:xlink="http://www.w3.org/1999/xlink" x="0px" y="0px"
	 viewBox="0 0 256 256" style="enable-background:new 0 0 256 256;" xml:space="preserve">
<style type="text/css">
	.st0{fill:#8699A3;}
</style>
<g>
	<g>
		<path class="st0" d="M127.99,43.33C127.99,42.32,127.99,41.31,127.99,43.33l-6.05,79.62l5.04,3.02L127.99,43.33z"/>
		<path class="st0" d="M102.8,141.09l22.17-12.09l-4.03-3.02L102.8,141.09C101.79,142.1,101.79,142.1,102.8,141.09z"/>
		<path class="st0" d="M127.99,1C57.45,1,0,57.44,0,127.99s57.45,126.99,127.99,126.99s127.99-56.44,127.99-126.99
			C256.99,57.44,199.55,1,127.99,1z M127.99,249.93c-48.38,0-85.66-25.2-103.81-59.46l3.02-1.01c5.04,8.06,11.09,14.11,19.15,23.18
			c10.08,11.09,42.33,32.25,82.64,32.25c42.33,0,80.63-22.17,100.78-56.44c2.02,0,2.02-1.01,2.02-3.02
			c10.08-17.13,16.13-38.3,16.13-59.46c0-13.1-2.02-24.19-5.04-33.26c-2.02-7.05-5.04-14.11-7.05-17.13c0-1.01,0-1.01,0-2.02
			c1.01,0,1.01,1.01,1.01,1.01c2.02,3.02,6.05,12.09,8.06,17.13c2.02,10.08,7.05,20.16,7.05,36.28
			C251.96,194.5,196.53,249.93,127.99,249.93z M25.2,187.45l89.7-64.5l-8.06-4.03L26.2,185.43c-9.07-16.13-15.12-37.29-15.12-57.45
			c0-63.49,50.39-113.88,113.88-114.89l-16.13,101.79l8.06,4.03l10.08-106.83c0-1.01,1.01-1.01,1.01,0L129,123.95l18.14-11.09
			L130.01,14.1c62.49,2.02,113.88,52.41,113.88,114.89c0,20.16-6.05,41.32-15.12,57.45l-79.62-66.52l-8.06,3.02l85.66,62.48
			c2.02,1.01,1.01,2.02-1.01,1.01L129,131.01v21.16l96.75,37.29c-20.16,33.26-56.44,54.42-98.77,54.42s-77.6-21.16-98.77-54.42
			l96.75-37.29v-21.16L25.2,187.45C24.19,190.47,23.18,189.46,25.2,187.45z M23.18,188.46c-4.03-9.07-9.07-21.16-11.09-31.24
			c0-1.01,0-1.01,0-2.02c0,0,0,1.01,1.01,1.01c3.02,9.07,5.04,17.13,12.09,29.23L23.18,188.46z M250.95,106.82c0,0,0-1.01-1.01-1.01
			c-9.07-29.23-17.13-40.31-33.26-57.45C196.53,26.2,163.27,9.06,127.99,9.06C61.48,8.05,7.05,62.48,7.05,130
			c0,20.16,4.03,37.29,8.06,46.36c4.03,10.08,11.09,23.18,12.09,24.19c0,1.01,0,1.01,0,2.02c-1.01,0-1.01-1.01-1.01-1.01
			c-2.02-3.02-10.08-18.14-13.1-24.19c-6.05-14.11-10.08-30.23-10.08-46.36C3.02,61.47,59.46,5.03,129,5.03
			c62.49,0,111.87,43.34,122.95,100.78C251.96,105.81,251.96,105.81,250.95,106.82z"/>
		<path class="st0" d="M202.57,170.31l-66.52-44.34l-5.04,3.02L202.57,170.31C203.58,171.32,204.59,171.32,202.57,170.31z"/>
	</g>
</g>
</svg>
