<svg xmlns="http://www.w3.org/2000/svg" viewBox="0 0 256 256"><path d="M128 43.3c0-1 0-2 0 0l-6.1 79.6 5 3 1.1-82.6zM102.8 141.1L125 129l-4-3-18.2 15.1c-1 1-1 1 0 0z"/><path d="M128 1C57.5 1 0 57.4 0 128s57.5 127 128 127 128-56.4 128-127C257 57.4 199.6 1 128 1zm0 248.9c-48.4 0-85.7-25.2-103.8-59.5l3-1c5 8.1 11.1 14.1 19.1 23.2 10.1 11.1 42.3 32.2 82.6 32.2 42.3 0 80.6-22.2 100.8-56.4 2 0 2-1 2-3 10.1-17.1 16.1-38.3 16.1-59.5 0-13.1-2-24.2-5-33.3-2-7.1-5-14.1-7.1-17.1 0-1 0-1 0-2 1 0 1 1 1 1 2 3 6.1 12.1 8.1 17.1 2 10.1 7.1 20.2 7.1 36.3.1 66.6-55.4 122-123.9 122zM25.2 187.4l89.7-64.5-8.1-4-80.6 66.5c-9.1-16.1-15.1-37.3-15.1-57.4C11.1 64.5 61.5 14.1 125 13.1l-16.1 101.8 8.1 4 10-106.8c0-1 1-1 1 0l1 111.9 18.1-11.1L130 14.1c62.5 2 113.9 52.4 113.9 114.9 0 20.2-6.1 41.3-15.1 57.4l-79.6-66.5-8.1 3 85.7 62.5c2 1 1 2-1 1L129 131v21.2l96.8 37.3c-20.2 33.3-56.4 54.4-98.8 54.4s-77.6-21.2-98.8-54.4l96.8-37.3V131l-99.8 56.4c-1 3.1-2 2.1 0 0zm-2 1.1c-4-9.1-9.1-21.2-11.1-31.2 0-1 0-1 0-2 0 0 0 1 1 1 3 9.1 5 17.1 12.1 29.2l-2 3zm227.7-81.7s0-1-1-1c-9.1-29.2-17.1-40.3-33.3-57.5C196.5 26.2 163.3 9.1 128 9.1 61.5 8.1 7.1 62.5 7.1 130c0 20.2 4 37.3 8.1 46.4 4 10.1 11.1 23.2 12.1 24.2 0 1 0 1 0 2-1 0-1-1-1-1-2-3-10.1-18.1-13.1-24.2C7 163.3 3 147.1 3 131 3 61.5 59.5 5 129 5c62.5 0 111.9 43.3 122.9 100.8.1 0 .1 0-1 1z"/><path d="M202.6 170.3L136.1 126l-5 3 71.5 41.3c1 1 2 1 0 0z"/></svg>