<?xml version="1.0" encoding="utf-8"?>
<!-- Generator: Adobe Illustrator 24.0.0, SVG Export Plug-In . SVG Version: 6.00 Build 0)  -->
<svg version="1.1" id="Layer_1" xmlns="http://www.w3.org/2000/svg" xmlns:xlink="http://www.w3.org/1999/xlink" x="0px" y="0px"
	 viewBox="0 0 256 256" style="enable-background:new 0 0 256 256;" xml:space="preserve">
<g>
	<g>
		<path d="M128,43.3C128,42.3,128,41.3,128,43.3l-6.1,79.6l5,3L128,43.3z"/>
		<path d="M102.8,141.1L125,129l-4-3L102.8,141.1C101.8,142.1,101.8,142.1,102.8,141.1z"/>
		<path d="M128,1C57.5,1,0,57.4,0,128s57.5,127,128,127s128-56.4,128-127C257,57.4,199.6,1,128,1z M128,249.9
			c-48.4,0-85.7-25.2-103.8-59.5l3-1c5,8.1,11.1,14.1,19.1,23.2c10.1,11.1,42.3,32.2,82.6,32.2c42.3,0,80.6-22.2,100.8-56.4
			c2,0,2-1,2-3c10.1-17.1,16.1-38.3,16.1-59.5c0-13.1-2-24.2-5-33.3c-2-7.1-5-14.1-7.1-17.1c0-1,0-1,0-2c1,0,1,1,1,1
			c2,3,6.1,12.1,8.1,17.1c2,10.1,7.1,20.2,7.1,36.3C252,194.5,196.5,249.9,128,249.9z M25.2,187.4l89.7-64.5l-8.1-4l-80.6,66.5
			c-9.1-16.1-15.1-37.3-15.1-57.4C11.1,64.5,61.5,14.1,125,13.1l-16.1,101.8l8.1,4L127,12.1c0-1,1-1,1,0l1,111.9l18.1-11.1L130,14.1
			c62.5,2,113.9,52.4,113.9,114.9c0,20.2-6.1,41.3-15.1,57.4l-79.6-66.5l-8.1,3l85.7,62.5c2,1,1,2-1,1L129,131v21.2l96.8,37.3
			c-20.2,33.3-56.4,54.4-98.8,54.4s-77.6-21.2-98.8-54.4l96.8-37.3V131L25.2,187.4C24.2,190.5,23.2,189.5,25.2,187.4z M23.2,188.5
			c-4-9.1-9.1-21.2-11.1-31.2c0-1,0-1,0-2c0,0,0,1,1,1c3,9.1,5,17.1,12.1,29.2L23.2,188.5z M250.9,106.8c0,0,0-1-1-1
			c-9.1-29.2-17.1-40.3-33.3-57.5C196.5,26.2,163.3,9.1,128,9.1C61.5,8.1,7.1,62.5,7.1,130c0,20.2,4,37.3,8.1,46.4
			c4,10.1,11.1,23.2,12.1,24.2c0,1,0,1,0,2c-1,0-1-1-1-1c-2-3-10.1-18.1-13.1-24.2C7,163.3,3,147.1,3,131C3,61.5,59.5,5,129,5
			c62.5,0,111.9,43.3,122.9,100.8C252,105.8,252,105.8,250.9,106.8z"/>
		<path d="M202.6,170.3L136.1,126l-5,3L202.6,170.3C203.6,171.3,204.6,171.3,202.6,170.3z"/>
	</g>
</g>
</svg>
