<?xml version="1.0" encoding="utf-8"?>
<!-- Generator: Adobe Illustrator 24.0.0, SVG Export Plug-In . SVG Version: 6.00 Build 0)  -->
<svg version="1.1" id="Layer_1" xmlns="http://www.w3.org/2000/svg" xmlns:xlink="http://www.w3.org/1999/xlink" x="0px" y="0px"
	 viewBox="0 0 25.5 25.2" style="enable-background:new 0 0 25.5 25.2;" xml:space="preserve">
<style type="text/css">
	.st0{fill:#8699A3;}
</style>
<g>
	<g>
		<path class="st0" d="M12.7,4.2C12.7,4.1,12.7,4,12.7,4.2l-0.6,7.9l0.5,0.3L12.7,4.2z"/>
		<path class="st0" d="M10.2,13.9l2.2-1.2L12,12.4L10.2,13.9C10.1,14,10.1,14,10.2,13.9z"/>
		<path class="st0" d="M12.7,0C5.7,0,0,5.6,0,12.6c0,7,5.7,12.6,12.7,12.6c7,0,12.7-5.6,12.7-12.6C25.5,5.6,19.8,0,12.7,0z
			 M12.7,24.7c-4.8,0-8.5-2.5-10.3-5.9l0.3-0.1c0.5,0.8,1.1,1.4,1.9,2.3c1,1.1,4.2,3.2,8.2,3.2c4.2,0,8-2.2,10-5.6
			c0.2,0,0.2-0.1,0.2-0.3c1-1.7,1.6-3.8,1.6-5.9c0-1.3-0.2-2.4-0.5-3.3c-0.2-0.7-0.5-1.4-0.7-1.7c0-0.1,0-0.1,0-0.2
			c0.1,0,0.1,0.1,0.1,0.1c0.2,0.3,0.6,1.2,0.8,1.7C24.5,10,25,11,25,12.6C25,19.2,19.5,24.7,12.7,24.7z M2.5,18.5l8.9-6.4l-0.8-0.4
			l-8,6.6c-0.9-1.6-1.5-3.7-1.5-5.7c0-6.3,5-11.3,11.3-11.4l-1.6,10.1l0.8,0.4l1-10.6c0-0.1,0.1-0.1,0.1,0l0.1,11.1l1.8-1.1
			L12.9,1.3c6.2,0.2,11.3,5.2,11.3,11.4c0,2-0.6,4.1-1.5,5.7l-7.9-6.6L14,12.1l8.5,6.2c0.2,0.1,0.1,0.2-0.1,0.1l-9.6-5.5V15l9.6,3.7
			c-2,3.3-5.6,5.4-9.8,5.4c-4.2,0-7.7-2.1-9.8-5.4l9.6-3.7v-2.1L2.5,18.5C2.4,18.8,2.3,18.7,2.5,18.5z M2.3,18.6
			c-0.4-0.9-0.9-2.1-1.1-3.1c0-0.1,0-0.1,0-0.2c0,0,0,0.1,0.1,0.1c0.3,0.9,0.5,1.7,1.2,2.9L2.3,18.6z M24.9,10.5c0,0,0-0.1-0.1-0.1
			c-0.9-2.9-1.7-4-3.3-5.7c-2-2.2-5.3-3.9-8.8-3.9C6.1,0.7,0.7,6.1,0.7,12.8c0,2,0.4,3.7,0.8,4.6c0.4,1,1.1,2.3,1.2,2.4
			c0,0.1,0,0.1,0,0.2c-0.1,0-0.1-0.1-0.1-0.1c-0.2-0.3-1-1.8-1.3-2.4c-0.6-1.4-1-3-1-4.6c0-6.9,5.6-12.5,12.5-12.5
			c6.2,0,11.1,4.3,12.2,10C25,10.4,25,10.4,24.9,10.5z"/>
		<path class="st0" d="M20.1,16.8l-6.6-4.4L13,12.7L20.1,16.8C20.2,16.9,20.3,16.9,20.1,16.8z"/>
	</g>
</g>
</svg>
