<svg xmlns="http://www.w3.org/2000/svg" viewBox="0 0 250 250">
<path d="M247.2,202l-40.7-53.6l0.4-0.9c1.7-4.1,2.2-8.8,1.4-14.1l-8.5-51.6c-2.2-12.4-12.9-21-25.3-21c-1.3,0-2.7,0.1-4.1,0.3
c-13.8,2.5-22.9,15.4-20.8,29.4l0.6,2.3l-0.7,0.7l-35.2,33.7c-2,1.9-3,4.1-3,6.7c0,1.6,0.3,2.9,1,4.2l-43,43.6
c-0.6,0.5-0.7,0.9-0.7,1.5v10.5H53v-17.9h11.3c1.4,0,2.1-1.3,2.1-2.5c0-11.7-9.2-20.8-20.9-20.8H29.8c-11.7,0-20.8,9.3-20.8,21.2
c0,1.3,0.8,2.1,2.1,2.1h11.2v17.9H8.8c-4.4,0-8.3,3.9-8.3,8.3v19.8c0,1.4,0.8,2.2,2.1,2.2h7.8l0.4,1.3c0.1,0.3,0.3,0.5,0.4,0.8
c0.1,0.2,0.2,0.3,0.2,0.5c1.8,4.4,6.1,7.4,11.1,7.4c1.5,0,3-0.4,4.4-1c0.4-0.2,0.8-0.4,1.1-0.6c0.8-0.4,1.6-0.9,2.3-1.5
c0.5-0.5,1-0.9,1.5-1.5c0.5-0.6,0.9-1.2,1.3-1.9c0.3-0.6,0.7-1.1,0.9-1.7c0.1-0.2,0.2-0.4,0.3-0.6l0.4-1.2h14.7l0.4,1.3
c0.1,0.3,0.3,0.6,0.4,0.9c0,0.1,0.1,0.2,0.1,0.3c1.8,4.4,6.1,7.5,11.2,7.5c1.7,0,3.2-0.4,4.7-1c0.1,0,0.2-0.1,0.3-0.2
c1.2-0.5,2.2-1.2,3.2-2.1c0.3-0.3,0.6-0.6,0.9-1c0.6-0.7,1-1.4,1.5-2.2c0.3-0.6,0.6-1.1,0.9-1.7c0.1-0.2,0.2-0.3,0.3-0.5l0.4-1.2
h7.7c1.3,0,2.1-0.8,2.1-2.2v-19.8c0-3.9-2.7-7.2-6.6-7.9l-1.4-0.2v-10.2l0.5-0.5l40.3-40.7l1.1,0.6c1.4,0.7,2.9,1,4.4,1
c2.7,0,5.2-1.1,6.7-2.6l24.9-24.3l4.3,25.7c0.8,4.6,2.7,8.8,5.4,11.8l0.9,1l-29.8,43.4l-11.2-4.7c-1.7-0.7-3.4-1.1-5-1.1
c-4.3,0-8.2,2.5-10.1,6.8c-1.3,3-1.5,7.7-0.4,10.7c1.2,2.8,3.4,4.9,6.2,6l20.3,8.9c1.5,0.6,3.1,1,4.7,1c3.8,0,7.5-1.8,9.7-5
l40.2-58.8l33.3,44.8l-4.6,4c-4.9,4.3-5.4,11.7-1,16.8c2.4,2.6,5.6,3.9,8.9,3.9c2.8,0,5.6-1,7.9-2.9l12.6-11.1
C250.2,214.1,250.9,207,247.2,202z M22.5,229.9c-4.6,0-8.3-3.7-8.3-8.3c0-4.7,3.6-8.3,8.3-8.3c4.7,0,8.3,3.6,8.3,8.3
C30.8,226.1,27,229.9,22.5,229.9z M61.6,229.9c-4.6,0-8.3-3.7-8.3-8.3c0-4.7,3.6-8.3,8.3-8.3c4.7,0,8.3,3.6,8.3,8.3
C69.9,226.1,66.1,229.9,61.6,229.9z M76.3,198c2,0.4,3.4,2,3.4,4.1v18.2h-6c0,0,0,0-0.1,0c-0.7-6.2-5.7-11-12-11
c-6.4,0-11.4,4.7-12,11c0,0-0.1,0-0.1,0H34.7c0,0-0.1,0-0.1,0c-0.7-6.2-5.7-11-12-11c-6.4,0-11.4,4.7-12,11c0,0-0.1,0-0.1,0H4.3
v-18.2c0-2.3,2.1-4.4,4.4-4.4h13.5c2.1,0,3.9-1.7,3.9-3.9v-17.9c0-2.1-1.7-3.9-3.9-3.9h-9.4c0.8-8.9,7.9-15.6,16.9-15.6h15.7
c9.1,0,16.3,6.8,17,15.6H53c-2.1,0-3.9,1.7-3.9,3.9v17.9c0,2.1,1.7,3.9,3.9,3.9h15.7c1.5,0,2.7-0.8,3.4-2c0.5,1.2,1.6,2,3,2.2
L76.3,198z M243,215.4l-12.6,11.1c-1.5,1.3-3.4,2-5.4,2c-2.3,0-4.5-0.9-6-2.6c-3-3.5-2.8-8.4,0.6-11.3l4.6-4
c1.5-1.3,1.8-3.6,0.6-5.2l-33.3-44.8c-0.7-1-1.9-1.6-3.1-1.6c0,0-0.1,0-0.1,0c-1.2,0-2.4,0.6-3.1,1.7l-40.2,58.8
c-1.4,2-3.9,3.3-6.5,3.3c-1.1,0-2.1-0.2-3.1-0.6l-20.5-8.9c-1.8-0.7-3.2-2.1-3.9-3.8c-0.8-2-0.6-5.7,0.3-7.7
c1.3-2.8,3.7-4.5,6.6-4.5c1.1,0,2.3,0.3,3.5,0.8l11.2,4.7c0.5,0.2,1,0.3,1.5,0.3c1.2,0,2.4-0.6,3.2-1.7l29.8-43.4
c1-1.5,0.9-3.4-0.3-4.8l-0.9-1c-2.2-2.5-3.8-6-4.5-9.8l-4.3-25.7c-0.2-1.4-1.2-2.6-2.6-3c-0.4-0.1-0.8-0.2-1.2-0.2
c-1,0-2,0.4-2.7,1.1l-24.9,24.4c-0.6,0.7-2.1,1.5-3.9,1.5c-0.9,0-1.8-0.2-2.5-0.5l-1.1-0.6c-0.6-0.3-1.2-0.5-1.8-0.5
c0,0-0.1,0-0.1,0c0.1-0.8,0-1.6-0.4-2.3c-0.4-0.8-0.6-1.5-0.6-2.5c0-1.6,0.6-2.8,1.8-4l35.2-33.8l0.7-0.7c1-1,1.3-2.3,1-3.7
l-0.5-2c-1.8-11.9,6-22.9,17.6-25c1.2-0.2,2.3-0.3,3.5-0.3c10.7,0,19.7,7.5,21.5,17.8l8.5,51.6c0.7,4.6,0.3,8.5-1.2,11.9l-0.4,0.9
c-0.6,1.3-0.4,2.8,0.5,3.9l40.7,53.5C246.6,207.7,246.1,212.6,243,215.4z"/>
<path d="M61.6,234.5c-5.2,0-9.8-3.1-11.7-7.8c-0.1-0.2-0.1-0.2-0.1-0.3c0-0.1-0.1-0.2-0.2-0.3c-0.1-0.2-0.2-0.4-0.3-0.6l-0.3-0.9
H35l-0.3,0.8c-0.1,0.2-0.1,0.3-0.2,0.4c0,0.1-0.1,0.1-0.1,0.2c-0.2,0.5-0.5,1-0.7,1.4l-0.2,0.3c-0.4,0.6-0.8,1.3-1.3,1.9
c-0.5,0.6-1,1.1-1.5,1.5c-0.6,0.6-1.4,1.1-2.3,1.6c-0.1,0.1-0.3,0.1-0.4,0.2c-0.3,0.2-0.5,0.3-0.8,0.4c-1.7,0.7-3.2,1-4.6,1
c-5.1,0-9.7-3-11.6-7.7l-0.1-0.1c-0.1-0.1-0.1-0.2-0.2-0.4c0-0.1-0.1-0.2-0.1-0.3c-0.1-0.2-0.2-0.3-0.3-0.6l-0.3-0.9H2.6
c-1.6,0-2.6-1-2.6-2.7v-19.8c0-4.7,4.1-8.8,8.8-8.8h13v-17H11.1c-1.6,0-2.6-1-2.6-2.6c0-12.2,9.4-21.7,21.3-21.7h15.7
c12,0,21.4,9.3,21.4,21.3c0,1.4-0.8,3-2.6,3H53.5v17h14.7v-10c0-0.8,0.1-1.3,0.8-1.9l42.7-43.3c-0.6-1.3-0.9-2.6-0.9-4.1
c0-2.8,1-5.1,3.1-7.1l35.6-34.2l-0.5-2.1c-2.2-14.3,7.1-27.4,21.2-30c14.5-2.2,27.6,7.4,29.9,21.1l8.5,51.6
c0.8,5.4,0.3,10.1-1.5,14.3l-0.3,0.6l40.6,53.4c3.8,5.2,3,12.7-1.7,17l-12.6,11.1c-2.3,2-5.2,3.1-8.2,3.1c-3.5,0-6.9-1.5-9.2-4
c-4.6-5.3-4.1-12.9,1-17.5l4.3-3.8l-32.7-43.9l-39.8,58.2c-2.2,3.3-6,5.2-10.1,5.2c-1.7,0-3.3-0.3-4.8-1l-20.3-8.9
c-2.9-1.1-5.2-3.3-6.4-6.2c-1.2-3.1-1-8,0.4-11.1c2-4.4,6-7.1,10.6-7.1c1.7,0,3.5,0.4,5.2,1.1l10.8,4.6l29.3-42.8l-0.6-0.7
c-2.8-3.1-4.7-7.3-5.5-12l-4.2-24.8l-24.2,23.6c-1.7,1.7-4.3,2.8-7,2.8c-1.6,0-3.2-0.4-4.6-1.1l-0.8-0.4L76,184v9.6l1,0.1
c4.1,0.7,7,4.2,7,8.4v19.8c0,1.7-1,2.7-2.6,2.7H74l-0.3,0.8c-0.1,0.2-0.1,0.3-0.2,0.4c0,0.1-0.1,0.1-0.1,0.2
c-0.2,0.6-0.5,1.2-0.9,1.7c-0.5,1-1,1.7-1.6,2.4c-0.3,0.3-0.6,0.7-1,1c-1,0.9-2.1,1.7-3.3,2.2l-0.1,0.1c-0.1,0-0.2,0.1-0.3,0.1
C64.7,234.2,63.1,234.5,61.6,234.5z M34.3,223.6h15.4l0.5,1.6c0,0.2,0.1,0.3,0.2,0.4c0.1,0.2,0.2,0.3,0.2,0.5
c0.1,0.1,0.1,0.2,0.1,0.2c1.7,4.4,6,7.2,10.8,7.2c1.4,0,2.9-0.3,4.5-1c0.1,0,0.1,0,0.2-0.1c0.1,0,0.1-0.1,0.2-0.1
c1.1-0.5,2.1-1.2,3-2.1c0.3-0.3,0.6-0.6,0.9-0.9c0.5-0.6,1-1.3,1.4-2.1c0.4-0.6,0.6-1.1,0.9-1.7c0-0.1,0.1-0.2,0.2-0.3
c0-0.1,0.1-0.1,0.1-0.2l0.5-1.5h8.1c1.1,0,1.6-0.6,1.6-1.7v-19.8c0-3.7-2.5-6.8-6.2-7.4l-1.8-0.2v-10.8l0.6-0.6l40.5-40.9l1.4,0.8
c1.3,0.6,2.7,1,4.1,1c2.4,0,4.9-1,6.4-2.5l25.5-24.9l4.5,26.6c0.7,4.5,2.6,8.6,5.3,11.5l1.1,1.2l-0.2,0.3l-30,43.8l-0.4-0.2
l-11.2-4.7c-1.6-0.7-3.2-1.1-4.8-1.1c-4.2,0-7.8,2.4-9.7,6.5c-1.3,2.9-1.5,7.5-0.4,10.3c1.1,2.6,3.2,4.7,5.9,5.7l20.3,8.9
c1.4,0.6,2.9,0.9,4.5,0.9c3.8,0,7.3-1.8,9.3-4.8l40.5-59.3l0.4,0.5l33.6,45.2l-0.3,0.3l-4.6,4c-4.7,4.2-5.1,11.2-0.9,16.1
c2.2,2.4,5.3,3.7,8.5,3.7c2.8,0,5.5-1,7.6-2.8l12.6-11.1c4.4-4,5.1-10.9,1.6-15.7l-40.9-53.8l0.5-1.1c1.7-4.1,2.2-8.6,1.4-13.8
l-8.5-51.6c-2.3-13.2-14.9-22.4-28.8-20.3C157,64.1,148,76.7,150.1,90.4l0.6,2.5l-0.9,0.9l-35.2,33.7c-1.9,1.8-2.8,3.9-2.8,6.4
c0,1.5,0.3,2.7,0.9,4l0.2,0.3l-0.2,0.2l-43,43.6c-0.5,0.4-0.5,0.6-0.5,1.2v10.9H52.5v-18.9h11.8c1.3,0,1.6-1.3,1.6-2
c0-11.4-9-20.3-20.4-20.3H29.8c-11.4,0-20.3,9.1-20.3,20.7c0,1.1,0.6,1.6,1.6,1.6h11.7v18.9h-14c-4.2,0-7.8,3.6-7.8,7.8v19.8
c0,1.2,0.5,1.7,1.6,1.7h8.2l0.5,1.6c0,0.1,0.1,0.2,0.2,0.4c0.1,0.1,0.1,0.3,0.2,0.4c0,0.1,0.1,0.2,0.1,0.3l0.1,0.2
c1.8,4.3,6,7.1,10.7,7.1c1.3,0,2.7-0.3,4.2-1c0.3-0.1,0.5-0.2,0.7-0.4c0.1-0.1,0.3-0.2,0.4-0.2c0.9-0.5,1.6-1,2.2-1.5
c0.5-0.4,1-0.9,1.4-1.4c0.5-0.6,0.9-1.2,1.2-1.8l0.2-0.3c0.3-0.4,0.5-0.8,0.7-1.3c0.1-0.1,0.1-0.2,0.2-0.3c0-0.1,0.1-0.2,0.1-0.2
L34.3,223.6z M61.6,230.4c-4.8,0-8.8-3.9-8.8-8.8c0-5,3.8-8.8,8.8-8.8c4.9,0,8.8,3.9,8.8,8.8C70.4,226.4,66.4,230.4,61.6,230.4z
M61.6,213.8c-4.5,0-7.8,3.4-7.8,7.8c0,4.3,3.5,7.8,7.8,7.8c4.2,0,7.8-3.6,7.8-7.8C69.4,217.3,66,213.8,61.6,213.8z M22.5,230.4
c-4.8,0-8.8-3.9-8.8-8.8c0-5,3.8-8.8,8.8-8.8c4.9,0,8.8,3.9,8.8,8.8C31.3,226.4,27.3,230.4,22.5,230.4z M22.5,213.8
c-4.5,0-7.8,3.4-7.8,7.8c0,4.3,3.5,7.8,7.8,7.8c4.2,0,7.8-3.6,7.8-7.8C30.4,217.3,26.9,213.8,22.5,213.8z M225,229
c-2.4,0-4.7-1-6.3-2.7c-3.2-3.7-2.9-8.9,0.6-12l4.6-4.1c1.3-1.1,1.5-3.1,0.5-4.5l-33.3-44.8c-0.6-0.9-1.6-1.4-2.7-1.4
c-1.1,0-2.2,0.6-2.8,1.5l-40.2,58.8c-1.5,2.2-4.1,3.5-6.9,3.5c-1.1,0-2.3-0.2-3.3-0.7l-20.5-8.9c-1.9-0.7-3.4-2.2-4.2-4
c-0.8-2.1-0.7-5.9,0.3-8.1c1.9-4.2,6.3-5.9,10.8-4l11.2,4.7c1.5,0.6,3.2,0.1,4.1-1.2l29.8-43.4c0.9-1.3,0.8-3-0.3-4.2l-0.9-1
c-2.3-2.5-3.9-6.1-4.6-10.1l-4.3-25.7c-0.2-1.2-1.1-2.3-2.3-2.6c-1.1-0.4-2.5-0.1-3.4,0.8L126,139.2c-0.7,0.7-2.2,1.6-4.3,1.6
c-1,0-2-0.2-2.7-0.6l-1.1-0.6c-0.5-0.3-1.1-0.4-1.6-0.4l-0.7,0.1l0-0.7c0.1-0.7,0-1.4-0.3-2c-0.4-0.9-0.6-1.6-0.6-2.7
c0-1.7,0.6-3,1.9-4.3l35.9-34.4c0.8-0.8,1.2-2.1,0.9-3.2l-0.5-2c-1.8-12.2,6-23.4,18-25.6c1.2-0.2,2.4-0.3,3.6-0.3
c10.9,0,20.1,7.6,22,18.2l8.5,51.6c0.7,4.7,0.3,8.7-1.2,12.2l-0.4,0.9c-0.5,1.1-0.3,2.4,0.4,3.4l40.7,53.5
c2.7,3.6,2.2,8.8-1.1,11.9h0l-12.6,11.1C229.1,228.2,227.1,229,225,229z M188.3,158.5c1.5,0,2.8,0.6,3.6,1.7l33.3,44.8
c1.3,1.8,1.1,4.4-0.6,5.9l-4.6,4c-3.2,2.8-3.4,7.4-0.5,10.6c1.4,1.5,3.4,2.4,5.6,2.4c1.9,0,3.7-0.7,5.1-1.9l12.6-11
c2.9-2.7,3.4-7.3,1-10.6L203,151c-1-1.3-1.1-2.9-0.5-4.4l0.4-0.9c1.4-3.4,1.8-7.2,1.1-11.7l-8.5-51.6c-1.7-10.1-10.6-17.4-21-17.4
c-1.1,0-2.3,0.1-3.4,0.3c-11.4,2.1-18.9,12.8-17.2,24.4l0.5,1.9c0.4,1.5-0.1,3-1.1,4.1l-0.7,0.7l-35.2,33.8
c-1.1,1.1-1.6,2.2-1.6,3.6c0,1,0.1,1.6,0.5,2.3c0.3,0.6,0.5,1.3,0.5,2.1c0.6,0,1.2,0.2,1.7,0.5l1.1,0.6c0.6,0.3,1.5,0.5,2.3,0.5
c1.7,0,3-0.7,3.6-1.3l24.9-24.4c1.1-1.1,2.9-1.5,4.4-1c1.5,0.5,2.7,1.8,2.9,3.4l4.3,25.7c0.6,3.8,2.2,7.2,4.3,9.6l0.9,1
c1.3,1.5,1.5,3.7,0.4,5.4l-29.8,43.4c-1.1,1.7-3.4,2.4-5.3,1.5l-11.2-4.7c-4-1.7-7.8-0.2-9.5,3.5c-0.9,1.9-1,5.5-0.3,7.3
c0.6,1.6,2,2.8,3.7,3.5l20.5,8.9c0.9,0.4,1.9,0.6,2.9,0.6c2.5,0,4.8-1.2,6.1-3.1l40.2-58.8C185.6,159.3,186.9,158.6,188.3,158.5z
M34.2,221l-0.1-0.6c-0.7-6.1-5.5-10.5-11.6-10.5c-6,0-10.9,4.4-11.6,10.5l0,0.4l-7.1,0v-18.7c0-2.6,2.3-4.9,4.9-4.9h13.5
c1.9,0,3.4-1.5,3.4-3.4v-17.9c0-1.9-1.5-3.4-3.4-3.4h-9.9l0-0.5c0.9-9.1,8.3-16,17.4-16h15.7c9.3,0,16.8,6.9,17.5,16l0,0.5H53
c-1.9,0-3.4,1.5-3.4,3.4v17.9c0,1.9,1.5,3.4,3.4,3.4h15.7c1.2,0,2.4-0.7,3-1.8l0.5-0.8l0.4,0.9c0.5,1,1.5,1.7,2.6,1.9l1.3,0.2
c2.2,0.4,3.8,2.2,3.8,4.6v18.7l-7,0l0-0.4c-0.7-6.1-5.5-10.5-11.6-10.5c-6,0-10.9,4.4-11.6,10.5l0,0.4l-15.2,0L34.2,221z
M49.3,220.7L49.3,220.7L49.3,220.7z M49.7,219.9L49.7,219.9L49.7,219.9z M74,219.8h5.1v-17.7c0-1.9-1.2-3.3-3-3.6l-1.3-0.2
c-1.2-0.2-2.2-0.8-2.9-1.7c-0.8,1-2.1,1.6-3.4,1.6H53c-2.4,0-4.3-1.9-4.3-4.3v-17.9c0-2.4,1.9-4.3,4.3-4.3h9
c-0.9-8.4-7.9-14.6-16.5-14.6H29.8c-8.4,0-15.3,6.3-16.3,14.6h8.8c2.4,0,4.3,1.9,4.3,4.3v17.9c0,2.4-1.9,4.3-4.3,4.3H8.8
c-2.1,0-4,1.9-4,4v17.7h5.3c0.9-6.4,6.1-10.9,12.5-10.9c6.4,0,11.5,4.6,12.5,10.9h14.1c0.9-6.4,6.1-10.9,12.5-10.9
C68,208.9,73.1,213.4,74,219.8z"/>
<path d="M160.6,57.8c11.5,0,20.9-9.4,20.9-20.9c0-11.8-9.2-20.9-20.9-20.9c-11.8,0-20.9,9.2-20.9,20.9
C139.7,48.3,149,57.8,160.6,57.8z M160.6,19.8c9.6,0,17.1,7.5,17.1,17.1c0,9.4-7.6,17.1-17.1,17.1c-9.4,0-17.1-7.7-17.1-17.1
C143.5,27.3,151,19.8,160.6,19.8z"/>
<path d="M160.6,58.2c-11.8,0-21.4-9.6-21.4-21.4c0-12,9.4-21.4,21.4-21.4c12,0,21.4,9.4,21.4,21.4C182,48.6,172.4,58.2,160.6,58.2
z M160.6,16.4c-11.4,0-20.4,9-20.4,20.4c0,11.3,9.2,20.4,20.4,20.4c11.3,0,20.4-9.2,20.4-20.4C181,25.4,172,16.4,160.6,16.4z
M160.6,54.4c-9.7,0-17.5-7.9-17.5-17.5c0-9.8,7.7-17.5,17.5-17.5c9.8,0,17.5,7.7,17.5,17.5C178.1,46.5,170.2,54.4,160.6,54.4z
M160.6,20.3c-9.3,0-16.6,7.3-16.6,16.6c0,9.1,7.4,16.6,16.6,16.6c9.1,0,16.6-7.4,16.6-16.6C177.1,27.6,169.9,20.3,160.6,20.3z"/>
<path d="M31.6,68.4h54.3c5.4,0,9.7-4.3,9.7-9.7c0-4.1-2.9-8.2-6.8-9.5l-1.3-0.4l0.2-1.4c0.9-5.3-1-10.4-4.8-14.1
c-3-2.8-6.9-4.3-10.9-4.3c-1.1,0-2.2,0.1-3.3,0.3l-1.2,0.3l-0.7-1c-4.2-6.6-10.4-9.2-16.4-9.2c-3.4,0-6.6,0.9-9.6,2.3
c-8,4-14.4,13.2-10.3,24.9l0.6,1.7l-1.8,0.5c-5.9,1.3-8,6.4-7.5,10.7C22.3,64,25.5,68.4,31.6,68.4z M30.3,52.6l1.8-0.5
c1-0.3,1.9-1,2.4-1.9c0.5-0.9,0.6-2,0.3-3.1l-0.6-1.8C30.9,36,36,28.5,42.5,25.3c2.6-1.3,5.3-1.9,8-1.9c3.8,0,9.2,1.3,13.2,7.5
l0.7,1c0.7,1,1.9,1.6,3.2,1.6c0.3,0,0.6,0,0.9-0.1l1-0.3c0.8-0.2,1.6-0.3,2.5-0.3c3.1,0,6,1.2,8.2,3.2c3,2.8,4.3,6.7,3.7,10.8
l-0.2,1.4c-0.3,1.9,0.9,3.7,2.8,4.2l1.2,0.3c2.4,0.8,4.2,3.4,4.2,5.9c0,3.2-2.6,5.9-5.9,5.9H31.6c-5.1,0-5.9-4.5-6-5.4
C25.5,58.3,25.3,53.8,30.3,52.6z"/>
<path d="M85.9,68.9H31.6c-6.4,0-9.8-4.7-10.3-9.3c-0.5-4.6,1.7-9.8,7.9-11.2l1.3-0.3l-0.4-1.2c-4.1-11.9,2.3-21.4,10.5-25.4
c3.3-1.6,6.6-2.4,9.8-2.4c6.9,0,12.9,3.3,16.8,9.4l0.5,0.7l0.8-0.2c1.1-0.2,2.2-0.3,3.4-0.3c4.2,0,8.2,1.6,11.2,4.4
c4,3.8,5.8,9.1,5,14.5l-0.1,1l1,0.3c4.2,1.4,7.2,5.6,7.2,10C96.1,64.3,91.6,68.9,85.9,68.9z M50.5,20c-3.1,0-6.3,0.8-9.4,2.3
C33.2,26.1,27,35.1,31,46.5l0.7,2.2l-2.3,0.6c-5.6,1.3-7.6,6-7.2,10.2c0.5,4.2,3.5,8.4,9.4,8.4h54.3c5.1,0,9.2-4.1,9.2-9.2
c0-4-2.7-7.8-6.5-9.1l-1.7-0.5l0.2-1.9c0.8-5.1-0.9-10-4.7-13.6c-2.9-2.7-6.6-4.2-10.6-4.2c-1.1,0-2.1,0.1-3.2,0.3l-1.5,0.4
l-0.9-1.2C62.7,23.2,57,20,50.5,20z M85.9,65.1H31.6c-5.5,0-6.4-4.9-6.5-5.9c-0.1-1-0.3-5.8,5-7.1l1.8-0.5
c0.9-0.2,1.7-0.8,2.1-1.6c0.4-0.8,0.5-1.8,0.2-2.7l-0.6-1.8c-3.4-9.7,1.9-17.4,8.6-20.7c2.7-1.3,5.5-2,8.2-2
c3.9,0,9.5,1.3,13.6,7.7l0.7,1c0.8,1.1,2.2,1.7,3.6,1.3l1-0.3c4-0.8,8.2,0.3,11.2,3.1c3.1,3,4.5,7,3.8,11.2l-0.2,1.4
c-0.2,1.7,0.8,3.2,2.4,3.7l1.2,0.3c2.6,0.9,4.6,3.7,4.6,6.4C92.3,62.2,89.4,65.1,85.9,65.1z M50.5,23.8c-2.6,0-5.2,0.6-7.7,1.9
c-6.3,3.1-11.3,10.4-8.1,19.5l0.6,1.8c0.4,1.1,0.3,2.4-0.3,3.4c-0.6,1-1.5,1.8-2.7,2.1l-1.8,0.5c-4.5,1-4.4,4.9-4.3,6
c0.1,1.2,0.9,5,5.5,5h54.3c3,0,5.4-2.4,5.4-5.4c0-2.3-1.7-4.7-3.9-5.4L86.3,53c-2.1-0.6-3.4-2.6-3.1-4.7l0.2-1.4
c0.6-3.9-0.6-7.6-3.5-10.3c-2.2-2-5-3.1-7.9-3.1c-0.8,0-1.6,0.1-2.4,0.2l-1,0.3c-1.8,0.4-3.6-0.3-4.6-1.7l-0.7-1
C59.4,25.1,54.2,23.8,50.5,23.8z"/>
</svg>
