<svg xmlns="http://www.w3.org/2000/svg" viewBox="0 0 32.75 28.57"><defs><style>.a{fill:none;stroke:#000;stroke-linecap:round;stroke-linejoin:round;stroke-width:0.75px;}</style></defs><title>150</title><path class="a" d="M8.82,28.86h1.6a.31.31,0,0,0,.33-.35V26a1.06,1.06,0,0,0-.89-1.07l-.13,0-1,0H6.84V22.68H8.22a.35.35,0,0,0,.34-.38,2.7,2.7,0,0,0-2.74-2.73h-2a2.73,2.73,0,0,0-2.73,2.78.31.31,0,0,0,.34.33H2.79v2.17H1.12A1.15,1.15,0,0,0,0,26v2.54a.31.31,0,0,0,.33.35H2m5.92-1.38a1,1,0,0,1,1,1,1,1,0,0,1-2,0A1,1,0,0,1,7.88,27.48Zm-5,0a1,1,0,0,1,1,1,1,1,0,0,1-1,1,1,1,0,0,1-1-1A1,1,0,0,1,2.89,27.48Zm.93,1.34H7" transform="translate(0.38 -1.71)"/><path class="a" d="M31.69,25.92,26.5,19.1l0-.08a3.39,3.39,0,0,0,.19-1.84l-1.09-6.61a3.32,3.32,0,0,0-6.54,1.14l.06.26-4.56,4.38a1.18,1.18,0,0,0-.4.9,1.33,1.33,0,0,0,.11.54l.59.65.1,0a1.35,1.35,0,0,0,.59.14,1.24,1.24,0,0,0,.9-.36l3.1-3,.53,3.17A3,3,0,0,0,20.82,20l.08.09-3.76,5.48-1.38-.59a1.75,1.75,0,0,0-.67-.14,1.46,1.46,0,0,0-1.35.9,2.1,2.1,0,0,0-.05,1.42,1.46,1.46,0,0,0,.82.8l2.6,1.13a1.68,1.68,0,0,0,.62.13,1.57,1.57,0,0,0,1.3-.67l5.09-7.45,4.18,5.62-.55.48a1.58,1.58,0,0,0-.13,2.23,1.62,1.62,0,0,0,2.24.13l1.61-1.42A1.65,1.65,0,0,0,31.69,25.92Z" transform="translate(0.38 -1.71)"/><path class="a" d="M20.55,7.56a2.74,2.74,0,0,0,2.74-2.73,2.74,2.74,0,1,0-5.47,0A2.74,2.74,0,0,0,20.55,7.56Z" transform="translate(0.38 -1.71)"/><line class="a" x1="15.27" y1="16.73" x2="9.05" y2="19.08"/></svg>