<svg xmlns="http://www.w3.org/2000/svg" viewBox="0 0 256 256"><path d="M250.32 88.41c-2.61.08-5.19-.05-7.82-.05-78.66-.01-157.32-.02-235.98-.03-.64 0-1.26.03-1.88.1a6.05 6.05 0 00-3.85 2.06c-.83.87-.79 1.96-.79 3.03 0 1.59.05 3.19.05 4.78-.01 19.56-.01 39.12-.01 58.68 0 1.08.08 2.14.13 3.22.13 2.92 2.49 5.24 5.76 5.24 40.62-.06 81.24-.04 121.89-.04 40.44 0 80.9 0 121.33 0 .57 0 1.12.02 1.7-.02a5.3 5.3 0 005.07-5.09c.04-1.14.04-2.29.04-3.45 0-10.63 0-21.26 0-31.88 0-10.27-.01-20.54.04-30.8.01-3.55-2.61-5.85-5.68-5.75zM29.35 155.22c-1.11.15-2.22.22-3.32.23-4.52.02-9.01 0-13.51 0-.4 0-.8 0-1.34 0 0-19.18 0-38.17 0-57.2.23-.06.44-.17.63-.17 4.58-.01 9.18-.33 13.71.06 10.5.9 18.51 5.85 22.74 15.74 4.16 9.75 3.66 19.53-1.11 28.98-3.66 7.24-9.77 11.24-17.8 12.36zm55.87-.01c-.16-.35-.32-.72-.47-1.09-1-2.55-2.03-5.09-3.01-7.65-.26-.68-.58-.97-1.37-.97-4.83.04-9.67.02-14.51.03-1.01 0-1.01.01-1.33 1.07-.75 2.51-1.49 5.03-2.27 7.55-.11.35-.23.7-.35 1.08-4.51 0-8.99 0-13.48 0 0-.9 16.72-56 17.32-57.17.38 0 .77 0 1.16 0 3.7 0 7.36 0 11.04 0 1.49 0 1.28-.04 1.71 1.21 4.45 13.4 8.88 26.78 13.34 40.16 1.59 4.85 3.21 9.71 4.84 14.55.13.37.22.75.39 1.24-4.42-.01-8.68-.01-13.01-.01zm37.41-44.26c-1.22 0-2.46.02-3.71-.01-1.2-.03-2.43-.12-3.8-.19-.04.57-.08 1.08-.08 1.58 0 13.73 0 27.48 0 41.22 0 .51 0 1.02 0 1.59-4.53 0-8.88 0-13.49 0 0-14.77 0-29.44 0-44.11-1.87 0-3.55-.03-5.26.01-1.67.03-3.31.13-5.05.2 0-4.44 0-8.71 0-13.14 10.46-.05 20.88.09 31.26.06.29.88.36 10.58.13 12.79zm30.58 39.34a15.4 15.4 0 01-9.21 5.84c-2.97.69-5.9.56-8.82-.26a22.19 22.19 0 01-11.04-6.75c-.27-.3-.5-.63-.81-1.01 2.83-2.33 5.6-4.62 8.45-6.96.35.28.67.53.99.76a15.05 15.05 0 004.97 2.67c2.18.63 4.27.49 6.1-1.01a6.52 6.52 0 001.49-8.25 10.68 10.68 0 00-3.66-3.66c-1.52-.99-3.02-1.91-4.48-2.96a178.54 178.54 0 01-7.13-5.33c-3.8-3.02-5.23-7.08-4.89-11.81a16.2 16.2 0 013.81-9.2 14.84 14.84 0 019.75-5.28c5.57-.79 10.42.9 14.87 4.05 1.18.81 2.19 1.78 3.38 2.75-2.49 2.74-4.87 5.36-7.32 8.04-.35-.27-.64-.5-.93-.69-1.25-.81-2.46-1.7-3.76-2.38a6.1 6.1 0 00-4.43-.59 4.17 4.17 0 00-3.07 4.12c.06 1.17.7 2.01 1.56 2.69.73.53 1.48 1.02 2.22 1.54 2.6 1.83 5.24 3.64 7.83 5.51 3.93 2.86 6.86 6.51 7.98 11.29 1.44 6.21-.13 11.85-3.85 16.88zm46.63-12.72a19.25 19.25 0 01-20.12 19.04 19.26 19.26 0 01-18.42-17.1c-.11-.95-.1-1.92-.1-2.88-.01-12.37-.01-24.74-.01-37.1 0-.41 0-.81 0-1.28 4.32 0 8.51 0 12.83 0 0 .46.03.92.03 1.39 0 12.52 0 25.03.02 37.56a6.43 6.43 0 007.21 6.83 6.48 6.48 0 005.67-5.59c.05-.59.06-1.18.06-1.77 0-12.23 0-24.44 0-36.68 0-.55 0-1.09 0-1.78 4.36 0 8.53 0 12.81 0 .04.42.06.78.06 1.14 0 12.74 0 25.48-.04 38.22zm45.77 17.63c-.44.02-.84.06-1.26.06-2.66.01-5.35-.04-8.02.02-.91.03-1.44-.27-1.96-1.06-5.62-8.86-11.29-17.68-16.93-26.52-.28-.43-.56-.86-.98-1.25-.11 9.62.21 19.21.23 28.77-.86.24-10.51.3-12.17.11-.03-.01-.04-.05-.09-.07-.01-.03-.06-.06-.06-.09a2.12 2.12 0 01-.06-.44c0-18.67 0-37.34 0-56.01 0-.15.04-.29.08-.53.35-.03.72-.08 1.08-.08 2.6-.01 5.21.03 7.8-.02.81-.01 1.27.3 1.69.96 5.96 9.48 11.95 18.94 17.93 28.4.28.44.56.87.95 1.29.2-2.53-.1-5.04-.16-7.55-.05-2.55-.23-5.11-.34-7.66-.11-2.51-.18-5.04-.3-7.55-.11-2.55-.23-5.1-.34-7.61.86-.31 11.63-.38 12.9-.09.01 18.92.01 37.86.01 56.92zM129.49 217.56c20.5-.4 38.76-7.14 54.77-19.86a89.92 89.92 0 0022.84-27.28c-52.85 0-105.49 0-158.21 0 11.38 22.58 40.33 47.92 80.6 47.14zM205.08 82.15a90.43 90.43 0 00-21.54-24.38c-15.45-12.11-33.03-18.51-52.66-19.29-6.64-.26-13.21.3-19.73 1.52a89.57 89.57 0 00-51.76 29.88 63.36 63.36 0 00-8.75 12.31c-.16.34-.34.69-.55 1.1 51.93 0 103.69 0 155.43 0 .02-.13.08-.2.04-.26-.15-.29-.3-.59-.48-.88z"/><path d="M30.35 112.33a13.7 13.7 0 00-4.85-1.13c-.28-.02-.57.03-.89.05 0 10.26 0 20.42 0 30.59.16.05.27.08.37.08 4.57.02 8.66-2.77 10.23-7.07 2.18-5.98 1.74-11.92-.38-17.82a8.02 8.02 0 00-4.48-4.7zM68.35 134.18c3.36 0 6.72 0 10.29 0-1.73-5.16-3.48-10.15-5.28-15.36-1.01 2.25-4.99 14.55-5.01 15.36z"/></svg>