<?xml version="1.0" encoding="utf-8"?>
<!-- Generator: Adobe Illustrator 24.0.0, SVG Export Plug-In . SVG Version: 6.00 Build 0)  -->
<svg version="1.1" id="Layer_1" xmlns="http://www.w3.org/2000/svg" xmlns:xlink="http://www.w3.org/1999/xlink" x="0px" y="0px"
	 viewBox="0 0 256 256" style="enable-background:new 0 0 256 256;" xml:space="preserve">
<g>
	<g>
		<path d="M250.32,88.41c-2.61,0.08-5.19-0.05-7.82-0.05c-78.66-0.01-157.32-0.02-235.98-0.03c-0.64,0-1.26,0.03-1.88,0.1
			c-1.57,0.17-2.81,0.94-3.85,2.06C-0.04,91.36,0,92.45,0,93.52c0,1.59,0.05,3.19,0.05,4.78c-0.01,19.56-0.01,39.12-0.01,58.68
			c0,1.08,0.08,2.14,0.13,3.22c0.13,2.92,2.49,5.24,5.76,5.24c40.62-0.06,81.24-0.04,121.89-0.04l0,0c40.44,0,80.9,0,121.33,0
			c0.57,0,1.12,0.02,1.7-0.02c2.79-0.16,4.92-2.28,5.07-5.09c0.04-1.14,0.04-2.29,0.04-3.45c0-10.63,0-21.26,0-31.88
			c0-10.27-0.01-20.54,0.04-30.8C256.01,90.61,253.39,88.31,250.32,88.41z M29.35,155.22c-1.11,0.15-2.22,0.22-3.32,0.23
			c-4.52,0.02-9.01,0-13.51,0c-0.4,0-0.8,0-1.34,0c0-19.18,0-38.17,0-57.2c0.23-0.06,0.44-0.17,0.63-0.17
			c4.58-0.01,9.18-0.33,13.71,0.06c10.5,0.9,18.51,5.85,22.74,15.74c4.16,9.75,3.66,19.53-1.11,28.98
			C43.49,150.1,37.38,154.1,29.35,155.22z M85.22,155.21c-0.16-0.35-0.32-0.72-0.47-1.09c-1-2.55-2.03-5.09-3.01-7.65
			c-0.26-0.68-0.58-0.97-1.37-0.97c-4.83,0.04-9.67,0.02-14.51,0.03c-1.01,0-1.01,0.01-1.33,1.07c-0.75,2.51-1.49,5.03-2.27,7.55
			c-0.11,0.35-0.23,0.7-0.35,1.08c-4.51,0-8.99,0-13.48,0c0-0.9,16.72-56,17.32-57.17c0.38,0,0.77,0,1.16,0c3.7,0,7.36,0,11.04,0
			c1.49,0,1.28-0.04,1.71,1.21c4.45,13.4,8.88,26.78,13.34,40.16c1.59,4.85,3.21,9.71,4.84,14.55c0.13,0.37,0.22,0.75,0.39,1.24
			C93.81,155.21,89.55,155.21,85.22,155.21z M122.63,110.95c-1.22,0-2.46,0.02-3.71-0.01c-1.2-0.03-2.43-0.12-3.8-0.19
			c-0.04,0.57-0.08,1.08-0.08,1.58c0,13.73,0,27.48,0,41.22c0,0.51,0,1.02,0,1.59c-4.53,0-8.88,0-13.49,0c0-14.77,0-29.44,0-44.11
			c-1.87,0-3.55-0.03-5.26,0.01c-1.67,0.03-3.31,0.13-5.05,0.2c0-4.44,0-8.71,0-13.14c10.46-0.05,20.88,0.09,31.26,0.06
			C122.79,99.04,122.86,108.74,122.63,110.95z M153.21,150.29c-2.29,3.1-5.45,4.96-9.21,5.84c-2.97,0.69-5.9,0.56-8.82-0.26
			c-4.35-1.2-8.07-3.38-11.04-6.75c-0.27-0.3-0.5-0.63-0.81-1.01c2.83-2.33,5.6-4.62,8.45-6.96c0.35,0.28,0.67,0.53,0.99,0.76
			c1.51,1.16,3.13,2.14,4.97,2.67c2.18,0.63,4.27,0.49,6.1-1.01c2.43-2,3.05-5.45,1.49-8.25c-0.87-1.58-2.21-2.7-3.66-3.66
			c-1.52-0.99-3.02-1.91-4.48-2.96c-2.41-1.73-4.82-3.49-7.13-5.33c-3.8-3.02-5.23-7.08-4.89-11.81c0.25-3.46,1.62-6.52,3.81-9.2
			c2.53-3.06,5.84-4.73,9.75-5.28c5.57-0.79,10.42,0.9,14.87,4.05c1.18,0.81,2.19,1.78,3.38,2.75c-2.49,2.74-4.87,5.36-7.32,8.04
			c-0.35-0.27-0.64-0.5-0.93-0.69c-1.25-0.81-2.46-1.7-3.76-2.38c-1.35-0.7-2.86-1-4.43-0.59c-1.81,0.47-3.17,2.26-3.07,4.12
			c0.06,1.17,0.7,2.01,1.56,2.69c0.73,0.53,1.48,1.02,2.22,1.54c2.6,1.83,5.24,3.64,7.83,5.51c3.93,2.86,6.86,6.51,7.98,11.29
			C158.5,139.62,156.93,145.26,153.21,150.29z M199.84,137.57c-0.04,10.84-9.23,19.52-20.12,19.04c-9.58-0.41-17.32-7.59-18.42-17.1
			c-0.11-0.95-0.1-1.92-0.1-2.88c-0.01-12.37-0.01-24.74-0.01-37.1c0-0.41,0-0.81,0-1.28c4.32,0,8.51,0,12.83,0
			c0,0.46,0.03,0.92,0.03,1.39c0,12.52,0,25.03,0.02,37.56c0,0.77,0.06,1.56,0.28,2.3c0.88,3,3.72,4.82,6.93,4.53
			c2.89-0.28,5.26-2.64,5.67-5.59c0.05-0.59,0.06-1.18,0.06-1.77c0-12.23,0-24.44,0-36.68c0-0.55,0-1.09,0-1.78
			c4.36,0,8.53,0,12.81,0c0.04,0.42,0.06,0.78,0.06,1.14C199.88,112.09,199.88,124.83,199.84,137.57z M245.61,155.2
			c-0.44,0.02-0.84,0.06-1.26,0.06c-2.66,0.01-5.35-0.04-8.02,0.02c-0.91,0.03-1.44-0.27-1.96-1.06
			c-5.62-8.86-11.29-17.68-16.93-26.52c-0.28-0.43-0.56-0.86-0.98-1.25c-0.11,9.62,0.21,19.21,0.23,28.77
			c-0.86,0.24-10.51,0.3-12.17,0.11c-0.03-0.01-0.04-0.05-0.09-0.07c-0.01-0.03-0.06-0.06-0.06-0.09c-0.03-0.14-0.06-0.29-0.06-0.44
			c0-18.67,0-37.34,0-56.01c0-0.15,0.04-0.29,0.08-0.53c0.35-0.03,0.72-0.08,1.08-0.08c2.6-0.01,5.21,0.03,7.8-0.02
			c0.81-0.01,1.27,0.3,1.69,0.96c5.96,9.48,11.95,18.94,17.93,28.4c0.28,0.44,0.56,0.87,0.95,1.29c0.2-2.53-0.1-5.04-0.16-7.55
			c-0.05-2.55-0.23-5.11-0.34-7.66c-0.11-2.51-0.18-5.04-0.3-7.55c-0.11-2.55-0.23-5.1-0.34-7.61c0.86-0.31,11.63-0.38,12.9-0.09
			C245.61,117.2,245.61,136.14,245.61,155.2z"/>
		<path d="M129.49,217.56c20.5-0.4,38.76-7.14,54.77-19.86c9.42-7.48,16.93-16.61,22.84-27.28c-52.85,0-105.49,0-158.21,0
			C60.27,193,89.22,218.34,129.49,217.56z"/>
		<path d="M205.08,82.15c-5.73-9.4-12.85-17.57-21.54-24.38c-15.45-12.11-33.03-18.51-52.66-19.29c-6.64-0.26-13.21,0.3-19.73,1.52
			c-13.7,2.57-26.1,8.05-37.25,16.31c-5.36,3.95-10.11,8.57-14.51,13.57c-3.34,3.8-6.39,7.81-8.75,12.31
			c-0.16,0.34-0.34,0.69-0.55,1.1c51.93,0,103.69,0,155.43,0c0.02-0.13,0.08-0.2,0.04-0.26C205.41,82.74,205.26,82.44,205.08,82.15z
			"/>
		<path d="M30.35,112.33c-1.53-0.7-3.17-1.02-4.85-1.13c-0.28-0.02-0.57,0.03-0.89,0.05c0,10.26,0,20.42,0,30.59
			c0.16,0.05,0.27,0.08,0.37,0.08c4.57,0.02,8.66-2.77,10.23-7.07c2.18-5.98,1.74-11.92-0.38-17.82
			C34.02,114.8,32.48,113.29,30.35,112.33z"/>
		<path d="M68.35,134.18c3.36,0,6.72,0,10.29,0c-1.73-5.16-3.48-10.15-5.28-15.36C72.35,121.07,68.37,133.37,68.35,134.18z"/>
	</g>
</g>
</svg>
