<svg xmlns="http://www.w3.org/2000/svg" viewBox="0 0 32.75 31.17"><defs><style>.a{fill:none;stroke:#000;stroke-linecap:round;stroke-linejoin:round;stroke-width:0.75px;}</style></defs><title>1514</title><path class="a" d="M2.82,30.67H15.21l15.53-9.11s1.75-1.57,1.12-2.87-2.66-1-2.66-1L20.31,20" transform="translate(0.38 -0.41)"/><path class="a" d="M2.82,22.46,8.09,18l10.29.31s1.59.39,1.51,1.78-.72,2.21-1.34,2.37l-8.28,2.19" transform="translate(0.38 -0.41)"/><rect class="a" x="0.38" y="20.46" width="2.82" height="10.33"/><path class="a" d="M19.12.79l1.57,3.59A19.14,19.14,0,0,0,16.84,14.8c0,1.92,3.5,1.69,3.5,1.69h5.17s3.5.23,3.5-1.69A19.06,19.06,0,0,0,25.16,4.38L26.74.79Z" transform="translate(0.38 -0.41)"/><path class="a" d="M24.41,7.41s-3.33-.72-3.71.49,2.3,1.92,3.08,2.17c1.56.49,1.52,2.21-.69,2.43S21,11.18,21,11.18" transform="translate(0.38 -0.41)"/><line class="a" x1="23.16" y1="5.7" x2="23.16" y2="13.23"/></svg>