<?xml version="1.0" encoding="utf-8"?>
<!-- Generator: Adobe Illustrator 24.0.0, SVG Export Plug-In . SVG Version: 6.00 Build 0)  -->
<svg version="1.1" id="Layer_1" xmlns="http://www.w3.org/2000/svg" xmlns:xlink="http://www.w3.org/1999/xlink" x="0px" y="0px"
	 viewBox="0 0 256 256" style="enable-background:new 0 0 256 256;" xml:space="preserve">
<g>
	<g>
		<path d="M250.3,88c-2.6,0.1-5.2-0.1-7.8-0.1c-78.7,0-157.3,0-236,0c-0.6,0-1.3,0-1.9,0.1c-1.6,0.2-2.8,0.9-3.8,2.1
			C0,90.9,0,92,0,93.1c0,1.6,0.1,3.2,0.1,4.8c0,19.6,0,39.1,0,58.7c0,1.1,0.1,2.1,0.1,3.2c0.1,2.9,2.5,5.2,5.8,5.2
			c40.6-0.1,81.2,0,121.9,0l0,0c40.4,0,80.9,0,121.3,0c0.6,0,1.1,0,1.7,0c2.8-0.2,4.9-2.3,5.1-5.1c0-1.1,0-2.3,0-3.4
			c0-10.6,0-21.3,0-31.9c0-10.3,0-20.5,0-30.8C256,90.2,253.4,87.9,250.3,88z M29.4,154.8c-1.1,0.1-2.2,0.2-3.3,0.2
			c-4.5,0-9,0-13.5,0c-0.4,0-0.8,0-1.3,0c0-19.2,0-38.2,0-57.2c0.2-0.1,0.4-0.2,0.6-0.2c4.6,0,9.2-0.3,13.7,0.1
			c10.5,0.9,18.5,5.8,22.7,15.7c4.2,9.8,3.7,19.5-1.1,29C43.5,149.7,37.4,153.7,29.4,154.8z M85.2,154.8c-0.2-0.4-0.3-0.7-0.5-1.1
			c-1-2.6-2-5.1-3-7.6c-0.3-0.7-0.6-1-1.4-1c-4.8,0-9.7,0-14.5,0c-1,0-1,0-1.3,1.1c-0.8,2.5-1.5,5-2.3,7.6c-0.1,0.4-0.2,0.7-0.3,1.1
			c-4.5,0-9,0-13.5,0c0-0.9,16.7-56,17.3-57.2c0.4,0,0.8,0,1.2,0c3.7,0,7.4,0,11,0c1.5,0,1.3,0,1.7,1.2c4.4,13.4,8.9,26.8,13.3,40.2
			c1.6,4.9,3.2,9.7,4.8,14.6c0.1,0.4,0.2,0.8,0.4,1.2C93.8,154.8,89.6,154.8,85.2,154.8z M122.6,110.5c-1.2,0-2.5,0-3.7,0
			c-1.2,0-2.4-0.1-3.8-0.2c0,0.6-0.1,1.1-0.1,1.6c0,13.7,0,27.5,0,41.2c0,0.5,0,1,0,1.6c-4.5,0-8.9,0-13.5,0c0-14.8,0-29.4,0-44.1
			c-1.9,0-3.6,0-5.3,0c-1.7,0-3.3,0.1-5.1,0.2c0-4.4,0-8.7,0-13.1c10.5-0.1,20.9,0.1,31.3,0.1C122.8,98.6,122.9,108.3,122.6,110.5z
			 M153.2,149.9c-2.3,3.1-5.4,5-9.2,5.8c-3,0.7-5.9,0.6-8.8-0.3c-4.4-1.2-8.1-3.4-11-6.8c-0.3-0.3-0.5-0.6-0.8-1
			c2.8-2.3,5.6-4.6,8.5-7c0.4,0.3,0.7,0.5,1,0.8c1.5,1.2,3.1,2.1,5,2.7c2.2,0.6,4.3,0.5,6.1-1c2.4-2,3.1-5.4,1.5-8.2
			c-0.9-1.6-2.2-2.7-3.7-3.7c-1.5-1-3-1.9-4.5-3c-2.4-1.7-4.8-3.5-7.1-5.3c-3.8-3-5.2-7.1-4.9-11.8c0.2-3.5,1.6-6.5,3.8-9.2
			c2.5-3.1,5.8-4.7,9.8-5.3c5.6-0.8,10.4,0.9,14.9,4.1c1.2,0.8,2.2,1.8,3.4,2.8c-2.5,2.7-4.9,5.4-7.3,8c-0.4-0.3-0.6-0.5-0.9-0.7
			c-1.2-0.8-2.5-1.7-3.8-2.4c-1.4-0.7-2.9-1-4.4-0.6c-1.8,0.5-3.2,2.3-3.1,4.1c0.1,1.2,0.7,2,1.6,2.7c0.7,0.5,1.5,1,2.2,1.5
			c2.6,1.8,5.2,3.6,7.8,5.5c3.9,2.9,6.9,6.5,8,11.3C158.5,139.2,156.9,144.8,153.2,149.9z M199.8,137.1c0,10.8-9.2,19.5-20.1,19
			c-9.6-0.4-17.3-7.6-18.4-17.1c-0.1-0.9-0.1-1.9-0.1-2.9c0-12.4,0-24.7,0-37.1c0-0.4,0-0.8,0-1.3c4.3,0,8.5,0,12.8,0
			c0,0.5,0,0.9,0,1.4c0,12.5,0,25,0,37.6c0,0.8,0.1,1.6,0.3,2.3c0.9,3,3.7,4.8,6.9,4.5c2.9-0.3,5.3-2.6,5.7-5.6
			c0.1-0.6,0.1-1.2,0.1-1.8c0-12.2,0-24.4,0-36.7c0-0.6,0-1.1,0-1.8c4.4,0,8.5,0,12.8,0c0,0.4,0.1,0.8,0.1,1.1
			C199.9,111.7,199.9,124.4,199.8,137.1z M245.6,154.8c-0.4,0-0.8,0.1-1.3,0.1c-2.7,0-5.4,0-8,0c-0.9,0-1.4-0.3-2-1.1
			c-5.6-8.9-11.3-17.7-16.9-26.5c-0.3-0.4-0.6-0.9-1-1.2c-0.1,9.6,0.2,19.2,0.2,28.8c-0.9,0.2-10.5,0.3-12.2,0.1c0,0,0-0.1-0.1-0.1
			c0,0-0.1-0.1-0.1-0.1c0-0.1-0.1-0.3-0.1-0.4c0-18.7,0-37.3,0-56c0-0.2,0-0.3,0.1-0.5c0.4,0,0.7-0.1,1.1-0.1c2.6,0,5.2,0,7.8,0
			c0.8,0,1.3,0.3,1.7,1c6,9.5,11.9,18.9,17.9,28.4c0.3,0.4,0.6,0.9,0.9,1.3c0.2-2.5-0.1-5-0.2-7.6c-0.1-2.6-0.2-5.1-0.3-7.7
			c-0.1-2.5-0.2-5-0.3-7.6c-0.1-2.6-0.2-5.1-0.3-7.6c0.9-0.3,11.6-0.4,12.9-0.1C245.6,116.8,245.6,135.7,245.6,154.8z"/>
		<path d="M129.5,217.1c20.5-0.4,38.8-7.1,54.8-19.9c9.4-7.5,16.9-16.6,22.8-27.3c-52.9,0-105.5,0-158.2,0
			C60.3,192.6,89.2,217.9,129.5,217.1z"/>
		<path d="M205.1,81.7c-5.7-9.4-12.9-17.6-21.5-24.4c-15.4-12.1-33-18.5-52.7-19.3c-6.6-0.3-13.2,0.3-19.7,1.5
			c-13.7,2.6-26.1,8-37.2,16.3c-5.4,4-10.1,8.6-14.5,13.6c-3.3,3.8-6.4,7.8-8.8,12.3c-0.2,0.3-0.3,0.7-0.5,1.1
			c51.9,0,103.7,0,155.4,0c0-0.1,0.1-0.2,0-0.3C205.4,82.3,205.3,82,205.1,81.7z"/>
		<path d="M30.4,111.9c-1.5-0.7-3.2-1-4.9-1.1c-0.3,0-0.6,0-0.9,0.1c0,10.3,0,20.4,0,30.6c0.2,0.1,0.3,0.1,0.4,0.1
			c4.6,0,8.7-2.8,10.2-7.1c2.2-6,1.7-11.9-0.4-17.8C34,114.4,32.5,112.9,30.4,111.9z"/>
		<path d="M68.3,133.8c3.4,0,6.7,0,10.3,0c-1.7-5.2-3.5-10.2-5.3-15.4C72.3,120.7,68.4,132.9,68.3,133.8z"/>
	</g>
</g>
</svg>
