<?xml version="1.0" encoding="utf-8"?>
<!-- Generator: Adobe Illustrator 24.0.0, SVG Export Plug-In . SVG Version: 6.00 Build 0)  -->
<svg version="1.1" id="Layer_1" xmlns="http://www.w3.org/2000/svg" xmlns:xlink="http://www.w3.org/1999/xlink" x="0px" y="0px"
	 viewBox="0 0 256 256" style="enable-background:new 0 0 256 256;" xml:space="preserve">
<g>
	<g>
		<path d="M252.8,118c-5.6,0.1-11.3,0-17,0c-1.2,0-2.3,0-3.5,0c-0.9,0-1.7,0.4-2.3,1.1c-0.2,0.2-0.4,0.5-0.6,0.8
			c-3.8,4.8-8.7,7.4-14.8,7.7c-4.3,0.2-8.4-1-11.9-3.4c-6.2-4.3-9.3-11.9-7.8-19.1c2.2-10.2,12.5-16.6,22.7-14.6
			c4.1,0.8,7.6,2.8,10.5,5.9c0.8,0.9,1.8,1.3,3,1.3c3.3-0.1,6.7,0,10,0c3.5,0,7,0,10.6,0c1.5,0,2.7-1,2.9-2.4
			c0.2-0.9-0.1-1.7-0.7-2.4c-2-2.7-4.3-5-6.9-7.1c-7.5-5.8-16.1-8.9-25.4-10.2c-3.8-0.5-7.6-0.6-11.5-0.4c-4.2,0.2-8.4,0.9-12.5,2.1
			c-6.3,1.8-12.1,4.5-17.2,8.6c-4,3.2-7.3,6.9-9.5,11.5c-2.4,4.9-3.2,9.9-2.4,15.2c0.7,4.6,2.5,8.7,5.3,12.4
			c3.4,4.7,7.8,8.2,12.8,11c8,4.4,16.6,6.4,25.6,6.7c3.5,0.1,7-0.1,10.5-0.6c4.8-0.7,9.5-2,14-3.9c5.7-2.4,10.8-5.8,15-10.3
			c1.4-1.6,2.7-3.3,3.8-5.1C257,120.2,254.9,118,252.8,118z"/>
		<path d="M172.4,137c-1.1-1.8-2.2-3.7-3.4-5.5C158.5,114.2,148,97,137.4,79.8c-1.4-2.4-3.6-3.6-6.4-3.6c-2.6,0-5.2,0-7.8,0
			c-2.7,0-5.4,0-8.1,0c-0.4,0-0.8,0-1.3,0.1c-2.2,0.5-3.8,1.6-4.9,3.6c-3.8,6.5-7.7,13-11.5,19.5c-7.3,12.4-14.6,24.8-21.9,37.3
			c-0.3,0.4-0.5,0.9-0.7,1.4c-0.4,1.1,0.2,2.1,1.4,2.3c0.4,0.1,0.8,0.1,1.2,0.1c4.6,0,9.2,0,13.7,0c2.8,0,4.9-1.2,6.4-3.6
			c2.6-4.2,5.3-8.4,7.9-12.6c5.1-8.2,10.3-16.4,15.4-24.5c0.3-0.4,0.6-0.9,1-1.3c0.8-0.8,1.9-0.8,2.8-0.1c0.3,0.2,0.6,0.6,0.8,0.9
			c3,4.7,6,9.3,9,14c0.2,0.2,0.3,0.5,0.4,0.8c0.5,1.2-0.1,2.3-1.4,2.5c-0.4,0.1-0.8,0-1.2,0c-4,0-7.9,0-11.9,0c-2.6,0-4.7,1.2-6,3.5
			c-1.1,1.9-2.1,3.9-3.2,5.8c-0.2,0.3-0.4,0.7-0.4,1.1c-0.3,1.1,0.3,2,1.4,2.2c0.3,0.1,0.5,0.1,0.8,0.1c0.9,0,1.9,0.1,2.8,0.1
			c8.4,0,16.7,0,25.1,0c2.7,0,4.8,1.2,6.3,3.4c0.9,1.3,1.7,2.7,2.6,4c1.5,2.4,3.7,3.5,6.5,3.6c4.6,0,9.3,0,13.9,0
			c0.4,0,0.8,0,1.3-0.1c1.1-0.2,1.6-0.9,1.4-2C172.9,137.9,172.7,137.4,172.4,137z"/>
		<path d="M73.3,94c0-5.1,0-10.3,0.1-15.4c0-0.6,0-1.1,0-1.8c-0.3,0-0.6,0-0.8,0c-4.8,0-9.6,0-14.4,0c-0.8,0-1.5,0.1-2.3,0.2
			c-2.7,0.4-4.4,2-4.8,4.6c-0.2,1-0.3,2.1-0.3,3.1c0,9.3,0,18.7,0,28.1c0,1.3,0,2.6,0.1,3.8c0,1.9,0,3.7-0.3,5.6
			c-0.4,2.5-1.7,4.4-4.2,5.3c-1.2,0.4-2.3,0.7-3.6,0.7c-4.2,0-8.5,0.1-12.7,0c-1.7,0-3.3-0.4-4.8-1.2c-1.8-0.9-3.1-2.2-3.6-4.1
			c-0.3-0.9-0.4-1.9-0.4-2.8c-0.1-0.9-0.1-1.9-0.4-2.8c-0.5-1.4-1.4-2.3-2.9-2.6c-0.8-0.2-1.6-0.2-2.4-0.2c-4.8,0-9.6,0-14.4,0
			c-0.3,0-0.6,0-1,0c0,0.3-0.1,0.5-0.1,0.7c0,3,0,6.1,0,9.1c0,0.3,0.1,0.7,0.1,1c0.4,3.1,1.7,5.9,3.8,8.1c4.4,4.7,9.9,7.2,16.2,7.3
			c10.7,0.1,21.4,0.1,32.1,0c2.9,0,5.8-0.5,8.5-1.5c5.6-2,9.4-5.8,11.3-11.4c1-2.8,1.2-5.7,1.2-8.7c0-8.1-0.1-16.2-0.1-24.2
			C73.3,94.7,73.3,94.3,73.3,94z"/>
		<path d="M13.5,168.4c-0.1,0-0.1,0-0.2,0c-1.2-3.4-2.3-6.9-3.5-10.3c-1.6-0.1-5.4-0.1-6,0.1c0,5.1,0,10.3,0,15.4c1.2,0,2.4,0,3.7,0
			c0-3.9,0-7.7,0-11.6c0.1,0,0.1,0,0.2,0c1.2,3.9,2.5,7.7,3.7,11.6c1.4,0,2.6,0,3.9,0c1.2-3.9,2.5-7.7,3.7-11.6c0,0,0.1,0,0.1,0
			c0,0.9,0,1.9,0,2.9s0,1.9,0,2.8c0,1,0,2,0,2.9c0,1,0,1.9,0,2.9c1.3,0,2.4,0,3.6,0c0-5.2,0-10.3,0-15.5c-2,0-4,0-6,0
			C15.8,161.6,14.7,165,13.5,168.4z"/>
		<path d="M202.2,166.9c0.4-0.1,0.6-0.1,0.8-0.2c0.8-0.3,1.6-0.5,2.4-0.9c1.1-0.6,1.7-1.5,1.9-2.7c0.3-2.2-1-4.1-3.3-4.6
			c-1.1-0.2-2.2-0.4-3.3-0.4c-2.9,0-5.9,0-8.8,0c-0.2,0-0.4,0-0.7,0c-0.2,1.6-0.1,14.9,0.1,15.5c1.3,0,2.6,0,3.9,0
			c0-2.2,0-4.3,0-6.4c1.9-0.2,3.6,0.1,4.9,1.7c1.2,1.5,2.5,2.8,3.7,4.3c0.3,0.4,0.7,0.6,1.2,0.6c1.1-0.1,2.2,0,3.3,0
			c0.2,0,0.4,0,0.8-0.1c-0.8-0.9-1.4-1.8-2.1-2.6C205.5,169.5,204.3,167.8,202.2,166.9z M195.1,164.7c0-1.3,0-2.5,0-3.8
			c0.1,0,0.2-0.1,0.2-0.1c1.8,0,3.7,0,5.5,0c0.5,0,1,0.2,1.4,0.4c1.1,0.6,1.1,2.2,0,2.9c-0.3,0.2-0.6,0.3-0.9,0.4
			C199.3,164.8,197.2,164.6,195.1,164.7z"/>
		<path d="M155.6,158.5c-2.8-0.9-5.6-0.9-8.4-0.1c-3.1,1-5.1,3.1-5.4,6.4c-0.4,4,1.3,7,5.1,8.4c1.4,0.5,2.9,0.7,4.4,0.7
			c1.8,0,3.6-0.2,5.3-1c1.9-0.9,3.4-2.3,4-4.4c0.5-1.5,0.5-3.1,0.1-4.6C160,161.1,158.2,159.4,155.6,158.5z M156.6,167.1
			c-0.4,2.4-2.1,3.9-4.5,4.1c-0.3,0-0.6,0-0.8,0c0,0,0,0,0,0c-0.6-0.1-1.1-0.1-1.7-0.2c-2.1-0.5-3.4-1.8-3.7-4
			c-0.2-1-0.1-2.1,0.1-3.1c0.5-1.6,1.6-2.6,3.1-3.1c1.2-0.4,2.5-0.4,3.7-0.1c2.2,0.5,3.5,1.9,3.8,4.2
			C156.8,165.6,156.7,166.4,156.6,167.1z"/>
		<path d="M65.4,158.6c-2.7-1-5.5-1.1-8.3-0.4c-3.8,1-6,3.8-6,7.7c0,3.5,1.7,6,5,7.2c1.5,0.5,3,0.7,4.6,0.7c2,0,3.9-0.3,5.7-1.2
			c1.8-1,3-2.4,3.6-4.3c0.4-1.4,0.4-2.8,0.2-4.2C69.6,161.4,67.9,159.6,65.4,158.6z M66.1,166.9c-0.3,2.5-2,4.1-4.5,4.3
			c-0.3,0-0.5,0-0.8,0c-0.9,0-1.8-0.1-2.7-0.6c-1.3-0.6-2.2-1.7-2.6-3.1c-0.3-1.2-0.3-2.5,0.1-3.7c0.4-1.4,1.4-2.4,2.8-2.9
			c1.6-0.6,3.2-0.6,4.8,0c1.8,0.6,2.8,1.9,3,3.7C66.1,165.3,66.2,166.1,66.1,166.9z"/>
		<path d="M248.6,164.8c-1.2-0.3-2.3-0.6-3.5-0.9c-1.2-0.3-2.4-0.6-3.6-0.9c-0.5-0.1-0.9-0.5-0.9-1.1c0-0.6,0.4-0.9,0.9-1.1
			c0.2-0.1,0.4-0.2,0.6-0.2c1-0.1,2-0.2,2.9-0.1c1.2,0.1,2.1,0.7,2.5,1.9c0,0.1,0.1,0.1,0.1,0.1c1.4,0,2.6,0,4,0
			c-0.1-1.3-0.5-2.2-1.4-3c-0.7-0.6-1.6-1.1-2.5-1.3c-2.1-0.6-4.2-0.6-6.4-0.2c-1,0.2-1.9,0.5-2.8,1.1c-2.3,1.6-2.4,4.4-0.1,6.1
			c0.7,0.6,1.6,0.9,2.5,1.2c1.5,0.4,3,0.7,4.6,1c0.6,0.1,1.3,0.3,1.9,0.6c0.9,0.4,1.1,1.4,0.4,2.2c-0.4,0.4-0.9,0.7-1.4,0.9
			c-0.9,0.3-1.9,0.3-2.8,0.2c-1.8-0.1-3-1-3.5-2.7c0,0-0.1-0.1-0.2-0.2c-1.2,0.1-2.4,0.2-3.8,0.3c0.4,2.5,1.8,4,3.9,4.8
			c1.3,0.4,2.6,0.6,3.9,0.6c1.6,0,3.1-0.1,4.6-0.6c1.2-0.4,2.3-1.1,3-2.2c1-1.7,0.7-3.8-0.8-5.1
			C250.1,165.5,249.4,165.1,248.6,164.8z"/>
		<path d="M98.2,160.7c2,0.1,3.9,0,5.8,0c0,1.2,0,2.2,0,3.3c0,1.1,0,2.1,0,3.2c0,1.1,0,2.2,0,3.3c0,1,0,2.1,0,3.2c0.8,0,1.4,0,2,0
			c0.7,0,1.3,0,2-0.1c0-2.2,0-4.3,0-6.4c0-2.1,0-4.3,0-6.5c2,0,3.9,0,5.8,0c0-0.9,0-1.7,0-2.6c-5.2,0-10.4,0-15.7,0
			C98.2,159,98.2,159.8,98.2,160.7z"/>
	</g>
</g>
</svg>
