<?xml version="1.0" encoding="utf-8"?>
<!-- Generator: Adobe Illustrator 24.0.0, SVG Export Plug-In . SVG Version: 6.00 Build 0)  -->
<svg version="1.1" id="Layer_1" xmlns="http://www.w3.org/2000/svg" xmlns:xlink="http://www.w3.org/1999/xlink" x="0px" y="0px"
	 viewBox="0 0 256 256" style="enable-background:new 0 0 256 256;" xml:space="preserve">
<style type="text/css">
	.st0{fill:#8699A3;}
</style>
<g>
	<g>
		<path class="st0" d="M252.8,118.02c-5.64,0.11-11.32,0.04-16.99,0.04c-1.19,0-2.34,0-3.53,0c-0.92,0-1.67,0.39-2.27,1.07
			c-0.2,0.23-0.37,0.51-0.55,0.76c-3.75,4.81-8.71,7.38-14.8,7.68c-4.33,0.24-8.35-0.98-11.93-3.43
			c-6.24-4.28-9.31-11.91-7.75-19.12c2.22-10.23,12.47-16.61,22.71-14.57c4.13,0.82,7.65,2.77,10.51,5.87c0.83,0.9,1.77,1.32,3,1.31
			c3.33-0.05,6.67-0.02,9.98-0.02c3.53,0,7.04,0.02,10.57-0.02c1.54,0,2.69-0.97,2.94-2.44c0.18-0.92-0.13-1.71-0.68-2.4
			c-1.98-2.68-4.29-5.03-6.88-7.06c-7.5-5.84-16.09-8.94-25.41-10.16c-3.8-0.52-7.61-0.64-11.47-0.4
			c-4.24,0.25-8.43,0.92-12.52,2.08c-6.29,1.77-12.12,4.5-17.25,8.58c-4,3.18-7.26,6.95-9.52,11.54c-2.38,4.86-3.2,9.93-2.45,15.24
			c0.67,4.59,2.51,8.73,5.27,12.44c3.42,4.65,7.8,8.2,12.83,10.95c7.96,4.39,16.56,6.43,25.59,6.7c3.52,0.12,7.01-0.13,10.51-0.6
			c4.83-0.72,9.49-1.98,13.96-3.91c5.71-2.43,10.79-5.76,14.99-10.32c1.44-1.58,2.73-3.27,3.82-5.11
			C256.99,120.2,254.95,117.96,252.8,118.02z"/>
		<path class="st0" d="M172.43,137.01c-1.11-1.84-2.23-3.67-3.37-5.52c-10.53-17.25-21.07-34.51-31.61-51.72
			c-1.44-2.39-3.61-3.62-6.4-3.62c-2.6-0.02-5.2-0.02-7.8-0.02c-2.71,0-5.42,0-8.12,0.02c-0.4,0-0.84,0.01-1.26,0.11
			c-2.15,0.5-3.79,1.64-4.9,3.58c-3.82,6.51-7.65,13-11.48,19.47c-7.29,12.43-14.58,24.85-21.9,37.26
			c-0.26,0.45-0.51,0.94-0.68,1.43c-0.36,1.14,0.23,2.11,1.41,2.3c0.38,0.06,0.78,0.06,1.17,0.07c4.58,0,9.17,0.03,13.74-0.01
			c2.79,0,4.94-1.21,6.45-3.56c2.64-4.21,5.27-8.44,7.92-12.63c5.13-8.2,10.27-16.38,15.39-24.55c0.3-0.45,0.59-0.9,0.97-1.27
			c0.84-0.8,1.89-0.82,2.8-0.06c0.32,0.25,0.58,0.6,0.82,0.95c3.03,4.66,6.02,9.32,9.04,14.01c0.17,0.23,0.33,0.5,0.45,0.8
			c0.46,1.24-0.12,2.27-1.43,2.49c-0.38,0.08-0.84,0.04-1.24,0.04c-3.96,0-7.93-0.03-11.91,0.03c-2.63,0.01-4.66,1.2-6,3.49
			c-1.09,1.91-2.1,3.87-3.16,5.81c-0.19,0.33-0.36,0.71-0.41,1.07c-0.28,1.05,0.31,1.99,1.37,2.24c0.26,0.08,0.53,0.09,0.82,0.1
			c0.95,0.02,1.89,0.06,2.84,0.06c8.36,0,16.72,0,25.05,0.03c2.69,0.01,4.78,1.22,6.3,3.43c0.9,1.3,1.73,2.66,2.61,3.98
			c1.54,2.35,3.72,3.54,6.52,3.55c4.65,0.03,9.27,0.03,13.92,0c0.4,0,0.84-0.01,1.26-0.07c1.05-0.18,1.6-0.94,1.37-2
			C172.87,137.86,172.67,137.41,172.43,137.01z"/>
		<path class="st0" d="M73.27,94.01c0.02-5.12,0.03-10.28,0.07-15.41c0-0.59,0-1.14,0-1.76c-0.34-0.01-0.57-0.01-0.78-0.01
			c-4.8,0-9.61-0.01-14.43,0c-0.77,0-1.53,0.07-2.3,0.2c-2.66,0.42-4.36,2.04-4.85,4.63c-0.21,1-0.29,2.06-0.29,3.08
			c-0.02,9.35,0,18.72,0,28.09c0,1.26,0.04,2.56,0.06,3.84c0.02,1.88,0.02,3.73-0.28,5.61c-0.43,2.51-1.7,4.4-4.18,5.29
			c-1.17,0.44-2.35,0.7-3.61,0.71c-4.23,0.04-8.49,0.06-12.74-0.01c-1.66-0.01-3.26-0.4-4.75-1.17c-1.77-0.88-3.08-2.23-3.65-4.14
			c-0.27-0.9-0.36-1.86-0.41-2.81c-0.08-0.94-0.08-1.91-0.38-2.81c-0.46-1.43-1.44-2.32-2.89-2.6c-0.8-0.16-1.6-0.22-2.42-0.22
			c-4.8-0.03-9.6-0.03-14.41-0.03c-0.3,0-0.6,0-0.97,0C0.04,114.84,0,115,0,115.19c0,3.02,0,6.08,0,9.12c0,0.32,0.05,0.65,0.09,0.99
			c0.39,3.14,1.73,5.86,3.85,8.15c4.39,4.69,9.86,7.25,16.25,7.33c10.71,0.15,21.4,0.08,32.11,0.04c2.89-0.01,5.78-0.53,8.53-1.51
			c5.57-2.02,9.42-5.77,11.35-11.39c0.98-2.81,1.23-5.69,1.21-8.65c-0.04-8.09-0.06-16.17-0.09-24.23
			C73.27,94.69,73.27,94.34,73.27,94.01z"/>
		<path class="st0" d="M13.54,168.43c-0.05,0-0.12,0.01-0.17,0.01c-1.17-3.45-2.33-6.89-3.5-10.32c-1.64-0.13-5.4-0.08-5.96,0.1
			c0,5.14,0,10.26,0,15.41c1.23,0,2.42,0,3.69,0c0-3.9,0-7.73,0-11.57c0.05,0,0.1-0.01,0.16-0.01c1.24,3.86,2.48,7.73,3.72,11.59
			c1.35,0,2.59,0,3.88,0c1.24-3.86,2.49-7.73,3.73-11.58c0.04,0,0.1,0.03,0.15,0.03c0,0.95,0,1.94,0,2.89c0,0.95,0,1.9,0,2.84
			c0,1,0,1.96,0,2.94c0.01,0.97-0.04,1.92,0.05,2.87c1.27,0,2.44,0,3.64,0c0-5.19,0-10.34,0-15.52c-2.04,0-4,0-5.99,0
			C15.8,161.6,14.68,165,13.54,168.43z"/>
		<path class="st0" d="M202.21,166.86c0.38-0.08,0.58-0.11,0.77-0.2c0.8-0.28,1.63-0.47,2.36-0.87c1.06-0.59,1.71-1.49,1.87-2.73
			c0.28-2.18-1.01-4.07-3.26-4.59c-1.09-0.23-2.23-0.35-3.31-0.36c-2.93-0.04-5.87-0.04-8.8-0.04c-0.23,0-0.44,0.02-0.7,0.04
			c-0.19,1.63-0.11,14.95,0.06,15.52c1.3,0,2.56,0,3.89,0c0-2.16,0-4.29,0-6.42c1.95-0.22,3.62,0.06,4.87,1.66
			c1.18,1.49,2.47,2.83,3.66,4.29c0.33,0.4,0.68,0.55,1.22,0.55c1.09-0.05,2.17-0.01,3.26-0.01c0.2,0,0.41-0.04,0.77-0.05
			c-0.75-0.94-1.4-1.78-2.06-2.57C205.52,169.47,204.31,167.81,202.21,166.86z M195.12,164.66c0-1.34,0-2.54,0-3.8
			c0.1-0.04,0.18-0.09,0.25-0.09c1.83,0,3.68-0.01,5.51,0.03c0.48,0.01,1.02,0.17,1.42,0.41c1.11,0.65,1.11,2.23,0.04,2.93
			c-0.29,0.19-0.61,0.3-0.92,0.35C199.33,164.79,197.24,164.61,195.12,164.66z"/>
		<path class="st0" d="M155.55,158.47c-2.78-0.92-5.62-0.95-8.41-0.06c-3.11,0.98-5.07,3.06-5.44,6.4c-0.43,3.97,1.26,7.03,5.1,8.44
			c1.42,0.5,2.91,0.69,4.44,0.67c1.83,0.02,3.61-0.22,5.29-1.01c1.91-0.94,3.35-2.34,3.98-4.42c0.46-1.51,0.5-3.08,0.13-4.61
			C160.01,161.07,158.18,159.38,155.55,158.47z M156.6,167.09c-0.41,2.38-2.1,3.9-4.5,4.1c-0.29,0.02-0.55,0.03-0.84,0.04
			c0,0.03,0,0.03,0,0.04c-0.57-0.09-1.1-0.12-1.66-0.24c-2.06-0.53-3.36-1.81-3.71-3.97c-0.17-1.02-0.15-2.1,0.14-3.13
			c0.47-1.6,1.58-2.61,3.15-3.09c1.21-0.4,2.48-0.41,3.72-0.15c2.2,0.5,3.48,1.88,3.75,4.16
			C156.75,165.59,156.73,166.36,156.6,167.09z"/>
		<path class="st0" d="M65.39,158.64c-2.71-1.04-5.52-1.09-8.31-0.4c-3.85,0.97-5.99,3.78-5.99,7.73c0,3.47,1.74,6,5.03,7.24
			c1.48,0.53,3.03,0.73,4.6,0.71c1.97,0.02,3.89-0.28,5.66-1.22c1.76-0.97,3.03-2.36,3.6-4.32c0.38-1.4,0.42-2.83,0.17-4.23
			C69.63,161.42,67.92,159.61,65.39,158.64z M66.05,166.86c-0.28,2.49-2.03,4.13-4.54,4.33c-0.26,0.02-0.55,0.03-0.83,0.04
			c-0.94,0.03-1.83-0.14-2.68-0.55c-1.32-0.65-2.24-1.66-2.57-3.13c-0.31-1.23-0.29-2.49,0.08-3.71c0.4-1.44,1.39-2.41,2.78-2.89
			c1.57-0.59,3.17-0.6,4.75-0.04c1.76,0.6,2.77,1.85,2.99,3.7C66.13,165.33,66.15,166.11,66.05,166.86z"/>
		<path class="st0" d="M248.56,164.84c-1.17-0.33-2.34-0.56-3.5-0.86c-1.19-0.3-2.39-0.58-3.55-0.93c-0.5-0.14-0.9-0.52-0.9-1.09
			c0-0.58,0.42-0.89,0.9-1.09c0.2-0.1,0.42-0.2,0.64-0.21c0.98-0.08,1.97-0.19,2.91-0.13c1.21,0.07,2.11,0.68,2.47,1.91
			c0.03,0.08,0.09,0.13,0.08,0.11c1.36,0,2.63,0,3.99,0c-0.09-1.27-0.54-2.2-1.36-2.96c-0.71-0.65-1.56-1.08-2.48-1.32
			c-2.13-0.55-4.23-0.58-6.39-0.23c-0.99,0.18-1.95,0.48-2.81,1.05c-2.33,1.58-2.42,4.41-0.14,6.08c0.73,0.58,1.6,0.94,2.49,1.16
			c1.53,0.36,3.04,0.67,4.57,1.03c0.65,0.14,1.31,0.34,1.9,0.64c0.9,0.45,1.06,1.42,0.35,2.16c-0.39,0.37-0.9,0.67-1.4,0.85
			c-0.91,0.3-1.86,0.31-2.81,0.23c-1.77-0.14-3-0.97-3.5-2.74c0-0.03-0.08-0.06-0.18-0.17c-1.2,0.1-2.45,0.17-3.76,0.27
			c0.39,2.5,1.76,3.99,3.95,4.76c1.29,0.45,2.63,0.59,3.94,0.6c1.58,0.01,3.15-0.09,4.64-0.58c1.22-0.4,2.26-1.09,2.98-2.21
			c1.02-1.66,0.71-3.8-0.75-5.1C250.14,165.49,249.39,165.07,248.56,164.84z"/>
		<path class="st0" d="M98.22,160.73c1.96,0.05,3.87-0.02,5.83,0.04c0,1.19,0,2.22,0,3.29c0,1.05,0,2.13,0,3.18
			c0,1.09,0,2.18,0,3.26c0.01,1.03-0.02,2.09,0.03,3.19c0.75,0,1.41,0,2.02,0c0.66-0.02,1.27,0.04,1.97-0.06c0-2.2,0-4.32,0-6.45
			c0.01-2.12-0.02-4.27,0.03-6.51c1.99,0,3.89,0,5.79,0c0-0.87,0-1.67,0-2.56c-5.25,0-10.45,0-15.66,0
			C98.22,159.01,98.22,159.84,98.22,160.73z"/>
	</g>
</g>
</svg>
