<svg xmlns="http://www.w3.org/2000/svg" viewBox="0 0 250 250">
<path d="M208.1,140.8c-2.2-3-5.4-4.8-9-5l-11.3,0c-4.1,0.2-7.2,3.8-7.1,7.8l0,20.1c-0.2,4.2,3,7.8,7.2,8l35.6-0.1
c1.9,0.2,3.8-0.8,5-2.7c0.9-2,0.6-4.3-0.6-6L208.1,140.8z M187.7,165.1l-0.4-1.5l0.2-20.8l0.1-0.3l11.7,0c1.3,0.2,2.4,1,3.3,2.1
l18.3,20.5H187.7z"/>
<path d="M246.1,152.3l-28.8-34.7c-2.7-2.9-6.5-4.7-10.4-4.8h-43.9l-0.2-0.6c-2.2-7.5-9.3-12.4-16.9-11.9h-10.5
c-1.8,0-3.4,1.5-3.4,3.3c0,1.8,1.5,3.3,3.4,3.3h10.4c7.9,0,11.9,5.1,11.9,15.1v28.4H3.3c-1.8,0-3.3,1.5-3.3,3.3
c0,1.8,1.5,3.3,3.3,3.3h154.4v47.7H93.1c-0.6-9.3-8.4-16.7-17.9-16.7s-17.2,7.4-17.9,16.7H16.8c-1.8,0-3.3,1.5-3.3,3.3
c0,1.8,1.5,3.4,3.3,3.4h41.4c2.3,7.3,9.1,12.5,17.1,12.5s14.8-5.3,17.1-12.5h95.5c2.3,7.3,9.1,12.5,17.1,12.5
c8,0,14.8-5.3,17.1-12.5H242c4.4,0,8-3.6,8-8.1v-40.4C249.9,159.1,248.5,155.4,246.1,152.3z M75.3,217.3
c-6.2,0-11.3-5.1-11.3-11.3c0-6.2,5.1-11.3,11.3-11.3c6.2,0,11.3,5.1,11.3,11.3C86.5,212.2,81.5,217.3,75.3,217.3z M204.9,217.3
c-6.2,0-11.3-5.1-11.3-11.3c0-6.2,5.1-11.3,11.3-11.3c6.2,0,11.3,5.1,11.3,11.3C216.2,212.2,211.1,217.3,204.9,217.3z
 M243.3,203.3c0,0.8-0.6,1.4-1.4,1.4h-19.2c-0.6-9.3-8.4-16.7-17.9-16.7s-17.2,7.4-17.9,16.7h-22.7v-82.6c0-0.3,0-0.5,0-0.8
c0-0.2,0-0.4,0-0.7l-0.1-1l42.6-0.1c2.1,0.2,3.9,1,5.2,2.3l28.9,34.8c1.4,1.9,2.1,4,2.3,6.2V203.3z"/>
<path d="M116,101.1c-0.2-0.9-0.7-1.6-1.4-2.1c-0.5-0.4-1.2-0.6-1.9-0.6h-11.4v-38c0-1.8-1.5-3.3-3.3-3.3c-1.8,0-3.4,1.5-3.4,3.3
v41.3c0,1.8,1.5,3.3,3.4,3.3h8.4l-18.8,27.3L69,105h8.2c1.8,0,3.3-1.5,3.3-3.3V40.3c0-1.8-1.5-3.3-3.3-3.3c-1.8,0-3.4,1.5-3.4,3.3
v58.1H62.6c-1.8,0-3.3,1.5-3.3,3.3c0,0.6,0.2,1.2,0.6,1.9l25,36.4c0.4,0.7,1.2,1.3,2.3,1.5c0.1,0,0.3,0,0.4,0c0.7,0,1.4-0.2,2-0.6
c0.3-0.2,0.6-0.5,0.8-0.8l25.1-36.6C116,102.8,116.2,102,116,101.1L116,101.1z"/>
</svg>