<svg xmlns="http://www.w3.org/2000/svg" viewBox="0 0 250 250"><path d="M161.1 233.9v4.9c0 3.4-2.8 6.2-6.2 6.2-3.4 0-6.2-2.8-6.2-6.2v-4.7c0-9.3-7.6-16.9-16.9-16.9h-4.4v-41.5c13.9.7 31.8-1 33.1-22.2.9-14.3-1.1-26.4-6.2-37-4.5-9.6-3.3-22-.3-29.7l7.7-19.6c2.8-7.1 3.1-12.5.9-16.5-2.6-4.6-7.6-5.7-10.6-6.3-.7-.2-1.4-.3-1.8-.4-11.9-4-12.2-7.9-12.3-10.3 0-.5-.1-.9-.2-1.3-.6-2-2.6-5.2-8.7-5.2-.5 0-1 0-1.5.1-1.7.1-3.4.1-5.1 0-6.9-.5-9.4 2.5-10.3 5.1-.1.3-.1.7-.1.9.6 6.3-10.1 10.4-15.1 11.2-4.7.9-8 3-9.7 6.1-2.2 4-1.9 9.4.9 16.5.8 2.1 1.7 4.2 2.6 6.5 5.3 12.6 11.8 28 4.8 42.9-5.1 10.6-7.1 22.7-6.2 37 1.3 21.2 19.2 23 33.1 22.2v41.5H118c-9.3 0-16.9 7.6-16.9 16.9v4.7c0 3.4-2.8 6.2-6.2 6.2s-6.2-2.8-6.2-6.2v-4.9h-5v4.9c0 6.2 5 11.2 11.2 11.2 6.2 0 11.2-5 11.2-11.2v-4.7c0-6.5 5.3-11.9 11.9-11.9h4.4v26.1h5v-26.1h4.4c6.5 0 11.9 5.3 11.9 11.9v4.7c0 6.2 5 11.2 11.2 11.2 6.2 0 11.2-5 11.2-11.2v-4.9h-5zm-63-155.3c-.2-.4-.3-.6-.3-.6l-5-12.7c-2.2-5.6-2.6-9.7-1.2-12.2 1-1.8 3-3 6.2-3.6 7.6-1.3 19.5-6.8 19.2-16 .5-1 2.2-1.4 5-1.2 1.9.1 3.8.1 5.8 0 1.6-.1 4.3-.1 5 1.2-.3 9.2 11.6 14.7 19.2 16 3.2.6 5.3 1.8 6.3 3.8 2.1 3.9-.5 10.2-2.6 15.2-.8 1.8-1.5 3.5-1.8 4.8l-1.8 4.6c0 .2-.2.5-.5 1.1-6.6 15.3-7.2 28.4-1.9 39.7 4.7 9.9 6.6 21.2 5.7 34.6-.4 5.7-2.1 9.9-5.5 12.8-4.7 4.1-12.6 5.5-25 4.8h-.4c-12.5.6-20.2-.7-24.9-4.8-3.3-2.9-5.1-7.1-5.5-12.8-.8-13.4 1-24.7 5.7-34.6 5.7-11.4 5-24.9-1.7-40.1z"/><path d="M152.1 32.9l-35.7-18-2.6 3.3 37.3 18.7z"/><path d="M152.4 39.8l-41.7-20.9 5.2-6.4 38.5 19.4-2 7.9zm-35.6-22.3l33 16.6v-.2l-32.9-16.5-.1.1z"/><path d="M155.7 18.7c.5-1.9-.4-3.9-2.1-4.9L145.1 9c-1.8-1-3.6-1.9-5.5-2.8l-8.9-4c-1.8-.8-3.9-.3-5.2 1.2l-8.4 10.3 35.2 17.7 3.4-12.7z"/><path d="M153.7 34.4l-39.5-19.9 9.9-12.2c1.8-2.2 4.9-3 7.5-1.8l8.9 4c1.9.9 3.8 1.8 5.6 2.8l8.5 4.8c2.5 1.4 3.7 4.3 3 7.1l-3.9 15.2zm-33.4-21.2l30.8 15.5 2.7-10.5c.3-1-.2-2.2-1.2-2.7l-8.5-4.8c-1.7-1-3.5-1.9-5.3-2.7l-8.9-4c-1-.5-2.2-.2-2.9.7l-6.7 8.5z"/><g><path d="M147.5 54.7l24.2 12.1c.2.1.5 0 .6-.2l.4-.9c.2-.3.1-.7-.1-1l-21.8-26.5-37.8-19-34.3-1.7c-.4 0-.7.2-.9.5l-.5 1c-.1.2 0 .5.2.6l24.2 12.1 45.8 23z"/><path d="M171.8 68.9c-.4 0-.8-.1-1.1-.3L75.9 20.9l-.5-1c-.2-.6-.1-1.3.2-1.9l.4-.8c.5-1 1.4-1.7 2.8-1.6l35.1 1.9L152.3 37l21.8 26.5c.7.9.9 2.1.4 3.1l-.8 1.6-1 .5c-.3.1-.6.2-.9.2zm-1.3-3.1zM148.4 53l20.4 10.2-19.2-23.4-37.1-18.6-30.2-1.5L148.4 53zM78.3 17.8c.1 0 0 0 0 0z"/></g></svg>