<svg xmlns="http://www.w3.org/2000/svg" viewBox="0 0 14.5 32.75"><defs><style>.a{fill:none;stroke:#000;stroke-linecap:round;stroke-linejoin:round;stroke-width:0.75px;}</style></defs><title>152</title><path class="a" d="M20.24,1.59,19.13,1c-.24-.13-.49-.26-.74-.37L17.23.07a.83.83,0,0,0-1,.24L15,1.9l5.18,2.6.51-2A.83.83,0,0,0,20.24,1.59Z" transform="translate(-8.75 0.38)"/><path class="a" d="M22.79,8.31,19.93,4.84l-5-2.55-4.59-.24a.34.34,0,0,0-.36.2l0,.11a.29.29,0,0,0,0,.24l.06.14L22.35,9l.15,0h.09l.14-.07.1-.21A.38.38,0,0,0,22.79,8.31Z" transform="translate(-8.75 0.38)"/><path class="a" d="M14.21,28.23h-1s-1.82.06-1.82,1.56S11.18,32,10.18,32a1,1,0,0,1-1-.94" transform="translate(-8.75 0.38)"/><path class="a" d="M14,28.23h1s1.82.06,1.82,1.56S17,32,18,32a1,1,0,0,0,1-.94" transform="translate(-8.75 0.38)"/><line class="a" x1="5.35" y1="23.6" x2="5.35" y2="32.38"/><path class="a" d="M19,7.62s.24.7-1.13,4,.25,5.28.81,6.34c1.08,2,.9,5.19-2.87,5.19H13.63" transform="translate(-8.75 0.38)"/><path class="a" d="M15.16,23.17H13C9.18,23.17,9,20,10.08,18c.56-1.06,2.18-3,.81-6.34s-1.12-4-1.12-4a.82.82,0,0,1,.74-.9A2.55,2.55,0,0,0,12.93,4.3" transform="translate(-8.75 0.38)"/></svg>