<?xml version="1.0" encoding="utf-8"?>
<!-- Generator: Adobe Illustrator 24.0.0, SVG Export Plug-In . SVG Version: 6.00 Build 0)  -->
<svg version="1.1" id="Layer_1" xmlns="http://www.w3.org/2000/svg" xmlns:xlink="http://www.w3.org/1999/xlink" x="0px" y="0px"
	 viewBox="0 0 250 250" style="enable-background:new 0 0 250 250;" xml:space="preserve">
<g>
	<g>
		<path d="M161.1,233.9v4.9c0,3.4-2.8,6.2-6.2,6.2c-3.4,0-6.2-2.8-6.2-6.2v-4.7c0-9.3-7.6-16.9-16.9-16.9h-4.4v-41.5
			c13.9,0.7,31.8-1,33.1-22.2c0.9-14.3-1.1-26.4-6.2-37c-4.5-9.6-3.3-22-0.3-29.7l7.7-19.6c2.8-7.1,3.1-12.5,0.9-16.5
			c-2.6-4.6-7.6-5.7-10.6-6.3c-0.7-0.2-1.4-0.3-1.8-0.4c-11.9-4-12.2-7.9-12.3-10.3c0-0.5-0.1-0.9-0.2-1.3c-0.6-2-2.6-5.2-8.7-5.2
			c-0.5,0-1,0-1.5,0.1c-1.7,0.1-3.4,0.1-5.1,0c-6.9-0.5-9.4,2.5-10.3,5.1c-0.1,0.3-0.1,0.7-0.1,0.9c0.6,6.3-10.1,10.4-15.1,11.2
			c-4.7,0.9-8,3-9.7,6.1c-2.2,4-1.9,9.4,0.9,16.5c0.8,2.1,1.7,4.2,2.6,6.5c5.3,12.6,11.8,28,4.8,42.9c-5.1,10.6-7.1,22.7-6.2,37
			c1.3,21.2,19.2,23,33.1,22.2v41.5h-4.4c-9.3,0-16.9,7.6-16.9,16.9v4.7c0,3.4-2.8,6.2-6.2,6.2s-6.2-2.8-6.2-6.2v-4.9h-5v4.9
			c0,6.2,5,11.2,11.2,11.2c6.2,0,11.2-5,11.2-11.2v-4.7c0-6.5,5.3-11.9,11.9-11.9h4.4v26.1h5v-26.1h4.4c6.5,0,11.9,5.3,11.9,11.9
			v4.7c0,6.2,5,11.2,11.2,11.2c6.2,0,11.2-5,11.2-11.2v-4.9H161.1z M98.1,78.6c-0.2-0.4-0.3-0.6-0.3-0.6l-5-12.7
			c-2.2-5.6-2.6-9.7-1.2-12.2c1-1.8,3-3,6.2-3.6c7.6-1.3,19.5-6.8,19.2-16c0.5-1,2.2-1.4,5-1.2c1.9,0.1,3.8,0.1,5.8,0
			c1.6-0.1,4.3-0.1,5,1.2c-0.3,9.2,11.6,14.7,19.2,16c3.2,0.6,5.3,1.8,6.3,3.8c2.1,3.9-0.5,10.2-2.6,15.2c-0.8,1.8-1.5,3.5-1.8,4.8
			l-1.8,4.6c0,0.2-0.2,0.5-0.5,1.1c-6.6,15.3-7.2,28.4-1.9,39.7c4.7,9.9,6.6,21.2,5.7,34.6c-0.4,5.7-2.1,9.9-5.5,12.8
			c-4.7,4.1-12.6,5.5-25,4.8h-0.4h0c-12.5,0.6-20.2-0.7-24.9-4.8c-3.3-2.9-5.1-7.1-5.5-12.8c-0.8-13.4,1-24.7,5.7-34.6
			C105.5,107.3,104.8,93.8,98.1,78.6z"/>
	</g>
	<g>
		<g>
			<polygon points="152.1,32.9 116.4,14.9 113.8,18.2 151.1,36.9 			"/>
			<path d="M152.4,39.8l-41.7-20.9l5.2-6.4l38.5,19.4L152.4,39.8z M116.8,17.5l33,16.6l0-0.2l-32.9-16.5L116.8,17.5z"/>
		</g>
		<g>
			<path d="M155.7,18.7c0.5-1.9-0.4-3.9-2.1-4.9l-8.5-4.8c-1.8-1-3.6-1.9-5.5-2.8l-8.9-4c-1.8-0.8-3.9-0.3-5.2,1.2l-8.4,10.3
				l35.2,17.7L155.7,18.7z"/>
			<path d="M153.7,34.4l-39.5-19.9l9.9-12.2c1.8-2.2,4.9-3,7.5-1.8l8.9,4c1.9,0.9,3.8,1.8,5.6,2.8l8.5,4.8c2.5,1.4,3.7,4.3,3,7.1
				L153.7,34.4z M120.3,13.2l30.8,15.5l2.7-10.5c0.3-1-0.2-2.2-1.2-2.7l-8.5-4.8c-1.7-1-3.5-1.9-5.3-2.7l-8.9-4
				c-1-0.5-2.2-0.2-2.9,0.7L120.3,13.2z"/>
		</g>
		<g>
			<path d="M147.5,54.7l24.2,12.1c0.2,0.1,0.5,0,0.6-0.2l0.4-0.9c0.2-0.3,0.1-0.7-0.1-1l-21.8-26.5l0,0l-37.8-19l0,0l-34.3-1.7
				c-0.4,0-0.7,0.2-0.9,0.5L77.3,19c-0.1,0.2,0,0.5,0.2,0.6l24.2,12.1L147.5,54.7z"/>
			<path d="M171.8,68.9c-0.4,0-0.8-0.1-1.1-0.3L75.9,20.9l-0.5-1c-0.2-0.6-0.1-1.3,0.2-1.9l0.4-0.8c0.5-1,1.4-1.7,2.8-1.6l35.1,1.9
				L152.3,37l21.8,26.5c0.7,0.9,0.9,2.1,0.4,3.1l-0.8,1.6l-1,0.5C172.4,68.8,172.1,68.9,171.8,68.9z M170.5,65.8
				C170.5,65.8,170.5,65.8,170.5,65.8L170.5,65.8z M148.4,53l20.4,10.2l-19.2-23.4l-37.1-18.6l-30.2-1.5L148.4,53z M78.3,17.8
				L78.3,17.8C78.4,17.8,78.3,17.8,78.3,17.8z"/>
		</g>
	</g>
</g>
</svg>
