<svg xmlns="http://www.w3.org/2000/svg" viewBox="0 0 251 251"><path d="M85.9 24.9c-4.7 0-7.4.3-7.4.3 66 14.7 77.9 84.1 77.9 84.1 10 56.3-30.1 91.8-30.1 91.8 119.6-11.6 98-122.7 98-122.7-17 37.8-31.6 47.1-31.6 47.1-8.5-93-82.8-100.6-106.8-100.6zM125.5 50.4C5.9 62 27.5 173.1 27.5 173.1c17-37.8 31.6-47.1 31.6-47.1 8.4 93 82.8 100.6 106.8 100.6 4.7 0 7.4-.3 7.4-.3-66-14.7-77.9-84.1-77.9-84.1-10-56.3 30.1-91.8 30.1-91.8zM125.5 16.7c29.1 0 56.4 11.3 76.9 31.9 20.5 20.5 31.9 47.9 31.9 76.9 0 29.1-11.3 56.4-31.9 76.9-20.5 20.5-47.9 31.9-76.9 31.9-29.1 0-56.4-11.3-76.9-31.9-20.5-20.5-31.9-47.9-31.9-76.9 0-29.1 11.3-56.4 31.9-76.9C69.1 28 96.4 16.7 125.5 16.7m0-16.2c-69 0-125 56-125 125s56 125 125 125 125-56 125-125-56-125-125-125z"/></svg>