<?xml version="1.0" encoding="utf-8"?>
<!-- Generator: Adobe Illustrator 24.0.0, SVG Export Plug-In . SVG Version: 6.00 Build 0)  -->
<svg version="1.1" id="Calque_0_xA0_Image_1_" xmlns="http://www.w3.org/2000/svg" xmlns:xlink="http://www.w3.org/1999/xlink"
	 x="0px" y="0px" viewBox="0 0 251 251" style="enable-background:new 0 0 251 251;" xml:space="preserve">
<style type="text/css">
	.st0{stroke:#000000;stroke-miterlimit:10;}
</style>
<g>
	<g>
		<path class="st0" d="M85.9,24.9c-4.7,0-7.4,0.3-7.4,0.3c66,14.7,77.9,84.1,77.9,84.1c10,56.3-30.1,91.8-30.1,91.8
			c119.6-11.6,98-122.7,98-122.7c-17,37.8-31.6,47.1-31.6,47.1C184.2,32.5,109.9,24.9,85.9,24.9L85.9,24.9z"/>
		<g>
			<g>
				<path class="st0" d="M125.5,50.4c-119.6,11.6-98,122.7-98,122.7c17-37.8,31.6-47.1,31.6-47.1c8.4,93,82.8,100.6,106.8,100.6
					c4.7,0,7.4-0.3,7.4-0.3c-66-14.7-77.9-84.1-77.9-84.1C85.4,85.9,125.5,50.4,125.5,50.4L125.5,50.4z"/>
			</g>
		</g>
	</g>
</g>
<path class="st0" d="M125.5,16.7c29.1,0,56.4,11.3,76.9,31.9c20.5,20.5,31.9,47.9,31.9,76.9c0,29.1-11.3,56.4-31.9,76.9
	c-20.5,20.5-47.9,31.9-76.9,31.9c-29.1,0-56.4-11.3-76.9-31.9c-20.5-20.5-31.9-47.9-31.9-76.9c0-29.1,11.3-56.4,31.9-76.9
	C69.1,28,96.4,16.7,125.5,16.7 M125.5,0.5c-69,0-125,56-125,125c0,69,56,125,125,125c69,0,125-56,125-125
	C250.5,56.5,194.5,0.5,125.5,0.5L125.5,0.5z"/>
</svg>
