<svg xmlns="http://www.w3.org/2000/svg" viewBox="0 0 30.86 32.75"><defs><style>.a{fill:none;stroke:#000;stroke-linecap:round;stroke-linejoin:round;stroke-width:0.75px;}</style></defs><title>155</title><path class="a" d="M11.47,32h9.06M5.79,3.37H3.27A2.32,2.32,0,0,0,1,5.69V16.88a2.32,2.32,0,0,0,2.32,2.33h9.9V30.87m.88-27.5H9.68m12.64,0H18m.88,27.5V19.21h9.9a2.32,2.32,0,0,0,2.32-2.33h0V5.69a2.32,2.32,0,0,0-2.32-2.32H26.21" transform="translate(-0.57 0.38)"/><path class="a" d="M17,10.38h7.14" transform="translate(-0.57 0.38)"/><path class="a" d="M17,13.77H28.23" transform="translate(-0.57 0.38)"/><circle class="a" cx="7.07" cy="2.41" r="2.03"/><circle class="a" cx="15.46" cy="2.41" r="2.03"/><circle class="a" cx="23.85" cy="2.41" r="2.03"/><rect class="a" x="4.36" y="8.23" width="7.38" height="7.97"/></svg>