<?xml version="1.0" encoding="utf-8"?>
<!-- Generator: Adobe Illustrator 24.0.0, SVG Export Plug-In . SVG Version: 6.00 Build 0)  -->
<svg version="1.1" id="Layer_1" xmlns="http://www.w3.org/2000/svg" xmlns:xlink="http://www.w3.org/1999/xlink" x="0px" y="0px"
	 viewBox="0 0 250 250" style="enable-background:new 0 0 250 250;" xml:space="preserve">
<g>
	<g>
		<path d="M247.1,219.7H2.9c-1.6,0-2.9-1.3-2.9-2.9s1.3-2.9,2.9-2.9h244.3c1.6,0,2.9,1.3,2.9,2.9S248.7,219.7,247.1,219.7z"/>
	</g>
	<g>
		<path d="M30.7,218.2c-1.6,0-2.9-1.3-2.9-2.9V108.7c0-1.6,1.3-2.9,2.9-2.9c1.6,0,2.9,1.3,2.9,2.9v106.7
			C33.5,216.9,32.2,218.2,30.7,218.2z"/>
	</g>
	<g>
		<path d="M70.7,218.2c-1.6,0-2.9-1.3-2.9-2.9V108.7c0-1.6,1.3-2.9,2.9-2.9c1.6,0,2.9,1.3,2.9,2.9v106.7
			C73.5,216.9,72.3,218.2,70.7,218.2z"/>
	</g>
	<g>
		<path d="M110,218.2c-1.6,0-2.9-1.3-2.9-2.9V108.7c0-1.6,1.3-2.9,2.9-2.9c1.6,0,2.9,1.3,2.9,2.9v106.7
			C112.8,216.9,111.6,218.2,110,218.2z"/>
	</g>
	<g>
		<path d="M149.3,218.2c-1.6,0-2.9-1.3-2.9-2.9V108.7c0-1.6,1.3-2.9,2.9-2.9c1.6,0,2.9,1.3,2.9,2.9v106.7
			C152.1,216.9,150.9,218.2,149.3,218.2z"/>
	</g>
	<g>
		<path d="M188.6,218.2c-1.6,0-2.9-1.3-2.9-2.9V108.7c0-1.6,1.3-2.9,2.9-2.9c1.6,0,2.9,1.3,2.9,2.9v106.7
			C191.5,216.9,190.2,218.2,188.6,218.2z"/>
	</g>
	<g>
		<path d="M227.9,218.2c-1.6,0-2.9-1.3-2.9-2.9V108.7c0-1.6,1.3-2.9,2.9-2.9c1.6,0,2.9,1.3,2.9,2.9v106.7
			C230.8,216.9,229.5,218.2,227.9,218.2z"/>
	</g>
	<g>
		<path d="M90,101.5c-0.3,0-0.5,0-0.8-0.1L30.5,84.8c-1.5-0.4-2.4-2-2-3.5c0.4-1.5,2-2.4,3.5-2l57,16.1l40.8-45.6
			c0.7-0.8,1.8-1.1,2.9-0.8l57.9,15.8l39.5-26.2c1.3-0.9,3.1-0.5,3.9,0.8c0.9,1.3,0.5,3.1-0.8,3.9l-40.5,26.9
			c-0.7,0.5-1.5,0.6-2.3,0.4L133,55l-40.8,45.6C91.6,101.2,90.8,101.5,90,101.5z"/>
	</g>
	<g>
		<path d="M230.3,67.2c-0.2,0-0.5,0-0.7-0.1c-1.5-0.4-2.5-1.9-2.1-3.4l5.9-24l-26-3.7c-1.6-0.2-2.6-1.7-2.4-3.2
			c0.2-1.6,1.6-2.7,3.2-2.4l29.1,4.1c0.8,0.1,1.5,0.6,2,1.2c0.4,0.7,0.6,1.5,0.4,2.3L233.1,65C232.8,66.3,231.6,67.2,230.3,67.2z"/>
	</g>
</g>
</svg>
