<svg xmlns="http://www.w3.org/2000/svg" viewBox="0 0 250 250"><path d="M247.1 219.7H2.9a2.9 2.9 0 010-5.8h244.3c1.6 0 2.9 1.3 2.9 2.9s-1.4 2.9-3 2.9z"/><path d="M30.7 218.2a2.9 2.9 0 01-2.9-2.9V108.7a2.9 2.9 0 015.8 0v106.7c-.1 1.5-1.4 2.8-2.9 2.8zM70.7 218.2a2.9 2.9 0 01-2.9-2.9V108.7a2.9 2.9 0 015.8 0v106.7c-.1 1.5-1.3 2.8-2.9 2.8zM110 218.2a2.9 2.9 0 01-2.9-2.9V108.7a2.9 2.9 0 015.8 0v106.7c-.1 1.5-1.3 2.8-2.9 2.8zM149.3 218.2a2.9 2.9 0 01-2.9-2.9V108.7a2.9 2.9 0 015.8 0v106.7c-.1 1.5-1.3 2.8-2.9 2.8zM188.6 218.2a2.9 2.9 0 01-2.9-2.9V108.7a2.9 2.9 0 015.8 0v106.7c0 1.5-1.3 2.8-2.9 2.8zM227.9 218.2a2.9 2.9 0 01-2.9-2.9V108.7a2.9 2.9 0 015.8 0v106.7c0 1.5-1.3 2.8-2.9 2.8zM90 101.5c-.3 0-.5 0-.8-.1L30.5 84.8c-1.5-.4-2.4-2-2-3.5.4-1.5 2-2.4 3.5-2l57 16.1 40.8-45.6c.7-.8 1.8-1.1 2.9-.8l57.9 15.8 39.5-26.2c1.3-.9 3.1-.5 3.9.8.9 1.3.5 3.1-.8 3.9l-40.5 26.9c-.7.5-1.5.6-2.3.4L133 55l-40.8 45.6c-.6.6-1.4.9-2.2.9z"/><path d="M230.3 67.2c-.2 0-.5 0-.7-.1-1.5-.4-2.5-1.9-2.1-3.4l5.9-24-26-3.7c-1.6-.2-2.6-1.7-2.4-3.2a2.7 2.7 0 013.2-2.4l29.1 4.1c.8.1 1.5.6 2 1.2.4.7.6 1.5.4 2.3l-6.6 27c-.3 1.3-1.5 2.2-2.8 2.2z"/></svg>