<?xml version="1.0" encoding="utf-8"?>
<!-- Generator: Adobe Illustrator 24.0.0, SVG Export Plug-In . SVG Version: 6.00 Build 0)  -->
<svg version="1.1" id="Layer_1" xmlns="http://www.w3.org/2000/svg" xmlns:xlink="http://www.w3.org/1999/xlink" x="0px" y="0px"
	 viewBox="0 0 256 256" style="enable-background:new 0 0 256 256;" xml:space="preserve">
<style type="text/css">
	.st0{fill:#8699A3;}
</style>
<g transform="translate(0,-952.36218)">
	<g>
		<path class="st0" d="M11.16,1185.47c-5.82,0-10.83-4.69-11.15-10.7c-0.31-6.22,4.48-11.54,10.7-11.86
			c0.42-0.02,0.79-0.02,1.13-0.01h2.46v-74.67c-0.03-3.07,1.11-5.91,3.22-8.06c2.1-2.15,4.93-3.35,7.94-3.38
			c3.36,0.06,6.17,1.29,8.26,3.47c2.08,2.17,3.19,5.03,3.13,8.04v74.61H55.9v-58.03c-0.03-3.06,1.1-5.9,3.2-8.06
			c2.11-2.15,4.93-3.36,7.95-3.39c3.37,0.06,6.18,1.3,8.27,3.48c2.08,2.18,3.19,5.03,3.12,8.04v57.96h19.04v-58.03
			c-0.06-6.27,4.95-11.39,11.15-11.45c6.57,0.13,11.53,5.3,11.4,11.51v57.97h19.03v-105.17c-0.06-6.27,4.95-11.38,11.15-11.44
			c3.37,0.06,6.18,1.29,8.27,3.47c2.08,2.17,3.19,5.03,3.13,8.04v105.11h19.03v-85.76c-0.06-6.27,4.95-11.39,11.16-11.45
			c6.56,0.13,11.52,5.3,11.39,11.51v85.7h19.04l-0.01-108.03c-0.03-2.98,1.11-5.82,3.22-7.98c2.1-2.15,4.93-3.35,7.94-3.38h0.29
			c3.08,0.06,5.89,1.3,7.98,3.48c2.08,2.17,3.19,5.02,3.12,8.03v107.88c6.41,0.18,11.3,5.28,11.21,11.43
			c-0.03,3-1.25,5.82-3.41,7.91c-2.11,2.07-4.91,3.2-7.87,3.2c-0.05,0-0.1,0-0.16,0H11.73
			C11.55,1185.47,11.35,1185.47,11.16,1185.47z M11.73,1168.82c-3.66,0.15-5.95,2.69-5.8,5.64c0.16,2.95,2.68,5.31,5.65,5.08
			l233.03-0.01c0.02,0,0.06,0,0.08,0c1.44,0,2.77-0.54,3.78-1.52c1.03-1,1.59-2.33,1.62-3.76c0.05-2.96-2.32-5.4-5.28-5.44h-5.93
			v-113.86c0.03-1.49-0.5-2.84-1.48-3.87c-0.99-1.04-2.33-1.63-3.77-1.66l-0.2-2.96l0.03,2.96c-1.44,0.01-2.78,0.58-3.78,1.61
			c-0.91,0.92-1.44,2.11-1.53,3.39v114.39h-30.87v-91.67c0.06-3.02-2.3-5.47-5.25-5.53c-3.12,0.03-5.51,2.46-5.48,5.42v91.79h-30.86
			v-111.08c0.03-1.49-0.5-2.85-1.49-3.88c-0.99-1.03-2.32-1.62-3.76-1.65c-3.13,0.03-5.51,2.46-5.48,5.41v111.2h-30.86v-63.95
			c0.06-3.02-2.3-5.47-5.25-5.53c-3.13,0.03-5.51,2.46-5.48,5.42v64.06H72.53v-63.95c0.03-1.5-0.5-2.85-1.48-3.88
			c-0.99-1.03-2.33-1.62-3.76-1.65c-1.62,0.01-2.96,0.58-3.95,1.61c-1.01,1.02-1.55,2.37-1.53,3.8v64.07H30.95v-80.59
			c0.03-1.49-0.5-2.85-1.49-3.88c-0.99-1.03-2.32-1.62-3.76-1.65c-1.61,0.01-2.95,0.58-3.94,1.61c-1.01,1.02-1.55,2.37-1.54,3.81
			v80.7H11.73z M86.59,1091.14c-0.98,0-1.98-0.13-2.96-0.4l-60.98-16.63c-0.27-0.05-0.72-0.17-1.17-0.31
			c-5.92-2.02-9.07-8.43-7.07-14.32c0.96-2.84,2.97-5.15,5.66-6.48c2.69-1.35,5.74-1.57,8.63-0.58l53.3,14.49l45.32-62.97
			c3.15-4.36,8.97-5.89,13.87-3.65l52.2,23.74l12.51-18.78l-8.13,2.31c-2.9,0.8-5.96,0.45-8.58-1.02c-2.62-1.48-4.52-3.89-5.34-6.79
			c-0.81-2.89-0.45-5.94,1.03-8.57c1.47-2.63,3.88-4.52,6.78-5.34l38.8-11.09c0.88-0.23,1.69-0.34,2.5-0.37
			c5.48-0.34,10.35,3.36,11.59,8.69l8.32,36.05c0.68,2.96,0.16,5.99-1.44,8.56c-1.61,2.55-4.11,4.33-7.06,5
			c-6.14,1.45-12.16-2.44-13.55-8.5l-2.62-11.5l-21.31,31.89c-3.11,4.63-9.02,6.33-14.1,3.99l-52.54-23.85l-44.5,61.79
			C93.59,1089.45,90.14,1091.14,86.59,1091.14z M25.04,1057.75c-0.82,0-1.61,0.19-2.35,0.55c-1.27,0.64-2.23,1.73-2.68,3.08
			c-0.96,2.81,0.54,5.85,3.34,6.81l0.84,0.22l60.99,16.63c2.17,0.59,4.45-0.22,5.75-2l47.33-65.72l56.96,25.87
			c2.44,1.11,5.25,0.32,6.71-1.89l28.93-43.32l5.7,24.89c0.66,2.89,3.56,4.75,6.46,4.06c1.41-0.32,2.6-1.17,3.37-2.39
			c0.76-1.22,1.01-2.66,0.68-4.07l-8.31-36.04c-0.59-2.54-2.95-4.29-5.52-4.12l-0.06,0.01c-0.42,0.01-0.82,0.07-1.22,0.17
			l-38.72,11.06c-1.39,0.39-2.53,1.29-3.24,2.54c-0.69,1.25-0.87,2.7-0.49,4.08c0.39,1.39,1.29,2.53,2.54,3.23
			c1.24,0.7,2.69,0.88,4.08,0.49l23.56-6.69l-24.21,36.32l-56.79-25.82c-2.36-1.06-5.1-0.34-6.61,1.73l-47.71,66.29l-57.42-15.62
			C26.32,1057.86,25.68,1057.75,25.04,1057.75z"/>
	</g>
</g>
</svg>
