<?xml version="1.0" encoding="utf-8"?>
<!-- Generator: Adobe Illustrator 24.0.0, SVG Export Plug-In . SVG Version: 6.00 Build 0)  -->
<svg version="1.1" id="Layer_1" xmlns="http://www.w3.org/2000/svg" xmlns:xlink="http://www.w3.org/1999/xlink" x="0px" y="0px"
	 viewBox="0 0 256 256" style="enable-background:new 0 0 256 256;" xml:space="preserve">
<g transform="translate(0,-952.36218)">
	<g>
		<path d="M11.2,1185.5c-5.8,0-10.8-4.7-11.1-10.7c-0.3-6.2,4.5-11.5,10.7-11.9c0.4,0,0.8,0,1.1,0h2.5v-74.7c0-3.1,1.1-5.9,3.2-8.1
			c2.1-2.2,4.9-3.3,7.9-3.4c3.4,0.1,6.2,1.3,8.3,3.5c2.1,2.2,3.2,5,3.1,8v74.6h19v-58c0-3.1,1.1-5.9,3.2-8.1c2.1-2.2,4.9-3.4,8-3.4
			c3.4,0.1,6.2,1.3,8.3,3.5c2.1,2.2,3.2,5,3.1,8v58h19v-58c-0.1-6.3,4.9-11.4,11.2-11.4c6.6,0.1,11.5,5.3,11.4,11.5v58h19v-105.2
			c-0.1-6.3,4.9-11.4,11.1-11.4c3.4,0.1,6.2,1.3,8.3,3.5c2.1,2.2,3.2,5,3.1,8v105.1h19v-85.8c-0.1-6.3,4.9-11.4,11.2-11.4
			c6.6,0.1,11.5,5.3,11.4,11.5v85.7h19l0-108c0-3,1.1-5.8,3.2-8c2.1-2.2,4.9-3.3,7.9-3.4h0.3c3.1,0.1,5.9,1.3,8,3.5
			c2.1,2.2,3.2,5,3.1,8v107.9c6.4,0.2,11.3,5.3,11.2,11.4c0,3-1.2,5.8-3.4,7.9c-2.1,2.1-4.9,3.2-7.9,3.2c-0.1,0-0.1,0-0.2,0H11.7
			C11.6,1185.5,11.4,1185.5,11.2,1185.5z M11.7,1168.8c-3.7,0.2-5.9,2.7-5.8,5.6c0.2,2.9,2.7,5.3,5.7,5.1l233,0c0,0,0.1,0,0.1,0
			c1.4,0,2.8-0.5,3.8-1.5c1-1,1.6-2.3,1.6-3.8c0.1-3-2.3-5.4-5.3-5.4h-5.9v-113.9c0-1.5-0.5-2.8-1.5-3.9c-1-1-2.3-1.6-3.8-1.7
			l-0.2-3l0,3c-1.4,0-2.8,0.6-3.8,1.6c-0.9,0.9-1.4,2.1-1.5,3.4v114.4h-30.9v-91.7c0.1-3-2.3-5.5-5.2-5.5c-3.1,0-5.5,2.5-5.5,5.4
			v91.8h-30.9v-111.1c0-1.5-0.5-2.8-1.5-3.9s-2.3-1.6-3.8-1.7c-3.1,0-5.5,2.5-5.5,5.4v111.2h-30.9v-63.9c0.1-3-2.3-5.5-5.2-5.5
			c-3.1,0-5.5,2.5-5.5,5.4v64.1H72.5v-63.9c0-1.5-0.5-2.8-1.5-3.9c-1-1-2.3-1.6-3.8-1.7c-1.6,0-3,0.6-4,1.6c-1,1-1.5,2.4-1.5,3.8
			v64.1H31v-80.6c0-1.5-0.5-2.8-1.5-3.9s-2.3-1.6-3.8-1.7c-1.6,0-3,0.6-3.9,1.6c-1,1-1.5,2.4-1.5,3.8v80.7L11.7,1168.8L11.7,1168.8z
			 M86.6,1091.1c-1,0-2-0.1-3-0.4l-61-16.6c-0.3-0.1-0.7-0.2-1.2-0.3c-5.9-2-9.1-8.4-7.1-14.3c1-2.8,3-5.2,5.7-6.5
			c2.7-1.3,5.7-1.6,8.6-0.6l53.3,14.5l45.3-63c3.2-4.4,9-5.9,13.9-3.7l52.2,23.7l12.5-18.8l-8.1,2.3c-2.9,0.8-6,0.5-8.6-1
			c-2.6-1.5-4.5-3.9-5.3-6.8c-0.8-2.9-0.4-5.9,1-8.6c1.5-2.6,3.9-4.5,6.8-5.3l38.8-11.1c0.9-0.2,1.7-0.3,2.5-0.4
			c5.5-0.3,10.4,3.4,11.6,8.7l8.3,36c0.7,3,0.2,6-1.4,8.6c-1.6,2.6-4.1,4.3-7.1,5c-6.1,1.4-12.2-2.4-13.6-8.5l-2.6-11.5l-21.3,31.9
			c-3.1,4.6-9,6.3-14.1,4l-52.5-23.8l-44.5,61.8C93.6,1089.4,90.1,1091.1,86.6,1091.1z M25,1057.8c-0.8,0-1.6,0.2-2.4,0.6
			c-1.3,0.6-2.2,1.7-2.7,3.1c-1,2.8,0.5,5.8,3.3,6.8l0.8,0.2l61,16.6c2.2,0.6,4.4-0.2,5.8-2l47.3-65.7l57,25.9
			c2.4,1.1,5.2,0.3,6.7-1.9l28.9-43.3l5.7,24.9c0.7,2.9,3.6,4.8,6.5,4.1c1.4-0.3,2.6-1.2,3.4-2.4c0.8-1.2,1-2.7,0.7-4.1l-8.3-36
			c-0.6-2.5-2.9-4.3-5.5-4.1l-0.1,0c-0.4,0-0.8,0.1-1.2,0.2l-38.7,11.1c-1.4,0.4-2.5,1.3-3.2,2.5c-0.7,1.2-0.9,2.7-0.5,4.1
			c0.4,1.4,1.3,2.5,2.5,3.2c1.2,0.7,2.7,0.9,4.1,0.5l23.6-6.7l-24.2,36.3l-56.8-25.8c-2.4-1.1-5.1-0.3-6.6,1.7l-47.7,66.3
			l-57.4-15.6C26.3,1057.9,25.7,1057.8,25,1057.8z"/>
	</g>
</g>
</svg>
