<svg xmlns="http://www.w3.org/2000/svg" viewBox="0 0 250 250">
<path d="M29.4,219.2c2.4,0,4.3-1.9,4.3-4.3v-39.7h178.4v39.7c0,2.4,1.9,4.4,4.3,4.4h29.2c2.4,0,4.3-2,4.3-4.4v-69.8c0-2.4-1.9-4.3-4.3-4.3H33.7V58.2c-0.4-8.7-7.5-15.8-16.2-16.2l-0.7,0C7.8,42,0.4,49.1,0,58.3v156.6c0,2.4,1.9,4.3,4.3,4.3H29.4zM29.4,149.4h212.1v61h-20.6v-39.7c0-2.4-1.9-4.3-4.3-4.3H29.4c-2.4,0-4.3,1.9-4.3,4.3v39.7H8.7V58.3c0.2-4.2,3.6-7.5,7.8-7.7c4.5-0.3,8.4,3.2,8.6,7.7v86.8C25,147.5,27,149.4,29.4,149.4z"/>
<path d="M59.7,126.9h107.7c2.4,0,4.3-1.9,4.3-4.3c0-2.4-1.9-4.3-4.3-4.3H59.7c-3.2,0-5.7-2.6-5.7-5.7c0-3.2,2.6-5.7,5.7-5.7h47.7c2.4,0,4.3-1.9,4.3-4.3l0-36.3c0.1-1.4,1.4-2.4,2.7-2.3l119,20.2c3.7,0.4,6.5,3.6,6.5,7.4v31.2c0,2.4,1.9,4.3,4.4,4.3c2.4-0.1,4.2-2,4.2-4.3V91.4c0-8.2-6.1-15.1-14.2-16l-119-20.2c-0.4,0-0.8-0.1-1.2-0.1c-6.2,0-11.2,5-11.2,11.2v31.7H59.7c-8,0-14.4,6.5-14.4,14.4C45.2,120.5,51.7,126.9,59.7,126.9z"/>
<path d="M72.5,94.2c14.3,0,25.9-11.6,25.9-25.9c0-14.3-11.6-25.9-25.9-25.9S46.6,54,46.6,68.3S58.2,94.2,72.5,94.2z M55.3,68.3c0-9.5,7.7-17.2,17.2-17.2c9.5,0,17.2,7.7,17.2,17.2c0,9.5-7.7,17.2-17.2,17.2S55.3,77.8,55.3,68.3z"/>
</svg>