<svg xmlns="http://www.w3.org/2000/svg" viewBox="0 0 32.75 21.82"><defs><style>.a{fill:none;stroke:#000;stroke-linecap:round;stroke-linejoin:round;stroke-width:0.75px;}</style></defs><title>162</title><path class="a" d="M4,26.53a.58.58,0,0,0,.59-.59V22.58H27.87v3.36a.58.58,0,0,0,.59.59h2.95a.59.59,0,0,0,.59-.59V18.48a.6.6,0,0,0-.59-.59H4.59V7.67a2.3,2.3,0,0,0-2.2-2.2h-.1A2.29,2.29,0,0,0,0,7.68V25.94a.59.59,0,0,0,.59.59Z" transform="translate(0.38 -5.09)"/><path class="a" d="M21.77,14.83H8.12a.79.79,0,0,1,0-1.57h6.49a.59.59,0,0,0,.6-.59V7.72a.36.36,0,0,1,.36-.31l14.17,2.75a1,1,0,0,1,.89,1v4.25" transform="translate(0.38 -5.09)"/><path class="a" d="M7.53,8.37A2.68,2.68,0,1,1,10.2,11,2.68,2.68,0,0,1,7.53,8.37Z" transform="translate(0.38 -5.09)"/></svg>