<?xml version="1.0" encoding="utf-8"?>
<!-- Generator: Adobe Illustrator 24.0.0, SVG Export Plug-In . SVG Version: 6.00 Build 0)  -->
<svg version="1.1" id="Layer_1" xmlns="http://www.w3.org/2000/svg" xmlns:xlink="http://www.w3.org/1999/xlink" x="0px" y="0px"
	 viewBox="0 0 256 256" style="enable-background:new 0 0 256 256;" xml:space="preserve">
<style type="text/css">
	.st0{fill:none;stroke:#8699A3;stroke-width:0.9083;stroke-miterlimit:10;}
</style>
<g>
	<path class="st0" d="M124.78,73.56c0,10.98-8.02,20.03-17.11,24.9v144.39c0,7.23-5.92,13.15-13.15,13.15
		c-7.23,0-13.15-5.92-13.15-13.15V98.88C71.86,94.15,63,84.31,63,73.01V5.81C63,2.6,65.6,0,68.81,0h1.24c3.21,0,4.6,2.6,4.6,5.81
		v61.6c0,3.17,13.8,3.17,13.8,0V5.81c0-3.21,2.6-5.81,5.81-5.81c3.07,0,5.56,2.49,5.56,5.56v61.85c0,3.57,13.33,4.55,13.33,0.31
		V6.36c0-3.21,1.36-5.81,4.56-5.81h1.28c3.21,0,5.81,2.6,5.81,5.81V73.56z"/>
	<path class="st0" d="M193.76,242.02c0,7.23-5.92,13.15-13.15,13.15c-7.23,0-13.15-5.92-13.15-13.15v-93.7
		C143.36,87.21,147.39,52.29,183,2.73l0.11-0.15c0.01-0.01,0.01-0.02,0.02-0.03l0.07-0.09l0.01,0c1.06-1.48,2.78-2.46,4.74-2.46
		c3.2,0,5.82,2.62,5.82,5.82V242.02z"/>
</g>
</svg>
