<?xml version="1.0" encoding="utf-8"?>
<!-- Generator: Adobe Illustrator 24.0.0, SVG Export Plug-In . SVG Version: 6.00 Build 0)  -->
<svg version="1.1" id="Layer_1" xmlns="http://www.w3.org/2000/svg" xmlns:xlink="http://www.w3.org/1999/xlink" x="0px" y="0px"
	 viewBox="0 0 208 258" style="enable-background:new 0 0 208 258;" xml:space="preserve">
<g>
	<g>
		<path d="M80.3,222.9c-6.8,0-12.4-5.6-12.4-12.4V111C61.2,107,55,99.7,55,90.9V43.6c0-4,3.2-7.2,7.2-7.2H63c3.8,0,6.4,2.9,6.4,7.2
			v41.8c1,0.1,2.4,0.1,3.4,0V43.6c0-4,3.2-7.2,7.2-7.2c3.9,0,7.1,3.2,7.1,7.1v42.3c0.9,0.2,2.2,0.3,3.1,0.2V44
			c0-4.3,2.6-7.2,6.4-7.2h0.9c4,0,7.2,3.2,7.2,7.2v47.3c0,8.8-5.9,15.5-12,19.3v99.8C92.7,217.3,87.1,222.9,80.3,222.9z M62.1,42.7
			c-0.5,0-0.9,0.4-0.9,0.9v47.3c0,6.8,5.6,12.6,11.2,15.4l1.7,0.9v103.3c0,3.4,2.7,6.1,6.1,6.1s6.1-2.7,6.1-6.1V106.9L88,106
			c5-2.7,10.4-8,10.4-14.8V44c0-0.5-0.4-0.9-0.9-0.9h-0.8c-0.1,0.2-0.1,0.5-0.1,0.9v43.2c0,2.4-1.9,5.1-7.3,5.1
			c-4.2,0-8.4-1.6-8.4-5.3V43.4c0-0.4-0.3-0.8-0.8-0.8s-0.9,0.4-0.9,0.9V87c0,1.1-0.6,4.8-8,4.8s-8-3.7-8-4.8V43.6
			c0-0.5-0.1-0.8-0.1-0.9L62.1,42.7z"/>
	</g>
	<g>
		<path d="M140.8,222.3c-6.8,0-12.4-5.6-12.4-12.4v-65.4c-17-43.5-14.2-69.1,11.6-104.9l1-1.4h0.3c1.3-1.1,3-1.8,4.7-1.8
			c4,0,7.2,3.3,7.2,7.2v166.3C153.3,216.7,147.7,222.3,140.8,222.3z M144.3,44.4c-23.9,33.7-26.1,56.9-9.8,98.4l0.2,0.6V210
			c0,3.4,2.7,6.1,6.1,6.1c3.4,0,6.1-2.7,6.1-6.1V43.6c0-0.5-0.4-0.9-0.9-0.9c-0.4,0-0.7,0.3-0.8,0.4L144.3,44.4z"/>
	</g>
</g>
</svg>
