<?xml version="1.0" encoding="utf-8"?>
<!-- Generator: Adobe Illustrator 24.0.0, SVG Export Plug-In . SVG Version: 6.00 Build 0)  -->
<svg version="1.1" id="Layer_1" xmlns="http://www.w3.org/2000/svg" xmlns:xlink="http://www.w3.org/1999/xlink" x="0px" y="0px"
	 viewBox="0 0 250 250" style="enable-background:new 0 0 250 250;" xml:space="preserve">
<g>
	<g>
		<g>
			<g>
				<path d="M182.2,0c-2.6,0-5,1.3-6.6,3.5c-32,44.6-35.5,76.2-14.3,130.4l0.1,0.2v100.4c0,7.9,6.4,14.4,14.4,14.4
					c7.9,0,14.4-6.4,14.4-14.4V7.8C190.2,3.5,186.6,0,182.2,0z M184.5,234.4c0,4.9-4,8.8-8.7,8.8c-4.9,0-8.8-4-8.8-8.8v-101
					l-0.3-1.1C145.9,79.5,149,50,180.3,6.5c0.2-0.4,0.8-1,1.9-1c1.3,0,2.3,1,2.3,2.3V234.4z"/>
			</g>
		</g>
	</g>
	<g>
		<path d="M88.9,67.1c1.8,0,3.2-1.4,3.2-3.2V6.5c0-1.8-1.4-3.2-3.2-3.2c-1.8,0-3.2,1.4-3.2,3.2v57.4C85.7,65.7,87.1,67.1,88.9,67.1z
			"/>
		<path d="M120.2,4.6c0-1.8-1.4-3.2-3.2-3.2c-1.8,0-3.2,1.4-3.2,3.2V62c0,0,0,0,0,0.1v0.3c0,8.5-7.2,15.4-14,19.1l-1.6,0.9v152.9
			c0,4.6-3.8,8.4-8.4,8.4c-4.6,0-8.4-3.8-8.4-8.4V82.6l-1.8-0.9C72.1,78,64.5,70.4,64.5,61.8v-0.5h0V6.2C64.4,4.4,63,3,61.2,3
			C59.4,3,58,4.4,58,6.2v55.2c0,0.1,0,0.1,0,0.2v0.2c0,11.3,8.7,20.4,16.1,24.7l0.1,0.1L75,235.2c0,8.2,6.6,14.8,14.8,14.8
			s14.8-6.6,14.8-14.8l0.6-149.1l0.1-0.1c3.5-2.1,14.9-10.1,14.9-23.7v-0.1c0-0.1,0.1-0.2,0.1-0.3V4.6z"/>
	</g>
</g>
</svg>
