<?xml version="1.0" encoding="utf-8"?>
<!-- Generator: Adobe Illustrator 24.0.0, SVG Export Plug-In . SVG Version: 6.00 Build 0)  -->
<svg version="1.1" id="Layer_1" xmlns="http://www.w3.org/2000/svg" xmlns:xlink="http://www.w3.org/1999/xlink" x="0px" y="0px"
	 viewBox="0 0 256 256" style="enable-background:new 0 0 256 256;" xml:space="preserve">
<style type="text/css">
	.st0{fill:none;stroke:#8699A3;stroke-width:8;stroke-miterlimit:10;}
</style>
<g>
	<path class="st0" d="M124.89,75.26c0,10.64-7.77,19.4-16.58,24.12v139.88c0,7-5.74,12.74-12.74,12.74s-12.74-5.74-12.74-12.74
		V99.79c-9.21-4.58-17.8-14.11-17.8-25.06V9.63c0-3.11,2.52-5.63,5.63-5.63h1.2c3.11,0,4.46,2.52,4.46,5.63V69.3
		c0,3.07,13.37,3.07,13.37,0V9.63C89.7,6.52,92.22,4,95.33,4c2.97,0,5.39,2.41,5.39,5.39V69.3c0,3.46,12.91,4.41,12.91,0.3V10.16
		c0-3.11,1.32-5.63,4.42-5.63h1.24c3.11,0,5.63,2.52,5.63,5.63v65.1H124.89z"/>
	<path class="st0" d="M191.72,238.46c0,7-5.74,12.74-12.74,12.74s-12.74-5.74-12.74-12.74v-90.77
		c-23.35-59.2-19.44-93.03,15.05-141.04l0.11-0.15c0.01-0.01,0.01-0.02,0.02-0.03l0.07-0.09h0.01c1.03-1.43,2.69-2.38,4.59-2.38
		c3.1,0,5.64,2.54,5.64,5.64L191.72,238.46L191.72,238.46z"/>
</g>
</svg>
