<svg xmlns="http://www.w3.org/2000/svg" viewBox="0 0 17.66 32.75"><defs><style>.a{fill:none;stroke:#000;stroke-linecap:round;stroke-linejoin:round;stroke-width:0.75px;}</style></defs><title>17</title><path class="a" d="M23.44,0a1.06,1.06,0,0,0-.85.45c-4.1,5.7-4.53,9.75-1.82,16.68V30a1.84,1.84,0,0,0,3.68,0V1A1,1,0,0,0,23.44,0Z" transform="translate(-7.17 0.38)"/><path class="a" d="M7.54,0V7.91a4,4,0,0,0,2.06,3.17h0l.1,19a1.9,1.9,0,1,0,3.79,0L13.59,11h0a3.76,3.76,0,0,0,1.9-3h0V0" transform="translate(-7.17 0.38)"/><path class="a" d="M11.67,0V7.89" transform="translate(-7.17 0.38)"/></svg>