<?xml version="1.0" encoding="utf-8"?>
<!-- Generator: Adobe Illustrator 24.0.0, SVG Export Plug-In . SVG Version: 6.00 Build 0)  -->
<svg version="1.1" id="Layer_1" xmlns="http://www.w3.org/2000/svg" xmlns:xlink="http://www.w3.org/1999/xlink" x="0px" y="0px"
	 viewBox="0 0 250 250" style="enable-background:new 0 0 250 250;" xml:space="preserve">
<path d="M217.5,117.7L176.7,60h15.9c2,0,3.6-1.6,3.6-3.6V3.6c0-2-1.6-3.6-3.6-3.6H56.5c-2,0-3.6,1.6-3.6,3.6v52.8
	c0,2,1.6,3.6,3.6,3.6h16.7l-40.8,57.7c-0.9,1.2-0.9,2.9,0,4.1l89.8,126.7l0.5,0.6l0.2,0c0.6,0.5,1.4,0.8,2.3,0.8
	c0.8,0,1.5-0.3,2.2-0.8l90.2-127.4C218.4,120.6,218.4,118.9,217.5,117.7z M125.2,86.4c9.7,0,17.5,7.9,17.5,17.5s-7.9,17.5-17.5,17.5
	s-17.5-7.9-17.5-17.5S115.5,86.4,125.2,86.4z M128.7,235.1V128.2c12-1.8,21.1-12.1,21.1-24.3c0-13.6-11.1-24.7-24.7-24.7
	c-13.6,0-24.7,11.1-24.7,24.7c0,12.2,9.1,22.6,21.1,24.3v106.9L39.8,119.7L82.1,60h85.9l42.3,59.8L128.7,235.1z M189,7.2v45.6H60.1
	V7.2H189z"/>
</svg>
