<?xml version="1.0" encoding="utf-8"?>
<!-- Generator: Adobe Illustrator 24.0.0, SVG Export Plug-In . SVG Version: 6.00 Build 0)  -->
<svg version="1.1" id="Layer_1" xmlns="http://www.w3.org/2000/svg" xmlns:xlink="http://www.w3.org/1999/xlink" x="0px" y="0px"
	 viewBox="0 0 256 256" style="enable-background:new 0 0 256 256;" xml:space="preserve">
<g>
	<path d="M252,68.6c-2.6-2.6-6.1-4-9.8-4c-3.7,0-7.2,1.4-9.8,4l-6.7,6.7l-3.8,3.8V51H0v154.1h222v-87l23.3-23.3l0,0l0,0l6.7-6.7
		c2.6-2.6,4-6.1,4-9.8S254.6,71.2,252,68.6z M243.1,88.4l-10.9-10.9l4.6-4.6c2.9-2.9,8-2.9,10.9,0c1.5,1.5,2.3,3.4,2.3,5.5
		s-0.8,4-2.3,5.5L243.1,88.4z M177.6,153.9L166.6,143l61.2-61.2l10.9,10.9L177.6,153.9z M158.7,161.9l4.6-13.7l9.1,9.1L158.7,161.9z
		 M199.1,101.9l-38.9,39l0,0l0,0l-1.4,1.4l-9.7,29.2l29.2-9.7l1.4-1.4l19.4-19.4v40.7H59.9V74.5h139.2V101.9z M215.9,199.1H6.1v-142
		h209.8v28.1l-10.7,10.7V68.4H53.8v119.3h151.4v-52.8l10.7-10.7V199.1z"/>
	<path d="M18.8,103.3h24.8V68.4H18.8V103.3z M24.8,74.5h12.7v22.7H24.8V74.5z"/>
	<path d="M18.8,187.7h24.8v-34.8H18.8V187.7z M24.8,159h12.7v22.7H24.8V159z"/>
	<path d="M31.2,118.8c-6.8,0-12.4,5.6-12.4,12.4s5.6,12.4,12.4,12.4s12.4-5.6,12.4-12.4C43.6,124.4,38,118.8,31.2,118.8z
		 M31.2,137.6c-3.5,0-6.4-2.9-6.4-6.4c0-3.5,2.9-6.3,6.4-6.3s6.4,2.8,6.4,6.3S34.7,137.6,31.2,137.6z"/>
</g>
</svg>
