<?xml version="1.0" encoding="utf-8"?>
<!-- Generator: Adobe Illustrator 24.0.0, SVG Export Plug-In . SVG Version: 6.00 Build 0)  -->
<svg version="1.1" id="Layer_1" xmlns="http://www.w3.org/2000/svg" xmlns:xlink="http://www.w3.org/1999/xlink" x="0px" y="0px"
	 viewBox="0 0 256 256" style="enable-background:new 0 0 256 256;" xml:space="preserve">
<style type="text/css">
	.st0{fill:#8699A3;}
</style>
<g>
	<path class="st0" d="M251.99,68.55c-2.61-2.61-6.07-4.04-9.78-4.04c-3.7,0-7.17,1.43-9.75,4.04l-6.74,6.74l-3.77,3.77V51H0v154.12
		h221.96v-87.01l23.29-23.29l0,0l0,0l6.71-6.71c2.61-2.61,4.04-6.07,4.04-9.78S254.6,71.16,251.99,68.55z M243.09,88.38
		l-10.93-10.93l4.59-4.59c2.92-2.92,8.02-2.92,10.93,0c1.46,1.46,2.28,3.4,2.28,5.47c0,2.07-0.79,4.01-2.28,5.47L243.09,88.38z
		 M177.56,153.95l-10.93-10.93l61.25-61.25l10.93,10.93L177.56,153.95z M158.67,161.9l4.56-13.73l9.14,9.14L158.67,161.9z
		 M199.12,101.9l-38.93,38.96l0,0l0,0l-1.37,1.37l-9.72,29.24l29.24-9.72l1.4-1.4l19.41-19.41v40.69H59.92V74.51h139.2L199.12,101.9
		z M215.88,199.08H6.07v-142h209.81v28.06l-10.69,10.69V68.4H53.84v119.32h151.35v-52.84l10.69-10.69L215.88,199.08z"/>
	<path class="st0" d="M18.77,103.26h24.84V68.43H18.77V103.26z M24.84,74.51h12.69v22.69H24.84V74.51z"/>
	<path class="st0" d="M18.77,187.72h24.84v-34.83H18.77V187.72z M24.84,158.96h12.69v22.69H24.84V158.96z"/>
	<path class="st0" d="M31.19,118.81c-6.83,0-12.42,5.56-12.42,12.42c0,6.86,5.56,12.42,12.42,12.42s12.42-5.56,12.42-12.42
		C43.61,124.37,38.05,118.81,31.19,118.81z M31.19,137.58c-3.49,0-6.35-2.85-6.35-6.35c0-3.49,2.85-6.35,6.35-6.35
		s6.35,2.85,6.35,6.35C37.54,134.73,34.68,137.58,31.19,137.58z"/>
</g>
</svg>
