<svg xmlns="http://www.w3.org/2000/svg" viewBox="0 0 32.75 19.96"><defs><style>.a{fill:none;stroke:#000;stroke-linecap:round;stroke-linejoin:round;stroke-width:0.75px;}</style></defs><title>18</title><path class="a" d="M31.51,8.58a1.62,1.62,0,0,0-1.18-.49,1.6,1.6,0,0,0-1.17.49L27.73,10V6.39H0V25.61H27.73V14.72l0,0,3.76-3.77a1.65,1.65,0,0,0,0-2.35ZM25,12.74l0,0-5,5-1.17,3.54,3.52-1.18L25,17.46" transform="translate(0.38 -6.02)"/><path class="a" d="M2.48,9.2v3.89H5.22V9.2Z" transform="translate(0.38 -6.02)"/><path class="a" d="M2.48,18.91V22.8H5.22V18.91Z" transform="translate(0.38 -6.02)"/><path class="a" d="M3.85,14.69a1.37,1.37,0,1,0,1.37,1.37A1.37,1.37,0,0,0,3.85,14.69Z" transform="translate(0.38 -6.02)"/><line class="a" x1="25.34" y1="6.74" x2="28.1" y2="3.99"/><line class="a" x1="28.12" y1="8.68" x2="25.38" y2="11.44"/><line class="a" x1="20.31" y1="11.79" x2="22.66" y2="14.16"/></svg>