<?xml version="1.0" encoding="utf-8"?>
<!-- Generator: Adobe Illustrator 24.0.0, SVG Export Plug-In . SVG Version: 6.00 Build 0)  -->
<svg version="1.1" id="Layer_1" xmlns="http://www.w3.org/2000/svg" xmlns:xlink="http://www.w3.org/1999/xlink" x="0px" y="0px"
	 viewBox="0 0 250 250" style="enable-background:new 0 0 250 250;" xml:space="preserve">
<g>
	<g>
		<path d="M246.2,67c-2.4-2.5-5.8-3.8-9.2-3.8s-6.7,1.3-9.2,3.8l-11.2,11.2V49.9H0v150.1h216.6V115l0.2-0.2l29.4-29.4
			c2.4-2.4,3.8-5.8,3.8-9.2S248.6,69.5,246.2,67z M211.7,195.2H4.9V54.8h206.8v28.3l-0.2,0.2l-11.3,11.4V67H52.8V183h147.4v-51.5
			l0.2-0.2l11.3-11.3V195.2z M155.7,139.1l-9.2,27.6l27.5-9.2l21.2-21.2v41.7H57.7V71.9h137.6v27.6l-0.2,0.2L155.7,139.1z
			 M159.3,143.8l10.2,10.1l-15.2,5.1L159.3,143.8z M173.6,151.1l-11.5-11.5l60.8-60.8l11.4,11.4L173.6,151.1z M242.7,81.9l-4.9,4.9
			l-11.4-11.4l4.9-4.9c1.5-1.5,3.6-2.3,5.7-2.3c2.2,0,4.3,0.9,5.8,2.3c1.5,1.5,2.4,3.6,2.4,5.7C245.1,78.4,244.2,80.4,242.7,81.9z"
			/>
	</g>
	<g>
		<path d="M18.4,67v33.1h23.3V67H18.4z M36.8,95.2H23.3V71.9h13.5V95.2z"/>
	</g>
	<g>
		<path d="M18.4,149.8V183h23.3v-33.1H18.4z M36.8,178.1H23.3v-23.3h13.5V178.1z"/>
	</g>
	<g>
		<path d="M30.1,116.5c-6.4,0-11.7,5.2-11.7,11.7c0,6.4,5.3,11.7,11.7,11.7c6.4,0,11.7-5.3,11.7-11.7
			C41.7,121.6,36.5,116.5,30.1,116.5z M30.1,134.8c-3.7,0-6.8-3-6.8-6.7c0-3.7,3.1-6.8,6.8-6.8c3.7,0,6.7,3.1,6.7,6.8
			C36.8,131.8,33.8,134.8,30.1,134.8z"/>
	</g>
</g>
</svg>
