<svg xmlns="http://www.w3.org/2000/svg" viewBox="0 0 32.75 32.12"><defs><style>.a{fill:none;stroke:#000;stroke-linecap:round;stroke-linejoin:round;stroke-width:0.75px;}</style></defs><title>185</title><path class="a" d="M10.41.68a13.57,13.57,0,1,0,6.31,26.39A13.19,13.19,0,0,0,25.09,21a13.33,13.33,0,0,0,1.67-10.28A13.62,13.62,0,0,0,10.41.68Z" transform="translate(0.37 0.06)"/><line class="a" x1="24.45" y1="23.98" x2="32.37" y2="31.75"/><path class="a" d="M13.63,6.76a4.89,4.89,0,1,0,0,9.78,4.9,4.9,0,0,0,4.89-4.89A4.9,4.9,0,0,0,13.63,6.76Z" transform="translate(0.37 0.06)"/><path class="a" d="M23.55,21.33a22.64,22.64,0,0,0-9.88-2.19,22.75,22.75,0,0,0-9.93,2.18" transform="translate(0.37 0.06)"/></svg>