<svg xmlns="http://www.w3.org/2000/svg" viewBox="0 0 32.75 30.54"><defs><style>.a{fill:none;stroke:#000;stroke-linecap:round;stroke-linejoin:round;stroke-width:0.75px;}</style></defs><title>189</title><rect class="a" x="3.46" y="3.11" width="3.59" height="3.59"/><rect class="a" x="3.46" y="9.38" width="3.59" height="3.59"/><rect class="a" x="9.64" y="3.11" width="3.59" height="3.59"/><rect class="a" x="9.64" y="9.38" width="3.59" height="3.59"/><path class="a" d="M31.83,17.25,22.18,8.56A.32.32,0,0,0,22,8.47a.22.22,0,0,0-.19.09l-9.69,8.72a.4.4,0,0,0-.14.41.31.31,0,0,0,.3.25h.6V30.53a.34.34,0,0,0,.35.37H30.73a.34.34,0,0,0,.34-.37V17.94h.59a.33.33,0,0,0,.34-.37A.36.36,0,0,0,31.83,17.25Z" transform="translate(0.38 -0.73)"/><rect class="a" x="5.96" y="20.44" width="4.38" height="5.69"/><path class="a" d="M17.57,22.8a.26.26,0,0,0,.12-.29,4.6,4.6,0,0,1,0-2.33.24.24,0,0,0-.12-.28l-1.16-.67a5.88,5.88,0,0,1,1-1.8l1.16.67a.26.26,0,0,0,.3,0,4.67,4.67,0,0,1,2-1.17.25.25,0,0,0,.18-.24V15.31a6.05,6.05,0,0,1,2.08,0v1.34a.26.26,0,0,0,.19.24,4.58,4.58,0,0,1,2,1.17.26.26,0,0,0,.3,0l1.16-.67a6.12,6.12,0,0,1,1.05,1.8l-1.17.67a.24.24,0,0,0-.11.28,4.83,4.83,0,0,1,0,2.33.26.26,0,0,0,.11.29l1.17.67a6.39,6.39,0,0,1-1.05,1.8l-1.16-.67a.24.24,0,0,0-.3,0,4.66,4.66,0,0,1-2,1.16.26.26,0,0,0-.19.25v1.34a6.31,6.31,0,0,1-2.08,0V26.05a.25.25,0,0,0-.18-.25,4.75,4.75,0,0,1-2-1.16.24.24,0,0,0-.3,0l-1.16.67a6.13,6.13,0,0,1-1-1.8Z" transform="translate(0.38 -0.73)"/><path class="a" d="M22.16,18.73a2.62,2.62,0,1,1-2.61,2.62A2.62,2.62,0,0,1,22.16,18.73Z" transform="translate(0.38 -0.73)"/><polyline class="a" points="11.39 26.24 0.38 26.24 0.38 0.38 17.06 0.38 17.06 9.11"/></svg>