<svg xmlns="http://www.w3.org/2000/svg" viewBox="0 0 32.67 26.75"><defs><style>.a{fill:none;stroke:#000;stroke-linecap:round;stroke-linejoin:round;stroke-width:0.75px;}</style></defs><title>190</title><path class="a" d="M0,19.73v6.12H2.23m27.54,0H32V14.37l-6.05-6H19.56m-10,17.51H22.41" transform="translate(0.33 -2.63)"/><path class="a" d="M27.73,17.42H22.88V12.57h1.26l3.59,3.59Z" transform="translate(0.33 -2.63)"/><circle class="a" cx="6.12" cy="23.09" r="3.28"/><circle class="a" cx="26.47" cy="23.09" r="3.28"/><polyline class="a" points="19.89 5.72 19.89 17.29 0.43 17.29"/><path class="a" d="M17.42,9.21l-8-6.11A.41.41,0,0,0,9.19,3,.3.3,0,0,0,9,3.1L1,9.25a.44.44,0,0,0-.18.48.38.38,0,0,0,.38.3H1.9v9.45a.42.42,0,0,0,.45.44H16a.41.41,0,0,0,.43-.44V10h.76a.4.4,0,0,0,.42-.44A.44.44,0,0,0,17.42,9.21Z" transform="translate(0.33 -2.63)"/></svg>