<svg xmlns="http://www.w3.org/2000/svg" viewBox="0 0 32.75 27.28"><defs><style>.a{fill:none;stroke:#000;stroke-linecap:round;stroke-linejoin:round;stroke-width:0.75px;}</style></defs><title>191</title><path class="a" d="M7.44,6S11.2,5.45,13,3.53s2.19-.08,2.9,2.73,3.89,15.55-4.75,18.26c0,0-10.75-.21-11-15.91,0,0-.89-3.94,1.67-2.76A8.62,8.62,0,0,0,7.44,6Z" transform="translate(0.38 -2.36)"/><path class="a" d="M19.18,9.36a8.61,8.61,0,0,0,6.88,3c4.79.05,5.19-3.74,5.8-.57s-.32,16.75-11.7,17.46A7,7,0,0,1,16,24.67" transform="translate(0.38 -2.36)"/><path class="a" d="M5.64,17.59A7.26,7.26,0,0,0,13.5,16s.89,4.13-2.06,5.28S5.64,17.59,5.64,17.59Z" transform="translate(0.38 -2.36)"/><path class="a" d="M3.13,12.42s.34-2.19,1.85-2a3.2,3.2,0,0,1,2.13,1.16S5.44,15.37,3.13,12.42Z" transform="translate(0.38 -2.36)"/><path class="a" d="M13.21,9.39s-1.47-1.67-2.61-.67a3.23,3.23,0,0,0-1.19,2.12S12.84,13.11,13.21,9.39Z" transform="translate(0.38 -2.36)"/><path class="a" d="M18.73,20.48a6.31,6.31,0,0,0,6.55,2.42s-1.24,3.46-4,3S18.73,20.48,18.73,20.48Z" transform="translate(0.38 -2.36)"/><path class="a" d="M19.25,15.5s1.26-1.46,2.27-.6a2.85,2.85,0,0,1,1.05,1.84S19.6,18.74,19.25,15.5Z" transform="translate(0.38 -2.36)"/><path class="a" d="M28.1,17.9s-.32-1.91-1.62-1.7a2.83,2.83,0,0,0-1.86,1S26.11,20.48,28.1,17.9Z" transform="translate(0.38 -2.36)"/></svg>