<svg xmlns="http://www.w3.org/2000/svg" viewBox="0 0 32.75 32.02"><defs><style>.a{fill:none;stroke:#000;stroke-linecap:round;stroke-linejoin:round;stroke-width:0.75px;}</style></defs><title>192</title><path class="a" d="M22.16,15.44S23.67.29,12.21.36s.15,8.64,0,11.78,6.22,7.57,6.22,7.57" transform="translate(0.37 0.01)"/><path class="a" d="M7,3.51S.9,5.47.11,11.28s2.83,10.44,3.3,11.07" transform="translate(0.37 0.01)"/><path class="a" d="M11.94,11.55S4.51,12.77,3.41,17s1.1,8.8,2,10.84,5.83,6.25,11.24.34" transform="translate(0.37 0.01)"/><path class="a" d="M8.08,5.68A5.87,5.87,0,0,0,3.63,9" transform="translate(0.37 0.01)"/><path class="a" d="M9.8,8a5.84,5.84,0,0,0-4.44,3.28" transform="translate(0.37 0.01)"/><path class="a" d="M15.81,17.31a5.89,5.89,0,0,0,1.3-5.37" transform="translate(0.37 0.01)"/><path class="a" d="M18.4,17.23a5.86,5.86,0,0,0,1.3-5.37" transform="translate(0.37 0.01)"/><path class="a" d="M18.42,24.6s.46-5.74,4.11-8.23c0,0,3.89,3.59,3.34,8.1" transform="translate(0.37 0.01)"/><path class="a" d="M17.54,24.7l9.06-.24s.66,7.18-4.24,7.18S17.54,24.7,17.54,24.7Z" transform="translate(0.37 0.01)"/><path class="a" d="M24.18,18.31s.54-2.1,5.09-2.63c0,0,2.09,3.29-3.5,6" transform="translate(0.37 0.01)"/><path class="a" d="M28.69,19.77A5,5,0,0,1,32,20.87s.13,1.88-3.38,2.27" transform="translate(0.37 0.01)"/></svg>