<svg xmlns="http://www.w3.org/2000/svg" viewBox="0 0 30.8 32.75"><defs><style>.a{fill:none;stroke:#000;stroke-linecap:round;stroke-linejoin:round;stroke-width:0.75px;}</style></defs><title>193</title><path class="a" d="M31,7.16A1,1,0,0,0,31,7a.58.58,0,0,0,0-.14l-.08-.08c-.05,0-.08-.11-.14-.14l0,0h0L16.27.06a.64.64,0,0,0-.54,0L1.36,6.59h0l-.06,0c-.06,0-.09.09-.14.14l-.07.08A.44.44,0,0,0,1,7.06s0,.06,0,.1H1V23.51a.64.64,0,0,0,.34.57l14.37,7.84A.72.72,0,0,0,16,32a.68.68,0,0,0,.31-.08l14.37-7.84a.64.64,0,0,0,.34-.57V7.19S31,7.17,31,7.16Z" transform="translate(-0.6 0.38)"/><polyline class="a" points="15.4 32.38 15.4 15.21 30.42 7.56"/><line class="a" x1="15.4" y1="15.21" x2="0.38" y2="7.53"/><path class="a" d="M10.77,22.45l-3.92-2V16.08l3.92,2Z" transform="translate(-0.6 0.38)"/><line class="a" x1="22.84" y1="11.42" x2="8.09" y2="3.64"/><polyline class="a" points="20.62 24.54 20.62 17.5 18.53 20.36"/><line class="a" x1="20.73" y1="17.49" x2="22.57" y2="19.19"/><polyline class="a" points="25.3 21.53 25.3 14.49 23.21 17.35"/><line class="a" x1="25.41" y1="14.48" x2="27.25" y2="16.19"/></svg>