<svg xmlns="http://www.w3.org/2000/svg" viewBox="0 0 32.75 23.78"><defs><style>.a{fill:none;stroke:#000;stroke-linecap:round;stroke-linejoin:round;stroke-width:0.75px;}</style></defs><title>194</title><path class="a" d="M8.28,10.5v6.1H5.12a.59.59,0,0,0-.54.34L.06,26.67a.6.6,0,0,0,0,.58.61.61,0,0,0,.51.27H31.43a.6.6,0,0,0,.51-.27.73.73,0,0,0,0-.58L27.45,17a.6.6,0,0,0-.53-.34H23.75v-6.1M18,16.19v6.16H14V16.19Z" transform="translate(0.38 -4.11)"/><polyline class="a" points="25.68 7.58 16.39 0.38 16.39 0.38 7.11 7.58"/><path class="a" d="M8.28,16.6v5.76l15.47,0v-5.7" transform="translate(0.38 -4.11)"/><line class="a" x1="22.38" y1="4.84" x2="22.38" y2="2.33"/><line class="a" x1="8.76" y1="7.01" x2="24.23" y2="7.01"/><line class="a" x1="8.76" y1="7.01" x2="24.23" y2="7.01"/></svg>