<svg xmlns="http://www.w3.org/2000/svg" viewBox="0 0 32.75 22.28"><defs><style>.a{fill:none;stroke:#000;stroke-linecap:round;stroke-linejoin:round;stroke-width:0.75px;}</style></defs><title>195</title><path class="a" d="M10.75,26.76a10.76,10.76,0,1,1,9.3-16.21l-.13.16L19.7,11a3.53,3.53,0,0,0-.24.34c-.08.11-.13.19-.19.29a3.82,3.82,0,0,0-.21.36l-.17.3-.18.39a3.21,3.21,0,0,0-.12.31c0,.11-.1.27-.15.42s-.07.2-.1.3-.07.3-.11.45a2.75,2.75,0,0,1-.07.3c0,.1-.05.33-.07.51a.74.74,0,0,1,0,.25c0,.25,0,.54,0,.77a5.1,5.1,0,0,0,0,.78.74.74,0,0,0,0,.25,3,3,0,0,0,.08.51c0,.17,0,.19.06.3s.07.3.11.44l.1.31a4.45,4.45,0,0,0,.15.42l.12.3c.05.1.12.27.18.4l.16.29a4,4,0,0,0,.22.37l.19.29.24.34.22.28.13.16A10.76,10.76,0,0,1,10.75,26.76Zm9.13-16A7.2,7.2,0,1,1,24.8,23.2h0a7.18,7.18,0,0,1-5-2" transform="translate(0.38 -4.86)"/><path class="a" d="M22.69,15.51A1.74,1.74,0,1,0,21,13.77,1.74,1.74,0,0,0,22.69,15.51Z" transform="translate(0.38 -4.86)"/><path class="a" d="M27.23,16.58A1.74,1.74,0,1,0,29,18.31h0A1.74,1.74,0,0,0,27.23,16.58Z" transform="translate(0.38 -4.86)"/><line class="a" x1="21.95" y1="14.51" x2="28.56" y2="7.9"/><path class="a" d="M14.37,11.75a4.76,4.76,0,0,0-3.68-1.65S7,10.06,7,12.83s2.9,3.3,4.05,3.22,3.56,0,3.56,2.31-2.11,3.18-4.05,3.18-3.31-.66-3.64-1.9" transform="translate(0.38 -4.86)"/><line class="a" x1="11.19" y1="3.17" x2="11.19" y2="18.67"/></svg>