<svg xmlns="http://www.w3.org/2000/svg" viewBox="0 0 32.75 20.02"><defs><style>.a{fill:none;stroke:#000;stroke-linecap:round;stroke-linejoin:round;stroke-width:0.75px;}</style></defs><title>196</title><circle class="a" cx="16.26" cy="9.85" r="3.82"/><path class="a" d="M21.46,21.41a7.88,7.88,0,0,0,.29-10.82" transform="translate(0.38 -5.99)"/><path class="a" d="M24.29,23.19a10.47,10.47,0,0,0,.39-14.38" transform="translate(0.38 -5.99)"/><path class="a" d="M27.9,25.63a14,14,0,0,0,.52-19.26" transform="translate(0.38 -5.99)"/><path class="a" d="M10.54,21.41a7.88,7.88,0,0,1-.29-10.82" transform="translate(0.38 -5.99)"/><path class="a" d="M7.71,23.19A10.47,10.47,0,0,1,7.32,8.81" transform="translate(0.38 -5.99)"/><path class="a" d="M4.1,25.63A14,14,0,0,1,3.58,6.37" transform="translate(0.38 -5.99)"/></svg>