<svg xmlns="http://www.w3.org/2000/svg" viewBox="0 0 32.75 29.93"><defs><style>.a{fill:none;stroke:#000;stroke-linecap:round;stroke-linejoin:round;stroke-width:0.75px;}</style></defs><title>197</title><path class="a" d="M12,9.32V3.5A2.1,2.1,0,0,0,9.9,1.41H2.08A2.09,2.09,0,0,0,0,3.5v24a2.09,2.09,0,0,0,2.08,2.09H9.9A2.1,2.1,0,0,0,12,27.53v-1" transform="translate(0.38 -1.04)"/><path class="a" d="M3.34,6.29h5.3" transform="translate(0.38 -1.04)"/><path class="a" d="M3.34,9.44h2" transform="translate(0.38 -1.04)"/><path class="a" d="M6,25.86a2.08,2.08,0,1,1,2.08-2.08A2.08,2.08,0,0,1,6,25.86Z" transform="translate(0.38 -1.04)"/><path class="a" d="M31.27,9.52H10.38a.73.73,0,0,0-.73.73V25.76a.73.73,0,0,0,.73.73h6.07l-1.34,2.64H13.29a.73.73,0,1,0,0,1.46H28.36a.73.73,0,0,0,0-1.46H26.55L25.2,26.49h6.07a.73.73,0,0,0,.73-.73V10.25A.73.73,0,0,0,31.27,9.52Z" transform="translate(0.38 -1.04)"/><rect class="a" x="12.79" y="11.32" width="16.78" height="11.4"/></svg>