<svg xmlns="http://www.w3.org/2000/svg" viewBox="0 0 32.75 26.86"><defs><style>.a{fill:none;stroke:#000;stroke-linecap:round;stroke-linejoin:round;stroke-width:0.75px;}</style></defs><title>198</title><path class="a" d="M21.14,10.6a9.92,9.92,0,0,0-1.5-1.68,9.46,9.46,0,1,0-2.92,15.89" transform="translate(0.38 -2.57)"/><path class="a" d="M25.33,11.5a12.85,12.85,0,0,0-3-4.74A13.06,13.06,0,1,0,19,27.64" transform="translate(0.38 -2.57)"/><path class="a" d="M28.42,12.11l-2.73,2.56L20,12.61a.36.36,0,0,0-.34.06l-1.75,1.62a.3.3,0,0,0,.08.49l5,2.49-2.6,2.92-1.64-.68a.29.29,0,0,0-.34,0l-1.28,1.19a.31.31,0,0,0,0,.47l2.41,2,1.75,2.58a.31.31,0,0,0,.45.05L23,24.62a.63.63,0,0,0,.12-.32l-.57-1.73,3.08-2.36,2.11,5.2a.33.33,0,0,0,.53.11L30,23.86a.54.54,0,0,0,.11-.32l-1.61-5.8,2.81-2.6a2.06,2.06,0,0,0-.21-3.21A2.09,2.09,0,0,0,28.42,12.11Z" transform="translate(0.38 -2.57)"/></svg>