<svg xmlns="http://www.w3.org/2000/svg" viewBox="0 0 32.17 32.75"><defs><style>.a{fill:none;stroke:#000;stroke-linecap:round;stroke-linejoin:round;stroke-width:0.75px;}</style></defs><title>199</title><path class="a" d="M2.06,21.29a2.64,2.64,0,1,0,2.64-2.6A2.62,2.62,0,0,0,2.06,21.29Z" transform="translate(0.08 0.38)"/><path class="a" d="M9.1,32H.29V28.84A3.43,3.43,0,0,1,4,25.75H5.44A3.42,3.42,0,0,1,9.1,28.84V32Z" transform="translate(0.08 0.38)"/><path class="a" d="M13.34,21.29A2.64,2.64,0,1,0,16,18.69,2.62,2.62,0,0,0,13.34,21.29Z" transform="translate(0.08 0.38)"/><path class="a" d="M20.38,32H11.57V28.84a3.42,3.42,0,0,1,3.66-3.09h1.48a3.43,3.43,0,0,1,3.67,3.09Z" transform="translate(0.08 0.38)"/><path class="a" d="M24.67,21.29a2.64,2.64,0,1,0,2.63-2.6A2.62,2.62,0,0,0,24.67,21.29Z" transform="translate(0.08 0.38)"/><path class="a" d="M31.71,32H22.9V28.84a3.42,3.42,0,0,1,3.66-3.09H28a3.42,3.42,0,0,1,3.67,3.09V32Z" transform="translate(0.08 0.38)"/><path class="a" d="M1.69,14.82H30.31a.56.56,0,0,0,.57-.56V.56A.57.57,0,0,0,30.31,0H1.69a.56.56,0,0,0-.57.56v13.7A.56.56,0,0,0,1.69,14.82Z" transform="translate(0.08 0.38)"/><path class="a" d="M12.84,5.36H26.31" transform="translate(0.08 0.38)"/><path class="a" d="M12.84,9.54H26.31" transform="translate(0.08 0.38)"/><path class="a" d="M6.4,9.54H9.62" transform="translate(0.08 0.38)"/><path class="a" d="M6.4,5.35H9.62" transform="translate(0.08 0.38)"/></svg>