<svg xmlns="http://www.w3.org/2000/svg" viewBox="0 0 256 256"><path d="M235.1 0H125.2c-2.8 0-5.1 2.3-5.1 5.1v51.5c0 2.8 2.3 5.1 5.1 5.1s5.1-2.3 5.1-5.1V10.2H230v235.2h-39.8c-2.8 0-5.1 2.3-5.1 5.1s2.3 5.1 5.1 5.1h44.9c2.8 0 5.1-2.3 5.1-5.1V5.1c0-2.8-2.3-5.1-5.1-5.1z"/><path d="M153.6 139.3c2.9-22.4 2.8-47.9-9.9-59.6-17.6-16.3-78.7-16.3-96.2 0-12.9 11.9-12.8 38-9.8 60.6-6.5-3.4-14.9-3.5-23.2 4.3-7.5 7-7.9 14.6-7 19.6C9.3 175 18.9 184 25.1 188l1 37.6c.1 2.8 2.4 5 5.1 5h.4l2.7 21.1c.3 2.5 2.5 4.4 5.1 4.4h8c2.6 0 4.8-2 5.2-4.4l2.7-21.1c1.3-.1 2.7-.7 3.5-1.8H130c.9 1 2.2 1.6 3.6 1.8l2.7 21.1c.3 2.5 2.5 4.4 5.1 4.4h8.2c2.6 0 4.8-2 5.1-4.4l2.7-21.1h.3c2.8 0 5.1-2.2 5.2-5l1-37.6c6.1-3.9 15.8-12.9 17.8-23.6.9-5.1.4-12.6-7.1-19.6-7.5-7-14.8-7.8-21-5.5zm-103.7 81H47l-1.9 26.3-3.3-.1-2.4-26.2h-3.2l-1-35.5c-.1-2.1-1.3-3.8-3.2-4.6-2.5-1-13-9-14.7-17.6-.7-3.9.6-7.2 4-10.4s8.5-6.6 15-.1l2 2c1.1 1.1 2.5 2.4 3.7 3.6 5.1 5.2 7.8 12 7.8 19.1l.1 43.5zm78.8-1.8H60.1V183h68.6v35.5zm.2-45.7h-69c-.9-8.2-4.4-15.8-10.1-21.8-4.4-23.8-6.7-53.4 4.5-63.7 13.8-12.9 68.6-12.9 82.4 0 10.7 9.9 9.1 37.7 5.1 60.8l-2.4 2.4c-6 6.1-9.7 13.9-10.5 22.3zm42.4-10.2c-1.6 8.6-12.1 16.5-14.7 17.6-1.9.8-3.1 2.6-3.1 4.6l-1 35.5h-3.2l-1.9 26.3-3.3-.1-2.4-26.2h-2.9v-43.6c0-7.1 2.8-13.9 7.9-19.1 1.2-1.1 2.4-2.4 3.5-3.4l2.2-2.2c6.4-6.5 11.6-3.1 14.9.1 3.5 3.2 4.8 6.5 4 10.5z"/></svg>