<?xml version="1.0" encoding="utf-8"?>
<!-- Generator: Adobe Illustrator 24.0.0, SVG Export Plug-In . SVG Version: 6.00 Build 0)  -->
<svg version="1.1" id="Layer_1" xmlns="http://www.w3.org/2000/svg" xmlns:xlink="http://www.w3.org/1999/xlink" x="0px" y="0px"
	 viewBox="0 0 256 256" style="enable-background:new 0 0 256 256;" xml:space="preserve">
<style type="text/css">
	.st0{fill:#8699A3;}
</style>
<g>
	<g>
		<path class="st0" d="M235.1,0H125.16c-2.83,0-5.11,2.29-5.11,5.11v51.46c0,2.82,2.29,5.11,5.11,5.11c2.83,0,5.11-2.29,5.11-5.11
			V10.23h99.71v235.23h-39.82c-2.83,0-5.11,2.29-5.11,5.11c0,2.83,2.29,5.11,5.11,5.11h44.93c2.83,0,5.11-2.29,5.11-5.11V5.11
			C240.21,2.29,237.93,0,235.1,0z"/>
		<path class="st0" d="M153.58,139.31c2.89-22.41,2.79-47.91-9.91-59.58c-17.56-16.32-78.69-16.32-96.24,0
			c-12.91,11.88-12.81,38-9.81,60.62c-6.51-3.41-14.87-3.51-23.23,4.34c-7.54,7.02-7.95,14.56-7.02,19.62
			c1.96,10.74,11.57,19.72,17.76,23.65l1.03,37.59c0.1,2.79,2.37,4.96,5.06,4.96h0.41l2.68,21.07c0.31,2.48,2.48,4.44,5.06,4.44
			h8.05c2.58,0,4.75-1.96,5.16-4.44l2.68-21.07c1.34-0.1,2.68-0.72,3.51-1.76h71.15c0.93,1.03,2.17,1.65,3.61,1.76l2.68,21.07
			c0.31,2.48,2.48,4.44,5.06,4.44h8.16c2.58,0,4.75-1.96,5.06-4.44l2.68-21.07h0.31c2.79,0,5.06-2.17,5.16-4.96l1.03-37.59
			c6.09-3.92,15.8-12.91,17.76-23.65c0.93-5.06,0.41-12.6-7.13-19.62C167.11,137.76,159.78,137.04,153.58,139.31z M49.9,220.27
			h-2.89l-1.86,26.33l-3.3-0.1l-2.37-26.23h-3.2l-1.03-35.52c-0.1-2.07-1.34-3.82-3.2-4.65c-2.48-1.03-13.01-8.98-14.66-17.55
			c-0.72-3.92,0.62-7.23,4.03-10.43c3.41-3.2,8.47-6.61,14.97-0.1l1.96,1.96c1.14,1.14,2.48,2.37,3.72,3.61
			c5.06,5.16,7.85,11.98,7.85,19.1V220.27z M128.69,218.51H60.13v-35.52h68.57V218.51z M128.9,172.77H59.92
			c-0.93-8.16-4.44-15.8-10.12-21.79c-4.44-23.75-6.71-53.39,4.54-63.71c13.84-12.91,68.57-12.91,82.41,0
			c10.74,9.91,9.09,37.69,5.06,60.82l-2.37,2.37C133.44,156.56,129.73,164.4,128.9,172.77z M171.34,162.55
			c-1.55,8.57-12.08,16.52-14.66,17.55c-1.86,0.83-3.1,2.58-3.1,4.65l-1.03,35.52h-3.2l-1.86,26.33l-3.3-0.1l-2.38-26.23h-2.89
			v-43.58c0-7.13,2.79-13.94,7.85-19.1c1.24-1.14,2.37-2.37,3.51-3.41l2.17-2.17c6.4-6.51,11.57-3.1,14.87,0.1
			C170.83,155.32,172.07,158.62,171.34,162.55z"/>
	</g>
</g>
</svg>
