<svg xmlns="http://www.w3.org/2000/svg" viewBox="0 0 32.75 29.58"><defs><style>.a{fill:none;stroke:#000;stroke-linecap:round;stroke-linejoin:round;stroke-width:0.75px;}</style></defs><title>2</title><path class="a" d="M26.36,30.38h5.06A.58.58,0,0,0,32,29.8V2.16a.58.58,0,0,0-.58-.58H19a.57.57,0,0,0-.57.58V8" transform="translate(0.38 -1.21)"/><path class="a" d="M28.51,5.05H21.94" transform="translate(0.38 -1.21)"/><path class="a" d="M26.91,17.88a2.15,2.15,0,0,0-2.34-.6c.33-2.53.32-5.4-1.11-6.71-2-1.84-8.86-1.84-10.84,0-1.46,1.33-1.44,4.27-1.11,6.82a2.16,2.16,0,0,0-2.61.49,2.31,2.31,0,0,0-.79,2.21,4.5,4.5,0,0,0,2,2.66L10.22,27a.57.57,0,0,0,.57.55h.05l.3,2.38a.59.59,0,0,0,.57.5h.91a.61.61,0,0,0,.58-.5l.3-2.38a.61.61,0,0,0,.4-.19h8a.59.59,0,0,0,.41.19l.3,2.38a.58.58,0,0,0,.57.5h.92a.59.59,0,0,0,.57-.5l.3-2.38h0A.58.58,0,0,0,25.6,27l.11-4.24a4.54,4.54,0,0,0,2-2.66A2.32,2.32,0,0,0,26.91,17.88Z" transform="translate(0.38 -1.21)"/><line class="a" x1="11.14" y1="26.32" x2="14.1" y2="26.32"/><line class="a" x1="22.52" y1="26.32" x2="25.47" y2="26.32"/><line class="a" x1="13.44" y1="20.94" x2="23.3" y2="20.94"/><path class="a" d="M11.51,17.39a14.77,14.77,0,0,1,.82,4.54c-.09,1.95,0,5.43,0,5.43" transform="translate(0.38 -1.21)"/><path class="a" d="M24.51,17.39a14.89,14.89,0,0,0-.81,4.54c.08,1.95-.05,5.43-.05,5.43" transform="translate(0.38 -1.21)"/><path class="a" d="M5.28,12.77H9A.57.57,0,0,0,9.54,12L7.05,5.75a.57.57,0,0,0-.53-.36H3.07a.55.55,0,0,0-.53.36L0,12a.57.57,0,0,0,.06.54.56.56,0,0,0,.47.25H5.28Z" transform="translate(0.38 -1.21)"/><path class="a" d="M4.87,30V12.78" transform="translate(0.38 -1.21)"/><line class="a" x1="2.57" y1="29.16" x2="7.78" y2="29.16"/></svg>