<?xml version="1.0" encoding="utf-8"?>
<!-- Generator: Adobe Illustrator 24.0.0, SVG Export Plug-In . SVG Version: 6.00 Build 0)  -->
<svg version="1.1" id="Layer_1" xmlns="http://www.w3.org/2000/svg" xmlns:xlink="http://www.w3.org/1999/xlink" x="0px" y="0px"
	 viewBox="0 0 256 256" style="enable-background:new 0 0 256 256;" xml:space="preserve">
<g>
	<g>
		<path d="M235.1,0H125.2c-2.8,0-5.1,2.3-5.1,5.1v51.5c0,2.8,2.3,5.1,5.1,5.1c2.8,0,5.1-2.3,5.1-5.1V10.2H230v235.2h-39.8
			c-2.8,0-5.1,2.3-5.1,5.1c0,2.8,2.3,5.1,5.1,5.1h44.9c2.8,0,5.1-2.3,5.1-5.1V5.1C240.2,2.3,237.9,0,235.1,0z"/>
		<path d="M153.6,139.3c2.9-22.4,2.8-47.9-9.9-59.6c-17.6-16.3-78.7-16.3-96.2,0c-12.9,11.9-12.8,38-9.8,60.6
			c-6.5-3.4-14.9-3.5-23.2,4.3c-7.5,7-7.9,14.6-7,19.6C9.3,175,18.9,184,25.1,188l1,37.6c0.1,2.8,2.4,5,5.1,5h0.4l2.7,21.1
			c0.3,2.5,2.5,4.4,5.1,4.4h8c2.6,0,4.8-2,5.2-4.4l2.7-21.1c1.3-0.1,2.7-0.7,3.5-1.8h71.2c0.9,1,2.2,1.6,3.6,1.8l2.7,21.1
			c0.3,2.5,2.5,4.4,5.1,4.4h8.2c2.6,0,4.8-2,5.1-4.4l2.7-21.1h0.3c2.8,0,5.1-2.2,5.2-5l1-37.6c6.1-3.9,15.8-12.9,17.8-23.6
			c0.9-5.1,0.4-12.6-7.1-19.6C167.1,137.8,159.8,137,153.6,139.3z M49.9,220.3H47l-1.9,26.3l-3.3-0.1l-2.4-26.2h-3.2l-1-35.5
			c-0.1-2.1-1.3-3.8-3.2-4.6c-2.5-1-13-9-14.7-17.6c-0.7-3.9,0.6-7.2,4-10.4c3.4-3.2,8.5-6.6,15-0.1l2,2c1.1,1.1,2.5,2.4,3.7,3.6
			c5.1,5.2,7.8,12,7.8,19.1L49.9,220.3L49.9,220.3z M128.7,218.5H60.1V183h68.6L128.7,218.5L128.7,218.5z M128.9,172.8h-69
			C59,164.6,55.5,157,49.8,151c-4.4-23.8-6.7-53.4,4.5-63.7c13.8-12.9,68.6-12.9,82.4,0c10.7,9.9,9.1,37.7,5.1,60.8l-2.4,2.4
			C133.4,156.6,129.7,164.4,128.9,172.8z M171.3,162.6c-1.6,8.6-12.1,16.5-14.7,17.6c-1.9,0.8-3.1,2.6-3.1,4.6l-1,35.5h-3.2
			l-1.9,26.3l-3.3-0.1l-2.4-26.2h-2.9v-43.6c0-7.1,2.8-13.9,7.9-19.1c1.2-1.1,2.4-2.4,3.5-3.4l2.2-2.2c6.4-6.5,11.6-3.1,14.9,0.1
			C170.8,155.3,172.1,158.6,171.3,162.6z"/>
	</g>
</g>
</svg>
