<svg xmlns="http://www.w3.org/2000/svg" viewBox="0 0 250 250">
<path d="M196.9,143l-76.5,28l-96.4-40.2c-1.2-0.5-2.7,0.1-3.2,1.3c-0.5,1.2,0.1,2.7,1.3,3.2l97.4,40.6c0.3,0.1,0.6,0.2,0.9,0.2s0.6-0.1,0.9-0.2l77.5-28.4c1.2-0.5,1.8-1.9,1.3-3.2C199.6,143.1,198.1,142.5,196.9,143z"/>
<path d="M120.3,177.2c-0.5,0-0.9-0.1-1.3-0.3l-97.4-40.6c-1.8-0.7-2.6-2.8-1.9-4.6c0.7-1.7,2.8-2.6,4.5-1.9l96.1,40l76.1-27.8c1.8-0.7,3.8,0.1,4.6,1.9c0.7,1.8-0.1,3.8-1.9,4.6l-77.5,28.4C121.3,177.1,120.8,177.2,120.3,177.2z M23,131.7c-0.5,0-1.1,0.3-1.3,0.8c-0.1,0.3-0.1,0.7,0,1.1c0.1,0.3,0.4,0.6,0.7,0.7l97.4,40.6c0.3,0.1,0.7,0.1,1.1,0l77.5-28.4c0.7-0.3,1-1.1,0.7-1.8c-0.3-0.7-1.1-1-1.8-0.7l-76.9,28.2l-0.4-0.2l-96.4-40.2C23.3,131.8,23.2,131.7,23,131.7z"/>
<path d="M229.5,173.1V95.8l0,0l18-7.5c0.9-0.4,1.5-1.3,1.5-2.2c0-1-0.6-1.9-1.5-2.2L121.3,35.1c-0.6-0.3-1.3-0.3-1.9,0L2.5,83.8c-0.9,0.4-1.5,1.3-1.5,2.2c0,1,0.6,1.9,1.5,2.2L119.4,137c0.3,0.1,0.6,0.2,0.9,0.2s0.6-0.1,0.9-0.2l103.3-39.2v75.3l-19.2,38.4c-0.4,0.8-0.3,1.7,0.1,2.4c0.4,0.7,1.2,1.2,2.1,1.2h39c0.8,0,1.6-0.4,2.1-1.2c0.4-0.7,0.5-1.6,0.1-2.4L229.5,173.1z M120.3,132.1L9.8,86l110.5-46l119.8,46L120.3,132.1z M211.5,210.2l15.5-31.1l15.5,31.1H211.5z"/>
<path d="M246.5,216.1h-38.9c-1.2,0-2.3-0.6-3-1.6c-0.6-1.1-0.7-2.3-0.1-3.4l19.1-38.2V99.4L121.7,138c-0.8,0.4-1.9,0.4-2.7,0L2.1,89.3C0.8,88.7,0,87.5,0,86c0-1.4,0.8-2.7,2.1-3.2L119,34.1c0.9-0.4,1.8-0.4,2.7,0l126.2,48.7c1.3,0.5,2.1,1.8,2.1,3.2c0,1.4-0.8,2.7-2.1,3.2l-17.3,7.2v76.4l19.1,38.2c0.5,1.1,0.5,2.4-0.1,3.4C248.8,215.5,247.7,216.1,246.5,216.1z M225.7,96.2l-0.1,77.3L206.3,212c-0.2,0.4-0.2,0.9,0.1,1.4c0.3,0.4,0.7,0.7,1.2,0.7h38.9c0.5,0,0.9-0.3,1.2-0.7c0.2-0.4,0.3-0.9,0.1-1.3l-19.3-38.9v-78l18.6-7.8c0.5-0.2,0.8-0.7,0.8-1.3c0-0.6-0.3-1.1-0.8-1.3L120.9,36.1c-0.3-0.1-0.7-0.1-1.1,0L2.9,84.8C2.4,85,2.1,85.5,2.1,86c0,0.6,0.3,1.1,0.8,1.3L119.8,136c0.3,0.1,0.7,0.1,1.1,0L225.7,96.2z M244.3,211.3h-34.5l17.2-34.5L244.3,211.3z M213.2,209.2h27.7L227,181.5L213.2,209.2z M120.3,133.2l-0.4-0.2L7.1,86l113.3-47.2l0.4,0.2l122.2,47L120.3,133.2z M12.6,86L120.3,131L237.4,86L120.3,41.1L12.6,86z"/>
</svg>