<svg xmlns="http://www.w3.org/2000/svg" viewBox="0 0 256 256"><path d="M79.9 18.5c9.6.8 21.8-6.7 24.4-9.1-5.7-1.4-17.2.6-24.4 9.1zM77.3 12.8c-1.4-.6-16.6 4.4-18.3 14.5 7.8-1.8 14.7-7.5 18.3-14.5zM86.3 22.3c-13.1-1.1-18.9 5.1-18.9 5.1 12.5 2.9 18.9-5 18.9-5.1zM54.3 23.4C43 24.6 38.8 42.5 38.7 42.5c6.6-4.8 13.7-10.8 15.6-19.1zM49.2 38.7c10.5.8 18.9-7 18.9-7-15.8-.8-18.9 7.1-18.9 7zM53.6 43.7s-10-2.6-19.2 10.4c.1 0 12.4-1.9 19.2-10.4zM32.8 39.9S19 49.9 22.7 64.1c.1 0 8.5-7.7 10.1-24.2zM22.8 75.2c.1 0 12.4-5.5 18.5-18.5.1 0-14.4 4.2-18.5 18.5zM18 61c.1 0-10.6 12.3-5 27.8.1-.1 8.1-11 5-27.8zM15.6 101.2s13.5-15.8 13.5-23c0 .2-13.5 5.5-13.5 23zM7.7 84.6s-10 16.6.9 28.6c.1 0 5.2-14.3-.9-28.6zM24.4 98.8s-11.3 6.7-10.7 24.5c-.1 0 9.2-9.2 10.7-24.5zM9.9 139.6C10 118.4.5 108.2.4 108.2c-2.8 24.9 9.5 31.4 9.5 31.4zM18.7 149.1s4.1-10 1.8-27.1c0 0-11.4 11.7-1.8 27.1zM1.3 136.7c.1 6.1 1.4 12.1 5.8 16.1 3.5 3 7.3 5.4 11.1 7.8-2.4-9.7-10-17.2-16.9-23.9zM30.7 172.5c.6-8.4-.1-14.8-6.2-27.1-2.6 9.4.1 19.7 6.2 27.1zM30.7 182c-4.4-9.1-12.8-14.3-21.3-20.2-.5-.3-.8-.8-1.2-1.2 3.1 10.7 11.9 18.7 22.5 21.4zM35.3 168.7c-1.2 10 5.6 18.2 13.1 23.9-2.5-6.2-3-13.4-12-23.8-.2-.2-1-.1-1.1-.1zM31.6 194.7c5.8 2.7 12.2 4.3 18.7 4.8-8.3-7.4-18-13-28.9-15.7 2.5 4.7 5.7 8.8 10.2 10.9zM47.9 210.3c6.7 1.6 13.4.5 20.1 1.8-10-6.2-21.7-8.6-33.4-10 3.5 4.3 8 7.2 13.3 8.2zM51.6 185.1c-.4-.3-.9-.6-1.1-1.1 1.2 10.5 9.1 19.9 19.3 23-2.6-3.4-3.8-7.5-6.5-11.1-3.3-4.4-7.2-7.5-11.7-10.8zM94.3 218.4c-2.5-4.1-5.3-8-8.5-11.6-4.3-4.9-10.6-7.3-16.6-9.8 4.9 10.3 14.1 18.4 25.1 21.4zM88.1 220.9c-.3 0-.4.1-.7 0-7.7-4.5-27.7-5.4-34.6-3.7 14.6 7.1 10.3 9 35.3 3.7zM154.5 9.4c2.6 2.3 14.8 9.9 24.4 9.1-7.3-8.5-18.7-10.5-24.4-9.1zM199.6 27.2c-1.6-10.1-16.8-15.1-18.2-14.5 3.7 7.1 10.7 12.8 18.2 14.5zM172.4 22.3c.1.1 6.5 8 18.9 5.1.1 0-5.7-6.2-18.9-5.1zM220 42.5c-.1 0-4.3-17.9-15.7-19.1 2.1 8.3 9.1 14.3 15.7 19.1zM190.7 31.8s8.4 7.7 18.9 7c0 0-3.2-7.9-18.9-7zM205.2 43.7c6.8 8.5 19.1 10.4 19.1 10.4-9.1-13-19.1-10.4-19.1-10.4zM235.9 64.1c3.8-14.2-10-24.2-10-24.2 1.6 16.5 10 24.2 10 24.2zM216.7 56.7c6.2 13 18.5 18.5 18.5 18.5-4.1-14.3-18.5-18.5-18.5-18.5zM239.7 61c-3 16.9 5.1 27.8 5.1 27.8 5.6-15.5-5.1-27.8-5.1-27.8zM227.9 78.3c0 7.1 13.6 22.9 13.5 22.9.1-17.5-13.5-22.8-13.5-22.9zM248.4 113.2c10.9-12 .9-28.6.9-28.6-6.1 14.3-.9 28.6-.9 28.6zM231.7 98.8c1.4 15.3 10.7 24.5 10.7 24.5.6-17.8-10.7-24.5-10.7-24.5zM255.6 108.2c.1 0-9.3 10.3-9.4 31.4 0 0 12.3-6.5 9.4-31.4zM237.4 149.1c9.6-15.4-1.9-27.1-1.9-27.1-2.2 17.1 1.9 27.1 1.9 27.1zM254.8 136.7c-6.9 6.7-14.5 14.3-17 23.9 3.8-2.4 7.7-4.8 11.1-7.8 4.7-4 5.8-10 5.9-16.1zM225 172.5c6.2-7.4 8.8-17.7 6.2-27.1-6 12.4-6.7 18.7-6.2 27.1zM247.6 160.6c-.4.4-.8.9-1.3 1.2-8.4 5.9-16.8 11.1-21.3 20.2 10.6-2.7 19.6-10.7 22.6-21.4zM219.9 168.7s-.8-.1-1 .1c-9 10.4-9.6 17.7-12.1 23.8 7.6-5.7 14.4-13.9 13.1-23.9zM233.9 183.8a68.64 68.64 0 00-28.9 15.7c6.5-.5 12.9-2.1 18.6-4.8 4.7-2.1 7.9-6.2 10.3-10.9zM219.8 202.1c-11.5 1.4-23.3 3.9-33.4 10 6.7-1.3 13.4-.2 20-1.8 5.4-1 9.9-3.9 13.4-8.2zM204.6 184c-.2.4-.7.7-1.1 1-4.5 3.3-8.4 6.4-11.7 10.9-2.6 3.6-3.9 7.7-6.5 11.1 10.2-3.1 18.1-12.5 19.3-23zM160 218.4c11-3 20.3-11.1 25.2-21.4-6.1 2.5-12.3 4.9-16.7 9.8-3.1 3.6-5.9 7.5-8.5 11.6zM201.6 217.1c-6.9-1.7-26.9-.7-34.6 3.7-.2.1-.4 0-.6 0 24.9 5.4 20.5 3.5 35.2-3.7z"/><path d="M165.3 246.5c2.9.6 4.4 0 4.4 0l1.9-2.4c-25.7 0-48-17.3-57.2-26.5-9.2-9.1-22.6-10.3-22.6-10.4 3.9 6.5 13.8 15 16.8 15.9 3 .9 3.3 2.7 3.3 2.6-4.6.1-2.8-1.2-12.5-1.2-14.2 0-22.4 4.3-22.5 4.3 3.8 0 14.8 6.3 25 6.2 10.2.1 7.8-1.8 19.3-1.8 19 .2 9.2 6.5 44.1 13.3z"/><path d="M154.5 223.9c-8 .2-12.9 1-12.9 1s8.9-4.9 12-8.2c3.1-3.1 9.7-11 9.7-11s-3.7 2.6-6.2 2.5c-2.6.1-10.4 3.2-12.3 4.6-1.8 1.7-9.3 10.1-12.9 13.4v.8c0 .1 1.5 1 3.5 2.9 2 2 7.9 4.7 14.8 4.7 11.8 0 22-6.5 26.1-6.5-.1 0-9-4.4-21.8-4.2zM81 244.1l1.9 2.4s.9 0 4.4 0c7.4 0 27.5-9.6 30.6-10-.3 0-1.2 0-3.9.3-4.1.5-23.1 7.3-26.7 7.3-3.6 0-6.3 0-6.3 0zM101.5 55.6c0 1.4.3 2.6.9 3.7l-4.2 1c0-4.5-3.6-8.1-8-8.2-4.5.1-8.1 3.6-8.1 8.2a8 8 0 001.7 4.8l-4.2 1.4c-.5-3.8-3.9-7.2-7.9-7.2-4.5 0-8.1 3.6-8.1 8.1 0 2.9 1.6 5.4 3.9 6.8v14.1H46.1l20.8 23s0 47.6 0 55.3c0 7.7 9.3 12 21 12 6.7 0 11.9.9 22.9 2.1 11 1.3 17.2 7.7 17.1 7.7.1 0 3.1-5.9 17.2-7.5 11-1.3 16.2-2.2 22.9-2.2 11.7 0 21.4-4.9 21.4-15.2 0-7.6 0-52.2 0-52.2l22.2-23h-21.4V75.2c2.4-1.5 4.9-4.7 4.8-7.6.1-4.5-3.6-8.2-8-8.2-4.1 0-7.4 3.3-8 7.2l-4.1-1.5c1-1.3 1.7-3 1.6-4.8.1-4.5-3.5-8.1-8-8.1s-8 3.6-8.1 8.2l-4.2-1c.7-1.1 1-2.3 1-3.7a8.05 8.05 0 10-16.1 0c0 .5.1 1 .1 1.4H137a8.05 8.05 0 10-15.6-2.9c0 1 .2 2 .5 2.9h-4.4c.1-.4.2-1 .2-1.4a8.11 8.11 0 00-16.2-.1zm-11.3-.1c2.7 0 4.9 2.2 4.9 4.9 0 2.6-2.2 4.8-4.9 4.8s-4.9-2.2-4.9-4.8c.1-2.7 2.3-4.9 4.9-4.9zM66.8 67.6c0-2.7 2.2-4.8 4.9-4.8s4.9 2.1 4.9 4.8a4.9 4.9 0 01-9.8 0zm30.5 107v.1c-1.9-.1-3.8-.3-5.8-.3-7 0-13.1-1.7-16.4-4.9h22.2v5.1zm0-7.5h-24c-.3-.5-.4-1-.6-1.7v-2.2h24.6v3.9zm0-6.6H72.7l.1-4.2h24.5v4.2zm0-7.5H72.8v-18.2h24.5V153zm28.2 29c-2.1-1.9-6.5-4.8-13.2-5.6-4.5-.6-7.8-1-10.9-1.3v-18.8h24.1V182zm0-29h-24.1v-4.7h24.1v4.7zm0-6.8h-24.1v-4.8h24.1v4.8zm0-6.7h-24.1v-4.6h24.1v4.6zm.5-8.2H72.8v-13.5H126v13.5zm0-16.8H72.8v-4.1H126v4.1zm0-7.3H70.2L57.2 93H126v14.2zM79.9 88.3c8.9-5.2 30.1-12.6 49.4-12.8 19.4-.1 40.6 7.6 49.4 12.8H79.9zm50.1 36.6v-4.1h25.4v4.1H130zm25.5 2.2v4.2H130v-4.2s25.5 0 25.5 0zm-25.5-8.3v-4h25.4v4H130zm0-7.8V93.5h25.4V111c.1 0-25.4 0-25.4 0zm53.2 56.1c0 3.3-4.4 5.1-6.9 5.7-2.6.6-5.4 1-8.3 1-6.7 0-11.9.9-22.9 2.1-8.7 1-13.1 3.7-15.3 5.6v-21.4h53.4v7zm0-9.9h-53.4v-4h53.4v4zm0-8.6h-53.4v-13.8h53.4v13.8zm0-17.4h-23.9v-16.4h23.9v16.4zm.1-20.2h-23.4v-3.8H187l-3.7 3.8zm6-6.2h-29.4v-4.1h33l-3.6 4.1zm11-11.3l-4.3 4.4h-36.1v-4.4h40.4zm-13.2-30.7c2.7 0 4.9 2.1 4.9 4.8a4.9 4.9 0 01-9.8 0c0-2.7 2.2-4.8 4.9-4.8zm-18.6-7.3c2.7 0 4.9 2.2 4.9 4.9 0 2.6-2.2 4.8-4.9 4.8s-4.9-2.2-4.9-4.8c0-2.7 2.3-4.9 4.9-4.9zm-19.4-4.8c2.8 0 5 2.2 4.9 4.9.1 2.7-2.1 4.9-4.9 4.9-2.6 0-4.8-2.2-4.9-4.9.2-2.7 2.4-4.9 4.9-4.9zm-19.8-1.4c2.8 0 5 2.2 4.9 4.8.1 2.7-2.1 4.9-4.9 4.9a4.9 4.9 0 01-4.9-4.9c.1-2.6 2.3-4.8 4.9-4.8zm-19.8 1.4a4.9 4.9 0 11-4.9 4.9c.1-2.7 2.2-4.9 4.9-4.9zm2.1 18.9l4.4-8.2 7.5-.6 4.7 7.2h1.4l4.7-7.2 7.6.6 4.4 8.2 6.9-6.3 7.5 2.5 2.5 8.2 7.8-5.3 7.3 2.7.9 9.2 6.6-2.9V89c-5.3-5.3-32.3-16.4-57-16.6-24.6-.2-51.5 11.3-56.9 16.6V77.8l6.7 2.9.8-9.2 7.3-2.7 7.8 5.3 2.5-8.2 7.5-2.5 7.1 6.2z"/><path d="M151.9 165.5c.4 0 1.4-.1 1.3.2-.1.5 0 2.5 0 3.6 0 1.2 1 1.4 1.5 1.6.5.3 2.3.1 3.2 0 1 .1 1.9-.2 3.1-1 1.3-.6 1.3-2.3 1.3-4-.9 0-3.4 0-4.6.2-1.2.4-1.7 1-2.4 1.2-.5.1-.8.1-.8-.4s0-1.5 0-2.2c0-.3-.2-1-.9-1-.7.1-1.4 1-1.9 1.1-.5.3-.2.7.2.7zM139.9 140.8c-.1.5 0 2.4 0 3.6s1 1.3 1.5 1.5c.5.4 2.3.1 3.2.1 1 0 1.8-.4 3.1-1 1.4-.8 1.2-2.3 1.2-4-.8 0-3.4-.1-4.5.2-1.2.2-1.7 1-2.4 1.1-.5.1-.8.1-.8-.4s0-1.6 0-2.3c0-.4-.2-1-.9-.9-.6.1-1.4.9-1.9 1-.5.4-.3.7.2.6.4.2 1.4 0 1.3.5zM94.3 123.4c.4.1 1.3-.1 1.3.3 0 .5 0 2.4 0 3.6 0 1.1 1 1.3 1.5 1.5.6.3 2.3.1 3.3.1s1.8-.3 3-1c1.4-.8 1.4-2.3 1.3-4-.8 0-3.3-.1-4.5.2-1.2.3-1.7.9-2.3 1.1-.6.2-.8.2-.8-.3.1-.5.1-1.5 0-2.3.1-.4-.2-.9-.9-.8-.7.1-1.3.8-1.8 1-.7.3-.4.7-.1.6zM78.7 98.4c.4.1 1.3-.1 1.2.3-.1.6 0 2.4 0 3.6 0 1.1 1 1.3 1.5 1.5.6.4 2.3.1 3.2.1 1 0 1.9-.3 3.1-1.1 1.4-.7 1.3-2.2 1.3-4-.8 0-3.4-.1-4.5.2-1.2.3-1.7 1-2.3 1.1-.6.1-.7.1-.8-.4.1-.5.1-1.5 0-2.3.1-.3-.2-1-.9-.9-.7.1-1.4.9-1.8 1.1-.6.5-.3.9 0 .8zM109.2 98.4c.4.1 1.3-.1 1.3.3-.1.6 0 2.4 0 3.6 0 1.1 1 1.3 1.5 1.5.5.4 2.3.1 3.2.1 1 0 1.8-.3 3.1-1.1 1.4-.7 1.3-2.2 1.3-4-.9 0-3.3-.1-4.6.2-1.2.3-1.7 1-2.3 1.1-.6.1-.8.1-.8-.4s0-1.5 0-2.3c0-.3-.2-1-.9-.9-.6.1-1.3.9-1.9 1.1-.6.5-.2.9.1.8zM166.4 140.3c.4.1 1.3-.1 1.3.4-.1.5 0 2.4 0 3.6s1 1.3 1.5 1.5c.5.4 2.3.1 3.2.1 1 0 1.9-.4 3.1-1 1.4-.8 1.3-2.3 1.3-4-.9 0-3.4-.1-4.6.2-1.2.2-1.7 1-2.3 1.1-.6.1-.9.1-.9-.4s0-1.6 0-2.3c0-.4-.2-1-.9-.9-.7.1-1.4.9-1.9 1-.5.5-.1.9.2.7z"/></svg>