<?xml version="1.0" encoding="utf-8"?>
<!-- Generator: Adobe Illustrator 24.0.0, SVG Export Plug-In . SVG Version: 6.00 Build 0)  -->
<svg version="1.1" id="Layer_1" xmlns="http://www.w3.org/2000/svg" xmlns:xlink="http://www.w3.org/1999/xlink" x="0px" y="0px"
	 viewBox="0 0 256 256" style="enable-background:new 0 0 256 256;" xml:space="preserve">
<g>
	<path d="M79.9,18.5c9.6,0.8,21.8-6.7,24.4-9.1C98.6,8,87.1,10,79.9,18.5z"/>
	<path d="M77.3,12.8c-1.4-0.6-16.6,4.4-18.3,14.5C66.8,25.5,73.7,19.8,77.3,12.8z"/>
	<path d="M86.3,22.3c-13.1-1.1-18.9,5.1-18.9,5.1C79.9,30.3,86.3,22.4,86.3,22.3z"/>
	<path d="M54.3,23.4C43,24.6,38.8,42.5,38.7,42.5C45.3,37.7,52.4,31.7,54.3,23.4z"/>
	<path d="M49.2,38.7c10.5,0.8,18.9-7,18.9-7C52.3,30.9,49.2,38.8,49.2,38.7z"/>
	<path d="M53.6,43.7c0,0-10-2.6-19.2,10.4C34.5,54.1,46.8,52.2,53.6,43.7z"/>
	<path d="M32.8,39.9c0,0-13.8,10-10.1,24.2C22.8,64.1,31.2,56.4,32.8,39.9z"/>
	<path d="M22.8,75.2c0.1,0,12.4-5.5,18.5-18.5C41.4,56.7,26.9,60.9,22.8,75.2z"/>
	<path d="M18,61c0.1,0-10.6,12.3-5,27.8C13.1,88.7,21.1,77.8,18,61z"/>
	<path d="M15.6,101.2c0,0,13.5-15.8,13.5-23C29.1,78.4,15.6,83.7,15.6,101.2z"/>
	<path d="M7.7,84.6c0,0-10,16.6,0.9,28.6C8.7,113.2,13.8,98.9,7.7,84.6z"/>
	<path d="M24.4,98.8c0,0-11.3,6.7-10.7,24.5C13.6,123.3,22.9,114.1,24.4,98.8z"/>
	<path d="M9.9,139.6c0.1-21.2-9.4-31.4-9.5-31.4C-2.4,133.1,9.9,139.6,9.9,139.6z"/>
	<path d="M18.7,149.1c0,0,4.1-10,1.8-27.1C20.5,122,9.1,133.7,18.7,149.1z"/>
	<path d="M1.3,136.7c0.1,6.1,1.4,12.1,5.8,16.1c3.5,3,7.3,5.4,11.1,7.8C15.8,150.9,8.2,143.4,1.3,136.7z"/>
	<path d="M30.7,172.5c0.6-8.4-0.1-14.8-6.2-27.1C21.9,154.8,24.6,165.1,30.7,172.5z"/>
	<path d="M30.7,182c-4.4-9.1-12.8-14.3-21.3-20.2c-0.5-0.3-0.8-0.8-1.2-1.2C11.3,171.3,20.1,179.3,30.7,182z"/>
	<path d="M35.3,168.7c-1.2,10,5.6,18.2,13.1,23.9c-2.5-6.2-3-13.4-12-23.8C36.2,168.6,35.4,168.7,35.3,168.7z"/>
	<path d="M31.6,194.7c5.8,2.7,12.2,4.3,18.7,4.8c-8.3-7.4-18-13-28.9-15.7C23.9,188.5,27.1,192.6,31.6,194.7z"/>
	<path d="M47.9,210.3c6.7,1.6,13.4,0.5,20.1,1.8c-10-6.2-21.7-8.6-33.4-10C38.1,206.4,42.6,209.3,47.9,210.3z"/>
	<path d="M51.6,185.1c-0.4-0.3-0.9-0.6-1.1-1.1c1.2,10.5,9.1,19.9,19.3,23c-2.6-3.4-3.8-7.5-6.5-11.1
		C60,191.5,56.1,188.4,51.6,185.1z"/>
	<path d="M94.3,218.4c-2.5-4.1-5.3-8-8.5-11.6c-4.3-4.9-10.6-7.3-16.6-9.8C74.1,207.3,83.3,215.4,94.3,218.4z"/>
	<path d="M88.1,220.9c-0.3,0-0.4,0.1-0.7,0c-7.7-4.5-27.7-5.4-34.6-3.7C67.4,224.3,63.1,226.2,88.1,220.9z"/>
	<path d="M154.5,9.4c2.6,2.3,14.8,9.9,24.4,9.1C171.6,10,160.2,8,154.5,9.4z"/>
	<path d="M199.6,27.2c-1.6-10.1-16.8-15.1-18.2-14.5C185.1,19.8,192.1,25.5,199.6,27.2z"/>
	<path d="M172.4,22.3c0.1,0.1,6.5,8,18.9,5.1C191.4,27.4,185.6,21.2,172.4,22.3z"/>
	<path d="M220,42.5c-0.1,0-4.3-17.9-15.7-19.1C206.4,31.7,213.4,37.7,220,42.5z"/>
	<path d="M190.7,31.8c0,0,8.4,7.7,18.9,7C209.6,38.8,206.4,30.9,190.7,31.8z"/>
	<path d="M205.2,43.7c6.8,8.5,19.1,10.4,19.1,10.4C215.2,41.1,205.2,43.7,205.2,43.7z"/>
	<path d="M235.9,64.1c3.8-14.2-10-24.2-10-24.2C227.5,56.4,235.9,64.1,235.9,64.1z"/>
	<path d="M216.7,56.7c6.2,13,18.5,18.5,18.5,18.5C231.1,60.9,216.7,56.7,216.7,56.7z"/>
	<path d="M239.7,61c-3,16.9,5.1,27.8,5.1,27.8C250.4,73.3,239.7,61,239.7,61z"/>
	<path d="M227.9,78.3c0,7.1,13.6,22.9,13.5,22.9C241.5,83.7,227.9,78.4,227.9,78.3z"/>
	<path d="M248.4,113.2c10.9-12,0.9-28.6,0.9-28.6C243.2,98.9,248.4,113.2,248.4,113.2z"/>
	<path d="M231.7,98.8c1.4,15.3,10.7,24.5,10.7,24.5C243,105.5,231.7,98.8,231.7,98.8z"/>
	<path d="M255.6,108.2c0.1,0-9.3,10.3-9.4,31.4C246.2,139.6,258.5,133.1,255.6,108.2z"/>
	<path d="M237.4,149.1c9.6-15.4-1.9-27.1-1.9-27.1C233.3,139.1,237.4,149.1,237.4,149.1z"/>
	<path d="M254.8,136.7c-6.9,6.7-14.5,14.3-17,23.9c3.8-2.4,7.7-4.8,11.1-7.8C253.6,148.8,254.7,142.8,254.8,136.7z"/>
	<path d="M225,172.5c6.2-7.4,8.8-17.7,6.2-27.1C225.2,157.8,224.5,164.1,225,172.5z"/>
	<path d="M247.6,160.6c-0.4,0.4-0.8,0.9-1.3,1.2c-8.4,5.9-16.8,11.1-21.3,20.2C235.6,179.3,244.6,171.3,247.6,160.6z"/>
	<path d="M219.9,168.7c0,0-0.8-0.1-1,0.1c-9,10.4-9.6,17.7-12.1,23.8C214.4,186.9,221.2,178.7,219.9,168.7z"/>
	<path d="M233.9,183.8c-10.9,2.8-20.7,8.3-28.9,15.7c6.5-0.5,12.9-2.1,18.6-4.8C228.3,192.6,231.5,188.5,233.9,183.8z"/>
	<path d="M219.8,202.1c-11.5,1.4-23.3,3.9-33.4,10c6.7-1.3,13.4-0.2,20-1.8C211.8,209.3,216.3,206.4,219.8,202.1z"/>
	<path d="M204.6,184c-0.2,0.4-0.7,0.7-1.1,1c-4.5,3.3-8.4,6.4-11.7,10.9c-2.6,3.6-3.9,7.7-6.5,11.1
		C195.5,203.9,203.4,194.5,204.6,184z"/>
	<path d="M160,218.4c11-3,20.3-11.1,25.2-21.4c-6.1,2.5-12.3,4.9-16.7,9.8C165.4,210.4,162.6,214.3,160,218.4z"/>
	<path d="M201.6,217.1c-6.9-1.7-26.9-0.7-34.6,3.7c-0.2,0.1-0.4,0-0.6,0C191.3,226.2,186.9,224.3,201.6,217.1z"/>
	<path d="M165.3,246.5c2.9,0.6,4.4,0,4.4,0l1.9-2.4c-25.7,0-48-17.3-57.2-26.5c-9.2-9.1-22.6-10.3-22.6-10.4
		c3.9,6.5,13.8,15,16.8,15.9c3,0.9,3.3,2.7,3.3,2.6c-4.6,0.1-2.8-1.2-12.5-1.2c-14.2,0-22.4,4.3-22.5,4.3c3.8,0,14.8,6.3,25,6.2
		c10.2,0.1,7.8-1.8,19.3-1.8C140.2,233.4,130.4,239.7,165.3,246.5z"/>
	<path d="M154.5,223.9c-8,0.2-12.9,1-12.9,1s8.9-4.9,12-8.2c3.1-3.1,9.7-11,9.7-11s-3.7,2.6-6.2,2.5c-2.6,0.1-10.4,3.2-12.3,4.6
		c-1.8,1.7-9.3,10.1-12.9,13.4v0.8c0,0.1,1.5,1,3.5,2.9c2,2,7.9,4.7,14.8,4.7c11.8,0,22-6.5,26.1-6.5
		C176.2,228.1,167.3,223.7,154.5,223.9z"/>
	<path d="M81,244.1l1.9,2.4c0,0,0.9,0,4.4,0c7.4,0,27.5-9.6,30.6-10c-0.3,0-1.2,0-3.9,0.3c-4.1,0.5-23.1,7.3-26.7,7.3
		C83.7,244.1,81,244.1,81,244.1z"/>
	<path d="M101.5,55.6c0,1.4,0.3,2.6,0.9,3.7l-4.2,1c0-4.5-3.6-8.1-8-8.2c-4.5,0.1-8.1,3.6-8.1,8.2c0,1.8,0.7,3.5,1.7,4.8l-4.2,1.4
		c-0.5-3.8-3.9-7.2-7.9-7.2c-4.5,0-8.1,3.6-8.1,8.1c0,2.9,1.6,5.4,3.9,6.8v14.1H46.1l20.8,23c0,0,0,47.6,0,55.3c0,7.7,9.3,12,21,12
		c6.7,0,11.9,0.9,22.9,2.1c11,1.3,17.2,7.7,17.1,7.7c0.1,0,3.1-5.9,17.2-7.5c11-1.3,16.2-2.2,22.9-2.2c11.7,0,21.4-4.9,21.4-15.2
		c0-7.6,0-52.2,0-52.2l22.2-23h-21.4V75.2c2.4-1.5,4.9-4.7,4.8-7.6c0.1-4.5-3.6-8.2-8-8.2c-4.1,0-7.4,3.3-8,7.2l-4.1-1.5
		c1-1.3,1.7-3,1.6-4.8c0.1-4.5-3.5-8.1-8-8.1c-4.5,0-8,3.6-8.1,8.2l-4.2-1c0.7-1.1,1-2.3,1-3.7c0-4.5-3.6-8.1-8.1-8.1
		c-4.4,0-8,3.6-8,8.1c0,0.5,0.1,1,0.1,1.4H137c0.3-0.8,0.5-1.9,0.5-2.9c0-4.4-3.6-8-8.1-8c-4.4,0-8,3.6-8,8c0,1,0.2,2,0.5,2.9h-4.4
		c0.1-0.4,0.2-1,0.2-1.4c0-4.5-3.6-8.1-8.1-8.1C105.2,47.6,101.5,51.2,101.5,55.6z M90.2,55.5c2.7,0,4.9,2.2,4.9,4.9
		c0,2.6-2.2,4.8-4.9,4.8c-2.7,0-4.9-2.2-4.9-4.8C85.4,57.7,87.6,55.5,90.2,55.5z M66.8,67.6c0-2.7,2.2-4.8,4.9-4.8s4.9,2.1,4.9,4.8
		c0,2.7-2.2,4.9-4.9,4.9S66.8,70.3,66.8,67.6z M97.3,174.6v0.1c-1.9-0.1-3.8-0.3-5.8-0.3c-7,0-13.1-1.7-16.4-4.9h22.2L97.3,174.6
		L97.3,174.6z M97.3,167.1h-24c-0.3-0.5-0.4-1-0.6-1.7v-2.2h24.6V167.1z M97.3,160.5H72.7l0.1-4.2h0.1h24.4L97.3,160.5L97.3,160.5z
		 M97.3,153H72.8v-18.2h24.5V153z M125.5,182c-2.1-1.9-6.5-4.8-13.2-5.6c-4.5-0.6-7.8-1-10.9-1.3v-18.8h24.1L125.5,182L125.5,182z
		 M125.5,153h-24.1v-4.7h24.1V153z M125.5,146.2h-24.1v-4.8h24.1V146.2z M125.5,139.5h-24.1v-4.6h24.1V139.5z M126,131.3H72.8v-13.5
		H126V131.3z M126,114.5H72.8v-4.1H126V114.5z M126,107.2H70.2l-13-14.2H126V107.2z M79.9,88.3c8.9-5.2,30.1-12.6,49.4-12.8
		c19.4-0.1,40.6,7.6,49.4,12.8H79.9z M130,124.9v-4.1h25.4v4.1H130z M155.5,127.1v4.2H130v-4.2C130,127.1,155.5,127.1,155.5,127.1z
		 M130,118.8v-4h25.4v4H130z M130,111V93.5h25.4V111C155.5,111,130,111,130,111z M183.2,167.1c0,3.3-4.4,5.1-6.9,5.7
		c-2.6,0.6-5.4,1-8.3,1c-6.7,0-11.9,0.9-22.9,2.1c-8.7,1-13.1,3.7-15.3,5.6v-21.4h53.4L183.2,167.1L183.2,167.1z M183.2,157.2h-53.4
		v-4h53.4L183.2,157.2L183.2,157.2z M183.2,148.6h-53.4v-13.8h53.4L183.2,148.6L183.2,148.6z M183.2,131.2h-23.9v-16.4h23.9V131.2z
		 M183.3,111h-23.4v-3.8H187L183.3,111z M189.3,104.8h-29.4v-4.1h33L189.3,104.8z M200.3,93.5l-4.3,4.4h-36.1v-4.4H200.3z
		 M187.1,62.8c2.7,0,4.9,2.1,4.9,4.8c0,2.7-2.2,4.9-4.9,4.9c-2.7,0-4.9-2.2-4.9-4.9C182.2,64.9,184.4,62.8,187.1,62.8z M168.5,55.5
		c2.7,0,4.9,2.2,4.9,4.9c0,2.6-2.2,4.8-4.9,4.8c-2.7,0-4.9-2.2-4.9-4.8C163.6,57.7,165.9,55.5,168.5,55.5z M149.1,50.7
		c2.8,0,5,2.2,4.9,4.9c0.1,2.7-2.1,4.9-4.9,4.9c-2.6,0-4.8-2.2-4.9-4.9C144.4,52.9,146.6,50.7,149.1,50.7z M129.3,49.3
		c2.8,0,5,2.2,4.9,4.8c0.1,2.7-2.1,4.9-4.9,4.9c-2.7,0-4.9-2.2-4.9-4.9C124.5,51.5,126.7,49.3,129.3,49.3z M109.5,50.7
		c2.7,0,4.9,2.2,4.9,4.9c0,2.7-2.2,4.9-4.9,4.9c-2.7,0-4.9-2.2-4.9-4.9C104.7,52.9,106.8,50.7,109.5,50.7z M111.6,69.6l4.4-8.2
		l7.5-0.6l4.7,7.2h1.4l4.7-7.2l7.6,0.6l4.4,8.2l6.9-6.3l7.5,2.5l2.5,8.2l7.8-5.3l7.3,2.7l0.9,9.2l6.6-2.9V89
		c-5.3-5.3-32.3-16.4-57-16.6C104.2,72.2,77.3,83.7,71.9,89V77.8l6.7,2.9l0.8-9.2l7.3-2.7l7.8,5.3l2.5-8.2l7.5-2.5L111.6,69.6z"/>
	<path d="M151.9,165.5c0.4,0,1.4-0.1,1.3,0.2c-0.1,0.5,0,2.5,0,3.6c0,1.2,1,1.4,1.5,1.6c0.5,0.3,2.3,0.1,3.2,0c1,0.1,1.9-0.2,3.1-1
		c1.3-0.6,1.3-2.3,1.3-4c-0.9,0-3.4,0-4.6,0.2c-1.2,0.4-1.7,1-2.4,1.2c-0.5,0.1-0.8,0.1-0.8-0.4c0-0.5,0-1.5,0-2.2
		c0-0.3-0.2-1-0.9-1c-0.7,0.1-1.4,1-1.9,1.1C151.2,165.1,151.5,165.5,151.9,165.5z"/>
	<path d="M139.9,140.8c-0.1,0.5,0,2.4,0,3.6s1,1.3,1.5,1.5c0.5,0.4,2.3,0.1,3.2,0.1c1,0,1.8-0.4,3.1-1c1.4-0.8,1.2-2.3,1.2-4
		c-0.8,0-3.4-0.1-4.5,0.2c-1.2,0.2-1.7,1-2.4,1.1c-0.5,0.1-0.8,0.1-0.8-0.4c0-0.5,0-1.6,0-2.3c0-0.4-0.2-1-0.9-0.9
		c-0.6,0.1-1.4,0.9-1.9,1c-0.5,0.4-0.3,0.7,0.2,0.6C139,140.5,140,140.3,139.9,140.8z"/>
	<path d="M94.3,123.4c0.4,0.1,1.3-0.1,1.3,0.3c0,0.5,0,2.4,0,3.6c0,1.1,1,1.3,1.5,1.5c0.6,0.3,2.3,0.1,3.3,0.1c1,0,1.8-0.3,3-1
		c1.4-0.8,1.4-2.3,1.3-4c-0.8,0-3.3-0.1-4.5,0.2c-1.2,0.3-1.7,0.9-2.3,1.1c-0.6,0.2-0.8,0.2-0.8-0.3c0.1-0.5,0.1-1.5,0-2.3
		c0.1-0.4-0.2-0.9-0.9-0.8c-0.7,0.1-1.3,0.8-1.8,1C93.7,123.1,94,123.5,94.3,123.4z"/>
	<path d="M78.7,98.4c0.4,0.1,1.3-0.1,1.2,0.3c-0.1,0.6,0,2.4,0,3.6c0,1.1,1,1.3,1.5,1.5c0.6,0.4,2.3,0.1,3.2,0.1
		c1,0,1.9-0.3,3.1-1.1c1.4-0.7,1.3-2.2,1.3-4c-0.8,0-3.4-0.1-4.5,0.2c-1.2,0.3-1.7,1-2.3,1.1c-0.6,0.1-0.7,0.1-0.8-0.4
		c0.1-0.5,0.1-1.5,0-2.3c0.1-0.3-0.2-1-0.9-0.9c-0.7,0.1-1.4,0.9-1.8,1.1C78.1,98.1,78.4,98.5,78.7,98.4z"/>
	<path d="M109.2,98.4c0.4,0.1,1.3-0.1,1.3,0.3c-0.1,0.6,0,2.4,0,3.6c0,1.1,1,1.3,1.5,1.5c0.5,0.4,2.3,0.1,3.2,0.1
		c1,0,1.8-0.3,3.1-1.1c1.4-0.7,1.3-2.2,1.3-4c-0.9,0-3.3-0.1-4.6,0.2c-1.2,0.3-1.7,1-2.3,1.1c-0.6,0.1-0.8,0.1-0.8-0.4
		c0-0.5,0-1.5,0-2.3c0-0.3-0.2-1-0.9-0.9c-0.6,0.1-1.3,0.9-1.9,1.1C108.5,98.1,108.9,98.5,109.2,98.4z"/>
	<path d="M166.4,140.3c0.4,0.1,1.3-0.1,1.3,0.4c-0.1,0.5,0,2.4,0,3.6s1,1.3,1.5,1.5c0.5,0.4,2.3,0.1,3.2,0.1c1,0,1.9-0.4,3.1-1
		c1.4-0.8,1.3-2.3,1.3-4c-0.9,0-3.4-0.1-4.6,0.2c-1.2,0.2-1.7,1-2.3,1.1c-0.6,0.1-0.9,0.1-0.9-0.4c0-0.5,0-1.6,0-2.3
		c0-0.4-0.2-1-0.9-0.9c-0.7,0.1-1.4,0.9-1.9,1C165.7,140.1,166.1,140.5,166.4,140.3z"/>
</g>
</svg>
