<?xml version="1.0" encoding="utf-8"?>
<!-- Generator: Adobe Illustrator 24.0.0, SVG Export Plug-In . SVG Version: 6.00 Build 0)  -->
<svg version="1.1" id="Layer_1" xmlns="http://www.w3.org/2000/svg" xmlns:xlink="http://www.w3.org/1999/xlink" x="0px" y="0px"
	 viewBox="0 0 256 256" style="enable-background:new 0 0 256 256;" xml:space="preserve">
<style type="text/css">
	.st0{fill:#8699A3;}
</style>
<g>
	<path class="st0" d="M79.88,18.47c9.62,0.81,21.83-6.72,24.36-9.06C98.59,8,87.12,10,79.88,18.47z"/>
	<path class="st0" d="M77.35,12.75c-1.43-0.58-16.58,4.36-18.27,14.49C66.75,25.54,73.74,19.83,77.35,12.75z"/>
	<path class="st0" d="M86.29,22.32c-13.06-1.06-18.87,5.08-18.87,5.08C79.88,30.27,86.29,22.39,86.29,22.32z"/>
	<path class="st0" d="M54.35,23.41c-11.3,1.23-15.52,19.14-15.68,19.14C45.34,37.67,52.41,31.7,54.35,23.41z"/>
	<path class="st0" d="M49.22,38.71c10.54,0.79,18.89-6.95,18.89-6.95C52.33,30.86,49.22,38.76,49.22,38.71z"/>
	<path class="st0" d="M53.61,43.7c0,0-10.05-2.61-19.23,10.36C34.48,54.06,46.85,52.25,53.61,43.7z"/>
	<path class="st0" d="M32.85,39.9c0,0-13.8,10.03-10.07,24.15C22.84,64.05,31.25,56.4,32.85,39.9z"/>
	<path class="st0" d="M22.78,75.21c0.06,0,12.44-5.51,18.5-18.54C41.39,56.67,26.89,60.89,22.78,75.21z"/>
	<path class="st0" d="M18.05,60.97c0.06,0-10.64,12.35-5,27.75C13.05,88.72,21.06,77.85,18.05,60.97z"/>
	<path class="st0" d="M15.6,101.24c0,0,13.47-15.81,13.47-22.95C29.07,78.37,15.6,83.68,15.6,101.24z"/>
	<path class="st0" d="M7.67,84.61c0,0-10.03,16.64,0.92,28.61C8.69,113.22,13.81,98.95,7.67,84.61z"/>
	<path class="st0" d="M24.35,98.79c0,0-11.29,6.67-10.69,24.49C13.65,123.28,22.92,114.14,24.35,98.79z"/>
	<path class="st0" d="M9.86,139.61c0.09-21.16-9.38-31.42-9.46-31.42C-2.36,133.06,9.95,139.61,9.86,139.61z"/>
	<path class="st0" d="M18.7,149.08c0,0,4.13-10.02,1.84-27.06C20.54,122.01,9.11,133.68,18.7,149.08z"/>
	<path class="st0" d="M1.26,136.68c0.09,6.09,1.35,12.07,5.81,16.09c3.47,3.02,7.33,5.4,11.13,7.84
		C15.75,150.95,8.17,143.4,1.26,136.68z"/>
	<path class="st0" d="M30.74,172.51c0.62-8.35-0.06-14.75-6.2-27.06C21.9,154.82,24.61,165.15,30.74,172.51z"/>
	<path class="st0" d="M30.74,181.97c-4.45-9.06-12.78-14.27-21.31-20.2c-0.48-0.31-0.84-0.77-1.25-1.17
		C11.29,171.34,20.12,179.28,30.74,181.97z"/>
	<path class="st0" d="M35.32,168.72c-1.2,9.98,5.63,18.2,13.06,23.91c-2.45-6.16-2.95-13.45-11.96-23.82
		C36.24,168.65,35.4,168.72,35.32,168.72z"/>
	<path class="st0" d="M31.59,194.73c5.81,2.71,12.23,4.34,18.72,4.8c-8.28-7.41-18.04-12.98-28.92-15.74
		C23.86,188.52,27.06,192.55,31.59,194.73z"/>
	<path class="st0" d="M47.87,210.31c6.74,1.58,13.39,0.51,20.06,1.82c-9.95-6.16-21.73-8.61-33.38-10.03
		C38.09,206.4,42.63,209.28,47.87,210.31z"/>
	<path class="st0" d="M51.57,185.06c-0.39-0.34-0.88-0.6-1.13-1.06c1.24,10.46,9.15,19.91,19.34,23.03
		c-2.55-3.43-3.82-7.5-6.49-11.12C60.01,191.49,56.14,188.37,51.57,185.06z"/>
	<path class="st0" d="M94.3,218.42c-2.54-4.12-5.31-8.01-8.52-11.61c-4.3-4.89-10.61-7.27-16.6-9.79
		C74.07,207.3,83.35,215.4,94.3,218.42z"/>
	<path class="st0" d="M88.07,220.91c-0.27,0-0.43,0.12-0.67-0.04c-7.7-4.46-27.65-5.4-34.56-3.74
		C67.4,224.3,63.12,226.22,88.07,220.91z"/>
	<path class="st0" d="M154.54,9.42c2.55,2.33,14.75,9.86,24.36,9.06C171.65,10,160.18,8,154.54,9.42z"/>
	<path class="st0" d="M199.62,27.24c-1.59-10.14-16.75-15.07-18.19-14.49C185.05,19.83,192.05,25.54,199.62,27.24z"/>
	<path class="st0" d="M172.41,22.32c0.11,0.07,6.49,7.96,18.9,5.08C191.37,27.39,185.56,21.25,172.41,22.32z"/>
	<path class="st0" d="M220.02,42.55c-0.08,0-4.29-17.9-15.67-19.14C206.38,31.7,213.45,37.67,220.02,42.55z"/>
	<path class="st0" d="M190.68,31.77c0,0,8.35,7.73,18.91,6.95C209.59,38.76,206.44,30.86,190.68,31.77z"/>
	<path class="st0" d="M205.19,43.7c6.75,8.54,19.14,10.36,19.14,10.36C215.23,41.1,205.19,43.7,205.19,43.7z"/>
	<path class="st0" d="M235.95,64.05c3.79-14.17-10.01-24.15-10.01-24.15C227.52,56.4,235.95,64.05,235.95,64.05z"/>
	<path class="st0" d="M216.66,56.67c6.16,13.03,18.52,18.54,18.52,18.54C231.15,60.89,216.66,56.67,216.66,56.67z"/>
	<path class="st0" d="M239.74,60.97c-2.96,16.88,5.06,27.75,5.06,27.75C250.44,73.32,239.74,60.97,239.74,60.97z"/>
	<path class="st0" d="M227.94,78.3c0,7.13,13.57,22.95,13.5,22.95C241.51,83.68,227.94,78.37,227.94,78.3z"/>
	<path class="st0" d="M248.42,113.22c10.94-11.97,0.93-28.56,0.93-28.56C243.2,98.95,248.42,113.22,248.42,113.22z"/>
	<path class="st0" d="M231.74,98.79c1.43,15.35,10.71,24.49,10.71,24.49C243.04,105.46,231.74,98.79,231.74,98.79z"/>
	<path class="st0" d="M255.56,108.19c0.11,0-9.3,10.26-9.4,31.42C246.25,139.61,258.45,133.06,255.56,108.19z"/>
	<path class="st0" d="M237.39,149.08c9.6-15.4-1.85-27.06-1.85-27.06C233.33,139.06,237.39,149.08,237.39,149.08z"/>
	<path class="st0" d="M254.83,136.68c-6.91,6.72-14.52,14.27-16.96,23.93c3.82-2.44,7.68-4.82,11.06-7.84
		C253.57,148.75,254.74,142.77,254.83,136.68z"/>
	<path class="st0" d="M225,172.51c6.23-7.36,8.83-17.68,6.23-27.06C225.16,157.76,224.51,164.15,225,172.51z"/>
	<path class="st0" d="M247.59,160.6c-0.44,0.4-0.78,0.86-1.29,1.17c-8.44,5.93-16.76,11.15-21.3,20.2
		C235.61,179.28,244.55,171.34,247.59,160.6z"/>
	<path class="st0" d="M219.94,168.72c0,0-0.83-0.07-1,0.09c-9.02,10.38-9.55,17.67-12.07,23.82
		C214.36,186.91,221.19,178.7,219.94,168.72z"/>
	<path class="st0" d="M233.93,183.79c-10.88,2.76-20.66,8.34-28.89,15.74c6.47-0.46,12.88-2.06,18.6-4.8
		C228.28,192.55,231.48,188.52,233.93,183.79z"/>
	<path class="st0" d="M219.76,202.09c-11.54,1.42-23.33,3.88-33.37,10.03c6.73-1.3,13.39-0.24,20.04-1.82
		C211.76,209.28,216.3,206.4,219.76,202.09z"/>
	<path class="st0" d="M204.56,184.03c-0.24,0.43-0.7,0.68-1.14,1.03c-4.54,3.31-8.43,6.43-11.73,10.86
		c-2.59,3.62-3.95,7.68-6.46,11.12C195.49,203.91,203.37,194.46,204.56,184.03z"/>
	<path class="st0" d="M160.02,218.42c11.04-3.02,20.32-11.11,25.21-21.4c-6.06,2.52-12.31,4.91-16.7,9.79
		C165.42,210.41,162.63,214.3,160.02,218.42z"/>
	<path class="st0" d="M201.57,217.13c-6.89-1.66-26.87-0.72-34.63,3.74c-0.19,0.15-0.42,0.04-0.59,0.04
		C191.31,226.22,186.92,224.3,201.57,217.13z"/>
	<path class="st0" d="M165.26,246.53c2.93,0.58,4.37,0,4.37,0l1.87-2.42c-25.7,0-47.97-17.29-57.24-26.52
		c-9.18-9.11-22.57-10.29-22.57-10.38c3.88,6.47,13.83,14.99,16.78,15.91c2.99,0.94,3.35,2.68,3.26,2.63
		c-4.62,0.05-2.78-1.18-12.54-1.18c-14.23,0-22.42,4.34-22.49,4.34c3.78,0,14.83,6.33,25.02,6.23c10.18,0.1,7.84-1.77,19.32-1.77
		C140.21,233.37,130.37,239.67,165.26,246.53z"/>
	<path class="st0" d="M154.54,223.86c-7.99,0.22-12.88,0.96-12.88,0.96s8.85-4.92,11.96-8.2c3.1-3.09,9.71-10.96,9.71-10.96
		s-3.71,2.59-6.24,2.52c-2.55,0.07-10.38,3.19-12.31,4.61c-1.84,1.68-9.29,10.14-12.89,13.36v0.84c0,0.14,1.5,0.98,3.46,2.9
		c2.03,2.04,7.91,4.7,14.81,4.7c11.79,0,22.01-6.53,26.07-6.53C176.22,228.06,167.27,223.68,154.54,223.86z"/>
	<path class="st0" d="M80.96,244.11l1.88,2.42c0,0,0.91,0,4.39,0c7.45,0,27.5-9.64,30.64-10.02c-0.32,0-1.21,0-3.94,0.32
		c-4.06,0.48-23.09,7.27-26.69,7.27C83.68,244.11,80.96,244.11,80.96,244.11z"/>
	<path class="st0" d="M101.54,55.64c0,1.41,0.35,2.64,0.93,3.74l-4.21,1.01c0-4.54-3.56-8.06-8.03-8.15
		c-4.46,0.09-8.07,3.6-8.07,8.15c0,1.84,0.65,3.47,1.66,4.84l-4.21,1.42c-0.51-3.84-3.87-7.15-7.92-7.15
		c-4.46,0-8.08,3.64-8.08,8.11c0,2.93,1.62,5.44,3.88,6.81v14.06h-21.4l20.83,22.96c0,0,0,47.58,0,55.28
		c0,7.72,9.34,11.97,20.99,11.97c6.71,0,11.94,0.86,22.9,2.14c11.04,1.27,17.18,7.72,17.12,7.72c0.07,0,3.12-5.93,17.19-7.53
		c11.03-1.29,16.18-2.16,22.91-2.16c11.71,0,21.42-4.89,21.42-15.18c0-7.63,0-52.24,0-52.24l22.23-23h-21.4V75.21
		c2.36-1.48,4.89-4.66,4.81-7.6c0.08-4.48-3.55-8.15-8.01-8.15c-4.05,0-7.41,3.34-8,7.19l-4.14-1.46c1.01-1.34,1.67-2.97,1.61-4.8
		c0.06-4.54-3.54-8.06-8.01-8.15c-4.46,0.05-8.01,3.6-8.09,8.15l-4.21-1.01c0.66-1.1,1.02-2.33,1.02-3.74
		c0-4.49-3.63-8.09-8.09-8.09c-4.38,0-7.99,3.6-7.99,8.09c0,0.45,0.07,1.03,0.07,1.41h-4.27c0.3-0.82,0.48-1.89,0.48-2.86
		c0-4.41-3.61-8.01-8.09-8.01c-4.39,0-8.01,3.6-8.01,8.01c0,0.98,0.18,2.04,0.5,2.86h-4.37c0.07-0.38,0.15-0.96,0.15-1.41
		c0-4.49-3.61-8.09-8.07-8.09C105.17,47.6,101.54,51.15,101.54,55.64z M90.23,55.5c2.71,0,4.91,2.2,4.91,4.89
		c0,2.64-2.2,4.84-4.91,4.84c-2.68,0-4.86-2.2-4.86-4.84C85.37,57.7,87.55,55.5,90.23,55.5z M66.84,67.61
		c0-2.74,2.17-4.84,4.87-4.84s4.88,2.09,4.88,4.84c0,2.66-2.18,4.89-4.88,4.89S66.84,70.27,66.84,67.61z M97.33,174.58v0.14
		c-1.95-0.14-3.79-0.27-5.81-0.27c-6.99,0-13.08-1.66-16.44-4.85h22.24V174.58z M97.33,167.15H73.3c-0.27-0.5-0.4-1.04-0.56-1.66
		v-2.25h24.59V167.15z M97.33,160.48H72.74l0.06-4.19h0.09h24.44V160.48L97.33,160.48z M97.33,153.04H72.8v-18.2h24.53V153.04z
		 M125.46,181.97c-2.08-1.92-6.48-4.79-13.22-5.56c-4.47-0.55-7.83-0.98-10.86-1.34V156.3h24.07V181.97L125.46,181.97z
		 M125.46,153.04h-24.07v-4.7h24.07V153.04z M125.46,146.23h-24.07v-4.75h24.07V146.23z M125.46,139.46h-24.07v-4.61h24.07V139.46z
		 M125.98,131.26H72.8v-13.46h53.18V131.26z M125.98,114.5H72.8v-4.12h53.18V114.5z M125.98,107.23H70.19L57.15,93.06h68.83V107.23z
		 M79.95,88.31c8.87-5.21,30.11-12.61,49.39-12.79c19.4-0.09,40.62,7.58,49.39,12.79H79.95z M130.04,124.93v-4.08h25.43v4.08H130.04
		z M155.47,127.07v4.19h-25.43v-4.19H155.47z M130.04,118.76v-3.98h25.43v3.98H130.04z M130.04,111.02V93.47h25.43v17.55H130.04z
		 M183.21,167.15c0,3.26-4.4,5.08-6.88,5.68c-2.56,0.63-5.35,0.98-8.29,0.98c-6.73,0-11.89,0.91-22.91,2.14
		c-8.68,1-13.15,3.71-15.34,5.57v-21.35h53.43V167.15z M183.21,157.16h-53.43v-3.98h53.43V157.16z M183.21,148.65h-53.43v-13.81
		h53.43V148.65z M183.21,131.17h-23.87v-16.4h23.87V131.17z M183.31,111.02h-23.45v-3.79H187L183.31,111.02z M189.26,104.81h-29.4
		v-4.11h33.04L189.26,104.81z M200.28,93.47l-4.34,4.44h-36.08v-4.44H200.28z M187.08,62.78c2.69,0,4.87,2.09,4.87,4.84
		c0,2.66-2.18,4.89-4.87,4.89c-2.7,0-4.89-2.23-4.89-4.89C182.19,64.87,184.38,62.78,187.08,62.78z M168.53,55.5
		c2.7,0,4.89,2.2,4.89,4.89c0,2.64-2.18,4.84-4.89,4.84c-2.68,0-4.91-2.2-4.91-4.84C163.63,57.7,165.85,55.5,168.53,55.5z
		 M149.15,50.7c2.77,0,4.96,2.23,4.88,4.94c0.08,2.69-2.11,4.89-4.88,4.89c-2.61,0-4.79-2.2-4.9-4.89
		C144.37,52.93,146.55,50.7,149.15,50.7z M129.34,49.33c2.8,0,4.98,2.18,4.9,4.85c0.08,2.69-2.11,4.89-4.9,4.89
		c-2.68,0-4.88-2.2-4.88-4.89C124.46,51.51,126.66,49.33,129.34,49.33z M109.54,50.7c2.7,0,4.89,2.23,4.89,4.94
		c0,2.69-2.19,4.89-4.89,4.89c-2.68,0-4.88-2.2-4.88-4.89C104.66,52.93,106.85,50.7,109.54,50.7z M111.56,69.62l4.38-8.18l7.5-0.63
		l4.74,7.22h1.42l4.72-7.22l7.59,0.63l4.38,8.18l6.9-6.31l7.5,2.52l2.52,8.18l7.83-5.27l7.26,2.71l0.95,9.23l6.65-2.93V89
		c-5.3-5.32-32.27-16.41-56.96-16.6c-24.7-0.22-51.67,11.29-57.06,16.6V77.75l6.74,2.93l0.82-9.23l7.34-2.71l7.77,5.27l2.51-8.18
		l7.52-2.52L111.56,69.62z"/>
	<path class="st0" d="M151.92,165.53c0.42,0,1.35-0.14,1.28,0.24c-0.1,0.48,0,2.52,0,3.58c0,1.17,1,1.44,1.52,1.61
		c0.5,0.28,2.28,0.1,3.19,0c1.04,0.1,1.85-0.17,3.13-0.99c1.33-0.65,1.28-2.26,1.28-4.03c-0.87,0-3.37,0-4.55,0.17
		c-1.18,0.38-1.7,1.04-2.37,1.2c-0.52,0.12-0.76,0.12-0.76-0.41c0-0.51,0-1.51,0-2.23c0-0.32-0.18-0.98-0.94-0.98
		c-0.68,0.1-1.35,0.98-1.91,1.15C151.25,165.06,151.52,165.53,151.92,165.53z"/>
	<path class="st0" d="M139.9,140.76c-0.08,0.48,0,2.42,0,3.55c0,1.13,1,1.27,1.51,1.54c0.51,0.38,2.29,0.1,3.2,0.1
		c1.01,0,1.84-0.38,3.12-0.99c1.35-0.77,1.25-2.26,1.25-4.03c-0.84,0-3.36-0.1-4.53,0.17c-1.21,0.24-1.7,1.01-2.38,1.12
		c-0.51,0.09-0.75,0.09-0.75-0.38c0-0.5,0-1.56,0-2.28c0-0.38-0.16-0.96-0.93-0.87c-0.65,0.05-1.36,0.87-1.94,1.01
		c-0.5,0.39-0.26,0.72,0.19,0.63C139.03,140.49,139.97,140.28,139.9,140.76z"/>
	<path class="st0" d="M94.3,123.37c0.4,0.12,1.34-0.09,1.28,0.31c0,0.51,0,2.43,0,3.64c0,1.1,1,1.34,1.5,1.54
		c0.6,0.32,2.28,0.1,3.29,0.1c1.02,0,1.77-0.31,3.03-1.01c1.37-0.82,1.37-2.33,1.27-4.03c-0.85,0-3.28-0.09-4.54,0.15
		c-1.21,0.31-1.69,0.94-2.3,1.05c-0.57,0.17-0.76,0.17-0.84-0.34c0.08-0.48,0.08-1.49,0-2.26c0.08-0.36-0.16-0.88-0.94-0.82
		c-0.66,0.09-1.32,0.82-1.85,1.01C93.7,123.06,93.96,123.49,94.3,123.37z"/>
	<path class="st0" d="M78.71,98.36c0.4,0.12,1.33-0.09,1.24,0.31c-0.07,0.55,0,2.44,0,3.64c0,1.13,1.01,1.34,1.53,1.49
		c0.59,0.4,2.27,0.12,3.22,0.12c1.01,0,1.86-0.28,3.11-1.06c1.36-0.74,1.26-2.23,1.26-3.98c-0.84,0-3.36-0.09-4.53,0.19
		c-1.19,0.31-1.68,0.99-2.31,1.08c-0.57,0.14-0.74,0.14-0.84-0.38c0.1-0.46,0.1-1.49,0-2.26c0.1-0.32-0.15-0.96-0.92-0.87
		c-0.67,0.14-1.37,0.87-1.84,1.06C78.12,98.05,78.36,98.48,78.71,98.36z"/>
	<path class="st0" d="M109.2,98.36c0.42,0.12,1.35-0.09,1.26,0.31c-0.07,0.55,0,2.44,0,3.64c0,1.13,1,1.34,1.51,1.49
		c0.53,0.4,2.28,0.12,3.22,0.12c1.04,0,1.85-0.28,3.1-1.06c1.36-0.74,1.28-2.23,1.28-3.98c-0.87,0-3.34-0.09-4.57,0.19
		c-1.17,0.31-1.69,0.99-2.28,1.08c-0.58,0.14-0.83,0.14-0.83-0.38c0-0.46,0-1.49,0-2.26c0-0.32-0.16-0.96-0.94-0.87
		c-0.64,0.14-1.33,0.87-1.91,1.06C108.54,98.05,108.89,98.48,109.2,98.36z"/>
	<path class="st0" d="M166.42,140.33c0.41,0.15,1.34-0.05,1.27,0.43c-0.08,0.48,0,2.42,0,3.55c0,1.13,1,1.27,1.52,1.54
		c0.51,0.38,2.29,0.1,3.19,0.1c0.99,0,1.88-0.38,3.13-0.99c1.35-0.77,1.28-2.26,1.28-4.03c-0.87,0-3.41-0.1-4.55,0.17
		c-1.2,0.24-1.71,1.01-2.28,1.12c-0.6,0.09-0.85,0.09-0.85-0.38c0-0.5,0-1.56,0-2.28c0-0.38-0.16-0.96-0.92-0.87
		c-0.69,0.05-1.37,0.87-1.93,1.01C165.74,140.09,166.08,140.49,166.42,140.33z"/>
</g>
</svg>
