<svg xmlns="http://www.w3.org/2000/svg" viewBox="0 0 250 250">
<path d="M157.8,28.3l-0.8-0.8c-8.3-8-19.6-13.1-32-13.1c-25.3,0-46,20.6-46,45.9s20.6,46,46,46s45.9-20.6,45.9-46C170.9,47.9,165.9,36.6,157.8,28.3z M125,100.8c-22.3,0-40.5-18.2-40.5-40.5c0.1-5.5,1.2-10.8,3.3-15.6l0.1-0.1c1-2.4,2.3-4.6,3.7-6.8c1.4-2.2,3.1-4.1,4.9-6c1.8-1.9,3.8-3.6,6-4.9c1.6-1.1,3.3-2.1,5-2.9c0,0,0-0.1,0.1-0.1c5.3-2.6,11.2-4.1,17.4-4.1c11.1,0,21.2,4.5,28.5,11.9c7.3,7.3,11.9,17.4,11.9,28.5C165.4,82.7,147.2,100.8,125,100.8z"/>
<path d="M87.9,44.7c1-2.4,2.3-4.6,3.7-6.8C90.1,40,88.8,42.3,87.9,44.7z M95.7,24.8c3.4-2.8,7.3-5.1,11.3-6.9C102.9,19.6,99.1,22,95.7,24.8z M125,14.2c-6.4,0-12.4,1.3-17.9,3.7C112.6,15.6,118.7,14.3,125,14.2c6.3,0.1,12.3,1.4,17.9,3.7C137.3,15.5,131.3,14.2,125,14.2z M87.9,44.7c1-2.4,2.3-4.6,3.7-6.8C90.1,40,88.8,42.3,87.9,44.7z M87.9,44.7c1-2.4,2.3-4.6,3.7-6.8C90.1,40,88.8,42.3,87.9,44.7z M87.9,44.7c1-2.4,2.3-4.6,3.7-6.8C90.1,40,88.8,42.3,87.9,44.7z"/>
<path d="M237.8,144.6h-16.6v-1.8c0-6.9-5.6-12.4-12.4-12.4h-28.1v-0.1c-0.6-1.1-1.3-2.2-2-3.2c-0.8-1-1.6-2.1-2.5-2.9
c-0.6-0.7-1.4-1.4-2.1-1.9c-1-0.9-2.2-1.8-3.3-2.5c-1.1-0.7-2.4-1.4-3.7-1.9l-0.1-0.1c-3.3-1.4-7.1-2.2-10.9-2.2H93.2
c-6.1,0-11.9,2-16.7,5.7c-4.9,3.7-8.4,8.7-10,14.5l-22.6,80.2H17.1c-9.5,0-17.1,7.6-17.1,17.1v2.7h237.6c6.9,0,12.4-5.5,12.4-12.3
v-66.2C250.2,150.4,244.7,144.7,237.8,144.6z M125.1,123.1l6.2,6.2l-0.1,0.1l-6.4,5.2l-5.8-5.8l0.1-0.1L125.1,123.1L125.1,123.1z
M134.6,163l-8.4,7.9c-0.2,0.2-0.5,0.3-0.8,0.3c-0.2,0-0.6-0.1-0.7-0.3l-8.5-8c-1.3-1.5-1.3-3.6,0-5.1l8.8-13.5l9.6,13.6
C135.8,159.5,135.8,161.6,134.6,163z M5.7,230.3v-0.2c0.6-2.5,2.2-4.7,4.1-6.2c0.6-0.5,1.1-0.8,1.7-1c1.6-1,3.5-1.4,5.4-1.4
c0.1,0,0.1,0,0.2,0h126.8v2c0.1,2.4,0.9,4.7,2.2,6.7l0.1,0.2H5.7z M78.2,216v-0.2l8.1-32.6V216H78.2z M143.9,142.1v73.3H91.7
v-37.6c-0.1-1.4-0.6-2.5-1.6-3.4c-1-0.8-2.1-1.2-3.3-1.2h-0.3c-2,0.1-3.7,1.4-4.4,3.3l-9.6,39.4H49.7l0.1-0.2L72,137.1
c2.8-9.6,11.6-16.3,21.5-16.4h26.1l-0.2,0.2l-4.5,4.5c-1.1,1-1.7,2.4-1.7,3.8c0,1.5,0.6,2.9,1.6,3.9l6.6,6.7l-0.1,0.1l-10.2,15
c-2.9,3.8-2.3,9.2,1.2,12.3l8,8c0.6,0.6,1.3,1,2.1,1.4h0.1c0.4,0.2,0.7,0.2,1.2,0.3c0.8,0.2,1.6,0.2,2.4,0
c0.5-0.1,0.8-0.2,1.2-0.3h0.1c0.8-0.3,1.5-0.8,2.2-1.4l7.9-8.3c0.5-0.5,1-1,1.3-1.5c0,0,0,0,0-0.1c0.4-0.5,0.7-1,1-1.5v-0.2
c0.2-0.2,0.2-0.5,0.3-0.8c0-0.1,0.1-0.2,0.1-0.2c0.1-0.2,0.2-0.3,0.2-0.5v-0.2c0.2-0.6,0.2-1.2,0.2-1.8v-0.3c0,0,0,0,0-0.1
c0-0.4-0.1-0.8-0.2-1.1c-0.1-0.5-0.2-1-0.3-1.4c-0.3-0.9-0.8-1.8-1.4-2.6l-10.5-15.1l6.5-6.5c1-1,1.7-2.5,1.7-3.9
c0-1.4-0.6-2.9-1.6-3.9l-4.8-4.8H156c7,0.1,13.7,3.4,17.8,9.1l0.2,0.2h-17.8C149.5,129.7,143.9,135.2,143.9,142.1z M186.9,163.5
V180H161v5.3h25.9v15.8H161v5.4h25.9V223c0.1,2.5,1,4.9,2.5,7l0.2,0.2h-34.7c-2.9-1-4.9-3.7-5-6.8v-80.7c0-2,0.9-3.9,2.2-5.1
c0.3-0.4,0.6-0.7,1-0.9c1.1-0.8,2.5-1.3,4-1.3H209c3.7,0.2,6.7,3.3,6.8,7.1h0.2v2h-16c-6.9,0-12.3,5.6-12.3,12.4v1.1H161v5.4
H186.9z M244.2,225.5c-0.1,0.3-0.2,0.6-0.4,1c-0.1,0.3-0.2,0.6-0.5,1c-0.2,0.4-0.5,0.7-0.9,1c-1.2,1.4-3,2.2-5.1,2.2H200
c-4,0-7.3-3.3-7.3-7.3v-66.2c0.2-3.9,3.3-7,7.3-7h37.5c2,0,3.9,0.9,5.1,2.2c0.4,0.3,0.7,0.6,0.9,1c0.7,1.2,1.2,2.5,1.2,4v66.2
l-0.2-0.2c0,0.3,0,0.7-0.1,1C244.4,224.9,244.3,225.2,244.2,225.5z"/>
<path d="M140.4,158.7c0.2,1.1,0.2,2.2-0.1,3.3c0.2-0.6,0.2-1.2,0.2-1.8v-0.3c0,0,0,0,0-0.1C140.5,159.5,140.5,159.1,140.4,158.7z
M139.7,163.8c0.2-0.2,0.2-0.5,0.3-0.8c0-0.1,0.1-0.2,0.1-0.2c0.1-0.2,0.2-0.3,0.2-0.5v-0.2C140.1,162.6,140,163.3,139.7,163.8z
M137.4,167l-7.9,8.3c-0.6,0.6-1.3,1-2.1,1.4c0.8-0.3,1.5-0.8,2.2-1.4L137.4,167c0.6-0.4,1-0.9,1.4-1.4
C138.4,166.1,137.9,166.6,137.4,167z M243.5,153.5c0.7,1.2,1.2,2.5,1.2,4v66.2l-0.2-0.2c0,0.3,0,0.7-0.1,1
c0.1-0.2,0.2-0.6,0.2-0.8l0.2,0.3v-66.5C244.8,156,244.3,154.6,243.5,153.5z M243.5,153.5c0.7,1.2,1.2,2.5,1.2,4v66.2l-0.2-0.2
c0,0.3,0,0.7-0.1,1c0.1-0.2,0.2-0.6,0.2-0.8l0.2,0.3v-66.5C244.8,156,244.3,154.6,243.5,153.5z M140.4,158.7
c0.2,1.1,0.2,2.2-0.1,3.3c0.2-0.6,0.2-1.2,0.2-1.8v-0.3c0,0,0,0,0-0.1C140.5,159.5,140.5,159.1,140.4,158.7z M139.7,163.8
c0.2-0.2,0.2-0.5,0.3-0.8c0-0.1,0.1-0.2,0.1-0.2c0.1-0.2,0.2-0.3,0.2-0.5v-0.2C140.1,162.6,140,163.3,139.7,163.8z M137.4,167
l-7.9,8.3c-0.6,0.6-1.3,1-2.1,1.4c0.8-0.3,1.5-0.8,2.2-1.4L137.4,167c0.6-0.4,1-0.9,1.4-1.4C138.4,166.1,137.9,166.6,137.4,167z
M137.4,167l-7.9,8.3c-0.6,0.6-1.3,1-2.1,1.4c0.8-0.3,1.5-0.8,2.2-1.4L137.4,167c0.6-0.4,1-0.9,1.4-1.4
C138.4,166.1,137.9,166.6,137.4,167z M139.7,163.8c0.2-0.2,0.2-0.5,0.3-0.8c0-0.1,0.1-0.2,0.1-0.2c0.1-0.2,0.2-0.3,0.2-0.5v-0.2
C140.1,162.6,140,163.3,139.7,163.8z M140.4,158.7c0.2,1.1,0.2,2.2-0.1,3.3c0.2-0.6,0.2-1.2,0.2-1.8v-0.3c0,0,0,0,0-0.1
C140.5,159.5,140.5,159.1,140.4,158.7z M243.5,153.5c0.7,1.2,1.2,2.5,1.2,4v66.2l-0.2-0.2c0,0.3,0,0.7-0.1,1
c0.1-0.2,0.2-0.6,0.2-0.8l0.2,0.3v-66.5C244.8,156,244.3,154.6,243.5,153.5z M243.5,153.5c0.7,1.2,1.2,2.5,1.2,4v66.2l-0.2-0.2
c0,0.3,0,0.7-0.1,1c0.1-0.2,0.2-0.6,0.2-0.8l0.2,0.3v-66.5C244.8,156,244.3,154.6,243.5,153.5z M140.4,158.7
c0.2,1.1,0.2,2.2-0.1,3.3c0.2-0.6,0.2-1.2,0.2-1.8v-0.3c0,0,0,0,0-0.1C140.5,159.5,140.5,159.1,140.4,158.7z M139.7,163.8
c0.2-0.2,0.2-0.5,0.3-0.8c0-0.1,0.1-0.2,0.1-0.2c0.1-0.2,0.2-0.3,0.2-0.5v-0.2C140.1,162.6,140,163.3,139.7,163.8z M137.4,167
l-7.9,8.3c-0.6,0.6-1.3,1-2.1,1.4c0.8-0.3,1.5-0.8,2.2-1.4L137.4,167c0.6-0.4,1-0.9,1.4-1.4C138.4,166.1,137.9,166.6,137.4,167z
M137.4,167l-7.9,8.3c-0.6,0.6-1.3,1-2.1,1.4c0.8-0.3,1.5-0.8,2.2-1.4L137.4,167c0.6-0.4,1-0.9,1.4-1.4
C138.4,166.1,137.9,166.6,137.4,167z M139.7,163.8c0.2-0.2,0.2-0.5,0.3-0.8c0-0.1,0.1-0.2,0.1-0.2c0.1-0.2,0.2-0.3,0.2-0.5v-0.2
C140.1,162.6,140,163.3,139.7,163.8z M140.4,158.7c0.2,1.1,0.2,2.2-0.1,3.3c0.2-0.6,0.2-1.2,0.2-1.8v-0.3c0,0,0,0,0-0.1
C140.5,159.5,140.5,159.1,140.4,158.7z M243.5,153.5c0.7,1.2,1.2,2.5,1.2,4v66.2l-0.2-0.2c0,0.3,0,0.7-0.1,1
c0.1-0.2,0.2-0.6,0.2-0.8l0.2,0.3v-66.5C244.8,156,244.3,154.6,243.5,153.5z M243.5,153.5c0.7,1.2,1.2,2.5,1.2,4v66.2l-0.2-0.2
c0,0.3,0,0.7-0.1,1c0.1-0.2,0.2-0.6,0.2-0.8l0.2,0.3v-66.5C244.8,156,244.3,154.6,243.5,153.5z M140.4,158.7
c0.2,1.1,0.2,2.2-0.1,3.3c0.2-0.6,0.2-1.2,0.2-1.8v-0.3c0,0,0,0,0-0.1C140.5,159.5,140.5,159.1,140.4,158.7z M139.7,163.8
c0.2-0.2,0.2-0.5,0.3-0.8c0-0.1,0.1-0.2,0.1-0.2c0.1-0.2,0.2-0.3,0.2-0.5v-0.2C140.1,162.6,140,163.3,139.7,163.8z M137.4,167
l-7.9,8.3c-0.6,0.6-1.3,1-2.1,1.4c0.8-0.3,1.5-0.8,2.2-1.4L137.4,167c0.6-0.4,1-0.9,1.4-1.4C138.4,166.1,137.9,166.6,137.4,167z
M243.5,153.5c0.7,1.2,1.2,2.5,1.2,4v66.2l-0.2-0.2c0,0.3,0,0.7-0.1,1c0.1-0.2,0.2-0.6,0.2-0.8l0.2,0.3v-66.5
C244.8,156,244.3,154.6,243.5,153.5z M140.4,158.7c0.2,1.1,0.2,2.2-0.1,3.3c0.2-0.6,0.2-1.2,0.2-1.8v-0.3c0,0,0,0,0-0.1
C140.5,159.5,140.5,159.1,140.4,158.7z M139.7,163.8c0.2-0.2,0.2-0.5,0.3-0.8c0-0.1,0.1-0.2,0.1-0.2c0.1-0.2,0.2-0.3,0.2-0.5v-0.2
C140.1,162.6,140,163.3,139.7,163.8z M137.4,167l-7.9,8.3c-0.6,0.6-1.3,1-2.1,1.4c0.8-0.3,1.5-0.8,2.2-1.4L137.4,167
c0.6-0.4,1-0.9,1.4-1.4C138.4,166.1,137.9,166.6,137.4,167z M137.4,167l-7.9,8.3c-0.6,0.6-1.3,1-2.1,1.4c0.8-0.3,1.5-0.8,2.2-1.4
L137.4,167c0.6-0.4,1-0.9,1.4-1.4C138.4,166.1,137.9,166.6,137.4,167z M139.7,163.8c0.2-0.2,0.2-0.5,0.3-0.8
c0-0.1,0.1-0.2,0.1-0.2c0.1-0.2,0.2-0.3,0.2-0.5v-0.2C140.1,162.6,140,163.3,139.7,163.8z M140.4,158.7c0.2,1.1,0.2,2.2-0.1,3.3
c0.2-0.6,0.2-1.2,0.2-1.8v-0.3c0,0,0,0,0-0.1C140.5,159.5,140.5,159.1,140.4,158.7z M243.5,153.5c0.7,1.2,1.2,2.5,1.2,4v66.2
l-0.2-0.2c0,0.3,0,0.7-0.1,1c0.1-0.2,0.2-0.6,0.2-0.8l0.2,0.3v-66.5C244.8,156,244.3,154.6,243.5,153.5z M243.5,153.5
c0.7,1.2,1.2,2.5,1.2,4v66.2l-0.2-0.2c0,0.3,0,0.7-0.1,1c0.1-0.2,0.2-0.6,0.2-0.8l0.2,0.3v-66.5
C244.8,156,244.3,154.6,243.5,153.5z M140.4,158.7c0.2,1.1,0.2,2.2-0.1,3.3c0.2-0.6,0.2-1.2,0.2-1.8v-0.3c0,0,0,0,0-0.1
C140.5,159.5,140.5,159.1,140.4,158.7z M139.7,163.8c0.2-0.2,0.2-0.5,0.3-0.8c0-0.1,0.1-0.2,0.1-0.2c0.1-0.2,0.2-0.3,0.2-0.5v-0.2
C140.1,162.6,140,163.3,139.7,163.8z M137.4,167l-7.9,8.3c-0.6,0.6-1.3,1-2.1,1.4c0.8-0.3,1.5-0.8,2.2-1.4L137.4,167
c0.6-0.4,1-0.9,1.4-1.4C138.4,166.1,137.9,166.6,137.4,167z M137.4,167l-7.9,8.3c-0.6,0.6-1.3,1-2.1,1.4c0.8-0.3,1.5-0.8,2.2-1.4
L137.4,167c0.6-0.4,1-0.9,1.4-1.4C138.4,166.1,137.9,166.6,137.4,167z M139.7,163.8c0.2-0.2,0.2-0.5,0.3-0.8
c0-0.1,0.1-0.2,0.1-0.2c0.1-0.2,0.2-0.3,0.2-0.5v-0.2C140.1,162.6,140,163.3,139.7,163.8z M140.4,158.7c0.2,1.1,0.2,2.2-0.1,3.3
c0.2-0.6,0.2-1.2,0.2-1.8v-0.3c0,0,0,0,0-0.1C140.5,159.5,140.5,159.1,140.4,158.7z M243.5,153.5c0.7,1.2,1.2,2.5,1.2,4v66.2
l-0.2-0.2c0,0.3,0,0.7-0.1,1c0.1-0.2,0.2-0.6,0.2-0.8l0.2,0.3v-66.5C244.8,156,244.3,154.6,243.5,153.5z M243.5,153.5
c0.7,1.2,1.2,2.5,1.2,4v66.2l-0.2-0.2c0,0.3,0,0.7-0.1,1c0.1-0.2,0.2-0.6,0.2-0.8l0.2,0.3v-66.5
C244.8,156,244.3,154.6,243.5,153.5z M140.4,158.7c0.2,1.1,0.2,2.2-0.1,3.3c0.2-0.6,0.2-1.2,0.2-1.8v-0.3c0,0,0,0,0-0.1
C140.5,159.5,140.5,159.1,140.4,158.7z M139.7,163.8c0.2-0.2,0.2-0.5,0.3-0.8c0-0.1,0.1-0.2,0.1-0.2c0.1-0.2,0.2-0.3,0.2-0.5v-0.2
C140.1,162.6,140,163.3,139.7,163.8z M137.4,167l-7.9,8.3c-0.6,0.6-1.3,1-2.1,1.4c0.8-0.3,1.5-0.8,2.2-1.4L137.4,167
c0.6-0.4,1-0.9,1.4-1.4C138.4,166.1,137.9,166.6,137.4,167z M140.4,158.7c0.2,1.1,0.2,2.2-0.1,3.3c0.2-0.6,0.2-1.2,0.2-1.8v-0.3
c0,0,0,0,0-0.1C140.5,159.5,140.5,159.1,140.4,158.7z M139.7,163.8c0.2-0.2,0.2-0.5,0.3-0.8c0-0.1,0.1-0.2,0.1-0.2
c0.1-0.2,0.2-0.3,0.2-0.5v-0.2C140.1,162.6,140,163.3,139.7,163.8z M137.4,167l-7.9,8.3c-0.6,0.6-1.3,1-2.1,1.4
c0.8-0.3,1.5-0.8,2.2-1.4L137.4,167c0.6-0.4,1-0.9,1.4-1.4C138.4,166.1,137.9,166.6,137.4,167z M243.5,153.5
c0.7,1.2,1.2,2.5,1.2,4v66.2l-0.2-0.2c0,0.3,0,0.7-0.1,1c0.1-0.2,0.2-0.6,0.2-0.8l0.2,0.3v-66.5
C244.8,156,244.3,154.6,243.5,153.5z M243.5,153.5c0.7,1.2,1.2,2.5,1.2,4v66.2l-0.2-0.2c0,0.3,0,0.7-0.1,1
c0.1-0.2,0.2-0.6,0.2-0.8l0.2,0.3v-66.5C244.8,156,244.3,154.6,243.5,153.5z M140.4,158.7c0.2,1.1,0.2,2.2-0.1,3.3
c0.2-0.6,0.2-1.2,0.2-1.8v-0.3c0,0,0,0,0-0.1C140.5,159.5,140.5,159.1,140.4,158.7z M139.7,163.8c0.2-0.2,0.2-0.5,0.3-0.8
c0-0.1,0.1-0.2,0.1-0.2c0.1-0.2,0.2-0.3,0.2-0.5v-0.2C140.1,162.6,140,163.3,139.7,163.8z M137.4,167l-7.9,8.3
c-0.6,0.6-1.3,1-2.1,1.4c0.8-0.3,1.5-0.8,2.2-1.4L137.4,167c0.6-0.4,1-0.9,1.4-1.4C138.4,166.1,137.9,166.6,137.4,167z"/>
<rect x="204.2" y="172.8" width="28.5" height="5.3"/><rect x="204.2" y="187.7" width="28.5" height="5.3"/><rect x="204.2" y="201.5" width="28.5" height="5.4"/></svg>