<svg xmlns="http://www.w3.org/2000/svg" viewBox="0 0 25.67 32.75"><defs><style>.a{fill:none;stroke:#000;stroke-linecap:round;stroke-linejoin:round;stroke-width:0.75px;}</style></defs><title>213</title><path class="a" d="M26.06,2.09,26,2a7.62,7.62,0,1,0,.11.12Z" transform="translate(-3.16 0.38)"/><path class="a" d="M16.86,1.57a7.81,7.81,0,0,1,1.68-1A6.49,6.49,0,0,0,16.86,1.57ZM21.2,0a6.68,6.68,0,0,0-2.65.54,6.92,6.92,0,0,1,5.31,0A6.8,6.8,0,0,0,21.2,0Z" transform="translate(-3.16 0.38)"/><polyline class="a" points="21.17 32.35 21.18 32.38 0.38 32.38 0.38 32.35"/><path class="a" d="M24,29.79H16.27V24.22a.71.71,0,0,0-.23-.5.76.76,0,0,0-.49-.18H15.5a.7.7,0,0,0-.64.5l-1.43,5.84H10.05v0l3.3-11.66a3.39,3.39,0,0,1,3.18-2.43h3.87l0,0-.66.67a.77.77,0,0,0-.25.57.8.8,0,0,0,.24.58l1,1h0l-1.51,2.22a1.37,1.37,0,0,0,.18,1.83l1.19,1.19a1.3,1.3,0,0,0,.31.21h0l.18.05a1,1,0,0,0,.35,0l.18-.05h0a1.32,1.32,0,0,0,.32-.2l1.17-1.23a.92.92,0,0,0,.18-.22h0a.91.91,0,0,0,.15-.23v0a.42.42,0,0,0,0-.12l0,0a.25.25,0,0,0,0-.07v0a1.24,1.24,0,0,0,0-.27v-.05h0a.88.88,0,0,0,0-.17.8.8,0,0,0-.05-.21,1.25,1.25,0,0,0-.21-.39l-1.56-2.24,1-1a.83.83,0,0,0,.25-.58.78.78,0,0,0-.24-.57l-.7-.71h3.85a3.36,3.36,0,0,1,2.65,1.34l0,0" transform="translate(-3.16 0.38)"/><polyline class="a" points="0.38 32.38 2.69 30.25 6.89 30.25"/><path class="a" d="M20.88,22a1.08,1.08,0,0,1-1,1.05h-8a1.06,1.06,0,0,1-.74-1v-12a1,1,0,0,1,.33-.76.37.37,0,0,1,.15-.13A1,1,0,0,1,12.19,9h7.69a1.08,1.08,0,0,1,1,1Z" transform="translate(-3.16 0.38)"/></svg>