<?xml version="1.0" encoding="utf-8"?>
<!-- Generator: Adobe Illustrator 24.0.0, SVG Export Plug-In . SVG Version: 6.00 Build 0)  -->
<svg version="1.1" id="Layer_1" xmlns="http://www.w3.org/2000/svg" xmlns:xlink="http://www.w3.org/1999/xlink" x="0px" y="0px"
	 viewBox="0 0 256 256" style="enable-background:new 0 0 256 256;" xml:space="preserve">
<style type="text/css">
	.st0{fill:#8699A3;}
</style>
<g>
	<path class="st0" d="M128,109.21c26.01,0,47.1-21.09,47.1-47.1S154.01,15,128,15S80.9,36.09,80.9,62.1l0,0
		C80.9,88.12,101.98,109.21,128,109.21z M128,20.89c22.76,0,41.22,18.45,41.22,41.22s-18.45,41.22-41.22,41.22
		S86.78,84.87,86.78,62.1l0,0C86.85,39.37,105.27,20.96,128,20.89z"/>
	<path class="st0" d="M243.2,148.12h-16.64v-1.79c0-7.07-5.73-12.8-12.8-12.8h-28.67c-5.03-9.43-14.91-15.26-25.6-15.1h-64
		c-12.75,0.06-23.95,8.49-27.52,20.74l-23.04,81.92H17.66C7.91,221.08,0,228.99,0,238.74l0,0v2.94h158.59h1.79h82.82
		c7.07,0,12.8-5.73,12.8-12.8v-67.71c0.14-7.07-5.47-12.91-12.54-13.05C243.37,148.12,243.28,148.12,243.2,148.12z M221.05,146.33
		v1.79H204.8c-7.07,0-12.8,5.73-12.8,12.8v1.02h-27.26v5.76h26.5v16.64h-26.5v5.76h26.5v15.87h-26.5v5.76h26.5v16.64
		c0.08,2.64,0.97,5.19,2.56,7.3h-29.06l0,0h-6.14c-2.96-0.94-4.97-3.68-4.99-6.78v-82.56c0-4.03,3.27-7.3,7.3-7.3h53.12
		c3.83,0.27,6.79,3.46,6.78,7.3L221.05,146.33z M128,148.25l9.73,13.82c1.23,1.44,1.23,3.55,0,4.99l-8.58,8.06
		c-0.39,0.37-1.01,0.37-1.41,0l-8.7-8.19c-1.23-1.44-1.23-3.55,0-4.99L128,148.25z M128,138.01L128,138.01l-5.89-5.89l5.89-5.76
		l6.27,6.27l-6.27,5.89V138.01z M73.98,140.57c2.79-9.79,11.7-16.57,21.89-16.64h26.37l-4.61,4.61c-2.26,2.24-2.28,5.88-0.05,8.15
		c0.02,0.02,0.03,0.03,0.05,0.05l6.66,6.66l-10.5,15.36c-2.92,3.96-2.36,9.49,1.28,12.8l8.19,8.19c2.63,2.57,6.84,2.57,9.47,0
		l8.06-8.45c3.64-3.31,4.2-8.84,1.28-12.8l-10.75-15.36l6.66-6.66c2.26-2.24,2.28-5.88,0.05-8.15c-0.02-0.02-0.03-0.03-0.05-0.05
		l-4.61-4.61h26.37c7.17,0.04,13.91,3.45,18.18,9.22H160c-7.07,0-12.8,5.73-12.8,12.8v74.88H94.08v-38.4
		c-0.16-2.82-2.58-4.98-5.4-4.82c-2.11,0.12-3.93,1.53-4.58,3.54l-9.86,40.19H51.2L73.98,140.57z M88.32,221.21h-8.06l8.06-32.38
		v32.26V221.21z M17.66,226.97H147.2v1.92c0.08,2.48,0.88,4.88,2.3,6.91H6.14C7.5,230.56,12.25,226.91,17.66,226.97z M250.24,228.89
		c0,4.03-3.27,7.3-7.3,7.3H204.8c-4.03,0-7.3-3.27-7.3-7.3v-67.71c0.14-3.93,3.36-7.04,7.3-7.04h38.4c4.03,0,7.3,3.27,7.3,7.3v67.71
		L250.24,228.89z"/>
	<rect x="208.89" y="176.92" class="st0" width="29.44" height="5.76"/>
	<rect x="208.89" y="192.15" class="st0" width="29.44" height="5.76"/>
	<rect x="208.89" y="206.36" class="st0" width="29.44" height="5.76"/>
</g>
</svg>
