<?xml version="1.0" encoding="utf-8"?>
<!-- Generator: Adobe Illustrator 24.0.0, SVG Export Plug-In . SVG Version: 6.00 Build 0)  -->
<svg version="1.1" id="Layer_1" xmlns="http://www.w3.org/2000/svg" xmlns:xlink="http://www.w3.org/1999/xlink" x="0px" y="0px"
	 viewBox="0 0 256 256" style="enable-background:new 0 0 256 256;" xml:space="preserve">
<g>
	<path d="M128,109.2c26,0,47.1-21.1,47.1-47.1S154,15,128,15S80.9,36.1,80.9,62.1l0,0C80.9,88.1,102,109.2,128,109.2z M128,20.9
		c22.8,0,41.2,18.5,41.2,41.2s-18.4,41.2-41.2,41.2S86.8,84.9,86.8,62.1l0,0C86.8,39.4,105.3,21,128,20.9z"/>
	<path d="M243.2,148.1h-16.6v-1.8c0-7.1-5.7-12.8-12.8-12.8h-28.7c-5-9.4-14.9-15.3-25.6-15.1h-64c-12.8,0.1-23.9,8.5-27.5,20.7
		l-23,81.9H17.7C7.9,221.1,0,229,0,238.7l0,0v2.9h158.6h1.8h82.8c7.1,0,12.8-5.7,12.8-12.8v-67.7c0.1-7.1-5.5-12.9-12.5-13.1
		C243.4,148.1,243.3,148.1,243.2,148.1z M221.1,146.3v1.8h-16.2c-7.1,0-12.8,5.7-12.8,12.8v1h-27.3v5.8h26.5v16.6h-26.5v5.8h26.5
		V206h-26.5v5.8h26.5v16.6c0.1,2.6,1,5.2,2.6,7.3h-29.1l0,0h-6.1c-3-0.9-5-3.7-5-6.8v-82.6c0-4,3.3-7.3,7.3-7.3H214
		c3.8,0.3,6.8,3.5,6.8,7.3L221.1,146.3z M128,148.2l9.7,13.8c1.2,1.4,1.2,3.6,0,5l-8.6,8.1c-0.4,0.4-1,0.4-1.4,0l-8.7-8.2
		c-1.2-1.4-1.2-3.6,0-5L128,148.2z M128,138L128,138l-5.9-5.9l5.9-5.8l6.3,6.3l-6.3,5.9V138z M74,140.6c2.8-9.8,11.7-16.6,21.9-16.6
		h26.4l-4.6,4.6c-2.3,2.2-2.3,5.9-0.1,8.1c0,0,0,0,0.1,0.1l6.7,6.7l-10.5,15.4c-2.9,4-2.4,9.5,1.3,12.8l8.2,8.2
		c2.6,2.6,6.8,2.6,9.5,0l8.1-8.4c3.6-3.3,4.2-8.8,1.3-12.8l-10.8-15.4l6.7-6.7c2.3-2.2,2.3-5.9,0.1-8.1c0,0,0,0-0.1-0.1l-4.6-4.6
		h26.4c7.2,0,13.9,3.4,18.2,9.2H160c-7.1,0-12.8,5.7-12.8,12.8v74.9H94.1v-38.4c-0.2-2.8-2.6-5-5.4-4.8c-2.1,0.1-3.9,1.5-4.6,3.5
		l-9.9,40.2h-23L74,140.6z M88.3,221.2h-8.1l8.1-32.4v32.3V221.2z M17.7,227h129.5v1.9c0.1,2.5,0.9,4.9,2.3,6.9H6.1
		C7.5,230.6,12.2,226.9,17.7,227z M250.2,228.9c0,4-3.3,7.3-7.3,7.3h-38.1c-4,0-7.3-3.3-7.3-7.3v-67.7c0.1-3.9,3.4-7,7.3-7h38.4
		c4,0,7.3,3.3,7.3,7.3v67.7L250.2,228.9z"/>
	<rect x="208.9" y="176.9" width="29.4" height="5.8"/>
	<rect x="208.9" y="192.1" width="29.4" height="5.8"/>
	<rect x="208.9" y="206.4" width="29.4" height="5.8"/>
</g>
</svg>
