<svg xmlns="http://www.w3.org/2000/svg" viewBox="0 0 21.64 32.75"><defs><style>.a{fill:none;stroke:#000;stroke-linecap:round;stroke-linejoin:round;stroke-width:0.75px;}</style></defs><title>214</title><path class="a" d="M24.36,16a15,15,0,0,0,2-6.16c.25-2.51-.23-4.51-1.33-5.48a2.79,2.79,0,0,0-2.67-.54A7.23,7.23,0,0,0,20,5V4l2.67-4H9.33L12,4V5A7.23,7.23,0,0,0,9.62,3.83,2.79,2.79,0,0,0,7,4.37c-1.1,1-1.58,3-1.33,5.48a15,15,0,0,0,2,6.16c0,4,1.16,8.85,4.36,11.32l-2.67,4A26.31,26.31,0,0,0,16,32a26.31,26.31,0,0,0,6.67-.67l-2.67-4C23.2,24.86,24.36,20,24.36,16Z" transform="translate(-5.18 0.38)"/><line class="a" x1="6.88" y1="4.31" x2="14.88" y2="4.31"/><path class="a" d="M20,4.81V9.19s4.38.93,4.35,6.82" transform="translate(-5.18 0.38)"/><path class="a" d="M12,4.81V9.19S7.62,10.12,7.65,16" transform="translate(-5.18 0.38)"/><polyline class="a" points="3.05 21.33 5.46 21.33 5.46 15.66 9.37 15.66 9.37 18.29 8.23 18.29 8.21 21.33 12.17 21.33 12.17 15.66 16.08 15.66 16.08 18.29 14.94 18.29 14.99 21.33 18.55 21.33"/></svg>