<svg xmlns="http://www.w3.org/2000/svg" viewBox="0 0 29.73 32.75"><defs><style>.a{fill:none;stroke:#000;stroke-linecap:round;stroke-linejoin:round;stroke-width:0.75px;}</style></defs><title>215</title><path class="a" d="M4.07,31.51H15.28l14.07-8.25s1.59-1.42,1-2.6S28,19.75,28,19.75l-8,2.1" transform="translate(-1.14 0.38)"/><path class="a" d="M4.07,24.07l4.76-4,9.32.27s1.44.36,1.37,1.62-.65,2-1.21,2.14l-7.49,2" transform="translate(-1.14 0.38)"/><rect class="a" x="0.38" y="23.02" width="2.56" height="9.36"/><line class="a" x1="7.7" y1="20.41" x2="7.7" y2="14.44"/><line class="a" x1="12.24" y1="20.56" x2="12.24" y2="11.55"/><line class="a" x1="17.02" y1="20.69" x2="17.02" y2="7.88"/><line class="a" x1="22" y1="20.69" x2="22" y2="4.56"/><path class="a" d="M6.3,13.25s7.36.3,19.08-12.56" transform="translate(-1.14 0.38)"/><polyline class="a" points="21.52 0.72 24.88 0.38 24.62 3.84"/></svg>