<?xml version="1.0" encoding="utf-8"?>
<!-- Generator: Adobe Illustrator 24.0.0, SVG Export Plug-In . SVG Version: 6.00 Build 0)  -->
<svg version="1.1" id="Layer_1" xmlns="http://www.w3.org/2000/svg" xmlns:xlink="http://www.w3.org/1999/xlink" x="0px" y="0px"
	 viewBox="0 0 256 256" style="enable-background:new 0 0 256 256;" xml:space="preserve">
<style type="text/css">
	.st0{fill:#8699A3;}
</style>
<g>
	<path class="st0" d="M3.84,155.24h74.24c2.56,0,2.56,1.28,2.56,2.56v11.52c0,3.84,1.28,5.12,5.12,5.12H128h42.24
		c2.56,0,5.12-1.28,5.12-5.12v-10.24c0-2.56,1.28-2.56,2.56-2.56H224c2.56,0,5.12-1.28,7.68-3.84l23.04-46.08
		c1.28-1.28,1.28-1.28,1.28-2.56c0-2.56-2.56-3.84-5.12-3.84h-72.96c-1.28,0-2.56,0-2.56-2.56V86.12c0-2.56-1.28-5.12-5.12-5.12
		h-83.2c-3.84,0-5.12,1.28-5.12,5.12v10.24c0,2.56-1.28,2.56-2.56,2.56H30.72c-3.84,1.28-5.12,2.56-6.4,5.12L0,150.12
		c0,0,0,1.28,0,2.56S1.28,155.24,3.84,155.24z M23.04,137.32l11.52-21.76c0-1.28,1.28-1.28,2.56-1.28h56.32
		c2.56,0,2.56-1.28,2.56-2.56v-12.8c0-2.56,1.28-2.56,2.56-2.56h57.6c2.56,0,2.56,1.28,2.56,2.56v12.8c0,2.56,1.28,2.56,2.56,2.56
		h69.12c2.56,0,2.56,1.28,2.56,2.56v1.28l-11.52,21.76c-1.28,1.28-2.56,1.28-2.56,1.28h-55.04c-2.56,0-2.56,1.28-2.56,2.56v12.8
		c0,2.56-1.28,2.56-2.56,2.56h-29.44H99.84c-2.56,0-2.56-1.28-2.56-2.56v-12.8c0-2.56-1.28-2.56-2.56-2.56H25.6
		C24.32,141.16,23.04,139.88,23.04,137.32C23.04,138.6,23.04,137.32,23.04,137.32z"/>
	<path class="st0" d="M183.04,91.24L183.04,91.24l2.56,2.56h1.28l-1.28-2.56c1.28,0,1.28,0,1.28-1.28s-1.28-1.28-1.28-1.28h-2.56
		v5.12h1.28v-2.56H183.04z M183.04,89.96h1.28c0,0,1.28,0,1.28,1.28c0,0,0,1.28-1.28,1.28h-1.28V89.96L183.04,89.96z"/>
	<path class="st0" d="M184.32,96.36c2.56,0,5.12-2.56,5.12-5.12c0-2.56-2.56-5.12-5.12-5.12s-5.12,2.56-5.12,5.12
		C179.2,93.8,181.76,96.36,184.32,96.36z M184.32,87.4c2.56,0,3.84,1.28,3.84,3.84c0,2.56-1.28,3.84-3.84,3.84s-3.84-1.28-3.84-3.84
		C180.48,89.96,181.76,87.4,184.32,87.4z"/>
</g>
</svg>
