<?xml version="1.0" encoding="utf-8"?>
<!-- Generator: Adobe Illustrator 24.0.0, SVG Export Plug-In . SVG Version: 6.00 Build 0)  -->
<svg version="1.1" id="Layer_1" xmlns="http://www.w3.org/2000/svg" xmlns:xlink="http://www.w3.org/1999/xlink" x="0px" y="0px"
	 viewBox="0 0 20 7.3" style="enable-background:new 0 0 20 7.3;" xml:space="preserve">
<style type="text/css">
	.st0{fill:#8699A3;}
</style>
<path class="st0" d="M0.3,5.8h5.8c0.2,0,0.2,0.1,0.2,0.2v0.9c0,0.3,0.1,0.4,0.4,0.4h3.3h3.3c0.2,0,0.4-0.1,0.4-0.4V6.1
	c0-0.2,0.1-0.2,0.2-0.2h3.6c0.2,0,0.4-0.1,0.6-0.3L19.9,2C20,1.9,20,1.9,20,1.8c0-0.2-0.2-0.3-0.4-0.3h-5.7c-0.1,0-0.2,0-0.2-0.2
	V0.4c0-0.2-0.1-0.4-0.4-0.4H6.8C6.5,0,6.4,0.1,6.4,0.4v0.8c0,0.2-0.1,0.2-0.2,0.2l-3.8,0C2.1,1.5,2,1.6,1.9,1.8L0,5.4
	c0,0,0,0.1,0,0.2C0,5.7,0.1,5.8,0.3,5.8z M1.8,4.4l0.9-1.7c0-0.1,0.1-0.1,0.2-0.1h4.4c0.2,0,0.2-0.1,0.2-0.2v-1
	c0-0.2,0.1-0.2,0.2-0.2h4.5c0.2,0,0.2,0.1,0.2,0.2v1c0,0.2,0.1,0.2,0.2,0.2H18c0.2,0,0.2,0.1,0.2,0.2c0,0,0,0.1,0,0.1l-0.9,1.7
	c-0.1,0.1-0.2,0.1-0.2,0.1h-4.3c-0.2,0-0.2,0.1-0.2,0.2l0,1c0,0.2-0.1,0.2-0.2,0.2h-2.3H7.8c-0.2,0-0.2-0.1-0.2-0.2v-1
	c0-0.2-0.1-0.2-0.2-0.2H2C1.9,4.7,1.8,4.6,1.8,4.4C1.8,4.5,1.8,4.4,1.8,4.4z"/>
<path class="st0" d="M14.3,0.8L14.3,0.8L14.5,1h0.1l-0.1-0.2c0.1,0,0.1,0,0.1-0.1c0-0.1-0.1-0.1-0.1-0.1h-0.2V1h0.1V0.8L14.3,0.8z
	 M14.3,0.7h0.1c0,0,0.1,0,0.1,0.1c0,0,0,0.1-0.1,0.1h-0.1V0.7L14.3,0.7z"/>
<path class="st0" d="M14.4,1.2c0.2,0,0.4-0.2,0.4-0.4s-0.2-0.4-0.4-0.4c-0.2,0-0.4,0.2-0.4,0.4C14,1,14.2,1.2,14.4,1.2z M14.4,0.5
	c0.2,0,0.3,0.1,0.3,0.3c0,0.2-0.1,0.3-0.3,0.3c-0.2,0-0.3-0.1-0.3-0.3C14.1,0.7,14.2,0.5,14.4,0.5z"/>
</svg>
