<svg xmlns="http://www.w3.org/2000/svg" viewBox="0 0 256 256">
<path d="M3.8,155.2h74.2c2.6,0,2.6,1.3,2.6,2.6v11.5c0,3.8,1.3,5.1,5.1,5.1H128h42.2c2.6,0,5.1-1.3,5.1-5.1v-10.2c0-2.6,1.3-2.6,2.6-2.6H224c2.6,0,5.1-1.3,7.7-3.8l23-46.1c1.3-1.3,1.3-1.3,1.3-2.6c0-2.6-2.6-3.8-5.1-3.8h-73c-1.3,0-2.6,0-2.6-2.6V86.1c0-2.6-1.3-5.1-5.1-5.1H87c-3.8,0-5.1,1.3-5.1,5.1v10.2c0,2.6-1.3,2.6-2.6,2.6H30.7c-3.8,1.3-5.1,2.6-6.4,5.1L0,150.1c0,0,0,1.3,0,2.6S1.3,155.2,3.8,155.2z M23,137.3l11.5-21.8c0-1.3,1.3-1.3,2.6-1.3h56.3c2.6,0,2.6-1.3,2.6-2.6V98.9c0-2.6,1.3-2.6,2.6-2.6h57.6c2.6,0,2.6,1.3,2.6,2.6v12.8c0,2.6,1.3,2.6,2.6,2.6h69.1c2.6,0,2.6,1.3,2.6,2.6v1.3l-11.5,21.8c-1.3,1.3-2.6,1.3-2.6,1.3h-55c-2.6,0-2.6,1.3-2.6,2.6v12.8c0,2.6-1.3,2.6-2.6,2.6h-29.4H99.8c-2.6,0-2.6-1.3-2.6-2.6v-12.8c0-2.6-1.3-2.6-2.6-2.6H25.6C24.3,141.2,23,139.9,23,137.3C23,138.6,23,137.3,23,137.3z"/>
<path d="M183,91.2L183,91.2l2.6,2.6h1.3l-1.3-2.6c1.3,0,1.3,0,1.3-1.3s-1.3-1.3-1.3-1.3H183v5.1h1.3v-2.6C184.3,91.2,183,91.2,183,91.2z M183,90h1.3c0,0,1.3,0,1.3,1.3c0,0,0,1.3-1.3,1.3H183V90L183,90z"/>
<path d="M184.3,96.4c2.6,0,5.1-2.6,5.1-5.1c0-2.6-2.6-5.1-5.1-5.1s-5.1,2.6-5.1,5.1C179.2,93.8,181.8,96.4,184.3,96.4z M184.3,87.4c2.6,0,3.8,1.3,3.8,3.8s-1.3,3.8-3.8,3.8s-3.8-1.3-3.8-3.8C180.5,90,181.8,87.4,184.3,87.4z"/>
</svg>