<svg xmlns="http://www.w3.org/2000/svg" viewBox="0 0 30.65 32.75"><defs><style>.a{fill:none;stroke:#000;stroke-linecap:round;stroke-linejoin:round;stroke-width:0.75px;}</style></defs><title>223</title><path class="a" d="M15.19,18.45H12a.87.87,0,0,1-.7-.35.89.89,0,0,1-.21-.71l.81-3.12a.49.49,0,0,1,.5-.4h2.72a.5.5,0,0,1,.51.5V18S15.49,18.4,15.19,18.45Z" transform="translate(-0.67 0.37)"/><path class="a" d="M26.82,28.12a1,1,0,0,1,1,1,1,1,0,0,1-1.92,0A1,1,0,0,1,26.82,28.12Z" transform="translate(-0.67 0.37)"/><path class="a" d="M18.21,30a1,1,0,0,1-1-1,1,1,0,1,1,1.91,0A1,1,0,0,1,18.21,30Z" transform="translate(-0.67 0.37)"/><path class="a" d="M9.59,30a1,1,0,0,1-.95-1,1,1,0,1,1,1.91,0A1,1,0,0,1,9.59,30Z" transform="translate(-0.67 0.37)"/><path class="a" d="M9.59,3.49a1,1,0,0,1-.95-1,1,1,0,1,1,1.91,0A1,1,0,0,1,9.59,3.49Z" transform="translate(-0.67 0.37)"/><path class="a" d="M23.75,23.84h5.09a1,1,0,0,0,.9-1.06V17.54a1,1,0,0,0-.9-1.05H20.17v-3A2.4,2.4,0,0,0,17.8,11.1h-.5L12,2.28A2.29,2.29,0,0,0,10,0,2.38,2.38,0,0,0,7.73,1.12L1.42,10.24c-1,1.41.18,4.28,3.16,4.28a3.59,3.59,0,0,0,3.57-3.58v-.1a.39.39,0,0,0-.4-.4H6.84a.38.38,0,0,0-.35.25l-.38,1.36L4.44,12s-.1-1.33-.1-1.38L10.1,5.5l2.42,5.6h-.86A2.37,2.37,0,0,0,9.34,13L7.53,20a3.25,3.25,0,0,0,3.17,3.88h2v2.37H8.33a2.94,2.94,0,0,0-2.06.85,2.89,2.89,0,0,0,2,4.94H28a2.93,2.93,0,0,0,2.07-.86,2.89,2.89,0,0,0-2-4.93H23.75Z" transform="translate(-0.67 0.37)"/><path class="a" d="M24.65,18.8h2.52" transform="translate(-0.67 0.37)"/><path class="a" d="M24.65,21.09h2.52" transform="translate(-0.67 0.37)"/><line class="a" x1="9.43" y1="5.88" x2="11.95" y2="3.67"/><line class="a" x1="11.84" y1="11.46" x2="16.63" y2="11.47"/><line class="a" x1="11.98" y1="24.21" x2="23.09" y2="24.21"/><line class="a" x1="19.5" y1="16.89" x2="19.5" y2="24.15"/><line class="a" x1="11.99" y1="26.58" x2="23.08" y2="26.58"/></svg>