<svg xmlns="http://www.w3.org/2000/svg" viewBox="0 0 32.66 32.65"><defs><style>.a{fill:none;stroke:#000;stroke-linecap:round;stroke-linejoin:round;stroke-width:0.75px;}</style></defs><title>229</title><path class="a" d="M22.83,1.76V.05H0V32H15.66l7.17-7.17V13.94" transform="translate(0.33 0.32)"/><polyline class="a" points="15.99 32.27 15.32 24.74 23.16 25.1"/><line class="a" x1="7.89" y1="23.26" x2="10.36" y2="25.62"/><line class="a" x1="23.49" y1="7.04" x2="25.8" y2="9.46"/><path class="a" d="M25.91,3.7,7.56,22.94,6.43,26.15a.33.33,0,0,0,.2.43.36.36,0,0,0,.25,0L10,25.29,32,2.3A7,7,0,0,0,28,1.22h0a6.84,6.84,0,0,0-2.83.71,14.26,14.26,0,0,0-6.33,6.2" transform="translate(0.33 0.32)"/><line class="a" x1="5.1" y1="6.98" x2="16.65" y2="6.98"/><line class="a" x1="5.1" y1="12.09" x2="12.93" y2="12.09"/><line class="a" x1="5.1" y1="17.2" x2="9.22" y2="17.2"/></svg>