<?xml version="1.0" encoding="utf-8"?>
<!-- Generator: Adobe Illustrator 24.0.0, SVG Export Plug-In . SVG Version: 6.00 Build 0)  -->
<svg version="1.1" id="Layer_1" xmlns="http://www.w3.org/2000/svg" xmlns:xlink="http://www.w3.org/1999/xlink" x="0px" y="0px"
	 viewBox="0 0 256 256" style="enable-background:new 0 0 256 256;" xml:space="preserve">
<style type="text/css">
	.st0{fill:#8699A3;}
</style>
<g>
	<path class="st0" d="M178.15,144.87c-10.92,15.25-16.19,33.78-13.75,56.09c52.86-9.32,91.61-38.53,91.61-72.92
		c0-8.96-2.65-17.58-7.49-25.55C222.08,107.18,194.54,121.96,178.15,144.87z"/>
	<path class="st0" d="M119.5,203.94c-1.37-68.07-9.92-103.46-32.47-147.95c-9.3,1.9-18.12,4.37-26.32,7.39
		c34.38,38.9,50.3,77.84,51.21,140.12C114.4,203.71,116.94,203.84,119.5,203.94z"/>
	<path class="st0" d="M89.86,153.25c5.67,13.94,8.18,31.76,7.87,48.75c2.74,0.33,5.53,0.69,8.34,1
		c0.6-66.82-34.98-113.1-65.54-130.38c-7.61,4.22-14.35,9-20.04,14.23C57.82,102.65,78.95,126.52,89.86,153.25z"/>
	<path class="st0" d="M90.76,200.83c2.39-22.28-2.88-40.77-13.78-55.97c-16.24-22.67-43.4-37.41-69.59-42.27
		C2.61,110.51,0,119.15,0,128.04C0,162.24,38.32,191.31,90.76,200.83z"/>
	<path class="st0" d="M127.99,204.11c0.81,0,1.6,0,2.38-0.03c0.04-47.75,2.19-97.26,14.24-151.48c-5.44-0.39-11-0.6-16.63-0.6
		c-5.76,0-11.42,0.21-16.97,0.69c12.04,54.13,14.19,103.68,14.21,151.39C126.17,204.11,127.07,204.11,127.99,204.11z"/>
	<path class="st0" d="M143.21,203.55c0.9-62.41,16.89-101.39,51.39-140.4c-8.09-2.94-16.81-5.36-25.97-7.21
		c-22.58,44.52-31.14,79.92-32.48,148.04C138.53,203.86,140.87,203.74,143.21,203.55z"/>
	<path class="st0" d="M149.05,203.09c2.82-0.28,5.6-0.58,8.34-0.95c-0.32-17.02,2.19-34.93,7.88-48.88
		c10.93-26.88,32.26-50.86,69.96-66.65c-5.74-5.23-12.53-10-20.19-14.24C184.36,89.47,148.42,135.94,149.05,203.09z"/>
</g>
</svg>
