<svg xmlns="http://www.w3.org/2000/svg" viewBox="0 0 256 256"><path d="M178.1 144.9c-10.9 15.2-16.2 33.8-13.8 56.1 52.9-9.3 91.6-38.5 91.6-72.9 0-9-2.6-17.6-7.5-25.6-26.3 4.7-53.9 19.5-70.3 42.4zM119.5 203.9c-1.4-68-9.9-103.4-32.5-147.9-9.3 1.9-18.1 4.4-26.3 7.4 34.4 38.9 50.3 77.8 51.2 140.1 2.5.2 5 .3 7.6.4z"/><path d="M89.9 153.2c5.7 13.9 8.2 31.8 7.9 48.8 2.7.3 5.5.7 8.3 1 .6-66.8-35-113.1-65.5-130.4-7.6 4.2-14.4 9-20 14.2 37.2 15.9 58.3 39.7 69.3 66.4z"/><path d="M90.8 200.8c2.4-22.3-2.9-40.8-13.8-56-16.2-22.7-43.4-37.4-69.6-42.3-4.8 8-7.4 16.7-7.4 25.5 0 34.2 38.3 63.3 90.8 72.8zM128 204.1c.8 0 1.6 0 2.4 0 0-47.8 2.2-97.3 14.2-151.5-5.4-.4-11-.6-16.6-.6-5.8 0-11.4.2-17 .7 12 54.1 14.2 103.7 14.2 151.4 1 0 1.9 0 2.8 0zM143.2 203.6c.9-62.4 16.9-101.4 51.4-140.4-8.1-2.9-16.8-5.4-26-7.2-22.6 44.5-31.1 79.9-32.5 148 2.4-.1 4.8-.3 7.1-.4z"/><path d="M149.1 203.1c2.8-.3 5.6-.6 8.3-.9-.3-17 2.2-34.9 7.9-48.9 10.9-26.9 32.3-50.9 70-66.7-5.7-5.2-12.5-10-20.2-14.2-30.7 17.1-66.7 63.5-66 130.7z"/></svg>