<?xml version="1.0" encoding="utf-8"?>
<!-- Generator: Adobe Illustrator 24.0.0, SVG Export Plug-In . SVG Version: 6.00 Build 0)  -->
<svg version="1.1" id="Layer_1" xmlns="http://www.w3.org/2000/svg" xmlns:xlink="http://www.w3.org/1999/xlink" x="0px" y="0px"
	 viewBox="0 0 256 256" style="enable-background:new 0 0 256 256;" xml:space="preserve">
<g>
	<path d="M178.1,144.9c-10.9,15.2-16.2,33.8-13.8,56.1c52.9-9.3,91.6-38.5,91.6-72.9c0-9-2.6-17.6-7.5-25.6
		C222.1,107.2,194.5,122,178.1,144.9z"/>
	<path d="M119.5,203.9C118.1,135.9,109.6,100.5,87,56c-9.3,1.9-18.1,4.4-26.3,7.4c34.4,38.9,50.3,77.8,51.2,140.1
		C114.4,203.7,116.9,203.8,119.5,203.9z"/>
	<path d="M89.9,153.2c5.7,13.9,8.2,31.8,7.9,48.8c2.7,0.3,5.5,0.7,8.3,1c0.6-66.8-35-113.1-65.5-130.4c-7.6,4.2-14.4,9-20,14.2
		C57.8,102.7,78.9,126.5,89.9,153.2z"/>
	<path d="M90.8,200.8c2.4-22.3-2.9-40.8-13.8-56c-16.2-22.7-43.4-37.4-69.6-42.3C2.6,110.5,0,119.2,0,128
		C0,162.2,38.3,191.3,90.8,200.8z"/>
	<path d="M128,204.1c0.8,0,1.6,0,2.4,0c0-47.8,2.2-97.3,14.2-151.5c-5.4-0.4-11-0.6-16.6-0.6c-5.8,0-11.4,0.2-17,0.7
		c12,54.1,14.2,103.7,14.2,151.4C126.2,204.1,127.1,204.1,128,204.1z"/>
	<path d="M143.2,203.6c0.9-62.4,16.9-101.4,51.4-140.4c-8.1-2.9-16.8-5.4-26-7.2c-22.6,44.5-31.1,79.9-32.5,148
		C138.5,203.9,140.9,203.7,143.2,203.6z"/>
	<path d="M149.1,203.1c2.8-0.3,5.6-0.6,8.3-0.9c-0.3-17,2.2-34.9,7.9-48.9c10.9-26.9,32.3-50.9,70-66.7c-5.7-5.2-12.5-10-20.2-14.2
		C184.4,89.5,148.4,135.9,149.1,203.1z"/>
</g>
</svg>
