<svg xmlns="http://www.w3.org/2000/svg" viewBox="0 0 32.75 27.65"><defs><style>.a{fill:none;stroke:#000;stroke-linecap:round;stroke-linejoin:round;stroke-width:0.75px;}</style></defs><title>236</title><path class="a" d="M20.35,7.88a2.54,2.54,0,0,1-2.22,2.3,5.74,5.74,0,0,0-3,1.09h0a5.88,5.88,0,0,0-2.39,4.23,2.57,2.57,0,0,1-2.31,2.31A5.83,5.83,0,0,0,7.51,28.35a5.8,5.8,0,0,0,3.08,1.09h.34a5.83,5.83,0,0,0,5.81-5.3,2.55,2.55,0,0,1,2.34-2.34,5.81,5.81,0,0,0,5.27-5.3h0a2.56,2.56,0,0,1,2.34-2.32,5.75,5.75,0,0,0,3.59-1.68,5.83,5.83,0,1,0-9.94-4.63Z" transform="translate(0.38 -2.17)"/><circle class="a" cx="26.54" cy="6.21" r="2.98"/><circle class="a" cx="26.54" cy="6.21" r="1.01"/><circle class="a" cx="18.92" cy="13.84" r="2.98"/><circle class="a" cx="18.92" cy="13.84" r="1.01"/><circle class="a" cx="11.31" cy="21.45" r="2.98"/><circle class="a" cx="11.31" cy="21.45" r="1.01"/><path class="a" d="M24.44,16.08a6,6,0,0,0-6-6" transform="translate(0.38 -2.17)"/><path class="a" d="M1.17,11.57a.25.25,0,0,0,.12-.28,4.72,4.72,0,0,1,0-2.36.26.26,0,0,0-.12-.29L0,8A6,6,0,0,1,1.05,6.15l1.17.67a.27.27,0,0,0,.31,0,4.69,4.69,0,0,1,2-1.19.26.26,0,0,0,.19-.24V4a6.17,6.17,0,0,1,2.1,0V5.36a.26.26,0,0,0,.19.24,4.75,4.75,0,0,1,2,1.19.26.26,0,0,0,.3,0l1.18-.67a6.22,6.22,0,0,1,1,1.82l-1.17.67a.26.26,0,0,0-.12.29,4.72,4.72,0,0,1,0,2.36.25.25,0,0,0,.12.28l1.17.68a6.49,6.49,0,0,1-1,1.82l-1.18-.68a.24.24,0,0,0-.3,0,4.67,4.67,0,0,1-2,1.18.26.26,0,0,0-.19.24v1.36a6.17,6.17,0,0,1-2.1,0V14.85a.26.26,0,0,0-.19-.24,4.67,4.67,0,0,1-2-1.18.26.26,0,0,0-.31,0l-1.17.68a6.26,6.26,0,0,1-1-1.82Z" transform="translate(0.38 -2.17)"/><path class="a" d="M5.81,7.46a2.65,2.65,0,1,1-2.64,2.65A2.65,2.65,0,0,1,5.81,7.46Z" transform="translate(0.38 -2.17)"/></svg>