<?xml version="1.0" encoding="utf-8"?>
<!-- Generator: Adobe Illustrator 24.0.0, SVG Export Plug-In . SVG Version: 6.00 Build 0)  -->
<svg version="1.1" id="Layer_1" xmlns="http://www.w3.org/2000/svg" xmlns:xlink="http://www.w3.org/1999/xlink" x="0px" y="0px"
	 viewBox="0 0 256 256" style="enable-background:new 0 0 256 256;" xml:space="preserve">
<style type="text/css">
	.st0{fill:#8699A3;}
</style>
<g>
	<path class="st0" d="M128,0C57.34,0,0,57.34,0,128s57.34,128,128,128s128-57.34,128-128S198.66,0,128,0z M128,1.02
		c69.63,0,126.98,57.34,126.98,126.98c0,1.02,0,1.02,0,2.05c-1.02-3.07-4.1-5.12-7.17-7.17c-6.14-5.12-10.24-21.5-10.24-27.65l0,0
		c0,4.1,1.02,9.22,1.02,14.34c0,9.22-1.02,18.43-2.05,29.7c-4.1,31.74-19.46,64.51-28.67,74.75l-1.02,1.02l-2.05,1.02l0,0
		c-21.5,17.41-41.98,23.55-75.78,23.55l0,0c-34.82,0-54.27-6.14-75.78-23.55l0,0l-2.05-2.05c0,0-1.02-1.02,0-1.02
		c-9.22-10.24-23.55-44.03-28.67-74.75c-1.02-10.24-2.05-20.48-2.05-29.7c0-4.1,0-9.22,1.02-13.31v1.02
		c-1.02,6.14-3.07,17.41-9.22,21.5c-4.1,2.05-7.17,6.14-9.22,12.29c0-1.02,0-1.02,0-2.05C1.02,58.37,58.37,1.02,128,1.02z"/>
	<path class="st0" d="M24.58,141.31C24.58,141.31,24.58,142.34,24.58,141.31c0,2.05,1.02,3.07,1.02,4.1l0,0
		c0,1.02,1.02,2.05,1.02,4.1v1.02c0,1.02,1.02,2.05,1.02,3.07l0,0c0,1.02,1.02,2.05,1.02,4.1v1.02c0,1.02,1.02,2.05,1.02,3.07
		c0,0,0,0,0,1.02c1.02,1.02,1.02,3.07,1.02,4.1v1.02c0,1.02,1.02,2.05,1.02,3.07v1.02c0,1.02,1.02,2.05,1.02,3.07v1.02
		c0,1.02,1.02,2.05,1.02,2.05v1.02c0,1.02,1.02,2.05,1.02,3.07v1.02c0,1.02,1.02,2.05,1.02,2.05v1.02c0,1.02,1.02,2.05,1.02,3.07
		v1.02c0,1.02,1.02,1.02,1.02,2.05c0,0,0,0,0,1.02s1.02,2.05,1.02,3.07c0,0,0,0,0,1.02c0,1.02,1.02,1.02,1.02,2.05l0,0l0,0
		c4.1,6.14,9.22,7.17,11.26,6.14c1.02-1.02,2.05-5.12,1.02-12.29c-1.02-2.05-1.02-3.07-2.05-5.12c0-1.02,0-1.02-1.02-2.05
		c-1.02-3.07-2.05-6.14-2.05-9.22v-1.02c-1.02-3.07-1.02-5.12-2.05-8.19c0-1.02,0-2.05-1.02-3.07c0-2.05-1.02-4.1-1.02-6.14
		c0-1.02,0-2.05-1.02-3.07c0-2.05-1.02-4.1-1.02-6.14c0-1.02,0-2.05-1.02-3.07c0-2.05-1.02-4.1-1.02-6.14c0-1.02,0-2.05,0-3.07
		c0-3.07-1.02-6.14-1.02-9.22c-1.02-26.62-1.02-52.22,5.12-68.61c1.02-2.05,2.05-4.1,2.05-5.12c1.02-1.02,1.02-1.02,1.02-1.02
		C58.37,40.96,93.18,33.79,128,33.79s68.61,6.14,81.92,19.46c0,0,0,0,1.02,1.02c1.02,1.02,2.05,2.05,2.05,5.12
		c6.14,15.36,6.14,41.98,2.05,70.66c0,3.07-1.02,6.14-1.02,9.22c0,1.02,0,2.05,0,3.07c0,2.05-1.02,4.1-1.02,6.14
		c0,1.02,0,2.05-1.02,3.07c0,2.05-1.02,4.1-1.02,5.12s0,2.05-1.02,3.07c0,2.05-1.02,4.1-1.02,5.12s-1.02,2.05-1.02,3.07
		c-1.02,2.05-1.02,4.1-2.05,6.14c0,1.02,0,2.05-1.02,3.07c-1.02,3.07-2.05,6.14-2.05,8.19c0,1.02-1.02,2.05-1.02,3.07
		c0,2.05-1.02,3.07-1.02,5.12c-1.02,6.14,0,11.26,1.02,11.26c1.02,1.02,6.14-1.02,10.24-6.14c1.02-3.07,3.07-6.14,4.1-9.22l0,0
		c1.02-2.05,2.05-4.1,3.07-7.17l0,0c0-1.02,1.02-2.05,1.02-3.07l0,0c0-1.02,1.02-2.05,1.02-4.1l0,0c0-1.02,1.02-2.05,1.02-4.1l0,0
		c0-1.02,1.02-2.05,1.02-4.1c0,0,0,0,0-1.02c0-1.02,1.02-2.05,1.02-4.1l0,0c0-1.02,1.02-2.05,1.02-4.1v-1.02
		c0-1.02,1.02-2.05,1.02-4.1l0,0c0-1.02,1.02-3.07,1.02-4.1v-1.02c0-1.02,1.02-2.05,1.02-4.1l0,0c0-1.02,0-3.07,1.02-4.1v-1.02
		c0-1.02,0-3.07,1.02-4.1c1.02-10.24,2.05-19.46,2.05-28.67c0-16.38-2.05-30.72-8.19-43.01c-4.1-9.22-10.24-17.41-19.46-22.53
		c-21.5-13.31-46.08-21.5-70.66-22.53c-3.07,0-6.14,0-9.22,0l0,0c-3.07,0-6.14,0-9.22,0C95.23,22.53,70.66,29.7,49.15,44.03
		c-9.22,5.12-15.36,12.29-19.46,22.53c-5.12,12.29-8.19,25.6-8.19,41.98c0,9.22,1.02,18.43,2.05,28.67
		C24.58,138.24,24.58,140.29,24.58,141.31z"/>
	<path class="st0" d="M169.98,224.26L169.98,224.26c-1.02,0-2.05,1.02-3.07,1.02c0,0,0,0-1.02,0c-1.02,0-2.05,1.02-4.1,1.02
		c-10.24,2.05-21.5,3.07-33.79,3.07l0,0c-12.29,0-23.55-1.02-33.79-3.07c-1.02-1.02-2.05-1.02-3.07-1.02
		c-1.02,0-2.05-1.02-3.07-1.02l0,0c-6.14-1.02-14.34-3.07-14.34-2.05c0,1.02,4.1,5.12,8.19,7.17l0,0l0,0h1.02
		c1.02,0,2.05,1.02,4.1,1.02l0,0c1.02,0,2.05,1.02,3.07,1.02c0,0,0,0,1.02,0c1.02,0,2.05,1.02,4.1,1.02h1.02
		c1.02,0,3.07,1.02,4.1,1.02h1.02c1.02,0,3.07,0,4.1,1.02l0,0c1.02,0,3.07,0,4.1,0h1.02c2.05,0,3.07,0,5.12,0h1.02
		c2.05,0,3.07,0,5.12,0h1.02c2.05,0,4.1,0,5.12,0l0,0c2.05,0,4.1,0,5.12,0h1.02c2.05,0,3.07,0,5.12,0h1.02c2.05,0,3.07,0,5.12,0
		h1.02c1.02,0,3.07,0,4.1,0c0,0,0,0,1.02,0s3.07,0,4.1-1.02h1.02c1.02,0,3.07,0,4.1-1.02h1.02c1.02,0,3.07-1.02,4.1-1.02h1.02
		c1.02,0,2.05-1.02,3.07-1.02h1.02c1.02,0,2.05-1.02,3.07-1.02h1.02c0,0,0,0,1.02,0l0,0c4.1-2.05,8.19-6.14,8.19-7.17
		C183.3,221.18,176.13,222.21,169.98,224.26z"/>
	<path class="st0" d="M208.9,62.46c-1.02-1.02-1.02-3.07-2.05-4.1c0-1.02-1.02-1.02-1.02-1.02C194.56,46.08,164.86,39.94,128,39.94
		c-35.84,0-65.54,7.17-76.8,17.41c0,0,0,0-1.02,1.02c-1.02,1.02-1.02,3.07-2.05,4.1c-5.12,14.34-6.14,37.89-2.05,66.56
		c4.1,25.6,10.24,51.2,18.43,72.7c1.02,4.1,3.07,5.12,6.14,7.17c8.19,5.12,16.38,9.22,26.62,11.26s21.5,3.07,31.74,3.07l0,0
		c11.26,0,22.53-1.02,31.74-3.07c10.24-2.05,18.43-5.12,26.62-11.26c3.07-2.05,4.1-4.1,6.14-7.17c8.19-20.48,14.34-46.08,18.43-72.7
		C215.04,100.35,215.04,76.8,208.9,62.46z M47.1,67.58c0-2.05,1.02-3.07,2.05-5.12l0,0c-1.02,25.6,0,61.44,4.1,100.35
		c-1.02-4.1-2.05-9.22-3.07-14.34C47.1,117.76,46.08,90.11,47.1,67.58z M64.51,202.75c-8.19-52.22-9.22-111.62-8.19-148.48
		l1.02-1.02c-1.02,37.89,0,99.33,9.22,153.6C66.56,205.82,65.54,203.78,64.51,202.75z M191.49,49.15c0,8.19,0,18.43,0,28.67h-1.02
		c0-10.24,0-20.48,0-29.7C190.46,49.15,190.46,49.15,191.49,49.15z M188.42,145.41c1.02-14.34,1.02-29.7,1.02-43.01
		c0-4.1,0-7.17,0-8.19h1.02c0,28.67-1.02,60.42-4.1,89.09C187.39,181.25,187.39,163.84,188.42,145.41z M175.1,216.06
		c-1.02,0-1.02,0-2.05,1.02c1.02-10.24,2.05-21.5,3.07-33.79h1.02C178.18,194.56,176.13,205.82,175.1,216.06z M150.53,222.21h-1.02
		c1.02-11.26,1.02-24.58,1.02-38.91h1.02C151.55,197.63,151.55,210.94,150.53,222.21z M107.52,222.21h-1.02
		c-1.02-11.26-1.02-24.58-1.02-38.91h1.02C106.5,197.63,107.52,210.94,107.52,222.21z M96.26,77.82h-1.02c0-12.29,0-24.58,0-35.84
		h1.02C96.26,53.25,96.26,65.54,96.26,77.82z M67.58,77.82h-1.02c0-10.24,0-20.48,0-28.67c0,0,1.02,0,1.02-1.02
		C67.58,57.34,67.58,67.58,67.58,77.82z M84.99,44.03h1.02c0,10.24,0,22.53,0,34.82h-1.02C84.99,65.54,84.99,54.27,84.99,44.03z
		 M86.02,92.16h-1.02h-5.12v30.72h5.12h1.02h4.1v11.26h-3.07h-2.05h-5.12v46.08h-1.02h-1.02h-7.17h-1.02h-1.02l-1.02-28.67
		l-2.05-69.63v-2.05l0,0h1.02h8.19h1.02h8.19h1.02h8.19l0,0v12.29l0,0H86.02L86.02,92.16z M87.04,120.83h-2.05
		c0-9.22,0-18.43,0-27.65h1.02C86.02,102.4,87.04,111.62,87.04,120.83z M113.66,40.96h1.02c0,11.26,0,24.58,0,37.89h-1.02
		C113.66,64.51,113.66,52.22,113.66,40.96z M123.9,39.94v37.89h-1.02V39.94C123.9,39.94,123.9,39.94,123.9,39.94z M142.34,40.96
		h1.02c0,11.26,0,24.58,0,37.89h-1.02C142.34,64.51,142.34,52.22,142.34,40.96z M162.82,41.98c0,11.26,0,23.55,0,35.84h-1.02
		c0-12.29,0-24.58,0-35.84C161.79,41.98,162.82,41.98,162.82,41.98z M179.2,180.22h-1.02h-4.1V91.14l0,0h-1.02h-1.02h-8.19l0,0
		V79.87l0,0h8.19h1.02h8.19h1.02h8.19h1.02h7.17v11.26h-7.17h-1.02h-2.05l-3.07,89.09H179.2z M152.58,171.01
		c0-9.22,0-23.55-1.02-31.74c0-2.05,0-3.07,0-4.1l0,0h-8.19h-1.02h-7.17v45.06h-1.02h-1.02h-8.19h-1.02l-1.02-66.56V79.87l0,0h1.02
		h9.22h1.02h8.19h1.02h8.19l0,0c0,1.02,1.02,2.05,1.02,3.07c4.1,8.19,6.14,18.43,8.19,28.67c1.02,3.07,1.02,7.17,1.02,10.24
		c2.05,19.46,2.05,38.91,1.02,54.27c0,2.05,0,3.07,0,5.12h-2.05h-1.02h-7.17l0,0C152.58,180.22,152.58,176.13,152.58,171.01z
		 M153.6,78.85L153.6,78.85h-1.02l0,0c0-13.31,0-25.6,0-36.86h1.02C153.6,53.25,153.6,65.54,153.6,78.85z M106.5,180.22h-1.02h-3.07
		l-2.05-100.35h4.1h1.02h8.19h1.02v100.35l0,0H106.5L106.5,180.22z M162.82,107.52c0-2.05-1.02-5.12-1.02-7.17c0-2.05,0-5.12,0-7.17
		h1.02C162.82,98.3,162.82,103.42,162.82,107.52z M182.27,77.82h-1.02c0-11.26,0-22.53,0-32.77h1.02
		C182.27,56.32,182.27,66.56,182.27,77.82z M172.03,77.82h-1.02c0-12.29,0-23.55,0-34.82h1.02
		C172.03,54.27,172.03,65.54,172.03,77.82z M134.14,39.94v37.89h-1.02V39.94C133.12,39.94,134.14,39.94,134.14,39.94z M105.47,77.82
		h-1.02c0-13.31,0-25.6,0-36.86h1.02C105.47,52.22,105.47,65.54,105.47,77.82z M76.8,77.82h-1.02c0-11.26,0-22.53,0-31.74h1.02
		C76.8,55.3,76.8,66.56,76.8,77.82z M70.66,182.27h1.02c1.02,10.24,2.05,20.48,4.1,29.7c-1.02,0-1.02-1.02-2.05-1.02
		C72.7,202.75,71.68,192.51,70.66,182.27z M78.85,182.27h1.02c1.02,12.29,2.05,23.55,4.1,33.79c-1.02,0-1.02,0-2.05-1.02
		C80.9,205.82,79.87,194.56,78.85,182.27z M90.11,219.14c-2.05-21.5-4.1-51.2-4.1-81.92h1.02c1.02,30.72,2.05,60.42,4.1,81.92
		C91.14,219.14,90.11,219.14,90.11,219.14z M98.3,220.16c-2.05-30.72-3.07-80.9-3.07-126.98h1.02c0,46.08,1.02,95.23,4.1,126.98
		C99.33,221.18,98.3,220.16,98.3,220.16z M113.66,182.27h1.02c0,15.36,0,28.67,1.02,39.94h-1.02
		C114.69,211.97,113.66,197.63,113.66,182.27z M122.88,223.23v-40.96h1.02v40.96C123.9,223.23,123.9,223.23,122.88,223.23z
		 M132.1,182.27h1.02v39.94h-1.02V182.27z M142.34,137.22h1.02c0,32.77-1.02,63.49-1.02,84.99h-1.02
		C141.31,201.73,142.34,169.98,142.34,137.22z M159.74,182.27h1.02c-1.02,14.34-1.02,26.62-2.05,37.89h-1.02
		C158.72,209.92,158.72,196.61,159.74,182.27z M171.01,93.18L171.01,93.18c1.02,2.05,0,36.86,0,62.46
		c-1.02,23.55-2.05,46.08-4.1,62.46c-1.02,0-1.02,0-2.05,0C168.96,187.39,171.01,137.22,171.01,93.18z M185.34,182.27h1.02
		c-1.02,10.24-2.05,19.46-4.1,28.67c-1.02,0-1.02,1.02-2.05,1.02C183.3,202.75,184.32,193.54,185.34,182.27z M199.68,93.18h1.02
		V77.82h-1.02c0-9.22,0-17.41,0-25.6c1.02,0,1.02,1.02,1.02,1.02c1.02,36.86,0,96.26-8.19,148.48c-1.02,1.02-1.02,3.07-2.05,4.1
		C196.61,168.96,198.66,128,199.68,93.18z M208.9,62.46L208.9,62.46c1.02,2.05,1.02,3.07,2.05,5.12c1.02,21.5,0,50.18-3.07,80.9
		c-1.02,5.12-2.05,9.22-3.07,14.34C208.9,123.9,208.9,88.06,208.9,62.46z"/>
	<path class="st0" d="M148.48,111.62c-1.02-8.19-3.07-14.34-5.12-18.43c0-1.02,0-1.02,0-2.05l0,0l0,0l0,0c-2.05,0-7.17,0-7.17,0l0,0
		v32.77l0,0h7.17l0,0h7.17l0,0C150.53,123.9,149.5,117.76,148.48,111.62z M142.34,95.23c1.02,1.02,1.02,2.05,1.02,4.1
		c0,7.17,0,15.36,0,22.53h-1.02C142.34,112.64,142.34,103.42,142.34,95.23z"/>
</g>
</svg>
