<?xml version="1.0" encoding="utf-8"?>
<!-- Generator: Adobe Illustrator 24.0.0, SVG Export Plug-In . SVG Version: 6.00 Build 0)  -->
<svg version="1.1" id="Layer_1" xmlns="http://www.w3.org/2000/svg" xmlns:xlink="http://www.w3.org/1999/xlink" x="0px" y="0px"
	 viewBox="0 0 25 25" style="enable-background:new 0 0 25 25;" xml:space="preserve">
<style type="text/css">
	.st0{fill:#8699A3;}
</style>
<g>
	<path class="st0" d="M12.5,0C5.6,0,0,5.6,0,12.5C0,19.4,5.6,25,12.5,25C19.4,25,25,19.4,25,12.5C25,5.6,19.4,0,12.5,0z M12.5,0.1
		c6.8,0,12.4,5.6,12.4,12.4c0,0.1,0,0.1,0,0.2c-0.1-0.3-0.4-0.5-0.7-0.7c-0.6-0.5-1-2.1-1-2.7l0,0c0,0.4,0.1,0.9,0.1,1.4
		c0,0.9-0.1,1.8-0.2,2.9c-0.4,3.1-1.9,6.3-2.8,7.3c0,0-0.1,0.1-0.1,0.1L20,21.1l0,0c-2.1,1.7-4.1,2.3-7.4,2.3h0
		c-3.4,0-5.3-0.6-7.4-2.3l0,0c0,0-0.2-0.2-0.2-0.2c0,0-0.1-0.1,0-0.1c-0.9-1-2.3-4.3-2.8-7.3c-0.1-1-0.2-2-0.2-2.9
		c0-0.4,0-0.9,0.1-1.3l0,0.1c-0.1,0.6-0.3,1.7-0.9,2.1c-0.4,0.2-0.7,0.6-0.9,1.2c0-0.1,0-0.1,0-0.2C0.1,5.7,5.7,0.1,12.5,0.1z"/>
	<path class="st0" d="M2.4,13.8C2.4,13.8,2.4,13.9,2.4,13.8c0,0.2,0.1,0.3,0.1,0.4c0,0,0,0,0,0c0,0.1,0.1,0.2,0.1,0.4
		c0,0,0,0.1,0,0.1c0,0.1,0.1,0.2,0.1,0.3c0,0,0,0,0,0c0,0.1,0.1,0.2,0.1,0.4c0,0,0,0.1,0,0.1c0,0.1,0.1,0.2,0.1,0.3c0,0,0,0,0,0.1
		C3,16,3,16.2,3,16.3c0,0,0,0.1,0,0.1c0,0.1,0.1,0.2,0.1,0.3c0,0,0,0.1,0,0.1c0,0.1,0.1,0.2,0.1,0.3c0,0,0,0.1,0,0.1
		c0,0.1,0.1,0.2,0.1,0.2c0,0,0,0.1,0,0.1c0,0.1,0.1,0.2,0.1,0.3c0,0,0,0.1,0,0.1c0,0.1,0.1,0.2,0.1,0.2c0,0,0,0.1,0,0.1
		c0,0.1,0.1,0.2,0.1,0.3c0,0,0,0.1,0,0.1c0,0.1,0.1,0.1,0.1,0.2c0,0,0,0,0,0.1c0,0.1,0.1,0.2,0.1,0.3c0,0,0,0,0,0.1
		c0,0.1,0.1,0.1,0.1,0.2c0,0,0,0,0,0h0c0.4,0.6,0.9,0.7,1.1,0.6c0.1-0.1,0.2-0.5,0.1-1.2c-0.1-0.2-0.1-0.3-0.2-0.5
		c0-0.1,0-0.1-0.1-0.2c-0.1-0.3-0.2-0.6-0.2-0.9c0,0,0-0.1,0-0.1c-0.1-0.3-0.1-0.5-0.2-0.8c0-0.1,0-0.2-0.1-0.3
		c0-0.2-0.1-0.4-0.1-0.6c0-0.1,0-0.2-0.1-0.3c0-0.2-0.1-0.4-0.1-0.6c0-0.1,0-0.2-0.1-0.3c0-0.2-0.1-0.4-0.1-0.6c0-0.1,0-0.2,0-0.3
		c0-0.3-0.1-0.6-0.1-0.9C3.6,9.9,3.6,7.4,4.2,5.8c0.1-0.2,0.2-0.4,0.2-0.5c0.1-0.1,0.1-0.1,0.1-0.1c1.2-1.2,4.6-1.9,8-1.9
		c3.4,0,6.7,0.6,8,1.9c0,0,0,0,0.1,0.1c0.1,0.1,0.2,0.2,0.2,0.5c0.6,1.5,0.6,4.1,0.2,6.9c0,0.3-0.1,0.6-0.1,0.9c0,0.1,0,0.2,0,0.3
		c0,0.2-0.1,0.4-0.1,0.6c0,0.1,0,0.2-0.1,0.3c0,0.2-0.1,0.4-0.1,0.5c0,0.1,0,0.2-0.1,0.3c0,0.2-0.1,0.4-0.1,0.5
		c0,0.1-0.1,0.2-0.1,0.3c-0.1,0.2-0.1,0.4-0.2,0.6c0,0.1,0,0.2-0.1,0.3c-0.1,0.3-0.2,0.6-0.2,0.8c0,0.1-0.1,0.2-0.1,0.3
		c0,0.2-0.1,0.3-0.1,0.5c-0.1,0.6,0,1.1,0.1,1.1c0.1,0.1,0.6-0.1,1-0.6c0.1-0.3,0.3-0.6,0.4-0.9c0,0,0,0,0,0
		c0.1-0.2,0.2-0.4,0.3-0.7c0,0,0,0,0,0c0-0.1,0.1-0.2,0.1-0.3c0,0,0,0,0,0c0-0.1,0.1-0.2,0.1-0.4c0,0,0,0,0,0c0-0.1,0.1-0.2,0.1-0.4
		c0,0,0,0,0,0c0-0.1,0.1-0.2,0.1-0.4c0,0,0,0,0-0.1c0-0.1,0.1-0.2,0.1-0.4c0,0,0,0,0,0c0-0.1,0.1-0.2,0.1-0.4c0,0,0-0.1,0-0.1
		c0-0.1,0.1-0.2,0.1-0.4c0,0,0,0,0,0c0-0.1,0.1-0.3,0.1-0.4c0,0,0-0.1,0-0.1c0-0.1,0.1-0.2,0.1-0.4c0,0,0,0,0,0c0-0.1,0-0.3,0.1-0.4
		c0,0,0-0.1,0-0.1c0-0.1,0-0.3,0.1-0.4c0.1-1,0.2-1.9,0.2-2.8c0-1.6-0.2-3-0.8-4.2c-0.4-0.9-1-1.7-1.9-2.2c-2.1-1.3-4.5-2.1-6.9-2.2
		c-0.3,0-0.6,0-0.9,0h0c-0.3,0-0.6,0-0.9,0C9.3,2.2,6.9,2.9,4.8,4.3C3.9,4.8,3.3,5.5,2.9,6.5C2.4,7.7,2.1,9,2.1,10.6
		c0,0.9,0.1,1.8,0.2,2.8C2.4,13.5,2.4,13.7,2.4,13.8z"/>
	<path class="st0" d="M16.6,21.9C16.6,21.9,16.6,21.9,16.6,21.9c-0.1,0-0.2,0.1-0.3,0.1c0,0,0,0-0.1,0c-0.1,0-0.2,0.1-0.4,0.1
		c-1,0.2-2.1,0.3-3.3,0.3h0c-1.2,0-2.3-0.1-3.3-0.3C9.1,22,9,22,8.9,22c-0.1,0-0.2-0.1-0.3-0.1c0,0,0,0,0,0
		c-0.6-0.1-1.4-0.3-1.4-0.2c0,0.1,0.4,0.5,0.8,0.7c0,0,0,0,0,0c0,0,0,0,0,0c0,0,0.1,0,0.1,0c0.1,0,0.2,0.1,0.4,0.1c0,0,0,0,0,0
		c0.1,0,0.2,0.1,0.3,0.1c0,0,0,0,0.1,0c0.1,0,0.2,0.1,0.4,0.1c0,0,0.1,0,0.1,0c0.1,0,0.3,0.1,0.4,0.1c0,0,0.1,0,0.1,0
		c0.1,0,0.3,0,0.4,0.1c0,0,0,0,0,0c0.1,0,0.3,0,0.4,0c0,0,0.1,0,0.1,0c0.2,0,0.3,0,0.5,0c0,0,0.1,0,0.1,0c0.2,0,0.3,0,0.5,0
		c0,0,0.1,0,0.1,0c0.2,0,0.4,0,0.5,0h0c0.2,0,0.4,0,0.5,0c0,0,0.1,0,0.1,0c0.2,0,0.3,0,0.5,0c0,0,0.1,0,0.1,0c0.2,0,0.3,0,0.5,0
		c0,0,0.1,0,0.1,0c0.1,0,0.3,0,0.4,0c0,0,0,0,0.1,0c0.1,0,0.3,0,0.4-0.1c0,0,0.1,0,0.1,0c0.1,0,0.3,0,0.4-0.1c0,0,0.1,0,0.1,0
		c0.1,0,0.3-0.1,0.4-0.1c0,0,0.1,0,0.1,0c0.1,0,0.2-0.1,0.3-0.1c0,0,0.1,0,0.1,0c0.1,0,0.2-0.1,0.3-0.1c0,0,0.1,0,0.1,0
		c0,0,0,0,0.1,0c0,0,0,0,0,0c0.4-0.2,0.8-0.6,0.8-0.7C17.9,21.6,17.2,21.7,16.6,21.9z"/>
	<path class="st0" d="M20.4,6.1c-0.1-0.1-0.1-0.3-0.2-0.4c0-0.1-0.1-0.1-0.1-0.1c-1.1-1.1-4-1.7-7.6-1.7C9,3.9,6.1,4.6,5,5.6
		c0,0,0,0-0.1,0.1C4.8,5.8,4.8,6,4.7,6.1c-0.5,1.4-0.6,3.7-0.2,6.5c0.4,2.5,1,5,1.8,7.1c0.1,0.4,0.3,0.5,0.6,0.7
		c0.8,0.5,1.6,0.9,2.6,1.1c1,0.2,2.1,0.3,3.1,0.3h0c1.1,0,2.2-0.1,3.1-0.3c1-0.2,1.8-0.5,2.6-1.1c0.3-0.2,0.4-0.4,0.6-0.7
		c0.8-2,1.4-4.5,1.8-7.1C21,9.8,21,7.5,20.4,6.1z M4.6,6.6c0-0.2,0.1-0.3,0.2-0.5c0,0,0,0,0,0c-0.1,2.5,0,6,0.4,9.8
		C5.1,15.5,5,15,4.9,14.5C4.6,11.5,4.5,8.8,4.6,6.6z M6.3,19.8C5.5,14.7,5.4,8.9,5.5,5.3c0,0,0.1-0.1,0.1-0.1c-0.1,3.7,0,9.7,0.9,15
		C6.5,20.1,6.4,19.9,6.3,19.8z M18.7,4.8c0,0.8,0,1.8,0,2.8h-0.1c0-1,0-2,0-2.9C18.6,4.8,18.6,4.8,18.7,4.8z M18.4,14.2
		c0.1-1.4,0.1-2.9,0.1-4.2c0-0.4,0-0.7,0-0.8h0.1c0,2.8-0.1,5.9-0.4,8.7C18.3,17.7,18.3,16,18.4,14.2z M17.1,21.1
		c-0.1,0-0.1,0-0.2,0.1c0.1-1,0.2-2.1,0.3-3.3h0.1C17.4,19,17.2,20.1,17.1,21.1z M14.7,21.7c0,0-0.1,0-0.1,0
		c0.1-1.1,0.1-2.4,0.1-3.8h0.1C14.8,19.3,14.8,20.6,14.7,21.7z M10.5,21.7c0,0-0.1,0-0.1,0c-0.1-1.1-0.1-2.4-0.1-3.8h0.1
		C10.4,19.3,10.5,20.6,10.5,21.7z M9.4,7.6l-0.1,0c0-1.2,0-2.4,0-3.5c0,0,0.1,0,0.1,0C9.4,5.2,9.4,6.4,9.4,7.6z M6.6,7.6l-0.1,0
		c0-1,0-2,0-2.8c0,0,0.1,0,0.1-0.1C6.6,5.6,6.6,6.6,6.6,7.6z M8.3,4.3c0,0,0.1,0,0.1,0c0,1,0,2.2,0,3.4l-0.1,0
		C8.3,6.4,8.3,5.3,8.3,4.3z M8.4,9H8.3H7.8V12h0.5h0.1h0.4v1.1H8.5H8.3H7.8l0,4.5l-0.1,0l-0.1,0l-0.7,0l-0.1,0l-0.1,0l-0.1-2.8
		L6.4,8l0-0.2h0l0.1,0l0.8,0h0.1l0.8,0l0.1,0l0.8,0h0V9h0H8.4L8.4,9z M8.5,11.8H8.3c0-0.9,0-1.8,0-2.7h0.1C8.4,10,8.5,10.9,8.5,11.8
		z M11.1,4c0,0,0.1,0,0.1,0c0,1.1,0,2.4,0,3.7h-0.1C11.1,6.3,11.1,5.1,11.1,4z M12.1,3.9l0,3.7H12l0-3.7C12.1,3.9,12.1,3.9,12.1,3.9
		z M13.9,4c0,0,0.1,0,0.1,0c0,1.1,0,2.4,0,3.7h-0.1C13.9,6.3,13.9,5.1,13.9,4z M15.9,4.1c0,1.1,0,2.3,0,3.5l-0.1,0
		c0-1.2,0-2.4,0-3.5C15.8,4.1,15.9,4.1,15.9,4.1z M17.5,17.6h-0.1h-0.4l0-8.7v0h-0.1h-0.1h-0.8h0V7.8h0l0.8,0h0.1l0.8,0h0.1l0.8,0
		h0.1l0.7,0v1.1h-0.7h-0.1h-0.2l-0.3,8.7H17.5z M14.9,16.7c0-0.9,0-2.3-0.1-3.1c0-0.2,0-0.3,0-0.4l0,0H14h-0.1h-0.7l0,4.4h-0.1h-0.1
		h-0.8h-0.1L12,11.1l0-3.3h0h0.1H13h0.1h0.8H14h0.8h0c0,0.1,0.1,0.2,0.1,0.3c0.4,0.8,0.6,1.8,0.8,2.8c0.1,0.3,0.1,0.7,0.1,1
		c0.2,1.9,0.2,3.8,0.1,5.3c0,0.2,0,0.3,0,0.5h-0.2h-0.1h-0.7v0C14.9,17.6,14.9,17.2,14.9,16.7z M15,7.7L15,7.7l-0.1,0h0
		c0-1.3,0-2.5,0-3.6c0,0,0.1,0,0.1,0C15,5.2,15,6.4,15,7.7z M10.4,17.6h-0.1H10L9.8,7.8h0.4h0.1l0.8,0h0.1l0,9.8h0H10.4L10.4,17.6z
		 M15.9,10.5c0-0.2-0.1-0.5-0.1-0.7c0-0.2,0-0.5,0-0.7h0.1C15.9,9.6,15.9,10.1,15.9,10.5z M17.8,7.6h-0.1c0-1.1,0-2.2,0-3.2
		c0,0,0.1,0,0.1,0C17.8,5.5,17.8,6.5,17.8,7.6z M16.8,7.6h-0.1c0-1.2,0-2.3,0-3.4c0,0,0.1,0,0.1,0C16.8,5.3,16.8,6.4,16.8,7.6z
		 M13.1,3.9l0,3.7H13l0-3.7C13,3.9,13.1,3.9,13.1,3.9z M10.3,7.6l-0.1,0c0-1.3,0-2.5,0-3.6c0,0,0.1,0,0.1,0
		C10.3,5.1,10.3,6.4,10.3,7.6z M7.5,7.6l-0.1,0c0-1.1,0-2.2,0-3.1c0,0,0.1,0,0.1,0C7.5,5.4,7.5,6.5,7.5,7.6z M6.9,17.8l0.1,0
		c0.1,1,0.2,2,0.4,2.9c-0.1,0-0.1-0.1-0.2-0.1C7.1,19.8,7,18.8,6.9,17.8z M7.7,17.8l0.1,0C7.9,19,8,20.1,8.2,21.1
		c-0.1,0-0.1,0-0.2-0.1C7.9,20.1,7.8,19,7.7,17.8z M8.8,21.4c-0.2-2.1-0.4-5-0.4-8h0.1c0.1,3,0.2,5.9,0.4,8
		C8.9,21.4,8.8,21.4,8.8,21.4z M9.6,21.5c-0.2-3-0.3-7.9-0.3-12.4h0.1c0,4.5,0.1,9.3,0.4,12.4C9.7,21.6,9.6,21.5,9.6,21.5z
		 M11.1,17.8h0.1c0,1.5,0,2.8,0.1,3.9c0,0-0.1,0-0.1,0C11.2,20.7,11.1,19.3,11.1,17.8z M12,21.8l0-4h0.1l0,4
		C12.1,21.8,12.1,21.8,12,21.8z M12.9,17.8h0.1l0,3.9c0,0-0.1,0-0.1,0L12.9,17.8z M13.9,13.4H14c0,3.2-0.1,6.2-0.1,8.3
		c0,0-0.1,0-0.1,0C13.8,19.7,13.9,16.6,13.9,13.4z M15.6,17.8h0.1c-0.1,1.4-0.1,2.6-0.2,3.7c0,0-0.1,0-0.1,0
		C15.5,20.5,15.5,19.2,15.6,17.8z M16.7,9.1L16.7,9.1c0.1,0.2,0,3.6,0,6.1c-0.1,2.3-0.2,4.5-0.4,6.1c-0.1,0-0.1,0-0.2,0
		C16.5,18.3,16.7,13.4,16.7,9.1z M18.1,17.8h0.1c-0.1,1-0.2,1.9-0.4,2.8c-0.1,0-0.1,0.1-0.2,0.1C17.9,19.8,18,18.9,18.1,17.8z
		 M19.5,9.1h0.1V7.6h-0.1c0-0.9,0-1.7,0-2.5c0.1,0,0.1,0.1,0.1,0.1c0.1,3.6,0,9.4-0.8,14.5c-0.1,0.1-0.1,0.3-0.2,0.4
		C19.2,16.5,19.4,12.5,19.5,9.1z M20.4,6.1C20.4,6.1,20.4,6.1,20.4,6.1c0.1,0.2,0.1,0.3,0.2,0.5c0.1,2.1,0,4.9-0.3,7.9
		c-0.1,0.5-0.2,0.9-0.3,1.4C20.4,12.1,20.4,8.6,20.4,6.1z"/>
	<path class="st0" d="M14.5,10.9c-0.1-0.8-0.3-1.4-0.5-1.8C14,9,14,9,14,8.9l0,0h0c0,0,0,0,0,0c-0.2,0-0.7,0-0.7,0h0l0,3.2v0h0.7H14
		h0.7l0,0C14.7,12.1,14.6,11.5,14.5,10.9z M13.9,9.3C14,9.4,14,9.5,14,9.7c0,0.7,0,1.5,0,2.2h-0.1C13.9,11,13.9,10.1,13.9,9.3z"/>
</g>
</svg>
