<?xml version="1.0" encoding="utf-8"?>
<!-- Generator: Adobe Illustrator 24.0.0, SVG Export Plug-In . SVG Version: 6.00 Build 0)  -->
<svg version="1.1" id="Layer_1" xmlns="http://www.w3.org/2000/svg" xmlns:xlink="http://www.w3.org/1999/xlink" x="0px" y="0px"
	 viewBox="0 0 256 256" style="enable-background:new 0 0 256 256;" xml:space="preserve">
<g>
	<path d="M128,0C57.3,0,0,57.3,0,128s57.3,128,128,128s128-57.3,128-128S198.7,0,128,0z M128,1c69.6,0,127,57.3,127,127
		c0,1,0,1,0,2.1c-1-3.1-4.1-5.1-7.2-7.2c-6.1-5.1-10.2-21.5-10.2-27.7l0,0c0,4.1,1,9.2,1,14.3c0,9.2-1,18.4-2.1,29.7
		c-4.1,31.7-19.5,64.5-28.7,74.8l-1,1l-2.1,1l0,0c-21.5,17.4-42,23.6-75.8,23.6l0,0c-34.8,0-54.3-6.1-75.8-23.6l0,0l-2-2.1
		c0,0-1-1,0-1c-9.2-10.2-23.5-44-28.7-74.8c-1-10.2-2-20.5-2-29.7c0-4.1,0-9.2,1-13.3v1c-1,6.1-3.1,17.4-9.2,21.5
		c-4.1,2.1-7.2,6.1-9.2,12.3c0-1,0-1,0-2.1C1,58.4,58.4,1,128,1z"/>
	<path d="M24.6,141.3C24.6,141.3,24.6,142.3,24.6,141.3c0,2.1,1,3.1,1,4.1l0,0c0,1,1,2.1,1,4.1v1c0,1,1,2.1,1,3.1l0,0
		c0,1,1,2.1,1,4.1v1c0,1,1,2.1,1,3.1c0,0,0,0,0,1c1,1,1,3.1,1,4.1v1c0,1,1,2.1,1,3.1v1c0,1,1,2.1,1,3.1v1c0,1,1,2.1,1,2.1v1
		c0,1,1,2.1,1,3.1v1c0,1,1,2.1,1,2.1v1c0,1,1,2.1,1,3.1v1c0,1,1,1,1,2.1c0,0,0,0,0,1s1,2.1,1,3.1c0,0,0,0,0,1s1,1,1,2.1l0,0l0,0
		c4.1,6.1,9.2,7.2,11.3,6.1c1-1,2-5.1,1-12.3c-1-2.1-1-3.1-2-5.1c0-1,0-1-1-2.1c-1-3.1-2-6.1-2-9.2v-1c-1-3.1-1-5.1-2-8.2
		c0-1,0-2.1-1-3.1c0-2.1-1-4.1-1-6.1c0-1,0-2.1-1-3.1c0-2.1-1-4.1-1-6.1c0-1,0-2.1-1-3.1c0-2.1-1-4.1-1-6.1c0-1,0-2.1,0-3.1
		c0-3.1-1-6.1-1-9.2c-1-26.6-1-52.2,5.1-68.6c1-2,2-4.1,2-5.1c1-1,1-1,1-1C58.4,41,93.2,33.8,128,33.8s68.6,6.1,81.9,19.5
		c0,0,0,0,1,1s2.1,2,2.1,5.1c6.1,15.4,6.1,42,2.1,70.7c0,3.1-1,6.1-1,9.2c0,1,0,2.1,0,3.1c0,2.1-1,4.1-1,6.1c0,1,0,2.1-1,3.1
		c0,2.1-1,4.1-1,5.1s0,2.1-1,3.1c0,2.1-1,4.1-1,5.1s-1,2.1-1,3.1c-1,2.1-1,4.1-2.1,6.1c0,1,0,2.1-1,3.1c-1,3.1-2.1,6.1-2.1,8.2
		c0,1-1,2.1-1,3.1c0,2.1-1,3.1-1,5.1c-1,6.1,0,11.3,1,11.3c1,1,6.1-1,10.2-6.1c1-3.1,3.1-6.1,4.1-9.2l0,0c1-2.1,2.1-4.1,3.1-7.2l0,0
		c0-1,1-2.1,1-3.1l0,0c0-1,1-2.1,1-4.1l0,0c0-1,1-2.1,1-4.1l0,0c0-1,1-2.1,1-4.1c0,0,0,0,0-1s1-2.1,1-4.1l0,0c0-1,1-2.1,1-4.1v-1
		c0-1,1-2.1,1-4.1l0,0c0-1,1-3.1,1-4.1v-1c0-1,1-2.1,1-4.1l0,0c0-1,0-3.1,1-4.1v-1c0-1,0-3.1,1-4.1c1-10.2,2.1-19.5,2.1-28.7
		c0-16.4-2.1-30.7-8.2-43c-4.1-9.2-10.2-17.4-19.5-22.5c-21.5-13.3-46.1-21.5-70.7-22.5c-3.1,0-6.1,0-9.2,0l0,0c-3.1,0-6.1,0-9.2,0
		c-20.5,5.2-45,12.3-66.5,26.7c-9.2,5.1-15.4,12.3-19.5,22.5c-5.1,12.3-8.2,25.6-8.2,42c0,9.2,1,18.4,2,28.7
		C24.6,138.2,24.6,140.3,24.6,141.3z"/>
	<path d="M170,224.3L170,224.3c-1,0-2.1,1-3.1,1c0,0,0,0-1,0s-2.1,1-4.1,1c-10.2,2.1-21.5,3.1-33.8,3.1l0,0c-12.3,0-23.5-1-33.8-3.1
		c-1-1-2.1-1-3.1-1s-2.1-1-3.1-1l0,0c-6.1-1-14.3-3.1-14.3-2.1s4.1,5.1,8.2,7.2l0,0l0,0h1c1,0,2.1,1,4.1,1l0,0c1,0,2.1,1,3.1,1
		c0,0,0,0,1,0s2.1,1,4.1,1h1c1,0,3.1,1,4.1,1h1c1,0,3.1,0,4.1,1l0,0c1,0,3.1,0,4.1,0h1c2.1,0,3.1,0,5.1,0h1c2.1,0,3.1,0,5.1,0h1
		c2.1,0,4.1,0,5.1,0l0,0c2.1,0,4.1,0,5.1,0h1c2.1,0,3.1,0,5.1,0h1c2.1,0,3.1,0,5.1,0h1c1,0,3.1,0,4.1,0c0,0,0,0,1,0s3.1,0,4.1-1h1
		c1,0,3.1,0,4.1-1h1c1,0,3.1-1,4.1-1h1c1,0,2.1-1,3.1-1h1c1,0,2.1-1,3.1-1h1c0,0,0,0,1,0l0,0c4.1-2.1,8.2-6.1,8.2-7.2
		C183.3,221.2,176.1,222.2,170,224.3z"/>
	<path d="M208.9,62.5c-1-1-1-3.1-2.1-4.1c0-1-1-1-1-1c-11.3-11.3-41-17.4-77.8-17.4c-35.8,0-65.5,7.2-76.8,17.4c0,0,0,0-1,1
		s-1,3.1-2,4.1c-5.1,14.3-6.1,37.9-2,66.6c4.1,25.6,10.2,51.2,18.4,72.7c1,4.1,3.1,5.1,6.1,7.2c8.2,5.1,16.4,9.2,26.6,11.3
		s21.5,3.1,31.7,3.1l0,0c11.3,0,22.5-1,31.7-3.1c10.2-2.1,18.4-5.1,26.6-11.3c3.1-2.1,4.1-4.1,6.1-7.2c8.2-20.5,14.3-46.1,18.4-72.7
		C215,100.3,215,76.8,208.9,62.5z M47.1,67.6c0-2.1,1-3.1,2-5.1l0,0c-1,25.6,0,61.4,4.1,100.3c-1-4.1-2-9.2-3.1-14.3
		C47.1,117.8,46.1,90.1,47.1,67.6z M64.5,202.8c-8.2-52.2-9.2-111.6-8.2-148.5l1-1c-1,37.9,0,99.3,9.2,153.6
		C66.6,205.8,65.5,203.8,64.5,202.8z M191.5,49.2c0,8.2,0,18.4,0,28.7h-1c0-10.2,0-20.5,0-29.7C190.5,49.2,190.5,49.2,191.5,49.2z
		 M188.4,145.4c1-14.3,1-29.7,1-43c0-4.1,0-7.2,0-8.2h1c0,28.7-1,60.4-4.1,89.1C187.4,181.2,187.4,163.8,188.4,145.4z M175.1,216.1
		c-1,0-1,0-2.1,1c1-10.2,2.1-21.5,3.1-33.8h1C178.2,194.6,176.1,205.8,175.1,216.1z M150.5,222.2h-1c1-11.3,1-24.6,1-38.9h1
		C151.6,197.6,151.6,210.9,150.5,222.2z M107.5,222.2h-1c-1-11.3-1-24.6-1-38.9h1C106.5,197.6,107.5,210.9,107.5,222.2z M96.3,77.8
		h-1c0-12.3,0-24.6,0-35.8h1C96.3,53.2,96.3,65.5,96.3,77.8z M67.6,77.8h-1c0-10.2,0-20.5,0-28.7c0,0,1,0,1-1
		C67.6,57.3,67.6,67.6,67.6,77.8z M85,44h1c0,10.2,0,22.5,0,34.8h-1C85,65.5,85,54.3,85,44z M86,92.2h-1h-5.1v30.7H85h1h4.1v11.3H87
		H85h-5.1v46.1h-1h-1h-7.2h-1h-1l-1-28.7l-2.1-69.6v-2.1l0,0h1h8.2h1H84h1h8.2l0,0v12.3l0,0H86L86,92.2z M87,120.8H85
		c0-9.2,0-18.4,0-27.7h1C86,102.4,87,111.6,87,120.8z M113.7,41h1c0,11.3,0,24.6,0,37.9h-1C113.7,64.5,113.7,52.2,113.7,41z
		 M123.9,39.9v37.9h-1V39.9C123.9,39.9,123.9,39.9,123.9,39.9z M142.3,41h1c0,11.3,0,24.6,0,37.9h-1C142.3,64.5,142.3,52.2,142.3,41
		z M162.8,42c0,11.3,0,23.5,0,35.8h-1c0-12.3,0-24.6,0-35.8C161.8,42,162.8,42,162.8,42z M179.2,180.2h-1h-4.1V91.1l0,0h-1h-1h-8.2
		l0,0V79.9l0,0h8.2h1h8.2h1h8.2h1h7.2v11.3h-7.2h-1h-2.1l-3.1,89.1H179.2z M152.6,171c0-9.2,0-23.6-1-31.7c0-2.1,0-3.1,0-4.1l0,0
		h-8.2h-1h-7.2v45.1h-1h-1h-8.2h-1l-1-66.6V79.9l0,0h1h9.2h1h8.2h1h8.2l0,0c0,1,1,2.1,1,3.1c4.1,8.2,6.1,18.4,8.2,28.7
		c1,3.1,1,7.2,1,10.2c2.1,19.5,2.1,38.9,1,54.3c0,2.1,0,3.1,0,5.1h-2.1h-1h-7.2l0,0C152.6,180.2,152.6,176.1,152.6,171z M153.6,78.8
		L153.6,78.8h-1l0,0c0-13.3,0-25.6,0-36.9h1C153.6,53.2,153.6,65.5,153.6,78.8z M106.5,180.2h-1h-3.1l-2.1-100.3h4.1h1h8.2h1v100.3
		l0,0H106.5L106.5,180.2z M162.8,107.5c0-2.1-1-5.1-1-7.2c0-2.1,0-5.1,0-7.2h1C162.8,98.3,162.8,103.4,162.8,107.5z M182.3,77.8h-1
		c0-11.3,0-22.5,0-32.8h1C182.3,56.3,182.3,66.6,182.3,77.8z M172,77.8h-1c0-12.3,0-23.5,0-34.8h1C172,54.3,172,65.5,172,77.8z
		 M134.1,39.9v37.9h-1V39.9H134.1z M105.5,77.8h-1c0-13.3,0-25.6,0-36.9h1C105.5,52.2,105.5,65.5,105.5,77.8z M76.8,77.8h-1
		c0-11.3,0-22.5,0-31.7h1C76.8,55.3,76.8,66.6,76.8,77.8z M70.7,182.3h1c1,10.2,2.1,20.5,4.1,29.7c-1,0-1-1-2.1-1
		C72.7,202.8,71.7,192.5,70.7,182.3z M78.8,182.3h1c1,12.3,2.1,23.6,4.1,33.8c-1,0-1,0-2.1-1C80.9,205.8,79.9,194.6,78.8,182.3z
		 M90.1,219.1c-2.1-21.5-4.1-51.2-4.1-81.9h1c1,30.7,2.1,60.4,4.1,81.9C91.1,219.1,90.1,219.1,90.1,219.1z M98.3,220.2
		c-2.1-30.7-3.1-80.9-3.1-127h1c0,46.1,1,95.2,4.1,127C99.3,221.2,98.3,220.2,98.3,220.2z M113.7,182.3h1c0,15.4,0,28.7,1,39.9h-1
		C114.7,212,113.7,197.6,113.7,182.3z M122.9,223.2v-41h1v41C123.9,223.2,123.9,223.2,122.9,223.2z M132.1,182.3h1v39.9h-1V182.3z
		 M142.3,137.2h1c0,32.8-1,63.5-1,85h-1C141.3,201.7,142.3,170,142.3,137.2z M159.7,182.3h1c-1,14.3-1,26.6-2.1,37.9h-1
		C158.7,209.9,158.7,196.6,159.7,182.3z M171,93.2L171,93.2c1,2.1,0,36.9,0,62.5c-1,23.6-2.1,46.1-4.1,62.5c-1,0-1,0-2.1,0
		C169,187.4,171,137.2,171,93.2z M185.3,182.3h1c-1,10.2-2.1,19.5-4.1,28.7c-1,0-1,1-2.1,1C183.3,202.8,184.3,193.5,185.3,182.3z
		 M199.7,93.2h1V77.8h-1c0-9.2,0-17.4,0-25.6c1,0,1,1,1,1c1,36.9,0,96.3-8.2,148.5c-1,1-1,3.1-2.1,4.1
		C196.6,169,198.7,128,199.7,93.2z M208.9,62.5L208.9,62.5c1,2.1,1,3.1,2.1,5.1c1,21.5,0,50.2-3.1,80.9c-1,5.1-2.1,9.2-3.1,14.3
		C208.9,123.9,208.9,88.1,208.9,62.5z"/>
	<path d="M148.5,111.6c-1-8.2-3.1-14.3-5.1-18.4c0-1,0-1,0-2.1l0,0l0,0l0,0c-2.1,0-7.2,0-7.2,0l0,0v32.8l0,0h7.2l0,0h7.2l0,0
		C150.5,123.9,149.5,117.8,148.5,111.6z M142.3,95.2c1,1,1,2.1,1,4.1c0,7.2,0,15.4,0,22.5h-1C142.3,112.6,142.3,103.4,142.3,95.2z"
		/>
</g>
</svg>
