<svg xmlns="http://www.w3.org/2000/svg" viewBox="0 0 560 560" enable-background="new 0 0 560 560"><style type="text/css">.st0{fill-rule:evenodd;clip-rule:evenodd;}</style><g id="Layer_5"><path d="M418.3 188.8c0 10.1-35.4 29.4-65.5 29.4-46.8 0-95.5-22.4-117.9-27.5-24.4-5.7-46.5-10.4-63.9-10.4-61 0-88.2 26.2-87 50.3.6 9.8 8.5 16.1 20.2 13.9 12.6-2.2 30.4-14.2 34.8-24.7.9-2.2 3.5-2.5 4.4-1.9 1.9 1.6 1.3 3.8 1.3 3.8-1.6 12.3-20.6 46.5-53.4 46.5-18.3 0-30.7-17.1-30.4-33.8.3-31.3 32.3-62.9 111-62.9 14.9 0 31.6 1.3 50 4.4 21.2 3.8 74 12.6 117 13.3 15.8 0 36 .6 52.5-1.9 17.4-2.8 13.6-3.5 20.6-3.5 6.3-.1 6.3 2.4 6.3 5zM539.1 334.5c-1.3 0-3.5 2.8-4.7 4.4-6 6.3-31 32.3-44.6 32.9 2.8 0-4.7 1.6-5.4-4.4-.3-3.8 2.8-8.5 4.1-11.1l67.7-119.8h-25l-40.8 68.9c-3.2-6.3-7.9-21.2-26.6-21.5-31-.3-43 20.9-64.5 41.1-6.3 5.7-13.9 13.3-31.3 13.3-10.1 0-18-8.2-16.1-18.7 1.3-8.2 4.1-12.3 10.1-14.5 2.8 8.2 8.2 12.6 17.4 12.6 10.4-.3 16.4-9.8 16.8-18 0-7-4.4-15.8-17.1-16.4-11.7-.6-20.6 4.7-33.2 19.3 0 0 3.2-21.5-20.6-20.9-2.5 0-5.1 0-7.6 1.3-13 4.1-29.7 25-43 41.1.6-3.2.6-6.3.6-9.5 0-9.2-3.5-21.2-9.8-27.5-1.3-1.3-2.5-1.3-3.8-1.3-4.1 0-7.6 3.5-7.6 8.9 3.2 3.2 7.3 11.1 7.3 18.7s-2.2 21.5-5.4 26.9c-12 20.6-27.2 33.8-45.5 31-9.8-2.2-16.4-11.7-14.5-25.9.9-8.2 6-19.6 10.8-26.6 7.9-10.8 20.9-21.8 39.8-24.7 0 0 .9-3.8-1.6-5.7-.9-1.6-2.2-3.5-6.6-3.5-26.9.9-43.3 20.2-52.8 39.2-3.5 6.6-8.5 16.1-11.4 22.1 0 0-2.5 7-14.2 15.8-6 4.7-7.9 6.3-8.9 6 .3 2.2 1.9 5.4 4.7 7.9.9.6 4.1-1.3 5.4-1.9 14.9-8.5 16.4-12.6 16.4-12.6 3.2 17.7 18.3 26.9 35.1 26.9 23.1 0 44.3-20.9 56.6-39.2 13-19.3 30.7-38.3 30.7-38.3 7-6.6 14.2-11.1 18.7-11.1 4.1.3 7 3.8 6 7.6-1.6 6.6-3.8 13-8.2 20.9L282 386.7h26.9c15.5-29.1 16.1-30 31.3-57.9 4.1 15.5 12.3 21.5 25.6 21.8 11.4.3 19.3-.3 27.8-4.7-2.2 8.9-.9 17.7 1.9 23.7 3.2 7.3 9.5 16.4 25 16.8 18.7 0 37-8.2 42.4-13 1.6 9.2 6 13.9 17.7 13.9 23.7-.6 44.6-25 57.2-40.8 2.2-2.8 5.1-7.6 5.1-8.9 0-1.8-2.5-3.1-3.8-3.1zm-62.3-7.5s-10.7 18-21.8 29.1c-19.6 19.9-32.3 13.3-35.1 11.1-2.8-2.2-5.1-10.1-3.8-18 .9-7.9 7-21.2 12.6-28.1 11.4-13.9 25.3-23.4 36.4-22.1 13.6 1.6 14.9 14.9 8.2 27.2l3.5.8zM252 238.1c0-5.1-3.8-9.8-9.5-10.8-10.1-1.6-18 6.6-19 20.2 0 3.5 1.3 7.6 1.3 7.6s-22.1 3.8-41.1 4.7c23.4-39.5 44.9-53.4 51.2-59.1 1.3-.9 4.4-4.4 4.7-5.1 1.3-3.2-1.6-5.1-2.8-5.1-7.6-.3-44.3 26.9-72.7 70.5-7.3.9-37.6 3.5-47.7 14.9-1 1.3-1.9 3.5-1.9 4.1.6 2.5 2.5 3.8 5.4 1.6 6.3-7.3 31.9-10.1 37.9-10.4-37.3 52.5-71.8 87-102.4 87-3.2 0-6.3.3-9.8-.6-12.3-2.8-19.6-15.8-19.6-27.5 0-15.5 14.9-32.3 23.4-35.4 2.8-1.3 4.1-2.8 4.1-4.1 0-1.9-1.3-3.2-4.7-3.2-29.4 7.3-45.2 31.3-44.9 50.9.6 32.3 25 50.3 52.5 50.3 38.6 0 58.2-16.8 121.1-118.6 25-2.5 37.3-4.1 50-6.3 0 0 3.8 9.2 13.3 9.2 1.6.3 1.3-1.3 2.2-4.7-4.1-.3-8.9-3.2-8.9-6.6 3.8-1.9 7-4.1 9.8-6.3 4-3.9 8.1-11.8 8.1-17.2zm-19.6 16.4c-.9-3.8-1.6-7.3 0-12.3 1.3-4.7 4.1-7 8.9-7.9 2.2-.3 3.2 1.9 3.5 3.8.6 3.8-2.5 9.5-4.4 11.4-4.8 5.4-8 5-8 5z" class="st0"/></g></svg>