<?xml version="1.0" encoding="utf-8"?>
<!-- Generator: Adobe Illustrator 24.0.0, SVG Export Plug-In . SVG Version: 6.00 Build 0)  -->
<svg version="1.1"
	 id="ford" xmlns:cc="http://creativecommons.org/ns#" xmlns:dc="http://purl.org/dc/elements/1.1/" xmlns:rdf="http://www.w3.org/1999/02/22-rdf-syntax-ns#" xmlns:svg="http://www.w3.org/2000/svg"
	 xmlns="http://www.w3.org/2000/svg" xmlns:xlink="http://www.w3.org/1999/xlink" x="0px" y="0px" viewBox="0 0 256 256"
	 style="enable-background:new 0 0 256 256;" xml:space="preserve">
<style type="text/css">
	.st0{fill:#8699A3;}
	.st1{fill:#FFFFFF;}
</style>
<path class="st0" d="M128,80C56.95,80,0,101.29,0,128c0,26.54,57.42,48,128,48c70.58,0,128-21.53,128-48
	C256,101.53,198.58,80,128,80z"/>
<g id="g4156" transform="matrix(3.6405116,0,0,-3.6405116,-3614.0161,1059.4319)">
	<g id="g4158">
		<g id="g4164">
			<g id="g4166">
				<path id="path4180" class="st1" d="M994.7,255.86c0-6.38,14.85-11.55,33.18-11.55l0,0c18.32,0,33.18,5.17,33.18,11.55l0,0
					c0,6.38-14.85,11.55-33.18,11.55l0,0C1009.56,267.4,994.7,262.23,994.7,255.86 M995.87,255.86c0,5.83,14.33,10.55,32.01,10.55
					l0,0c17.68,0,32.01-4.72,32.01-10.55l0,0c0-5.83-14.33-10.55-32.01-10.55l0,0C1010.2,245.31,995.87,250.03,995.87,255.86"/>
			</g>
		</g>
	</g>
</g>
<g id="g4182" transform="matrix(3.6405116,0,0,-3.6405116,-3614.0161,1059.4319)">
	<g id="g4184">
		<g id="g4190">
			<g id="g4192">
				<path id="path4206" class="st1" d="M1046.66,259.77c-0.13,0-0.2-0.02-0.26-0.14l0,0c-0.2-0.39-2.69-4.11-3.15-4.83l0,0
					c-0.08-0.11-0.17-0.09-0.18,0.03l0,0c-0.05,0.43-0.42,0.92-1,1.16l0,0c-0.44,0.18-0.88,0.21-1.33,0.15l0,0
					c-0.82-0.11-1.54-0.54-2.18-1.03l0,0c-0.97-0.73-1.8-1.68-2.87-2.38l0,0c-0.59-0.38-1.39-0.72-1.92-0.22l0,0
					c-0.49,0.45-0.43,1.45,0.31,2.23l0,0c0.08,0.08,0.17,0.01,0.16-0.06l0,0c-0.07-0.35,0.02-0.7,0.28-0.94l0,0
					c0.33-0.29,0.79-0.32,1.19-0.13l0,0c0.47,0.23,0.74,0.68,0.83,1.19l0,0c0.12,0.79-0.48,1.49-1.25,1.54l0,0
					c-0.62,0.04-1.21-0.17-1.79-0.65l0,0c-0.29-0.24-0.45-0.42-0.7-0.77l0,0c-0.06-0.09-0.16-0.1-0.15,0.03l0,0
					c0.03,1.01-0.39,1.58-1.23,1.6l0,0c-0.65,0.02-1.34-0.34-1.88-0.77l0,0c-0.59-0.48-1.11-1.11-1.67-1.7l0,0
					c-0.07-0.07-0.13-0.07-0.15,0.07l0,0c-0.02,0.67-0.19,1.32-0.5,1.78l0,0c-0.11,0.16-0.34,0.24-0.54,0.13l0,0
					c-0.09-0.05-0.4-0.19-0.63-0.38l0,0c-0.11-0.09-0.16-0.23-0.11-0.4l0,0c0.3-1,0.23-2.14-0.17-3.1l0,0
					c-0.37-0.88-1.1-1.68-1.95-1.94l0,0c-0.56-0.18-1.14-0.09-1.51,0.41l0,0c-0.5,0.69-0.3,1.88,0.44,2.87l0,0
					c0.65,0.87,1.6,1.43,2.54,1.79l0,0c0.11,0.04,0.13,0.11,0.1,0.21l0,0c-0.05,0.15-0.13,0.37-0.17,0.46l0,0
					c-0.09,0.23-0.33,0.27-0.62,0.23l0,0c-0.68-0.08-1.3-0.31-1.91-0.64l0,0c-1.6-0.85-2.4-2.51-2.75-3.39l0,0
					c-0.17-0.43-0.31-0.69-0.5-0.93l0,0c-0.25-0.32-0.57-0.6-1.14-1.11l0,0c-0.05-0.05-0.09-0.14-0.05-0.23l0,0
					c0.06-0.12,0.36-0.55,0.44-0.58l0,0c0.09-0.05,0.2,0.02,0.25,0.05l0,0c0.4,0.27,0.89,0.71,1.12,1l0,0
					c0.08,0.1,0.17,0.06,0.21-0.09l0,0c0.22-0.79,0.8-1.43,1.6-1.7l0,0c1.46-0.49,2.98,0.22,4.13,1.46l0,0
					c0.73,0.79,0.99,1.3,1.27,1.64l0,0c0.47,0.59,1.41,1.9,2.52,2.74l0,0c0.41,0.31,0.89,0.55,1.13,0.39l0,0
					c0.19-0.13,0.26-0.42-0.05-0.99l0,0c-1.13-2.07-2.8-4.5-3.11-5.09l0,0c-0.06-0.1-0.01-0.18,0.1-0.18l0,0c0.59,0,1.18,0,1.72,0
					l0,0c0.09,0,0.13,0.04,0.17,0.11l0,0c0.87,1.36,1.69,2.66,2.56,4l0,0c0.05,0.08,0.09,0.02,0.1-0.02l0,0
					c0.02-0.31,0.09-0.74,0.28-1.02l0,0c0.33-0.52,0.8-0.74,1.32-0.74l0,0c0.41,0,0.62,0.06,1.07,0.22l0,0
					c0.36,0.14,0.66,0.31,0.88,0.47l0,0c0.13,0.09,0.15-0.06,0.15-0.09l0,0c-0.2-1.08,0.05-2.36,1.12-2.89l0,0
					c1.29-0.63,2.7,0.26,3.51,1.06l0,0c0.08,0.08,0.16,0.07,0.17-0.1l0,0c0.02-0.31,0.16-0.67,0.41-0.93l0,0
					c0.68-0.68,2.06-0.41,3.43,0.65l0,0c0.88,0.68,1.81,1.65,2.65,2.67l0,0c0.03,0.04,0.05,0.1-0.01,0.17l0,0
					c-0.13,0.13-0.31,0.28-0.44,0.4l0,0c-0.06,0.05-0.14,0.03-0.19,0l0,0c-0.86-0.81-1.63-1.74-2.74-2.51l0,0
					c-0.38-0.26-0.98-0.47-1.25-0.11l0,0c-0.1,0.14-0.09,0.34,0.01,0.6l0,0c0.33,0.81,5.47,8.65,5.74,9.11l0,0
					c0.05,0.08,0,0.14-0.1,0.14l0,0C1047.9,259.77,1047.21,259.77,1046.66,259.77 M1038.49,250.14c-0.26,0.14-0.38,0.51-0.37,0.81
					l0,0c0.01,0.84,0.39,1.71,1.08,2.56l0,0c0.85,1.04,1.78,1.58,2.39,1.28l0,0c0.63-0.3,0.43-1.04,0.15-1.61l0,0
					c-0.02-0.05-0.02-0.08-0.01-0.12l0,0c0.01-0.06,0.09-0.12,0.16-0.14l0,0c0.03-0.01,0.04-0.03,0.01-0.09l0,0
					c-0.22-0.47-0.42-0.74-0.69-1.15l0,0c-0.25-0.38-0.54-0.67-0.88-0.95l0,0c-0.4-0.33-0.92-0.69-1.41-0.69l0,0
					C1038.77,250.03,1038.63,250.07,1038.49,250.14"/>
			</g>
		</g>
	</g>
</g>
<g id="g4208" transform="matrix(3.6405116,0,0,-3.6405116,-3614.0161,1059.4319)">
	<g id="g4210">
		<g id="g4216">
			<g id="g4218">
				<path id="path4232" class="st1" d="M1019.28,264.53c-0.49,0-0.98-0.02-1.48-0.06l0,0c-3.16-0.27-6.18-2.05-6.18-4.75l0,0
					c0-1.37,0.97-2.48,2.48-2.43l0,0c1.78,0.06,3.23,1.48,4,3.28l0,0c0.29,0.68-0.25,0.96-0.5,0.57l0,0
					c-0.46-0.71-1.1-1.25-1.79-1.59l0,0c-0.84-0.41-1.73-0.3-2,0.38l0,0c-0.38,0.96,0.41,2.39,2.22,3.06l0,0
					c2.61,0.97,5.34,0.33,7.96-0.17l0,0c0.04,0,0.18-0.08,0.05-0.14l0,0c-0.47-0.26-0.93-0.47-1.65-1.09l0,0
					c-0.52-0.44-1.19-1.03-1.72-1.67l0,0c-0.52-0.63-0.89-1.2-1.37-1.82l0,0c-0.07-0.09-0.15-0.09-0.15-0.09l0,0
					c-1.19-0.2-2.35-0.33-3.42-1.08l0,0c-0.22-0.15-0.32-0.42-0.18-0.63l0,0c0.12-0.18,0.39-0.2,0.58-0.06l0,0
					c0.66,0.5,1.34,0.73,2.12,0.75l0,0c0.03,0,0.05-0.01,0.06-0.03l0,0c0.01-0.01,0-0.04-0.01-0.06l0,0c-1.17-1.62-1.46-1.99-2.34-3
					l0,0c-0.45-0.52-0.89-0.95-1.39-1.41l0,0c-2-1.86-4.15-1.83-4.92-0.66l0,0c-0.46,0.7-0.4,1.43-0.1,2.04l0,0
					c0.37,0.74,1.12,1.29,1.75,1.61l0,0c0.23,0.12,0.3,0.41,0.07,0.68l0,0c-0.15,0.18-0.51,0.21-0.77,0.16l0,0
					c-0.82-0.15-1.79-0.77-2.36-1.52l0,0c-0.64-0.84-0.97-1.85-0.86-2.99l0,0c0.19-2.05,1.88-3.24,3.8-3.23l0,0
					c1.53,0.01,2.97,0.48,4.7,2.23l0,0c1.61,1.64,3.09,4.09,4.46,6.36l0,0c0.04,0.07,0.07,0.11,0.28,0.14l0,0
					c0.86,0.11,2.14,0.23,2.96,0.28l0,0c0.18,0.01,0.22,0.01,0.29-0.08l0,0c0.21-0.27,0.53-0.5,0.79-0.64l0,0
					c0.12-0.07,0.18-0.1,0.28-0.1l0,0c0.12,0,0.22,0.06,0.28,0.13l0,0c0.09,0.1,0.11,0.22,0.07,0.3l0,0
					c-0.05,0.08-0.62,0.4-0.64,0.53l0,0c-0.01,0.08,0.07,0.1,0.07,0.1l0,0c0.42,0.13,0.85,0.4,1.12,0.91l0,0
					c0.26,0.5,0.3,1.16-0.17,1.53l0,0c-0.42,0.32-1.05,0.27-1.55-0.18l0,0c-0.49-0.44-0.65-1.08-0.59-1.63l0,0
					c0.01-0.1,0.01-0.13-0.13-0.14l0,0c-0.76-0.06-1.48-0.08-2.29-0.12l0,0c-0.05,0-0.07,0.03-0.04,0.07l0,0
					c0.93,1.62,2.32,2.77,3.86,3.91l0,0c0.1,0.08,0.07,0.22,0.07,0.34l0,0c2.78-0.6,5.47-1.73,8.35-1.7l0,0
					c1.19,0.01,2.33,0.19,3.42,0.79l0,0c0.96,0.52,1.35,1.01,1.38,1.51l0,0c0.02,0.35-0.22,0.57-0.56,0.49l0,0
					c-2.91-0.67-5.69-0.66-8.59-0.31l0,0C1025.72,263.71,1022.56,264.53,1019.28,264.53L1019.28,264.53
					C1019.29,264.53,1019.29,264.53,1019.28,264.53 M1024.31,258.69c-0.04,0.31,0.06,0.72,0.39,1.01l0,0
					c0.17,0.15,0.39,0.18,0.53,0.06l0,0c0.15-0.13,0.08-0.46-0.07-0.69l0,0c-0.17-0.25-0.46-0.47-0.72-0.52l0,0
					c-0.01,0-0.01,0-0.02,0l0,0C1024.36,258.56,1024.33,258.59,1024.31,258.69"/>
			</g>
		</g>
	</g>
</g>
</svg>
