<?xml version="1.0" encoding="utf-8"?>
<!-- Generator: Adobe Illustrator 24.0.0, SVG Export Plug-In . SVG Version: 6.00 Build 0)  -->
<svg version="1.1"
	 id="ford" xmlns:cc="http://creativecommons.org/ns#" xmlns:dc="http://purl.org/dc/elements/1.1/" xmlns:rdf="http://www.w3.org/1999/02/22-rdf-syntax-ns#" xmlns:svg="http://www.w3.org/2000/svg"
	 xmlns="http://www.w3.org/2000/svg" xmlns:xlink="http://www.w3.org/1999/xlink" x="0px" y="0px" viewBox="0 0 256 256"
	 style="enable-background:new 0 0 256 256;" xml:space="preserve">
<style type="text/css">
	.st0{fill:#FFFFFF;}
</style>
<path d="M128,80C57,80,0,101.3,0,128c0,26.5,57.4,48,128,48s128-21.5,128-48S198.6,80,128,80z"/>
<g id="g4156" transform="matrix(3.6405116,0,0,-3.6405116,-3614.0161,1059.4319)">
	<g id="g4158">
		<g id="g4164">
			<g id="g4166">
				<path id="path4180" d="M994.7,255.9c0-6.4,14.8-11.6,33.2-11.6l0,0c18.3,0,33.2,5.2,33.2,11.6l0,0c0,6.4-14.8,11.6-33.2,11.6
					l0,0C1009.6,267.4,994.7,262.2,994.7,255.9 M995.9,255.9c0,5.8,14.3,10.6,32,10.6l0,0c17.7,0,32-4.7,32-10.6l0,0
					c0-5.8-14.3-10.6-32-10.6l0,0C1010.2,245.3,995.9,250,995.9,255.9"/>
			</g>
		</g>
	</g>
</g>
<g id="g4182" transform="matrix(3.6405116,0,0,-3.6405116,-3614.0161,1059.4319)">
	<g id="g4184">
		<g id="g4190">
			<g id="g4192">
				<path id="path4206" class="st0" d="M1046.7,259.8c-0.1,0-0.2,0-0.3-0.1l0,0c-0.2-0.4-2.7-4.1-3.2-4.8l0,0
					c-0.1-0.1-0.2-0.1-0.2,0l0,0c-0.1,0.4-0.4,0.9-1,1.2l0,0c-0.4,0.2-0.9,0.2-1.3,0.2l0,0c-0.8-0.1-1.5-0.5-2.2-1l0,0
					c-1-0.7-1.8-1.7-2.9-2.4l0,0c-0.6-0.4-1.4-0.7-1.9-0.2l0,0c-0.5,0.4-0.4,1.4,0.3,2.2l0,0c0.1,0.1,0.2,0,0.2-0.1l0,0
					c-0.1-0.4,0-0.7,0.3-0.9l0,0c0.3-0.3,0.8-0.3,1.2-0.1l0,0c0.5,0.2,0.7,0.7,0.8,1.2l0,0c0.1,0.8-0.5,1.5-1.2,1.5l0,0
					c-0.6,0-1.2-0.2-1.8-0.6l0,0c-0.3-0.2-0.4-0.4-0.7-0.8l0,0c-0.1-0.1-0.2-0.1-0.2,0l0,0c0,1-0.4,1.6-1.2,1.6l0,0
					c-0.7,0-1.3-0.3-1.9-0.8l0,0c-0.6-0.5-1.1-1.1-1.7-1.7l0,0c-0.1-0.1-0.1-0.1-0.2,0.1l0,0c0,0.7-0.2,1.3-0.5,1.8l0,0
					c-0.1,0.2-0.3,0.2-0.5,0.1l0,0c-0.1,0-0.4-0.2-0.6-0.4l0,0c-0.1-0.1-0.2-0.2-0.1-0.4l0,0c0.3-1,0.2-2.1-0.2-3.1l0,0
					c-0.4-0.9-1.1-1.7-2-1.9l0,0c-0.6-0.2-1.1-0.1-1.5,0.4l0,0c-0.5,0.7-0.3,1.9,0.4,2.9l0,0c0.7,0.9,1.6,1.4,2.5,1.8l0,0
					c0.1,0,0.1,0.1,0.1,0.2l0,0c-0.1,0.1-0.1,0.4-0.2,0.5l0,0c-0.1,0.2-0.3,0.3-0.6,0.2l0,0c-0.7-0.1-1.3-0.3-1.9-0.6l0,0
					c-1.6-0.9-2.4-2.5-2.8-3.4l0,0c-0.2-0.4-0.3-0.7-0.5-0.9l0,0c-0.2-0.3-0.6-0.6-1.1-1.1l0,0c0-0.1-0.1-0.1,0-0.2l0,0
					c0.1-0.1,0.4-0.6,0.4-0.6l0,0c0.1-0.1,0.2,0,0.2,0.1l0,0c0.4,0.3,0.9,0.7,1.1,1l0,0c0.1,0.1,0.2,0.1,0.2-0.1l0,0
					c0.2-0.8,0.8-1.4,1.6-1.7l0,0c1.5-0.5,3,0.2,4.1,1.5l0,0c0.7,0.8,1,1.3,1.3,1.6l0,0c0.5,0.6,1.4,1.9,2.5,2.7l0,0
					c0.4,0.3,0.9,0.6,1.1,0.4l0,0c0.2-0.1,0.3-0.4-0.1-1l0,0c-1.1-2.1-2.8-4.5-3.1-5.1l0,0c-0.1-0.1,0-0.2,0.1-0.2l0,0
					c0.6,0,1.2,0,1.7,0l0,0c0.1,0,0.1,0,0.2,0.1l0,0c0.9,1.4,1.7,2.7,2.6,4l0,0c0.1,0.1,0.1,0,0.1,0l0,0c0-0.3,0.1-0.7,0.3-1l0,0
					c0.3-0.5,0.8-0.7,1.3-0.7l0,0c0.4,0,0.6,0.1,1.1,0.2l0,0c0.4,0.1,0.7,0.3,0.9,0.5l0,0c0.1,0.1,0.2-0.1,0.2-0.1l0,0
					c-0.2-1.1,0.1-2.4,1.1-2.9l0,0c1.3-0.6,2.7,0.3,3.5,1.1l0,0c0.1,0.1,0.2,0.1,0.2-0.1l0,0c0-0.3,0.2-0.7,0.4-0.9l0,0
					c0.7-0.7,2.1-0.4,3.4,0.6l0,0c0.9,0.7,1.8,1.6,2.7,2.7l0,0c0,0,0.1,0.1,0,0.2l0,0c-0.1,0.1-0.3,0.3-0.4,0.4l0,0
					c-0.1,0.1-0.1,0-0.2,0l0,0c-0.9-0.8-1.6-1.7-2.7-2.5l0,0c-0.4-0.3-1-0.5-1.2-0.1l0,0c-0.1,0.1-0.1,0.3,0,0.6l0,0
					c0.3,0.8,5.5,8.7,5.7,9.1l0,0c0.1,0.1,0,0.1-0.1,0.1l0,0C1047.9,259.8,1047.2,259.8,1046.7,259.8 M1038.5,250.1
					c-0.3,0.1-0.4,0.5-0.4,0.8l0,0c0,0.8,0.4,1.7,1.1,2.6l0,0c0.8,1,1.8,1.6,2.4,1.3l0,0c0.6-0.3,0.4-1,0.2-1.6l0,0
					c0-0.1,0-0.1,0-0.1l0,0c0-0.1,0.1-0.1,0.2-0.1l0,0c0,0,0,0,0-0.1l0,0c-0.2-0.5-0.4-0.7-0.7-1.1l0,0c-0.2-0.4-0.5-0.7-0.9-0.9
					l0,0c-0.4-0.3-0.9-0.7-1.4-0.7l0,0C1038.8,250,1038.6,250.1,1038.5,250.1"/>
			</g>
		</g>
	</g>
</g>
<g id="g4208" transform="matrix(3.6405116,0,0,-3.6405116,-3614.0161,1059.4319)">
	<g id="g4210">
		<g id="g4216">
			<g id="g4218">
				<path id="path4232" class="st0" d="M1019.3,264.5c-0.5,0-1,0-1.5-0.1l0,0c-3.2-0.3-6.2-2-6.2-4.8l0,0c0-1.4,1-2.5,2.5-2.4l0,0
					c1.8,0.1,3.2,1.5,4,3.3l0,0c0.3,0.7-0.2,1-0.5,0.6l0,0c-0.5-0.7-1.1-1.2-1.8-1.6l0,0c-0.8-0.4-1.7-0.3-2,0.4l0,0
					c-0.4,1,0.4,2.4,2.2,3.1l0,0c2.6,1,5.3,0.3,8-0.2l0,0c0,0,0.2-0.1,0-0.1l0,0c-0.5-0.3-0.9-0.5-1.7-1.1l0,0
					c-0.5-0.4-1.2-1-1.7-1.7l0,0c-0.5-0.6-0.9-1.2-1.4-1.8l0,0c-0.1-0.1-0.2-0.1-0.2-0.1l0,0c-1.2-0.2-2.3-0.3-3.4-1.1l0,0
					c-0.2-0.1-0.3-0.4-0.2-0.6l0,0c0.1-0.2,0.4-0.2,0.6-0.1l0,0c0.7,0.5,1.3,0.7,2.1,0.8l0,0c0,0,0,0,0.1,0l0,0c0,0,0,0,0-0.1l0,0
					c-1.2-1.6-1.5-2-2.3-3l0,0c-0.5-0.5-0.9-0.9-1.4-1.4l0,0c-2-1.9-4.2-1.8-4.9-0.7l0,0c-0.5,0.7-0.4,1.4-0.1,2l0,0
					c0.4,0.7,1.1,1.3,1.8,1.6l0,0c0.2,0.1,0.3,0.4,0.1,0.7l0,0c-0.2,0.2-0.5,0.2-0.8,0.2l0,0c-0.8-0.1-1.8-0.8-2.4-1.5l0,0
					c-0.6-0.8-1-1.9-0.9-3l0,0c0.2-2.1,1.9-3.2,3.8-3.2l0,0c1.5,0,3,0.5,4.7,2.2l0,0c1.6,1.6,3.1,4.1,4.5,6.4l0,0
					c0,0.1,0.1,0.1,0.3,0.1l0,0c0.9,0.1,2.1,0.2,3,0.3l0,0c0.2,0,0.2,0,0.3-0.1l0,0c0.2-0.3,0.5-0.5,0.8-0.6l0,0
					c0.1-0.1,0.2-0.1,0.3-0.1l0,0c0.1,0,0.2,0.1,0.3,0.1l0,0c0.1,0.1,0.1,0.2,0.1,0.3l0,0c-0.1,0.1-0.6,0.4-0.6,0.5l0,0
					c0,0.1,0.1,0.1,0.1,0.1l0,0c0.4,0.1,0.8,0.4,1.1,0.9l0,0c0.3,0.5,0.3,1.2-0.2,1.5l0,0c-0.4,0.3-1.1,0.3-1.6-0.2l0,0
					c-0.5-0.4-0.7-1.1-0.6-1.6l0,0c0-0.1,0-0.1-0.1-0.1l0,0c-0.8-0.1-1.5-0.1-2.3-0.1l0,0c0,0-0.1,0,0,0.1l0,0
					c0.9,1.6,2.3,2.8,3.9,3.9l0,0c0.1,0.1,0.1,0.2,0.1,0.3l0,0c2.8-0.6,5.5-1.7,8.3-1.7l0,0c1.2,0,2.3,0.2,3.4,0.8l0,0
					c1,0.5,1.3,1,1.4,1.5l0,0c0,0.4-0.2,0.6-0.6,0.5l0,0c-2.9-0.7-5.7-0.7-8.6-0.3l0,0C1025.7,263.7,1022.6,264.5,1019.3,264.5
					L1019.3,264.5C1019.3,264.5,1019.3,264.5,1019.3,264.5 M1024.3,258.7c0,0.3,0.1,0.7,0.4,1l0,0c0.2,0.1,0.4,0.2,0.5,0.1l0,0
					c0.2-0.1,0.1-0.5-0.1-0.7l0,0c-0.2-0.2-0.5-0.5-0.7-0.5l0,0c0,0,0,0,0,0l0,0C1024.4,258.6,1024.3,258.6,1024.3,258.7"/>
			</g>
		</g>
	</g>
</g>
</svg>
