<svg xmlns="http://www.w3.org/2000/svg" viewBox="0 0 32.75 31.27"><defs><style>.a{fill:none;stroke:#000;stroke-linecap:round;stroke-linejoin:round;stroke-width:0.75px;}</style></defs><title>260</title><path class="a" d="M19.58,20.49H12.82V18.73h6.8v1.76Z" transform="translate(0.38 -0.37)"/><path class="a" d="M5.49,21.05a1.46,1.46,0,1,1,0-2.92,1.46,1.46,0,1,1,0,2.92Z" transform="translate(0.38 -0.37)"/><path class="a" d="M26.56,21.05a1.46,1.46,0,1,1,1.49-1.46A1.47,1.47,0,0,1,26.56,21.05Z" transform="translate(0.38 -0.37)"/><path class="a" d="M27.83,31.26A2.24,2.24,0,0,0,30.11,29V26.54h1.45a.41.41,0,0,0,.44-.43v-7.9a4.18,4.18,0,0,0-3.95-4.12L26.34,6.62a3.23,3.23,0,0,0-3.16-2.53H20V1.17a.41.41,0,0,0-.44-.43H12.47a.41.41,0,0,0-.44.43V4.09H8.82A3.23,3.23,0,0,0,5.66,6.62L4,14.09A4.2,4.2,0,0,0,0,18.21v7.86a.42.42,0,0,0,.44.43H1.89V29a2.25,2.25,0,0,0,2.28,2.24A2.25,2.25,0,0,0,6.45,29V26.5H25.5V29A2.36,2.36,0,0,0,27.83,31.26ZM14.66,14.05H8.08a3.33,3.33,0,0,1,3.29-2.84A3.29,3.29,0,0,1,14.66,14.05Z" transform="translate(0.38 -0.37)"/><line class="a" x1="4.33" y1="13.72" x2="28.42" y2="13.72"/><line class="a" x1="12.4" y1="3.72" x2="20.35" y2="3.72"/><line class="a" x1="2.26" y1="26.13" x2="6.83" y2="26.13"/><line class="a" x1="25.88" y1="26.13" x2="30.49" y2="26.13"/></svg>