<?xml version="1.0" encoding="utf-8"?>
<!-- Generator: Adobe Illustrator 24.0.0, SVG Export Plug-In . SVG Version: 6.00 Build 0)  -->
<svg version="1.1" id="Layer_1" xmlns="http://www.w3.org/2000/svg" xmlns:xlink="http://www.w3.org/1999/xlink" x="0px" y="0px"
	 viewBox="0 0 29.4 25" style="enable-background:new 0 0 29.4 25;" xml:space="preserve">
<style type="text/css">
	.st0{fill:#8699A3;}
</style>
<g>
	<g>
		<path class="st0" d="M20.1,11.4c-0.5,0-1.2-0.1-1.2,0.6c0.6,0,1.3,0,1.9,0C21,11.5,20.5,11.4,20.1,11.4z"/>
		<path class="st0" d="M28.6,9.3c-0.4-0.1-0.8-0.1-1.3-0.2C25.8,3.9,20.7,0,14.7,0c-6,0-11,3.8-12.6,9c-0.3,0.1-0.7,0.1-1,0.2
			c-0.9,0.2-1,0.8-1,0.9c-0.2,0.8-0.1,3.6,0,4.6c0.1,1,0.9,0.9,0.9,0.9c0.3,0.1,0.7,0.1,1,0.2C3.6,21.1,8.7,25,14.7,25
			c6,0,11.1-3.9,12.6-9.1c0.8-0.1,1.2-0.2,1.2-0.2c0.7-0.1,0.8-1,0.8-1c0.1-1.3,0-4.4,0-4.4C29.3,9.4,28.6,9.3,28.6,9.3z M14.7,3
			c4.1,0,7.6,2.4,9.1,5.7C16.6,8.2,9,8.4,5.7,8.6C7.2,5.3,10.7,3,14.7,3z M21.9,12.7c0,0.4,0,0.9,0,1.3c-0.3,0-0.6,0-0.9,0
			c0-0.4,0-0.8,0-1.3c-0.6,0-1.3,0-1.9,0c0,0.4,0,0.7,0,1.1c0,0.1-0.1,0.2-0.2,0.2c-0.2,0-0.3,0-0.5,0c-0.2,0-0.3-0.1-0.3-0.2
			c0-0.9-0.1-1.7,0-2.6c0-0.2,0.2-0.4,0.3-0.5c0.2-0.1,0.4-0.1,0.6-0.1c0.5,0,1,0,1.5,0c0.5,0,1.2,0,1.4,0.5
			C21.9,11.7,21.8,12.2,21.9,12.7z M14.6,11.7c0.9,0.4,1.8,0.6,2.7,1.1c0.2,0.1,0.2,0.4,0.2,0.6c0,0.2-0.1,0.4-0.3,0.6
			c-0.1,0.1-0.3,0.1-0.5,0.1c-1.1,0-2.2,0-3.3,0c-0.1-0.2,0-0.5,0-0.7c0.9,0,1.7,0,2.7,0c0.2,0,0.2-0.2,0-0.3
			c-0.7-0.2-1.4-0.5-2.1-0.7c-0.3-0.1-0.5-0.3-0.5-0.6c0-0.2-0.1-0.3,0-0.5c0.3-0.8,1.3-0.6,2-0.6c0.7,0,1.4,0,2.1,0
			c0,0.3,0,0.5,0,0.7c-0.9,0-1.8,0-2.8,0C14.5,11.4,14.5,11.7,14.6,11.7z M8.9,13.4c0.9,0,1.7,0,2.7,0c0.2,0,0.2-0.2,0-0.3
			c-0.7-0.2-1.4-0.5-2.1-0.7C9.2,12.2,9,12.1,9,11.8c0-0.2-0.1-0.3,0-0.5c0.3-0.8,1.3-0.6,2-0.6c0.7,0,1.4,0,2.1,0
			c0,0.3,0,0.5,0,0.7c-0.9,0-1.8,0-2.7,0c-0.1,0-0.1,0-0.2,0.1c-0.1,0.1,0,0.2,0.1,0.3c0.7,0.2,1.2,0.5,1.9,0.7
			c0.7,0.1,1.4,0.9,0.6,1.6c-0.1,0.1-0.1,0-0.2,0.1c-0.1,0.1-0.1,0-0.2,0c-1.1,0-2.3,0-3.4,0C8.9,13.8,8.9,13.6,8.9,13.4z M8.4,14.1
			c-0.4,0-0.6,0-1,0c0-1.1,0-2.2,0-3.3c0.3,0,0.6,0,1,0C8.5,11.8,8.5,12.9,8.4,14.1z M5,13.6c-0.3-0.6-0.6-1.1-0.9-1.7
			c-0.1-0.1-0.3-0.2-0.3,0c0,0.7,0,1.3,0,2c0,0.1,0,0.2-0.2,0.2c-0.2,0-0.2,0-0.4,0C3.1,14.1,3,14,3,13.9c0-0.8,0-1.6,0-2.4
			c0-0.2,0-0.4,0.2-0.6c0.3-0.2,0.7-0.3,1.1-0.1c0.2,0.1,0.4,0.3,0.5,0.5c0.3,0.6,0.6,1.1,0.9,1.7c0.1,0.2,0.4,0.1,0.4-0.1
			c0-0.8,0-1.4,0-2.2c0.3,0,0.5,0,0.8,0c0,0.9,0,1.8,0,2.6c0,0.2-0.1,0.4-0.2,0.5C6.2,14.2,5.3,14.2,5,13.6z M14.7,21.9
			c-4.1,0-7.6-2.4-9.1-5.8c4.3,0.3,9.3,0.3,9.3,0.3c3.5,0.1,6.6-0.1,9-0.3C22.3,19.6,18.8,21.9,14.7,21.9z M26.2,13.8
			c-0.4,0.4-1.4,0.5-1.7-0.1c-0.4-0.6-0.6-1.2-0.9-1.8c0-0.1-0.1-0.2-0.2-0.2c-0.1,0-0.1,0.1-0.1,0.2c0,0.7,0,1.4,0,2.1
			c-0.3,0-0.5,0-0.8,0c0-0.7,0-1.3,0-2c0-0.3-0.1-0.7,0.1-1c0.3-0.3,0.7-0.4,1.1-0.3c0.2,0.1,0.4,0.3,0.6,0.5
			c0.3,0.6,0.6,1.2,0.9,1.8c0.1,0.1,0.3,0.1,0.3-0.1c0-0.8,0-1.5,0-2.3c0.3,0,0.6,0,0.8,0c0,0.8,0,1.7,0,2.5
			C26.3,13.4,26.3,13.7,26.2,13.8z"/>
	</g>
</g>
</svg>
