<?xml version="1.0" encoding="utf-8"?>
<!-- Generator: Adobe Illustrator 24.0.0, SVG Export Plug-In . SVG Version: 6.00 Build 0)  -->
<svg version="1.1" id="Layer_1" xmlns="http://www.w3.org/2000/svg" xmlns:xlink="http://www.w3.org/1999/xlink" x="0px" y="0px"
	 viewBox="0 0 256 256" style="enable-background:new 0 0 256 256;" xml:space="preserve">
<g>
	<g>
		<path d="M175.4,116.4c-4.4,0-10.5-0.9-10.5,5.2c5.2,0,11.3,0,16.6,0C183.2,117.3,178.9,116.4,175.4,116.4z"/>
		<path d="M249.5,98.1c-3.5-0.9-7-0.9-11.3-1.7C225.1,51,180.6,17,128.3,17S32.4,50.1,18.5,95.5c-2.6,0.9-6.1,0.9-8.7,1.7
			c-7.8,1.7-8.7,7-8.7,7.8c-1.7,7-0.9,31.4,0,40.1s7.9,7.9,7.9,7.9c2.6,0.9,6.1,0.9,8.7,1.7C31.5,201,76,235,128.3,235
			s96.8-34,109.9-79.4c7-0.9,10.5-1.7,10.5-1.7c6.1-0.9,7-8.7,7-8.7c0.9-11.3,0-38.4,0-38.4C255.6,99,249.5,98.1,249.5,98.1z
			 M128.3,43.2c35.8,0,66.3,20.9,79.4,49.7C144.9,88.5,78.6,90.2,49.8,92C62.9,63.2,93.4,43.2,128.3,43.2z M191.1,127.7
			c0,3.5,0,7.8,0,11.3c-2.6,0-5.2,0-7.9,0c0-3.5,0-7,0-11.3c-5.2,0-11.3,0-16.6,0c0,3.5,0,6.1,0,9.6c0,0.9-0.9,1.7-1.7,1.7
			c-1.7,0-2.6,0-4.4,0s-2.6-0.9-2.6-1.7c0-7.9-0.9-14.8,0-22.7c0-1.7,1.7-3.5,2.6-4.4c1.7-0.9,3.5-0.9,5.2-0.9c4.4,0,8.7,0,13.1,0
			s10.5,0,12.2,4.4C191.1,119,190.2,123.4,191.1,127.7z M127.4,119c7.9,3.5,15.7,5.2,23.5,9.6c1.7,0.9,1.7,3.5,1.7,5.2
			c0,1.7-0.9,3.5-2.6,5.2c-0.9,0.9-2.6,0.9-4.4,0.9c-9.6,0-19.2,0-28.8,0c-0.9-1.7,0-4.4,0-6.1c7.8,0,14.8,0,23.5,0
			c1.7,0,1.7-1.7,0-2.6c-6.1-1.7-12.2-4.4-18.3-6.1c-2.6-0.9-4.4-2.6-4.4-5.2c0-1.7-0.9-2.6,0-4.4c2.6-7,11.3-5.2,17.4-5.2
			s12.2,0,18.3,0c0,2.6,0,4.4,0,6.1c-7.9,0-15.7,0-24.4,0C126.6,116.4,126.6,119,127.4,119z M77.7,133.8c7.8,0,14.8,0,23.5,0
			c1.7,0,1.7-1.7,0-2.6c-6.1-1.7-12.2-4.4-18.3-6.1c-2.6-1.7-4.4-2.6-4.4-5.2c0-1.7-0.9-2.6,0-4.4c2.6-7,11.3-5.2,17.4-5.2
			c6.1,0,12.2,0,18.3,0c0,2.6,0,4.4,0,6.1c-7.8,0-15.7,0-23.5,0c-0.9,0-0.9,0-1.7,0.9c-0.9,0.9,0,1.7,0.9,2.6
			c6.1,1.7,10.5,4.4,16.6,6.1c6.1,0.9,12.2,7.8,5.2,14c-0.9,0.9-0.9,0-1.7,0.9c-0.9,0.9-0.9,0-1.7,0c-9.6,0-20,0-29.7,0
			C77.7,137.3,77.7,135.6,77.7,133.8z M73.4,139.9c-3.5,0-5.2,0-8.7,0c0-9.6,0-19.2,0-28.8c2.6,0,5.2,0,8.7,0
			C74.2,119.9,74.2,129.5,73.4,139.9z M43.7,135.6c-2.6-5.2-5.2-9.6-7.8-14.8c-0.9-0.9-2.6-1.7-2.6,0c0,6.1,0,11.3,0,17.4
			c0,0.9,0,1.7-1.7,1.7s-1.7,0-3.5,0c-0.9,0-1.7-0.9-1.7-1.7c0-7,0-13.9,0-20.9c0-1.7,0-3.5,1.7-5.2c2.6-1.7,6.1-2.6,9.6-0.9
			c1.7,0.9,3.5,2.6,4.4,4.4c2.6,5.2,5.2,9.6,7.8,14.8c0.9,1.7,3.5,0.9,3.5-0.9c0-7,0-12.2,0-19.2c2.6,0,4.4,0,7,0
			c0,7.8,0,15.7,0,22.7c0,1.7-0.9,3.5-1.7,4.4C54.2,140.8,46.3,140.8,43.7,135.6z M128.3,207.9C92.6,207.9,62,187,49,157.4
			c37.5,2.6,81.1,2.6,81.1,2.6c30.5,0.9,57.6-0.9,78.5-2.6C194.6,187.9,164.1,207.9,128.3,207.9z M228.6,137.3
			c-3.5,3.5-12.2,4.4-14.8-0.9c-3.5-5.2-5.2-10.5-7.9-15.7c0-0.9-0.9-1.7-1.7-1.7c-0.9,0-0.9,0.9-0.9,1.7c0,6.1,0,12.2,0,18.3
			c-2.6,0-4.4,0-7,0c0-6.1,0-11.3,0-17.4c0-2.6-0.9-6.1,0.9-8.7c2.6-2.6,6.1-3.5,9.6-2.6c1.7,0.9,3.5,2.6,5.2,4.4
			c2.6,5.2,5.2,10.5,7.9,15.7c0.9,0.9,2.6,0.9,2.6-0.9c0-7,0-13.1,0-20.1c2.6,0,5.2,0,7,0c0,7,0,14.8,0,21.8
			C229.4,133.8,229.4,136.5,228.6,137.3z"/>
	</g>
</g>
</svg>
