<svg xmlns="http://www.w3.org/2000/svg" viewBox="0 0 256 256"><path d="M175.4 116.4c-4.4 0-10.5-.9-10.5 5.2 5.2 0 11.3 0 16.6 0 1.7-4.3-2.6-5.2-6.1-5.2z"/><path d="M249.5 98.1c-3.5-.9-7-.9-11.3-1.7C225.1 51 180.6 17 128.3 17S32.4 50.1 18.5 95.5c-2.6.9-6.1.9-8.7 1.7-7.8 1.7-8.7 7-8.7 7.8-1.7 7-.9 31.4 0 40.1S9 153 9 153c2.6.9 6.1.9 8.7 1.7C31.5 201 76 235 128.3 235s96.8-34 109.9-79.4c7-.9 10.5-1.7 10.5-1.7 6.1-.9 7-8.7 7-8.7.9-11.3 0-38.4 0-38.4-.1-7.8-6.2-8.7-6.2-8.7zM128.3 43.2c35.8 0 66.3 20.9 79.4 49.7-62.8-4.4-129.1-2.7-157.9-.9 13.1-28.8 43.6-48.8 78.5-48.8zm62.8 84.5c0 3.5 0 7.8 0 11.3-2.6 0-5.2 0-7.9 0 0-3.5 0-7 0-11.3-5.2 0-11.3 0-16.6 0 0 3.5 0 6.1 0 9.6 0 .9-.9 1.7-1.7 1.7-1.7 0-2.6 0-4.4 0s-2.6-.9-2.6-1.7c0-7.9-.9-14.8 0-22.7 0-1.7 1.7-3.5 2.6-4.4 1.7-.9 3.5-.9 5.2-.9 4.4 0 8.7 0 13.1 0s10.5 0 12.2 4.4c.1 5.3-.8 9.7.1 14zm-63.7-8.7c7.9 3.5 15.7 5.2 23.5 9.6 1.7.9 1.7 3.5 1.7 5.2 0 1.7-.9 3.5-2.6 5.2-.9.9-2.6.9-4.4.9-9.6 0-19.2 0-28.8 0-.9-1.7 0-4.4 0-6.1 7.8 0 14.8 0 23.5 0 1.7 0 1.7-1.7 0-2.6-6.1-1.7-12.2-4.4-18.3-6.1-2.6-.9-4.4-2.6-4.4-5.2 0-1.7-.9-2.6 0-4.4 2.6-7 11.3-5.2 17.4-5.2s12.2 0 18.3 0c0 2.6 0 4.4 0 6.1-7.9 0-15.7 0-24.4 0-2.3 0-2.3 2.6-1.5 2.6zm-49.7 14.8c7.8 0 14.8 0 23.5 0 1.7 0 1.7-1.7 0-2.6-6.1-1.7-12.2-4.4-18.3-6.1-2.6-1.7-4.4-2.6-4.4-5.2 0-1.7-.9-2.6 0-4.4 2.6-7 11.3-5.2 17.4-5.2 6.1 0 12.2 0 18.3 0 0 2.6 0 4.4 0 6.1-7.8 0-15.7 0-23.5 0-.9 0-.9 0-1.7.9-.9.9 0 1.7.9 2.6 6.1 1.7 10.5 4.4 16.6 6.1 6.1.9 12.2 7.8 5.2 14-.9.9-.9 0-1.7.9-.9.9-.9 0-1.7 0-9.6 0-20 0-29.7 0-.9-3.6-.9-5.3-.9-7.1zm-4.3 6.1c-3.5 0-5.2 0-8.7 0 0-9.6 0-19.2 0-28.8 2.6 0 5.2 0 8.7 0 .8 8.8.8 18.4 0 28.8zm-29.7-4.3c-2.6-5.2-5.2-9.6-7.8-14.8-.9-.9-2.6-1.7-2.6 0 0 6.1 0 11.3 0 17.4 0 .9 0 1.7-1.7 1.7s-1.7 0-3.5 0c-.9 0-1.7-.9-1.7-1.7 0-7 0-13.9 0-20.9 0-1.7 0-3.5 1.7-5.2 2.6-1.7 6.1-2.6 9.6-.9 1.7.9 3.5 2.6 4.4 4.4 2.6 5.2 5.2 9.6 7.8 14.8.9 1.7 3.5.9 3.5-.9 0-7 0-12.2 0-19.2 2.6 0 4.4 0 7 0 0 7.8 0 15.7 0 22.7 0 1.7-.9 3.5-1.7 4.4-4.5 3.4-12.4 3.4-15-1.8zm84.6 72.3C92.6 207.9 62 187 49 157.4c37.5 2.6 81.1 2.6 81.1 2.6 30.5.9 57.6-.9 78.5-2.6-14 30.5-44.5 50.5-80.3 50.5zm100.3-70.6c-3.5 3.5-12.2 4.4-14.8-.9-3.5-5.2-5.2-10.5-7.9-15.7 0-.9-.9-1.7-1.7-1.7-.9 0-.9.9-.9 1.7 0 6.1 0 12.2 0 18.3-2.6 0-4.4 0-7 0 0-6.1 0-11.3 0-17.4 0-2.6-.9-6.1.9-8.7 2.6-2.6 6.1-3.5 9.6-2.6 1.7.9 3.5 2.6 5.2 4.4 2.6 5.2 5.2 10.5 7.9 15.7.9.9 2.6.9 2.6-.9 0-7 0-13.1 0-20.1 2.6 0 5.2 0 7 0 0 7 0 14.8 0 21.8-.1 2.6-.1 5.3-.9 6.1z"/></svg>