<?xml version="1.0" encoding="utf-8"?>
<!-- Generator: Adobe Illustrator 24.0.0, SVG Export Plug-In . SVG Version: 6.00 Build 0)  -->
<svg version="1.1" id="Layer_1" xmlns="http://www.w3.org/2000/svg" xmlns:xlink="http://www.w3.org/1999/xlink" x="0px" y="0px"
	 viewBox="0 0 256 256" style="enable-background:new 0 0 256 256;" xml:space="preserve">
<style type="text/css">
	.st0{fill:#8699A3;}
</style>
<g>
	<g>
		<path class="st0" d="M175.39,116.4c-4.36,0-10.46-0.87-10.46,5.23c5.23,0,11.34,0,16.57,0
			C183.24,117.27,178.88,116.4,175.39,116.4z"/>
		<path class="st0" d="M249.51,98.09c-3.49-0.87-6.98-0.87-11.34-1.74C225.09,51.01,180.63,17,128.31,17S32.4,50.13,18.45,95.47
			c-2.62,0.87-6.1,0.87-8.72,1.74c-7.85,1.74-8.72,6.98-8.72,7.85c-1.74,6.98-0.87,31.39,0,40.11c0.87,8.72,7.85,7.85,7.85,7.85
			c2.62,0.87,6.1,0.87,8.72,1.74c13.95,46.21,58.42,80.22,110.74,80.22s96.79-34.01,109.86-79.35c6.98-0.87,10.46-1.74,10.46-1.74
			c6.1-0.87,6.98-8.72,6.98-8.72c0.87-11.34,0-38.37,0-38.37C255.61,98.96,249.51,98.09,249.51,98.09z M128.31,43.16
			c35.75,0,66.27,20.93,79.35,49.7c-62.78-4.36-129.05-2.62-157.82-0.87C62.91,63.21,93.43,43.16,128.31,43.16z M191.09,127.74
			c0,3.49,0,7.85,0,11.34c-2.62,0-5.23,0-7.85,0c0-3.49,0-6.98,0-11.34c-5.23,0-11.34,0-16.57,0c0,3.49,0,6.1,0,9.59
			c0,0.87-0.87,1.74-1.74,1.74c-1.74,0-2.62,0-4.36,0s-2.62-0.87-2.62-1.74c0-7.85-0.87-14.82,0-22.67c0-1.74,1.74-3.49,2.62-4.36
			c1.74-0.87,3.49-0.87,5.23-0.87c4.36,0,8.72,0,13.08,0c4.36,0,10.46,0,12.21,4.36C191.09,119.02,190.22,123.38,191.09,127.74z
			 M127.44,119.02c7.85,3.49,15.69,5.23,23.54,9.59c1.74,0.87,1.74,3.49,1.74,5.23c0,1.74-0.87,3.49-2.62,5.23
			c-0.87,0.87-2.62,0.87-4.36,0.87c-9.59,0-19.18,0-28.77,0c-0.87-1.74,0-4.36,0-6.1c7.85,0,14.82,0,23.54,0
			c1.74,0,1.74-1.74,0-2.62c-6.1-1.74-12.21-4.36-18.31-6.1c-2.62-0.87-4.36-2.62-4.36-5.23c0-1.74-0.87-2.62,0-4.36
			c2.62-6.98,11.34-5.23,17.44-5.23s12.21,0,18.31,0c0,2.62,0,4.36,0,6.1c-7.85,0-15.69,0-24.41,0
			C126.57,116.4,126.57,119.02,127.44,119.02z M77.74,133.84c7.85,0,14.82,0,23.54,0c1.74,0,1.74-1.74,0-2.62
			c-6.1-1.74-12.21-4.36-18.31-6.1c-2.62-1.74-4.36-2.62-4.36-5.23c0-1.74-0.87-2.62,0-4.36c2.62-6.98,11.34-5.23,17.44-5.23
			c6.1,0,12.21,0,18.31,0c0,2.62,0,4.36,0,6.1c-7.85,0-15.69,0-23.54,0c-0.87,0-0.87,0-1.74,0.87c-0.87,0.87,0,1.74,0.87,2.62
			c6.1,1.74,10.46,4.36,16.57,6.1c6.1,0.87,12.21,7.85,5.23,13.95c-0.87,0.87-0.87,0-1.74,0.87c-0.87,0.87-0.87,0-1.74,0
			c-9.59,0-20.05,0-29.65,0C77.74,137.33,77.74,135.58,77.74,133.84z M73.38,139.94c-3.49,0-5.23,0-8.72,0c0-9.59,0-19.18,0-28.77
			c2.62,0,5.23,0,8.72,0C74.25,119.89,74.25,129.48,73.38,139.94z M43.73,135.58c-2.62-5.23-5.23-9.59-7.85-14.82
			c-0.87-0.87-2.62-1.74-2.62,0c0,6.1,0,11.34,0,17.44c0,0.87,0,1.74-1.74,1.74c-1.74,0-1.74,0-3.49,0c-0.87,0-1.74-0.87-1.74-1.74
			c0-6.98,0-13.95,0-20.93c0-1.74,0-3.49,1.74-5.23c2.62-1.74,6.1-2.62,9.59-0.87c1.74,0.87,3.49,2.62,4.36,4.36
			c2.62,5.23,5.23,9.59,7.85,14.82c0.87,1.74,3.49,0.87,3.49-0.87c0-6.98,0-12.21,0-19.18c2.62,0,4.36,0,6.98,0
			c0,7.85,0,15.69,0,22.67c0,1.74-0.87,3.49-1.74,4.36C54.19,140.82,46.35,140.82,43.73,135.58z M128.31,207.95
			c-35.75,0-66.27-20.93-79.35-50.57C86.46,160,130.05,160,130.05,160c30.52,0.87,57.55-0.87,78.47-2.62
			C194.58,187.9,164.06,207.95,128.31,207.95z M228.58,137.33c-3.49,3.49-12.21,4.36-14.82-0.87c-3.49-5.23-5.23-10.46-7.85-15.69
			c0-0.87-0.87-1.74-1.74-1.74c-0.87,0-0.87,0.87-0.87,1.74c0,6.1,0,12.21,0,18.31c-2.62,0-4.36,0-6.98,0c0-6.1,0-11.34,0-17.44
			c0-2.62-0.87-6.1,0.87-8.72c2.62-2.62,6.1-3.49,9.59-2.62c1.74,0.87,3.49,2.62,5.23,4.36c2.62,5.23,5.23,10.46,7.85,15.69
			c0.87,0.87,2.62,0.87,2.62-0.87c0-6.98,0-13.08,0-20.05c2.62,0,5.23,0,6.98,0c0,6.98,0,14.82,0,21.8
			C229.45,133.84,229.45,136.46,228.58,137.33z"/>
	</g>
</g>
</svg>
