<svg xmlns="http://www.w3.org/2000/svg" viewBox="0 0 250 250"><path d="M121.7 25.9v18.9c0 1.8 1.5 3.3 3.3 3.3 1.8 0 3.3-1.5 3.3-3.3V26.3c2.4-.4 4.7-1.4 6.5-2.9.1-.1.3 0 .4-.1.2-.2.3-.3.5-.5L210 65.5c-.1.2 0 .3-.1.5-.4 1.3-.7 2.7-.7 4.1 0 .9.2 1.7.3 2.5L193.1 82c-1.6.9-2.1 2.9-1.2 4.5.6 1 1.7 1.6 2.9 1.6.6 0 1.2-.2 1.6-.4l16-9.2a13.65 13.65 0 006.8 4.4s0 0 .1 0v81.6c0 1.8 1.5 3.3 3.3 3.3 1.8 0 3.3-1.5 3.3-3.3V83c1.2-.3 2.3-.7 3.4-1.4 4.1-2.4 6.7-6.8 6.7-11.6 0-2.3-.6-4.7-1.8-6.7a13.6 13.6 0 00-11.6-6.7c-2.4 0-4.7.6-6.7 1.8-.8.4-1.4 1-2 1.6l-75.1-43.2c.3-1.1.7-2.3.7-3.5C139.5 6 133.4 0 126 0s-13.4 6-13.4 13.4c0 5.8 3.8 10.7 9.1 12.5zm9.4-8.1c-.1.1-.2.3-.3.4a6.65 6.65 0 01-4.7 1.9c-3.8 0-6.8-3-6.8-6.8 0-3.7 3.1-6.8 6.8-6.8a6.74 6.74 0 015 11.3zM216.6 67c.1-.2.2-.3.3-.5.6-.9 1.4-1.8 2.3-2.3a6.84 6.84 0 019.3 2.5A6.84 6.84 0 01226 76a6.84 6.84 0 01-9.3-2.5 6.65 6.65 0 01-.1-6.5zM228.3 170.1c-2-1.2-4.4-1.8-6.7-1.8-3.3 0-6.4 1.3-8.8 3.3l-16.5-9.5c-1.6-.9-3.6-.4-4.5 1.2-.9 1.6-.3 3.6 1.2 4.5l16 9.2c-.5 1.5-.9 3-.9 4.6 0 1.2.2 2.5.5 3.6l-74.4 42.7c-.2-.2-.4-.4-.6-.6-.2-.2-.4-.3-.5-.5-1.1-1-2.4-1.9-3.8-2.5-.2-.1-.4-.1-.5-.2-.2-.1-.3-.1-.5-.2V205c0-1.8-1.5-3.3-3.3-3.3-1.8 0-3.3 1.5-3.3 3.3v18.5c-1.1.2-2.1.3-3.1.7-1.6.7-3 1.6-4.2 2.8 0 0-.1 0-.1.1l-69.9-40.2a3.3 3.3 0 00-4.5 1.2c-.4.8-.6 1.7-.3 2.5.2.8.8 1.6 1.5 2l70.1 40.3c-.3 1.1-.7 2.3-.7 3.5a13.4 13.4 0 0026.8 0c0-.9-.3-1.6-.5-2.4l75.2-43a12.94 12.94 0 009.6 4.1c4.8 0 9.3-2.6 11.6-6.7 1.2-2 1.8-4.3 1.8-6.7 0-4.8-2.5-9.2-6.7-11.6zm-10.1 17.5c-1-.6-1.9-1.5-2.5-2.5a6.92 6.92 0 010-6.8 6.84 6.84 0 019.3-2.5 6.84 6.84 0 012.5 9.3 7.05 7.05 0 01-9.3 2.5zm-99.8 45.2c.5-.7 1-1.2 1.7-1.7.2-.2.5-.3.7-.5 1-.5 2-.8 3.1-.8.8 0 1.6.2 2.4.5.2.1.4.2.6.3.5.3 1 .6 1.5 1 .2.1.3.3.5.4 1.2 1.2 1.9 2.8 1.9 4.6 0 3.7-3.1 6.8-6.8 6.8-3.8 0-6.8-3-6.8-6.8-.1-1.4.5-2.7 1.2-3.8zM40.5 177.4l16.4-9.4c1.6-.9 2.1-2.9 1.2-4.5-.9-1.6-2.9-2.1-4.5-1.2l-16 9.2c-1.8-2.2-4.2-3.8-6.9-4.4V81.5c.2 0 .5-.1.7-.2.4-.1.8-.2 1.2-.3.6-.2 1.3-.5 1.9-.8.4-.2.7-.4 1.1-.6.6-.4 1.1-.8 1.6-1.2l16.4 9.4c.5.3 1.1.4 1.7.4 1.2 0 2.3-.6 2.9-1.6.9-1.6.4-3.6-1.2-4.5l-16-9.2c.5-1.5.9-3 .9-4.6 0-1.2-.2-2.4-.5-3.6 0 0 0-.1 0-.1l69.2-39.7c1.6-.9 2.1-2.9 1.2-4.5-.4-.8-1.1-1.3-2-1.6-.9-.3-1.8-.1-2.5.3L38 59c-.9-.9-1.8-1.6-2.9-2.3A13.36 13.36 0 0015 68.3c0 4.8 2.6 9.2 6.7 11.6.8.4 1.6.7 2.4 1V167c-1.2.3-2.3.7-3.4 1.4-4.1 2.4-6.7 6.8-6.7 11.6 0 2.4.6 4.7 1.8 6.7 2.4 4.1 6.9 6.7 11.6 6.7 2.3 0 4.7-.6 6.7-1.8 4.2-2.4 6.7-6.8 6.7-11.6 0-1-.2-1.8-.3-2.6zM35.2 68.3c0 1.2-.3 2.4-.9 3.4-1.2 2-3.3 3.2-5.7 3.3-.2 0-.3 0-.5 0-1.1 0-2.2-.3-3.2-.9a6.84 6.84 0 01-2.5-9.3 6.84 6.84 0 019.3-2.5c2.2 1.3 3.5 3.6 3.5 6zm-1.9 108.2a6.84 6.84 0 01-2.5 9.3 6.84 6.84 0 01-9.3-2.5A6.84 6.84 0 0124 174a6.84 6.84 0 019.3 2.5z"/><path d="M89 180.4c-1.8 0-3.3 1.5-3.3 3.3 0 1.8 1.5 3.3 3.3 3.3h84.3c1.8 0 3.3-1.5 3.3-3.3v-26.9c0-13.5-11-24.4-24.5-24.4h-54c-13.7 0-24.8 11.1-24.8 24.7v10.7c0 1.8 1.5 3.3 3.3 3.3s3.3-1.5 3.3-3.3v-10.7c0-10 8.1-18.1 18.2-18.1H152c9.9 0 17.9 8 17.9 17.8v23.6H89zM125.1 122.9a29.94 29.94 0 100-59.9 29.94 29.94 0 100 59.9zm-23.4-30a23.4 23.4 0 0146.8 0 23.4 23.4 0 01-46.8 0z"/></svg>