<svg xmlns="http://www.w3.org/2000/svg" viewBox="0 0 29.21 32.75"><defs><style>.a{fill:none;stroke:#000;stroke-linecap:round;stroke-linejoin:round;stroke-width:0.75px;}</style></defs><title>278</title><path class="a" d="M10.33,21.47V20.13a2.27,2.27,0,0,1,2.28-2.26h6.76a2.24,2.24,0,0,1,2.25,2.24v3H11.46" transform="translate(-1.4 0.38)"/><path class="a" d="M13.05,12.11A2.94,2.94,0,1,1,16,15,2.94,2.94,0,0,1,13.05,12.11Z" transform="translate(-1.4 0.38)"/><circle class="a" cx="14.67" cy="2.36" r="1.99"/><circle class="a" cx="14.67" cy="30.39" r="1.99"/><circle class="a" cx="2.36" cy="9.32" r="1.99"/><circle class="a" cx="2.36" cy="23.3" r="1.99"/><circle class="a" cx="26.84" cy="9.32" r="1.99"/><circle class="a" cx="26.84" cy="23.3" r="1.99"/><line class="a" x1="4.09" y1="8.37" x2="12.93" y2="3.38"/><line class="a" x1="16.37" y1="3.36" x2="25.07" y2="8.4"/><line class="a" x1="26.83" y1="11.28" x2="26.83" y2="21.34"/><line class="a" x1="25.23" y1="24.47" x2="16.43" y2="29.51"/><line class="a" x1="12.86" y1="29.56" x2="4" y2="24.43"/><line class="a" x1="2.33" y1="21.29" x2="2.33" y2="11.31"/></svg>