<?xml version="1.0" encoding="utf-8"?>
<!-- Generator: Adobe Illustrator 24.0.0, SVG Export Plug-In . SVG Version: 6.00 Build 0)  -->
<svg version="1.1" id="Layer_1" xmlns="http://www.w3.org/2000/svg" xmlns:xlink="http://www.w3.org/1999/xlink" x="0px" y="0px"
	 viewBox="0 0 250 250" style="enable-background:new 0 0 250 250;" xml:space="preserve">
<g>
	<path d="M121.7,25.9v18.9c0,1.8,1.5,3.3,3.3,3.3c1.8,0,3.3-1.5,3.3-3.3V26.3c2.4-0.4,4.7-1.4,6.5-2.9c0.1-0.1,0.3,0,0.4-0.1
		c0.2-0.2,0.3-0.3,0.5-0.5L210,65.5c-0.1,0.2,0,0.3-0.1,0.5c-0.4,1.3-0.7,2.7-0.7,4.1c0,0.9,0.2,1.7,0.3,2.5l-16.4,9.4
		c-1.6,0.9-2.1,2.9-1.2,4.5c0.6,1,1.7,1.6,2.9,1.6c0.6,0,1.2-0.2,1.6-0.4l16-9.2c0.5,0.6,1.1,1.2,1.7,1.7c0.3,0.3,0.6,0.5,0.9,0.7
		c1.3,0.9,2.7,1.6,4.2,2c0,0,0,0,0.1,0v81.6c0,1.8,1.5,3.3,3.3,3.3c1.8,0,3.3-1.5,3.3-3.3V83c1.2-0.3,2.3-0.7,3.4-1.4
		c4.1-2.4,6.7-6.8,6.7-11.6c0-2.3-0.6-4.7-1.8-6.7c-2.4-4.1-6.9-6.7-11.6-6.7c-2.4,0-4.7,0.6-6.7,1.8c-0.8,0.4-1.4,1-2,1.6
		l-75.1-43.2c0.3-1.1,0.7-2.3,0.7-3.5C139.5,6,133.4,0,126,0c-7.4,0-13.4,6-13.4,13.4C112.6,19.2,116.4,24.1,121.7,25.9z
		 M131.1,17.8c-0.1,0.1-0.2,0.3-0.3,0.4c-1.2,1.2-2.9,1.9-4.7,1.9c-3.8,0-6.8-3-6.8-6.8c0-3.7,3.1-6.8,6.8-6.8c3.8,0,6.8,3,6.8,6.8
		C132.9,15.1,132.2,16.6,131.1,17.8z M216.6,67c0.1-0.2,0.2-0.3,0.3-0.5c0.6-0.9,1.4-1.8,2.3-2.3c1-0.6,2.2-0.9,3.4-0.9
		c2.4,0,4.7,1.3,5.9,3.4c0.6,1,0.9,2.2,0.9,3.4c0,2.4-1.3,4.7-3.4,5.9c-1,0.6-2.2,0.9-3.4,0.9c-2.4,0-4.7-1.3-5.9-3.4
		c-0.6-1-0.9-2.2-0.9-3.4C215.8,69,216.1,68,216.6,67z"/>
	<path d="M228.3,170.1c-2-1.2-4.4-1.8-6.7-1.8c-3.3,0-6.4,1.3-8.8,3.3l-16.5-9.5c-1.6-0.9-3.6-0.4-4.5,1.2c-0.9,1.6-0.3,3.6,1.2,4.5
		l16,9.2c-0.5,1.5-0.9,3-0.9,4.6c0,1.2,0.2,2.5,0.5,3.6l-74.4,42.7c-0.2-0.2-0.4-0.4-0.6-0.6c-0.2-0.2-0.4-0.3-0.5-0.5
		c-1.1-1-2.4-1.9-3.8-2.5c-0.2-0.1-0.4-0.1-0.5-0.2c-0.2-0.1-0.3-0.1-0.5-0.2v-18.9c0-1.8-1.5-3.3-3.3-3.3c-1.8,0-3.3,1.5-3.3,3.3
		v18.5c-1.1,0.2-2.1,0.3-3.1,0.7c-1.6,0.7-3,1.6-4.2,2.8c0,0-0.1,0-0.1,0.1l-69.9-40.2c-1.5-0.9-3.6-0.4-4.5,1.2
		c-0.4,0.8-0.6,1.7-0.3,2.5c0.2,0.8,0.8,1.6,1.5,2l70.1,40.3c-0.3,1.1-0.7,2.3-0.7,3.5c0,7.4,6,13.4,13.4,13.4
		c7.4,0,13.4-6,13.4-13.4c0-0.9-0.3-1.6-0.5-2.4L212,191c0.9,0.9,1.8,1.6,2.9,2.3c2,1.2,4.3,1.8,6.7,1.8c4.8,0,9.3-2.6,11.6-6.7
		c1.2-2,1.8-4.3,1.8-6.7C235,176.9,232.5,172.5,228.3,170.1z M218.2,187.6c-1-0.6-1.9-1.5-2.5-2.5c0,0,0,0,0,0c0,0,0,0,0,0
		c-0.6-1-0.9-2.2-0.9-3.4c0-1.2,0.3-2.3,0.9-3.4c1.2-2.1,3.5-3.4,5.9-3.4c1.2,0,2.4,0.3,3.4,0.9c2.1,1.2,3.4,3.5,3.4,5.9
		c0,1.2-0.3,2.3-0.9,3.4C225.7,188.2,221.3,189.4,218.2,187.6z M118.4,232.8c0.5-0.7,1-1.2,1.7-1.7c0.2-0.2,0.5-0.3,0.7-0.5
		c1-0.5,2-0.8,3.1-0.8c0.8,0,1.6,0.2,2.4,0.5c0.2,0.1,0.4,0.2,0.6,0.3c0.5,0.3,1,0.6,1.5,1c0.2,0.1,0.3,0.3,0.5,0.4
		c1.2,1.2,1.9,2.8,1.9,4.6c0,3.7-3.1,6.8-6.8,6.8c-3.8,0-6.8-3-6.8-6.8C117.1,235.2,117.7,233.9,118.4,232.8z"/>
	<path d="M40.5,177.4l16.4-9.4c1.6-0.9,2.1-2.9,1.2-4.5c-0.9-1.6-2.9-2.1-4.5-1.2l-16,9.2c-1.8-2.2-4.2-3.8-6.9-4.4V81.5
		c0.2,0,0.5-0.1,0.7-0.2c0.4-0.1,0.8-0.2,1.2-0.3c0.6-0.2,1.3-0.5,1.9-0.8c0.4-0.2,0.7-0.4,1.1-0.6c0.6-0.4,1.1-0.8,1.6-1.2
		l16.4,9.4c0.5,0.3,1.1,0.4,1.7,0.4c1.2,0,2.3-0.6,2.9-1.6c0.9-1.6,0.4-3.6-1.2-4.5l-16-9.2c0.5-1.5,0.9-3,0.9-4.6
		c0-1.2-0.2-2.4-0.5-3.6c0,0,0-0.1,0-0.1l69.2-39.7c1.6-0.9,2.1-2.9,1.2-4.5c-0.4-0.8-1.1-1.3-2-1.6c-0.9-0.3-1.8-0.1-2.5,0.3L38,59
		c-0.9-0.9-1.8-1.6-2.9-2.3c-2-1.2-4.4-1.8-6.7-1.8c-4.8,0-9.3,2.6-11.6,6.7c-1.2,2-1.8,4.4-1.8,6.7c0,4.8,2.6,9.2,6.7,11.6
		c0.8,0.4,1.6,0.7,2.4,1V167c-1.2,0.3-2.3,0.7-3.4,1.4c-4.1,2.4-6.7,6.8-6.7,11.6c0,2.4,0.6,4.7,1.8,6.7c2.4,4.1,6.9,6.7,11.6,6.7
		c2.3,0,4.7-0.6,6.7-1.8c4.2-2.4,6.7-6.8,6.7-11.6C40.8,179,40.6,178.2,40.5,177.4z M35.2,68.3c0,1.2-0.3,2.4-0.9,3.4
		c-1.2,2-3.3,3.2-5.7,3.3c-0.2,0-0.3,0-0.5,0c-1.1,0-2.2-0.3-3.2-0.9c-2.1-1.2-3.4-3.5-3.4-5.9c0-1.2,0.3-2.4,0.9-3.4
		c1.2-2.1,3.5-3.4,5.9-3.4c1.2,0,2.4,0.3,3.4,0.9C33.9,63.6,35.2,65.9,35.2,68.3z M33.3,176.5c0.6,1,0.9,2.2,0.9,3.4
		c0,2.4-1.3,4.7-3.4,5.9c-1,0.6-2.2,0.9-3.4,0.9c-2.4,0-4.7-1.3-5.9-3.4c-0.6-1-0.9-2.2-0.9-3.4c0-2.4,1.3-4.7,3.4-5.9
		c1-0.6,2.2-0.9,3.4-0.9C29.8,173.1,32.1,174.4,33.3,176.5z"/>
	<path d="M89,180.4c-1.8,0-3.3,1.5-3.3,3.3c0,1.8,1.5,3.3,3.3,3.3h84.3c1.8,0,3.3-1.5,3.3-3.3v-26.9c0-13.5-11-24.4-24.5-24.4H98.1
		c-13.7,0-24.8,11.1-24.8,24.7v10.7c0,1.8,1.5,3.3,3.3,3.3s3.3-1.5,3.3-3.3v-10.7c0-10,8.1-18.1,18.2-18.1h53.9
		c9.9,0,17.9,8,17.9,17.8v23.6H89z"/>
	<path d="M125.1,122.9c16.6,0,30-13.4,30-29.9S141.7,63,125.1,63s-30,13.4-30,29.9S108.5,122.9,125.1,122.9z M101.7,92.9
		c0-12.9,10.5-23.3,23.4-23.3s23.4,10.5,23.4,23.3c0,12.8-10.5,23.3-23.4,23.3S101.7,105.8,101.7,92.9z"/>
</g>
</svg>
