<?xml version="1.0" encoding="utf-8"?>
<!-- Generator: Adobe Illustrator 24.0.0, SVG Export Plug-In . SVG Version: 6.00 Build 0)  -->
<svg version="1.1" id="Layer_1" xmlns="http://www.w3.org/2000/svg" xmlns:xlink="http://www.w3.org/1999/xlink" x="0px" y="0px"
	 viewBox="0 0 26.31 21.34" style="enable-background:new 0 0 26.31 21.34;" xml:space="preserve">
<style type="text/css">
	.st0{fill:#8699A3;}
</style>
<g>
	<g>
		<path class="st0" d="M0.7,15.83c0.13,0.69,0.3,1.37,0.56,2.02c0.16,0.37,0.32,0.74,0.56,1.07c0.44,0.63,1.03,1.1,1.73,1.4
			c0.29,0.13,0.58,0.23,0.89,0.32c0.84,0.25,1.7,0.38,2.57,0.45c0.83,0.07,1.67,0.13,2.51,0.16c1.21,0.04,2.41,0.06,3.36,0.08
			c1.01-0.01,1.76-0.02,2.5-0.04c1.05-0.02,2.09-0.06,3.14-0.14c0.78-0.06,1.56-0.13,2.33-0.28c0.63-0.12,1.25-0.28,1.84-0.54
			c0.98-0.43,1.72-1.11,2.17-2.09c0.19-0.41,0.35-0.83,0.47-1.27c0.23-0.84,0.39-1.69,0.51-2.54c0.11-0.85,0.21-1.7,0.29-2.55
			c0.09-0.85,0.14-1.7,0.16-2.55c0.03-1.37,0.05-2.73-0.07-4.1c-0.04-0.52-0.13-1.04-0.3-1.54c-0.27-0.85-0.74-1.57-1.46-2.11
			C24,1.24,23.49,1,22.94,0.82c-0.73-0.24-1.48-0.36-2.24-0.46c-0.93-0.11-1.86-0.19-2.8-0.24c-0.97-0.05-1.93-0.08-2.9-0.1
			c-1.29-0.03-2.59-0.02-3.89,0C9.65,0.05,8.19,0.11,6.74,0.25C6.01,0.31,5.28,0.39,4.57,0.52C3.96,0.63,3.36,0.79,2.8,1.03
			C1.83,1.45,1.09,2.11,0.63,3.07C0.37,3.61,0.22,4.19,0.14,4.78C0.05,5.41,0.02,6.04,0.01,6.67C0,7.48-0.01,8.29,0.01,9.11
			c0.02,1.45,0.16,2.9,0.33,4.34C0.43,14.25,0.55,15.04,0.7,15.83z M1.33,7.94c0.02-0.7,0.04-1.39,0.08-2.08
			C1.45,5.24,1.52,4.64,1.7,4.04c0.24-0.75,0.64-1.39,1.29-1.86c0.37-0.26,0.78-0.45,1.21-0.59c0.48-0.16,0.96-0.26,1.46-0.32
			c0.69-0.09,1.38-0.17,2.07-0.23C8.2,1,8.68,0.97,9.17,0.95c0.8-0.04,1.61-0.08,2.41-0.09c1.18-0.01,2.37-0.01,3.55,0.01
			c0.89,0.02,1.79,0.07,2.69,0.12c0.96,0.05,1.92,0.15,2.86,0.29c0.62,0.09,1.23,0.22,1.8,0.46c0.7,0.29,1.29,0.72,1.7,1.38
			c0.24,0.38,0.39,0.79,0.5,1.22c0.11,0.43,0.16,0.87,0.19,1.31c0.11,1.32,0.12,2.64,0.1,3.96c-0.02,0.78-0.07,1.57-0.15,2.35
			c-0.06,0.64-0.12,1.28-0.2,1.91c-0.13,1.04-0.3,2.07-0.62,3.06c-0.11,0.34-0.24,0.68-0.41,0.99c-0.41,0.8-1.04,1.36-1.87,1.71
			c-0.51,0.21-1.05,0.34-1.58,0.42c-0.93,0.15-1.87,0.22-2.81,0.28c-1.29,0.07-2.58,0.11-3.87,0.11c-0.1,0-0.2,0-0.31,0
			c0,0.01,0,0.01,0,0.02c-1.12-0.03-2.23-0.04-3.35-0.08c-0.81-0.03-1.63-0.09-2.43-0.16c-0.68-0.06-1.34-0.15-2-0.31
			c-0.33-0.08-0.64-0.19-0.94-0.33c-0.81-0.37-1.4-0.96-1.78-1.76c-0.26-0.53-0.43-1.08-0.57-1.65c-0.19-0.78-0.32-1.56-0.41-2.35
			c-0.09-0.89-0.18-1.78-0.26-2.66C1.32,10.07,1.31,9.01,1.33,7.94z"/>
		<path class="st0" d="M5.35,3.18c0.03,0.47,0.06,0.94,0.09,1.41c0.05,0.77,0.1,1.54,0.15,2.31c0.04,0.63,0.08,1.26,0.12,1.89
			c0.05,0.73,0.1,1.47,0.15,2.2c0.04,0.59,0.08,1.17,0.12,1.76c0.06,0.8,0.12,1.6,0.17,2.4c0.05,0.65,0.1,1.31,0.15,1.96
			c0.06,0.75,0.12,1.51,0.19,2.26c0,0.06,0.01,0.13,0.02,0.19c0.47,0.1,2.21,0.19,2.62,0.18c0.02-0.06,0.03-0.11,0.05-0.17
			c0.22-0.82,0.45-1.65,0.68-2.47c0.13-0.45,0.29-0.89,0.51-1.3c0.27-0.52,0.7-0.81,1.27-0.91c0.5-0.08,1.01-0.12,1.52-0.12
			c0.51,0,1.02,0.04,1.53,0.12c0.55,0.09,0.97,0.38,1.22,0.87c0.06,0.11,0.11,0.22,0.16,0.33c0.18,0.41,0.33,0.83,0.45,1.27
			c0.21,0.74,0.4,1.48,0.6,2.22c0.02,0.06,0.04,0.11,0.05,0.17c0.51,0.03,2.38-0.11,2.63-0.2c0.49-5.85,0.86-11.72,1.23-17.6
			c-0.61-0.09-1.21-0.12-1.82-0.14c-0.01,0.05-0.02,0.09-0.03,0.13c-0.25,1.11-0.49,2.21-0.74,3.32c-0.36,1.62-0.76,3.23-1.19,4.83
			c-0.14,0.52-0.31,1.03-0.55,1.52c-0.45,0.94-1.2,1.45-2.23,1.6c-0.38,0.05-0.77,0.07-1.16,0.07c-0.56,0-1.13,0-1.68-0.1
			c-0.7-0.13-1.27-0.45-1.71-1.01c-0.22-0.28-0.37-0.6-0.5-0.93c-0.23-0.57-0.39-1.15-0.55-1.74C8.27,7.14,7.75,4.79,7.24,2.43
			C7.19,2.22,7.15,2.02,7.09,1.8C6.48,1.82,5.88,1.86,5.28,1.94c0,0.05,0,0.08,0,0.11C5.3,2.43,5.33,2.8,5.35,3.18z"/>
	</g>
</g>
</svg>
