<?xml version="1.0" encoding="utf-8"?>
<!-- Generator: Adobe Illustrator 24.0.0, SVG Export Plug-In . SVG Version: 6.00 Build 0)  -->
<svg version="1.1" id="Layer_1" xmlns="http://www.w3.org/2000/svg" xmlns:xlink="http://www.w3.org/1999/xlink" x="0px" y="0px"
	 viewBox="0 0 256 256" style="enable-background:new 0 0 256 256;" xml:space="preserve">
<style type="text/css">
	.st0{fill:#8699A3;}
</style>
<g>
	<g>
		<path class="st0" d="M6.82,177.99c1.26,6.71,2.92,13.33,5.45,19.65c1.56,3.6,3.11,7.2,5.45,10.41
			c4.28,6.13,10.02,10.7,16.83,13.62c2.82,1.26,5.64,2.24,8.66,3.11c8.17,2.43,16.54,3.7,25,4.38c8.07,0.68,16.25,1.26,24.42,1.56
			c11.77,0.39,23.45,0.58,32.69,0.78c9.83-0.1,17.12-0.19,24.32-0.39c10.21-0.19,20.33-0.58,30.55-1.36
			c7.59-0.58,15.18-1.26,22.67-2.72c6.13-1.17,12.16-2.72,17.9-5.25c9.53-4.18,16.73-10.8,21.11-20.33
			c1.85-3.99,3.4-8.07,4.57-12.36c2.24-8.17,3.79-16.44,4.96-24.71c1.07-8.27,2.04-16.54,2.82-24.81
			c0.88-8.27,1.36-16.54,1.56-24.81c0.29-13.33,0.49-26.56-0.68-39.89c-0.39-5.06-1.26-10.12-2.92-14.98
			c-2.63-8.27-7.2-15.27-14.2-20.53c-4.48-3.31-9.44-5.64-14.79-7.39c-7.1-2.33-14.4-3.5-21.79-4.48
			c-9.05-1.07-18.1-1.85-27.24-2.33c-9.44-0.49-18.78-0.78-28.21-0.97c-12.55-0.29-25.2-0.19-37.84,0
			c-14.2,0.29-28.41,0.88-42.51,2.24c-7.1,0.58-14.2,1.36-21.11,2.63c-5.93,1.07-11.77,2.63-17.22,4.96
			C17.82,38.1,10.62,44.52,6.14,53.86c-2.53,5.25-3.99,10.9-4.77,16.64C0.5,76.62,0.21,82.75,0.11,88.88
			c-0.1,7.88-0.19,15.76,0,23.74c0.19,14.11,1.56,28.21,3.21,42.22C4.2,162.62,5.36,170.31,6.82,177.99z M12.95,101.24
			c0.19-6.81,0.39-13.52,0.78-20.24c0.39-6.03,1.07-11.87,2.82-17.71c2.33-7.3,6.23-13.52,12.55-18.1c3.6-2.53,7.59-4.38,11.77-5.74
			c4.67-1.56,9.34-2.53,14.2-3.11c6.71-0.88,13.43-1.65,20.14-2.24c4.57-0.39,9.24-0.68,14.01-0.88c7.78-0.39,15.66-0.78,23.45-0.88
			c11.48-0.1,23.06-0.1,34.54,0.1c8.66,0.19,17.41,0.68,26.17,1.17c9.34,0.49,18.68,1.46,27.82,2.82
			c6.03,0.88,11.97,2.14,17.51,4.48c6.81,2.82,12.55,7,16.54,13.43c2.33,3.7,3.79,7.69,4.86,11.87c1.07,4.18,1.56,8.46,1.85,12.74
			c1.07,12.84,1.17,25.68,0.97,38.52c-0.19,7.59-0.68,15.27-1.46,22.86c-0.58,6.23-1.17,12.45-1.95,18.58
			c-1.26,10.12-2.92,20.14-6.03,29.77c-1.07,3.31-2.33,6.62-3.99,9.63c-3.99,7.78-10.12,13.23-18.19,16.64
			c-4.96,2.04-10.21,3.31-15.37,4.09c-9.05,1.46-18.19,2.14-27.34,2.72c-12.55,0.68-25.1,1.07-37.65,1.07c-0.97,0-1.95,0-3.02,0
			c0,0.1,0,0.1,0,0.19c-10.9-0.29-21.69-0.39-32.59-0.78c-7.88-0.29-15.86-0.88-23.64-1.56c-6.62-0.58-13.04-1.46-19.46-3.02
			c-3.21-0.78-6.23-1.85-9.14-3.21c-7.88-3.6-13.62-9.34-17.32-17.12c-2.53-5.16-4.18-10.51-5.55-16.05
			c-1.85-7.59-3.11-15.18-3.99-22.86c-0.88-8.66-1.75-17.32-2.53-25.88C12.86,121.96,12.76,111.65,12.95,101.24z"/>
		<path class="st0" d="M52.06,54.93c0.29,4.57,0.58,9.14,0.88,13.72c0.49,7.49,0.97,14.98,1.46,22.47
			c0.39,6.13,0.78,12.26,1.17,18.39c0.49,7.1,0.97,14.3,1.46,21.4c0.39,5.74,0.78,11.38,1.17,17.12c0.58,7.78,1.17,15.57,1.65,23.35
			c0.49,6.32,0.97,12.74,1.46,19.07c0.58,7.3,1.17,14.69,1.85,21.99c0,0.58,0.1,1.26,0.19,1.85c4.57,0.97,21.5,1.85,25.49,1.75
			c0.19-0.58,0.29-1.07,0.49-1.65c2.14-7.98,4.38-16.05,6.62-24.03c1.26-4.38,2.82-8.66,4.96-12.65c2.63-5.06,6.81-7.88,12.36-8.85
			c4.86-0.78,9.83-1.17,14.79-1.17c4.96,0,9.92,0.39,14.88,1.17c5.35,0.88,9.44,3.7,11.87,8.46c0.58,1.07,1.07,2.14,1.56,3.21
			c1.75,3.99,3.21,8.07,4.38,12.36c2.04,7.2,3.89,14.4,5.84,21.6c0.19,0.58,0.39,1.07,0.49,1.65c4.96,0.29,23.15-1.07,25.59-1.95
			c4.77-56.91,8.37-114.02,11.97-171.22c-5.93-0.88-11.77-1.17-17.71-1.36c-0.1,0.49-0.19,0.88-0.29,1.26
			c-2.43,10.8-4.77,21.5-7.2,32.3c-3.5,15.76-7.39,31.42-11.58,46.99c-1.36,5.06-3.02,10.02-5.35,14.79
			c-4.38,9.14-11.67,14.11-21.69,15.57c-3.7,0.49-7.49,0.68-11.29,0.68c-5.45,0-10.99,0-16.34-0.97
			c-6.81-1.26-12.36-4.38-16.64-9.83c-2.14-2.72-3.6-5.84-4.86-9.05c-2.24-5.55-3.79-11.19-5.35-16.93
			c-5.84-22.96-10.9-45.82-15.86-68.78c-0.49-2.04-0.88-3.99-1.46-6.13c-5.93,0.19-11.77,0.58-17.61,1.36c0,0.49,0,0.78,0,1.07
			C51.57,47.63,51.87,51.23,52.06,54.93z"/>
	</g>
</g>
</svg>
