<svg xmlns="http://www.w3.org/2000/svg" viewBox="0 0 256 256">
<path d="M6.8,178c1.3,6.7,2.9,13.3,5.5,19.6c1.6,3.6,3.1,7.2,5.5,10.4c4.3,6.1,10,10.7,16.8,13.6c2.8,1.3,5.6,2.2,8.7,3.1c8.2,2.4,16.5,3.7,25,4.4c8.1,0.7,16.2,1.3,24.4,1.6c11.8,0.4,23.4,0.6,32.7,0.8c9.8-0.1,17.1-0.2,24.3-0.4c10.2-0.2,20.3-0.6,30.6-1.4c7.6-0.6,15.2-1.3,22.7-2.7c6.1-1.2,12.2-2.7,17.9-5.2c9.5-4.2,16.7-10.8,21.1-20.3c1.9-4,3.4-8.1,4.6-12.4c2.2-8.2,3.8-16.4,5-24.7c1.1-8.3,2-16.5,2.8-24.8c0.9-8.3,1.4-16.5,1.6-24.8c0.3-13.3,0.5-26.6-0.7-39.9c-0.4-5.1-1.3-10.1-2.9-15c-2.6-8.3-7.2-15.3-14.2-20.5c-4.5-3.3-9.4-5.6-14.8-7.4c-7.1-2.3-14.4-3.5-21.8-4.5c-9.1-1.1-18.1-1.9-27.2-2.3c-9.4-0.5-18.8-0.8-28.2-1c-12.6-0.3-25.2-0.2-37.8,0c-14.2,0.3-28.4,0.9-42.5,2.2c-7.1,0.6-14.2,1.4-21.1,2.6c-5.9,1.1-11.8,2.6-17.2,5c-9.5,4.1-16.7,10.5-21.1,19.8c-2.5,5.2-4,10.9-4.8,16.6c-0.9,6.1-1.2,12.2-1.3,18.4c-0.1,7.9-0.2,15.8,0,23.7c0.2,14.1,1.6,28.2,3.2,42.2C4.2,162.6,5.4,170.3,6.8,178z M12.9,101.2c0.2-6.8,0.4-13.5,0.8-20.2c0.4-6,1.1-11.9,2.8-17.7c2.3-7.3,6.2-13.5,12.5-18.1c3.6-2.5,7.6-4.4,11.8-5.7c4.7-1.6,9.3-2.5,14.2-3.1c6.7-0.9,13.4-1.7,20.1-2.2c4.6-0.4,9.2-0.7,14-0.9c7.8-0.4,15.7-0.8,23.4-0.9c11.5-0.1,23.1-0.1,34.5,0.1c8.7,0.2,17.4,0.7,26.2,1.2c9.3,0.5,18.7,1.5,27.8,2.8c6,0.9,12,2.1,17.5,4.5c6.8,2.8,12.6,7,16.5,13.4c2.3,3.7,3.8,7.7,4.9,11.9s1.6,8.5,1.9,12.7c1.1,12.8,1.2,25.7,1,38.5c-0.2,7.6-0.7,15.3-1.5,22.9c-0.6,6.2-1.2,12.4-1.9,18.6c-1.3,10.1-2.9,20.1-6,29.8c-1.1,3.3-2.3,6.6-4,9.6c-4,7.8-10.1,13.2-18.2,16.6c-5,2-10.2,3.3-15.4,4.1c-9.1,1.5-18.2,2.1-27.3,2.7c-12.6,0.7-25.1,1.1-37.6,1.1c-1,0-1.9,0-3,0c0,0.1,0,0.1,0,0.2c-10.9-0.3-21.7-0.4-32.6-0.8c-7.9-0.3-15.9-0.9-23.6-1.6c-6.6-0.6-13-1.5-19.5-3c-3.2-0.8-6.2-1.9-9.1-3.2c-7.9-3.6-13.6-9.3-17.3-17.1c-2.5-5.2-4.2-10.5-5.5-16.1c-1.9-7.6-3.1-15.2-4-22.9c-0.9-8.7-1.8-17.3-2.5-25.9C12.9,122,12.8,111.7,12.9,101.2z"/>
<path d="M52.1,54.9c0.3,4.6,0.6,9.1,0.9,13.7c0.5,7.5,1,15,1.5,22.5c0.4,6.1,0.8,12.3,1.2,18.4c0.5,7.1,1,14.3,1.5,21.4c0.4,5.7,0.8,11.4,1.2,17.1c0.6,7.8,1.2,15.6,1.7,23.4c0.5,6.3,1,12.7,1.5,19.1c0.6,7.3,1.2,14.7,1.8,22c0,0.6,0.1,1.3,0.2,1.9c4.6,1,21.5,1.9,25.5,1.8c0.2-0.6,0.3-1.1,0.5-1.6c2.1-8,4.4-16.1,6.6-24c1.3-4.4,2.8-8.7,5-12.6c2.6-5.1,6.8-7.9,12.4-8.9c4.9-0.8,9.8-1.2,14.8-1.2c5,0,9.9,0.4,14.9,1.2c5.4,0.9,9.4,3.7,11.9,8.5c0.6,1.1,1.1,2.1,1.6,3.2c1.8,4,3.2,8.1,4.4,12.4c2,7.2,3.9,14.4,5.8,21.6c0.2,0.6,0.4,1.1,0.5,1.6c5,0.3,23.1-1.1,25.6-1.9c4.8-56.9,8.4-114,12-171.2c-5.9-0.9-11.8-1.2-17.7-1.4c-0.1,0.5-0.2,0.9-0.3,1.3c-2.4,10.8-4.8,21.5-7.2,32.3c-3.5,15.8-7.4,31.4-11.6,47c-1.4,5.1-3,10-5.4,14.8c-4.4,9.1-11.7,14.1-21.7,15.6c-3.7,0.5-7.5,0.7-11.3,0.7c-5.4,0-11,0-16.3-1c-6.8-1.3-12.4-4.4-16.6-9.8c-2.1-2.7-3.6-5.8-4.9-9.1c-2.2-5.6-3.8-11.2-5.3-16.9c-5.8-23-10.9-45.8-15.9-68.8c-0.5-2-0.9-4-1.5-6.1c-5.9,0.2-11.8,0.6-17.6,1.4c0,0.5,0,0.8,0,1.1C51.6,47.6,51.9,51.2,52.1,54.9z"/>
</svg>