<svg xmlns="http://www.w3.org/2000/svg" viewBox="0 0 33.75 33.96"><defs><style>.a{fill:none;stroke:#000;stroke-linecap:round;stroke-linejoin:round;stroke-width:0.75px;}</style></defs><title>283</title><path class="a" d="M21.05,5.54a1.41,1.41,0,1,1,1.42-1.41A1.42,1.42,0,0,1,21.05,5.54Z" transform="translate(0.38 0.38)"/><path class="a" d="M3.89,4.51A2.26,2.26,0,1,1,6.15,2.25,2.26,2.26,0,0,1,3.89,4.51Z" transform="translate(0.38 0.38)"/><path class="a" d="M18.22,22.73a6,6,0,1,1,6-6A6,6,0,0,1,18.22,22.73Z" transform="translate(0.38 0.38)"/><path class="a" d="M18.21,24.64a7.93,7.93,0,1,1,7.93-7.92A7.93,7.93,0,0,1,18.21,24.64Z" transform="translate(0.38 0.38)"/><line class="a" x1="21.33" y1="5.92" x2="20.96" y2="9.51"/><path class="a" d="M11.2,31.58a.84.84,0,1,1-1.06.53A.84.84,0,0,1,11.2,31.58Z" transform="translate(0.38 0.38)"/><line class="a" x1="11.71" y1="32.01" x2="15.21" y2="24.25"/><path class="a" d="M6.5,23.23a1.42,1.42,0,1,1-2,.19A1.42,1.42,0,0,1,6.5,23.23Z" transform="translate(0.38 0.38)"/><line class="a" x1="7.14" y1="23.91" x2="11.56" y2="20.83"/><line class="a" x1="5.76" y1="4.32" x2="12.57" y2="11.94"/><path class="a" d="M27.8,2.94a2.6,2.6,0,1,1,2.82,2.37A2.62,2.62,0,0,1,27.8,2.94Z" transform="translate(0.38 0.38)"/><line class="a" x1="29.21" y1="5.17" x2="23.73" y2="11.04"/><path class="a" d="M3.07,13.08a1.92,1.92,0,1,1,.4-2.69A1.93,1.93,0,0,1,3.07,13.08Z" transform="translate(0.38 0.38)"/><line class="a" x1="4.18" y1="12.3" x2="11.33" y2="13.85"/></svg>