<?xml version="1.0" encoding="utf-8"?>
<!-- Generator: Adobe Illustrator 24.0.0, SVG Export Plug-In . SVG Version: 6.00 Build 0)  -->
<svg version="1.1" id="Layer_1" xmlns="http://www.w3.org/2000/svg" xmlns:xlink="http://www.w3.org/1999/xlink" x="0px" y="0px"
	 viewBox="0 0 250 250" style="enable-background:new 0 0 250 250;" xml:space="preserve">
<g>
	<g>
		<g>
			<g>
				<path d="M231.7,224.9H18.3c-9.3,0-16.9-7.6-16.9-16.9V70.7c0-4.7,3.8-8.5,8.5-8.5h230.4c4.7,0,8.5,3.8,8.5,8.5V208
					C248.7,217.3,241.1,224.9,231.7,224.9z M9.8,66.2c-2.5,0-4.5,2-4.5,4.5V208c0,7.1,5.8,13,13,13h213.5c7.1,0,13-5.8,13-13V70.7
					c0-2.5-2-4.5-4.5-4.5H9.8z"/>
				<path d="M231.7,226.3H18.3C8.2,226.3,0,218.1,0,208V70.7c0-5.4,4.4-9.8,9.8-9.8h230.3c5.4,0,9.8,4.4,9.8,9.8V208
					C250,218.1,241.8,226.3,231.7,226.3z M9.8,63.5c-3.9,0-7.2,3.2-7.2,7.2V208c0,8.6,7,15.6,15.6,15.6h213.5
					c8.6,0,15.6-7,15.6-15.6V70.7c0-3.9-3.2-7.2-7.2-7.2H9.8z M231.7,222.3H18.3C10.4,222.3,4,215.9,4,208V70.7
					c0-3.2,2.6-5.9,5.9-5.9h230.3c3.2,0,5.9,2.6,5.9,5.9V208C246,215.9,239.6,222.3,231.7,222.3z M9.8,67.5c-1.8,0-3.2,1.4-3.2,3.2
					V208c0,6.4,5.2,11.6,11.6,11.6h213.5c6.4,0,11.6-5.2,11.6-11.6V70.7c0-1.8-1.4-3.2-3.2-3.2H9.8z"/>
			</g>
		</g>
		<g>
			<g>
				<path d="M222.3,134.9h-31.7c-1.1,0-2-0.9-2-2c0-1.1,0.9-2,2-2h31.7c12.3,0,22.4-10,22.4-22.4v-9.3c0-1.1,0.9-2,2-2s2,0.9,2,2
					v9.3C248.7,123,236.8,134.9,222.3,134.9z"/>
				<path d="M222.3,136.2h-31.7c-1.8,0-3.3-1.5-3.3-3.3c0-1.8,1.5-3.3,3.3-3.3h31.7c11.6,0,21.1-9.4,21.1-21.1v-9.3
					c0-1.8,1.5-3.3,3.3-3.3c1.8,0,3.3,1.5,3.3,3.3v9.3C250,123.8,237.6,136.2,222.3,136.2z M190.7,132.2c-0.4,0-0.6,0.3-0.6,0.6
					s0.3,0.6,0.6,0.6h31.7c13.8,0,25-11.2,25-25v-9.3c0-0.7-1.3-0.7-1.3,0v9.3c0,13.1-10.6,23.7-23.7,23.7H190.7z"/>
			</g>
		</g>
		<g>
			<g>
				<path d="M59.4,134.9H27.7c-14.5,0-26.4-11.8-26.4-26.4v-9.3c0-1.1,0.9-2,2-2s2,0.9,2,2v9.3c0,12.3,10,22.4,22.4,22.4h31.7
					c1.1,0,2,0.9,2,2C61.3,134,60.5,134.9,59.4,134.9z"/>
				<path d="M59.4,136.2H27.7C12.4,136.2,0,123.8,0,108.5v-9.3c0-1.8,1.5-3.3,3.3-3.3s3.3,1.5,3.3,3.3v9.3c0,11.6,9.4,21.1,21,21.1
					h31.7c1.8,0,3.3,1.5,3.3,3.3C62.7,134.7,61.2,136.2,59.4,136.2z M3.3,98.6c-0.4,0-0.6,0.3-0.6,0.6v9.3c0,13.8,11.2,25,25,25
					h31.7c0.4,0,0.6-0.3,0.6-0.6s-0.3-0.6-0.6-0.6H27.7C14.6,132.2,4,121.6,4,108.5v-9.3C4,98.9,3.7,98.6,3.3,98.6z"/>
			</g>
		</g>
		<g>
			<g>
				<path d="M165.3,134.9H84.7c-1.1,0-2-0.9-2-2c0-1.1,0.9-2,2-2h80.7c1.1,0,2,0.9,2,2C167.3,134,166.4,134.9,165.3,134.9z"/>
				<path d="M165.3,136.2H84.7c-1.8,0-3.3-1.5-3.3-3.3c0-1.8,1.5-3.3,3.3-3.3h80.7c1.8,0,3.3,1.5,3.3,3.3
					C168.7,134.7,167.2,136.2,165.3,136.2z M84.7,132.2c-0.4,0-0.6,0.3-0.6,0.6s0.3,0.6,0.6,0.6h80.7c0.4,0,0.6-0.3,0.6-0.6
					s-0.3-0.6-0.6-0.6H84.7z"/>
			</g>
		</g>
		<g>
			<g>
				<g>
					<path d="M178,158c-8.1,0-14.6-6.6-14.6-14.6v-20.9c0-8.1,6.6-14.6,14.6-14.6s14.6,6.6,14.6,14.6v20.9
						C192.6,151.4,186.1,158,178,158z M178,111.8c-5.9,0-10.7,4.8-10.7,10.7v20.9c0,5.9,4.8,10.7,10.7,10.7s10.7-4.8,10.7-10.7
						v-20.9C188.7,116.5,183.9,111.8,178,111.8z"/>
					<path d="M178,159.3c-8.8,0-16-7.2-16-16v-20.9c0-8.8,7.2-16,16-16c8.8,0,16,7.2,16,16v20.9C194,152.2,186.8,159.3,178,159.3z
						 M178,109.1c-7.3,0-13.3,6-13.3,13.3v20.9c0,7.3,6,13.3,13.3,13.3c7.3,0,13.3-6,13.3-13.3v-20.9
						C191.3,115.1,185.3,109.1,178,109.1z M178,155.4c-6.6,0-12-5.4-12-12v-20.9c0-6.6,5.4-12,12-12c6.6,0,12,5.4,12,12v20.9
						C190,150,184.6,155.4,178,155.4z M178,113.1c-5.1,0-9.3,4.2-9.3,9.3v20.9c0,5.1,4.2,9.3,9.3,9.3s9.3-4.2,9.3-9.3v-20.9
						C187.3,117.3,183.1,113.1,178,113.1z"/>
				</g>
			</g>
			<g>
				<g>
					<path d="M72,158c-8.1,0-14.6-6.6-14.6-14.6v-20.9c0-8.1,6.6-14.6,14.6-14.6s14.6,6.6,14.6,14.6v20.9
						C86.7,151.4,80.1,158,72,158z M72,111.8c-5.9,0-10.7,4.8-10.7,10.7v20.9c0,5.9,4.8,10.7,10.7,10.7c5.9,0,10.7-4.8,10.7-10.7
						v-20.9C82.7,116.5,77.9,111.8,72,111.8z"/>
					<path d="M72,159.3c-8.8,0-16-7.2-16-16v-20.9c0-8.8,7.2-16,16-16s16,7.2,16,16v20.9C88,152.2,80.8,159.3,72,159.3z M72,109.1
						c-7.3,0-13.3,6-13.3,13.3v20.9c0,7.3,6,13.3,13.3,13.3c7.3,0,13.3-6,13.3-13.3v-20.9C85.3,115.1,79.3,109.1,72,109.1z
						 M72,155.4c-6.6,0-12-5.4-12-12v-20.9c0-6.6,5.4-12,12-12c6.6,0,12,5.4,12,12v20.9C84,150,78.6,155.4,72,155.4z M72,113.1
						c-5.1,0-9.3,4.2-9.3,9.3v20.9c0,5.1,4.2,9.3,9.3,9.3c5.1,0,9.3-4.2,9.3-9.3v-20.9C81.3,117.3,77.2,113.1,72,113.1z"/>
				</g>
			</g>
		</g>
	</g>
	<g>
		<g>
			<g>
				<path d="M166.7,66.2H83.3c-1.1,0-2-0.9-2-2V34.1c0-5,4-9,9-9h69.4c5,0,9,4,9,9v30.1C168.7,65.3,167.8,66.2,166.7,66.2z
					 M85.3,62.2h79.5V34.1c0-2.8-2.3-5-5-5H90.3c-2.8,0-5,2.3-5,5V62.2z"/>
				<path d="M166.7,67.5H83.3c-1.8,0-3.3-1.5-3.3-3.3V34.1c0-5.7,4.6-10.3,10.3-10.3h69.4c5.7,0,10.3,4.6,10.3,10.3v30.1
					C170,66,168.5,67.5,166.7,67.5z M90.3,26.4c-4.2,0-7.7,3.4-7.7,7.7v30.1c0,0.4,0.3,0.6,0.6,0.6h83.4c0.4,0,0.6-0.3,0.6-0.6V34.1
					c0-4.2-3.4-7.7-7.7-7.7H90.3z M166.1,63.5H83.9V34.1c0-3.5,2.9-6.4,6.4-6.4h69.4c3.5,0,6.4,2.9,6.4,6.4V63.5z M86.6,60.9h76.8
					V34.1c0-2-1.7-3.7-3.7-3.7H90.3c-2,0-3.7,1.7-3.7,3.7V60.9z"/>
			</g>
		</g>
		<g>
			<g>
				<path d="M148.2,66.2h-46.3c-1.1,0-2-0.9-2-2V43.9c0-2.3,1.9-4.2,4.2-4.2h41.8c2.3,0,4.2,1.9,4.2,4.2v20.2
					C150.1,65.3,149.3,66.2,148.2,66.2z M103.8,62.2h42.3V43.9c0-0.1-0.1-0.3-0.3-0.3h-41.8c-0.1,0-0.3,0.1-0.3,0.3V62.2z"/>
				<path d="M148.2,67.5h-46.3c-1.8,0-3.3-1.5-3.3-3.3V43.9c0-3.1,2.5-5.6,5.6-5.6h41.8c3.1,0,5.6,2.5,5.6,5.6v20.2
					C151.5,66,150,67.5,148.2,67.5z M104.1,41c-1.6,0-2.9,1.3-2.9,2.9v20.2c0,0.4,0.3,0.6,0.6,0.6h46.3c0.4,0,0.6-0.3,0.6-0.6V43.9
					c0-1.6-1.3-2.9-2.9-2.9H104.1z M147.5,63.5h-45V43.9c0-0.9,0.7-1.6,1.6-1.6h41.8c0.9,0,1.6,0.7,1.6,1.6V63.5z M105.2,60.9h39.7
					V45h-39.7V60.9z"/>
			</g>
		</g>
	</g>
</g>
</svg>
