<svg xmlns="http://www.w3.org/2000/svg" viewBox="0 0 32.75 12.13"><defs><style>.a{fill:none;stroke:#000;stroke-linecap:round;stroke-linejoin:round;stroke-width:0.75px;}</style></defs><title>291</title><rect class="a" x="0.38" y="0.38" width="32" height="11.38" rx="1.09"/><path class="a" d="M5.87,14.67l1.2-.45h0v3.55" transform="translate(0.38 -9.93)"/><path class="a" d="M11.59,15.25a1.08,1.08,0,0,1,.13-.54,1,1,0,0,1,.39-.38,1,1,0,0,1,.56-.14,1.07,1.07,0,0,1,.76.25.9.9,0,0,1,.27.69,1.16,1.16,0,0,1-.15.54,4.42,4.42,0,0,1-.54.74l-1,1.11h1.86" transform="translate(0.38 -9.93)"/><path class="a" d="M18,15.16a.88.88,0,0,1,.14-.5.92.92,0,0,1,.38-.35,1.19,1.19,0,0,1,.54-.12,1,1,0,0,1,.76.26.94.94,0,0,1,.27.72.72.72,0,0,1-.16.46.88.88,0,0,1-.44.33.88.88,0,0,1,.5.31.89.89,0,0,1,.17.54,1,1,0,0,1-.3.73,1.11,1.11,0,0,1-.79.27,1.32,1.32,0,0,1-.57-.12,1,1,0,0,1-.56-.88" transform="translate(0.38 -9.93)"/><path class="a" d="M25.84,16.87H24.18v-.16l1.64-2.48h.31v3.43" transform="translate(0.38 -9.93)"/></svg>