<svg xmlns="http://www.w3.org/2000/svg" viewBox="0 0 32.75 28.4"><defs><style>.a{fill:none;stroke:#000;stroke-linecap:round;stroke-linejoin:round;stroke-width:0.75px;}</style></defs><title>292</title><path class="a" d="M29.1,22.66,31.77,19a1.34,1.34,0,0,0-.33-1.84L10.91,2.42a1.35,1.35,0,0,0-1.86.31L2.41,12.05a1.36,1.36,0,0,0,.31,1.86m18.52,1.8H1.33A1.36,1.36,0,0,0,0,17V28.5a1.36,1.36,0,0,0,1.34,1.33H26.05a1.36,1.36,0,0,0,1.33-1.33V17a1.36,1.36,0,0,0-1.33-1.33H21.24Z" transform="translate(0.38 -1.8)"/><line class="a" x1="9.11" y1="7.92" x2="15.5" y2="12.28"/><line class="a" x1="10.98" y1="5.32" x2="13.39" y2="7.01"/><line class="a" x1="15.09" y1="8.25" x2="17.18" y2="9.68"/><line class="a" x1="25.22" y1="22.25" x2="22.76" y2="19.66"/><line class="a" x1="23.97" y1="24.47" x2="22.76" y2="22.94"/><line class="a" x1="20.29" y1="22.25" x2="22.75" y2="19.66"/><line class="a" x1="21.56" y1="24.47" x2="22.77" y2="22.94"/><line class="a" x1="5.97" y1="17.71" x2="11.33" y2="17.71"/><line class="a" x1="5.97" y1="20.92" x2="11.33" y2="20.92"/><line class="a" x1="22.76" y1="23.18" x2="22.76" y2="17.83"/><line class="a" x1="5.97" y1="24.14" x2="11.33" y2="24.14"/></svg>