<?xml version="1.0" encoding="utf-8"?>
<!-- Generator: Adobe Illustrator 24.0.0, SVG Export Plug-In . SVG Version: 6.00 Build 0)  -->
<svg version="1.1" id="Layer_1" xmlns="http://www.w3.org/2000/svg" xmlns:xlink="http://www.w3.org/1999/xlink" x="0px" y="0px"
	 viewBox="0 0 250 250" style="enable-background:new 0 0 250 250;" xml:space="preserve">
<g>
	<g>
		<path d="M86.3,151.1c0,1.5-1.3,2.8-2.8,2.8H45.6c-1.5,0-2.8-1.3-2.8-2.8c0-1.6,1.3-2.8,2.8-2.8h37.9
			C85,148.3,86.3,149.5,86.3,151.1z"/>
	</g>
	<g>
		<path d="M86.3,176.5c0,1.5-1.3,2.8-2.8,2.8H45.6c-1.5,0-2.8-1.3-2.8-2.8s1.3-2.8,2.8-2.8h37.9C85,173.7,86.3,175,86.3,176.5z"/>
	</g>
	<g>
		<path d="M86.3,202.1c0,1.5-1.3,2.8-2.8,2.8H45.6c-1.5,0-2.8-1.3-2.8-2.8c0-1.5,1.3-2.8,2.8-2.8h37.9
			C85,199.3,86.3,200.5,86.3,202.1z"/>
	</g>
	<g>
		<path d="M245.6,132.4L88.4,20.3c-4.7-3.3-11.2-2.2-14.5,2.4L22,95.6c-3.2,4.7-2.1,11.1,2.5,14.5l2.9,2.1c0.5,0.2,1.3,0.2,2-0.1
			c0.7-0.3,1.2-0.8,1.5-1.4c0.5-1,0.3-2.3-0.5-3.1l-2.9-1.9c-2.2-1.6-2.7-4.6-1.2-6.8l52-72.9c1.6-2.2,4.6-2.7,6.8-1.2l99.3,70.7
			l-0.6,0.9l-17.9,25H96.1l-0.3-0.2l-23.9-17c-0.7-0.7-1.4-1-2-1c-0.9-0.1-1.5,0.2-2,0.7c-0.6,0.5-0.9,1.2-0.9,2
			c0,0.8,0.3,1.4,0.8,2c0.3,0.3,0.5,0.5,0.9,0.7l18,12.9H10.4C4.7,121.4,0.2,126,0,131.7v89.5c0.2,5.7,4.7,10.3,10.5,10.4h193.1
			c5.7-0.1,10.3-4.7,10.4-10.4v-89.5c-0.1-5.7-4.7-10.2-10.4-10.4h-30.9l16.2-22.6l53.6,38.1c2.1,1.6,2.6,4.6,1.2,6.8l-20.9,28.9
			c-0.2,0.5-0.3,1.3,0,2c0.3,0.7,0.9,1.3,1.5,1.6c1,0.4,2.2,0.3,3.1-0.6l20.9-28.8C251.4,142.1,250.2,135.7,245.6,132.4z
			 M203.6,126.9c2.3,0.1,4.2,1.7,4.7,3.8h0.1l0.1,1v89.5c0,2.7-2.2,4.9-4.9,4.9h-65.8v-8.9c0-1.5-1.3-2.8-2.8-2.8
			c-1.5,0-2.8,1.3-2.8,2.8v8.9H10.4c-2.7,0-4.9-2.2-4.9-4.9v-89.5c0-2.7,2.2-4.9,4.9-4.9h121.8V202c0,1.5,1.3,2.8,2.8,2.8
			c1.6,0,2.8-1.3,2.8-2.8v-75.1H203.6z"/>
	</g>
	<g>
		<path d="M107.4,68.2c0.1,0.8-0.3,1.4-0.7,2c-0.5,0.5-1.2,0.9-2,0.9c-0.5,0-1.1-0.3-1.5-0.5l-5.2-3.7c-0.3-0.2-0.6-0.4-0.9-0.7
			c-0.5-0.5-0.8-1.2-0.8-2c0-0.8,0.3-1.4,0.9-2c0.5-0.5,1.2-0.9,2-0.9c0,0,0,0,0.1,0c0.7,0.1,1.4,0.3,2,1l5,3.6
			C107,66.7,107.4,67.4,107.4,68.2z"/>
	</g>
	<g>
		<path d="M133.1,86.5c0.1,0.7-0.2,1.4-0.6,2c-0.5,0.6-1.2,0.9-2,1c-0.6,0-1.1-0.2-1.4-0.4l-13.3-9.5c-0.9-0.9-1-2-0.5-3.1
			c0.4-1,1.5-1.6,2.6-1.6c0.3,0,0.7,0,0.9,0.2l13.3,9.5C132.7,85,133.1,85.8,133.1,86.5z"/>
	</g>
	<g>
		<path d="M117.8,108.3c-0.6,1.4-2.3,2-3.5,1.4L83.5,87.9C82.2,87,82,85.3,82.8,84c0.9-1.2,2.6-1.4,3.8-0.6l30.6,21.8
			C118.2,106,118.3,107.2,117.8,108.3z"/>
	</g>
	<g>
		<path d="M191.8,184.3c-1.3,0.9-3,0.6-4-0.9l-10.2-10.1v17.5l8.7,8.7l0.3,0.2c0.4,0.3,0.8,0.6,1,1c0.4,0.6,0.5,1.4,0.3,2.1
			c-0.2,0.7-0.6,1.4-1.3,1.7c-0.6,0.4-1.4,0.5-2.1,0.3c-0.7-0.2-1.4-0.7-1.9-1.5l-6.6-6.6h-1.8l-6.8,6.8c-0.2,0.3-0.4,0.5-0.7,0.8
			c-0.7,0.4-1.4,0.6-2.1,0.4c-0.8-0.2-1.4-0.6-1.8-1.2c-0.4-0.6-0.6-1.4-0.4-2.1c0.1-0.7,0.5-1.4,1.3-1.9l8.8-8.9v-17.4l-10.3,10.3
			c-0.3,0.3-0.5,0.6-0.8,0.8c-1.3,0.9-3.1,0.5-3.9-0.7c-0.4-0.7-0.6-1.4-0.4-2.1c0.1-0.8,0.5-1.4,1.3-2l13.8-13.7l0.3-0.3L172,155
			c0-1.5,1.2-2.8,2.8-2.8c1.5,0,2.8,1.3,2.8,2.8v10.5l14.1,14.2c0.3,0.2,0.6,0.4,0.8,0.7C193.4,181.6,193.1,183.4,191.8,184.3z"/>
	</g>
</g>
</svg>
