<svg xmlns="http://www.w3.org/2000/svg" viewBox="0 0 32.75 23.33"><defs><style>.a{fill:none;stroke:#000;stroke-linecap:round;stroke-linejoin:round;stroke-width:0.75px;}</style></defs><title>293</title><circle class="a" cx="17.25" cy="13.1" r="5.04"/><path class="a" d="M28.62,7.55H22.31L21,5.27a1.14,1.14,0,0,0-1-.56H12a1.22,1.22,0,0,0-1,.56L9.69,7.55H8V7.16a.56.56,0,0,0-.56-.56H3.72a.57.57,0,0,0-.57.56v.39A3.37,3.37,0,0,0,0,10.93v13a3.39,3.39,0,0,0,3.38,3.38H28.62A3.39,3.39,0,0,0,32,23.91v-13A3.39,3.39,0,0,0,28.62,7.55Z" transform="translate(0.38 -4.33)"/></svg>