<svg xmlns="http://www.w3.org/2000/svg" viewBox="0 0 256 256"><path d="M252.3 130.7l-50.4-93.1c-.6-1.3-1.9-2.1-3.4-2.2l-17.1-.4v-8.6c2.6-.5 4.6-2.7 4.6-5.2l.5-11.1V9c0-1.9-1.4-3.6-3.2-4.1-.2-.1-.5-.2-.8-.2L168.7.2c-.4-.1-1.1-.2-1.4-.2h-23.7c-1.1 0-2 .4-2.7 1-.3.2-.6.5-.9.7-.7.7-1.1 2.7-1.1 3.6l-.6 10.3c0 2.2 1.3 4.1 3.3 5.2.2.1.5.2.7.2l1.9.5V34l-64.7-1.8c-1.1.1-2.4.5-3.2 1.4L2.9 119.4c-1 1.1-1.2 2.8-.6 4.3A4 4 0 006 126h25.2v85.3c0 1.6 1 3.1 2.5 3.8l102.5 40.6s.1 0 .1 0c.4.2.9.3 1.4.3.1 0 .1-.1.2-.1.3 0 .7-.1.9-.1l98.9-20.1c1.9-.4 3.2-2 3.2-3.9v-94.4l8-.7c1.4-.1 2.6-.9 3.1-2.1.9-1.3.9-2.7.3-3.9zm-213.1-9.8l49.4-55.7 40.9 79.5c.7 1.4 2.1 2.2 3.6 2.2h.3l.5-.1V246l-94.5-37.4V122c0-.4-.1-.7-.2-1.1zm193.9 107.6L142 247V146.2l84.1-7.5 7-.6v90.4zm4.2-98.8c-.2-.1-.3-.1-.5-.1l-99.3 8.9c-.1 0-.2 0-.3.1l-1.8.2-42.3-82.5c-.6-1.2-1.8-2-3.1-2.2h-.5c-1.2 0-2.3.5-3.1 1.4L31 118H14.8L81 40.3l63 1.7 4 .2 4 .1V18.4c0-1.8-1.3-3.4-3.1-3.9l-2.7-.7.2-5.7h20.1l11.5 3.7-.3 6.6h-.6c-2.2 0-4 1.9-4 4v20.4l4 .2 4 .1 14.6.4 46.3 85.7-4.7.5z"/></svg>