<?xml version="1.0" encoding="utf-8"?>
<!-- Generator: Adobe Illustrator 24.0.0, SVG Export Plug-In . SVG Version: 6.00 Build 0)  -->
<svg version="1.1" id="Layer_1" xmlns="http://www.w3.org/2000/svg" xmlns:xlink="http://www.w3.org/1999/xlink" x="0px" y="0px"
	 viewBox="0 0 256 256" style="enable-background:new 0 0 256 256;" xml:space="preserve">
<path d="M252.3,130.7l-50.4-93.1c-0.6-1.3-1.9-2.1-3.4-2.2L181.4,35v-8.6c2.6-0.5,4.6-2.7,4.6-5.2l0.5-11.1V9c0-1.9-1.4-3.6-3.2-4.1
	c-0.2-0.1-0.5-0.2-0.8-0.2l-13.8-4.5c-0.4-0.1-1.1-0.2-1.4-0.2h-23.7c-1.1,0-2,0.4-2.7,1c-0.3,0.2-0.6,0.5-0.9,0.7
	c-0.7,0.7-1.1,2.7-1.1,3.6l-0.6,10.3c0,2.2,1.3,4.1,3.3,5.2c0.2,0.1,0.5,0.2,0.7,0.2l1.9,0.5V34l-64.7-1.8c-1.1,0.1-2.4,0.5-3.2,1.4
	L2.9,119.4c-1,1.1-1.2,2.8-0.6,4.3c0.6,1.4,2.1,2.3,3.7,2.3h25.2v85.3c0,1.6,1,3.1,2.5,3.8l102.5,40.6c0,0,0,0,0,0c0,0,0.1,0,0.1,0
	c0.4,0.2,0.9,0.3,1.4,0.3c0.1,0,0.1-0.1,0.2-0.1c0.3,0,0.7-0.1,0.9-0.1l98.9-20.1c1.9-0.4,3.2-2,3.2-3.9v-94.4l8-0.7
	c1.4-0.1,2.6-0.9,3.1-2.1C252.9,133.3,252.9,131.9,252.3,130.7z M39.2,120.9L39.2,120.9l49.4-55.7l40.9,79.5
	c0.7,1.4,2.1,2.2,3.6,2.2h0.3l0.5-0.1V246l-94.5-37.4V122C39.4,121.6,39.3,121.3,39.2,120.9z M233.1,228.5L142,247V146.2l84.1-7.5
	l7-0.6V228.5z M237.3,129.7c-0.2-0.1-0.3-0.1-0.5-0.1l-99.3,8.9c-0.1,0-0.2,0-0.3,0.1l-1.8,0.2L93.1,56.3c-0.6-1.2-1.8-2-3.1-2.2
	h-0.5c-1.2,0-2.3,0.5-3.1,1.4L31,118H14.8L81,40.3l63,1.7l4,0.2l4,0.1v-8.1V18.4c0-1.8-1.3-3.4-3.1-3.9l-2.7-0.7l0.2-5.7h20.1
	l11.5,3.7l-0.3,6.6h-0.6c-2.2,0-4,1.9-4,4v12.4v8l4,0.2l4,0.1l14.6,0.4l46.3,85.7L237.3,129.7z"/>
</svg>
