<svg xmlns="http://www.w3.org/2000/svg" viewBox="0 0 32.38 32.75"><defs><style>.a{fill:none;stroke:#000;stroke-linecap:round;stroke-linejoin:round;stroke-width:0.75px;}</style></defs><title>294</title><path class="a" d="M4.08,12.61v19.1a.28.28,0,0,0,.25.29h23c.16,0,.26-.1.26-.29V12.61m-.51-2V4.62h.66V3.05H22.5V4.62h.66V7.45M13.85,21.29c0,.1,0,.14-.15.14h-5a.15.15,0,0,1-.15-.14v-5a.13.13,0,0,1,.15-.15h5a.16.16,0,0,1,.15.15Zm-.67,10.48a.15.15,0,0,1-.15-.14V24.27a.13.13,0,0,1,.15-.15h5.06a.16.16,0,0,1,.15.15v7.36c0,.09-.05.14-.15.14M22.6,21.29c0,.1-.05.14-.15.14H17.39a.15.15,0,0,1-.15-.14v-5a.13.13,0,0,1,.15-.15h5.06a.16.16,0,0,1,.15.15ZM24.34,1.18A2.52,2.52,0,0,1,26.9,0a3.74,3.74,0,0,1,.74.24,11.19,11.19,0,0,0,4.18.78M.18,14.72,15.86,1.58h0L31.55,14.72" transform="translate(0.19 0.37)"/></svg>