<?xml version="1.0" encoding="utf-8"?>
<!-- Generator: Adobe Illustrator 24.0.0, SVG Export Plug-In . SVG Version: 6.00 Build 0)  -->
<svg version="1.1" id="Layer_1" xmlns="http://www.w3.org/2000/svg" xmlns:xlink="http://www.w3.org/1999/xlink" x="0px" y="0px"
	 viewBox="0 0 256 256" style="enable-background:new 0 0 256 256;" xml:space="preserve">
<style type="text/css">
	.st0{fill:#8699A3;}
</style>
<path class="st0" d="M252.28,130.72l-50.37-93.08c-0.64-1.29-1.93-2.1-3.38-2.18l-17.17-0.48v-8.62c2.58-0.48,4.59-2.74,4.59-5.24
	l0.48-11.12V9.03c0-1.93-1.37-3.63-3.22-4.11c-0.24-0.08-0.48-0.24-0.81-0.24l-13.78-4.51c-0.4-0.08-1.05-0.16-1.45-0.16h-23.69
	c-1.05,0-2.01,0.4-2.74,0.97c-0.32,0.24-0.64,0.48-0.89,0.73c-0.73,0.73-1.13,2.66-1.13,3.63l-0.56,10.32c0,2.18,1.29,4.11,3.3,5.16
	c0.24,0.08,0.48,0.16,0.73,0.24l1.85,0.48v12.49l-64.72-1.77c-1.13,0.08-2.42,0.48-3.22,1.37L2.92,119.44
	c-0.97,1.13-1.21,2.82-0.56,4.27c0.64,1.45,2.1,2.34,3.71,2.34h25.25v85.3c0,1.65,1.01,3.14,2.54,3.75l102.5,40.61
	c0.01,0,0.02,0.01,0.03,0.02c0.04,0.01,0.08,0.01,0.12,0.02c0.45,0.16,0.91,0.26,1.37,0.26c0.08,0,0.14-0.06,0.21-0.06
	c0.34-0.02,0.68-0.07,0.95-0.14l98.89-20.07c1.85-0.4,3.22-2.01,3.22-3.95v-94.45l7.98-0.73c1.37-0.08,2.58-0.89,3.14-2.09
	C252.92,133.3,252.92,131.93,252.28,130.72z M39.15,120.93l0.04-0.04l49.4-55.61l40.86,79.54c0.73,1.37,2.1,2.18,3.63,2.18h0.32
	l0.48-0.08v99.13L39.38,208.6v-86.58C39.38,121.63,39.26,121.28,39.15,120.93z M233.1,228.48l-91.15,18.54V146.19l84.14-7.5
	l7.01-0.64V228.48z M237.29,129.67c-0.16-0.08-0.32-0.08-0.48-0.08l-99.29,8.87c-0.08,0-0.24,0-0.32,0.08l-1.77,0.16L93.11,56.33
	c-0.64-1.21-1.77-2.01-3.06-2.18h-0.48c-1.21,0-2.26,0.48-3.06,1.37l-55.53,62.46h-16.2L81.02,40.3l63.02,1.69l4.03,0.16l4.03,0.08
	v-8.06v-15.8c0-1.77-1.29-3.38-3.06-3.87l-2.66-0.73l0.24-5.72h20.15l11.52,3.71l-0.32,6.61h-0.64c-2.18,0-4.03,1.85-4.03,4.03
	v12.41v7.98l4.03,0.16l4.03,0.08l14.59,0.4l46.34,85.75L237.29,129.67z"/>
</svg>
