<svg xmlns="http://www.w3.org/2000/svg" viewBox="0 0 28.01 32.75"><defs><style>.a{fill:none;stroke:#000;stroke-linecap:round;stroke-linejoin:round;stroke-width:0.75px;}</style></defs><title>296</title><path class="a" d="M15,13.43a23.8,23.8,0,0,0-5.1,2.32c-1.05.6-4.89,2.85-4,4.32a1,1,0,0,0,.93.43c1.15,0,2.26-.13,4.9-1.65a24.33,24.33,0,0,0,4.56-3.26m2.61-4.53a23.59,23.59,0,0,0,.55-5.58C19.39,4.27,19.3,0,17.6,0s-1.79,4.27-1.79,5.48a24.21,24.21,0,0,0,.54,5.58M19,15.59a24.21,24.21,0,0,0,4.55,3.26c2.65,1.52,3.92,1.65,5.07,1.65a1,1,0,0,0,.93-.43c.33-.57-.09-1.31-1.37-2.41a13.08,13.08,0,0,0-2.84-1.91,23.59,23.59,0,0,0-5.1-2.32" transform="translate(-1.99 0.38)"/><path class="a" d="M15,13.43a23.8,23.8,0,0,0-5.1,2.32c-1.05.6-4.89,2.85-4,4.32a1,1,0,0,0,.93.43c1.15,0,2.26-.13,4.9-1.65a24.33,24.33,0,0,0,4.56-3.26m2.61-4.53a23.59,23.59,0,0,0,.55-5.58C19.39,4.27,19.3,0,17.6,0s-1.79,4.27-1.79,5.48a24.21,24.21,0,0,0,.54,5.58M19,15.59a24.21,24.21,0,0,0,4.55,3.26c2.65,1.52,3.92,1.65,5.07,1.65a1,1,0,0,0,.93-.43c.33-.57-.09-1.31-1.37-2.41a13.08,13.08,0,0,0-2.84-1.91,23.59,23.59,0,0,0-5.1-2.32" transform="translate(-1.99 0.38)"/><line class="a" x1="15.64" y1="16.35" x2="15.64" y2="32.33"/><line class="a" x1="12.84" y1="32.38" x2="18.52" y2="32.38"/><circle class="a" cx="15.6" cy="13.73" r="2.62"/><line class="a" x1="2.24" y1="13.41" x2="0.38" y2="15.75"/><line class="a" x1="5.06" y1="12.81" x2="3.19" y2="15.15"/><line class="a" x1="25.45" y1="23.95" x2="22.57" y2="23.16"/><line class="a" x1="27.11" y1="26.31" x2="24.23" y2="25.51"/><line class="a" x1="20.11" y1="4.64" x2="21.47" y2="1.98"/><line class="a" x1="22.53" y1="3.84" x2="23.89" y2="1.17"/></svg>