<svg xmlns="http://www.w3.org/2000/svg" viewBox="0 0 30.48 32.75"><defs><style>.a{fill:none;stroke:#000;stroke-linecap:round;stroke-linejoin:round;stroke-width:0.75px;}</style></defs><title>297</title><path class="a" d="M13.86,18.86l-1.74-1.74a2.82,2.82,0,0,1,0-4L24.61.8a2.83,2.83,0,0,1,3.95,0L30.3,2.55a.71.71,0,0,1,0,1h0L14.86,18.86a.71.71,0,0,1-1,0Zm.78,4.77L4.7,13.72a.94.94,0,0,0-1.32,0l-2,2a.92.92,0,0,0,0,1.32l10,9.92" transform="translate(-0.76 0.38)"/><line class="a" x1="6.26" y1="32.04" x2="27.74" y2="9.48"/><line class="a" x1="27.85" y1="5.76" x2="27.85" y2="31.81"/><line class="a" x1="25.82" y1="32.38" x2="30.11" y2="32.38"/><line class="a" x1="4.12" y1="32.38" x2="8.41" y2="32.38"/></svg>