<svg xmlns="http://www.w3.org/2000/svg" viewBox="0 0 32.13 32.75"><defs><style>.a{fill:none;stroke:#000;stroke-linecap:round;stroke-linejoin:round;stroke-width:0.75px;}</style></defs><title>298</title><path class="a" d="M31.69,16.15a10.57,10.57,0,0,0-3.63-8V.73A.73.73,0,0,0,27.34,0H14.8a.72.72,0,0,0-.72.73h0V8.18a10.59,10.59,0,0,0-1,14.93,11,11,0,0,0,1,1v7.14a.73.73,0,0,0,.72.73H27.34a.72.72,0,0,0,.72-.73h0V24.13A10.57,10.57,0,0,0,31.69,16.15Zm-3.63-8A11.77,11.77,0,0,0,26.61,7.1L26.41,7l-.25-.14-.52-.27-.23-.11-.77-.31h0l-.76-.23-.26-.06L23,5.73l-.29-.05-.57-.07-.26,0c-.28,0-.56,0-.84,0s-.56,0-.83,0l-.26,0-.58.07-.29.05-.56.13a1.83,1.83,0,0,0-.25.06c-.27.07-.53.15-.79.24h0c-.26.1-.52.2-.77.32l-.22.1L16,6.85,15.74,7l-.21.11a12.63,12.63,0,0,0-1.45,1.08m0,16a9.82,9.82,0,0,0,1.45,1.08l.19.11.26.15.52.26.23.11a8.26,8.26,0,0,0,.77.31l0,0,.75.23.26.06a5.59,5.59,0,0,0,.56.12l.29.06.58.07.26,0c.27,0,.55,0,.83,0s.56,0,.84,0l.26,0,.57-.07.29-.06a5.05,5.05,0,0,0,.56-.12l.26-.06c.26-.07.52-.15.77-.24h0c.26-.09.52-.2.77-.31l.23-.11.53-.26.24-.14.2-.12a16.52,16.52,0,0,0,1.45-1.08" transform="translate(0.07 0.37)"/><path class="a" d="M20.35,9.27v6.89a.72.72,0,0,0,.72.72H23.7" transform="translate(0.07 0.37)"/><path class="a" d="M5.12,22.2v5.16a.51.51,0,0,0,.52.52h8.29M13.75,4.79H5.64a.52.52,0,0,0-.52.52h0v5" transform="translate(0.07 0.37)"/><polyline class="a" points="12.26 10.7 2.75 10.7 2.75 22.06 12.09 22.06"/><line class="a" x1="2.47" y1="14.65" x2="0.38" y2="14.65"/><line class="a" x1="2.47" y1="18.58" x2="0.38" y2="18.58"/></svg>