<svg xmlns="http://www.w3.org/2000/svg" viewBox="0 0 32.75 26.1"><defs><style>.a{fill:none;stroke:#000;stroke-linecap:round;stroke-linejoin:round;stroke-width:0.75px;}</style></defs><title>3</title><path class="a" d="M25.14,9a2.9,2.9,0,0,1,2.08-.65c1.32.11,2.71,1.09,3.91,2.77a.47.47,0,0,0,.64.16.48.48,0,0,0,.21-.55c0-.16-1.05-4.06-4.14-4.57a3.4,3.4,0,0,0-1.79.13,3.75,3.75,0,0,1,.62-.42,4.94,4.94,0,0,1,4.12-.27.47.47,0,0,0,.66-.09.48.48,0,0,0-.1-.66c-.14-.11-3.13-2.55-5.72-1a4,4,0,0,0-1.8,4c-.94-.66-2.44-1.39-3.8-.71-2.08,1-2.14,5.12-2.14,5.59a.47.47,0,0,0,.41.47h.06a.49.49,0,0,0,.47-.37S19.5,10,21.32,9.13a2.78,2.78,0,0,1,1.53-.22,3.27,3.27,0,0,0-1.68,2.29c-.7,3.5,2.39,6,2.52,6.11a.47.47,0,0,0,.73-.54c-.57-1.49-1.6-5.43-.09-7.08a30.15,30.15,0,0,1,4.36,18.49.46.46,0,0,0,.44.49h2.38a.47.47,0,0,0,.47-.47v0C31.94,27.64,31,15.27,25.14,9Z" transform="translate(0.37 -2.95)"/><path class="a" d="M22.26,19.39l-8.92-7.52a.5.5,0,0,0-.61,0L3.81,19.39a.47.47,0,0,0-.07.66.48.48,0,0,0,.37.17h.94v8a.48.48,0,0,0,.47.47H7.87V22.1a.47.47,0,0,1,.47-.47H12.1a.47.47,0,0,1,.47.47v6.58h8a.48.48,0,0,0,.47-.47v-8H22a.47.47,0,0,0,.47-.47A.46.46,0,0,0,22.26,19.39Zm-3.84,6a.47.47,0,0,1-.47.47H15a.47.47,0,0,1-.47-.47V22.1a.47.47,0,0,1,.47-.47H18a.47.47,0,0,1,.47.47Z" transform="translate(0.37 -2.95)"/><line class="a" x1="5.1" y1="21.98" x2="0.38" y2="21.98"/><line class="a" x1="5.1" y1="23.83" x2="0.38" y2="23.83"/><line class="a" x1="5.1" y1="25.68" x2="0.38" y2="25.68"/><line class="a" x1="28.38" y1="21.98" x2="21.88" y2="21.98"/><line class="a" x1="28.38" y1="23.83" x2="21.88" y2="23.83"/><line class="a" x1="28.38" y1="25.68" x2="21.88" y2="25.68"/></svg>