<?xml version="1.0" encoding="utf-8"?>
<!-- Generator: Adobe Illustrator 24.0.0, SVG Export Plug-In . SVG Version: 6.00 Build 0)  -->
<svg version="1.1" id="Layer_1" xmlns="http://www.w3.org/2000/svg" xmlns:xlink="http://www.w3.org/1999/xlink" x="0px" y="0px"
	 viewBox="0 0 256 256" style="enable-background:new 0 0 256 256;" xml:space="preserve">
<style type="text/css">
	.st0{fill:#8699A3;}
</style>
<g>
	<g>
		<path class="st0" d="M251.65,232.82c-11.24,0-16.8-2.94-22.69-6.02c-6.22-3.35-13.32-7.09-26.77-7.09s-20.55,3.75-26.77,7.09
			c-5.89,3.15-11.38,6.02-22.69,6.02c-11.24,0-16.8-2.94-22.69-6.02c-6.22-3.35-13.32-7.09-26.77-7.09s-20.55,3.75-26.77,7.09
			c-5.89,3.15-11.38,6.02-22.69,6.02c-11.31,0-16.8-2.94-22.69-6.02c-6.22-3.35-13.32-7.09-26.77-7.09c-2.41,0-4.35,1.94-4.35,4.35
			s1.94,4.35,4.35,4.35c11.24,0,16.8,2.94,22.69,6.02c6.22,3.35,13.32,7.09,26.77,7.09c13.45,0,20.55-3.75,26.77-7.09
			c5.89-3.15,11.38-6.02,22.69-6.02c11.24,0,16.8,2.94,22.69,6.02c6.22,3.35,13.32,7.09,26.77,7.09s20.55-3.75,26.77-7.09
			c5.89-3.15,11.38-6.02,22.69-6.02c11.31,0,16.8,2.94,22.69,6.02c6.22,3.35,13.32,7.09,26.77,7.09c2.41,0,4.35-1.94,4.35-4.35
			C256,234.76,254.06,232.82,251.65,232.82z"/>
		<path class="st0" d="M4.35,202.1c11.24,0,16.8,2.95,22.69,6.02c6.22,3.35,13.32,7.09,26.77,7.09c13.45,0,20.55-3.75,26.77-7.09
			c5.89-3.15,11.38-6.02,22.69-6.02c11.24,0,16.8,2.95,22.69,6.02c6.22,3.35,13.32,7.09,26.77,7.09s20.55-3.75,26.77-7.09
			c5.89-3.15,11.38-6.02,22.69-6.02c11.31,0,16.8,2.95,22.69,6.02c6.22,3.35,13.32,7.09,26.77,7.09c2.41,0,4.35-1.94,4.35-4.35
			c0-2.34-1.94-4.35-4.35-4.35c-11.24,0-16.8-2.95-22.69-6.02c-6.22-3.35-13.32-7.09-26.77-7.09s-20.55,3.75-26.77,7.09
			c-5.89,3.15-11.38,6.02-22.69,6.02c-11.24,0-16.8-2.95-22.69-6.02c-6.22-3.35-13.32-7.09-26.77-7.09s-20.55,3.75-26.77,7.09
			c-5.89,3.15-11.38,6.02-22.69,6.02c-11.31,0-16.8-2.95-22.69-6.02c-6.22-3.35-13.32-7.09-26.77-7.09c-2.41,0-4.35,1.94-4.35,4.35
			C0,200.16,1.94,202.1,4.35,202.1z"/>
		<path class="st0" d="M17.65,88.69h8.94v47.89H26.5v46.38c0,2.41,1.94,4.35,4.35,4.35c2.41,0,4.35-1.94,4.35-4.35v-37.81h39.02
			v25.16c0,2.41,1.94,4.35,4.35,4.35c2.41,0,4.35-1.94,4.35-4.35v-25.16h64.72v37.81c0,2.41,1.94,4.35,4.35,4.35
			s4.35-1.94,4.35-4.35v-37.81h25.1v25.16c0,2.41,1.94,4.35,4.35,4.35s4.35-1.94,4.35-4.35v-25.16h29.38v37.81
			c0.2,2.48,2.14,4.48,4.55,4.48c2.41,0,4.35-1.94,4.35-4.35v-42.16c0-2.41-1.94-4.35-4.35-4.35h-38.15H35.62V79.65l-17.79,0.22
			L91.41,24l78.52,55.86h-17.97v56.72H161V88.89h8.93c3.9,0,7.39-2.57,8.44-6.11c1.23-3.69-0.14-7.81-3.26-9.98L96.62,16.61
			c-3.11-2.16-7.14-2.17-10.4,0.11l-73.8,55.92c-3.13,2.31-4.42,6.3-3.21,9.95C10.43,86.23,13.82,88.69,17.65,88.69z"/>
	</g>
</g>
</svg>
