<svg xmlns="http://www.w3.org/2000/svg" viewBox="0 0 256 256">
<path d="M251.6,232.8c-11.2,0-16.8-2.9-22.7-6c-6.2-3.4-13.3-7.1-26.8-7.1s-20.6,3.8-26.8,7.1c-5.9,3.1-11.4,6-22.7,6
c-11.2,0-16.8-2.9-22.7-6c-6.2-3.4-13.3-7.1-26.8-7.1s-20.6,3.8-26.8,7.1c-5.9,3.1-11.4,6-22.7,6s-16.8-2.9-22.7-6
c-6.2-3.4-13.3-7.1-26.8-7.1c-2.4,0-4.3,1.9-4.3,4.4s1.9,4.4,4.3,4.4c11.2,0,16.8,2.9,22.7,6c6.2,3.4,13.3,7.1,26.8,7.1
s20.6-3.8,26.8-7.1c5.9-3.1,11.4-6,22.7-6c11.2,0,16.8,2.9,22.7,6c6.2,3.4,13.3,7.1,26.8,7.1s20.6-3.8,26.8-7.1
c5.9-3.1,11.4-6,22.7-6s16.8,2.9,22.7,6c6.2,3.4,13.3,7.1,26.8,7.1c2.4,0,4.4-1.9,4.4-4.4C256,234.8,254.1,232.8,251.6,232.8z"/>
<path d="M4.3,202.1c11.2,0,16.8,2.9,22.7,6c6.2,3.4,13.3,7.1,26.8,7.1s20.5-3.8,26.8-7.1c5.9-3.1,11.4-6,22.7-6
c11.2,0,16.8,2.9,22.7,6c6.2,3.4,13.3,7.1,26.8,7.1s20.6-3.8,26.8-7.1c5.9-3.1,11.4-6,22.7-6s16.8,2.9,22.7,6
c6.2,3.4,13.3,7.1,26.8,7.1c2.4,0,4.4-1.9,4.4-4.4c0-2.3-1.9-4.4-4.4-4.4c-11.2,0-16.8-2.9-22.7-6c-6.2-3.4-13.3-7.1-26.8-7.1
s-20.6,3.8-26.8,7.1c-5.9,3.1-11.4,6-22.7,6c-11.2,0-16.8-2.9-22.7-6c-6.2-3.4-13.3-7.1-26.8-7.1s-20.6,3.8-26.8,7.1
c-5.9,3.1-11.4,6-22.7,6s-16.8-2.9-22.7-6c-6.2-3.4-13.3-7.1-26.8-7.1c-2.4,0-4.3,1.9-4.3,4.4C0,200.2,1.9,202.1,4.3,202.1z"/>
<path d="M17.6,88.7h8.9v47.9h-0.1V183c0,2.4,1.9,4.4,4.4,4.4s4.4-1.9,4.4-4.4v-37.8h39v25.2c0,2.4,1.9,4.4,4.3,4.4
c2.4,0,4.3-1.9,4.3-4.4v-25.2h64.7V183c0,2.4,1.9,4.4,4.4,4.4s4.4-1.9,4.4-4.4v-37.8h25.1v25.2c0,2.4,1.9,4.4,4.4,4.4
s4.4-1.9,4.4-4.4v-25.2h29.4V183c0.2,2.5,2.1,4.5,4.6,4.5s4.4-1.9,4.4-4.4v-42.2c0-2.4-1.9-4.4-4.4-4.4h-38.1H35.6V79.7l-17.8,0.2
L91.4,24l78.5,55.9h-18v56.7h9V88.9h8.9c3.9,0,7.4-2.6,8.4-6.1c1.2-3.7-0.1-7.8-3.3-10L96.6,16.6c-3.1-2.2-7.1-2.2-10.4,0.1
L12.4,72.6c-3.1,2.3-4.4,6.3-3.2,9.9C10.4,86.2,13.8,88.7,17.6,88.7z"/>
</svg>
