<?xml version="1.0" encoding="utf-8"?>
<!-- Generator: Adobe Illustrator 24.0.0, SVG Export Plug-In . SVG Version: 6.00 Build 0)  -->
<svg version="1.1" id="Layer_1" xmlns="http://www.w3.org/2000/svg" xmlns:xlink="http://www.w3.org/1999/xlink" x="0px" y="0px"
	 viewBox="0 0 256 256" style="enable-background:new 0 0 256 256;" xml:space="preserve">
<g>
	<path d="M76.8,125.6c-7.9,13.8-9.8,19.7-9.8,23.6s0,11.8,5.9,17.7c11.8,9.9,27.6,7.9,41.3,7.9h116.2c5.9,0,5.9-2,9.9-5.9
		c11.8-11.8,15.8-27.6,15.8-41.3c0-29.5-19.7-66.9-68.9-82.7l-5.9,7.9c39.4,17.7,55.1,41.3,55.1,74.8c0,9.9-2,17.7-7.9,27.6H114.2
		c-5.9,0-7.9-7.9-5.9-11.8c9.8-17.7,19.7-33.5,33.5-49.2c11.8-15.8,23.6-29.5,35.4-45.3c2-3.9,0-7.9-5.9-9.8
		C157.5,37,143.8,35,128,35C33.5,35,0,88.2,0,127.6c0,43.3,33.5,92.6,128,92.6c51.2,0,84.7-15.8,104.4-37.4h-19.7
		c-17.7,15.8-45.3,27.6-84.7,27.6c-78.8,0-108.3-45.3-108.3-82.7c0-33.5,31.5-80.7,110.3-82.7c3.9,0,5.9,2,3.9,5.9
		C120.1,66.5,80.7,119.7,76.8,125.6z"/>
</g>
</svg>
