<?xml version="1.0" encoding="utf-8"?>
<!-- Generator: Adobe Illustrator 24.0.0, SVG Export Plug-In . SVG Version: 6.00 Build 0)  -->
<svg version="1.1" id="Layer_1" xmlns="http://www.w3.org/2000/svg" xmlns:xlink="http://www.w3.org/1999/xlink" x="0px" y="0px"
	 viewBox="0 0 256 256" style="enable-background:new 0 0 256 256;" xml:space="preserve">
<style type="text/css">
	.st0{fill:#8699A3;}
</style>
<g>
	<path class="st0" d="M76.8,125.58c-7.88,13.78-9.85,19.69-9.85,23.63c0,3.94,0,11.82,5.91,17.72c11.82,9.85,27.57,7.88,41.35,7.88
		H230.4c5.91,0,5.91-1.97,9.85-5.91c11.82-11.82,15.75-27.57,15.75-41.35c0-29.54-19.69-66.95-68.92-82.71l-5.91,7.88
		c39.38,17.72,55.14,41.35,55.14,74.83c0,9.85-1.97,17.72-7.88,27.57H114.22c-5.91,0-7.88-7.88-5.91-11.82
		c9.85-17.72,19.69-33.48,33.48-49.23c11.82-15.75,23.63-29.54,35.45-45.29c1.97-3.94,0-7.88-5.91-9.85
		C157.54,36.97,143.75,35,128,35C33.48,35,0,88.17,0,127.55c0,43.32,33.48,92.55,128,92.55c51.2,0,84.68-15.75,104.37-37.42h-19.69
		c-17.72,15.75-45.29,27.57-84.68,27.57c-78.77,0-108.31-45.29-108.31-82.71c0-33.48,31.51-80.74,110.28-82.71
		c3.94,0,5.91,1.97,3.94,5.91C120.12,66.51,80.74,119.68,76.8,125.58z"/>
</g>
</svg>
