<?xml version="1.0" encoding="utf-8"?>
<!-- Generator: Adobe Illustrator 24.0.0, SVG Export Plug-In . SVG Version: 6.00 Build 0)  -->
<svg version="1.1" id="Layer_1" xmlns="http://www.w3.org/2000/svg" xmlns:xlink="http://www.w3.org/1999/xlink" x="0px" y="0px"
	 viewBox="0 0 13 9.4" style="enable-background:new 0 0 13 9.4;" xml:space="preserve">
<style type="text/css">
	.st0{fill:#8699A3;}
</style>
<path class="st0" d="M3.9,4.6c-0.4,0.7-0.5,1-0.5,1.2c0,0.2,0,0.6,0.3,0.9c0.6,0.5,1.4,0.4,2.1,0.4h5.9c0.3,0,0.3-0.1,0.5-0.3
	C12.8,6.2,13,5.4,13,4.7c0-1.5-1-3.4-3.5-4.2L9.2,0.9C11.2,1.8,12,3,12,4.7c0,0.5-0.1,0.9-0.4,1.4H5.8c-0.3,0-0.4-0.4-0.3-0.6
	c0.5-0.9,1-1.7,1.7-2.5C7.8,2.2,8.4,1.5,9,0.7C9.1,0.5,9,0.3,8.7,0.2C8,0.1,7.3,0,6.5,0C1.7,0,0,2.7,0,4.7c0,2.2,1.7,4.7,6.5,4.7
	c2.6,0,4.3-0.8,5.3-1.9h-1C9.9,8.3,8.5,8.9,6.5,8.9C2.5,8.9,1,6.6,1,4.7C1,3,2.6,0.6,6.6,0.5c0.2,0,0.3,0.1,0.2,0.3
	C6.1,1.6,4.1,4.3,3.9,4.6z"/>
</svg>
