<?xml version="1.0" encoding="utf-8"?>
<!-- Generator: Adobe Illustrator 24.0.0, SVG Export Plug-In . SVG Version: 6.00 Build 0)  -->
<svg version="1.1" id="Layer_1" xmlns="http://www.w3.org/2000/svg" xmlns:xlink="http://www.w3.org/1999/xlink" x="0px" y="0px"
	 viewBox="0 0 256 256" style="enable-background:new 0 0 256 256;" xml:space="preserve">
<style type="text/css">
	.st0{fill:#8699A3;}
</style>
<g>
	<g>
		<polygon class="st0" points="15.52,125.94 23.03,125.94 23.03,136.46 38.54,136.46 38.54,109.3 23.03,109.3 23.03,119.69 
			15.52,119.69 15.52,109.3 0,109.3 0,136.46 15.52,136.46 		"/>
		<path class="st0" d="M52.06,136.46h16.26c8.88,0,11.27-5.99,11.27-8.77V109.3H64.06v18.14c0,1.89-1.12,4.01-3.88,4.01
			c-2.75,0-3.87-2.12-3.87-4.01V109.3H40.79v18.39C40.79,130.48,43.17,136.46,52.06,136.46z"/>
		<polygon class="st0" points="95.85,124.83 102.23,136.46 108.75,136.46 115.13,124.83 115.13,136.46 129.39,136.46 129.39,109.3 
			111.62,109.3 105.49,120.31 99.35,109.3 81.58,109.3 81.58,136.46 95.85,136.46 		"/>
		<polygon class="st0" points="145.65,124.83 152.04,136.46 158.54,136.46 164.93,124.83 164.93,136.46 179.18,136.46 179.18,109.3 
			161.42,109.3 155.29,120.31 149.16,109.3 131.39,109.3 131.39,136.46 145.65,136.46 		"/>
		<polygon class="st0" points="211.24,128.97 196.95,128.97 196.95,125.94 211.24,125.94 211.24,119.69 196.95,119.69 
			196.95,116.83 211.24,116.83 211.24,109.3 180.95,109.3 180.95,136.46 211.24,136.46 		"/>
		<path class="st0" d="M252.27,118.3c0-3.38-2.13-9-8.14-9h-30.91v27.16h15.52v-7.87l6.63,7.87h19.15l-8.13-9.63
			C249.64,126.97,252.27,121.68,252.27,118.3z M233,121.82h-4.25v-6.14h4.76C237.39,115.69,237.01,121.82,233,121.82z"/>
		<path class="st0" d="M253.7,109c-1.24,0-2.3,0.94-2.3,2.24c0,1.34,1.06,2.27,2.3,2.27c1.24,0,2.3-0.93,2.3-2.27
			C256,109.94,254.94,109,253.7,109z M253.7,113.13c-1.04,0-1.84-0.81-1.84-1.9c0-1.09,0.81-1.87,1.84-1.87
			c1.02,0,1.84,0.78,1.84,1.87C255.55,112.33,254.73,113.13,253.7,113.13z"/>
		<path class="st0" d="M254.74,110.69c0-0.54-0.3-0.74-0.92-0.74h-0.99v2.63h0.4v-1.14h0.46l0.68,1.14h0.44l-0.74-1.16
			C254.46,111.38,254.74,111.17,254.74,110.69z M253.23,111.07v-0.81h0.54c0.27,0,0.57,0.08,0.57,0.39c0,0.42-0.3,0.42-0.63,0.42
			H253.23z"/>
	</g>
</g>
</svg>
