<svg xmlns="http://www.w3.org/2000/svg" viewBox="0 0 256 256"><path d="M15.5 125.9H23v10.6h15.5v-27.2H23v10.4h-7.5v-10.4H0v27.2h15.5zM52.1 136.5h16.3c8.9 0 11.3-6 11.3-8.8v-18.4H64.1v18.1c0 1.9-1.1 4-3.9 4s-3.9-2.1-3.9-4v-18.1H40.8v18.4c0 2.8 2.4 8.8 11.3 8.8zM95.8 124.8l6.4 11.7h6.6l6.3-11.7v11.7h14.3v-27.2h-17.8l-6.1 11-6.2-11H81.6v27.2h14.2zM145.6 124.8l6.4 11.7h6.5l6.4-11.7v11.7h14.3v-27.2h-17.8l-6.1 11-6.1-11h-17.8v27.2h14.2zM211.2 129h-14.3v-3.1h14.3v-6.2h-14.3v-2.9h14.3v-7.5h-30.3v27.2h30.3zM252.3 118.3c0-3.4-2.1-9-8.1-9h-30.9v27.2h15.5v-7.9l6.6 7.9h19.1l-8.1-9.6c3.2.1 5.9-5.2 5.9-8.6zm-19.3 3.5h-4.2v-6.1h4.8c3.8 0 3.4 6.1-.6 6.1zM253.7 109c-1.2 0-2.3.9-2.3 2.2 0 1.3 1.1 2.3 2.3 2.3s2.3-.9 2.3-2.3c0-1.3-1.1-2.2-2.3-2.2zm0 4.1c-1 0-1.8-.8-1.8-1.9 0-1.1.8-1.9 1.8-1.9s1.8.8 1.8 1.9c.1 1.1-.8 1.9-1.8 1.9z"/><path d="M254.7 110.7c0-.5-.3-.7-.9-.7h-1v2.6h.4v-1.1h.5l.7 1.1h.4l-.7-1.2c.4 0 .6-.2.6-.7zm-1.5.4v-.8h.5c.3 0 .6.1.6.4 0 .4-.3.4-.6.4h-.5z"/></svg>