<?xml version="1.0" encoding="utf-8"?>
<!-- Generator: Adobe Illustrator 24.0.0, SVG Export Plug-In . SVG Version: 6.00 Build 0)  -->
<svg version="1.1" id="Layer_1" xmlns="http://www.w3.org/2000/svg" xmlns:xlink="http://www.w3.org/1999/xlink" x="0px" y="0px"
	 viewBox="0 0 256 256" style="enable-background:new 0 0 256 256;" xml:space="preserve">
<g>
	<g>
		<polygon points="15.5,125.9 23,125.9 23,136.5 38.5,136.5 38.5,109.3 23,109.3 23,119.7 15.5,119.7 15.5,109.3 0,109.3 0,136.5 
			15.5,136.5 		"/>
		<path d="M52.1,136.5h16.3c8.9,0,11.3-6,11.3-8.8v-18.4H64.1v18.1c0,1.9-1.1,4-3.9,4c-2.8,0-3.9-2.1-3.9-4v-18.1H40.8v18.4
			C40.8,130.5,43.2,136.5,52.1,136.5z"/>
		<polygon points="95.8,124.8 102.2,136.5 108.8,136.5 115.1,124.8 115.1,136.5 129.4,136.5 129.4,109.3 111.6,109.3 105.5,120.3 
			99.3,109.3 81.6,109.3 81.6,136.5 95.8,136.5 		"/>
		<polygon points="145.6,124.8 152,136.5 158.5,136.5 164.9,124.8 164.9,136.5 179.2,136.5 179.2,109.3 161.4,109.3 155.3,120.3 
			149.2,109.3 131.4,109.3 131.4,136.5 145.6,136.5 		"/>
		<polygon points="211.2,129 196.9,129 196.9,125.9 211.2,125.9 211.2,119.7 196.9,119.7 196.9,116.8 211.2,116.8 211.2,109.3 
			180.9,109.3 180.9,136.5 211.2,136.5 		"/>
		<path d="M252.3,118.3c0-3.4-2.1-9-8.1-9h-30.9v27.2h15.5v-7.9l6.6,7.9h19.1l-8.1-9.6C249.6,127,252.3,121.7,252.3,118.3z
			 M233,121.8h-4.2v-6.1h4.8C237.4,115.7,237,121.8,233,121.8z"/>
		<path d="M253.7,109c-1.2,0-2.3,0.9-2.3,2.2c0,1.3,1.1,2.3,2.3,2.3s2.3-0.9,2.3-2.3C256,109.9,254.9,109,253.7,109z M253.7,113.1
			c-1,0-1.8-0.8-1.8-1.9c0-1.1,0.8-1.9,1.8-1.9c1,0,1.8,0.8,1.8,1.9C255.6,112.3,254.7,113.1,253.7,113.1z"/>
		<path d="M254.7,110.7c0-0.5-0.3-0.7-0.9-0.7h-1v2.6h0.4v-1.1h0.5l0.7,1.1h0.4l-0.7-1.2C254.5,111.4,254.7,111.2,254.7,110.7z
			 M253.2,111.1v-0.8h0.5c0.3,0,0.6,0.1,0.6,0.4c0,0.4-0.3,0.4-0.6,0.4H253.2z"/>
	</g>
</g>
</svg>
