<svg xmlns="http://www.w3.org/2000/svg" viewBox="0 0 27.78 32.75"><defs><style>.a{fill:none;stroke:#000;stroke-linecap:round;stroke-linejoin:round;stroke-width:0.75px;}</style></defs><title>321</title><rect class="a" x="6.62" y="8.04" width="3.49" height="4.61"/><rect class="a" x="6.62" y="14.67" width="3.49" height="4.61"/><rect class="a" x="17.98" y="8.04" width="3.49" height="4.61"/><rect class="a" x="12.21" y="14.67" width="3.49" height="4.61"/><rect class="a" x="17.98" y="14.67" width="3.49" height="4.61"/><rect class="a" x="12.21" y="8.04" width="3.49" height="4.61"/><path class="a" d="M6,32V3.56A.55.55,0,0,1,6.51,3H25.86a.54.54,0,0,1,.54.54V32Z" transform="translate(-2.11 0.38)"/><polygon class="a" points="16.05 32.17 16.05 25.72 12.11 25.72 12.11 32.2 16.05 32.17"/><line class="a" x1="8.59" y1="0.38" x2="19.19" y2="0.38"/><line class="a" x1="0.38" y1="32.38" x2="27.41" y2="32.38"/></svg>