<svg xmlns="http://www.w3.org/2000/svg" viewBox="0 0 29.89 32.75"><defs><style>.a{fill:none;stroke:#000;stroke-linecap:round;stroke-linejoin:round;stroke-width:0.75px;}</style></defs><title>324</title><line class="a" x1="9.44" y1="26.12" x2="11.91" y2="24.69"/><line class="a" x1="2.03" y1="13.29" x2="4.51" y2="11.86"/><path class="a" d="M11,26.57,1.58,10.31s-.56-1.4.48-2S4,8.82,4,8.82L13.4,25.08l.65,4.12Z" transform="translate(-1.05 0.38)"/><polyline class="a" points="5.61 20.04 5.61 32.38 29.52 32.38 29.52 0.38 5.61 0.38 5.61 13.41"/><line class="a" x1="10.75" y1="15.33" x2="25.51" y2="15.33"/><line class="a" x1="11.95" y1="20.19" x2="25.51" y2="20.19"/><line class="a" x1="15.54" y1="25.04" x2="25.51" y2="25.04"/><path class="a" d="M27.87,5.41,25.19,3.35l-.09,0s-.07,0-.08,0l-2.7,2.07a.15.15,0,0,0-.07.17.13.13,0,0,0,.13.1h.26V8.88a.14.14,0,0,0,.15.15H27.4a.14.14,0,0,0,.15-.15V5.69h.25a.13.13,0,0,0,.14-.15A.13.13,0,0,0,27.87,5.41Z" transform="translate(-1.05 0.38)"/></svg>