<svg xmlns="http://www.w3.org/2000/svg" viewBox="0 0 32.75 30.78"><defs><style>.a,.b{fill:none;stroke:#000;stroke-linecap:round;stroke-linejoin:round;stroke-width:0.75px;}.b{fill-rule:evenodd;}</style></defs><title>325</title><circle class="a" cx="19.87" cy="23.84" r="2.1"/><circle class="a" cx="5.76" cy="23.84" r="2.1"/><path class="b" d="M15.88,19c-3.42-.08-8.12-.12-10.12,0,.46-.89.82-3.45,1.28-4.35A1.4,1.4,0,0,1,8.31,14a29.14,29.14,0,0,1,4.45-.27" transform="translate(0.38 -0.61)"/><path class="b" d="M23.55,20.77c.35,3.44,1.29,9.78,1.29,9.78a.46.46,0,0,1-.47.47H20.26a.47.47,0,0,1-.46-.47V29.21H5v1.34a.46.46,0,0,1-.47.47H.47A.46.46,0,0,1,0,30.55s1-9.67,1.13-10.92h0a1.31,1.31,0,0,1-.22-2.11C2.06,16.3,3,18.13,3,18.13h0c.54-1.1,1.1-3.79,1.64-4.93a2.92,2.92,0,0,1,1.93-1.4,27.71,27.71,0,0,1,5.59-.56" transform="translate(0.38 -0.61)"/><circle class="a" cx="22.6" cy="10.15" r="9.78"/><path class="a" d="M21.41,12.27v4H19.2V6H23a3.78,3.78,0,0,1,2.64.86,2.9,2.9,0,0,1,1,2.27,2.87,2.87,0,0,1-.94,2.3,4,4,0,0,1-2.67.81Z" transform="translate(0.38 -0.61)"/><path class="a" d="M21.4,10.43H23A1.5,1.5,0,0,0,24,10.1a1.16,1.16,0,0,0,.37-.94A1.21,1.21,0,0,0,24,8.23a1.45,1.45,0,0,0-1-.36H21.4Z" transform="translate(0.38 -0.61)"/></svg>