<?xml version="1.0" encoding="utf-8"?>
<!-- Generator: Adobe Illustrator 24.0.0, SVG Export Plug-In . SVG Version: 6.00 Build 0)  -->
<svg version="1.1" id="Layer_1" xmlns="http://www.w3.org/2000/svg" xmlns:xlink="http://www.w3.org/1999/xlink" x="0px" y="0px"
	 viewBox="0 0 250 250" style="enable-background:new 0 0 250 250;" xml:space="preserve">
<g>
	<g>
		<path d="M226.2,39.6c-0.1-1.9-1.7-3.4-3.7-3.4c-18.5,0-34.1-14.4-35.6-32.9c-0.2-1.9-1.7-3.4-3.7-3.4H66.7c-1.8,0-3.5,1.5-3.7,3.4
			C61.6,21.8,46,36.3,27.5,36.3c-1.9,0-3.6,1.5-3.7,3.4c-3.3,39.9-5.2,92.2,3.9,114.2c13.1,31.7,64.2,82.8,95.9,95.9
			c1,0.4,1.9,0.4,2.9,0c31.7-13.1,82.8-64.2,95.9-95.9C231.4,131.8,229.5,79.6,226.2,39.6z M215.4,150.9
			c-5.9,14.4-20.9,33.7-38.1,51.2c-17.3,17.4-36.7,33-51.8,39.8l-0.6,0.3l-0.6-0.3c-30.1-13.7-77.9-62.1-89.9-91
			c-6.5-15.6-7.8-53.3-3.7-106.1l0.1-1.2l1.2-0.2c19-2,34.1-16.1,37.7-34.8l0.3-1.2h109.7l0.3,1.2c3.6,18.7,18.7,32.8,37.7,34.8
			l1.2,0.2l0.1,1.2C223.2,97.6,221.9,135.3,215.4,150.9z"/>
	</g>
	<g>
		<path d="M125,54.8c-36.5,0-66.3,29.8-66.3,66.3c0,36.5,29.8,66.3,66.3,66.3c36.5,0,66.3-29.8,66.3-66.3
			C191.3,84.5,161.5,54.8,125,54.8z M125,179.9c-32.5,0-58.8-26.4-58.8-58.8c0-32.5,26.4-58.8,58.8-58.8c32.5,0,58.8,26.4,58.8,58.8
			C183.8,153.5,157.5,179.9,125,179.9z"/>
	</g>
	<g>
		<path d="M167.8,110.7c-0.4-1.4-1.6-2.4-3-2.6l-25.2-3.7l-11.2-22.8c-1.2-2.3-5.6-2.4-6.8,0l-11.2,22.8l-25.2,3.7
			c-1.5,0.2-2.6,1.2-3,2.6c-0.5,1.3-0.1,2.8,1,3.8l18.2,17.7L97,157.4c-0.2,1.4,0.4,2.8,1.6,3.6c1.2,0.9,2.6,1,3.9,0.3l22.6-11.8
			l22.6,11.8c1.2,0.7,2.8,0.6,3.9-0.3c1.2-0.8,1.7-2.2,1.6-3.6l-4.4-25.2l18.2-17.7C167.9,113.5,168.3,112.1,167.8,110.7z
			 M142.1,128.3c-0.9,0.8-1.3,2-1.1,3.3l3.4,19.6l-17.6-9.3c-1.1-0.5-2.4-0.6-3.5,0l-17.6,9.3l3.4-19.6c0.2-1.3-0.2-2.5-1.1-3.4
			l-14.2-13.9l19.7-2.8c1.3-0.2,2.3-1,2.8-2l8.8-17.8l8.8,17.8c0.6,1.1,1.6,1.8,2.8,2l19.7,2.8L142.1,128.3z"/>
	</g>
</g>
</svg>
