<svg xmlns="http://www.w3.org/2000/svg" viewBox="0 0 27.36 32.75"><defs><style>.a{fill:none;stroke:#000;stroke-linecap:round;stroke-linejoin:round;stroke-width:0.75px;}</style></defs><title>326</title><path class="a" d="M29,5.07a.46.46,0,0,0-.47-.43A4.58,4.58,0,0,1,23.93.43.48.48,0,0,0,23.46,0H8.54a.49.49,0,0,0-.47.43A4.58,4.58,0,0,1,3.52,4.64a.46.46,0,0,0-.47.43c-.43,5.12-.67,11.8.49,14.62C5.22,23.75,11.76,30.29,15.81,32a.5.5,0,0,0,.38,0c4-1.67,10.59-8.21,12.27-12.27C29.62,16.87,29.38,10.19,29,5.07Z" transform="translate(-2.32 0.38)"/><path class="a" d="M16,7a8.49,8.49,0,1,0,8.49,8.49A8.5,8.5,0,0,0,16,7Z" transform="translate(-2.32 0.38)"/><path class="a" d="M21.48,14.17a.5.5,0,0,0-.38-.34l-3.23-.47-1.44-2.91a.52.52,0,0,0-.86,0l-1.44,2.91-3.23.47a.45.45,0,0,0-.38.34.42.42,0,0,0,.12.48L13,16.92l-.56,3.23a.49.49,0,0,0,.2.46.48.48,0,0,0,.5,0L16,19.13l2.89,1.52a.48.48,0,0,0,.5,0,.49.49,0,0,0,.2-.46L19,16.92l2.33-2.27A.42.42,0,0,0,21.48,14.17Z" transform="translate(-2.32 0.38)"/></svg>