<?xml version="1.0" encoding="utf-8"?>
<!-- Generator: Adobe Illustrator 24.0.0, SVG Export Plug-In . SVG Version: 6.00 Build 0)  -->
<svg version="1.1" id="Layer_1" xmlns="http://www.w3.org/2000/svg" xmlns:xlink="http://www.w3.org/1999/xlink" x="0px" y="0px"
	 viewBox="0 0 256 256" style="enable-background:new 0 0 256 256;" xml:space="preserve">
<style type="text/css">
	.st0{fill:#8699A3;}
</style>
<g>
	<g>
		<g>
			<path class="st0" d="M127.68,254.71c-0.51,0-1.03-0.1-1.52-0.3c-32.11-13.3-83.88-65.07-97.18-97.18
				c-9.24-22.3-7.24-75.17-3.94-115.61c0.17-2.05,1.88-3.63,3.94-3.64c18.6-0.03,34.33-14.55,35.82-33.06
				c0.17-2.06,1.88-3.64,3.95-3.64H186.6c2.06,0,3.78,1.59,3.95,3.64c1.48,18.51,17.22,33.04,35.82,33.06
				c2.06,0,3.77,1.59,3.94,3.64c3.3,40.43,5.29,93.3-3.94,115.61c-13.3,32.11-65.07,83.88-97.18,97.18
				C128.71,254.61,128.19,254.71,127.68,254.71z M32.66,45.75c-4.23,54.09-2.95,92.54,3.64,108.45
				c12.25,29.58,61.15,78.77,91.38,92.24c30.23-13.47,79.13-62.66,91.38-92.24c6.59-15.92,7.88-54.37,3.64-108.45
				c-19.85-1.71-36.33-16.91-39.59-36.54H72.25C68.99,28.84,52.51,44.05,32.66,45.75z"/>
			<path class="st0" d="M127.68,256c-0.68,0-1.36-0.14-2-0.4c-32.34-13.4-84.49-65.53-97.88-97.87
				c-9.33-22.52-7.35-75.62-4.05-116.21c0.23-2.7,2.53-4.82,5.24-4.82c17.93-0.03,33.11-14.03,34.53-31.88
				C63.74,2.12,66.04,0,68.75,0h117.86c2.71,0,5,2.12,5.24,4.82c1.42,17.85,16.6,31.86,34.53,31.88c2.72,0,5,2.12,5.23,4.82
				c3.31,40.56,5.3,93.65-4.04,116.2c-13.39,32.34-65.53,84.48-97.87,97.87C129.04,255.86,128.36,256,127.68,256z M68.75,2.58
				c-1.4,0-2.55,1.06-2.66,2.46c-1.54,19.18-17.83,34.22-37.11,34.25c-1.38,0-2.55,1.08-2.66,2.45
				c-3.28,40.3-5.28,92.96,3.85,115.01c13.21,31.88,64.6,83.27,96.48,96.47c0.66,0.27,1.38,0.27,2.06,0
				c31.86-13.2,83.26-64.59,96.47-96.47c9.13-22.07,7.13-74.73,3.84-115.01c-0.1-1.37-1.27-2.45-2.65-2.45
				c-19.27-0.03-35.57-15.07-37.11-34.25c-0.11-1.39-1.26-2.45-2.66-2.45H68.75z M127.68,247.85l-0.52-0.23
				c-30.68-13.68-79.71-63.18-92.04-92.92c-6.67-16.08-8-54.81-3.75-109.05l0.09-1.09l1.09-0.1C51.67,42.83,67.83,27.91,70.98,9
				l0.18-1.08h113.02L184.37,9c3.15,18.91,19.31,33.83,38.44,35.47l1.09,0.1l0.09,1.09c4.24,54.25,2.91,92.98-3.75,109.05
				c-12.31,29.74-61.34,79.24-92.04,92.92L127.68,247.85z M33.86,46.93c-4.12,53.28-2.83,91.18,3.64,106.78
				c12.07,29.13,59.91,77.51,90.19,91.32c30.29-13.81,78.12-62.19,90.19-91.32c6.45-15.59,7.74-53.49,3.64-106.78
				c-19.74-2.18-35.75-16.95-39.47-36.43H73.33C69.61,29.98,53.59,44.76,33.86,46.93z"/>
		</g>
	</g>
	<g>
		<g>
			<path class="st0" d="M127.68,191.36c-37.12,0-67.32-30.2-67.32-67.32s30.2-67.32,67.32-67.32s67.32,30.2,67.32,67.32
				S164.8,191.36,127.68,191.36z M127.68,64.64c-32.75,0-59.4,26.65-59.4,59.4s26.64,59.4,59.4,59.4s59.4-26.65,59.4-59.4
				S160.43,64.64,127.68,64.64z"/>
			<path class="st0" d="M127.68,192.65c-37.83,0-68.61-30.78-68.61-68.61s30.77-68.61,68.61-68.61s68.61,30.78,68.61,68.61
				S165.51,192.65,127.68,192.65z M127.68,58.01c-36.41,0-66.03,29.62-66.03,66.03s29.62,66.03,66.03,66.03s66.03-29.62,66.03-66.03
				S164.09,58.01,127.68,58.01z M127.68,184.73C94.22,184.73,67,157.5,67,124.04s27.22-60.69,60.68-60.69s60.68,27.22,60.68,60.69
				S161.14,184.73,127.68,184.73z M127.68,65.93c-32.04,0-58.1,26.07-58.1,58.11s26.06,58.11,58.1,58.11s58.1-26.07,58.1-58.11
				S159.72,65.93,127.68,65.93z"/>
		</g>
	</g>
	<g>
		<g>
			<path class="st0" d="M152.27,165.39c-0.63,0-1.26-0.15-1.84-0.45l-22.75-11.96l-22.75,11.96c-1.32,0.7-2.95,0.59-4.17-0.3
				c-1.22-0.89-1.83-2.39-1.57-3.87l4.35-25.33l-18.41-17.94c-1.08-1.05-1.47-2.63-1-4.06c0.47-1.43,1.71-2.48,3.2-2.7l25.43-3.69
				L124.13,84c1.33-2.7,5.77-2.7,7.1,0l11.38,23.05l25.43,3.69c1.49,0.22,2.73,1.26,3.2,2.7c0.46,1.43,0.08,3.01-1,4.06
				l-18.41,17.94l4.34,25.33c0.26,1.48-0.36,2.99-1.57,3.87C153.9,165.14,153.09,165.39,152.27,165.39z M96.39,117.42l14.15,13.8
				c0.93,0.91,1.36,2.22,1.14,3.5l-3.34,19.48l17.49-9.2c1.15-0.61,2.53-0.61,3.69,0l17.49,9.2l-3.34-19.48
				c-0.22-1.28,0.2-2.59,1.14-3.5l14.15-13.8l-19.56-2.84c-1.29-0.19-2.41-1-2.98-2.17l-8.75-17.72l-8.75,17.72
				c-0.58,1.17-1.69,1.98-2.98,2.17L96.39,117.42z"/>
			<path class="st0" d="M152.27,166.69c-0.86,0-1.7-0.21-2.45-0.61l-22.14-11.64l-22.15,11.65c-1.76,0.94-3.92,0.77-5.54-0.4
				c-1.61-1.19-2.41-3.15-2.07-5.13l4.23-24.67l-17.91-17.47c-1.44-1.4-1.95-3.46-1.34-5.38c0.63-1.92,2.27-3.28,4.25-3.57
				l24.76-3.6l11.07-22.44c0.85-1.7,2.65-2.75,4.71-2.75c0,0,0,0,0.01,0c2.06,0.01,3.86,1.06,4.69,2.75l11.08,22.44l24.76,3.6
				c1.96,0.28,3.63,1.69,4.24,3.57c0.62,1.9,0.12,3.97-1.33,5.38l-17.91,17.47l4.22,24.67c0.34,1.94-0.47,3.96-2.08,5.13
				C154.44,166.34,153.38,166.69,152.27,166.69z M127.68,151.53l0.6,0.31l22.75,11.96c0.89,0.48,1.99,0.4,2.81-0.2
				c0.82-0.59,1.23-1.62,1.06-2.61l-4.46-26l0.49-0.47l18.41-17.94c0.74-0.72,0.99-1.77,0.66-2.73c-0.31-0.96-1.15-1.68-2.14-1.82
				l-26.11-3.79l-11.68-23.65c-0.47-0.96-1.54-1.31-2.39-1.31l0,0c-0.85,0-1.92,0.35-2.4,1.31l-11.67,23.65l-26.11,3.79
				c-0.99,0.15-1.84,0.86-2.15,1.82c-0.31,0.97-0.05,2.01,0.67,2.73l18.9,18.42l-0.12,0.66l-4.35,25.33
				c-0.17,0.99,0.25,2.02,1.07,2.62c0.83,0.6,1.93,0.66,2.8,0.2L127.68,151.53z M148.72,156.55l-19.81-10.41
				c-0.77-0.41-1.71-0.41-2.48,0l-19.81,10.41l3.79-22.05c0.15-0.86-0.14-1.75-0.78-2.37l-16.02-15.62l22.14-3.21
				c0.87-0.13,1.62-0.67,2-1.46l9.91-20.06l9.91,20.06c0.38,0.79,1.14,1.33,2,1.46l22.14,3.21l-16.03,15.62
				c-0.62,0.62-0.92,1.51-0.77,2.36L148.72,156.55z M127.68,143.26c0.84,0,1.68,0.2,2.45,0.6l15.18,7.98l-2.9-16.9
				c-0.29-1.69,0.27-3.42,1.5-4.64l12.3-11.97l-16.97-2.47c-1.71-0.24-3.19-1.32-3.96-2.87l-7.59-15.38l-7.59,15.38
				c-0.77,1.55-2.25,2.63-3.96,2.87l-16.97,2.47l12.29,11.97c1.24,1.22,1.8,2.95,1.51,4.65l-2.9,16.9l15.18-7.98
				C126,143.46,126.84,143.26,127.68,143.26z"/>
		</g>
	</g>
</g>
</svg>
