<svg xmlns="http://www.w3.org/2000/svg" viewBox="0 0 26.01 32.75"><defs><style>.a{fill:none;stroke:#000;stroke-linecap:round;stroke-linejoin:round;stroke-width:0.75px;}</style></defs><title>327</title><path class="a" d="M27,25.28l0,0h.07a1.76,1.76,0,0,1-.22,3.5,1.56,1.56,0,0,1-.49-.08L26,28.55l-.1.43a1.74,1.74,0,0,1-1.71,1.38,1.65,1.65,0,0,1-1-.3l-.44-.3-.18.51a1.73,1.73,0,0,1-2.79.76l-.37-.31-.24.42a1.78,1.78,0,0,1-1.52.86,1.68,1.68,0,0,1-1.31-.61L16,31l-.32.36a1.7,1.7,0,0,1-1.32.61,1.76,1.76,0,0,1-1.5-.86l-.25-.42-.38.31a1.67,1.67,0,0,1-1.13.43,1.77,1.77,0,0,1-1.66-1.19l-.17-.51-.44.3a1.64,1.64,0,0,1-1,.3A1.75,1.75,0,0,1,6.13,29L6,28.55l-.43.11a1.49,1.49,0,0,1-.47.08,1.76,1.76,0,0,1-.24-3.5H5l0,0" transform="translate(-3 0.38)"/><path class="a" d="M11.71,18.12v3.25a4,4,0,1,0,8,0V18.12Zm.56,2.05h6.89" transform="translate(-3 0.38)"/><path class="a" d="M21,0H10.61C6.81,0,7.52,4.21,7.52,4.21l2.54,8.19H21.59l2.53-8.19S24.84,0,21,0Z" transform="translate(-3 0.38)"/><path class="a" d="M10.61,0a5.09,5.09,0,0,0,5.1,4.36" transform="translate(-3 0.38)"/><path class="a" d="M20.94,0a5.09,5.09,0,0,1-5.1,4.36" transform="translate(-3 0.38)"/><path class="a" d="M16.24,29.35C8.28,29.35,5.09,25,5.09,25L10.37,12.4H21.59L26.86,25s-3.19,4.33-11.15,4.33" transform="translate(-3 0.38)"/></svg>