<?xml version="1.0" encoding="utf-8"?>
<!-- Generator: Adobe Illustrator 24.0.0, SVG Export Plug-In . SVG Version: 6.00 Build 0)  -->
<svg version="1.1" id="Layer_1" xmlns="http://www.w3.org/2000/svg" xmlns:xlink="http://www.w3.org/1999/xlink" x="0px" y="0px"
	 viewBox="0 0 250 250" style="enable-background:new 0 0 250 250;" xml:space="preserve">
<g>
	<g>
		<path d="M209,187.2l-0.6-0.1l-0.2-0.5L169,92.3l0.1-0.3l18.9-60.5c0.8-2.3,1.1-4.8,1.1-7.2C189,11,178.2,0,164.9,0H85.2
			C71.8,0,61,11,61,24.3c0,2.5,0.4,4.9,1.1,7.2l19.1,60.8l-0.2,0.4l-39.3,94.4l-0.6,0.1c-9.5,1.4-16.6,9.6-16.6,19.1
			c0,5.5,2.3,10.8,6.5,14.5c3.9,3.6,9,5.4,14.5,4.8l0.7-0.1l0.3,0.7c3.1,7.1,10.1,11.7,17.8,11.7c2.3,0,4.7-0.5,6.8-1.4l0.8-0.2
			l0.4,0.6c3.6,5.7,9.7,9.1,16.3,9.1c3.1,0,6.3-0.9,9.1-2.3l0.6-0.4l0.6,0.6c3.6,4,8.7,6.2,14.1,6.2c4.1,0,8.2-1.4,11.6-3.9l0.6-0.5
			l0.6,0.5c3.3,2.5,7.4,3.9,11.5,3.9c5.5,0,10.5-2.2,14.2-6.2l0.5-0.6l0.7,0.4c2.8,1.5,6,2.3,9.1,2.3c6.6,0,12.7-3.4,16.2-9.1
			l0.4-0.6l0.8,0.2c2.3,0.9,4.5,1.4,6.9,1.4c7.7,0,14.7-4.6,17.7-11.7l0.3-0.7l0.8,0.1c5.4,0.6,10.5-1.2,14.5-4.8
			c4.1-3.7,6.4-9,6.4-14.5C225.6,196.8,218.5,188.6,209,187.2z M154.3,6.3l-0.2,1.1c-2.1,14.4-14.6,25.2-29,25.2
			c-14.6,0-27-10.9-29.1-25.2l-0.1-1.1H154.3z M67.9,29.6c-0.5-1.8-0.8-3.5-0.8-5.4c0-10,8.1-18,18.1-18h4.3L89.6,7
			c2.1,18.1,17.2,31.7,35.4,31.7c18.1,0,33.4-13.6,35.3-31.7l0.1-0.8h4.4c9.9,0,18,8,18,18c0,1.9-0.2,3.7-0.8,5.4l-18.7,59.8H86.7
			l-0.3-0.7L67.9,29.6z M47.6,188.8l38.8-93.1h77.2l0.3,0.6l38.8,93.1l-0.5,0.5c-7.1,6.9-33.7,29.6-77.2,29.6
			c-43.3,0-70-22.7-77.2-29.6l-0.5-0.5L47.6,188.8z M206.3,219.5c-1.1,0-2.3-0.2-3.6-0.6l-3.1-0.9l-0.8,3.2
			c-1.3,6.1-6.7,10.4-12.8,10.4c-2.6,0-5.2-0.7-7.3-2.2l-3.3-2.2l-1.4,3.8c-1.9,5.3-6.8,8.9-12.3,8.9c-3.9,0-6.7-1.8-8.5-3.2
			l-2.7-2.3l-1.9,3.1c-2.4,4-6.7,6.5-11.3,6.5c-3.8,0-7.2-1.6-9.8-4.6l-2.3-2.6l-2.3,2.6c-2.5,3-6.1,4.6-9.9,4.6
			c-4.6,0-8.8-2.4-11.2-6.5l-1.9-3.1l-2.8,2.3c-1.7,1.5-4.5,3.2-8.4,3.2c-5.6,0-10.6-3.6-12.4-8.9l-1.3-3.8l-3.3,2.2
			c-2.2,1.6-4.7,2.2-7.3,2.2c-6.3,0-11.6-4.3-12.9-10.4l-0.7-3.2l-3.2,0.9c-1.4,0.4-2.4,0.6-3.5,0.6c-7.2,0-13.2-6-13.2-13.2
			c0-6.6,5-12.1,11.4-13h0.5l0.4,0.3c7.3,7.5,35,32.1,82.2,32.1c47,0,74.8-24.6,82.2-32.1l0.3-0.3h0.5c6.6,0.9,11.4,6.5,11.4,13
			C219.4,213.5,213.6,219.5,206.3,219.5z"/>
	</g>
	<g>
		<path d="M85.4,129.5v32.2c0,21.8,17.8,39.6,39.6,39.6c21.8,0,39.5-17.8,39.5-39.6v-32.2H85.4z M159.2,161.7
			c0,18.9-15.4,34.1-34.1,34.1c-18.9,0-34.1-15.3-34.1-34.1v-11.9h68.3V161.7z M159.2,144.3H90.9V135h68.3V144.3z"/>
	</g>
</g>
</svg>
