<svg xmlns="http://www.w3.org/2000/svg" viewBox="0 0 32.75 29.9"><defs><style>.a,.b{fill:none;stroke:#000;stroke-linecap:round;stroke-linejoin:round;stroke-width:0.75px;}.b{fill-rule:evenodd;}</style></defs><title>328</title><circle class="a" cx="18.8" cy="3.28" r="2.91"/><circle class="a" cx="1.99" cy="27.81" r="1.61"/><path class="b" d="M8.27,25.11,8.06,25a.53.53,0,0,0-.7.14l-.25.38c-2-1.08-4.41-1.57-5.46-.42a3.89,3.89,0,0,0-.77,1.58,2.24,2.24,0,0,1,.7-.1,2.26,2.26,0,0,1,2.27,2.27,2.24,2.24,0,0,1-.59,1.54H8.9c1.71,0,1.82-2,.21-3.5l.28-.45a.55.55,0,0,0-.14-.71l-.14-.1Zm16.5-7.67A1.21,1.21,0,0,0,24.59,16c-.7-.74-1.92-2.07-2.24-2.49A8.9,8.9,0,0,1,22,12.39c-.63-2-1.3-4.13-2.84-4.31l-.31,0h0c-.32,0-1.12,0-2,0A1.2,1.2,0,0,0,15.66,9.1s-1.05,9-1.19,10l-.25,1.33c-.1.84-.21,1.58-.28,2-.14,1-.84,4.59-1.15,6.37a1.49,1.49,0,0,0,1.15,1.72.92.92,0,0,0,.28,0,1.5,1.5,0,0,0,1.44-1.15c0-.21,1-5.26,1.19-6.55.11-.67.32-2.28.49-3.65a14.2,14.2,0,0,1,2.17,2.91,65.71,65.71,0,0,1,.84,7.11,1.45,1.45,0,0,0,1.44,1.33h.14A1.45,1.45,0,0,0,23.26,29c-.21-2.56-.63-7-1.05-7.95A14.69,14.69,0,0,0,20,17.75l-.18-1L20,14.35a1.53,1.53,0,0,0,.24.46c.25.35.74.91,1.2,1.44l.8.91c.25.28.46.49.49.52a1.26,1.26,0,0,0,.91.39A1.34,1.34,0,0,0,24.77,17.44Z" transform="translate(0.38 -1.05)"/><line class="a" x1="24.75" y1="16.79" x2="30.43" y2="28.89"/><path class="b" d="M8.63,25.31c4.47-6.69,12.85-9.06,12.85-9.06" transform="translate(0.38 -1.05)"/><line class="a" x1="28.14" y1="28.97" x2="32.38" y2="28.97"/></svg>