<?xml version="1.0" encoding="utf-8"?>
<!-- Generator: Adobe Illustrator 24.0.0, SVG Export Plug-In . SVG Version: 6.00 Build 0)  -->
<svg version="1.1" id="Layer_1" xmlns="http://www.w3.org/2000/svg" xmlns:xlink="http://www.w3.org/1999/xlink" x="0px" y="0px"
	 viewBox="0 0 250 250" style="enable-background:new 0 0 250 250;" xml:space="preserve">
<g>
	<path d="M98.4,52.5c2,0.5,4.1,0.7,6.1,0.7c4.9,0,9.7-1.4,14-4c6-3.8,10.3-9.6,11.9-16.6c3.3-14.3-5.6-28.6-19.9-31.9
		C96.2-2.6,81.8,6.3,78.5,20.6c-1.6,6.9-0.4,14.1,3.3,20.1C85.6,46.7,91.5,50.9,98.4,52.5z M82.6,21.5c1.4-5.8,4.9-10.8,10-13.9
		c5.1-3.1,11.1-4.1,16.9-2.8c5.8,1.4,10.8,4.9,13.9,10c3.2,5.1,4.2,11.1,2.8,16.9c-1.4,5.8-4.9,10.8-10,13.9
		c-5.1,3.2-11.1,4.2-16.9,2.8c-5.8-1.4-10.8-4.9-13.9-10C82.3,33.4,81.3,27.4,82.6,21.5z"/>
	<path d="M124.3,56.9c0,0-0.6-0.1-0.7-0.1c-3-0.5-10.8-1.8-19.2-1.8c0,0-0.1,0-0.1,0c-7.4,0-14.2,0.7-19.7,2
		C84,57,83.5,57.4,83.2,58c-0.5,1-0.9,1.7,8.9,27.2c0.3,0.8,1.1,1.4,2,1.4h20.6c0.9,0,1.7-0.5,2-1.4c9.8-26.1,9.8-26.1,9.3-27.1
		C125.7,57.5,124.9,57,124.3,56.9z M113.2,82.3H95.5c-3.3-8.7-6.7-17.9-7.9-21.8c3.8-0.7,9.3-1.4,16.7-1.4c0,0,0.1,0,0.1,0
		c6.8,0,13.3,0.9,16.9,1.5C119.7,65,116,74.8,113.2,82.3z"/>
	<path d="M158.1,191.8L152,183h1.8c0.6,0,1.2-0.3,1.6-0.8c0.4-0.5,0.6-1.1,0.4-1.8l-10.7-51.2c1.7-2.5,3.3-5,4.6-7.5
		c4.7-8.7,7.1-17.3,7.1-25.7c0-3.9-0.6-7.8-1.8-11.4c0,0,0-0.1,0-0.1c-2.9-9-8.9-16.8-17.8-23.1c-1.6-1.1-3.2-2.1-4.6-3
		c-0.6-0.3-1.3-0.4-1.9-0.1c-0.6,0.2-1.1,0.8-1.2,1.4L120.5,92c-0.1,0.3-0.1,0.7,0,1l5.9,27.2c0.1,0.6,0.5,1.1,1,1.4
		c-3.7,5-8.4,10.2-13.9,15.6c-1.8,1.8-2.8,4.1-2.9,6.7c0,2.5,0.9,5,2.7,6.8c1.8,1.9,4.2,2.9,6.8,2.9c2.5,0,4.8-1,6.6-2.7
		c1.8-1.7,3.4-3.4,5-5.2l3,13.2c0,0,0.2,1.1-0.7,2.1c-1.2,1.4-4.1,2.2-8,2.2H79c-2.4,0-4-0.5-4.7-1.4c-0.7-1-0.2-2.6-0.1-2.9l8.9-41
		c0.1,0,0.3,0,0.4,0c2.6,0,5.4-0.1,8.4-0.3c2.5-0.2,4.9-1.3,6.5-3.2c1.7-1.9,2.5-4.3,2.4-6.9c-0.1-2.5-1.3-4.9-3.2-6.6
		c-1.6-1.4-3.6-2.3-5.7-2.4c0-0.2,0-0.5-0.1-0.8L79.4,60.1c-0.2-0.6-0.7-1.1-1.3-1.3c-0.6-0.2-1.3-0.1-1.9,0.3
		c-2.3,1.6-4.7,3.5-7.1,5.6L57,47c-0.3-0.5-0.8-0.8-1.4-0.9c-0.5-0.1-1.1,0-1.6,0.3l-6.5,4.5c-1,0.7-1.2,2-0.5,2.9l13.2,19.3
		c-3.1,3.4-5.5,6.6-7.4,9.9c-1.9,3.4-4.2,8-4.2,14.1c0,3.5,1.1,6.9,3,9.7c2.4,3.6,6,6.3,10.8,8.1c0.7,0.3,1.4,0.5,2.1,0.7
		c0.5,0.2,1,0.3,1.6,0.4L53,180.4c-0.1,0.6,0,1.3,0.4,1.8c0.4,0.5,1,0.8,1.6,0.8h24.2v53.5c0,8,4.9,13.5,11.9,13.5
		c7,0,11.2-5.4,11.2-13.5V183h3.6v53.5c0,8.1,4,13.5,11,13.5c7,0,12.3-6,12.3-14v-53.4l8,0.3l10.8,15.7c-6.8,16.7-9.1,45.4,1.8,50.4
		c9.4,4.4,29.2-9.8,32.2-12c4.8-3.3,22.2-16.1,21.3-25.7C202.2,199.6,175.8,191.3,158.1,191.8z M123.7,147.8c-2,2-5.5,1.9-7.5-0.1
		c-1-1-1.5-2.4-1.5-3.8c0-1.4,0.6-2.7,1.6-3.7c9.3-9,16.2-17.6,20.5-25.5c3.6-6.6,5.3-12.6,5.3-18.8c0-2.4-0.4-4.7-1.1-6.9
		c-0.3-0.9-1.1-1.5-2-1.5c-0.2,0-0.4,0-0.6,0.1c-1.1,0.3-1.7,1.5-1.4,2.7c0.6,1.8,0.9,3.7,0.9,6.1c0,4.9-1.6,10.4-4.8,16.3
		c-0.9,1.6-1.9,3.3-3,5l-5.4-25l8.2-29.2c0.6,0.4,1.3,0.9,2,1.3c8.1,5.7,13.6,12.7,16.2,20.9c0,0,0,0.1,0,0.1
		c1,3.3,1.6,6.7,1.6,10.5c0,7.4-2.2,15.2-6.6,23.4C141.2,128.7,133.9,137.9,123.7,147.8z M63.9,110.9c-3.9-1.5-6.9-3.7-8.8-6.5
		c-1.4-2.1-2.2-4.7-2.3-7.7c0-4.7,2-8.7,3.6-11.6c1.9-3.3,4.5-6.6,7.9-10.3c0.7-0.7,0.8-1.9,0.2-2.7l-13-18.9l3-2.1l12.2,17.8
		c0.3,0.5,0.9,0.8,1.5,0.9c0.6,0,1.2-0.1,1.7-0.5c2.1-1.9,4.2-3.6,6.2-5.1l11.3,34.6c-1.3,0-2.6,0.1-3.8,0.1c-0.2,0-0.5,0-0.7,0
		c-7.5,0-12.5-1.1-14.9-2.2c-0.2-0.1-0.4-0.2-0.5-0.3c0.1-0.7,0.8-2.5,2.2-4.7c0.8-1.3,1.9-2.7,3.2-4.3c0.8-0.9,0.6-2.2-0.3-3
		c-0.9-0.7-2.2-0.6-3,0.3c-1.5,1.7-2.7,3.3-3.6,4.7c-1.8,2.8-3,5.9-2.9,7.6c0,0.6,0.1,0.9,0.5,1.7c0.5,0.6,1.2,1.2,2.7,2
		c1.6,0.8,6.3,2.5,16.3,2.5c0.1,0,0.3,0,0.4,0c2.3,0,4.8-0.1,7.5-0.2c1.6,0,2.8,0.4,3.8,1.3c1.1,0.9,1.7,2.2,1.8,3.7
		c0.1,1.4-0.4,2.8-1.3,3.8c-0.9,1.1-2.2,1.7-3.6,1.8c-11.4,0.7-19.6,0.1-25.9-1.9C65.1,111.3,64.5,111.1,63.9,110.9z M179.9,233.4
		c0,0-0.1,0.1-0.1,0.1l-1.1,0.7c-0.1,0.1-0.2,0.2-0.3,0.3c-8.1,5.8-21.5,13.2-26.7,10.7c-7-3.3-6.6-28.4,0.6-45.6
		c0.5-0.7,0.5-1.6,0-2.4l-12.1-17.6c-0.4-0.5-1-0.9-1.7-0.9l-11.3-0.5c-0.6,0-1.1,0.2-1.5,0.6c-0.4,0.4-0.7,0.9-0.7,1.5V236
		c0,4.8-2.8,9.8-8.1,9.8c-5.5,0-6.8-4.8-6.8-9.3v-55.6c0-1.2-0.9-2.1-2.1-2.1h-7.9c-1.2,0-2.1,0.9-2.1,2.1v55.6c0,4.5-1.5,9.3-7,9.3
		c-5.7,0-7.7-5-7.7-9.3v-55.6c0-1.2-0.9-2.1-2.1-2.1H57.6L70.2,117c0.7,0.1,1.6,0.2,2.4,0.3c0.5,0.1,1,0.1,1.5,0.2
		c1.6,0.2,3,0.4,4.7,0.5l-8.6,39.8c-0.1,0.4-1.3,3.7,0.7,6.5c1.5,2.1,4.2,3.2,8.1,3.2h47c5.5,0,9.3-1.3,11.4-3.9
		c2-2.5,1.5-5.2,1.5-5.6l-3.6-15.7c2.4-2.7,4.7-5.3,6.7-7.9l9.3,44.4H148c-0.8,0-1.5,0.4-1.9,1.1c-0.4,0.7-0.3,1.5,0.1,2.2l9,13.1
		c0.4,0.6,1.1,0.9,1.9,0.9c18.2-1.1,41.2,7.7,42,15.7C199.6,217.6,188.1,227.8,179.9,233.4z"/>
</g>
</svg>
