<svg xmlns="http://www.w3.org/2000/svg" viewBox="0 0 250 250"><path d="M98.4 52.5c2 .5 4.1.7 6.1.7a26.58 26.58 0 006-52.5 26.7 26.7 0 00-32 19.9c-1.6 6.9-.4 14.1 3.3 20.1 3.8 6 9.7 10.2 16.6 11.8zm-15.8-31a22.2 22.2 0 0110-13.9 22.8 22.8 0 0116.9-2.8 22.2 22.2 0 0113.9 10 21.9 21.9 0 012.8 16.9 22.2 22.2 0 01-10 13.9 21.9 21.9 0 01-16.9 2.8 22.2 22.2 0 01-13.9-10c-3.1-5-4.1-11-2.8-16.9zM124.3 56.9s-.6-.1-.7-.1c-3-.5-10.8-1.8-19.2-1.8 0 0-.1 0-.1 0-7.4 0-14.2.7-19.7 2-.6 0-1.1.4-1.4 1-.5 1-.9 1.7 8.9 27.2.3.8 1.1 1.4 2 1.4h20.6c.9 0 1.7-.5 2-1.4 9.8-26.1 9.8-26.1 9.3-27.1a2.6 2.6 0 00-1.7-1.2zm-11.1 25.4H95.5c-3.3-8.7-6.7-17.9-7.9-21.8 3.8-.7 9.3-1.4 16.7-1.4 0 0 .1 0 .1 0 6.8 0 13.3.9 16.9 1.5-1.6 4.4-5.3 14.2-8.1 21.7z"/><path d="M158.1 191.8L152 183h1.8c.6 0 1.2-.3 1.6-.8.4-.5.6-1.1.4-1.8l-10.7-51.2c1.7-2.5 3.3-5 4.6-7.5 4.7-8.7 7.1-17.3 7.1-25.7 0-3.9-.6-7.8-1.8-11.4 0 0 0-.1 0-.1-2.9-9-8.9-16.8-17.8-23.1-1.6-1.1-3.2-2.1-4.6-3-.6-.3-1.3-.4-1.9-.1-.6.2-1.1.8-1.2 1.4l-9 32.3c-.1.3-.1.7 0 1l5.9 27.2c.1.6.5 1.1 1 1.4-3.7 5-8.4 10.2-13.9 15.6a9.81 9.81 0 00-2.9 6.7 9.6 9.6 0 009.5 9.7c2.5 0 4.8-1 6.6-2.7 1.8-1.7 3.4-3.4 5-5.2l3 13.2s.2 1.1-.7 2.1c-1.2 1.4-4.1 2.2-8 2.2H79c-2.4 0-4-.5-4.7-1.4-.7-1-.2-2.6-.1-2.9l8.9-41c.1 0 .3 0 .4 0 2.6 0 5.4-.1 8.4-.3a9.58 9.58 0 000-19.1c0-.2 0-.5-.1-.8L79.4 60.1c-.2-.6-.7-1.1-1.3-1.3-.6-.2-1.3-.1-1.9.3a82.4 82.4 0 00-7.1 5.6L57 47c-.3-.5-.8-.8-1.4-.9-.5-.1-1.1 0-1.6.3l-6.5 4.5a2 2 0 00-.5 2.9l13.2 19.3c-3.1 3.4-5.5 6.6-7.4 9.9-1.9 3.4-4.2 8-4.2 14.1 0 3.5 1.1 6.9 3 9.7 2.4 3.6 6 6.3 10.8 8.1.7.3 1.4.5 2.1.7.5.2 1 .3 1.6.4L53 180.4c-.1.6 0 1.3.4 1.8s1 .8 1.6.8h24.2v53.5c0 8 4.9 13.5 11.9 13.5s11.2-5.4 11.2-13.5V183h3.6v53.5c0 8.1 4 13.5 11 13.5s12.3-6 12.3-14v-53.4l8 .3 10.8 15.7c-6.8 16.7-9.1 45.4 1.8 50.4 9.4 4.4 29.2-9.8 32.2-12 4.8-3.3 22.2-16.1 21.3-25.7-1.1-11.7-27.5-20-45.2-19.5zm-34.4-44c-2 2-5.5 1.9-7.5-.1-1-1-1.5-2.4-1.5-3.8s.6-2.7 1.6-3.7c9.3-9 16.2-17.6 20.5-25.5 3.6-6.6 5.3-12.6 5.3-18.8 0-2.4-.4-4.7-1.1-6.9-.3-.9-1.1-1.5-2-1.5-.2 0-.4 0-.6.1-1.1.3-1.7 1.5-1.4 2.7.6 1.8.9 3.7.9 6.1 0 4.9-1.6 10.4-4.8 16.3-.9 1.6-1.9 3.3-3 5l-5.4-25 8.2-29.2c.6.4 1.3.9 2 1.3 8.1 5.7 13.6 12.7 16.2 20.9 0 0 0 .1 0 .1 1 3.3 1.6 6.7 1.6 10.5 0 7.4-2.2 15.2-6.6 23.4-4.9 9-12.2 18.2-22.4 28.1zm-59.8-36.9c-3.9-1.5-6.9-3.7-8.8-6.5-1.4-2.1-2.2-4.7-2.3-7.7 0-4.7 2-8.7 3.6-11.6 1.9-3.3 4.5-6.6 7.9-10.3.7-.7.8-1.9.2-2.7l-13-18.9 3-2.1 12.2 17.8c.3.5.9.8 1.5.9.6 0 1.2-.1 1.7-.5 2.1-1.9 4.2-3.6 6.2-5.1l11.3 34.6c-1.3 0-2.6.1-3.8.1-.2 0-.5 0-.7 0-7.5 0-12.5-1.1-14.9-2.2-.2-.1-.4-.2-.5-.3.1-.7.8-2.5 2.2-4.7.8-1.3 1.9-2.7 3.2-4.3.8-.9.6-2.2-.3-3-.9-.7-2.2-.6-3 .3-1.5 1.7-2.7 3.3-3.6 4.7-1.8 2.8-3 5.9-2.9 7.6 0 .6.1.9.5 1.7.5.6 1.2 1.2 2.7 2 1.6.8 6.3 2.5 16.3 2.5.1 0 .3 0 .4 0 2.3 0 4.8-.1 7.5-.2a5.32 5.32 0 014.3 8.8c-.9 1.1-2.2 1.7-3.6 1.8-11.4.7-19.6.1-25.9-1.9-.2-.4-.8-.6-1.4-.8zm116 122.5s-.1.1-.1.1l-1.1.7c-.1.1-.2.2-.3.3-8.1 5.8-21.5 13.2-26.7 10.7-7-3.3-6.6-28.4.6-45.6.5-.7.5-1.6 0-2.4l-12.1-17.6c-.4-.5-1-.9-1.7-.9l-11.3-.5c-.6 0-1.1.2-1.5.6-.4.4-.7.9-.7 1.5V236c0 4.8-2.8 9.8-8.1 9.8-5.5 0-6.8-4.8-6.8-9.3v-55.6c0-1.2-.9-2.1-2.1-2.1h-7.9c-1.2 0-2.1.9-2.1 2.1v55.6c0 4.5-1.5 9.3-7 9.3-5.7 0-7.7-5-7.7-9.3v-55.6c0-1.2-.9-2.1-2.1-2.1H57.6L70.2 117c.7.1 1.6.2 2.4.3.5.1 1 .1 1.5.2 1.6.2 3 .4 4.7.5l-8.6 39.8c-.1.4-1.3 3.7.7 6.5 1.5 2.1 4.2 3.2 8.1 3.2h47c5.5 0 9.3-1.3 11.4-3.9 2-2.5 1.5-5.2 1.5-5.6l-3.6-15.7c2.4-2.7 4.7-5.3 6.7-7.9l9.3 44.4H148c-.8 0-1.5.4-1.9 1.1-.4.7-.3 1.5.1 2.2l9 13.1c.4.6 1.1.9 1.9.9 18.2-1.1 41.2 7.7 42 15.7.5 5.8-11 16-19.2 21.6z"/></svg>