<svg xmlns="http://www.w3.org/2000/svg" viewBox="0 0 250 250" enable-background="new 0 0 250 250"><style type="text/css">.st0{fill-rule:evenodd;clip-rule:evenodd;}</style><path d="M182.5 0C161.8 0 145 16.7 145 37.4c0 20.6 16.8 37.3 37.5 37.3S220 58 220 37.4C219.9 16.7 203.1 0 182.5 0zm0 69.1c-17.6 0-31.8-14.2-31.8-31.8s14.2-31.8 31.8-31.8 31.9 14.2 31.9 31.8-14.3 31.8-31.9 31.8zM217.2 86.9c-2.9-3.1-7.2-5-11.6-5h-47.7l-.9 1.2-65.7 85.5-.4-.3-23.9-22H39.5c-2.9 0-5.7 1.3-7.7 3.4-1.8 1.9-2.6 4.5-2.4 7l6.2 78.4c.4 5.5 4.8 9.8 10.1 9.8h20.1c5.6 0 10.1-4.5 10.1-10v-53.2L98.5 197l1.7-1.9 43.5-49v88.7c0 8.5 6.9 15.3 15.4 15.3h35.4c8.1 0 14.7-6.5 15.4-15.2L221 97.5c.3-3.9-1.1-7.6-3.8-10.6zM97.7 189.1l-.3-.3-30.3-20.4-3.3 4.8 6.3 4.3v54c0 5.1-.6 7.6-4.1 7.7l-20.3-.2c-3.1-.1-4-1.9-4.1-4.5l-6.2-78.1h-.2v-.4c-.1-.8.3-1.7.9-2.4.8-1 2.1-1.5 3.4-1.5h25.3l.2.1 36 33.3-3.3 3.6zm106.6 45.3c-.4 5.6-4.5 9.8-9.5 9.8h-35.4c-5.3 0-9.5-4.2-9.5-9.5v-95.4l.1-.2 12.9-14.5-4.4-4-53.6 60.5-.3-.3-8.9-8.3.2-.3 65-84.6h44.9c2.8 0 5.4 1.2 7.2 3.2 1.7 1.8 2.4 4 2.4 6.1l-11.1 137.5zM52.7 91.6c-13.1 0-23.7 10.6-23.7 23.7S39.7 139 52.7 139c13.1 0 23.7-10.7 23.7-23.7 0-13.1-10.6-23.7-23.7-23.7zm0 41.6c-10 0-17.9-7.8-17.9-17.8 0-10.1 7.9-17.9 17.9-17.9 9.9 0 17.9 8 17.9 17.9 0 9.8-8 17.8-17.9 17.8z" class="st0"/></svg>