<svg xmlns="http://www.w3.org/2000/svg" viewBox="0 0 26.36 32.75"><defs><style>.a,.b{fill:none;stroke:#000;stroke-linecap:round;stroke-linejoin:round;stroke-width:0.75px;}.a{fill-rule:evenodd;}</style></defs><title>329</title><path class="a" d="M23.8,0a5,5,0,1,0,5,5A5,5,0,0,0,23.8,0Z" transform="translate(-2.82 0.38)"/><path class="a" d="M6.45,12.25a3.17,3.17,0,1,0,3.18,3.17A3.17,3.17,0,0,0,6.45,12.25Z" transform="translate(-2.82 0.38)"/><path class="b" d="M11.91,22.83l9-11.1h6a1.83,1.83,0,0,1,1.7,1.89c0,1.79-1.6,18.2-1.6,18.2H19.67L19,18.8l-5.6,5.41Z" transform="translate(-2.82 0.38)"/><path class="b" d="M11.61,22.55l-3.3-2.62h-4A1.41,1.41,0,0,0,3.2,21.41C3.2,22.72,4.56,32,4.56,32H8.85l.35-8.5,3.21,2.31,1-1.6Z" transform="translate(-2.82 0.38)"/></svg>