<?xml version="1.0" encoding="utf-8"?>
<!-- Generator: Adobe Illustrator 24.0.0, SVG Export Plug-In . SVG Version: 6.00 Build 0)  -->
<svg version="1.1" id="Layer_1" xmlns="http://www.w3.org/2000/svg" xmlns:xlink="http://www.w3.org/1999/xlink" x="0px" y="0px"
	 viewBox="0 0 250 250" style="enable-background:new 0 0 250 250;" xml:space="preserve">
<style type="text/css">
	.st0{fill-rule:evenodd;clip-rule:evenodd;}
</style>
<g>
	<g>
		<path class="st0" d="M182.5,0C161.8,0,145,16.7,145,37.4c0,20.6,16.8,37.3,37.5,37.3s37.5-16.7,37.5-37.3
			C219.9,16.7,203.1,0,182.5,0z M182.5,69.1c-17.6,0-31.8-14.2-31.8-31.8c0-17.6,14.2-31.8,31.8-31.8s31.9,14.2,31.9,31.8
			C214.4,54.9,200.1,69.1,182.5,69.1z"/>
	</g>
	<g>
		<path class="st0" d="M217.2,86.9c-2.9-3.1-7.2-5-11.6-5h-47.7l-0.9,1.2l-65.7,85.5l-0.4-0.3L67,146.3H39.5c-2.9,0-5.7,1.3-7.7,3.4
			c-1.8,1.9-2.6,4.5-2.4,7l6.2,78.4c0.4,5.5,4.8,9.8,10.1,9.8h20.1c5.6,0,10.1-4.5,10.1-10v-53.2l22.6,15.3l1.7-1.9l43.5-49v88.7
			c0,8.5,6.9,15.3,15.4,15.3h35.4c8.1,0,14.7-6.5,15.4-15.2L221,97.5C221.3,93.6,219.9,89.9,217.2,86.9z M97.7,189.1l-0.3-0.3
			l-30.3-20.4l-3.3,4.8l6.3,4.3v54c0,5.1-0.6,7.6-4.1,7.7L45.7,239c-3.1-0.1-4-1.9-4.1-4.5l-6.2-78.1h-0.2V156
			c-0.1-0.8,0.3-1.7,0.9-2.4c0.8-1,2.1-1.5,3.4-1.5h25.3l0.2,0.1l36,33.3L97.7,189.1z M204.3,234.4c-0.4,5.6-4.5,9.8-9.5,9.8h-35.4
			c-5.3,0-9.5-4.2-9.5-9.5v-95.4l0.1-0.2l12.9-14.5l-4.4-4l-53.6,60.5l-0.3-0.3l-8.9-8.3l0.2-0.3l65-84.6h44.9
			c2.8,0,5.4,1.2,7.2,3.2c1.7,1.8,2.4,4,2.4,6.1L204.3,234.4z"/>
	</g>
	<g>
		<path class="st0" d="M52.7,91.6c-13.1,0-23.7,10.6-23.7,23.7c0,13.1,10.7,23.7,23.7,23.7c13.1,0,23.7-10.7,23.7-23.7
			C76.4,102.2,65.8,91.6,52.7,91.6z M52.7,133.2c-10,0-17.9-7.8-17.9-17.8c0-10.1,7.9-17.9,17.9-17.9c9.9,0,17.9,8,17.9,17.9
			C70.6,125.2,62.6,133.2,52.7,133.2z"/>
	</g>
</g>
</svg>
