<?xml version="1.0" encoding="utf-8"?>
<!-- Generator: Adobe Illustrator 24.0.0, SVG Export Plug-In . SVG Version: 6.00 Build 0)  -->
<svg version="1.1" id="Layer_1" xmlns="http://www.w3.org/2000/svg" xmlns:xlink="http://www.w3.org/1999/xlink" x="0px" y="0px"
	 viewBox="0 0 250 250" style="enable-background:new 0 0 250 250;" xml:space="preserve">
<g>
	<g>
		<g>
			<path d="M212.5,78.5h-39.4V42.7H52v31.8H25.6v5.8H52v19.8H0v5.8h52v19.8H14.2v5.8H52v55.5h13.6l0.1,0.9
				c1.8,11.2,11.3,19.3,22.6,19.3s20.9-8.2,22.7-19.3l0.1-0.9h79.5l0.1,0.9c1.8,11.2,11.4,19.3,22.7,19.3c11.2,0,20.8-8.2,22.6-19.3
				l0.1-0.9H250v-71.2L212.5,78.5z M57.8,131.5h31v-5.8h-31V106h13.9v-5.8H57.8V80.4H83v-5.8H57.8V48.5h109.6V150H57.8V131.5z
				 M88.4,201.5c-9.5,0-17.2-7.7-17.2-17.2S78.9,167,88.4,167c9.6,0,17.3,7.8,17.3,17.3S97.9,201.5,88.4,201.5z M213.6,201.5
				c-9.5,0-17.3-7.7-17.3-17.2s7.8-17.3,17.3-17.3c9.5,0,17.2,7.8,17.2,17.3S223.1,201.5,213.6,201.5z M244.2,181.3h-7.8l-0.1-0.9
				c-1.9-11.1-11.5-19.1-22.6-19.1c-11.3,0-20.8,8-22.6,19.1l-0.1,0.9h-79.6l-0.1-0.9c-1.8-11.1-11.4-19.1-22.6-19.1
				c-11.2,0-20.7,8-22.6,19.1l-0.1,0.9h-7.8v-25.5h115.3V84.2h37.1l34,34.1V181.3z"/>
		</g>
		<g>
			<path d="M203.9,98.9h-16v41.6h41.6v-16L203.9,98.9z M223.7,134.8h-30.1v-30.1h7.8l22.3,22.3V134.8z"/>
		</g>
	</g>
</g>
</svg>
