<?xml version="1.0" encoding="utf-8"?>
<!-- Generator: Adobe Illustrator 24.0.0, SVG Export Plug-In . SVG Version: 6.00 Build 0)  -->
<svg version="1.1" id="Layer_1" xmlns="http://www.w3.org/2000/svg" xmlns:xlink="http://www.w3.org/1999/xlink" x="0px" y="0px"
	 viewBox="0 0 250 250" style="enable-background:new 0 0 250 250;" xml:space="preserve">
<g>
	<g>
		<path d="M144.4,40.1c-16.8,0-30.4,13.6-30.4,30.4c0,16.8,13.6,30.4,30.4,30.4c16.8,0,30.4-13.6,30.4-30.4
			C174.8,53.7,161.2,40.1,144.4,40.1z M144.4,92.8c-12.3,0-22.3-10-22.3-22.3c0-12.3,10-22.3,22.3-22.3c12.3,0,22.3,10,22.3,22.3
			C166.7,82.8,156.7,92.8,144.4,92.8z M144.4,149c-16.8,0-30.4,13.6-30.4,30.4c0,16.7,13.6,30.3,30.4,30.3
			c16.8,0,30.4-13.6,30.4-30.3C174.8,162.7,161.2,149,144.4,149z M144.4,201.6c-12.3,0-22.3-10-22.3-22.1c0-12.3,10-22.3,22.3-22.3
			c12.3,0,22.3,10,22.3,22.3C166.7,191.7,156.7,201.6,144.4,201.6z M198.9,94.6c-16.8,0-30.4,13.6-30.4,30.4
			c0,16.7,13.6,30.3,30.4,30.3s30.4-13.6,30.4-30.3C229.3,108.2,215.7,94.6,198.9,94.6z M198.9,147.1c-12.3,0-22.3-10-22.3-22.1
			c0-12.3,10-22.3,22.3-22.3c12.3,0,22.3,10,22.3,22.3C221.1,137.2,211.2,147.1,198.9,147.1z M89.9,94.6
			c-16.8,0-30.3,13.6-30.3,30.4c0,16.7,13.5,30.3,30.3,30.3c16.8,0,30.4-13.6,30.4-30.3C120.4,108.2,106.7,94.6,89.9,94.6z
			 M89.9,147.1c-12.2,0-22.1-10-22.1-22.1c0-12.3,10-22.3,22.1-22.3c12.3,0,22.3,10,22.3,22.3C112.2,137.2,102.2,147.1,89.9,147.1z
			 M198.9,94.6c-16.8,0-30.4,13.6-30.4,30.4c0,16.7,13.6,30.3,30.4,30.3s30.4-13.6,30.4-30.3C229.3,108.2,215.7,94.6,198.9,94.6z
			 M198.9,147.1c-12.3,0-22.3-10-22.3-22.1c0-12.3,10-22.3,22.3-22.3c12.3,0,22.3,10,22.3,22.3C221.1,137.2,211.2,147.1,198.9,147.1
			z M144.4,40.1c-16.8,0-30.4,13.6-30.4,30.4c0,16.8,13.6,30.4,30.4,30.4c16.8,0,30.4-13.6,30.4-30.4
			C174.8,53.7,161.2,40.1,144.4,40.1z M144.4,92.8c-12.3,0-22.3-10-22.3-22.3c0-12.3,10-22.3,22.3-22.3c12.3,0,22.3,10,22.3,22.3
			C166.7,82.8,156.7,92.8,144.4,92.8z M144.4,149c-16.8,0-30.4,13.6-30.4,30.4c0,16.7,13.6,30.3,30.4,30.3
			c16.8,0,30.4-13.6,30.4-30.3C174.8,162.7,161.2,149,144.4,149z M144.4,201.6c-12.3,0-22.3-10-22.3-22.1c0-12.3,10-22.3,22.3-22.3
			c12.3,0,22.3,10,22.3,22.3C166.7,191.7,156.7,201.6,144.4,201.6z M89.9,94.6c-16.8,0-30.3,13.6-30.3,30.4
			c0,16.7,13.5,30.3,30.3,30.3c16.8,0,30.4-13.6,30.4-30.3C120.4,108.2,106.7,94.6,89.9,94.6z M89.9,147.1
			c-12.2,0-22.1-10-22.1-22.1c0-12.3,10-22.3,22.1-22.3c12.3,0,22.3,10,22.3,22.3C112.2,137.2,102.2,147.1,89.9,147.1z M198.9,94.6
			c-16.8,0-30.4,13.6-30.4,30.4c0,16.7,13.6,30.3,30.4,30.3s30.4-13.6,30.4-30.3C229.3,108.2,215.7,94.6,198.9,94.6z M198.9,147.1
			c-12.3,0-22.3-10-22.3-22.1c0-12.3,10-22.3,22.3-22.3c12.3,0,22.3,10,22.3,22.3C221.1,137.2,211.2,147.1,198.9,147.1z M89.9,94.6
			c-16.8,0-30.3,13.6-30.3,30.4c0,16.7,13.5,30.3,30.3,30.3c16.8,0,30.4-13.6,30.4-30.3C120.4,108.2,106.7,94.6,89.9,94.6z
			 M89.9,147.1c-12.2,0-22.1-10-22.1-22.1c0-12.3,10-22.3,22.1-22.3c12.3,0,22.3,10,22.3,22.3C112.2,137.2,102.2,147.1,89.9,147.1z
			 M144.4,149c-16.8,0-30.4,13.6-30.4,30.4c0,16.7,13.6,30.3,30.4,30.3c16.8,0,30.4-13.6,30.4-30.3C174.8,162.7,161.2,149,144.4,149
			z M144.4,201.6c-12.3,0-22.3-10-22.3-22.1c0-12.3,10-22.3,22.3-22.3c12.3,0,22.3,10,22.3,22.3
			C166.7,191.7,156.7,201.6,144.4,201.6z M144.4,40.1c-16.8,0-30.4,13.6-30.4,30.4c0,16.8,13.6,30.4,30.4,30.4
			c16.8,0,30.4-13.6,30.4-30.4C174.8,53.7,161.2,40.1,144.4,40.1z M144.4,92.8c-12.3,0-22.3-10-22.3-22.3c0-12.3,10-22.3,22.3-22.3
			c12.3,0,22.3,10,22.3,22.3C166.7,82.8,156.7,92.8,144.4,92.8z M198.9,94.6c-16.8,0-30.4,13.6-30.4,30.4
			c0,16.7,13.6,30.3,30.4,30.3s30.4-13.6,30.4-30.3C229.3,108.2,215.7,94.6,198.9,94.6z M198.9,147.1c-12.3,0-22.3-10-22.3-22.1
			c0-12.3,10-22.3,22.3-22.3c12.3,0,22.3,10,22.3,22.3C221.1,137.2,211.2,147.1,198.9,147.1z M144.4,40.1
			c-16.8,0-30.4,13.6-30.4,30.4c0,16.8,13.6,30.4,30.4,30.4c16.8,0,30.4-13.6,30.4-30.4C174.8,53.7,161.2,40.1,144.4,40.1z
			 M144.4,92.8c-12.3,0-22.3-10-22.3-22.3c0-12.3,10-22.3,22.3-22.3c12.3,0,22.3,10,22.3,22.3C166.7,82.8,156.7,92.8,144.4,92.8z
			 M144.4,149c-16.8,0-30.4,13.6-30.4,30.4c0,16.7,13.6,30.3,30.4,30.3c16.8,0,30.4-13.6,30.4-30.3C174.8,162.7,161.2,149,144.4,149
			z M144.4,201.6c-12.3,0-22.3-10-22.3-22.1c0-12.3,10-22.3,22.3-22.3c12.3,0,22.3,10,22.3,22.3
			C166.7,191.7,156.7,201.6,144.4,201.6z M89.9,94.6c-16.8,0-30.3,13.6-30.3,30.4c0,16.7,13.5,30.3,30.3,30.3
			c16.8,0,30.4-13.6,30.4-30.3C120.4,108.2,106.7,94.6,89.9,94.6z M89.9,147.1c-12.2,0-22.1-10-22.1-22.1c0-12.3,10-22.3,22.1-22.3
			c12.3,0,22.3,10,22.3,22.3C112.2,137.2,102.2,147.1,89.9,147.1z M198.9,94.6c-16.8,0-30.4,13.6-30.4,30.4
			c0,16.7,13.6,30.3,30.4,30.3s30.4-13.6,30.4-30.3C229.3,108.2,215.7,94.6,198.9,94.6z M198.9,147.1c-12.3,0-22.3-10-22.3-22.1
			c0-12.3,10-22.3,22.3-22.3c12.3,0,22.3,10,22.3,22.3C221.1,137.2,211.2,147.1,198.9,147.1z M89.9,94.6
			c-16.8,0-30.3,13.6-30.3,30.4c0,16.7,13.5,30.3,30.3,30.3c16.8,0,30.4-13.6,30.4-30.3C120.4,108.2,106.7,94.6,89.9,94.6z
			 M89.9,147.1c-12.2,0-22.1-10-22.1-22.1c0-12.3,10-22.3,22.1-22.3c12.3,0,22.3,10,22.3,22.3C112.2,137.2,102.2,147.1,89.9,147.1z
			 M144.4,149c-16.8,0-30.4,13.6-30.4,30.4c0,16.7,13.6,30.3,30.4,30.3c16.8,0,30.4-13.6,30.4-30.3C174.8,162.7,161.2,149,144.4,149
			z M144.4,201.6c-12.3,0-22.3-10-22.3-22.1c0-12.3,10-22.3,22.3-22.3c12.3,0,22.3,10,22.3,22.3
			C166.7,191.7,156.7,201.6,144.4,201.6z M144.4,40.1c-16.8,0-30.4,13.6-30.4,30.4c0,16.8,13.6,30.4,30.4,30.4
			c16.8,0,30.4-13.6,30.4-30.4C174.8,53.7,161.2,40.1,144.4,40.1z M144.4,92.8c-12.3,0-22.3-10-22.3-22.3c0-12.3,10-22.3,22.3-22.3
			c12.3,0,22.3,10,22.3,22.3C166.7,82.8,156.7,92.8,144.4,92.8z M198.9,94.6c-16.8,0-30.4,13.6-30.4,30.4
			c0,16.7,13.6,30.3,30.4,30.3s30.4-13.6,30.4-30.3C229.3,108.2,215.7,94.6,198.9,94.6z M198.9,147.1c-12.3,0-22.3-10-22.3-22.1
			c0-12.3,10-22.3,22.3-22.3c12.3,0,22.3,10,22.3,22.3C221.1,137.2,211.2,147.1,198.9,147.1z M144.4,40.1
			c-16.8,0-30.4,13.6-30.4,30.4c0,16.8,13.6,30.4,30.4,30.4c16.8,0,30.4-13.6,30.4-30.4C174.8,53.7,161.2,40.1,144.4,40.1z
			 M144.4,92.8c-12.3,0-22.3-10-22.3-22.3c0-12.3,10-22.3,22.3-22.3c12.3,0,22.3,10,22.3,22.3C166.7,82.8,156.7,92.8,144.4,92.8z
			 M144.4,149c-16.8,0-30.4,13.6-30.4,30.4c0,16.7,13.6,30.3,30.4,30.3c16.8,0,30.4-13.6,30.4-30.3C174.8,162.7,161.2,149,144.4,149
			z M144.4,201.6c-12.3,0-22.3-10-22.3-22.1c0-12.3,10-22.3,22.3-22.3c12.3,0,22.3,10,22.3,22.3
			C166.7,191.7,156.7,201.6,144.4,201.6z M89.9,94.6c-16.8,0-30.3,13.6-30.3,30.4c0,16.7,13.5,30.3,30.3,30.3
			c16.8,0,30.4-13.6,30.4-30.3C120.4,108.2,106.7,94.6,89.9,94.6z M89.9,147.1c-12.2,0-22.1-10-22.1-22.1c0-12.3,10-22.3,22.1-22.3
			c12.3,0,22.3,10,22.3,22.3C112.2,137.2,102.2,147.1,89.9,147.1z M198.9,94.6c-16.8,0-30.4,13.6-30.4,30.4
			c0,16.7,13.6,30.3,30.4,30.3s30.4-13.6,30.4-30.3C229.3,108.2,215.7,94.6,198.9,94.6z M198.9,147.1c-12.3,0-22.3-10-22.3-22.1
			c0-12.3,10-22.3,22.3-22.3c12.3,0,22.3,10,22.3,22.3C221.1,137.2,211.2,147.1,198.9,147.1z M89.9,94.6
			c-16.8,0-30.3,13.6-30.3,30.4c0,16.7,13.5,30.3,30.3,30.3c16.8,0,30.4-13.6,30.4-30.3C120.4,108.2,106.7,94.6,89.9,94.6z
			 M89.9,147.1c-12.2,0-22.1-10-22.1-22.1c0-12.3,10-22.3,22.1-22.3c12.3,0,22.3,10,22.3,22.3C112.2,137.2,102.2,147.1,89.9,147.1z
			 M144.4,149c-16.8,0-30.4,13.6-30.4,30.4c0,16.7,13.6,30.3,30.4,30.3c16.8,0,30.4-13.6,30.4-30.3C174.8,162.7,161.2,149,144.4,149
			z M144.4,201.6c-12.3,0-22.3-10-22.3-22.1c0-12.3,10-22.3,22.3-22.3c12.3,0,22.3,10,22.3,22.3
			C166.7,191.7,156.7,201.6,144.4,201.6z M144.4,40.1c-16.8,0-30.4,13.6-30.4,30.4c0,16.8,13.6,30.4,30.4,30.4
			c16.8,0,30.4-13.6,30.4-30.4C174.8,53.7,161.2,40.1,144.4,40.1z M144.4,92.8c-12.3,0-22.3-10-22.3-22.3c0-12.3,10-22.3,22.3-22.3
			c12.3,0,22.3,10,22.3,22.3C166.7,82.8,156.7,92.8,144.4,92.8z M198.9,94.6c-16.8,0-30.4,13.6-30.4,30.4
			c0,16.7,13.6,30.3,30.4,30.3s30.4-13.6,30.4-30.3C229.3,108.2,215.7,94.6,198.9,94.6z M198.9,147.1c-12.3,0-22.3-10-22.3-22.1
			c0-12.3,10-22.3,22.3-22.3c12.3,0,22.3,10,22.3,22.3C221.1,137.2,211.2,147.1,198.9,147.1z M144.4,40.1
			c-16.8,0-30.4,13.6-30.4,30.4c0,16.8,13.6,30.4,30.4,30.4c16.8,0,30.4-13.6,30.4-30.4C174.8,53.7,161.2,40.1,144.4,40.1z
			 M144.4,92.8c-12.3,0-22.3-10-22.3-22.3c0-12.3,10-22.3,22.3-22.3c12.3,0,22.3,10,22.3,22.3C166.7,82.8,156.7,92.8,144.4,92.8z
			 M144.4,149c-16.8,0-30.4,13.6-30.4,30.4c0,16.7,13.6,30.3,30.4,30.3c16.8,0,30.4-13.6,30.4-30.3C174.8,162.7,161.2,149,144.4,149
			z M144.4,201.6c-12.3,0-22.3-10-22.3-22.1c0-12.3,10-22.3,22.3-22.3c12.3,0,22.3,10,22.3,22.3
			C166.7,191.7,156.7,201.6,144.4,201.6z M89.9,94.6c-16.8,0-30.3,13.6-30.3,30.4c0,16.7,13.5,30.3,30.3,30.3
			c16.8,0,30.4-13.6,30.4-30.3C120.4,108.2,106.7,94.6,89.9,94.6z M89.9,147.1c-12.2,0-22.1-10-22.1-22.1c0-12.3,10-22.3,22.1-22.3
			c12.3,0,22.3,10,22.3,22.3C112.2,137.2,102.2,147.1,89.9,147.1z M198.9,94.6c-16.8,0-30.4,13.6-30.4,30.4
			c0,16.7,13.6,30.3,30.4,30.3s30.4-13.6,30.4-30.3C229.3,108.2,215.7,94.6,198.9,94.6z M198.9,147.1c-12.3,0-22.3-10-22.3-22.1
			c0-12.3,10-22.3,22.3-22.3c12.3,0,22.3,10,22.3,22.3C221.1,137.2,211.2,147.1,198.9,147.1z M89.9,94.6
			c-16.8,0-30.3,13.6-30.3,30.4c0,16.7,13.5,30.3,30.3,30.3c16.8,0,30.4-13.6,30.4-30.3C120.4,108.2,106.7,94.6,89.9,94.6z
			 M89.9,147.1c-12.2,0-22.1-10-22.1-22.1c0-12.3,10-22.3,22.1-22.3c12.3,0,22.3,10,22.3,22.3C112.2,137.2,102.2,147.1,89.9,147.1z
			 M144.4,149c-16.8,0-30.4,13.6-30.4,30.4c0,16.7,13.6,30.3,30.4,30.3c16.8,0,30.4-13.6,30.4-30.3C174.8,162.7,161.2,149,144.4,149
			z M144.4,201.6c-12.3,0-22.3-10-22.3-22.1c0-12.3,10-22.3,22.3-22.3c12.3,0,22.3,10,22.3,22.3
			C166.7,191.7,156.7,201.6,144.4,201.6z M144.4,40.1c-16.8,0-30.4,13.6-30.4,30.4c0,16.8,13.6,30.4,30.4,30.4
			c16.8,0,30.4-13.6,30.4-30.4C174.8,53.7,161.2,40.1,144.4,40.1z M144.4,92.8c-12.3,0-22.3-10-22.3-22.3c0-12.3,10-22.3,22.3-22.3
			c12.3,0,22.3,10,22.3,22.3C166.7,82.8,156.7,92.8,144.4,92.8z M198.9,94.6c-16.8,0-30.4,13.6-30.4,30.4
			c0,16.7,13.6,30.3,30.4,30.3s30.4-13.6,30.4-30.3C229.3,108.2,215.7,94.6,198.9,94.6z M198.9,147.1c-12.3,0-22.3-10-22.3-22.1
			c0-12.3,10-22.3,22.3-22.3c12.3,0,22.3,10,22.3,22.3C221.1,137.2,211.2,147.1,198.9,147.1z M144.4,40.1
			c-16.8,0-30.4,13.6-30.4,30.4c0,16.8,13.6,30.4,30.4,30.4c16.8,0,30.4-13.6,30.4-30.4C174.8,53.7,161.2,40.1,144.4,40.1z
			 M144.4,92.8c-12.3,0-22.3-10-22.3-22.3c0-12.3,10-22.3,22.3-22.3c12.3,0,22.3,10,22.3,22.3C166.7,82.8,156.7,92.8,144.4,92.8z
			 M144.4,149c-16.8,0-30.4,13.6-30.4,30.4c0,16.7,13.6,30.3,30.4,30.3c16.8,0,30.4-13.6,30.4-30.3C174.8,162.7,161.2,149,144.4,149
			z M144.4,201.6c-12.3,0-22.3-10-22.3-22.1c0-12.3,10-22.3,22.3-22.3c12.3,0,22.3,10,22.3,22.3
			C166.7,191.7,156.7,201.6,144.4,201.6z M89.9,94.6c-16.8,0-30.3,13.6-30.3,30.4c0,16.7,13.5,30.3,30.3,30.3
			c16.8,0,30.4-13.6,30.4-30.3C120.4,108.2,106.7,94.6,89.9,94.6z M89.9,147.1c-12.2,0-22.1-10-22.1-22.1c0-12.3,10-22.3,22.1-22.3
			c12.3,0,22.3,10,22.3,22.3C112.2,137.2,102.2,147.1,89.9,147.1z M89.9,94.6c-16.8,0-30.3,13.6-30.3,30.4
			c0,16.7,13.5,30.3,30.3,30.3c16.8,0,30.4-13.6,30.4-30.3C120.4,108.2,106.7,94.6,89.9,94.6z M89.9,147.1
			c-12.2,0-22.1-10-22.1-22.1c0-12.3,10-22.3,22.1-22.3c12.3,0,22.3,10,22.3,22.3C112.2,137.2,102.2,147.1,89.9,147.1z M144.4,149
			c-16.8,0-30.4,13.6-30.4,30.4c0,16.7,13.6,30.3,30.4,30.3c16.8,0,30.4-13.6,30.4-30.3C174.8,162.7,161.2,149,144.4,149z
			 M144.4,201.6c-12.3,0-22.3-10-22.3-22.1c0-12.3,10-22.3,22.3-22.3c12.3,0,22.3,10,22.3,22.3C166.7,191.7,156.7,201.6,144.4,201.6
			z M144.4,40.1c-16.8,0-30.4,13.6-30.4,30.4c0,16.8,13.6,30.4,30.4,30.4c16.8,0,30.4-13.6,30.4-30.4
			C174.8,53.7,161.2,40.1,144.4,40.1z M144.4,92.8c-12.3,0-22.3-10-22.3-22.3c0-12.3,10-22.3,22.3-22.3c12.3,0,22.3,10,22.3,22.3
			C166.7,82.8,156.7,92.8,144.4,92.8z M198.9,94.6c-16.8,0-30.4,13.6-30.4,30.4c0,16.7,13.6,30.3,30.4,30.3s30.4-13.6,30.4-30.3
			C229.3,108.2,215.7,94.6,198.9,94.6z M198.9,147.1c-12.3,0-22.3-10-22.3-22.1c0-12.3,10-22.3,22.3-22.3c12.3,0,22.3,10,22.3,22.3
			C221.1,137.2,211.2,147.1,198.9,147.1z M198.9,94.6c-16.8,0-30.4,13.6-30.4,30.4c0,16.7,13.6,30.3,30.4,30.3s30.4-13.6,30.4-30.3
			C229.3,108.2,215.7,94.6,198.9,94.6z M198.9,147.1c-12.3,0-22.3-10-22.3-22.1c0-12.3,10-22.3,22.3-22.3c12.3,0,22.3,10,22.3,22.3
			C221.1,137.2,211.2,147.1,198.9,147.1z M144.4,101c16.8,0,30.4-13.6,30.4-30.4c0-16.8-13.6-30.4-30.4-30.4
			c-16.8,0-30.4,13.6-30.4,30.4C114,87.3,127.6,101,144.4,101z M144.4,48.3c12.3,0,22.3,10,22.3,22.3c0,12.3-10,22.3-22.3,22.3
			c-12.3,0-22.3-10-22.3-22.3C122.2,58.2,132.1,48.3,144.4,48.3z M144.4,149c-16.8,0-30.4,13.6-30.4,30.4
			c0,16.7,13.6,30.3,30.4,30.3c16.8,0,30.4-13.6,30.4-30.3C174.8,162.7,161.2,149,144.4,149z M144.4,201.6
			c-12.3,0-22.3-10-22.3-22.1c0-12.3,10-22.3,22.3-22.3c12.3,0,22.3,10,22.3,22.3C166.7,191.7,156.7,201.6,144.4,201.6z M89.9,94.6
			c-16.8,0-30.3,13.6-30.3,30.4c0,16.7,13.5,30.3,30.3,30.3c16.8,0,30.4-13.6,30.4-30.3C120.4,108.2,106.7,94.6,89.9,94.6z
			 M89.9,147.1c-12.2,0-22.1-10-22.1-22.1c0-12.3,10-22.3,22.1-22.3c12.3,0,22.3,10,22.3,22.3C112.2,137.2,102.2,147.1,89.9,147.1z
			 M144.4,19.4C86.1,19.4,38.8,66.7,38.8,125c0,28.1,11,54.7,31.1,74.7l3.5,3.4l-4.8,1.1c-7.6,1.5-18.6,0.9-28.3-10.8
			c-5.4-6.5-13-9.8-21.1-9c-7.9,0.7-14.8,5.1-18.6,11.9c-0.5,0.9-0.6,2-0.3,3.1c0.3,0.9,0.9,1.9,1.9,2.4c2,1,4.5,0.4,5.6-1.6
			c2.5-4.3,7-7.2,12.2-7.7c3.1-0.3,9.1,0.1,14.1,6c8,9.6,17.6,14.5,28.8,14.5c5.4,0,11.1-1.3,16.2-3.6l1.4-0.6l1.3,0.9
			c18.4,13.6,40.1,20.9,63,20.9c58.3,0,105.6-47.4,105.6-105.6C250,66.7,202.7,19.4,144.4,19.4z M144.4,222.4
			C90.7,222.4,47,178.7,47,125c0-53.7,43.7-97.4,97.4-97.4c53.7,0,97.4,43.7,97.4,97.4C241.8,178.7,198.1,222.4,144.4,222.4z
			 M198.9,94.6c-16.8,0-30.4,13.6-30.4,30.4c0,16.7,13.6,30.3,30.4,30.3s30.4-13.6,30.4-30.3C229.3,108.2,215.7,94.6,198.9,94.6z
			 M198.9,147.1c-12.3,0-22.3-10-22.3-22.1c0-12.3,10-22.3,22.3-22.3c12.3,0,22.3,10,22.3,22.3C221.1,137.2,211.2,147.1,198.9,147.1
			z M144.4,101c16.8,0,30.4-13.6,30.4-30.4c0-16.8-13.6-30.4-30.4-30.4c-16.8,0-30.4,13.6-30.4,30.4C114,87.3,127.6,101,144.4,101z
			 M144.4,48.3c12.3,0,22.3,10,22.3,22.3c0,12.3-10,22.3-22.3,22.3c-12.3,0-22.3-10-22.3-22.3C122.2,58.2,132.1,48.3,144.4,48.3z
			 M144.4,149c-16.8,0-30.4,13.6-30.4,30.4c0,16.7,13.6,30.3,30.4,30.3c16.8,0,30.4-13.6,30.4-30.3C174.8,162.7,161.2,149,144.4,149
			z M144.4,201.6c-12.3,0-22.3-10-22.3-22.1c0-12.3,10-22.3,22.3-22.3c12.3,0,22.3,10,22.3,22.3
			C166.7,191.7,156.7,201.6,144.4,201.6z M89.9,94.6c-16.8,0-30.3,13.6-30.3,30.4c0,16.7,13.5,30.3,30.3,30.3
			c16.8,0,30.4-13.6,30.4-30.3C120.4,108.2,106.7,94.6,89.9,94.6z M89.9,147.1c-12.2,0-22.1-10-22.1-22.1c0-12.3,10-22.3,22.1-22.3
			c12.3,0,22.3,10,22.3,22.3C112.2,137.2,102.2,147.1,89.9,147.1z M89.9,94.6c-16.8,0-30.3,13.6-30.3,30.4
			c0,16.7,13.5,30.3,30.3,30.3c16.8,0,30.4-13.6,30.4-30.3C120.4,108.2,106.7,94.6,89.9,94.6z M89.9,147.1
			c-12.2,0-22.1-10-22.1-22.1c0-12.3,10-22.3,22.1-22.3c12.3,0,22.3,10,22.3,22.3C112.2,137.2,102.2,147.1,89.9,147.1z M144.4,149
			c-16.8,0-30.4,13.6-30.4,30.4c0,16.7,13.6,30.3,30.4,30.3c16.8,0,30.4-13.6,30.4-30.3C174.8,162.7,161.2,149,144.4,149z
			 M144.4,201.6c-12.3,0-22.3-10-22.3-22.1c0-12.3,10-22.3,22.3-22.3c12.3,0,22.3,10,22.3,22.3C166.7,191.7,156.7,201.6,144.4,201.6
			z M144.4,40.1c-16.8,0-30.4,13.6-30.4,30.4c0,16.8,13.6,30.4,30.4,30.4c16.8,0,30.4-13.6,30.4-30.4
			C174.8,53.7,161.2,40.1,144.4,40.1z M144.4,92.8c-12.3,0-22.3-10-22.3-22.3c0-12.3,10-22.3,22.3-22.3c12.3,0,22.3,10,22.3,22.3
			C166.7,82.8,156.7,92.8,144.4,92.8z M198.9,94.6c-16.8,0-30.4,13.6-30.4,30.4c0,16.7,13.6,30.3,30.4,30.3s30.4-13.6,30.4-30.3
			C229.3,108.2,215.7,94.6,198.9,94.6z M198.9,147.1c-12.3,0-22.3-10-22.3-22.1c0-12.3,10-22.3,22.3-22.3c12.3,0,22.3,10,22.3,22.3
			C221.1,137.2,211.2,147.1,198.9,147.1z M198.9,94.6c-16.8,0-30.4,13.6-30.4,30.4c0,16.7,13.6,30.3,30.4,30.3s30.4-13.6,30.4-30.3
			C229.3,108.2,215.7,94.6,198.9,94.6z M198.9,147.1c-12.3,0-22.3-10-22.3-22.1c0-12.3,10-22.3,22.3-22.3c12.3,0,22.3,10,22.3,22.3
			C221.1,137.2,211.2,147.1,198.9,147.1z M144.4,40.1c-16.8,0-30.4,13.6-30.4,30.4c0,16.8,13.6,30.4,30.4,30.4
			c16.8,0,30.4-13.6,30.4-30.4C174.8,53.7,161.2,40.1,144.4,40.1z M144.4,92.8c-12.3,0-22.3-10-22.3-22.3c0-12.3,10-22.3,22.3-22.3
			c12.3,0,22.3,10,22.3,22.3C166.7,82.8,156.7,92.8,144.4,92.8z M144.4,149c-16.8,0-30.4,13.6-30.4,30.4c0,16.7,13.6,30.3,30.4,30.3
			c16.8,0,30.4-13.6,30.4-30.3C174.8,162.7,161.2,149,144.4,149z M144.4,201.6c-12.3,0-22.3-10-22.3-22.1c0-12.3,10-22.3,22.3-22.3
			c12.3,0,22.3,10,22.3,22.3C166.7,191.7,156.7,201.6,144.4,201.6z M89.9,94.6c-16.8,0-30.3,13.6-30.3,30.4
			c0,16.7,13.5,30.3,30.3,30.3c16.8,0,30.4-13.6,30.4-30.3C120.4,108.2,106.7,94.6,89.9,94.6z M89.9,147.1
			c-12.2,0-22.1-10-22.1-22.1c0-12.3,10-22.3,22.1-22.3c12.3,0,22.3,10,22.3,22.3C112.2,137.2,102.2,147.1,89.9,147.1z M198.9,94.6
			c-16.8,0-30.4,13.6-30.4,30.4c0,16.7,13.6,30.3,30.4,30.3s30.4-13.6,30.4-30.3C229.3,108.2,215.7,94.6,198.9,94.6z M198.9,147.1
			c-12.3,0-22.3-10-22.3-22.1c0-12.3,10-22.3,22.3-22.3c12.3,0,22.3,10,22.3,22.3C221.1,137.2,211.2,147.1,198.9,147.1z M89.9,94.6
			c-16.8,0-30.3,13.6-30.3,30.4c0,16.7,13.5,30.3,30.3,30.3c16.8,0,30.4-13.6,30.4-30.3C120.4,108.2,106.7,94.6,89.9,94.6z
			 M89.9,147.1c-12.2,0-22.1-10-22.1-22.1c0-12.3,10-22.3,22.1-22.3c12.3,0,22.3,10,22.3,22.3C112.2,137.2,102.2,147.1,89.9,147.1z
			 M144.4,149c-16.8,0-30.4,13.6-30.4,30.4c0,16.7,13.6,30.3,30.4,30.3c16.8,0,30.4-13.6,30.4-30.3C174.8,162.7,161.2,149,144.4,149
			z M144.4,201.6c-12.3,0-22.3-10-22.3-22.1c0-12.3,10-22.3,22.3-22.3c12.3,0,22.3,10,22.3,22.3
			C166.7,191.7,156.7,201.6,144.4,201.6z M144.4,40.1c-16.8,0-30.4,13.6-30.4,30.4c0,16.8,13.6,30.4,30.4,30.4
			c16.8,0,30.4-13.6,30.4-30.4C174.8,53.7,161.2,40.1,144.4,40.1z M144.4,92.8c-12.3,0-22.3-10-22.3-22.3c0-12.3,10-22.3,22.3-22.3
			c12.3,0,22.3,10,22.3,22.3C166.7,82.8,156.7,92.8,144.4,92.8z M198.9,94.6c-16.8,0-30.4,13.6-30.4,30.4
			c0,16.7,13.6,30.3,30.4,30.3s30.4-13.6,30.4-30.3C229.3,108.2,215.7,94.6,198.9,94.6z M198.9,147.1c-12.3,0-22.3-10-22.3-22.1
			c0-12.3,10-22.3,22.3-22.3c12.3,0,22.3,10,22.3,22.3C221.1,137.2,211.2,147.1,198.9,147.1z M144.4,40.1
			c-16.8,0-30.4,13.6-30.4,30.4c0,16.8,13.6,30.4,30.4,30.4c16.8,0,30.4-13.6,30.4-30.4C174.8,53.7,161.2,40.1,144.4,40.1z
			 M144.4,92.8c-12.3,0-22.3-10-22.3-22.3c0-12.3,10-22.3,22.3-22.3c12.3,0,22.3,10,22.3,22.3C166.7,82.8,156.7,92.8,144.4,92.8z
			 M144.4,149c-16.8,0-30.4,13.6-30.4,30.4c0,16.7,13.6,30.3,30.4,30.3c16.8,0,30.4-13.6,30.4-30.3C174.8,162.7,161.2,149,144.4,149
			z M144.4,201.6c-12.3,0-22.3-10-22.3-22.1c0-12.3,10-22.3,22.3-22.3c12.3,0,22.3,10,22.3,22.3
			C166.7,191.7,156.7,201.6,144.4,201.6z M89.9,94.6c-16.8,0-30.3,13.6-30.3,30.4c0,16.7,13.5,30.3,30.3,30.3
			c16.8,0,30.4-13.6,30.4-30.3C120.4,108.2,106.7,94.6,89.9,94.6z M89.9,147.1c-12.2,0-22.1-10-22.1-22.1c0-12.3,10-22.3,22.1-22.3
			c12.3,0,22.3,10,22.3,22.3C112.2,137.2,102.2,147.1,89.9,147.1z M198.9,94.6c-16.8,0-30.4,13.6-30.4,30.4
			c0,16.7,13.6,30.3,30.4,30.3s30.4-13.6,30.4-30.3C229.3,108.2,215.7,94.6,198.9,94.6z M198.9,147.1c-12.3,0-22.3-10-22.3-22.1
			c0-12.3,10-22.3,22.3-22.3c12.3,0,22.3,10,22.3,22.3C221.1,137.2,211.2,147.1,198.9,147.1z M89.9,94.6
			c-16.8,0-30.3,13.6-30.3,30.4c0,16.7,13.5,30.3,30.3,30.3c16.8,0,30.4-13.6,30.4-30.3C120.4,108.2,106.7,94.6,89.9,94.6z
			 M89.9,147.1c-12.2,0-22.1-10-22.1-22.1c0-12.3,10-22.3,22.1-22.3c12.3,0,22.3,10,22.3,22.3C112.2,137.2,102.2,147.1,89.9,147.1z
			 M144.4,149c-16.8,0-30.4,13.6-30.4,30.4c0,16.7,13.6,30.3,30.4,30.3c16.8,0,30.4-13.6,30.4-30.3C174.8,162.7,161.2,149,144.4,149
			z M144.4,201.6c-12.3,0-22.3-10-22.3-22.1c0-12.3,10-22.3,22.3-22.3c12.3,0,22.3,10,22.3,22.3
			C166.7,191.7,156.7,201.6,144.4,201.6z M144.4,40.1c-16.8,0-30.4,13.6-30.4,30.4c0,16.8,13.6,30.4,30.4,30.4
			c16.8,0,30.4-13.6,30.4-30.4C174.8,53.7,161.2,40.1,144.4,40.1z M144.4,92.8c-12.3,0-22.3-10-22.3-22.3c0-12.3,10-22.3,22.3-22.3
			c12.3,0,22.3,10,22.3,22.3C166.7,82.8,156.7,92.8,144.4,92.8z M198.9,94.6c-16.8,0-30.4,13.6-30.4,30.4
			c0,16.7,13.6,30.3,30.4,30.3s30.4-13.6,30.4-30.3C229.3,108.2,215.7,94.6,198.9,94.6z M198.9,147.1c-12.3,0-22.3-10-22.3-22.1
			c0-12.3,10-22.3,22.3-22.3c12.3,0,22.3,10,22.3,22.3C221.1,137.2,211.2,147.1,198.9,147.1z M144.4,40.1
			c-16.8,0-30.4,13.6-30.4,30.4c0,16.8,13.6,30.4,30.4,30.4c16.8,0,30.4-13.6,30.4-30.4C174.8,53.7,161.2,40.1,144.4,40.1z
			 M144.4,92.8c-12.3,0-22.3-10-22.3-22.3c0-12.3,10-22.3,22.3-22.3c12.3,0,22.3,10,22.3,22.3C166.7,82.8,156.7,92.8,144.4,92.8z
			 M144.4,149c-16.8,0-30.4,13.6-30.4,30.4c0,16.7,13.6,30.3,30.4,30.3c16.8,0,30.4-13.6,30.4-30.3C174.8,162.7,161.2,149,144.4,149
			z M144.4,201.6c-12.3,0-22.3-10-22.3-22.1c0-12.3,10-22.3,22.3-22.3c12.3,0,22.3,10,22.3,22.3
			C166.7,191.7,156.7,201.6,144.4,201.6z M89.9,94.6c-16.8,0-30.3,13.6-30.3,30.4c0,16.7,13.5,30.3,30.3,30.3
			c16.8,0,30.4-13.6,30.4-30.3C120.4,108.2,106.7,94.6,89.9,94.6z M89.9,147.1c-12.2,0-22.1-10-22.1-22.1c0-12.3,10-22.3,22.1-22.3
			c12.3,0,22.3,10,22.3,22.3C112.2,137.2,102.2,147.1,89.9,147.1z M198.9,94.6c-16.8,0-30.4,13.6-30.4,30.4
			c0,16.7,13.6,30.3,30.4,30.3s30.4-13.6,30.4-30.3C229.3,108.2,215.7,94.6,198.9,94.6z M198.9,147.1c-12.3,0-22.3-10-22.3-22.1
			c0-12.3,10-22.3,22.3-22.3c12.3,0,22.3,10,22.3,22.3C221.1,137.2,211.2,147.1,198.9,147.1z M89.9,94.6
			c-16.8,0-30.3,13.6-30.3,30.4c0,16.7,13.5,30.3,30.3,30.3c16.8,0,30.4-13.6,30.4-30.3C120.4,108.2,106.7,94.6,89.9,94.6z
			 M89.9,147.1c-12.2,0-22.1-10-22.1-22.1c0-12.3,10-22.3,22.1-22.3c12.3,0,22.3,10,22.3,22.3C112.2,137.2,102.2,147.1,89.9,147.1z
			 M144.4,149c-16.8,0-30.4,13.6-30.4,30.4c0,16.7,13.6,30.3,30.4,30.3c16.8,0,30.4-13.6,30.4-30.3C174.8,162.7,161.2,149,144.4,149
			z M144.4,201.6c-12.3,0-22.3-10-22.3-22.1c0-12.3,10-22.3,22.3-22.3c12.3,0,22.3,10,22.3,22.3
			C166.7,191.7,156.7,201.6,144.4,201.6z M144.4,40.1c-16.8,0-30.4,13.6-30.4,30.4c0,16.8,13.6,30.4,30.4,30.4
			c16.8,0,30.4-13.6,30.4-30.4C174.8,53.7,161.2,40.1,144.4,40.1z M144.4,92.8c-12.3,0-22.3-10-22.3-22.3c0-12.3,10-22.3,22.3-22.3
			c12.3,0,22.3,10,22.3,22.3C166.7,82.8,156.7,92.8,144.4,92.8z M198.9,94.6c-16.8,0-30.4,13.6-30.4,30.4
			c0,16.7,13.6,30.3,30.4,30.3s30.4-13.6,30.4-30.3C229.3,108.2,215.7,94.6,198.9,94.6z M198.9,147.1c-12.3,0-22.3-10-22.3-22.1
			c0-12.3,10-22.3,22.3-22.3c12.3,0,22.3,10,22.3,22.3C221.1,137.2,211.2,147.1,198.9,147.1z M144.4,40.1
			c-16.8,0-30.4,13.6-30.4,30.4c0,16.8,13.6,30.4,30.4,30.4c16.8,0,30.4-13.6,30.4-30.4C174.8,53.7,161.2,40.1,144.4,40.1z
			 M144.4,92.8c-12.3,0-22.3-10-22.3-22.3c0-12.3,10-22.3,22.3-22.3c12.3,0,22.3,10,22.3,22.3C166.7,82.8,156.7,92.8,144.4,92.8z
			 M144.4,149c-16.8,0-30.4,13.6-30.4,30.4c0,16.7,13.6,30.3,30.4,30.3c16.8,0,30.4-13.6,30.4-30.3C174.8,162.7,161.2,149,144.4,149
			z M144.4,201.6c-12.3,0-22.3-10-22.3-22.1c0-12.3,10-22.3,22.3-22.3c12.3,0,22.3,10,22.3,22.3
			C166.7,191.7,156.7,201.6,144.4,201.6z M89.9,94.6c-16.8,0-30.3,13.6-30.3,30.4c0,16.7,13.5,30.3,30.3,30.3
			c16.8,0,30.4-13.6,30.4-30.3C120.4,108.2,106.7,94.6,89.9,94.6z M89.9,147.1c-12.2,0-22.1-10-22.1-22.1c0-12.3,10-22.3,22.1-22.3
			c12.3,0,22.3,10,22.3,22.3C112.2,137.2,102.2,147.1,89.9,147.1z M198.9,94.6c-16.8,0-30.4,13.6-30.4,30.4
			c0,16.7,13.6,30.3,30.4,30.3s30.4-13.6,30.4-30.3C229.3,108.2,215.7,94.6,198.9,94.6z M198.9,147.1c-12.3,0-22.3-10-22.3-22.1
			c0-12.3,10-22.3,22.3-22.3c12.3,0,22.3,10,22.3,22.3C221.1,137.2,211.2,147.1,198.9,147.1z M89.9,94.6
			c-16.8,0-30.3,13.6-30.3,30.4c0,16.7,13.5,30.3,30.3,30.3c16.8,0,30.4-13.6,30.4-30.3C120.4,108.2,106.7,94.6,89.9,94.6z
			 M89.9,147.1c-12.2,0-22.1-10-22.1-22.1c0-12.3,10-22.3,22.1-22.3c12.3,0,22.3,10,22.3,22.3C112.2,137.2,102.2,147.1,89.9,147.1z
			 M144.4,149c-16.8,0-30.4,13.6-30.4,30.4c0,16.7,13.6,30.3,30.4,30.3c16.8,0,30.4-13.6,30.4-30.3C174.8,162.7,161.2,149,144.4,149
			z M144.4,201.6c-12.3,0-22.3-10-22.3-22.1c0-12.3,10-22.3,22.3-22.3c12.3,0,22.3,10,22.3,22.3
			C166.7,191.7,156.7,201.6,144.4,201.6z M144.4,40.1c-16.8,0-30.4,13.6-30.4,30.4c0,16.8,13.6,30.4,30.4,30.4
			c16.8,0,30.4-13.6,30.4-30.4C174.8,53.7,161.2,40.1,144.4,40.1z M144.4,92.8c-12.3,0-22.3-10-22.3-22.3c0-12.3,10-22.3,22.3-22.3
			c12.3,0,22.3,10,22.3,22.3C166.7,82.8,156.7,92.8,144.4,92.8z M198.9,94.6c-16.8,0-30.4,13.6-30.4,30.4
			c0,16.7,13.6,30.3,30.4,30.3s30.4-13.6,30.4-30.3C229.3,108.2,215.7,94.6,198.9,94.6z M198.9,147.1c-12.3,0-22.3-10-22.3-22.1
			c0-12.3,10-22.3,22.3-22.3c12.3,0,22.3,10,22.3,22.3C221.1,137.2,211.2,147.1,198.9,147.1z M144.4,40.1
			c-16.8,0-30.4,13.6-30.4,30.4c0,16.8,13.6,30.4,30.4,30.4c16.8,0,30.4-13.6,30.4-30.4C174.8,53.7,161.2,40.1,144.4,40.1z
			 M144.4,92.8c-12.3,0-22.3-10-22.3-22.3c0-12.3,10-22.3,22.3-22.3c12.3,0,22.3,10,22.3,22.3C166.7,82.8,156.7,92.8,144.4,92.8z
			 M144.4,149c-16.8,0-30.4,13.6-30.4,30.4c0,16.7,13.6,30.3,30.4,30.3c16.8,0,30.4-13.6,30.4-30.3C174.8,162.7,161.2,149,144.4,149
			z M144.4,201.6c-12.3,0-22.3-10-22.3-22.1c0-12.3,10-22.3,22.3-22.3c12.3,0,22.3,10,22.3,22.3
			C166.7,191.7,156.7,201.6,144.4,201.6z M89.9,94.6c-16.8,0-30.3,13.6-30.3,30.4c0,16.7,13.5,30.3,30.3,30.3
			c16.8,0,30.4-13.6,30.4-30.3C120.4,108.2,106.7,94.6,89.9,94.6z M89.9,147.1c-12.2,0-22.1-10-22.1-22.1c0-12.3,10-22.3,22.1-22.3
			c12.3,0,22.3,10,22.3,22.3C112.2,137.2,102.2,147.1,89.9,147.1z"/>
	</g>
</g>
<g>
	<g>
		<path d="M125,140.7c-8.7,0-15.7-7-15.7-15.7c0-8.7,7-15.8,15.7-15.8s15.7,7.1,15.7,15.8C140.7,133.7,133.6,140.7,125,140.7z
			 M125,117.1c-4.3,0-7.8,3.6-7.8,7.9c0,4.3,3.5,7.8,7.8,7.8c4.3,0,7.8-3.5,7.8-7.8C132.8,120.7,129.3,117.1,125,117.1z"/>
	</g>
</g>
</svg>
