<svg xmlns="http://www.w3.org/2000/svg" viewBox="0 0 32.75 26.93"><defs><style>.a{fill:none;stroke:#000;stroke-linecap:round;stroke-linejoin:round;stroke-width:0.75px;}</style></defs><title>334</title><path class="a" d="M11,26.38l.15.12a13.17,13.17,0,1,0-1.43-1.24l.43.42Zm14.71-7.63A2.76,2.76,0,1,1,28.42,16,2.76,2.76,0,0,1,25.66,18.75Zm-13.5,0A2.76,2.76,0,1,1,14.92,16,2.76,2.76,0,0,1,12.16,18.75Zm6.75,6.75a2.76,2.76,0,1,1,2.76-2.75A2.76,2.76,0,0,1,18.91,25.5Zm0-13.49a2.76,2.76,0,1,1,2.76-2.76A2.77,2.77,0,0,1,18.91,12Z" transform="translate(0.38 -2.54)"/><path class="a" d="M16.5,15a1,1,0,1,0,1,1A1,1,0,0,0,16.5,15Z" transform="translate(0.38 -2.54)"/><path class="a" d="M10.56,26.26S6.71,27.39,5,24.91s-5,.49-5,.49" transform="translate(0.38 -2.54)"/></svg>