<svg xmlns="http://www.w3.org/2000/svg" viewBox="0 0 32.75 19.43"><defs><style>.a{fill:none;stroke:#000;stroke-linecap:round;stroke-linejoin:round;stroke-width:0.75px;}</style></defs><title>339</title><path class="a" d="M30.17,24.44a1.29,1.29,0,0,1-1.21.79H26.47a2.93,2.93,0,0,0,.81-2.3.3.3,0,0,0-.29-.28H5a.29.29,0,0,0-.28.25,2.62,2.62,0,0,0,.79,2.33H3a1.28,1.28,0,0,1-1.2-.79A28.49,28.49,0,0,1,.36,18.81H31.64A29.17,29.17,0,0,1,30.17,24.44ZM32,14.92a29.52,29.52,0,0,1-.26,3.88H.26A29.52,29.52,0,0,1,0,14.92V12.59a1.27,1.27,0,0,1,1.32-1.21H17.46a5.68,5.68,0,0,0,11.3,0h1.92A1.27,1.27,0,0,1,32,12.59Z" transform="translate(0.38 -6.28)"/><path class="a" d="M6.91,25.34H24.78" transform="translate(0.38 -6.28)"/><path class="a" d="M28.31,9.05,26,10.32a2.34,2.34,0,0,1-.9,3c-1.71,1.24-4.26.08-4.26.08s3.5-.79,2.47-2.72l0,.06c-1-1.92-3.63.57-3.63.57S19.94,8.54,22,8a3,3,0,0,1,3.17.76L29,6.66" transform="translate(0.38 -6.28)"/></svg>