<?xml version="1.0" encoding="utf-8"?>
<!-- Generator: Adobe Illustrator 24.0.0, SVG Export Plug-In . SVG Version: 6.00 Build 0)  -->
<svg version="1.1" id="Layer_1" xmlns="http://www.w3.org/2000/svg" xmlns:xlink="http://www.w3.org/1999/xlink" x="0px" y="0px"
	 viewBox="0 0 250 250" style="enable-background:new 0 0 250 250;" xml:space="preserve">
<g>
	<path d="M235.7,87.7h-14.2c0-0.1,0-0.1,0-0.2c0-23.6-19.3-42.8-42.9-42.8c-23.6,0-42.8,19.3-42.8,42.8c0,0.1,0,0.1,0,0.2H14.3
		C6.4,87.7,0,93.9,0,101.3v17.5c0,26.5,4.8,52.6,14.1,77.6c2,5.3,7.3,8.8,13.1,8.8h195.4c6,0,11.2-3.6,13.1-8.8
		c9.3-25,14.1-51.1,14.1-77.6v-17.5C250,93.9,243.5,87.7,235.7,87.7z M139.9,87.6c0-21.3,17.4-38.7,38.7-38.7
		c21.4,0,38.8,17.4,38.8,38.7c0,0.1,0,0.1,0,0.2c0,1.5-0.1,3-0.2,4.4c-2.2,19.3-18.7,34.2-38.5,34.2c-19.8,0-36.2-15-38.5-34.2
		c-0.2-1.4-0.2-2.9-0.2-4.4C139.9,87.7,139.9,87.7,139.9,87.6z M52.2,200.9c-6-5.5-8.4-9.7-8-15.1h161.5c-0.2,5.2-1.8,9.6-7.9,15.1
		H52.2z M231.8,194.9c-1.4,3.6-5,6-9.1,6h-18.8c4.6-5.1,6.4-10.3,6.1-17.3c-0.1-1.2-1-2.2-2.2-2.2H42.2c-1.1,0-2,0.8-2.2,1.9
		c-1.1,7.4,1.4,12.7,6,17.5H27.3c-4.1,0-7.7-2.4-9-6c-5.2-13.8-8.9-28-11.2-42.4h235.8C240.7,166.9,236.9,181.1,231.8,194.9z
		 M245.6,118.8c0,9.8-0.7,19.6-2,29.3H6.4c-1.3-9.7-2-19.4-2-29.3v-17.5c0-5,4.5-9.2,9.9-9.2H136c2.2,21.5,20.6,38.4,42.6,38.4
		c22.1,0,40.4-16.9,42.7-38.4h14.5c5.5,0,9.9,4.1,9.9,9.2V118.8z"/>
	<path d="M98,175.1h28.7c4.5,0,8.1-3.6,8.1-8.1c0-4.5-3.6-8.1-8.1-8.1H98c-4.5,0-8.1,3.6-8.1,8.1C89.9,171.4,93.5,175.1,98,175.1z
		 M98,163.2h28.7c2.1,0,3.7,1.7,3.7,3.7s-1.7,3.7-3.7,3.7H98c-2.1,0-3.7-1.7-3.7-3.7S95.9,163.2,98,163.2z"/>
	<path d="M158,87.7c2.2,1.8,4.9,3.1,7.8,3.6c2.2,0.4,4.6,0.4,7.1-0.2l1.1,1.1l18.9,19c0.9,0.9,2.2,1.3,3.3,1.3
		c1.2,0,2.4-0.4,3.2-1.3l6-6c1.8-1.8,1.8-4.7,0-6.5l-6.5-6.5l0,0l-0.8-0.8l-12.7-12.7c0.7-2.2,0.7-4.6,0.2-7.1
		c-1.2-6.4-6-11.7-12-13.3c-3.4-0.9-6.5-0.9-9.4,0c-1.2,0.4-2.1,1.3-2.3,2.6c-0.3,1.1,0,2.2,0.8,3.1l5.7,5.7
		c0.7,0.7,1.1,1.5,1.1,2.3c0,0.8-0.4,1.7-1.1,2.3c-1.3,1.3-3.2,1.3-4.6,0l-5.7-5.7c-0.9-0.9-2.2-1.2-3.4-0.8
		c-1.2,0.4-2.1,1.4-2.2,2.4c-0.8,3.1-0.8,6.3,0,9.3C153.4,82.7,155.4,85.6,158,87.7z M156.2,72.4l4.7,4.6c3,3,7.5,3,10.5,0
		c2.9-2.9,2.9-7.5,0-10.4l-4.8-4.8c1.9-0.3,3.8-0.2,5.9,0.3c4.5,1.2,8.2,5.3,9,10.1c0.5,2.2,0.3,4.3-0.3,6.3l-0.5,1.2l7.9,7.9
		l4.5,4.4l9.4,9.4c0.2,0.2,0.2,0.6,0,0.7l-6,5.9c-0.2,0.2-0.5,0.2-0.7,0l-16.1-16l-5.6-5.6l-1.2,0.3c-2.4,0.7-4.5,0.8-6.5,0.4
		c-4.9-0.8-8.8-4.4-10-9C156,76.3,155.9,74.4,156.2,72.4z"/>
</g>
</svg>
