<?xml version="1.0" encoding="utf-8"?>
<!-- Generator: Adobe Illustrator 24.0.0, SVG Export Plug-In . SVG Version: 6.00 Build 0)  -->
<svg version="1.1" id="Layer_1" xmlns="http://www.w3.org/2000/svg" xmlns:xlink="http://www.w3.org/1999/xlink" x="0px" y="0px"
	 viewBox="0 0 256 256" style="enable-background:new 0 0 256 256;" xml:space="preserve">
<style type="text/css">
	.st0{fill:#8699A3;}
</style>
<g>
	<g>
		<path class="st0" d="M15.53,155.16h48.2c10.18,0,16.6-5.36,16.6-14.46v-19.82H40.7v12.32h26.24v4.82c0,3.21-1.61,4.28-4.28,4.28
			H18.21c-3.21,0-4.28-1.61-4.28-4.28V116.6c0-2.68,1.61-3.75,3.21-3.75h63.2V100h-64.8C5.36,100,0,105.89,0,115
			c0,6.43,0,15.53,0,25.17S5.89,155.16,15.53,155.16z"/>
		<polygon class="st0" points="102.83,113.39 125.32,155.16 138.18,155.16 160.13,113.39 160.13,155.16 174.06,155.16 174.06,100 
			152.64,100 131.75,139.63 110.33,100 88.9,100 88.9,155.16 102.83,155.16 		"/>
		<path class="st0" d="M182.09,115c0,5.89,0,15.53,0,25.17s5.36,15,15.53,15H256v-13.92h-55.7c-3.21,0-4.28-1.61-4.28-4.28v-19.28
			c0-2.68,1.61-3.75,3.21-3.75h56.23V100h-57.84C187.45,100,182.09,105.89,182.09,115z"/>
	</g>
</g>
</svg>
