<?xml version="1.0" encoding="utf-8"?>
<!-- Generator: Adobe Illustrator 24.0.0, SVG Export Plug-In . SVG Version: 6.00 Build 0)  -->
<svg version="1.1" id="Layer_1" xmlns="http://www.w3.org/2000/svg" xmlns:xlink="http://www.w3.org/1999/xlink" x="0px" y="0px"
	 viewBox="0 0 256 256" style="enable-background:new 0 0 256 256;" xml:space="preserve">
<g>
	<g>
		<path d="M15.5,155.2h48.2c10.2,0,16.6-5.4,16.6-14.5v-19.8H40.7v12.3h26.2v4.8c0,3.2-1.6,4.3-4.3,4.3H18.2c-3.2,0-4.3-1.6-4.3-4.3
			v-21.4c0-2.7,1.6-3.8,3.2-3.8h63.2V100H15.5C5.4,100,0,105.9,0,115c0,6.4,0,15.5,0,25.2S5.9,155.2,15.5,155.2z"/>
		<polygon points="102.8,113.4 125.3,155.2 138.2,155.2 160.1,113.4 160.1,155.2 174.1,155.2 174.1,100 152.6,100 131.8,139.6 
			110.3,100 88.9,100 88.9,155.2 102.8,155.2 		"/>
		<path d="M182.1,115c0,5.9,0,15.5,0,25.2s5.4,15,15.5,15H256v-13.9h-55.7c-3.2,0-4.3-1.6-4.3-4.3v-19.3c0-2.7,1.6-3.8,3.2-3.8h56.2
			V100h-57.8C187.4,100,182.1,105.9,182.1,115z"/>
	</g>
</g>
</svg>
