<svg xmlns="http://www.w3.org/2000/svg" viewBox="0 0 256 256"><path d="M15.5 155.2h48.2c10.2 0 16.6-5.4 16.6-14.5v-19.8H40.7v12.3h26.2v4.8c0 3.2-1.6 4.3-4.3 4.3H18.2c-3.2 0-4.3-1.6-4.3-4.3v-21.4c0-2.7 1.6-3.8 3.2-3.8h63.2V100H15.5C5.4 100 0 105.9 0 115c0 6.4 0 15.5 0 25.2s5.9 15 15.5 15zM102.8 113.4l22.5 41.8h12.9l21.9-41.8v41.8h14V100h-21.5l-20.8 39.6-21.5-39.6H88.9v55.2h13.9zM182.1 115c0 5.9 0 15.5 0 25.2s5.4 15 15.5 15H256v-13.9h-55.7c-3.2 0-4.3-1.6-4.3-4.3v-19.3c0-2.7 1.6-3.8 3.2-3.8h56.2V100h-57.8c-10.2 0-15.5 5.9-15.5 15z"/></svg>