<svg xmlns="http://www.w3.org/2000/svg" viewBox="0 0 32.75 18.63"><defs><style>.a{fill:none;stroke:#000;stroke-linecap:round;stroke-linejoin:round;stroke-width:0.75px;}</style></defs><title>343</title><path class="a" d="M30.54,14h-.62V12.37a2,2,0,0,0-2-2,2,2,0,0,0-1,.27l-.15.09V9.55a2.5,2.5,0,0,0-5,0V14H10.19V9.55a2.51,2.51,0,0,0-5,0v1.19l-.13-.09a2,2,0,0,0-1-.27,2,2,0,0,0-2,2V14H1.46A1.46,1.46,0,0,0,0,15.48v1A1.46,1.46,0,0,0,1.46,18h.61v1.65a2,2,0,0,0,2,2,1.86,1.86,0,0,0,1-.28l.13-.07v1.18a2.51,2.51,0,0,0,5,0V18H21.81v4.46a2.5,2.5,0,1,0,5,0V21.26l.15.07a1.83,1.83,0,0,0,1,.28,2,2,0,0,0,2-2V18h.62A1.46,1.46,0,0,0,32,16.52v-1A1.46,1.46,0,0,0,30.54,14Z" transform="translate(0.38 -6.68)"/><line class="a" x1="2.45" y1="7.34" x2="2.45" y2="11.3"/><line class="a" x1="5.56" y1="4.06" x2="5.56" y2="14.57"/><line class="a" x1="30.29" y1="7.34" x2="30.29" y2="11.3"/><line class="a" x1="27.18" y1="4.06" x2="27.18" y2="14.57"/><line class="a" x1="10.57" y1="7.32" x2="10.57" y2="11.3"/><line class="a" x1="22.18" y1="7.32" x2="22.18" y2="11.3"/></svg>