<svg xmlns="http://www.w3.org/2000/svg" viewBox="0 0 250 250"><path d="M226.6 228.9h-10.2l-6.3-48.3c5.6-.7 10-5.3 10-10.7v-37.2c0-5.9-5-10.6-11.2-10.6h-44.4c-2.8-12.1-9.8-20.9-21.2-26.4-5.4-2.6-11.5-4.4-19.2-5.7 11-9.4 17.8-23.3 17.8-38.7C141.7 23 118.7 0 90.5 0 62.1 0 39.2 23 39.2 51.3c0 15.4 6.9 29.3 17.8 38.7-19.9 3.3-40.1 12.3-41.8 42.1-.1.3-.1.7-.1.9v108.6c0 1.6 1.2 2.9 2.8 2.9l41-.2c0 .1 0 .2 0 .2 1.1 3.2 4.1 5.4 7.7 5.4h159.8c4.6 0 8.3-3.7 8.3-8.3v-4.5c.2-4.5-3.5-8.2-8.1-8.2zm-16 0h-49.2l6.3-48.3h36.6l6.3 48.3zm-45.2-101.2h43.4c3.1 0 5.5 2.2 5.5 5v37.2c0 2.8-2.4 4.9-5.5 4.9h-1.6c-.2 0-.3-.1-.6-.1v.1h-82.9s0 0-.1 0c-.7 0-1.4.3-2 .8-.5.6-.8 1.2-.8 2.1v5.3c0 1.7-.8 3.2-2.1 4.2-1.1.8-2.5 1.3-4 1.3H85.1c-3.5 0-6.2-2.4-6.2-5.5v-50.3c0-2.7 2.6-5 5.7-5h80.8zM107 194.2v10.9c0 .7-.5 1.2-1.5 1.2h-11c-1.1 0-1.5-.7-1.5-1.2v-10.9h14zM44.9 51.3c0-25.1 20.4-45.6 45.6-45.6A45.5 45.5 0 01136 51.3c0 15.9-8.2 30-20.6 38.2-.2.1-.4.2-.6.2-7 4.5-15.4 7.2-24.4 7.2-9 0-17.3-2.6-24.4-7.2-.2-.1-.3-.2-.6-.3a45.8 45.8 0 01-20.5-38.1zM20.7 136c0-25.2 12.9-37.5 42.9-41.2 4.7 2.9 9.8 5 15.3 6.3l5.5 1.1a60.26 60.26 0 0011.9 0l5.7-1.1c5.5-1.3 10.6-3.5 15.3-6.3 9.8 1.2 17.2 3.1 23.2 6 9.5 4.6 15.3 11.5 18 21.3h-74c-6.3 0-11.4 4.8-11.4 10.6V183c0 6.2 5.4 11.2 11.9 11.2h2.1v10.9c0 3.8 3.2 6.9 7.3 6.9h.4l2.4 8.1c.4 1.6 2 2.4 3.5 2 1-.2 1.7-1 2-2l2.4-8.1h.4c4 0 7.2-3.1 7.2-6.9v-10.9h2.1c1.4 0 2.8-.2 4-.7 4.5-1.5 7.8-5.6 7.8-10.5v-2.4H162l-6.3 48.3h-89c-4.6 0-8.3 3.7-8.3 8.3v1.6H20.7V136zm208.4 105.7c0 1.6-1.1 2.6-2.6 2.6H66.7c-1.5 0-2.6-1.1-2.6-2.6v-4.5c0-1.6 1.2-2.6 2.6-2.6h90c.8.4 1.8.4 2.6 0l54.1-.1c.3.1.6.1.8.1h12.3c1.5 0 2.6 1.1 2.6 2.6v4.5z"/><path d="M188 165c8.8 0 16-6.7 16-14.8 0-8.2-7.2-14.9-16-14.9s-16 6.7-16 14.9c0 8.1 7.2 14.8 16 14.8zm0-24.2c5.6 0 10.1 4.2 10.1 9.4 0 5.1-4.5 9.3-10.1 9.3-5.7 0-10.1-4.1-10.1-9.3 0-5.2 4.6-9.4 10.1-9.4z"/></svg>