<svg xmlns="http://www.w3.org/2000/svg" viewBox="0 0 31.75 32.75"><defs><style>.a{fill:none;stroke:#000;stroke-linecap:round;stroke-linejoin:round;stroke-width:0.75px;}</style></defs><title>345</title><path class="a" d="M3.51,5.68a5.68,5.68,0,1,1,8.78,4.75l-.07,0a5.62,5.62,0,0,1-6.07,0l-.08,0A5.68,5.68,0,0,1,3.51,5.68Z" transform="translate(-0.13 0.38)"/><path class="a" d="M7.26,30.59H.5V15.5c0-3.14,1.6-4.67,5.35-5.13a6.87,6.87,0,0,0,1.91.79l.68.13a6.28,6.28,0,0,0,.75,0,6,6,0,0,0,.74,0l.71-.13a7,7,0,0,0,1.91-.79,9.37,9.37,0,0,1,2.88.74,4,4,0,0,1,2.24,2.65,5.08,5.08,0,0,1,.19,1.07" transform="translate(-0.13 0.38)"/><path class="a" d="M11,22.5h1.26a.15.15,0,0,0,.15-.14h0v-.83h.92a.13.13,0,0,0,.13-.08l.93-1.86h7.53l-2.29,9.69H8.34a1.39,1.39,0,0,0,0,2.72h22a1.39,1.39,0,0,0,0-2.72H30V22.66h.82a.15.15,0,0,0,.15-.15v-5.2a.15.15,0,0,0-.15-.15H30V15.07a.15.15,0,0,0-.15-.14H25.09V13.52a.15.15,0,0,0-.15-.15H22.83a.15.15,0,0,0-.15.15v1.41H8.44a.14.14,0,0,0-.15.14v6.32a.14.14,0,0,0,.15.14h.82v.83a.15.15,0,0,0,.15.14H11Zm15.1-2.32a1.18,1.18,0,0,1,1.18,1.21h0a1.18,1.18,0,1,1-2.36,0h0A1.19,1.19,0,0,1,26.06,20.18Z" transform="translate(-0.13 0.38)"/><line class="a" x1="10.65" y1="23.03" x2="10.65" y2="24.1"/><line class="a" x1="24.79" y1="18.73" x2="27.01" y2="18.73"/></svg>