<?xml version="1.0" encoding="utf-8"?>
<!-- Generator: Adobe Illustrator 24.0.0, SVG Export Plug-In . SVG Version: 6.00 Build 0)  -->
<svg version="1.1" id="Layer_1" xmlns="http://www.w3.org/2000/svg" xmlns:xlink="http://www.w3.org/1999/xlink" x="0px" y="0px"
	 viewBox="0 0 250 250" style="enable-background:new 0 0 250 250;" xml:space="preserve">
<g>
	<path d="M226.6,228.9h-10.2l-6.3-48.3c5.6-0.7,10-5.3,10-10.7v-37.2c0-5.9-5-10.6-11.2-10.6h-44.4c-2.8-12.1-9.8-20.9-21.2-26.4
		c-5.4-2.6-11.5-4.4-19.2-5.7c11-9.4,17.8-23.3,17.8-38.7C141.7,23,118.7,0,90.5,0C62.1,0,39.2,23,39.2,51.3
		c0,15.4,6.9,29.3,17.8,38.7c-19.9,3.3-40.1,12.3-41.8,42.1c-0.1,0.3-0.1,0.7-0.1,0.9v108.6c0,1.6,1.2,2.9,2.8,2.9l41-0.2
		c0,0.1,0,0.2,0,0.2c1.1,3.2,4.1,5.4,7.7,5.4h159.8c4.6,0,8.3-3.7,8.3-8.3v-4.5C234.9,232.6,231.2,228.9,226.6,228.9z M210.6,228.9
		h-49.2l6.3-48.3h36.6L210.6,228.9z M165.4,127.7h43.4c3.1,0,5.5,2.2,5.5,5v37.2c0,2.8-2.4,4.9-5.5,4.9h-1.6c-0.2,0-0.3-0.1-0.6-0.1
		v0.1h-82.9c0,0,0,0-0.1,0c-0.7,0-1.4,0.3-2,0.8c-0.5,0.6-0.8,1.2-0.8,2.1v5.3c0,1.7-0.8,3.2-2.1,4.2c-1.1,0.8-2.5,1.3-4,1.3H85.1
		c-3.5,0-6.2-2.4-6.2-5.5v-50.3c0-2.7,2.6-5,5.7-5h75.1H165.4z M107,194.2v10.9c0,0.7-0.5,1.2-1.5,1.2h-11c-1.1,0-1.5-0.7-1.5-1.2
		v-10.9H107z M44.9,51.3c0-25.1,20.4-45.6,45.6-45.6C115.6,5.7,136,26,136,51.3c0,15.9-8.2,30-20.6,38.2c-0.2,0.1-0.4,0.2-0.6,0.2
		c-7,4.5-15.4,7.2-24.4,7.2c-9,0-17.3-2.6-24.4-7.2c-0.2-0.1-0.3-0.2-0.6-0.3C53.1,81.2,44.9,67.2,44.9,51.3z M20.7,136
		c0-25.2,12.9-37.5,42.9-41.2c4.7,2.9,9.8,5,15.3,6.3l5.5,1.1c2,0.2,4,0.3,6,0.3c2,0,4-0.1,5.9-0.3l5.7-1.1
		c5.5-1.3,10.6-3.5,15.3-6.3c9.8,1.2,17.2,3.1,23.2,6c9.5,4.6,15.3,11.5,18,21.3h-74c-6.3,0-11.4,4.8-11.4,10.6V183
		c0,6.2,5.4,11.2,11.9,11.2h2.1v10.9c0,3.8,3.2,6.9,7.3,6.9h0.4l2.4,8.1c0.4,1.6,2,2.4,3.5,2c1-0.2,1.7-1,2-2l2.4-8.1h0.4
		c4,0,7.2-3.1,7.2-6.9v-10.9h2.1c1.4,0,2.8-0.2,4-0.7c4.5-1.5,7.8-5.6,7.8-10.5v-2.4h35.4l-6.3,48.3H66.7c-4.6,0-8.3,3.7-8.3,8.3
		v1.6H20.7V136z M229.1,241.7c0,1.6-1.1,2.6-2.6,2.6H66.7c-1.5,0-2.6-1.1-2.6-2.6v-4.5c0-1.6,1.2-2.6,2.6-2.6h90
		c0.8,0.4,1.8,0.4,2.6,0l54.1-0.1c0.3,0.1,0.6,0.1,0.8,0.1h12.3c1.5,0,2.6,1.1,2.6,2.6V241.7z"/>
	<path d="M188,165c8.8,0,16-6.7,16-14.8c0-8.2-7.2-14.9-16-14.9s-16,6.7-16,14.9C172,158.3,179.2,165,188,165z M188,140.8
		c5.6,0,10.1,4.2,10.1,9.4c0,5.1-4.5,9.3-10.1,9.3c-5.7,0-10.1-4.1-10.1-9.3C177.9,145,182.5,140.8,188,140.8z"/>
</g>
</svg>
