<?xml version="1.0" encoding="utf-8"?>
<!-- Generator: Adobe Illustrator 24.0.0, SVG Export Plug-In . SVG Version: 6.00 Build 0)  -->
<svg version="1.1" id="Layer_1" xmlns="http://www.w3.org/2000/svg" xmlns:xlink="http://www.w3.org/1999/xlink" x="0px" y="0px"
	 viewBox="0 0 256 256" style="enable-background:new 0 0 256 256;" xml:space="preserve">
<style type="text/css">
	.st0{fill:#8699A3;}
</style>
<path class="st0" d="M241.3,246.23h-13.28V35.74c0-2.12-1.37-4.01-3.4-4.65L128.16,0.23c-0.47-0.14-0.93-0.22-1.42-0.22
	c-0.96-0.06-1.88,0.09-2.69,0.55L70.6,19.79c-1.9,0.69-3.19,2.48-3.23,4.5l-1.13,59.06l-40.23,8.39c-2.27,0.47-3.89,2.47-3.89,4.78
	v149.71h-8.24c-2.7,0-4.88,2.18-4.88,4.88c0,2.7,2.18,4.88,4.88,4.88H241.3c2.7,0,4.88-2.18,4.88-4.88
	C246.19,248.41,244,246.23,241.3,246.23z M218.25,246.23h-19.93v-59.82c0-2.07-1.3-3.91-3.24-4.6l-26.03-9.29
	c-1.48-0.52-3.15-0.3-4.46,0.61c-1.3,0.92-2.07,2.4-2.07,3.99v68.74c0,0.13,0.06,0.24,0.07,0.37h-30.94V11.6l86.59,27.71V246.23z
	 M188.55,246.23h-16.33c0.01-0.13,0.07-0.24,0.07-0.37v-61.81l16.26,5.8V246.23z M31.89,100.49l40.15-8.37
	c2.23-0.46,3.85-2.41,3.89-4.68l1.14-59.59l44.81-16.12v234.5H99.31v-56.86c0-1.41-0.61-2.76-1.68-3.68
	c-1.06-0.94-2.46-1.35-3.88-1.15l-33.89,4.71c-2.41,0.33-4.21,2.4-4.21,4.84v51.79c0,0.13,0.06,0.24,0.07,0.37H31.89V100.49z
	 M89.54,246.23h-24.2c0.01-0.13,0.07-0.24,0.07-0.37v-47.53l24.12-3.35V246.23z"/>
</svg>
