<svg xmlns="http://www.w3.org/2000/svg" viewBox="0 0 256 256">
<path d="M241.3,246.2H228V35.7c0-2.1-1.4-4-3.4-4.6L128.2,0.2c-0.5-0.1-0.9-0.2-1.4-0.2c-1-0.1-1.9,0.1-2.7,0.6L70.6,19.8
	c-1.9,0.7-3.2,2.5-3.2,4.5l-1.1,59.1L26,91.7c-2.3,0.5-3.9,2.5-3.9,4.8v149.7h-8.2c-2.7,0-4.9,2.2-4.9,4.9c0,2.7,2.2,4.9,4.9,4.9
	h227.4c2.7,0,4.9-2.2,4.9-4.9C246.2,248.4,244,246.2,241.3,246.2z M218.2,246.2h-19.9v-59.8c0-2.1-1.3-3.9-3.2-4.6l-26-9.3
	c-1.5-0.5-3.1-0.3-4.5,0.6c-1.3,0.9-2.1,2.4-2.1,4v68.7c0,0.1,0.1,0.2,0.1,0.4h-30.9V11.6l86.6,27.7L218.2,246.2L218.2,246.2z
	 M188.6,246.2h-16.3c0-0.1,0.1-0.2,0.1-0.4v-61.8l16.3,5.8V246.2z M31.9,100.5L72,92.1c2.2-0.5,3.8-2.4,3.9-4.7l1.1-59.6l44.8-16.1
	v234.5H99.3v-56.9c0-1.4-0.6-2.8-1.7-3.7c-1.1-0.9-2.5-1.4-3.9-1.1l-33.9,4.7c-2.4,0.3-4.2,2.4-4.2,4.8v51.8c0,0.1,0.1,0.2,0.1,0.4
	H31.9V100.5z M89.5,246.2H65.3c0-0.1,0.1-0.2,0.1-0.4v-47.5l24.1-3.4L89.5,246.2L89.5,246.2z"/>
</svg>