<?xml version="1.0" encoding="utf-8"?>
<!-- Generator: Adobe Illustrator 24.0.0, SVG Export Plug-In . SVG Version: 6.00 Build 0)  -->
<svg version="1.1" id="Layer_1" xmlns="http://www.w3.org/2000/svg" xmlns:xlink="http://www.w3.org/1999/xlink" x="0px" y="0px"
	 viewBox="0 0 256 256" style="enable-background:new 0 0 256 256;" xml:space="preserve">
<style type="text/css">
	.st0{fill:#8699A3;}
</style>
<g>
	<g>
		<path class="st0" d="M256,128.22C256,91.76,198.45,62,128,62C57.48,62,0,91.76,0,128.22c0,36.53,57.48,66.29,128,66.29
			C198.45,194.44,256,164.68,256,128.22z M243.45,129.28c0,19.18-33.29,45.28-76.09,53.6c9.8-9.87,32.09-47.25,49.58-90.48
			C232.37,100.65,243.45,110.1,243.45,129.28z M99.65,104.95c1.13-8.04,9.1-20.66,23.27-34.98c1.69,0,3.39-0.07,5.08-0.07
			c27.72,0,53.1,5.29,72.78,13.89C151.98,121.45,96.05,132.38,99.65,104.95z M11.42,127.73c0-19.11,28.77-44.43,77.86-54.3
			c-15.87,16.36-38.29,59.24-51.76,89.49C23.55,153.26,11.42,146.7,11.42,127.73z M130.47,186.33c-3.24,0.28,0.07,0.14-2.47,0.14
			c-28.14,0-53.88-5.29-73.7-14.25C123.49,120.82,194.08,125.47,130.47,186.33z"/>
	</g>
</g>
</svg>
