<?xml version="1.0" encoding="utf-8"?>
<!-- Generator: Adobe Illustrator 24.0.0, SVG Export Plug-In . SVG Version: 6.00 Build 0)  -->
<svg version="1.1" id="Layer_1" xmlns="http://www.w3.org/2000/svg" xmlns:xlink="http://www.w3.org/1999/xlink" x="0px" y="0px"
	 viewBox="0 0 36.3 18.78" style="enable-background:new 0 0 36.3 18.78;" xml:space="preserve">
<style type="text/css">
	.st0{fill:#8699A3;}
</style>
<g>
	<g>
		<path class="st0" d="M36.3,9.39C36.3,4.22,28.14,0,18.15,0C8.15,0,0,4.22,0,9.39c0,5.18,8.15,9.4,18.15,9.4
			C28.14,18.78,36.3,14.56,36.3,9.39z M34.52,9.54c0,2.72-4.72,6.42-10.79,7.6c1.39-1.4,4.55-6.7,7.03-12.83
			C32.95,5.48,34.52,6.82,34.52,9.54z M14.13,6.09c0.16-1.14,1.29-2.93,3.3-4.96c0.24,0,0.48-0.01,0.72-0.01
			c3.93,0,7.53,0.75,10.32,1.97C21.55,8.43,13.62,9.98,14.13,6.09z M1.62,9.32c0-2.71,4.08-6.3,11.04-7.7
			c-2.25,2.32-5.43,8.4-7.34,12.69C3.34,12.94,1.62,12.01,1.62,9.32z M18.5,17.63c-0.46,0.04,0.01,0.02-0.35,0.02
			c-3.99,0-7.64-0.75-10.45-2.02C17.51,8.34,27.52,9,18.5,17.63z"/>
	</g>
</g>
</svg>
