<?xml version="1.0" encoding="utf-8"?>
<!-- Generator: Adobe Illustrator 24.0.0, SVG Export Plug-In . SVG Version: 6.00 Build 0)  -->
<svg version="1.1" id="Layer_1" xmlns="http://www.w3.org/2000/svg" xmlns:xlink="http://www.w3.org/1999/xlink" x="0px" y="0px"
	 viewBox="0 0 256 256" style="enable-background:new 0 0 256 256;" xml:space="preserve">
<style type="text/css">
	.st0{fill:#8699A3;}
</style>
<g>
	<path class="st0" d="M23,201.56v37.43c0,9.41,7.61,17.01,17.01,17.01h178.14c9.41,0,17.01-7.61,17.01-17.01v-37.43
		c0-37.03-26.82-68.85-60.45-82.66c-1.8,2.2-3.6,4.4-5.6,6.41c11.21,4.2,21.82,10.41,31.02,18.61
		c17.61,15.81,27.22,36.23,27.22,57.44v37.43c0,5-4,9.01-9.01,9.01H40.21c-5,0-9.01-4-9.01-9.01v-37.43
		c0-21.22,9.61-41.63,27.22-57.44c9.21-8.21,19.82-14.61,31.02-18.61c-2-2-4-4.2-5.6-6.41C49.82,132.7,23,164.53,23,201.56z"/>
	<path class="st0" d="M113.87,139.51l-8.81,65.45c-0.2,1.4,0.4,3,1.6,3.8l20.82,14.61c0.6,0.4,1.4,0.8,2.2,0.8
		c0.8,0,1.6-0.2,2.2-0.8l19.22-13.41c1.2-0.8,1.8-2.2,1.6-3.8l-7.61-66.05l-7.61,0.8c-0.2,0-0.2,0-0.4,0l7.41,63.65l-15.01,10.41
		l-16.61-11.61l8.41-62.45C119.08,140.91,116.47,140.31,113.87,139.51z"/>
	<path class="st0" d="M192.73,65.85l-0.6-1.6c-1-2.2-3.6-5.8-3.8-8.21c-1.2-11.41-8.81-42.23-38.03-49.64c-2.2-0.6-5.6-2-7.81-3
		c-3-1.6-8.01-3.4-13.81-3.4c-3.6,0-7.81,0.8-12.01,2.6c-2.2,1-5.6,2.4-7.81,3c-9.81,3.2-36.03,14.81-37.83,50.44
		c-0.2,2.4-3,5.8-4.2,8.01l-1.2,2.2c-1.2,2-0.6,5,1,6.61l13.81,10.41c0,0.4,0,1,0,1.4c0,26.82,21.82,48.64,48.64,48.64
		c26.82,0,48.64-21.82,48.64-48.64c0-0.6,0-1,0-1.6l13.61-10.21C192.93,71.06,193.53,68.05,192.73,65.85z M129.08,125.1
		c-20.82,0-38.03-15.61-40.43-35.83c1.8,1.4,4.8,2.6,6.81,2.6h66.85c2.2,0,5.4-1.2,7.21-2.8C167.11,109.49,149.9,125.1,129.08,125.1
		z M164.91,82.66l-0.2,0.2l-0.4,0.2c-0.4,0.4-1.4,0.8-2,0.8H95.66c-0.4,0-1.6-0.4-2-0.8l-0.4-0.2l-0.2-0.2L73.84,68.05v-0.2
		c0.2-0.4,0.6-1,1-1.4c1.8-2.8,4-6.2,4.2-10.01c1.4-28.82,20.82-39.43,32.23-43.43c0.6-0.2,1.2-0.4,1.8-0.6v15.41c0,2.2,1.8,4,4,4
		c2.2,0,4-1.8,4-4V9.81c0-0.2,0-0.4,0-0.6c2.4-0.8,5-1.4,7.61-1.4c3.4,0,6.2,0.8,8.41,1.8v0.2v18.01c0,2.2,1.8,4,4,4
		c2.2,0,4-1.8,4-4V13.01c1.2,0.4,2.2,0.8,3.2,1c28.42,7.41,31.82,41.23,31.82,42.63c0.2,3.2,2,6.2,3.4,8.61c0.4,0.6,0.8,1.6,1,1.8
		l0.2,0.2L164.91,82.66z"/>
	<path class="st0" d="M149.1,63.85h-40.03c-2.2,0-4,1.8-4,4c0,2.2,1.8,4,4,4h40.03c2.2,0,4-1.8,4-4
		C153.1,65.65,151.3,63.85,149.1,63.85z"/>
</g>
</svg>
