<?xml version="1.0" encoding="utf-8"?>
<!-- Generator: Adobe Illustrator 24.0.0, SVG Export Plug-In . SVG Version: 6.00 Build 0)  -->
<svg version="1.1" id="Layer_1" xmlns="http://www.w3.org/2000/svg" xmlns:xlink="http://www.w3.org/1999/xlink" x="0px" y="0px"
	 viewBox="0 0 256 256" style="enable-background:new 0 0 256 256;" xml:space="preserve">
<g>
	<path d="M23,201.6V239c0,9.4,7.6,17,17,17h178.1c9.4,0,17-7.6,17-17v-37.4c0-37-26.8-68.9-60.4-82.7c-1.8,2.2-3.6,4.4-5.6,6.4
		c11.2,4.2,21.8,10.4,31,18.6c17.6,15.8,27.2,36.2,27.2,57.4v37.4c0,5-4,9-9,9H40.2c-5,0-9-4-9-9v-37.4c0-21.2,9.6-41.6,27.2-57.4
		c9.2-8.2,19.8-14.6,31-18.6c-2-2-4-4.2-5.6-6.4C49.8,132.7,23,164.5,23,201.6z"/>
	<path d="M113.9,139.5l-8.8,65.4c-0.2,1.4,0.4,3,1.6,3.8l20.8,14.6c0.6,0.4,1.4,0.8,2.2,0.8s1.6-0.2,2.2-0.8l19.2-13.4
		c1.2-0.8,1.8-2.2,1.6-3.8l-7.6-66.1l-7.6,0.8c-0.2,0-0.2,0-0.4,0l7.4,63.7l-15,10.4l-16.6-11.6l8.4-62.4
		C119.1,140.9,116.5,140.3,113.9,139.5z"/>
	<path d="M192.7,65.8l-0.6-1.6c-1-2.2-3.6-5.8-3.8-8.2c-1.2-11.4-8.8-42.2-38-49.6c-2.2-0.6-5.6-2-7.8-3c-3-1.6-8-3.4-13.8-3.4
		c-3.6,0-7.8,0.8-12,2.6c-2.2,1-5.6,2.4-7.8,3C99,8.8,72.8,20.4,71,56c-0.2,2.4-3,5.8-4.2,8l-1.2,2.2c-1.2,2-0.6,5,1,6.6l13.8,10.4
		c0,0.4,0,1,0,1.4c0,26.8,21.8,48.6,48.6,48.6s48.6-21.8,48.6-48.6c0-0.6,0-1,0-1.6l13.6-10.2C192.9,71.1,193.5,68.1,192.7,65.8z
		 M129.1,125.1c-20.8,0-38-15.6-40.4-35.8c1.8,1.4,4.8,2.6,6.8,2.6h66.8c2.2,0,5.4-1.2,7.2-2.8C167.1,109.5,149.9,125.1,129.1,125.1
		z M164.9,82.7l-0.2,0.2l-0.4,0.2c-0.4,0.4-1.4,0.8-2,0.8H95.7c-0.4,0-1.6-0.4-2-0.8l-0.4-0.2l-0.2-0.2L73.8,68.1v-0.2
		c0.2-0.4,0.6-1,1-1.4c1.8-2.8,4-6.2,4.2-10C80.4,27.6,99.9,17,111.3,13c0.6-0.2,1.2-0.4,1.8-0.6v15.4c0,2.2,1.8,4,4,4s4-1.8,4-4
		v-18c0-0.2,0-0.4,0-0.6c2.4-0.8,5-1.4,7.6-1.4c3.4,0,6.2,0.8,8.4,1.8v0.2v18c0,2.2,1.8,4,4,4s4-1.8,4-4V13c1.2,0.4,2.2,0.8,3.2,1
		c28.4,7.4,31.8,41.2,31.8,42.6c0.2,3.2,2,6.2,3.4,8.6c0.4,0.6,0.8,1.6,1,1.8l0.2,0.2L164.9,82.7z"/>
	<path d="M149.1,63.8h-40c-2.2,0-4,1.8-4,4s1.8,4,4,4h40c2.2,0,4-1.8,4-4S151.3,63.8,149.1,63.8z"/>
</g>
</svg>
