<svg xmlns="http://www.w3.org/2000/svg" viewBox="0 0 25.94 32.75"><defs><style>.a{fill:none;stroke:#000;stroke-linecap:round;stroke-linejoin:round;stroke-width:0.75px;}</style></defs><title>36</title><path class="a" d="M21.48,14.66c4.25,1.79,7.11,5.7,7.11,9.78v5.61A1.94,1.94,0,0,1,26.65,32H5.35a1.94,1.94,0,0,1-1.94-1.95V24.44c0-4.09,2.87-8,7.16-9.78" transform="translate(-3.03 0.37)"/><path class="a" d="M10.27,10.25v.22a5.73,5.73,0,0,0,11.46,0v-.24Z" transform="translate(-3.03 0.37)"/><path class="a" d="M18.62.52C22.6,1.81,23,6.37,23,6.42a2.56,2.56,0,0,0,.43,1.1h0l.07.16a.3.3,0,0,1,0,.08l.11.1L20.84,10.1a.64.64,0,0,1-.33.13H11.45a.87.87,0,0,1-.33-.13L11,10,8.38,8l0-.13a.69.69,0,0,1,.15-.21,2.78,2.78,0,0,0,.54-1.29A6.37,6.37,0,0,1,13.45.29,8.58,8.58,0,0,1,18.62.52Z" transform="translate(-3.03 0.37)"/><path class="a" d="M14.79.31V3.8" transform="translate(-3.03 0.37)"/><path class="a" d="M17.3.31V3.8" transform="translate(-3.03 0.37)"/><path class="a" d="M17.84,17.78l.89,9.49a.35.35,0,0,1-.15.37l-2.31,1.61a.24.24,0,0,1-.2.07.39.39,0,0,1-.21-.08L13.37,27.5a.41.41,0,0,1-.15-.37l1-9.41" transform="translate(-3.03 0.37)"/></svg>