<?xml version="1.0" encoding="utf-8"?>
<!-- Generator: Adobe Illustrator 24.0.0, SVG Export Plug-In . SVG Version: 6.00 Build 0)  -->
<svg version="1.1" id="Layer_1" xmlns="http://www.w3.org/2000/svg" xmlns:xlink="http://www.w3.org/1999/xlink" x="0px" y="0px"
	 viewBox="0 0 250 250" style="enable-background:new 0 0 250 250;" xml:space="preserve">
<g>
	<g>
		<path d="M224.7,190.2v44.4c0,8.5-6.9,15.5-15.4,15.5H40.6c-8.4,0-15.4-6.9-15.4-15.5v-44.4c0-32.4,22.7-63.4,56.7-77.5
			c1.1,1.5,2.5,3.2,4.2,4.9c-10.2,3.8-20,9.8-28.6,17.3c-16.8,15.1-26,34.6-26,55v44.4c0,5.1,4.1,9.3,9.2,9.3h168.8
			c5.1,0,9.3-4.1,9.3-9.3V190c0-20.4-9.3-39.9-26.1-55c-8.3-7.4-17.9-13.2-28.6-17.3c1.5-1.6,2.9-3.2,4.2-4.9
			C202.1,126.8,224.7,157.8,224.7,190.2z"/>
	</g>
	<g>
		<path d="M146.7,212.5c0.2,1.3-0.3,2.3-1.3,3l-18.2,12.8c-0.4,0.4-0.9,0.5-1.6,0.5c-0.5,0-1.3-0.4-1.6-0.6l-19.8-13.8
			c-0.8-0.5-1.3-1.8-1.2-2.9l8.2-79.2c2.2,0.6,4,1,5.7,1.1l-7.9,76.4v0.4l16.4,11.6l15-10.4l-7-77.9l6.2-0.6L146.7,212.5z"/>
	</g>
	<g>
		<path d="M184.6,61.8l-0.5-1.4c-0.3-0.6-0.7-1.4-1.2-2.2c-1.1-1.9-2.3-4-2.5-5.8c-0.4-4-4.9-38.6-35.4-46.4
			c-2.2-0.6-5.4-1.9-7.5-2.9c-1.8-1-6.6-3.1-12.8-3.1c-3.6,0-7.5,0.8-11.1,2.3c-2.1,1-5.3,2.3-7.5,2.9C96,8.5,72.4,19.7,70.7,52.4
			c-0.1,1.8-1.5,4-2.8,5.8c-0.4,0.7-0.9,1.4-1.3,2l-1.2,2.2c-0.9,1.5-0.4,4,0.9,5.4l13.2,10v1.7c0,25,20.4,45.3,45.4,45.3
			c25,0,45.4-20.3,45.4-45.3v-1.9l13.1-9.9C184.8,66.2,185.3,63.7,184.6,61.8z M164,83.7c-2.3,19.9-19.1,34.8-39,34.8
			c-19.9,0-36.7-14.8-39-34.6l-0.2-1.7l1.3,1.1c1.6,1.3,4.3,2.3,6,2.3h63.3c2,0,4.9-1.1,6.4-2.5l1.4-1.3L164,83.7z M158.8,78.5
			c-0.5,0.4-1.6,0.9-2.3,0.9H93.4c-0.5,0-1.7-0.4-2.3-0.9L90.4,78L72,64.1l0.1-0.9c0.2-0.4,0.6-1.1,1.1-1.5c1.5-2.4,3.6-5.6,3.8-9
			c1.3-26,17.5-37,31-41.8l2.6-0.9v15.6c0,1.7,1.4,3.1,3.1,3.1c1.7,0,3.1-1.3,3.1-3.1V7.5l0.4-0.2c2.8-0.9,5.2-1.3,7.5-1.3
			c2.9,0,5.7,0.6,8.3,1.8l0.4,0.2v17.7c0,1.7,1.4,3.1,3.1,3.1c1.6,0,3.1-1.3,3.1-3.1v-15l1.7,0.5c0.8,0.3,1.5,0.5,2.2,0.6
			c27.9,7.3,30.7,40.8,30.7,41.2c0.2,2.7,1.7,5.4,3.1,7.6l0.1,0.1c0.2,0.3,0.4,0.7,0.5,1.1c0.1,0.2,0.2,0.4,0.3,0.5l0.7,0.7
			L158.8,78.5z"/>
	</g>
	<g>
		<path d="M147,63.5c0,1.7-1.3,3.1-3.1,3.1H106c-1.7,0-3.1-1.3-3.1-3.1s1.3-3.1,3.1-3.1H144C145.7,60.5,147,61.8,147,63.5z"/>
	</g>
</g>
</svg>
