<svg xmlns="http://www.w3.org/2000/svg" viewBox="0 0 32.75 32.11"><defs><style>.a{fill:none;stroke:#000;stroke-linecap:round;stroke-linejoin:round;stroke-width:0.75px;}</style></defs><title>363</title><path class="a" d="M32,31.68m-28.75,0,17.47-.74,0-17.66h8.84V30.94m-9-23.15h4.91v5.08M9.31,30.94V.32L20,2.72V30.94m-3.26,0v-4a.37.37,0,0,0-.37-.38H12.8a.37.37,0,0,0-.37.38v4" transform="translate(0.38 0.05)"/><line class="a" x1="12.07" y1="6.04" x2="12.4" y2="6.04"/><line class="a" x1="12.07" y1="9.98" x2="12.4" y2="9.98"/><line class="a" x1="12.07" y1="13.92" x2="12.4" y2="13.92"/><line class="a" x1="12.07" y1="17.86" x2="12.4" y2="17.86"/><line class="a" x1="12.07" y1="21.8" x2="12.4" y2="21.8"/><line class="a" x1="14.71" y1="6.04" x2="15.03" y2="6.04"/><line class="a" x1="14.71" y1="9.98" x2="15.03" y2="9.98"/><line class="a" x1="14.71" y1="13.92" x2="15.03" y2="13.92"/><line class="a" x1="14.71" y1="17.86" x2="15.03" y2="17.86"/><line class="a" x1="14.71" y1="21.8" x2="15.03" y2="21.8"/><line class="a" x1="17.34" y1="6.04" x2="17.67" y2="6.04"/><line class="a" x1="17.34" y1="9.98" x2="17.67" y2="9.98"/><line class="a" x1="17.34" y1="13.92" x2="17.67" y2="13.92"/><line class="a" x1="17.34" y1="17.86" x2="17.67" y2="17.86"/><line class="a" x1="17.34" y1="21.8" x2="17.67" y2="21.8"/><path class="a" d="M26.44,30.94v-4a.38.38,0,0,0-.38-.38H23.48a.38.38,0,0,0-.37.38v4" transform="translate(0.38 0.05)"/><line class="a" x1="0.38" y1="31.73" x2="32.38" y2="31.73"/><line class="a" x1="23.8" y1="16.53" x2="24.13" y2="16.53"/><line class="a" x1="23.8" y1="19.32" x2="24.13" y2="19.32"/><line class="a" x1="23.8" y1="22.08" x2="24.13" y2="22.08"/><line class="a" x1="26.44" y1="16.53" x2="26.76" y2="16.53"/><line class="a" x1="26.44" y1="19.32" x2="26.76" y2="19.32"/><line class="a" x1="26.44" y1="22.08" x2="26.76" y2="22.08"/><polyline class="a" points="9.69 0.38 5.52 5.09 5.52 31.47"/></svg>