<?xml version="1.0" encoding="utf-8"?>
<!-- Generator: Adobe Illustrator 24.0.0, SVG Export Plug-In . SVG Version: 6.00 Build 0)  -->
<svg version="1.1" id="Layer_1" xmlns="http://www.w3.org/2000/svg" xmlns:xlink="http://www.w3.org/1999/xlink" x="0px" y="0px"
	 viewBox="0 0 256 256" style="enable-background:new 0 0 256 256;" xml:space="preserve">
<g>
	<g>
		<path d="M232.8,90c-1.4-0.7-2.9-0.4-4,0.4l-12.9,10.5l-3.1-49.2l-1.2-24.4c-0.1-2-1.8-3.7-3.7-3.7h-17.7c-2,0-3.7,1.6-3.8,3.7
			l-5.7,102.5l-25.5,24.1V93.4c0-2.1-1.7-3.8-3.8-3.8c-0.9,0-1.7,0.3-2.4,0.8l-67.4,62.5V93.3c0-1.4-0.8-2.8-2.2-3.4
			c-1.3-0.7-2.9-0.5-4,0.4l-61.9,70.2c-0.9,0.8-1.4,1.8-1.4,3v88.7c0,2,1.7,3.8,3.8,3.8h215.2c2,0,3.7-1.7,3.7-3.8V93.3
			C234.8,92,234.1,90.6,232.8,90z M193.9,31.2h10.2l0.8,16.7h-11.7L193.9,31.2z M192.7,55.5h12.6l3.2,51.5l-20,16.3L192.7,55.5z
			 M149.5,248.4H95.8v-32.7h53.7V248.4z M227.2,248.4h-70v-36.5c0-2-1.7-3.8-3.8-3.8H92.1c-2.1,0-3.8,1.7-3.8,3.8v36.5H19.7V166
			l53.9-62.6v60.1c0,1.4,0.8,2.7,2.1,3.4c1.4,0.6,2.9,0.4,4.1-0.5l67.4-64.3v61.4c0,1.4,0.9,2.8,2.1,3.4c1.4,0.8,3.2,0.6,4.4-0.5
			l73.5-63.6L227.2,248.4z"/>
		<path d="M133.5,12.9c5.4,3.9,13,2.7,16.9-2.7c1.7-1.9,2.5-2.6,4.2-2.6s2.6,0.7,4.2,2.6c0.8,1,1.7,1.9,2.7,2.7
			c5.4,3.9,13,2.7,16.9-2.7c1.7-1.9,2.5-2.6,4.2-2.6s2.5,0.7,4.2,2.6c2.3,3.1,5.9,4.9,9.8,5l-0.1-7.6c-1.8,0-2.5-0.8-4.2-2.6
			c-0.8-1-1.7-1.9-2.7-2.7c-5.4-3.9-13-2.7-16.9,2.7c-1.7,1.8-2.5,2.6-4.2,2.6s-2.5-0.8-4.2-2.6c-0.8-1-1.7-1.9-2.7-2.7
			c-5.4-3.9-13-2.7-16.9,2.7c-1.7,1.8-2.5,2.6-4.2,2.6S138,6.8,136.2,5c-2.3-3.1-5.8-4.9-9.6-5v7.6c1.8,0,2.5,0.7,4.3,2.6
			C131.6,11.2,132.5,12.1,133.5,12.9z"/>
	</g>
</g>
</svg>
