<svg xmlns="http://www.w3.org/2000/svg" viewBox="0 0 26.87 32.75"><defs><style>.a{fill:none;stroke:#000;stroke-linecap:round;stroke-linejoin:round;stroke-width:0.75px;}</style></defs><title>367</title><path class="a" d="M28.82,12.55a.44.44,0,0,0-.47,0l-1.52,1.22-.36-7.76L26.33,3.2a.44.44,0,0,0-.43-.43H23.82a.46.46,0,0,0-.45.43l-.67,14-3,2.82V13a.45.45,0,0,0-.45-.45.48.48,0,0,0-.28.1l-7.9,7.32v-7a.44.44,0,0,0-.26-.4.43.43,0,0,0-.47.05L3.1,20.82a.46.46,0,0,0-.16.35V31.56a.45.45,0,0,0,.45.44H28.62a.44.44,0,0,0,.44-.44V12.94A.43.43,0,0,0,28.82,12.55Zm-16,19v-4.3h4.3v4.3" transform="translate(-2.57 0.38)"/><path class="a" d="M16.37,0A1.43,1.43,0,0,1,17.5.59c.21.21.3.3.51.3s.29-.09.49-.3a1.42,1.42,0,0,1,2-.32,1.62,1.62,0,0,1,.32.32c.2.21.28.3.49.3s.3-.09.5-.3a1.42,1.42,0,0,1,2-.32,1.34,1.34,0,0,1,.31.32c.2.21.29.3.5.3" transform="translate(-2.57 0.38)"/><line class="a" x1="20.04" y1="17.63" x2="24.16" y2="14.14"/><line class="a" x1="21.03" y1="5.81" x2="23.54" y2="5.81"/></svg>