<?xml version="1.0" encoding="utf-8"?>
<!-- Generator: Adobe Illustrator 24.0.0, SVG Export Plug-In . SVG Version: 6.00 Build 0)  -->
<svg version="1.1" id="Layer_1" xmlns="http://www.w3.org/2000/svg" xmlns:xlink="http://www.w3.org/1999/xlink" x="0px" y="0px"
	 viewBox="0 0 256 256" style="enable-background:new 0 0 256 256;" xml:space="preserve">
<style type="text/css">
	.st0{fill:#8699A3;}
</style>
<g>
	<g>
		<path class="st0" d="M232.78,90.03c-1.36-0.68-2.89-0.43-4,0.43l-12.94,10.47l-3.07-49.2l-1.19-24.43
			c-0.09-2.04-1.79-3.66-3.74-3.66h-17.7c-2.04,0-3.66,1.62-3.83,3.66l-5.7,102.48l-25.53,24.09V93.43c0-2.13-1.7-3.83-3.83-3.83
			c-0.85,0-1.7,0.34-2.38,0.85l-67.41,62.47V93.35c0-1.45-0.85-2.81-2.21-3.4c-1.28-0.68-2.89-0.51-4,0.43l-61.88,70.22
			c-0.85,0.77-1.36,1.79-1.36,2.98v88.69c0,2.04,1.7,3.75,3.83,3.75h215.25c2.04,0,3.74-1.7,3.74-3.75V93.35
			C234.83,91.99,234.06,90.62,232.78,90.03z M193.89,31.22h10.21l0.76,16.68h-11.74L193.89,31.22z M192.7,55.47h12.6l3.23,51.49
			l-20,16.34L192.7,55.47z M149.54,248.42h-53.7v-32.68h53.7V248.42z M227.17,248.42H157.2v-36.51c0-2.04-1.7-3.75-3.83-3.75H92.09
			c-2.13,0-3.83,1.7-3.83,3.75v36.51h-68.6v-82.39l53.88-62.56v60.09c0,1.45,0.85,2.72,2.13,3.4c1.36,0.6,2.89,0.43,4.09-0.51
			l67.41-64.26v61.37c0,1.45,0.85,2.81,2.13,3.4c1.45,0.77,3.24,0.6,4.43-0.51l73.54-63.58L227.17,248.42z"/>
		<path class="st0" d="M133.54,12.86c5.43,3.94,13.02,2.73,16.95-2.7c1.71-1.86,2.47-2.58,4.25-2.58c1.78,0,2.58,0.72,4.25,2.58
			c0.75,1.03,1.66,1.94,2.7,2.7c5.43,3.94,13.02,2.73,16.95-2.7c1.71-1.86,2.47-2.58,4.25-2.58c1.78,0,2.54,0.72,4.25,2.58
			c2.32,3.08,5.93,4.93,9.79,5.01l-0.15-7.59c-1.78,0-2.54-0.76-4.21-2.58c-0.75-1.03-1.66-1.94-2.7-2.7
			c-5.43-3.94-13.02-2.73-16.95,2.7c-1.71,1.82-2.47,2.58-4.25,2.58c-1.78,0-2.54-0.76-4.25-2.58c-0.75-1.03-1.66-1.94-2.7-2.7
			c-5.43-3.94-13.02-2.73-16.95,2.7c-1.71,1.82-2.47,2.58-4.25,2.58s-2.54-0.76-4.29-2.58c-2.28-3.06-5.83-4.9-9.63-5.01v7.59
			c1.78,0,2.54,0.72,4.25,2.58C131.6,11.2,132.51,12.11,133.54,12.86z"/>
	</g>
</g>
</svg>
