<svg xmlns="http://www.w3.org/2000/svg" viewBox="0 0 256 256"><path d="M232.8 90c-1.4-.7-2.9-.4-4 .4l-12.9 10.5-3.1-49.2-1.2-24.4c-.1-2-1.8-3.7-3.7-3.7h-17.7c-2 0-3.7 1.6-3.8 3.7l-5.7 102.5-25.5 24.1V93.4c0-2.1-1.7-3.8-3.8-3.8-.9 0-1.7.3-2.4.8l-67.4 62.5V93.3c0-1.4-.8-2.8-2.2-3.4-1.3-.7-2.9-.5-4 .4l-61.9 70.2c-.9.8-1.4 1.8-1.4 3v88.7c0 2 1.7 3.8 3.8 3.8h215.2c2 0 3.7-1.7 3.7-3.8V93.3c0-1.3-.7-2.7-2-3.3zm-38.9-58.8h10.2l.8 16.7h-11.7l.7-16.7zm-1.2 24.3h12.6l3.2 51.5-20 16.3 4.2-67.8zm-43.2 192.9H95.8v-32.7h53.7v32.7zm77.7 0h-70v-36.5c0-2-1.7-3.8-3.8-3.8H92.1a3.8 3.8 0 00-3.8 3.8v36.5H19.7V166l53.9-62.6v60.1c0 1.4.8 2.7 2.1 3.4 1.4.6 2.9.4 4.1-.5l67.4-64.3v61.4c0 1.4.9 2.8 2.1 3.4 1.4.8 3.2.6 4.4-.5l73.5-63.6v145.6zM133.5 12.9c5.4 3.9 13 2.7 16.9-2.7 1.7-1.9 2.5-2.6 4.2-2.6s2.6.7 4.2 2.6c.8 1 1.7 1.9 2.7 2.7 5.4 3.9 13 2.7 16.9-2.7 1.7-1.9 2.5-2.6 4.2-2.6s2.5.7 4.2 2.6c2.3 3.1 5.9 4.9 9.8 5l-.1-7.6c-1.8 0-2.5-.8-4.2-2.6-.8-1-1.7-1.9-2.7-2.7-5.4-3.9-13-2.7-16.9 2.7-1.7 1.8-2.5 2.6-4.2 2.6s-2.5-.8-4.2-2.6c-.8-1-1.7-1.9-2.7-2.7-5.4-3.9-13-2.7-16.9 2.7-1.7 1.8-2.5 2.6-4.2 2.6s-2.5-.8-4.3-2.6c-2.3-3.1-5.8-4.9-9.6-5v7.6c1.8 0 2.5.7 4.3 2.6.7 1 1.6 1.9 2.6 2.7z"/></svg>