<?xml version="1.0" encoding="utf-8"?>
<!-- Generator: Adobe Illustrator 24.0.0, SVG Export Plug-In . SVG Version: 6.00 Build 0)  -->
<svg version="1.1" id="Layer_1" xmlns="http://www.w3.org/2000/svg" xmlns:xlink="http://www.w3.org/1999/xlink" x="0px" y="0px"
	 viewBox="0 0 256 256" style="enable-background:new 0 0 256 256;" xml:space="preserve">
<style type="text/css">
	.st0{fill:#8699A3;}
</style>
<g>
	<path class="st0" d="M27.71,87.04c1.53,0,3.06-0.76,3.82-0.76c0.76,0,1.53-0.76,0.76-0.76c-0.76,0-2.29,0-3.06,0
		c-2.29,0-3.82,1.53-3.82,1.53s0,0,0.76,0C27.71,87.04,27.71,87.04,27.71,87.04z"/>
	<path class="st0" d="M1.72,102.32c0,0.76,0.76,2.29,1.53,3.06c0.76,0.76,2.29,2.29,4.59,2.29c0.76,0,0.76-0.76,0.76-0.76
		c1.53,1.53,3.06,1.53,3.06,1.53c0-0.76-0.76-2.29-1.53-3.06c0-0.76,0-2.29,0-2.29c0-1.53,0.76-2.29,1.53-3.06
		c2.29-0.76,3.82-1.53,5.35-0.76c0.76,0.76,2.29,3.06,1.53,6.88c0,0-1.53,3.06-2.29,3.06l0,0c-0.76,0-2.29-0.76-2.29-0.76
		s0,0,0,1.53c0,0.76,0,0.76,0.76,1.53c0,0,0,0.76-0.76,0.76c0,0-0.76,1.53,0,2.29c0,0,3.06,2.29,5.35,2.29
		c1.53,0,2.29-1.53,2.29-1.53c1.53-1.53,2.29-3.82,3.82-4.59c3.82-3.82,9.94-4.59,9.94-4.59s6.88-1.53,16.82,6.88
		c-3.06,0-6.88,0.76-9.17,1.53c-7.64,1.53-12.99,8.41-14.52,11.47c-3.82,7.64,3.82,10.7,3.82,10.7s7.64-0.76,10.7-8.41
		c0,0,1.53-3.82,4.59-2.29c2.29,0,22.17,6.88,26.75,7.64c0,0,12.99,3.06,18.35-2.29c7.64,2.29,15.29,3.82,35.16,1.53
		c3.06-0.76,6.12,0,6.12,0c4.59,0,8.41,3.06,9.94,5.35c5.35,8.41,11.47,24.46,34.4,22.17l9.94-0.76c6.12,0,11.47-0.76,16.82,2.29
		c2.29,1.53,3.82,1.53,7.64,5.35c5.35,5.35,9.94,10.7,16.82,7.64c2.29-0.76,4.59-5.35,4.59-5.35c0-1.53-0.76-3.82-3.06-5.35
		c6.12,1.53,19.11,2.29,23.7-6.88c1.53-2.29,1.53-3.82,0.76-5.35c-1.53-3.06-5.35-2.29-5.35-2.29c-1.53,0.76-3.82,2.29-6.88,3.06
		c-6.88,2.29-12.23,0-12.23,0c-9.94-4.59-42.81-22.93-59.62-31.34c0,0-19.11-9.17-47.39-19.87c0,0-55.04-23.7-91.73-21.4
		c0,0-19.87,0.76-25.99,9.17c0,0-0.76,1.53-0.76,2.29c0,0,0,0,0,0.76c0,0-3.06,3.06-5.35,5.35c0,1.53-0.76,3.06,0.76,3.82
		L1.72,102.32z M3.25,99.27c2.29-3.82,6.12-4.59,6.12-4.59c0.76,0,2.29,0,2.29,0c4.59-0.76,6.88-5.35,6.88-5.35
		c-3.06,0-4.59,0-4.59,0c-3.06,0-3.82,3.82-3.82,3.82c-3.06,0-3.06-2.29-2.29-2.29c0-0.76,1.53-3.82,12.23-6.12
		c0,0,5.35-1.53,16.05-0.76c0,0,0,0-0.76,0.76c-0.76,1.53-4.59,5.35-10.7,3.82c0,0,0,3.06,6.88,3.82c0,0,6.12,0.76,16.82,9.17
		c0,0-4.59-9.94-12.99-12.23c0,0-0.76,0-0.76-0.76c0,0,5.35-4.59,12.23-5.35c0,0,22.93-2.29,35.16,15.29c0,0-3.82-7.64-6.88-10.7
		c0,0,12.99,3.82,33.63,10.7c0,0,13.76,4.59,22.93,8.41c12.23,4.59,42.04,16.05,61.15,26.75c3.06,1.53,37.46,19.87,37.46,19.87
		c9.17,4.59,16.05,1.53,16.05,1.53c2.29-0.76,6.12-3.82,7.64-2.29c0.76,0.76,0.76,2.29,0.76,3.06c-0.76,1.53-3.06,3.82-6.12,5.35
		c-3.06,1.53-9.94,1.53-13.76,0.76c0,0-7.64-0.76-13.76-7.64c-2.29-2.29-4.59-4.59-6.88-6.88c-0.76-0.76-3.82-3.82-7.64-3.82
		c-4.59-0.76-14.52-0.76-19.11-2.29c-3.06,0-6.12-1.53-10.7-7.64c-2.29-3.06-3.82-3.82-6.12-5.35c0,0,2.29,1.53,3.06,3.82
		c1.53,3.06,2.29,5.35,3.82,6.88c0.76,1.53,2.29,3.06,3.82,4.59c2.29,1.53,3.06,1.53,5.35,2.29c2.29,0,9.17,0,15.29,0
		s8.41,1.53,10.7,3.82c1.53,1.53,4.59,6.12,6.88,7.64c2.29,2.29,3.82,4.59,8.41,6.88c1.53,0.76,3.82,3.06,3.82,4.59
		c-2.29,2.29-4.59,2.29-10.7,0.76c0.76,0.76,3.82,3.82,9.17,2.29c-1.53,1.53-3.06,1.53-4.59,1.53c-5.35,0-11.47-6.88-14.52-9.94
		c-2.29-2.29-2.29-2.29-6.88-5.35c-6.12-3.82-19.87-3.06-19.87-3.06l-9.94,0.76c-19.11,1.53-27.52-16.05-29.81-19.11
		c-0.76-1.53-1.53-2.29-2.29-3.06c-0.76-1.53-6.12-8.41-11.47-10.7c0,0,5.35,4.59,5.35,7.64c0,0-2.29-0.76-8.41,0
		c-25.22,3.82-34.4-3.06-34.4-3.06c1.53-5.35-2.29-10.7-2.29-10.7c2.29,0.76,14.52,4.59,26.75,2.29c0,0-19.11,0-32.87-10.7
		c0,0,8.41,10.7,6.12,17.58c0,0-1.53,7.64-16.05,4.59c-1.53,0-3.06-0.76-25.22-6.88c-5.35-1.53-7.64,0.76-8.41,2.29
		c0,2.29-2.29,4.59-3.82,5.35c-6.88-1.53-3.82-7.64-3.82-7.64c-4.59,6.12,0,9.17,1.53,9.17c-0.76,0.76-1.53,0.76-2.29,1.53
		c0,0-5.35-3.06-2.29-8.41c4.59-7.64,9.17-9.94,16.82-10.7c3.82,0,6.88-0.76,8.41,0c6.12,0,9.94,3.06,18.35,3.82
		c-18.35-5.35-18.35-16.05-18.35-16.05l0,0c-1.53,3.06-0.76,6.12,0,8.41c0,0-4.59-3.06-6.12-3.82c-6.88-3.82-11.47-4.59-11.47-4.59
		c-2.29,0-3.82-3.06-3.82-3.06s0,0,0-0.76c-3.06-4.59-6.12-4.59-6.12-4.59C30,96.97,30,100.03,30,100.03
		c0.76,6.88-6.12,8.41-6.12,8.41c-4.59,6.12-4.59,6.12-5.35,6.12s-3.06-0.76-3.06-0.76c0-0.76,0-0.76,0-0.76
		c0.76-0.76,1.53-1.53,1.53-1.53c4.59-4.59,5.35-7.64,4.59-10.7c-1.53-6.12-6.12-5.35-6.12-5.35c-2.29,0-3.06,1.53-3.06,1.53
		c-0.76,1.53-2.29,5.35-2.29,5.35c-0.76,1.53-2.29,2.29-2.29,2.29H7.07c-1.53,0-3.06-1.53-3.06-1.53l0,0
		C2.48,101.56,3.25,99.27,3.25,99.27z M10.89,92.39L10.89,92.39c0-0.76,0.76-2.29,2.29-2.29c0,0,0.76,0,2.29,0
		c0,0-0.76,2.29-3.06,2.29C12.42,92.39,10.89,92.39,10.89,92.39z"/>
</g>
</svg>
