<svg xmlns="http://www.w3.org/2000/svg" viewBox="0 0 256 256" enable-background="new 0 0 256 256"><style type="text/css">.st0{fill:#8699A3;}</style><path d="M27.7 87.04c1.54 0 3.07-.76 3.83-.76.76 0 1.53-.76.76-.76s-2.3 0-3.07 0c-2.3 0-3.82 1.53-3.82 1.53s0 0 .77 0c1.54 0 1.54 0 1.54 0zM1.72 102.32c0 .76.76 2.3 1.53 3.06.76.76 2.3 2.3 4.6 2.3.75 0 .75-.77.75-.77 1.53 1.54 3.06 1.54 3.06 1.54 0-.76-.76-2.3-1.53-3.06 0-.76 0-2.3 0-2.3 0-1.52.76-2.28 1.53-3.05 2.3-.76 3.82-1.53 5.35-.76.77.76 2.3 3.06 1.54 6.88 0 0-1.53 3.06-2.3 3.06-.75 0-2.28-.75-2.28-.75s0 0 0 1.53c0 .76 0 .76.76 1.53 0 0 0 .77-.76.77 0 0-.76 1.53 0 2.3 0 0 3.06 2.28 5.35 2.28 1.54 0 2.3-1.53 2.3-1.53 1.53-1.53 2.3-3.82 3.82-4.6 3.82-3.8 9.94-4.58 9.94-4.58s6.88-1.53 16.82 6.88c-3.06 0-6.88.76-9.17 1.53-7.63 1.53-12.98 8.4-14.5 11.47-3.83 7.64 3.8 10.7 3.8 10.7s7.65-.76 10.7-8.4c0 0 1.54-3.83 4.6-2.3 2.3 0 22.17 6.88 26.75 7.64 0 0 13 3.06 18.35-2.3 7.64 2.3 15.3 3.83 35.16 1.54 3.06-.76 6.12 0 6.12 0 4.6 0 8.4 3.06 9.94 5.35 5.35 8.4 11.47 24.46 34.4 22.17l9.94-.76c6.12 0 11.47-.76 16.82 2.3 2.3 1.52 3.82 1.52 7.64 5.34 5.35 5.35 9.94 10.7 16.82 7.64 2.3-.76 4.6-5.35 4.6-5.35 0-1.54-.77-3.83-3.07-5.36 6.12 1.53 19.1 2.3 23.7-6.88 1.53-2.3 1.53-3.82.76-5.35-1.53-3.05-5.35-2.28-5.35-2.28-1.53.76-3.82 2.3-6.88 3.06-6.88 2.3-12.23 0-12.23 0-9.94-4.6-42.8-22.93-59.62-31.34 0 0-19.1-9.17-47.4-19.87 0 0-55.03-23.7-91.72-21.4 0 0-19.87.76-26 9.17 0 0-.75 1.53-.75 2.3 0 0 0 0 0 .75 0 0-3.06 3.05-5.35 5.34 0 1.53-.76 3.06.76 3.82l.72.76zm1.53-3.05c2.3-3.82 6.12-4.6 6.12-4.6.76 0 2.3 0 2.3 0 4.58-.75 6.87-5.34 6.87-5.34-3.06 0-4.6 0-4.6 0-3.05 0-3.8 3.82-3.8 3.82-3.07 0-3.07-2.3-2.3-2.3 0-.75 1.53-3.8 12.23-6.1 0 0 5.35-1.54 16.05-.77 0 0 0 0-.76.76-.76 1.53-4.6 5.35-10.7 3.82 0 0 0 3.06 6.88 3.82 0 0 6.12.76 16.82 9.17 0 0-4.6-9.94-13-12.23 0 0-.75 0-.75-.76 0 0 5.36-4.6 12.24-5.35 0 0 22.93-2.28 35.16 15.3 0 0-3.82-7.64-6.88-10.7 0 0 13 3.82 33.63 10.7 0 0 13.76 4.6 22.93 8.4 12.23 4.6 42.04 16.06 61.15 26.76 3.06 1.53 37.46 19.87 37.46 19.87 9.16 4.6 16.04 1.53 16.04 1.53 2.3-.76 6.12-3.82 7.64-2.3.76.77.76 2.3.76 3.07-.76 1.53-3.06 3.82-6.12 5.35-3.06 1.53-9.94 1.53-13.76.76 0 0-7.64-.76-13.76-7.64-2.3-2.3-4.6-4.6-6.88-6.88-.76-.76-3.82-3.82-7.64-3.82-4.6-.76-14.52-.76-19.1-2.3-3.07 0-6.13-1.52-10.7-7.63-2.3-3.06-3.83-3.82-6.13-5.35 0 0 2.3 1.53 3.06 3.82 1.54 3.06 2.3 5.35 3.83 6.88.76 1.53 2.3 3.06 3.82 4.6 2.3 1.52 3.06 1.52 5.35 2.28 2.3 0 9.17 0 15.3 0s8.4 1.53 10.7 3.82c1.52 1.53 4.58 6.12 6.87 7.64 2.3 2.3 3.82 4.6 8.4 6.88 1.54.76 3.83 3.06 3.83 4.6-2.3 2.28-4.6 2.28-10.7.75.76.75 3.82 3.8 9.17 2.28-1.53 1.53-3.06 1.53-4.6 1.53-5.34 0-11.46-6.87-14.5-9.93-2.3-2.3-2.3-2.3-6.9-5.35-6.1-3.82-19.86-3.06-19.86-3.06l-9.93.76c-19.1 1.53-27.52-16.05-29.8-19.1-.77-1.54-1.54-2.3-2.3-3.07-.76-1.53-6.12-8.4-11.47-10.7 0 0 5.35 4.6 5.35 7.64 0 0-2.3-.77-8.4 0-25.23 3.8-34.4-3.07-34.4-3.07 1.52-5.35-2.3-10.7-2.3-10.7 2.3.76 14.52 4.6 26.75 2.3 0 0-19.1 0-32.87-10.7 0 0 8.4 10.7 6.12 17.57 0 0-1.53 7.64-16.05 4.6-1.53 0-3.06-.77-25.22-6.9-5.35-1.52-7.64.77-8.4 2.3 0 2.3-2.3 4.6-3.83 5.35-6.88-1.53-3.82-7.64-3.82-7.64-4.6 6.13 0 9.18 1.53 9.18-.76.76-1.53.76-2.3 1.53 0 0-5.34-3.05-2.28-8.4 4.6-7.64 9.17-9.94 16.82-10.7 3.82 0 6.88-.76 8.4 0 6.13 0 9.95 3.06 18.36 3.82C56 113.77 56 103.07 56 103.07c-1.52 3.06-.75 6.12 0 8.4 0 0-4.58-3.05-6.1-3.8-6.9-3.83-11.48-4.6-11.48-4.6-2.3 0-3.82-3.06-3.82-3.06s0 0 0-.75c-3.06-4.6-6.12-4.6-6.12-4.6C30 96.98 30 100.04 30 100.04c.76 6.88-6.12 8.4-6.12 8.4-4.6 6.13-4.6 6.13-5.35 6.13s-3.06-.76-3.06-.76c0-.76 0-.76 0-.76.76-.76 1.53-1.53 1.53-1.53 4.6-4.58 5.35-7.63 4.6-10.7-1.54-6.1-6.13-5.34-6.13-5.34-2.3 0-3.06 1.53-3.06 1.53-.75 1.52-2.28 5.34-2.28 5.34-.76 1.53-2.3 2.3-2.3 2.3h-.75c-1.53 0-3.06-1.54-3.06-1.54-1.52-1.54-.75-3.83-.75-3.83zm7.64-6.88c0-.77.75-2.3 2.28-2.3 0 0 .76 0 2.3 0 0 0-.77 2.3-3.07 2.3.02 0-1.5 0-1.5 0z" class="st0"/></svg>