<?xml version="1.0" encoding="utf-8"?>
<!-- Generator: Adobe Illustrator 24.0.0, SVG Export Plug-In . SVG Version: 6.00 Build 0)  -->
<svg version="1.1" id="Layer_1" xmlns="http://www.w3.org/2000/svg" xmlns:xlink="http://www.w3.org/1999/xlink" x="0px" y="0px"
	 viewBox="0 0 256 256" style="enable-background:new 0 0 256 256;" xml:space="preserve">
<style type="text/css">
	.st0{fill:#8699A3;}
</style>
<g>
	<g>
		<path class="st0" d="M109.18,76.65c-2.26,0-3.76,0.75-4.52,3.01c-1.51,1.51-0.75,3.76-0.75,4.52h12.05c0,0,0.75-3.76-2.26-5.27
			C112.19,76.65,110.68,76.65,109.18,76.65z"/>
		<path class="st0" d="M149.08,76.65c-2.26,0-3.76,0.75-4.52,3.01c-1.51,0.75-1.51,3.01-1.51,3.76h12.05c0,0,0.75-3.76-2.26-5.27
			C152.09,76.65,150.59,76.65,149.08,76.65z"/>
		<path class="st0" d="M189.74,78.91c-2.26,0-3.76,0.75-5.27,2.26c-1.51,1.51-2.26,4.52-2.26,8.28c0,3.76,0.75,6.02,2.26,8.28
			c1.51,1.51,3.01,2.26,5.27,2.26c2.26,0,3.76-0.75,4.52-2.26c1.51-1.51,2.26-4.52,2.26-8.28c0-3.76-0.75-6.02-2.26-8.28
			C193.51,79.66,192,78.91,189.74,78.91z"/>
		<path class="st0" d="M64,165.49c0-12.8-10.54-23.34-23.34-23.34s-23.34,10.54-23.34,23.34s10.54,23.34,23.34,23.34
			S64,178.29,64,165.49z"/>
		<path class="st0" d="M216.09,142.91c-12.8,0-22.59,10.54-22.59,23.34s10.54,23.34,22.59,23.34c12.8,0,23.34-10.54,23.34-23.34
			C239.44,153.45,228.89,142.91,216.09,142.91z"/>
		<path class="st0" d="M81.32,212.18v-61.74c0-3.01-2.26-5.27-6.02-5.27c-3.01,0-6.02,2.26-6.02,5.27v61.74
			c0,3.01,2.26,5.27,6.02,5.27C79.06,217.45,81.32,215.19,81.32,212.18z"/>
		<path class="st0" d="M99.39,212.18v-61.74c0-3.01-2.26-5.27-6.02-5.27c-3.01,0-6.02,2.26-6.02,5.27v61.74
			c0,3.01,2.26,5.27,6.02,5.27C96.38,217.45,99.39,215.19,99.39,212.18z"/>
		<path class="st0" d="M116.71,212.18v-61.74c0-3.01-2.26-5.27-6.02-5.27c-3.01,0-6.02,2.26-6.02,5.27v61.74
			c0,3.01,2.26,5.27,6.02,5.27C113.69,217.45,116.71,215.19,116.71,212.18z"/>
		<path class="st0" d="M134.78,212.18v-61.74c0-3.01-2.26-5.27-6.02-5.27c-3.01,0-6.02,2.26-6.02,5.27v61.74
			c0,3.01,2.26,5.27,6.02,5.27C131.76,217.45,134.78,215.19,134.78,212.18z"/>
		<path class="st0" d="M151.34,212.18v-61.74c0-3.01-2.26-5.27-6.02-5.27c-3.01,0-6.02,2.26-6.02,5.27v61.74
			c0,3.01,2.26,5.27,6.02,5.27C149.08,217.45,151.34,215.19,151.34,212.18z"/>
		<path class="st0" d="M169.41,212.18v-61.74c0-3.01-2.26-5.27-6.02-5.27c-3.01,0-6.02,2.26-6.02,5.27v61.74
			c0,3.01,2.26,5.27,6.02,5.27S169.41,215.19,169.41,212.18z"/>
		<path class="st0" d="M187.48,212.18v-61.74c0-3.01-2.26-5.27-6.02-5.27c-3.01,0-6.02,2.26-6.02,5.27v61.74
			c0,3.01,2.26,5.27,6.02,5.27C185.22,217.45,187.48,215.19,187.48,212.18z"/>
		<path class="st0" d="M208.56,112.79C208.56,112.04,208.56,112.04,208.56,112.79c0-0.75,0-0.75,0-0.75h-0.75h-1.51v1.51h1.51
			C207.81,112.79,207.81,112.79,208.56,112.79C207.81,112.79,207.81,112.79,208.56,112.79z"/>
		<path class="st0" d="M247.72,39H136.28h-15.06H9.04c-4.52,0-8.28,3.76-8.28,8.28L0,158.72c0,0,7.53-25.6,27.86-24.85h96.38h6.78
			h96.38c20.33-0.75,27.86,24.85,27.86,24.85L256,47.28C256,42.76,252.24,39,247.72,39z M87.34,81.92c0,6.02-0.75,10.54-1.51,13.55
			c-0.75,3.01-3.01,6.02-5.27,7.53c-2.26,2.26-6.78,3.01-10.54,3.76c-5.27,0.75-12.8-0.75-15.81-2.26
			c-2.26-1.51-4.52-3.76-6.02-6.02c-1.51-3.01-1.51-12.05-1.51-15.81h12.8c0,2.26,0,7.53,0,8.28c0.75,3.76,3.76,4.52,4.52,4.52
			c7.53,0.75,8.28-2.26,9.04-3.01c0.75-1.51,0.75-3.76,0.75-6.78V54.06h13.55V81.92L87.34,81.92z M127.25,91.71h-24.09
			c0,3.01,0.75,4.52,1.51,6.02c1.51,1.51,3.01,2.26,4.52,2.26s2.26-0.75,3.76-0.75c0.75-0.75,1.51-1.51,2.26-2.26h12.05
			c-0.75,4.52-3.01,7.53-6.02,9.04c-3.01,1.51-6.78,3.01-12.05,3.01c-4.52,0-7.53-0.75-10.54-2.26c-2.26-1.51-4.52-3.76-6.02-6.78
			c-1.51-3.01-2.26-6.78-2.26-10.54c0-6.02,1.51-10.54,5.27-14.31c3.01-3.76,7.53-6.02,13.55-6.02c4.52,0,8.28,1.51,11.29,3.01
			c3.01,1.51,4.52,3.76,6.02,6.78c1.51,3.01,2.26,6.78,2.26,12.05v0.75H127.25z M167.15,91.71h-24.85c0,3.01,0.75,4.52,1.51,6.02
			c1.51,1.51,3.01,2.26,4.52,2.26s2.26-0.75,3.76-0.75c0.75-0.75,1.51-1.51,2.26-2.26h12.05c-0.75,4.52-3.01,7.53-6.02,9.04
			c-2.26,0.75-6.78,2.26-11.29,2.26c-4.52,0-7.53-0.75-10.54-2.26c-2.26-1.51-4.52-3.76-6.02-6.78c-1.51-3.01-2.26-6.78-2.26-10.54
			c0-6.02,1.51-10.54,5.27-14.31c3.01-3.76,7.53-6.02,13.55-6.02c4.52,0,8.28,1.51,11.29,3.01s4.52,3.76,6.02,6.78
			s2.26,6.78,2.26,12.05v1.51H167.15z M188.24,109.02c-2.26-0.75-5.27-3.01-5.27-3.01v14.31h-12.8V69.87h13.55v4.52
			c1.51-2.26,3.01-3.01,3.76-3.76c1.51-1.51,3.76-1.51,6.02-1.51c4.52,0,9.04,2.26,12.05,5.27c3.01,3.76,4.52,9.04,4.52,14.31
			c0,6.02-0.75,10.54-5.27,15.81c-3.01,3.01-6.78,4.52-11.29,4.52C192,109.02,189.74,109.02,188.24,109.02z M207.06,117.31
			c-2.26,0-4.52-2.26-4.52-4.52s2.26-4.52,4.52-4.52c2.26,0,4.52,2.26,4.52,4.52C211.58,115.8,209.32,117.31,207.06,117.31z"/>
		<path class="st0" d="M207.06,109.78c-2.26,0-3.76,1.51-3.76,3.76c0,2.26,1.51,3.76,3.76,3.76s3.76-1.51,3.76-3.76
			S209.32,109.78,207.06,109.78z M208.56,115.8l-0.75-0.75c0-0.75,0-0.75-0.75-0.75c0,0,0,0-0.75-0.75l0,0l0,0h-0.75v2.26h-0.75
			v-5.27h2.26c0.75,0,0.75,0,0.75,0s0.75,0,0.75,0.75v0.75c0,0.75,0,0.75-0.75,0.75l-0.75,0.75c0,0,0,0,0.75,0c0,0,0,0,0.75,0.75
			l0.75,1.51C209.32,115.8,208.56,115.8,208.56,115.8z"/>
	</g>
</g>
</svg>
