<svg xmlns="http://www.w3.org/2000/svg" xmlns:xlink="http://www.w3.org/1999/xlink" x="0px" y="0px"
	 viewBox="0 0 34.1 23.7" style="enable-background:new 0 0 34.1 23.7;" xml:space="preserve">
<style type="text/css">
	.st0{fill:#8699A3;}
</style>
<g>
	<g>
		<path class="st0" d="M14.5,5c-0.3,0-0.5,0.1-0.6,0.4c-0.2,0.2-0.1,0.5-0.1,0.6h1.6c0,0,0.1-0.5-0.3-0.7C14.9,5,14.7,5,14.5,5z"/>
		<path class="st0" d="M19.8,5c-0.3,0-0.5,0.1-0.6,0.4C19,5.5,19,5.8,19,5.9h1.6c0,0,0.1-0.5-0.3-0.7C20.2,5,20,5,19.8,5z"/>
		<path class="st0" d="M25.2,5.3c-0.3,0-0.5,0.1-0.7,0.3c-0.2,0.2-0.3,0.6-0.3,1.1c0,0.5,0.1,0.8,0.3,1.1c0.2,0.2,0.4,0.3,0.7,0.3
			c0.3,0,0.5-0.1,0.6-0.3c0.2-0.2,0.3-0.6,0.3-1.1c0-0.5-0.1-0.8-0.3-1.1C25.7,5.4,25.5,5.3,25.2,5.3z"/>
		<path class="st0" d="M8.5,16.8c0-1.7-1.4-3.1-3.1-3.1c-1.7,0-3.1,1.4-3.1,3.1c0,1.7,1.4,3.1,3.1,3.1C7.1,19.9,8.5,18.5,8.5,16.8z"
			/>
		<path class="st0" d="M28.7,13.8c-1.7,0-3,1.4-3,3.1c0,1.7,1.4,3.1,3,3.1c1.7,0,3.1-1.4,3.1-3.1C31.8,15.2,30.4,13.8,28.7,13.8z"/>
		<path class="st0" d="M10.8,23v-8.2c0-0.4-0.3-0.7-0.8-0.7c-0.4,0-0.8,0.3-0.8,0.7V23c0,0.4,0.3,0.7,0.8,0.7
			C10.5,23.7,10.8,23.4,10.8,23z"/>
		<path class="st0" d="M13.2,23v-8.2c0-0.4-0.3-0.7-0.8-0.7c-0.4,0-0.8,0.3-0.8,0.7V23c0,0.4,0.3,0.7,0.8,0.7
			C12.8,23.7,13.2,23.4,13.2,23z"/>
		<path class="st0" d="M15.5,23v-8.2c0-0.4-0.3-0.7-0.8-0.7c-0.4,0-0.8,0.3-0.8,0.7V23c0,0.4,0.3,0.7,0.8,0.7
			C15.1,23.7,15.5,23.4,15.5,23z"/>
		<path class="st0" d="M17.9,23v-8.2c0-0.4-0.3-0.7-0.8-0.7c-0.4,0-0.8,0.3-0.8,0.7V23c0,0.4,0.3,0.7,0.8,0.7
			C17.5,23.7,17.9,23.4,17.9,23z"/>
		<path class="st0" d="M20.1,23v-8.2c0-0.4-0.3-0.7-0.8-0.7c-0.4,0-0.8,0.3-0.8,0.7V23c0,0.4,0.3,0.7,0.8,0.7
			C19.8,23.7,20.1,23.4,20.1,23z"/>
		<path class="st0" d="M22.5,23v-8.2c0-0.4-0.3-0.7-0.8-0.7c-0.4,0-0.8,0.3-0.8,0.7V23c0,0.4,0.3,0.7,0.8,0.7
			C22.2,23.7,22.5,23.4,22.5,23z"/>
		<path class="st0" d="M24.9,23v-8.2c0-0.4-0.3-0.7-0.8-0.7c-0.4,0-0.8,0.3-0.8,0.7V23c0,0.4,0.3,0.7,0.8,0.7
			C24.6,23.7,24.9,23.4,24.9,23z"/>
		<path class="st0" d="M27.7,9.8C27.7,9.7,27.7,9.7,27.7,9.8c0-0.1,0-0.1,0-0.1c0,0-0.1,0-0.1,0h-0.2v0.2h0.2
			C27.6,9.8,27.6,9.8,27.7,9.8C27.6,9.8,27.6,9.8,27.7,9.8z"/>
		<path class="st0" d="M32.9,0H18.1h-2H1.2C0.6,0,0.1,0.5,0.1,1.1L0,15.9c0,0,1-3.4,3.7-3.3h12.8h0.9h12.8c2.7-0.1,3.7,3.3,3.7,3.3
			L34,1.1C34,0.5,33.5,0,32.9,0z M11.6,5.7c0,0.8-0.1,1.4-0.2,1.8c-0.1,0.4-0.4,0.8-0.7,1C10.4,8.8,9.8,8.9,9.3,9
			C8.6,9.1,7.6,8.9,7.2,8.7C6.9,8.5,6.6,8.2,6.4,7.9C6.2,7.5,6.2,6.3,6.2,5.8l1.7,0c0,0.3,0,1,0,1.1C8,7.4,8.4,7.5,8.5,7.5
			c1,0.1,1.1-0.3,1.2-0.4c0.1-0.2,0.1-0.5,0.1-0.9V2h1.8V5.7L11.6,5.7z M16.9,7h-3.2c0,0.4,0.1,0.6,0.2,0.8c0.2,0.2,0.4,0.3,0.6,0.3
			c0.2,0,0.3-0.1,0.5-0.1c0.1-0.1,0.2-0.2,0.3-0.3l1.6,0c-0.1,0.6-0.4,1-0.8,1.2c-0.4,0.2-0.9,0.4-1.6,0.4c-0.6,0-1-0.1-1.4-0.3
			c-0.3-0.2-0.6-0.5-0.8-0.9c-0.2-0.4-0.3-0.9-0.3-1.4c0-0.8,0.2-1.4,0.7-1.9c0.4-0.5,1-0.8,1.8-0.8c0.6,0,1.1,0.2,1.5,0.4
			c0.4,0.2,0.6,0.5,0.8,0.9c0.2,0.4,0.3,0.9,0.3,1.6V7z M22.2,7h-3.3c0,0.4,0.1,0.6,0.2,0.8c0.2,0.2,0.4,0.3,0.6,0.3
			c0.2,0,0.3-0.1,0.5-0.1c0.1-0.1,0.2-0.2,0.3-0.3l1.6,0c-0.1,0.6-0.4,1-0.8,1.2C21,9,20.4,9.2,19.8,9.2c-0.6,0-1-0.1-1.4-0.3
			c-0.3-0.2-0.6-0.5-0.8-0.9c-0.2-0.4-0.3-0.9-0.3-1.4c0-0.8,0.2-1.4,0.7-1.9c0.4-0.5,1-0.8,1.8-0.8c0.6,0,1.1,0.2,1.5,0.4
			c0.4,0.2,0.6,0.5,0.8,0.9c0.2,0.4,0.3,0.9,0.3,1.6V7z M25,9.3c-0.3-0.1-0.7-0.4-0.7-0.4v1.9h-1.7V4.1h1.8v0.6
			c0.2-0.3,0.4-0.4,0.5-0.5C25.1,4,25.4,4,25.7,4c0.6,0,1.2,0.3,1.6,0.7c0.4,0.5,0.6,1.2,0.6,1.9c0,0.8-0.1,1.4-0.7,2.1
			c-0.4,0.4-0.9,0.6-1.5,0.6C25.5,9.3,25.2,9.3,25,9.3z M27.5,10.4c-0.3,0-0.6-0.3-0.6-0.6c0-0.3,0.3-0.6,0.6-0.6
			c0.3,0,0.6,0.3,0.6,0.6C28.1,10.2,27.8,10.4,27.5,10.4z"/>
		<path class="st0" d="M27.5,9.4c-0.3,0-0.5,0.2-0.5,0.5c0,0.3,0.2,0.5,0.5,0.5c0.3,0,0.5-0.2,0.5-0.5C28,9.6,27.8,9.4,27.5,9.4z
			 M27.7,10.2l-0.1-0.1c0-0.1,0-0.1-0.1-0.1c0,0,0,0-0.1-0.1c0,0,0,0,0,0c0,0,0,0,0,0h-0.1v0.3h-0.1V9.5h0.3c0.1,0,0.1,0,0.1,0
			c0,0,0.1,0,0.1,0.1c0,0,0,0.1,0,0.1c0,0.1,0,0.1-0.1,0.1c0,0-0.1,0.1-0.1,0.1c0,0,0,0,0.1,0c0,0,0,0,0.1,0.1l0.1,0.2H27.7z"/>
	</g>
</g>
</svg>
