<?xml version="1.0" encoding="utf-8"?>
<!-- Generator: Adobe Illustrator 24.0.0, SVG Export Plug-In . SVG Version: 6.00 Build 0)  -->
<svg version="1.1" id="Layer_1" xmlns="http://www.w3.org/2000/svg" xmlns:xlink="http://www.w3.org/1999/xlink" x="0px" y="0px"
	 viewBox="0 0 256 256" style="enable-background:new 0 0 256 256;" xml:space="preserve">
<style type="text/css">
	.st0{fill:#8699A3;}
</style>
<g>
	<g>
		<path class="st0" d="M129.21,92.95l0.33,13.22c0,0,4.94,1.05,8.68-2.15c3.74-3.28,2.9-2.75,2.9-2.75s0.51-0.53,1.69,0.36
			c1.2,1.01-0.67,3.39-0.67,3.39s-1.2,2.04-4.76,3.95c-3.59,1.7-7.5,2-7.5,2l-0.17,1.9c0,0,2.37,1.31,6.14,1.19
			c3.56-0.18,4.57-0.51,4.57-0.51s7.17-2.04,7.17-10.59c0-8.34-8.35-10.01-8.35-10.01H129.21L129.21,92.95z"/>
		<path class="st0" d="M144.01,81.21c0-5.48-4.26-6-4.26-6h-10.9v2.94l6.14,0.18c0,0,1.7-1.91,3.57,0.28
			c1.86,2.25,2.05,3.43,2.05,3.43s0.34,3.9-3.4,0.53c-3.74-3.45-8.35-1.91-8.35-1.91v7.18h10.9
			C139.75,87.83,144.01,86.79,144.01,81.21z"/>
		<path class="st0" d="M117.63,84.42c-1.71,2.21-1.71,3.41-1.71,3.41h5.45V81.9C121.37,81.9,119.14,82.19,117.63,84.42z"/>
		<path class="st0" d="M114.38,81.9c3.41-2.41,7.15-3.42,7.15-3.42s0.85-3.09-1.54-2.89c-2.56,0.14-4.58,0.31-4.58,0.31
			s-1.38,0-2.23,1.91c-1.01,1.84-5.79,10.19-5.79,10.19l2.38,0.17C109.78,88.18,111.15,84.27,114.38,81.9z"/>
		<path class="st0" d="M98.89,143.82c-0.85-1.01-2.06-1.84-3.74-2.37c-2.74-0.7-5.28,0-7.66,2.23c-2.38,2.01-4.43,5.42-5.97,10.02
			c-0.69,1.89-1.18,3.91-1.54,5.65c-0.33,1.83-0.33,3.55-0.16,4.89c0.16,1.55,0.68,2.91,1.54,3.94c0.68,1.02,1.86,1.67,3.38,2.06
			c1.54,0.52,3.08,0.52,4.43,0c1.37-0.39,2.56-1.21,3.59-2.21c1.18-1.2,2.2-2.58,3.24-4.26c0.85-1.54,1.7-3.42,2.56-5.62
			c0.51-1.69,1.02-3.61,1.54-5.28c0.34-1.89,0.34-3.6,0.16-5.13C100.1,146.25,99.58,145.04,98.89,143.82z"/>
		<path class="st0" d="M126.82,36.95c-18.75,0.34-31,16.84-31,16.84s-48.52,54.81-62.3,70.83c-13.79,15.99,0,34.37,0,34.37
			s28.43,35.55,96.02,34.22c67.41-1.38,94.3-31.84,99.07-46.15c4.94-14.1-8.16-26.57-8.16-26.57L156.09,48.5
			C156.09,48.5,145.54,36.44,126.82,36.95z M48.34,149.77c0.17,0.54,0.68,1.02,1.36,1.73c0.68,0.48,1.53,1.19,2.88,2.2
			c1.21,0.83,2.41,1.71,3.75,2.38c1.19,0.7,2.22,1.05,3.07,0.87c1.19,0,2.54-0.49,4.24-1.18c1.7-0.73,3.08-1.39,4.27-2.07l1.7,1.19
			l-6.83,8.88l-30.12-21.64l1.21-1.53c0.5,0.37,1.19,0.68,1.87,1.18c0.85,0.35,1.35,0.68,1.7,0.68c0.68,0.2,1.17,0.2,1.69,0
			c0.34-0.15,0.85-0.48,1.18-1.01l13.46-20.6c0.33-0.48,0.51-0.88,0.68-1.34c0-0.51-0.17-1.03-0.68-1.72
			c-0.33-0.53-0.85-1.22-1.37-1.7c-0.68-0.7-1.2-1-1.54-1.36l1.03-1.74l18.05,12.98l-1.19,1.53c-0.51-0.19-1.02-0.52-1.86-1.01
			c-0.7-0.34-1.21-0.69-1.88-0.87c-0.69-0.34-1.38-0.34-1.7-0.15c-0.53,0.34-0.86,0.69-1.19,1.18L49.52,145.7
			c-0.68,0.86-1.02,1.71-1.19,2.22C48.16,148.59,48.16,149.26,48.34,149.77z M107.75,160.57c-0.85,2.34-2.05,4.39-3.58,6.27
			c-1.53,1.68-3.23,3.23-5.27,4.23c-2.22,1.19-4.43,1.87-6.98,2.22c-2.4,0.17-5.11,0-8-0.83c-2.38-0.73-4.6-1.69-6.29-3.06
			c-1.87-1.21-3.41-2.91-4.43-4.82c-1.18-1.83-1.85-3.89-2.04-6.1c-0.16-2.22,0.17-4.62,1.03-7.13c1.01-2.58,2.22-4.79,3.91-6.49
			c1.7-1.86,3.57-3.4,5.63-4.4c2.2-1.03,4.41-1.57,6.97-1.88c2.38-0.17,4.75,0.18,7.32,0.85c2.38,0.7,4.6,1.67,6.47,3.04
			c1.87,1.36,3.24,2.91,4.43,4.6c1.01,1.89,1.71,3.91,1.86,6.32C109.1,155.6,108.6,157.93,107.75,160.57z M139.57,151.83
			c-0.33-1.52-1.18-3.06-2.2-4.62c-1.03-1.69-1.87-2.51-2.75-2.51c-0.48-0.17-1.02-0.17-1.69-0.17c-0.69,0-1.36,0-1.87,0h-1.02
			l0.52,26.38c0,0.51,0,1.01,0.16,1.34c0.34,0.53,0.69,0.88,1.19,1.03c0.33,0.17,0.85,0.38,1.54,0.5c0.69,0,1.36,0.18,1.86,0.18
			v1.88l-17.2,0.31v-1.83c0.34,0,1.01-0.19,1.7-0.19c0.86-0.17,1.36-0.17,1.54-0.36c0.5-0.33,1.02-0.66,1.19-1.01
			c0.17-0.53,0.17-1.06,0.17-1.56l-0.34-26.52h-1.02c-0.51,0-1.2,0-1.87,0c-0.69,0.16-1.21,0.16-1.71,0.16
			c-0.86,0.18-1.71,1.21-2.73,2.7c-0.85,1.7-1.54,3.24-2.04,4.78h-1.71l-0.15-9.68l29.96-0.53l0.15,9.7H139.57z M184.36,130.38
			c0.5-1.35,1.52-2.71,2.88-4.07c1.37-1.54,3.07-2.75,4.93-3.72c1.88-1.25,3.77-1.91,5.64-2.42c1.87-0.49,3.4-0.85,4.58-0.85
			l0.7-2.05l2.2-1.17l5.27,9.37l-2.04,1.18c-1.02-0.67-2.21-1.36-3.4-2.2c-1.19-0.69-2.4-1.2-3.4-1.55
			c-1.19-0.29-2.38-0.29-3.75-0.19c-1.19,0-2.55,0.54-3.91,1.36c-1.71,0.88-2.89,2.09-3.57,3.59c-0.52,1.36-0.52,2.71,0,3.93
			c0.67,1.03,1.51,1.69,2.88,1.85c1.37,0.19,3.07,0,5.46-0.48c1.36-0.33,2.71-0.67,4.07-1.21c1.36-0.33,2.56-0.66,3.75-0.84
			c2.73-0.53,4.93-0.53,6.81,0c1.87,0.69,3.41,2.05,4.42,3.9c0.69,1.19,0.85,2.55,0.85,4.1c-0.15,1.55-0.5,3.07-1.19,4.45
			c-0.85,1.5-2.04,3.01-3.4,4.38c-1.36,1.37-3.24,2.75-5.45,4.1c-2.04,1.24-4.07,2.05-6.13,2.55c-2.04,0.7-3.73,1.03-5.27,1.22
			l-0.85,2.17l-2.04,1.22l-5.79-10.04l2.03-1.22c1.04,0.85,2.22,1.55,3.43,2.06c1.35,0.7,2.53,1.18,4.07,1.56
			c1.35,0.31,2.88,0.48,4.25,0.31c1.54-0.16,3.07-0.69,4.61-1.5c2.23-1.39,3.58-2.75,4.27-4.27c0.68-1.56,0.68-2.9,0-4.26
			c-0.51-1.02-1.55-1.7-2.91-1.85c-1.35-0.17-3.23,0-5.61,0.49c-1.53,0.49-2.9,0.82-4.08,1.19c-1.37,0.33-2.56,0.68-3.76,0.85
			c-2.55,0.51-4.76,0.51-6.63-0.33c-1.87-0.7-3.24-2.05-4.26-3.76c-0.53-1.16-0.85-2.36-0.85-3.77
			C183.31,133.28,183.67,131.93,184.36,130.38z M164.6,165.12c1.88,1.01,4.08,1.17,6.98,0.33c2.72-0.66,4.59-2.01,5.78-4.09
			c1.19-2.01,1.38-4.59,0.51-7.66l-2.88-10.71c-0.53-1.9-1.03-3.22-1.54-4.12c-0.51-0.81-1.02-1.52-1.71-1.67
			c-0.5-0.36-1.35-0.36-2.38-0.36c-1.18,0-1.87,0-2.39,0.21l-0.33-1.73l14.46-4.24l0.5,1.69c-0.5,0.17-1.19,0.5-1.86,1
			c-0.85,0.37-1.54,0.87-2.04,1.39c-0.52,0.51-0.68,1.33-0.68,2.37c0,1.02,0.16,2.57,0.68,4.43l3.22,11.73
			c0.85,3.58,0.35,6.65-1.52,9.37c-2.04,2.89-4.95,4.94-9.02,6.11c-4.77,1.38-8.84,1.38-11.92,0c-3.25-1.18-5.27-3.74-6.12-7.31
			l-4.26-16.18c-0.18-0.66-0.51-1-0.68-1.36c-0.36-0.36-0.85-0.51-1.53-0.65c-0.52,0-1.03,0-1.7,0c-0.53,0-1.03,0.14-1.54,0.14
			l-0.36-1.69l17.54-4.93l0.33,1.67c-0.33,0.21-0.84,0.39-1.34,0.54c-0.52,0.36-1.02,0.51-1.53,0.85c-0.54,0.34-0.84,0.82-1.03,1.19
			c0,0.52,0,1.01,0.18,1.54l4.08,16C161.37,162.05,162.72,164.25,164.6,165.12z M153.2,65.68c-6.99-3.88-18.21-6.29-18.21-6.29
			h-5.45c0,0-12.09-1.84-21.1,7.69c-8.85,9.33-8.17,21.79-8.17,21.79l7.98-11.46c0,0,1.04-0.65,0.52-2.21
			c-0.52-1.3-0.69-1.68-0.69-1.68v-2.2l34.57-0.33c0,0,9.35-0.38,9.35,9.18c0,9.53-6.46,10.03-6.46,10.03s10.04,2.08,10.04,13.1
			c0,11.26-11.93,14.17-11.93,14.17l-25.87,0.11c0,0-2.22-1.67,0.17-2.67c2.55-0.85,3.57-1.36,3.57-2.55c0-1.39,0-1.39,0-1.39
			s-5.62-0.68-9.52-5.58c-3.94-4.82-3.08-12.59-3.08-12.59l-5.09-0.21l-3.25,4.95c0,0,1.54,12.25,7.48,17.72
			c5.96,5.43,10.05,10.56,24.18,9.86c14.13-0.49,24.5-7.84,24.5-7.84l2.75-2.36c0,0,1.02-2.04,3.05-0.85
			c2.06,1.03-2.03,5.25-2.03,5.25s-8.53,11.59-30.48,12.95c-21.59,1.32-36.83-21.01-36.1-22.61c-0.59,0.86-2.91,4.28-1,5.25
			c2.38,1.38,1.19,3.22,1.19,3.22l-16.01,0.18c0,0-1.01,0.51-1.01-1.55c0-1.85,1.7-1.67,1.7-1.67s5.78-0.18,7.66-3.28
			c1.87-2.85,4.77-7.3,4.77-7.3s-1.7-9.69-1.36-13.77c0.35-4.11,3.41-25.73,20.07-32.86c16.88-6.97,33.55-1.37,33.55-1.37
			s3.07,1.7,5.28,0c2.21-1.73,3.06-3.43,4.75-0.18c1.55,3.25,4.95,8.53,4.95,8.53S160.01,69.59,153.2,65.68z"/>
		<path class="st0" d="M93.95,109.59c0,0.02,0,0.04,0,0.07C94.09,109.47,94.13,109.45,93.95,109.59z"/>
		<path class="st0" d="M116.93,100.93c1.36,2.87,4.6,3.58,4.6,3.58V92.8h-5.79C115.74,92.8,115.57,98.23,116.93,100.93z"/>
		<path class="st0" d="M128,0C57.43,0,0,57.42,0,127.99c0,70.5,57.43,127.84,128,127.84c70.57,0,128-57.33,128-127.84
			C256,57.42,198.57,0,128,0z M128,253.16c-69.09,0-125.33-56.13-125.33-125.17C2.67,58.91,58.91,2.7,128,2.7
			c69.1,0,125.3,56.21,125.3,125.29C253.3,197.03,197.1,253.16,128,253.16z"/>
		<path class="st0" d="M128,6.49C61.09,6.49,6.64,60.99,6.64,127.99c0,66.95,54.45,121.37,121.36,121.37
			c67.02,0,121.53-54.43,121.53-121.37C249.53,60.99,195.02,6.49,128,6.49z M236.28,149.26c-5.27,15.53-33.38,50.23-106.74,51.6
			c-73.36,1.55-104.19-38.11-104.19-38.11s-14.47-23.49,0.5-41.04C40.84,104.35,92.42,47.5,92.42,47.5s13.96-16.84,34.23-17.38
			c20.27-0.48,32.34,12.1,32.34,12.1l70.48,77.1C229.46,119.31,241.55,133.79,236.28,149.26z"/>
	</g>
</g>
</svg>
