<?xml version="1.0" encoding="utf-8"?>
<!-- Generator: Adobe Illustrator 24.0.0, SVG Export Plug-In . SVG Version: 6.00 Build 0)  -->
<svg version="1.1" id="Layer_1" xmlns="http://www.w3.org/2000/svg" xmlns:xlink="http://www.w3.org/1999/xlink" x="0px" y="0px"
	 viewBox="0 0 256 256" style="enable-background:new 0 0 256 256;" xml:space="preserve">
<g>
	<g>
		<path d="M129.2,92.9l0.3,13.2c0,0,4.9,1.1,8.7-2.2c3.7-3.3,2.9-2.8,2.9-2.8s0.5-0.5,1.7,0.4c1.2,1-0.7,3.4-0.7,3.4s-1.2,2-4.8,3.9
			c-3.6,1.7-7.5,2-7.5,2l-0.2,1.9c0,0,2.4,1.3,6.1,1.2c3.6-0.2,4.6-0.5,4.6-0.5s7.2-2,7.2-10.6c0-8.3-8.4-10-8.4-10L129.2,92.9
			L129.2,92.9z"/>
		<path d="M144,81.2c0-5.5-4.3-6-4.3-6h-10.9v2.9l6.1,0.2c0,0,1.7-1.9,3.6,0.3c1.9,2.2,2.1,3.4,2.1,3.4s0.3,3.9-3.4,0.5
			c-3.7-3.4-8.4-1.9-8.4-1.9v7.2h10.9C139.8,87.8,144,86.8,144,81.2z"/>
		<path d="M117.6,84.4c-1.7,2.2-1.7,3.4-1.7,3.4h5.4v-5.9C121.4,81.9,119.1,82.2,117.6,84.4z"/>
		<path d="M114.4,81.9c3.4-2.4,7.2-3.4,7.2-3.4s0.8-3.1-1.5-2.9c-2.6,0.1-4.6,0.3-4.6,0.3s-1.4,0-2.2,1.9c-1,1.8-5.8,10.2-5.8,10.2
			l2.4,0.2C109.8,88.2,111.2,84.3,114.4,81.9z"/>
		<path d="M98.9,143.8c-0.8-1-2.1-1.8-3.7-2.4c-2.7-0.7-5.3,0-7.7,2.2c-2.4,2-4.4,5.4-6,10c-0.7,1.9-1.2,3.9-1.5,5.6
			c-0.3,1.8-0.3,3.6-0.2,4.9c0.2,1.6,0.7,2.9,1.5,3.9c0.7,1,1.9,1.7,3.4,2.1c1.5,0.5,3.1,0.5,4.4,0c1.4-0.4,2.6-1.2,3.6-2.2
			c1.2-1.2,2.2-2.6,3.2-4.3c0.8-1.5,1.7-3.4,2.6-5.6c0.5-1.7,1-3.6,1.5-5.3c0.3-1.9,0.3-3.6,0.2-5.1
			C100.1,146.2,99.6,145,98.9,143.8z"/>
		<path d="M126.8,37c-18.8,0.3-31,16.8-31,16.8s-48.5,54.8-62.3,70.8c-13.8,16,0,34.4,0,34.4s28.4,35.6,96,34.2
			c67.4-1.4,94.3-31.8,99.1-46.2c4.9-14.1-8.2-26.6-8.2-26.6l-64.4-72C156.1,48.5,145.5,36.4,126.8,37z M48.3,149.8
			c0.2,0.5,0.7,1,1.4,1.7c0.7,0.5,1.5,1.2,2.9,2.2c1.2,0.8,2.4,1.7,3.8,2.4c1.2,0.7,2.2,1.1,3.1,0.9c1.2,0,2.5-0.5,4.2-1.2
			c1.7-0.7,3.1-1.4,4.3-2.1l1.7,1.2l-6.8,8.9l-30.1-21.6l1.2-1.5c0.5,0.4,1.2,0.7,1.9,1.2c0.8,0.4,1.3,0.7,1.7,0.7
			c0.7,0.2,1.2,0.2,1.7,0c0.3-0.1,0.8-0.5,1.2-1l13.5-20.6c0.3-0.5,0.5-0.9,0.7-1.3c0-0.5-0.2-1-0.7-1.7c-0.3-0.5-0.8-1.2-1.4-1.7
			c-0.7-0.7-1.2-1-1.5-1.4l1-1.7l18.1,13l-1.2,1.5c-0.5-0.2-1-0.5-1.9-1c-0.7-0.3-1.2-0.7-1.9-0.9c-0.7-0.3-1.4-0.3-1.7-0.2
			c-0.5,0.3-0.9,0.7-1.2,1.2l-12.6,19.1c-0.7,0.9-1,1.7-1.2,2.2C48.2,148.6,48.2,149.3,48.3,149.8z M107.8,160.6
			c-0.8,2.3-2.1,4.4-3.6,6.3c-1.5,1.7-3.2,3.2-5.3,4.2c-2.2,1.2-4.4,1.9-7,2.2c-2.4,0.2-5.1,0-8-0.8c-2.4-0.7-4.6-1.7-6.3-3.1
			c-1.9-1.2-3.4-2.9-4.4-4.8c-1.2-1.8-1.8-3.9-2-6.1c-0.2-2.2,0.2-4.6,1-7.1c1-2.6,2.2-4.8,3.9-6.5c1.7-1.9,3.6-3.4,5.6-4.4
			c2.2-1,4.4-1.6,7-1.9c2.4-0.2,4.8,0.2,7.3,0.9c2.4,0.7,4.6,1.7,6.5,3c1.9,1.4,3.2,2.9,4.4,4.6c1,1.9,1.7,3.9,1.9,6.3
			C109.1,155.6,108.6,157.9,107.8,160.6z M139.6,151.8c-0.3-1.5-1.2-3.1-2.2-4.6c-1-1.7-1.9-2.5-2.8-2.5c-0.5-0.2-1-0.2-1.7-0.2
			c-0.7,0-1.4,0-1.9,0h-1l0.5,26.4c0,0.5,0,1,0.2,1.3c0.3,0.5,0.7,0.9,1.2,1c0.3,0.2,0.9,0.4,1.5,0.5c0.7,0,1.4,0.2,1.9,0.2v1.9
			l-17.2,0.3v-1.8c0.3,0,1-0.2,1.7-0.2c0.9-0.2,1.4-0.2,1.5-0.4c0.5-0.3,1-0.7,1.2-1c0.2-0.5,0.2-1.1,0.2-1.6l-0.3-26.5h-1
			c-0.5,0-1.2,0-1.9,0c-0.7,0.2-1.2,0.2-1.7,0.2c-0.9,0.2-1.7,1.2-2.7,2.7c-0.8,1.7-1.5,3.2-2,4.8h-1.7l-0.2-9.7l30-0.5l0.1,9.7
			L139.6,151.8L139.6,151.8z M184.4,130.4c0.5-1.4,1.5-2.7,2.9-4.1c1.4-1.5,3.1-2.8,4.9-3.7c1.9-1.2,3.8-1.9,5.6-2.4
			c1.9-0.5,3.4-0.8,4.6-0.8l0.7-2.1l2.2-1.2l5.3,9.4l-2,1.2c-1-0.7-2.2-1.4-3.4-2.2c-1.2-0.7-2.4-1.2-3.4-1.6
			c-1.2-0.3-2.4-0.3-3.8-0.2c-1.2,0-2.6,0.5-3.9,1.4c-1.7,0.9-2.9,2.1-3.6,3.6c-0.5,1.4-0.5,2.7,0,3.9c0.7,1,1.5,1.7,2.9,1.9
			c1.4,0.2,3.1,0,5.5-0.5c1.4-0.3,2.7-0.7,4.1-1.2c1.4-0.3,2.6-0.7,3.8-0.8c2.7-0.5,4.9-0.5,6.8,0c1.9,0.7,3.4,2.1,4.4,3.9
			c0.7,1.2,0.9,2.6,0.9,4.1c-0.1,1.6-0.5,3.1-1.2,4.4c-0.9,1.5-2,3-3.4,4.4c-1.4,1.4-3.2,2.8-5.4,4.1c-2,1.2-4.1,2.1-6.1,2.6
			c-2,0.7-3.7,1-5.3,1.2l-0.9,2.2l-2,1.2l-5.8-10l2-1.2c1,0.9,2.2,1.6,3.4,2.1c1.4,0.7,2.5,1.2,4.1,1.6c1.4,0.3,2.9,0.5,4.2,0.3
			c1.5-0.2,3.1-0.7,4.6-1.5c2.2-1.4,3.6-2.8,4.3-4.3c0.7-1.6,0.7-2.9,0-4.3c-0.5-1-1.6-1.7-2.9-1.9c-1.4-0.2-3.2,0-5.6,0.5
			c-1.5,0.5-2.9,0.8-4.1,1.2c-1.4,0.3-2.6,0.7-3.8,0.9c-2.6,0.5-4.8,0.5-6.6-0.3c-1.9-0.7-3.2-2.1-4.3-3.8c-0.5-1.2-0.9-2.4-0.9-3.8
			C183.3,133.3,183.7,131.9,184.4,130.4z M164.6,165.1c1.9,1,4.1,1.2,7,0.3c2.7-0.7,4.6-2,5.8-4.1c1.2-2,1.4-4.6,0.5-7.7L175,143
			c-0.5-1.9-1-3.2-1.5-4.1c-0.5-0.8-1-1.5-1.7-1.7c-0.5-0.4-1.4-0.4-2.4-0.4c-1.2,0-1.9,0-2.4,0.2l-0.3-1.7l14.5-4.2l0.5,1.7
			c-0.5,0.2-1.2,0.5-1.9,1c-0.9,0.4-1.5,0.9-2,1.4c-0.5,0.5-0.7,1.3-0.7,2.4c0,1,0.2,2.6,0.7,4.4l3.2,11.7c0.9,3.6,0.4,6.6-1.5,9.4
			c-2,2.9-4.9,4.9-9,6.1c-4.8,1.4-8.8,1.4-11.9,0c-3.2-1.2-5.3-3.7-6.1-7.3l-4.3-16.2c-0.2-0.7-0.5-1-0.7-1.4
			c-0.4-0.4-0.9-0.5-1.5-0.6c-0.5,0-1,0-1.7,0c-0.5,0-1,0.1-1.5,0.1l-0.4-1.7l17.5-4.9l0.3,1.7c-0.3,0.2-0.8,0.4-1.3,0.5
			c-0.5,0.4-1,0.5-1.5,0.9c-0.5,0.3-0.8,0.8-1,1.2c0,0.5,0,1,0.2,1.5l4.1,16C161.4,162.1,162.7,164.2,164.6,165.1z M153.2,65.7
			c-7-3.9-18.2-6.3-18.2-6.3h-5.4c0,0-12.1-1.8-21.1,7.7c-8.8,9.3-8.2,21.8-8.2,21.8l8-11.5c0,0,1-0.7,0.5-2.2
			c-0.5-1.3-0.7-1.7-0.7-1.7v-2.2l34.6-0.3c0,0,9.4-0.4,9.4,9.2c0,9.5-6.5,10-6.5,10s10,2.1,10,13.1c0,11.3-11.9,14.2-11.9,14.2
			l-25.9,0.1c0,0-2.2-1.7,0.2-2.7c2.6-0.8,3.6-1.4,3.6-2.6c0-1.4,0-1.4,0-1.4s-5.6-0.7-9.5-5.6c-3.9-4.8-3.1-12.6-3.1-12.6l-5.1-0.2
			l-3.2,4.9c0,0,1.5,12.2,7.5,17.7c6,5.4,10.1,10.6,24.2,9.9c14.1-0.5,24.5-7.8,24.5-7.8l2.8-2.4c0,0,1-2,3.1-0.8c2.1,1-2,5.2-2,5.2
			s-8.5,11.6-30.5,13c-21.6,1.3-36.8-21-36.1-22.6c-0.6,0.9-2.9,4.3-1,5.2c2.4,1.4,1.2,3.2,1.2,3.2l-16,0.2c0,0-1,0.5-1-1.6
			c0-1.8,1.7-1.7,1.7-1.7s5.8-0.2,7.7-3.3c1.9-2.8,4.8-7.3,4.8-7.3s-1.7-9.7-1.4-13.8c0.3-4.1,3.4-25.7,20.1-32.9
			c16.9-7,33.6-1.4,33.6-1.4s3.1,1.7,5.3,0c2.2-1.7,3.1-3.4,4.8-0.2c1.6,3.2,4.9,8.5,4.9,8.5S160,69.6,153.2,65.7z"/>
		<path d="M93.9,109.6C93.9,109.6,93.9,109.6,93.9,109.6C94.1,109.5,94.1,109.4,93.9,109.6z"/>
		<path d="M116.9,100.9c1.4,2.9,4.6,3.6,4.6,3.6V92.8h-5.8C115.7,92.8,115.6,98.2,116.9,100.9z"/>
		<path d="M128,0C57.4,0,0,57.4,0,128c0,70.5,57.4,127.8,128,127.8S256,198.5,256,128C256,57.4,198.6,0,128,0z M128,253.2
			C58.9,253.2,2.7,197,2.7,128C2.7,58.9,58.9,2.7,128,2.7c69.1,0,125.3,56.2,125.3,125.3C253.3,197,197.1,253.2,128,253.2z"/>
		<path d="M128,6.5C61.1,6.5,6.6,61,6.6,128c0,67,54.5,121.4,121.4,121.4c67,0,121.5-54.4,121.5-121.4C249.5,61,195,6.5,128,6.5z
			 M236.3,149.3c-5.3,15.5-33.4,50.2-106.7,51.6c-73.4,1.6-104.2-38.1-104.2-38.1s-14.5-23.5,0.5-41c15-17.4,66.6-74.2,66.6-74.2
			s14-16.8,34.2-17.4c20.3-0.5,32.3,12.1,32.3,12.1l70.5,77.1C229.5,119.3,241.6,133.8,236.3,149.3z"/>
	</g>
</g>
</svg>
