<?xml version="1.0" encoding="utf-8"?>
<!-- Generator: Adobe Illustrator 24.0.0, SVG Export Plug-In . SVG Version: 6.00 Build 0)  -->
<svg version="1.1" id="Layer_1" xmlns="http://www.w3.org/2000/svg" xmlns:xlink="http://www.w3.org/1999/xlink" x="0px" y="0px"
	 viewBox="0 0 256 256" style="enable-background:new 0 0 256 256;" xml:space="preserve">
<style type="text/css">
	.st0{fill:#8699A3;}
</style>
<g>
	<path class="st0" d="M252.34,99H148.87c-2.92,0-5.31,0.9-7.04,2.66c-1.26,1.25-2.12,2.88-2.58,4.84c0,0.08-0.16,0.45-1,0.45h-20.48
		c-0.87,0-0.99-0.38-0.99-0.44c-0.47-1.96-1.34-3.61-2.59-4.85c-1.75-1.77-4.12-2.66-7.04-2.66H3.64c-0.67,0.04-2.3,0.17-3.23,1.63
		c-0.41,0.73-0.73,1.97,0.18,3.69c0.03,0,1.89,3.14,1.89,3.14c0.8,1.26,1.66,1.72,3.53,1.85c0.03,0,0.9,0.08,1.49,1.14l1.94,3.4
		c0.4,0.78,1.35,2.6,4.63,3.05c0.06,0,1,0.11,1.54,1.12l2.38,4.17c0.69,1.37,1.67,1.86,3.43,2.42l43.29,12.69
		c1.46,0.46,2.07,2.1,2.07,2.1c1.02,2.68,2.38,4.86,9.15,6.91c0,0.01,35.4,9.67,35.4,9.67c0.43,0.14,4.51,1.37,7.55-1.57l8.29-7.92
		c0,0,0.36-0.35,0.82-0.35c0.47,0,0.83,0.35,0.83,0.35c0.03,0.01,8.3,7.92,8.3,7.92c3.07,2.94,7.12,1.71,7.57,1.57
		c-0.02,0,35.38-9.66,35.41-9.67c6.73-2.05,8.15-4.28,9.11-6.91c0.05-0.12,0.61-1.64,2.07-2.1c0,0,6.56-1.92,43.27-12.69
		c1.79-0.56,2.76-1.05,3.46-2.42l2.35-4.13c0.54-1.04,1.49-1.16,1.54-1.16c3.3-0.43,4.25-2.25,4.69-3.05c-0.03,0,1.92-3.4,1.92-3.4
		c0.6-1.06,1.47-1.14,1.51-1.14c1.85-0.11,2.75-0.59,3.49-1.85c0,0.01,1.92-3.14,1.92-3.14c0.38-0.74,0.58-1.45,0.58-2.13
		c0-0.55-0.15-1.08-0.41-1.55C254.67,99.17,253.06,99.05,252.34,99z M141.14,106.94c0.36-1.61,1.05-2.93,2.05-3.92
		c1.38-1.37,3.27-2.07,5.68-2.07c0,0,23.14,0,47.53,0c-1.63,1.24-2.47,2.75-2.53,2.85c-0.56,1.02-1.25,2.25-2.07,3.62h-50.84
		C141.06,107.23,141.14,106.94,141.14,106.94z M180.77,118.34v-2.36l4.55,0.62c-0.62,0.76-1.25,1.51-1.92,2.29
		C182.22,118.65,181.33,118.47,180.77,118.34z M182.25,120.18c-0.48,0.52-0.97,1.06-1.48,1.61v-1.91L182.25,120.18z M180.77,114.47
		v-2.05l7.37,0.5c-0.53,0.75-1.13,1.52-1.72,2.31L180.77,114.47z M180.77,110.85v-1.95h10.11c-0.52,0.8-1.07,1.64-1.68,2.54
		L180.77,110.85z M107.14,100.95c2.41,0,4.3,0.7,5.68,2.07c1,0.99,1.7,2.31,2.05,3.92c0,0,0.07,0.28,0.19,0.49H64.21
		c-0.8-1.3-2.08-3.62-2.08-3.62c-0.05-0.1-0.89-1.63-2.53-2.85C83.99,100.95,107.14,100.95,107.14,100.95z M72.6,118.89
		c-0.66-0.78-1.31-1.53-1.92-2.29l4.53-0.62v2.37L72.6,118.89z M75.22,119.88v1.89c-0.48-0.54-0.97-1.07-1.47-1.6
		C74.34,120.07,74.83,119.97,75.22,119.88z M69.61,115.23c-0.61-0.79-1.2-1.56-1.74-2.31l7.35-0.5v2.05L69.61,115.23z M66.81,111.43
		c-0.61-0.88-1.17-1.72-1.69-2.52h10.09v1.95L66.81,111.43z M6.14,107.43c-1.3-0.11-1.59-0.26-1.99-0.94c0,0-1.72-2.88-1.87-3.07
		c-0.29-0.54-0.36-0.93-0.36-1.22c0.03-0.69,0.51-1.23,1.77-1.24h51.58c3.48,0,5.55,3.56,5.55,3.56c0.46,0.86,1,1.82,1.64,2.91H6.14
		z M13.13,114.73c-1.31-0.47-1.72-1.25-2-1.76c-0.8-1.38-1.85-3.4-2.38-4.06h54.61c0.54,0.83,1.1,1.71,1.71,2.64l-47.9,3.19
		C16.44,114.81,14.24,114.99,13.13,114.73z M19.61,121.14l-2.31-4.04c-0.15-0.32-0.32-0.57-0.53-0.78c0.31-0.03,49.33-3.3,49.33-3.3
		c0.56,0.8,1.15,1.62,1.79,2.44l-45.91,6.15C20.25,121.84,19.71,121.26,19.61,121.14z M33.12,126.03
		c-4.75-1.42-8.63-2.53-10.26-3.02l46.08-6.18c0.64,0.8,1.28,1.6,1.99,2.42l-31.56,6.46C38.22,125.95,34.84,126.47,33.12,126.03z
		 M48.75,130.61c-3.51-1.03-7.23-2.11-10.73-3.14c0.95-0.13,1.61-0.26,1.66-0.28c0,0,22.86-4.7,32.38-6.67
		c0.93,1.06,1.92,2.11,2.97,3.19l-21.14,6.52C53.83,130.26,50.97,131.21,48.75,130.61z M65.23,135.45
		c-0.45-0.13-5.48-1.62-11.93-3.5c0.61-0.13,1.03-0.28,1.05-0.3c0,0.01,17.75-5.47,21.9-6.76c1.5,1.49,3.15,2.94,4.88,4.38
		l-11.44,5.35C68.94,134.98,66.74,135.86,65.23,135.45z M107.47,141.45c-2.66-0.76-5.25-1.66-7.76-2.72
		c5.35-5.58,11.8-12.31,13.34-13.92h4.25L107.47,141.45z M119.04,124.81h3.57l-5.18,18.7c-2.89-0.42-5.71-0.96-8.47-1.67
		C112.74,135.46,117.76,126.96,119.04,124.81z M98.22,138.11c-2.13-0.97-4.24-2.04-6.31-3.2c6.11-4.39,12.51-8.95,14.1-10.09h4.96
		L98.22,138.11z M90.5,134.08c-2.25-1.36-4.43-2.84-6.56-4.49c4.86-2.25,9.38-4.38,10.24-4.78h9.27L90.5,134.08z M82.61,128.55
		c-0.1-0.09-3.05-2.57-4.3-3.74h12.34L82.61,128.55z M74.4,143.78c-4.48-1.7-5.15-3.4-5.79-5.01c-0.05-0.15-0.38-1.01-1.1-1.85
		c1.51-0.28,2.76-0.92,2.84-0.95c-0.03,0,6.04-2.83,12.06-5.67c2.21,1.72,4.46,3.29,6.76,4.71l-10.68,7.67
		C78.46,142.7,76.24,144.36,74.4,143.78z M87.22,147.39l-9.47-2.58c0.93-0.41,1.59-0.89,1.64-0.93c0,0,5.27-3.79,11.19-8.01
		c2.12,1.25,4.33,2.39,6.55,3.4l-6.22,6.51C90.37,146.31,88.63,147.72,87.22,147.39z M100.35,150.96l-10.19-2.76
		c1.05-0.61,1.76-1.37,1.84-1.43c0,0,2.92-3.04,6.58-6.86c2.64,1.1,5.33,2.05,8.09,2.86l-3.35,5.71
		C102.91,149.22,101.53,151.16,100.35,150.96z M113.61,153.79c-0.59,0.36-1.25,0.43-2.04,0.26l-8.92-2.44
		c1.1-0.89,1.82-2.14,1.95-2.39c0,0,1.51-2.55,3.56-6.04c2.9,0.77,5.84,1.37,8.87,1.78l-1.72,6.22
		C115.28,151.19,114.89,153.02,113.61,153.79z M117.56,153.02c-0.7,0.65-1.44,1.04-2.18,1.2c0.98-1.09,1.33-2.49,1.39-2.72
		l1.75-6.36c2.21,0.28,4.46,0.44,6.74,0.51C123.44,147.39,117.56,153.02,117.56,153.02z M127.26,144.18c-2.85,0-5.61-0.19-8.34-0.48
		l5.24-18.88h3.1V144.18L127.26,144.18z M76.75,123.32c0,0-0.03-0.02-0.03-0.04v-14.36h102.56v14.38l-0.04,0.01H76.75L76.75,123.32z
		 M138.7,124.81h4.22l13.37,13.94c-2.52,1.04-5.09,1.94-7.77,2.68L138.7,124.81z M147.02,141.84c-2.74,0.71-5.56,1.25-8.46,1.67
		l-5.17-18.7h3.55L147.02,141.84z M145.03,124.81h4.96l14.11,10.09c-2.07,1.19-4.17,2.24-6.32,3.2
		C153.11,133.26,147.54,127.44,145.03,124.81z M152.55,124.81h9.26l10.24,4.78c-2.12,1.65-4.3,3.12-6.56,4.49
		C160.57,130.53,155.37,126.82,152.55,124.81z M165.35,124.81h12.34c-1.26,1.27-4.23,3.69-4.31,3.74
		C170.38,127.16,167.45,125.77,165.35,124.81z M128.75,144.18v-19.37h3.09l5.25,18.88C134.36,144.01,131.58,144.18,128.75,144.18z
		 M137.17,151.78c0,0-4.81-4.59-6.43-6.13c2.29-0.07,4.53-0.25,6.73-0.51l1.78,6.37c0.04,0.22,0.4,1.61,1.38,2.71
		C139.29,153.85,138.88,153.45,137.17,151.78z M144.43,154.06c-0.79,0.16-1.45,0.09-2.04-0.26c-1.22-0.76-1.66-2.5-1.69-2.6
		l-1.71-6.22c3.02-0.41,5.96-1.03,8.82-1.78l3.59,6.05c0.13,0.23,0.85,1.48,1.94,2.37L144.43,154.06z M155.66,150.96
		c-1.18,0.19-2.54-1.74-2.95-2.46l-3.38-5.74c2.77-0.81,5.46-1.76,8.1-2.86l6.57,6.86c0.08,0.06,0.79,0.82,1.85,1.43L155.66,150.96z
		 M170.48,146.93l-1.69,0.46c-1.41,0.33-3.16-1.07-3.69-1.63c0,0-2.74-2.85-6.22-6.51c2.23-1,4.42-2.14,6.55-3.4l11.22,8.02
		c0.04,0.03,0.69,0.52,1.61,0.92C175.77,145.49,170.48,146.93,170.48,146.93z M187.39,138.77c-0.63,1.61-1.3,3.31-5.77,5.01
		c-1.87,0.55-4.08-1.07-4.08-1.09c-0.02,0-5.01-3.59-10.69-7.68c2.31-1.42,4.56-2.97,6.76-4.7l12.09,5.65
		c0.07,0.03,1.29,0.67,2.82,0.95C187.77,137.74,187.45,138.6,187.39,138.77z M190.78,135.45c-1.49,0.41-3.72-0.47-4.43-0.83
		c0,0-5.66-2.64-11.47-5.35c1.74-1.44,3.38-2.89,4.89-4.36l21.89,6.75c0.05,0.01,0.46,0.15,1.04,0.28L190.78,135.45z M207.26,130.61
		c-2.2,0.61-5.1-0.35-5.14-0.35l-0.03-0.04l-21.13-6.5c1.05-1.05,2.06-2.14,3-3.2l32.37,6.67c0.05,0.02,0.71,0.15,1.66,0.28
		L207.26,130.61z M222.91,126.03c-1.74,0.44-5.12-0.08-6.28-0.33c0,0-21.61-4.42-31.54-6.47c0.7-0.8,1.34-1.62,1.97-2.4l46.08,6.18
		L222.91,126.03z M238.7,117.12c0-0.01-1.89,3.34-2.28,4.03c-0.11,0.11-0.65,0.7-2.41,0.47l-45.9-6.15
		c0.64-0.83,1.23-1.64,1.79-2.44l48.77,3.24c0.05,0.01,0.26,0.03,0.57,0.06C239.03,116.54,238.85,116.83,238.7,117.12z
		 M246.84,109.52l-1.97,3.45c-0.29,0.51-0.69,1.29-2.01,1.76c-1.09,0.26-3.27,0.08-4.03,0l-47.9-3.19c0.62-0.93,1.2-1.81,1.72-2.64
		h54.6C247.1,109.09,246.97,109.28,246.84,109.52z M253.73,103.41c-0.03,0.02-1.87,3.07-1.87,3.07c-0.36,0.56-0.57,0.83-2,0.94
		h-56.3c0.62-1.09,1.15-2.06,1.61-2.91c0.03-0.02,2.03-3.56,5.56-3.56h51.59c0.54,0,1.25,0.09,1.61,0.7
		c0.05,0.07,0.15,0.25,0.15,0.55C254.08,102.48,254.01,102.87,253.73,103.41z"/>
	<path class="st0" d="M83.1,111.2l-4.38,9.82h1.21v-0.07c0.36-1.18,0.82-2.33,1.25-3.42c0,0,0.08-0.16,0.11-0.24
		c0.1,0,3.28,0,3.38,0c0.46,1.04,0.95,2.25,1.43,3.69l0.03,0.05h1.65l-4.22-9.82H83.1L83.1,111.2z M81.62,116.52
		c0.09-0.18,1.23-2.91,1.39-3.23c0.12,0.32,1.3,3.05,1.38,3.23C84.17,116.52,81.84,116.52,81.62,116.52z"/>
	<path class="st0" d="M91.73,115.45c-1.03-0.41-2-0.78-2-1.96c0-0.89,0.69-1.53,1.64-1.53c0.76,0,1.34,0.42,1.63,1.15l0.03,0.06
		h0.26l0.41-1.22l-0.05-0.05c-0.54-0.51-1.41-0.7-2.02-0.7c-1.92,0-3.15,1.07-3.15,2.72c0,1.71,1.26,2.19,2.38,2.65
		c1,0.38,1.95,0.75,1.95,1.92c0,1.07-0.83,1.93-1.85,1.93c-0.92,0-1.56-0.43-2.15-1.4l-0.02-0.04h-0.26l-0.3,1.34l0.04,0.02
		c0.51,0.57,1.69,0.83,2.31,0.83c2.06,0,3.51-1.31,3.51-3.23C94.08,116.37,92.88,115.9,91.73,115.45z"/>
	<path class="st0" d="M101.89,112.42v-1.01h-0.07H94.6v1.01l0.1-0.02c0.82-0.09,1.64-0.16,2.94-0.16c0,0.18,0,8.81,0,8.81h1.39
		c0,0,0-8.63,0-8.81c0.98,0,1.89,0.06,2.79,0.16L101.89,112.42z"/>
	<path class="st0" d="M106.78,111.2c-3.07,0-5.2,2.07-5.2,5.01c0,2.97,2.08,4.96,5.18,4.96c3.2,0,5.36-2.07,5.36-5.15
		C112.11,112.69,109.42,111.2,106.78,111.2z M110.58,116.32c0,0.9-0.37,2.23-1.23,3.14c-0.7,0.72-1.54,1.1-2.57,1.1
		c-2.22,0-3.69-1.63-3.69-4.18c0-2.8,1.48-4.56,3.82-4.56c1.13,0,2.19,0.49,2.82,1.32c0.68,0.91,0.85,1.86,0.85,2.98
		C110.58,116.16,110.58,116.24,110.58,116.32z"/>
	<path class="st0" d="M120.83,111.41c0,0,0,6.93,0,7.11c-0.05-0.05-6.58-7.11-6.58-7.11h-0.64v9.61h0.92c0,0,0-7.28,0-7.45
		c0.03,0,0.03,0,0.03,0c0.05,0.06,5.94,6.56,5.94,6.56l0.74,0.87l0.03,0.01h0.51v-9.61h-0.08H120.83z"/>
	<path class="st0" d="M137.29,111.41h-0.07h-0.34l-2.32,4.22c0,0-1.49,2.66-1.61,2.92c-1.44-2.4-2.72-4.91-3.82-7.1l-0.02-0.04
		h-0.49l-0.02,0.09c-0.13,1.39-0.95,7.2-1.31,9.42l-0.03,0.11h1.15v-0.07c0-1.37,0.26-3.4,0.51-5.54c0,0,0.11-0.95,0.16-1.33
		c0.16,0.32,1.97,3.76,2.64,5.18l0.8,1.59h0.26l0.03-0.06c0.8-1.83,1.94-3.95,3.47-6.72c0.23,1.66,0.52,4.96,0.67,6.87l0.02,0.07
		h1.46v-0.11c-0.33-2.33-0.69-5.42-1.12-9.42V111.41L137.29,111.41z"/>
	<path class="st0" d="M143.75,111.2h-0.39l-4.38,9.82h1.18l0.03-0.07c0.36-1.19,0.82-2.36,1.25-3.46c0,0,0.07-0.13,0.1-0.21
		c0.11,0,3.28,0,3.38,0c0.46,1.06,0.95,2.3,1.44,3.69l0.03,0.05h1.63l-4.22-9.82H143.75L143.75,111.2z M141.88,116.52
		c0.08-0.18,1.23-2.88,1.36-3.23c0.15,0.32,1.33,3.05,1.4,3.23C144.41,116.52,142.11,116.52,141.88,116.52z"/>
	<path class="st0" d="M155,113.6c0-1.47-1.04-2.19-3.17-2.19h-2.92h-0.06v9.61h1.38c0,0,0-4.45,0-4.61c0.1,0,0.33,0,0.37,0
		c0.05,0.05,1.11,1.28,1.11,1.28c-0.03,0,1.61,2.09,1.61,2.09l0.89,1.24h0.06h1.76c0,0-3.63-4.57-3.81-4.76
		C153.96,115.92,155,114.93,155,113.6z M150.23,115.71c0-0.15,0-3.47,0-3.62c0.56-0.03,1.43-0.08,1.92,0.01
		c0.96,0.15,1.46,0.71,1.46,1.65c0,0.97-0.65,1.68-1.72,1.89C151.3,115.77,150.58,115.74,150.23,115.71z"/>
	<path class="st0" d="M155.78,111.41v1.01l0.11-0.02c0.81-0.09,1.6-0.16,2.91-0.16c0,0.18,0,8.81,0,8.81h1.38c0,0,0-8.63,0-8.81
		c1,0,1.92,0.06,2.79,0.16l0.1,0.02v-1.01H163H155.78z"/>
	<rect x="164.23" y="111.43" class="st0" width="1.3" height="9.59"/>
	<path class="st0" d="M174.81,118.52c0,0,0,0-0.04,0c-0.05-0.05-6.55-7.11-6.55-7.11h-0.67v9.61h0.95c0,0,0-7.28,0-7.45h0.03
		c0.04,0.06,5.94,6.56,5.94,6.56l0.75,0.87l0.53,0.01v-9.61h-0.94C174.81,111.41,174.81,118.34,174.81,118.52z"/>
</g>
</svg>
