<?xml version="1.0" encoding="utf-8"?>
<!-- Generator: Adobe Illustrator 24.0.0, SVG Export Plug-In . SVG Version: 6.00 Build 0)  -->
<svg version="1.1" id="Layer_1" xmlns="http://www.w3.org/2000/svg" xmlns:xlink="http://www.w3.org/1999/xlink" x="0px" y="0px"
	 viewBox="0 0 256 256" style="enable-background:new 0 0 256 256;" xml:space="preserve">
<g>
	<path d="M252.3,99H148.9c-2.9,0-5.3,0.9-7,2.7c-1.3,1.2-2.1,2.9-2.6,4.8c0,0.1-0.2,0.4-1,0.4h-20.5c-0.9,0-1-0.4-1-0.4
		c-0.5-2-1.3-3.6-2.6-4.8c-1.8-1.8-4.1-2.7-7-2.7H3.6c-0.7,0-2.3,0.2-3.2,1.6c-0.4,0.7-0.7,2,0.2,3.7c0,0,1.9,3.1,1.9,3.1
		c0.8,1.3,1.7,1.7,3.5,1.8c0,0,0.9,0.1,1.5,1.1l1.9,3.4c0.4,0.8,1.4,2.6,4.6,3.1c0.1,0,1,0.1,1.5,1.1l2.4,4.2
		c0.7,1.4,1.7,1.9,3.4,2.4l43.3,12.7c1.5,0.5,2.1,2.1,2.1,2.1c1,2.7,2.4,4.9,9.2,6.9c0,0,35.4,9.7,35.4,9.7c0.4,0.1,4.5,1.4,7.6-1.6
		l8.3-7.9c0,0,0.4-0.4,0.8-0.4c0.5,0,0.8,0.4,0.8,0.4c0,0,8.3,7.9,8.3,7.9c3.1,2.9,7.1,1.7,7.6,1.6c0,0,35.4-9.7,35.4-9.7
		c6.7-2.1,8.1-4.3,9.1-6.9c0.1-0.1,0.6-1.6,2.1-2.1c0,0,6.6-1.9,43.3-12.7c1.8-0.6,2.8-1.1,3.5-2.4l2.4-4.1c0.5-1,1.5-1.2,1.5-1.2
		c3.3-0.4,4.2-2.2,4.7-3.1c0,0,1.9-3.4,1.9-3.4c0.6-1.1,1.5-1.1,1.5-1.1c1.9-0.1,2.8-0.6,3.5-1.8c0,0,1.9-3.1,1.9-3.1
		c0.4-0.7,0.6-1.4,0.6-2.1c0-0.6-0.1-1.1-0.4-1.6C254.7,99.2,253.1,99.1,252.3,99z M141.1,106.9c0.4-1.6,1.1-2.9,2.1-3.9
		c1.4-1.4,3.3-2.1,5.7-2.1c0,0,23.1,0,47.5,0c-1.6,1.2-2.5,2.8-2.5,2.8c-0.6,1-1.2,2.2-2.1,3.6H141
		C141.1,107.2,141.1,106.9,141.1,106.9z M180.8,118.3V116l4.6,0.6c-0.6,0.8-1.2,1.5-1.9,2.3C182.2,118.7,181.3,118.5,180.8,118.3z
		 M182.2,120.2c-0.5,0.5-1,1.1-1.5,1.6v-1.9L182.2,120.2z M180.8,114.5v-2.1l7.4,0.5c-0.5,0.8-1.1,1.5-1.7,2.3L180.8,114.5z
		 M180.8,110.8v-1.9h10.1c-0.5,0.8-1.1,1.6-1.7,2.5L180.8,110.8z M107.1,100.9c2.4,0,4.3,0.7,5.7,2.1c1,1,1.7,2.3,2.1,3.9
		c0,0,0.1,0.3,0.2,0.5H64.2c-0.8-1.3-2.1-3.6-2.1-3.6c0-0.1-0.9-1.6-2.5-2.8C84,100.9,107.1,100.9,107.1,100.9z M72.6,118.9
		c-0.7-0.8-1.3-1.5-1.9-2.3l4.5-0.6v2.4L72.6,118.9z M75.2,119.9v1.9c-0.5-0.5-1-1.1-1.5-1.6C74.3,120.1,74.8,120,75.2,119.9z
		 M69.6,115.2c-0.6-0.8-1.2-1.6-1.7-2.3l7.3-0.5v2.1L69.6,115.2z M66.8,111.4c-0.6-0.9-1.2-1.7-1.7-2.5h10.1v1.9L66.8,111.4z
		 M6.1,107.4c-1.3-0.1-1.6-0.3-2-0.9c0,0-1.7-2.9-1.9-3.1c-0.3-0.5-0.4-0.9-0.4-1.2c0-0.7,0.5-1.2,1.8-1.2h51.6
		c3.5,0,5.5,3.6,5.5,3.6c0.5,0.9,1,1.8,1.6,2.9H6.1z M13.1,114.7c-1.3-0.5-1.7-1.2-2-1.8c-0.8-1.4-1.9-3.4-2.4-4.1h54.6
		c0.5,0.8,1.1,1.7,1.7,2.6l-47.9,3.2C16.4,114.8,14.2,115,13.1,114.7z M19.6,121.1l-2.3-4c-0.1-0.3-0.3-0.6-0.5-0.8
		c0.3,0,49.3-3.3,49.3-3.3c0.6,0.8,1.2,1.6,1.8,2.4L22,121.6C20.2,121.8,19.7,121.3,19.6,121.1z M33.1,126c-4.8-1.4-8.6-2.5-10.3-3
		l46.1-6.2c0.6,0.8,1.3,1.6,2,2.4l-31.6,6.5C38.2,125.9,34.8,126.5,33.1,126z M48.8,130.6c-3.5-1-7.2-2.1-10.7-3.1
		c1-0.1,1.6-0.3,1.7-0.3c0,0,22.9-4.7,32.4-6.7c0.9,1.1,1.9,2.1,3,3.2l-21.1,6.5C53.8,130.3,51,131.2,48.8,130.6z M65.2,135.4
		c-0.4-0.1-5.5-1.6-11.9-3.5c0.6-0.1,1-0.3,1-0.3c0,0,17.8-5.5,21.9-6.8c1.5,1.5,3.2,2.9,4.9,4.4l-11.4,5.4
		C68.9,135,66.7,135.9,65.2,135.4z M107.5,141.4c-2.7-0.8-5.2-1.7-7.8-2.7c5.3-5.6,11.8-12.3,13.3-13.9h4.2L107.5,141.4z M119,124.8
		h3.6l-5.2,18.7c-2.9-0.4-5.7-1-8.5-1.7C112.7,135.5,117.8,127,119,124.8z M98.2,138.1c-2.1-1-4.2-2-6.3-3.2
		c6.1-4.4,12.5-8.9,14.1-10.1h5L98.2,138.1z M90.5,134.1c-2.2-1.4-4.4-2.8-6.6-4.5c4.9-2.2,9.4-4.4,10.2-4.8h9.3L90.5,134.1z
		 M82.6,128.6c-0.1-0.1-3.1-2.6-4.3-3.7h12.3L82.6,128.6z M74.4,143.8c-4.5-1.7-5.2-3.4-5.8-5c-0.1-0.1-0.4-1-1.1-1.9
		c1.5-0.3,2.8-0.9,2.8-0.9c0,0,6-2.8,12.1-5.7c2.2,1.7,4.5,3.3,6.8,4.7l-10.7,7.7C78.5,142.7,76.2,144.4,74.4,143.8z M87.2,147.4
		l-9.5-2.6c0.9-0.4,1.6-0.9,1.6-0.9c0,0,5.3-3.8,11.2-8c2.1,1.2,4.3,2.4,6.6,3.4l-6.2,6.5C90.4,146.3,88.6,147.7,87.2,147.4z
		 M100.3,151l-10.2-2.8c1.1-0.6,1.8-1.4,1.8-1.4c0,0,2.9-3,6.6-6.9c2.6,1.1,5.3,2.1,8.1,2.9l-3.3,5.7
		C102.9,149.2,101.5,151.2,100.3,151z M113.6,153.8c-0.6,0.4-1.2,0.4-2,0.3l-8.9-2.4c1.1-0.9,1.8-2.1,1.9-2.4c0,0,1.5-2.6,3.6-6
		c2.9,0.8,5.8,1.4,8.9,1.8l-1.7,6.2C115.3,151.2,114.9,153,113.6,153.8z M117.6,153c-0.7,0.6-1.4,1-2.2,1.2c1-1.1,1.3-2.5,1.4-2.7
		l1.8-6.4c2.2,0.3,4.5,0.4,6.7,0.5C123.4,147.4,117.6,153,117.6,153z M127.3,144.2c-2.8,0-5.6-0.2-8.3-0.5l5.2-18.9h3.1L127.3,144.2
		L127.3,144.2z M76.8,123.3C76.8,123.3,76.7,123.3,76.8,123.3l0-14.4h102.6v14.4l0,0L76.8,123.3L76.8,123.3z M138.7,124.8h4.2
		l13.4,13.9c-2.5,1-5.1,1.9-7.8,2.7L138.7,124.8z M147,141.8c-2.7,0.7-5.6,1.2-8.5,1.7l-5.2-18.7h3.6L147,141.8z M145,124.8h5
		l14.1,10.1c-2.1,1.2-4.2,2.2-6.3,3.2C153.1,133.3,147.5,127.4,145,124.8z M152.6,124.8h9.3l10.2,4.8c-2.1,1.6-4.3,3.1-6.6,4.5
		C160.6,130.5,155.4,126.8,152.6,124.8z M165.4,124.8h12.3c-1.3,1.3-4.2,3.7-4.3,3.7C170.4,127.2,167.4,125.8,165.4,124.8z
		 M128.8,144.2v-19.4h3.1l5.2,18.9C134.4,144,131.6,144.2,128.8,144.2z M137.2,151.8c0,0-4.8-4.6-6.4-6.1c2.3-0.1,4.5-0.2,6.7-0.5
		l1.8,6.4c0,0.2,0.4,1.6,1.4,2.7C139.3,153.9,138.9,153.4,137.2,151.8z M144.4,154.1c-0.8,0.2-1.4,0.1-2-0.3
		c-1.2-0.8-1.7-2.5-1.7-2.6L139,145c3-0.4,6-1,8.8-1.8l3.6,6.1c0.1,0.2,0.9,1.5,1.9,2.4L144.4,154.1z M155.7,151
		c-1.2,0.2-2.5-1.7-2.9-2.5l-3.4-5.7c2.8-0.8,5.5-1.8,8.1-2.9l6.6,6.9c0.1,0.1,0.8,0.8,1.9,1.4L155.7,151z M170.5,146.9l-1.7,0.5
		c-1.4,0.3-3.2-1.1-3.7-1.6c0,0-2.7-2.9-6.2-6.5c2.2-1,4.4-2.1,6.6-3.4l11.2,8c0,0,0.7,0.5,1.6,0.9
		C175.8,145.5,170.5,146.9,170.5,146.9z M187.4,138.8c-0.6,1.6-1.3,3.3-5.8,5c-1.9,0.6-4.1-1.1-4.1-1.1c0,0-5-3.6-10.7-7.7
		c2.3-1.4,4.6-3,6.8-4.7l12.1,5.6c0.1,0,1.3,0.7,2.8,0.9C187.8,137.7,187.4,138.6,187.4,138.8z M190.8,135.4
		c-1.5,0.4-3.7-0.5-4.4-0.8c0,0-5.7-2.6-11.5-5.4c1.7-1.4,3.4-2.9,4.9-4.4l21.9,6.8c0.1,0,0.5,0.1,1,0.3L190.8,135.4z M207.3,130.6
		c-2.2,0.6-5.1-0.4-5.1-0.4l0,0l-21.1-6.5c1.1-1.1,2.1-2.1,3-3.2l32.4,6.7c0.1,0,0.7,0.2,1.7,0.3L207.3,130.6z M222.9,126
		c-1.7,0.4-5.1-0.1-6.3-0.3c0,0-21.6-4.4-31.5-6.5c0.7-0.8,1.3-1.6,2-2.4l46.1,6.2L222.9,126z M238.7,117.1c0,0-1.9,3.3-2.3,4
		c-0.1,0.1-0.6,0.7-2.4,0.5l-45.9-6.2c0.6-0.8,1.2-1.6,1.8-2.4l48.8,3.2c0.1,0,0.3,0,0.6,0.1C239,116.5,238.9,116.8,238.7,117.1z
		 M246.8,109.5l-2,3.4c-0.3,0.5-0.7,1.3-2,1.8c-1.1,0.3-3.3,0.1-4,0l-47.9-3.2c0.6-0.9,1.2-1.8,1.7-2.6h54.6
		C247.1,109.1,247,109.3,246.8,109.5z M253.7,103.4c0,0-1.9,3.1-1.9,3.1c-0.4,0.6-0.6,0.8-2,0.9h-56.3c0.6-1.1,1.1-2.1,1.6-2.9
		c0,0,2-3.6,5.6-3.6h51.6c0.5,0,1.2,0.1,1.6,0.7c0.1,0.1,0.1,0.2,0.1,0.6C254.1,102.5,254,102.9,253.7,103.4z"/>
	<path d="M83.1,111.2l-4.4,9.8h1.2v-0.1c0.4-1.2,0.8-2.3,1.2-3.4c0,0,0.1-0.2,0.1-0.2c0.1,0,3.3,0,3.4,0c0.5,1,0.9,2.2,1.4,3.7
		l0,0.1h1.7l-4.2-9.8L83.1,111.2L83.1,111.2z M81.6,116.5c0.1-0.2,1.2-2.9,1.4-3.2c0.1,0.3,1.3,3.1,1.4,3.2
		C84.2,116.5,81.8,116.5,81.6,116.5z"/>
	<path d="M91.7,115.4c-1-0.4-2-0.8-2-2c0-0.9,0.7-1.5,1.6-1.5c0.8,0,1.3,0.4,1.6,1.2l0,0.1h0.3l0.4-1.2l-0.1-0.1
		c-0.5-0.5-1.4-0.7-2-0.7c-1.9,0-3.2,1.1-3.2,2.7c0,1.7,1.3,2.2,2.4,2.7c1,0.4,1.9,0.8,1.9,1.9c0,1.1-0.8,1.9-1.8,1.9
		c-0.9,0-1.6-0.4-2.2-1.4l0,0h-0.3l-0.3,1.3l0,0c0.5,0.6,1.7,0.8,2.3,0.8c2.1,0,3.5-1.3,3.5-3.2C94.1,116.4,92.9,115.9,91.7,115.4z"
		/>
	<path d="M101.9,112.4v-1h-0.1h-7.2v1l0.1,0c0.8-0.1,1.6-0.2,2.9-0.2c0,0.2,0,8.8,0,8.8H99c0,0,0-8.6,0-8.8
		C100,112.2,100.9,112.3,101.9,112.4L101.9,112.4z"/>
	<path d="M106.8,111.2c-3.1,0-5.2,2.1-5.2,5c0,3,2.1,5,5.2,5c3.2,0,5.4-2.1,5.4-5.2C112.1,112.7,109.4,111.2,106.8,111.2z
		 M110.6,116.3c0,0.9-0.4,2.2-1.2,3.1c-0.7,0.7-1.5,1.1-2.6,1.1c-2.2,0-3.7-1.6-3.7-4.2c0-2.8,1.5-4.6,3.8-4.6
		c1.1,0,2.2,0.5,2.8,1.3c0.7,0.9,0.8,1.9,0.8,3C110.6,116.2,110.6,116.2,110.6,116.3z"/>
	<path d="M120.8,111.4c0,0,0,6.9,0,7.1c-0.1-0.1-6.6-7.1-6.6-7.1h-0.6v9.6h0.9c0,0,0-7.3,0-7.4c0,0,0,0,0,0c0.1,0.1,5.9,6.6,5.9,6.6
		l0.7,0.9l0,0h0.5v-9.6h-0.1L120.8,111.4L120.8,111.4z"/>
	<path d="M137.3,111.4L137.3,111.4h-0.4l-2.3,4.2c0,0-1.5,2.7-1.6,2.9c-1.4-2.4-2.7-4.9-3.8-7.1l0,0h-0.5l0,0.1
		c-0.1,1.4-0.9,7.2-1.3,9.4l0,0.1h1.1V121c0-1.4,0.3-3.4,0.5-5.5c0,0,0.1-0.9,0.2-1.3c0.2,0.3,2,3.8,2.6,5.2l0.8,1.6h0.3l0-0.1
		c0.8-1.8,1.9-3.9,3.5-6.7c0.2,1.7,0.5,5,0.7,6.9l0,0.1h1.5v-0.1C138.1,118.6,137.7,115.5,137.3,111.4L137.3,111.4L137.3,111.4z"/>
	<path d="M143.8,111.2h-0.4L139,121h1.2l0-0.1c0.4-1.2,0.8-2.4,1.2-3.5c0,0,0.1-0.1,0.1-0.2c0.1,0,3.3,0,3.4,0
		c0.5,1.1,0.9,2.3,1.4,3.7l0,0.1h1.6L143.8,111.2L143.8,111.2L143.8,111.2z M141.9,116.5c0.1-0.2,1.2-2.9,1.4-3.2
		c0.1,0.3,1.3,3.1,1.4,3.2C144.4,116.5,142.1,116.5,141.9,116.5z"/>
	<path d="M155,113.6c0-1.5-1-2.2-3.2-2.2h-2.9h-0.1v9.6h1.4c0,0,0-4.4,0-4.6c0.1,0,0.3,0,0.4,0c0.1,0.1,1.1,1.3,1.1,1.3
		c0,0,1.6,2.1,1.6,2.1l0.9,1.2h0.1h1.8c0,0-3.6-4.6-3.8-4.8C154,115.9,155,114.9,155,113.6z M150.2,115.7c0-0.2,0-3.5,0-3.6
		c0.6,0,1.4-0.1,1.9,0c1,0.2,1.5,0.7,1.5,1.7c0,1-0.6,1.7-1.7,1.9C151.3,115.8,150.6,115.7,150.2,115.7z"/>
	<path d="M155.8,111.4v1l0.1,0c0.8-0.1,1.6-0.2,2.9-0.2c0,0.2,0,8.8,0,8.8h1.4c0,0,0-8.6,0-8.8c1,0,1.9,0.1,2.8,0.2l0.1,0v-1H163
		H155.8z"/>
	<rect x="164.2" y="111.4" width="1.3" height="9.6"/>
	<path d="M174.8,118.5C174.8,118.5,174.8,118.5,174.8,118.5c-0.1-0.1-6.6-7.1-6.6-7.1h-0.7v9.6h0.9c0,0,0-7.3,0-7.4h0
		c0,0.1,5.9,6.6,5.9,6.6l0.8,0.9l0.5,0v-9.6h-0.9C174.8,111.4,174.8,118.3,174.8,118.5z"/>
</g>
</svg>
