<?xml version="1.0" encoding="utf-8"?>
<!-- Generator: Adobe Illustrator 24.0.0, SVG Export Plug-In . SVG Version: 6.00 Build 0)  -->
<svg version="1.1" id="Layer_1" xmlns="http://www.w3.org/2000/svg" xmlns:xlink="http://www.w3.org/1999/xlink" x="0px" y="0px"
	 viewBox="0 0 250 250" style="enable-background:new 0 0 250 250;" xml:space="preserve">
<g>
	<path d="M184.6,222.4c-0.2,0-0.4,0-0.6-0.1l0,0h0c0,0,0,0,0,0l0,0h0l0,0c0,0,0,0,0,0L11.8,178.2c-7.7-4-11.5-8.5-11.8-13.5
		c-0.4-7.6,7.4-13.1,7.8-13.3c0.5-0.4,1.3-0.5,1.9-0.4l1.7,0.4L10,131.9c-0.1-0.8,0.3-1.7,1-2.2c0.7-0.5,1.6-0.6,2.4-0.3
		c0.9,0.4,95.5,36.8,200.8,45.4c0.9,0.1,1.7,0.6,2,1.4c0.4,0.8,0.3,1.8-0.3,2.5L202.7,197c1,3.3,3,12.1-1.5,18.5
		C198.1,220,192.5,222.4,184.6,222.4C184.6,222.4,184.6,222.4,184.6,222.4z M191,193.5c-7.9,4.7-12.1,9.6-12.2,14.1
		c0,4.9,4.8,8.6,6.5,9.7c5.8-0.1,9.8-1.7,11.9-4.8c3.5-5.1,1.1-13.3,0.6-14.9c-2.1-2.8-4.2-4.2-6.4-4.2
		C191.2,193.5,191.1,193.5,191,193.5z M87.6,192.5l88.6,22.7c-1.3-2.1-2.3-4.6-2.3-7.5c0-3.7,1.6-7.2,4.7-10.7c0,0,0,0,0,0
		c0.1-0.2,1.7-2.7,4.4-4.9l-90.4-18.8C82.6,181.2,86.3,190,87.6,192.5z M191.4,188.5c3,0,5.9,1.3,8.4,4l9.6-13.2
		c-92.6-8.3-176-37.3-194.2-44l1.2,17.1l75.9,15.7c0.1,0,0.1,0,0.2,0l98.1,20.4C190.9,188.5,191.1,188.5,191.4,188.5z M9.8,156.1
		c-1.9,1.6-5,4.9-4.8,8.3c0.2,4,4.8,7.2,8.6,9.2L81.8,191c-1.4-4.7-1.9-12.1,4.8-19l-71.8-14.9c-0.2,0.1-0.4,0.1-0.6,0.1
		c-0.6,0-1.1-0.2-1.5-0.5L9.8,156.1z M247.5,128.4H51.9c-1.4,0-2.5-1.1-2.5-2.5v-15.2c0-1.4,1.1-2.5,2.5-2.5h18.3
		c1.6-10.9,10.5-57.8,48.9-74.7c0.8-0.3,1.6-0.3,2.3,0.2c0.7,0.5,1.1,1.2,1.1,2.1v41.1c0,2.1,0.8,4,2.3,5.5s3.4,2.3,5.5,2.3
		c4.3,0,7.7-3.5,7.7-7.7V30.5c0-1.3,1-2.3,2.2-2.5c2.8-0.3,5.7-0.4,8.6-0.4c0,0,4.1-0.2,10.4,0.7c1.2,0.2,2.1,1.2,2.1,2.5v46.1
		c0,4.3,3.5,7.7,7.7,7.7c2.1,0,4-0.8,5.5-2.3c1.5-1.5,2.3-3.4,2.3-5.5V36.6c0-0.8,0.4-1.6,1.1-2.1c0.7-0.5,1.6-0.5,2.3-0.2
		c19,8.3,43,27.9,50.1,73.9h17.1c1.4,0,2.5,1.1,2.5,2.5v15.2C250,127.3,248.9,128.4,247.5,128.4z M54.3,123.4H245v-10.2h-16.8
		c-1.2,0-2.3-0.9-2.5-2.1c-5.9-42.5-26.5-61.8-44-70.6v36.4c0,3.4-1.3,6.6-3.7,9c-2.4,2.4-5.6,3.7-9,3.7c-7,0-12.7-5.7-12.7-12.7V33
		c-4.6-0.5-7.4-0.4-7.5-0.4c-2,0-4,0.1-6,0.2v44.1c0,7-5.7,12.7-12.7,12.7c-3.4,0-6.6-1.3-9-3.7c-2.4-2.4-3.7-5.6-3.7-9V39.8
		c-37,19.1-42.8,70.7-42.8,71.2c-0.1,1.3-1.2,2.2-2.5,2.2h-18V123.4z"/>
</g>
</svg>
