<svg xmlns="http://www.w3.org/2000/svg" viewBox="0 0 32.75 26.95"><defs><style>.a{fill:none;stroke:#000;stroke-linecap:round;stroke-linejoin:round;stroke-width:0.75px;}</style></defs><title>389</title><path class="a" d="M25.4,29.1h-.08L1.74,24.93C.66,24.48.1,23.91,0,23.24a2.4,2.4,0,0,1,.91-1.87.38.38,0,0,1,.25-.07l.23,0L1,18.73a.33.33,0,0,1,.12-.3.32.32,0,0,1,.31-.07,109.81,109.81,0,0,0,27.45,4,.34.34,0,0,1,.29.17.32.32,0,0,1,0,.34L27.58,25.5a3.1,3.1,0,0,1,0,2.5,2.54,2.54,0,0,1-2.16,1.1Z" transform="translate(0.38 -2.52)"/><path class="a" d="M24.68,29a4.79,4.79,0,0,1-.53-1.6A1.89,1.89,0,0,1,24.62,26h0a3.85,3.85,0,0,1,2.75-1.1L12,23.34" transform="translate(0.38 -2.52)"/><path class="a" d="M11.16,26.6a3.84,3.84,0,0,1,.55-3.26l-10.54-2" transform="translate(0.38 -2.52)"/><path class="a" d="M31.67,16.48H5.3A.34.34,0,0,1,5,16.14v-2a.34.34,0,0,1,.34-.34H7.76C8,12.29,9.18,6,14.36,3.7a.31.31,0,0,1,.31,0,.33.33,0,0,1,.15.28V9.54a1,1,0,0,0,2.09,0V3.29a.33.33,0,0,1,.3-.33,11,11,0,0,1,1.16-.06,8,8,0,0,1,1.4.09.34.34,0,0,1,.29.33V9.54a1,1,0,1,0,2.08,0V4.11a.32.32,0,0,1,.16-.28.29.29,0,0,1,.31,0c2.57,1.12,5.8,3.76,6.75,10h2.31a.34.34,0,0,1,.33.34v2A.34.34,0,0,1,31.67,16.48Z" transform="translate(0.38 -2.52)"/></svg>