<?xml version="1.0" encoding="utf-8"?>
<!-- Generator: Adobe Illustrator 24.0.0, SVG Export Plug-In . SVG Version: 6.00 Build 0)  -->
<svg version="1.1" id="Layer_1" xmlns="http://www.w3.org/2000/svg" xmlns:xlink="http://www.w3.org/1999/xlink" x="0px" y="0px"
	 viewBox="0 0 256 256" style="enable-background:new 0 0 256 256;" xml:space="preserve">
<style type="text/css">
	.st0{fill:#8699A3;}
</style>
<g>
	<g>
		<path class="st0" d="M205.08,139.98h-3.56l-2.12,6.53h3.4c0.37,0,1.13-0.13,2.29-0.42c0.57-0.14,1.12-0.47,1.63-1.01
			c0.51-0.55,0.87-1.16,1.11-1.87c0.34-1.04,0.34-1.83-0.02-2.4C207.46,140.26,206.55,139.98,205.08,139.98z"/>
		<path class="st0" d="M154.63,118.87c1.67,0,2.92-0.22,3.77-0.71c0.86-0.46,1.69-1.28,2.49-2.44c0.8-1.16,1.66-3.03,2.59-5.62
			c1.19-3.45,1.59-5.79,1.15-7.05c-0.45-1.27-1.68-1.89-3.74-1.89h-1.95l-6.22,17.71H154.63L154.63,118.87z"/>
		<path class="st0" d="M83.97,139.98h-3.55l-2.12,6.53h3.39c0.36,0,1.12-0.13,2.29-0.42c0.56-0.14,1.12-0.47,1.65-1.01
			c0.49-0.55,0.88-1.16,1.11-1.87c0.33-1.04,0.33-1.83-0.01-2.4C86.34,140.26,85.44,139.98,83.97,139.98z"/>
		<polygon class="st0" points="99.68,102.2 92.79,113.86 98.42,113.86 		"/>
		<path class="st0" d="M128,71.13C61.26,71.13,6.78,96.9,6.78,128.47c0,31.58,54.48,57.34,121.22,57.34
			c66.77,0,121.23-25.77,121.23-57.34C249.23,96.9,194.77,71.13,128,71.13z M182.92,112.81l2.27-6.71l22.05-0.36l-4.41,6.82
			l-21.77,10.33l11.61-10.44L182.92,112.81z M165.33,93.81c2.33,0,4.05,0.41,5.2,1.21c1.14,0.78,1.91,1.92,2.29,3.38
			c0.4,1.53,0.48,3.25,0.2,5.23c-0.27,1.99-0.8,4.07-1.58,6.28c-1.23,3.47-2.48,6.17-3.76,8.05c-1.29,1.93-2.72,3.5-4.26,4.79
			c-1.56,1.29-3.04,2.18-4.47,2.59c-1.94,0.58-3.58,0.88-4.98,0.88h-11.72l11.39-32.42H165.33L165.33,93.81z M98.42,93.81h8.59
			l-1.8,32.42h-8.24l0.63-5.35h-9l-3.1,5.35h-8.07L98.42,93.81z M65.28,93.81h7.87l-8.58,24.42h12.29l-2.79,8H53.89L65.28,93.81z
			 M60.25,151.57l-22.06,0.37l4.41-6.82l21.77-10.33l-11.59,10.44l9.73-0.36L60.25,151.57z M95.1,142.41
			c-0.58,1.79-1.38,3.32-2.43,4.62c-1.03,1.29-2.23,2.34-3.57,3.14c-0.85,0.52-1.94,0.96-3.24,1.27c0.82,0.41,1.41,0.82,1.72,1.18
			c0.2,0.29,0.46,0.84,0.75,1.71c0.27,0.85,0.43,1.53,0.47,2l0.86,9.32h-9.1l-1.13-9.84c-0.14-1.27-0.35-2.08-0.67-2.48
			c-0.4-0.5-0.99-0.75-1.72-0.75h-0.73l-4.23,13.06h-8.12l10.47-32.14h13.46c2.49,0,4.3,0.25,5.46,0.8c1.15,0.5,1.88,1.48,2.23,2.91
			C95.93,138.63,95.78,140.37,95.1,142.41z M125.43,149.31c-1.23,3.76-2.74,6.85-4.56,9.25c-1.81,2.42-3.88,4.27-6.26,5.64
			c-2.39,1.31-5.02,1.99-7.92,1.99c-2.95,0-5.21-0.59-6.75-1.72c-1.55-1.16-2.52-3.02-2.9-5.5c-0.42-2.51,0.01-5.62,1.24-9.38
			c1.72-5.24,4.24-9.33,7.56-12.25c3.31-2.93,7.11-4.39,11.33-4.39c4.35,0,7.24,1.43,8.65,4.3
			C127.23,140.13,127.1,144.14,125.43,149.31z M127.1,126.23l-3.29-17.8l-6.24,17.8h-7.4l11.38-32.42h7.36l3.31,17.93l6.29-17.93
			h7.43l-11.37,32.42H127.1z M132.61,165.64l0.6-32.14h8.45l-1.68,23.12l13.34-23.12h8.2l-20.16,32.14H132.61z M181.23,152.03
			h-12.56l-2.06,6.31h13.93l-2.36,7.3h-22.04l10.46-32.14h21.63l-2.24,6.88h-13.53l-1.67,5.1h12.57L181.23,152.03z M216.21,142.41
			c-0.58,1.79-1.4,3.32-2.44,4.62c-1.03,1.29-2.22,2.34-3.58,3.14c-0.84,0.52-1.93,0.96-3.23,1.27c0.83,0.41,1.4,0.82,1.73,1.18
			c0.19,0.29,0.45,0.84,0.74,1.71c0.26,0.85,0.44,1.53,0.46,2l0.89,9.32h-9.14l-1.13-9.84c-0.12-1.27-0.33-2.08-0.65-2.48
			c-0.42-0.5-0.99-0.75-1.75-0.75h-0.7l-4.25,13.06h-8.11l10.47-32.14h13.44c2.51,0,4.34,0.25,5.49,0.8
			c1.14,0.5,1.89,1.48,2.23,2.91C217.05,138.63,216.86,140.37,216.21,142.41z"/>
		<path class="st0" d="M114.7,140.46c-1.61,0-3.14,0.71-4.61,2.15c-1.45,1.39-2.7,3.74-3.78,7.02c-1.05,3.24-1.3,5.56-0.8,6.98
			c0.53,1.42,1.63,2.13,3.3,2.13c1.74,0,3.32-0.69,4.72-2.09c1.39-1.38,2.68-3.88,3.84-7.47c1-3.03,1.22-5.22,0.67-6.62
			C117.51,141.17,116.41,140.46,114.7,140.46z"/>
		<path class="st0" d="M128,64C57.5,64,0,92.98,0,128.47c0,35.51,57.5,64.46,128,64.46c70.5,0,128-28.95,128-64.46
			C256,92.98,198.51,64,128,64z M128,189.18c-68.94,0-125.16-27.27-125.16-60.71c0-33.43,56.22-60.69,125.16-60.69
			c68.94,0,125.17,27.26,125.17,60.69C253.17,161.91,196.95,189.18,128,189.18z"/>
	</g>
</g>
</svg>
