<?xml version="1.0" encoding="utf-8"?>
<!-- Generator: Adobe Illustrator 24.0.0, SVG Export Plug-In . SVG Version: 6.00 Build 0)  -->
<svg version="1.1" id="Layer_1" xmlns="http://www.w3.org/2000/svg" xmlns:xlink="http://www.w3.org/1999/xlink" x="0px" y="0px"
	 viewBox="0 0 256 256" style="enable-background:new 0 0 256 256;" xml:space="preserve">
<g>
	<g>
		<path d="M205.1,140h-3.6l-2.1,6.5h3.4c0.4,0,1.1-0.1,2.3-0.4c0.6-0.1,1.1-0.5,1.6-1c0.5-0.6,0.9-1.2,1.1-1.9c0.3-1,0.3-1.8,0-2.4
			C207.5,140.3,206.6,140,205.1,140z"/>
		<path d="M154.6,118.9c1.7,0,2.9-0.2,3.8-0.7c0.9-0.5,1.7-1.3,2.5-2.4s1.7-3,2.6-5.6c1.2-3.4,1.6-5.8,1.1-7.1
			c-0.4-1.3-1.7-1.9-3.7-1.9h-1.9l-6.2,17.7L154.6,118.9L154.6,118.9z"/>
		<path d="M84,140h-3.6l-2.1,6.5h3.4c0.4,0,1.1-0.1,2.3-0.4c0.6-0.1,1.1-0.5,1.7-1c0.5-0.6,0.9-1.2,1.1-1.9c0.3-1,0.3-1.8,0-2.4
			C86.3,140.3,85.4,140,84,140z"/>
		<polygon points="99.7,102.2 92.8,113.9 98.4,113.9 		"/>
		<path d="M128,71.1C61.3,71.1,6.8,96.9,6.8,128.5c0,31.6,54.5,57.3,121.2,57.3c66.8,0,121.2-25.8,121.2-57.3
			C249.2,96.9,194.8,71.1,128,71.1z M182.9,112.8l2.3-6.7l22.1-0.4l-4.4,6.8l-21.8,10.3l11.6-10.4L182.9,112.8z M165.3,93.8
			c2.3,0,4.1,0.4,5.2,1.2c1.1,0.8,1.9,1.9,2.3,3.4c0.4,1.5,0.5,3.2,0.2,5.2c-0.3,2-0.8,4.1-1.6,6.3c-1.2,3.5-2.5,6.2-3.8,8.1
			c-1.3,1.9-2.7,3.5-4.3,4.8c-1.6,1.3-3,2.2-4.5,2.6c-1.9,0.6-3.6,0.9-5,0.9h-11.7l11.4-32.4L165.3,93.8L165.3,93.8z M98.4,93.8h8.6
			l-1.8,32.4H97l0.6-5.3h-9l-3.1,5.3h-8.1L98.4,93.8z M65.3,93.8h7.9l-8.6,24.4h12.3l-2.8,8H53.9L65.3,93.8z M60.2,151.6l-22.1,0.4
			l4.4-6.8l21.8-10.3l-11.6,10.4l9.7-0.4L60.2,151.6z M95.1,142.4c-0.6,1.8-1.4,3.3-2.4,4.6c-1,1.3-2.2,2.3-3.6,3.1
			c-0.8,0.5-1.9,1-3.2,1.3c0.8,0.4,1.4,0.8,1.7,1.2c0.2,0.3,0.5,0.8,0.8,1.7c0.3,0.9,0.4,1.5,0.5,2l0.9,9.3h-9.1l-1.1-9.8
			c-0.1-1.3-0.3-2.1-0.7-2.5c-0.4-0.5-1-0.8-1.7-0.8h-0.7l-4.2,13.1H64l10.5-32.1h13.5c2.5,0,4.3,0.2,5.5,0.8
			c1.2,0.5,1.9,1.5,2.2,2.9C95.9,138.6,95.8,140.4,95.1,142.4z M125.4,149.3c-1.2,3.8-2.7,6.9-4.6,9.2c-1.8,2.4-3.9,4.3-6.3,5.6
			c-2.4,1.3-5,2-7.9,2c-2.9,0-5.2-0.6-6.8-1.7c-1.6-1.2-2.5-3-2.9-5.5c-0.4-2.5,0-5.6,1.2-9.4c1.7-5.2,4.2-9.3,7.6-12.2
			c3.3-2.9,7.1-4.4,11.3-4.4c4.3,0,7.2,1.4,8.7,4.3C127.2,140.1,127.1,144.1,125.4,149.3z M127.1,126.2l-3.3-17.8l-6.2,17.8h-7.4
			l11.4-32.4h7.4l3.3,17.9l6.3-17.9h7.4l-11.4,32.4C134.6,126.2,127.1,126.2,127.1,126.2z M132.6,165.6l0.6-32.1h8.4l-1.7,23.1
			l13.3-23.1h8.2l-20.2,32.1H132.6z M181.2,152h-12.6l-2.1,6.3h13.9l-2.4,7.3h-22l10.5-32.1h21.6l-2.2,6.9h-13.5l-1.7,5.1h12.6
			L181.2,152z M216.2,142.4c-0.6,1.8-1.4,3.3-2.4,4.6c-1,1.3-2.2,2.3-3.6,3.1c-0.8,0.5-1.9,1-3.2,1.3c0.8,0.4,1.4,0.8,1.7,1.2
			c0.2,0.3,0.4,0.8,0.7,1.7c0.3,0.9,0.4,1.5,0.5,2l0.9,9.3h-9.1l-1.1-9.8c-0.1-1.3-0.3-2.1-0.6-2.5c-0.4-0.5-1-0.8-1.8-0.8h-0.7
			l-4.2,13.1h-8.1l10.5-32.1H209c2.5,0,4.3,0.2,5.5,0.8c1.1,0.5,1.9,1.5,2.2,2.9C217.1,138.6,216.9,140.4,216.2,142.4z"/>
		<path d="M114.7,140.5c-1.6,0-3.1,0.7-4.6,2.1c-1.4,1.4-2.7,3.7-3.8,7c-1.1,3.2-1.3,5.6-0.8,7c0.5,1.4,1.6,2.1,3.3,2.1
			c1.7,0,3.3-0.7,4.7-2.1c1.4-1.4,2.7-3.9,3.8-7.5c1-3,1.2-5.2,0.7-6.6C117.5,141.2,116.4,140.5,114.7,140.5z"/>
		<path d="M128,64C57.5,64,0,93,0,128.5c0,35.5,57.5,64.5,128,64.5s128-28.9,128-64.5C256,93,198.5,64,128,64z M128,189.2
			c-68.9,0-125.2-27.3-125.2-60.7C2.8,95,59.1,67.8,128,67.8S253.2,95,253.2,128.5C253.2,161.9,196.9,189.2,128,189.2z"/>
	</g>
</g>
</svg>
