<svg xmlns="http://www.w3.org/2000/svg" viewBox="0 0 31.69 32.75"><defs><style>.a{fill:none;stroke:#000;stroke-linecap:round;stroke-linejoin:round;stroke-width:0.75px;}</style></defs><title>391</title><path class="a" d="M31.06,24.74,23.54,13.85a.34.34,0,0,1,.1-.46l2.92-2.16,0,0,.35.53a1.92,1.92,0,0,0,1.56.82,1.87,1.87,0,0,0,1.09-.36L30,12a2,2,0,0,0,.45-2.74L24.62.82A1.87,1.87,0,0,0,22,.36l-.39.29a2,2,0,0,0-.45,2.73l.36.52,0,0-9.91,7.29-.37-.52a1.87,1.87,0,0,0-2.65-.46l-.38.29a2,2,0,0,0-.44,2.73l5.82,8.43a1.86,1.86,0,0,0,1.55.83,1.83,1.83,0,0,0,1.1-.38l.4-.28A2,2,0,0,0,17,19.13l-.41-.58.06,0,2.9-2.11a.41.41,0,0,1,.18,0,.33.33,0,0,1,.28.15l7.51,10.87a2.22,2.22,0,0,0,1.42.9,1.29,1.29,0,0,0,.35,0,2.24,2.24,0,0,0,1.29-.43,2.32,2.32,0,0,0,.48-3.14Z" transform="translate(-0.15 0.38)"/><path class="a" d="M14.8,28.19H13.64V26.4a1.86,1.86,0,0,0-1.82-1.89H4A1.86,1.86,0,0,0,2.14,26.4v1.79H1a.46.46,0,0,0-.45.46v2.88A.46.46,0,0,0,1,32H14.79a.46.46,0,0,0,.46-.47V28.65A.45.45,0,0,0,14.8,28.19Z" transform="translate(-0.15 0.38)"/><line class="a" x1="1.09" y1="28.52" x2="14.07" y2="28.52"/><line class="a" x1="11.38" y1="11.59" x2="16.43" y2="18.92"/><line class="a" x1="21.34" y1="4.27" x2="26.4" y2="11.6"/></svg>