<svg xmlns="http://www.w3.org/2000/svg" viewBox="0 0 30.68 32.75"><defs><style>.a{fill:none;stroke:#000;stroke-linecap:round;stroke-linejoin:round;stroke-width:0.75px;}</style></defs><title>392</title><path class="a" d="M9.07,1.91c-1.29,0-3.87.35-3.75,3.22,0,0,.16,2,4.23,5.86s4,5,6.16,5" transform="translate(-0.66 0.38)"/><path class="a" d="M15.81,16V23.2A5.83,5.83,0,0,0,22,28.62,6.71,6.71,0,0,0,29.1,22" transform="translate(-0.66 0.38)"/><path class="a" d="M12.22.41A2,2,0,0,0,9.07,2,2,2,0,1,0,12.22.41" transform="translate(-0.66 0.38)"/><path class="a" d="M21.94,1.91c1.3,0,3.88.35,3.76,3.22,0,0-.16,2-4.23,5.86s-4,5-6.16,5" transform="translate(-0.66 0.38)"/><path class="a" d="M18.8.41A1.91,1.91,0,0,1,20,0,2,2,0,1,1,18.8.41" transform="translate(-0.66 0.38)"/><path class="a" d="M27.82,18.35A2,2,0,1,1,29,21.85a2,2,0,0,1-2-2,2,2,0,0,1,.76-1.55" transform="translate(-0.66 0.38)"/><path class="a" d="M13.74,23.54,7.66,14.29a3.39,3.39,0,0,0-4.41-1.13l-.51.34A3.38,3.38,0,0,0,2,18L8.1,27.24" transform="translate(-0.66 0.38)"/><line class="a" x1="6.3" y1="28.48" x2="14.19" y2="23.22"/><line class="a" x1="12.14" y1="32.38" x2="15.41" y2="30.07"/><line class="a" x1="5.83" y1="24.79" x2="8.4" y2="22.97"/><line class="a" x1="3.92" y1="22.05" x2="6.49" y2="20.23"/><line class="a" x1="2.14" y1="19.19" x2="4.72" y2="17.38"/><line class="a" x1="10.39" y1="25.93" x2="13.76" y2="30.86"/><line class="a" x1="0.38" y1="10.42" x2="2.36" y2="13.45"/></svg>