<?xml version="1.0" encoding="utf-8"?>
<!-- Generator: Adobe Illustrator 24.0.0, SVG Export Plug-In . SVG Version: 6.00 Build 0)  -->
<svg version="1.1" id="Layer_1" xmlns="http://www.w3.org/2000/svg" xmlns:xlink="http://www.w3.org/1999/xlink" x="0px" y="0px"
	 viewBox="0 0 256 256" style="enable-background:new 0 0 256 256;" xml:space="preserve">
<g>
	<g>
		<path d="M253.2,203.3c-0.4-0.2-19.3-8.5-47.1-10.4V98.2l21.2,20.1c0.9,0.9,2.1,1.3,3.2,1.3c1.2,0,2.5-0.5,3.4-1.5
			c1.8-1.9,1.7-4.9-0.2-6.7l-36.2-34.3V15.1c0-2.6-2.1-4.7-4.7-4.7h-32.7c-2.6,0-4.7,2.1-4.7,4.7v22.2L121.8,5.3
			c-1.8-1.7-4.6-1.7-6.4,0L1.5,110.7c-1.9,1.8-2,4.8-0.2,6.7c1.8,1.9,4.8,2,6.7,0.2l19.7-18.3v103c-6.4,0.8-12.9,2.1-19.7,4.1
			c-2.5,0.7-3.9,3.4-3.2,5.9c0.7,2.5,3.4,3.9,5.9,3.2c41.1-12.1,76.6,2.6,89.7,9.4c-7.1,5.3-14.1,11.4-21,18.5
			c-1.8,1.9-1.8,4.9,0.1,6.7c0.9,0.9,2.1,1.4,3.3,1.4c1.2,0,2.4-0.5,3.4-1.4c75.4-76.9,162.4-38.5,163.2-38.1c2.4,1.1,5.2,0,6.2-2.3
			C256.6,207.1,255.6,204.4,253.2,203.3z M165,19.8h23.3v48.5L165,46.2V19.8z M108.9,218.8c-7.6-4.5-35.4-19.1-71.8-17.3V91.1
			c0-0.2-0.1-0.3-0.1-0.4l81.6-75.5L197,89.6c-0.2,0.5-0.3,1-0.3,1.5v101.4C171.3,192.3,140.1,198,108.9,218.8z"/>
		<path d="M153,101.2h-32.7l0,0l0,0H87.6c-1.9,0-3.5,1.6-3.5,3.5v1.4v23v16.6v1.4v23c0,1.9,1.6,3.5,3.5,3.5h32.7l0,0l0,0H153
			c1.9,0,3.5-1.6,3.5-3.5v-23v-19.4v-23C156.6,102.8,155,101.2,153,101.2z M149.5,127.8v15.8h-25.6v-14.4v-20.9h25.6V127.8z
			 M116.8,127.8v15.8H91.1v-14.4v-20.9h25.6L116.8,127.8L116.8,127.8z M91.1,166.6v-16h25.6v16H91.1z M123.8,166.6v-16h25.6v16
			H123.8z"/>
	</g>
</g>
</svg>
