<svg xmlns="http://www.w3.org/2000/svg" viewBox="0 0 32.34 32.75"><defs><style>.a{fill:none;stroke:#000;stroke-linecap:round;stroke-linejoin:round;stroke-width:0.75px;}</style></defs><title>4</title><path class="a" d="M9,22.8H21.35V13.28L9,13.2Z" transform="translate(0.17 0.38)"/><path class="a" d="M30.13,14.61,24.5,9.69V0H19.05V4.91L15.3,1.65.2,14.61M26.5,24.69V13.23M11.92,32l.11-.28c1.33-3.58,7.19-6.19,13.91-6.19a26.18,26.18,0,0,1,5.86.7M1.72,27.5l.35-.08a19.47,19.47,0,0,1,12.47,1.19M3.84,13.26v12.9" transform="translate(0.17 0.38)"/><path class="a" d="M24.29,9.33" transform="translate(0.17 0.38)"/><path class="a" d="M19.24,4.85" transform="translate(0.17 0.38)"/><line class="a" x1="15.35" y1="13.71" x2="15.35" y2="23.11"/><line class="a" x1="9.59" y1="19.39" x2="20.96" y2="19.39"/><line class="a" x1="24.77" y1="10.21" x2="19.13" y2="5.29"/></svg>