<?xml version="1.0" encoding="utf-8"?>
<!-- Generator: Adobe Illustrator 24.0.0, SVG Export Plug-In . SVG Version: 6.00 Build 0)  -->
<svg version="1.1" id="Layer_1" xmlns="http://www.w3.org/2000/svg" xmlns:xlink="http://www.w3.org/1999/xlink" x="0px" y="0px"
	 viewBox="0 0 256 256" style="enable-background:new 0 0 256 256;" xml:space="preserve">
<style type="text/css">
	.st0{fill:#8699A3;}
</style>
<g>
	<g>
		<path class="st0" d="M253.25,203.27c-0.41-0.19-19.27-8.53-47.14-10.38V98.2l21.23,20.13c0.91,0.87,2.08,1.29,3.25,1.29
			c1.25,0,2.5-0.49,3.42-1.47c1.79-1.89,1.71-4.88-0.18-6.67l-36.15-34.28V15.06c0-2.61-2.11-4.72-4.72-4.72h-32.72
			c-2.61,0-4.72,2.11-4.72,4.72v22.18L121.85,5.29c-1.81-1.71-4.62-1.72-6.45-0.04L1.51,110.69c-1.91,1.77-2.03,4.75-0.25,6.66
			c1.76,1.91,4.75,2.02,6.66,0.25l19.74-18.27v102.99c-6.37,0.8-12.93,2.11-19.67,4.1c-2.5,0.74-3.92,3.36-3.19,5.86
			c0.74,2.51,3.37,3.93,5.86,3.19c41.06-12.15,76.56,2.65,89.7,9.42c-7.05,5.33-14.07,11.41-21,18.47c-1.82,1.86-1.8,4.85,0.06,6.67
			c0.92,0.9,2.11,1.35,3.3,1.35c1.22,0,2.44-0.47,3.37-1.41c75.42-76.86,162.36-38.52,163.22-38.13c2.35,1.06,5.16,0.04,6.25-2.33
			C256.65,207.15,255.62,204.35,253.25,203.27z M164.97,19.78h23.29v48.49l-23.29-22.08V19.78z M108.92,218.79
			c-7.59-4.47-35.4-19.07-71.83-17.28V91.1c0-0.15-0.07-0.27-0.08-0.42l81.56-75.5l78.43,74.38c-0.17,0.49-0.31,1-0.31,1.54v101.43
			C171.31,192.32,140.13,198.04,108.92,218.79z"/>
		<path class="st0" d="M153.01,101.19h-32.72c0,0,0,0,0,0c0,0,0,0,0,0H87.57c-1.95,0-3.54,1.58-3.54,3.54v1.39v23.04v16.59v1.39
			v23.04c0,1.95,1.58,3.54,3.54,3.54h32.72c0,0,0,0,0,0c0,0,0,0,0,0h32.72c1.95,0,3.54-1.58,3.54-3.54v-23.04v-19.38v-23.04
			C156.55,102.78,154.96,101.19,153.01,101.19z M149.47,127.77v15.84h-25.64v-14.45v-20.9h25.64V127.77z M116.75,127.77v15.84H91.1
			v-14.45v-20.9h25.64V127.77z M91.1,166.65v-15.97h25.64v15.97H91.1z M123.83,166.65v-15.97h25.64v15.97H123.83z"/>
	</g>
</g>
</svg>
