<?xml version="1.0" encoding="utf-8"?>
<!-- Generator: Adobe Illustrator 24.0.0, SVG Export Plug-In . SVG Version: 6.00 Build 0)  -->
<svg version="1.1" id="Layer_1" xmlns="http://www.w3.org/2000/svg" xmlns:xlink="http://www.w3.org/1999/xlink" x="0px" y="0px"
	 viewBox="0 0 25.25 20.34" style="enable-background:new 0 0 25.25 20.34;" xml:space="preserve">
<style type="text/css">
	.st0{fill:#8699A3;}
</style>
<g>
	<g>
		<path class="st0" d="M22.96,3.37C20.38,0.6,16.15,0,12.6,0C9.02,0,4.67,0.6,2.14,3.53c-0.05,0.05-0.08,0.1-0.12,0.16
			C0.77,5.17,0,7.3,0,10.15c0,8.79,7.17,10.19,12.6,10.19c5.48,0,12.65-1.4,12.65-10.19c0-2.85-0.76-4.98-2.02-6.46
			C23.14,3.58,23.05,3.48,22.96,3.37z M4.39,5.09c1.69-2.61,4.92-3.25,8.21-3.25c3.31,0,6.45,0.6,8.18,3.17
			c0.03,0.06,0.07,0.12,0.11,0.17c-2.93,1.72-6.27,1.78-8.28,6.08c-2.19-4.18-5.49-4.21-8.39-5.87C4.27,5.3,4.33,5.2,4.39,5.09z
			 M12.6,18.5c-4.87,0.04-9.46-1.36-9.46-8.34c0-0.52,0-1.04,0.08-1.49c0.03-0.1,0.05-0.2,0.07-0.29c1.64,0.55,3.28,1.11,4.92,1.66
			c1.93,0.8,3.22,1.93,4.38,4.45c1.17-2.53,2.42-3.81,4.39-4.61c1.65-0.59,3.31-1.18,4.96-1.77c0.01,0.04,0.03,0.08,0.03,0.13
			c0.08,0.56,0.12,1.24,0.12,1.93C22.11,17.13,17.48,18.54,12.6,18.5z"/>
	</g>
</g>
</svg>
