<?xml version="1.0" encoding="utf-8"?>
<!-- Generator: Adobe Illustrator 24.0.0, SVG Export Plug-In . SVG Version: 6.00 Build 0)  -->
<svg version="1.1" id="Layer_1" xmlns="http://www.w3.org/2000/svg" xmlns:xlink="http://www.w3.org/1999/xlink" x="0px" y="0px"
	 viewBox="0 0 256 256" style="enable-background:new 0 0 256 256;" xml:space="preserve">
<g>
	<g>
		<path d="M232.8,59.2c-26.2-28.1-69-34.2-105-34.2c-36.3,0-80.4,6.1-106.1,35.8c-0.5,0.5-0.8,1-1.2,1.6C7.8,77.4,0,99,0,127.9
			C0,217,72.7,231.2,127.8,231.2c55.6,0,128.2-14.2,128.2-103.3c0-28.9-7.7-50.5-20.5-65.5C234.6,61.3,233.7,60.3,232.8,59.2z
			 M44.5,76.6c17.1-26.5,49.9-33,83.2-33c33.6,0,65.4,6.1,82.9,32.1c0.3,0.6,0.7,1.2,1.1,1.7c-29.7,17.4-63.6,18.1-83.9,61.6
			c-22.2-42.4-55.7-42.7-85.1-59.5C43.3,78.7,43.9,77.7,44.5,76.6z M127.8,212.6C78.4,213,31.8,198.8,31.8,128
			c0-5.3,0-10.5,0.8-15.1c0.3-1,0.5-2,0.7-2.9c16.6,5.6,33.3,11.2,49.9,16.8c19.6,8.1,32.7,19.6,44.4,45.1
			c11.9-25.6,24.5-38.6,44.5-46.7c16.7-6,33.6-12,50.3-17.9c0.1,0.4,0.3,0.8,0.3,1.3c0.8,5.7,1.2,12.6,1.2,19.6
			C224.2,198.7,177.2,213,127.8,212.6z"/>
	</g>
</g>
</svg>
