<?xml version="1.0" encoding="utf-8"?>
<!-- Generator: Adobe Illustrator 24.0.0, SVG Export Plug-In . SVG Version: 6.00 Build 0)  -->
<svg version="1.1" id="Layer_1" xmlns="http://www.w3.org/2000/svg" xmlns:xlink="http://www.w3.org/1999/xlink" x="0px" y="0px"
	 viewBox="0 0 256 256" style="enable-background:new 0 0 256 256;" xml:space="preserve">
<style type="text/css">
	.st0{fill:#8699A3;}
</style>
<g>
	<g>
		<path class="st0" d="M232.78,59.17C206.62,31.08,163.74,25,127.75,25c-36.3,0-80.4,6.08-106.05,35.79
			c-0.51,0.51-0.81,1.01-1.22,1.62C7.81,77.42,0,99.01,0,127.91c0,89.12,72.69,103.31,127.75,103.31
			c55.56,0,128.25-14.19,128.25-103.31c0-28.9-7.71-50.49-20.48-65.5C234.61,61.3,233.7,60.28,232.78,59.17z M44.51,76.61
			c17.13-26.46,49.88-32.95,83.24-32.95c33.56,0,65.39,6.08,82.93,32.14c0.3,0.61,0.71,1.22,1.12,1.72
			c-29.71,17.44-63.57,18.05-83.95,61.64c-22.2-42.38-55.66-42.68-85.06-59.51C43.29,78.73,43.9,77.72,44.51,76.61z M127.75,212.56
			c-49.38,0.41-95.91-13.79-95.91-84.56c0-5.27,0-10.54,0.81-15.11c0.3-1.01,0.51-2.03,0.71-2.94
			c16.63,5.58,33.25,11.25,49.88,16.83c19.57,8.11,32.65,19.57,44.41,45.12c11.86-25.65,24.54-38.63,44.51-46.74
			c16.73-5.98,33.56-11.96,50.29-17.95c0.1,0.41,0.3,0.81,0.3,1.32c0.81,5.68,1.22,12.57,1.22,19.57
			C224.16,198.67,177.22,212.97,127.75,212.56z"/>
	</g>
</g>
</svg>
