<?xml version="1.0" encoding="utf-8"?>
<!-- Generator: Adobe Illustrator 24.0.0, SVG Export Plug-In . SVG Version: 6.00 Build 0)  -->
<svg version="1.1" id="Layer_1" xmlns="http://www.w3.org/2000/svg" xmlns:xlink="http://www.w3.org/1999/xlink" x="0px" y="0px"
	 viewBox="0 0 250 250" style="enable-background:new 0 0 250 250;" xml:space="preserve">
<g>
	<g>
		<path d="M247.3,167.3H211l0.3-0.9c1.2-2.8,1.9-5.9,1.9-9.3c0-9.3-12.1-23-25.8-29.1c-0.2-0.1-0.5-0.1-0.8-0.2H186v-19.2
			c0-1.5-1.2-2.8-2.8-2.8h-22.5l0.4-0.8c1.4-3.1,2.4-6.3,2.8-9.7v-0.2c0.1-0.1,0.1-0.2,0.2-0.2c0.2-0.6,0.2-1,0.1-1.5l-0.1-0.2
			c0.2-1.1,0.2-2.1,0.2-3c0-19.5-15.9-35.4-35.4-35.4S93.5,70.9,93.5,90.3c0,5.1,1.1,10.1,3.2,14.7l0.4,0.8H74.6
			c-1.5,0-2.8,1.2-2.8,2.8v19.2l-0.5,0.1c-0.4,0-0.6,0.1-0.7,0.2c-20.2,9.3-30.2,24.8-32.8,29.5l-0.2,0.2l-0.2,0.1
			c-4.8,1.4-8.9,4.7-11.3,9.2l-0.2,0.3H2.8c-1.5,0-2.8,1.2-2.8,2.8c0,1.5,1.2,2.7,2.8,2.7h21.4l-0.1,0.7c-0.1,0.8-0.2,1.5-0.2,2.1
			c0,1.5,0.2,2.9,0.6,4.5c0.1,0.3,0.2,0.7,0.6,1.1l0.3,0.3l-0.2,0.3c-0.8,1.6-1.3,3.2-1.3,5c0,1.1,0.2,2.4,0.7,3.7
			c0.4,1.1,1.5,1.7,2.6,1.7h30.4c1.1,0,2.2-0.6,2.6-1.7c0.5-1.3,0.6-2.5,0.6-3.7c0-1.7-0.4-3.3-1.2-5l-0.2-0.3l0.3-0.3
			c0.2-0.3,0.5-0.6,0.6-1.1c0.4-1.6,0.6-3.1,0.6-4.5c0-0.7,0-1.5-0.1-2.1l-0.1-0.7h11.1v19.6c0,1.5,1.2,2.8,2.8,2.8h108.6
			c1.4,0,2.5-1.1,2.7-2.4l0.1-10.3h0.5c4-0.6,13.7-2.5,20.5-9.3l0.2-0.2h40.3c1.5,0,2.7-1.2,2.7-2.7
			C250,168.5,248.8,167.3,247.3,167.3z M29.5,175.6c0-7.1,5.8-13,13-13c7.1,0,13,5.8,13,13v1.1h-26V175.6z M29.4,186.7l0.1-0.7
			c0.2-1.2,1.1-2.5,2.4-3.7l0.2-0.2h20.9l0.2,0.2c1.3,1.1,2,2.4,2.3,3.7l0.2,0.7H29.4z M71.8,167.3H58.9l-0.2-0.3
			c-2.7-5.1-7.7-8.7-13.4-9.6l-1-0.2l0.6-0.8c3.7-5.4,12.1-15.6,26-22.5l0.9-0.4V167.3z M155.2,77.7l0.6-0.4l0.3,0.6
			c1.6,3.6,2.5,7.4,2.7,11.3v1l-0.8-0.4c-4.1-1.6-8-3.6-11.6-5.8l-1-0.5l1-0.6C150.6,80.7,153.5,78.8,155.2,77.7z M158.3,95.8
			l-0.1,0.5c-0.7,3.4-1.9,6.5-3.5,9.3l-0.2,0.2h-51.3l-0.2-0.2c-0.6-1.1-1.2-2.3-1.7-3.4l-0.2-0.6l0.6-0.2
			c14.3-4.6,27-9.6,37.7-14.9l0.3-0.2l0.3,0.2c2.2,1.6,8.3,5.6,17.6,9L158.3,95.8z M107.7,69.2c5.7-5.7,13.2-8.8,21.2-8.8
			c9.3,0,17.9,4.3,23.6,11.7l0.4,0.5l-0.6,0.4c-5.4,3.7-21.4,13.3-52.1,23.1l-0.6,0.2l-0.1-0.6c-0.4-1.9-0.6-3.7-0.6-5.3
			C98.9,82.4,102.1,74.8,107.7,69.2z M180.5,189.6H77.3v-78.2h103.2V189.6z M186.6,176.7l-0.6,0.1v-43.3l0.9,0.4
			c11.7,5.9,20.8,17.4,20.8,23.3C207.6,171.7,192.9,175.6,186.6,176.7z"/>
	</g>
</g>
<g>
	<path d="M113.4,136.1c0.1,0.7-0.2,1.4-0.7,1.9c-1,0.9-2.6,0.9-3.5,0.1l-12.4-11.2l-0.2-0.2c-0.5-0.5-0.7-1.1-0.6-1.9
		c0-0.6,0.3-1.3,0.8-1.8l12.3-11.1c0.5-0.4,1.1-0.6,1.6-0.6c0.6,0,1.3,0.2,1.8,0.7c0.5,0.5,0.8,1.1,0.8,1.8c0,0.7-0.2,1.4-0.7,1.8
		l-9.7,8.8l-0.5,0.5l10.2,9.3C113.1,134.7,113.4,135.4,113.4,136.1z"/>
</g>
<g>
	<path d="M164.1,125.1c-0.1,0.7-0.3,1.3-0.9,1.8l-12.3,11.2c-1.1,0.9-2.8,0.8-3.7-0.2c-1-1.1-0.9-2.8,0.2-3.7l9.7-8.8l0.6-0.4
		l-10.2-9.3c-1-1-1.1-2.4-0.2-3.4c0.9-1.1,2.4-1.3,3.6-0.5l12.3,11.2c0.1,0.1,0.2,0.1,0.2,0.2C163.9,123.7,164.1,124.4,164.1,125.1z
		"/>
</g>
<g>
	<path d="M139,104.7l-12.7,41.5c-0.3,1.1-1.3,1.9-2.6,1.9h-0.1c-0.2,0.1-0.5,0.1-0.7,0l-0.1,0.6l-0.1-0.6c-1.4-0.4-2.1-1.9-1.6-3.2
		l12.7-41.5c0.2-0.7,0.6-1.3,1.3-1.6c0.4-0.2,0.9-0.3,1.3-0.3c0.2,0,0.5,0,0.8,0.1c0.6,0.2,1.2,0.6,1.6,1.3
		C139.1,103.4,139.2,104.1,139,104.7z"/>
</g>
</svg>
