<?xml version="1.0" encoding="utf-8"?>
<!-- Generator: Adobe Illustrator 24.0.0, SVG Export Plug-In . SVG Version: 6.00 Build 0)  -->
<svg version="1.1" id="Layer_1" xmlns="http://www.w3.org/2000/svg" xmlns:xlink="http://www.w3.org/1999/xlink" x="0px" y="0px"
	 viewBox="0 0 256 256" style="enable-background:new 0 0 256 256;" xml:space="preserve">
<style type="text/css">
	.st0{fill:#8699A3;}
</style>
<path class="st0" d="M250.35,244.79H239.1V203.5c0-1.97,1.33-3.29,3.3-3.29s3.29,1.32,3.29,3.29c0,3.03,2.12,5.15,5.15,5.15
	s5.15-2.12,5.15-5.15c0-7.62-5.97-13.6-13.6-13.6c-0.32,0-0.66,0.03-1,0.07c1.97-2.24,4.84-3.59,7.91-3.59
	c3.03,0,5.15-2.12,5.15-5.15c0-3.03-2.12-5.15-5.15-5.15c-3.82,0-7.31,0.99-10.59,3.02v-3.25c0-3.03-2.12-5.15-5.15-5.15
	c-3.03,0-5.15,2.12-5.15,5.15v3.25c-3.28-2.03-6.77-3.02-10.59-3.02c-3.03,0-5.15,2.12-5.15,5.15c0,3.03,2.12,5.15,5.15,5.15
	c3.03,0,5.8,1.29,7.81,3.56c-0.29-0.03-0.59-0.04-0.9-0.04c-7.62,0-13.6,5.97-13.6,13.6c0,3.03,2.12,5.15,5.15,5.15
	c3.03,0,5.15-2.12,5.15-5.15c0-1.97,1.32-3.29,3.29-3.29c1.97,0,3.29,1.32,3.29,3.29v41.29h-32.1V6.25c0-2.9-2.35-5.25-5.25-5.25
	H71.16c-2.9,0-5.25,2.35-5.25,5.25v238.54H31.04v-81.22c0-3.27,2.65-5.22,5.22-5.22c2.73,0,5.22,2.49,5.22,5.22
	c0,3.03,2.12,5.15,5.15,5.15s5.15-2.12,5.15-5.15c0-8.56-6.96-15.52-15.52-15.52c-1.39,0-2.62,0.14-3.75,0.43
	c2.43-4.58,7.11-7.4,12.58-7.4c3.03,0,5.15-2.12,5.15-5.15c0-3.03-2.12-5.15-5.15-5.15c-5.25,0-10.13,1.61-14.05,4.58v-6.72
	c0-3.03-2.12-5.15-5.15-5.15s-5.15,2.12-5.15,5.15v6.07c-4.18-3.04-9.07-4.69-14.05-4.69c-3.03,0-5.15,2.12-5.15,5.15
	s2.12,5.15,5.15,5.15c5.34,0,10.21,3.01,12.64,7.57c-1.17-0.35-2.42-0.6-3.82-0.6C6.96,147.27,0,154.24,0,162.8
	c0,3.03,2.12,5.15,5.15,5.15s5.15-2.12,5.15-5.15c0-3.27,2.65-5.22,5.22-5.22c2.73,0,5.22,2.49,5.22,5.22v81.99H6.11
	c-2.9,0-5.25,2.35-5.25,5.25c0,2.9,2.35,5.25,5.25,5.25h244.24c2.9,0,5.25-2.35,5.25-5.25C255.6,247.14,253.25,244.79,250.35,244.79
	z M143.98,242.15h-24.24v-30.69c0-7.35,5.44-13.32,12.12-13.32c6.69,0,12.12,5.97,12.12,13.32V242.15z M185.44,244.79h-30.97v-33.33
	c0-13.13-10.14-23.81-22.61-23.81s-22.61,10.68-22.61,23.81v33.33H76.41V11.49h109.03V244.79z"/>
</svg>
