<?xml version="1.0" encoding="utf-8"?>
<!-- Generator: Adobe Illustrator 24.0.0, SVG Export Plug-In . SVG Version: 6.00 Build 0)  -->
<svg version="1.1" id="Layer_1" xmlns="http://www.w3.org/2000/svg" xmlns:xlink="http://www.w3.org/1999/xlink" x="0px" y="0px"
	 viewBox="0 0 256 256" style="enable-background:new 0 0 256 256;" xml:space="preserve">
<path d="M250.4,244.8h-11.2v-41.3c0-2,1.3-3.3,3.3-3.3s3.3,1.3,3.3,3.3c0,3,2.1,5.1,5.1,5.1s5.1-2.1,5.1-5.1c0-7.6-6-13.6-13.6-13.6
	c-0.3,0-0.7,0-1,0.1c2-2.2,4.8-3.6,7.9-3.6c3,0,5.1-2.1,5.1-5.1s-2.1-5.1-5.1-5.1c-3.8,0-7.3,1-10.6,3v-3.2c0-3-2.1-5.1-5.1-5.1
	s-5.1,2.1-5.1,5.1v3.2c-3.3-2-6.8-3-10.6-3c-3,0-5.1,2.1-5.1,5.1s2.1,5.1,5.1,5.1s5.8,1.3,7.8,3.6c-0.3,0-0.6,0-0.9,0
	c-7.6,0-13.6,6-13.6,13.6c0,3,2.1,5.1,5.1,5.1s5.1-2.1,5.1-5.1c0-2,1.3-3.3,3.3-3.3c2,0,3.3,1.3,3.3,3.3v41.3h-32.1V6.2
	c0-2.9-2.4-5.2-5.2-5.2H71.2c-2.9,0-5.2,2.3-5.2,5.2v238.5H31v-81.2c0-3.3,2.7-5.2,5.2-5.2c2.7,0,5.2,2.5,5.2,5.2
	c0,3,2.1,5.1,5.2,5.1s5.2-2.1,5.2-5.1c0-8.6-7-15.5-15.5-15.5c-1.4,0-2.6,0.1-3.8,0.4c2.4-4.6,7.1-7.4,12.6-7.4c3,0,5.2-2.1,5.2-5.1
	s-2.1-5.1-5.2-5.1c-5.2,0-10.1,1.6-14,4.6v-6.7c0-3-2.1-5.2-5.1-5.2s-5.1,2.1-5.1,5.2v6.1c-4.2-3-9.1-4.7-14.1-4.7
	c-3,0-5.2,2.1-5.2,5.1s2.1,5.1,5.2,5.1c5.3,0,10.2,3,12.6,7.6c-1.2-0.4-2.4-0.6-3.8-0.6c-8.6,0-15.5,7-15.5,15.5
	c0,3,2.1,5.1,5.2,5.1s5.2-2.1,5.2-5.1c0-3.3,2.7-5.2,5.2-5.2c2.7,0,5.2,2.5,5.2,5.2v82H6.1c-2.9,0-5.2,2.4-5.2,5.2s2.3,5.2,5.2,5.2
	h244.2c2.9,0,5.2-2.4,5.2-5.2C255.6,247.1,253.2,244.8,250.4,244.8z M144,242.1h-24.2v-30.7c0-7.4,5.4-13.3,12.1-13.3
	c6.7,0,12.1,6,12.1,13.3V242.1z M185.4,244.8h-31v-33.3c0-13.1-10.1-23.8-22.6-23.8s-22.6,10.7-22.6,23.8v33.3H76.4V11.5h109V244.8z
	"/>
</svg>
