<svg xmlns="http://www.w3.org/2000/svg" viewBox="0 0 32.75 27.98"><defs><style>.a{fill:none;stroke:#000;stroke-linecap:round;stroke-linejoin:round;stroke-width:0.75px;}</style></defs><title>419</title><polyline class="a" points="7.7 27.61 7.7 0.38 22.94 0.38 22.94 27.61"/><line class="a" x1="30.71" y1="27.61" x2="0.38" y2="27.61"/><line class="a" x1="22.7" y1="2.6" x2="7.87" y2="2.6"/><line class="a" x1="26.28" y1="27.49" x2="26.28" y2="19.82"/><path class="a" d="M26,24.71s1.11-.56,1.79-.15" transform="translate(0.38 -2.01)"/><path class="a" d="M26.12,24.07A2.49,2.49,0,0,1,27,23" transform="translate(0.38 -2.01)"/><path class="a" d="M26,24.71s-1.22-.62-1.89-.07" transform="translate(0.38 -2.01)"/><path class="a" d="M25.8,24.07a2.52,2.52,0,0,0-.95-1.1" transform="translate(0.38 -2.01)"/><line class="a" x1="30.03" y1="27.49" x2="30.03" y2="15.61"/><path class="a" d="M29.73,20.49s1.95-1,2.27.65" transform="translate(0.38 -2.01)"/><path class="a" d="M29.88,19.86s.59-1.41,1.7-1.22" transform="translate(0.38 -2.01)"/><path class="a" d="M29.7,20.49s-2-1-2.27.65" transform="translate(0.38 -2.01)"/><path class="a" d="M29.55,19.86s-.59-1.41-1.7-1.22" transform="translate(0.38 -2.01)"/><path class="a" d="M30,18.92" transform="translate(0.38 -2.01)"/><line class="a" x1="3.17" y1="27.49" x2="3.17" y2="17.72"/><path class="a" d="M2.87,22.6s2-1,2.27.65" transform="translate(0.38 -2.01)"/><path class="a" d="M3,22s.59-1.4,1.7-1.22" transform="translate(0.38 -2.01)"/><path class="a" d="M2.84,22.6s-2-1-2.27.65" transform="translate(0.38 -2.01)"/><path class="a" d="M2.69,22S2.1,20.56,1,20.74" transform="translate(0.38 -2.01)"/><path class="a" d="M3.17,21" transform="translate(0.38 -2.01)"/><path class="a" d="M10.46,7A1.3,1.3,0,0,0,9.15,8.35V9.59a.36.36,0,0,0,.39.38h1.85a.36.36,0,0,0,.38-.38V8.35A1.32,1.32,0,0,0,10.46,7Z" transform="translate(0.38 -2.01)"/><path class="a" d="M14.93,7a1.3,1.3,0,0,0-1.32,1.31V9.59A.36.36,0,0,0,14,10h1.85a.36.36,0,0,0,.39-.38V8.35A1.33,1.33,0,0,0,14.93,7Z" transform="translate(0.38 -2.01)"/><path class="a" d="M19.39,7a1.3,1.3,0,0,0-1.31,1.31V9.59a.36.36,0,0,0,.38.38h1.85a.36.36,0,0,0,.39-.38V8.35A1.33,1.33,0,0,0,19.39,7Z" transform="translate(0.38 -2.01)"/><path class="a" d="M10.46,12.36a1.3,1.3,0,0,0-1.31,1.31v1.24a.36.36,0,0,0,.39.38h1.85a.36.36,0,0,0,.38-.38V13.67A1.32,1.32,0,0,0,10.46,12.36Z" transform="translate(0.38 -2.01)"/><path class="a" d="M14.93,12.36a1.3,1.3,0,0,0-1.32,1.31v1.24a.36.36,0,0,0,.39.38h1.85a.36.36,0,0,0,.39-.38V13.67A1.33,1.33,0,0,0,14.93,12.36Z" transform="translate(0.38 -2.01)"/><path class="a" d="M19.39,12.36a1.3,1.3,0,0,0-1.31,1.31v1.24a.36.36,0,0,0,.38.38h1.85a.36.36,0,0,0,.39-.38V13.67A1.33,1.33,0,0,0,19.39,12.36Z" transform="translate(0.38 -2.01)"/><path class="a" d="M10.46,17.68A1.3,1.3,0,0,0,9.15,19v1.24a.36.36,0,0,0,.39.38h1.85a.36.36,0,0,0,.38-.38V19A1.32,1.32,0,0,0,10.46,17.68Z" transform="translate(0.38 -2.01)"/><path class="a" d="M14.93,17.68A1.3,1.3,0,0,0,13.61,19v1.24a.36.36,0,0,0,.39.38h1.85a.36.36,0,0,0,.39-.38V19A1.33,1.33,0,0,0,14.93,17.68Z" transform="translate(0.38 -2.01)"/><path class="a" d="M16.74,29.37V24.74a1.83,1.83,0,0,0-1.81-1.81,1.8,1.8,0,0,0-1.82,1.81v4.63" transform="translate(0.38 -2.01)"/><path class="a" d="M19.39,17.68A1.3,1.3,0,0,0,18.08,19v1.24a.36.36,0,0,0,.38.38h1.85a.36.36,0,0,0,.39-.38V19A1.33,1.33,0,0,0,19.39,17.68Z" transform="translate(0.38 -2.01)"/></svg>