<svg xmlns="http://www.w3.org/2000/svg" viewBox="0 0 32.75 32.75"><defs><style>.a{fill:none;stroke:#000;stroke-linecap:round;stroke-linejoin:round;stroke-width:0.75px;}</style></defs><title>42</title><path class="a" d="M22.63,17.76a.48.48,0,0,0-.36-.16H17a.48.48,0,0,0-.36.16.49.49,0,0,0-.11.38l1.18,6.13V26.8a.47.47,0,0,0,.47.47h3.06a.47.47,0,0,0,.47-.47V24.3l1-6.16A.47.47,0,0,0,22.63,17.76Z" transform="translate(0.38 0.38)"/><path class="a" d="M26.93,4.33,26.58,4A16,16,0,0,0,0,16a15.81,15.81,0,0,0,3.45,9.92.47.47,0,0,0,.35.18A.41.41,0,0,0,4.16,26l5.3-5.31a1.71,1.71,0,0,1,2.39,0,1.7,1.7,0,0,1,0,2.39L6.62,28.27a.49.49,0,0,0-.14.38.49.49,0,0,0,.19.35,16,16,0,0,0,19.8-.92A22.19,22.19,0,0,0,29,25.4,16,16,0,0,0,30,8.19" transform="translate(0.38 0.38)"/><path class="a" d="M18.83,5.74a2.51,2.51,0,1,0-2.51,2.52A2.52,2.52,0,0,0,18.83,5.74Z" transform="translate(0.38 0.38)"/><path class="a" d="M5.52,12.74A2.51,2.51,0,1,0,8,15.25,2.51,2.51,0,0,0,5.52,12.74Z" transform="translate(0.38 0.38)"/><path class="a" d="M9,6a2.51,2.51,0,1,0,2.51,2.51A2.52,2.52,0,0,0,9,6Z" transform="translate(0.38 0.38)"/><line class="a" x1="28.46" y1="9.59" x2="28.46" y2="30.68"/><path class="a" d="M29.94,3.34a4,4,0,0,1,.58,3.32c-.29.92-.69,2.23-1.71,2.45H26.6a3,3,0,0,1-1.05-1.86,2.37,2.37,0,0,1,.79-1.83l.2-.27c.82-1,.88-3.8,1-4.75a21.45,21.45,0,0,1,2.41,2.94" transform="translate(0.38 0.38)"/></svg>