<?xml version="1.0" encoding="utf-8"?>
<!-- Generator: Adobe Illustrator 24.0.0, SVG Export Plug-In . SVG Version: 6.00 Build 0)  -->
<svg version="1.1" id="Layer_1" xmlns="http://www.w3.org/2000/svg" xmlns:xlink="http://www.w3.org/1999/xlink" x="0px" y="0px"
	 viewBox="0 0 250 250" style="enable-background:new 0 0 250 250;" xml:space="preserve">
<g>
	<path d="M183.2,137.8c-0.7-0.8-1.7-1.3-2.8-1.3h-41c-1.1,0-2.1,0.5-2.8,1.3c-0.7,0.8-1,1.9-0.8,3l9.2,59.2v19.7
		c0,2,1.7,3.7,3.7,3.7h23.9c2,0,3.7-1.7,3.7-3.7l0-19.5l7.9-59.5C184.2,139.7,183.9,138.6,183.2,137.8z M168.7,216.1h-16.4v-12.5
		h16.4V216.1z M169.2,196.2h-17.4l-8.1-52.2h32.5L169.2,196.2z"/>
	<path d="M231,58.9c2.4-3.9,3.8-8,3.9-12.3C235.8,28,217.9,9.8,217.1,9c-1.1-1.1-2.8-1.4-4.3-0.7c-1.5,0.7-2.3,2.3-2,3.9
		c0,0.1,1.5,10.9-3.2,19.1C184.8,11.1,155.5,0,125,0C56.1,0,0,56.1,0,125c0,28.4,9.3,55.2,27,77.5c0.6,0.8,1.6,1.3,2.8,1.4
		c1.2,0.1,2.1-0.4,2.8-1.1l41.4-41.4c5.2-5.1,13.5-5.1,18.6,0c2.5,2.5,3.9,5.8,3.9,9.3s-1.4,6.8-3.9,9.3l-40.8,40.9
		c-0.8,0.8-1.2,1.8-1.1,3c0.1,1.1,0.6,2,1.5,2.7C73.5,241.9,98.7,250,125,250c30.1,0,59-10.8,81.8-30.6v19c0,2,1.7,3.7,3.7,3.7h11.9
		c2,0,3.7-1.7,3.7-3.7v-39.9C241.7,177,250,151.6,250,125C250,101.6,243.5,78.8,231,58.9z M206.8,209.4
		c-22.1,21.4-51.1,33.2-81.8,33.2c-23.2,0-45.6-6.8-64.9-19.6l37.7-37.7c3.9-3.9,6-9.1,6-14.6c0-5.5-2.2-10.7-6-14.5
		c-3.9-3.9-9-6-14.6-6c-5.5,0-10.7,2.1-14.5,6l-38.4,38.4c-15-20.3-22.9-44.3-22.9-69.6C7.4,60.2,60.2,7.4,125,7.4
		c28.9,0,56.6,10.6,78.2,29.9c-3.2,4.2-4.7,8.6-4.3,13.1c0.6,7.2,5.3,12.3,7.9,14.6v78.7v16.6V209.4z M219.9,234.6h-6.7V67.1h6.7
		V234.6z M221,59.6h-9.1c-1.5-1.3-5.1-5-5.6-9.8c-0.3-3.3,1.1-6.5,4.2-9.7c0.2-0.2,0.3-0.3,0.3-0.4c0.1-0.1,0.2-0.2,0.4-0.3l0.4-0.6
		l0-0.1c4.4-5.3,6.1-11.8,6.7-16.7c4.5,6.2,9.8,15.4,9.4,24.3C227.3,51.3,225.1,55.8,221,59.6z M226.1,65.3
		c10.8,18.2,16.5,38.8,16.5,59.7c0,20.7-5.7,41.1-16.5,59.3V65.3z"/>
	<path d="M174.7,63.6c-10.8,0-19.6,8.8-19.6,19.6c0,10.8,8.8,19.6,19.6,19.6c10.8,0,19.6-8.8,19.6-19.6
		C194.3,72.4,185.5,63.6,174.7,63.6z M174.7,95.4c-6.7,0-12.2-5.5-12.2-12.2c0-6.7,5.5-12.2,12.2-12.2c6.7,0,12.2,5.5,12.2,12.2
		C186.9,90,181.4,95.4,174.7,95.4z"/>
	<path d="M150.6,59.4c0-10.8-8.8-19.6-19.6-19.6c-10.8,0-19.6,8.8-19.6,19.6c0,10.8,8.8,19.6,19.6,19.6
		C141.8,79,150.6,70.2,150.6,59.4z M131,71.6c-6.7,0-12.2-5.5-12.2-12.2c0-6.7,5.5-12.2,12.2-12.2c6.7,0,12.2,5.5,12.2,12.2
		C143.2,66.1,137.7,71.6,131,71.6z"/>
	<path d="M59.4,99.4c-10.8,0-19.6,8.8-19.6,19.6c0,10.8,8.8,19.6,19.6,19.6c10.8,0,19.6-8.8,19.6-19.6C79,108.2,70.2,99.4,59.4,99.4
		z M59.4,131.2c-6.7,0-12.2-5.5-12.2-12.2c0-6.7,5.5-12.2,12.2-12.2c6.7,0,12.2,5.5,12.2,12.2C71.6,125.8,66.1,131.2,59.4,131.2z"/>
	<path d="M83.2,55.7c-10.8,0-19.6,8.8-19.6,19.6c0,10.8,8.8,19.6,19.6,19.6c10.8,0,19.6-8.8,19.6-19.6
		C102.9,64.5,94.1,55.7,83.2,55.7z M83.2,87.5C76.5,87.5,71,82,71,75.3c0-6.7,5.5-12.2,12.2-12.2c6.7,0,12.2,5.5,12.2,12.2
		C95.4,82,90,87.5,83.2,87.5z"/>
</g>
</svg>
