<svg xmlns="http://www.w3.org/2000/svg" viewBox="0 0 32.75 27.6"><defs><style>.a{fill:none;stroke:#000;stroke-linecap:round;stroke-linejoin:round;stroke-width:0.75px;}</style></defs><title>43</title><path class="a" d="M24.08,6.81H20.66c-3.64-2.81-7-4.23-10-4.23C4.49,2.58,0,6.21,0,11.21a8.83,8.83,0,0,0,4.31,7.31l3.48,8.9a3.32,3.32,0,0,0,3.11,2,3.17,3.17,0,0,0,1-.16,3.1,3.1,0,0,0,2-1.65,2.78,2.78,0,0,0,.1-2.26l-2-5.5a17.76,17.76,0,0,0,8.73-4.25h3.41a2.84,2.84,0,0,0,2.84-2.84V9.65A2.85,2.85,0,0,0,24.08,6.81Z" transform="translate(0.38 -2.2)"/><path class="a" d="M28.58,9a.83.83,0,0,1,1.19,0l0,0A1.57,1.57,0,0,0,32,8.91" transform="translate(0.38 -2.2)"/><path class="a" d="M28.58,11.38a.8.8,0,0,1,.59-.26.84.84,0,0,1,.6.24l0,0a1.63,1.63,0,0,0,1.07.41A1.57,1.57,0,0,0,32,11.31" transform="translate(0.38 -2.2)"/><path class="a" d="M28.58,13.77a.83.83,0,0,1,.59-.25.8.8,0,0,1,.6.24h0a1.59,1.59,0,0,0,1.07.42A1.55,1.55,0,0,0,32,13.7" transform="translate(0.38 -2.2)"/><line class="a" x1="21.05" y1="4.63" x2="21.05" y2="13.4"/><line class="a" x1="4.49" y1="6.83" x2="9.03" y2="6.83"/><line class="a" x1="4.49" y1="9.14" x2="9.03" y2="9.14"/><line class="a" x1="4.49" y1="11.45" x2="9.03" y2="11.45"/></svg>