<svg xmlns="http://www.w3.org/2000/svg" viewBox="0 0 250 250"><path d="M187.5 53.4h-26.6c-28.4-21.9-54.5-33-77.8-33C34.9 20.5 0 48.7 0 87.7c0 22.2 12.5 43.3 33.6 56.9l27.1 69.3c3.7 9.3 13.4 15.6 24.2 15.6 2.8 0 5.5-.4 8.1-1.2 6.8-2.1 12.3-6.8 15.2-12.9 2.7-5.6 3-11.9.8-17.6L93 155c34.1-6.6 49.9-18.9 68-33.1h26.5c12.2 0 22.1-9.9 22.1-22.1V75.6c0-12.2-9.9-22.2-22.1-22.2zm-84 146.4c1.7 4.3 1.5 8.9-.6 13.1-2.2 4.7-6.4 8.2-11.7 9.9-2 .6-4.1 1-6.3 1-8.4 0-16-4.8-18.8-12l-27.6-70.5-.6-.9-.7-.4C17.5 127.7 5.7 108.1 5.7 87.7c0-35.6 32.5-61.5 77.4-61.5 21.9 0 46.9 10.7 74.5 32v59c-17.9 14.1-33.4 26.2-67.7 32.5l-4.7.9 18.3 49.2zm100.4-100c0 9-7.4 16.4-16.4 16.4h-24.1v-57h24.1c9 0 16.4 7.4 16.4 16.4v24.2zM222.6 70.3c1.2-1.3 2.8-2 4.6-2 1.6-.1 3.4.6 4.7 1.9.1 0 .1.1.2.1 2.3 2.2 5.3 3.2 8.3 3.2 3.2 0 6.5-1.3 8.9-3.8 1.1-1.1 1.1-3-.1-4.1s-3-1.1-4.1.1a6.61 6.61 0 01-9.3.2c-.1 0-.1-.1-.2-.1-2.3-2.2-5.1-3.1-8.5-3.3-3.3.1-6.3 1.4-8.6 3.7-1.1 1.1-1.1 3 .1 4.1s2.9 1.2 4 0zM245.1 84.9a6.61 6.61 0 01-9.3.2c-.1 0-.1-.1-.2-.1-2.3-2.1-5.1-3.2-8.5-3.3-3.3.1-6.3 1.4-8.6 3.7-1.1 1.1-1.1 3 .1 4.1 1.1 1.1 3 1.1 4.1-.1 1.2-1.3 2.8-2 4.6-2 1.6 0 3.4.6 4.7 1.9.1 0 .1.1.2.1 2.3 2.2 5.3 3.2 8.3 3.2 3.2 0 6.5-1.3 8.9-3.8 1.1-1.1 1.1-3-.1-4.1s-3.1-.9-4.2.2zM245.1 104a6.61 6.61 0 01-9.3.2c-.1 0-.1-.1-.2-.1-4.9-4.5-12.5-4.3-17.2.5-1.1 1.1-1.1 3 .1 4.1s3 1.1 4.1-.1c2.5-2.6 6.7-2.7 9.3-.1.1 0 .1.1.2.1 2.3 2.2 5.3 3.2 8.3 3.2 3.2 0 6.5-1.3 8.9-3.8 1.1-1.1 1.1-3-.1-4.1-1.2-1-3-1-4.1.1z"/><path d="M68.5 68.6H34a2.9 2.9 0 000 5.8h34.5a2.9 2.9 0 000-5.8zM68.5 85.9H34a2.9 2.9 0 000 5.8h34.5a2.9 2.9 0 000-5.8zM68.5 103.2H34a2.9 2.9 0 000 5.8h34.5a2.9 2.9 0 000-5.8z"/></svg>