<?xml version="1.0" encoding="utf-8"?>
<!-- Generator: Adobe Illustrator 24.0.0, SVG Export Plug-In . SVG Version: 6.00 Build 0)  -->
<svg version="1.1" id="Layer_1" xmlns="http://www.w3.org/2000/svg" xmlns:xlink="http://www.w3.org/1999/xlink" x="0px" y="0px"
	 viewBox="0 0 250 250" style="enable-background:new 0 0 250 250;" xml:space="preserve">
<g>
	<path d="M187.5,53.4h-26.6c-28.4-21.9-54.5-33-77.8-33C34.9,20.5,0,48.7,0,87.7c0,22.2,12.5,43.3,33.6,56.9l27.1,69.3
		c3.7,9.3,13.4,15.6,24.2,15.6c2.8,0,5.5-0.4,8.1-1.2c6.8-2.1,12.3-6.8,15.2-12.9c2.7-5.6,3-11.9,0.8-17.6L93,155
		c34.1-6.6,49.9-18.9,68-33.1h26.5c12.2,0,22.1-9.9,22.1-22.1V75.6C209.6,63.4,199.7,53.4,187.5,53.4z M103.5,199.8
		c1.7,4.3,1.5,8.9-0.6,13.1c-2.2,4.7-6.4,8.2-11.7,9.9c-2,0.6-4.1,1-6.3,1c-8.4,0-16-4.8-18.8-12l-27.6-70.5l-0.6-0.9l-0.7-0.4
		C17.5,127.7,5.7,108.1,5.7,87.7c0-35.6,32.5-61.5,77.4-61.5c21.9,0,46.9,10.7,74.5,32v59c-17.9,14.1-33.4,26.2-67.7,32.5l-4.7,0.9
		L103.5,199.8z M203.9,99.8c0,9-7.4,16.4-16.4,16.4h-24.1v-57h24.1c9,0,16.4,7.4,16.4,16.4V99.8z"/>
	<path d="M222.6,70.3c1.2-1.3,2.8-2,4.6-2c1.6-0.1,3.4,0.6,4.7,1.9c0.1,0,0.1,0.1,0.2,0.1c2.3,2.2,5.3,3.2,8.3,3.2
		c3.2,0,6.5-1.3,8.9-3.8c1.1-1.1,1.1-3-0.1-4.1s-3-1.1-4.1,0.1c-2.5,2.6-6.7,2.7-9.3,0.2c-0.1,0-0.1-0.1-0.2-0.1
		c-2.3-2.2-5.1-3.1-8.5-3.3c-3.3,0.1-6.3,1.4-8.6,3.7c-1.1,1.1-1.1,3,0.1,4.1S221.5,71.5,222.6,70.3z"/>
	<path d="M245.1,84.9c-2.5,2.6-6.7,2.7-9.3,0.2c-0.1,0-0.1-0.1-0.2-0.1c-2.3-2.1-5.1-3.2-8.5-3.3c-3.3,0.1-6.3,1.4-8.6,3.7
		c-1.1,1.1-1.1,3,0.1,4.1c1.1,1.1,3,1.1,4.1-0.1c1.2-1.3,2.8-2,4.6-2c1.6,0,3.4,0.6,4.7,1.9c0.1,0,0.1,0.1,0.2,0.1
		c2.3,2.2,5.3,3.2,8.3,3.2c3.2,0,6.5-1.3,8.9-3.8c1.1-1.1,1.1-3-0.1-4.1S246.2,83.8,245.1,84.9z"/>
	<path d="M245.1,104c-2.5,2.6-6.7,2.7-9.3,0.2c-0.1,0-0.1-0.1-0.2-0.1c-4.9-4.5-12.5-4.3-17.2,0.5c-1.1,1.1-1.1,3,0.1,4.1
		s3,1.1,4.1-0.1c2.5-2.6,6.7-2.7,9.3-0.1c0.1,0,0.1,0.1,0.2,0.1c2.3,2.2,5.3,3.2,8.3,3.2c3.2,0,6.5-1.3,8.9-3.8
		c1.1-1.1,1.1-3-0.1-4.1C248,102.9,246.2,102.9,245.1,104z"/>
	<path d="M68.5,68.6H34c-1.6,0-2.9,1.3-2.9,2.9s1.3,2.9,2.9,2.9h34.5c1.6,0,2.9-1.3,2.9-2.9S70.1,68.6,68.5,68.6z"/>
	<path d="M68.5,85.9H34c-1.6,0-2.9,1.3-2.9,2.9c0,1.6,1.3,2.9,2.9,2.9h34.5c1.6,0,2.9-1.3,2.9-2.9C71.4,87.2,70.1,85.9,68.5,85.9z"
		/>
	<path d="M68.5,103.2H34c-1.6,0-2.9,1.3-2.9,2.9s1.3,2.9,2.9,2.9h34.5c1.6,0,2.9-1.3,2.9-2.9S70.1,103.2,68.5,103.2z"/>
</g>
</svg>
