<?xml version="1.0" encoding="utf-8"?>
<!-- Generator: Adobe Illustrator 24.0.0, SVG Export Plug-In . SVG Version: 6.00 Build 0)  -->
<svg version="1.1" id="Layer_1" xmlns="http://www.w3.org/2000/svg" xmlns:xlink="http://www.w3.org/1999/xlink" x="0px" y="0px"
	 viewBox="0 0 256 256" style="enable-background:new 0 0 256 256;" xml:space="preserve">
<style type="text/css">
	.st0{fill:#8699A3;}
</style>
<g>
	<g>
		<path class="st0" d="M185.24,59.09h-27.7l-0.37-0.28C129.1,37.06,103.26,26,80.49,26C33.83,26,0,53.14,0,90.6
			c0,21.47,12.27,42.01,32.81,54.93l0.28,0.19l0.19,0.37l27.42,70.08c3.25,8.27,11.9,13.85,21.56,13.85c2.51,0,4.93-0.37,7.25-1.12
			c6.04-1.86,10.97-6.04,13.48-11.43c2.42-4.93,2.6-10.41,0.65-15.43l-17.1-46.1l1.39-0.28c35.23-6.51,51.03-18.96,69.34-33.37
			l0.28-0.28h27.7c10.6,0,19.33-8.64,19.33-19.33V78.42C204.58,67.73,195.84,59.09,185.24,59.09z M150.57,114.3l-0.46,0.37
			c-20.08,15.89-34.2,25.84-67.85,31.51h-2.79c-0.09,0-0.09,0-0.19,0c-1.67,0-3.16,0.74-4.18,2.14c-1.02,1.39-1.21,3.16-0.65,4.83
			l19.52,52.61c1.21,2.97,0.46,5.58-0.28,7.25c-1.39,2.79-4,5.02-7.25,6.04c-1.39,0.37-2.79,0.65-4.18,0.65
			c-5.3,0-10.22-2.88-11.9-7.34l-28.26-72.03c-0.37-1.12-1.21-2.05-2.14-2.6c-18.59-10.97-29.65-28.63-29.65-47.12
			c0-31.51,29.56-54.28,70.17-54.28c20.26,0,43.69,10.13,69.62,30.11l0.46,0.37V114.3z M194.17,102.68c0,4.93-4,9.02-8.92,9.02
			h-24.26V69.41h24.26c4.93,0,8.92,4.09,8.92,9.02V102.68z"/>
	</g>
	<g>
		<path class="st0" d="M71.01,67.08c0,2.79-2.32,5.11-5.21,5.11h-30.3c-2.88,0-5.21-2.32-5.21-5.11c0-2.88,2.32-5.21,5.21-5.21h30.3
			C68.69,61.88,71.01,64.2,71.01,67.08z"/>
	</g>
	<g>
		<path class="st0" d="M71.01,87.72c0,2.88-2.32,5.21-5.21,5.21h-30.3c-2.88,0-5.21-2.32-5.21-5.21c0-2.88,2.32-5.21,5.21-5.21h30.3
			C68.69,82.51,71.01,84.84,71.01,87.72z"/>
	</g>
	<g>
		<path class="st0" d="M71.01,108.35c0,2.88-2.32,5.21-5.21,5.21h-30.3c-2.88,0-5.21-2.32-5.21-5.21s2.32-5.21,5.21-5.21h30.3
			C68.69,103.15,71.01,105.47,71.01,108.35z"/>
	</g>
	<g>
		<path class="st0" d="M254.03,88.28c-0.99,0.37-1.77,1.11-2.76,2.07c-1.88,1.8-4.19,4.03-8.78,4.03c-4.58,0-7.01-2.33-8.78-4.03
			c-1.66-1.59-2.48-2.33-4.47-2.33c-1.93,0-2.82,0.74-4.42,2.33c-0.88,0.8-1.82,1.75-3.09,2.49c-1.44,0.9-3.31,0.48-4.25-0.9
			c-0.44-0.64-0.55-1.43-0.39-2.23c0.17-0.74,0.66-1.43,1.32-1.86c0.72-0.42,1.38-1.06,2.04-1.7c1.88-1.8,4.19-4.03,8.78-4.03
			c4.64,0,7.06,2.33,8.83,4.03c1.6,1.59,2.48,2.33,4.42,2.33c1.93,0,2.82-0.74,4.42-2.33c1.21-1.11,2.7-2.55,4.91-3.4
			c1.6-0.58,3.37,0.21,3.97,1.7C256.41,86,255.58,87.7,254.03,88.28z"/>
	</g>
	<g>
		<path class="st0" d="M254.03,73c-0.99,0.37-1.82,1.17-2.76,2.07c-1.88,1.8-4.19,4.03-8.78,4.03c-4.58,0-7.01-2.33-8.78-4.03
			c-1.66-1.59-2.48-2.33-4.47-2.33c-1.93,0-2.82,0.74-4.47,2.33c-0.83,0.85-1.77,1.75-3.04,2.49c-0.66,0.42-1.49,0.58-2.32,0.42
			c-0.77-0.21-1.49-0.64-1.93-1.33c-0.44-0.64-0.55-1.43-0.39-2.23c0.17-0.74,0.66-1.43,1.32-1.86c0.72-0.37,1.32-1.01,2.04-1.7
			c1.88-1.8,4.19-4.03,8.78-4.03c4.64,0,7.06,2.33,8.83,4.03c1.6,1.59,2.48,2.33,4.42,2.33c1.93,0,2.82-0.74,4.42-2.33
			c1.21-1.11,2.7-2.55,4.91-3.4c1.55-0.53,3.37,0.21,3.97,1.7C256.41,70.72,255.58,72.42,254.03,73z"/>
	</g>
	<g>
		<path class="st0" d="M254.03,103.56c-0.99,0.37-1.82,1.17-2.76,2.07c-1.88,1.8-4.19,4.03-8.78,4.03c-4.58,0-7.01-2.33-8.78-4.03
			c-1.66-1.59-2.48-2.33-4.47-2.33c-1.93,0-2.82,0.74-4.42,2.33c-0.88,0.8-1.82,1.75-3.09,2.55c-1.44,0.85-3.31,0.42-4.25-0.96
			c-0.44-0.64-0.55-1.43-0.39-2.23c0.17-0.74,0.66-1.43,1.32-1.86c0.66-0.37,1.27-0.96,2.04-1.7c1.88-1.8,4.19-4.03,8.78-4.03
			c4.64,0,7.06,2.33,8.83,4.03c1.6,1.59,2.48,2.33,4.42,2.33c1.93,0,2.82-0.74,4.42-2.33c1.21-1.11,2.7-2.55,4.91-3.4
			c1.6-0.58,3.37,0.21,3.97,1.7C256.41,101.28,255.58,102.98,254.03,103.56z"/>
	</g>
</g>
</svg>
