<?xml version="1.0" encoding="utf-8"?>
<!-- Generator: Adobe Illustrator 24.0.0, SVG Export Plug-In . SVG Version: 6.00 Build 0)  -->
<svg version="1.1" id="Layer_1" xmlns="http://www.w3.org/2000/svg" xmlns:xlink="http://www.w3.org/1999/xlink" x="0px" y="0px"
	 viewBox="0 0 256 256" style="enable-background:new 0 0 256 256;" xml:space="preserve">
<g>
	<g>
		<path d="M185.2,59.1h-27.7l-0.4-0.3C129.1,37.1,103.3,26,80.5,26C33.8,26,0,53.1,0,90.6c0,21.5,12.3,42,32.8,54.9l0.3,0.2l0.2,0.4
			l27.4,70.1c3.2,8.3,11.9,13.9,21.6,13.9c2.5,0,4.9-0.4,7.2-1.1c6-1.9,11-6,13.5-11.4c2.4-4.9,2.6-10.4,0.7-15.4l-17.1-46.1
			l1.4-0.3c35.2-6.5,51-19,69.3-33.4l0.3-0.3h27.7c10.6,0,19.3-8.6,19.3-19.3V78.4C204.6,67.7,195.8,59.1,185.2,59.1z M150.6,114.3
			l-0.5,0.4c-20.1,15.9-34.2,25.8-67.8,31.5h-2.8c-0.1,0-0.1,0-0.2,0c-1.7,0-3.2,0.7-4.2,2.1c-1,1.4-1.2,3.2-0.7,4.8L94,205.8
			c1.2,3,0.5,5.6-0.3,7.2c-1.4,2.8-4,5-7.2,6c-1.4,0.4-2.8,0.6-4.2,0.6c-5.3,0-10.2-2.9-11.9-7.3l-28.3-72c-0.4-1.1-1.2-2.1-2.1-2.6
			c-18.6-11-29.6-28.6-29.6-47.1c0-31.5,29.6-54.3,70.2-54.3c20.3,0,43.7,10.1,69.6,30.1l0.5,0.4L150.6,114.3L150.6,114.3z
			 M194.2,102.7c0,4.9-4,9-8.9,9H161V69.4h24.3c4.9,0,8.9,4.1,8.9,9V102.7z"/>
	</g>
	<g>
		<path d="M71,67.1c0,2.8-2.3,5.1-5.2,5.1H35.5c-2.9,0-5.2-2.3-5.2-5.1c0-2.9,2.3-5.2,5.2-5.2h30.3C68.7,61.9,71,64.2,71,67.1z"/>
	</g>
	<g>
		<path d="M71,87.7c0,2.9-2.3,5.2-5.2,5.2H35.5c-2.9,0-5.2-2.3-5.2-5.2c0-2.9,2.3-5.2,5.2-5.2h30.3C68.7,82.5,71,84.8,71,87.7z"/>
	</g>
	<g>
		<path d="M71,108.3c0,2.9-2.3,5.2-5.2,5.2H35.5c-2.9,0-5.2-2.3-5.2-5.2s2.3-5.2,5.2-5.2h30.3C68.7,103.2,71,105.5,71,108.3z"/>
	</g>
	<g>
		<path d="M254,88.3c-1,0.4-1.8,1.1-2.8,2.1c-1.9,1.8-4.2,4-8.8,4c-4.6,0-7-2.3-8.8-4c-1.7-1.6-2.5-2.3-4.5-2.3
			c-1.9,0-2.8,0.7-4.4,2.3c-0.9,0.8-1.8,1.8-3.1,2.5c-1.4,0.9-3.3,0.5-4.2-0.9c-0.4-0.6-0.6-1.4-0.4-2.2c0.2-0.7,0.7-1.4,1.3-1.9
			c0.7-0.4,1.4-1.1,2-1.7c1.9-1.8,4.2-4,8.8-4c4.6,0,7.1,2.3,8.8,4c1.6,1.6,2.5,2.3,4.4,2.3c1.9,0,2.8-0.7,4.4-2.3
			c1.2-1.1,2.7-2.6,4.9-3.4c1.6-0.6,3.4,0.2,4,1.7C256.4,86,255.6,87.7,254,88.3z"/>
	</g>
	<g>
		<path d="M254,73c-1,0.4-1.8,1.2-2.8,2.1c-1.9,1.8-4.2,4-8.8,4c-4.6,0-7-2.3-8.8-4c-1.7-1.6-2.5-2.3-4.5-2.3
			c-1.9,0-2.8,0.7-4.5,2.3c-0.8,0.8-1.8,1.8-3,2.5c-0.7,0.4-1.5,0.6-2.3,0.4c-0.8-0.2-1.5-0.6-1.9-1.3c-0.4-0.6-0.6-1.4-0.4-2.2
			c0.2-0.7,0.7-1.4,1.3-1.9c0.7-0.4,1.3-1,2-1.7c1.9-1.8,4.2-4,8.8-4c4.6,0,7.1,2.3,8.8,4c1.6,1.6,2.5,2.3,4.4,2.3
			c1.9,0,2.8-0.7,4.4-2.3c1.2-1.1,2.7-2.6,4.9-3.4c1.6-0.5,3.4,0.2,4,1.7C256.4,70.7,255.6,72.4,254,73z"/>
	</g>
	<g>
		<path d="M254,103.6c-1,0.4-1.8,1.2-2.8,2.1c-1.9,1.8-4.2,4-8.8,4c-4.6,0-7-2.3-8.8-4c-1.7-1.6-2.5-2.3-4.5-2.3
			c-1.9,0-2.8,0.7-4.4,2.3c-0.9,0.8-1.8,1.8-3.1,2.6c-1.4,0.8-3.3,0.4-4.2-1c-0.4-0.6-0.6-1.4-0.4-2.2c0.2-0.7,0.7-1.4,1.3-1.9
			c0.7-0.4,1.3-1,2-1.7c1.9-1.8,4.2-4,8.8-4c4.6,0,7.1,2.3,8.8,4c1.6,1.6,2.5,2.3,4.4,2.3c1.9,0,2.8-0.7,4.4-2.3
			c1.2-1.1,2.7-2.6,4.9-3.4c1.6-0.6,3.4,0.2,4,1.7C256.4,101.3,255.6,103,254,103.6z"/>
	</g>
</g>
</svg>
