<svg xmlns="http://www.w3.org/2000/svg" viewBox="0 0 32.75 32.24"><defs><style>.a,.b{fill:none;stroke:#000;stroke-linecap:round;stroke-linejoin:round;stroke-width:0.75px;}.b{fill-rule:evenodd;}</style></defs><title>431</title><circle class="a" cx="22.79" cy="9.96" r="9.59"/><line class="a" x1="27.42" y1="10.66" x2="23.69" y2="10.66"/><line class="a" x1="23.69" y1="10.66" x2="20.08" y2="6.08"/><circle class="a" cx="20.01" cy="24.24" r="2.11"/><circle class="a" cx="5.8" cy="24.24" r="2.11"/><path class="b" d="M16,17c-3.44-.08-8.48-.08-10.49.07.46-.91.9-3.84,1.37-4.74a1.41,1.41,0,0,1,1.27-.7,32.38,32.38,0,0,1,4.79-.3" transform="translate(0.38 0.12)"/><path class="b" d="M24,19.31c.35,3.46,1,11,1,11a.46.46,0,0,1-.47.47H20.41a.48.48,0,0,1-.47-.47V28.92H5v1.35a.46.46,0,0,1-.47.47H.47A.46.46,0,0,1,0,30.27S1,18.87,1.14,17.6h0a1.32,1.32,0,0,1-.22-2.12c1.15-1.23,2.13.61,2.13.61h0c.54-1.11,1.11-3.82,1.65-5a3,3,0,0,1,2-1.41,33.89,33.89,0,0,1,6.15-.5" transform="translate(0.38 0.12)"/><line class="a" x1="7.7" y1="31.86" x2="18.06" y2="31.86"/></svg>