<svg xmlns="http://www.w3.org/2000/svg" viewBox="0 0 32.75 32.33"><defs><style>.a{fill:none;stroke:#000;stroke-linecap:round;stroke-linejoin:round;stroke-width:0.75px;}</style></defs><title>438</title><path class="a" d="M31.59,2.45H10.29a.41.41,0,0,0-.39.4V5.79H.41A.4.4,0,0,0,0,6.18V31.39a.41.41,0,0,0,.41.4h21.3a.4.4,0,0,0,.39-.4v-9.5h9.49a.39.39,0,0,0,.41-.38V2.85A.4.4,0,0,0,31.59,2.45Z" transform="translate(0.38 0.16)"/><path class="a" d="M10.51,14.81H7.73a3.1,3.1,0,0,0-3.05,2.84,1.64,1.64,0,0,0-1.5,1.61v1A2.22,2.22,0,0,0,5,22.45l.73,6a.41.41,0,0,0,.4.35h9.61a.41.41,0,0,0,.4-.35l.73-6a2.23,2.23,0,0,0,1.79-2.12V19.27a1.63,1.63,0,0,0-1.5-1.62,3.1,3.1,0,0,0-3.05-2.84H10.51ZM5,22.45h.8a2.22,2.22,0,0,0,1.46-.92,2.23,2.23,0,0,0,3.67,0,2.22,2.22,0,0,0,3.66,0,2.27,2.27,0,0,0,1.47.92h.81" transform="translate(0.38 0.16)"/><line class="a" x1="13.67" y1="2.62" x2="13.67" y2="0.38"/><line class="a" x1="28.9" y1="2.62" x2="28.9" y2="0.38"/><path class="a" d="M26.86,9.69H24.55V7.38h2.31Z" transform="translate(0.38 0.16)"/><path class="a" d="M26.86,14.33H24.55V12h2.31Z" transform="translate(0.38 0.16)"/><path class="a" d="M26.86,19H24.55V16.67h2.31Z" transform="translate(0.38 0.16)"/><polyline class="a" points="22.48 22.06 22.48 5.94 10.27 5.94"/><path class="a" d="M9.52,11.66a4.87,4.87,0,0,1,1.39-2.13,4.81,4.81,0,0,1,1.39,2.13,1.39,1.39,0,0,1-2.78,0Z" transform="translate(0.38 0.16)"/></svg>