<?xml version="1.0" encoding="utf-8"?>
<!-- Generator: Adobe Illustrator 24.0.0, SVG Export Plug-In . SVG Version: 6.00 Build 0)  -->
<svg version="1.1" id="Layer_1" xmlns="http://www.w3.org/2000/svg" xmlns:xlink="http://www.w3.org/1999/xlink" x="0px" y="0px"
	 viewBox="0 0 256 256" style="enable-background:new 0 0 256 256;" xml:space="preserve">
<g>
	<g>
		<g>
			<g>
				<path d="M109.2,246.6H3.3V140.8h105.8V246.6z M9.9,240h92.7v-92.7H9.9V240z"/>
				<path d="M109.2,249.4H3.3c-1.5,0-2.8-1.2-2.8-2.8V140.8c0-1.5,1.2-2.8,2.8-2.8h105.8c1.5,0,2.8,1.2,2.8,2.8v105.9
					C112,248.2,110.7,249.4,109.2,249.4z M6.1,243.9h100.3V143.6H6.1V243.9z M102.6,242.8H9.9c-1.5,0-2.8-1.2-2.8-2.8v-92.7
					c0-1.5,1.2-2.8,2.8-2.8h92.7c1.5,0,2.8,1.2,2.8,2.8V240C105.4,241.6,104.1,242.8,102.6,242.8z M12.7,237.2h87.1v-87.1H12.7
					V237.2z"/>
			</g>
		</g>
		<g>
			<g>
				<path d="M195.2,251.1c-31.7,0-57.4-25.8-57.4-57.4s25.8-57.4,57.4-57.4s57.4,25.8,57.4,57.4S226.9,251.1,195.2,251.1z
					 M195.2,141.8c-28.6,0-51.9,23.3-51.9,51.9s23.3,51.9,51.9,51.9s51.9-23.3,51.9-51.9S223.8,141.8,195.2,141.8z"/>
				<path d="M195.2,254.4c-33.5,0-60.8-27.3-60.8-60.8s27.3-60.8,60.8-60.8s60.8,27.3,60.8,60.8S228.7,254.4,195.2,254.4z
					 M195.2,145.1c-26.8,0-48.6,21.8-48.6,48.6s21.8,48.6,48.6,48.6s48.6-21.8,48.6-48.6S222,145.1,195.2,145.1z"/>
			</g>
		</g>
	</g>
	<g>
		<g>
			<g>
				<path d="M146.8,115.7h105.8V9.9H146.8V115.7z M246.1,109.2h-92.7V16.5h92.7V109.2z"/>
				<path d="M252.7,118.5H146.8c-1.5,0-2.8-1.2-2.8-2.8V9.9c0-1.5,1.2-2.8,2.8-2.8h105.8c1.5,0,2.8,1.2,2.8,2.8v105.8
					C255.4,117.3,254.2,118.5,252.7,118.5z M149.6,113h100.3V12.7H149.6V113z M246.1,111.9h-92.7c-1.5,0-2.8-1.2-2.8-2.8V16.5
					c0-1.5,1.2-2.8,2.8-2.8h92.7c1.5,0,2.8,1.2,2.8,2.8v92.7C248.9,110.7,247.6,111.9,246.1,111.9z M156.2,106.4h87.1V19.3h-87.1
					V106.4z"/>
			</g>
		</g>
		<g>
			<g>
				<path d="M60.8,120.2c31.7,0,57.4-25.8,57.4-57.4S92.4,5.3,60.8,5.3S3.3,31.1,3.3,62.8S29.1,120.2,60.8,120.2z M60.8,10.9
					c28.6,0,51.9,23.3,51.9,51.9s-23.3,51.9-51.9,51.9S8.9,91.4,8.9,62.8S32.2,10.9,60.8,10.9z"/>
				<path d="M60.8,123.6C27.3,123.6,0,96.3,0,62.8S27.3,2,60.8,2s60.8,27.3,60.8,60.8S94.3,123.6,60.8,123.6z M60.8,14.2
					C34,14.2,12.2,36,12.2,62.8s21.8,48.6,48.5,48.6s48.5-21.8,48.5-48.6S87.5,14.2,60.8,14.2z"/>
			</g>
		</g>
	</g>
</g>
</svg>
