<svg xmlns="http://www.w3.org/2000/svg" viewBox="0 0 23.89 32.75"><defs><style>.a{fill:none;stroke:#000;stroke-linecap:round;stroke-linejoin:round;stroke-width:0.75px;}</style></defs><title>45</title><path class="a" d="M9.61,27H4.43v-5.5a5.41,5.41,0,0,1,4.13-4.92c4.14-1.25,5.19-1.77,5.19-3.71" transform="translate(-4.06 0.38)"/><path class="a" d="M22.39,27h5.18v-5.5a5.41,5.41,0,0,0-4.13-4.92c-4.14-1.25-5.19-1.77-5.19-3.71" transform="translate(-4.06 0.38)"/><circle class="a" cx="11.93" cy="25.88" r="6.45"/><circle class="a" cx="11.93" cy="25.88" r="1.9"/><line class="a" x1="13.82" y1="25.89" x2="18.38" y2="25.89"/><line class="a" x1="11.94" y1="32.38" x2="11.94" y2="27.82"/><line class="a" x1="5.45" y1="25.89" x2="10" y2="25.89"/><polyline class="a" points="8.79 15.29 10.2 16.78 13.62 16.78 15.07 15.29"/><path class="a" d="M15.86,0a13.19,13.19,0,0,1,5.53,1.14l1.26,1.14L20.73,3.89l.58,2S15.66,4,10.49,6.15L11,3.89,9.11,2.28l1.26-1.14A13.25,13.25,0,0,1,15.9,0" transform="translate(-4.06 0.38)"/><path class="a" d="M10.53,6.32s.94,7.22,5.41,7.22S21.32,6,21.32,6,14.88,4.55,10.53,6.32Z" transform="translate(-4.06 0.38)"/></svg>