<?xml version="1.0" encoding="utf-8"?>
<!-- Generator: Adobe Illustrator 24.0.0, SVG Export Plug-In . SVG Version: 6.00 Build 0)  -->
<svg version="1.1" id="Layer_1" xmlns="http://www.w3.org/2000/svg" xmlns:xlink="http://www.w3.org/1999/xlink" x="0px" y="0px"
	 viewBox="0 0 256 256" style="enable-background:new 0 0 256 256;" xml:space="preserve">
<style type="text/css">
	.st0{fill:#8699A3;}
</style>
<g>
	<g>
		<g>
			<g>
				<path class="st0" d="M109.17,246.63H3.33V140.78h105.84V246.63z M9.92,240.04h92.66v-92.66H9.92V240.04z"/>
				<path class="st0" d="M109.18,249.41H3.34c-1.54,0-2.78-1.24-2.78-2.78V140.78c0-1.54,1.24-2.78,2.78-2.78h105.84
					c1.54,0,2.78,1.24,2.78,2.78v105.85C111.96,248.17,110.71,249.41,109.18,249.41z M6.12,243.85H106.4V143.56H6.12V243.85z
					 M102.58,242.82H9.93c-1.54,0-2.78-1.24-2.78-2.78v-92.66c0-1.54,1.24-2.78,2.78-2.78h92.66c1.54,0,2.78,1.24,2.78,2.78v92.66
					C105.36,241.57,104.12,242.82,102.58,242.82z M12.71,237.25H99.8v-87.1H12.71V237.25z"/>
			</g>
		</g>
		<g>
			<g>
				<path class="st0" d="M195.23,251.09c-31.67,0-57.44-25.77-57.44-57.44s25.77-57.44,57.44-57.44s57.44,25.77,57.44,57.44
					S226.9,251.09,195.23,251.09z M195.23,141.77c-28.61,0-51.89,23.28-51.89,51.89s23.28,51.89,51.89,51.89
					s51.89-23.28,51.89-51.89S223.84,141.77,195.23,141.77z"/>
				<path class="st0" d="M195.23,254.43c-33.51,0-60.77-27.26-60.77-60.77s27.26-60.77,60.77-60.77c33.51,0,60.77,27.26,60.77,60.77
					S228.74,254.43,195.23,254.43z M195.23,145.1c-26.77,0-48.56,21.78-48.56,48.56s21.78,48.55,48.56,48.55
					s48.55-21.78,48.55-48.55S222,145.1,195.23,145.1z"/>
			</g>
		</g>
	</g>
	<g>
		<g>
			<g>
				<path class="st0" d="M146.83,115.74h105.84V9.9H146.83V115.74z M246.08,109.15h-92.66V16.49h92.66V109.15z"/>
				<path class="st0" d="M252.66,118.53H146.83c-1.54,0-2.78-1.24-2.78-2.78V9.9c0-1.54,1.24-2.78,2.78-2.78h105.84
					c1.54,0,2.78,1.24,2.78,2.78v105.85C255.45,117.28,254.2,118.53,252.66,118.53z M149.61,112.96h100.27V12.68H149.61V112.96z
					 M246.07,111.94h-92.66c-1.54,0-2.78-1.24-2.78-2.78V16.49c0-1.54,1.24-2.78,2.78-2.78h92.66c1.54,0,2.78,1.24,2.78,2.78v92.66
					C248.86,110.69,247.61,111.94,246.07,111.94z M156.2,106.37h87.09v-87.1H156.2V106.37z"/>
			</g>
		</g>
		<g>
			<g>
				<path class="st0" d="M60.77,120.21c31.67,0,57.44-25.77,57.44-57.44S92.44,5.34,60.77,5.34S3.33,31.1,3.33,62.77
					S29.1,120.21,60.77,120.21z M60.77,10.89c28.61,0,51.89,23.28,51.89,51.89s-23.28,51.89-51.89,51.89S8.88,91.39,8.88,62.77
					S32.16,10.89,60.77,10.89z"/>
				<path class="st0" d="M60.77,123.55C27.26,123.55,0,96.29,0,62.77S27.26,2,60.77,2c33.51,0,60.77,27.26,60.77,60.77
					S94.28,123.55,60.77,123.55z M60.77,14.22C34,14.22,12.22,36,12.22,62.77S34,111.33,60.77,111.33s48.55-21.78,48.55-48.56
					S87.54,14.22,60.77,14.22z"/>
			</g>
		</g>
	</g>
</g>
</svg>
