<?xml version="1.0" encoding="utf-8"?>
<!-- Generator: Adobe Illustrator 24.0.0, SVG Export Plug-In . SVG Version: 6.00 Build 0)  -->
<svg version="1.1" id="Layer_1" xmlns="http://www.w3.org/2000/svg" xmlns:xlink="http://www.w3.org/1999/xlink" x="0px" y="0px"
	 viewBox="0 0 250 250" style="enable-background:new 0 0 250 250;" xml:space="preserve">
<g>
	<g>
		<path d="M109.6,133.8H0.7L0.3,242.9l109.1,0.3l0.4-109.2L109.6,133.8z M103,236.4H7v-95.9h96V236.4z"/>
	</g>
	<g>
		<path d="M190.2,128.7c-32.9,0-59.6,26.8-59.6,59.8c0,32.9,26.7,59.7,59.6,59.7c33,0,59.8-26.8,59.8-59.7
			C250,155.5,223.2,128.7,190.2,128.7z M190.2,241.8c-29.3,0-53.2-23.9-53.2-53.2c0-29.5,23.9-53.4,53.2-53.4
			c29.4,0,53.4,23.9,53.4,53.4C243.6,217.9,219.6,241.8,190.2,241.8z"/>
	</g>
	<g>
		<path d="M140.7,7l-0.4,109.1l0.2,0.2h108.8l0.3-109.1L140.7,7z M242.9,109.6H147V13.7h95.9V109.6z"/>
	</g>
	<g>
		<path d="M59.6,1.7C26.7,1.7,0,28.5,0,61.5s26.7,59.8,59.6,59.8c33,0,59.8-26.8,59.8-59.8S92.6,1.7,59.6,1.7z M59.6,115
			C30.3,115,6.4,91,6.4,61.5c0-29.3,23.9-53.2,53.2-53.2c29.4,0,53.4,23.9,53.4,53.2C113,91,89.1,115,59.6,115z"/>
	</g>
</g>
</svg>
