<svg xmlns="http://www.w3.org/2000/svg" viewBox="0 0 250 250">
<path d="M187.7,129L156.9,118c-5.3-1.2-12.5-7.1-12.5-11.6v-6.7l0.4-0.3c14.7-13.8,23.9-39.3,23.9-55.2l-3.3-13.1l0.8-0.4l14-10.5L167.4,7.6l-20.8-5.1c-14.3-3.4-29.2-3.4-43.3,0L82.6,7.6L70,20.3l14.8,11l-2.9,12.5c-0.4,15.7,9,41.8,23.5,55.5l0.4,0.4v6.7c0,4.5-7.3,10.4-12.7,11.6L62.4,129c-17.3,6.2-28.9,22.7-28.9,41v42h42l0.2,0.5C81.7,234.6,102,250,125,250c23,0,43.3-15.4,49.6-37.5l0.1-0.5h41.9v-42C216.2,151.8,204.6,135.3,187.7,129z M76.7,20.2l8.2-8.2h0.3l19-4.8c13.4-3.5,27.7-3.5,41.4,0L165,12l0.2,0.3l7.8,7.9l-12.9,9.7l3.7,15.2l-1.9-0.3c-24.7-3.1-49.8-3.1-74.6,0l-1.8,0.3l3.7-15.2L76.7,20.2z M90.5,48.6c22.8-2.4,45.9-2.4,68.7,0l6.1,0.6l-5.9,1.7c-11.2,3.3-22.8,4.9-34.5,4.9c-11.6,0-23.3-1.6-34.6-4.9l-5.8-1.7L90.5,48.6z M101,88.3c-6.1-8.7-11.3-20.5-13.7-31.7L87,54.5l1.9,0.7c11.9,3.4,24,5.1,36,5.1c12.1,0,24.5-1.7,36-5.1l2-0.6l-0.5,2.1c-2.3,10.9-7.5,22.7-13.8,31.5c-7.4,10.2-15.8,15.7-23.7,15.7h-0.4C114.3,103.8,106.1,95.4,101,88.3z M105,115.9c5.2-4.9,4.9-9.9,4.8-10l-0.3-2.3l2.1,1.1c4.5,2.4,8.8,3.6,13.2,3.6c4.7,0,8.9-1.3,13.2-3.9l2.2-1.3l-0.3,2.4c-0.1,0.5-0.3,5.6,4.7,9.9l1,1l-7.8,7.8h-25.5l-8.2-7.4L105,115.9z M123.1,245.6l-0.7-0.1c-19.5-1.1-36.4-14.2-42.3-32.7c-0.7-2.2-1.2-4.1-1.4-5.9c-0.4-1.9-0.6-4-0.7-6.4v-0.7h31.6l0.1,0.6c1.1,6.6,6.3,11.8,12.9,12.9l0.6,0.1V245.6z M113.9,198c0-6.1,5-11.1,11.1-11.1c6.1,0,11.1,5,11.1,11.1c0,6.1-5,11.1-11.1,11.1C118.8,209.1,113.9,204.1,113.9,198z M172.1,200.6c-0.1,2.4-0.4,4.5-0.7,6.4c-0.3,1.7-0.7,3.6-1.4,5.9c-3,9.3-8.7,17.1-16.1,22.8c-7.5,5.7-16.6,9.3-26.3,9.8l-0.7,0.1v-32.2l0.6-0.1c6.6-1.1,11.8-6.2,12.9-12.9l0.1-0.6h31.7V200.6z M140.5,196.1l-0.1-0.6c-1.2-7.6-7.7-13.1-15.4-13.1c-7.7,0-14.1,5.5-15.4,13.1l-0.1,0.6H78v-0.7c1.7-24.6,22.3-43.9,47-43.9c24.8,0,45.4,19.3,47.1,43.9l0.1,0.7H140.5z M212.1,207.5h-36.5l0.2-0.8c0.5-2.5,0.7-5.3,0.7-8.3c0-28.4-23.1-51.5-51.5-51.5c-28.3,0-51.4,23.1-51.4,51.5c0,2.9,0.3,5.7,0.7,8.3l0.2,0.8H37.6V170c0-16.3,10.4-31.1,26-36.8l30-10.7c2-0.4,3.9-1.2,6-2.7l0.8-0.5l9.7,9.7h29.4l9.7-9.7l0.8,0.5c1.9,1.3,3.9,2,5.9,2.7l30.1,10.7c15.6,5.8,26.1,20.6,26.1,36.8V207.5z"/>
<path class="st0" d="M125,186.2c-6.5,0-11.7,5.3-11.7,11.7c0,6.5,5.3,11.8,11.7,11.8c6.5,0,11.8-5.3,11.8-11.8C136.8,191.5,131.5,186.2,125,186.2z M125,208.4c-5.8,0-10.4-4.7-10.4-10.5c0-5.7,4.7-10.4,10.4-10.4c5.8,0,10.5,4.7,10.5,10.4C135.4,203.7,130.7,208.4,125,208.4z M125,186.2c-6.5,0-11.7,5.3-11.7,11.7c0,6.5,5.3,11.8,11.7,11.8c6.5,0,11.8-5.3,11.8-11.8C136.8,191.5,131.5,186.2,125,186.2z M125,208.4c-5.8,0-10.4-4.7-10.4-10.5c0-5.7,4.7-10.4,10.4-10.4c5.8,0,10.5,4.7,10.5,10.4C135.4,203.7,130.7,208.4,125,208.4z M125,186.2c-6.5,0-11.7,5.3-11.7,11.7c0,6.5,5.3,11.8,11.7,11.8c6.5,0,11.8-5.3,11.8-11.8C136.8,191.5,131.5,186.2,125,186.2z M125,208.4c-5.8,0-10.4-4.7-10.4-10.5c0-5.7,4.7-10.4,10.4-10.4c5.8,0,10.5,4.7,10.5,10.4C135.4,203.7,130.7,208.4,125,208.4z M125,186.2c-6.5,0-11.7,5.3-11.7,11.7c0,6.5,5.3,11.8,11.7,11.8c6.5,0,11.8-5.3,11.8-11.8C136.8,191.5,131.5,186.2,125,186.2z M125,208.4c-5.8,0-10.4-4.7-10.4-10.5c0-5.7,4.7-10.4,10.4-10.4c5.8,0,10.5,4.7,10.5,10.4C135.4,203.7,130.7,208.4,125,208.4z M125,186.2c-6.5,0-11.7,5.3-11.7,11.7c0,6.5,5.3,11.8,11.7,11.8c6.5,0,11.8-5.3,11.8-11.8C136.8,191.5,131.5,186.2,125,186.2z M125,208.4c-5.8,0-10.4-4.7-10.4-10.5c0-5.7,4.7-10.4,10.4-10.4c5.8,0,10.5,4.7,10.5,10.4C135.4,203.7,130.7,208.4,125,208.4z M125,186.2c-6.5,0-11.7,5.3-11.7,11.7c0,6.5,5.3,11.8,11.7,11.8c6.5,0,11.8-5.3,11.8-11.8C136.8,191.5,131.5,186.2,125,186.2z M125,208.4c-5.8,0-10.4-4.7-10.4-10.5c0-5.7,4.7-10.4,10.4-10.4c5.8,0,10.5,4.7,10.5,10.4C135.4,203.7,130.7,208.4,125,208.4z M125,186.2c-6.5,0-11.7,5.3-11.7,11.7c0,6.5,5.3,11.8,11.7,11.8c6.5,0,11.8-5.3,11.8-11.8C136.8,191.5,131.5,186.2,125,186.2z M125,208.4c-5.8,0-10.4-4.7-10.4-10.5c0-5.7,4.7-10.4,10.4-10.4c5.8,0,10.5,4.7,10.5,10.4C135.4,203.7,130.7,208.4,125,208.4z M125,186.2c-6.5,0-11.7,5.3-11.7,11.7c0,6.5,5.3,11.8,11.7,11.8c6.5,0,11.8-5.3,11.8-11.8C136.8,191.5,131.5,186.2,125,186.2z M125,208.4c-5.8,0-10.4-4.7-10.4-10.5c0-5.7,4.7-10.4,10.4-10.4c5.8,0,10.5,4.7,10.5,10.4C135.4,203.7,130.7,208.4,125,208.4z M125,186.2c-6.5,0-11.7,5.3-11.7,11.7c0,6.5,5.3,11.8,11.7,11.8c6.5,0,11.8-5.3,11.8-11.8C136.8,191.5,131.5,186.2,125,186.2z M125,208.4c-5.8,0-10.4-4.7-10.4-10.5c0-5.7,4.7-10.4,10.4-10.4c5.8,0,10.5,4.7,10.5,10.4C135.4,203.7,130.7,208.4,125,208.4z M125,186.2c-6.5,0-11.7,5.3-11.7,11.7c0,6.5,5.3,11.8,11.7,11.8c6.5,0,11.8-5.3,11.8-11.8C136.8,191.5,131.5,186.2,125,186.2z M125,208.4c-5.8,0-10.4-4.7-10.4-10.5c0-5.7,4.7-10.4,10.4-10.4c5.8,0,10.5,4.7,10.5,10.4C135.4,203.7,130.7,208.4,125,208.4z M125,186.2c-6.5,0-11.7,5.3-11.7,11.7c0,6.5,5.3,11.8,11.7,11.8c6.5,0,11.8-5.3,11.8-11.8C136.8,191.5,131.5,186.2,125,186.2z M125,208.4c-5.8,0-10.4-4.7-10.4-10.5c0-5.7,4.7-10.4,10.4-10.4c5.8,0,10.5,4.7,10.5,10.4C135.4,203.7,130.7,208.4,125,208.4z M125,186.2c-6.5,0-11.7,5.3-11.7,11.7c0,6.5,5.3,11.8,11.7,11.8c6.5,0,11.8-5.3,11.8-11.8C136.8,191.5,131.5,186.2,125,186.2z M125,208.4c-5.8,0-10.4-4.7-10.4-10.5c0-5.7,4.7-10.4,10.4-10.4c5.8,0,10.5,4.7,10.5,10.4C135.4,203.7,130.7,208.4,125,208.4z M125,186.2c-6.5,0-11.7,5.3-11.7,11.7c0,6.5,5.3,11.8,11.7,11.8c6.5,0,11.8-5.3,11.8-11.8C136.8,191.5,131.5,186.2,125,186.2z M125,208.4c-5.8,0-10.4-4.7-10.4-10.5c0-5.7,4.7-10.4,10.4-10.4c5.8,0,10.5,4.7,10.5,10.4C135.4,203.7,130.7,208.4,125,208.4z M125,186.2c-6.5,0-11.7,5.3-11.7,11.7c0,6.5,5.3,11.8,11.7,11.8c6.5,0,11.8-5.3,11.8-11.8C136.8,191.5,131.5,186.2,125,186.2z M125,208.4c-5.8,0-10.4-4.7-10.4-10.5c0-5.7,4.7-10.4,10.4-10.4c5.8,0,10.5,4.7,10.5,10.4C135.4,203.7,130.7,208.4,125,208.4z M125,186.2c-6.5,0-11.7,5.3-11.7,11.7c0,6.5,5.3,11.8,11.7,11.8c6.5,0,11.8-5.3,11.8-11.8C136.8,191.5,131.5,186.2,125,186.2z M125,208.4c-5.8,0-10.4-4.7-10.4-10.5c0-5.7,4.7-10.4,10.4-10.4c5.8,0,10.5,4.7,10.5,10.4C135.4,203.7,130.7,208.4,125,208.4z"/>
<path d="M112.2,14.6v10.3l12.6,8.5l12.6-8.5V14.6H112.2z M133,22.7l-8.1,5.3l-8.1-5.3v-3.6H133V22.7z"/></svg>