<?xml version="1.0" encoding="utf-8"?>
<!-- Generator: Adobe Illustrator 24.0.0, SVG Export Plug-In . SVG Version: 6.00 Build 0)  -->
<svg version="1.1" id="Layer_1" xmlns="http://www.w3.org/2000/svg" xmlns:xlink="http://www.w3.org/1999/xlink" x="0px" y="0px"
	 viewBox="0 0 250 250" style="enable-background:new 0 0 250 250;" xml:space="preserve">
<g>
	<path d="M127.3,88.7c-5.7-5.2-14.7-4.8-19.9,0.9l-10.8,11.6V53.6c0-7.7-6.2-14-14.1-14c-3.3,0-6.3,1.2-8.7,3V32.1
		c0-7.7-6.2-14-14.1-14c-7.8,0-14.1,6.3-14.1,14v1.8c-2.5-1.9-5.5-3.1-8.7-3.1c-7.8,0-14.1,6.3-14.1,14.1v1.1c-2.5-1.9-5.5-3-8.6-3
		C6.3,43.1,0,49.3,0,57.1v133.5c0,7.8,6.4,14.2,14.3,14.2h68c7.9,0,14.3-6.4,14.3-14.2v-43.2c0-3.2,1.2-6.2,3.3-8.5l28.2-30.4
		C133.2,103,133.1,94.2,127.3,88.7z M124.1,104.8l-28.2,30.3c-3.1,3.3-4.8,7.7-4.8,12.2v28.1H48.3c-1.5,0-2.7,1.2-2.7,2.7
		c0,1.5,1.2,2.7,2.7,2.7h42.8v9.7c0,4.8-4,8.7-8.8,8.7h-68c-4.9,0-8.8-3.9-8.8-8.7V181H23c1.5,0,2.7-1.2,2.7-2.7
		c0-1.5-1.2-2.7-2.7-2.7H5.5V57.1c0-4.7,3.9-8.6,8.7-8.6c4.9,0,8.6,3.9,8.6,8.6v47.8c0,1.5,1.2,2.7,2.7,2.7s2.7-1.2,2.7-2.7V57.1
		V44.9c0-4.7,3.9-8.6,8.6-8.6c4.5,0,8.7,3.6,8.7,8.6v63.4c0,1.5,1.2,2.7,2.7,2.7c1.5,0,2.7-1.2,2.7-2.7V44.9V32.1
		c0-4.7,3.9-8.6,8.6-8.6c4.9,0,8.6,3.9,8.6,8.6v21.5v58.2c0,1.5,1.2,2.7,2.7,2.7s2.7-1.2,2.7-2.7V53.6c0-4.7,3.9-8.6,8.7-8.6
		c4.9,0,8.6,3.9,8.6,8.6v54.5c0,0,0,0,0,0c0,2.4,3,3.6,4.7,1.8c0,0,0,0,0,0l15.5-16.7c3.2-3.5,8.7-3.7,12.2-0.5
		C127.1,96,127.3,101.3,124.1,104.8z"/>
	<path d="M224.8,34.2c-1.5,0-2.7,1.2-2.7,2.7c0,1.5,1.2,2.7,2.7,2.7c10.9,0,19.8,8.8,19.8,19.7c0,1.5,1.2,2.7,2.7,2.7
		c1.5,0,2.7-1.2,2.7-2.7C250,45.5,238.7,34.2,224.8,34.2z"/>
	<path d="M224.8,45.2h-68c-7.9,0-14.3,6.4-14.3,14.2v43.2c0,3.2-1.2,6.2-3.3,8.5L111,141.4c-5.2,5.6-5.1,14.4,0.8,19.9
		c5.7,5.2,14.7,4.8,19.9-0.8l10.8-11.6v47.6c0,7.7,6.2,14,14.1,14c3.3,0,6.3-1.2,8.7-3v10.5c0,7.7,6.3,14,14.1,14
		c7.8,0,14.1-6.3,14.1-14v-1.8c2.5,1.9,5.5,3.1,8.7,3.1c7.8,0,14.1-6.3,14.1-14.1v-1.1c2.5,1.9,5.5,3,8.6,3c7.8,0,14.1-6.3,14.1-14
		V59.4C239.1,51.5,232.6,45.2,224.8,45.2z M224.9,201.5c-4.8,0-8.6-3.8-8.6-8.6v-47.8c0-1.5-1.2-2.7-2.7-2.7c-1.5,0-2.7,1.2-2.7,2.7
		v47.8v12.2c0,4.7-3.9,8.6-8.6,8.6c-4.6,0-8.7-3.7-8.7-8.6v-63.4c0-1.5-1.2-2.7-2.7-2.7c-1.5,0-2.7,1.2-2.7,2.7v63.4v12.8
		c0,4.7-3.9,8.6-8.6,8.6c-4.8,0-8.6-3.8-8.6-8.6v-21.5v-58.2c0-1.5-1.2-2.7-2.7-2.7c-1.5,0-2.7,1.2-2.7,2.7v58.2
		c0,4.7-3.9,8.6-8.7,8.6c-4.9,0-8.6-3.9-8.6-8.6v-54.5c0,0,0,0,0,0c0-2.4-3-3.6-4.7-1.8c0,0,0,0,0,0l-15.5,16.7
		c-3.2,3.5-8.7,3.7-12.2,0.5c-3.6-3.3-3.7-8.7-0.5-12.1l28.2-30.4c3.1-3.3,4.8-7.7,4.8-12.2V74.5h42.8c1.5,0,2.7-1.2,2.7-2.7
		s-1.2-2.7-2.7-2.7H148v-9.7c0-4.8,4-8.7,8.8-8.7h68c4.9,0,8.8,3.9,8.8,8.7V69H216c-1.5,0-2.7,1.2-2.7,2.7s1.2,2.7,2.7,2.7h17.6
		v118.4C233.6,197.6,229.7,201.5,224.9,201.5z"/>
</g>
</svg>
