<svg xmlns="http://www.w3.org/2000/svg" viewBox="0 0 32.75 28.12"><defs><style>.a{fill:none;stroke:#000;stroke-linecap:round;stroke-linejoin:round;stroke-width:0.75px;}</style></defs><title>46</title><path class="a" d="M15.77,11.07a1.76,1.76,0,0,0-2.47.1L12,12.61V6.72A1.74,1.74,0,0,0,10.22,5a1.76,1.76,0,0,0-1.08.37V4.05a1.75,1.75,0,0,0-3.49,0v.23A1.74,1.74,0,0,0,2.82,5.64v.15a1.7,1.7,0,0,0-1.07-.38A1.75,1.75,0,0,0,0,7.15V23.7a1.77,1.77,0,0,0,1.77,1.76h8.42A1.77,1.77,0,0,0,12,23.7V18.35a1.53,1.53,0,0,1,.41-1.06l3.49-3.76A1.73,1.73,0,0,0,15.77,11.07Z" transform="translate(0.38 -1.94)"/><path class="a" d="M32,7.91A3.12,3.12,0,0,0,28.87,4.8" transform="translate(0.38 -1.94)"/><path class="a" d="M28.59,6.54H20.17A1.76,1.76,0,0,0,18.4,8.3v5.35A1.56,1.56,0,0,1,18,14.71l-3.49,3.76a1.74,1.74,0,0,0,.1,2.46,1.76,1.76,0,0,0,2.47-.1l1.34-1.44v5.89A1.74,1.74,0,0,0,20.15,27a1.76,1.76,0,0,0,1.07-.37V28a1.75,1.75,0,0,0,3.5,0v-.23a1.72,1.72,0,0,0,1.07.38,1.74,1.74,0,0,0,1.75-1.74v-.15a1.74,1.74,0,0,0,2.82-1.36V8.3A1.76,1.76,0,0,0,28.59,6.54Z" transform="translate(0.38 -1.94)"/><line class="a" x1="9.52" y1="3.41" x2="9.52" y2="12.58"/><line class="a" x1="6.02" y1="2.34" x2="6.02" y2="12.58"/><line class="a" x1="3.2" y1="3.85" x2="3.2" y2="12.58"/><line class="a" x1="21.6" y1="15.54" x2="21.6" y2="24.71"/><line class="a" x1="25.1" y1="15.54" x2="25.1" y2="25.77"/><line class="a" x1="27.92" y1="14.03" x2="27.92" y2="24.27"/></svg>