<?xml version="1.0" encoding="utf-8"?>
<!-- Generator: Adobe Illustrator 24.0.0, SVG Export Plug-In . SVG Version: 6.00 Build 0)  -->
<svg version="1.1" id="Layer_1" xmlns="http://www.w3.org/2000/svg" xmlns:xlink="http://www.w3.org/1999/xlink" x="0px" y="0px"
	 viewBox="0 0 250 250" style="enable-background:new 0 0 250 250;" xml:space="preserve">
<g>
	<path d="M213.9,156c-1.2-20.6-9.9-34.7-26.8-42.9c-6.3-3-13.6-5.2-22.6-6.7c12.9-11.1,21-27.5,21-45.8c0-33.4-27.2-60.6-60.6-60.6
		S64.4,27.2,64.4,60.6c0,18.2,8.1,34.6,21,45.8c-23.6,3.9-47.5,14.5-49.3,49.8c-0.1,0.4-0.2,0.7-0.2,1.1v89.4c0,1.9,1.5,3.4,3.4,3.4
		h171.6c1.8-0.1,3.3-1.6,3.3-3.5v-89.4C214.2,156.7,214.1,156.3,213.9,156z M71.1,60.6c0-29.7,24.1-53.9,53.8-53.9
		s53.9,24.1,53.9,53.9c0,18.8-9.7,35.4-24.4,45c-0.3,0.1-0.4,0.3-0.6,0.4c-8.3,5.3-18.2,8.4-28.9,8.4s-20.5-3.1-28.8-8.4
		c-0.2-0.2-0.4-0.3-0.7-0.4C80.8,95.9,71.1,79.4,71.1,60.6z M132,120.8l10.9,82l-18,24l-18-24l10.9-82c2.3,0.3,4.6,0.4,7.1,0.4
		C127.4,121.2,129.7,121,132,120.8z M207.5,243.2H42.5v-82.5c0-29.8,15.2-44.3,50.7-48.7c5.5,3.4,11.6,6,18.1,7.5l-11.1,83.7
		c-0.1,0.9,0.1,1.8,0.6,2.4l21.5,28.6c0.6,0.8,1.6,1.3,2.7,1.3c1.1,0,2.1-0.5,2.7-1.3l21.5-28.6c0.5-0.7,0.7-1.6,0.6-2.4l-11.1-83.7
		c6.5-1.5,12.6-4.1,18.1-7.5c11.5,1.4,20.3,3.7,27.4,7.1c15.8,7.7,23.2,20.9,23.2,41.6V243.2z"/>
	<path d="M121.4,70.3h36.1c1.7,0,3.2-1.4,3.2-3.2s-1.4-3.2-3.2-3.2h-32.9V17.9c0-1.7-1.4-3.2-3.2-3.2s-3.2,1.4-3.2,3.2v49.2
		C118.2,68.9,119.6,70.3,121.4,70.3z"/>
</g>
</svg>
