<svg xmlns="http://www.w3.org/2000/svg" viewBox="0 0 22.74 32.75"><defs><style>.a{fill:none;stroke:#000;stroke-linecap:round;stroke-linejoin:round;stroke-width:0.75px;}</style></defs><title>463</title><path class="a" d="M9.31,6.68a6.68,6.68,0,1,1,10.33,5.59l-.08,0a6.61,6.61,0,0,1-7.15,0l-.08-.05A6.7,6.7,0,0,1,9.31,6.68Zm7.63,9L18.39,26.6,16,29.8,13.6,26.6l1.45-10.93a7.47,7.47,0,0,0,1.89,0Zm.89-.16a8.47,8.47,0,0,0,2.42-1,11.27,11.27,0,0,1,3.65,1C26,16.48,27,18.25,27,21V32H5V21c0-4,2-5.91,6.75-6.49a8.47,8.47,0,0,0,2.42,1" transform="translate(-4.63 0.38)"/><polyline class="a" points="15.19 8.48 11.3 8.48 11.3 3.04"/></svg>