<svg xmlns="http://www.w3.org/2000/svg" viewBox="0 0 250 250"><path d="M213.9 156c-1.2-20.6-9.9-34.7-26.8-42.9-6.3-3-13.6-5.2-22.6-6.7a60.2 60.2 0 0021-45.8c0-33.4-27.2-60.6-60.6-60.6S64.4 27.2 64.4 60.6c0 18.2 8.1 34.6 21 45.8-23.6 3.9-47.5 14.5-49.3 49.8-.1.4-.2.7-.2 1.1v89.4c0 1.9 1.5 3.4 3.4 3.4h171.6a3.5 3.5 0 003.3-3.5v-89.4c0-.5-.1-.9-.3-1.2zM71.1 60.6c0-29.7 24.1-53.9 53.8-53.9s53.9 24.1 53.9 53.9c0 18.8-9.7 35.4-24.4 45-.3.1-.4.3-.6.4-8.3 5.3-18.2 8.4-28.9 8.4s-20.5-3.1-28.8-8.4c-.2-.2-.4-.3-.7-.4a53.98 53.98 0 01-24.3-45zm60.9 60.2l10.9 82-18 24-18-24 10.9-82c2.3.3 4.6.4 7.1.4s4.8-.2 7.1-.4zm75.5 122.4h-165v-82.5c0-29.8 15.2-44.3 50.7-48.7 5.5 3.4 11.6 6 18.1 7.5l-11.1 83.7c-.1.9.1 1.8.6 2.4l21.5 28.6c.6.8 1.6 1.3 2.7 1.3s2.1-.5 2.7-1.3l21.5-28.6c.5-.7.7-1.6.6-2.4l-11.1-83.7c6.5-1.5 12.6-4.1 18.1-7.5 11.5 1.4 20.3 3.7 27.4 7.1 15.8 7.7 23.2 20.9 23.2 41.6v82.5z"/><path d="M121.4 70.3h36.1c1.7 0 3.2-1.4 3.2-3.2s-1.4-3.2-3.2-3.2h-32.9v-46c0-1.7-1.4-3.2-3.2-3.2s-3.2 1.4-3.2 3.2v49.2c0 1.8 1.4 3.2 3.2 3.2z"/></svg>