<?xml version="1.0" encoding="utf-8"?>
<!-- Generator: Adobe Illustrator 24.0.0, SVG Export Plug-In . SVG Version: 6.00 Build 0)  -->
<svg version="1.1" id="Layer_1" xmlns="http://www.w3.org/2000/svg" xmlns:xlink="http://www.w3.org/1999/xlink" x="0px" y="0px"
	 viewBox="0 0 256 256" style="enable-background:new 0 0 256 256;" xml:space="preserve">
<style type="text/css">
	.st0{fill:#8699A3;}
</style>
<g>
	<g>
		<path class="st0" d="M135.13,11.8c-1.13,0-2.05-0.92-2.05-2.05c-0.01-2.67-2.1-4.86-4.76-4.99c-2.67,0.1-4.77,2.3-4.74,4.97
			c0,1.13-0.92,2.05-2.05,2.05c-1.13,0-2.05-0.92-2.05-2.05c-0.1-4.89,3.79-8.94,8.68-9.04s8.94,3.79,9.04,8.68
			c0,0.13,0,0.25,0,0.38C137.18,10.88,136.26,11.8,135.13,11.8z"/>
		<path class="st0" d="M135.12,12.49c-1.51,0-2.74-1.23-2.74-2.74c-0.01-2.3-1.82-4.19-4.12-4.31c-2.25,0.09-4.05,1.97-4.02,4.28
			c0,1.52-1.23,2.75-2.74,2.75c-1.51,0-2.74-1.23-2.74-2.74c-0.11-5.25,4.09-9.62,9.35-9.73c0.07,0,0.14,0,0.2,0
			c2.48,0,4.82,0.94,6.61,2.66c1.84,1.76,2.88,4.14,2.93,6.69v0.39C137.87,11.26,136.64,12.49,135.12,12.49z M128.28,4.07
			c3.09,0.15,5.47,2.64,5.48,5.67c0,0.76,0.61,1.37,1.36,1.37c0.76,0,1.37-0.61,1.37-1.37V9.37c-0.04-2.17-0.94-4.21-2.51-5.72
			c-1.53-1.47-3.54-2.28-5.66-2.28c-0.05,0-0.12,0-0.17,0c-4.51,0.09-8.1,3.83-8.01,8.34c0,0.77,0.61,1.38,1.37,1.38
			c0.75,0,1.36-0.61,1.36-1.37C122.85,6.67,125.22,4.19,128.28,4.07z"/>
	</g>
	<g>
		<path class="st0" d="M160.56,245.39c-0.33,0-0.67-0.04-0.99-0.12L144,241.28c-1.85-0.48-3.14-2.15-3.14-4.06v-7.58
			c0-2.3,1.87-4.17,4.17-4.17h31.07c2.31,0,4.18,1.86,4.19,4.17v7.58c0,1.91-1.29,3.58-3.14,4.06l0,0l-15.53,3.98
			C161.28,245.34,160.92,245.39,160.56,245.39z M145.03,229.57l-0.06,7.64l15.59,4.07l15.57-3.98c0.04-0.01,0.07-0.04,0.07-0.09
			v-7.58L145.03,229.57z M176.63,239.29"/>
		<path class="st0" d="M160.57,246.07c-0.38,0-0.76-0.04-1.15-0.13l-15.59-4c-2.15-0.56-3.65-2.5-3.66-4.72v-7.58
			c0.01-2.67,2.19-4.84,4.86-4.85h31.07h0.01c2.67,0,4.86,2.17,4.87,4.85v7.58c0,2.22-1.5,4.16-3.64,4.73l-15.53,3.98
			C161.37,246.02,160.97,246.07,160.57,246.07z M145.02,226.15c-1.92,0-3.48,1.56-3.48,3.48v7.57c0.01,1.6,1.09,3,2.63,3.4
			l15.57,3.99c0.57,0.13,1.13,0.12,1.74-0.01l15.51-3.98c1.54-0.41,2.62-1.8,2.62-3.4v-7.58c-0.01-1.92-1.58-3.48-3.49-3.48h-0.01
			H145.02z M160.55,241.99l-16.27-4.25l0.07-8.85l32.52,0.07v8.8l-0.58,0.21L160.55,241.99z M145.65,236.69l14.9,3.89l14.96-3.83
			l-0.02-6.43l-29.79-0.06L145.65,236.69z"/>
	</g>
	<g>
		<path class="st0" d="M96.02,245.39c-0.34,0-0.68-0.04-1.01-0.12l-15.56-3.99l0,0c-1.85-0.48-3.14-2.15-3.14-4.06v-7.58
			c0.01-2.31,1.88-4.17,4.19-4.17h31.06c2.3,0,4.17,1.87,4.17,4.17v7.58c0,1.91-1.29,3.58-3.14,4.06l-15.53,3.99
			C96.73,245.34,96.37,245.39,96.02,245.39z M80.47,237.3l15.55,3.98l15.55-3.98l0.06-7.66l-31.13-0.06l-0.08,7.64l-0.45,2.07
			L80.47,237.3z"/>
		<path class="st0" d="M96.02,246.08L96.02,246.08c-0.38,0-0.78-0.05-1.17-0.15l-15.57-3.99c-2.14-0.56-3.64-2.5-3.65-4.72v-7.59
			c0.01-2.68,2.2-4.85,4.87-4.85h0.01h31.06c2.67,0.01,4.86,2.18,4.86,4.85v7.58c0,2.22-1.5,4.16-3.64,4.73l-15.54,3.98
			C96.85,246.02,96.45,246.07,96.02,246.08L96.02,246.08z M80.5,226.15c-1.92,0-3.49,1.56-3.5,3.48v7.58
			c0.01,1.6,1.09,2.99,2.62,3.4l15.56,3.99c0.6,0.14,1.19,0.12,1.73,0l15.52-3.98c1.54-0.41,2.62-1.8,2.62-3.4v-7.58
			c0-1.92-1.56-3.48-3.48-3.48H80.5L80.5,226.15z M96.02,241.99l-0.17-0.04l-14.88-3.81l-0.34,1.33l-1.33-0.31l0.45-2.08l0.07-8.18
			l32.5,0.06l-0.07,8.88l-0.51,0.13L96.02,241.99z M81.1,236.76l14.92,3.82l14.87-3.81l0.05-6.45l-29.77-0.05L81.1,236.76z"/>
	</g>
	<g>
		<path class="st0" d="M207.33,221.46c-2.23-3.55-14.69-21.89-41.67-34.47l-1.85-0.87l-1.28-0.6c0.33-4.7-0.41-5.94-0.65-6.34
			c-1.84-2.26-4.23-4.02-6.94-5.11l-0.25-0.13c-1.82-1.08-4.08-1.07-5.89,0.01c-0.8-1.92-1.29-3.96-1.44-6.04
			c15.18-7.14,26.66-20.32,31.66-36.33c0.85,0.18,1.72,0.28,2.59,0.28c2.13-0.02,4.24-0.52,6.15-1.47
			c4.98-2.6,8.66-7.14,10.16-12.55c2.74-9.82-0.02-18.59-6.85-21.81c-2.35-0.94-4.92-1.16-7.39-0.64c0.06-1.99,0.08-3.87,0.09-5.71
			c3.31,0.38,5.31,0.06,6.62-1.03c0.94-0.8,1.47-1.99,1.42-3.23c-0.19-2.2-1.14-4.26-2.69-5.84c5.06-52.95-24.93-64.84-53.49-71.8
			c-0.84-0.21-1.68-0.41-2.52-0.6c-3.2-0.75-6.53-0.75-9.73,0l-2.35,0.56C92.35,14.7,62.25,26.61,67.4,79.7
			c-1.5,1.55-2.41,3.56-2.59,5.71c-0.05,1.24,0.48,2.43,1.42,3.23c1.22,0.9,2.72,1.32,4.23,1.2c0.76-0.01,1.52-0.06,2.27-0.15
			c0.01,1.85,0.05,3.73,0.1,5.69c-2.47-0.52-5.03-0.3-7.38,0.63c-6.86,3.23-9.62,12-6.87,21.82c1.5,5.41,5.18,9.96,10.16,12.55
			c1.91,0.95,4.01,1.45,6.15,1.47c0.87,0,1.74-0.1,2.59-0.28c5,16.01,16.48,29.19,31.66,36.33c-0.15,2.05-0.62,4.07-1.4,5.97
			c-1.8-1.03-4.01-1.01-5.79,0.06l-0.25,0.13c-2.71,1.1-5.1,2.86-6.96,5.12c-0.75,2-0.97,4.17-0.64,6.28
			c-0.43,0.21-0.86,0.41-1.29,0.62L90.84,187c-26.99,12.58-39.45,30.92-41.68,34.47c-2.13,2.86-2.94,6.49-2.24,9.99
			c1.21,4.67,5.84,7.78,10.22,10.2c7.64,3.86,15.75,6.72,24.12,8.52c15.4,3.54,31.17,5.26,46.97,5.13l0,0
			c45,0,68.56-12.27,71.11-13.67c4.37-2.42,9.01-5.52,10.22-10.19C210.27,227.95,209.46,224.32,207.33,221.46z M152.82,177.6
			l0.25,0.13c1.97,0.82,3.76,2.01,5.26,3.52c0.3,1.76,0.3,3.55,0,5.31c-0.8,7.49-3.3,14.64-5.7,16.28
			c-0.29,0.25-0.69,0.34-1.07,0.24c-4.96-1.35-9.51-10.23-11.52-15.12c3.73-2.57,7.03-5.71,9.78-9.32l0.65-0.76
			C150.95,177.31,151.45,176.9,152.82,177.6z M128.3,212.9c-0.97-3.39-1.94-7.85-2.83-11.97c-0.51-2.35-1-4.58-1.48-6.61
			c1.74,0.26,3.49,0.39,5.25,0.39c1.22,0,2.36-0.05,3.32-0.11c-0.47,1.99-0.95,4.16-1.44,6.44
			C130.23,205.12,129.27,209.54,128.3,212.9z M136.78,185.04l-0.15,0.06c-1.23,0.54-2.03,1.93-2.99,5.29
			c-3.61,0.42-7.26,0.24-10.81-0.53c-0.86-2.85-1.59-4.11-2.67-4.68c-0.05-0.03-0.11-0.06-0.17-0.08c-3.33-1.47-6.67-5.13-9.22-8.13
			c1.21-2.31,2-4.82,2.33-7.41c4.83,1.9,9.95,2.95,15.14,3.11c5.19-0.16,10.32-1.21,15.15-3.12c0.33,2.63,1.14,5.17,2.38,7.51
			C143.34,180.29,140.28,183,136.78,185.04z M189.29,99.73c4.9,2.31,6.82,9.3,4.67,16.99c-1.17,4.29-4.07,7.9-8,9.97
			c-1.78,0.91-3.8,1.23-5.77,0.93c0.23-0.9,0.46-1.85,0.68-2.86c0.55-2.57,2.51-22.02,2.64-25.12
			C185.4,99.03,187.43,99.06,189.29,99.73z M121.98,11.72l2.34-0.55c2.59-0.6,5.29-0.6,7.88,0c0.82,0.18,1.63,0.38,2.44,0.59
			c33.46,8.15,53.7,21.89,50.67,64.19c-9.88-7.81-31.44-19.34-57-19.34c-25.74,0-47.29,11.57-57.11,19.43
			C68.11,33.65,88.42,19.88,121.98,11.72z M68.92,85.41c0-0.41,0.21-1.6,2.11-3.67c7.07-7.74,29.52-21.02,57.28-21.02
			c27.26,0,49.52,12.98,56.93,20.66c0.15,0.25,0.35,0.47,0.59,0.63c0.99,0.93,1.67,2.14,1.92,3.48c-0.14,0.1-1.07,0.6-5.67-0.22
			c-2.67-0.47-5.98-1.25-9.81-2.16c-11.28-2.67-26.72-8.94-43.95-8.94s-32.73,6.28-44.03,8.95c-3.86,0.91-7.19,1.7-9.86,2.16
			C69.92,86.08,69,85.59,68.92,85.41z M70.53,126.68c-3.93-2.07-6.83-5.67-8-9.96c-2.15-7.7-0.23-14.69,4.69-17.01
			c1.86-0.66,3.88-0.68,5.75-0.08c0.13,3.11,2.08,22.56,2.64,25.12c0.22,1.03,0.45,1.96,0.68,2.86
			C74.32,127.92,72.31,127.59,70.53,126.68L70.53,126.68z M80.78,128.43c-0.41-1.37-0.78-2.86-1.15-4.55
			c-0.66-3.28-1.16-6.6-1.48-9.94c-0.54-4.94-0.93-10.37-1.12-15.69c-0.13-3.26-0.18-6.33-0.19-9.24c2.43-0.48,5.22-1.14,8.39-1.89
			c11.1-2.62,26.31-8.84,43.09-8.84s31.93,6.21,43.01,8.83c3.14,0.74,5.92,1.39,8.35,1.88c0,2.91-0.07,5.96-0.21,9.28
			c-0.19,5.32-0.58,10.74-1.12,15.69c-0.33,3.33-0.82,6.65-1.48,9.93c-0.37,1.7-0.75,3.19-1.16,4.56
			c-4.44,16.22-15.97,29.57-31.36,36.33c-0.58,0.26-1.15,0.48-1.79,0.73c-4.55,1.84-9.4,2.88-14.31,3.06
			c-4.94-0.18-9.8-1.22-14.38-3.08c-0.58-0.22-1.15-0.45-1.77-0.72C96.72,157.98,85.22,144.64,80.78,128.43L80.78,128.43z
			 M98.24,181.32c1.51-1.55,3.33-2.77,5.33-3.6l0.26-0.13c0.36-0.21,0.77-0.34,1.2-0.36c0.45,0.02,0.86,0.26,1.11,0.63
			c0.19,0.24,0.39,0.47,0.6,0.69c2.77,3.63,6.1,6.81,9.86,9.41c-2.01,4.89-6.57,13.77-11.52,15.12c-0.38,0.1-0.78,0.01-1.07-0.24
			c-2.69-1.85-5-9.75-5.69-16.34C98.03,184.77,98.01,183.04,98.24,181.32L98.24,181.32z M59.13,238.06
			c-5.11-2.83-7.57-5.11-8.21-7.63c-0.38-2.4,0.25-4.86,1.74-6.78c2.12-3.38,13.99-20.83,39.95-32.94l1.94-0.91l0.08-0.04
			c0.94,5.81,3.14,13.76,7.07,16.46c1.29,0.93,2.94,1.24,4.48,0.82c6.04-1.64,10.64-9.61,13.07-14.85c0.71,2.58,1.44,6,2.23,9.61
			c1.49,6.89,3.03,14,4.8,17.36l-0.07,31.99c-14.8-0.01-29.55-1.68-43.97-4.99C74.21,244.46,66.45,241.73,59.13,238.06z
			 M205.59,230.43c-0.65,2.52-3.11,4.8-8.21,7.62c-2.4,1.33-24.45,12.78-67.06,13.14l0.06-32.07c1.74-3.32,3.21-10.06,4.77-17.21
			c0.73-3.36,1.42-6.54,2.09-9.08l0,0v-0.02c0.06-0.22,0.11-0.42,0.16-0.62c2.43,5.23,7.02,13.21,13.07,14.86
			c1.54,0.41,3.18,0.11,4.47-0.84c3.92-2.67,6.13-10.6,7.08-16.4l0.05,0.02l1.85,0.86c25.94,12.1,37.82,29.55,39.93,32.93
			c1.49,1.92,2.12,4.38,1.73,6.78V230.43z"/>
		<path class="st0" d="M126.65,256c-15.3,0-30.61-1.73-45.52-5.16c-8.41-1.8-16.58-4.68-24.29-8.57c-4.52-2.5-9.29-5.71-10.57-10.63
			c-0.75-3.71,0.11-7.55,2.34-10.57c2.22-3.53,14.78-22.02,41.95-34.68l2.79-1.32c-0.23-2.06,0.02-4.17,0.75-6.12l0.12-0.19
			c1.92-2.34,4.42-4.18,7.23-5.32l0.2-0.1c1.72-1.05,3.88-1.18,5.73-0.4c0.54-1.48,0.89-3.03,1.05-4.61
			C93.5,161.16,82.1,148.1,77,132.36c-0.7,0.12-1.4,0.18-2.12,0.18c-2.23-0.02-4.46-0.55-6.45-1.54
			c-5.14-2.69-8.97-7.41-10.51-12.98c-2.83-10.15,0.07-19.25,7.24-22.62c2.25-0.9,4.63-1.19,6.97-0.84
			c-0.04-1.4-0.06-2.77-0.07-4.11c-0.51,0.04-1.03,0.07-1.59,0.08c-1.65,0.11-3.31-0.34-4.64-1.33c-1.15-0.97-1.76-2.35-1.7-3.81
			c0.19-2.22,1.09-4.3,2.56-5.92c-5.05-53.41,25.31-65.38,54.18-72.4l2.35-0.56c3.3-0.77,6.76-0.77,10.04,0
			c0.84,0.19,1.68,0.4,2.52,0.61c28.76,7,59,18.95,54.05,72.22c1.52,1.66,2.46,3.78,2.66,6.02c0.05,1.49-0.55,2.87-1.66,3.81
			c-1.37,1.15-3.3,1.52-6.39,1.26c-0.01,1.35-0.03,2.71-0.06,4.13c2.35-0.33,4.72-0.05,6.93,0.83c7.2,3.39,10.1,12.47,7.26,22.63
			c-1.54,5.57-5.36,10.3-10.5,12.98c-2.01,1-4.23,1.53-6.45,1.55c-0.72,0-1.43-0.07-2.13-0.18c-5.1,15.74-16.5,28.8-31.41,35.97
			c0.16,1.6,0.52,3.16,1.08,4.67c1.89-0.83,4.06-0.72,5.88,0.36l0.21,0.11c2.75,1.11,5.25,2.94,7.16,5.29
			c0.31,0.51,1.1,1.8,0.83,6.35l2.71,1.27c27.08,12.63,39.66,31.07,41.95,34.7c2.22,3.02,3.07,6.84,2.33,10.51
			c-1.28,4.97-6.06,8.17-10.56,10.65c-2.55,1.41-26.2,13.76-71.44,13.76C127.71,256,127.17,256,126.65,256z M95.34,179.53
			c-0.68,1.86-0.87,3.88-0.57,5.83l0.08,0.5l-3.72,1.76c-26.82,12.5-39.18,30.7-41.39,34.22c-2.04,2.75-2.81,6.19-2.15,9.49
			c1.14,4.38,5.64,7.38,9.88,9.73c7.58,3.82,15.64,6.67,23.95,8.44c14.82,3.4,30.03,5.13,45.23,5.13c0.53,0,1.06,0,1.59-0.01
			c44.91,0,68.27-12.19,70.79-13.58c4.24-2.34,8.74-5.34,9.89-9.77c0.65-3.25-0.12-6.7-2.13-9.41l-0.03-0.04
			c-2.21-3.52-14.59-21.72-41.38-34.22l-3.56-1.67l0.03-0.47c0.15-2.05,0.17-4.75-0.55-5.94c-1.71-2.09-4.02-3.79-6.61-4.84
			l-0.3-0.16c-1.64-0.97-3.64-0.96-5.22,0l-0.69,0.41l-0.3-0.73c-0.84-2-1.34-4.1-1.5-6.25l-0.03-0.47l0.42-0.2
			c14.96-7.05,26.38-20.14,31.31-35.92l0.19-0.6l0.61,0.13c0.8,0.17,1.62,0.26,2.45,0.26c2.01-0.01,4.03-0.5,5.84-1.4
			c4.79-2.5,8.36-6.92,9.8-12.12c2.66-9.49,0.04-17.93-6.49-21c-2.2-0.88-4.63-1.08-6.95-0.6l-0.85,0.18l0.02-0.86
			c0.05-1.98,0.08-3.86,0.09-5.7l0.01-0.76l0.76,0.08c3.08,0.35,4.95,0.08,6.1-0.87c0.78-0.66,1.2-1.64,1.17-2.68
			c-0.17-2-1.05-3.92-2.49-5.38l-0.22-0.23l0.04-0.32c5-52.44-24.73-64.18-52.98-71.07c-0.84-0.2-1.68-0.41-2.5-0.6
			c-3.08-0.72-6.35-0.72-9.43,0l-2.34,0.55c-28.37,6.9-58.2,18.66-53.11,71.24l0.04,0.32l-0.22,0.23c-1.38,1.42-2.23,3.3-2.39,5.28
			c-0.04,1.01,0.39,1.98,1.18,2.65c1.05,0.77,2.41,1.15,3.73,1.04c0.83-0.01,1.54-0.06,2.25-0.14l0.76-0.1l0.01,0.77
			c0.01,1.84,0.04,3.73,0.1,5.68l0.02,0.86l-0.85-0.18c-2.32-0.48-4.75-0.29-6.99,0.61c-6.5,3.06-9.12,11.51-6.46,21
			c1.44,5.2,5.02,9.62,9.81,12.13c1.8,0.89,3.82,1.38,5.84,1.39c0.82,0,1.64-0.09,2.44-0.26l0.61-0.13l0.19,0.6
			c4.93,15.79,16.34,28.88,31.31,35.92l0.42,0.2l-0.03,0.47c-0.16,2.13-0.65,4.22-1.46,6.18l-0.29,0.72l-0.68-0.39
			c-1.58-0.9-3.52-0.9-5.09,0.05l-0.29,0.15C99.39,175.74,97.11,177.41,95.34,179.53z M129.62,251.89l0.14-33.08
			c1.7-3.26,3.23-10.26,4.71-17.04c0.78-3.62,1.44-6.59,2.09-9.04l0.01-0.08c0.04-0.16,0.09-0.32,0.13-0.47l0.5-1.79l0.83,1.52
			c2.18,4.72,6.74,12.88,12.63,14.49c1.3,0.34,2.76,0.09,3.88-0.73c4.39-2.99,6.33-12.98,6.81-15.97l0.15-0.92l2.72,1.3
			c26.16,12.2,38.1,29.78,40.23,33.19c1.57,2.02,2.25,4.68,1.83,7.25v0.08l-0.02-0.01c-0.7,2.72-3.25,5.13-8.55,8.05
			c-2.38,1.32-24.51,12.86-67.38,13.23L129.62,251.89z M131.06,219.29L131,250.51c42.08-0.48,63.71-11.76,66.04-13.05
			c4.93-2.73,7.28-4.88,7.89-7.2l0,0c0.31-2.25-0.27-4.47-1.61-6.21c-2.13-3.4-13.87-20.69-39.67-32.73l-1.1-0.51
			c-0.79,4.4-2.84,12.99-7.22,15.97c-1.44,1.06-3.3,1.4-5.03,0.93c-5.55-1.51-9.87-7.86-12.71-13.54c-0.54,2.22-1.11,4.82-1.78,7.89
			C134.27,209.14,132.81,215.83,131.06,219.29z M126.88,251.86h-0.69c-14.84-0.01-29.68-1.7-44.12-5.01
			c-8.06-1.73-15.88-4.48-23.25-8.19l-0.03-0.01c-5.3-2.93-7.86-5.34-8.54-8.06c-0.43-2.64,0.25-5.31,1.85-7.36
			c2.09-3.35,14.03-20.94,40.2-33.14l2.76-1.29l0.22,0.86c0.48,2.99,2.39,12.99,6.77,16c1.15,0.83,2.56,1.08,3.91,0.73
			c5.88-1.6,10.44-9.75,12.63-14.48l0.78-1.69l0.5,1.8c0.6,2.15,1.19,4.88,1.84,7.78l0.41,1.87c1.48,6.83,3,13.89,4.73,17.19
			l0.08,0.32L126.88,251.86z M59.45,237.45c7.26,3.64,14.98,6.36,22.92,8.07c14.13,3.24,28.64,4.91,43.14,4.97l0.07-31.14
			c-1.78-3.52-3.31-10.56-4.78-17.39l-0.41-1.86c-0.47-2.12-0.92-4.15-1.35-5.92c-2.84,5.67-7.16,12.03-12.7,13.53
			c-1.74,0.46-3.58,0.14-5.05-0.93c-4.37-3-6.41-11.61-7.19-16.01l-1.21,0.57c-25.82,12.04-37.55,29.34-39.65,32.68
			c-1.41,1.82-2,4.09-1.64,6.31C52.16,232.57,54.51,234.72,59.45,237.45z M128.31,215.38l-0.66-2.29c-1-3.5-2.02-8.22-2.84-12.02
			c-0.51-2.33-1-4.57-1.48-6.6l-0.23-0.98l1,0.15c1.68,0.25,3.38,0.38,5.06,0.38c0.03,0,0.06,0,0.09,0c1.2,0,2.33-0.04,3.28-0.11
			l0.93-0.06l-0.21,0.9c-0.47,1.98-0.94,4.15-1.43,6.43l-0.2,0.92c-0.85,3.87-1.73,7.86-2.63,11L128.31,215.38z M124.88,195.12
			c0.41,1.77,0.83,3.68,1.26,5.65c0.64,2.95,1.4,6.45,2.17,9.49c0.67-2.61,1.32-5.58,1.95-8.47l0.2-0.91
			c0.42-1.95,0.82-3.82,1.23-5.56c-0.78,0.04-1.66,0.05-2.54,0.06C127.73,195.39,126.3,195.3,124.88,195.12z M151.89,203.8
			c-0.17,0-0.34-0.02-0.5-0.07c-5.85-1.59-10.64-12.28-11.97-15.52l-0.21-0.51l0.45-0.31c3.69-2.54,6.92-5.63,9.62-9.17l0.68-0.79
			c0.59-0.71,1.44-1.33,3.16-0.44v0l0.25,0.13c2.01,0.83,3.86,2.06,5.44,3.65l0.16,0.15l0.04,0.21c0.31,1.84,0.31,3.7,0,5.54
			c-0.82,7.75-3.4,14.96-5.99,16.72C152.72,203.65,152.31,203.8,151.89,203.8z M140.9,188.2c2.52,5.98,6.79,13.11,10.85,14.22
			c0.17,0.04,0.33,0.01,0.45-0.1c2-1.36,4.61-7.77,5.46-15.83c0.29-1.66,0.29-3.3,0.04-4.91c-1.42-1.38-3.06-2.46-4.88-3.22
			l-0.3-0.15c-1-0.51-1.16-0.28-1.5,0.11l-0.66,0.76C147.7,182.55,144.52,185.63,140.9,188.2z M104.75,203.8
			c-0.44,0-0.86-0.16-1.2-0.45c-2.9-1.98-5.23-10.15-5.92-16.79c-0.26-1.57-0.3-3.2-0.12-4.83l-0.41-0.2l0.65-0.68
			c1.6-1.62,3.47-2.89,5.56-3.75l0.2-0.11c0.42-0.25,0.94-0.41,1.46-0.44c0.74,0.03,1.35,0.38,1.72,0.94
			c0.14,0.18,0.33,0.39,0.53,0.59c2.79,3.64,6.05,6.76,9.76,9.32l0.45,0.31l-0.21,0.51c-0.94,2.31-5.96,13.89-11.98,15.52
			C105.08,203.77,104.91,203.8,104.75,203.8z M98.9,181.63c-0.2,1.59-0.17,3.18,0.09,4.74c0.76,7.25,3.17,14.37,5.39,15.89
			c0.19,0.15,0.34,0.19,0.5,0.15c4.07-1.11,8.34-8.23,10.86-14.21c-3.64-2.58-6.84-5.69-9.55-9.24c-0.18-0.17-0.4-0.42-0.61-0.68
			c-0.15-0.23-0.37-0.36-0.6-0.37c-0.23,0.02-0.54,0.12-0.81,0.28l-0.29,0.15C101.98,179.11,100.32,180.22,98.9,181.63z
			 M129.83,191.29c-2.4,0-4.79-0.25-7.15-0.76l-0.39-0.08l-0.12-0.39c-0.78-2.6-1.43-3.8-2.33-4.28c-3.49-1.54-6.8-5.09-9.58-8.36
			l-0.3-0.35l0.21-0.41c1.18-2.24,1.93-4.66,2.25-7.18l0.11-0.87l0.82,0.32c4.77,1.88,9.78,2.91,14.91,3.06
			c5.08-0.15,10.11-1.19,14.89-3.07l0.82-0.32l0.11,0.87c0.32,2.54,1.1,4.99,2.31,7.27l0.2,0.39l-0.27,0.35
			c-2.5,3.31-5.6,6.05-9.2,8.16l-0.28,0.11c-0.96,0.43-1.69,1.79-2.56,4.83l-0.12,0.44l-0.45,0.05
			C132.42,191.22,131.12,191.29,129.83,191.29z M123.36,189.27c3.22,0.65,6.47,0.82,9.75,0.48c0.96-3.27,1.83-4.67,3.23-5.28
			l0.14-0.05c3.31-1.94,6.16-4.43,8.48-7.43c-1.03-2.05-1.75-4.23-2.12-6.49c-4.69,1.75-9.6,2.7-14.59,2.86
			c-5.04-0.15-9.93-1.11-14.61-2.85c-0.37,2.22-1.06,4.36-2.06,6.37c2.62,3.06,5.67,6.27,8.67,7.6l0.21,0.11
			C121.7,185.23,122.5,186.52,123.36,189.27z M128.27,169.25c-5.07-0.18-9.99-1.24-14.66-3.13c-0.66-0.25-1.21-0.47-1.79-0.74
			c-15.63-6.88-27.19-20.28-31.7-36.76l-0.02-0.05c-0.39-1.34-0.77-2.82-1.14-4.54c-0.67-3.32-1.18-6.69-1.5-10.01
			c-0.55-5.05-0.94-10.5-1.12-15.74c-0.12-2.98-0.19-6.01-0.2-9.26v-0.56l0.55-0.11c2.45-0.48,5.24-1.14,8.36-1.88
			c11.15-2.63,26.4-8.87,43.25-8.87c16.83,0,32.02,6.21,43.11,8.83c3.2,0.76,5.99,1.41,8.39,1.88l0.55,0.11v0.56
			c0,2.82-0.07,5.87-0.2,9.3c-0.2,5.28-0.59,10.72-1.13,15.74c-0.31,3.32-0.82,6.68-1.5,9.99c-0.37,1.74-0.76,3.25-1.16,4.62
			c-4.52,16.48-16.09,29.89-31.75,36.76c-0.55,0.25-1.12,0.47-1.74,0.71C138.17,168.02,133.28,169.06,128.27,169.25z M81.47,128.35
			c4.42,16.04,15.68,29.08,30.91,35.78c0.56,0.26,1.1,0.47,1.61,0.67c4.65,1.88,9.41,2.91,14.28,3.08c4.8-0.17,9.54-1.19,14.03-3
			c0.68-0.26,1.22-0.47,1.76-0.72c15.28-6.71,26.58-19.79,30.99-35.89c0.4-1.35,0.78-2.82,1.14-4.52c0.66-3.26,1.16-6.57,1.48-9.85
			c0.53-4.99,0.93-10.4,1.11-15.65c0.13-3.19,0.2-6.04,0.2-8.69c-2.3-0.47-4.91-1.08-7.82-1.77c-11.09-2.62-26.19-8.8-42.86-8.8
			c-16.69,0-31.86,6.21-42.93,8.82c-2.91,0.69-5.53,1.31-7.86,1.78c0.02,3.03,0.08,5.86,0.2,8.65c0.18,5.21,0.56,10.62,1.11,15.64
			c0.33,3.29,0.83,6.61,1.48,9.88c0.37,1.7,0.74,3.17,1.14,4.49L81.47,128.35z M74.84,128.41c-1.6,0-3.16-0.37-4.62-1.11l-0.11-0.06
			c-4.04-2.16-7.04-5.92-8.25-10.33c-2.24-8.02-0.16-15.35,5.05-17.81c2.05-0.73,4.25-0.76,6.26-0.11l0.45,0.14l0.03,0.48
			c0.13,3.07,2.07,22.44,2.63,25.01c0.22,1.02,0.45,1.95,0.67,2.84l0.2,0.73l-0.75,0.12C75.88,128.37,75.36,128.41,74.84,128.41z
			 M70.95,126.13c1.4,0.7,2.94,1.01,4.48,0.9c-0.17-0.67-0.33-1.37-0.49-2.12c-0.54-2.5-2.36-20.49-2.64-24.75
			c-1.6-0.41-3.31-0.35-4.86,0.2c-4.54,2.14-6.32,8.81-4.26,16.18c1.12,4.09,3.91,7.57,7.66,9.54L70.95,126.13z M181.61,128.41
			c-0.51,0-1.02-0.04-1.53-0.12l-0.74-0.12l0.19-0.73c0.22-0.9,0.45-1.84,0.68-2.84c0.53-2.5,2.5-22.07,2.62-25l0.03-0.47l0.45-0.15
			c2.01-0.65,4.22-0.62,6.23,0.1l0.06,0.03c5.2,2.46,7.27,9.78,5.03,17.8c-1.21,4.45-4.25,8.23-8.34,10.39
			C184.83,128.03,183.23,128.41,181.61,128.41z M181.04,127.03c1.55,0.06,3.19-0.23,4.6-0.94c3.75-1.97,6.54-5.45,7.66-9.54
			c2.06-7.36,0.3-14-4.26-16.18c-1.58-0.55-3.31-0.62-4.87-0.2c-0.28,4.24-2.09,22.21-2.63,24.74
			C181.37,125.65,181.21,126.35,181.04,127.03z M186.22,86.42c-1.27,0-2.88-0.22-4.26-0.47c-2.64-0.46-5.86-1.22-9.6-2.1l-0.26-0.06
			c-11.23-2.66-26.61-8.92-43.79-8.92c-17.19,0-32.62,6.27-43.87,8.93c-3.94,0.94-7.24,1.72-9.9,2.17
			c-5.64,0.98-6.08,0.08-6.24-0.27l-0.07-0.29c0-0.61,0.3-1.97,2.3-4.13c7.15-7.83,29.8-21.24,57.77-21.24
			c28.84,0,50.53,13.72,57.43,20.87c0.2,0.29,0.33,0.44,0.48,0.54c1.19,1.09,1.92,2.42,2.21,3.92l0.09,0.42l-0.35,0.26
			C187.8,86.31,187.1,86.42,186.22,86.42z M128.31,73.49c17.34,0,32.81,6.29,44.11,8.96l0.25,0.06c3.72,0.88,6.92,1.64,9.52,2.09
			c2.78,0.49,4.13,0.48,4.74,0.41c-0.29-0.96-0.83-1.82-1.57-2.5c-0.24-0.16-0.51-0.44-0.71-0.78
			c-7.15-7.38-29.44-20.33-56.35-20.33c-27.55,0-49.79,13.15-56.77,20.79c-1.28,1.38-1.71,2.3-1.86,2.79
			c0.49,0.07,1.74,0.12,4.63-0.37c2.63-0.45,5.9-1.23,9.7-2.13C95.45,79.79,110.96,73.49,128.31,73.49z M70.61,77.38l-0.1-1.3
			c-3.14-43,17.31-56.76,51.31-65.03l2.33-0.55c2.69-0.62,5.52-0.62,8.19,0c0.82,0.18,1.64,0.39,2.46,0.59
			C168.68,19.35,189.07,33.09,186,76l-0.1,1.29l-1.02-0.8c-10.58-8.37-32.18-19.19-56.58-19.19c-24.55,0-46.16,10.87-56.68,19.28
			L70.61,77.38z M122.15,12.39C89.18,20.41,69.22,33.68,71.8,74.71c11.04-8.29,32.39-18.79,56.51-18.79
			c23.96,0,45.32,10.46,56.41,18.7c2.51-40.95-17.39-54.2-50.23-62.21c-0.81-0.2-1.61-0.4-2.43-0.58c-2.48-0.58-5.1-0.58-7.57,0
			L122.15,12.39z"/>
	</g>
	<g>
		<path class="st0" d="M106.62,121.71c-4.36-0.08-8.71-0.58-12.97-1.49l-0.38-0.08c-7.71-1.49-11.63-7.5-11.64-17.86
			c-0.17-3.56,2.19-6.75,5.64-7.64c9.14-2.14,22.94-3.23,40.98-3.23c18.14,0,31.98,1.08,41.11,3.23c3.45,0.89,5.81,4.08,5.64,7.64
			c-0.01,10.36-3.93,16.37-11.64,17.86l-0.38,0.08c-4.48,0.87-14.97,2.91-23.28-0.1c-3.53-1.28-5.54-4.57-7.33-7.47
			c-1.39-2.27-2.71-4.42-4.12-4.42c-1.41,0-2.69,2.13-4.05,4.4c-1.75,2.91-3.74,6.2-7.28,7.49
			C113.61,121.24,110.12,121.78,106.62,121.71z M128.25,95.19c-17.77,0-31.27,1.05-40.13,3.13c-1.74,0.5-2.89,2.17-2.74,3.97
			c0.01,11.22,4.91,13.46,8.59,14.17l0.39,0.08c4.17,0.81,13.94,2.72,21.28,0.06c2.28-0.83,3.83-3.4,5.33-5.9
			c1.84-3.05,3.74-6.22,7.26-6.22s5.45,3.16,7.33,6.21c1.53,2.49,3.11,5.08,5.4,5.9c7.33,2.65,17.11,0.75,21.28-0.06l0.39-0.08
			c3.68-0.71,8.58-2.96,8.59-14.17c0.15-1.81-0.99-3.47-2.74-3.97C159.65,96.24,146.11,95.19,128.25,95.19z"/>
		<path class="st0" d="M107.2,122.34c-0.2,0-0.4,0-0.6,0l0,0c-4.38-0.08-8.79-0.58-13.09-1.5l-0.37-0.08
			c-8.04-1.56-12.12-7.78-12.14-18.47c-0.18-3.81,2.4-7.29,6.1-8.25c9.21-2.16,23.05-3.25,41.15-3.25c18.18,0,32.06,1.09,41.25,3.24
			c3.73,0.96,6.31,4.44,6.12,8.28c-0.01,10.68-4.09,16.89-12.15,18.44l-0.37,0.08c-4.54,0.89-15.11,2.95-23.62-0.12
			c-3.71-1.34-5.78-4.7-7.62-7.67c-1.21-1.99-2.56-4.18-3.62-4.18s-2.36,2.17-3.51,4.09c-1.8,3-3.85,6.4-7.6,7.76
			C113.92,121.8,110.59,122.34,107.2,122.34z M128.25,92.05c-17.99,0-31.73,1.08-40.84,3.21c-3.13,0.81-5.3,3.76-5.16,7
			c0.02,10.04,3.76,15.84,11.13,17.27l0.39,0.08c4.22,0.9,8.55,1.4,12.85,1.47l0,0c0.2,0,0.39,0.01,0.58,0.01
			c3.24,0,6.45-0.53,9.54-1.56c3.32-1.21,5.24-4.41,6.94-7.23c1.51-2.52,2.81-4.7,4.58-4.7c1.76,0,3.17,2.29,4.65,4.72
			c1.76,2.85,3.72,6.01,7.01,7.21c8.14,2.94,18.5,0.94,22.95,0.07l0.37-0.08c7.39-1.42,11.13-7.22,11.14-17.24
			c0.15-3.28-2.02-6.22-5.18-7.03C160.12,93.13,146.34,92.05,128.25,92.05z M106.64,118.58c-5.02,0-9.76-0.93-12.36-1.43l-0.42-0.08
			c-3.9-0.75-9.08-3.11-9.1-14.78c-0.18-2.05,1.17-4,3.2-4.58c8.92-2.09,22.47-3.15,40.29-3.15c17.9,0,31.49,1.06,40.41,3.15
			c2.05,0.59,3.4,2.53,3.22,4.64c-0.01,11.62-5.2,13.97-9.1,14.73l-0.39,0.08c-4.22,0.83-14.12,2.75-21.61,0.03
			c-2.48-0.89-4.11-3.54-5.69-6.1c-1.92-3.12-3.67-5.97-6.84-5.97c-3.15,0-4.88,2.86-6.71,5.89c-1.57,2.61-3.18,5.28-5.67,6.18
			C113,118.22,109.77,118.58,106.64,118.58z M128.25,95.81c-17.73,0-31.18,1.05-39.98,3.11c-1.43,0.41-2.39,1.8-2.26,3.31
			c0.02,10.8,4.63,12.94,8.08,13.61l0.4,0.08c4.15,0.8,13.8,2.67,20.95,0.08c2.08-0.75,3.56-3.23,5.01-5.63
			c1.85-3.07,3.93-6.52,7.8-6.52c3.86,0,5.97,3.44,7.84,6.47c1.52,2.48,3.04,4.94,5.11,5.68c7.16,2.6,16.83,0.72,20.94-0.08
			l0.4-0.08c3.47-0.67,8.07-2.81,8.08-13.55c0.12-1.56-0.84-2.96-2.28-3.37C159.56,96.86,146.06,95.81,128.25,95.81z"/>
	</g>
</g>
</svg>
