<?xml version="1.0" encoding="utf-8"?>
<!-- Generator: Adobe Illustrator 24.0.0, SVG Export Plug-In . SVG Version: 6.00 Build 0)  -->
<svg version="1.1" id="Layer_1" xmlns="http://www.w3.org/2000/svg" xmlns:xlink="http://www.w3.org/1999/xlink" x="0px" y="0px"
	 viewBox="0 0 256 256" style="enable-background:new 0 0 256 256;" xml:space="preserve">
<g>
	<g>
		<path d="M135.1,11.8c-1.1,0-2.1-0.9-2.1-2.1c0-2.7-2.1-4.9-4.8-5c-2.7,0.1-4.8,2.3-4.7,5c0,1.1-0.9,2.1-2.1,2.1
			c-1.1,0-2.1-0.9-2.1-2.1c-0.1-4.9,3.8-8.9,8.7-9s8.9,3.8,9,8.7c0,0.1,0,0.2,0,0.4C137.2,10.9,136.3,11.8,135.1,11.8z"/>
		<path d="M135.1,12.5c-1.5,0-2.7-1.2-2.7-2.7c0-2.3-1.8-4.2-4.1-4.3c-2.2,0.1-4.1,2-4,4.3c0,1.5-1.2,2.8-2.7,2.8
			c-1.5,0-2.7-1.2-2.7-2.7c-0.1-5.2,4.1-9.6,9.3-9.7c0.1,0,0.1,0,0.2,0c2.5,0,4.8,0.9,6.6,2.7c1.8,1.8,2.9,4.1,2.9,6.7v0.4
			C137.9,11.3,136.6,12.5,135.1,12.5z M128.3,4.1c3.1,0.2,5.5,2.6,5.5,5.7c0,0.8,0.6,1.4,1.4,1.4c0.8,0,1.4-0.6,1.4-1.4V9.4
			c0-2.2-0.9-4.2-2.5-5.7c-1.5-1.5-3.5-2.3-5.7-2.3c-0.1,0-0.1,0-0.2,0c-4.5,0.1-8.1,3.8-8,8.3c0,0.8,0.6,1.4,1.4,1.4
			c0.8,0,1.4-0.6,1.4-1.4C122.8,6.7,125.2,4.2,128.3,4.1z"/>
	</g>
	<g>
		<path d="M160.6,245.4c-0.3,0-0.7,0-1-0.1l-15.6-4c-1.9-0.5-3.1-2.1-3.1-4.1v-7.6c0-2.3,1.9-4.2,4.2-4.2h31.1
			c2.3,0,4.2,1.9,4.2,4.2v7.6c0,1.9-1.3,3.6-3.1,4.1l0,0l-15.5,4C161.3,245.3,160.9,245.4,160.6,245.4z M145,229.6l-0.1,7.6
			l15.6,4.1l15.6-4c0,0,0.1,0,0.1-0.1v-7.6L145,229.6z"/>
		<path d="M160.6,246.1c-0.4,0-0.8,0-1.1-0.1l-15.6-4c-2.1-0.6-3.6-2.5-3.7-4.7v-7.6c0-2.7,2.2-4.8,4.9-4.9h31.1h0
			c2.7,0,4.9,2.2,4.9,4.9v7.6c0,2.2-1.5,4.2-3.6,4.7l-15.5,4C161.4,246,161,246.1,160.6,246.1z M145,226.1c-1.9,0-3.5,1.6-3.5,3.5
			v7.6c0,1.6,1.1,3,2.6,3.4l15.6,4c0.6,0.1,1.1,0.1,1.7,0l15.5-4c1.5-0.4,2.6-1.8,2.6-3.4v-7.6c0-1.9-1.6-3.5-3.5-3.5h0L145,226.1
			L145,226.1z M160.6,242l-16.3-4.2l0.1-8.9l32.5,0.1v8.8l-0.6,0.2L160.6,242z M145.6,236.7l14.9,3.9l15-3.8l0-6.4l-29.8-0.1
			L145.6,236.7z"/>
	</g>
	<g>
		<path d="M96,245.4c-0.3,0-0.7,0-1-0.1l-15.6-4l0,0c-1.8-0.5-3.1-2.1-3.1-4.1v-7.6c0-2.3,1.9-4.2,4.2-4.2h31.1
			c2.3,0,4.2,1.9,4.2,4.2v7.6c0,1.9-1.3,3.6-3.1,4.1l-15.5,4C96.7,245.3,96.4,245.4,96,245.4z M80.5,237.3l15.6,4l15.6-4l0.1-7.7
			l-31.1-0.1L80.5,237.3l-0.5,2L80.5,237.3z"/>
		<path d="M96,246.1L96,246.1c-0.4,0-0.8-0.1-1.2-0.1l-15.6-4c-2.1-0.6-3.6-2.5-3.7-4.7v-7.6c0-2.7,2.2-4.9,4.9-4.9h0h31.1
			c2.7,0,4.9,2.2,4.9,4.9v7.6c0,2.2-1.5,4.2-3.6,4.7l-15.5,4C96.8,246,96.4,246.1,96,246.1L96,246.1z M80.5,226.1
			c-1.9,0-3.5,1.6-3.5,3.5v7.6c0,1.6,1.1,3,2.6,3.4l15.6,4c0.6,0.1,1.2,0.1,1.7,0l15.5-4c1.5-0.4,2.6-1.8,2.6-3.4v-7.6
			c0-1.9-1.6-3.5-3.5-3.5L80.5,226.1L80.5,226.1z M96,242l-0.2,0L81,238.1l-0.3,1.3l-1.3-0.3l0.4-2.1l0.1-8.2l32.5,0.1l-0.1,8.9
			l-0.5,0.1L96,242z M81.1,236.8l14.9,3.8l14.9-3.8l0.1-6.4l-29.8-0.1L81.1,236.8z"/>
	</g>
	<g>
		<path d="M207.3,221.5c-2.2-3.6-14.7-21.9-41.7-34.5l-1.9-0.9l-1.3-0.6c0.3-4.7-0.4-5.9-0.6-6.3c-1.8-2.3-4.2-4-6.9-5.1l-0.2-0.1
			c-1.8-1.1-4.1-1.1-5.9,0c-0.8-1.9-1.3-4-1.4-6c15.2-7.1,26.7-20.3,31.7-36.3c0.9,0.2,1.7,0.3,2.6,0.3c2.1,0,4.2-0.5,6.1-1.5
			c5-2.6,8.7-7.1,10.2-12.6c2.7-9.8,0-18.6-6.9-21.8c-2.4-0.9-4.9-1.2-7.4-0.6c0.1-2,0.1-3.9,0.1-5.7c3.3,0.4,5.3,0.1,6.6-1
			c0.9-0.8,1.5-2,1.4-3.2c-0.2-2.2-1.1-4.3-2.7-5.8c5.1-53-24.9-64.8-53.5-71.8c-0.8-0.2-1.7-0.4-2.5-0.6c-3.2-0.8-6.5-0.8-9.7,0
			L121,7.7c-28.7,7-58.8,18.9-53.6,72c-1.5,1.6-2.4,3.6-2.6,5.7c-0.1,1.2,0.5,2.4,1.4,3.2c1.2,0.9,2.7,1.3,4.2,1.2
			c0.8,0,1.5-0.1,2.3-0.2c0,1.8,0.1,3.7,0.1,5.7c-2.5-0.5-5-0.3-7.4,0.6c-6.9,3.2-9.6,12-6.9,21.8c1.5,5.4,5.2,10,10.2,12.5
			c1.9,0.9,4,1.4,6.2,1.5c0.9,0,1.7-0.1,2.6-0.3c5,16,16.5,29.2,31.7,36.3c-0.2,2.1-0.6,4.1-1.4,6c-1.8-1-4-1-5.8,0.1l-0.2,0.1
			c-2.7,1.1-5.1,2.9-7,5.1c-0.8,2-1,4.2-0.6,6.3c-0.4,0.2-0.9,0.4-1.3,0.6l-2,0.9c-27,12.6-39.5,30.9-41.7,34.5
			c-2.1,2.9-2.9,6.5-2.2,10c1.2,4.7,5.8,7.8,10.2,10.2c7.6,3.9,15.8,6.7,24.1,8.5c15.4,3.5,31.2,5.3,47,5.1l0,0
			c45,0,68.6-12.3,71.1-13.7c4.4-2.4,9-5.5,10.2-10.2C210.3,227.9,209.5,224.3,207.3,221.5z M152.8,177.6l0.2,0.1
			c2,0.8,3.8,2,5.3,3.5c0.3,1.8,0.3,3.6,0,5.3c-0.8,7.5-3.3,14.6-5.7,16.3c-0.3,0.2-0.7,0.3-1.1,0.2c-5-1.4-9.5-10.2-11.5-15.1
			c3.7-2.6,7-5.7,9.8-9.3l0.6-0.8C150.9,177.3,151.4,176.9,152.8,177.6z M128.3,212.9c-1-3.4-1.9-7.9-2.8-12c-0.5-2.4-1-4.6-1.5-6.6
			c1.7,0.3,3.5,0.4,5.2,0.4c1.2,0,2.4-0.1,3.3-0.1c-0.5,2-0.9,4.2-1.4,6.4C130.2,205.1,129.3,209.5,128.3,212.9z M136.8,185
			l-0.1,0.1c-1.2,0.5-2,1.9-3,5.3c-3.6,0.4-7.3,0.2-10.8-0.5c-0.9-2.9-1.6-4.1-2.7-4.7c-0.1,0-0.1-0.1-0.2-0.1
			c-3.3-1.5-6.7-5.1-9.2-8.1c1.2-2.3,2-4.8,2.3-7.4c4.8,1.9,9.9,2.9,15.1,3.1c5.2-0.2,10.3-1.2,15.1-3.1c0.3,2.6,1.1,5.2,2.4,7.5
			C143.3,180.3,140.3,183,136.8,185z M189.3,99.7c4.9,2.3,6.8,9.3,4.7,17c-1.2,4.3-4.1,7.9-8,10c-1.8,0.9-3.8,1.2-5.8,0.9
			c0.2-0.9,0.5-1.8,0.7-2.9c0.6-2.6,2.5-22,2.6-25.1C185.4,99,187.4,99.1,189.3,99.7z M122,11.7l2.3-0.6c2.6-0.6,5.3-0.6,7.9,0
			c0.8,0.2,1.6,0.4,2.4,0.6c33.5,8.1,53.7,21.9,50.7,64.2c-9.9-7.8-31.4-19.3-57-19.3C102.6,56.6,81,68.2,71.2,76
			C68.1,33.7,88.4,19.9,122,11.7z M68.9,85.4c0-0.4,0.2-1.6,2.1-3.7c7.1-7.7,29.5-21,57.3-21c27.3,0,49.5,13,56.9,20.7
			c0.1,0.2,0.4,0.5,0.6,0.6c1,0.9,1.7,2.1,1.9,3.5c-0.1,0.1-1.1,0.6-5.7-0.2c-2.7-0.5-6-1.2-9.8-2.2c-11.3-2.7-26.7-8.9-43.9-8.9
			s-32.7,6.3-44,8.9c-3.9,0.9-7.2,1.7-9.9,2.2C69.9,86.1,69,85.6,68.9,85.4z M70.5,126.7c-3.9-2.1-6.8-5.7-8-10
			c-2.2-7.7-0.2-14.7,4.7-17c1.9-0.7,3.9-0.7,5.8-0.1c0.1,3.1,2.1,22.6,2.6,25.1c0.2,1,0.4,2,0.7,2.9
			C74.3,127.9,72.3,127.6,70.5,126.7L70.5,126.7z M80.8,128.4c-0.4-1.4-0.8-2.9-1.2-4.6c-0.7-3.3-1.2-6.6-1.5-9.9
			c-0.5-4.9-0.9-10.4-1.1-15.7c-0.1-3.3-0.2-6.3-0.2-9.2c2.4-0.5,5.2-1.1,8.4-1.9c11.1-2.6,26.3-8.8,43.1-8.8s31.9,6.2,43,8.8
			c3.1,0.7,5.9,1.4,8.4,1.9c0,2.9-0.1,6-0.2,9.3c-0.2,5.3-0.6,10.7-1.1,15.7c-0.3,3.3-0.8,6.7-1.5,9.9c-0.4,1.7-0.8,3.2-1.2,4.6
			c-4.4,16.2-16,29.6-31.4,36.3c-0.6,0.3-1.1,0.5-1.8,0.7c-4.6,1.8-9.4,2.9-14.3,3.1c-4.9-0.2-9.8-1.2-14.4-3.1
			c-0.6-0.2-1.2-0.4-1.8-0.7C96.7,158,85.2,144.6,80.8,128.4L80.8,128.4z M98.2,181.3c1.5-1.6,3.3-2.8,5.3-3.6l0.3-0.1
			c0.4-0.2,0.8-0.3,1.2-0.4c0.4,0,0.9,0.3,1.1,0.6c0.2,0.2,0.4,0.5,0.6,0.7c2.8,3.6,6.1,6.8,9.9,9.4c-2,4.9-6.6,13.8-11.5,15.1
			c-0.4,0.1-0.8,0-1.1-0.2c-2.7-1.9-5-9.8-5.7-16.3C98,184.8,98,183,98.2,181.3L98.2,181.3z M59.1,238.1c-5.1-2.8-7.6-5.1-8.2-7.6
			c-0.4-2.4,0.2-4.9,1.7-6.8c2.1-3.4,14-20.8,39.9-32.9l1.9-0.9l0.1,0c0.9,5.8,3.1,13.8,7.1,16.5c1.3,0.9,2.9,1.2,4.5,0.8
			c6-1.6,10.6-9.6,13.1-14.9c0.7,2.6,1.4,6,2.2,9.6c1.5,6.9,3,14,4.8,17.4l-0.1,32c-14.8,0-29.5-1.7-44-5
			C74.2,244.5,66.4,241.7,59.1,238.1z M205.6,230.4c-0.6,2.5-3.1,4.8-8.2,7.6c-2.4,1.3-24.4,12.8-67.1,13.1l0.1-32.1
			c1.7-3.3,3.2-10.1,4.8-17.2c0.7-3.4,1.4-6.5,2.1-9.1l0,0v0c0.1-0.2,0.1-0.4,0.2-0.6c2.4,5.2,7,13.2,13.1,14.9
			c1.5,0.4,3.2,0.1,4.5-0.8c3.9-2.7,6.1-10.6,7.1-16.4l0.1,0l1.9,0.9c25.9,12.1,37.8,29.6,39.9,32.9
			C205.3,225.5,206,228,205.6,230.4L205.6,230.4L205.6,230.4z"/>
		<path d="M126.7,256c-15.3,0-30.6-1.7-45.5-5.2c-8.4-1.8-16.6-4.7-24.3-8.6c-4.5-2.5-9.3-5.7-10.6-10.6c-0.8-3.7,0.1-7.6,2.3-10.6
			c2.2-3.5,14.8-22,42-34.7l2.8-1.3c-0.2-2.1,0-4.2,0.8-6.1l0.1-0.2c1.9-2.3,4.4-4.2,7.2-5.3l0.2-0.1c1.7-1.1,3.9-1.2,5.7-0.4
			c0.5-1.5,0.9-3,1.1-4.6c-14.9-7.2-26.3-20.2-31.4-36c-0.7,0.1-1.4,0.2-2.1,0.2c-2.2,0-4.5-0.6-6.4-1.5c-5.1-2.7-9-7.4-10.5-13
			c-2.8-10.2,0.1-19.2,7.2-22.6c2.2-0.9,4.6-1.2,7-0.8c0-1.4-0.1-2.8-0.1-4.1c-0.5,0-1,0.1-1.6,0.1c-1.7,0.1-3.3-0.3-4.6-1.3
			c-1.2-1-1.8-2.3-1.7-3.8c0.2-2.2,1.1-4.3,2.6-5.9c-5-53.4,25.3-65.4,54.2-72.4l2.3-0.6c3.3-0.8,6.8-0.8,10,0
			c0.8,0.2,1.7,0.4,2.5,0.6c28.8,7,59,19,54.1,72.2c1.5,1.7,2.5,3.8,2.7,6c0.1,1.5-0.6,2.9-1.7,3.8c-1.4,1.2-3.3,1.5-6.4,1.3
			c0,1.3,0,2.7-0.1,4.1c2.4-0.3,4.7-0.1,6.9,0.8c7.2,3.4,10.1,12.5,7.3,22.6c-1.5,5.6-5.4,10.3-10.5,13c-2,1-4.2,1.5-6.4,1.6
			c-0.7,0-1.4-0.1-2.1-0.2c-5.1,15.7-16.5,28.8-31.4,36c0.2,1.6,0.5,3.2,1.1,4.7c1.9-0.8,4.1-0.7,5.9,0.4l0.2,0.1
			c2.8,1.1,5.2,2.9,7.2,5.3c0.3,0.5,1.1,1.8,0.8,6.4l2.7,1.3c27.1,12.6,39.7,31.1,41.9,34.7c2.2,3,3.1,6.8,2.3,10.5
			c-1.3,5-6.1,8.2-10.6,10.6c-2.6,1.4-26.2,13.8-71.4,13.8C127.7,256,127.2,256,126.7,256z M95.3,179.5c-0.7,1.9-0.9,3.9-0.6,5.8
			l0.1,0.5l-3.7,1.8c-26.8,12.5-39.2,30.7-41.4,34.2c-2,2.8-2.8,6.2-2.2,9.5c1.1,4.4,5.6,7.4,9.9,9.7c7.6,3.8,15.6,6.7,24,8.4
			c14.8,3.4,30,5.1,45.2,5.1c0.5,0,1.1,0,1.6,0c44.9,0,68.3-12.2,70.8-13.6c4.2-2.3,8.7-5.3,9.9-9.8c0.6-3.2-0.1-6.7-2.1-9.4l0,0
			c-2.2-3.5-14.6-21.7-41.4-34.2l-3.6-1.7l0-0.5c0.1-2.1,0.2-4.8-0.6-5.9c-1.7-2.1-4-3.8-6.6-4.8l-0.3-0.2c-1.6-1-3.6-1-5.2,0
			l-0.7,0.4l-0.3-0.7c-0.8-2-1.3-4.1-1.5-6.2l0-0.5l0.4-0.2c15-7.1,26.4-20.1,31.3-35.9l0.2-0.6l0.6,0.1c0.8,0.2,1.6,0.3,2.4,0.3
			c2,0,4-0.5,5.8-1.4c4.8-2.5,8.4-6.9,9.8-12.1c2.7-9.5,0-17.9-6.5-21c-2.2-0.9-4.6-1.1-6.9-0.6l-0.9,0.2l0-0.9
			c0.1-2,0.1-3.9,0.1-5.7l0-0.8l0.8,0.1c3.1,0.3,4.9,0.1,6.1-0.9c0.8-0.7,1.2-1.6,1.2-2.7c-0.2-2-1.1-3.9-2.5-5.4l-0.2-0.2l0-0.3
			c5-52.4-24.7-64.2-53-71.1c-0.8-0.2-1.7-0.4-2.5-0.6c-3.1-0.7-6.3-0.7-9.4,0l-2.3,0.5C92.8,15.3,63,27,68.1,79.6l0,0.3l-0.2,0.2
			c-1.4,1.4-2.2,3.3-2.4,5.3c0,1,0.4,2,1.2,2.7c1.1,0.8,2.4,1.2,3.7,1c0.8,0,1.5-0.1,2.2-0.1l0.8-0.1l0,0.8c0,1.8,0,3.7,0.1,5.7
			l0,0.9L72.7,96c-2.3-0.5-4.8-0.3-7,0.6c-6.5,3.1-9.1,11.5-6.5,21c1.4,5.2,5,9.6,9.8,12.1c1.8,0.9,3.8,1.4,5.8,1.4
			c0.8,0,1.6-0.1,2.4-0.3l0.6-0.1l0.2,0.6c4.9,15.8,16.3,28.9,31.3,35.9l0.4,0.2l0,0.5c-0.2,2.1-0.7,4.2-1.5,6.2l-0.3,0.7l-0.7-0.4
			c-1.6-0.9-3.5-0.9-5.1,0.1l-0.3,0.1C99.4,175.7,97.1,177.4,95.3,179.5z M129.6,251.9l0.1-33.1c1.7-3.3,3.2-10.3,4.7-17
			c0.8-3.6,1.4-6.6,2.1-9l0-0.1c0-0.2,0.1-0.3,0.1-0.5l0.5-1.8l0.8,1.5c2.2,4.7,6.7,12.9,12.6,14.5c1.3,0.3,2.8,0.1,3.9-0.7
			c4.4-3,6.3-13,6.8-16l0.1-0.9l2.7,1.3c26.2,12.2,38.1,29.8,40.2,33.2c1.6,2,2.2,4.7,1.8,7.2v0.1l0,0c-0.7,2.7-3.2,5.1-8.6,8.1
			c-2.4,1.3-24.5,12.9-67.4,13.2L129.6,251.9z M131.1,219.3l-0.1,31.2c42.1-0.5,63.7-11.8,66-13.1c4.9-2.7,7.3-4.9,7.9-7.2l0,0
			c0.3-2.2-0.3-4.5-1.6-6.2c-2.1-3.4-13.9-20.7-39.7-32.7l-1.1-0.5c-0.8,4.4-2.8,13-7.2,16c-1.4,1.1-3.3,1.4-5,0.9
			c-5.6-1.5-9.9-7.9-12.7-13.5c-0.5,2.2-1.1,4.8-1.8,7.9C134.3,209.1,132.8,215.8,131.1,219.3z M126.9,251.9h-0.7
			c-14.8,0-29.7-1.7-44.1-5c-8.1-1.7-15.9-4.5-23.2-8.2l0,0c-5.3-2.9-7.9-5.3-8.5-8.1c-0.4-2.6,0.2-5.3,1.8-7.4
			c2.1-3.4,14-20.9,40.2-33.1l2.8-1.3l0.2,0.9c0.5,3,2.4,13,6.8,16c1.2,0.8,2.6,1.1,3.9,0.7c5.9-1.6,10.4-9.8,12.6-14.5l0.8-1.7
			l0.5,1.8c0.6,2.1,1.2,4.9,1.8,7.8l0.4,1.9c1.5,6.8,3,13.9,4.7,17.2l0.1,0.3L126.9,251.9z M59.5,237.4c7.3,3.6,15,6.4,22.9,8.1
			c14.1,3.2,28.6,4.9,43.1,5l0.1-31.1c-1.8-3.5-3.3-10.6-4.8-17.4l-0.4-1.9c-0.5-2.1-0.9-4.1-1.3-5.9c-2.8,5.7-7.2,12-12.7,13.5
			c-1.7,0.5-3.6,0.1-5.1-0.9c-4.4-3-6.4-11.6-7.2-16l-1.2,0.6c-25.8,12-37.5,29.3-39.7,32.7c-1.4,1.8-2,4.1-1.6,6.3
			C52.2,232.6,54.5,234.7,59.5,237.4z M128.3,215.4l-0.7-2.3c-1-3.5-2-8.2-2.8-12c-0.5-2.3-1-4.6-1.5-6.6l-0.2-1l1,0.1
			c1.7,0.2,3.4,0.4,5.1,0.4c0,0,0.1,0,0.1,0c1.2,0,2.3,0,3.3-0.1l0.9-0.1l-0.2,0.9c-0.5,2-0.9,4.1-1.4,6.4l-0.2,0.9
			c-0.9,3.9-1.7,7.9-2.6,11L128.3,215.4z M124.9,195.1c0.4,1.8,0.8,3.7,1.3,5.6c0.6,2.9,1.4,6.4,2.2,9.5c0.7-2.6,1.3-5.6,1.9-8.5
			l0.2-0.9c0.4-1.9,0.8-3.8,1.2-5.6c-0.8,0-1.7,0.1-2.5,0.1C127.7,195.4,126.3,195.3,124.9,195.1z M151.9,203.8
			c-0.2,0-0.3,0-0.5-0.1c-5.9-1.6-10.6-12.3-12-15.5l-0.2-0.5l0.4-0.3c3.7-2.5,6.9-5.6,9.6-9.2l0.7-0.8c0.6-0.7,1.4-1.3,3.2-0.4l0,0
			l0.2,0.1c2,0.8,3.9,2.1,5.4,3.6l0.2,0.1l0,0.2c0.3,1.8,0.3,3.7,0,5.5c-0.8,7.8-3.4,15-6,16.7C152.7,203.6,152.3,203.8,151.9,203.8
			z M140.9,188.2c2.5,6,6.8,13.1,10.9,14.2c0.2,0,0.3,0,0.4-0.1c2-1.4,4.6-7.8,5.5-15.8c0.3-1.7,0.3-3.3,0-4.9
			c-1.4-1.4-3.1-2.5-4.9-3.2l-0.3-0.1c-1-0.5-1.2-0.3-1.5,0.1l-0.7,0.8C147.7,182.6,144.5,185.6,140.9,188.2z M104.8,203.8
			c-0.4,0-0.9-0.2-1.2-0.4c-2.9-2-5.2-10.1-5.9-16.8c-0.3-1.6-0.3-3.2-0.1-4.8l-0.4-0.2l0.7-0.7c1.6-1.6,3.5-2.9,5.6-3.8l0.2-0.1
			c0.4-0.2,0.9-0.4,1.5-0.4c0.7,0,1.3,0.4,1.7,0.9c0.1,0.2,0.3,0.4,0.5,0.6c2.8,3.6,6.1,6.8,9.8,9.3l0.4,0.3l-0.2,0.5
			c-0.9,2.3-6,13.9-12,15.5C105.1,203.8,104.9,203.8,104.8,203.8z M98.9,181.6c-0.2,1.6-0.2,3.2,0.1,4.7c0.8,7.2,3.2,14.4,5.4,15.9
			c0.2,0.1,0.3,0.2,0.5,0.1c4.1-1.1,8.3-8.2,10.9-14.2c-3.6-2.6-6.8-5.7-9.6-9.2c-0.2-0.2-0.4-0.4-0.6-0.7c-0.2-0.2-0.4-0.4-0.6-0.4
			c-0.2,0-0.5,0.1-0.8,0.3l-0.3,0.1C102,179.1,100.3,180.2,98.9,181.6z M129.8,191.3c-2.4,0-4.8-0.2-7.2-0.8l-0.4-0.1l-0.1-0.4
			c-0.8-2.6-1.4-3.8-2.3-4.3c-3.5-1.5-6.8-5.1-9.6-8.4l-0.3-0.4l0.2-0.4c1.2-2.2,1.9-4.7,2.2-7.2l0.1-0.9l0.8,0.3
			c4.8,1.9,9.8,2.9,14.9,3.1c5.1-0.1,10.1-1.2,14.9-3.1l0.8-0.3l0.1,0.9c0.3,2.5,1.1,5,2.3,7.3l0.2,0.4l-0.3,0.4
			c-2.5,3.3-5.6,6.1-9.2,8.2l-0.3,0.1c-1,0.4-1.7,1.8-2.6,4.8l-0.1,0.4l-0.4,0.1C132.4,191.2,131.1,191.3,129.8,191.3z M123.4,189.3
			c3.2,0.6,6.5,0.8,9.8,0.5c1-3.3,1.8-4.7,3.2-5.3l0.1-0.1c3.3-1.9,6.2-4.4,8.5-7.4c-1-2.1-1.8-4.2-2.1-6.5
			c-4.7,1.8-9.6,2.7-14.6,2.9c-5-0.1-9.9-1.1-14.6-2.9c-0.4,2.2-1.1,4.4-2.1,6.4c2.6,3.1,5.7,6.3,8.7,7.6l0.2,0.1
			C121.7,185.2,122.5,186.5,123.4,189.3z M128.3,169.2c-5.1-0.2-10-1.2-14.7-3.1c-0.7-0.2-1.2-0.5-1.8-0.7
			c-15.6-6.9-27.2-20.3-31.7-36.8l0-0.1c-0.4-1.3-0.8-2.8-1.1-4.5c-0.7-3.3-1.2-6.7-1.5-10c-0.6-5.1-0.9-10.5-1.1-15.7
			c-0.1-3-0.2-6-0.2-9.3v-0.6l0.6-0.1c2.4-0.5,5.2-1.1,8.4-1.9c11.2-2.6,26.4-8.9,43.2-8.9c16.8,0,32,6.2,43.1,8.8
			c3.2,0.8,6,1.4,8.4,1.9l0.6,0.1V89c0,2.8-0.1,5.9-0.2,9.3c-0.2,5.3-0.6,10.7-1.1,15.7c-0.3,3.3-0.8,6.7-1.5,10
			c-0.4,1.7-0.8,3.2-1.2,4.6c-4.5,16.5-16.1,29.9-31.8,36.8c-0.6,0.2-1.1,0.5-1.7,0.7C138.2,168,133.3,169.1,128.3,169.2z
			 M81.5,128.4c4.4,16,15.7,29.1,30.9,35.8c0.6,0.3,1.1,0.5,1.6,0.7c4.7,1.9,9.4,2.9,14.3,3.1c4.8-0.2,9.5-1.2,14-3
			c0.7-0.3,1.2-0.5,1.8-0.7c15.3-6.7,26.6-19.8,31-35.9c0.4-1.3,0.8-2.8,1.1-4.5c0.7-3.3,1.2-6.6,1.5-9.8c0.5-5,0.9-10.4,1.1-15.7
			c0.1-3.2,0.2-6,0.2-8.7c-2.3-0.5-4.9-1.1-7.8-1.8C160.1,85.2,145,79,128.3,79c-16.7,0-31.9,6.2-42.9,8.8c-2.9,0.7-5.5,1.3-7.9,1.8
			c0,3,0.1,5.9,0.2,8.7c0.2,5.2,0.6,10.6,1.1,15.6c0.3,3.3,0.8,6.6,1.5,9.9c0.4,1.7,0.7,3.2,1.1,4.5L81.5,128.4z M74.8,128.4
			c-1.6,0-3.2-0.4-4.6-1.1l-0.1-0.1c-4-2.2-7-5.9-8.2-10.3c-2.2-8-0.2-15.3,5.1-17.8c2.1-0.7,4.2-0.8,6.3-0.1l0.4,0.1l0,0.5
			c0.1,3.1,2.1,22.4,2.6,25c0.2,1,0.4,1.9,0.7,2.8l0.2,0.7l-0.8,0.1C75.9,128.4,75.4,128.4,74.8,128.4z M70.9,126.1
			c1.4,0.7,2.9,1,4.5,0.9c-0.2-0.7-0.3-1.4-0.5-2.1c-0.5-2.5-2.4-20.5-2.6-24.8c-1.6-0.4-3.3-0.3-4.9,0.2c-4.5,2.1-6.3,8.8-4.3,16.2
			c1.1,4.1,3.9,7.6,7.7,9.5L70.9,126.1z M181.6,128.4c-0.5,0-1,0-1.5-0.1l-0.7-0.1l0.2-0.7c0.2-0.9,0.4-1.8,0.7-2.8
			c0.5-2.5,2.5-22.1,2.6-25l0-0.5l0.4-0.2c2-0.7,4.2-0.6,6.2,0.1l0.1,0c5.2,2.5,7.3,9.8,5,17.8c-1.2,4.4-4.2,8.2-8.3,10.4
			C184.8,128,183.2,128.4,181.6,128.4z M181,127c1.6,0.1,3.2-0.2,4.6-0.9c3.8-2,6.5-5.4,7.7-9.5c2.1-7.4,0.3-14-4.3-16.2
			c-1.6-0.6-3.3-0.6-4.9-0.2c-0.3,4.2-2.1,22.2-2.6,24.7C181.4,125.7,181.2,126.3,181,127z M186.2,86.4c-1.3,0-2.9-0.2-4.3-0.5
			c-2.6-0.5-5.9-1.2-9.6-2.1l-0.3-0.1c-11.2-2.7-26.6-8.9-43.8-8.9c-17.2,0-32.6,6.3-43.9,8.9c-3.9,0.9-7.2,1.7-9.9,2.2
			c-5.6,1-6.1,0.1-6.2-0.3l-0.1-0.3c0-0.6,0.3-2,2.3-4.1c7.2-7.8,29.8-21.2,57.8-21.2c28.8,0,50.5,13.7,57.4,20.9
			c0.2,0.3,0.3,0.4,0.5,0.5c1.2,1.1,1.9,2.4,2.2,3.9l0.1,0.4l-0.4,0.3C187.8,86.3,187.1,86.4,186.2,86.4z M128.3,73.5
			c17.3,0,32.8,6.3,44.1,9l0.2,0.1c3.7,0.9,6.9,1.6,9.5,2.1c2.8,0.5,4.1,0.5,4.7,0.4c-0.3-1-0.8-1.8-1.6-2.5
			c-0.2-0.2-0.5-0.4-0.7-0.8c-7.1-7.4-29.4-20.3-56.4-20.3c-27.6,0-49.8,13.2-56.8,20.8c-1.3,1.4-1.7,2.3-1.9,2.8
			c0.5,0.1,1.7,0.1,4.6-0.4c2.6-0.4,5.9-1.2,9.7-2.1C95.4,79.8,111,73.5,128.3,73.5z M70.6,77.4l-0.1-1.3c-3.1-43,17.3-56.8,51.3-65
			l2.3-0.6c2.7-0.6,5.5-0.6,8.2,0c0.8,0.2,1.6,0.4,2.5,0.6c33.9,8.3,54.3,22,51.2,64.9l-0.1,1.3l-1-0.8
			c-10.6-8.4-32.2-19.2-56.6-19.2c-24.6,0-46.2,10.9-56.7,19.3L70.6,77.4z M122.2,12.4c-33,8-52.9,21.3-50.3,62.3
			c11-8.3,32.4-18.8,56.5-18.8c24,0,45.3,10.5,56.4,18.7c2.5-41-17.4-54.2-50.2-62.2c-0.8-0.2-1.6-0.4-2.4-0.6
			c-2.5-0.6-5.1-0.6-7.6,0L122.2,12.4z"/>
	</g>
	<g>
		<path d="M106.6,121.7c-4.4-0.1-8.7-0.6-13-1.5l-0.4-0.1c-7.7-1.5-11.6-7.5-11.6-17.9c-0.2-3.6,2.2-6.8,5.6-7.6
			c9.1-2.1,22.9-3.2,41-3.2c18.1,0,32,1.1,41.1,3.2c3.4,0.9,5.8,4.1,5.6,7.6c0,10.4-3.9,16.4-11.6,17.9l-0.4,0.1
			c-4.5,0.9-15,2.9-23.3-0.1c-3.5-1.3-5.5-4.6-7.3-7.5c-1.4-2.3-2.7-4.4-4.1-4.4c-1.4,0-2.7,2.1-4.1,4.4c-1.8,2.9-3.7,6.2-7.3,7.5
			C113.6,121.2,110.1,121.8,106.6,121.7z M128.2,95.2c-17.8,0-31.3,1.1-40.1,3.1c-1.7,0.5-2.9,2.2-2.7,4c0,11.2,4.9,13.5,8.6,14.2
			l0.4,0.1c4.2,0.8,13.9,2.7,21.3,0.1c2.3-0.8,3.8-3.4,5.3-5.9c1.8-3.1,3.7-6.2,7.3-6.2c3.5,0,5.4,3.2,7.3,6.2
			c1.5,2.5,3.1,5.1,5.4,5.9c7.3,2.7,17.1,0.8,21.3-0.1l0.4-0.1c3.7-0.7,8.6-3,8.6-14.2c0.1-1.8-1-3.5-2.7-4
			C159.6,96.2,146.1,95.2,128.2,95.2z"/>
		<path d="M107.2,122.3c-0.2,0-0.4,0-0.6,0l0,0c-4.4-0.1-8.8-0.6-13.1-1.5l-0.4-0.1c-8-1.6-12.1-7.8-12.1-18.5
			c-0.2-3.8,2.4-7.3,6.1-8.2c9.2-2.2,23.1-3.2,41.2-3.2c18.2,0,32.1,1.1,41.2,3.2c3.7,1,6.3,4.4,6.1,8.3c0,10.7-4.1,16.9-12.1,18.4
			l-0.4,0.1c-4.5,0.9-15.1,2.9-23.6-0.1c-3.7-1.3-5.8-4.7-7.6-7.7c-1.2-2-2.6-4.2-3.6-4.2s-2.4,2.2-3.5,4.1c-1.8,3-3.8,6.4-7.6,7.8
			C113.9,121.8,110.6,122.3,107.2,122.3z M128.2,92.1c-18,0-31.7,1.1-40.8,3.2c-3.1,0.8-5.3,3.8-5.2,7c0,10,3.8,15.8,11.1,17.3
			l0.4,0.1c4.2,0.9,8.6,1.4,12.8,1.5l0,0c0.2,0,0.4,0,0.6,0c3.2,0,6.4-0.5,9.5-1.6c3.3-1.2,5.2-4.4,6.9-7.2c1.5-2.5,2.8-4.7,4.6-4.7
			c1.8,0,3.2,2.3,4.6,4.7c1.8,2.8,3.7,6,7,7.2c8.1,2.9,18.5,0.9,22.9,0.1l0.4-0.1c7.4-1.4,11.1-7.2,11.1-17.2c0.1-3.3-2-6.2-5.2-7
			C160.1,93.1,146.3,92.1,128.2,92.1z M106.6,118.6c-5,0-9.8-0.9-12.4-1.4l-0.4-0.1c-3.9-0.8-9.1-3.1-9.1-14.8
			c-0.2-2.1,1.2-4,3.2-4.6c8.9-2.1,22.5-3.2,40.3-3.2c17.9,0,31.5,1.1,40.4,3.2c2.1,0.6,3.4,2.5,3.2,4.6c0,11.6-5.2,14-9.1,14.7
			l-0.4,0.1c-4.2,0.8-14.1,2.8-21.6,0c-2.5-0.9-4.1-3.5-5.7-6.1c-1.9-3.1-3.7-6-6.8-6c-3.2,0-4.9,2.9-6.7,5.9
			c-1.6,2.6-3.2,5.3-5.7,6.2C113,118.2,109.8,118.6,106.6,118.6z M128.2,95.8c-17.7,0-31.2,1.1-40,3.1c-1.4,0.4-2.4,1.8-2.3,3.3
			c0,10.8,4.6,12.9,8.1,13.6l0.4,0.1c4.2,0.8,13.8,2.7,20.9,0.1c2.1-0.8,3.6-3.2,5-5.6c1.8-3.1,3.9-6.5,7.8-6.5c3.9,0,6,3.4,7.8,6.5
			c1.5,2.5,3,4.9,5.1,5.7c7.2,2.6,16.8,0.7,20.9-0.1l0.4-0.1c3.5-0.7,8.1-2.8,8.1-13.6c0.1-1.6-0.8-3-2.3-3.4
			C159.6,96.9,146.1,95.8,128.2,95.8z"/>
	</g>
</g>
</svg>
