<svg xmlns="http://www.w3.org/2000/svg" viewBox="0 0 21.26 32.75"><defs><style>.a{fill:none;stroke:#000;stroke-linecap:round;stroke-linejoin:round;stroke-width:0.75px;}</style></defs><title>47</title><path class="a" d="M14.75,24.59c.05.19.09.4.14.61l.07.34a10.16,10.16,0,0,0,1,2.33V32a30.3,30.3,0,0,1-6.14-.67,12.81,12.81,0,0,1-3.06-1.08c-.65-.36-1-.63-1-.92A1,1,0,0,1,6,28.51a12.67,12.67,0,0,1,5.3-4.37l.12-.06" transform="translate(-5.37 0.38)"/><path class="a" d="M12.85,25.55h0a3.8,3.8,0,0,1-.71-2.11,2.07,2.07,0,0,1,0-.61,2.1,2.1,0,0,1,.65-.43l0,0,.09,0s0,0,0,0,.07.08.08.1a5.83,5.83,0,0,0,1.26,1.22C13.94,24.47,13.38,25.41,12.85,25.55Z" transform="translate(-5.37 0.38)"/><path class="a" d="M17.93,21.36a3,3,0,0,0,.27.81,4,4,0,0,1-1.11,1h0c-.2.08-.32.28-.45.71a4.4,4.4,0,0,1-1.25-.07c-.11-.36-.22-.54-.4-.63h0a4,4,0,0,1-1.13-1,3.26,3.26,0,0,0,.26-.8" transform="translate(-5.37 0.38)"/><path class="a" d="M20.63,24.09l.1.05A12.66,12.66,0,0,1,26,28.51a1.1,1.1,0,0,1,.21.8c-.08.3-.39.59-1,1A22.68,22.68,0,0,1,16,32V27.86a9.82,9.82,0,0,0,1-2.31c.08-.35.15-.68.22-1" transform="translate(-5.37 0.38)"/><path class="a" d="M19.9,23.45a3.63,3.63,0,0,1-.72,2.1h0c-.52-.14-1.09-1.08-1.42-1.85A5.79,5.79,0,0,0,19,22.48l.09-.1s.05-.06.15,0l.05,0a2.21,2.21,0,0,1,.63.41A2,2,0,0,1,19.9,23.45Z" transform="translate(-5.37 0.38)"/><path class="a" d="M22.77,10.76q0,.54,0,1.14c0,.69-.08,1.42-.15,2.09a12,12,0,0,1-.2,1.32c-.05.23-.1.42-.15.61A7.32,7.32,0,0,1,18.1,20.7l-.23.1a5.5,5.5,0,0,1-1.87.4,5.54,5.54,0,0,1-1.9-.41l-.21-.09a7.29,7.29,0,0,1-4.13-4.77v0a5.78,5.78,0,0,1-.15-.6A11.67,11.67,0,0,1,9.41,14c-.08-.67-.13-1.4-.15-2.09,0-.37,0-.74,0-1.13" transform="translate(-5.37 0.38)"/><path class="a" d="M7.77,10.33c-.34-5.92,2.56-9,7.35-10.19l.34-.08a2.46,2.46,0,0,1,1.08,0l.36.09c4.77,1.16,7.66,4.26,7.33,10.17" transform="translate(-5.37 0.38)"/><path class="a" d="M16,6.67c3.69,0,7,2.56,8.21,3.79a.32.32,0,0,0,.11.12.69.69,0,0,1,.2.3,2.86,2.86,0,0,1-.63-.07c-.37-.06-.84-.17-1.37-.3h-.06c-.42-.1-.9-.24-1.4-.39A18.12,18.12,0,0,0,16,9.19a17.9,17.9,0,0,0-5.08.93c-.5.14-1,.28-1.42.39H9.44c-.52.13-1,.23-1.34.3a4.44,4.44,0,0,1-.62.06,1.69,1.69,0,0,1,.25-.35C8.88,9.27,12.21,6.67,16,6.67Z" transform="translate(-5.37 0.38)"/></svg>