<svg xmlns="http://www.w3.org/2000/svg" viewBox="0 0 256 256"><path d="M106.8 125.5l-61.7-2.7c0 1.2 0 2.3 0 3.3 0 45.7 37.2 82.9 82.9 82.9 38 0 70.1-25.6 79.8-60.3l-133 1.4 32-24.6zm-32 30.1l125.5-1.4a77.8 77.8 0 01-72.4 49.5c-42 0-76.3-33.6-77.6-75.3l41.5 1.8L71.5 146c-1.8 1.4-2.5 3.8-1.8 6 .8 2.1 2.8 3.6 5.1 3.6z"/><path d="M250.9 126.3l-23.8-1C226.7 71 182.4 27 128 27c-22.6 0-43.9 7.5-61.7 21.6-16 12.8-27.8 30.4-33.5 50l-27.5.3c-2.9 0-5.3 2.4-5.3 5.3V121c0 2.9 2.2 5.2 5.1 5.4l23.8 1c.8 54 44.9 97.7 99.1 97.7a99 99 0 0095.1-71.1l27.6-.4c2.9-.1 5.3-2.4 5.3-5.4v-16.6c0-2.7-2.3-5.1-5.1-5.3zm-.3 22l-31.6.4c-10.2 40.7-47 71.1-91.1 71.1-51.8 0-93.8-42-93.8-93.8 0-1.2 0-2.5.2-3.7l-29.1-1.2v-16.8l31.6-.4c10-40.9 47-71.5 91-71.5 51.8 0 93.8 42 93.8 93.7 0 1.5 0 2.9-.2 4.4l29.1 1.2v16.6z"/><path d="M128 43.2a82.7 82.7 0 00-79.8 60.7l133.9-1.4-32.9 24.9 61.8 2.7c0-1.2 0-2.5 0-3.9-.1-45.8-37.3-83-83-83zm36.3 79.5l21-16c1.9-1.4 2.6-3.8 1.8-6s-2.8-3.6-5.1-3.6c0 0 0 0-.1 0L55.6 98.4C67 68.7 95.8 48.5 128 48.5c42.2 0 76.7 33.9 77.6 75.9l-41.3-1.7z"/></svg>