<?xml version="1.0" encoding="utf-8"?>
<!-- Generator: Adobe Illustrator 24.0.0, SVG Export Plug-In . SVG Version: 6.00 Build 0)  -->
<svg version="1.1" id="Layer_1" xmlns="http://www.w3.org/2000/svg" xmlns:xlink="http://www.w3.org/1999/xlink" x="0px" y="0px"
	 viewBox="0 0 256 256" style="enable-background:new 0 0 256 256;" xml:space="preserve">
<style type="text/css">
	.st0{fill:#8699A3;}
</style>
<g>
	<g>
		<path class="st0" d="M106.79,125.49l-61.73-2.72c0,1.25,0,2.29,0,3.32c0,45.73,37.21,82.95,82.94,82.95
			c38.04,0,70.05-25.57,79.81-60.28l-133.02,1.45L106.79,125.49z M74.85,155.57l125.51-1.37c-11.41,29.47-40.19,49.49-72.36,49.49
			c-42.01,0-76.35-33.58-77.55-75.31l41.48,1.81l-20.42,15.78c-1.82,1.43-2.54,3.83-1.79,6c0.76,2.17,2.78,3.61,5.07,3.61
			C74.82,155.57,74.83,155.57,74.85,155.57z"/>
		<path class="st0" d="M250.87,126.35l-23.77-1.01C226.69,71.03,182.4,27,128,27c-22.63,0-43.95,7.45-61.65,21.56
			C50.3,61.36,38.5,78.99,32.83,98.54L5.29,98.93C2.36,98.96,0,101.35,0,104.27v16.84c0,2.87,2.25,5.24,5.13,5.36l23.77,1.01
			c0.75,54.01,44.92,97.73,99.1,97.73c44.22,0,82.76-29.06,95.15-71.14l27.56-0.35c2.93-0.05,5.29-2.44,5.29-5.37v-16.62
			C256,128.85,253.73,126.47,250.87,126.35z M250.64,148.34l-31.59,0.43c-10.19,40.73-46.99,71.08-91.05,71.08
			c-51.76,0-93.75-41.98-93.75-93.75c0-1.24,0-2.49,0.21-3.74l-29.1-1.25v-16.84l31.6-0.42c9.97-40.94,46.96-71.5,91.04-71.5
			c51.76,0,93.75,42,93.75,93.74c0,1.46,0,2.92-0.21,4.38l29.1,1.25V148.34z"/>
		<path class="st0" d="M128,43.17c-38.05,0-70.05,25.55-79.83,60.68l133.88-1.44l-32.86,24.93l61.75,2.7c0-1.24,0-2.49,0-3.95
			C210.94,80.36,173.73,43.17,128,43.17z M164.26,122.65l21.03-15.98c1.85-1.39,2.58-3.8,1.83-6c-0.75-2.17-2.78-3.63-5.07-3.63
			c-0.02,0-0.04,0-0.05,0L55.61,98.42c11.35-29.71,40.16-49.9,72.4-49.9c42.22,0,76.68,33.9,77.56,75.94L164.26,122.65z"/>
	</g>
</g>
</svg>
