<?xml version="1.0" encoding="utf-8"?>
<!-- Generator: Adobe Illustrator 24.0.0, SVG Export Plug-In . SVG Version: 6.00 Build 0)  -->
<svg version="1.1" id="Layer_1" xmlns="http://www.w3.org/2000/svg" xmlns:xlink="http://www.w3.org/1999/xlink" x="0px" y="0px"
	 viewBox="0 0 256 256" style="enable-background:new 0 0 256 256;" xml:space="preserve">
<g>
	<g>
		<path d="M106.8,125.5l-61.7-2.7c0,1.2,0,2.3,0,3.3c0,45.7,37.2,82.9,82.9,82.9c38,0,70.1-25.6,79.8-60.3l-133,1.4L106.8,125.5z
			 M74.8,155.6l125.5-1.4c-11.4,29.5-40.2,49.5-72.4,49.5c-42,0-76.3-33.6-77.6-75.3l41.5,1.8L71.5,146c-1.8,1.4-2.5,3.8-1.8,6
			C70.5,154.1,72.5,155.6,74.8,155.6C74.8,155.6,74.8,155.6,74.8,155.6z"/>
		<path d="M250.9,126.3l-23.8-1C226.7,71,182.4,27,128,27c-22.6,0-43.9,7.5-61.7,21.6c-16,12.8-27.8,30.4-33.5,50L5.3,98.9
			c-2.9,0-5.3,2.4-5.3,5.3v16.8c0,2.9,2.2,5.2,5.1,5.4l23.8,1c0.8,54,44.9,97.7,99.1,97.7c44.2,0,82.8-29.1,95.1-71.1l27.6-0.4
			c2.9-0.1,5.3-2.4,5.3-5.4v-16.6C256,128.9,253.7,126.5,250.9,126.3z M250.6,148.3l-31.6,0.4c-10.2,40.7-47,71.1-91.1,71.1
			c-51.8,0-93.8-42-93.8-93.8c0-1.2,0-2.5,0.2-3.7l-29.1-1.2v-16.8l31.6-0.4c10-40.9,47-71.5,91-71.5c51.8,0,93.8,42,93.8,93.7
			c0,1.5,0,2.9-0.2,4.4l29.1,1.2V148.3z"/>
		<path d="M128,43.2c-38.1,0-70.1,25.6-79.8,60.7l133.9-1.4l-32.9,24.9l61.8,2.7c0-1.2,0-2.5,0-3.9C210.9,80.4,173.7,43.2,128,43.2z
			 M164.3,122.7l21-16c1.9-1.4,2.6-3.8,1.8-6c-0.8-2.2-2.8-3.6-5.1-3.6c0,0,0,0-0.1,0L55.6,98.4C67,68.7,95.8,48.5,128,48.5
			c42.2,0,76.7,33.9,77.6,75.9L164.3,122.7z"/>
	</g>
</g>
</svg>
