<?xml version="1.0" encoding="utf-8"?>
<!-- Generator: Adobe Illustrator 24.0.0, SVG Export Plug-In . SVG Version: 6.00 Build 0)  -->
<svg version="1.1" id="Layer_1" xmlns="http://www.w3.org/2000/svg" xmlns:xlink="http://www.w3.org/1999/xlink" x="0px" y="0px"
	 viewBox="0 0 256 256" style="enable-background:new 0 0 256 256;" xml:space="preserve">
<path d="M11.6,55.8c1.6,0,3.3,0,4.9,0l0,0c3.3,0,8.2,1.6,11.5,8.2h-1.6l-3.3,3.3c1.6,0,3.3,1.6,6.6,1.6s6.6,0,8.2,0
	c3.3,0,6.6,0,9.8-1.6c0,0,3.3,4.9,8.2,11.5c6.6,8.2,13.1,16.4,13.1,16.4c1.6,0-8.2,1.6-18,1.6c-8.2,0-18,1.6-24.6,1.6
	c-4.9,0-9.9,3.3-11.5,8.2c0,3.3-1.6,11.5-1.6,14.8l3.3-1.6c0,1.6,1.6,1.6,1.6,3.3c3.3,4.9,3.3,6.6,8.2,8.2c3.3-6.6,9.9-6.6,13.1-6.6
	h1.6v6.6c16.4,0,16.4-11.5,16.4-11.5h31.2l8.2,9.8l11.5,13.1c-16.4,16.4-26.3,36.1-39.4,59.1c4.9,4.9,3.3,16.4-4.9,16.4
	c0,0,0,0-1.6,0c-4.9,0-11.5-3.3-18-3.3c-1.6,0-1.6,0-3.3,0c-9.9,1.6-8.2,11.5-16.4,21.3c1.6,0,3.3,1.6,4.9,1.6
	c6.6,3.3,13.1,6.6,16.4,11.5c3.3-3.3,9.8-3.3,16.4-3.3c9.9,0,21.3,3.3,27.9,4.9l0,0c1.6,0,1.6-3.3,1.6-4.9c-1.6-3.3-3.3-6.6,0-13.1
	c1.6-4.9,29.5-32.8,49.2-50.9l0,0l0,0c1.6,1.6,6.6,4.9,13.1,9.9c9.9,8.2,24.6,16.4,24.6,16.4h3.3c1.6,0,3.3,0,3.3,0h1.6
	c0,0,0,0,1.6,0h1.6c0,0,0,0,1.6,0l0,0c1.6,1.6,3.3,4.9,3.3,8.2c0,1.6,0,1.6,0,3.3s-1.6,1.6-1.6,1.6l0,0l-1.6,1.6l0,0h-1.6l0,0
	c-1.6,0-1.6,0-3.3,0c-4.9,0-9.9-3.3-18.1,1.6c-6.6,3.3-3.3,16.4-8.2,21.3c3.3,0,4.9,0,8.2,1.6c8.2,1.6,13.1,4.9,18.1,8.2
	c18.1-8.2,24.6-4.9,42.7-1.6c1.6,0,1.6-3.3,0-6.6c-1.6-1.6-3.3-6.6-3.3-11.5v-11.5v-27.9V192l0,0l0,0c-3.3,0-6.6,0-9.9,0
	s-4.9-1.6-6.6-3.3l0,0l-1.6-1.6l0,0c-1.6-1.6-1.6-3.3-1.6-4.9c-1.6-4.9-6.6-14.8-8.2-21.3c0,0,13.1,0,23-6.6
	c1.6-1.6,4.9-3.3,6.6-4.9s1.6-3.3,3.3-4.9c1.6-4.9,3.3-9.9,1.6-16.4c-4.9-13.1-8.2-21.3-9.9-27.9c-3.3-8.2-9.9-23-13.1-32.8
	c-1.6-6.6-3.3-11.5-3.3-14.8c0-1.6,0-1.6,0-3.3l0,0c0-3.3,1.6-4.9,3.3-8.2c1.6-3.3,4.9-6.6,9.9-6.6c1.6,0,1.6,0,3.3,1.6
	c3.3,1.6,3.3,3.3,3.3,3.3c-3.3,1.6-3.3,4.9-4.9,6.6c-1.6,6.6-3.3,13.1-1.6,18c1.6,6.6,6.6,11.5,9.9,14.8c1.6,1.6,4.9,4.9,6.6,4.9
	c0,0,6.6,4.9,8.2,3.3c3.3-3.3-4.9-14.8-4.9-18.1c0-1.6,1.6-4.9,1.6-6.6c1.6-3.3,3.3-6.6,3.3-11.5c1.6-8.2-1.6-16.4-6.6-21.3
	c-3.3-3.3-8.2-4.9-13.1-6.6c-3.3,0-16.4-3.3-26.3,11.5c-1.6,1.6-1.6,3.3-3.3,6.6s-1.6,6.6-1.6,9.9c-4.9-11.5-9.9-24.6-16.4-32.8
	c0-1.6-3.3-3.3-4.9-6.6s-4.9-4.9-4.9-4.9c-8.2-3.3-23-6.6-27.9-6.6l0,0l0,0c-3.3,0-29.5,9.9-29.5,11.5l-3.3,3.3
	c-6.6,0-19.7,3.3-19.7,3.3c-3.3,3.3,0,6.6,0,8.2c0,0,1.6,8.2,6.6,8.2h1.6h8.2c1.6-4.9,4.9-6.6,9.8-6.6s9.8,3.3,11.5,8.2h-1.6
	c-1.6,1.6-4.9,3.3-8.2,3.3c-1.6,0-1.6,0-3.3,0l0,0c-1.6,0-3.3,0-4.9,0c-4.9,0-8.2,1.6-11.5,1.6c-1.6,0-1.6,1.6-1.6,1.6
	c0,1.6,9.8,3.3,13.1,3.3s6.6,0,11.5,0c1.6,0,3.3,0,6.6,0l-1.6,1.6c-4.9,1.6-8.2,1.6-11.5,1.6h-9.8h-6.6c0,3.3,1.6,6.6,3.3,8.2h6.6
	c3.3,1.6,3.3,1.6,3.3,3.3v1.6c0,1.6-1.6,3.3-1.6,4.9c-1.6,3.3-4.9,8.2-8.2,11.5c-16.4-13.1-37.7-31.2-52.5-41
	c-1.6-3.3-11.5-4.9-18-4.9c-4.9,0-8.2,0-11.5,1.6s-4.9,3.3-6.6,4.9l4.9,1.6C6.7,46,11.6,55.8,11.6,55.8z M129.8,14.8L129.8,14.8
	L129.8,14.8z M188.9,146.1L188.9,146.1L188.9,146.1c-6.6-8.2-14.8-21.3-19.7-27.9c3.3-11.5,4.9-14.8,6.6-26.3c0,0,4.9,3.3,6.6,3.3
	l0,0l0,0l0,0l0,0c1.6-4.9,9.9-27.9,9.9-36.1c0,0,1.6,3.3,3.3,8.2c1.6,4.9,3.3,8.2,4.9,11.5c1.6,6.6,4.9,11.5,6.6,16.4
	c4.9,13.1,6.6,18.1,8.2,26.3c1.6,6.6,0,13.1-1.6,16.4c-1.6,1.6-3.3,3.3-6.6,4.9l0,0c-1.6,0-1.6,0-3.3,1.6l0,0H202c0,0,0,0-1.6,0
	s-1.6,0-3.3,0h-1.6h-1.6c-1.6,0-1.6,0-3.3,0l0,0h-1.6C190.5,146.1,190.5,146.1,188.9,146.1z M116.7,19.7c0-1.6,0-3.3,0-6.6
	c3.3,0,9.8-1.6,13.1-1.6h1.6c1.6,0,1.6,3.3,0,3.3C126.5,16.4,121.6,18,116.7,19.7L116.7,19.7z"/>
</svg>
