<svg xmlns="http://www.w3.org/2000/svg" viewBox="0 0 256 256"><path d="M11.6 55.8c1.6 0 3.3 0 4.9 0 3.3 0 8.2 1.6 11.5 8.2h-1.6l-3.3 3.3c1.6 0 3.3 1.6 6.6 1.6s6.6 0 8.2 0c3.3 0 6.6 0 9.8-1.6 0 0 3.3 4.9 8.2 11.5C62.5 87 69 95.2 69 95.2c1.6 0-8.2 1.6-18 1.6-8.2 0-18 1.6-24.6 1.6-4.9 0-9.9 3.3-11.5 8.2 0 3.3-1.6 11.5-1.6 14.8l3.3-1.6c0 1.6 1.6 1.6 1.6 3.3 3.3 4.9 3.3 6.6 8.2 8.2 3.3-6.6 9.9-6.6 13.1-6.6h1.6v6.6c16.4 0 16.4-11.5 16.4-11.5h31.2l8.2 9.8 11.5 13.1C92 159.1 82.1 178.8 69 201.8c4.9 4.9 3.3 16.4-4.9 16.4 0 0 0 0-1.6 0-4.9 0-11.5-3.3-18-3.3-1.6 0-1.6 0-3.3 0-9.9 1.6-8.2 11.5-16.4 21.3 1.6 0 3.3 1.6 4.9 1.6 6.6 3.3 13.1 6.6 16.4 11.5 3.3-3.3 9.8-3.3 16.4-3.3 9.9 0 21.3 3.3 27.9 4.9 1.6 0 1.6-3.3 1.6-4.9-1.6-3.3-3.3-6.6 0-13.1 1.6-4.9 29.5-32.8 49.2-50.9 1.6 1.6 6.6 4.9 13.1 9.9 9.9 8.2 24.6 16.4 24.6 16.4h3.3c1.6 0 3.3 0 3.3 0h1.6s0 0 1.6 0h1.6s0 0 1.6 0c1.6 1.6 3.3 4.9 3.3 8.2 0 1.6 0 1.6 0 3.3s-1.6 1.6-1.6 1.6L192 223h-1.6c-1.6 0-1.6 0-3.3 0-4.9 0-9.9-3.3-18.1 1.6-6.6 3.3-3.3 16.4-8.2 21.3 3.3 0 4.9 0 8.2 1.6 8.2 1.6 13.1 4.9 18.1 8.2 18.1-8.2 24.6-4.9 42.7-1.6 1.6 0 1.6-3.3 0-6.6-1.6-1.6-3.3-6.6-3.3-11.5v-44c-3.3 0-6.6 0-9.9 0s-4.9-1.6-6.6-3.3l-1.6-1.6c-1.6-1.6-1.6-3.3-1.6-4.9-1.6-4.9-6.6-14.8-8.2-21.3 0 0 13.1 0 23-6.6 1.6-1.6 4.9-3.3 6.6-4.9s1.6-3.3 3.3-4.9c1.6-4.9 3.3-9.9 1.6-16.4-4.9-13.1-8.2-21.3-9.9-27.9-3.3-8.2-9.9-23-13.1-32.8-1.6-6.6-3.3-11.5-3.3-14.8 0-1.6 0-1.6 0-3.3 0-3.3 1.6-4.9 3.3-8.2 1.6-3.3 4.9-6.6 9.9-6.6 1.6 0 1.6 0 3.3 1.6 3.3 1.6 3.3 3.3 3.3 3.3-3.3 1.6-3.3 4.9-4.9 6.6-1.6 6.6-3.3 13.1-1.6 18 1.6 6.6 6.6 11.5 9.9 14.8 1.6 1.6 4.9 4.9 6.6 4.9 0 0 6.6 4.9 8.2 3.3 3.3-3.3-4.9-14.8-4.9-18.1 0-1.6 1.6-4.9 1.6-6.6 1.6-3.3 3.3-6.6 3.3-11.5a24.1 24.1 0 00-6.6-21.3c-3.3-3.3-8.2-4.9-13.1-6.6-3.3 0-16.4-3.3-26.3 11.5-1.6 1.6-1.6 3.3-3.3 6.6s-1.6 6.6-1.6 9.9c-4.9-11.5-9.9-24.6-16.4-32.8 0-1.6-3.3-3.3-4.9-6.6s-4.9-4.9-4.9-4.9c-8.2-3.3-23-6.6-27.9-6.6-3.3 0-29.5 9.9-29.5 11.5l-3.3 3.3c-6.6 0-19.7 3.3-19.7 3.3-3.3 3.3 0 6.6 0 8.2 0 0 1.6 8.2 6.6 8.2H103.7c1.6-4.9 4.9-6.6 9.8-6.6s9.8 3.3 11.5 8.2h-1.6a12.6 12.6 0 01-8.2 3.3c-1.6 0-1.6 0-3.3 0-1.6 0-3.3 0-4.9 0-4.9 0-8.2 1.6-11.5 1.6-1.6 0-1.6 1.6-1.6 1.6 0 1.6 9.8 3.3 13.1 3.3s6.6 0 11.5 0c1.6 0 3.3 0 6.6 0l-1.6 1.6c-4.9 1.6-8.2 1.6-11.5 1.6H95.6c0 3.3 1.6 6.6 3.3 8.2h6.6c3.3 1.6 3.3 1.6 3.3 3.3v1.6c0 1.6-1.6 3.3-1.6 4.9-1.6 3.3-4.9 8.2-8.2 11.5-16.4-13.1-37.7-31.2-52.5-41-1.6-3.3-11.5-4.9-18-4.9-4.9 0-8.2 0-11.5 1.6s-4.9 3.3-6.6 4.9l4.9 1.6c-8.6 5.2-3.7 15-3.7 15zm118.2-41zm59.1 131.3c-6.6-8.2-14.8-21.3-19.7-27.9 3.3-11.5 4.9-14.8 6.6-26.3 0 0 4.9 3.3 6.6 3.3 1.6-4.9 9.9-27.9 9.9-36.1 0 0 1.6 3.3 3.3 8.2 1.6 4.9 3.3 8.2 4.9 11.5 1.6 6.6 4.9 11.5 6.6 16.4 4.9 13.1 6.6 18.1 8.2 26.3 1.6 6.6 0 13.1-1.6 16.4-1.6 1.6-3.3 3.3-6.6 4.9-1.6 0-1.6 0-3.3 1.6H202s0 0-1.6 0-1.6 0-3.3 0h-3.2c-1.6 0-1.6 0-3.3 0H189c1.5 1.7 1.5 1.7-.1 1.7zM116.7 19.7c0-1.6 0-3.3 0-6.6 3.3 0 9.8-1.6 13.1-1.6h1.6c1.6 0 1.6 3.3 0 3.3-4.9 1.6-9.8 3.2-14.7 4.9z"/></svg>