<?xml version="1.0" encoding="utf-8"?>
<!-- Generator: Adobe Illustrator 24.0.0, SVG Export Plug-In . SVG Version: 6.00 Build 0)  -->
<svg version="1.1" id="Layer_1" xmlns="http://www.w3.org/2000/svg" xmlns:xlink="http://www.w3.org/1999/xlink" x="0px" y="0px"
	 viewBox="0 0 256 256" style="enable-background:new 0 0 256 256;" xml:space="preserve">
<style type="text/css">
	.st0{fill:#8699A3;}
</style>
<path class="st0" d="M11.64,55.79c1.64,0,3.28,0,4.92,0l0,0c3.28,0,8.21,1.64,11.49,8.21h-1.64l-3.28,3.28
	c1.64,0,3.28,1.64,6.56,1.64s6.56,0,8.21,0c3.28,0,6.56,0,9.85-1.64c0,0,3.28,4.92,8.21,11.49c6.56,8.21,13.13,16.41,13.13,16.41
	c1.64,0-8.21,1.64-18.05,1.64c-8.21,0-18.05,1.64-24.62,1.64c-4.92,0-9.85,3.28-11.49,8.21c0,3.28-1.64,11.49-1.64,14.77l3.28-1.64
	c0,1.64,1.64,1.64,1.64,3.28c3.28,4.92,3.28,6.56,8.21,8.21c3.28-6.56,9.85-6.56,13.13-6.56h1.64v6.56
	c16.41,0,16.41-11.49,16.41-11.49h31.18l8.21,9.85l11.49,13.13c-16.41,16.41-26.26,36.1-39.38,59.08
	c4.92,4.92,3.28,16.41-4.92,16.41c0,0,0,0-1.64,0c-4.92,0-11.49-3.28-18.05-3.28c-1.64,0-1.64,0-3.28,0
	c-9.85,1.64-8.21,11.49-16.41,21.33c1.64,0,3.28,1.64,4.92,1.64c6.56,3.28,13.13,6.56,16.41,11.49c3.28-3.28,9.85-3.28,16.41-3.28
	c9.85,0,21.33,3.28,27.9,4.92l0,0c1.64,0,1.64-3.28,1.64-4.92c-1.64-3.28-3.28-6.56,0-13.13c1.64-4.92,29.54-32.82,49.23-50.87l0,0
	l0,0c1.64,1.64,6.56,4.92,13.13,9.85c9.85,8.21,24.62,16.41,24.62,16.41h3.28c1.64,0,3.28,0,3.28,0h1.64c0,0,0,0,1.64,0h1.64
	c0,0,0,0,1.64,0l0,0c1.64,1.64,3.28,4.92,3.28,8.21c0,1.64,0,1.64,0,3.28c0,1.64-1.64,1.64-1.64,1.64l0,0l-1.64,1.64l0,0h-1.64l0,0
	c-1.64,0-1.64,0-3.28,0c-4.92,0-9.85-3.28-18.05,1.64c-6.56,3.28-3.28,16.41-8.21,21.33c3.28,0,4.92,0,8.21,1.64
	c8.21,1.64,13.13,4.92,18.05,8.21c18.05-8.21,24.62-4.92,42.67-1.64c1.64,0,1.64-3.28,0-6.56c-1.64-1.64-3.28-6.56-3.28-11.49
	v-11.49v-27.9V192l0,0l0,0c-3.28,0-6.56,0-9.85,0s-4.92-1.64-6.56-3.28l0,0l-1.64-1.64l0,0c-1.64-1.64-1.64-3.28-1.64-4.92
	c-1.64-4.92-6.56-14.77-8.21-21.33c0,0,13.13,0,22.97-6.56c1.64-1.64,4.92-3.28,6.56-4.92c1.64-1.64,1.64-3.28,3.28-4.92
	c1.64-4.92,3.28-9.85,1.64-16.41c-4.92-13.13-8.21-21.33-9.85-27.9c-3.28-8.21-9.85-22.97-13.13-32.82
	c-1.64-6.56-3.28-11.49-3.28-14.77c0-1.64,0-1.64,0-3.28l0,0c0-3.28,1.64-4.92,3.28-8.21c1.64-3.28,4.92-6.56,9.85-6.56
	c1.64,0,1.64,0,3.28,1.64c3.28,1.64,3.28,3.28,3.28,3.28c-3.28,1.64-3.28,4.92-4.92,6.56c-1.64,6.56-3.28,13.13-1.64,18.05
	c1.64,6.56,6.56,11.49,9.85,14.77c1.64,1.64,4.92,4.92,6.56,4.92c0,0,6.56,4.92,8.21,3.28c3.28-3.28-4.92-14.77-4.92-18.05
	c0-1.64,1.64-4.92,1.64-6.56c1.64-3.28,3.28-6.56,3.28-11.49c1.64-8.21-1.64-16.41-6.56-21.33c-3.28-3.28-8.21-4.92-13.13-6.56
	c-3.28,0-16.41-3.28-26.26,11.49c-1.64,1.64-1.64,3.28-3.28,6.56s-1.64,6.56-1.64,9.85c-4.92-11.49-9.85-24.62-16.41-32.82
	c0-1.64-3.28-3.28-4.92-6.56c-1.64-3.28-4.92-4.92-4.92-4.92C159.33,3.28,144.56,0,139.64,0l0,0l0,0c-3.28,0-29.54,9.85-29.54,11.49
	l-3.28,3.28c-6.56,0-19.69,3.28-19.69,3.28c-3.28,3.28,0,6.56,0,8.21c0,0,1.64,8.21,6.56,8.21h1.64h8.21
	c1.64-4.92,4.92-6.56,9.85-6.56s9.85,3.28,11.49,8.21h-1.64c-1.64,1.64-4.92,3.28-8.21,3.28c-1.64,0-1.64,0-3.28,0l0,0
	c-1.64,0-3.28,0-4.92,0c-4.92,0-8.21,1.64-11.49,1.64c-1.64,0-1.64,1.64-1.64,1.64c0,1.64,9.85,3.28,13.13,3.28
	c3.28,0,6.56,0,11.49,0c1.64,0,3.28,0,6.56,0l-1.64,1.64c-4.92,1.64-8.21,1.64-11.49,1.64h-9.85h-6.56c0,3.28,1.64,6.56,3.28,8.21
	h6.56c3.28,1.64,3.28,1.64,3.28,3.28v1.64c0,1.64-1.64,3.28-1.64,4.92c-1.64,3.28-4.92,8.21-8.21,11.49
	C82.21,65.64,60.87,47.59,46.1,37.74c-1.64-3.28-11.49-4.92-18.05-4.92c-4.92,0-8.21,0-11.49,1.64s-4.92,3.28-6.56,4.92l4.92,1.64
	C6.72,45.95,11.64,55.79,11.64,55.79z M129.79,14.77L129.79,14.77L129.79,14.77z M188.87,146.05L188.87,146.05L188.87,146.05
	c-6.56-8.21-14.77-21.33-19.69-27.9c3.28-11.49,4.92-14.77,6.56-26.26c0,0,4.92,3.28,6.56,3.28l0,0l0,0l0,0l0,0
	c1.64-4.92,9.85-27.9,9.85-36.1c0,0,1.64,3.28,3.28,8.21c1.64,4.92,3.28,8.21,4.92,11.49c1.64,6.56,4.92,11.49,6.56,16.41
	c4.92,13.13,6.56,18.05,8.21,26.26c1.64,6.56,0,13.13-1.64,16.41c-1.64,1.64-3.28,3.28-6.56,4.92l0,0c-1.64,0-1.64,0-3.28,1.64l0,0
	H202c0,0,0,0-1.64,0c-1.64,0-1.64,0-3.28,0h-1.64h-1.64c-1.64,0-1.64,0-3.28,0l0,0h-1.64C190.51,146.05,190.51,146.05,188.87,146.05
	z M116.67,19.69c0-1.64,0-3.28,0-6.56c3.28,0,9.85-1.64,13.13-1.64h1.64c1.64,0,1.64,3.28,0,3.28
	C126.51,16.41,121.59,18.05,116.67,19.69L116.67,19.69z"/>
</svg>
