<?xml version="1.0" encoding="utf-8"?>
<!-- Generator: Adobe Illustrator 24.0.0, SVG Export Plug-In . SVG Version: 6.00 Build 0)  -->
<svg version="1.1" id="Layer_1" xmlns="http://www.w3.org/2000/svg" xmlns:xlink="http://www.w3.org/1999/xlink" x="0px" y="0px"
	 viewBox="0 0 14.3 15.6" style="enable-background:new 0 0 14.3 15.6;" xml:space="preserve">
<style type="text/css">
	.st0{fill:#8699A3;}
</style>
<path class="st0" d="M0.1,3.4c0.1,0,0.2,0,0.3,0c0,0,0,0,0,0c0.2,0,0.5,0.1,0.7,0.5L1,3.9L0.8,4.1c0.1,0,0.2,0.1,0.4,0.1
	c0.2,0,0.4,0,0.5,0c0.2,0,0.4,0,0.6-0.1c0,0,0.2,0.3,0.5,0.7c0.4,0.5,0.8,1,0.8,1c0.1,0-0.5,0.1-1.1,0.1C2,5.9,1.4,6,1,6
	C0.7,6,0.4,6.2,0.3,6.5C0.3,6.7,0.2,7.2,0.2,7.4l0.2-0.1c0,0.1,0.1,0.1,0.1,0.2C0.7,7.8,0.7,7.9,1,8c0.2-0.4,0.6-0.4,0.8-0.4
	c0,0,0.1,0,0.1,0l0,0.4c1,0,1-0.7,1-0.7l1.9,0l0.5,0.6l0.7,0.8c-1,1-1.6,2.2-2.4,3.6c0.3,0.3,0.2,1-0.3,1c0,0,0,0-0.1,0
	c-0.3,0-0.7-0.2-1.1-0.2c-0.1,0-0.1,0-0.2,0c-0.6,0.1-0.5,0.7-1,1.3c0.1,0,0.2,0.1,0.3,0.1c0.4,0.2,0.8,0.4,1,0.7
	c0.2-0.2,0.6-0.2,1-0.2c0.6,0,1.3,0.2,1.7,0.3c0,0,0,0,0,0C5,15.3,5,15.1,5,15c-0.1-0.2-0.2-0.4,0-0.8c0.1-0.3,1.8-2,3-3.1l0,0
	c0,0,0,0,0,0c0.1,0.1,0.4,0.3,0.8,0.6c0.6,0.5,1.5,1,1.5,1l0.2,0c0.1,0,0.2,0,0.2,0c0,0,0.1,0,0.1,0c0,0,0,0,0.1,0c0,0,0.1,0,0.1,0
	c0,0,0,0,0.1,0c0,0,0,0,0,0c0.1,0.1,0.2,0.3,0.2,0.5c0,0.1,0,0.1,0,0.2c0,0.1-0.1,0.1-0.1,0.1c0,0,0,0,0,0c0,0-0.1,0.1-0.1,0.1
	c0,0,0,0,0,0c0,0-0.1,0-0.1,0c0,0,0,0,0,0c-0.1,0-0.1,0-0.2,0c-0.3,0-0.6-0.2-1.1,0.1c-0.4,0.2-0.2,1-0.5,1.3c0.2,0,0.3,0,0.5,0.1
	c0.5,0.1,0.8,0.3,1.1,0.5c1.1-0.5,1.5-0.3,2.6-0.1c0.1,0,0.1-0.2,0-0.4c-0.1-0.1-0.2-0.4-0.2-0.7l0-0.7V12v-0.3c0,0,0,0,0,0v0
	c-0.2,0-0.4,0-0.6,0c-0.2,0-0.3-0.1-0.4-0.2c0,0,0,0,0,0c0,0-0.1-0.1-0.1-0.1c0,0,0,0,0,0c-0.1-0.1-0.1-0.2-0.1-0.3
	c-0.1-0.3-0.4-0.9-0.5-1.3c0,0,0.8,0,1.4-0.4c0.1-0.1,0.3-0.2,0.4-0.3c0.1-0.1,0.1-0.2,0.2-0.3c0.1-0.3,0.2-0.6,0.1-1
	C13.3,7,13.1,6.5,13,6.1c-0.2-0.5-0.6-1.4-0.8-2C12.1,3.7,12,3.4,12,3.2c0-0.1,0-0.1,0-0.2c0,0,0,0,0,0c0-0.2,0.1-0.3,0.2-0.5
	c0.1-0.2,0.3-0.4,0.6-0.4c0.1,0,0.1,0,0.2,0.1c0.2,0.1,0.2,0.2,0.2,0.2C13,2.5,13,2.7,12.9,2.8c-0.1,0.4-0.2,0.8-0.1,1.1
	c0.1,0.4,0.4,0.7,0.6,0.9c0.1,0.1,0.3,0.3,0.4,0.3c0,0,0.4,0.3,0.5,0.2C14.5,5.1,14,4.4,14,4.2c0-0.1,0.1-0.3,0.1-0.4
	c0.1-0.2,0.2-0.4,0.2-0.7c0.1-0.5-0.1-1-0.4-1.3c-0.2-0.2-0.5-0.3-0.8-0.4c-0.2,0-1-0.2-1.6,0.7c-0.1,0.1-0.1,0.2-0.2,0.4
	c-0.1,0.2-0.1,0.4-0.1,0.6c-0.3-0.7-0.6-1.5-1-2c0-0.1-0.2-0.2-0.3-0.4C9.8,0.5,9.6,0.4,9.6,0.4C9.1,0.2,8.2,0,7.9,0c0,0,0,0,0,0
	c0,0,0,0,0,0C7.7,0,6.1,0.6,6.1,0.7c0,0-0.2,0.2-0.2,0.2C5.5,0.9,4.7,1.1,4.7,1.1c-0.2,0.2,0,0.4,0,0.5c0,0,0.1,0.5,0.4,0.5h0.1
	l0.5,0C5.8,1.8,6,1.7,6.3,1.7c0.3,0,0.6,0.2,0.7,0.5c0,0-0.1,0-0.1,0C6.8,2.3,6.6,2.4,6.4,2.4c-0.1,0-0.1,0-0.2,0c0,0,0,0,0,0
	c-0.1,0-0.2,0-0.3,0c-0.3,0-0.5,0.1-0.7,0.1c-0.1,0-0.1,0.1-0.1,0.1c0,0.1,0.6,0.2,0.8,0.2c0.2,0,0.4,0,0.7,0c0.1,0,0.2,0,0.4,0
	c0,0-0.1,0.1-0.1,0.1C6.6,3,6.4,3,6.2,3H5.6H5.2c0,0.2,0.1,0.4,0.2,0.5h0.4C6,3.6,6,3.6,6,3.7c0,0,0,0.1,0,0.1C6,3.9,5.9,4,5.9,4.1
	C5.8,4.3,5.6,4.6,5.4,4.8C4.4,4,3.1,2.9,2.2,2.3C2.1,2.1,1.5,2,1.1,2c-0.3,0-0.5,0-0.7,0.1C0.2,2.2,0.1,2.3,0,2.4l0.3,0.1
	C-0.2,2.8,0.1,3.4,0.1,3.4z M7.3,0.9C7.3,0.9,7.3,0.9,7.3,0.9C7.3,0.9,7.3,0.9,7.3,0.9z M10.9,8.9C10.9,8.9,10.9,8.9,10.9,8.9
	L10.9,8.9C10.5,8.4,10,7.6,9.7,7.2c0.2-0.7,0.3-0.9,0.4-1.6c0,0,0.3,0.2,0.4,0.2c0,0,0,0,0,0c0,0,0,0,0,0v0c0,0,0,0,0,0
	c0.1-0.3,0.6-1.7,0.6-2.2c0,0,0.1,0.2,0.2,0.5c0.1,0.3,0.2,0.5,0.3,0.7c0.1,0.4,0.3,0.7,0.4,1c0.3,0.8,0.4,1.1,0.5,1.6
	c0.1,0.4,0,0.8-0.1,1c-0.1,0.1-0.2,0.2-0.4,0.3c0,0,0,0,0,0c-0.1,0-0.1,0-0.2,0.1c0,0,0,0,0,0c0,0-0.1,0-0.1,0c0,0,0,0-0.1,0
	c-0.1,0-0.1,0-0.2,0c0,0-0.1,0-0.1,0c0,0-0.1,0-0.1,0c-0.1,0-0.1,0-0.2,0h0c0,0-0.1,0-0.1,0C11,8.9,11,8.9,10.9,8.9z M6.5,1.2
	c0-0.1,0-0.2,0-0.4c0.2,0,0.6-0.1,0.8-0.1c0,0,0.1,0,0.1,0c0.1,0,0.1,0.2,0,0.2C7.1,1,6.8,1.1,6.5,1.2C6.5,1.2,6.5,1.2,6.5,1.2z"/>
</svg>
