<?xml version="1.0" encoding="utf-8"?>
<!-- Generator: Adobe Illustrator 24.0.0, SVG Export Plug-In . SVG Version: 6.00 Build 0)  -->
<svg version="1.1" id="Layer_1" xmlns="http://www.w3.org/2000/svg" xmlns:xlink="http://www.w3.org/1999/xlink" x="0px" y="0px"
	 viewBox="0 0 256 256" style="enable-background:new 0 0 256 256;" xml:space="preserve">
<path d="M255.9,5.3c-0.3-3.1-2.7-5.3-5.7-5.3h-151c-1.3,0-2.7,0.6-3.8,1.7C38.5,58.6,15.4,81,6.7,89.4c-6.4,6.2-6.4,6.2-6.5,7.1
	c-0.2,0.6-0.2,2.3-0.1,10.4l0,1.3c0,8.1,5.6,16.3,16.2,16.9v125.4c0,3,2.4,5.4,5.4,5.4h181.6c3,0,5.4-2.4,5.4-5.4V124.5
	c1.5,0.4,3.1,0.7,4.8,0.7c4.3,0,8.1-1.2,11.1-3.4v128.6c0,3,2.4,5.4,5.4,5.4h20.4c3,0,5.4-2.4,5.4-5.4L255.9,5.3z M220.4,108
	c0,2.4-0.9,6.4-6.9,6.4s-6.9-4-6.9-6.4v-5.1h13.8L220.4,108L220.4,108z M115.8,147.1h-2.6c-20.2,0-36.6,16.4-36.6,36.6v61.3H26.9
	V122.6c1-0.6,2-1.3,2.9-2.2c3.1,2.9,7.4,4.5,12.3,4.5c4.9,0,9.2-1.6,12.3-4.5c3.1,2.9,7.4,4.5,12.3,4.5s9.2-1.6,12.3-4.5
	c3.1,2.9,7.4,4.5,12.3,4.5s9.2-1.6,12.3-4.5c3.1,2.9,7.4,4.5,12.3,4.5s9.2-1.6,12.3-4.5c3.1,2.9,7.4,4.5,12.3,4.5
	c4.9,0,9.2-1.6,12.3-4.5c3.1,2.9,7.4,4.5,12.3,4.5s9.2-1.6,12.3-4.5c3.1,2.9,7.4,4.5,12.3,4.5c3.2,0,6.3-0.7,9-2.2v122.2h-46.4
	v-61.3C152.3,163.4,135.9,147.1,115.8,147.1z M86.9,183.6c0-14.3,11.7-26,26-26h2.6c14.3,0,26,11.6,26,26v61.3H86.9V183.6z
	 M182.1,108v-5.1h13.8v5.1c0,2.4-0.9,6.4-6.9,6.4C183,114.3,182.1,110.4,182.1,108z M157.7,108v-5.1h13.8v5.1c0,2.4-0.9,6.4-6.9,6.4
	C158.6,114.3,157.7,110.4,157.7,108z M133.1,108v-5.1h13.8v5.1c0,2.4-0.9,6.4-6.9,6.4C134,114.3,133.1,110.4,133.1,108z M108.6,108
	v-5.1h13.8v5.1c0,2.4-0.9,6.4-6.9,6.4C109.4,114.3,108.6,110.4,108.6,108z M84.2,108v-5.1H98v5.1c0,2.4-0.9,6.4-6.9,6.4
	S84.2,110.4,84.2,108z M59.6,108v-5.1h13.8v5.1c0,2.4-0.9,6.4-6.9,6.4C60.5,114.3,59.6,110.4,59.6,108z M49,108
	c0,2.4-0.9,6.4-6.9,6.4s-6.9-4-6.9-6.4v-5.1H49V108z M24.5,102.9v5.1c0,2.4-0.9,6.4-6.9,6.4c-2.2,0-3.8-0.6-4.9-1.7
	c-2.2-2.2-2.1-6.4-2-9.5c0-0.1,0-0.2,0-0.3H24.5z M231,102.9h13.8v5.1c0,2.4-0.9,6.4-6.9,6.4s-6.9-4-6.9-6.4L231,102.9L231,102.9z
	 M235.2,124.7c2.9,0.5,6.7,0.2,9.8-0.9v121.2h-9.8V124.7z M244.8,10.8v81.7H18l83.3-81.7C101.3,10.8,244.8,10.8,244.8,10.8z"/>
</svg>
