<?xml version="1.0" encoding="utf-8"?>
<!-- Generator: Adobe Illustrator 24.0.0, SVG Export Plug-In . SVG Version: 6.00 Build 0)  -->
<svg version="1.1" id="Layer_1" xmlns="http://www.w3.org/2000/svg" xmlns:xlink="http://www.w3.org/1999/xlink" x="0px" y="0px"
	 viewBox="0 0 256 256" style="enable-background:new 0 0 256 256;" xml:space="preserve">
<style type="text/css">
	.st0{fill:#8699A3;}
</style>
<path class="st0" d="M255.85,5.28C255.51,2.22,253.13,0,250.18,0H99.2c-1.32,0-2.69,0.61-3.75,1.67
	C38.53,58.6,15.39,80.98,6.68,89.4c-6.41,6.21-6.41,6.21-6.51,7.14c-0.18,0.55-0.25,2.32-0.09,10.41l0.02,1.29
	c0,8.11,5.57,16.31,16.22,16.9v125.44c0,3.04,2.38,5.42,5.42,5.42h181.58c3.04,0,5.42-2.38,5.42-5.42V124.5
	c1.53,0.38,3.14,0.67,4.79,0.67c4.26,0,8.09-1.2,11.06-3.43v128.57c0,3.04,2.38,5.42,5.42,5.42h20.41c3.04,0,5.42-2.38,5.42-5.42
	L255.85,5.28z M220.42,107.99c0,2.37-0.89,6.36-6.88,6.36c-5.99,0-6.88-3.98-6.88-6.36v-5.11h13.76V107.99z M115.79,147.05h-2.62
	c-20.16,0-36.55,16.4-36.55,36.55v61.3H26.91V122.59c1.01-0.57,1.95-1.27,2.93-2.16c3.12,2.9,7.44,4.48,12.32,4.48
	c4.87,0,9.19-1.57,12.3-4.46c3.11,2.89,7.43,4.46,12.3,4.46s9.19-1.57,12.3-4.46c3.11,2.89,7.42,4.46,12.29,4.46
	c4.87,0,9.19-1.57,12.3-4.46c3.11,2.89,7.43,4.46,12.3,4.46s9.19-1.57,12.3-4.46c3.11,2.89,7.43,4.46,12.3,4.46
	c4.87,0,9.19-1.57,12.3-4.46c3.11,2.89,7.42,4.46,12.29,4.46s9.19-1.57,12.3-4.46c3.11,2.89,7.43,4.46,12.3,4.46
	c3.25,0,6.26-0.73,8.97-2.17V244.9h-46.36v-61.3C152.34,163.44,135.95,147.05,115.79,147.05z M86.93,183.6
	c0-14.32,11.65-25.98,25.98-25.98h2.62c14.32,0,25.98,11.65,25.98,25.98v61.3H86.93V183.6z M182.07,107.99v-5.11h13.76v5.11
	c0,2.37-0.89,6.36-6.88,6.36C182.96,114.34,182.07,110.36,182.07,107.99z M157.74,107.99v-5.11h13.76v5.11
	c0,2.37-0.89,6.36-6.88,6.36C158.63,114.34,157.74,110.36,157.74,107.99z M133.14,107.99v-5.11h13.76v5.11
	c0,2.37-0.89,6.36-6.88,6.36C134.04,114.34,133.14,110.36,133.14,107.99z M108.55,107.99v-5.11h13.76v5.11
	c0,2.37-0.89,6.36-6.88,6.36C109.44,114.34,108.55,110.36,108.55,107.99z M84.21,107.99v-5.11h13.76v5.11
	c0,2.37-0.89,6.36-6.88,6.36S84.21,110.36,84.21,107.99z M59.62,107.99v-5.11h13.76v5.11c0,2.37-0.89,6.36-6.88,6.36
	C60.51,114.34,59.62,110.36,59.62,107.99z M49.04,107.99c0,2.37-0.89,6.36-6.88,6.36s-6.88-3.98-6.88-6.36v-5.11h13.76V107.99z
	 M24.45,102.87v5.11c0,2.37-0.89,6.36-6.88,6.36c-2.2,0-3.82-0.55-4.92-1.69c-2.18-2.24-2.07-6.43-1.99-9.5c0-0.1,0-0.19,0.01-0.28
	H24.45z M231,102.87h13.76v5.11c0,2.37-0.89,6.36-6.88,6.36c-5.99,0-6.88-3.98-6.88-6.36V102.87z M235.18,124.65
	c2.88,0.49,6.73,0.21,9.83-0.93V244.9h-9.83V124.65z M244.76,10.84v81.72H17.97l83.31-81.72H244.76z"/>
</svg>
