<svg xmlns="http://www.w3.org/2000/svg" viewBox="0 0 32.75 30.22"><defs><style>.a{fill:none;stroke:#000;stroke-linecap:round;stroke-linejoin:round;stroke-width:0.75px;}</style></defs><title>498</title><path class="a" d="M25.46,14.31a6.65,6.65,0,0,0,2.85-.69V30.17a.52.52,0,0,0,.53.53h2.57a.52.52,0,0,0,.52-.53V1.79a.57.57,0,0,0-.56-.52h-19a.54.54,0,0,0-.37.16C2.32,11.7.05,10.82,0,11.05s0,1.12,0,1.22a1.94,1.94,0,0,0,2.05,2v16a.52.52,0,0,0,.53.52H25" transform="translate(0.37 -0.89)"/><path class="a" d="M2.17,14a11.38,11.38,0,0,0,1.44-.72,2.06,2.06,0,0,0,1.55.63,2.06,2.06,0,0,0,1.55-.63,2.06,2.06,0,0,0,1.55.63,2.06,2.06,0,0,0,1.55-.63,2.06,2.06,0,0,0,1.55.63,2.06,2.06,0,0,0,1.55-.63,2.22,2.22,0,0,0,3.1,0,2.22,2.22,0,0,0,3.1,0,2.22,2.22,0,0,0,3.1,0,2,2,0,0,0,1.55.63,2.21,2.21,0,0,0,1.28-.4V30.17" transform="translate(0.37 -0.89)"/><path class="a" d="M15,30.62V22.74a4.46,4.46,0,0,0-4.45-4.46h-.33a4.46,4.46,0,0,0-4.45,4.46v7.88" transform="translate(0.37 -0.89)"/><line class="a" x1="0.4" y1="10.34" x2="32.37" y2="10.34"/><rect class="a" x="18.06" y="19.27" width="4.05" height="6.27"/></svg>