<?xml version="1.0" encoding="utf-8"?>
<!-- Generator: Adobe Illustrator 24.0.0, SVG Export Plug-In . SVG Version: 6.00 Build 0)  -->
<svg version="1.1" id="Layer_1" xmlns="http://www.w3.org/2000/svg" xmlns:xlink="http://www.w3.org/1999/xlink" x="0px" y="0px"
	 viewBox="0 0 256 256" style="enable-background:new 0 0 256 256;" xml:space="preserve">
<style type="text/css">
	.st0{fill:#8699A3;}
</style>
<g>
	<g>
		<path class="st0" d="M25.66,1.01c-3,0.28-5.28,2.81-5.27,5.82v22.08L0.4,80.35c-0.56,1.44-0.53,3.04,0.09,4.45
			c2.79,6.42,7.77,11.73,14.09,15.36v119.76H5.85c-0.18-0.01-0.36-0.01-0.55,0c-3,0.28-5.28,2.81-5.27,5.82v23.27
			c0,3.21,2.6,5.82,5.82,5.82h244.3c3.21,0,5.82-2.6,5.82-5.82v-23.27c0-3.21-2.6-5.82-5.82-5.82h-8.72V100.16
			c6.32-3.63,11.29-8.94,14.09-15.36c0.62-1.41,0.65-3.02,0.09-4.45l-19.99-51.44V6.82c0-3.21-2.6-5.82-5.82-5.82H26.21
			C26.03,1,25.85,1,25.66,1.01z M32.03,12.64h191.95v11.63H32.03V12.64z M30.21,35.91h195.58l17.81,45.9
			c-3.96,6.78-12.82,12.27-23.99,12.27c-12.14,0-21.87-6.4-25.17-14c-1.25-2.96-4.66-4.35-7.62-3.11c-1.4,0.59-2.52,1.7-3.11,3.11
			c-3.3,7.59-13.03,14-25.17,14c-12.14,0-21.87-6.4-25.17-14c-1.25-2.96-4.66-4.35-7.62-3.11c-1.4,0.59-2.52,1.7-3.11,3.11
			c-3.3,7.59-13.03,14-25.17,14s-21.87-6.4-25.17-14c-1.25-2.96-4.66-4.35-7.62-3.11c-1.4,0.59-2.52,1.7-3.11,3.11
			c-3.3,7.59-13.03,14-25.17,14c-11.17,0-20.03-5.49-23.99-12.27L30.21,35.91z M66.93,92.89c7.07,7.98,18.18,12.81,30.54,12.81
			s23.47-4.83,30.54-12.81c7.07,7.98,18.18,12.81,30.54,12.81c12.35,0,23.47-4.83,30.54-12.81c7.07,7.98,18.18,12.81,30.54,12.81
			c3.51,0,6.92-0.36,10.18-1.09v115.31h-14.54v-63.98c0-3.21-2.6-5.82-5.82-5.82h-40.72c-0.18-0.01-0.36-0.01-0.55,0
			c-3,0.28-5.28,2.81-5.27,5.82v63.98H26.21V104.61c3.26,0.73,6.67,1.09,10.18,1.09C48.74,105.7,59.86,100.87,66.93,92.89z
			 M46.02,128.27c-3,0.28-5.28,2.81-5.27,5.82v62.57c0,3.21,2.6,5.82,5.82,5.82h75.62c3.21,0,5.82-2.6,5.82-5.82v-62.57
			c0-3.21-2.6-5.82-5.82-5.82H46.57C46.39,128.26,46.2,128.26,46.02,128.27z M52.38,139.9h63.98v50.94H52.38V139.9z M174.53,161.76
			h29.08v58.17h-29.08V161.76z M11.67,231.56h232.66v11.63H11.67V231.56z"/>
	</g>
</g>
</svg>
