<svg xmlns="http://www.w3.org/2000/svg" viewBox="0 0 256 256"><path d="M25.7 1c-3 .3-5.3 2.8-5.3 5.8v22.1L.4 80.3c-.6 1.4-.5 3 .1 4.4 2.8 6.4 7.8 11.7 14.1 15.4v119.8H5.8c-.2 0-.4 0-.6 0-3 .3-5.3 2.8-5.3 5.8V249c0 3.2 2.6 5.8 5.8 5.8H250c3.2 0 5.8-2.6 5.8-5.8v-23.3c0-3.2-2.6-5.8-5.8-5.8h-8.7V100.2c6.3-3.6 11.3-8.9 14.1-15.4.6-1.4.7-3 .1-4.4l-20-51.4V6.8c0-3.2-2.6-5.8-5.8-5.8H26.2c-.2 0-.3 0-.5 0zM32 12.6h192v11.6H32V12.6zm-1.8 23.3h195.6l17.8 45.9c-4 6.8-12.8 12.3-24 12.3-12.1 0-21.9-6.4-25.2-14a5.8 5.8 0 00-10.7 0c-3.3 7.6-13 14-25.2 14s-21.9-6.4-25.2-14a5.8 5.8 0 00-10.7 0c-3.3 7.6-13 14-25.2 14s-21.9-6.4-25.2-14a5.8 5.8 0 00-10.7 0c-3.3 7.6-13 14-25.2 14-11.2 0-20-5.5-24-12.3l17.9-45.9zm36.7 57c7.1 8 18.2 12.8 30.5 12.8s23.5-4.8 30.5-12.8c7.1 8 18.2 12.8 30.5 12.8 12.4 0 23.5-4.8 30.5-12.8 7.1 8 18.2 12.8 30.5 12.8 3.5 0 6.9-.4 10.2-1.1v115.3h-14.5v-64c0-3.2-2.6-5.8-5.8-5.8h-40.7c-.2 0-.4 0-.6 0-3 .3-5.3 2.8-5.3 5.8v64H26.2V104.6c3.3.7 6.7 1.1 10.2 1.1 12.3 0 23.5-4.8 30.5-12.8zM46 128.3c-3 .3-5.3 2.8-5.3 5.8v62.6c0 3.2 2.6 5.8 5.8 5.8h75.6c3.2 0 5.8-2.6 5.8-5.8v-62.6c0-3.2-2.6-5.8-5.8-5.8H46.6c-.2 0-.4 0-.6 0zm6.4 11.6h64v50.9h-64v-50.9zm122.1 21.9h29.1V220h-29.1v-58.2zM11.7 231.6h232.7v11.6H11.7v-11.6z"/></svg>