<?xml version="1.0" encoding="utf-8"?>
<!-- Generator: Adobe Illustrator 24.0.0, SVG Export Plug-In . SVG Version: 6.00 Build 0)  -->
<svg version="1.1" id="Layer_1" xmlns="http://www.w3.org/2000/svg" xmlns:xlink="http://www.w3.org/1999/xlink" x="0px" y="0px"
	 viewBox="0 0 256 256" style="enable-background:new 0 0 256 256;" xml:space="preserve">
<g>
	<g>
		<path d="M25.7,1c-3,0.3-5.3,2.8-5.3,5.8v22.1l-20,51.4c-0.6,1.4-0.5,3,0.1,4.4c2.8,6.4,7.8,11.7,14.1,15.4v119.8H5.8
			c-0.2,0-0.4,0-0.6,0c-3,0.3-5.3,2.8-5.3,5.8V249c0,3.2,2.6,5.8,5.8,5.8h244.3c3.2,0,5.8-2.6,5.8-5.8v-23.3c0-3.2-2.6-5.8-5.8-5.8
			h-8.7V100.2c6.3-3.6,11.3-8.9,14.1-15.4c0.6-1.4,0.7-3,0.1-4.4l-20-51.4V6.8c0-3.2-2.6-5.8-5.8-5.8H26.2C26,1,25.9,1,25.7,1z
			 M32,12.6H224v11.6H32V12.6z M30.2,35.9h195.6l17.8,45.9c-4,6.8-12.8,12.3-24,12.3c-12.1,0-21.9-6.4-25.2-14
			c-1.2-3-4.7-4.3-7.6-3.1c-1.4,0.6-2.5,1.7-3.1,3.1c-3.3,7.6-13,14-25.2,14s-21.9-6.4-25.2-14c-1.2-3-4.7-4.3-7.6-3.1
			c-1.4,0.6-2.5,1.7-3.1,3.1c-3.3,7.6-13,14-25.2,14s-21.9-6.4-25.2-14c-1.2-3-4.7-4.3-7.6-3.1c-1.4,0.6-2.5,1.7-3.1,3.1
			c-3.3,7.6-13,14-25.2,14c-11.2,0-20-5.5-24-12.3L30.2,35.9z M66.9,92.9c7.1,8,18.2,12.8,30.5,12.8s23.5-4.8,30.5-12.8
			c7.1,8,18.2,12.8,30.5,12.8c12.4,0,23.5-4.8,30.5-12.8c7.1,8,18.2,12.8,30.5,12.8c3.5,0,6.9-0.4,10.2-1.1v115.3h-14.5v-64
			c0-3.2-2.6-5.8-5.8-5.8h-40.7c-0.2,0-0.4,0-0.6,0c-3,0.3-5.3,2.8-5.3,5.8v64H26.2V104.6c3.3,0.7,6.7,1.1,10.2,1.1
			C48.7,105.7,59.9,100.9,66.9,92.9z M46,128.3c-3,0.3-5.3,2.8-5.3,5.8v62.6c0,3.2,2.6,5.8,5.8,5.8h75.6c3.2,0,5.8-2.6,5.8-5.8
			v-62.6c0-3.2-2.6-5.8-5.8-5.8H46.6C46.4,128.3,46.2,128.3,46,128.3z M52.4,139.9h64v50.9h-64V139.9z M174.5,161.8h29.1v58.2h-29.1
			V161.8z M11.7,231.6h232.7v11.6H11.7V231.6z"/>
	</g>
</g>
</svg>
