<svg xmlns="http://www.w3.org/2000/svg" viewBox="0 0 32.75 32.48"><defs><style>.a{fill:none;stroke:#000;stroke-linecap:round;stroke-linejoin:round;stroke-width:0.75px;}</style></defs><title>5</title><path class="a" d="M3.21.14a.72.72,0,0,0-.66.72V3.62L.05,10.05a.73.73,0,0,0,0,.56,4.14,4.14,0,0,0,1.76,1.92v15H.66a.74.74,0,0,0-.66.73v2.91a.73.73,0,0,0,.73.72H31.27a.73.73,0,0,0,.73-.72V28.23a.73.73,0,0,0-.73-.73H30.18v-15a4.14,4.14,0,0,0,1.76-1.92.73.73,0,0,0,0-.56l-2.5-6.43V.86a.72.72,0,0,0-.73-.72H3.21Zm23.7,28.79V19a.73.73,0,0,0-.73-.73H21a.74.74,0,0,0-.66.73v10M5.75,16a.74.74,0,0,0-.66.73v7.82a.73.73,0,0,0,.73.73h9.45a.73.73,0,0,0,.73-.73V16.77a.73.73,0,0,0-.73-.73Zm26.05-5.1a3.76,3.76,0,0,1-3.27,1.67,3.69,3.69,0,0,1-3.42-1.9.79.79,0,0,0-1-.43.77.77,0,0,0-.42.43,3.7,3.7,0,0,1-3.43,1.9,3.7,3.7,0,0,1-3.43-1.9.78.78,0,0,0-1-.43.76.76,0,0,0-.43.43,3.69,3.69,0,0,1-3.42,1.9,3.69,3.69,0,0,1-3.43-1.9.79.79,0,0,0-1-.43.77.77,0,0,0-.42.43,3.69,3.69,0,0,1-3.43,1.9A3.93,3.93,0,0,1,.27,10.93M2.55,29.16H29.48M2.55,3.57H29.48" transform="translate(0.38 0.24)"/></svg>