<?xml version="1.0" encoding="utf-8"?>
<!-- Generator: Adobe Illustrator 24.0.0, SVG Export Plug-In . SVG Version: 6.00 Build 0)  -->
<svg version="1.1" id="Layer_1" xmlns="http://www.w3.org/2000/svg" xmlns:xlink="http://www.w3.org/1999/xlink" x="0px" y="0px"
	 viewBox="0 0 256 256" style="enable-background:new 0 0 256 256;" xml:space="preserve">
<g>
	<g>
		<path d="M172.9,126.2L132,63.9l21.6-52L79.2,125.6l47.7,66.7L172.9,126.2z M127.2,76.9l36.7,52.2l-36.7,53.2L89,129.1L127.2,76.9z
			"/>
		<path d="M98.1,253.9l1.3,2.1h58.3l1.2-2.1l75.7-124.7l1.4-2.3l-1.4-2.2L159.6,2l-1.3-2H96.7l-1.3,2.1l-74,122.5l-1.4,2.3l1.4,2.2
			L98.1,253.9z M101.6,8.6h51.9L226,126.9l-0.2,0.2h-45.6l-65.6,94.5l8.8-21.3l-51.4-73.3H30.2l-0.2-0.2L101.6,8.6z"/>
	</g>
</g>
</svg>
