<?xml version="1.0" encoding="utf-8"?>
<!-- Generator: Adobe Illustrator 24.0.0, SVG Export Plug-In . SVG Version: 6.00 Build 0)  -->
<svg version="1.1" id="Layer_1" xmlns="http://www.w3.org/2000/svg" xmlns:xlink="http://www.w3.org/1999/xlink" x="0px" y="0px"
	 viewBox="0 0 256 256" style="enable-background:new 0 0 256 256;" xml:space="preserve">
<style type="text/css">
	.st0{fill:#8699A3;}
</style>
<g>
	<g>
		<path class="st0" d="M172.87,126.17l-40.9-62.24l21.58-52.01L79.23,125.61l47.71,66.7L172.87,126.17z M127.19,76.92l36.68,52.17
			l-36.68,53.23L88.97,129.1L127.19,76.92z"/>
		<path class="st0" d="M98.14,253.89l1.3,2.11h58.26l1.22-2.11l75.7-124.71l1.38-2.27l-1.38-2.19L159.56,2.03L158.26,0H96.68
			l-1.3,2.11l-74,122.52L20,126.9l1.38,2.19L98.14,253.89z M101.55,8.6h51.93l72.54,118.3l-0.16,0.16h-45.6l-65.56,94.53l8.76-21.26
			l-51.36-73.27H30.22l-0.16-0.24L101.55,8.6z"/>
	</g>
</g>
</svg>
