<?xml version="1.0" encoding="utf-8"?>
<!-- Generator: Adobe Illustrator 24.0.0, SVG Export Plug-In . SVG Version: 6.00 Build 0)  -->
<svg version="1.1" id="Layer_1" xmlns="http://www.w3.org/2000/svg" xmlns:xlink="http://www.w3.org/1999/xlink" x="0px" y="0px"
	 viewBox="0 0 26.62 31.54" style="enable-background:new 0 0 26.62 31.54;" xml:space="preserve">
<style type="text/css">
	.st0{fill:#8699A3;}
</style>
<g>
	<g>
		<path class="st0" d="M18.84,15.55L13.8,7.88l2.66-6.41L7.3,15.48l5.88,8.22L18.84,15.55z M13.21,9.48l4.52,6.43l-4.52,6.56
			L8.5,15.91L13.21,9.48z"/>
		<path class="st0" d="M9.63,31.29l0.16,0.26h7.18l0.15-0.26l9.33-15.37l0.17-0.28l-0.17-0.27L17.2,0.25L17.04,0H9.45L9.29,0.26
			L0.17,15.36L0,15.64l0.17,0.27L9.63,31.29z M10.05,1.06h6.4l8.94,14.58l-0.02,0.02h-5.62l-8.08,11.65l1.08-2.62l-6.33-9.03H1.26
			l-0.02-0.03L10.05,1.06z"/>
	</g>
</g>
</svg>
