<?xml version="1.0" encoding="utf-8"?>
<!-- Generator: Adobe Illustrator 24.0.0, SVG Export Plug-In . SVG Version: 6.00 Build 0)  -->
<svg version="1.1" id="Layer_1" xmlns="http://www.w3.org/2000/svg" xmlns:xlink="http://www.w3.org/1999/xlink" x="0px" y="0px"
	 viewBox="0 0 256 256" style="enable-background:new 0 0 256 256;" xml:space="preserve">
<g>
	<path d="M254.9,200.5c0.6-2.8,1.1-22.5,1.1-27.6c0.1-5.2-0.1-82.1-0.7-97.6c-0.1-2.2-1.5-43.3-1.7-47.2c-0.1-4-0.1-5.2-2.8-5.6
		c-2.7-0.4-73-6.2-84.3-6.5c-11.2-0.3-41.2-2.4-105.3,1.2c-39.5,2.2-56.1,22.7-59.6,39C0.5,61.3,0,74.8,0,80
		c0.3,20.9,0.7,69,1.1,83.4c0,0,1.7,61.2,1.7,65.1c0,3.9,0.1,5.2,2.8,5.7c2.7,0.4,73,6.2,84.2,6.5c11.2,0.2,41.3,2.9,105.3-1.3
		C256.1,236.1,254.2,203.2,254.9,200.5z M246.5,138.2l-0.1,16.2c0,0,0.3,2-2.8,1.1C235.9,153.3,89,120.4,10.8,109
		c-0.8-0.1-0.6-1.6-0.6-1.7c0-0.1,0-11.9,0-11.9S10,93.9,11.1,94c30.2,4.6,106,16.9,124.7,20.2c18.7,2.9,102.5,18.8,109.6,20.3
		C246.7,134.8,246.5,138.2,246.5,138.2z M11.2,61.6c3.3-15.1,18.5-33.9,55.1-36c59.2-3.3,87-1.4,97.3-1.1c10.4,0.3,75.3,5.6,77.8,6
		c2.5,0.4,2.5,1.6,2.6,5.2c0.2,3.6,1.5,41.7,1.6,43.7c0,2-1.1,2.6-2.5,2.6c-7.6,0-100.2-7.8-119.8-7.4c-4.9,0.1-5.1,2.7-4.1,4.3
		c0.8,1.1,2.6,1.3,2.6,1.3s121.8,19.9,123.7,20.7c0.3,0.2,1,0.2,1,2.5c0,4.6,0,18.1,0,18.1s0.7,2.8-4.1,1.4
		C162.9,104.5,10.9,84.5,10.9,84.5c-1-0.1-1.2-0.2-1.2-0.8C9.8,79,10.1,66.3,11.2,61.6z M92.8,232.2c-10.4-0.3-75.3-5.6-77.9-6
		c-2.5-0.4-2.7-1.5-2.7-5.2c0-3.7-1.5-60.2-1.5-60.2s-0.4-2.7,2.6-2.3c6.6,0.9,110.8,10.7,120.5,10.8c9.7,0.2,7-3,6.8-3.5
		c-0.3-0.7-3-3.1-8.4-4.4c-5.3-1.3-34.8-9-54.7-13.5c-19.9-4.5-66.3-15-66.3-15s-1.2,0.1-1.3-1.6c0-4.9-0.1-11.2-0.1-11.2
		s-0.4-2.6,1.5-2.3c5.5,1.1,98,19.6,107.4,21.5c9.4,1.8,126.5,28.3,126.5,28.3s1.1,0.1,1.1,2c0,4.8-0.5,23-1.1,25.6
		c-0.6,2.5,1.2,32.8-55.1,36C130.9,234.8,103.2,232.5,92.8,232.2z"/>
</g>
</svg>
