<svg xmlns="http://www.w3.org/2000/svg" viewBox="0 0 32.75 29.82"><defs><style>.a{fill:none;stroke:#000;stroke-linecap:round;stroke-linejoin:round;stroke-width:0.75px;}</style></defs><title>513</title><path class="a" d="M18.78,3.49v1.8H17.53a.67.67,0,0,0-.66.66V7.6a.67.67,0,0,0,.66.66h.28a6.54,6.54,0,0,0-.59,2.68,7,7,0,0,0,.18,1.53c-5,1.18-8.49,5.06-8.49,9.53a8.67,8.67,0,0,0,1.18,4.35A3,3,0,0,0,12.6,28H28.32a2.94,2.94,0,0,0,2.5-1.6A8.67,8.67,0,0,0,32,22c0-4.47-3.48-8.36-8.48-9.54a6.94,6.94,0,0,0,.17-1.52,6.57,6.57,0,0,0-.58-2.68h.26A.67.67,0,0,0,24,7.6V6a.67.67,0,0,0-.67-.66h-.75V1.73a.28.28,0,0,0-.27-.27h-3.3a.28.28,0,0,0-.27.27V3.49Zm-8,3.4C9.87,7.11,9.15,8.44,9.15,10c0,1.92,1,2.16,1.88,2.16s1.89-.24,1.89-2.16c0-1.55-.71-2.87-1.6-3.11Z" transform="translate(0.38 -1.09)"/><path class="a" d="M24.83,22.19a1,1,0,0,1-1,1H17a1,1,0,0,1-1-1V18.43a1,1,0,0,1,1-1h6.81a1,1,0,0,1,1,1Z" transform="translate(0.38 -1.09)"/><line class="a" x1="25.38" y1="2.82" x2="28.87" y2="4.93"/><line class="a" x1="25.38" y1="2.82" x2="28.87" y2="0.71"/><line class="a" x1="25.38" y1="2.82" x2="29.46" y2="2.82"/><path class="a" d="M11,6.85s-.18-5.1,7.75-3.61" transform="translate(0.38 -1.09)"/><line class="a" x1="18.19" y1="7.18" x2="23.49" y2="7.18"/><line class="a" x1="19.15" y1="4.2" x2="22.99" y2="4.2"/><path class="a" d="M17.39,12.47a13,13,0,0,1,6.13,0" transform="translate(0.38 -1.09)"/><line class="a" x1="0.38" y1="26.86" x2="19" y2="26.86"/><line class="a" x1="4.43" y1="29.45" x2="23.05" y2="29.45"/></svg>