<svg xmlns="http://www.w3.org/2000/svg" viewBox="0 0 32.75 27.82"><defs><style>.a,.b{fill:none;stroke:#000;stroke-linecap:round;stroke-linejoin:round;stroke-width:0.75px;}.b{fill-rule:evenodd;}</style></defs><title>515</title><path class="a" d="M31.05,2.47a1,1,0,0,0-.79.41c-3.83,5.34-4.24,8.49-1.71,15v9.83a1.72,1.72,0,1,0,3.44,0V3.4A.94.94,0,0,0,31.05,2.47Z" transform="translate(0.38 -2.09)"/><path class="a" d="M0,2.61V9.2H0a3.68,3.68,0,0,0,1.93,3h0L2,27.76a1.78,1.78,0,0,0,3.55,0l.08-15.64h0A3.52,3.52,0,0,0,7.44,9.28h0V2.63" transform="translate(0.38 -2.09)"/><path class="a" d="M3.86,2.61V9.2" transform="translate(0.38 -2.09)"/><path class="b" d="M13.56,12a5.08,5.08,0,0,0-3.7,1.66A6.56,6.56,0,0,0,8.63,18,8.43,8.43,0,0,0,9.8,22.6a7.14,7.14,0,0,0,3.95,3.13c.68.19,2.57-.73,2.71-.77s1.95.95,2.62.77a7.16,7.16,0,0,0,4-3.13A8.43,8.43,0,0,0,24.21,18,6.62,6.62,0,0,0,23,13.61,5.12,5.12,0,0,0,19.27,12a4.65,4.65,0,0,0-2.11.58,7,7,0,0,0-.74.39,7,7,0,0,0-.74-.39A4.65,4.65,0,0,0,13.56,12Z" transform="translate(0.38 -2.09)"/><path class="b" d="M21.74,6.55v0a7.91,7.91,0,0,1-1.11,2.21,9.47,9.47,0,0,1-3,1.22,3.24,3.24,0,0,1-.39.07,1.1,1.1,0,0,1,0-.16,7.66,7.66,0,0,1,1.13-2.47,8.08,8.08,0,0,1,2.87-.86c.25,0,.24,0,.47,0Z" transform="translate(0.38 -2.09)"/><path class="b" d="M16.84,13.32c0-1.77-.67-4.1-2.21-5l-.34-.2a.71.71,0,0,0-.41-.09h0" transform="translate(0.38 -2.09)"/></svg>