<?xml version="1.0" encoding="utf-8"?>
<!-- Generator: Adobe Illustrator 24.0.0, SVG Export Plug-In . SVG Version: 6.00 Build 0)  -->
<svg version="1.1" id="Layer_1" xmlns="http://www.w3.org/2000/svg" xmlns:xlink="http://www.w3.org/1999/xlink" x="0px" y="0px"
	 viewBox="0 0 256 256" style="enable-background:new 0 0 256 256;" xml:space="preserve">
<style type="text/css">
	.st0{fill:#8699A3;}
</style>
<g>
	<g>
		<path class="st0" d="M238.52,104.83c-0.86-0.86-1.72-0.86-1.72-0.86h-9.47c-2.58-8.61-6.89-16.36-11.19-24.11l15.5-14.64
			l9.47,12.06c0.86,0.86,2.58,1.72,4.31,0.86c1.72-0.86,2.58-1.72,2.58-3.44l-0.86-55.11c0-0.86-0.86-1.72-0.86-2.58
			c-0.86,0-2.58,0-3.44,0l-56.83,3.44c-1.72,0-2.58,0.86-3.44,2.58c0,1.72,0,2.58,1.72,4.31l13.78,9.47l-13.78,12.92
			c-16.36-10.33-36.16-16.36-55.97-16.36c-46.5,0-85.25,30.14-98.16,71.47h-8.61c-0.86,0-1.72,0-1.72,0.86
			c-0.86,0.86-18.94,12.92-19.8,30.14c0,11.19,6.03,21.53,18.94,31c0.86,0.86,1.72,0.86,1.72,0.86h8.61
			c13.78,40.47,52.53,70.61,98.16,70.61s84.38-29.28,98.16-70.61h9.47c0.86,0,1.72,0,1.72-0.86c0.86-0.86,18.08-12.92,18.94-31
			C257.46,124.63,250.57,114.3,238.52,104.83z M128.3,40.25c19.8,0,38.75,6.03,55.11,17.22c1.72,0.86,3.44,0.86,4.31,0l18.94-18.08
			c0.86-0.86,0.86-1.72,0.86-2.58c0-0.86-0.86-1.72-1.72-2.58l-8.61-6.03l43.05-2.58l0.86,41.33l-6.03-6.89
			c-0.86-0.86-1.72-0.86-2.58-0.86s-1.72,0-2.58,0.86l-21.53,17.22c-0.86,0.86-1.72,3.44-0.86,4.31
			c5.17,6.89,8.61,14.64,11.19,22.39h-26.69c-11.19-24.11-35.3-40.47-63.72-40.47s-52.53,16.36-63.72,40.47H37.03
			C49.94,66.94,86.11,40.25,128.3,40.25z M185.13,104.83H73.19c10.33-19.8,31.86-33.58,55.97-33.58S173.94,84.16,185.13,104.83z
			 M128.3,230.55c-41.33,0-77.5-26.69-90.41-62.86H66.3c12.05,22.39,35.3,37.89,62.86,37.89s50.8-15.5,62.86-37.89h27.55
			C205.8,204.71,169.63,230.55,128.3,230.55z M74.05,167.69h109.36c-11.19,18.94-31,31-54.25,31S85.25,185.77,74.05,167.69z
			 M235.07,160.8h-6.03h-7.75H194.6h-7.75H70.61h-7.75H35.3h-6.89h-6.03c-10.33-7.75-15.5-16.36-15.5-24.11
			c0-12.05,12.05-21.53,15.5-24.11h5.17h6.89h26.69h7.75h118.83h7.75h25.83h6.89h6.03c10.33,7.75,14.64,15.5,14.64,24.11
			C249.71,147.88,238.52,158.22,235.07,160.8z"/>
		<polygon class="st0" points="72.33,122.91 66.3,122.91 59.41,122.91 51.66,122.91 51.66,127.22 57.69,127.22 48.22,144.44 
			37.89,127.22 44.78,127.22 44.78,122.91 32.72,122.91 25.83,122.91 15.5,122.91 15.5,127.22 22.39,127.22 24.97,132.38 
			32.72,146.16 35.3,151.33 52.53,151.33 58.55,140.13 65.44,127.22 65.44,127.22 72.33,127.22 		"/>
		<path class="st0" d="M91.27,122.05c-12.05,0-21.53,6.89-21.53,15.5c0,8.61,9.47,15.5,21.53,15.5s20.67-6.89,20.67-15.5
			C111.94,128.94,102.47,122.05,91.27,122.05z M90.41,147.88c-3.44,0-5.17-5.17-5.17-11.19s2.58-11.19,5.17-11.19
			c3.44,0,5.17,5.17,5.17,11.19C96.44,142.72,93.86,147.88,90.41,147.88z"/>
		<path class="st0" d="M223.88,122.05C223.88,122.05,223.02,122.05,223.88,122.05c-12.05,0-21.53,6.89-21.53,15.5
			c0,8.61,9.47,15.5,20.67,15.5l0,0c2.58,0,5.17,0,6.89-0.86c7.75-1.72,13.78-7.75,13.78-14.64c0-6.03-5.17-12.05-13.78-13.78
			C229.04,122.05,226.46,122.05,223.88,122.05z M223.88,147.88h-0.86c-3.44,0-5.17-5.17-5.17-11.19s2.58-11.19,5.17-11.19h0.86
			c2.58,0.86,4.31,5.17,4.31,10.33C228.18,142.72,226.46,147.02,223.88,147.88z"/>
		<path class="st0" d="M141.22,147.02c-2.58,0-6.89,0-6.89,0v-19.8h6.89v-4.31h-26.69v4.31h6.03v19.8h-6.89v4.31h6.89h34.44v-12.92
			c0,0-0.86,0-4.31,0C150.69,145.3,143.8,147.02,141.22,147.02z"/>
		<polygon class="st0" points="204.93,122.91 198.91,122.91 191.16,122.91 184.27,122.91 184.27,127.22 189.44,127.22 
			179.96,144.44 169.63,127.22 177.38,127.22 177.38,122.91 147.24,122.91 147.24,127.22 154.13,127.22 167.91,151.33 
			184.27,151.33 192.02,136.69 198.05,127.22 198.91,127.22 204.93,127.22 		"/>
	</g>
</g>
</svg>
