<?xml version="1.0" encoding="utf-8"?>
<!-- Generator: Adobe Illustrator 24.0.0, SVG Export Plug-In . SVG Version: 6.00 Build 0)  -->
<svg version="1.1" id="Layer_1" xmlns="http://www.w3.org/2000/svg" xmlns:xlink="http://www.w3.org/1999/xlink" x="0px" y="0px"
	 viewBox="0 0 29.8 25.6" style="enable-background:new 0 0 29.8 25.6;" xml:space="preserve">
<style type="text/css">
	.st0{fill:#8699A3;}
</style>
<g>
	<g>
		<path class="st0" d="M27.7,10.2c-0.1-0.1-0.2-0.1-0.2-0.1h-1.1c-0.3-1-0.8-1.9-1.3-2.8l1.8-1.7L28,7c0.1,0.1,0.3,0.2,0.5,0.1
			c0.2-0.1,0.3-0.2,0.3-0.4l-0.1-6.4c0-0.1-0.1-0.2-0.1-0.3C28.5,0,28.3,0,28.2,0l-6.6,0.4c-0.2,0-0.3,0.1-0.4,0.3
			c0,0.2,0,0.3,0.2,0.5L23,2.3l-1.6,1.5c-1.9-1.2-4.2-1.9-6.5-1.9C9.5,1.9,5,5.4,3.5,10.2h-1c-0.1,0-0.2,0-0.2,0.1
			c-0.1,0.1-2.2,1.5-2.3,3.5c0,1.3,0.7,2.5,2.2,3.6c0.1,0.1,0.2,0.1,0.2,0.1h1c1.6,4.7,6.1,8.2,11.4,8.2c5.3,0,9.8-3.4,11.4-8.2h1.1
			c0.1,0,0.2,0,0.2-0.1c0.1-0.1,2.1-1.5,2.2-3.6C29.9,12.5,29.1,11.3,27.7,10.2z M14.9,2.7c2.3,0,4.5,0.7,6.4,2
			c0.2,0.1,0.4,0.1,0.5,0l2.2-2.1c0.1-0.1,0.1-0.2,0.1-0.3c0-0.1-0.1-0.2-0.2-0.3l-1-0.7l5-0.3l0.1,4.8l-0.7-0.8
			c-0.1-0.1-0.2-0.1-0.3-0.1c-0.1,0-0.2,0-0.3,0.1L24.2,7c-0.1,0.1-0.2,0.4-0.1,0.5c0.6,0.8,1,1.7,1.3,2.6h-3.1
			c-1.3-2.8-4.1-4.7-7.4-4.7c-3.3,0-6.1,1.9-7.4,4.7H4.3C5.8,5.8,10,2.7,14.9,2.7z M21.5,10.2h-13c1.2-2.3,3.7-3.9,6.5-3.9
			C17.8,6.3,20.2,7.8,21.5,10.2z M14.9,24.8c-4.8,0-9-3.1-10.5-7.3h3.3c1.4,2.6,4.1,4.4,7.3,4.4c3.2,0,5.9-1.8,7.3-4.4h3.2
			C23.9,21.8,19.7,24.8,14.9,24.8z M8.6,17.5h12.7c-1.3,2.2-3.6,3.6-6.3,3.6C12.3,21.1,9.9,19.6,8.6,17.5z M27.3,16.7h-0.7h-0.9
			h-3.1h-0.9H8.2H7.3H4.1H3.3H2.6c-1.2-0.9-1.8-1.9-1.8-2.8c0-1.4,1.4-2.5,1.8-2.8h0.6h0.8h3.1h0.9h13.8h0.9h3h0.8h0.7
			c1.2,0.9,1.7,1.8,1.7,2.8C29,15.2,27.7,16.4,27.3,16.7z"/>
		<polygon class="st0" points="8.4,12.3 7.7,12.3 6.9,12.3 6,12.3 6,12.8 6.7,12.8 5.6,14.8 4.4,12.8 5.2,12.8 5.2,12.3 3.8,12.3 
			3,12.3 1.8,12.3 1.8,12.8 2.6,12.8 2.9,13.4 3.8,15 4.1,15.6 6.1,15.6 6.8,14.3 7.6,12.8 7.6,12.8 8.4,12.8 		"/>
		<path class="st0" d="M10.6,12.2c-1.4,0-2.5,0.8-2.5,1.8c0,1,1.1,1.8,2.5,1.8c1.4,0,2.4-0.8,2.4-1.8C13,13,11.9,12.2,10.6,12.2z
			 M10.5,15.2c-0.4,0-0.6-0.6-0.6-1.3c0-0.7,0.3-1.3,0.6-1.3c0.4,0,0.6,0.6,0.6,1.3C11.2,14.6,10.9,15.2,10.5,15.2z"/>
		<path class="st0" d="M26,12.2C26,12.2,25.9,12.2,26,12.2c-1.4,0-2.5,0.8-2.5,1.8c0,1,1.1,1.8,2.4,1.8c0,0,0,0,0,0
			c0.3,0,0.6,0,0.8-0.1c0.9-0.2,1.6-0.9,1.6-1.7c0-0.7-0.6-1.4-1.6-1.6C26.6,12.2,26.3,12.2,26,12.2z M26,15.2c0,0-0.1,0-0.1,0
			c-0.4,0-0.6-0.6-0.6-1.3c0-0.7,0.3-1.3,0.6-1.3c0,0,0.1,0,0.1,0c0.3,0.1,0.5,0.6,0.5,1.2C26.5,14.6,26.3,15.1,26,15.2z"/>
		<path class="st0" d="M16.4,15.1c-0.3,0-0.8,0-0.8,0v-2.3l0.8,0l0-0.5h-3.1v0.5H14l0,2.3h-0.8v0.5l0.8,0h4v-1.5c0,0-0.1,0-0.5,0
			C17.5,14.9,16.7,15.1,16.4,15.1z"/>
		<polygon class="st0" points="23.8,12.3 23.1,12.3 22.2,12.3 21.4,12.3 21.4,12.8 22,12.8 20.9,14.8 19.7,12.8 20.6,12.8 
			20.6,12.3 17.1,12.3 17.1,12.8 17.9,12.8 19.5,15.6 21.4,15.6 22.3,13.9 23,12.8 23.1,12.8 23.8,12.8 		"/>
	</g>
</g>
</svg>
