<?xml version="1.0" encoding="utf-8"?>
<!-- Generator: Adobe Illustrator 24.0.0, SVG Export Plug-In . SVG Version: 6.00 Build 0)  -->
<svg version="1.1" id="Layer_1" xmlns="http://www.w3.org/2000/svg" xmlns:xlink="http://www.w3.org/1999/xlink" x="0px" y="0px"
	 viewBox="0 0 256 256" style="enable-background:new 0 0 256 256;" xml:space="preserve">
<g>
	<g>
		<path d="M238.5,104.8c-0.9-0.9-1.7-0.9-1.7-0.9h-9.5c-2.6-8.6-6.9-16.4-11.2-24.1l15.5-14.6l9.5,12.1c0.9,0.9,2.6,1.7,4.3,0.9
			c1.7-0.9,2.6-1.7,2.6-3.4l-0.9-55.1c0-0.9-0.9-1.7-0.9-2.6c-0.9,0-2.6,0-3.4,0L186,20.4c-1.7,0-2.6,0.9-3.4,2.6
			c0,1.7,0,2.6,1.7,4.3l13.8,9.5l-13.8,12.9c-16.4-10.3-36.2-16.4-56-16.4c-46.5,0-85.2,30.1-98.2,71.5h-8.6c-0.9,0-1.7,0-1.7,0.9
			C19,106.6,0.9,118.6,0,135.8c0,11.2,6,21.5,18.9,31c0.9,0.9,1.7,0.9,1.7,0.9h8.6c13.8,40.5,52.5,70.6,98.2,70.6
			s84.4-29.3,98.2-70.6h9.5c0.9,0,1.7,0,1.7-0.9c0.9-0.9,18.1-12.9,18.9-31C257.5,124.6,250.6,114.3,238.5,104.8z M128.3,40.2
			c19.8,0,38.8,6,55.1,17.2c1.7,0.9,3.4,0.9,4.3,0l18.9-18.1c0.9-0.9,0.9-1.7,0.9-2.6s-0.9-1.7-1.7-2.6l-8.6-6l43.1-2.6l0.9,41.3
			l-6-6.9c-0.9-0.9-1.7-0.9-2.6-0.9s-1.7,0-2.6,0.9l-21.5,17.2c-0.9,0.9-1.7,3.4-0.9,4.3c5.2,6.9,8.6,14.6,11.2,22.4H192
			c-11.2-24.1-35.3-40.5-63.7-40.5S75.8,79.9,64.6,104H37C49.9,66.9,86.1,40.2,128.3,40.2z M185.1,104.8H73.2
			c10.3-19.8,31.9-33.6,56-33.6S173.9,84.2,185.1,104.8z M128.3,230.6c-41.3,0-77.5-26.7-90.4-62.9h28.4
			c12.1,22.4,35.3,37.9,62.9,37.9s50.8-15.5,62.9-37.9h27.6C205.8,204.7,169.6,230.6,128.3,230.6z M74.1,167.7h109.4
			c-11.2,18.9-31,31-54.2,31S85.2,185.8,74.1,167.7z M235.1,160.8h-6h-7.8h-26.7h-7.8H70.6h-7.8H35.3h-6.9h-6
			C12,153.1,6.9,144.4,6.9,136.7c0-12.1,12.1-21.5,15.5-24.1h5.2h6.9h26.7h7.8h118.8h7.8h25.8h6.9h6c10.3,7.8,14.6,15.5,14.6,24.1
			C249.7,147.9,238.5,158.2,235.1,160.8z"/>
		<polygon points="72.3,122.9 66.3,122.9 59.4,122.9 51.7,122.9 51.7,127.2 57.7,127.2 48.2,144.4 37.9,127.2 44.8,127.2 
			44.8,122.9 32.7,122.9 25.8,122.9 15.5,122.9 15.5,127.2 22.4,127.2 25,132.4 32.7,146.2 35.3,151.3 52.5,151.3 58.5,140.1 
			65.4,127.2 65.4,127.2 72.3,127.2 		"/>
		<path d="M91.3,122.1c-12.1,0-21.5,6.9-21.5,15.5s9.5,15.5,21.5,15.5s20.7-6.9,20.7-15.5C111.9,128.9,102.5,122.1,91.3,122.1z
			 M90.4,147.9c-3.4,0-5.2-5.2-5.2-11.2s2.6-11.2,5.2-11.2c3.4,0,5.2,5.2,5.2,11.2C96.4,142.7,93.9,147.9,90.4,147.9z"/>
		<path d="M223.9,122.1C223.9,122.1,223,122.1,223.9,122.1c-12.1,0-21.5,6.9-21.5,15.5s9.5,15.5,20.7,15.5l0,0c2.6,0,5.2,0,6.9-0.9
			c7.8-1.7,13.8-7.8,13.8-14.6c0-6-5.2-12.1-13.8-13.8C229,122.1,226.5,122.1,223.9,122.1z M223.9,147.9H223
			c-3.4,0-5.2-5.2-5.2-11.2s2.6-11.2,5.2-11.2h0.9c2.6,0.9,4.3,5.2,4.3,10.3C228.2,142.7,226.5,147,223.9,147.9z"/>
		<path d="M141.2,147c-2.6,0-6.9,0-6.9,0v-19.8h6.9v-4.3h-26.7v4.3h6V147h-6.9v4.3h6.9H155v-12.9c0,0-0.9,0-4.3,0
			C150.7,145.3,143.8,147,141.2,147z"/>
		<polygon points="204.9,122.9 198.9,122.9 191.2,122.9 184.3,122.9 184.3,127.2 189.4,127.2 180,144.4 169.6,127.2 177.4,127.2 
			177.4,122.9 147.2,122.9 147.2,127.2 154.1,127.2 167.9,151.3 184.3,151.3 192,136.7 198.1,127.2 198.9,127.2 204.9,127.2 		"/>
	</g>
</g>
</svg>
