<svg xmlns="http://www.w3.org/2000/svg" viewBox="0 0 32.75 30.92"><defs><style>.a{fill:none;stroke:#000;stroke-linecap:round;stroke-linejoin:round;stroke-width:0.75px;}</style></defs><title>539</title><line class="a" x1="20.53" y1="1.62" x2="22.9" y2="1.62"/><line class="a" x1="19.66" y1="4.02" x2="23.8" y2="4.02"/><line class="a" x1="19.66" y1="8.85" x2="23.8" y2="8.85"/><line class="a" x1="18.78" y1="6.47" x2="24.65" y2="6.47"/><path class="a" d="M1.41,29.94a1.41,1.41,0,0,0,1.38,1.15H13.26a1.42,1.42,0,0,0,1.38-1.18L16,17.33a4.28,4.28,0,0,0-4.2-5H11v-.81a1.38,1.38,0,0,0-.83-1.27v-2A1.41,1.41,0,0,0,8.68,6.77H7.36A1.4,1.4,0,0,0,5.93,8.15v2.06a1.39,1.39,0,0,0-.82,1.26v.81H4.28A4.27,4.27,0,0,0,1,13.82a4.22,4.22,0,0,0-.92,3.47Z" transform="translate(0.38 -0.54)"/><path class="a" d="M21.06,18.52h-1.9a.36.36,0,0,0-.35.36V30.71a.36.36,0,0,0,.35.36h4.5a.35.35,0,0,0,.35-.36V18.88a.35.35,0,0,0-.35-.36h-2.6Z" transform="translate(0.38 -0.54)"/><path class="a" d="M27.15,31.07h4.5a.36.36,0,0,0,.35-.36V1.34A.36.36,0,0,0,31.65,1h-4.5a.36.36,0,0,0-.36.36V30.71A.36.36,0,0,0,27.15,31.07Z" transform="translate(0.38 -0.54)"/><line class="a" x1="27.36" y1="18.25" x2="32.18" y2="18.25"/><line class="a" x1="21.72" y1="17.91" x2="21.72" y2="0.38"/><line class="a" x1="6.6" y1="9.39" x2="10.17" y2="9.39"/><line class="a" x1="4.63" y1="11.74" x2="11.39" y2="11.74"/><path class="a" d="M11.39,15.11s1.69.28,1.5,2.54a28.57,28.57,0,0,1-.66,4.11" transform="translate(0.38 -0.54)"/></svg>