<?xml version="1.0" encoding="utf-8"?>
<!-- Generator: Adobe Illustrator 24.0.0, SVG Export Plug-In . SVG Version: 6.00 Build 0)  -->
<svg version="1.1" id="Layer_1" xmlns="http://www.w3.org/2000/svg" xmlns:xlink="http://www.w3.org/1999/xlink" x="0px" y="0px"
	 viewBox="0 0 256 256" style="enable-background:new 0 0 256 256;" xml:space="preserve">
<g>
	<path d="M108,134.01h11.35h15.85h11.31l14.7,37.95l40.46-105.21c-7.13-8.58-15.73-15.92-25.38-21.6l-28.12,77.42h-12.47h-14.69
		h-12.47L80.34,44.8c-10.38,6.02-19.51,13.84-27.06,23.21l40.07,103.94L108,134.01z"/>
	<path d="M82.01,212.1L37.53,96.21c-3.54,10.01-5.45,20.64-5.45,31.89C32.09,164.18,52.22,195.85,82.01,212.1z"/>
	<path d="M223.91,128.11c0-11.94-2.09-23.39-6.09-33.93L172.2,213.13C202.83,197.14,223.91,165,223.91,128.11z"/>
	<path d="M127.22,154.32l-24.75,64.23l-0.11,1.96c8.19,2.3,16.8,3.44,25.71,3.44c8.36,0,16.44-1.05,24.22-3.03l-0.33-2.37
		L127.22,154.32z"/>
	<path d="M152.58,35.29c-7.87-2.08-16.15-3.15-24.52-3.15c-8.31,0-16.38,1.07-24.02,3.02l24.32,67.15L152.58,35.29z"/>
	<path d="M128.07,256C198.52,256,256,198.47,256,128.11C256,57.55,198.52,0,128.07,0C57.59,0,0,57.55,0,128.11
		C0,198.47,57.59,256,128.07,256z M128.07,16.32c61.43,0,111.7,50.24,111.7,111.79c0,61.43-50.26,111.56-111.7,111.56
		c-61.47,0-111.71-50.13-111.71-111.56C16.36,66.55,66.59,16.32,128.07,16.32z"/>
</g>
</svg>
