<?xml version="1.0" encoding="utf-8"?>
<!-- Generator: Adobe Illustrator 24.0.0, SVG Export Plug-In . SVG Version: 6.00 Build 0)  -->
<svg version="1.1" id="Layer_1" xmlns="http://www.w3.org/2000/svg" xmlns:xlink="http://www.w3.org/1999/xlink" x="0px" y="0px"
	 viewBox="0 0 256 256" style="enable-background:new 0 0 256 256;" xml:space="preserve">
<style type="text/css">
	.st0{fill:#8699A3;}
</style>
<g>
	<g>
		<path class="st0" d="M152.62,35.23c-7.86-2.05-16.14-3.19-24.49-3.19c-8.27,0-16.38,1.06-24,3.03l24.33,67.09L152.62,35.23z"/>
		<path class="st0" d="M223.97,128.04c0-11.96-2.05-23.43-6.06-34l-45.63,119.03C202.83,197.1,223.97,164.99,223.97,128.04z"/>
		<path class="st0" d="M176.29,45.14l-28.1,77.41h-12.45H121h-12.45L80.36,44.81c-10.4,5.98-19.5,13.84-27.12,23.18l40.06,103.96
			l14.66-38.01h11.39h15.89h11.3l14.66,38.01l40.47-105.19C194.56,58.08,185.96,50.79,176.29,45.14z"/>
		<path class="st0" d="M128.04,0C57.59,0,0,57.51,0,128.04C0,198.41,57.59,256,128.04,256C198.57,256,256,198.41,256,128.04
			C256.08,57.51,198.57,0,128.04,0z M128.04,239.62c-61.44,0-111.66-50.14-111.66-111.57C16.38,66.52,66.6,16.3,128.04,16.3
			S239.7,66.52,239.7,128.12C239.78,189.48,189.56,239.62,128.04,239.62z"/>
		<path class="st0" d="M127.22,154.26l-24.74,64.23l-0.08,1.97c8.19,2.29,16.79,3.44,25.72,3.44c8.36,0,16.47-1.06,24.25-3.03
			l-0.33-2.38L127.22,154.26z"/>
		<path class="st0" d="M32.11,128.04c0,36.04,20.15,67.75,49.89,83.97L37.6,96.17C34,106.17,32.11,116.82,32.11,128.04z"/>
	</g>
</g>
</svg>
