<?xml version="1.0" encoding="utf-8"?>
<!-- Generator: Adobe Illustrator 24.0.0, SVG Export Plug-In . SVG Version: 6.00 Build 0)  -->
<svg version="1.1" id="Layer_1" xmlns="http://www.w3.org/2000/svg" xmlns:xlink="http://www.w3.org/1999/xlink" x="0px" y="0px"
	 viewBox="0 0 31.26 31.25" style="enable-background:new 0 0 31.26 31.25;" xml:space="preserve">
<style type="text/css">
	.st0{fill:#8699A3;}
</style>
<g>
	<g>
		<path class="st0" d="M18.63,4.3c-0.96-0.25-1.97-0.39-2.99-0.39c-1.01,0-2,0.13-2.93,0.37l2.97,8.19L18.63,4.3z"/>
		<path class="st0" d="M27.34,15.63c0-1.46-0.25-2.86-0.74-4.15l-5.57,14.53C24.76,24.06,27.34,20.14,27.34,15.63z"/>
		<path class="st0" d="M21.52,5.51l-3.43,9.45h-1.52h-1.8h-1.52L9.81,5.47C8.54,6.2,7.43,7.16,6.5,8.3l4.89,12.69l1.79-4.64h1.39
			h1.94h1.38l1.79,4.64l4.94-12.84C23.75,7.09,22.7,6.2,21.52,5.51z"/>
		<path class="st0" d="M15.63,0C7.03,0,0,7.02,0,15.63c0,8.59,7.03,15.62,15.63,15.62c8.61,0,15.62-7.03,15.62-15.62
			C31.26,7.02,24.24,0,15.63,0z M15.63,29.25C8.13,29.25,2,23.13,2,15.63C2,8.12,8.13,1.99,15.63,1.99c7.5,0,13.63,6.13,13.63,13.65
			C29.27,23.13,23.14,29.25,15.63,29.25z"/>
		<path class="st0" d="M15.53,18.83l-3.02,7.84l-0.01,0.24c1,0.28,2.05,0.42,3.14,0.42c1.02,0,2.01-0.13,2.96-0.37l-0.04-0.29
			L15.53,18.83z"/>
		<path class="st0" d="M3.92,15.63c0,4.4,2.46,8.27,6.09,10.25L4.59,11.74C4.15,12.96,3.92,14.26,3.92,15.63z"/>
	</g>
</g>
</svg>
