<?xml version="1.0" encoding="utf-8"?>
<!-- Generator: Adobe Illustrator 24.0.0, SVG Export Plug-In . SVG Version: 6.00 Build 0)  -->
<svg version="1.1" id="Layer_1" xmlns="http://www.w3.org/2000/svg" xmlns:xlink="http://www.w3.org/1999/xlink" x="0px" y="0px"
	 viewBox="0 0 256 256" style="enable-background:new 0 0 256 256;" xml:space="preserve">
<style type="text/css">
	.st0{fill:#8699A3;}
</style>
<g>
	<path class="st0" d="M68.45,180.85c0,0,0.08,0,0.18-0.01c0.23-0.04,0.6-0.07,0.71-0.09C69.03,180.79,68.72,180.84,68.45,180.85z"/>
	<path class="st0" d="M40.67,177.66c5.87,2.15,12.29,3.19,23.5-4.28L203.6,86.84c24.04,10.66,37.94,21.64,39.02,37.65
		c1.05,16.02-28.86,44.6-113.8,43.02c-9.09-0.55-9.89-2.14-5.88-6.43c4.92-5.23,25.65-29.37,37.41-39.52
		c3.99-4.27,1.06-6.95-4.83-2.67l-86.27,54.21c-6.15,4.55-3.48,10.43,0.8,10.97c4.28,0.52,26.18,6.6,64.11,5.87
		c41.41-0.82,120.74-20.85,121.82-65.7c1.06-23.53-29.92-41.16-39.54-44.88l8.29-4.57c6.4-3.72,1.34-10.94-5.63-6.66l-13.88,7.48
		c-22.45-6.42-43.82-8.54-71.6-9.63C92.49,65.99,7,83.64,0.05,134.37C-1.55,157.38,34.78,175.51,40.67,177.66z M83.94,166.45
		c4.27-2.68,68.12-43.82,73.45-47.29c-12.55,9.36-55.03,40.35-60.09,44.09c-5.09,3.72-12.03,8.79-17.9,10.67
		c-2.93,1.34-6.68,1.86-9.62,2.68C70.05,173.67,79.13,169.1,83.94,166.45z M253.03,116.48c5.8,20.98-12.29,36.61-21.37,42.74
		c-9.09,6.15-39.54,26.45-107.39,27.52c-10.41,0.27-37.93-3.46-45.41-4.82c-4.41-1.61-7.41-1.41-9.52-1.17
		c-0.08,0.02-0.31,0.04-0.71,0.09c-0.07,0.01-0.11,0.01-0.19,0.04c0.53-5.09,9.08-2.15,12.55-1.61c3.48,0.54,34.18,4.49,53.16,3.75
		c33.66-1.36,95.1-9.62,114.33-44.36c5.61-10.68,3.2-17.09,2.67-21.9c0.27,11.5-0.79,23.79-18.16,35.52
		c-19.15,12.98-50.76,29.13-120.74,24.33c-11.76-1.61-13.64-5.62-6.15-12.56c7.48-6.96,39.27-35.79,52.1-44.34
		c2.93-1.86,2.4,0,0.27,1.87c-2.15,1.89-37.68,34.45-41.68,40.6c-4,6.14-0.54,9.87,6.68,10.42c10.96,0.27,49.41,1.88,84.68-11.23
		c12.02-4.79,37.13-14.94,40.34-34.98c3.27-20.48-25.4-39.53-38.47-43.03l4.26-2.39C221.78,84.18,247.42,96.18,253.03,116.48z
		 M64.44,166.7c-4.82,2.68-8.01,3.75-10.16,5.88c-2.13,2.14-6.94,2.93-8.01,0.27c-1.07-2.69,2.41-4.54,5.61-4.27
		c3.47-0.53,8.55-1.33,10.95-3.19l160.23-92.3l0.06,0.25L64.44,166.7z M50.6,168.48c0.13,0,0.33,0.02,0.55,0.05
		C50.87,168.5,50.7,168.48,50.6,168.48z M89.29,73.47c32.05-5.32,61.44-8,112.18,3.77l-3.73,2.14c-21.37-4.3-49.15-10.68-84.95-6.42
		C77,77.23,29.45,88.98,12.88,123.16c-8.02,20.83,20.83,27.25,45.4,19.77c24.58-7.48,92.7-32.04,162.69-73.19
		c2.4-1.6,4.01,0.54,1.33,1.88c0,0-134.9,76.65-161.08,89.47c-14.96,6.97-34.46-0.5-38.19-3.19c-3.75-2.66-18.18-11.76-17.64-28.32
		C5.93,113.02,34.24,83.09,89.29,73.47z M54.02,141.86c-12.3,2.69-36.86,2.69-33.12-12.3c8.02-36.87,74.26-51.27,105.25-52.89
		c30.99-1.61,50.22,3.22,64.11,6.96C138.96,114.62,61.5,140.23,54.02,141.86z M185.93,86.26c-0.87,0.53-1.83,1.1-2.84,1.71
		C183.98,87.42,184.92,86.86,185.93,86.26z M181.39,89c-1.08,0.65-2.1,1.27-3.03,1.82C179.37,90.21,180.39,89.59,181.39,89z
		 M173.56,93.71c-0.78,0.45-1.46,0.88-2.07,1.24C172.14,94.59,172.83,94.16,173.56,93.71z M169.58,96.13
		c-0.64,0.37-1.13,0.68-1.46,0.87c-0.93,0.55-0.81,0.5,0,0C168.48,96.79,168.98,96.48,169.58,96.13z"/>
	<path class="st0" d="M133.62,65.99c0,0,0.17,0.01,0.45,0.04C133.91,66.03,133.77,66,133.62,65.99z"/>
	<path class="st0" d="M144.6,66.43C146.62,66.49,146.15,66.48,144.6,66.43L144.6,66.43z"/>
	<path class="st0" d="M134.93,66.04c0.79,0.03,1.87,0.06,3.04,0.12C137.05,66.13,136.03,66.09,134.93,66.04z"/>
</g>
</svg>
