<svg xmlns="http://www.w3.org/2000/svg" viewBox="0 0 32.75 29.61"><defs><style>.a{fill:none;stroke:#000;stroke-linecap:round;stroke-linejoin:round;stroke-width:0.75px;}</style></defs><title>540</title><path class="a" d="M16.38,9.05a3.24,3.24,0,0,0-3.27,2.45.19.19,0,0,0,0,.07.18.18,0,0,0,.09,0l5,.25,1.29-1.17a2.34,2.34,0,0,0-.24-.31,4.25,4.25,0,0,0-2.86-1.33Z" transform="translate(0.38 -1.19)"/><path class="a" d="M9.86,21.52l.42-7.5a1,1,0,0,1,1.08-.94l7.72.06" transform="translate(0.38 -1.19)"/><path class="a" d="M10,21.45a14.13,14.13,0,0,0,.35,1.73,6.73,6.73,0,0,0,.38.76,6.11,6.11,0,0,0,4.53,2.68h1.24a5.65,5.65,0,0,0,5.41-5.26L22,14.26v-.07a1,1,0,0,0-.75-.92l-2.18-.13" transform="translate(0.38 -1.19)"/><path class="a" d="M25.19,4.19C18-.39,8,1.18,2.91,7.71a13.28,13.28,0,0,0,0,16.59" transform="translate(0.38 -1.19)"/><path class="a" d="M6.81,27.81c7.23,4.58,17.2,3,22.28-3.52a13.28,13.28,0,0,0,0-16.59" transform="translate(0.38 -1.19)"/><line class="a" x1="10.32" y1="20.24" x2="30.21" y2="2.27"/><line class="a" x1="2.5" y1="27.31" x2="10.32" y2="20.24"/><line class="a" x1="14.49" y1="7.09" x2="14.49" y2="5.57"/><line class="a" x1="9.02" y1="16.49" x2="6.2" y2="16.49"/><line class="a" x1="26.39" y1="16.49" x2="23.57" y2="16.49"/><line class="a" x1="19.07" y1="7.09" x2="19.07" y2="5.57"/><path class="a" d="M26.05,11.31s1,4-3.13,4" transform="translate(0.38 -1.19)"/><path class="a" d="M26.05,24.55s1-4-3.13-4" transform="translate(0.38 -1.19)"/><path class="a" d="M6,11.31s-1,4,3.13,4" transform="translate(0.38 -1.19)"/><path class="a" d="M6,24.55s-1-4,3.13-4" transform="translate(0.38 -1.19)"/></svg>