<?xml version="1.0" encoding="utf-8"?>
<!-- Generator: Adobe Illustrator 24.0.0, SVG Export Plug-In . SVG Version: 6.00 Build 0)  -->
<svg version="1.1" id="Layer_1" xmlns="http://www.w3.org/2000/svg" xmlns:xlink="http://www.w3.org/1999/xlink" x="0px" y="0px"
	 viewBox="0 0 256 256" style="enable-background:new 0 0 256 256;" xml:space="preserve">
<path d="M128,0C57.5,0,0,57.5,0,128c0,70.4,57.5,128,128,128c70.5,0,128-57.6,128-128C256,57.5,198.5,0,128,0z M128,253
	C59.2,253,3,196.9,3,128C3,59.1,59.2,2.9,128,2.9c68.8,0,125,56.2,125,125.1C253,196.9,196.8,253,128,253z"/>
<path d="M128,8C61.9,8,8,61.9,8,128C8,194,61.9,248,128,248S248,194,248,128C248,61.9,194.1,8,128,8z M128,245
	c-64.4,0-117-52.6-117-117C11,63.5,63.6,11,128,11S245,63.5,245,128C245,192.4,192.4,245,128,245z"/>
<path d="M128,25.8C71.7,25.8,25.8,71.7,25.8,128c0,56.2,45.9,102.1,102.2,102.1c14.1,0,27.5-2.9,39.7-8.1l0.1,0.2
	c1.6,2.4,5.8,5.5,7.1,1.6l4.9-15.2c0.1-0.2,0.2-1,0.5-0.7l3.4,3.4c1,1,1.9,1.9,3.3,1.6c1.2-0.2,1.4-1.2,1.8-2.2l0.3-1
	c24.9-18.6,41.1-48.4,41.1-81.7C230.2,71.7,184.3,25.8,128,25.8z M187.2,210.3c-0.1,0.4-0.2,1.2-0.8,1c-0.5-0.2-0.9-0.5-1.2-0.9
	l-3.6-3.6c-1.5-1.4-2.9-0.4-3.3,1.1l-4.9,15.3c-0.7,2.2-3.1-0.5-3.7-1.5c-6.1-8.6-12.3-17.7-18.1-26c-7.4,4.8-16.9,4.9-25.7,2.5
	c-2.9-0.7-5.8-1.7-8.8-2.1c-3.1-0.5-6.3-0.5-9.4-1.1c-6-1.1-11.6-3.5-16-7.7c-3-2.9-5.3-6.4-8.4-9.2c-6.8-6.1-14.5-10-19-18.3
	c-2.8-5.1-4.2-10.1-4.5-16c-0.2-6.3,1-12.5,1.1-18.8c0.1-11.6-1.1-24.4,5.5-34.7c5.5-8.5,14.8-11.8,22.3-18.1c2.5-2.1,4.4-4.8,6.7-7
	c6.7-6.6,15.4-8.2,24.7-7.2c3.8,0.4,7.4,1.4,11.2,1.9c3.2,0.4,6.4,0.4,9.6,0.9c7.3,1.1,12.8,5,18.9,8.8c3.6,2.2,7.6,3.5,11.4,5.4
	c10,5,15.3,13,17,24.1c0.7,4.7,0.6,9.6,2.2,14.1c1.2,3.3,3.7,5.8,5.4,8.9c4.7,8.5,3.5,20.5-0.8,28.7c-0.8,1.6-1.6,2.5-2.6,3.6
	c2.3,2,4.1,3.6,6.9,5.9c1.7,1.4,2.1,3.8,1.5,5.7L187.2,210.3z M190.6,204.9l11.7-38.2c0.8-2.6,0.1-5.5-2.1-7.5l-4.9-4.4
	c7-9.7,8.1-25.2,1.7-35.3c-1.4-2.2-3.2-4.3-4.2-6.7c-1.1-2.9-1.4-6.2-1.7-9.3c-1.4-14-6.1-24.3-19.2-30.7c-3.6-1.8-7.5-3-10.9-5.2
	c-6.5-3.9-12.5-8-20.1-9.1c-3.4-0.5-6.7-0.4-10.1-0.9c-9-1.3-16.6-3.4-25.6-0.8c-4.8,1.4-9.1,4.1-12.6,7.7c-1.9,2-3.5,4.2-5.6,5.9
	c-5.9,4.8-12.9,8-18.4,13.3c-10.7,10.4-10.5,24-10.3,38.2c0,9.6-2.2,19.3-0.2,28.9c0.5,2.5,1.3,4.9,2.4,7.3c1.4,3.1,3,5.8,5.2,8.4
	c4.6,5.3,10.7,9,15.9,13.6c2.6,2.4,4.7,5.4,7.1,8c5.1,5.3,11.4,8.1,18.5,9.5c3.8,0.7,7.8,0.7,11.6,1.6c2.1,0.4,4.2,1.1,6.2,1.6
	c8.8,2.4,18.5,2.2,26.4-1.9l14.7,20.9c-11.7,4.9-24.5,7.6-38,7.6c-54.6,0-99.2-44.5-99.2-99.2c0-54.7,44.6-99.3,99.2-99.3
	c54.6,0,99.2,44.6,99.2,99.3C227.2,158.9,212.9,186.6,190.6,204.9z"/>
<path d="M128,31.8c-53,0-96.3,43.2-96.3,96.3c0,52.9,43.3,96.2,96.3,96.2c10.3,0,22-2.5,31.4-5.5l-9.8-13.8
	c-8.3,3.1-17.9,2.8-27.2,0.2c-1.1-0.3-2.2-0.6-3.4-0.9c-4.4-1.1-9.1-1.1-13.6-1.9c-8-1.7-15.1-5.1-20.7-11.1c-2.4-2.6-4.4-5.5-7-7.8
	c-7.1-6.2-14.8-10.8-19.8-19.3l-2.4-4.8c-2.6-6.1-3.4-12.2-3.4-18.6c0.1-6.3,1.1-12.5,1.1-18.8c-0.1-16.9,0.3-31.8,13.7-43.5
	c3.3-2.8,6.8-5,10.4-7.4c4-2.6,7.2-4.9,10.3-8.6c7.5-8.6,17-12.4,28.2-12c5.3,0.2,10.5,1.2,15.7,2c3.2,0.5,6.4,0.5,9.6,0.9
	c8.4,1.2,15.3,5.5,22.4,9.8c2.9,1.7,6,2.9,9,4.2c15.5,7.2,21.9,19.1,23.6,35.8c0.3,3.2,0.5,6.5,2.1,9.3c0.9,1.4,1.9,2.7,2.8,4
	c7.2,11.1,6.8,27.2,0,38.8l4.4,3.9c2.6,2.2,1.4,5.9,1.4,5.9l-8.7,28.7c15.2-17,26-41.1,26-65.6C224.2,74.9,181,31.8,128,31.8z"/>
<path d="M63.1,140.4c6.9-3.7,17-8.6,23.4-12.1c-0.1-16.8,10.1-32.8,26.6-39.1c13.2-5.1,27.4-3,38.3,4.3c6.4-3.5,16.3-8.7,23.1-12.4
	c-5.2-4-11-5.1-16.3-8.3c-3.5-2.2-6.9-4.5-10.7-6.3c-5.9-2.8-10.7-2.3-16.2-2.9c-7.6-0.9-12.5-3.6-23.1-1.5
	c-10.2,1.9-12.2,8.7-18,13.3c-7.5,6-17.6,9.9-22.1,18.5c-4.8,9.3-4,20.8-4,31.3C64.1,130.5,63.2,135.4,63.1,140.4z M81,127.6l-3,1.7
	c-2,1.1-1.4-1.8-0.7-2.1l2.9-1.7C83,123.8,81.7,127.2,81,127.6z M81.3,122.7l-3.2,1.3c-2.1,0.9-1.2-1.9-0.5-2.2l3.1-1.4
	C83.7,119.1,82.1,122.4,81.3,122.7z M82.1,117.8l-3.2,1c-2.2,0.7-1-2-0.3-2.2l3.2-1.1C84.9,114.5,82.9,117.6,82.1,117.8z
	 M83.4,113.1l-3.3,0.6c-2.3,0.4-0.7-2.1,0-2.2l3.3-0.7C86.5,110.1,84.2,112.9,83.4,113.1z M85.2,108.5l-3.4,0.3
	c-2.3,0.2-0.6-2.1,0.2-2.2l3.4-0.4C88.6,105.9,86,108.4,85.2,108.5z M87.5,104.1l-3.4-0.1c-2.3-0.1-0.3-2.2,0.4-2.2h3.4
	C91.1,101.8,88.3,104.1,87.5,104.1z M90.2,100l-3.3-0.4c-2.3-0.3-0.1-2.2,0.6-2.1l3.4,0.4C94.1,98.1,91,100.1,90.2,100z M93.4,96.2
	L90,95.5c-2.2-0.6,0.2-2.3,0.9-2.1l3.3,0.7C97.4,94.8,94.1,96.4,93.4,96.2z M96.9,92.8l-3.2-1.1c-2.2-0.8,0.4-2.2,1.1-2l3.2,1
	C101,91.8,97.6,93.1,96.9,92.8z M100.7,89.7l-3.1-1.5c-2.1-0.9,0.6-2.1,1.3-1.8l3.1,1.4C105,89.1,101.4,90.1,100.7,89.7z
	 M104.9,87.1l-2.9-1.8c-2-1.2,0.8-2,1.5-1.6l2.9,1.6C109.2,86.9,105.6,87.5,104.9,87.1z M109.3,84.9l-2.7-2.1c-1.9-1.4,1-2,1.6-1.5
	l2.8,2C113.5,85.2,109.9,85.3,109.3,84.9z M113.9,83.2l-2.5-2.4c-1.7-1.6,1.2-1.8,1.8-1.3l2.5,2.2C118.1,83.9,114.5,83.7,113.9,83.2
	z M118.7,81.9l-2.2-2.6c-1.5-1.8,1.4-1.7,2-1.2l2.3,2.6C122.8,83.1,119.2,82.5,118.7,81.9z M123.5,81.2l-1.9-2.8
	c-1.3-1.9,1.6-1.5,2-1l2,2.8C127.5,82.8,123.9,81.9,123.5,81.2z M128.4,81l-1.6-3c-1.1-2.1,1.7-1.4,2.1-0.8l1.7,3
	C132.2,83,128.8,81.7,128.4,81z M133.3,81.3l-1.3-3.1c-0.9-2.1,1.9-1.2,2.2-0.5l1.4,3.1C136.9,83.7,133.6,82,133.3,81.3z
	 M138.2,82.1l-1-3.3c-0.7-2.2,2-0.9,2.2-0.2l1.1,3.3C141.4,84.8,138.4,82.9,138.2,82.1z M142.9,83.4l-0.6-3.3
	c-0.4-2.3,2.1-0.8,2.2,0l0.7,3.3C145.9,86.5,143,84.2,142.9,83.4z M147.5,85.2l-0.3-3.4c-0.2-2.3,2.2-0.6,2.2,0.2l0.4,3.4
	C150.1,88.6,147.5,86,147.5,85.2z M154.1,88c0,3.1-2.3,0.2-2.3-0.4l0.1-3.4c0-2.3,2.2-0.3,2.2,0.4V88L154.1,88z M70.8,94.3
	c5.4-8.7,16.1-12,23.2-19c2.3-2.3,4.3-4.9,6.7-7c4.9-4.1,11.7-4.9,17.9-4.3c4.2,0.4,8.3,1.6,12.4,2.1c4,0.4,8.1,0.3,12,1.4
	c6,1.8,11.1,6.2,16.6,9c3.2,1.6,6.6,2.8,9.7,4.5l-8.9,4.7c-9-7-20.3-11.1-32.6-11.1c-29.4,0-53.4,24-53.4,53.4c0,1.2,0,2.4,0.1,3.7
	l-8.9,4.7c0.3-3.8,0.7-7.4,0.8-11.2C66.7,115.1,65.7,103.6,70.8,94.3z"/>
<path d="M179.1,85.7c-0.9-1.1-1.7-2-2.6-2.8L63.1,143.3c0.1,5,1.2,10.2,4.8,16.1c2.7,4.6,6.9,7.9,11.2,11.1l107.7-57.4
	C184.1,104.1,186.3,94.7,179.1,85.7z M86.7,140.9l-3,1.1c0-1.2,0.2-3.1-1.6-2.2c-1.8,0.9-1.8,1.3-1.9,2.7v17c0,0-0.3,1.8,1.2,1.1
	c1.5-0.5,2-0.2,2-2.4v-2.4l2.9-1.4v4.7c0,0,0.3,2.7-1.8,3.9l-4.2,1.9c0,0-3.4,2-3.4-2.2v-20.7c0,0-0.6-3.1,2.6-4.9l5.2-2.2
	c0,0,2-1.1,2,1.1V140.9L86.7,140.9z M100.1,154.5l-3.4,2v-12.5l-3.9,2v12.6l-3.4,2V133l3.4-1.9v11.6l3.9-2V129l3.4-1.9V154.5z
	 M116.8,145l-3.5,1.9l-4.8-7.8l-2.3,1.1v11l-3.4,1.9v-27.4l3.4-2l3-1.5c0,0,3.8-2,3.8,2.2c0,4.2,0,8.4,0,8.4s-0.6,3.4-2.2,4.3
	l3.8,6.4l2.1-1V145z M123.4,128.3v13.5l-3.4,1.7v-14.5l-5.6-9.4l3.4-1.5l3.4,6.1l2.5-9.8l3.9-2.3L123.4,128.3z M137,135.4l-4.9,1.7
	c0,0-2.5,1.4-2.5-1.4v-2.9l2.7-1v1.8c0,0,0,0.8,1.6,0.3l1.2-0.7c0,0,1,0.1,1-1.7v-6c0,0,0-1.7-1.2-1l-3,1.2c0,0-2.4,0.4-2.4-2.5
	c0-3,0-9.7,0-9.7s-0.4-2.1,1.8-3.3l4.8-2.4c0,0,2.9-1.9,2.9,1.8v3.7l-2.3,1v-1.7c0,0,0.1-2.2-1.4-1.4l-1.3,0.6c0,0-0.9,0.3-0.9,1.5
	v6.9c0,0,0.2,1.8,1.6,0.9l2.2-0.8c0,0,2.4-1.3,2.4,1.4v9.7C139.4,131.3,139.6,133.9,137,135.4z M152.6,126.4l-8.9,4.4v-27.4l3.5-1.8
	v24.2l5.4-2.7L152.6,126.4L152.6,126.4z M164.8,96.3l-6.2,3.2v8.3l3.7-1.9v4.2l-3.7,1.8v8.3l6.2-3.2v2.8l-9.2,4.8V97.2l9.2-4.8V96.3
	z M177.8,112.6l-4.8-7.9l-2.3,1.2v11l-3.4,1.9V91.3l3.4-1.9l3-1.5c0,0,3.9-2,3.9,2.2c0,4.3,0,8.4,0,8.4s-0.5,3.4-2.2,4.3l3.8,6.4
	l2.1-1v2.3L177.8,112.6z"/>
<path d="M159.7,182.7c3.6-2.9,8.3-4.1,12.1-6.7c4.8-3.2,6.1-9.4,8.8-14c5-8.3,12.5-6.6,14.3-24.7c1.3-12.9-4.6-15.3-7.4-21.8
	c-5.2,2.8-13,7-17.8,9.6c1.2,17.7-9.1,35.1-26.6,41.8c-14,5.5-29.3,2.7-40.5-5.9c-5.7,3-15.1,7.8-21.4,11.2c1.5,1.1,2.9,2.3,4.3,3.5
	c5.9,5.3,7.3,10.8,16.9,14.4c6.8,2.5,11.3,1.9,16.5,3c6.4,1.2,12.6,4.1,19.1,3.2C154.7,194.3,154.2,187.1,159.7,182.7z M175,128.4
	l3-1.6c2-1.1,1.4,1.8,0.7,2.1l-2.9,1.7C173,132.2,174.3,128.8,175,128.4z M174.7,133.3l3.1-1.3c2.1-0.9,1.2,1.9,0.5,2.2l-3.1,1.4
	C172.3,136.8,174,133.6,174.7,133.3z M173.9,138.1l3.2-0.9c2.2-0.7,1,2,0.3,2.2l-3.2,1C171.1,141.4,173.1,138.4,173.9,138.1z
	 M172.6,142.9l3.3-0.7c2.3-0.5,0.8,2.1,0,2.2l-3.3,0.7C169.5,145.9,171.8,143,172.6,142.9z M170.8,147.4l3.4-0.3
	c2.3-0.2,0.6,2.2-0.2,2.3l-3.4,0.3C167.4,150.1,170,147.5,170.8,147.4z M168.5,151.8l3.4,0.1c2.3,0.1,0.3,2.2-0.4,2.2h-3.4
	C164.9,154.1,167.7,151.8,168.5,151.8z M165.8,155.9l3.4,0.4c2.3,0.3,0.1,2.2-0.7,2.1l-3.4-0.3C161.9,157.8,165,155.8,165.8,155.9z
	 M162.6,159.8l3.3,0.8c2.2,0.5-0.1,2.2-0.9,2l-3.3-0.7C158.6,161.2,161.9,159.6,162.6,159.8z M159.1,163.2l3.2,1.1
	c2.2,0.8-0.4,2.2-1.1,2l-3.2-1.1C155,164.2,158.4,162.9,159.1,163.2z M155.3,166.2l3.1,1.5c2.1,1-0.6,2.1-1.3,1.8l-3.1-1.4
	C151,166.8,154.6,165.9,155.3,166.2z M151.1,168.9l2.9,1.8c2,1.2-0.9,2.1-1.5,1.7l-3-1.7C146.8,169,150.5,168.5,151.1,168.9z
	 M146.8,171.1l2.7,2.1c1.9,1.4-1,2-1.6,1.5l-2.8-2C142.5,170.8,146.1,170.6,146.8,171.1z M142.1,172.8l2.5,2.4
	c1.7,1.6-1.2,1.8-1.8,1.4l-2.5-2.3C137.9,172.1,141.6,172.3,142.1,172.8z M137.4,174l2.2,2.6c1.5,1.8-1.4,1.7-1.9,1.1l-2.3-2.5
	C133.2,172.9,136.9,173.4,137.4,174z M132.5,174.8l2,2.8c1.3,2-1.6,1.6-2,1l-2-2.7C128.5,173.2,132.1,174.1,132.5,174.8z M127.6,175
	l1.6,3c1.1,2-1.7,1.4-2.1,0.7l-1.7-2.9C123.8,173,127.2,174.3,127.6,175z M122.7,174.7l1.3,3.1c0.9,2.1-1.9,1.2-2.2,0.6l-1.4-3.1
	C119.2,172.3,122.4,173.9,122.7,174.7z M117.8,173.9l1,3.3c0.7,2.2-2,1-2.2,0.3l-1.1-3.2C114.6,171.1,117.6,173.1,117.8,173.9z
	 M113.1,172.5l0.7,3.4c0.4,2.3-2.1,0.7-2.2,0l-0.7-3.3C110.1,169.5,113,171.8,113.1,172.5z M108.5,170.8l0.3,3.4
	c0.2,2.3-2.2,0.6-2.2-0.2l-0.3-3.4C105.8,167.4,108.4,170,108.5,170.8z M101.9,168.1c0-3.2,2.3-0.3,2.3,0.5l-0.1,3.3
	c0,2.4-2.2,0.4-2.2-0.4V168.1L101.9,168.1z M97.8,165.1c0.3-3.2,2.3-0.1,2.2,0.6l-0.4,3.4c-0.3,2.4-2.2,0.1-2.2-0.6L97.8,165.1z
	 M135.6,193.9c-4.7-0.1-9.2-1.7-13.7-2.8c-8.2-2-15.2-1-22.8-5.4c-4.1-2.5-6.6-6.3-9.7-9.7c-1.1-1.1-2.2-2.2-3.4-3.2l7.6-4
	c9.3,7.9,21.4,12.7,34.4,12.7c29.4,0,53.4-24,53.4-53.4c0-2.1-0.1-4.1-0.4-6.1l5.4-2.9c1.5,2.4,3.4,4.7,4.6,7.3
	c3.1,6.9,1.6,18.4-3.1,24.4c-1.9,2.2-4.1,3.8-6.1,5.8c-2.5,2.6-4.1,5.4-5.6,8.8c-1.5,3.2-2.9,6.7-5.9,8.8
	c-4.9,3.2-10.3,4.4-14.4,8.9c-1.6,1.9-3,4-4.7,5.8C147.3,192.2,140.8,193.9,135.6,193.9z"/>
<path d="M114.2,92.1c-14.8,5.7-24.1,19.7-24.7,34.7l58.8-31.5C138.3,89.1,125.8,87.6,114.2,92.1z M121.6,104.6l-2-4.2l-15.5,12.7
	l-1.2-2.7l-3.8,2.2l4.8-7.2l1.8,3L121,96.1l2,4.6l5.4-3.2L121.6,104.6z"/>
<path d="M173,91.5l-2.3,1.1v9.3l2.1-1.2c0,0,1.7-0.6,1.7-3v-4.7C174.6,92.9,174.2,90.9,173,91.5z"/>
<path d="M108.5,125.9l-2.3,1.1v9.2l2.1-1.2c0,0,1.8-0.6,1.8-3v-4.7C110.1,127.4,109.7,125.4,108.5,125.9z"/>
<path d="M142,164.1c15.7-6.1,25.2-21.4,24.6-37.4l-61.1,32.7C115.8,166.7,129.4,168.9,142,164.1z M131.2,152.4l1,4l15.1-11.9
	l1.4,2.4l3.6-2.2l-4.2,6.6l-2.4-2.6l-15.9,12.9l-0.4-4.2l-4.6,0.2L131.2,152.4z"/>
<path d="M179.5,167.4c0,4.9-9.5,12.2-12.9,13.4c-3.4,1.2-6.8,3.4-7.8,5.1c-1,1.7-5.8,6.8-5.8,6.8s10.7,15.7,14.3,21.3
	c3.7,5.6,6.3-1,6.1-0.8c-0.2,0.2,7.9-27.4,10.4-35.9C186.5,168.9,179.5,167.4,179.5,167.4z"/>
<path d="M194.8,161.5l-5.3-4.9c-4.2,1.1-8.8,8.5-8.3,9l4.9,3.2c2,1.3,1.4,4.6,1.4,4.6s-5.1,19.3-6.3,23.7c-1.2,4.4,0,4.7,0,4.7
	l1.5,1.7c2.2,3.2,3.7-1.7,3.7-1.7s8.5-26.9,10.2-33C198.2,162.7,194.8,161.5,194.8,161.5z"/>
</svg>
