<?xml version="1.0" encoding="utf-8"?>
<!-- Generator: Adobe Illustrator 24.0.0, SVG Export Plug-In . SVG Version: 6.00 Build 0)  -->
<svg version="1.1" id="Layer_1" xmlns="http://www.w3.org/2000/svg" xmlns:xlink="http://www.w3.org/1999/xlink" x="0px" y="0px"
	 viewBox="0 0 256 256" style="enable-background:new 0 0 256 256;" xml:space="preserve">
<style type="text/css">
	.st0{fill:#8699A3;}
</style>
<path class="st0" d="M128.01,0C57.51,0,0,57.49,0,128.02c0,70.42,57.51,127.99,128.01,127.99c70.47,0,127.99-57.57,127.99-127.99
	C256,57.49,198.47,0,128.01,0z M128.01,253C59.15,253,2.95,196.86,2.95,128.02c0-68.91,56.2-125.09,125.06-125.09
	c68.83,0,125.03,56.18,125.03,125.09C253.04,196.86,196.84,253,128.01,253z"/>
<path class="st0" d="M128.01,8.03C61.93,8.03,8.04,61.92,8.04,128.02c0,66.02,53.89,119.93,119.97,119.93
	c66.08,0,119.95-53.92,119.95-119.93C247.96,61.92,194.09,8.03,128.01,8.03z M128.01,244.99c-64.45,0-116.97-52.57-116.97-116.96
	c0-64.48,52.53-117.05,116.97-117.05c64.44,0,117.01,52.57,117.01,117.05C245.02,192.41,192.45,244.99,128.01,244.99z"/>
<path class="st0" d="M128.01,25.84c-56.27,0-102.19,45.89-102.19,102.18c0,56.23,45.92,102.13,102.19,102.13
	c14.07,0,27.51-2.88,39.73-8.11l0.12,0.19c1.62,2.35,5.78,5.49,7.07,1.6l4.87-15.22c0.08-0.17,0.25-0.98,0.51-0.68l3.43,3.44
	c0.96,0.99,1.92,1.88,3.31,1.63c1.16-0.17,1.43-1.16,1.75-2.22l0.31-1.03c24.91-18.63,41.09-48.37,41.09-81.73
	C230.2,71.73,184.26,25.84,128.01,25.84z M187.18,210.31c-0.14,0.38-0.21,1.23-0.75,1.01c-0.49-0.19-0.88-0.52-1.23-0.93l-3.63-3.61
	c-1.47-1.44-2.86-0.38-3.31,1.1l-4.94,15.32c-0.67,2.19-3.06-0.49-3.71-1.46c-6.13-8.63-12.32-17.74-18.07-26.01
	c-7.45,4.77-16.92,4.85-25.74,2.51c-2.92-0.74-5.83-1.66-8.85-2.11c-3.12-0.49-6.26-0.52-9.38-1.1c-6-1.1-11.58-3.5-16.03-7.68
	c-3.03-2.86-5.26-6.37-8.36-9.16c-6.79-6.1-14.46-9.98-19.01-18.33c-2.81-5.1-4.24-10.14-4.49-15.96
	c-0.25-6.31,1.03-12.48,1.07-18.79c0.11-11.64-1.07-24.41,5.48-34.66c5.47-8.46,14.84-11.85,22.35-18.06c2.48-2.1,4.38-4.8,6.65-7
	c6.72-6.59,15.43-8.22,24.71-7.17c3.76,0.39,7.42,1.42,11.16,1.9c3.2,0.44,6.43,0.41,9.62,0.88c7.28,1.09,12.76,4.96,18.93,8.77
	c3.57,2.18,7.63,3.51,11.43,5.37c10.03,5.03,15.31,13.04,16.97,24.1c0.67,4.69,0.63,9.59,2.23,14.11c1.16,3.26,3.7,5.85,5.35,8.88
	c4.7,8.48,3.5,20.47-0.83,28.74c-0.82,1.58-1.57,2.52-2.58,3.62c2.32,1.96,4.13,3.56,6.9,5.87c1.7,1.39,2.13,3.8,1.53,5.71
	L187.18,210.31z M190.64,204.85l11.66-38.22c0.81-2.64,0.13-5.52-2.08-7.47l-4.93-4.41c7.01-9.68,8.1-25.21,1.68-35.28
	c-1.42-2.23-3.23-4.27-4.19-6.73c-1.14-2.95-1.4-6.17-1.72-9.32c-1.39-14-6.12-24.28-19.24-30.74c-3.58-1.78-7.46-3.04-10.89-5.18
	c-6.46-3.88-12.54-8.05-20.14-9.06c-3.35-0.48-6.72-0.39-10.07-0.91c-8.99-1.35-16.6-3.41-25.62-0.8c-4.83,1.38-9.1,4.08-12.55,7.73
	c-1.87,2.01-3.48,4.2-5.58,5.95c-5.91,4.85-12.93,7.96-18.41,13.3c-10.73,10.39-10.45,24.05-10.33,38.15
	c0.03,9.63-2.25,19.31-0.24,28.85c0.5,2.52,1.34,4.92,2.4,7.3c1.38,3.09,3.02,5.83,5.22,8.41c4.63,5.33,10.67,8.96,15.87,13.64
	c2.63,2.4,4.65,5.38,7.1,7.96c5.08,5.3,11.4,8.13,18.52,9.46c3.81,0.74,7.75,0.7,11.56,1.56c2.09,0.39,4.15,1.05,6.21,1.57
	c8.85,2.38,18.49,2.25,26.37-1.9l14.72,20.9c-11.69,4.87-24.52,7.58-37.96,7.58c-54.63,0-99.21-44.54-99.21-99.19
	c0-54.66,44.58-99.26,99.21-99.26c54.64,0,99.2,44.6,99.2,99.26C227.2,158.89,212.93,186.6,190.64,204.85z"/>
<path class="st0" d="M128.01,31.75c-53,0-96.26,43.2-96.26,96.27c0,52.95,43.26,96.21,96.26,96.21c10.28,0,22.03-2.49,31.35-5.46
	l-9.78-13.76c-8.34,3.06-17.9,2.84-27.21,0.22c-1.13-0.33-2.23-0.64-3.39-0.92c-4.44-1.12-9.05-1.1-13.58-1.94
	c-7.99-1.71-15.08-5.13-20.72-11.11c-2.42-2.57-4.41-5.46-7.03-7.81c-7.14-6.24-14.85-10.83-19.8-19.27l-2.39-4.82
	c-2.56-6.09-3.4-12.16-3.37-18.64c0.14-6.28,1.07-12.54,1.07-18.81c-0.11-16.94,0.29-31.77,13.67-43.51
	c3.28-2.76,6.83-5.02,10.44-7.36c4.04-2.55,7.17-4.95,10.29-8.56c7.5-8.61,17.01-12.35,28.23-12.02c5.34,0.19,10.48,1.23,15.71,2.03
	c3.21,0.48,6.44,0.48,9.64,0.86c8.45,1.17,15.3,5.49,22.45,9.85c2.85,1.71,6,2.9,9,4.21c15.49,7.15,21.89,19.14,23.57,35.83
	c0.27,3.15,0.49,6.52,2.15,9.28c0.85,1.38,1.86,2.65,2.75,3.96c7.18,11.07,6.78,27.17,0,38.75l4.44,3.85
	c2.59,2.23,1.44,5.87,1.44,5.87l-8.73,28.67c15.17-17.04,26.04-41.1,26.04-65.58C224.24,74.95,180.99,31.75,128.01,31.75z"/>
<path class="st0" d="M63.07,140.42c6.93-3.66,16.95-8.63,23.39-12.07c-0.08-16.84,10.06-32.78,26.62-39.13
	c13.15-5.07,27.35-3.02,38.29,4.33c6.42-3.46,16.28-8.71,23.13-12.4c-5.21-3.97-10.96-5.08-16.32-8.35
	c-3.53-2.15-6.93-4.48-10.66-6.28c-5.91-2.84-10.7-2.31-16.18-2.94c-7.64-0.88-12.54-3.58-23.1-1.49
	c-10.15,1.95-12.15,8.66-18,13.26c-7.52,5.96-17.61,9.95-22.07,18.47c-4.85,9.31-3.96,20.81-4.04,31.31
	C64.13,130.5,63.23,135.4,63.07,140.42z M81,127.58l-2.97,1.66c-2.03,1.1-1.39-1.76-0.73-2.12l2.94-1.71
	C83,123.81,81.7,127.22,81,127.58z M81.33,122.67l-3.16,1.29c-2.13,0.93-1.17-1.87-0.5-2.15l3.09-1.38
	C83.68,119.12,82.05,122.36,81.33,122.67z M82.12,117.8l-3.22,0.99c-2.25,0.68-1.01-2.01-0.3-2.21l3.22-1.07
	C84.86,114.54,82.86,117.6,82.12,117.8z M83.43,113.08l-3.35,0.63c-2.27,0.38-0.74-2.12-0.04-2.22l3.35-0.72
	C86.53,110.11,84.23,112.94,83.43,113.08z M85.24,108.49l-3.37,0.26c-2.32,0.24-0.57-2.13,0.18-2.18l3.38-0.4
	C88.62,105.88,86.03,108.45,85.24,108.49z M87.51,104.14l-3.4-0.05c-2.31-0.09-0.33-2.23,0.42-2.23h3.42
	C91.13,101.83,88.3,104.14,87.51,104.14z M90.21,99.98l-3.33-0.41c-2.31-0.28-0.11-2.17,0.62-2.12l3.39,0.38
	C94.06,98.14,91,100.1,90.21,99.98z M93.38,96.25l-3.34-0.76c-2.25-0.56,0.15-2.27,0.88-2.12l3.35,0.7
	C97.36,94.8,94.12,96.36,93.38,96.25z M96.86,92.76l-3.2-1.09c-2.19-0.8,0.36-2.22,1.11-1.98l3.2,1.01
	C101.02,91.77,97.6,93.06,96.86,92.76z M100.74,89.7l-3.1-1.49c-2.08-0.91,0.62-2.1,1.31-1.77l3.11,1.41
	C104.97,89.13,101.41,90.05,100.74,89.7z M104.86,87.09l-2.88-1.8c-2.01-1.17,0.81-2,1.46-1.62l2.93,1.62
	C109.17,86.92,105.55,87.5,104.86,87.09z M109.27,84.87l-2.7-2.06c-1.86-1.39,1.02-1.96,1.64-1.53l2.76,2.01
	C113.54,85.15,109.92,85.32,109.27,84.87z M113.9,83.2l-2.49-2.37c-1.67-1.61,1.25-1.85,1.8-1.32l2.53,2.25
	C118.13,83.88,114.47,83.71,113.9,83.2z M118.66,81.92l-2.24-2.57c-1.5-1.79,1.43-1.71,1.96-1.15l2.28,2.55
	C122.78,83.12,119.15,82.54,118.66,81.92z M123.51,81.21l-1.93-2.81c-1.33-1.89,1.59-1.54,2.04-0.97l1.99,2.79
	C127.51,82.78,123.95,81.87,123.51,81.21z M128.38,80.99L126.8,78c-1.1-2.06,1.69-1.41,2.1-0.76l1.7,2.98
	C132.19,83,128.79,81.69,128.38,80.99z M133.3,81.28l-1.3-3.13c-0.89-2.12,1.87-1.15,2.2-0.5l1.38,3.11
	C136.86,83.69,133.61,82.02,133.3,81.28z M138.18,82.09l-1.01-3.26c-0.67-2.23,1.99-0.95,2.24-0.24l1.08,3.26
	C141.45,84.85,138.37,82.88,138.18,82.09z M142.9,83.41l-0.63-3.33c-0.44-2.29,2.07-0.78,2.25-0.03l0.72,3.28
	C145.89,86.5,143.04,84.19,142.9,83.41z M147.48,85.23l-0.29-3.38c-0.17-2.33,2.17-0.57,2.24,0.19l0.35,3.36
	C150.14,88.56,147.54,85.98,147.48,85.23z M154.13,87.96c0,3.14-2.31,0.25-2.28-0.44l0.08-3.4c0.04-2.34,2.2-0.31,2.2,0.4V87.96
	L154.13,87.96z M70.81,94.33c5.36-8.74,16.1-12.02,23.24-18.97c2.28-2.29,4.28-4.91,6.68-7.03c4.94-4.05,11.69-4.87,17.92-4.31
	c4.15,0.42,8.27,1.56,12.4,2.08c4.04,0.43,8.07,0.34,12.01,1.41c6.03,1.81,11.06,6.21,16.64,9.02c3.24,1.57,6.57,2.8,9.71,4.47
	l-8.85,4.74c-9.02-6.97-20.33-11.11-32.55-11.11c-29.4,0-53.39,23.99-53.39,53.4c0,1.23,0.04,2.45,0.14,3.72l-8.89,4.69
	c0.33-3.75,0.74-7.45,0.82-11.25C66.73,115.11,65.7,103.55,70.81,94.33z"/>
<path class="st0" d="M179.14,85.73c-0.86-1.1-1.69-1.99-2.6-2.77L63.07,143.34c0.13,5,1.24,10.18,4.76,16.08
	c2.66,4.57,6.88,7.85,11.15,11.08l107.66-57.39C184.13,104.05,186.28,94.74,179.14,85.73z M86.74,140.85l-3.03,1.1
	c0-1.19,0.2-3.06-1.6-2.21c-1.78,0.86-1.78,1.3-1.88,2.73v17.03c0,0-0.28,1.77,1.2,1.14c1.52-0.52,2-0.23,2-2.36v-2.41l2.94-1.39
	v4.68c0,0,0.28,2.73-1.8,3.92l-4.24,1.95c0,0-3.38,2-3.38-2.2v-20.73c0,0-0.59-3.14,2.6-4.85l5.2-2.23c0,0,1.99-1.05,1.99,1.13
	L86.74,140.85L86.74,140.85z M100.14,154.48l-3.38,1.96v-12.52l-3.89,1.99v12.58l-3.37,1.99v-27.45l3.37-1.93v11.57l3.89-2.01V129
	l3.38-1.89V154.48z M116.81,145.03l-3.49,1.95l-4.77-7.84l-2.34,1.14v10.99l-3.37,1.93v-27.43l3.37-1.96l3.02-1.51
	c0,0,3.84-2.01,3.84,2.22c0,4.21,0,8.4,0,8.4s-0.55,3.42-2.16,4.31l3.8,6.39l2.1-0.97V145.03z M123.38,128.33v13.47l-3.36,1.66
	v-14.54l-5.59-9.37l3.41-1.46l3.39,6.14l2.51-9.84l3.87-2.3L123.38,128.33z M137.03,135.4l-4.87,1.72c0,0-2.49,1.44-2.49-1.43v-2.91
	l2.69-1.03v1.76c0,0-0.04,0.78,1.61,0.33l1.16-0.69c0,0,0.99,0.13,0.99-1.73v-5.98c0,0,0.03-1.7-1.2-0.99l-3,1.18
	c0,0-2.36,0.4-2.36-2.54c0-3,0-9.66,0-9.66s-0.37-2.09,1.8-3.31l4.76-2.41c0,0,2.94-1.86,2.94,1.77v3.71l-2.29,1.02v-1.73
	c0,0,0.09-2.21-1.43-1.37l-1.32,0.57c0,0-0.89,0.32-0.89,1.53v6.9c0,0,0.23,1.76,1.64,0.94l2.24-0.81c0,0,2.41-1.33,2.41,1.38v9.66
	C139.45,131.28,139.58,133.95,137.03,135.4z M152.63,126.36l-8.95,4.45v-27.4l3.52-1.77v24.2l5.44-2.74V126.36z M164.75,96.34
	l-6.25,3.23v8.34l3.66-1.88v4.17l-3.66,1.84v8.33l6.25-3.2v2.8l-9.24,4.77V97.25l9.24-4.77V96.34z M177.83,112.56l-4.81-7.88
	l-2.33,1.2v10.97l-3.35,1.94V91.33l3.35-1.93l3-1.54c0,0,3.85-2.01,3.85,2.2c0,4.28,0,8.44,0,8.44s-0.5,3.44-2.17,4.33l3.84,6.39
	l2.06-0.98v2.33L177.83,112.56z"/>
<path class="st0" d="M159.67,182.74c3.59-2.94,8.28-4.11,12.11-6.7c4.76-3.18,6.05-9.37,8.83-14c4.97-8.31,12.47-6.55,14.32-24.71
	c1.32-12.89-4.57-15.3-7.43-21.81c-5.25,2.8-13.01,6.99-17.83,9.59c1.24,17.74-9.11,35.05-26.56,41.78
	c-14.04,5.47-29.32,2.74-40.48-5.87c-5.73,3-15.08,7.83-21.43,11.18c1.49,1.12,2.92,2.31,4.27,3.52
	c5.87,5.29,7.33,10.76,16.91,14.39c6.79,2.53,11.34,1.91,16.52,2.98c6.4,1.24,12.65,4.12,19.09,3.25
	C154.69,194.3,154.17,187.11,159.67,182.74z M174.99,128.42l2.99-1.64c2.02-1.14,1.37,1.77,0.74,2.07l-2.95,1.7
	C173,132.18,174.31,128.75,174.99,128.42z M174.7,133.27l3.13-1.31c2.14-0.85,1.17,1.93,0.5,2.17l-3.09,1.41
	C172.32,136.84,173.96,133.59,174.7,133.27z M173.89,138.11l3.24-0.93c2.22-0.68,0.99,1.98,0.27,2.22l-3.23,1.02
	C171.15,141.41,173.15,138.39,173.89,138.11z M172.58,142.91l3.34-0.66c2.27-0.46,0.75,2.08,0.02,2.24l-3.32,0.7
	C169.52,145.9,171.78,143.04,172.58,142.91z M170.77,147.45l3.37-0.3c2.34-0.17,0.56,2.17-0.18,2.29l-3.38,0.33
	C167.42,150.12,169.98,147.49,170.77,147.45z M168.49,151.81l3.41,0.11c2.31,0.05,0.32,2.17-0.42,2.2h-3.42
	C164.87,154.12,167.69,151.81,168.49,151.81z M165.78,155.93l3.38,0.43c2.29,0.31,0.07,2.25-0.67,2.12l-3.37-0.33
	C161.95,157.83,165,155.8,165.78,155.93z M162.65,159.75l3.31,0.79c2.25,0.53-0.15,2.19-0.89,2.03l-3.31-0.71
	C158.64,161.23,161.88,159.55,162.65,159.75z M159.14,163.17l3.2,1.14c2.21,0.76-0.35,2.2-1.07,1.96l-3.24-1.06
	C154.99,164.21,158.39,162.94,159.14,163.17z M155.26,166.23l3.1,1.49c2.09,0.96-0.6,2.1-1.28,1.79l-3.12-1.35
	C151.03,166.84,154.59,165.93,155.26,166.23z M151.14,168.87l2.92,1.76c1.97,1.21-0.86,2.06-1.48,1.73l-2.96-1.73
	C146.84,169.04,150.47,168.51,151.14,168.87z M146.75,171.07l2.68,2.08c1.85,1.41-1.03,1.96-1.62,1.54l-2.78-2.04
	C142.46,170.8,146.09,170.61,146.75,171.07z M142.12,172.76l2.47,2.37c1.71,1.56-1.23,1.84-1.81,1.35l-2.51-2.29
	C137.92,172.08,141.55,172.32,142.12,172.76z M137.36,174l2.22,2.62c1.5,1.77-1.41,1.73-1.91,1.13l-2.32-2.51
	C133.22,172.91,136.86,173.45,137.36,174z M132.48,174.76l1.96,2.76c1.32,1.96-1.59,1.6-2.03,0.97l-2.02-2.7
	C128.49,173.17,132.05,174.14,132.48,174.76z M127.61,175l1.6,2.98c1.1,2-1.7,1.35-2.11,0.68l-1.7-2.93
	C123.81,172.98,127.22,174.3,127.61,175z M122.72,174.69l1.31,3.11c0.89,2.12-1.88,1.25-2.21,0.55l-1.39-3.13
	C119.15,172.32,122.39,173.94,122.72,174.69z M117.84,173.86l0.99,3.26c0.68,2.23-1.99,0.99-2.25,0.26l-1.05-3.21
	C114.57,171.11,117.62,173.09,117.84,173.86z M113.1,172.5l0.65,3.39c0.43,2.29-2.08,0.74-2.23,0.04l-0.71-3.34
	C110.13,169.48,112.97,171.79,113.1,172.5z M108.53,170.78l0.26,3.36c0.19,2.32-2.15,0.55-2.22-0.23l-0.35-3.38
	C105.85,167.38,108.45,169.96,108.53,170.78z M101.89,168.05c0-3.18,2.3-0.33,2.26,0.46l-0.07,3.33c-0.04,2.35-2.19,0.35-2.19-0.4
	V168.05L101.89,168.05z M97.83,165.08c0.31-3.21,2.35-0.07,2.23,0.64l-0.42,3.37c-0.33,2.35-2.23,0.13-2.17-0.58L97.83,165.08z
	 M135.57,193.95c-4.69-0.08-9.17-1.74-13.68-2.83c-8.18-1.99-15.25-0.99-22.83-5.41c-4.05-2.53-6.57-6.29-9.74-9.73
	c-1.05-1.15-2.2-2.23-3.37-3.22l7.6-4.03c9.32,7.89,21.36,12.69,34.45,12.69c29.39,0,53.38-24.02,53.38-53.4
	c0-2.09-0.11-4.14-0.36-6.11l5.4-2.91c1.49,2.43,3.35,4.67,4.63,7.26c3.09,6.88,1.57,18.38-3.1,24.38
	c-1.85,2.19-4.12,3.82-6.15,5.78c-2.51,2.61-4.12,5.45-5.6,8.76c-1.48,3.25-2.86,6.69-5.88,8.76c-4.85,3.2-10.34,4.37-14.38,8.85
	c-1.65,1.86-2.96,4-4.71,5.81C147.34,192.25,140.8,193.9,135.57,193.95z"/>
<path class="st0" d="M114.18,92.05c-14.84,5.72-24.09,19.7-24.67,34.67l58.79-31.5C138.34,89.13,125.84,87.58,114.18,92.05z
	 M121.58,104.58l-2.03-4.19l-15.47,12.71l-1.21-2.68l-3.84,2.23l4.84-7.24l1.81,3.03l15.28-12.33l2.02,4.63l5.4-3.24L121.58,104.58z
	"/>
<path class="st0" d="M173,91.49l-2.3,1.07v9.27l2.15-1.21c0,0,1.74-0.59,1.74-3.02V92.9C174.59,92.9,174.21,90.94,173,91.49z"/>
<path class="st0" d="M108.53,125.95l-2.31,1.13v9.18l2.12-1.2c0,0,1.79-0.59,1.79-3.02v-4.69
	C110.13,127.36,109.74,125.4,108.53,125.95z"/>
<path class="st0" d="M142.04,164.07c15.72-6.08,25.2-21.42,24.65-37.39l-61.11,32.73C115.8,166.72,129.42,168.93,142.04,164.07z
	 M131.21,152.44l0.98,4l15.11-11.88l1.39,2.43l3.63-2.21l-4.24,6.65l-2.42-2.62l-15.89,12.92l-0.38-4.21l-4.6,0.19L131.21,152.44z"
	/>
<path class="st0" d="M179.47,167.36c0,4.88-9.49,12.2-12.86,13.42c-3.42,1.22-6.82,3.41-7.78,5.1c-1,1.74-5.84,6.84-5.84,6.84
	s10.69,15.66,14.33,21.27c3.66,5.61,6.31-0.98,6.07-0.76c-0.21,0.21,7.85-27.41,10.45-35.88
	C186.47,168.87,179.47,167.36,179.47,167.36z"/>
<path class="st0" d="M194.8,161.48l-5.34-4.87c-4.19,1.15-8.81,8.47-8.28,9.02l4.87,3.2c2.02,1.32,1.45,4.62,1.45,4.62
	s-5.12,19.27-6.32,23.67c-1.21,4.39,0,4.66,0,4.66l1.47,1.66c2.19,3.23,3.66-1.66,3.66-1.66s8.49-26.88,10.18-32.96
	C198.21,162.73,194.8,161.48,194.8,161.48z"/>
</svg>
