<svg xmlns="http://www.w3.org/2000/svg" viewBox="0 0 256 256"><path d="M128 0C57.5 0 0 57.5 0 128c0 70.4 57.5 128 128 128s128-57.6 128-128C256 57.5 198.5 0 128 0zm0 253C59.2 253 3 196.9 3 128S59.2 2.9 128 2.9 253 59.1 253 128c0 68.9-56.2 125-125 125z"/><path d="M128 8C61.9 8 8 61.9 8 128c0 66 53.9 120 120 120s120-54 120-120C248 61.9 194.1 8 128 8zm0 237c-64.4 0-117-52.6-117-117C11 63.5 63.6 11 128 11s117 52.5 117 117c0 64.4-52.6 117-117 117z"/><path d="M128 25.8C71.7 25.8 25.8 71.7 25.8 128c0 56.2 45.9 102.1 102.2 102.1 14.1 0 27.5-2.9 39.7-8.1l.1.2c1.6 2.4 5.8 5.5 7.1 1.6l4.9-15.2c.1-.2.2-1 .5-.7l3.4 3.4c1 1 1.9 1.9 3.3 1.6 1.2-.2 1.4-1.2 1.8-2.2l.3-1c24.9-18.6 41.1-48.4 41.1-81.7 0-56.3-45.9-102.2-102.2-102.2zm59.2 184.5c-.1.4-.2 1.2-.8 1-.5-.2-.9-.5-1.2-.9l-3.6-3.6c-1.5-1.4-2.9-.4-3.3 1.1l-4.9 15.3c-.7 2.2-3.1-.5-3.7-1.5-6.1-8.6-12.3-17.7-18.1-26-7.4 4.8-16.9 4.9-25.7 2.5-2.9-.7-5.8-1.7-8.8-2.1-3.1-.5-6.3-.5-9.4-1.1-6-1.1-11.6-3.5-16-7.7-3-2.9-5.3-6.4-8.4-9.2-6.8-6.1-14.5-10-19-18.3a35.6 35.6 0 01-4.5-16c-.2-6.3 1-12.5 1.1-18.8.1-11.6-1.1-24.4 5.5-34.7 5.5-8.5 14.8-11.8 22.3-18.1 2.5-2.1 4.4-4.8 6.7-7 6.7-6.6 15.4-8.2 24.7-7.2 3.8.4 7.4 1.4 11.2 1.9 3.2.4 6.4.4 9.6.9 7.3 1.1 12.8 5 18.9 8.8 3.6 2.2 7.6 3.5 11.4 5.4 10 5 15.3 13 17 24.1.7 4.7.6 9.6 2.2 14.1 1.2 3.3 3.7 5.8 5.4 8.9 4.7 8.5 3.5 20.5-.8 28.7-.8 1.6-1.6 2.5-2.6 3.6 2.3 2 4.1 3.6 6.9 5.9 1.7 1.4 2.1 3.8 1.5 5.7l-13.6 44.3zm3.4-5.4l11.7-38.2c.8-2.6.1-5.5-2.1-7.5l-4.9-4.4c7-9.7 8.1-25.2 1.7-35.3-1.4-2.2-3.2-4.3-4.2-6.7-1.1-2.9-1.4-6.2-1.7-9.3-1.4-14-6.1-24.3-19.2-30.7-3.6-1.8-7.5-3-10.9-5.2-6.5-3.9-12.5-8-20.1-9.1-3.4-.5-6.7-.4-10.1-.9-9-1.3-16.6-3.4-25.6-.8-4.8 1.4-9.1 4.1-12.6 7.7-1.9 2-3.5 4.2-5.6 5.9-5.9 4.8-12.9 8-18.4 13.3-10.7 10.4-10.5 24-10.3 38.2 0 9.6-2.2 19.3-.2 28.9.5 2.5 1.3 4.9 2.4 7.3 1.4 3.1 3 5.8 5.2 8.4 4.6 5.3 10.7 9 15.9 13.6 2.6 2.4 4.7 5.4 7.1 8 5.1 5.3 11.4 8.1 18.5 9.5 3.8.7 7.8.7 11.6 1.6 2.1.4 4.2 1.1 6.2 1.6 8.8 2.4 18.5 2.2 26.4-1.9l14.7 20.9a98 98 0 01-38 7.6c-54.6 0-99.2-44.5-99.2-99.2s44.6-99.3 99.2-99.3 99.2 44.6 99.2 99.3c-.1 30.7-14.4 58.4-36.7 76.7z"/><path d="M128 31.8c-53 0-96.3 43.2-96.3 96.3 0 52.9 43.3 96.2 96.3 96.2 10.3 0 22-2.5 31.4-5.5l-9.8-13.8c-8.3 3.1-17.9 2.8-27.2.2-1.1-.3-2.2-.6-3.4-.9-4.4-1.1-9.1-1.1-13.6-1.9-8-1.7-15.1-5.1-20.7-11.1-2.4-2.6-4.4-5.5-7-7.8-7.1-6.2-14.8-10.8-19.8-19.3l-2.4-4.8c-2.6-6.1-3.4-12.2-3.4-18.6.1-6.3 1.1-12.5 1.1-18.8-.1-16.9.3-31.8 13.7-43.5 3.3-2.8 6.8-5 10.4-7.4 4-2.6 7.2-4.9 10.3-8.6 7.5-8.6 17-12.4 28.2-12 5.3.2 10.5 1.2 15.7 2 3.2.5 6.4.5 9.6.9 8.4 1.2 15.3 5.5 22.4 9.8 2.9 1.7 6 2.9 9 4.2 15.5 7.2 21.9 19.1 23.6 35.8.3 3.2.5 6.5 2.1 9.3.9 1.4 1.9 2.7 2.8 4 7.2 11.1 6.8 27.2 0 38.8l4.4 3.9c2.6 2.2 1.4 5.9 1.4 5.9l-8.7 28.7c15.2-17 26-41.1 26-65.6.1-53.3-43.1-96.4-96.1-96.4z"/><path d="M63.1 140.4c6.9-3.7 17-8.6 23.4-12.1-.1-16.8 10.1-32.8 26.6-39.1 13.2-5.1 27.4-3 38.3 4.3 6.4-3.5 16.3-8.7 23.1-12.4-5.2-4-11-5.1-16.3-8.3-3.5-2.2-6.9-4.5-10.7-6.3-5.9-2.8-10.7-2.3-16.2-2.9-7.6-.9-12.5-3.6-23.1-1.5C98 64 96 70.8 90.2 75.4c-7.5 6-17.6 9.9-22.1 18.5-4.8 9.3-4 20.8-4 31.3 0 5.3-.9 10.2-1 15.2zM81 127.6l-3 1.7c-2 1.1-1.4-1.8-.7-2.1l2.9-1.7c2.8-1.7 1.5 1.7.8 2.1zm.3-4.9l-3.2 1.3c-2.1.9-1.2-1.9-.5-2.2l3.1-1.4c3-1.3 1.4 2 .6 2.3zm.8-4.9l-3.2 1c-2.2.7-1-2-.3-2.2l3.2-1.1c3.1-1 1.1 2.1.3 2.3zm1.3-4.7l-3.3.6c-2.3.4-.7-2.1 0-2.2l3.3-.7c3.1-.7.8 2.1 0 2.3zm1.8-4.6l-3.4.3c-2.3.2-.6-2.1.2-2.2l3.4-.4c3.2-.3.6 2.2-.2 2.3zm2.3-4.4l-3.4-.1c-2.3-.1-.3-2.2.4-2.2h3.4c3.2 0 .4 2.3-.4 2.3zm2.7-4.1l-3.3-.4c-2.3-.3-.1-2.2.6-2.1l3.4.4c3.2.2.1 2.2-.7 2.1zm3.2-3.8l-3.4-.7c-2.2-.6.2-2.3.9-2.1l3.3.7c3.2.7-.1 2.3-.8 2.1zm3.5-3.4l-3.2-1.1c-2.2-.8.4-2.2 1.1-2l3.2 1c3 1.1-.4 2.4-1.1 2.1zm3.8-3.1l-3.1-1.5c-2.1-.9.6-2.1 1.3-1.8l3.1 1.4c3 1.3-.6 2.3-1.3 1.9zm4.2-2.6l-2.9-1.8c-2-1.2.8-2 1.5-1.6l2.9 1.6c2.8 1.6-.8 2.2-1.5 1.8zm4.4-2.2l-2.7-2.1c-1.9-1.4 1-2 1.6-1.5l2.8 2c2.5 1.9-1.1 2-1.7 1.6zm4.6-1.7l-2.5-2.4c-1.7-1.6 1.2-1.8 1.8-1.3l2.5 2.2c2.4 2.2-1.2 2-1.8 1.5zm4.8-1.3l-2.2-2.6c-1.5-1.8 1.4-1.7 2-1.2l2.3 2.6c2 2.4-1.6 1.8-2.1 1.2zm4.8-.7l-1.9-2.8c-1.3-1.9 1.6-1.5 2-1l2 2.8c1.9 2.6-1.7 1.7-2.1 1zm4.9-.2l-1.6-3c-1.1-2.1 1.7-1.4 2.1-.8l1.7 3c1.6 2.8-1.8 1.5-2.2.8zm4.9.3l-1.3-3.1c-.9-2.1 1.9-1.2 2.2-.5l1.4 3.1c1.3 2.9-2 1.2-2.3.5zm4.9.8l-1-3.3c-.7-2.2 2-.9 2.2-.2l1.1 3.3c.9 2.9-2.1 1-2.3.2zm4.7 1.3l-.6-3.3c-.4-2.3 2.1-.8 2.2 0l.7 3.3c.7 3.1-2.2.8-2.3 0zm4.6 1.8l-.3-3.4c-.2-2.3 2.2-.6 2.2.2l.4 3.4c.3 3.2-2.3.6-2.3-.2zm6.6 2.8c0 3.1-2.3.2-2.3-.4l.1-3.4c0-2.3 2.2-.3 2.2.4V88zm-83.3 6.3c5.4-8.7 16.1-12 23.2-19 2.3-2.3 4.3-4.9 6.7-7 4.9-4.1 11.7-4.9 17.9-4.3 4.2.4 8.3 1.6 12.4 2.1 4 .4 8.1.3 12 1.4 6 1.8 11.1 6.2 16.6 9 3.2 1.6 6.6 2.8 9.7 4.5l-8.9 4.7c-9-7-20.3-11.1-32.6-11.1a53.52 53.52 0 00-53.3 57.1l-8.9 4.7c.3-3.8.7-7.4.8-11.2.3-10.1-.7-21.6 4.4-30.9zM179.1 85.7c-.9-1.1-1.7-2-2.6-2.8L63.1 143.3c.1 5 1.2 10.2 4.8 16.1 2.7 4.6 6.9 7.9 11.2 11.1l107.7-57.4c-2.7-9-.5-18.4-7.7-27.4zm-92.4 55.2l-3 1.1c0-1.2.2-3.1-1.6-2.2-1.8.9-1.8 1.3-1.9 2.7v17s-.3 1.8 1.2 1.1c1.5-.5 2-.2 2-2.4v-2.4l2.9-1.4v4.7s.3 2.7-1.8 3.9l-4.2 1.9s-3.4 2-3.4-2.2V142s-.6-3.1 2.6-4.9l5.2-2.2s2-1.1 2 1.1v4.9zm13.4 13.6l-3.4 2V144l-3.9 2v12.6l-3.4 2V133l3.4-1.9v11.6l3.9-2V129l3.4-1.9v27.4zm16.7-9.5l-3.5 1.9-4.8-7.8-2.3 1.1v11l-3.4 1.9v-27.4l3.4-2 3-1.5s3.8-2 3.8 2.2 0 8.4 0 8.4-.6 3.4-2.2 4.3l3.8 6.4 2.1-1v2.5zm6.6-16.7v13.5l-3.4 1.7V129l-5.6-9.4 3.4-1.5 3.4 6.1 2.5-9.8 3.9-2.3-4.2 16.2zm13.6 7.1l-4.9 1.7s-2.5 1.4-2.5-1.4v-2.9l2.7-1v1.8s0 .8 1.6.3l1.2-.7s1 .1 1-1.7v-6s0-1.7-1.2-1l-3 1.2s-2.4.4-2.4-2.5c0-3 0-9.7 0-9.7s-.4-2.1 1.8-3.3l4.8-2.4s2.9-1.9 2.9 1.8v3.7l-2.3 1v-1.7s.1-2.2-1.4-1.4l-1.3.6s-.9.3-.9 1.5v6.9s.2 1.8 1.6.9l2.2-.8s2.4-1.3 2.4 1.4v9.7c.1-.1.3 2.5-2.3 4zm15.6-9l-8.9 4.4v-27.4l3.5-1.8v24.2l5.4-2.7v3.3zm12.2-30.1l-6.2 3.2v8.3l3.7-1.9v4.2l-3.7 1.8v8.3l6.2-3.2v2.8l-9.2 4.8V97.2l9.2-4.8v3.9zm13 16.3l-4.8-7.9-2.3 1.2v11l-3.4 1.9V91.3l3.4-1.9 3-1.5s3.9-2 3.9 2.2c0 4.3 0 8.4 0 8.4s-.5 3.4-2.2 4.3l3.8 6.4 2.1-1v2.3l-3.5 2.1zM159.7 182.7c3.6-2.9 8.3-4.1 12.1-6.7 4.8-3.2 6.1-9.4 8.8-14 5-8.3 12.5-6.6 14.3-24.7 1.3-12.9-4.6-15.3-7.4-21.8-5.2 2.8-13 7-17.8 9.6 1.2 17.7-9.1 35.1-26.6 41.8-14 5.5-29.3 2.7-40.5-5.9-5.7 3-15.1 7.8-21.4 11.2 1.5 1.1 2.9 2.3 4.3 3.5 5.9 5.3 7.3 10.8 16.9 14.4 6.8 2.5 11.3 1.9 16.5 3 6.4 1.2 12.6 4.1 19.1 3.2 16.7-2 16.2-9.2 21.7-13.6zm15.3-54.3l3-1.6c2-1.1 1.4 1.8.7 2.1l-2.9 1.7c-2.8 1.6-1.5-1.8-.8-2.2zm-.3 4.9l3.1-1.3c2.1-.9 1.2 1.9.5 2.2l-3.1 1.4c-2.9 1.2-1.2-2-.5-2.3zm-.8 4.8l3.2-.9c2.2-.7 1 2 .3 2.2l-3.2 1c-3.1 1-1.1-2-.3-2.3zm-1.3 4.8l3.3-.7c2.3-.5.8 2.1 0 2.2l-3.3.7c-3.1.8-.8-2.1 0-2.2zm-1.8 4.5l3.4-.3c2.3-.2.6 2.2-.2 2.3l-3.4.3c-3.2.4-.6-2.2.2-2.3zm-2.3 4.4l3.4.1c2.3.1.3 2.2-.4 2.2h-3.4c-3.2 0-.4-2.3.4-2.3zm-2.7 4.1l3.4.4c2.3.3.1 2.2-.7 2.1l-3.4-.3c-3.2-.3-.1-2.3.7-2.2zm-3.2 3.9l3.3.8c2.2.5-.1 2.2-.9 2l-3.3-.7c-3.1-.7.2-2.3.9-2.1zm-3.5 3.4l3.2 1.1c2.2.8-.4 2.2-1.1 2l-3.2-1.1c-3-1 .4-2.3 1.1-2zm-3.8 3l3.1 1.5c2.1 1-.6 2.1-1.3 1.8l-3.1-1.4c-3-1.3.6-2.2 1.3-1.9zm-4.2 2.7l2.9 1.8c2 1.2-.9 2.1-1.5 1.7l-3-1.7c-2.7-1.7 1-2.2 1.6-1.8zm-4.3 2.2l2.7 2.1c1.9 1.4-1 2-1.6 1.5l-2.8-2c-2.6-1.9 1-2.1 1.7-1.6zm-4.7 1.7l2.5 2.4c1.7 1.6-1.2 1.8-1.8 1.4l-2.5-2.3c-2.4-2.2 1.3-2 1.8-1.5zm-4.7 1.2l2.2 2.6c1.5 1.8-1.4 1.7-1.9 1.1l-2.3-2.5c-2.2-2.3 1.5-1.8 2-1.2zm-4.9.8l2 2.8c1.3 2-1.6 1.6-2 1l-2-2.7c-2-2.7 1.6-1.8 2-1.1zm-4.9.2l1.6 3c1.1 2-1.7 1.4-2.1.7l-1.7-2.9c-1.6-2.8 1.8-1.5 2.2-.8zm-4.9-.3l1.3 3.1c.9 2.1-1.9 1.2-2.2.6l-1.4-3.1c-1.2-3 2-1.4 2.3-.6zm-4.9-.8l1 3.3c.7 2.2-2 1-2.2.3l-1.1-3.2c-.9-3.2 2.1-1.2 2.3-.4zm-4.7-1.4l.7 3.4c.4 2.3-2.1.7-2.2 0l-.7-3.3c-.8-3.1 2.1-.8 2.2-.1zm-4.6-1.7l.3 3.4c.2 2.3-2.2.6-2.2-.2l-.3-3.4c-.5-3.2 2.1-.6 2.2.2zm-6.6-2.7c0-3.2 2.3-.3 2.3.5l-.1 3.3c0 2.4-2.2.4-2.2-.4v-3.4zm-4.1-3c.3-3.2 2.3-.1 2.2.6l-.4 3.4c-.3 2.4-2.2.1-2.2-.6l.4-3.4zm37.8 28.8c-4.7-.1-9.2-1.7-13.7-2.8-8.2-2-15.2-1-22.8-5.4-4.1-2.5-6.6-6.3-9.7-9.7-1.1-1.1-2.2-2.2-3.4-3.2l7.6-4c9.3 7.9 21.4 12.7 34.4 12.7 29.4 0 53.4-24 53.4-53.4 0-2.1-.1-4.1-.4-6.1l5.4-2.9c1.5 2.4 3.4 4.7 4.6 7.3 3.1 6.9 1.6 18.4-3.1 24.4-1.9 2.2-4.1 3.8-6.1 5.8-2.5 2.6-4.1 5.4-5.6 8.8-1.5 3.2-2.9 6.7-5.9 8.8-4.9 3.2-10.3 4.4-14.4 8.9-1.6 1.9-3 4-4.7 5.8-3.9 3.3-10.4 5-15.6 5z"/><path d="M114.2 92.1a38.83 38.83 0 00-24.7 34.7l58.8-31.5c-10-6.2-22.5-7.7-34.1-3.2zm7.4 12.5l-2-4.2-15.5 12.7-1.2-2.7-3.8 2.2 4.8-7.2 1.8 3L121 96.1l2 4.6 5.4-3.2-6.8 7.1zM173 91.5l-2.3 1.1v9.3l2.1-1.2s1.7-.6 1.7-3V93c.1-.1-.3-2.1-1.5-1.5zM108.5 125.9l-2.3 1.1v9.2l2.1-1.2s1.8-.6 1.8-3v-4.7c0 .1-.4-1.9-1.6-1.4zM142 164.1a38.62 38.62 0 0024.6-37.4l-61.1 32.7c10.3 7.3 23.9 9.5 36.5 4.7zm-10.8-11.7l1 4 15.1-11.9 1.4 2.4 3.6-2.2-4.2 6.6-2.4-2.6-15.9 12.9-.4-4.2-4.6.2 6.4-5.2zM179.5 167.4c0 4.9-9.5 12.2-12.9 13.4-3.4 1.2-6.8 3.4-7.8 5.1-1 1.7-5.8 6.8-5.8 6.8s10.7 15.7 14.3 21.3c3.7 5.6 6.3-1 6.1-.8-.2.2 7.9-27.4 10.4-35.9 2.7-8.4-4.3-9.9-4.3-9.9z"/><path d="M194.8 161.5l-5.3-4.9c-4.2 1.1-8.8 8.5-8.3 9l4.9 3.2c2 1.3 1.4 4.6 1.4 4.6s-5.1 19.3-6.3 23.7c-1.2 4.4 0 4.7 0 4.7l1.5 1.7c2.2 3.2 3.7-1.7 3.7-1.7s8.5-26.9 10.2-33c1.6-6.1-1.8-7.3-1.8-7.3z"/></svg>