<?xml version="1.0" encoding="utf-8"?>
<!-- Generator: Adobe Illustrator 24.0.0, SVG Export Plug-In . SVG Version: 6.00 Build 0)  -->
<svg version="1.1" id="Layer_1" xmlns="http://www.w3.org/2000/svg" xmlns:xlink="http://www.w3.org/1999/xlink" x="0px" y="0px"
	 viewBox="0 0 256 256" style="enable-background:new 0 0 256 256;" xml:space="preserve">
<style type="text/css">
	.st0{fill:#8699A3;}
</style>
<g>
	<path class="st0" d="M249.57,240.83c0.65,0.63,1.6,1.37,3.29,1.17c2.48-0.3,2.54-4.08,2.54-4.08s0.59-8.59,0.59-17.28
		c0-10.88-8.52-20.46-8.52-20.46s-88.5-97.48-119.49-97.48c-30.97,0-119.45,97.48-119.45,97.48S0,209.77,0,220.65
		c0,8.67,0.58,17.28,0.58,17.28s0.09,3.78,2.55,4.08c1.7,0.2,2.63-0.53,3.32-1.17c9.89-8.6,88.84-76.37,121.54-76.37
		C160.72,164.47,239.67,232.23,249.57,240.83z"/>
	<path class="st0" d="M3.14,152.3c1.7,0.2,2.63-0.52,3.32-1.12C16.35,142.6,95.3,74.77,128,74.77c32.72,0,111.67,67.83,121.58,76.41
		c0.65,0.6,1.6,1.32,3.29,1.12c2.48-0.24,2.54-4.03,2.54-4.03s0.59-8.63,0.59-17.3c0-10.93-8.52-20.48-8.52-20.48S158.98,13,128,13
		C97.03,13,8.55,110.49,8.55,110.49S0,120.04,0,130.96c0,8.68,0.58,17.3,0.58,17.3S0.68,152.06,3.14,152.3z"/>
</g>
</svg>
