<?xml version="1.0" encoding="utf-8"?>
<!-- Generator: Adobe Illustrator 24.0.0, SVG Export Plug-In . SVG Version: 6.00 Build 0)  -->
<svg version="1.1" id="Layer_1" xmlns="http://www.w3.org/2000/svg" xmlns:xlink="http://www.w3.org/1999/xlink" x="0px" y="0px"
	 viewBox="0 0 256 256" style="enable-background:new 0 0 256 256;" xml:space="preserve">
<g>
	<path d="M249.6,240.8c0.6,0.6,1.6,1.4,3.3,1.2c2.5-0.3,2.5-4.1,2.5-4.1s0.6-8.6,0.6-17.3c0-10.9-8.5-20.5-8.5-20.5
		S159,102.7,128,102.7c-31,0-119.4,97.5-119.4,97.5S0,209.8,0,220.6c0,8.7,0.6,17.3,0.6,17.3s0.1,3.8,2.5,4.1
		c1.7,0.2,2.6-0.5,3.3-1.2c9.9-8.6,88.8-76.4,121.5-76.4C160.7,164.5,239.7,232.2,249.6,240.8z"/>
	<path d="M3.1,152.3c1.7,0.2,2.6-0.5,3.3-1.1c9.9-8.6,88.8-76.4,121.5-76.4c32.7,0,111.7,67.8,121.6,76.4c0.6,0.6,1.6,1.3,3.3,1.1
		c2.5-0.2,2.5-4,2.5-4s0.6-8.6,0.6-17.3c0-10.9-8.5-20.5-8.5-20.5S159,13,128,13C97,13,8.6,110.5,8.6,110.5S0,120,0,131
		c0,8.7,0.6,17.3,0.6,17.3S0.7,152.1,3.1,152.3z"/>
</g>
</svg>
