<?xml version="1.0" encoding="utf-8"?>
<!-- Generator: Adobe Illustrator 24.0.0, SVG Export Plug-In . SVG Version: 6.00 Build 0)  -->
<svg version="1.1" id="Layer_1" xmlns="http://www.w3.org/2000/svg" xmlns:xlink="http://www.w3.org/1999/xlink" x="0px" y="0px"
	 viewBox="0 0 256 256" style="enable-background:new 0 0 256 256;" xml:space="preserve">
<style type="text/css">
	.st0{fill:#8699A3;}
</style>
<g>
	<path class="st0" d="M100.46,234.36c0,0,10.57,1.16,24.29,1.33c1,13.16,1.81,20.31,1.81,20.31h3.38c0,0,0.75-7.15,1.77-20.31
		c13.7-0.16,24.32-1.33,24.32-1.33c5.1-33.49,6.96-69.87,7.15-102.01c11.27-1.33,20.29-2.61,20.29-2.61v-3.33
		c0,0-9.01-1.33-20.29-2.61c-0.19-32.26-2.05-68.61-7.15-102.01c0,0-10.62-1.21-24.32-1.49C130.69,7.22,129.94,0,129.94,0h-3.38
		c0,0-0.82,7.22-1.81,20.31c-13.72,0.28-24.34,1.49-24.34,1.49c-5.07,33.4-6.96,69.75-7.01,102.01c-11.34,1.28-20.4,2.61-20.4,2.61
		v3.33c0,0,9.06,1.24,20.4,2.61C93.45,164.5,95.34,200.87,100.46,234.36z M148.41,31.67c4.45,31.35,5.57,70.71,5.73,91.13
		c-6.47-0.67-13.14-1.26-18.84-1.51c-0.19-37.91-1.54-68.61-2.84-89.62H148.41z M135.3,134.89c5.71-0.37,12.37-0.86,18.84-1.61
		c-0.16,20.49-1.28,59.83-5.73,91.06h-15.95C133.76,203.39,135.11,172.72,135.3,134.89z M108.05,31.67h16
		c-1.35,21.01-2.73,51.7-2.91,89.62c-5.71,0.26-12.34,0.88-18.73,1.51C102.46,102.38,103.58,63.02,108.05,31.67z M121.14,134.89
		c0.19,37.82,1.56,68.49,2.91,89.45h-16c-4.47-31.23-5.59-70.57-5.64-91.06C108.8,134.03,115.43,134.52,121.14,134.89z"/>
</g>
</svg>
