<?xml version="1.0" encoding="utf-8"?>
<!-- Generator: Adobe Illustrator 24.0.0, SVG Export Plug-In . SVG Version: 6.00 Build 0)  -->
<svg version="1.1" id="Layer_1" xmlns="http://www.w3.org/2000/svg" xmlns:xlink="http://www.w3.org/1999/xlink" x="0px" y="0px"
	 viewBox="0 0 256 256" style="enable-background:new 0 0 256 256;" xml:space="preserve">
<g>
	<path d="M100.5,234.4c0,0,10.6,1.2,24.3,1.3c1,13.2,1.8,20.3,1.8,20.3h3.4c0,0,0.8-7.1,1.8-20.3c13.7-0.2,24.3-1.3,24.3-1.3
		c5.1-33.5,7-69.9,7.1-102c11.3-1.3,20.3-2.6,20.3-2.6v-3.3c0,0-9-1.3-20.3-2.6c-0.2-32.3-2.1-68.6-7.1-102c0,0-10.6-1.2-24.3-1.5
		c-1-13.1-1.8-20.3-1.8-20.3h-3.4c0,0-0.8,7.2-1.8,20.3c-13.7,0.3-24.3,1.5-24.3,1.5c-5.1,33.4-7,69.8-7,102
		c-11.3,1.3-20.4,2.6-20.4,2.6v3.3c0,0,9.1,1.2,20.4,2.6C93.4,164.5,95.3,200.9,100.5,234.4z M148.4,31.7
		c4.4,31.4,5.6,70.7,5.7,91.1c-6.5-0.7-13.1-1.3-18.8-1.5c-0.2-37.9-1.5-68.6-2.8-89.6C132.5,31.7,148.4,31.7,148.4,31.7z
		 M135.3,134.9c5.7-0.4,12.4-0.9,18.8-1.6c-0.2,20.5-1.3,59.8-5.7,91.1h-15.9C133.8,203.4,135.1,172.7,135.3,134.9z M108.1,31.7h16
		c-1.3,21-2.7,51.7-2.9,89.6c-5.7,0.3-12.3,0.9-18.7,1.5C102.5,102.4,103.6,63,108.1,31.7z M121.1,134.9c0.2,37.8,1.6,68.5,2.9,89.4
		h-16c-4.5-31.2-5.6-70.6-5.6-91.1C108.8,134,115.4,134.5,121.1,134.9z"/>
</g>
</svg>
