<?xml version="1.0" encoding="utf-8"?>
<!-- Generator: Adobe Illustrator 24.0.0, SVG Export Plug-In . SVG Version: 6.00 Build 0)  -->
<svg version="1.1" id="Layer_1" xmlns="http://www.w3.org/2000/svg" xmlns:xlink="http://www.w3.org/1999/xlink" x="0px" y="0px"
	 viewBox="0 0 256 256" style="enable-background:new 0 0 256 256;" xml:space="preserve">
<style type="text/css">
	.st0{fill:#8699A3;}
</style>
<g>
	<g>
		<path class="st0" d="M128,193.98c70.48,0,128-29.47,128-65.52C256,92.33,198.48,63,128,63C57.45,63,0,92.4,0,128.45
			C0,164.58,57.45,193.98,128,193.98z M128,78.51c64.96,0,117.94,22.45,117.94,49.94c0,27.56-52.99,49.94-117.94,49.94
			S10.06,155.94,10.06,128.45C9.99,100.97,62.97,78.51,128,78.51z"/>
		<polygon class="st0" points="173.19,159.62 185.73,115.99 198.2,159.62 215.41,159.62 197.63,97.07 190.41,97.07 180.42,97.07 
			171.21,97.07 171.21,99.98 173.69,99.98 155.98,159.62 		"/>
		<path class="st0" d="M50.51,159.62h17.21v-27.27l19.41,25.71h19.98l-23.09-30.6l19.9-28.97H83.94l-16.22,23.59V98.49H50.51v0.07
			h-3.05v2.55c1.06,0,2.13,0.14,3.12,0.5v58.01H50.51z"/>
		<path class="st0" d="M121.55,159.62h17.21V98.49h-17.21v0.07h-3.12v2.55c1.13,0,2.13,0.14,3.12,0.5V159.62z"/>
	</g>
</g>
</svg>
