<?xml version="1.0" encoding="utf-8"?>
<!-- Generator: Adobe Illustrator 24.0.0, SVG Export Plug-In . SVG Version: 6.00 Build 0)  -->
<svg version="1.1" id="Layer_1" xmlns="http://www.w3.org/2000/svg" xmlns:xlink="http://www.w3.org/1999/xlink" x="0px" y="0px"
	 viewBox="0 0 36.13 18.49" style="enable-background:new 0 0 36.13 18.49;" xml:space="preserve">
<style type="text/css">
	.st0{fill:#8699A3;}
</style>
<g>
	<g>
		<path class="st0" d="M18.07,18.49c9.95,0,18.07-4.16,18.07-9.25c0-5.1-8.12-9.24-18.07-9.24C8.11,0,0,4.15,0,9.24
			C0,14.34,8.11,18.49,18.07,18.49z M18.07,2.19c9.17,0,16.65,3.17,16.65,7.05c0,3.89-7.48,7.05-16.65,7.05
			c-9.17,0-16.65-3.17-16.65-7.05C1.41,5.36,8.89,2.19,18.07,2.19z"/>
		<polygon class="st0" points="24.45,13.64 26.22,7.48 27.98,13.64 30.41,13.64 27.9,4.81 26.88,4.81 25.47,4.81 24.17,4.81 
			24.17,5.22 24.52,5.22 22.02,13.64 		"/>
		<path class="st0" d="M7.13,13.64h2.43V9.79l2.74,3.63h2.82L11.86,9.1l2.81-4.09h-2.82L9.56,8.34V5.01H7.13v0.01H6.7v0.36
			c0.15,0,0.3,0.02,0.44,0.07V13.64z"/>
		<path class="st0" d="M17.16,13.64h2.43V5.01h-2.43v0.01h-0.44v0.36c0.16,0,0.3,0.02,0.44,0.07V13.64z"/>
	</g>
</g>
</svg>
