<svg xmlns="http://www.w3.org/2000/svg" viewBox="0 0 256 256"><path d="M128 194c70.5 0 128-29.5 128-65.5C256 92.3 198.5 63 128 63S0 92.4 0 128.4C0 164.6 57.5 194 128 194zm0-115.5c65 0 117.9 22.5 117.9 49.9 0 27.6-53 49.9-117.9 49.9S10.1 155.9 10.1 128.4C10 101 63 78.5 128 78.5z"/><path d="M173.2 159.6l12.5-43.6 12.5 43.6h17.2l-17.8-62.5h-26.4v2.9h2.5L156 159.6zM50.5 159.6h17.2v-27.3L87.1 158h20L84 127.5l19.9-29h-20l-16.2 23.6V98.5H50.5v.1h-3v2.6c1.1 0 2.1.1 3.1.5l-.1 57.9zM121.6 159.6h17.2V98.5h-17.2v.1h-3.1v2.6c1.1 0 2.1.1 3.1.5 0-.1 0 57.9 0 57.9z"/></svg>