<?xml version="1.0" encoding="utf-8"?>
<!-- Generator: Adobe Illustrator 24.0.0, SVG Export Plug-In . SVG Version: 6.00 Build 0)  -->
<svg version="1.1" id="Layer_1" xmlns="http://www.w3.org/2000/svg" xmlns:xlink="http://www.w3.org/1999/xlink" x="0px" y="0px"
	 viewBox="0 0 256 256" style="enable-background:new 0 0 256 256;" xml:space="preserve">
<g>
	<g>
		<path d="M128,194c70.5,0,128-29.5,128-65.5C256,92.3,198.5,63,128,63C57.5,63,0,92.4,0,128.4C0,164.6,57.5,194,128,194z M128,78.5
			c65,0,117.9,22.5,117.9,49.9c0,27.6-53,49.9-117.9,49.9S10.1,155.9,10.1,128.4C10,101,63,78.5,128,78.5z"/>
		<polygon points="173.2,159.6 185.7,116 198.2,159.6 215.4,159.6 197.6,97.1 190.4,97.1 180.4,97.1 171.2,97.1 171.2,100 
			173.7,100 156,159.6 		"/>
		<path d="M50.5,159.6h17.2v-27.3l19.4,25.7h20L84,127.5l19.9-29h-20l-16.2,23.6V98.5H50.5v0.1h-3v2.6c1.1,0,2.1,0.1,3.1,0.5
			L50.5,159.6L50.5,159.6z"/>
		<path d="M121.6,159.6h17.2V98.5h-17.2v0.1h-3.1v2.6c1.1,0,2.1,0.1,3.1,0.5C121.6,101.6,121.6,159.6,121.6,159.6z"/>
	</g>
</g>
</svg>
