<svg xmlns="http://www.w3.org/2000/svg" viewBox="0 0 32.75 31.26"><defs><style>.a,.b{fill:none;stroke:#000;stroke-linecap:round;stroke-linejoin:round;stroke-width:0.75px;}.b{fill-rule:evenodd;}</style></defs><title>586</title><circle class="a" cx="20.87" cy="23.97" r="2.21"/><circle class="a" cx="6.04" cy="23.97" r="2.21"/><path class="b" d="M16.69,16.88c-3.59-.08-8.53-.12-10.63,0,.48-1,.85-3.64,1.34-4.58a1.51,1.51,0,0,1,1.34-.73,30.68,30.68,0,0,1,4.67-.27" transform="translate(0.38 -0.37)"/><path class="b" d="M24.55,16.61c.37,3.61,1.56,14.15,1.56,14.15a.48.48,0,0,1-.49.49H21.3a.5.5,0,0,1-.49-.49v-1.4H5.26v1.4a.48.48,0,0,1-.49.49H.49A.48.48,0,0,1,0,30.76s1-11.9,1.19-13.22h0A1.37,1.37,0,0,1,1,15.33C2.17,14.05,3.2,16,3.2,16h0c.56-1.16,1.16-4,1.72-5.18A3.08,3.08,0,0,1,7,9.31a35.9,35.9,0,0,1,6.42-.52" transform="translate(0.38 -0.37)"/><path class="a" d="M18.25,15.17a.37.37,0,0,0-.08-.44,7,7,0,0,1-1.94-2.93.38.38,0,0,0-.38-.25l-2,.12a9.1,9.1,0,0,1-.19-3.12l2-.12a.38.38,0,0,0,.35-.3A6.9,6.9,0,0,1,17.57,5a.36.36,0,0,0,0-.45L16.49,2.86A9.35,9.35,0,0,1,19.1,1.13l1.11,1.68a.35.35,0,0,0,.43.15,7,7,0,0,1,3.5-.21.39.39,0,0,0,.41-.2l.9-1.8a9.12,9.12,0,0,1,2.79,1.39l-.9,1.8a.38.38,0,0,0,.09.45,7,7,0,0,1,1.93,2.93.38.38,0,0,0,.38.25l2-.12a8.84,8.84,0,0,1,.19,3.12l-2,.12a.36.36,0,0,0-.34.3A7.07,7.07,0,0,1,28,14.13a.38.38,0,0,0,0,.45l1.11,1.68A9.19,9.19,0,0,1,26.5,18L25.39,16.3a.38.38,0,0,0-.43-.15,7,7,0,0,1-3.51.22.38.38,0,0,0-.41.2l-.89,1.8A9.17,9.17,0,0,1,17.35,17Z" transform="translate(0.38 -0.37)"/><path class="a" d="M20.63,6.28a3.93,3.93,0,1,1-1.11,5.45A3.94,3.94,0,0,1,20.63,6.28Z" transform="translate(0.38 -0.37)"/></svg>