<?xml version="1.0" encoding="utf-8"?>
<!-- Generator: Adobe Illustrator 24.0.0, SVG Export Plug-In . SVG Version: 6.00 Build 0)  -->
<svg version="1.1" id="Layer_1" xmlns="http://www.w3.org/2000/svg" xmlns:xlink="http://www.w3.org/1999/xlink" x="0px" y="0px"
	 viewBox="0 0 256 256" style="enable-background:new 0 0 256 256;" xml:space="preserve">
<style type="text/css">
	.st0{fill:#8699A3;}
</style>
<g>
	<g>
		<path class="st0" d="M75.08,48.49c31.06,0,47.54,40.45,47.54,40.45l3.62-12.12c0,0-13.98-35.08-46.72-35.08
			c-28.57,0-37.48,24.5-37.48,24.5S52.58,48.49,75.08,48.49z"/>
		<path class="st0" d="M66.31,157.05c-21.08,0-29.11-53.12-29.11-53.12h-5.23c0,3.43-1.72,65.48,32.1,65.48
			c11.07,0,15.57-7.56,15.57-13.92c0-10.07-4.86-17.16-4.86-17.16S80.3,157.05,66.31,157.05z"/>
		<path class="st0" d="M180.92,48.49c22.5,0,33.04,17.75,33.04,17.75s-8.9-24.5-37.44-24.5c-32.75,0-46.72,35.08-46.72,35.08
			l3.6,12.12C133.4,88.94,149.88,48.49,180.92,48.49z"/>
		<path class="st0" d="M218.83,103.94c0,0-8.01,53.12-29.12,53.12c-14,0-8.47-18.72-8.47-18.72s-4.84,7.08-4.84,17.16
			c0,6.36,4.48,13.92,15.55,13.92c33.83,0,32.08-62.05,32.08-65.48H218.83z"/>
		<path class="st0" d="M177,102.51c0,0,2.69-7.8,8.39-7.8c9.84,0,8.55,17.05,4.21,31.29c-4.45,14.54-0.93,16.72,1.73,16.72
			c2.65,0,8.62-2.76,15.15-14.75c6.54-11.98,9-26.86,9-26.86h4.85c0-29.81-17.59-35.09-27.37-35.09
			c-30.98,0-42.49,43.28-42.49,43.28l6.18,4.37l-2.97,14.83l-11.64,4.72l-2.11,14.59l5.75-6.95l6.02-2.43l-1.88,9.36l-10.53,4.35
			l-3.63,25.17l2.54,8.02l-10.18,4.02l-10.18-4.02l2.54-8.02l-3.67-25.17l-10.49-4.35l-1.9-9.36l6,2.43l5.78,6.95l-2.14-14.59
			l-11.63-4.72l-2.94-14.83l6.19-4.37c0,0-11.51-43.28-42.53-43.28c-9.78,0-27.37,5.28-27.37,35.09h4.86c0,0,2.47,14.87,9.02,26.86
			c6.51,11.99,12.49,14.75,15.12,14.75c2.65,0,6.18-2.18,1.72-16.72c-4.33-14.23-5.62-31.29,4.27-31.29c5.64,0,8.37,7.8,8.37,7.8
			s-7.13,18.84,6.49,24.85l9.71,4.28c2.68,11.23,5.71,23.95,6.27,26.11c0.92,3.51,4.06,8.41,4.06,8.41l6.56,11.19l3.06,15.03
			c0.79,3.88,1.62,7.79,11.24,7.79h3.17c9.62,0,10.49-3.92,11.27-7.79l3.03-15.03l6.57-11.19c0,0,3.12-4.89,4.04-8.41
			c0.57-2.16,3.6-14.88,6.27-26.11l9.72-4.28C184.12,121.35,177,102.51,177,102.51z M91,123.92c-4.11-1.64-8.05-4.49-8.05-11.63
			c0-4.03,0.53-7.45,0.99-9.68L91,113.62L93.67,125L91,123.92z M165.01,123.92l-2.68,1.08l2.71-11.38l7.03-11.01
			c0.48,2.22,1,5.65,1,9.68C173.07,119.43,169.13,122.28,165.01,123.92z"/>
		<path class="st0" d="M224.38,3.89C217.09,3.36,169.95,0,128.01,0S38.94,3.36,31.65,3.89C22.44,4.57,7.9,10.35,7.9,32.77
			c0,18.93,2.16,87.94,4.04,117.33c1.97,30.67,11.78,46.5,29.33,58.41c8.05,5.47,31.34,18.2,52.63,29.52
			c13.84,7.38,26.82,14.17,34.11,17.97c7.31-3.8,20.27-10.59,34.12-17.97c21.28-11.31,44.53-24.04,52.62-29.52
			c17.57-11.91,27.35-27.74,29.32-58.41c1.88-29.4,4.02-98.42,4.02-117.33C248.1,10.35,233.59,4.57,224.38,3.89z M233.44,149.43
			c-1.81,27.95-10.28,40.52-24.69,50.31c-11.97,8.1-59.07,32.95-80.73,44.27c-21.66-11.31-68.79-36.16-80.75-44.27
			c-14.41-9.78-22.9-22.36-24.67-50.31c-1.88-29.24-4.02-97.84-4.02-116.66c0-15.36,8.58-17.87,13.87-18.27
			c7.2-0.53,54-3.87,95.58-3.87c41.57,0,88.35,3.35,95.57,3.87c5.27,0.4,13.85,2.91,13.85,18.27
			C237.47,51.6,235.29,120.19,233.44,149.43z"/>
	</g>
</g>
</svg>
