<?xml version="1.0" encoding="utf-8"?>
<!-- Generator: Adobe Illustrator 24.0.0, SVG Export Plug-In . SVG Version: 6.00 Build 0)  -->
<svg version="1.1" id="Layer_1" xmlns="http://www.w3.org/2000/svg" xmlns:xlink="http://www.w3.org/1999/xlink" x="0px" y="0px"
	 viewBox="0 0 256 256" style="enable-background:new 0 0 256 256;" xml:space="preserve">
<style type="text/css">
	.st0{fill:#8699A3;}
</style>
<g>
	<g>
		<path class="st0" d="M105.21,97.91h-26.3c-5.75,0-10.69,4.11-11.51,9.86l-4.11,23.02c-0.82,5.75,4.11,10.69,9.86,10.69h23.84
			c6.58,0,11.51-4.11,12.33-10.69l4.11-23.02C114.25,102.84,110.14,97.91,105.21,97.91z M98.64,111.06l-2.47,14.8
			c-0.82,4.11-1.64,5.75-6.58,5.75h-6.58c-2.47,0-5.75,0-4.93-4.11l2.47-13.15c0.82-4.93,2.47-6.58,6.58-6.58h9.04
			C96.99,107.77,99.46,109.41,98.64,111.06z"/>
		<path class="st0" d="M152.89,79l-9.86,52.61h-13.15c-2.47,0-3.29-1.64-3.29-4.11l2.47-13.15c0.82-4.93,3.29-6.58,6.58-6.58h8.22
			l1.64-9.86H127.4c-5.75,0-10.69,4.11-11.51,9.86l-4.11,23.02c-0.82,6.58,3.29,11.51,9.04,11.51h32.88L166.04,79H152.89z"/>
		<path class="st0" d="M176.72,98.73c-5.75,0-10.69,4.11-11.51,9.86l-4.11,23.02c-1.64,6.58,3.29,11.51,9.04,11.51h15.62l1.64-9.86
			h-8.22c-2.47,0-5.75,0-4.93-4.11l2.47-13.15c0.82-4.93,3.29-6.58,6.58-6.58h10.69l-7.4,39.45c-0.82,2.47-2.47,4.93-5.75,4.93H157
			l-0.82,7.4h28.77l0,0h0.82c5.75,0,13.15-0.82,14.8-11.51l9.86-51.78L176.72,98.73z"/>
		<path class="st0" d="M248.23,97.91h-25.48c-5.75,0-9.86,4.11-10.69,9.86l-4.11,23.02c-0.82,6.58,3.29,11.51,9.04,11.51h32.06
			l1.64-9.86h-24.66c-2.47,0-4.93,0-4.11-4.11l2.47-13.15c0.82-4.93,2.47-6.58,6.58-6.58h8.22c1.64,0,3.29,1.64,2.47,3.29
			l-0.82,4.93h-13.15l-1.64,8.22h27.12l2.47-16.44C257.28,102.84,253.17,97.91,248.23,97.91z"/>
		<path class="st0" d="M53.43,84.75H10.69l-1.64,9.86h35.34c4.11,0,5.75,2.47,5.75,4.93l-4.93,25.48c-1.64,4.93-4.93,5.75-6.58,5.75
			H17.26l5.75-30.41H7.4L0,141.47h36.17c17.26,0,21.37-3.29,23.84-13.97l5.75-29.59C66.58,88.04,61.65,84.75,53.43,84.75z"/>
	</g>
</g>
</svg>
