<?xml version="1.0" encoding="utf-8"?>
<!-- Generator: Adobe Illustrator 24.0.0, SVG Export Plug-In . SVG Version: 6.00 Build 0)  -->
<svg version="1.1" id="Layer_1" xmlns="http://www.w3.org/2000/svg" xmlns:xlink="http://www.w3.org/1999/xlink" x="0px" y="0px"
	 viewBox="0 0 256 256" style="enable-background:new 0 0 256 256;" xml:space="preserve">
<g>
	<g>
		<path d="M75.1,48.5c31.1,0,47.5,40.5,47.5,40.5l3.6-12.1c0,0-14-35.1-46.7-35.1C51,41.7,42,66.2,42,66.2S52.6,48.5,75.1,48.5z"/>
		<path d="M66.3,157.1c-21.1,0-29.1-53.1-29.1-53.1H32c0,3.4-1.7,65.5,32.1,65.5c11.1,0,15.6-7.6,15.6-13.9
			c0-10.1-4.9-17.2-4.9-17.2S80.3,157.1,66.3,157.1z"/>
		<path d="M180.9,48.5c22.5,0,33,17.8,33,17.8s-8.9-24.5-37.4-24.5c-32.8,0-46.7,35.1-46.7,35.1l3.6,12.1
			C133.4,88.9,149.9,48.5,180.9,48.5z"/>
		<path d="M218.8,103.9c0,0-8,53.1-29.1,53.1c-14,0-8.5-18.7-8.5-18.7s-4.8,7.1-4.8,17.2c0,6.4,4.5,13.9,15.6,13.9
			c33.8,0,32.1-62.1,32.1-65.5C224,103.9,218.8,103.9,218.8,103.9z"/>
		<path d="M177,102.5c0,0,2.7-7.8,8.4-7.8c9.8,0,8.6,17,4.2,31.3c-4.4,14.5-0.9,16.7,1.7,16.7c2.6,0,8.6-2.8,15.1-14.8
			c6.5-12,9-26.9,9-26.9h4.9c0-29.8-17.6-35.1-27.4-35.1c-31,0-42.5,43.3-42.5,43.3l6.2,4.4l-3,14.8l-11.6,4.7l-2.1,14.6l5.8-6.9
			l6-2.4l-1.9,9.4l-10.5,4.4l-3.6,25.2l2.5,8l-10.2,4l-10.2-4l2.5-8l-3.7-25.2l-10.5-4.4l-1.9-9.4l6,2.4l5.8,6.9l-2.1-14.6
			l-11.6-4.7l-2.9-14.8l6.2-4.4c0,0-11.5-43.3-42.5-43.3c-9.8,0-27.4,5.3-27.4,35.1h4.9c0,0,2.5,14.9,9,26.9
			c6.5,12,12.5,14.8,15.1,14.8c2.7,0,6.2-2.2,1.7-16.7c-4.3-14.2-5.6-31.3,4.3-31.3c5.6,0,8.4,7.8,8.4,7.8s-7.1,18.8,6.5,24.8
			l9.7,4.3c2.7,11.2,5.7,23.9,6.3,26.1c0.9,3.5,4.1,8.4,4.1,8.4l6.6,11.2l3.1,15c0.8,3.9,1.6,7.8,11.2,7.8h3.2
			c9.6,0,10.5-3.9,11.3-7.8l3-15l6.6-11.2c0,0,3.1-4.9,4-8.4c0.6-2.2,3.6-14.9,6.3-26.1l9.7-4.3C184.1,121.3,177,102.5,177,102.5z
			 M91,123.9c-4.1-1.6-8.1-4.5-8.1-11.6c0-4,0.5-7.4,1-9.7l7.1,11l2.7,11.4L91,123.9z M165,123.9l-2.7,1.1l2.7-11.4l7-11
			c0.5,2.2,1,5.7,1,9.7C173.1,119.4,169.1,122.3,165,123.9z"/>
		<path d="M224.4,3.9C217.1,3.4,169.9,0,128,0S38.9,3.4,31.6,3.9C22.4,4.6,7.9,10.4,7.9,32.8c0,18.9,2.2,87.9,4,117.3
			c2,30.7,11.8,46.5,29.3,58.4c8,5.5,31.3,18.2,52.6,29.5c13.8,7.4,26.8,14.2,34.1,18c7.3-3.8,20.3-10.6,34.1-18
			c21.3-11.3,44.5-24,52.6-29.5c17.6-11.9,27.4-27.7,29.3-58.4c1.9-29.4,4-98.4,4-117.3C248.1,10.4,233.6,4.6,224.4,3.9z
			 M233.4,149.4c-1.8,27.9-10.3,40.5-24.7,50.3c-12,8.1-59.1,32.9-80.7,44.3c-21.7-11.3-68.8-36.2-80.8-44.3
			c-14.4-9.8-22.9-22.4-24.7-50.3c-1.9-29.2-4-97.8-4-116.7c0-15.4,8.6-17.9,13.9-18.3c7.2-0.5,54-3.9,95.6-3.9
			c41.6,0,88.4,3.3,95.6,3.9c5.3,0.4,13.9,2.9,13.9,18.3C237.5,51.6,235.3,120.2,233.4,149.4z"/>
	</g>
</g>
</svg>
