<?xml version="1.0" encoding="utf-8"?>
<!-- Generator: Adobe Illustrator 24.0.0, SVG Export Plug-In . SVG Version: 6.00 Build 0)  -->
<svg version="1.1" id="Layer_1" xmlns="http://www.w3.org/2000/svg" xmlns:xlink="http://www.w3.org/1999/xlink" x="0px" y="0px"
	 viewBox="0 0 256 256" style="enable-background:new 0 0 256 256;" xml:space="preserve">
<g>
	<g>
		<path d="M246.2,245.9h-33.1V5.1c0-2.8-2.3-5.1-5.1-5.1H71.8c-2.8,0-5.1,2.3-5.1,5.1v240.8H37.4v-14.3c7.1-1,12.5-7,12.5-14.3v-2.2
			c0-2.2-1.9-4.1-4.1-4.1c-2.3,0-4.1,1.9-4.1,4.1v2.2c0,2.7-1.8,5-4.2,5.8v-17.6c8-1.9,13.7-9.1,13.8-17.5v-18.4
			c0-9.9-8.1-17.9-18-17.9s-17.9,8-17.9,17.9V188c0,8.4,5.8,15.6,13.8,17.5v13.7H29c-3.5-0.1-6.2-2.9-6.2-6.2v-4.9
			c0-2.2-1.8-4.1-4.1-4.1c-2.2,0-4.1,1.9-4.1,4.1v4.9c0,7.9,6.5,14.4,14.5,14.5h0.1v18.4h-19c-2.8,0-5.1,2.3-5.1,5.1
			s2.3,5.1,5.1,5.1h236.1c2.8,0,5.1-2.3,5.1-5.1C251.3,248.1,249,245.9,246.2,245.9z M23.6,188v-18.4c0-5.4,4.2-9.7,9.6-9.7
			s9.7,4.3,9.7,9.7V188c0,3.8-2.1,7.1-5.5,8.8c-5.1,1.6-8.4,0-8.4,0C25.7,195.1,23.6,191.8,23.6,188z M76.8,10.1H203v235.7h-40.4
			v-58.2c0-2.8-2.3-5.1-5.1-5.1h-35.2c-2.8,0-5.1,2.3-5.1,5.1v58.2H76.8V10.1z M152.4,245.9h-25v-53.1h25V245.9z"/>
		<path d="M100,42.9h79.8c2.8,0,5.1-2.3,5.1-5.1s-2.3-5.1-5.1-5.1H100c-2.8,0-5.1,2.3-5.1,5.1S97.2,42.9,100,42.9z"/>
		<path d="M100,73.4h79.8c2.8,0,5.1-2.3,5.1-5.1s-2.3-5.1-5.1-5.1H100c-2.8,0-5.1,2.3-5.1,5.1C94.9,71.2,97.2,73.4,100,73.4z"/>
		<path d="M100,104h79.8c2.8,0,5.1-2.3,5.1-5.1s-2.3-5.1-5.1-5.1H100c-2.8,0-5.1,2.3-5.1,5.1C94.9,101.8,97.2,104,100,104z"/>
		<path d="M100,134.6h79.8c2.8,0,5.1-2.3,5.1-5.1s-2.3-5.1-5.1-5.1H100c-2.8,0-5.1,2.3-5.1,5.1S97.2,134.6,100,134.6z"/>
	</g>
</g>
</svg>
