<?xml version="1.0" encoding="utf-8"?>
<!-- Generator: Adobe Illustrator 24.0.0, SVG Export Plug-In . SVG Version: 6.00 Build 0)  -->
<svg version="1.1" id="Layer_1" xmlns="http://www.w3.org/2000/svg" xmlns:xlink="http://www.w3.org/1999/xlink" x="0px" y="0px"
	 viewBox="0 0 256 256" style="enable-background:new 0 0 256 256;" xml:space="preserve">
<style type="text/css">
	.st0{fill:#8699A3;}
</style>
<g>
	<g>
		<path class="st0" d="M246.21,245.86h-33.07V5.07c0-2.8-2.27-5.07-5.07-5.07H71.75c-2.8,0-5.07,2.27-5.07,5.07v240.78H37.42v-14.29
			c7.13-1,12.47-7.02,12.47-14.26v-2.23c0-2.23-1.89-4.12-4.12-4.12c-2.34,0-4.12,1.89-4.12,4.12v2.23c0,2.67-1.78,5.01-4.23,5.79
			v-17.6c8.02-1.89,13.7-9.13,13.81-17.49v-18.38c0-9.91-8.13-17.93-18.04-17.93s-17.93,8.02-17.93,17.93v18.38
			c0,8.35,5.79,15.59,13.81,17.49v13.7h-0.11c-3.45-0.11-6.24-2.9-6.24-6.24v-4.9c0-2.23-1.78-4.12-4.12-4.12
			c-2.23,0-4.12,1.89-4.12,4.12v4.9c0,7.91,6.46,14.37,14.48,14.48h0.11v18.41h-19c-2.8,0-5.07,2.27-5.07,5.07
			c0,2.8,2.27,5.07,5.07,5.07h236.14c2.8,0,5.07-2.27,5.07-5.07C251.28,248.12,249.01,245.86,246.21,245.86z M23.61,188.01v-18.38
			c0-5.35,4.23-9.69,9.58-9.69c5.35,0,9.69,4.34,9.69,9.69v18.38c0,3.79-2.12,7.13-5.46,8.8c-5.12,1.56-8.35,0-8.35,0
			C25.73,195.14,23.61,191.8,23.61,188.01z M76.82,10.14h126.17v235.71h-40.42v-58.18c0-2.8-2.27-5.07-5.07-5.07h-35.19
			c-2.8,0-5.07,2.27-5.07,5.07v58.18H76.82V10.14z M152.43,245.86h-25.04v-53.11h25.04V245.86z"/>
		<path class="st0" d="M100.02,42.87h79.77c2.8,0,5.07-2.27,5.07-5.07s-2.27-5.07-5.07-5.07h-79.77c-2.8,0-5.07,2.27-5.07,5.07
			S97.22,42.87,100.02,42.87z"/>
		<path class="st0" d="M100.02,73.45h79.77c2.8,0,5.07-2.27,5.07-5.07c0-2.8-2.27-5.07-5.07-5.07h-79.77c-2.8,0-5.07,2.27-5.07,5.07
			C94.95,71.19,97.22,73.45,100.02,73.45z"/>
		<path class="st0" d="M100.02,104.04h79.77c2.8,0,5.07-2.27,5.07-5.07c0-2.8-2.27-5.07-5.07-5.07h-79.77
			c-2.8,0-5.07,2.27-5.07,5.07C94.95,101.77,97.22,104.04,100.02,104.04z"/>
		<path class="st0" d="M100.02,134.62h79.77c2.8,0,5.07-2.27,5.07-5.07s-2.27-5.07-5.07-5.07h-79.77c-2.8,0-5.07,2.27-5.07,5.07
			S97.22,134.62,100.02,134.62z"/>
	</g>
</g>
</svg>
