<?xml version="1.0" encoding="utf-8"?>
<!-- Generator: Adobe Illustrator 24.0.0, SVG Export Plug-In . SVG Version: 6.00 Build 0)  -->
<svg version="1.1" id="Layer_1" xmlns="http://www.w3.org/2000/svg" xmlns:xlink="http://www.w3.org/1999/xlink" x="0px" y="0px"
	 viewBox="0 0 256 256" style="enable-background:new 0 0 256 256;" xml:space="preserve">
<g>
	<path d="M128,255.8c35.7,0,65.7-12.8,90.8-37.7c25-25,37.2-54.9,37.2-89.8c0-35.6-12.2-65.5-37.2-90.5C193.8,12.9,163.7,0,128,0
		C93,0,62.2,12.9,37.2,37.8C12.2,62.7,0,92.7,0,128.3c0,34.9,12.2,64.8,37.2,89.8C62.2,243,93,255.8,128,255.8z M42.9,43.5
		C66.5,20,95.1,8.6,128,8.6c32.8,0,61.5,11.4,85.1,34.9c23.6,23.5,35,52,35,84.8c0,32.8-11.4,60.6-35,84.1
		C189.5,235.9,160.9,248,128,248c-32.9,0-61.5-12.1-85.1-35.6c-23.6-23.5-35-51.3-35-84.1C7.9,95.5,19.3,67,42.9,43.5z"/>
	<path d="M128,221.5c26.1,0,48.3-9.2,66.7-27.5c18.4-18.4,27.6-40.5,27.6-65.8c0-26-9.2-48.1-27.6-66.5
		c-18.4-18.4-40.7-27.5-66.7-27.5c-25.3,0-47.5,9.2-66,27.5c-18.4,18.3-27.6,40.5-27.6,66.5c0,25.2,9.2,47.4,27.6,65.8
		C80.5,212.4,102.7,221.5,128,221.5z M217.7,128.3c0,24.5-8.4,45.1-26.1,62.7c-17.7,17.6-38.3,26.7-63.6,26.7l-10-0.8l52.1-89.4
		l1.5-2.2c3.1-3.8,6.9-5.3,10.7-5.3h35.3L217.7,128.3L217.7,128.3z M216.9,113h-57.5c-4.6,0-8.4,1.5-10.7,4.6l-2.3,3.1l-52.9,90.2
		l-8.4-4.6l54.5-93.2l1.5-2.3c3.1-3.9,6.9-5.4,11.5-5.4h62.9L216.9,113z M38.2,128.3c0-24.4,8.4-45.9,26.1-64.2
		c17.7-17.6,39.1-26,63.7-26c16.1,0,31.4,3.9,46,12.2c13.8,8.4,24.6,19.1,32.2,33.7H98.1c-4.6,0-8.4,1.5-10.7,4.6l-2.3,3.1
		l-39.9,69.6C40.6,149.7,38.2,138.2,38.2,128.3z M108.8,98.5l2.3-3c3.1-2.3,6.9-3.8,10.8-3.8H210l3.1,6.8h-84.3
		c-3.8,0-7.7,1.6-10.8,4.6l-2.3,2.3l-49.8,87.1l-6.9-7.7L108.8,98.5z"/>
</g>
</svg>
