<?xml version="1.0" encoding="utf-8"?>
<!-- Generator: Adobe Illustrator 24.0.0, SVG Export Plug-In . SVG Version: 6.00 Build 0)  -->
<svg version="1.1" id="Layer_1" xmlns="http://www.w3.org/2000/svg" xmlns:xlink="http://www.w3.org/1999/xlink" x="0px" y="0px"
	 viewBox="0 0 256 256" style="enable-background:new 0 0 256 256;" xml:space="preserve">
<style type="text/css">
	.st0{fill:#8699A3;}
</style>
<g>
	<path class="st0" d="M128.04,255.82c35.7,0,65.73-12.8,90.79-37.74c24.99-24.96,37.17-54.88,37.17-89.8
		c0-35.63-12.18-65.53-37.17-90.47C193.77,12.85,163.74,0,128.04,0C92.98,0,62.22,12.85,37.17,37.8C12.16,62.74,0,92.65,0,128.27
		c0,34.92,12.16,64.84,37.17,89.8C62.22,243.02,92.98,255.82,128.04,255.82z M42.92,43.5c23.6-23.53,52.19-34.91,85.11-34.91
		c32.84,0,61.47,11.38,85.07,34.91c23.59,23.49,35.03,52.02,35.03,84.78c0,32.8-11.44,60.58-35.03,84.09
		c-23.6,23.53-52.22,35.63-85.07,35.63c-32.93,0-61.51-12.08-85.11-35.63C19.3,188.86,7.87,161.07,7.87,128.27
		C7.87,95.52,19.3,66.99,42.92,43.5z"/>
	<path class="st0" d="M127.99,221.54c26.08,0,48.29-9.18,66.74-27.47c18.38-18.39,27.58-40.53,27.58-65.77
		c0-26-9.21-48.12-27.58-66.46c-18.45-18.36-40.66-27.55-66.74-27.55c-25.32,0-47.52,9.18-65.96,27.55
		c-18.41,18.34-27.62,40.46-27.62,66.46c0,25.24,9.21,47.38,27.62,65.77C80.46,212.36,102.67,221.54,127.99,221.54z M217.73,128.3
		c0,24.47-8.44,45.12-26.1,62.68c-17.66,17.55-38.33,26.73-63.64,26.73l-9.97-0.77l52.14-89.45l1.53-2.25
		c3.05-3.84,6.89-5.34,10.74-5.34h35.31V128.3z M216.93,113.04h-57.51c-4.59,0-8.45,1.51-10.71,4.56l-2.32,3.05l-52.93,90.22
		l-8.42-4.63l54.46-93.2l1.53-2.3c3.05-3.86,6.91-5.38,11.49-5.38h62.91L216.93,113.04z M38.25,128.3
		c0-24.44,8.42-45.86,26.09-64.18c17.65-17.62,39.12-26,63.65-26c16.09,0,31.43,3.86,45.98,12.23
		c13.83,8.42,24.55,19.11,32.22,33.67H98.05c-4.59,0-8.42,1.46-10.72,4.56l-2.28,3.05l-39.9,69.55
		C40.57,149.72,38.25,138.25,38.25,128.3z M108.81,98.47l2.26-3.03c3.1-2.3,6.95-3.83,10.77-3.83h88.19l3.07,6.85h-84.34
		c-3.85,0-7.72,1.57-10.75,4.63l-2.31,2.27L65.87,192.5l-6.89-7.68L108.81,98.47z"/>
</g>
</svg>
