<svg xmlns="http://www.w3.org/2000/svg" viewBox="0 0 32.75 27.04"><defs><style>.a,.b{fill:none;stroke:#000;stroke-linecap:round;stroke-linejoin:round;stroke-width:0.75px;}.a{fill-rule:evenodd;}</style></defs><title>617</title><path class="a" d="M30.29,6.29H28.57V4.59a1.74,1.74,0,0,0-1.74-1.73H24.59a1.74,1.74,0,0,0-1.73,1.73v1.7H21.14A1.71,1.71,0,0,0,19.43,8V9.14a1.75,1.75,0,0,0,.11.57H12.46a1.75,1.75,0,0,0,.11-.57V8a1.71,1.71,0,0,0-1.71-1.71H9.14V4.59A1.74,1.74,0,0,0,7.41,2.86H5.17A1.74,1.74,0,0,0,3.43,4.59v1.7H1.71A1.71,1.71,0,0,0,0,8V27.43a1.72,1.72,0,0,0,1.71,1.71H30.29A1.72,1.72,0,0,0,32,27.43V8A1.71,1.71,0,0,0,30.29,6.29Z" transform="translate(0.38 -2.48)"/><path class="a" d="M28,17.71H21.14" transform="translate(0.38 -2.48)"/><path class="a" d="M10.88,17.71H4" transform="translate(0.38 -2.48)"/><path class="a" d="M7.46,14.29v6.85" transform="translate(0.38 -2.48)"/><line class="b" x1="13.06" y1="7.2" x2="1.51" y2="7.2"/><line class="b" x1="31.91" y1="7.2" x2="20.36" y2="7.2"/><line class="b" x1="9.36" y1="3.81" x2="3.58" y2="3.81"/><line class="b" x1="28.94" y1="3.81" x2="23.16" y2="3.81"/><line class="b" x1="0.78" y1="22.62" x2="32.22" y2="22.62"/></svg>