<svg xmlns="http://www.w3.org/2000/svg" viewBox="0 0 32.75 20.81"><defs><style>.a{fill:none;stroke:#000;stroke-linecap:round;stroke-linejoin:round;stroke-width:0.75px;}</style></defs><title>62</title><path class="a" d="M29.61,23.94h2a.42.42,0,0,0,.42-.42V16.74L29.49,6.29A.43.43,0,0,0,29.07,6H18.21A1.25,1.25,0,0,0,17,7.22v9.2H.42a.42.42,0,0,0-.42.42v6.68a.42.42,0,0,0,.42.42H2.25m6.32,0H23.25" transform="translate(0.38 -5.6)"/><polyline class="a" points="21.09 0.57 21.09 11.14 32.37 11.14"/><circle class="a" cx="26.94" cy="17.93" r="2.51"/><circle class="a" cx="5.7" cy="17.93" r="2.51"/><line class="a" x1="14.85" y1="11" x2="14.85" y2="18.3"/><line class="a" x1="10.54" y1="11" x2="10.54" y2="18.3"/><line class="a" x1="5.6" y1="11" x2="5.6" y2="15.41"/></svg>