<svg xmlns="http://www.w3.org/2000/svg" viewBox="0 0 32.75 24.68"><defs><style>.a{fill:none;stroke:#000;stroke-linecap:round;stroke-linejoin:round;stroke-width:0.75px;}</style></defs><title>65</title><path class="a" d="M11.62,21.76h8.74m7.68,0a4,4,0,0,0,4-3.93V8A4,4,0,0,0,28,4H4.35a4,4,0,0,0-4,4v9.84A4,4,0,0,0,4,21.74m3.8,1.83a2.5,2.5,0,1,1,2.5-2.5,2.47,2.47,0,0,1-2.44,2.5Zm16.43,0a2.5,2.5,0,1,1-.14-5h.14a2.5,2.5,0,0,1,0,5Z" transform="translate(0.38 -3.66)"/><path class="a" d="M14.78,12.89h-4.2V9.17h4.2Z" transform="translate(0.38 -3.66)"/><path class="a" d="M1.1,9.17H8.23v6.7H1.1" transform="translate(0.38 -3.66)"/><path class="a" d="M21.67,12.89H17.46V9.17h4.21Z" transform="translate(0.38 -3.66)"/><path class="a" d="M28.55,12.89H24.34V9.17h4.21Z" transform="translate(0.38 -3.66)"/><line class="a" x1="0.38" y1="21.06" x2="26.39" y2="21.06"/><line class="a" x1="10.95" y1="24.31" x2="30.54" y2="24.31"/></svg>