<?xml version="1.0" encoding="utf-8"?>
<!-- Generator: Adobe Illustrator 24.0.0, SVG Export Plug-In . SVG Version: 6.00 Build 0)  -->
<svg version="1.1" id="Layer_1" xmlns="http://www.w3.org/2000/svg" xmlns:xlink="http://www.w3.org/1999/xlink" x="0px" y="0px"
	 viewBox="0 0 256 256" style="enable-background:new 0 0 256 256;" xml:space="preserve">
<g>
	<path d="M196.6,0l-69.1,29.7L59.3,0l68.4,256L196.6,0z M127.8,37.2l59-25.1l-59,218.2L69.2,11.8L127.8,37.2z"/>
	<path d="M179.6,20.2l-51.8,22.1l-51-22.2l51.1,194.1L179.6,20.2z M97.1,71.3l26.5-4.3l4.2-16.8l4.1,16.8l27.1,4.3l-27.1,4.1
		l-4.1,17.3l-4.2-17.3L97.1,71.3z"/>
	<path d="M179.1,193.7c0-5.2-3.9-8.2-8.2-8.2c-4.4,0-8.2,3-8.2,8.2c0,5.2,3.9,8.1,8.2,8.1C175.2,201.8,179.1,198.8,179.1,193.7z
		 M165,193.7c0-3.8,2.6-6.3,5.9-6.3c3.2,0,5.8,2.6,5.8,6.3c0,3.8-2.7,6.3-5.8,6.3v0C167.6,200,165,197.4,165,193.7z"/>
	<path d="M174.7,198.1l-2.3-3.8c1.2-0.1,2.1-0.6,2.1-2.3c0-2-1.3-2.7-3.6-2.7h-3.3v8.8h1.9v-3.7h0.9l2.1,3.7H174.7z M171.2,192.9
		h-1.7v-2.2h1.3c0.7,0,1.7,0.1,1.7,1C172.5,192.7,172,192.9,171.2,192.9z"/>
</g>
</svg>
