<?xml version="1.0" encoding="utf-8"?>
<!-- Generator: Adobe Illustrator 24.0.0, SVG Export Plug-In . SVG Version: 6.00 Build 0)  -->
<svg version="1.1" id="Layer_1" xmlns="http://www.w3.org/2000/svg" xmlns:xlink="http://www.w3.org/1999/xlink" x="0px" y="0px"
	 viewBox="0 0 256 256" style="enable-background:new 0 0 256 256;" xml:space="preserve">
<style type="text/css">
	.st0{fill:#8699A3;}
</style>
<g>
	<path class="st0" d="M196.65,0l-69.09,29.66L59.35,0l68.45,256L196.65,0z M127.8,37.21l59.03-25.14L127.8,230.3L69.19,11.81
		L127.8,37.21z"/>
	<path class="st0" d="M179.59,20.18l-51.8,22.09L76.74,20.09l51.06,194.13L179.59,20.18z M97.12,71.3l26.45-4.31l4.23-16.8
		l4.11,16.8l27.1,4.31l-27.1,4.14l-4.11,17.27l-4.23-17.27L97.12,71.3z"/>
	<path class="st0" d="M179.09,193.67c0-5.2-3.88-8.22-8.2-8.22c-4.39,0-8.25,3.02-8.25,8.22c0,5.17,3.87,8.15,8.25,8.15
		C175.21,201.82,179.09,198.84,179.09,193.67z M165,193.67c0-3.79,2.62-6.33,5.89-6.33c3.17,0,5.83,2.55,5.83,6.33
		c0,3.77-2.66,6.34-5.83,6.34v-0.03C167.62,200.02,165,197.44,165,193.67z"/>
	<path class="st0" d="M174.68,198.05l-2.26-3.84c1.17-0.08,2.12-0.63,2.12-2.3c0-2.02-1.34-2.7-3.62-2.7h-3.29v8.84h1.9v-3.69h0.87
		l2.07,3.69H174.68z M171.19,192.89h-1.66v-2.19h1.31c0.74,0,1.69,0.05,1.69,1C172.52,192.71,172.03,192.89,171.19,192.89z"/>
</g>
</svg>
