<svg xmlns="http://www.w3.org/2000/svg" viewBox="0 0 256 256"><path d="M196.6 0l-69.1 29.7L59.3 0l68.4 256L196.6 0zm-68.8 37.2l59-25.1-59 218.2L69.2 11.8l58.6 25.4z"/><path d="M179.6 20.2l-51.8 22.1-51-22.2 51.1 194.1 51.7-194zM97.1 71.3l26.5-4.3 4.2-16.8 4.1 16.8 27.1 4.3-27.1 4.1-4.1 17.3-4.2-17.3-26.5-4.1zM179.1 193.7c0-5.2-3.9-8.2-8.2-8.2-4.4 0-8.2 3-8.2 8.2 0 5.2 3.9 8.1 8.2 8.1 4.3 0 8.2-3 8.2-8.1zm-14.1 0c0-3.8 2.6-6.3 5.9-6.3 3.2 0 5.8 2.6 5.8 6.3 0 3.8-2.7 6.3-5.8 6.3-3.3 0-5.9-2.6-5.9-6.3z"/><path d="M174.7 198.1l-2.3-3.8c1.2-.1 2.1-.6 2.1-2.3 0-2-1.3-2.7-3.6-2.7h-3.3v8.8h1.9v-3.7h.9l2.1 3.7h2.2zm-3.5-5.2h-1.7v-2.2h1.3c.7 0 1.7.1 1.7 1 0 1-.5 1.2-1.3 1.2z"/></svg>