<svg xmlns="http://www.w3.org/2000/svg" viewBox="0 0 29.23 32.75"><defs><style>.a{fill:none;stroke:#000;stroke-linecap:round;stroke-linejoin:round;stroke-width:0.75px;}</style></defs><title>69</title><path class="a" d="M28.81,24.09v-5a3,3,0,0,0-.36-1.38V1.89A1.88,1.88,0,0,0,26.56,0H5.44A1.88,1.88,0,0,0,3.55,1.89V17.71a3,3,0,0,0-.36,1.38v5a1.7,1.7,0,0,0-1.43,1.68,1.66,1.66,0,0,0,1.43,1.64v3.37A1.24,1.24,0,0,0,4.41,32H8.7a1.24,1.24,0,0,0,1.23-1.22V27.46H22.07v3.32A1.24,1.24,0,0,0,23.3,32h4.29a1.24,1.24,0,0,0,1.22-1.22V27.41a1.7,1.7,0,0,0,1.43-1.64A1.66,1.66,0,0,0,28.81,24.09Z" transform="translate(-1.39 0.38)"/><path class="a" d="M9.35,15.14l.7-5.58a.75.75,0,0,1,.71-.75H21.19a.71.71,0,0,1,.7.7l.74,5.63Z" transform="translate(-1.39 0.38)"/><path class="a" d="M13.48,27.3l.27-3.89c0-.29.13-.56.28-.56H18.1c.15,0,.28.23.28.53l.29,3.92" transform="translate(-1.39 0.38)"/><path class="a" d="M6.09,17.37,7.26,6.93a1.1,1.1,0,0,1,1-1.09H23.64a1,1,0,0,1,1,1l1.05,10.66" transform="translate(-1.39 0.38)"/><path class="a" d="M8.57,24.72a2,2,0,1,1,2-2A2.06,2.06,0,0,1,8.57,24.72Z" transform="translate(-1.39 0.38)"/><path class="a" d="M23.67,24.72a2,2,0,1,1,2-2A2.06,2.06,0,0,1,23.67,24.72Z" transform="translate(-1.39 0.38)"/><line class="a" x1="2.2" y1="18.08" x2="27.43" y2="18.08"/><line class="a" x1="1.95" y1="27.83" x2="8.13" y2="27.83"/><line class="a" x1="21.34" y1="27.83" x2="27.52" y2="27.83"/></svg>