<?xml version="1.0" encoding="utf-8"?>
<!-- Generator: Adobe Illustrator 24.0.0, SVG Export Plug-In . SVG Version: 6.00 Build 0)  -->
<svg version="1.1" id="Layer_1" xmlns="http://www.w3.org/2000/svg" xmlns:xlink="http://www.w3.org/1999/xlink" x="0px" y="0px"
	 viewBox="0 0 256 256" style="enable-background:new 0 0 256 256;" xml:space="preserve">
<style type="text/css">
	.st0{fill:#8699A3;}
</style>
<g>
	<g>
		<path class="st0" d="M250.65,95.13h-82.39v10.41h2.96l30.8,146.28c0.27,1.37,1.06,2.54,2.22,3.31c0.87,0.57,1.86,0.87,2.87,0.87
			c0.35,0,0.69-0.03,1.04-0.1c1.36-0.27,2.54-1.06,3.31-2.22c0.77-1.15,1.05-2.54,0.75-4l-30.34-144.14h68.8
			c2.87,0,5.2-2.33,5.2-5.21C255.85,97.46,253.52,95.13,250.65,95.13z"/>
		<path class="st0" d="M44.07,72.2c5.43,2.16,11.38,2.32,16.97,0.42c6.21-2.11,11.24-6.52,14.13-12.41
			c5.98-12.15,0.96-26.91-11.2-32.9c-0.18-0.09-0.36-0.18-0.54-0.26C64.7,13.92,55.34,2,42.17,0.22
			C28.69-1.58,16.23,7.89,14.4,21.38c-0.25,1.88-0.29,3.78-0.11,5.66c-5.64,2.59-10.03,7.14-12.41,12.9
			c-2.51,6.05-2.51,12.72,0,18.78c3.82,9.22,12.7,15.15,22.65,15.15c0.06,0,0.11,0,0.17,0c3.1,0.07,6.11-0.57,8.97-1.69v22.95H5.22
			c-2.87,0-5.2,2.33-5.2,5.2c0,2.87,2.33,5.21,5.2,5.21h68.8L43.67,249.67c-0.3,1.36-0.05,2.75,0.7,3.92
			c0.75,1.17,1.91,1.98,3.27,2.28c0.37,0.08,0.75,0.13,1.13,0.13c0.98,0,1.94-0.28,2.79-0.82c1.17-0.74,1.98-1.91,2.3-3.35
			l30.79-146.29h38.07v145.22c0,2.87,2.33,5.2,5.2,5.2c2.87,0,5.21-2.33,5.21-5.2V105.54h13.85V95.13H44.07V72.2z M25.36,29.31
			c-0.03-0.14-0.07-0.28-0.12-0.41c-0.43-1.37-0.65-2.79-0.65-4.22c0.09-7.82,6.48-14.11,14.27-14.11c0.06,0,0.11,0,0.17,0
			c7.7,0.08,14.03,6.42,14.12,14.1c0,1.44-0.22,2.86-0.65,4.23c-0.87,2.74,0.66,5.67,3.37,6.52c0.14,0.04,0.27,0.08,0.4,0.11
			c3.68,0.88,6.79,3.14,8.77,6.36c1.98,3.22,2.58,7.03,1.7,10.7c-1.82,7.59-9.49,12.32-17.06,10.46c-2.71-0.65-5.13-2.06-7.04-4.09
			c-1.95-2.04-5.59-2.05-7.55,0.01c-2.62,2.78-6.16,4.36-9.98,4.47c-3.8,0.13-7.44-1.27-10.21-3.89c-2.81-2.65-4.44-6.39-4.48-10.25
			c0-6.65,4.53-12.31,11.03-13.76C24.25,34.9,26,32.1,25.36,29.31z"/>
		<path class="st0" d="M214.29,68.66V5.33c0-2.87-2.33-5.21-5.2-5.21H106.16c-2.87,0-5.2,2.33-5.2,5.21v63.34
			c0,2.87,2.33,5.2,5.2,5.2h46.26v71.99c0,2.87,2.33,5.2,5.2,5.2s5.2-2.33,5.2-5.2V73.87h46.26
			C211.95,73.87,214.29,71.53,214.29,68.66z M203.88,10.53v52.93h-92.52V10.53H203.88z"/>
	</g>
</g>
</svg>
