<?xml version="1.0" encoding="utf-8"?>
<!-- Generator: Adobe Illustrator 24.0.0, SVG Export Plug-In . SVG Version: 6.00 Build 0)  -->
<svg version="1.1" id="Layer_1" xmlns="http://www.w3.org/2000/svg" xmlns:xlink="http://www.w3.org/1999/xlink" x="0px" y="0px"
	 viewBox="0 0 256 256" style="enable-background:new 0 0 256 256;" xml:space="preserve">
<g>
	<g>
		<path d="M250.6,95.1h-82.4v10.4h3L202,251.8c0.3,1.4,1.1,2.5,2.2,3.3c0.9,0.6,1.9,0.9,2.9,0.9c0.4,0,0.7,0,1-0.1
			c1.4-0.3,2.5-1.1,3.3-2.2c0.8-1.1,1.1-2.5,0.8-4l-30.3-144.1h68.8c2.9,0,5.2-2.3,5.2-5.2C255.9,97.5,253.5,95.1,250.6,95.1z"/>
		<path d="M44.1,72.2c5.4,2.2,11.4,2.3,17,0.4c6.2-2.1,11.2-6.5,14.1-12.4c6-12.1,1-26.9-11.2-32.9c-0.2-0.1-0.4-0.2-0.5-0.3
			c1.3-13.1-8.1-25-21.3-26.8C28.7-1.6,16.2,7.9,14.4,21.4c-0.2,1.9-0.3,3.8-0.1,5.7c-5.6,2.6-10,7.1-12.4,12.9
			c-2.5,6-2.5,12.7,0,18.8c3.8,9.2,12.7,15.2,22.6,15.2c0.1,0,0.1,0,0.2,0c3.1,0.1,6.1-0.6,9-1.7v23H5.2c-2.9,0-5.2,2.3-5.2,5.2
			c0,2.9,2.3,5.2,5.2,5.2H74L43.7,249.7c-0.3,1.4,0,2.8,0.7,3.9s1.9,2,3.3,2.3c0.4,0.1,0.8,0.1,1.1,0.1c1,0,1.9-0.3,2.8-0.8
			c1.2-0.7,2-1.9,2.3-3.4l30.8-146.3h38.1v145.2c0,2.9,2.3,5.2,5.2,5.2s5.2-2.3,5.2-5.2V105.5H147V95.1H44.1V72.2z M25.4,29.3
			c0-0.1-0.1-0.3-0.1-0.4c-0.4-1.4-0.6-2.8-0.6-4.2c0.1-7.8,6.5-14.1,14.3-14.1c0.1,0,0.1,0,0.2,0c7.7,0.1,14,6.4,14.1,14.1
			c0,1.4-0.2,2.9-0.7,4.2c-0.9,2.7,0.7,5.7,3.4,6.5c0.1,0,0.3,0.1,0.4,0.1c3.7,0.9,6.8,3.1,8.8,6.4c2,3.2,2.6,7,1.7,10.7
			c-1.8,7.6-9.5,12.3-17.1,10.5c-2.7-0.7-5.1-2.1-7-4.1c-2-2-5.6-2-7.5,0c-2.6,2.8-6.2,4.4-10,4.5c-3.8,0.1-7.4-1.3-10.2-3.9
			c-2.8-2.7-4.4-6.4-4.5-10.2c0-6.7,4.5-12.3,11-13.8C24.2,34.9,26,32.1,25.4,29.3z"/>
		<path d="M214.3,68.7V5.3c0-2.9-2.3-5.2-5.2-5.2H106.2c-2.9,0-5.2,2.3-5.2,5.2v63.3c0,2.9,2.3,5.2,5.2,5.2h46.3v72
			c0,2.9,2.3,5.2,5.2,5.2s5.2-2.3,5.2-5.2v-72h46.3C211.9,73.9,214.3,71.5,214.3,68.7z M203.9,10.5v52.9h-92.5V10.5H203.9z"/>
	</g>
</g>
</svg>
