<svg xmlns="http://www.w3.org/2000/svg" viewBox="0 0 32.75 21.67"><defs><style>.a{fill:none;stroke:#000;stroke-linecap:round;stroke-linejoin:round;stroke-width:0.75px;}</style></defs><title>7</title><path class="a" d="M19.88,15.33h7.7a.38.38,0,0,1,.39.26l4,10.26a.38.38,0,0,1,0,.39.34.34,0,0,1-.31.22H.42a.54.54,0,0,1-.35-.18.39.39,0,0,1,0-.39L4,15.64a.42.42,0,0,1,.39-.27h7.47" transform="translate(0.38 -5.17)"/><path class="a" d="M7.88,7.93a2.54,2.54,0,1,0,2.54,2.54A2.54,2.54,0,0,0,7.88,7.93Z" transform="translate(0.38 -5.17)"/><path class="a" d="M24.2,7.93a2.54,2.54,0,1,0,2.54,2.54A2.54,2.54,0,0,0,24.2,7.93Z" transform="translate(0.38 -5.17)"/><path class="a" d="M17.69,16.32c1.47.2,2.92.73,2.92,1.66,0,1.16-2.21,1.78-4.46,1.78s-4.49-.62-4.49-1.78c0-.76,1-1.39,2.68-1.66" transform="translate(0.38 -5.17)"/><path class="a" d="M16,18.64a.36.36,0,0,1-.31-.19c-.15-.28-4.06-6.24-4.06-8.53a4.38,4.38,0,1,1,8.75,0c0,2.29-3.87,8.25-4.07,8.53C16.31,18.6,16.15,18.64,16,18.64Z" transform="translate(0.38 -5.17)"/><path class="a" d="M16,11.43A1.67,1.67,0,1,1,17.7,9.76,1.65,1.65,0,0,1,16,11.43Z" transform="translate(0.38 -5.17)"/><line class="a" x1="6.92" y1="12.1" x2="9.25" y2="12.1"/><line class="a" x1="23.44" y1="12.1" x2="25.77" y2="12.1"/><line class="a" x1="8.23" y1="11.87" x2="8.23" y2="6.38"/><line class="a" x1="24.61" y1="11.87" x2="24.61" y2="6.38"/></svg>