<?xml version="1.0" encoding="utf-8"?>
<!-- Generator: Adobe Illustrator 24.0.0, SVG Export Plug-In . SVG Version: 6.00 Build 0)  -->
<svg version="1.1" id="Layer_1" xmlns="http://www.w3.org/2000/svg" xmlns:xlink="http://www.w3.org/1999/xlink" x="0px" y="0px"
	 viewBox="0 0 256 256" style="enable-background:new 0 0 256 256;" xml:space="preserve">
<g>
	<path d="M0,203.5h256V52H0V203.5z M31,88.8L89.4,147c0,0,143.4-12.6,143.4-27.7c0-9.1-64-17.1-95.4-19.6c-28-2.3-59-2.2-59-2.2
		l43.4,43.3l-30.9,3.1L35.6,88.8c0,0,36.1-2.2,101.9,3.7c65.8,5.9,102.2,15.9,102.2,26.5c0,28-178,55.5-178,55.5l15.9-24.8l-61-60.2
		L31,88.8z"/>
</g>
</svg>
