<?xml version="1.0" encoding="utf-8"?>
<!-- Generator: Adobe Illustrator 24.0.0, SVG Export Plug-In . SVG Version: 6.00 Build 0)  -->
<svg version="1.1" id="Layer_1" xmlns="http://www.w3.org/2000/svg" xmlns:xlink="http://www.w3.org/1999/xlink" x="0px" y="0px"
	 viewBox="0 0 256 256" style="enable-background:new 0 0 256 256;" xml:space="preserve">
<style type="text/css">
	.st0{fill:#8699A3;}
</style>
<g>
	<path class="st0" d="M0,203.51h256V52H0V203.51z M31.04,88.77L89.44,147c0,0,143.4-12.61,143.4-27.71
		c0-9.07-64.04-17.06-95.38-19.62c-28.04-2.3-59-2.16-59-2.16l43.38,43.26l-30.91,3.14L35.6,88.77c0,0,36.12-2.22,101.86,3.68
		c65.75,5.91,102.18,15.95,102.18,26.49c0,28.05-177.98,55.49-177.98,55.49l15.91-24.79L16.57,89.46L31.04,88.77z"/>
</g>
</svg>
