<?xml version="1.0" encoding="utf-8"?>
<!-- Generator: Adobe Illustrator 24.0.0, SVG Export Plug-In . SVG Version: 6.00 Build 0)  -->
<svg version="1.1" id="Layer_1" xmlns="http://www.w3.org/2000/svg" xmlns:xlink="http://www.w3.org/1999/xlink" x="0px" y="0px"
	 viewBox="0 0 256 256" style="enable-background:new 0 0 256 256;" xml:space="preserve">
<g>
	<g>
		<path d="M128,56C57.3,56,0,84.8,0,120.3c0,28.8,37.6,53.1,89.4,61.3L128,89.8l38.6,91.9c51.8-8.2,89.4-32.6,89.4-61.3
			C256,84.8,198.7,56,128,56z M186.8,152.6l-58.8-68l-58.6,67.8c-28.9-8-47.9-22.1-47.9-39.4c0-27.4,47.3-53,106.3-53
			s107.4,25.7,107.4,53C235.3,130.5,216,144.6,186.8,152.6z"/>
	</g>
</g>
</svg>
