<?xml version="1.0" encoding="utf-8"?>
<!-- Generator: Adobe Illustrator 24.0.0, SVG Export Plug-In . SVG Version: 6.00 Build 0)  -->
<svg version="1.1" id="Layer_1" xmlns="http://www.w3.org/2000/svg" xmlns:xlink="http://www.w3.org/1999/xlink" x="0px" y="0px"
	 viewBox="0 0 256 256" style="enable-background:new 0 0 256 256;" xml:space="preserve">
<style type="text/css">
	.st0{fill:#8699A3;}
</style>
<g>
	<g>
		<path class="st0" d="M128,56C57.3,56,0,84.79,0,120.32c0,28.79,37.58,53.11,89.42,61.34L128,89.76l38.58,91.9
			c51.84-8.23,89.42-32.55,89.42-61.34C256,84.79,198.7,56,128,56z M186.79,152.59L128,84.58l-58.58,67.79
			c-28.86-8.01-47.87-22.05-47.87-39.36c0-27.37,47.3-53.04,106.3-53.04s107.43,25.67,107.43,53.04
			C235.29,130.46,216,144.57,186.79,152.59z"/>
	</g>
</g>
</svg>
