<?xml version="1.0" encoding="utf-8"?>
<!-- Generator: Adobe Illustrator 24.0.0, SVG Export Plug-In . SVG Version: 6.00 Build 0)  -->
<svg version="1.1" id="Layer_1" xmlns="http://www.w3.org/2000/svg" xmlns:xlink="http://www.w3.org/1999/xlink" x="0px" y="0px"
	 viewBox="0 0 36.1 17.72" style="enable-background:new 0 0 36.1 17.72;" xml:space="preserve">
<style type="text/css">
	.st0{fill:#8699A3;}
</style>
<g>
	<g>
		<path class="st0" d="M18.05,0C8.08,0,0,4.06,0,9.07c0,4.06,5.3,7.49,12.61,8.65l5.44-12.96l5.44,12.96
			c7.31-1.16,12.61-4.59,12.61-8.65C36.1,4.06,28.02,0,18.05,0z M26.34,13.62l-8.29-9.59l-8.26,9.56c-4.07-1.13-6.75-3.11-6.75-5.55
			c0-3.86,6.67-7.48,14.99-7.48c8.32,0,15.15,3.62,15.15,7.48C33.18,10.5,30.46,12.49,26.34,13.62z"/>
	</g>
</g>
</svg>
