<?xml version="1.0" encoding="utf-8"?>
<!-- Generator: Adobe Illustrator 24.0.0, SVG Export Plug-In . SVG Version: 6.00 Build 0)  -->
<svg version="1.1" id="Layer_1" xmlns="http://www.w3.org/2000/svg" xmlns:xlink="http://www.w3.org/1999/xlink" x="0px" y="0px"
	 viewBox="0 0 41.3 2.8" style="enable-background:new 0 0 41.3 2.8;" xml:space="preserve">
<style type="text/css">
	.st0{fill:#8699A3;}
</style>
<g>
	<path class="st0" d="M41.3,2.5c0-0.2,0-0.2-0.2-0.2c-1.5,0-3,0-4.6,0c0,0-0.1,0-0.1,0c0-0.2,0-0.4,0-0.6c1.6,0,3.2,0,4.9,0
		c0-0.2,0-0.3,0-0.5c-1.6,0-3.2,0-4.9,0c0-0.2,0-0.4,0-0.6c1.6,0,3.2,0,4.9,0c0-0.2,0-0.3,0-0.5c-1.8,0-3.7,0-5.5,0
		c0,0.9,0,1.9,0,2.8c1.8,0,3.7,0,5.5,0C41.3,2.7,41.3,2.6,41.3,2.5z"/>
	<path class="st0" d="M18.8,1.7c1.3,0,2.5,0,3.8,0c0,0,0.1,0,0.1,0c0.1,0,0.1,0,0.1,0.1c0,0.1,0,0.2,0,0.3c0,0.2,0,0.2-0.2,0.2
		c-1.4,0-2.8,0-4.2,0c-0.1,0-0.1,0-0.2,0c0,0.2,0,0.3,0,0.5c0,0,0,0,0,0c1.5,0,3.1,0,4.6,0c0.3,0,0.5-0.2,0.6-0.5c0-0.2,0-0.4,0-0.6
		c0-0.1,0-0.1-0.1-0.2c-0.1-0.2-0.3-0.3-0.6-0.3c-1.3,0-2.6,0-3.8,0c-0.2,0-0.2,0-0.2-0.2c0-0.1,0-0.2,0-0.2c0-0.2,0-0.2,0.2-0.2
		c1.4,0,2.8,0,4.2,0c0.1,0,0.1,0,0.2,0c0-0.2,0-0.3,0-0.5c0,0-0.1,0-0.1,0c-1.5,0-3,0-4.6,0c-0.3,0-0.6,0.3-0.6,0.6
		c0,0.1,0,0.3,0,0.4C18.1,1.4,18.3,1.7,18.8,1.7z"/>
	<path class="st0" d="M12.6,2.1C12.7,2.1,12.7,2.1,12.6,2.1c1.2,0,2.4,0,3.5,0c0.3,0,0.4,0.1,0.5,0.4c0,0.1,0.1,0.2,0.1,0.3
		c0.2,0,0.4,0,0.6,0c0-0.4-0.2-0.7-0.6-0.9c0,0,0.1,0,0.1,0c0.3-0.1,0.5-0.3,0.5-0.6c0-0.2,0-0.3,0-0.5c0-0.4-0.2-0.7-0.7-0.7
		c-1.5,0-3,0-4.5,0c0,0-0.1,0-0.1,0c0,0.9,0,1.9,0,2.8c0.2,0,0.4,0,0.6,0C12.6,2.6,12.6,2.3,12.6,2.1z M12.6,0.7
		c0-0.1,0-0.1,0.1-0.1c0.6,0,1.3,0,1.9,0c0.6,0,1.2,0,1.9,0c0.2,0,0.2,0,0.2,0.2c0,0.2,0,0.3,0,0.5c0,0.2,0,0.2-0.2,0.2
		c-0.5,0-1,0-1.5,0c-0.8,0-1.5,0-2.3,0c-0.1,0-0.2,0-0.2-0.2C12.6,1.1,12.6,0.9,12.6,0.7z"/>
	<path class="st0" d="M6.7,2.8c1.3,0,2.6,0,3.9,0c0.4,0,0.7-0.3,0.7-0.7c0-0.5,0-1,0-1.5C11.3,0.3,11,0,10.6,0c-0.7,0-1.3,0-2,0
		C8,0,7.3,0,6.7,0C6.3,0,6,0.3,6,0.6c0,0.5,0,1,0,1.5C6,2.6,6.3,2.8,6.7,2.8z M6.7,0.8c0-0.2,0-0.2,0.2-0.2c1.2,0,2.4,0,3.6,0
		c0.2,0,0.2,0,0.2,0.2c0,0.4,0,0.8,0,1.2c0,0.1,0,0.2-0.2,0.2c-0.6,0-1.2,0-1.8,0c0,0,0,0,0,0c-0.6,0-1.2,0-1.8,0
		c-0.2,0-0.2,0-0.2-0.2C6.7,1.6,6.7,1.2,6.7,0.8z"/>
	<path class="st0" d="M0.6,2.1c0.1,0,0.1,0,0.2,0c1.3,0,2.6,0,3.9,0c0.4,0,0.7-0.3,0.7-0.7c0-0.2,0-0.5,0-0.7C5.3,0.3,5,0,4.6,0
		c-1.5,0-3,0-4.5,0C0.1,0,0,0,0,0C0,1,0,1.9,0,2.8c0.2,0,0.4,0,0.6,0C0.6,2.6,0.6,2.3,0.6,2.1z M0.6,0.6c0.1,0,0.1,0,0.2,0
		c1.2,0,2.5,0,3.7,0c0.2,0,0.2,0,0.2,0.2c0,0.2,0,0.3,0,0.5c0,0.1,0,0.2-0.2,0.2c-1.3,0-2.5,0-3.8,0c0,0-0.1,0-0.1-0.1
		C0.6,1.1,0.6,0.9,0.6,0.6z"/>
	<path class="st0" d="M24.8,2.8c1.4,0,2.9,0,4.3,0c0,0,0.1,0,0.1,0c0-0.2,0-0.4,0-0.6c-0.1,0-0.1,0-0.2,0c-1.4,0-2.8,0-4.2,0
		c-0.2,0-0.2,0-0.2-0.2c0-0.4,0-0.8,0-1.2c0-0.2,0-0.2,0.2-0.2c1.4,0,2.8,0,4.1,0c0.1,0,0.1,0,0.2,0c0-0.2,0-0.4,0-0.6
		c-0.1,0-0.1,0-0.1,0c-1.4,0-2.9,0-4.3,0c-0.4,0-0.7,0.3-0.7,0.7c0,0.5,0,1,0,1.5C24.2,2.6,24.4,2.8,24.8,2.8z"/>
	<path class="st0" d="M30.6,1.8c1.3,0,2.5,0,3.8,0c0,0.1,0,0.1,0,0.1c0,0.3,0,0.5,0,0.8c0,0,0,0.1,0.1,0.1c0.2,0,0.4,0,0.5,0
		c0-0.9,0-1.9,0-2.8c-0.2,0-0.4,0-0.6,0c0,0.4,0,0.8,0,1.1c-1.3,0-2.5,0-3.8,0c0-0.4,0-0.8,0-1.1c-0.2,0-0.4,0-0.6,0
		c0,0.9,0,1.9,0,2.8c0.2,0,0.4,0,0.6,0C30.6,2.5,30.6,2.1,30.6,1.8z"/>
</g>
</svg>
