<?xml version="1.0" encoding="utf-8"?>
<!-- Generator: Adobe Illustrator 24.0.0, SVG Export Plug-In . SVG Version: 6.00 Build 0)  -->
<svg version="1.1" id="Layer_1" xmlns="http://www.w3.org/2000/svg" xmlns:xlink="http://www.w3.org/1999/xlink" x="0px" y="0px"
	 viewBox="0 0 256 256" style="enable-background:new 0 0 256 256;" xml:space="preserve">
<g>
	<path d="M26,83.4c0.5,16.1,1.1,35.3,1.8,54.5c0.3,8.1,1.3,16.2,3.6,24.1c8,26.8,22.9,49.2,43.7,67.7c13.2,11.8,28.1,20.6,45.3,25.2
		c5.7,1.5,11.1,1.7,16.4-1.2c7.5-4.1,15.2-8,22.6-12.5c22.9-14.1,40.1-33.5,52-57.7c7.6-15.4,12.5-31.6,13.5-48.7
		c0.6-11.7,0.6-23.5,0.7-35.2c0.1-26.9,0.1-53.9,0.2-80.9c0-2.2-0.8-3.4-2.9-4c-8.8-2.5-17.4-5.3-26.3-7.4
		c-20.8-4.8-42-6.4-63.3-7.2c-24.9-0.8-49.4,2.2-73.6,8c-10.8,2.6-21.3,6-31.5,10.5C26.6,19.3,26,20.2,26,22
		C26,41.4,26,60.8,26,83.4z M32.1,133.2c-0.5-11-1.1-21.9-1.3-32.9c-0.3-14.4-0.3-28.9-0.5-43.3c0-1.6,0.5-2.4,1.9-3
		c17.2-8.2,35.3-14,54.1-16.5c11.1-1.5,22.4-2.2,33.5-3.2c0.6,0,1.2,0,1.9,0c0.5,0,0.9,0.4,0.9,1c0,14.7,0,29.3,0,43.9
		c0,0.5-0.4,0.9-0.9,0.9c-9.6,0-19.1,0-28.9,0c-0.5,0-0.7-0.3-0.4-0.7c1.3-1.3,3.3-1.2,4.8-2.1c0.4-0.2,0.4-0.8,0-1.1
		c-2.3-1.2-6.2-0.7-8.6,1.2c-0.8,0.7-1.6,1.4-2.2,2.3c-1.1,1.7-2.5,2.5-4.6,2.4c-1.4-0.1-2.8,0.1-4.4,0.3c-0.5,0-0.9-0.3-0.8-0.8
		c0.5-2.6,2.2-4.2,3.9-5.8c0.7-0.6,1.6-1,2.2-1.6c0.2-0.2,0.4-0.4,0.6-0.7c0.3-0.4,0.1-0.9-0.4-1.1c-0.3-0.1-0.6-0.2-0.9-0.2
		c-3.7,0.8-6.6,2.8-8.5,6.1c-0.4,0.6-0.6,1.3-0.8,1.9c-0.5,1.1-0.6,2.8-1.4,3.1c-2,1-4.3,1.4-6.5,1.9c-0.2,0.1-1-0.9-1-1.4
		c0.1-2.6,1-4.8,2.8-6.7c0.6-0.6,1.1-1.3,1.7-2c0.3-0.4,0.2-0.8-0.3-0.8c-2.2-0.2-3.9,0.5-5.2,2.1c-2.2,2.6-3.6,5.6-3.7,9
		c0,1.3-0.5,1.9-1.7,2.3c-1.2,0.4-2.3,1-3.5,1.5c-1.4,0.7-2,0.2-2-1.3c0-3,0.5-5.9,2.4-8.4c0.2-0.2,0.3-0.4,0.4-0.6
		c0.2-0.4,0-0.8-0.5-0.9c-1.6-0.3-3,0.5-4.1,2.2c-1.8,2.9-1.9,6.2-2,9.4c0,1.9-3.2,4.9-5.1,4.7c-0.5-0.1-0.9-0.6-1.3-1
		c-0.6-0.6-0.9-1.7-1.6-1.9c-0.9-0.3-2.4-0.4-3,0.2c-0.6,0.5-0.5,2-0.4,3c0.1,0.4,0.4,0.8,0.7,1.3c0.3,0.4,0.2,1-0.2,1.3
		c-0.7,0.4-1.3,0.9-1.9,1.3c-1.3,0.9-1.5,2.2-0.8,3.5c0.7,1.4,1.9,2,3.3,1.4c1.8-0.8,3.3-1.2,5.1,0.3c0.6,0.5,2.5,0.2,3.1-0.4
		c0.6-0.6,0.5-2.2,0.2-3.2c-0.4-1.1-1.1-2,0.4-2.8c11.4-6,23.3-10.6,36.4-11.2c0.8,0,1.6,0,2.3,0.1c0.2,0,0.3,0,0.5,0.1
		c0.3,0.1,0.5,0.5,0.5,1.1c0,5.1,0.1,10.1-0.1,15.2c-0.1,1.2-1.7,2.3-2.1,3.6c-0.7,1.9-2.2,1.2-3.4,1.4c-1.4,0.2-2.8,0.2-4.2,0.4
		c-1.9,0.2-2.1-0.6-1.9-2.2c0.6-3.6,2.2-6.4,5.3-8.3c0.2-0.1,0.3-0.2,0.5-0.4c0.3-0.2,0.1-0.5-0.4-0.6c-2.5-0.1-6.1,1.8-7.3,4.2
		c-0.9,1.6-1.4,3.5-1.7,5.4c-0.4,3.3-0.3,3.3-3.6,4.2c-1.2,0.3-2.3,0.6-3.5,0.9c-0.1,0-0.2,0-0.4,0c-0.2,0-0.5-0.4-0.6-0.9
		c-0.7-4.1,0.6-7.4,3.5-10.3c0.4-0.4,0.3-0.8-0.2-0.8c-2-0.1-3.9,0.9-5.4,2.9c-2,2.7-2.2,5.8-1.5,8.9c0.3,1.4,0,2.1-1.4,2.5
		c-1.2,0.4-2.3,1.1-3.5,1.6c-1.3,0.7-2,0.3-2.3-1.1c-0.7-3.2-0.3-6.3,1.5-9.2c0.2-0.2,0.3-0.5,0.5-0.8c0.3-0.4,0.1-0.8-0.4-0.8
		c-2,0.1-3.2,1.2-4.2,2.7c-1.7,2.6-1.9,5.6-1.3,8.6c0.7,3.4,0.8,3.7-1.8,5.2c-0.4,0.2-1.1,0.2-1.5-0.1c-0.6-0.6-1.3-1.1-2-1.7
		c-1.2-0.9-2.6-1.1-3.4,0c-0.6,0.7-0.8,2.4-0.4,3.2c1.1,1.9,0.9,2.9-1,4.1c-1.7,1-1.9,3-1,4.2c1,1.2,2.8,1.3,4.4,0.2
		c0.5-0.3,0.9-0.7,1.3-1.1c0.9-1,1.8-0.8,2.8,0c0.6,0.5,1.5,1.2,2.2,1.1c1-0.1,2.2-0.6,2.8-1.3c0.4-0.5,0.1-1.8-0.2-2.7
		c-0.2-0.5-0.6-0.9-1.1-1.6c-0.3-0.4-0.2-0.9,0.2-1.2c11.1-6.4,22.8-10.4,35.8-11.4c0.5,0,0.9,0.4,0.9,0.9c0,7.6,0,15,0,22.7
		c0,0.5-0.4,1-0.9,1c-0.5,0.1-1,0.1-1.5,0.1c-16.3,0-32.7,0-49,0C32.3,136.1,32.2,136.1,32.1,133.2z M79.4,220.5
		c-0.3,1.3-0.6,2.6-1,4c-0.1,0.5-0.4,0.9-0.6,0.9c-0.2,0-0.3-0.4-0.3-1c0-0.8,0-1.5,0-2.4c0-0.5,0.3-1.2,0.6-1.6
		c0.1-0.2,0.3-0.3,0.4-0.5c0.3-0.4,0.7-0.6,0.9-0.5C79.5,219.5,79.5,220,79.4,220.5z M123.9,221.9c-0.8,0.8-2.3,1.4-1.5,2.7
		c0.3,0.4,0.2,0.9-0.2,1.2c-1.4,1-1.2,1.3,0.6,3c0.4,0.3,0.5,0.6,0.2,0.5c-0.2-0.1-0.3-0.1-0.5-0.1c-0.6,0-1.4-0.1-1.8,0.2
		c-0.4,0.3-0.7,1.2-0.5,1.6c0.3,0.5,1.1,0.7,1.7,1c0.4,0.2,1.1,0.2,1.3,0.5c0.2,0.2-0.2,0.8-0.3,1.3c-0.1,0.6-0.2,1.2-0.2,1.9
		c0,0.5-0.2,1.2-0.7,1.4c-0.6,0.4-1.2,0.9-0.7,2.1c0.1,0.2-0.3,0.5-0.4,0.8c-0.3,0.7-0.8,1.8-0.6,2c0.4,0.4,1.1,0.6,1.9,0.9
		c0.5,0.2,0.8,0.6,0.8,0.9c0,0.4-0.4,0.4-0.8,0.2c-0.3-0.1-0.5-0.3-0.8-0.4c-0.5-0.2-1.2-0.3-1.4-0.1c-0.4,0.4-0.9,1.1-0.8,1.7
		c0,0.4,0.8,0.9,1.3,1.1c0.6,0.3,1.3,0.4,2,0.5c0.5,0.1,0.8,0.4,0.7,0.7c-0.1,0.3-0.5,0.4-1,0.2c-0.7-0.3-1.4-0.5-2.1-0.7
		c-1.5-0.4-3-0.8-4.5-1.2c-0.5-0.1-0.9-0.1-1,0c-0.1,0.1-0.2,0-0.4-0.4c-0.2-0.3-0.7-0.6-1.2-0.7c-0.4,0-0.8-0.1-1.2-0.1
		c-0.5,0-0.8-0.4-0.6-0.9c0.1-0.3,0.2-0.6,0.2-0.9c0.1-0.6,0.2-1.3,0-1.8c-0.2-0.4-1.1-0.8-1.3-0.7c-0.6,0.3-1,1-1.3,1.5
		c-0.2,0.2-0.2,0.5-0.3,0.8c-0.1,0.4-0.5,0.5-0.9,0.2c-0.3-0.3-1-0.6-1.5-0.7c-0.4-0.1-0.8-0.1-1.2-0.2c-0.5-0.1-0.7-0.5-0.5-1
		c0.7-1.5,1.3-2.8,1.8-4.2c0.1-0.3-0.2-0.6-0.4-1c-0.3-0.4-0.9-0.5-1.3-0.2c-0.4,0.2-0.7,0.5-0.8,0.8c-0.4,1.4-0.5,3-0.9,4.5
		c0,0.1-0.3,0.1-0.6,0.2c-0.4,0-0.6-0.4-0.6-0.9c0.1-1.1,0.3-1.9,0.1-2.6c-0.2-0.7-3.1-1.1-4.7-1c-0.5,0-1-0.2-1.3-0.6
		c-0.6-0.9-1.4-1.2-2.7-0.7c-0.5,0.2-0.7,0-0.6-0.5c0.2-0.7,0.3-1.2,0.6-1.7c0.7-1.4-0.1-1.9-1.2-2.4c-0.8-0.3-1.8-0.9-2.5-0.8
		c-0.8,0.1-1.4,0.6-2.1,1c-0.4,0.3-0.7,0.1-0.6-0.4c0.2-0.7,0.4-1.6,0.6-2.5c0.2-0.6,0.6-1.4,0.4-1.8c-0.3-0.5-1.3-0.9-1.7-0.7
		c-0.5,0.3-0.8,1.1-1.1,1.8c-0.1,0.2-0.2,0.5-0.3,0.7c-0.1,0.4-0.4,0.7-0.7,0.7c-0.2,0-0.4-0.5-0.4-1c0-0.4,0.1-0.7,0.2-1.1
		c0.5-1.4,0.8-2.8,1.3-4.2c0.3-1.1-0.6-1.5-1.6-1.3c-0.5,0.1-1,0-1.2-0.4c-0.2-0.4-0.2-0.7,0-0.8c0.1-0.1,0.2-0.1,0.3-0.1
		c1.7,0.2,3.6-0.1,5.2,1.2c0.2,0.2,0.9,0,1.4-0.2c0.5-0.2,1.2,0,1.5,0.3c0.2,0.2,0.4,0.4,0.6,0.6c0.4,0.4,0.9,0.3,1.2-0.1
		c0.4-0.5,0.8-1.1,1.2-1.7c0.3-0.4,0.8-0.4,1.3-0.3c1.2,0.4,2.9,0.1,4.2,1.4c0.7,0.8,2.2,1,3.4,1.1c0.5,0,1.1-0.9,1.6-1.5
		c0.3-0.3,0.5-0.6,0.7-1c0.3-0.4,0.6-0.7,0.8-0.6c0.2,0.1,0.1,0.6-0.2,1c-0.2,0.4-0.4,0.8-0.7,1.2c-0.2,0.4-0.1,1.1,0.3,1.4
		c0.2,0.2,0.4,0.4,0.7,0.6c0.4,0.3,0.8,0.1,1-0.3c0.2-0.6,0.3-1.1,0.4-1.6c0.1-0.5,0.5-1.3,0.9-1.5c0.5-0.3,0.9,0,1.2,0.5
		c0.3,0.4,0.7,0.7,1.2,0.5c0.3-0.1,0.7-0.2,1-0.4c0.5-0.2,1.1,0,1.4,0.4c0.2,0.2,0.3,0.4,0.5,0.6c0.3,0.4,0.8,0.4,1.1,0
		c0.3-0.4,0.6-0.8,1-1.3c0.3-0.4,0.9-0.7,1.3-0.6c0.4,0.1,0.4,0.3,0.1,0.6c-0.2,0.2-0.4,0.4-0.6,0.6c-0.3,0.4-0.7,1.2-0.5,1.4
		c0.4,0.5,1.1,0.8,1.7,1c0.6,0.2,1.2,0.2,1.8,0.4c0.6,0.2,1.3,0.8,1.5,0.6c0.5-0.3,1-1,1.1-1.7c0.3-1.7,0.5-2.1,1.7-1.6
		C124,220.9,124.3,221.5,123.9,221.9z M219.6,139.4c-2.3,18.9-8,36.7-18.2,52.9c-8.3,13.2-17.9,25.3-30.3,34.9
		c-11.8,9.1-24.3,17.1-37.8,23.4c-0.5,0.3-1.1,0.5-1.7,0.7c-0.5,0.2-0.9-0.1-0.9-0.6c0-24.9,0-49.5,0-74.3c0-0.5,0.4-1.1,0.9-1
		c1.4,0.3,3,1.7,4,0.3c0.3-0.4,0.8-0.7,1.3-0.5c1.2,0.5,2.3,1,3.2,0.8c0.6-0.2,1-1.5,1.5-2.9c0.2-0.5,0.7-1,1.2-1.2
		c5.6-2.4,10.8-6.2,15.3-11c0.4-0.4,0.9-0.6,1.4-0.8c14-5,27.8-5.4,41,2.6c1.1,0.6,2.1,1.4,3.4,2.4c0.4,0.3,0.7,0.1,0.7-0.4
		c0-1.1,0-2.1-0.4-2.7c-1-1.8-2.2-3.4-3.6-4.9c-1.3-1.4-1.4-2.2,0.5-3.1c1.9-0.9,3.9-1.7,6.3-2.6c0.5-0.2,0.5-0.6,0.1-0.9
		c-0.7-0.5-1.2-0.9-1.7-1c-3.4-0.4-6.6-0.3-9.1,2.6c-0.7,0.8-1.9,1.9-2.6,1.7c-1.9-0.4-3.7-1.3-5.5-2.1c-0.2-0.1-0.1-1.4,0.3-1.8
		c1.4-1.6,3-3.1,4.6-4.6c0.4-0.4,0.9-0.7,1.5-1c0.4-0.2,0.6-0.8,0.1-1.1c-1.8-1.4-5.1-1.5-7.2,0.1c-1.8,1.3-3.4,3-4.5,4.9
		c-1.2,2.1-2.4,3.5-5,3.2c-0.7-0.1-1.4,0-2.3,0.1c-0.5,0-0.9-0.4-0.8-0.9c0.6-3.4,2.4-5.9,5.5-7.8c0.4-0.3,0.4-0.6,0-0.9
		c-0.5-0.3-0.8-0.5-1.2-0.5c-5.4,0-9.3,2.9-10.8,8.1c-1.1,3.8-1.4,4.2-5.2,4.8c-0.5,0.1-0.7-0.2-0.5-0.7c0.7-1.3,1.5-2.5,1.9-3.9
		c1-3.6,1.8-7.2,2.5-10.9c0.2-1.2,0.5-1.7,1.8-1.7c16.1,0,32.1,0,48.2,0C219.4,137.2,219.8,137.9,219.6,139.4z M32.7,21.1
		c10.9-4.8,22.2-8.2,33.9-10.8C90.1,5.1,114,2.9,138.2,4C162,5,185.7,7.6,208.8,14c3.7,1.1,7.4,2.4,11,3.9c0.7,0.3,1.6,1.4,1.6,2.1
		c0.1,9.3,0.1,18.7,0.1,28c0,0.2,0,0.4-0.1,0.6c-0.1,0.3-0.5,0.5-1,0.3c-3.8-1.3-7.4-2.8-11.2-4c-14.7-4.9-29.7-8.6-45-10.9
		c-0.5-0.1-1.3-0.2-1.8-0.2c-10.5-1.5-21-2.2-31.6-1.9c-3.7,0.1-3.7,0.1-3.7,3.7c0,5.4,0.1,10.9-0.1,16.4c0,2,0.5,2.6,2.6,2.6
		c27.8-0.1,55.5,0,83.2,0c2.3,0,4.6,0,7.1,0c0.5,0,0.9,0.4,0.9,0.9c0,0.2,0,0.3,0,0.5c0,0.5-0.4,0.9-0.9,0.9c-1.2,0-2.4,0-3.6,0
		c-28.9,0-57.8,0-86.6,0c-3,0-3,0-3,3.1c0,6.6,0,13.2,0,19.7c0,0.4,0.1,0.8,0.3,1.2c0.2,0.5,0.7,0.7,1.1,0.4
		c0.3-0.2,0.6-0.4,0.9-0.5c0.5-0.2,1-0.4,1.5-0.4c1.8,0,2.4-0.7,2-2.1c-0.1-0.5-0.1-1,0.1-1.2c0.1-0.2,0.3-0.3,0.5-0.4
		c0.1-0.1,0.2-0.1,0.3-0.2c0.1-0.1,0.5,0.2,0.8,0.6c1.1,1.2,2.1,1.4,2.5,0.2c0.4-1.2,0.6-2.6,1.2-3.8c0.1-0.1-0.3-0.4-0.6-0.7
		c-0.4-0.3-1-0.3-1.3,0.1c-0.3,0.3-0.6,0.6-0.8,1c-0.2,0.3-0.3,0.7-0.4,1c-0.1,0.5-0.4,0.8-0.7,0.8c-0.2-0.1-0.4-0.5-0.3-1
		c0.1-0.3,0.1-0.6,0.2-0.8c0.1-0.6,0.7-1.4,0.5-1.6c-0.5-0.6-1.3-0.8-2-1.2c-0.2-0.2-0.5-0.3-0.8-0.5c-0.4-0.2-0.4-0.7,0-1
		c0.9-0.8,1.1-1.6,0.6-2.5c-0.2-0.4-0.9-0.6-1.4-0.4c0,0,0,0,0,0c-0.5,0.2-0.9-0.1-0.9-0.6c-0.1-1.4-0.1-2.7-0.1-4.1
		c0-0.3,0.4-0.8,0.8-0.9c0.3-0.1,0.9,0,1.1,0.3c0.2,0.3,0.4,0.5,0.5,0.8c0.2,0.5,0.7,0.5,1.1,0.2c0.5-0.5,0.9-1,1.4-1.4
		c0.2-0.2,0.4-0.3,0.5-0.5c0.3-0.3,0.6-0.5,0.8-0.3c0.1,0.1,0,0.4-0.2,0.7c-0.1,0.2-0.3,0.4-0.3,0.6c-0.1,0.5-0.3,1.3-0.1,1.7
		c0.3,0.4,1.2,0.7,1.6,0.5c0.5-0.2,0.8-1,1.1-1.6c0.2-0.4,0.3-0.9,0.4-1.5c0.1-0.5,0.5-0.6,0.8-0.2c0.9,1.1,1.7,1.8,2.6,1.1
		c0.4-0.3,0.8-0.3,1.1,0.2c0.4,0.9,0.9,1.7,2.3,1c0.1-0.1,0.5,0.2,0.6,0.3c0.8,0.8,1.7,1.3,2.5,0.3c0.3-0.4,0.3-1,0.3-1.7
		c0-0.5,0.3-0.9,0.7-0.9c0.3,0,0.6,0.4,0.5,0.9c0,0.3-0.1,0.6-0.1,0.9c-0.1,0.6-0.2,1.4,0,1.9c0.1,0.3,1.1,0.6,1.4,0.5
		c0.5-0.4,0.8-1.1,1-1.7c0.2-0.5,0.4-0.9,0.5-1.4c0.1-0.5,0.6-0.6,1-0.2c0.3,0.3,0.6,0.5,0.9,0.8c0.4,0.3,1,0.3,1.3-0.1
		c0.4-0.4,0.8-0.8,1.2-1.4c0.3-0.4,1-0.6,1.5-0.5c1.5,0.3,3.3,0.6,5.3,0.9c0.5,0.1,0.7,0.5,0.6,1c-0.2,0.4-0.3,0.9-0.3,1.3
		c0,0.5,0.1,1,0.3,1.4c0.2,0.5,0.7,0.7,1.2,0.6c0.4-0.1,0.7-0.2,0.8-0.4c0.5-1.3,0.8-2.7,1.2-4.2c0.1-0.5,0.6-0.8,1.1-0.7
		c1.5,0.1,3.1-0.3,4.6,0.8c0.4,0.3,1.2,0,2.2-0.3c0.5-0.1,0.7,0.2,0.6,0.6c-0.3,0.8-0.6,1.5-0.9,2.3c-0.1,0.2-0.3,0.5-0.2,0.5
		c0.6,0.6,1.1,1.4,1.8,1.7c0.8,0.5,1.7,0.8,2.6,0.8c1.1,0,2-0.6,1.6-2.1c-0.1-0.3,0.3-0.7,0.4-1c0.2-0.7,0.6-1.4,0.4-2
		c-0.4-1-1.2-1.3-2.2-0.7c0,0-0.1,0-0.3-0.1c-0.1-0.1-0.2-0.3-0.2-0.5c0-0.2,0.4-0.3,0.9-0.2c1.2,0,2.6,0,3.5,0.5
		c0.9,0.6,1.5,0.8,2.1,0.6c0.5-0.2,1.1-0.3,1.4,0c0.5,0.5,1.1,0.9,1.5,0.9c0.6-0.1,1.1-0.7,1.7-1.4c0.4-0.4,1-0.6,1.3-0.5
		c0.4,0.1,1.1,0.2,1.6,0.2c2,0.1,3.8,0.5,5.6,1.6c0.4,0.2,1.4-0.4,2-0.8c0.1-0.1,0.3-0.3,0.4-0.5c0.1-0.3,0.3-0.2,0.4,0.3
		c0.1,0.5,0.1,0.9,0.2,1.3c0.1,0.5,0.5,1,1,1c1.3,0,1.6-1.1,1.6-2.5c0-0.5,0.4-0.8,0.9-0.6c0.4,0.2,0.7,0.3,0.9,0.4
		c0.4,0.2,0.9,0.7,1,0.6c1.4-0.8,2.1,0.2,3.2,0.7c0.4,0.2,1.3-0.6,1.9-1.1c0.2-0.1,0.3-0.3,0.5-0.5c0.2-0.3,0.3-0.1,0.1,0.4
		c-0.6,1.5-0.1,1.8,2.1,2.2c1.1,0.2,2.1,1.5,3.2,0.8c0.4-0.2,0.8-0.2,1,0.3c0,0.1,0,0.1,0.1,0.2c0.1,0.5,0,1.2-0.4,1.5
		c-1.1,1.2-0.9,1.5,0.6,2.7c0.4,0.3,0.3,0.7-0.2,0.8c-0.6,0.2-1.2,0.3-1.8,0.6c-0.2,0-0.1,1.2,0.1,1.4c0.5,0.3,1.1,0.5,1.9,0.8
		c0.5,0.1,1.1,0.7,0.8,1.1c-0.5,0.9-2,1.9-0.5,3c0.4,0.3,0.4,0.5-0.1,0.6c-2,0.5-1.1,2.6-1.7,3.9c-0.2,0.5-0.2,0.7,0.4,0.7
		c0.2,0,0.4,0,0.7,0c0.5,0,0.9-0.4,0.9-0.8c0-0.5,0.2-0.8,0.3-0.9c0.2,0,0.4,0.4,0.4,0.9c0.1,0.7,0.1,1.4,0.1,2.2c0,0.5-0.3,1-0.9,1
		c-0.5,0.1-1,0.1-1.5,0.1c-17.1,0-34.2,0-51.4-0.1c-1.9,0-2.6,0.4-2.5,2.4c0.2,5.5,0.3,11.1,0.2,16.6c0,2.2,0.8,2.7,2.9,2.7
		c16.5-0.1,33-0.1,49.5-0.1c0.6,0,1.1,0,1.8,0c0.5,0,1,0.4,1.1,0.9c0,0.2,0.1,0.4,0.1,0.6c0.1,0.5-0.3,0.9-0.8,1
		c-0.7,0.1-1.3,0.1-1.9,0.1c-16.5,0-33,0-49.4,0c-3.1,0-3.1,0-3.1,3.2c0.1,6.6,0.1,13.2,0.1,19.8c0,2.3,0.2,2.4,2.2,1.4
		c0.3-0.1,0.8,0.1,1.1,0c0.4-0.2,0.9-0.4,1.3-0.6c0.4-0.2,0.6-0.8,0.3-1.2c-0.3-0.4-0.5-0.7-0.8-1.1c-0.2-0.2-0.4-0.3-0.7-0.5
		c-0.4-0.3-0.2-0.4,0.3-0.3c1.9,0.7,1.9,0.4,2.6-2.4c0-0.2,0.4-0.4,0.5-0.7c0.1-0.7,0.5-1.6,0.2-1.9c-0.3-0.3-0.8-0.5-1.5-0.7
		c-0.5-0.2-0.9-0.6-0.9-0.9c0-0.2,0-0.4,0.1-0.6c0.1-0.8,0.8-1.8,0.6-2.1c-0.4-0.4-1-0.6-1.8-0.9c-0.5-0.2-0.8-0.7-0.8-1.2
		c0.1-0.7,0.2-1.6,0.3-2.7c0-0.5,0.5-0.8,0.9-0.7c0.3,0.1,0.6,0.2,0.8,0.2c0.6,0.1,1.3,0.5,1.6,0.2c0.5-0.3,0.9-1.1,0.9-1.6
		c0-1.4,0.4-1.6,1.2-1.3c0.5,0.2,0.6,0.6,0.2,1c-0.8,0.9-1.2,1.8-0.6,2.8c0.3,0.4,0.6,0.7,0.6,0.6c0,0,0.4-0.1,0.9-0.2
		c0.8-0.3,1.3-0.8,1.1-2.1c-0.1-0.3,0.2-0.7,0.6-1.2c0.3-0.4,0.7-0.4,0.9,0.1c0,0.1,0.1,0.2,0.1,0.2c0.2,0.4,0.8,0.9,1.3,0.9
		c0.9,0,1.3-0.4,1.6-1.8c0.1-0.5,0.5-0.8,1-0.8c1.5,0.1,3-0.2,4.2,0.9c0.4,0.3,0.6,0.7,0.6,0.7s0.4,0,0.9,0c0.3,0,0.6,0,0.9,0
		c0.5,0,0.7,0.4,0.3,0.7c-0.2,0.3-0.4,0.5-0.5,0.8c-0.2,0.5-0.3,1.2-0.1,1.7c0.2,0.4,0.9,0.8,1.3,0.7c0.6-0.1,1.2-0.6,1.4-1.1
		c0.4-1.2,0.6-2.4,0.9-3.7c0.1-0.5,0.6-0.9,1.1-0.8c2.1,0.3,4.1,0.6,6,0.9c0.5,0.1,0.9,0,0.9-0.2c0-0.2,0.2,0.1,0.4,0.6
		c0.1,0.1,0.1,0.3,0.2,0.4c0.2,0.5,0.5,0.9,0.6,1c0.1,0.1,0.6,0.1,1.1,0c0.1,0,0.3,0,0.4,0c0.5-0.1,0.8,0.2,0.6,0.6
		c-0.1,0.3-0.2,0.5-0.3,0.7c-0.1,0.7-0.4,1.5-0.2,2c0.2,0.4,1.3,0.7,1.7,0.5c0.5-0.3,0.6-1.1,0.9-1.8c0.1-0.4,0.2-0.8,0.3-1.3
		c0.1-0.4,0.2-0.7,0.4-1.1c0.2-0.5-0.1-1-0.6-1.1c-0.4-0.1-0.8-0.2-1.2-0.4c-0.1,0-0.2,0-0.3,0c-0.2,0-0.3-0.2-0.3-0.3
		c0-0.1,0.4-0.3,0.9-0.2c0.9,0,1.8,0.1,2.7,0.2c0.9,0.1,1.8,0.4,2.7,0.5c0.5,0.1,1.2,0.4,1.6,0.7c1.3,1.2,1.7,1.1,2.8-0.5
		c0.3-0.4,0.9-0.6,1.5-0.6c1.3,0,2.8-0.4,3.9,0.2c0.5,0.2,0.7,0.7,0.6,1c-0.1,0.2-0.5,0.2-1,0.1c-0.8-0.2-1.6-0.5-2.3-0.8
		c-1.4-0.7-1.9,0.1-2.3,1.3c-0.1,0.5-0.1,1-0.2,1.5c-0.1,0.8-0.6,1.8-0.3,2.3c0.2,0.4,0.9,0.5,1.8,0.7c0.5,0.1,0.8,0.5,0.6,0.9
		c-0.1,0.2-0.2,0.5-0.2,0.7c-0.1,0.6-0.5,1.3-0.2,1.8c0.2,0.4,1.3,0.8,1.5,0.7c0.5-0.3,0.7-1.1,1-1.7c0.2-0.4,0.2-1,0.5-1.4
		c0.9-1.5,0.6-2.4-1.2-2.6c-0.3,0-0.8,0.1-1-0.1c-0.1-0.2-0.2-0.4-0.3-0.6c-0.1-0.4,0.1-0.7,0.4-0.7c0.2,0,0.4,0,0.6,0.1
		c0.6,0.2,1.3,0.6,2.1,1c0.5,0.2,0.7,0.8,0.6,1.3c-0.4,1.1-0.8,2.5-1.1,3.8c-0.1,0.4,0,0.9,0.2,1.3c0.2,0.5,0,1.2-0.3,1.6
		c-0.5,0.5-0.9,0.9-0.9,1.3c0.1,0.6,0.7,1,1.3,1.5c0.4,0.3,0.7,1,0.6,1.5c-0.1,1.8-0.2,3.9-0.4,6.1c0,0.5-0.5,0.9-1,0.9
		c-0.8,0-1.7,0-2.5,0c-16.1,0.1-32.1,0.1-48.2,0.1c-1.8,0-2.4,0.6-2.4,2.3c-0.4,16.2-13.2,29.3-27.4,33.6c-2.3,0.7-4.8,1.4-7.2,1.6
		c-2.3,0.2-2.8,1.2-2.8,3.2c0.1,12.2,0,24.4,0.1,36.5c0,12.7,0,25.4,0,38c0,0.4,0,0.7-0.1,1.1c0,0.5-0.5,0.9-0.9,0.6
		c-0.9-0.6-0.7-1.6-0.7-2.4c-0.1-7.4-0.1-14.7-0.2-22.1c0-2.8,0-5.6-0.1-8.5c-0.1-2.9-0.5-3.3-3.4-3.3c-13.2,0-26.5,0-39.7,0
		c-4.8,0-9.6,0.1-14.4-0.1c-0.8,0-1.5-0.4-2.3-0.9c-0.4-0.2-0.8-0.6-0.7-0.9c0.1-0.3,0.5-0.5,1-0.5c0.6,0,1.3,0,1.9,0
		c18.2,0,36.4,0,54.5,0c3,0,3.1-0.1,3.1-3.1c0-6.4,0-12.7,0-19.1c0-2.7-0.1-2.7-2.8-2.7c-24.2,0.1-48.4,0.2-72.6,0.4
		c-2.6,0-3.1-0.2-3.6-2.7c-0.1-0.5,0.2-0.8,0.8-0.7c0.5,0.1,0.9,0.2,1.3,0.2c0.6,0.1,1.3,0.4,1.8,0.2c0.4-0.2,0.9-1.2,0.7-1.4
		c-0.4-0.6-1.1-1.1-1.8-1.3c-1.2-0.4-2.5-0.7-3.6-1c-0.5-0.1-0.8-0.6-0.7-1.1c0.2-0.9,0.3-1.6,0.5-2.4c0.1-0.5,0.1-0.9,0-0.9
		c-0.1,0,0-0.3,0.3-0.8c0.1-0.2,0.2-0.4,0.3-0.6c0.2-0.4,0.1-1-0.4-1.2c-0.5-0.2-0.9-0.5-1.4-0.6c-1.2-0.5-2.6-0.6-3.6-1.4
		c-1-0.7-0.5-1.1,0-1.5c0.4-0.4,0.7-1.1,0.5-1.6c-0.3-1.2-1.3-1.5-2.8-1.1c-0.5,0.1-0.7-0.1-0.5-0.6c0-0.1,0-0.1,0.1-0.2
		c0.2-0.5,0.8-0.7,1.3-0.5c0.8,0.3,1.5,0.6,2.1,0.5c0.3-0.1,0.5-0.7,0.8-1.5c0.2-0.4,0.7-0.8,1.2-0.8c0.7,0.1,1.6,0.2,2.5,0.3
		c0.5,0,1.2,0.4,1.5,0.8c0.9,0.9,1.3,0.8,2.5-0.6c0.3-0.4,0.5-0.3,0.6,0.2c0,1.6,0.7,2,2.5,1.6c0.5-0.1,0.8,0.1,0.6,0.6
		c-0.2,0.5-0.3,0.9-0.4,1.4c-0.1,0.6-0.4,1.3-0.2,1.9c0.1,0.4,1,0.8,1.3,0.6c0.5-0.2,0.9-0.8,1.1-1.4c0.4-0.8,0.6-1.6,0.9-2.4
		c0.1-0.4,0.3-1,0.1-1.1c-0.5-0.4-1.1-0.7-1.7-1c-0.2-0.1-0.5-0.2-0.7-0.3c-0.4-0.1-0.7-0.4-0.6-0.7c0.1-0.2,0.6-0.3,1.1-0.3
		c1.3,0.2,2.6,0.2,3.4,0.9c1.6,1.4,2.4,1,3,0.1c0.3-0.4,0.6-0.4,0.8,0.1c0.2,0.6,0.4,1.2,0.8,1.6c0.2,0.2,0.5,0.1,0.9,0
		c0.5-0.1,1.2-0.1,1.7,0.2c0.9,0.5,1.8,0.9,2.6,1.4c0.5,0.2,0.8,0.6,0.7,0.8c-0.1,0.2-0.4,0.4-0.9,0.4c-0.3,0-0.6,0-0.7-0.2
		c-0.8-0.8-1.5-1.2-2.3-0.3c-0.3,0.3-0.5,1.3-0.3,1.4c0.4,0.3,1,0.5,1.5,0.6c0.5,0.1,1.3,0.3,1.7,0.6c0.5,0.3,1,0.6,1.5,0.5
		c1.1-0.1,1.3-1.1,0.8-2.2c-0.1-0.2,0.6-0.6,0.8-1.1c0.2-0.5,0.7-1.1,0.5-1.5c-0.2-0.5-0.9-0.8-1.4-1c-0.3-0.1-0.5-0.2-0.8-0.3
		c-0.4-0.1-0.7-0.5-0.5-0.8s0.7-0.4,1.1-0.2c1.7,0.7,3.1,1.6,4.6,1.7c1.3,0.1,1.7-0.8,1.4-1.7c-0.1-0.5,0-0.8,0.6-0.8
		c1.3,0,2.6,0,3.9,0.1c0.1,0,0.3,1.1,0.3,1.7c-0.1,0.7-0.7,1.6-0.5,2c0.4,0.5,1.4,0.5,2.1,0.8c0.3,0.1,0.8,0.4,0.8,0.6
		c0,0.3-0.1,0.6-0.2,1c-0.1,0.5-0.5,0.6-0.8,0.2c-0.2-0.3-0.4-0.5-0.6-0.6c-0.6-0.2-1.4-0.5-1.9-0.3c-0.3,0.1-0.7,1.2-0.5,1.6
		c0.3,0.5,1,0.7,1.6,1c0.6,0.3,1.2,0.4,1.7,0.7c1.1,0.7,2.3,0.2,2.1-0.7c-0.3-1.3,0.4-2,1-2.6c0.4-0.4,0.3-0.9,0-1.2
		c-0.4-0.4-0.8-0.7-1.3-1.1c-0.2-0.1-0.4-0.2-0.6-0.3c-0.3-0.1-0.5-0.6-0.3-1c0.2-0.4,0.4-0.3,0.8,0c1,1,2.9,0.3,3.8,1.3
		c0.4,0.4,0.8,0.7,1.3,0.5c1-0.4,1.7-1.1,0.8-2.5c-0.3-0.4-0.1-0.8,0.4-0.8c0.6-0.1,1.1-0.1,1.4,0.1c1.3,1.3,2.3,1.1,3.4,0.1
		c0.4-0.3,0.5-0.2,0.3,0.2c-0.4,1-0.9,2.1-1.1,3.1c0,0.3,0.3,0.7,0.7,1.1c0.4,0.4,1,0.4,1.4,0.1c0.4-0.3,0.8-0.7,1-1.1
		c0.2-0.2,0.2-0.5,0.2-0.8c0.1-0.4,0.5-0.6,0.9-0.4c1.7,0.8,3.2,1.8,4.8,1.9c0.9,0.1,1.5,0.3,2,0.7c0.4,0.3,1.1,0.6,1.6,0.6
		c0.4,0,0.8,0,1.2,0.1c0.5,0,1,0.2,1,0.3s-0.2,0.4-0.4,0.6c-0.2,0.1-0.4,0.3-0.5,0.5c-0.3,0.4-0.6,1.4-0.5,1.5
		c1.4,0.8,2.9,1.7,4.4,2.1c0.4,0.1,1-0.8,1.7-1.8c0.3-0.4,1-0.6,1.5-0.4c1,0.3,2.3,0.6,3.6,1c0.4,0.1,0.8,0.2,1.2,0.4
		c0.3,0.1,0.6,0.1,0.9,0.2c0.5,0.1,0.7,0.5,0.5,0.9c-0.2,0.2-0.3,0.5-0.3,0.8c-0.1,0.6-0.2,1.8,0,1.9c2.1,0.9,1.7,2.8,2.2,4.4
		c0.1,0.1,0.1,0.3,0.2,0.5c0.1,0.2,0.6,0.6,1.1,0.5c0.7-0.1,1-0.7,1-1.6c0-2.9,0-5.7,0.1-8.5c0-1.3-0.5-1.9-1.8-2
		c-8.7-0.8-16.2-4.3-22.9-9.7c-0.8-0.6-2.1-0.9-3.1-0.9c-19.5,0-38.9,0.1-58.4,0.3c-1.7,0-2.7-0.4-2.8-2.2c0-0.5,0.4-0.9,0.9-0.9
		c19.4,0,38.8,0,58.2,0c0.5,0,1-0.2,1-0.3c0.1-0.2-0.2-0.6-0.6-1c-4.1-4.1-5.7-9.3-6.7-14.7c-0.5-2.5-0.6-5.1-0.6-7.6
		c-0.2-16.9-0.2-33.8-0.3-50.7c0-3.4,0-3.5,3.4-3.5c10.2,0,20.4,0,30.6,0c1.9,0,2.5-0.6,2.5-2.5c-0.2-15-0.3-30-0.4-45
		c0-1.9-0.6-2.6-2.6-2.6c-28.6,1-56.5,5.5-83.1,16.6c-2.5,1-5,2.2-7.7,3.4c-0.5,0.2-0.9,0-0.9-0.5c0-0.3,0-0.6,0-0.8
		c0-8.6,0-17.1,0-25.7C30.3,22.9,30.9,21.9,32.7,21.1z"/>
	<path d="M182.8,114.4c0.5,0.1,1.3,0.3,1.8,0.6c0.6,0.2,1.2,0.5,1.6,0.3c0.9-0.4,1-1.1,0.7-1.8c-0.2-0.5-0.4-0.8-0.4-0.8
		c0,0-0.4,0-0.9,0.1c-0.9,0.1-1.8,0.3-2.4-0.9c-0.1-0.1-1.1-0.1-1.3,0.2c-0.4,0.5-0.7,1.6-0.5,1.7
		C181.8,114,182.3,114.2,182.8,114.4z"/>
	<path d="M199.7,113.8C199.7,113.8,199.7,113.8,199.7,113.8c-0.5,0.2-1,0.2-1.1,0.2c-0.1,0-0.1-0.1-0.2-0.1
		c-0.7-0.3-1.5-0.7-2.2-0.9c-0.1,0-0.2,0.3-0.4,0.6c-0.2,0.4,0.1,0.9,0.5,1.1c0.4,0.2,0.9,0.5,1.4,0.7c0.3,0.2,0.7,0.2,1,0.3
		c0.3,0.1,0.7,0.2,1,0.4c0.5,0.2,0.9-0.1,0.9-0.6c0-0.3,0.1-0.6,0.1-0.8c0.1-0.5,0.1-1-0.1-1.1C200.7,113.6,200.2,113.6,199.7,113.8
		z"/>
	<path d="M90.7,87c0,16.6-0.1,33.2,0,49.8c0,5.5,1.3,10.8,4.1,15.6c5.5,9.5,14.2,14.8,24.6,17.4c3.1,0.8,6.5,1.6,9.6,1.1
		c9.2-1.5,17.4-5.4,24.4-11.6c6.4-5.6,10-12.5,9.9-21.4c-0.2-17.2-0.1-34.5,0-51.8c0-1.8-0.5-2.4-2.4-2.4c-11.2,0.1-22.3,0-33.5,0
		c-11.2,0-22.3,0-33.5,0C91,83.8,90.7,84.1,90.7,87z M126.8,86.3c10.3,0,20.6,0.1,31,0c2.1,0,2.8,0.5,2.8,2.7
		c-0.1,16.6,0,33.2-0.1,49.9c0,7.8-4,13.7-9.6,18.7c-6.3,5.7-13.8,9.3-22.2,10.9c-1.4,0.3-3,0-4.4-0.3c-8.4-1.7-16.4-4.4-22.6-10.8
		c-5.7-6-8.5-13.3-8.6-21.3c-0.3-15.8,0-31.6,0-47.3c0-1.8,0.5-2.4,2.4-2.4C106,86.3,116.4,86.3,126.8,86.3z"/>
	<path d="M196.2,35.2c3,1,6.1,1.7,9.2,2.6c3.7,1.1,7.3,2.3,11,3.5c0.5,0.2,0.9-0.1,1-0.6c0.4-3.3,0.2-3.5-3.2-4.6
		c-3.9-1.4-7.9-2.6-11.9-3.8c-2.4-0.7-2.8-1.1-2-3.6c0.1-0.5,0.7-0.8,1.2-0.6c5,1.5,10,3.1,15,4.6c0.5,0.2,0.9-0.1,1-0.6
		c0.3-2.8,0.1-3-3-4c-4.4-1.5-9-2.8-13.5-4.2c-0.5-0.2-0.9-0.7-0.9-1.2c0-0.4,0-0.9,0-1.4c0-0.5,0.4-0.8,0.9-0.7
		c5.2,1.5,10.3,2.9,15.3,4.3c0.5,0.1,1-0.1,1.1-0.6c0.6-3,0.4-3.2-2.9-4.2c-3.4-1.1-6.9-2.1-10.4-3c-2.8-0.8-5.5-1.4-8.2-2
		c-0.5-0.1-1-0.1-1.1,0.1s-0.1,0.2-0.1,0.3c0,6.2-0.1,12.3,0,18.5C194.7,34.2,195.6,35,196.2,35.2z"/>
	<path d="M34,43c0,0.5,0.4,0.8,0.9,0.8c3.9-0.7,4.4-1.4,4.4-5.2c0-1.5,0.7-2.2,1.9-2.6c4.7-1.7,9.4-3.5,14.1-5.1
		c2.1-0.7,3.2-1.9,3.1-4.2c0-2.1-0.1-4.2,0-6.4c0.1-2.1-1.1-3-2.9-3.2c-1.1-0.1-2.3,0-3.3,0.3c-5.7,1.9-11.3,3.9-17,6
		c-0.6,0.2-1.2,1.3-1.2,2c-0.1,4.4-0.1,8.8-0.1,13.2C34,40,34,41.5,34,43z M39.4,27.1c0-0.5,0.4-1.1,0.9-1.2
		c3.8-1.3,7.7-2.6,11.6-3.8c0.6-0.2,2.2,0.4,2.2,0.7c0,1.1,0,3.1-0.7,3.4c-4.2,1.8-8.6,3.2-13.1,4.8c-0.5,0.2-0.9-0.1-0.9-0.6
		C39.4,29.2,39.4,28.2,39.4,27.1z"/>
	<path d="M120.3,19c4,0,8,0.1,12.1,0.1c1.4,0,2.3,0.5,2.2,1.9c-0.1,1.4-1.2,1.3-2.2,1.3c-3.4,0-6.8,0-10.2,0c-1.4,0-2.8,0.1-4.2,0.2
		c-0.5,0-0.9,0.5-0.9,1c0,0.7,0,1.4,0,2c0,0.5,0.4,0.9,0.9,0.9c5.3,0,10.4-0.1,15.5,0c5.4,0.2,5.6-2,5.8-6.2c0-0.7-0.2-1.4-0.3-2.1
		c-0.2-1.9-1.1-3-3.1-3.1c-4.2-0.1-8.3-0.3-12.5-0.4c-1.1,0-2.4,0.5-2.7-1.2c-0.2-1.8,1.1-2,2.5-2.1c2.6-0.1,5.2-0.2,7.8-0.3
		c2,0,3.9,0,6,0c0.5,0,0.9-0.3,0.9-0.6c0-0.2,0-0.4,0.1-0.6c0.3-2.1-0.4-3-2.7-2.9c-4,0.1-8-0.3-12.1-0.2c-6.5,0.1-7.7,0.2-7.3,8.3
		C116.2,18,117.5,19,120.3,19z"/>
	<path d="M61.7,25.7c0,1.7,0,3.4,0,5c0.1,3.1,1.7,4.2,4.6,3.4c4.8-1.2,9.6-2.4,14.4-3.5c3.1-0.7,4.3-1.8,4.3-5
		c0.1-3.6,0.1-7.2,0-10.8c0-2.8-1.6-4.3-4.4-3.8c-5.3,1-10.6,2.1-16,3.2c-2.2,0.4-3.1,1.8-3.2,3.9c0,1.9,0,3.8,0,5.6
		c0,0.5,0.1,0.9,0.1,0.9C61.7,24.8,61.7,25.2,61.7,25.7z M68.7,17.9c3.1-0.7,6.2-1.3,9.3-1.9c1.5-0.3,2.4,0.5,2.4,2.1
		c0,1.1,0,2.3,0,3.4c-0.1,5.4,0.8,4.4-4.6,5.9c-2.2,0.6-4.5,1.1-6.7,1.8c-1.7,0.5-2.6,0.1-2.6-1.8c0-2.2,0-4.4,0-6.6
		C66.5,19.3,67.2,18.2,68.7,17.9z"/>
	<path d="M89.9,28.8c3.4,0.4,3.8-0.3,3.9-3.8c0-0.1,0-0.3,0-0.4c-0.2-1.4,0.5-2,1.9-2.1c2.2-0.1,4.5-0.4,6.7-0.7
		c3.9-0.4,4.4-0.1,5.7,3.6c0.2,0.6,0.8,1.4,1.3,1.4c0.9,0.1,1.9,0,3.1-0.1c0.5,0,0.8-0.5,0.6-1c-0.8-2-1.5-3.8-2.3-5.8
		c-0.2-0.5-0.1-1.2,0.1-1.7c0.9-1.9,1.1-3.2,0.9-6.4c-0.2-3-1.2-4.2-4.2-4.1c-5.8,0.3-11.6,0.9-17.3,1.4c-0.5,0-1.3,0.9-1.3,1.4
		c-0.1,5.7,0,11.4,0,17C89,28.3,89.4,28.8,89.9,28.8z M94.1,13.9c0.1-0.4,0.7-1.1,1.1-1.1c3.2-0.4,6.3-0.6,9.4-0.9
		c1.5-0.1,2.2,0.5,2.3,2c0.1,1.5,0,3-1.8,3.3c-3.3,0.5-6.7,0.7-10.2,1c-0.5,0-0.9-0.3-0.9-0.9C94,16.2,93.9,15,94.1,13.9z"/>
	<path d="M169.4,29.4c0.9,0.2,1.8,0.3,2.7,0.5c0.5,0.1,0.9-0.3,0.9-0.8c0-2.2,0-4.2,0-6.7c0-0.5,0.4-0.8,0.9-0.7
		c3.9,0.9,7.5,1.7,11.1,2.6c0.4,0.1,0.7,1,0.7,1.5c0.1,1.8,0,3.7,0.1,5.5c0,0.5,0.6,1.3,1,1.5c0.8,0.3,1.6,0.4,2.6,0.6
		c0.5,0.1,0.9-0.2,0.9-0.7c0-6.2,0-12.2-0.1-18.2c0-0.4-0.5-1-0.9-1.1c-0.8-0.2-1.7-0.4-2.7-0.5c-0.5-0.1-0.9,0.3-0.9,0.8
		c0,1.9,0,3.6,0,5.5c0,0.5-0.4,0.8-0.9,0.7c-3.8-0.8-7.3-1.5-10.8-2.3c-0.4-0.1-0.9-1-1-1.5c-0.1-1.5,0-3-0.1-4.4
		c0-0.5-0.4-1.3-0.9-1.4c-0.9-0.2-1.8-0.3-2.7-0.4c-0.5-0.1-0.9,0.3-0.9,0.8c0,6,0,11.8,0,17.7C168.5,28.9,168.9,29.3,169.4,29.4z"
		/>
	<path d="M145.7,26.8c2.7,0.2,5.4,0.4,8,0.7c3.5,0.4,6.9,0.8,10.4,1.2c0.5,0,1-0.3,1.1-0.8c0.5-2.8,0.2-3-2.8-3.4
		c-4.3-0.6-8.5-1-12.8-1.5c-0.6-0.1-1.6-0.7-1.6-1.1c-0.1-2.9-0.1-5.7-0.1-8.9c0-0.5,0.4-0.9,0.9-0.8c5.2,0.4,10.3,0.8,15.4,1.2
		c0.5,0,0.9-0.3,0.9-0.9c0-0.7,0-1.5,0-2.3c0-0.5-0.4-0.9-0.9-1c-6.1-0.5-12-1-17.8-1.4c-1.9-0.1-3.2,1.2-3.2,3.2
		c-0.1,4.5,0,8.9-0.1,13.4C143.1,26,144,26.7,145.7,26.8z"/>
	<path d="M191.4,66.5c0.4,0.2,0.8,0,1.2,0.1c0.4,0.1,0.8,0.2,1.2,0.4c0.5,0.2,1-0.1,1.1-0.5c0.1-0.4,0.3-0.8,0.4-1.2
		c0.1-0.5,0.7-0.7,1.1-0.5c0.3,0.1,0.7,0.2,1,0.3c0.6,0.1,1.3,0.2,1.9,0.1c0.2-0.1,0.5-1,0.3-1.2c-0.4-0.5-1-0.8-1.5-1.1
		c-0.3-0.2-0.8,0-1.2-0.2c-0.4-0.2-0.9-0.3-1.3-0.5c-0.5-0.2-1,0-1.2,0.5c-0.1,0.3-0.3,0.7-0.5,1.2c-0.2,0.5-0.6,1-1,1.2
		c-0.4,0.2-0.7,0-0.7-0.5c0-0.4,0-0.7,0.1-0.8c1.4-1,1.3-1.8,0.5-2.7c-0.3-0.4-1.1-0.5-1.5-0.2c-0.7,0.4-1.2,1-0.7,2.3
		c0.1,0.3-0.5,0.7-0.7,1.1c-0.2,0.4-0.6,1.1-0.4,1.4C190.1,65.9,190.8,66.2,191.4,66.5z"/>
	<path d="M217,72.6c-0.5-0.1-1-0.4-1.5-0.5c-0.6-0.2-1.2-0.6-1.7-0.4c-0.3,0.1-0.5,0.4-0.7,0.7c-0.3,0.4-0.4,0.9-0.2,1
		c0.1,0.1,0.1,0.5-0.2,0.8c-0.1,0.2-0.3,0.5-0.3,0.7c-0.2,0.6-0.2,1.4-0.1,2c0.1,0.3,0.9,0.7,1.1,0.6c1-0.8,1.4,0.2,2.1,0.5
		c0.5,0.2,1.6,0.3,1.7,0.1c0.6-1.4,1.1-2.9,1.5-4.4c0.1-0.2-0.7-0.7-1.1-1.1C217.4,72.5,217.2,72.6,217,72.6z"/>
	<path d="M141.7,68.9c0.4,0.2,1.3-0.2,1.4-0.5c0.4-1,0.7-2.1,1-3.5c0.1-0.5-0.1-1-0.6-1.3c-1-0.4-2.1-0.9-3.2-1.3
		c-0.4-0.1-1,0.2-1.4,0.5c-0.2,0.1-0.4,0.5-0.3,0.7c0.5,1.1,0,1.8-0.8,2.4c-0.2,0.1-0.3,0.7-0.3,0.7
		C138.9,67.5,140.3,68.3,141.7,68.9z"/>
	<path d="M69.8,183.2c-0.4-0.2-0.8-0.4-1.1-0.6c-0.4-0.2-0.9-0.4-1-0.7c-0.1-0.3,0.2-0.8,0.3-1.2c0.2-0.7,0.6-1.4,0.5-2
		c0-0.3-1.3-0.7-1.5-0.6c-0.5,0.5-0.7,1.3-1,1.9c-0.1,0.3-0.2,0.7-0.3,1.1c-0.1,0.4-0.2,0.8-0.4,1.2c-0.2,0.5,0.1,1,0.6,1.1
		c0.3,0.1,0.6,0.2,0.9,0.3c0.5,0.2,1,0.7,1,1.2c0,0.2,0.1,0.4,0.1,0.7c0.1,0.5,0.5,0.6,0.9,0.3c0.3-0.2,0.5-0.4,0.7-0.6
		c0.2-0.3,0.4-0.7,0.6-1C70.4,183.9,70.2,183.4,69.8,183.2z"/>
	<path d="M151.5,77.2c0.2-0.4,0.1-0.9,0.3-1.4c0.2-0.6,0.8-1.5,0.6-1.7c-0.4-0.5-1.2-0.6-1.9-0.8c-0.4-0.1-0.8-0.2-1.2-0.3
		c-0.6-0.1-1.1-0.2-1.6-0.3c-0.5-0.1-0.8,0.2-0.7,0.8c0,0.2,0.1,0.4,0.1,0.6c0.1,0.5,0.2,0.9,0.2,0.9c0,0,0.5,0.1,1,0.1
		c0.1,0,0.2,0,0.3,0c0.5,0,0.7,0.4,0.5,0.9c-0.1,0.3-0.3,0.7-0.3,1c-0.1,0.5,0,1.2,0.3,1.6c0.2,0.3,1.1,0.6,1.4,0.4
		C150.9,78.4,151.2,77.8,151.5,77.2z"/>
	<path d="M163.7,73.7c-0.5-0.1-1-0.1-1.6-0.2c-0.5,0-0.8,0.4-0.8,0.9c0,0.1,0,0.2,0,0.3c0.1,0.5,0.2,1,0.3,1.1
		c0.1,0.1,0.6,0.2,1.1,0.2c0.2,0,0.4,0,0.5,0c0.5,0,0.9,0.2,0.8,0.5c-0.1,0.2-0.2,0.3-0.3,0.4c-0.3,0.7-0.8,1.3-0.9,2
		c0,0.2,1.3,0.9,1.6,0.8c0.5-0.4,0.8-1.2,1.1-1.9c0.2-0.4,0.3-0.8,0.4-1.2c0.2-0.5,0.6-1.2,0.4-1.6c-0.3-0.5-1-0.7-1.6-1
		C164.6,73.9,164.1,73.8,163.7,73.7z"/>
	<path d="M53.5,179.8c0.5,0.2,1,0.7,1.5,0.9c0.5,0.1,1.2,0.2,1.5,0c0.4-0.4,0.7-1.1,0.6-1.6c-0.1-0.4-0.8-0.9-1.3-1.1
		c-0.6-0.3-1.5-0.2-2.1-0.6c-1.2-0.6-2.3-0.3-2.2,1c0,0.9,0.1,1.5-0.7,2.1c-0.3,0.2-0.3,1.5,0,1.9c0.3,0.4,1.3,0.2,1.9,0.1
		c0.2,0,0.3-0.2,0.5-0.3c0.2-0.2,0.4-0.4,0.4-0.4c0,0-0.2-0.3-0.4-0.8s-0.2-0.9,0-1C53.4,179.9,53.5,179.8,53.5,179.8z"/>
	<path d="M213.3,127.3c0,0.1,0,0.1,0,0.2c-0.2,0.7-0.4,1.3-0.5,2c-0.1,0.6-0.3,1.3-0.1,1.7c0.2,0.4,1.1,0.8,1.3,0.6
		c0.5-0.3,0.8-1,1.1-1.6c0.1-0.4,0.2-0.8,0.3-1.3c0.1-0.5,0.4-0.6,0.8-0.2c1,1.1,1.8,1.8,2.8,0.4c0.2-0.4,0-1.6-0.2-1.7
		c-1.5-0.6-3-0.9-4.5-1.2C214.1,126.1,213.7,126.9,213.3,127.3z"/>
	<path d="M100,172.9c0.2,0.1,0.3,0.1,0.5,0.1c0.3,0,0.4,0.3,0.4,0.6c0,0.2-0.1,0.4-0.2,0.5c-1.3,1.1-0.8,1.8,0.2,2.8
		c0.4,0.4,0.9,0.3,1.2-0.1c0.3-0.5,0.6-1,0.8-1.4c0.2-0.6,0.3-1.2,0.5-1.8c0.1-0.6,0.4-1.3,0.2-1.6c-0.2-0.4-1-0.6-1.6-0.8
		c-0.5-0.2-1.1-0.4-1.6-0.4c-0.7-0.1-1.4-0.1-2.1,0c-0.2,0-0.4,1.1-0.3,1.2C98.6,172.3,99.3,172.6,100,172.9z"/>
	<path d="M177.6,119.9c0.4-0.4,0.7-1,0.9-1.5c0.1-0.2,0.1-0.4,0.2-0.7c0-0.4,0.4-0.5,0.8-0.3c0.2,0.1,0.5,0.2,0.8,0.3
		c0.5,0.1,1.3,0.3,1.7,0.1c0.4-0.2,0.7-1.1,0.6-1.5c-0.1-0.5-1-1.2-1.3-1.1c-1.4,0.5-1.9-0.3-2.5-1c-0.3-0.4-0.9-0.4-1.2,0
		c-0.3,0.3-0.6,0.7-0.6,1c-0.1,1.1-0.1,2.1-0.9,3.1c-0.2,0.2,0.3,1.2,0.6,1.7C176.7,120,177.4,120.1,177.6,119.9z"/>
	<path d="M153.9,69c0.4,0.2,0.9,0.3,1.4,0.4c0.6,0.1,1.3,0.4,1.8,0.2c0.4-0.1,0.8-1.2,0.6-1.4c-0.4-0.5-1.1-0.8-1.8-1.1
		c-0.2-0.1-0.5-0.2-0.9-0.2c-0.5-0.1-0.6-0.4-0.2-0.8c1-0.9,1.8-1.6,0.4-2.8c-0.3-0.2-1.5-0.1-1.6,0.1c-0.6,1.4-1,2.9-1.3,4.4
		C152.2,68.3,153.3,68.7,153.9,69z"/>
	<path d="M205.7,67.5c0.5,0.2,1.2,0.3,1.8,0.4c0.6,0.1,1.3,0.4,1.9,0.2c0.3-0.1,0.7-1.2,0.5-1.4c-0.4-0.5-1.1-0.9-1.8-1.1
		c-0.3-0.2-0.7-0.2-1.2-0.2c-0.5-0.1-0.6-0.4-0.2-0.7c0.3-0.3,0.5-0.4,0.6-0.6c0.1-0.4,0.2-0.7,0.3-1.1c0.1-0.5-0.2-1-0.7-1.2
		c-0.4-0.1-0.8-0.2-1,0c-0.4,0.3-0.5,1.2-0.7,1.8c-0.2,0.5-0.4,0.9-0.5,1.3c-0.2,0.5-0.6,1.1-0.5,1.4
		C204.4,66.9,205.1,67.2,205.7,67.5z"/>
	<path d="M178,77.1c0.2,0.1,0.4,0.2,0.6,0.2c0.7,0.1,1.5,0,2.1-0.2c0.2-0.1,0.2-1.4-0.1-1.5c-1.2-0.7-2.6-1.2-4-1.6
		c-0.4-0.1-1.4,1-1.4,1.3c0.3,1.2-0.2,1.8-0.9,2.7c-0.2,0.2,0.1,0.8,0.4,1.3c0.2,0.5,0.6,0.8,0.8,0.8c0.2,0,0.6-0.3,0.9-0.8
		c0.2-0.4,0.5-0.9,0.7-1.3c0.1-0.2,0.1-0.4,0.2-0.6C177.4,77,177.7,76.9,178,77.1z"/>
	<path d="M203.4,71.5c-0.2-0.1-0.6,0.2-1,0.2c-0.4,0-0.8-0.2-1.1-0.3c-0.7-0.2-1.6-0.7-2.1-0.5c-0.9,0.5-0.7,1.1-0.4,1.7
		c0.2,0.5,0.9,1,1.3,0.8c0.6-0.2,1.1-0.6,1.5-0.1c0.3,0.4,0,1.1-0.3,1.5c-0.9,1.1-1,1.8,0,2.3c0.4,0.2,1.4,0.1,1.5-0.1
		c0.7-1.4,1.2-2.8,1.6-4.3C204.4,72.4,203.8,71.8,203.4,71.5z"/>
	<path d="M204.3,124.8c0.4,0.2,0.8,0.3,1.2,0.6c0.4,0.2,0.8,0.5,1.3,0.7c0.5,0.2,1.1,0.5,1.5,0.3c0.5-0.2,0.8-0.9,1.1-1.4
		c0.3-0.6,0.4-1.2,0.5-1.9c0.1-0.6,0.3-1.4,0-1.9c-0.2-0.3-1.2-0.5-1.6-0.3c-0.4,0.3-0.6,1-0.8,1.6c-0.1,0.3-0.2,0.7-0.3,1.1
		c-0.1,0.5-0.4,0.6-0.8,0.2c-0.4-0.4-0.7-0.8-1-1.2c-0.3-0.4-0.8-0.3-1,0.1c-0.2,0.3-0.3,0.7-0.5,0.9
		C203.7,124,203.9,124.6,204.3,124.8z"/>
	<path d="M189.3,71c-0.2-0.2-0.4-0.3-0.7-0.4c-0.6-0.3-1.4-0.4-2.1-0.6c-0.6-0.1-1.2-0.2-1.8,0c-0.3,0.1-0.6,1-0.5,1.2
		c0.3,0.5,0.9,1,1.3,1c1.9-0.1,2.7,0.1,1,1.9c-0.3,0.3,0.1,1.4,0.4,1.8c0.2,0.3,1.5,0.1,1.6-0.2c0.4-1,0.7-2.1,1-3.4
		C189.8,71.9,189.6,71.2,189.3,71z"/>
	<path d="M91,178.1c0.1-0.5,0.4-0.7,0.8-0.4c0.3,0.2,0.6,0.4,0.9,0.4c0.3,0,0.7-0.1,1.1-0.2c0.5-0.1,0.8-0.7,0.6-1.2
		c-0.1-0.5-0.3-1-0.4-1c-1.3,0.1-2.3-1-3.3-1.1c-2.4-0.3-1,2.3-1.8,3.5c-0.3,0.4-0.6,0.9-0.3,1.3c0.2,0.3,0.4,0.6,0.7,0.8
		C90.3,180.7,90.9,179.9,91,178.1z"/>
	<path d="M106.3,180.1c-0.3-0.2-0.6-0.4-0.9-0.6c-0.4-0.3-0.5-0.8-0.1-1.1c0.3-0.3,0.5-0.5,0.6-0.7c0.1-0.3,0-0.6,0-0.9
		c-0.1-0.5-0.6-0.9-1.1-0.8c-0.4,0-0.9,0.1-1,0.3c-0.6,1-1.1,2.3-1.3,3.5c-0.1,0.4,0.8,1.5,1.1,1.4c1.1-0.3,1.7,0.3,2.1,0.9
		c0.3,0.4,0.9,0.9,1.4,0.8c0.7-0.2,1.1-0.7,0.9-1.5C108.1,181,106.9,180.6,106.3,180.1z"/>
	<path d="M166.4,72.8c0.4,0.1,0.8,0.3,1.1,0.4c0.2,0.1,0.5-0.1,0.7,0c2.1,1.2,2.1,1.2,2.7-1.3c0-0.1,0.1-0.2,0.2-0.4
		c1.2-2.1,1.3-2.3-0.4-2.9c-0.5-0.2-1.2,0.1-1.2,0.6c0,0.8,0.3,1.7-0.3,2.2c-0.4,0.4-0.9,0.3-1,0.2c-0.1-0.1-0.1-0.2-0.2-0.2
		c-0.3-0.2-0.7-0.3-1-0.5c-0.5-0.2-1,0-1.2,0.5c0,0,0,0.1,0,0.1C165.7,72.1,165.9,72.6,166.4,72.8z"/>
	<path d="M137.9,81.4c0.1,0,0.1,0,0.2,0c0.5,0,1.1-0.3,1.2-0.8c0-0.2,0.1-0.3,0.1-0.5c0.2-0.5,0.6-0.7,0.9-0.4
		c0.2,0.1,0.5,0.3,0.7,0.4c0.6,0.1,1.3,0.3,1.7,0c0.4-0.2,0.6-1.4,0.4-1.6c-0.4-0.3-0.9-0.5-1.4-0.7c-0.5-0.2-0.9-0.3-1-0.1
		c-0.1,0.1-0.4-0.1-0.8-0.4c-1.1-0.9-2.1-1-2.5,0.1c-0.3,0.9-0.4,2-0.6,3.1C137.1,80.9,137.4,81.3,137.9,81.4z"/>
	<path d="M177.6,128.6c0-0.1-1.1,0.1-1.4,0.4c-0.3,0.2-0.2,0.9-0.3,1.4c-0.1,0.3-0.2,0.7-0.2,1c-0.1,0.5,0.1,1.3,0.6,1.2
		c0.6,0,0.9-0.7,1.4-1.2c0.3-0.4,0.9-0.3,1.1,0.1c0.1,0.2,0.3,0.4,0.5,0.5c0.4,0.3,1.1,0.5,1.5,0.3c0.4-0.2,0.9-0.8,0.9-1.3
		C181.6,128.3,178.3,130.6,177.6,128.6z"/>
	<path d="M209.6,119.1c0.3,0.4,0.6,0.7,1,1c0.5,0.4,1.3,0.4,1.9,0.6c0.5,0.1,1.1,0.3,1.5,0.2c0.2-0.1,0.4-0.3,0.6-0.6
		c0.3-0.3,0.3-1,0-1.4c-0.2-0.3-0.4-0.5-0.6-0.6c-1.1-0.5-2.3-0.8-3.4-0.9c-0.3,0-0.6,0.2-0.9,0.5
		C209.3,118.1,209.3,118.7,209.6,119.1z"/>
	<path d="M88,181c-0.6-0.4-1.4-0.4-2.2-0.6c-0.6-0.1-1.3-0.3-1.7,0c-0.4,0.3-0.6,1.2-0.4,1.6c0.2,0.4,0.9,0.6,1.5,0.9
		c0.6,0.2,1.3,0.4,1.9,0.7c0.2,0.1,0.3,0.2,0.6,0.3c0.3,0.2,0.8,0,1.2-0.4c0.3-0.4,0.7-0.8,0.7-1.1C89.5,181.9,88.6,181.3,88,181z"
		/>
	<path d="M73.4,180c-0.5-0.2-1-0.3-1.6-0.4c-0.7-0.1-1.4-0.4-2.1-0.3c-0.2,0.1-0.6,1.2-0.3,1.6c0.2,0.3,0.5,0.6,0.8,0.8
		c0.4,0.3,0.9,0.4,1,0.2c0.1-0.2,0.5-0.1,0.8,0.2c0.2,0.2,0.4,0.3,0.6,0.4c0.6,0.2,1.3,0.3,1.8,0.1c0.3-0.1,0.7-1.1,0.6-1.3
		C74.7,180.8,74,180.4,73.4,180z"/>
	<path d="M211.5,78.1c-0.5-0.2-1-0.4-1.5-0.5c-0.6-0.1-1.3-0.5-1.8-0.2c-0.4,0.2-0.8,1.1-0.7,1.5c0.1,0.3,0.4,0.6,0.8,0.8
		c0.4,0.3,0.8,0.4,1,0.2c0.1-0.2,0.5-0.1,0.9,0.2c0.2,0.2,0.5,0.3,0.8,0.4c0.6,0.2,1.4,0.3,1.9,0c0.3-0.2,0.5-1.2,0.3-1.6
		C212.9,78.4,212.1,78.2,211.5,78.1z"/>
	<path d="M87.4,175.9c0.5-0.2,0.8-1,1.1-1.6c0.2-0.4-0.1-1.1,0.1-1.3c1.2-0.9,1-1.7,0.5-2.4c-0.3-0.4-0.9-0.6-1.4-0.4
		c-0.1,0.1-0.3,0.1-0.5,0.2c-0.5,0.2-0.9,0.8-0.9,1.3c-0.1,0.6-0.1,1.2-0.2,1.9c-0.1,0.6-0.3,1.3-0.1,1.8
		C86.1,175.7,87.1,176.1,87.4,175.9z"/>
	<path d="M181.7,122.9c-0.2,0.6-0.4,1.4-0.1,1.8c0.2,0.4,1.2,0.7,1.6,0.5c0.5-0.3,0.7-1,1-1.6c0.2-0.5,0.4-1.1,0.4-1.6
		c0.1-0.6,0.4-1.4,0.1-1.8c-0.2-0.3-1.1-0.7-1.6-0.5c-0.3,0.1-0.5,0.3-0.7,0.7c-0.3,0.4-0.4,0.8-0.2,1c0.2,0.1,0.1,0.5-0.2,0.9
		C181.9,122.4,181.8,122.7,181.7,122.9z"/>
	<path d="M194.8,117.9c0.2,0.5,1,0.7,1.6,1c0.5,0.3,1.1,0.5,1.7,0.6c0.5,0.2,1.1,0.5,1.4,0.3c0.3-0.2,0.6-0.5,0.9-0.8
		c0.3-0.4,0.2-0.9-0.2-1.2c-0.4-0.3-0.8-0.5-1.2-0.7c-0.6-0.3-1.2-0.5-1.9-0.6c-0.6-0.1-1.3-0.3-1.7-0.1
		C195,116.7,194.6,117.6,194.8,117.9z"/>
	<path d="M160.7,76c-0.7,0.2-1.3,0.1-1.9-0.6c-0.4-0.3-1.3-0.2-1.9,0.1c-0.3,0.1-0.4,1.1-0.2,1.4c0.4,0.4,1.1,0.7,1.6,0.9
		c0.4,0.2,0.8,0,1.2,0.1c0.7,0.2,1.5,0.9,2,0.7c0.9-0.3,1-1,0.8-1.8c-0.1-0.5-0.4-1-0.5-1.1C161.6,75.7,161.2,75.9,160.7,76z"/>
	<path d="M212.5,69.8c0.2-0.3,0.3-0.8,0.4-1.1c0.1-0.5-0.1-1-0.6-1.2c-0.4-0.2-0.8-0.3-1-0.2c-0.5,0.3-0.6,1.2-0.9,1.8
		c-0.1,0.3-0.2,0.7-0.2,1.1c-0.1,0.5-0.1,0.9-0.2,1.4c-0.1,0.5,0.3,1,0.8,1.1c0.4,0.1,0.8,0.1,0.9-0.1c0.3-0.3,0.4-0.8,0.5-1.2
		c0.1-0.5,0.1-0.9,0-1c-0.1,0-0.1-0.2,0.1-0.3C212.4,70,212.5,69.9,212.5,69.8z"/>
	<path d="M82.9,179.8c-0.2-0.3-0.6-0.4-1.1-0.6c-0.5-0.1-1,0.1-1.2,0.6c-0.1,0.4-0.3,0.7-0.4,1.1c-0.1,0.4-0.3,0.8-0.3,1.3
		s-0.1,0.9-0.2,1.3c-0.1,0.5,0.2,1,0.7,1.1c0.3,0.1,0.7,0.1,0.8,0c0.3-0.3,0.5-0.7,0.6-1.1c0.2-0.5,0.2-0.9,0.1-1
		c-0.1-0.1-0.1-0.2,0.1-0.4c0.1-0.1,0.2-0.2,0.3-0.3C82.5,181.1,83.1,180.2,82.9,179.8z"/>
	<path d="M166.9,69.7c0.4,0.3,1.5-0.3,2.3-0.6c0.1,0,0.3-0.2,0.4-0.3c0.2-0.2-0.1-0.5-0.5-0.8c-0.3-0.3-0.2-0.7,0.4-1.3
		c0.4-0.4,0.4-1.3,0.4-2c0-0.2-1.2-0.6-1.4-0.4c-0.5,0.4-0.8,1.1-1.1,1.8c-0.2,0.4-0.1,1.1-0.4,1.3C166,68.1,166,69.1,166.9,69.7z"
		/>
	<path d="M58.7,173.9c0.5-0.2,1.1-1.2,1-1.5c-0.5-1,0-1.3,0.6-1.9c0.3-0.4,0.3-1.3,0.1-1.9c-0.1-0.3-1.1-0.6-1.4-0.4
		c-0.3,0.1-0.5,0.4-0.7,0.7c-0.3,0.4-0.4,0.9-0.3,1c0.2,0.1,0,0.5-0.2,0.9c-0.2,0.2-0.3,0.4-0.4,0.7c-0.2,0.6-0.4,1.4-0.2,1.8
		C57.3,173.7,58.3,174.1,58.7,173.9z"/>
	<path d="M78.3,178.1c-0.6,0-1.6,0.7-1.5,1c0.2,1.2,0,2.1-0.9,2.9c-0.2,0.2,0.3,1.3,0.8,1.6c0.3,0.2,1.4-0.1,1.5-0.4
		c0.4-1,0.7-2.1,1-3.4c0.1-0.5,0-1.1-0.3-1.4C78.8,178.3,78.5,178.1,78.3,178.1z"/>
	<path d="M196.7,127.2c-0.1-0.2-1.2-0.2-1.4,0.1c-0.4,0.4-0.6,1.2-0.5,1.6c0.1,0.4,0.9,0.7,1.4,0.9c0.4,0.1,1,0.1,1.4,0.1
		c0.5,0.1,0.9,0.2,1.4,0.3c0.5,0.1,0.9-0.2,0.9-0.7c0-0.3,0-0.5,0-0.8c0-0.5,0.1-0.9,0.1-0.9c0,0-0.4,0-0.9,0.1
		C198.3,128.1,197.4,128.3,196.7,127.2z"/>
	<path d="M209.9,65.4c0.6,0.4,1.5,0.7,2.2,0.8c0.4,0,0.9-0.1,1.3-0.2c0.5-0.2,0.8-0.7,0.7-1.2c-0.1-0.5-0.2-0.9-0.4-1
		c-0.9-0.4-2-0.6-3.2-0.8c-0.5-0.1-1.1,0-1.4,0.3c-0.2,0.2-0.3,0.4-0.3,0.6C208.7,64.5,209.3,65.1,209.9,65.4z"/>
	<path d="M205.1,76.2c-0.5,0.3-0.8,1-1,1.6c-0.3,0.5-0.4,1.1-0.6,1.6c-0.1,0.5-0.4,1.1-0.3,1.5c0.1,0.3,0.4,0.4,0.9,0.7
		c0.4,0.2,1,0.1,1.2-0.4c0.2-0.5,0.4-0.9,0.6-1.3c0.2-0.5,0.5-1,0.6-1.6c0.2-0.5,0.4-1.3,0.2-1.6C206.4,76.3,205.4,76,205.1,76.2z"
		/>
	<path d="M143.7,70.9c-0.1,0.7-0.3,1.4-0.1,2c0.1,0.3,1.2,0.6,1.3,0.5c0.4-0.5,0.6-1.2,0.9-1.9c0.2-0.4,0.3-0.8,0.5-1.1
		c0.1-0.2,0.3-0.5,0.5-0.8c0.3-0.4,0.2-1-0.2-1.3c-0.4-0.4-0.8-0.7-1.2-0.7c-0.4,0-1,0.9-1.3,1.5C143.9,69.7,143.8,70.3,143.7,70.9z
		"/>
	<path d="M159.4,63.3c0.1,0,0.3,0,0.4-0.1c0.2-0.1,0.5,0,0.6,0.2c0.1,0.1,0.2,0.2,0.3,0.3c0.6,0.3,1.2,0.7,1.7,0.5
		c0.4-0.1,0.9-1.2,0.7-1.5c-0.3-0.5-1.1-0.8-1.7-1.2c-0.4-0.2-1-0.5-1.5-0.5c-0.7-0.1-1.5-0.2-2.1,0.1c-0.3,0.1-0.5,1.3-0.2,1.6
		C158,63.1,158.8,63.2,159.4,63.3z"/>
	<path d="M138.4,71.1c0.2-0.1,0.4-0.3,0.6-0.6c0.3-0.4,0.2-0.9-0.2-1.3c-0.4-0.3-0.8-0.6-1.1-0.8c-0.7-0.3-1.6-0.5-2.4-0.6
		c-0.5-0.1-1.2,0-1.6,0.3c-0.3,0.2-0.4,1.1-0.2,1.4c0.3,0.4,0.9,0.8,1.4,1c0.7,0.3,1.4,0.4,2.1,0.5
		C137.3,71.1,137.9,71.2,138.4,71.1z"/>
	<path d="M73.2,174.8c0.7-1.5,1.3-3.1,1.8-4.7c0-0.1-0.3-0.4-0.8-0.7c-0.4-0.3-1-0.2-1.4,0.1c-0.4,0.4-0.7,0.8-0.7,1
		c0.5,1.1-0.1,1.8-0.7,2.5c-0.2,0.3-0.1,1.2,0.1,1.5C72,174.8,73.2,174.9,73.2,174.8z"/>
	<path d="M61.3,178c0-0.6-0.1-1.1-0.3-1.7c-0.1-0.5-0.2-0.9-0.1-0.9c0,0-0.4,0.1-0.9,0.2c-0.8,0.1-1.5,0.1-2.2-0.8
		c-0.1-0.2-1.1-0.1-1.5,0.2c-0.3,0.2-0.6,1.1-0.6,1.2c1.4,0.8,2.8,1.6,4.2,2.2C60.4,178.5,61.3,178.1,61.3,178z"/>
	<path d="M116.8,176.2c-0.4-0.2-0.7-0.4-0.9-0.4c-0.6,0.1-1.1,0.7-1.5,1.3c-0.4,0.5-0.5,1.2-0.7,1.9c-0.1,0.6-0.3,1.3-0.1,1.6
		c0.3,0.4,1.2,0.8,1.5,0.7c0.5-0.2,0.7-1,1-1.6c0.2-0.5,0.3-1,0.5-1.5c0.1-0.3,0.3-0.5,0.5-0.8C117.3,177,117.2,176.5,116.8,176.2z"
		/>
	<path d="M205.9,121.8c0.6-0.2,1.1-0.8,1.4-1.3c0.4-0.7,0.6-1.5,0.8-2.2c0.1-0.5,0.1-1.3-0.1-1.5c-0.2-0.2-0.6-0.3-0.9-0.4
		c-0.5-0.1-1,0.2-1.1,0.7c0,0.2-0.1,0.3-0.1,0.5c-0.1,0.5-0.1,1,0,1.1c0.1,0.1,0,0.3-0.3,0.4c-0.2,0.1-0.3,0.2-0.4,0.3
		c-0.3,0.5-0.6,1.1-0.5,1.6C204.8,121.4,205.6,121.9,205.9,121.8z"/>
	<path d="M204,128.7c0.5-0.1,1-0.4,1-1c0-1.1-0.6-1.8-2.2-1.6c-0.3,0-0.8-0.1-1-0.4c-0.8-0.9-1.5-1-2.3-0.1
		c-0.7,0.7-0.6,1.3-0.2,1.7c0.3,0.4,0.7,0.6,0.7,0.6c0,0,0.3-0.1,0.8-0.2c0.4-0.1,0.8-0.1,0.8,0C202.3,128.9,203.2,128.8,204,128.7z
		"/>
	<path d="M182.2,126.4c-0.5-0.1-1.1-0.1-1.5,0.2c-0.2,0.2-0.5,0.4-0.4,0.5c0.3,0.7,0.8,1.3,1.5,1.7c0.6,0.4,1.4,0.6,2,0.6
		c0.4,0,0.8,0,1.1-0.1c0.5-0.1,0.8-0.6,0.8-1.1c0-0.4-0.1-0.8-0.3-0.8C184.5,127,183.5,126.8,182.2,126.4z"/>
	<path d="M199.4,74.3c-0.1-0.5-0.5-0.9-1-0.8c-0.7,0.2-1.4,0.3-2-0.6c-0.1-0.2-1.1-0.1-1.5,0.1c-0.3,0.2-0.6,0.9-0.5,1.2
		c0.2,0.5,0.8,0.9,1.3,1.2c0.4,0.2,1.2-0.1,1.5,0.2c0.7,0.6,1.5,1.6,2.2,0.4C199.6,75.6,199.5,75,199.4,74.3z"/>
	<path d="M181.1,74.4c0.8,0.4,1.7,0.7,2.6,0.8c0.6,0.1,1.5-0.1,1.8-0.5s-0.1-1.6-0.4-1.7c-1-0.4-2.1-0.7-3.3-1
		c-0.5-0.1-1.1,0-1.4,0.3c-0.2,0.2-0.3,0.5-0.3,0.7C179.9,73.4,180.6,74.1,181.1,74.4z"/>
	<path d="M196,124c-0.2,0.5-0.3,1.3,0,1.7c0.2,0.4,1.1,0.7,1.5,0.6c0.4-0.1,0.7-0.9,1-1.4c0.2-0.5,0.4-1.1,0.5-1.7
		c0.1-0.7,0.2-1.4,0-2.1c-0.1-0.3-1-0.7-1.2-0.5c-0.3,0.2-0.6,0.5-0.8,0.9c-0.3,0.4-0.4,0.8-0.3,1c0.1,0.1,0,0.5-0.3,0.9
		C196.3,123.5,196.1,123.8,196,124z"/>
	<path d="M191.4,120.6c0.2,0,0.4,0,0.6,0c0.5,0,0.9,0,0.9,0l0,0c0,0,0.1,0.3,0.3,0.8c0.1,0.5,0.1,0.9-0.1,1.1
		c-0.1,0.1-0.2,0.2-0.3,0.3c-0.2,0.7-0.4,1.4-0.3,2c0.1,0.3,1.2,0.7,1.3,0.6c0.4-0.5,0.7-1.2,1-1.8c0.1-0.3,0-0.9,0.2-1.1
		c0.7-0.8,1.4-1.8,0.2-2.4c-0.3-0.2-1,0.1-1.6,0.3c-0.5,0.2-0.9,0.3-0.8,0.3c0,0,0.1-0.4,0.2-0.8c0.2-0.8,0.4-1.5,0.5-2.3
		c0.1-0.6,0.3-1.3,0-1.7c-0.2-0.3-1.1-0.7-1.4-0.5c-0.5,0.3-0.8,1-1,1.6c-0.1,0.4,0.1,0.9,0,1.3c-0.1,0.6-0.3,1.1-0.4,1.6
		C190.6,120.2,190.9,120.6,191.4,120.6z"/>
	<path d="M158.6,74.4c0.3,0.2,0.8-0.1,1-0.5c0.2-0.4,0.5-0.9,0.7-1.3c0.2-0.5,0.4-1.1,0.6-1.7c0.1-0.5,0.6-1.2,0.4-1.4
		c-0.4-0.4-1.1-0.8-1.6-0.8c-2,0.2-0.9,2.3-1.5,3.4c-0.3,0.4-0.6,0.8-0.5,1.3c0.1,0.2,0.2,0.5,0.3,0.7
		C158.1,74.2,158.3,74.3,158.6,74.4z"/>
	<path d="M197.3,77c-0.6,0-1.2-0.3-1.8-0.4c-0.6-0.1-1.3-0.4-1.6-0.2c-0.4,0.2-0.7,1.2-0.6,1.5c0.2,0.5,0.9,0.8,1.5,1
		c0.4,0.2,1.1-0.1,1.2,0.2c0.7,1.2,1.5,1,2.2,0.7c0.5-0.2,0.8-0.8,0.7-1.3C198.9,77.6,198.5,77,197.3,77z"/>
	<path d="M191,126.3c0.1-0.2-0.2-0.7-0.6-0.9c-0.3-0.2-0.6-0.4-0.9-0.3c-1.2,0.4-1.9-0.2-2.9-0.8c-0.2-0.1-0.6,0-0.9,0.1
		c-0.5,0.2-0.8,0.7-0.7,1.2c0.1,0.4,0.2,0.7,0.4,0.8c1.1,0.6,2.4,1.1,3.6,1.3c0.3,0,0.7-0.2,1-0.5C190.4,127,190.9,126.6,191,126.3z
		"/>
	<path d="M175,123.2c0.2,0.2,1.5,0,1.7-0.3c0.2-0.5,0.2-1.7-0.1-1.9c-1-0.4-2.1-0.7-3.3-0.9c-0.5-0.1-1.1,0-1.4,0.3
		c-0.2,0.2-0.4,0.5-0.4,0.6c0.2,0.7,1.1,1.6,1.4,1.5C173.8,122.1,174.3,122.4,175,123.2z"/>
	<path d="M144.4,74.5c-0.2-0.3-1.2-0.4-1.7-0.2c-0.3,0.1-0.7,1.1-0.5,1.3c0.3,0.5,0.9,0.9,1.5,1.2c0.4,0.2,1.1-0.2,1.3,0
		c0.8,0.8,1.6,1.5,2.4,0.4c0.2-0.3,0.2-0.9,0.1-1.5c-0.1-0.5-0.1-0.9-0.1-0.9c0,0-0.4,0.1-0.9,0.2C145.7,75.3,145.1,75.4,144.4,74.5
		z"/>
	<path d="M188.1,121.1c-0.3-0.2-0.8-0.1-1.2-0.1c-0.5,0.1-0.9,0.6-0.9,1.1c0,0.5,0.1,0.9,0.2,1c1,0.4,2,0.7,3.3,1
		c0.5,0.1,1.2,0,1.5-0.4c0.2-0.2,0.4-0.5,0.4-0.7c-0.2-0.6-1.4-1.5-1.6-1.4C188.9,122.4,188.7,121.4,188.1,121.1z"/>
	<path d="M185.8,67.9c0.2,0.5,0.4,0.9,0.6,0.8c1.3-0.2,2.1,0.3,3.1,1c0.2,0.2,0.8-0.1,1.5-0.5c0.4-0.2,0.6-0.7,0.2-1.1
		c-0.5-0.6-0.8-1-1-0.9c-1.2,0.2-2-0.3-2.9-0.9c-0.2-0.1-0.6,0.1-1,0.3C185.7,66.9,185.5,67.4,185.8,67.9z"/>
	<path d="M203.4,70.2c0.4,0.4,0.7,0.7,0.9,0.7c1.1-0.3,1.9,0,2.6,0.9c0.1,0.2,1.2,0.1,1.4-0.2c0.3-0.4,0.4-1.5,0.3-1.6
		c-1.5-0.7-3-1.3-4.6-1.8c-0.1-0.1-0.4,0.3-0.8,0.8C202.9,69.3,203,69.8,203.4,70.2z"/>
	<path d="M61.8,180.6c-0.2,0.5-0.4,1.3-0.2,1.6c0.2,0.4,1.2,0.8,1.5,0.6c0.5-0.3,0.8-1,1.1-1.6c0.2-0.4,0.2-1,0.3-1.5
		c0.1-0.6,0.5-1.3,0.4-1.8c-0.1-0.4-1.2-0.8-1.5-0.6c-0.3,0.1-0.5,0.4-0.7,0.8c-0.3,0.4-0.4,0.9-0.2,1c0.2,0.1,0.1,0.5-0.2,0.8
		C62,180.1,61.9,180.3,61.8,180.6z"/>
	<path d="M158.1,66.9c0.9-0.3,1.3-0.1,1.9,0.6c0.2,0.3,1.1,0.4,1.5,0.3c0.3-0.1,0.5-0.3,0.7-0.6c0.3-0.4,0.2-1-0.2-1.3
		c-0.4-0.4-0.8-0.7-0.9-0.7c-1.1,0.6-1.6-0.2-2.3-0.7c-0.5-0.3-1.3-0.2-1.9,0c-0.2,0.1-0.4,1-0.2,1.2C157,66.2,157.7,67,158.1,66.9z
		"/>
	<path d="M120.4,177.5c-0.4-0.4-1.2-0.8-1.8-0.7c-0.2,0.1-0.4,0.4-0.6,0.7c-0.2,0.4-0.3,0.9-0.2,1c0.2,0.1,0.1,0.5-0.2,0.8
		c-0.2,0.2-0.3,0.4-0.3,0.7c-0.2,0.6-0.3,1.3-0.2,1.8c0.1,0.3,1.2,0.7,1.3,0.6c0.5-0.5,0.8-1.1,1.2-1.8c0.2-0.5,0.4-1,0.5-1.6
		C120.3,178.5,120.6,177.7,120.4,177.5z"/>
	<path d="M148.3,71.1c0.9,0.4,1.9,0.7,2.9,0.9c0.5,0.1,1,0.4,1.1,0.6c0.1,0.2,0.4,0,0.7-0.4c0.2-0.3,0.4-0.6,0.3-0.8
		c-0.3-0.7-0.9-1.2-1.5-1.7c-0.5-0.4-1.2-0.7-1.9-0.7c-0.4-0.1-0.9,0-1.4,0.1c-0.5,0.1-0.8,0.5-0.7,1
		C148,70.5,148.1,70.9,148.3,71.1z"/>
	<path d="M191.9,75.5c-0.3-0.2-0.6-0.4-0.9-0.4c-0.5,0-1.1,0.7-1.4,1.2c-0.4,0.7-0.6,1.5-0.7,2.4c-0.1,0.5-0.1,1.3,0.2,1.6
		c0.3,0.3,1.5,0.3,1.6,0c0.6-1,1-2.2,1.5-3.5C192.5,76.4,192.3,75.8,191.9,75.5z"/>
	<path d="M51.9,174.8c0.4-0.3,0.5-0.7,0.1-1.1c-0.8-0.7-1.3-1.2-1.5-1.1c-1.2,0.6-1.7-0.1-2.4-0.7c-0.3-0.2-1.3-0.1-1.6,0.3
		c-0.3,0.3-0.3,1.5-0.1,1.6c1.3,0.7,2.7,1.3,4.2,1.6C50.9,175.5,51.3,175.2,51.9,174.8z"/>
	<path d="M74.9,175.4c0.1,0.3,0.3,0.5,0.6,0.7c0.4,0.3,0.9,0.4,1,0.2c0.1-0.2,0.5,0,0.9,0.2c0.2,0.2,0.5,0.4,0.8,0.4
		c0.6,0.2,1.3,0.3,1.8,0.1c0.3-0.1,0.6-1.1,0.4-1.4c-0.3-0.5-1-0.8-1.5-1c-0.5-0.2-1.1-0.4-1.6-0.5c-0.6-0.1-1.3-0.3-1.9-0.1
		C75,174.1,74.7,175.1,74.9,175.4z"/>
	<path d="M75.4,176.9c-0.8-0.4-1.7-0.6-2.7-0.7c-0.5-0.1-1.1-0.5-1.3-0.8c-0.2-0.3-0.6-0.2-0.8,0.3c-0.2,0.4-0.4,0.9-0.4,1.3
		c0,0.5,0.9,1.4,1.1,1.4c1.1-0.3,1.8,0,2.6,0.8c0.2,0.2,1.4-0.2,1.8-0.6C76,178.4,75.8,177.1,75.4,176.9z"/>
	<path d="M93.4,179.7c-0.3-0.4-0.8-0.8-1.1-0.9c-0.3-0.1-0.6,0.1-0.8,0.6c-0.1,0.3-0.2,0.6-0.3,0.9c-0.3,0.9-0.7,1.8-0.8,2.7
		c-0.1,0.6,0.1,1.5,0.5,1.7c0.4,0.2,1.7-0.2,1.7-0.4c0.1-1.4,0.7-2.6,1.4-3.8C93.9,180.3,93.7,180,93.4,179.7z"/>
	<path d="M171,66c-0.2,0.2,0.1,1.2,0.4,1.4c1.2,0.6,2.5,1.1,3.9,1.4c0.3,0.1,0.6-0.2,1.1-0.5c0.4-0.3,0.5-0.9,0.2-1.3
		c-0.3-0.4-0.6-0.8-0.8-0.8c-1.2,0.2-2-0.4-2.9-0.9C172.4,65.1,171.5,65.6,171,66z"/>
	<path d="M212.7,121.6c-0.4-0.4-0.8-0.3-1.1,0.1c-0.4,0.6-0.7,1-0.6,1.3c0.4,1,0,1.4-0.6,2.1c-0.2,0.2-0.1,0.7,0.1,1.2
		c0.1,0.5,0.7,0.8,1.1,0.7c0.4-0.1,0.8-0.2,0.8-0.3c0.3-1.3,0.6-2.6,1.2-3.8C213.8,122.8,213.3,122.3,212.7,121.6z"/>
	<path d="M60.9,175.5c0,0,0.4,0,0.9-0.1c0.8-0.1,1.6-0.1,2.2,0.9c0.1,0.2,1.1,0.1,1.4-0.1c0.4-0.4,0.7-1,0.6-1.6
		c0-0.3-0.7-0.7-1.2-0.9c-0.5-0.2-1.2-0.1-1.7-0.1c-0.5,0-1-0.1-1.4-0.2c-0.5-0.1-0.9,0.3-0.8,0.8c0,0.1,0,0.3,0.1,0.4
		C60.9,175.1,61,175.5,60.9,175.5z"/>
	<path d="M93.6,173.9c0.2,0.5,1,0.8,1.6,1.1c0.5,0.2,1.1,0.3,1.7,0.5c0.2,0.1,0.4,0.2,0.7,0.4c0.3,0.2,0.9,0.1,1.2-0.3
		c0.3-0.3,0.5-0.6,0.4-0.9c0-0.5-0.8-1.1-1.3-1.3c-0.6-0.3-1.4-0.4-2-0.6c-0.6-0.1-1.3-0.5-1.6-0.3
		C93.9,172.6,93.5,173.5,93.6,173.9z"/>
	<path d="M45.1,167.4c-0.5-0.1-1,0.2-1.1,0.7c-0.1,0.4-0.2,0.7-0.3,1.1c0,0.1,0,0.3,0.1,0.4c0.1,0.2-0.2,0.6-0.6,0.9
		c-0.1,0.1-0.2,0.1-0.3,0.2c-0.4,0.3-0.5,0.8-0.1,1.1c0.2,0.2,0.4,0.4,0.5,0.6c0.4,0.4,0.8,0.3,1.1-0.1c0.2-0.4,0.5-0.9,0.7-1.3
		c0.2-0.4,0.5-0.9,0.6-1.3c0.1-0.6,0.3-1.3,0.1-1.8C45.8,167.6,45.5,167.5,45.1,167.4z"/>
	<path d="M50.2,176.6c-0.4-0.3-1.6-0.4-1.7-0.1c-0.7,1.4-1.2,2.8-1.6,4.3c-0.1,0.2,0.3,0.6,0.9,1.1c0.4,0.3,0.8,0.3,1-0.2
		c0.7-1.3,1.2-2.4,1.6-3.6C50.7,177.6,50.5,176.8,50.2,176.6z"/>
	<path d="M101.9,182.2c-0.5-0.3-1.1-0.6-1.6-0.8c-0.5-0.1-1.3-0.2-1.7,0c-0.3,0.3-0.5,1.4-0.3,1.6c0.4,0.3,0.9,0.5,1.4,0.7
		c0.5,0.2,0.9,0.2,1,0.1c0.1-0.1,0.2-0.1,0.3,0c0.1,0.1,0.1,0.2,0.2,0.2c0.6,0.3,1.3,0.7,1.9,0.7c0.2,0,0.8-1.2,0.7-1.2
		C103.2,182.9,102.5,182.6,101.9,182.2z"/>
	<path d="M48.4,170.6c0.5,0.2,0.9,0.3,1,0.1c0.1-0.1,0.3,0,0.5,0.4c0.1,0.2,0.3,0.5,0.5,0.5c0.5,0.2,1.3,0.3,1.7,0
		c0.4-0.3,0.7-1.5,0.6-1.5c-1.3-0.7-2.6-1.3-4-1.9c-0.3-0.1-0.9,0-1.1,0.2c-0.3,0.4-0.6,1.3-0.5,1.4
		C47.5,170.2,47.9,170.4,48.4,170.6z"/>
	<path d="M182.5,70.8c0.5-0.3,0.8-1,1.1-1.5c0.3-0.5,0.4-1.1,0.6-1.6c0.1-0.5,0.4-1.1,0.3-1.6c-0.1-0.3-0.4-0.5-0.8-0.8
		c-0.4-0.3-0.9-0.2-1.2,0.3s-0.4,0.8-0.6,1.2c-0.2,0.5-0.4,1.1-0.5,1.6c-0.1,0.6-0.5,1.3-0.4,1.8C181.2,70.5,182.1,70.9,182.5,70.8z
		"/>
	<path d="M195.7,69.4c-0.2,0.5-0.6,1.4-0.4,1.6c0.3,0.4,1.2,0.7,1.7,0.7c0.4-0.1,0.8-0.8,1-1.3c0.3-0.6,0.4-1.3,0.6-1.9
		c0.1-0.6,0.3-1.2,0.1-1.7c-0.1-0.3-1.1-0.6-1.4-0.4c-0.3,0.1-0.5,0.4-0.6,0.7c-0.3,0.4-0.4,0.9-0.2,1c0.2,0.1,0.1,0.5-0.2,0.8
		C195.9,69,195.8,69.2,195.7,69.4z"/>
	<path d="M181,119.4c-0.3-0.4-0.8-0.5-1.3-0.3c-0.4,0.2-0.7,0.4-0.8,0.7c-0.4,0.7-0.8,1.7-0.8,2.5c0,0.5,0.1,0.9,0.3,1.4
		c0.2,0.5,0.6,1,0.9,1.1c0.3,0.1,0.8-0.2,1-0.6c0.2-0.3,0.4-0.6,0.3-0.8c-0.3-1.2,0.2-2,0.8-3C181.5,120.2,181.2,119.8,181,119.4z"
		/>
	<path d="M111.8,177.8c-1-0.5-2-0.9-3.1-1.1c-0.4-0.1-1.1,0.2-1.4,0.6c-0.2,0.3-0.2,1.4,0.1,1.4c1,0.5,2.1,0.9,3.4,1.4
		c0.5,0.2,1.1,0.1,1.4-0.2c0.2-0.2,0.3-0.4,0.4-0.6C112.6,178.8,112.2,178,111.8,177.8z"/>
	<path d="M172.1,74.6c0.1,0.2,0.4,0.3,0.6,0.5c0.4,0.2,1,0.1,1.3-0.3c0.3-0.4,0.6-0.7,0.5-0.9c-0.4-1.1,0.1-1.6,0.7-2.3
		c0.2-0.3,0.1-1.1-0.1-1.5c-0.2-0.3-0.9-0.6-1.2-0.5c-0.4,0.2-1.1,0.8-1,1.1c0.3,1.1-0.1,1.8-0.9,2.5
		C171.9,73.5,171.9,74.3,172.1,74.6z"/>
	<path d="M53.6,182.6c0,0.3-0.1,0.6-0.1,0.9c0,0.5-0.3,1.2-0.6,1.6c-0.1,0.1-0.2,0.3-0.4,0.5c-0.3,0.4-0.1,0.7,0.4,0.7
		c0.5,0,0.9,0,1.2,0c0.5,0,1-0.4,1.1-0.9c0.1-0.4,0.2-0.8,0.3-1.2c0.2-0.7,0.8-1.5,0.6-1.9c-0.3-0.7-0.9-1-1.6-0.9
		c-0.5,0.1-0.8,0.4-0.8,0.3C53.7,181.8,53.6,182.1,53.6,182.6z"/>
	<path d="M172.4,132.4c0.1,0,0.1,0,0.2,0c0.5,0,1.1-0.4,1.4-0.9c0.4-0.6,0.7-1.1,0.8-1.7c0.1-0.3,0-0.7,0-1.1
		c-0.1-0.5-0.6-0.8-1.1-0.8c-0.6,0-1.1,0.1-1.2,0.3c-0.4,1-0.6,2.1-0.8,3.2C171.6,132.1,171.9,132.4,172.4,132.4z"/>
	<path d="M157,81.2c0.6,0.1,1.2,0.1,1.9,0.1c0.5,0,1,0.1,1,0.2c0.1,0.1,0.4,0,0.8-0.3c0.4-0.3,0.4-0.8,0-1.1
		c-0.2-0.2-0.4-0.4-0.7-0.5c-0.7-0.3-1.5-0.6-2.2-0.7c-0.6-0.1-1.2-0.1-1.7,0.1c-0.3,0.1-0.6,0.9-0.4,1.2
		C155.9,80.6,156.4,81.1,157,81.2z"/>
	<path d="M65.2,185c-0.3-0.1-0.5-0.2-0.8-0.2c-0.5-0.1-0.9-0.2-1-0.1s-0.2,0-0.4-0.3c-0.1-0.2-0.3-0.3-0.5-0.4
		c-0.4-0.2-1.1-0.4-1.4-0.2c-0.4,0.2-0.7,0.9-0.7,1.4c0,0.5,0.5,1.2,0.9,1.2c1.2,0.1,2.4,0,3.7-0.1c0.5,0,0.9-0.2,1-0.5
		C66.1,185.5,65.7,185.2,65.2,185z"/>
	<path d="M187.5,128.8c-0.4,0.1-0.7,0.9-0.9,1.4c-0.1,0.5-0.1,1-0.2,1.8c0,0.5,0.3,0.7,0.7,0.4c0.8-0.5,1.5-0.9,2-1.5
		c0.3-0.3,0.4-1.4,0.1-1.7C188.9,128.8,188,128.6,187.5,128.8z"/>
	<path d="M152.4,81.4c0.8-0.5,1.4-0.9,1.9-1.5c0.3-0.4,0.5-1.3,0.3-1.6c-0.2-0.4-1.1-0.7-1.5-0.6c-0.4,0.1-0.8,0.8-1,1.4
		c-0.2,0.5-0.2,1.1-0.3,2C151.7,81.6,152,81.7,152.4,81.4z"/>
	<path d="M174.4,80.6c-1.1-0.4-2.2-0.9-3.3-1.2c-0.1,0-0.4,0.2-0.6,0.5c-0.3,0.4-0.3,0.9,0,1.2c0.2,0.2,0.4,0.4,0.6,0.4
		c1,0.1,2.1,0.1,3.2,0c0.5,0,0.9-0.1,1-0.3C175.2,81.1,174.9,80.8,174.4,80.6z"/>
	<path d="M216.4,67.4c0.4,0,0.8-0.3,1.3-0.8c0.4-0.3,0.4-0.8,0-1.1c-0.6-0.5-1-0.9-1.3-0.8c-0.4,0.1-0.7,0.5-1,0.8
		c-0.3,0.4-0.3,1,0.1,1.4C215.8,67.2,216.1,67.4,216.4,67.4z"/>
	<path d="M178.9,78.6c-0.4,0.1-0.7,0.3-1,0.6c-0.4,0.3-0.4,0.9-0.1,1.3c0.3,0.4,0.6,0.8,1,0.9c0.3,0.1,0.7-0.4,1.2-0.9
		c0.4-0.4,0.3-0.9-0.1-1.2C179.5,78.8,179.2,78.5,178.9,78.6z"/>
	<path d="M188.4,65c0.3-0.2,0.6-0.5,0.6-0.7c-0.1-0.5-0.4-1-0.8-1.6c-0.3-0.4-0.8-0.4-1.1-0.1c-0.5,0.6-0.9,0.9-0.8,1.2
		c0.1,0.4,0.4,0.8,0.8,1.1C187.4,65.2,188,65.3,188.4,65z"/>
	<path d="M95.4,180.2c-0.5,0.3-0.7,1.1-0.8,1.8c0,0.2,0.1,0.4,0.2,0.5c0.2,0.3,0.7,0.5,1.2,0.4c0.3,0,0.6-0.1,0.7-0.2
		c0.3-0.5,0.6-1.4,0.4-1.9C97,180.4,95.8,180,95.4,180.2z"/>
	<path d="M203.1,121c0.5-0.6,0.9-1.1,0.8-1.4c-0.1-0.6-0.9-1.4-1.4-1.4c-0.5,0-1.5,0.8-1.5,1.3c0,0.5,0.4,0.9,0.9,1.6
		C202.3,121.4,202.8,121.4,203.1,121z"/>
	<path d="M78.6,169.5c0.5-0.5,0.9-0.8,0.8-1.1c-0.1-0.4-0.4-0.8-0.8-1.2c-0.4-0.4-0.9-0.4-1.3-0.1c-0.3,0.3-0.7,0.6-0.7,0.9
		c0,0.4,0.3,0.8,0.8,1.3C77.8,169.8,78.3,169.8,78.6,169.5z"/>
	<path d="M183.5,76.1c-0.4-0.3-0.9-0.3-1.2,0.1c-0.4,0.5-0.7,0.9-0.6,1.2c0.1,0.4,0.4,0.6,0.8,0.9c0.4,0.3,1,0.3,1.4-0.1
		c0.3-0.3,0.6-0.6,0.6-0.9C184.4,76.9,184,76.5,183.5,76.1z"/>
	<path d="M185.2,118.9c0.5-0.6,0.9-1,0.9-1.4c-0.1-0.5-0.9-1.3-1.5-1.3c-0.5,0-1.3,0.9-1.3,1.4c0,0.4,0.4,0.8,0.8,1.3
		C184.4,119.3,184.9,119.3,185.2,118.9z"/>
	<path d="M146,78.6c-0.4-0.4-0.9-0.3-1.1,0.1c-0.4,0.6-0.8,1-0.7,1.3c0.1,0.3,0.4,0.6,0.7,0.9c0.4,0.3,1,0.3,1.4-0.1
		c0.3-0.3,0.6-0.7,0.7-1C147,79.5,146.6,79.1,146,78.6z"/>
	<path d="M100.5,177.6c-0.6,0.1-1.4,0.9-1.4,1.4c0,0.5,0.9,1.4,1.4,1.4c0.4,0,0.7-0.4,1.2-0.9c0.3-0.4,0.3-0.9-0.1-1.2
		C101.2,177.9,100.8,177.6,100.5,177.6z"/>
	<path d="M191.1,129.5c-0.5,0.6-0.8,1-0.8,1.2c0.1,0.4,0.4,0.8,0.7,1.1c0.3,0.4,0.9,0.4,1.3,0.1c0.3-0.2,0.6-0.5,0.5-0.7
		c0-0.5-0.4-1-0.8-1.6C191.8,129.1,191.4,129.1,191.1,129.5z"/>
	<path d="M177.3,127.2c0.3,0.4,0.6,0.7,1,0.8c0.3,0,0.7-0.3,1.2-0.8c0.4-0.3,0.4-0.9,0.1-1.2c-0.5-0.5-0.8-0.9-1-0.8
		c-0.4,0.1-0.8,0.4-1.1,0.8C177,126.2,177,126.8,177.3,127.2z"/>
	<path d="M120.6,181.2c-0.5,0.5-1,0.9-0.9,1.2c0.1,0.4,0.5,0.7,0.9,1c0.4,0.3,1,0.3,1.4-0.1c0.3-0.3,0.6-0.6,0.6-0.9
		c0-0.4-0.3-0.8-0.8-1.2C121.5,180.8,121,180.8,120.6,181.2z"/>
	<path d="M215.9,125.4c0.4,0,0.8-0.3,1.3-0.8c0.4-0.3,0.4-0.8,0-1.1c-0.6-0.5-1-0.9-1.5-0.9c-0.4,0-1.2,1-1.2,1.6
		C214.5,124.5,215.4,125.3,215.9,125.4z"/>
	<path d="M163.5,72.4c0.5,0,1.4-0.9,1.4-1.4c0-0.4-0.4-0.8-0.9-1.3c-0.4-0.3-0.9-0.3-1.2,0.1c-0.4,0.5-0.8,0.9-0.8,1.3
		C162,71.6,162.9,72.4,163.5,72.4z"/>
	<path d="M138.7,74.4c0.3,0.6,0.9,1.3,1.5,1.4c0.3,0.1,0.7-0.3,1.1-0.8c0.4-0.3,0.4-0.8,0-1.1c-0.5-0.4-0.9-0.7-1.4-0.8
		C139.5,73.2,138.6,74.2,138.7,74.4z"/>
	<path d="M177.2,73.3c0.4,0.4,0.9,0.3,1.2-0.1c0.4-0.6,0.8-1,0.8-1.4c-0.1-0.4-1-1.1-1.6-1.1c-0.4,0-1.2,0.9-1.2,1.3
		C176.4,72.5,176.8,72.8,177.2,73.3z"/>
	<path d="M134.6,81.4c0.5,0,1.4-1,1.3-1.4c0-0.5-0.5-0.9-1-1.5c-0.4-0.4-0.8-0.3-1.1,0.1c-0.4,0.6-0.8,1.1-0.6,1.4
		C133.3,80.6,134.1,81.4,134.6,81.4z"/>
	<path d="M201.5,78.2c-0.8,0.1-1.5,0.6-2.2,0.9c0,0-0.1,0.1-0.1,0.1c0,0,0.3,0.3,0.7,0.6c0.5,0.4,0.9,0.7,1.4,1c0.1,0.1,1-0.8,1-1.3
		C202.4,79.1,201.7,78.1,201.5,78.2z"/>
	<path d="M184.1,64.4c0.4,0,0.8-0.3,1.4-0.8c0.4-0.3,0.4-0.8,0.1-1.1c-0.6-0.5-1-0.9-1.4-0.9c-0.3,0-0.6,0.3-0.9,0.7
		c-0.3,0.4-0.3,1,0,1.4C183.5,64.1,183.8,64.4,184.1,64.4z"/>
	<path d="M170.9,77.3c0.1,0.6,0.8,1.4,1.3,1.5c0.4,0,0.8-0.4,1.3-0.8c0.4-0.3,0.4-0.8,0-1.1c-0.6-0.4-0.9-0.8-1.4-0.8
		C171.8,76.1,170.9,77,170.9,77.3z"/>
	<path d="M135.7,67c0.4,0,0.7-0.4,1.2-0.9c0.3-0.4,0.3-0.9,0-1.2c-0.5-0.4-0.8-0.7-1-0.7c-0.4,0.2-0.8,0.5-1.1,0.8
		c-0.4,0.4-0.4,0.9,0,1.3C135,66.7,135.3,66.9,135.7,67z"/>
	<path d="M202.8,66.1c0.3-0.4,0.4-1.2,0.3-1.8c-0.1-0.2-0.3-0.4-0.5-0.7c-0.3-0.3-0.9-0.2-1.2,0.1c-0.2,0.2-0.5,0.5-0.5,0.7
		c-0.1,0.5,0.1,1.3,0.5,1.7C201.6,66.4,202.6,66.3,202.8,66.1z"/>
	<path d="M173.6,118.7c0.5,0.1,1-0.2,1-0.7c0.1-0.4,0.1-0.9,0.1-1.3c0-0.2-0.1-0.3-0.3-0.4c-0.2-0.2-0.3-0.4-0.3-0.3
		c0,0-0.2,0.1-0.6,0.1c-0.2,0.1-0.5,0.1-0.6,0.2c-0.3,0.6-0.7,1.5-0.5,1.9C172.8,118.4,173.2,118.5,173.6,118.7z"/>
	<path d="M163.6,68.4c0.4,0.3,1,0.3,1.4,0c0.3-0.3,0.6-0.6,0.7-1c0.1-0.2-0.3-0.6-0.7-1.1c-0.3-0.4-0.9-0.4-1.2,0
		c-0.5,0.5-0.9,0.9-0.8,1.2C163,67.9,163.3,68.2,163.6,68.4z"/>
	<path d="M110.9,181.6c-0.4-0.3-1-0.3-1.4,0c-0.3,0.3-0.6,0.5-0.6,0.8c0,0.4,0.3,0.8,0.7,1.4c0.3,0.4,0.8,0.4,1.1,0.1
		c0.5-0.6,0.9-1,0.9-1.4C111.6,182.1,111.3,181.9,110.9,181.6z"/>
	<path d="M133.2,63.5c-0.3-0.4-0.9-0.6-1.4-0.3c-1.2,0.7-1.3,1.2-0.6,2.3c0.3,0.4,0.9,0.6,1.4,0.3C133.8,65.1,133.9,64.6,133.2,63.5
		z"/>
	<path d="M179.3,69.5c0.4-0.3,0.7-0.5,0.7-0.9c0.1-0.3-0.2-0.8-0.7-1.4c-0.3-0.4-0.8-0.5-1.1-0.1c-0.6,0.6-1,0.9-1,1.3
		c0,0.3,0.3,0.7,0.6,1C178.3,69.8,178.9,69.8,179.3,69.5z"/>
	<path d="M201.5,124.3c0.4,0,0.8-0.4,1.4-0.8c0.4-0.3,0.4-0.8,0-1.1c-0.6-0.4-1-0.7-1.4-0.7c-0.4,0-1.3,0.9-1.3,1.2
		C200.3,123.5,201,124.3,201.5,124.3z"/>
	<path d="M155.5,73.4c0.4,0,0.8-0.3,1.4-0.8c0.4-0.3,0.4-0.8-0.1-1.1c-0.7-0.4-1.1-0.8-1.5-0.8c-0.5,0-1.3,0.9-1.2,1.3
		C154.2,72.6,154.9,73.3,155.5,73.4z"/>
	<path d="M210.3,128.1c-0.4,0-1.2,0.7-1.2,0.9c0.1,0.5,0.3,0.9,0.6,1.4c0.3,0.4,0.6,0.8,0.8,0.8c0.2,0,0.5-0.4,0.7-0.8
		c0.2-0.5,0.5-1,0.6-1.4C211.9,128.8,210.9,128.2,210.3,128.1z"/>
	<path d="M202.5,129.6c-0.3,0.1-0.6,0.4-0.9,0.7c-0.3,0.4-0.3,1,0.1,1.4c0.3,0.3,0.6,0.6,0.9,0.6c0.4,0,0.8-0.5,1.3-0.9
		c0.4-0.4,0.3-0.9-0.1-1.1C203.2,129.9,202.8,129.5,202.5,129.6z"/>
	<path d="M171.6,116.1c-0.6-0.5-1-0.9-1.4-1c-0.2,0-0.5,0.2-0.7,0.6c-0.3,0.4-0.3,1,0,1.4c0.3,0.3,0.6,0.7,1,0.9
		c0.2,0.1,0.6-0.2,1.2-0.7C172,117,172,116.5,171.6,116.1z"/>
	<path d="M206.3,75.4c0.5-0.1,0.9-0.5,1.5-0.9c0.4-0.3,0.4-0.8,0-1.1c-0.5-0.4-0.9-0.8-1.1-0.7c-0.4,0.2-0.7,0.5-1.1,0.8
		c-0.4,0.4-0.4,1,0,1.4C205.9,75.2,206.1,75.5,206.3,75.4z"/>
	<path d="M62.8,171.9c0.3,0.1,0.7-0.2,1.2-0.6c0.4-0.3,0.4-0.8,0.1-1.1c-0.5-0.4-0.9-0.8-1.3-0.9c-0.3,0-0.5,0.2-0.8,0.5
		c-0.4,0.3-0.4,0.9,0,1.3C62.2,171.5,62.5,171.8,62.8,171.9z"/>
	<path d="M190.8,72.9c0.1,0.4,0.4,0.7,0.8,1.1c0.4,0.3,0.9,0.3,1.3,0c0.4-0.3,0.7-0.7,0.7-1c0-0.3-0.4-0.7-0.9-1.2
		c-0.4-0.4-0.9-0.3-1.2,0C191.1,72.2,190.7,72.6,190.8,72.9z"/>
	<path d="M54.1,176.5c0.3,0.1,0.7-0.1,1-0.4c0.4-0.3,0.7-0.7,0.5-0.9c-0.1-0.2-0.5-0.7-1-1c-0.3-0.2-0.7-0.5-1-0.5
		c-0.2,0-0.5,0.2-0.7,0.6c-0.3,0.4-0.3,1,0,1.4C53.3,176,53.7,176.4,54.1,176.5z"/>
	<path d="M207,127.6c-0.4,0-0.8,0.1-1.2,0.2c-0.2,0-0.3,0.2-0.5,0.4c-0.2,0.3-0.2,0.6,0,0.9c0.2,0.2,0.3,0.3,0.5,0.3
		c0.4,0.1,0.9,0,1.3,0c0.5,0,0.9-0.5,0.9-0.9C208,127.9,207.6,127.5,207,127.6z"/>
	<path d="M155.8,75.4c0-0.3-0.3-0.7-0.7-1.1c-0.4-0.4-0.9-0.4-1.2,0c-0.1,0.2-0.3,0.3-0.4,0.5c-0.3,0.4-0.2,1,0.1,1.3
		c0.3,0.3,0.7,0.5,1,0.5C155,76.8,155.8,75.9,155.8,75.4z"/>
	<path d="M187.8,119.9c0.4,0.3,0.9,0.3,1.1-0.2c0.4-0.6,0.7-1.1,0.6-1.4c-0.1-0.5-1-1-1.7-1.1c-0.4,0-1.1,1-1.1,1.4
		C186.9,119.1,187.3,119.4,187.8,119.9z"/>
	<path d="M193,70.8c0.6-0.1,1.4-0.8,1.5-1.3c0-0.3-0.3-0.7-0.8-1.3c-0.3-0.4-0.8-0.4-1.1,0c-0.5,0.6-0.8,1-0.8,1.4
		C191.7,70,192.6,70.9,193,70.8z"/>
	<path d="M150.4,67.9c0.5-0.6,0.9-1,0.9-1.4c0-0.5-0.9-1.2-1.5-1.3c-0.4-0.1-1.3,0.8-1.3,1.2c0,0.4,0.3,0.8,0.7,1.3
		C149.6,68.2,150.1,68.2,150.4,67.9z"/>
	<path d="M170.4,63.3c0.4-0.6,0.8-1,0.7-1.4c0-0.3-0.3-0.5-0.6-0.8c-0.4-0.3-1-0.3-1.4,0.1c-0.3,0.3-0.6,0.6-0.6,1
		c-0.1,0.3,0.3,0.6,0.8,1.1C169.6,63.7,170.1,63.7,170.4,63.3z"/>
	<path d="M146.5,66.8c0.6-0.1,1.3-0.8,1.4-1.4c0.1-0.2-0.3-0.6-0.7-1.1c-0.3-0.4-0.9-0.4-1.2,0c-0.4,0.5-0.8,0.8-0.8,1.2
		C145.1,65.9,146.1,66.8,146.5,66.8z"/>
	<path d="M215.3,79c-0.3,0-0.6,0.3-0.9,0.7c-0.3,0.4-0.3,1,0.1,1.3c0.3,0.2,0.5,0.4,0.8,0.5c0.3,0,0.7-0.2,1.3-0.5
		c0.4-0.2,0.5-0.7,0.1-1C216.1,79.4,215.7,79,215.3,79z"/>
	<path d="M67.7,177.3c0.4,0.3,0.9,0.3,1.2-0.1c0.4-0.4,0.7-0.8,0.6-1.1c-0.1-0.3-0.4-0.6-0.7-0.9c-0.4-0.3-1-0.3-1.3,0.1
		c-0.3,0.3-0.5,0.6-0.6,1C66.8,176.6,67.2,176.9,67.7,177.3z"/>
	<path d="M168.8,75.1c-0.3,0.1-0.6,0.4-0.9,0.8c-0.3,0.4-0.3,1,0.1,1.4c0.3,0.3,0.6,0.6,0.9,0.6c0.3,0,0.6-0.3,1-0.8
		c0.3-0.4,0.3-0.9-0.1-1.3C169.4,75.3,169.1,75,168.8,75.1z"/>
	<path d="M201.1,70c0.4,0,0.7-0.3,1.2-0.8c0.4-0.4,0.4-0.9,0-1.2c-0.5-0.5-0.9-0.8-1.1-0.7c-0.6,0.3-1.2,0.9-1.4,1.6
		C199.7,69,200.6,70,201.1,70z"/>
	<path d="M176.1,125.5c-0.1-0.4-0.4-0.8-0.9-1.3c-0.4-0.4-0.9-0.3-1.2,0c-0.4,0.5-0.7,0.8-0.6,1.1c0.1,0.6,0.8,1.3,1.4,1.4
		C175.2,126.8,176.2,125.9,176.1,125.5z"/>
	<path d="M142.3,70.4c-0.5-0.5-0.9-0.8-1.1-0.7c-0.6,0.2-1.3,0.9-1.4,1.5c-0.1,0.4,0.8,1.3,1.3,1.3c0.4,0,0.8-0.4,1.2-0.8
		C142.7,71.2,142.7,70.7,142.3,70.4z"/>
	<path d="M167.1,78.7c-0.4,0.6-0.8,1-0.6,1.2c0.1,0.4,0.4,0.7,0.8,0.9c0.4,0.3,1,0.3,1.3-0.1c0.3-0.3,0.5-0.6,0.5-0.9
		c0-0.4-0.4-0.8-0.9-1.3C167.9,78.2,167.4,78.3,167.1,78.7z"/>
	<path d="M207.9,115.5c0.4,0.1,0.8-0.3,1.3-0.7c0.4-0.3,0.4-0.8,0.1-1.2c-0.5-0.4-0.8-0.8-1.1-0.8c-0.3,0-0.7,0.3-1,0.5
		c-0.4,0.3-0.4,0.9-0.1,1.3C207.3,115.1,207.6,115.4,207.9,115.5z"/>
	<path d="M173.1,64.4c0.4,0,0.8-0.4,1.3-0.8c0.4-0.3,0.4-0.8,0-1.2c-0.5-0.5-0.9-0.8-1.1-0.7c-0.6,0.2-1.3,0.9-1.4,1.4
		C171.8,63.5,172.7,64.5,173.1,64.4z"/>
	<path d="M186.1,77.3c-0.4,0.6-0.7,1-0.7,1.4c0,0.4,1,1.1,1.4,1.1c0.5-0.1,1.4-0.9,1.3-1.3c-0.1-0.4-0.4-0.8-0.9-1.3
		C186.8,76.8,186.4,76.9,186.1,77.3z"/>
	<path d="M77,172.4c0.1,0,0.2,0,0.3-0.1c0.5,0,0.8-0.5,0.7-1c-0.1-0.2-0.1-0.5-0.2-0.7c-0.2-0.5-0.6-0.9-1-0.8c-0.4,0-0.7,0.5-0.7,1
		c0,0.2,0,0.5,0,0.7C76.1,172.1,76.5,172.5,77,172.4z"/>
	<path d="M193.6,114.5c0.4-0.1,0.8-0.4,1.2-0.9c0.4-0.4,0.3-0.9-0.1-1.2c-0.5-0.4-0.9-0.7-1.1-0.6c-0.6,0.2-1.2,0.9-1.3,1.5
		C192.2,113.6,193.2,114.6,193.6,114.5z"/>
	<path d="M105.8,174.9c0.2,0.1,1.3-0.5,1.3-0.7c-0.1-0.7-0.5-1.4-0.8-2.1c0,0,0-0.1-0.1-0.1c0,0-0.4,0.2-0.8,0.6
		c-0.3,0.3-0.7,0.6-0.9,1C104.5,173.7,105.3,174.6,105.8,174.9z"/>
	<path d="M95.9,183.7c-0.4-0.4-1.1-0.6-1.6-0.4c-0.7,0.4-0.8,1.1-0.6,2c0.1,0.5,0.5,0.7,1,0.5c0.5-0.2,0.9-0.5,1.4-0.7
		c0.5-0.2,0.5-0.7,0.1-1C96.1,183.9,96,183.8,95.9,183.7z"/>
	<path d="M58.2,182.7c-0.6,0.1-1.2,0.9-1.4,1.5c0,0.4,0.1,0.8,0.3,1.1c0.2,0.5,0.6,0.7,0.9,0.5c0.3-0.2,0.8-0.7,1.2-1
		c0.3-0.3,0.5-0.6,0.4-0.8C59.4,183.4,58.6,182.6,58.2,182.7z"/>
	<path d="M93.3,170c0.3-0.2,0.5-0.5,0.5-0.6c0-0.4-0.3-0.9-0.7-1.5c-0.3-0.4-0.7-0.4-1.1-0.1c-0.4,0.5-0.8,0.9-0.8,1.2
		c0.1,0.3,0.3,0.6,0.7,0.9C92.3,170.3,92.9,170.3,93.3,170z"/>
	<path d="M85.4,179.2c0.4,0.4,0.9,0.3,1.2,0c0.5-0.5,0.8-0.9,0.8-1.2c-0.1-0.5-1-1.2-1.5-1.2c-0.4,0-1.2,0.9-1.2,1.4
		C84.7,178.4,85,178.8,85.4,179.2z"/>
	<path d="M97.9,177.1c-0.1-0.1-0.2-0.2-0.4-0.4c-0.4-0.4-0.9-0.3-1.2,0.1c-0.4,0.5-0.7,0.9-0.7,1.2c0,0.4,1,1.2,1.4,1.1
		c0.3-0.1,0.7-0.4,0.9-0.8C98.3,178.1,98.3,177.5,97.9,177.1z"/>
	<path d="M192.6,126.2c-0.6,0.1-1.2,0.8-1.4,1.4c0,0.3,0.4,0.6,0.8,1c0.4,0.3,0.9,0.3,1.2-0.1c0.4-0.5,0.7-0.9,0.7-1.2
		C194,126.9,193,126.1,192.6,126.2z"/>
	<path d="M215.4,70.8c0.4,0,0.7-0.3,1.1-0.7c0.4-0.4,0.4-0.9,0-1.2c-0.5-0.4-0.8-0.8-1.1-0.7c-0.6,0.1-1.2,0.8-1.3,1.4
		C214.1,69.9,214.9,70.8,215.4,70.8z"/>
	<path d="M211.5,116.3c0.5,0,1.2-0.8,1.4-1.4c0.1-0.2-0.3-0.6-0.7-1c-0.4-0.3-0.9-0.4-1.3,0c-0.5,0.4-0.9,0.8-0.8,1
		C210.3,115.5,211,116.3,211.5,116.3z"/>
	<path d="M91.5,173.8c0.2,0.1,0.6-0.2,1.1-0.6c0.4-0.3,0.4-0.8,0.1-1.2c-0.4-0.4-0.7-0.8-1-0.8c-0.3,0-0.6,0.2-0.8,0.4
		c-0.4,0.3-0.4,0.9-0.2,1.3C90.9,173.4,91.2,173.6,91.5,173.8z"/>
	<path d="M73.4,184.3c-0.3-0.4-0.9-0.4-1.3-0.1c-0.2,0.2-0.4,0.3-0.6,0.5c-0.4,0.3-0.5,0.8-0.3,1.1c0.2,0.3,0.7,0.3,1.1,0.1
		c0.3-0.2,0.6-0.3,0.9-0.5C73.7,185.2,73.8,184.8,73.4,184.3C73.4,184.4,73.4,184.3,73.4,184.3z"/>
	<path d="M60,179.4c-0.3-0.4-0.8-0.4-1.2-0.1c-0.4,0.4-0.7,0.8-0.7,1.1c0,0.3,0.2,0.6,0.5,0.8c0.3,0.3,0.9,0.4,1.3,0.1
		c0.3-0.3,0.6-0.5,0.7-0.9C60.7,180.2,60.3,179.8,60,179.4z"/>
	<path d="M208.6,75c-0.1,0.3,0.3,0.7,0.8,1.2c0.3,0.4,0.8,0.3,1.1-0.1c0.4-0.5,0.6-0.9,0.7-1.3c0-0.3-0.9-1.2-1.1-1.1
		C209.5,73.9,208.8,74.4,208.6,75z"/>
	<path d="M113.8,182.2c-0.3,0-0.5,0.3-0.8,0.6c-0.3,0.4-0.3,1,0,1.4c0.3,0.3,0.5,0.6,0.8,0.6c0.3,0,0.7-0.3,1.2-0.7
		c0.4-0.3,0.4-0.8,0-1.1C114.5,182.6,114.1,182.2,113.8,182.2z"/>
	<path d="M83.1,178.3c0.4-0.4,0.8-0.8,0.7-0.9c-0.2-0.6-0.8-1.2-1.4-1.5c-0.2-0.1-1.2,0.7-1.2,1c0.1,0.4,0.3,0.8,0.7,1.4
		C82.3,178.6,82.8,178.6,83.1,178.3z"/>
	<path d="M84.8,184.4c-0.6-0.4-1-0.7-1.3-0.7c-0.2,0-0.4,0.2-0.7,0.4c-0.3,0.4-0.3,0.9,0,1.2c0.2,0.2,0.4,0.4,0.7,0.4
		c0.4,0,0.8-0.2,1.3-0.5C85.2,185.1,85.2,184.7,84.8,184.4z"/>
	<path d="M194,80.1c-0.4-0.2-0.8-0.4-1.2-0.5c-0.2,0-0.4,0.2-0.6,0.6c-0.3,0.4-0.1,0.8,0.4,1c0.3,0.1,0.6,0.2,0.9,0.3
		c0.5,0.1,1,0,1.1-0.3C194.7,80.8,194.5,80.4,194,80.1z"/>
	<path d="M196.1,131.1c-0.4-0.3-0.9-0.5-1.3-0.6c-0.2,0-0.5,0.5-0.8,1c-0.3,0.4-0.1,0.8,0.4,0.8c0.5,0,0.9,0,1.2,0
		c0.5,0,1-0.2,1.1-0.4C196.8,131.8,196.5,131.4,196.1,131.1z"/>
	<path d="M206.2,130.5c-0.4,0-0.8,0.3-1.1,0.5c-0.4,0.3-0.7,0.7-0.6,0.9c0.1,0.2,0.6,0.4,1.1,0.4c0.4,0,0.9,0,1.5,0
		c0.5,0,0.6-0.3,0.3-0.7C206.9,131,206.5,130.5,206.2,130.5z"/>
	<path d="M182.2,79.6c-0.3,0-0.6,0.2-1,0.5c-0.4,0.3-0.7,0.7-0.6,0.9c0.1,0.2,0.6,0.3,1.1,0.3c0.3,0,0.6,0,0.9,0
		c0.5,0,1-0.1,1.1-0.3c0.1-0.2-0.2-0.6-0.6-0.9C182.8,79.8,182.5,79.6,182.2,79.6z"/>
	<path d="M149.3,79.6c-0.4,0-0.7,0.2-1.1,0.4c-0.4,0.3-0.7,0.7-0.7,0.9c0.1,0.2,0.5,0.5,1.1,0.5c0.3,0,0.6,0,0.8,0.1
		c0.5,0,1-0.1,1.1-0.2c0.1-0.2-0.1-0.6-0.4-1C149.8,79.9,149.6,79.6,149.3,79.6z"/>
	<path d="M183.6,130.5c-0.3,0-0.6,0.5-1.2,1.1c-0.3,0.4-0.2,0.7,0.3,0.7c0.5,0,1,0,1.4,0c0.5,0,1-0.1,1.1-0.2
		c0.1-0.1-0.1-0.5-0.5-0.9C184.3,130.9,183.9,130.6,183.6,130.5z"/>
	<path d="M217.7,131.2c-0.5-0.2-0.9-0.4-1.4-0.4c-0.1,0-0.3,0.2-0.4,0.5c-0.2,0.3,0.1,0.7,0.5,0.9c0.3,0.1,0.6,0.2,0.9,0.3
		c0.5,0.2,1,0,1.1-0.3C218.4,131.8,218.2,131.4,217.7,131.2z"/>
	<path d="M105.6,183.7c-0.1,0.1-0.2,0.2-0.3,0.3c-0.3,0.4-0.3,0.8,0.2,1c0.4,0.2,0.8,0.3,1,0.2c1.1-0.6,0.7-1,0.2-1.5
		C106.4,183.3,105.9,183.3,105.6,183.7z"/>
	<path d="M37.7,77.1c1-0.1,1.9-0.6,2.9-1c0.5-0.2,1.2-0.1,1.6,0.2c1.4,1.1,2.8,2.2,4.8,0.7c2.2-1.7,0.5-3.2-0.4-5
		c-0.2-0.5,0.1-1,0.5-1.2c19.3-9,38.9-15.7,60.7-9.1c0.5,0.1,0.7-0.1,0.5-0.5c-0.3-0.7-0.7-1.2-1.2-1.5c-1.9-1.2-4-2.5-6.1-3.4
		c-1.3-0.6-1.4-1.2-0.8-2.3c1.4-2.6,3.5-4,6.4-4.2c0.6,0,1.3,0,1.9,0c0.5,0,0.9-0.1,1-0.3c0-0.2-0.3-0.5-0.8-0.7
		c-0.7-0.3-1.4-0.6-2.2-0.6c-4.4-0.4-7.9,0.9-10.3,4.8c-0.5,0.8-1.2,2-1.9,2.1C91.7,55.1,88.9,55,86,55c-0.5,0-0.8-0.4-0.7-0.9
		C86.6,49,90,46,93.7,43.3c0.4-0.3,0.3-0.7-0.2-0.7c-0.7-0.1-1.3-0.1-2,0.1c-5.9,1.3-9.3,5.3-11.2,10.8c-0.2,0.7-0.6,1.6-1.1,1.8
		c-3,0.8-6,1.5-9.2,2.3c-0.5,0.1-0.9-0.2-0.9-0.7c0-4.8,2-8.3,5.7-11.1c0.4-0.3,0.3-0.6-0.2-0.6c-1.2-0.1-2.4,0-3.4,0.4
		c-3.2,1.4-5.2,3.8-5.9,7.3c-0.3,1.6-0.6,3.2-0.7,4.8c-0.1,1.3-0.7,1.8-1.8,2.2c-2.7,0.9-5.4,1.8-8,2.8c-1.6,0.6-2.1,0.1-2.2-1.3
		c-0.2-2.9,0.4-5.5,2.3-7.7c1-1.2,2.1-2.4,3.5-3.9c0.3-0.4,0.2-0.7-0.3-0.7c-3.6,0.1-5.8,1.9-7.6,4.3c-2.5,3.3-2.6,7-2,10.9
		c0.1,0.6-0.1,1.5-0.5,1.8c-1.2,0.8-2.4,1.6-3.8,1.8c-0.6,0.1-1.4-1.4-2.3-1.7c-1-0.4-2.4-0.7-3.2-0.3c-0.8,0.3-1.7,2-1.5,2.6
		c0.8,2.1,0.2,3.2-1.7,4.2c-1.5,0.8-1.2,2.4-0.5,3.5C35.5,76.7,36.8,77.2,37.7,77.1z"/>
	<path d="M187.1,175.4c-1.3,0.7-2.6,1.7-3.3,2.9c-1.4,2.2-3.1,2.6-5.4,2.2c-0.8-0.1-1.5-0.3-2.3-0.4c-1.3-0.1-1.5-0.9-1.1-1.9
		c1-2.7,2.3-5.2,4.8-6.8c0.3-0.2,0.5-0.4,0.8-0.6c0.4-0.3,0.3-0.8-0.2-0.9c-2.3-0.6-5,0.4-6.7,2.8c-1.3,1.8-2.1,4-3.2,5.9
		c-0.4,0.7-0.9,1.7-1.5,1.9c-1.4,0.3-2.9,0.4-4.4,0.5c-0.5,0-1-0.3-1.1-0.8c-0.7-4.7,1.4-8,4.4-11.1c0.4-0.4,0.2-0.6-0.3-0.6
		c-1,0.2-1.8,0.4-2.6,0.8c-3.5,1.8-5.8,4.8-5.7,8.6c0.1,4.1-1.9,5.2-5.2,5.6c-0.1,0-0.3,0.1-0.4,0.1c-1.9,0.5-2.5,0.1-2.8-2
		c-0.3-2.9,0-5.7,2.2-7.9c0.4-0.4,0.3-0.7-0.2-0.7c-2,0-4,1.3-4.9,3.2c-1.2,2.4-1.6,4.9-0.9,7.6c0.2,0.8-0.1,2.1-0.7,2.5
		c-1.5,1.1-3.3,2.2-5.1,2.5c-0.9,0.1-2.1-1.6-3.2-2.5c-0.1-0.1-0.1-0.1-0.2-0.1c-1.4-1-2.7-0.6-3.8,0.5c-1.1,1.2-0.9,2.5,0.2,3.6
		c0.2,0.2,0.4,0.4,0.6,0.6c0.3,0.3,0.3,0.8,0,1.2c-2.8,3.2-2.9,3.9-1.5,5.4c1.4,1.6,2.5,1.6,5.3-0.1c0.4-0.3,1.1-0.2,1.5,0.2
		c1.2,1.4,2.3,3.4,4.8,1.7c0.4-0.3,0.9-1.1,0.8-1.6c-0.2-1.2-0.7-2.4-1.2-3.9c-0.2-0.5,0.1-1.1,0.5-1.3c2.4-1.3,5.1-2.8,7.8-3.9
		c6.2-2.4,12.8-2.9,19.4-3.3c6.5-0.4,12.6,0.7,17.6,5.3c0.1,0.1,0.3,0.2,0.7,0.3c0.4,0.1,0.6-0.2,0.5-0.7c-0.3-1-0.4-1.8-0.8-2.4
		c-0.9-1.3-2.1-2.3-3.1-3.5c-1.7-1.9-1.8-3.3,0-5c1-0.9,2.4-1.6,3.8-2.3c0.4-0.2,0.5-0.8,0.1-1C189.9,174.9,188.6,174.6,187.1,175.4
		z"/>
	<path d="M176.9,206c-1.1,0.3-2.3,0.5-3.3,1.1c-1.4,0.8-2.6,2-3.8,3.1c-1.4,1.2-4.9,1.4-5.8,0.1c-1.2-1.6-0.2-3.1,0.9-4.4
		c0.9-1,2.1-1.8,3.3-2.6c0.4-0.3,0.8-0.5,1.4-0.8c0.5-0.2,0.4-0.5-0.1-0.6c-0.4-0.1-0.6-0.2-0.9-0.2c-3.5,0-7.4,2.7-8.4,6.4
		c-0.6,2.4-1.7,3.2-4.1,3.4c-1.5,0.1-2-0.2-2.4-1.6c-0.6-2,0.1-3.8,1.2-5.4c0.5-0.7,0.9-1.4,1.4-2.3c0.3-0.4,0.1-0.7-0.4-0.6
		c-4.3,1.1-6.7,5.6-6.1,10.1c0.3,1.7-1.3,3.5-3.4,3.6c-1.7,0.1-2.2-1.5-2.2-2.8c-0.1-1.3,0.1-2.6,0.3-4c0.1-0.5-0.1-0.9-0.4-0.8
		c-0.2,0.1-0.3,0.1-0.5,0.2c-2.6,1.8-3.3,4.8-1.7,8.1c0.7,1.5,0.6,2.4-0.7,3.4c-1.3,1-2.2,1.6-3.7,0c-0.6-0.6-2.5-0.6-3.4-0.2
		c-1.4,0.7-0.6,2.1,0,3.1c0.3,0.5,0.7,1,1.1,1.4c0.4,0.4,0.3,0.9-0.1,1.2c-0.3,0.2-0.5,0.4-0.6,0.7c-0.3,1-0.8,2.4-0.4,2.9
		c0.5,0.6,2,0.7,3,0.7c0.5,0,1-0.7,1.4-1.1c1.1-1.3,2.1-1.8,3.4-0.2c0.2,0.3,0.6,0.6,0.9,0.6c0.9,0,2.2,0.2,2.6-0.2
		c0.4-0.5,0.3-1.9-0.1-2.6c-0.4-0.7-1.1-1.2-1.8-1.7c-0.4-0.3-0.4-0.9,0-1.2c4-3.8,8.4-6.1,13.4-7.3c6.6-1.6,13.2-1.9,18.8,3
		c0,0,0.2,0,0.4,0c0.2-0.1,0.2-0.5,0.1-1c-0.1-0.4-0.3-0.8-0.5-1.1c-0.5-0.7-1.1-1.3-1.8-1.8c-1.7-1.2-1.6-2.5-0.3-3.9
		c1.1-1.3,2.4-2.5,3.5-3.7c0.4-0.4,0.6-0.8,0.6-1C177.8,205.9,177.4,205.8,176.9,206z"/>
	<path d="M95.5,226.6c0.4,0.1,0.8,0.2,1.2,0.4c0.5,0.2,0.9-0.1,0.9-0.6c0-0.3,0.1-0.5,0.1-0.8c0-0.5-0.3-0.9-0.8-1
		c-0.3,0-0.6-0.1-0.9-0.1c-0.5-0.1-1-0.3-1.1-0.5c-0.1-0.2,0.2-0.5,0.5-0.7c0.2-0.1,0.4-0.3,0.6-0.4c0.3-0.5,0.4-1.5,0.2-1.6
		c-0.5-0.3-1.8-0.5-1.8-0.4c-0.7,1.5-1.3,3.1-1.8,4.7c0,0.1,1,0.6,1.5,0.8C94.6,226.5,95.1,226.5,95.5,226.6z"/>
	<path d="M106,229.9c0.5,0.4,1.2,0.6,1.9,0.9c0.3,0.1,0.7,0.1,1.1,0.2c0.4,0.1,0.8,0.2,1.2,0.4c0.5,0.2,1-0.1,1.2-0.6
		c0.1-0.3,0.2-0.7,0.3-1.1c0.1-0.5,0.6-1.1,0.9-1.6c0.7-0.9,0.5-1.6-0.8-2c-0.3-0.1-0.8,0-1.2,0.2c-0.5,0.2-0.8,0.3-0.8,0.3
		c0,0,0,0.4,0.1,0.9c0.2,0.6,0.6,1.2,0,1.6c-0.4,0.3-1,0.1-1.1-0.1c-0.1-0.1-0.2-0.3-0.3-0.3c-0.6-0.2-1.3-0.6-1.8-0.4
		C106.3,228.6,105.9,229.8,106,229.9z"/>
	<path d="M116.4,231.9c-1.1,0.8-0.7,1.4-0.3,2c0.3,0.4,0.4,0.8,0.4,0.8c0,0,0.3-0.1,0.9-0.2c0.7-0.1,1.4,0,2.1,0.7
		c0.2,0.3,1.2,0.3,1.4,0.1c0.4-0.4,0.7-1.1,0.6-1.6C121.5,232.7,117.2,231.4,116.4,231.9z"/>
	<path d="M113.8,234c-0.6-0.1-1.3-0.2-1.9,0c-0.3,0.1-0.7,1.1-0.5,1.3c0.3,0.5,1.2,1.2,1.6,1.1c0.9-0.3,1.3,0,1.6,0.5
		c0.3,0.4,0.8,0.7,1.3,0.5c1.4-0.5,1.6-0.8,1-1.9c-0.2-0.5-0.4-0.8-0.4-0.8c0,0-0.4-0.1-0.8-0.2C115.1,234.3,114.5,234.1,113.8,234z
		"/>
	<path d="M98.8,224.6c0.6-0.2,1.3-0.3,1.8,0.7c0.1,0.2,1.2,0.1,1.6-0.2c0.3-0.2,0.6-1.1,0.5-1.3c-0.4-0.5-1-0.8-1.6-1.1
		c-0.3-0.1-1,0.2-1.1,0c-0.7-1-1.7-1.3-2.4-0.4c-0.2,0.3-0.1,1,0.1,1.6C97.8,224.3,98.3,224.7,98.8,224.6z"/>
	<path d="M115.5,238.4c-0.3-0.4-0.5-0.8-0.5-0.8c0,0-0.4,0.1-0.9,0.2c-0.5,0.1-0.9,0.1-1-0.1c-0.7-0.9-1.4-0.8-2.1-0.5
		c-0.4,0.2-1,0.8-0.9,1.3c0.1,2.2,3.5,0.5,3.9,2.2c0,0.1,0.8,0.1,1.1-0.1c0.4-0.2,0.9-0.8,0.8-1.1
		C116,239.2,115.8,238.8,115.5,238.4z"/>
	<path d="M109.5,237.2c-0.3-0.2-0.6-0.4-0.9-0.6c-0.4-0.3-0.9-0.1-1,0.4c-0.1,0.4-0.3,0.9-0.4,1.3c-0.1,0.3-0.1,0.6-0.3,0.7
		c-1.5,0.9-1.1,1.7-0.5,2.5c0.3,0.4,0.9,0.4,1.3,0.1c0.5-0.4,1-0.8,0.9-1c-0.5-1.4,0.3-1.9,1-2.4C110,238,109.9,237.4,109.5,237.2z"
		/>
	<path d="M112.2,225.2c0.4,0.3,0.8,0.4,0.9,0.3c0.1-0.2,0.5-0.1,0.9,0.2c0.2,0.2,0.5,0.3,0.7,0.4c0.6,0.2,1.3,0.3,1.8,0.1
		c0.3-0.1,0.8-0.9,0.6-1.1c-0.4-0.5-0.9-0.9-1.5-1.3c-0.6-0.3-1.2-0.6-1.9-0.7c-0.6-0.1-1.4-0.3-1.9-0.1c-0.3,0.1-0.6,1.1-0.4,1.4
		C111.6,224.7,111.9,224.9,112.2,225.2z"/>
	<path d="M93.9,228.8c-0.2-0.6-0.9-1.2-1.5-1.6c-0.5-0.3-1.2-0.4-1.8-0.6c-0.5-0.1-1.3-0.5-1.6-0.3c-0.4,0.4-0.8,1.2-0.6,1.7
		c0.1,0.4,1,0.6,1.6,0.8c0.5,0.2,1,0.3,1.5,0.6c0.2,0.1,0.4,0.2,0.6,0.4c0.3,0.2,0.9,0.1,1.2-0.2C93.7,229.2,94,228.9,93.9,228.8z"
		/>
	<path d="M119,236.2c-0.3,0.1-0.6,0.4-0.8,0.7c-0.3,0.4-0.4,0.8-0.3,0.9c0.2,0.1,0.1,0.5-0.2,0.9c-0.2,0.2-0.3,0.4-0.4,0.7
		c-0.2,0.5-0.3,1.3-0.1,1.6c0.3,0.4,1.2,0.8,1.5,0.6c0.5-0.3,0.7-1,0.9-1.6c0.2-0.4,0.3-0.9,0.5-1.4c0.2-0.6,0.5-1.4,0.3-1.9
		C120.4,236.5,119.4,236.1,119,236.2z"/>
	<path d="M99.1,227c0.1,1.4-0.4,2.5-1.1,3.6c-0.1,0.1,0.2,0.6,0.6,1.1c0.3,0.4,0.8,0.5,1.2,0.2c0.4-0.3,0.8-0.6,0.8-0.9
		c0-1.1,0.3-2,1-2.9c0.2-0.3-0.3-1.5-0.8-1.8C100.4,226.1,99.1,226.8,99.1,227z"/>
	<path d="M102.1,233.8c-0.9-0.4-2-0.6-3.3-0.9c-0.5-0.1-1.1,0-1.4,0.3c-0.2,0.2-0.3,0.4-0.3,0.6c0,0.5,0.6,1.1,1.2,1.4
		c0.7,0.4,1.6,0.7,2.4,0.8c0.4,0,0.7,0,1.1-0.1c0.5-0.1,0.8-0.6,0.7-1.1C102.4,234.4,102.3,233.9,102.1,233.8z"/>
	<path d="M107.2,233.2c-0.2-0.6-0.9-1.2-1.5-1.6c-0.6-0.3-1.3-0.4-2-0.5c-0.3,0-0.6,0-0.9,0c-0.5,0-0.8,0.5-0.8,1
		c0,0.5,0.1,0.9,0.3,1.1c0.9,0.5,1.9,0.7,3.1,1.1c0.5,0.1,1.2,0,1.5-0.3C107.1,233.7,107.3,233.4,107.2,233.2z"/>
	<path d="M115.2,227.3c-0.4-0.1-1.3,0.2-1.6,0.6c-0.6,1.1-1.1,2.3-1.3,3.5c-0.1,0.4,0.3,0.8,0.7,1.3c0.3,0.4,0.9,0.5,1.3,0.2
		c0.3-0.2,0.5-0.4,0.6-0.7c0.5-1.1,0.9-2.3,1.1-3.5C116.1,228.3,115.7,227.4,115.2,227.3z"/>
	<path d="M108.4,227c0.2,0,0.3-0.1,0.5-0.1c0.5-0.1,0.9-0.2,0.9-0.2c0,0-0.1-0.4-0.1-0.9c-0.1-0.5-0.1-1,0.1-1.2
		c1.3-1.1,1-1.9,0.4-2.8c-0.3-0.4-0.8-0.3-1.1,0.1c-0.3,0.6-0.7,1.2-1.1,1.8c-0.1,0.3-0.2,0.6-0.3,0.9c-0.1,0.6-0.1,1.1-0.2,1.6
		C107.5,226.8,107.9,227.2,108.4,227z"/>
	<path d="M87.7,222.2c-0.4-0.3-1-0.4-1.4,0c-0.3,0.3-0.7,0.6-0.7,0.9c-0.1,0.4,0.3,0.8,0.7,1.3c0.3,0.4,0.8,0.4,1.2,0.1
		c0.5-0.5,1-0.9,0.9-1.2C88.4,222.9,88.1,222.6,87.7,222.2z"/>
	<path d="M118.1,230.9c0.4,0,0.8-0.3,1.3-0.8c0.4-0.3,0.4-0.8,0.1-1.2c-0.4-0.5-0.8-0.8-1.1-0.8c-0.6,0.1-1.3,0.8-1.4,1.3
		C116.8,230,117.6,230.9,118.1,230.9z"/>
	<path d="M117.5,242.6c-0.4,0-0.7,0.3-1.1,0.6c-0.4,0.3-0.5,0.9-0.2,1.3c0.3,0.4,0.5,0.7,0.9,0.7c0.3,0.1,0.8-0.2,1.3-0.6
		c0.4-0.3,0.5-0.8,0.1-1.1C118.1,243,117.8,242.6,117.5,242.6z"/>
	<path d="M105,226.5c0.4,0,0.7-0.4,1.2-0.9c0.4-0.4,0.3-0.9,0-1.2c-0.5-0.4-0.9-0.8-1.1-0.7c-0.4,0.2-0.7,0.5-1.1,0.9
		c-0.3,0.4-0.3,1,0.1,1.3C104.3,226.2,104.6,226.5,105,226.5z"/>
	<path d="M104.1,230.1c0.3,0.1,0.6-0.1,1-0.4c0.4-0.3,0.7-0.7,0.6-0.9c-0.1-0.2-0.5-0.7-0.9-1c-0.3-0.3-0.7-0.5-1-0.5
		c-0.4,0-1.3,1-1.2,1.2C102.9,229.1,103.5,229.8,104.1,230.1z"/>
	<path d="M96.5,228.3c-0.4-0.4-0.9-0.4-1.3,0c-0.4,0.4-0.8,0.8-0.7,1c0.1,0.4,0.5,0.7,0.8,1.1c0.4,0.4,1,0.4,1.3,0.1
		c0.3-0.3,0.7-0.6,0.7-1C97.4,229.2,97,228.8,96.5,228.3z"/>
	<path d="M94.9,231.6c-0.3,0-0.7,0.3-1.1,0.8c-0.4,0.4-0.4,0.9,0,1.2c0.5,0.4,0.9,0.8,1.2,0.8c0.3,0,0.6-0.4,0.9-0.7
		c0.3-0.4,0.3-1-0.1-1.4C95.6,232,95.2,231.7,94.9,231.6z"/>
	<path d="M118.6,224.9c-0.4,0.5-0.7,0.9-0.7,1.1c0.1,0.4,0.3,0.6,0.7,0.9c0.4,0.3,1,0.3,1.4,0c0.4-0.3,0.7-0.6,0.7-0.9
		c0-0.4-0.4-0.8-0.9-1.2C119.4,224.5,118.9,224.5,118.6,224.9z"/>
	<path d="M112.8,242.1c-0.3,0.3-0.3,1.2-0.1,1.8c0.1,0.2,0.3,0.4,0.6,0.6c0.4,0.3,0.9,0.2,1.1-0.1c0.2-0.2,0.3-0.4,0.4-0.6
		c0.1-0.5,0.1-1.4-0.2-1.7C114.2,241.7,113.2,241.7,112.8,242.1z"/>
	<path d="M90.6,225.4c0.3,0.1,0.7-0.3,1.1-0.7c0.4-0.4,0.4-0.9,0-1.2c-0.5-0.4-0.8-0.8-1.3-0.8c-0.4,0-1.2,0.9-1.2,1.3
		C89.3,224.5,90,225.2,90.6,225.4z"/>
	<path d="M109.3,233c-0.4,0-0.9,0-1,0.2c-0.8,0.9-0.3,1.6,0.9,2.4c0.4,0.3,0.8,0,0.9-0.5c0-0.4,0.1-0.8,0.1-1.1
		C110.2,233.4,109.8,233,109.3,233z"/>
	<path d="M107.1,123.4c-1.5-2.4-2.7-2.6-4.2,0c-2,3.5-4,7.1-5.9,10.7c-0.1,0.2-0.2,0.6-0.2,0.9c0,0.5,0.1,1,0.3,1.1
		c0.2,0.1,0.6-0.1,1-0.4c0.8-0.5,1.7-1.1,1.7-1.6c0-3.5,2.2-5.9,3.7-8.7c0.2-0.3,0.4-0.5,0.8-0.8c0.4-0.3,0.9-0.2,1.2,0.2
		c0.6,0.9,1.1,1.6,1.5,2.3c0.8,1.7,1.2,3.7,3.6,3.9c0.3,0,0.7,0.8,0.6,1.2c-0.1,0.4-0.6,0.8-1,0.9c-1.2,0.3-2.5,0.5-3.7,0.7
		c-1.4,0.2-2.1,0.9-2,2.4c0.2,2.2,0.5,4.4,0.3,6.6c-0.2,2.7,1.5,4,3,5.8c0.3,0.4,0.8,0.4,1.1,0c0.4-0.6,0.8-1.1,1.2-1.7
		c0.3-0.4,0.2-0.7-0.4-0.7c-2.3,0-2.9-1.5-2.9-3.6c0-1-0.2-2.1-0.2-3.1c0-3.3,0.8-3.9,3.9-3.1c2.2,0.6,4.4,1.3,6.6,0.1
		c1.2-0.6,2-0.6,3.1,0.2c2.4,1.7,5,2.5,8,2.1c0.8-0.1,1.7-0.1,2.6-0.1c0.5,0,0.8,0.2,0.7,0.3c-0.1,0.2-0.1,0.7,0.1,1.1
		c0.6,1.4,1.2,2.8,1.6,4.2c0.2,0.9,0.4,2.3-0.2,2.8c-2,2-4.4,3.7-6.5,5.6c-1.1,1-2,2.1-2.9,3.2c-0.3,0.4-0.4,0.9-0.2,1.1
		c0.2,0.2,0.7,0.2,1.1-0.1c0.6-0.4,1.2-0.8,1.8-1.3c0.6-0.5,0.9-1.4,1.5-1.7c2.7-1.7,5.5-3.2,8.2-4.8c1.2-0.7,1.8-1.7,1.6-3.1
		c0-0.5,0.1-1.1,0.2-1.7c0.1-0.5,0.6-0.7,1-0.4c1.2,0.9,2.2,1.8,3.4,2.3c1.9,0.7,2.1,1.9,1.2,3.2c-1.5,2.3-3.4,4.4-5,6.7
		c-0.8,1.1-1.5,2.4-2.3,3.6c-0.3,0.4-0.4,0.9-0.2,1c0.1,0.1,0.6,0.2,1.1,0c0.5-0.1,1-0.2,1.5-0.3s0.8-0.6,0.8-1.1
		c-0.1-1.7,1-2.6,2.6-3.3c0.9-0.4,1.8-0.9,2.4-1.6c1.1-1.2,1.9-2.8,2.9-4.1c1-1.4,1.6-2.5,0.2-4.2c-2.6-3.1-2.3-4.5,0-7.9
		c1-1.4,1.7-3.1,2-4.8c0.4-2.6,0.9-3.1,3.6-2.4c0.9,0.2,1.9,0.3,2.9,0.3c0.5,0,0.9,0,0.9-0.2c0-0.2-0.3-0.5-0.7-0.8
		c-0.2-0.2-0.4-0.3-0.6-0.5c-0.4-0.3-0.5-0.9-0.3-1.4c0.4-0.7,0.8-1.4,1.2-2c0.3-0.4,0.1-0.6-0.4-0.4c-1.4,0.8-1.9,0.8-2.5,0.1
		c-0.3-0.4-0.1-1,0.3-1.3c0.6-0.4,1.2-0.8,1.8-1.2c0.4-0.3,0.4-0.7-0.1-0.8c-0.9-0.3-1.6-0.6-2.4-0.9c-0.5-0.2-0.6-0.7-0.3-1.1
		c0.9-1.2,1.9-2.2,1.5-3.7c-0.1-0.5-0.5-0.5-0.7-0.1c-0.1,0.3-0.2,0.5-0.4,0.7c-0.3,0.3-0.6,0.5-1,0.7c-0.4,0.3-0.9,0.1-1-0.4
		c-0.1-0.5-0.2-1,0-1.3c0.6-1.2,1.5-2.2,2.2-3.3c0.3-0.4,0.5-0.9,0.8-1.4c0.2-0.4,0-0.6-0.4-0.4c-2.9,1.4-5.4,2.6-5.8,6
		c-0.1,0.5-0.2,0.9-0.4,0.8c-0.1-0.1-0.5-0.5-0.7-1c-0.1-0.2-0.2-0.5-0.4-0.8c-0.2-0.4-0.7-0.6-1-0.1c-0.9,1.3-0.2,2.6,0.6,3.8
		c1.1,1.7,2.3,3.2,3.3,4.9c0.9,1.6,0.8,3.1-0.5,4.5c-0.3,0.4-0.9,0.3-1.2-0.1c-2.9-3.2-6.8-2.7-10.6-2.6c-1.7,0.1-3.4,0.1-5.1-0.1
		c-1.8-0.2-3.1-1.1-3.6-2.9c-0.4-1.9-0.1-3.7,1.4-5c1.5-1.2,2.9-0.5,4.2,0.4c0,0,0.1,0,0.3-0.1c0.2-0.1,0.2-0.5,0-1
		c-0.3-0.9-0.7-1.9-1.1-3.1c-0.1-0.5,0.1-0.7,0.6-0.5c0.7,0.3,1.3,0.6,1.9,0.8c0.5,0.2,0.9,0.3,1,0.2c0.1-0.1,0-0.5-0.3-0.9
		c-0.4-0.8-0.9-1.6-1.4-2.5c-0.2-0.4,0-0.7,0.5-0.7c0.3,0.1,0.7,0.1,1,0.2c0.5,0.1,0.7-0.2,0.4-0.6c-0.7-0.9-1.5-1.5-2.2-2.4
		c-0.6-0.6-0.9-1.4-1.3-2.2c-0.2-0.4-0.1-1,0.4-1.2c0.6-0.3,1.2-0.7,1.9-1c0.1,0,0.1-0.1,0.2-0.2c0.1-0.1-0.2-0.4-0.7-0.5
		c-1.6-0.5-3.2-0.4-4.9,0.1c-0.7,0.2-1.6,0-2.4-0.2c-0.5-0.1-0.8-0.6-0.6-1c0.2-0.7,0.5-1.4,0.7-2.1c0-0.1,0-0.1-0.1-0.3
		c-0.1-0.1-0.5-0.1-0.9,0.1c-3.5,1.9-6.3,5.3-11,4.6c-0.5-0.1-0.7,0.2-0.3,0.5c0.2,0.2,0.3,0.3,0.4,0.5c0.3,0.4,0.2,0.9-0.2,1.2
		c-2.1,1.4-4.2,2.9-6.5,4.5c-0.4,0.3-0.4,0.7,0.1,0.9c2,1,3.5,2.2,5.5,0.8c0.3-0.2,0.8,0,1.5,0.2c0.5,0.2,0.7,0.6,0.4,1
		c-0.7,1.1-1.3,2-1.9,2.8c-1.3,1.8-2.6,3.6-3.9,5.4c-0.3,0.4-0.7,0.9-1,1.3c-0.3,0.4-0.9,0.5-1.3,0.2
		C108.2,124.4,107.5,124,107.1,123.4z M124,106.7c1.8,0,3,1.4,3.4,3.9c0.7,3.7,0.3,6.4-1.1,7.3c-0.4,0.3-0.9-0.1-0.9-0.6
		c-0.1-3.4,0.2-6.9-1.8-9.9C123.4,107.2,123.5,106.7,124,106.7z"/>
	<path d="M98.8,97.7c-0.6,0-1.2-0.2-1.7-0.5c-0.2-0.1-0.4,0-0.5,0.2L96.4,98c-0.1,0.2,0,0.4,0.2,0.5c0.5,0.3,1.3,0.6,2,0.6
		c1.9,0,3.1-1.2,3.1-3.1c0-1.5-0.7-2.4-2.2-3.1c-1.2-0.6-1.6-1-1.6-1.8c0-0.6,0.4-1.3,1.4-1.3c0.6,0,1,0.2,1.3,0.3
		c0.2,0.1,0.4,0,0.5-0.2l0.2-0.7c0.1-0.2,0-0.4-0.2-0.5c-0.3-0.2-0.9-0.4-1.8-0.4c-1.7,0-2.9,1.2-2.9,2.9c0,1.4,0.7,2.3,2.3,3
		c1.1,0.5,1.5,1,1.5,1.8C100.3,97.1,99.7,97.7,98.8,97.7z"/>
	<path d="M102.3,90l2.2,0v8.5c0,0.2,0.2,0.4,0.4,0.4h0.7c0.2,0,0.4-0.2,0.4-0.4l0-8.6h2.1c0.2,0,0.4-0.2,0.4-0.4v-0.7
		c0-0.2-0.2-0.4-0.4-0.4h-5.8c-0.2,0-0.4,0.2-0.4,0.4v0.7C101.9,89.8,102.1,90,102.3,90z"/>
	<path d="M112.2,99.1c2.1,0,3.3-1.7,3.3-4.6v-5.7c0-0.2-0.2-0.4-0.4-0.4h-0.7c-0.2,0-0.4,0.2-0.4,0.4v5.7c0,1.4-0.3,3-1.8,3
		c-1.1,0-1.8-1.1-1.8-3v-5.7c0-0.2-0.2-0.4-0.4-0.4h-0.7c-0.2,0-0.4,0.2-0.4,0.4v5.7C109,98.5,111,99.1,112.2,99.1z"/>
	<path d="M116.5,90l2.1,0v8.5c0,0.2,0.2,0.4,0.4,0.4h0.7c0.2,0,0.4-0.2,0.4-0.4l0-8.6h2.1c0.2,0,0.4-0.2,0.4-0.4v-0.7
		c0-0.2-0.2-0.4-0.4-0.4h-5.8c-0.2,0-0.4,0.2-0.4,0.4v0.7C116.1,89.8,116.3,90,116.5,90z"/>
	<path d="M123.1,90l2.2,0v8.5c0,0.2,0.2,0.4,0.4,0.4h0.7c0.2,0,0.4-0.2,0.4-0.4l0-8.6h2.1c0.2,0,0.4-0.2,0.4-0.4v-0.7
		c0-0.2-0.2-0.4-0.4-0.4h-5.8c-0.2,0-0.4,0.2-0.4,0.4v0.7C122.7,89.8,122.9,90,123.1,90z"/>
	<path d="M130.2,97.7c0.8,0.9,1.9,1.4,3.3,1.4c1,0,1.9-0.2,2.4-0.5c0.2-0.1,0.3-0.3,0.3-0.5v-4.4c0-0.2-0.2-0.4-0.4-0.4h-2.3
		c-0.2,0-0.4,0.2-0.4,0.4v0.6c0,0.2,0.2,0.4,0.4,0.4l1.3,0v2.6c0,0.1-0.1,0.1-0.1,0.1c-0.3,0.1-0.7,0.2-1.2,0.2c-1.9,0-3-1.5-3-3.9
		c0-2.4,1.2-3.8,3.2-3.8c0.6,0,1.1,0.1,1.6,0.3c0.2,0.1,0.4,0,0.5-0.2l0.2-0.7c0.1-0.2-0.1-0.4-0.2-0.5c-0.3-0.1-0.9-0.4-2-0.4
		c-2.8,0-4.7,2.2-4.7,5.4C129,95.4,129.4,96.8,130.2,97.7z"/>
	<path d="M137.3,99h0.7c0.2,0,0.4-0.1,0.4-0.3l0.8-2.8c0,0,0.1-0.1,0.1-0.1h2.5c0,0,0.1,0,0.1,0.1l0.8,2.8c0.1,0.2,0.2,0.3,0.4,0.3
		h0.8c0.1,0,0.2-0.1,0.3-0.1c0.1-0.1,0.1-0.2,0.1-0.3l-2.7-9.7c-0.1-0.2-0.2-0.3-0.4-0.3h-0.9c-0.2,0-0.4,0.2-0.4,0.3l-2.7,9.7
		c0,0.1,0,0.2,0.1,0.3C137.1,98.9,137.2,99,137.3,99z M139.5,94.4l0.8-2.7c0.1-0.4,0.2-0.7,0.3-1.1c0.1,0.3,0.2,0.7,0.3,1.1l0.8,2.7
		L139.5,94.4z"/>
	<path d="M145.5,99h0.6c0.2,0,0.4-0.2,0.4-0.4l0-4h0.8c0.9,0.1,1.3,0.5,1.5,1.8c0.2,1.2,0.4,1.9,0.5,2.2c0.1,0.2,0.3,0.3,0.5,0.3
		h0.7c0.1,0,0.2-0.1,0.3-0.1c0.1-0.1,0.1-0.2,0-0.3c-0.1-0.5-0.3-1.4-0.6-2.6c-0.2-1-0.5-1.7-1.1-2c0.9-0.5,1.4-1.4,1.4-2.6
		c0-0.8-0.2-1.6-0.7-2c-0.6-0.6-1.4-0.9-2.6-0.9c-0.7,0-1.4,0.1-1.9,0.2c-0.2,0-0.4,0.2-0.4,0.4v9.5C145.1,98.8,145.3,99,145.5,99z
		 M146.5,93.2V90c0,0,0-0.1,0-0.1c0.1,0,0.4-0.1,0.8-0.1c0.8,0,1.7,0.3,1.7,1.7c0,1.1-0.7,1.7-1.7,1.7L146.5,93.2z"/>
	<path d="M151.3,90l2.1,0v8.5c0,0.2,0.2,0.4,0.4,0.4h0.7c0.2,0,0.4-0.2,0.4-0.4l0-8.6h2.1c0.2,0,0.4-0.2,0.4-0.4v-0.7
		c0-0.2-0.2-0.4-0.4-0.4h-5.8c-0.2,0-0.4,0.2-0.4,0.4v0.7C150.9,89.8,151.1,90,151.3,90z"/>
</g>
</svg>
