<?xml version="1.0" encoding="utf-8"?>
<!-- Generator: Adobe Illustrator 24.0.0, SVG Export Plug-In . SVG Version: 6.00 Build 0)  -->
<svg version="1.1" id="Layer_1" xmlns="http://www.w3.org/2000/svg" xmlns:xlink="http://www.w3.org/1999/xlink" x="0px" y="0px"
	 viewBox="0 0 256 256" style="enable-background:new 0 0 256 256;" xml:space="preserve">
<style type="text/css">
	.st0{fill:#8699A3;}
</style>
<g>
	<path class="st0" d="M26.02,83.39c0.53,16.05,1.12,35.28,1.79,54.52c0.29,8.15,1.27,16.21,3.62,24.06
		c8.05,26.78,22.94,49.19,43.68,67.74c13.17,11.8,28.08,20.59,45.35,25.21c5.73,1.54,11.09,1.68,16.36-1.21
		c7.54-4.14,15.24-8.03,22.57-12.54c22.91-14.13,40.15-33.49,52.02-57.66c7.55-15.39,12.54-31.55,13.48-48.68
		c0.65-11.74,0.65-23.51,0.7-35.25c0.11-26.95,0.07-53.92,0.16-80.88c0.01-2.18-0.75-3.44-2.86-4.03
		c-8.77-2.46-17.44-5.32-26.32-7.36c-20.81-4.8-42.03-6.45-63.33-7.18C108.37-0.7,83.87,2.32,59.69,8.11
		c-10.8,2.57-21.34,5.96-31.5,10.51c-1.56,0.7-2.2,1.63-2.19,3.39C26.05,41.41,26.02,60.79,26.02,83.39z M32.1,133.22
		c-0.48-10.96-1.06-21.91-1.32-32.88c-0.31-14.42-0.3-28.86-0.5-43.3c-0.03-1.59,0.51-2.37,1.91-3.03
		c17.24-8.19,35.25-13.95,54.13-16.55c11.12-1.54,22.36-2.2,33.55-3.25c0.6-0.05,1.22-0.03,1.89-0.02c0.5,0.02,0.92,0.43,0.92,0.95
		c0,14.74,0,29.26,0,43.94c0,0.53-0.41,0.93-0.92,0.93c-9.56,0-19.11,0-28.9,0c-0.5,0-0.71-0.35-0.37-0.73
		c1.31-1.29,3.31-1.21,4.75-2.05c0.44-0.25,0.43-0.85-0.03-1.08c-2.28-1.22-6.2-0.74-8.61,1.22c-0.81,0.69-1.6,1.45-2.17,2.3
		c-1.11,1.7-2.49,2.51-4.58,2.41c-1.4-0.08-2.8,0.11-4.4,0.28c-0.5,0.04-0.88-0.35-0.8-0.85c0.5-2.61,2.18-4.24,3.87-5.83
		c0.65-0.62,1.55-0.98,2.24-1.56c0.23-0.19,0.4-0.4,0.56-0.67c0.26-0.39,0.1-0.88-0.37-1.06c-0.3-0.11-0.6-0.19-0.86-0.16
		c-3.73,0.75-6.62,2.75-8.51,6.08c-0.36,0.61-0.55,1.3-0.84,1.94c-0.46,1.09-0.62,2.78-1.41,3.14c-2,0.98-4.28,1.4-6.48,1.89
		c-0.23,0.07-1-0.92-0.98-1.38c0.1-2.57,1.03-4.83,2.82-6.71c0.56-0.6,1.08-1.26,1.71-2.01c0.31-0.41,0.18-0.81-0.33-0.84
		c-2.24-0.21-3.87,0.49-5.17,2.06c-2.2,2.6-3.59,5.6-3.71,9.04c-0.04,1.28-0.5,1.93-1.65,2.32c-1.19,0.43-2.35,0.96-3.51,1.51
		c-1.4,0.67-1.99,0.17-1.98-1.28c0.01-3.04,0.52-5.92,2.44-8.39c0.16-0.18,0.28-0.39,0.4-0.6c0.2-0.36-0.03-0.8-0.52-0.87
		c-1.56-0.27-2.99,0.51-4.09,2.22c-1.8,2.89-1.93,6.16-2.03,9.41c-0.05,1.93-3.2,4.9-5.09,4.65c-0.46-0.06-0.9-0.58-1.26-0.99
		c-0.56-0.61-0.93-1.67-1.59-1.88c-0.93-0.29-2.41-0.37-3,0.16c-0.58,0.52-0.51,2-0.39,2.98c0.07,0.44,0.39,0.84,0.73,1.27
		c0.31,0.39,0.21,0.97-0.22,1.26c-0.67,0.45-1.3,0.89-1.92,1.33c-1.31,0.94-1.5,2.16-0.76,3.53c0.74,1.38,1.86,2.01,3.34,1.39
		c1.8-0.76,3.35-1.25,5.13,0.33c0.56,0.5,2.54,0.25,3.14-0.37c0.58-0.62,0.55-2.21,0.23-3.2c-0.36-1.13-1.12-1.97,0.4-2.79
		c11.44-6.03,23.31-10.57,36.38-11.25c0.78-0.04,1.55,0.01,2.33,0.05c0.16,0,0.32,0.03,0.52,0.08c0.3,0.07,0.54,0.54,0.54,1.05
		c0.01,5.07,0.12,10.14-0.1,15.17c-0.06,1.21-1.65,2.26-2.12,3.55c-0.67,1.89-2.15,1.2-3.36,1.39c-1.39,0.2-2.83,0.24-4.21,0.42
		c-1.88,0.25-2.12-0.62-1.88-2.24c0.56-3.58,2.24-6.37,5.3-8.3c0.17-0.11,0.35-0.25,0.52-0.38c0.27-0.23,0.1-0.52-0.41-0.55
		c-2.46-0.05-6.07,1.8-7.33,4.15c-0.87,1.63-1.42,3.53-1.67,5.37c-0.42,3.26-0.28,3.3-3.55,4.15c-1.16,0.31-2.33,0.6-3.5,0.9
		c-0.11,0.02-0.24,0.02-0.44,0.01c-0.24,0-0.54-0.41-0.63-0.92c-0.65-4.06,0.58-7.45,3.53-10.33c0.37-0.37,0.28-0.75-0.22-0.78
		c-2-0.14-3.88,0.88-5.37,2.92c-1.99,2.72-2.17,5.79-1.55,8.92c0.3,1.44-0.05,2.08-1.36,2.53c-1.18,0.45-2.32,1.06-3.45,1.63
		c-1.26,0.67-1.98,0.3-2.3-1.08c-0.74-3.25-0.35-6.32,1.48-9.15c0.17-0.25,0.33-0.48,0.52-0.76c0.29-0.42,0.11-0.82-0.4-0.79
		c-1.96,0.1-3.22,1.22-4.19,2.69c-1.74,2.64-1.93,5.58-1.3,8.59c0.73,3.4,0.84,3.68-1.85,5.21c-0.44,0.25-1.11,0.19-1.51-0.14
		c-0.64-0.58-1.3-1.14-1.96-1.7c-1.15-0.93-2.58-1.06-3.43,0.03c-0.58,0.74-0.84,2.39-0.41,3.15c1.08,1.9,0.86,2.95-1.01,4.09
		c-1.7,1.04-1.94,2.99-0.97,4.23c0.95,1.24,2.78,1.32,4.39,0.18c0.45-0.34,0.89-0.7,1.29-1.1c0.93-0.96,1.77-0.85,2.76,0
		c0.62,0.52,1.49,1.17,2.16,1.1c1.01-0.09,2.24-0.57,2.84-1.3c0.41-0.54,0.09-1.83-0.19-2.68c-0.17-0.51-0.59-0.94-1.14-1.58
		c-0.34-0.38-0.25-0.92,0.19-1.19c11.11-6.45,22.84-10.43,35.76-11.36c0.51-0.03,0.92,0.37,0.92,0.88c0,7.57,0,15.01,0,22.68
		c0,0.52-0.41,0.97-0.92,1c-0.49,0.05-0.98,0.08-1.47,0.08c-16.35,0.02-32.69,0.02-49.04,0.01
		C32.31,136.06,32.23,136.06,32.1,133.22z M79.37,220.48c-0.32,1.29-0.64,2.62-0.99,4.03c-0.11,0.49-0.37,0.86-0.57,0.85
		c-0.19-0.03-0.35-0.44-0.35-0.98c0-0.77,0-1.52,0-2.4c0-0.53,0.27-1.25,0.6-1.62c0.13-0.16,0.27-0.32,0.4-0.47
		c0.33-0.38,0.73-0.62,0.87-0.51C79.47,219.5,79.51,219.98,79.37,220.48z M123.93,221.91c-0.79,0.8-2.35,1.37-1.54,2.71
		c0.27,0.42,0.24,0.93-0.16,1.25c-1.36,1.01-1.24,1.33,0.61,2.98c0.37,0.34,0.47,0.58,0.23,0.54c-0.2-0.05-0.34-0.07-0.46-0.07
		c-0.62,0.02-1.38-0.13-1.82,0.16c-0.36,0.28-0.69,1.25-0.49,1.58c0.31,0.49,1.06,0.74,1.66,1.01c0.43,0.2,1.05,0.17,1.31,0.48
		c0.16,0.19-0.23,0.82-0.31,1.26c-0.08,0.61-0.15,1.22-0.15,1.86c0.01,0.49-0.23,1.19-0.67,1.45c-0.62,0.4-1.23,0.87-0.7,2.12
		c0.08,0.19-0.31,0.54-0.41,0.84c-0.26,0.7-0.82,1.77-0.59,2.01c0.42,0.43,1.06,0.6,1.88,0.86c0.48,0.18,0.84,0.59,0.82,0.93
		c-0.03,0.35-0.38,0.42-0.81,0.2c-0.27-0.13-0.52-0.29-0.8-0.35c-0.46-0.16-1.2-0.33-1.44-0.09c-0.45,0.42-0.88,1.14-0.82,1.71
		c0.02,0.43,0.77,0.92,1.31,1.12c0.63,0.26,1.3,0.39,1.96,0.54c0.5,0.1,0.84,0.44,0.74,0.71c-0.08,0.3-0.54,0.38-1.02,0.18
		c-0.69-0.27-1.38-0.54-2.08-0.74c-1.5-0.44-3.01-0.83-4.52-1.23c-0.48-0.12-0.92-0.12-0.97,0.03c-0.05,0.14-0.22-0.04-0.4-0.4
		c-0.19-0.34-0.74-0.65-1.25-0.69c-0.38-0.01-0.76-0.05-1.2-0.08c-0.5-0.04-0.79-0.45-0.64-0.93c0.09-0.29,0.19-0.58,0.23-0.9
		c0.1-0.62,0.24-1.31,0.01-1.83c-0.16-0.38-1.06-0.84-1.32-0.71c-0.55,0.32-0.96,0.96-1.31,1.51c-0.15,0.24-0.25,0.49-0.34,0.75
		c-0.13,0.43-0.52,0.52-0.86,0.21c-0.35-0.32-1.03-0.64-1.53-0.74c-0.39-0.06-0.78-0.12-1.2-0.18c-0.5-0.1-0.74-0.52-0.52-1
		c0.7-1.46,1.34-2.77,1.79-4.16c0.09-0.26-0.16-0.61-0.45-0.97c-0.31-0.39-0.9-0.52-1.33-0.25c-0.38,0.22-0.71,0.46-0.82,0.77
		c-0.45,1.44-0.53,2.99-0.93,4.46c-0.01,0.09-0.31,0.15-0.62,0.17c-0.37,0.02-0.64-0.38-0.56-0.89c0.14-1.07,0.32-1.9,0.1-2.64
		c-0.21-0.69-3.09-1.12-4.73-1c-0.5,0.04-1.02-0.2-1.29-0.63c-0.56-0.87-1.37-1.21-2.69-0.7c-0.47,0.18-0.72,0-0.57-0.48
		c0.18-0.71,0.32-1.24,0.55-1.74c0.67-1.36-0.1-1.95-1.18-2.37c-0.84-0.33-1.76-0.91-2.53-0.77c-0.75,0.13-1.44,0.55-2.12,0.97
		c-0.44,0.27-0.71,0.06-0.59-0.44c0.19-0.73,0.42-1.64,0.64-2.53c0.15-0.63,0.61-1.42,0.37-1.83c-0.27-0.46-1.32-0.88-1.72-0.71
		c-0.52,0.26-0.77,1.13-1.07,1.76c-0.11,0.22-0.2,0.49-0.28,0.72c-0.11,0.42-0.42,0.71-0.66,0.68c-0.24-0.04-0.41-0.49-0.36-1
		c0.03-0.37,0.07-0.73,0.19-1.08c0.5-1.37,0.83-2.83,1.26-4.18c0.35-1.13-0.55-1.51-1.58-1.3c-0.49,0.1-1.03,0.01-1.23-0.36
		c-0.19-0.37-0.21-0.72-0.04-0.78c0.14-0.06,0.24-0.09,0.34-0.08c1.74,0.24,3.59-0.09,5.16,1.23c0.25,0.23,0.86,0.02,1.44-0.2
		c0.46-0.19,1.15-0.01,1.5,0.34c0.18,0.18,0.36,0.38,0.55,0.58c0.36,0.35,0.89,0.33,1.2-0.08c0.4-0.54,0.8-1.09,1.25-1.7
		c0.3-0.4,0.84-0.41,1.33-0.28c1.19,0.38,2.94,0.06,4.21,1.42c0.73,0.79,2.25,1.04,3.45,1.13c0.49,0.04,1.1-0.95,1.57-1.52
		c0.26-0.31,0.49-0.65,0.72-0.97c0.27-0.43,0.63-0.69,0.78-0.57c0.16,0.12,0.08,0.58-0.16,1.02c-0.21,0.38-0.43,0.78-0.65,1.19
		c-0.24,0.43-0.11,1.07,0.29,1.38c0.22,0.17,0.45,0.36,0.74,0.59c0.4,0.31,0.83,0.15,0.97-0.33c0.17-0.57,0.31-1.12,0.43-1.61
		c0.14-0.49,0.46-1.28,0.91-1.52c0.48-0.28,0.89-0.02,1.21,0.53c0.26,0.44,0.72,0.72,1.22,0.54c0.33-0.12,0.69-0.25,1.03-0.37
		c0.47-0.19,1.12,0,1.44,0.4c0.16,0.2,0.34,0.44,0.5,0.65c0.32,0.39,0.83,0.39,1.14,0c0.31-0.41,0.64-0.82,1.01-1.34
		c0.32-0.4,0.87-0.69,1.28-0.64c0.38,0.05,0.42,0.32,0.05,0.58c-0.25,0.21-0.43,0.35-0.58,0.55c-0.26,0.42-0.67,1.18-0.49,1.38
		c0.38,0.46,1.05,0.75,1.65,0.99c0.55,0.23,1.18,0.25,1.75,0.44c0.55,0.18,1.27,0.79,1.53,0.63c0.52-0.34,0.99-1.04,1.09-1.66
		c0.26-1.72,0.48-2.12,1.74-1.64C123.99,220.93,124.29,221.54,123.93,221.91z M219.62,139.41c-2.32,18.92-7.99,36.67-18.2,52.88
		c-8.29,13.2-17.89,25.28-30.33,34.86c-11.8,9.1-24.26,17.12-37.8,23.37c-0.52,0.27-1.08,0.46-1.73,0.73
		c-0.47,0.17-0.86-0.08-0.86-0.59c0-24.92,0-49.54,0-74.3c0-0.5,0.41-1.07,0.91-0.96c1.42,0.28,3.04,1.73,4.04,0.34
		c0.3-0.43,0.78-0.7,1.26-0.54c1.19,0.47,2.3,1,3.21,0.76c0.65-0.17,0.99-1.49,1.52-2.86c0.19-0.48,0.74-1.01,1.22-1.19
		c5.59-2.35,10.75-6.25,15.32-11.03c0.38-0.37,0.94-0.64,1.44-0.81c14.04-5.02,27.79-5.43,41,2.63c1.07,0.63,2.06,1.41,3.43,2.42
		c0.4,0.28,0.71,0.11,0.69-0.4c-0.03-1.12,0.02-2.05-0.36-2.73c-1.01-1.76-2.22-3.43-3.62-4.89c-1.31-1.39-1.38-2.2,0.53-3.09
		c1.93-0.92,3.92-1.66,6.33-2.61c0.48-0.19,0.51-0.57,0.09-0.87c-0.66-0.52-1.16-0.93-1.71-1c-3.38-0.43-6.65-0.33-9.13,2.63
		c-0.67,0.77-1.87,1.86-2.62,1.72c-1.9-0.37-3.71-1.29-5.47-2.14c-0.17-0.09-0.07-1.43,0.29-1.82c1.44-1.62,3.01-3.13,4.62-4.59
		c0.42-0.4,0.95-0.71,1.48-1c0.43-0.25,0.55-0.8,0.15-1.1c-1.78-1.39-5.09-1.54-7.25,0.08c-1.76,1.31-3.44,3.03-4.53,4.93
		c-1.2,2.09-2.41,3.47-5,3.17c-0.71-0.1-1.43,0-2.26,0.08c-0.49,0.03-0.86-0.36-0.76-0.86c0.65-3.42,2.37-5.89,5.5-7.77
		c0.44-0.27,0.44-0.64-0.02-0.89c-0.48-0.29-0.82-0.5-1.17-0.5c-5.37-0.03-9.31,2.95-10.8,8.11c-1.11,3.83-1.39,4.24-5.19,4.78
		c-0.51,0.07-0.74-0.25-0.49-0.7c0.71-1.3,1.48-2.54,1.86-3.9c1.01-3.58,1.79-7.23,2.49-10.88c0.22-1.19,0.54-1.69,1.83-1.69
		c16.05,0.03,32.11,0.03,48.17,0C219.39,137.18,219.82,137.91,219.62,139.41z M32.65,21.07c10.9-4.84,22.25-8.25,33.88-10.8
		c23.6-5.18,47.51-7.39,71.65-6.31c23.85,1.08,47.52,3.63,70.6,10.08c3.73,1.05,7.37,2.44,10.98,3.88c0.7,0.29,1.58,1.36,1.58,2.07
		c0.12,9.34,0.1,18.69,0.12,28.03c0,0.2-0.04,0.36-0.1,0.59c-0.06,0.34-0.52,0.46-0.99,0.28c-3.78-1.35-7.45-2.75-11.17-3.99
		c-14.67-4.94-29.66-8.56-44.99-10.86c-0.51-0.06-1.33-0.2-1.83-0.25c-10.51-1.49-21.03-2.21-31.65-1.91
		c-3.65,0.09-3.65,0.08-3.65,3.65c-0.01,5.44,0.07,10.9-0.07,16.35c-0.04,2.02,0.5,2.64,2.59,2.64c27.75-0.08,55.49-0.04,83.23-0.04
		c2.31,0,4.63,0,7.08,0c0.51,0,0.92,0.41,0.92,0.92c0,0.16,0,0.33,0,0.5c0,0.52-0.41,0.92-0.92,0.92c-1.23,0-2.4,0-3.58,0
		c-28.88,0-57.75,0-86.62,0c-3.02,0-3.03,0-3.03,3.09c-0.02,6.6-0.03,13.16,0.01,19.74c0,0.42,0.14,0.83,0.29,1.24
		c0.17,0.5,0.66,0.67,1.1,0.41c0.3-0.19,0.62-0.36,0.95-0.5c0.46-0.22,0.98-0.44,1.48-0.44c1.76,0,2.44-0.67,2.01-2.1
		c-0.14-0.47-0.13-1.04,0.12-1.25c0.15-0.15,0.32-0.28,0.47-0.41c0.09-0.06,0.18-0.12,0.26-0.17c0.14-0.09,0.5,0.18,0.82,0.58
		c1.09,1.23,2.12,1.37,2.54,0.18c0.45-1.23,0.57-2.56,1.25-3.77c0.05-0.08-0.27-0.38-0.65-0.71c-0.37-0.33-0.98-0.3-1.31,0.08
		c-0.3,0.32-0.59,0.64-0.8,0.99c-0.18,0.3-0.27,0.66-0.37,1.01c-0.11,0.5-0.41,0.84-0.66,0.79c-0.24-0.06-0.39-0.52-0.31-0.96
		c0.05-0.29,0.11-0.57,0.19-0.84c0.15-0.56,0.69-1.39,0.51-1.58c-0.49-0.57-1.29-0.83-1.96-1.21c-0.25-0.15-0.49-0.31-0.76-0.46
		c-0.4-0.23-0.39-0.68-0.04-1.03c0.86-0.81,1.06-1.63,0.56-2.52c-0.25-0.45-0.94-0.58-1.42-0.42c-0.01,0.01-0.02,0.01-0.03,0.01
		c-0.48,0.17-0.9-0.1-0.92-0.6c-0.07-1.36-0.15-2.72-0.15-4.1c0-0.31,0.44-0.78,0.76-0.9c0.29-0.09,0.88,0.05,1.08,0.29
		c0.19,0.26,0.36,0.53,0.51,0.83c0.23,0.45,0.7,0.53,1.06,0.17c0.47-0.48,0.95-0.95,1.41-1.44c0.17-0.18,0.36-0.35,0.54-0.54
		c0.28-0.32,0.63-0.45,0.75-0.35c0.11,0.11,0.04,0.44-0.18,0.74c-0.13,0.17-0.26,0.37-0.33,0.57c-0.14,0.55-0.34,1.35-0.09,1.68
		c0.31,0.39,1.23,0.69,1.64,0.51c0.51-0.25,0.83-0.99,1.11-1.58c0.18-0.42,0.3-0.87,0.44-1.45c0.11-0.51,0.48-0.57,0.8-0.19
		c0.9,1.11,1.67,1.82,2.62,1.08c0.39-0.3,0.84-0.3,1.06,0.15c0.45,0.88,0.93,1.66,2.33,1c0.14-0.06,0.47,0.16,0.65,0.33
		c0.79,0.77,1.74,1.28,2.53,0.26c0.3-0.37,0.29-1,0.32-1.73c0.01-0.51,0.33-0.92,0.68-0.92c0.34,0,0.56,0.38,0.5,0.88
		c-0.03,0.3-0.06,0.58-0.08,0.86c-0.05,0.64-0.23,1.36-0.01,1.91c0.12,0.3,1.14,0.63,1.39,0.46c0.47-0.36,0.78-1.07,1.04-1.67
		c0.2-0.46,0.36-0.94,0.49-1.38c0.14-0.47,0.58-0.59,0.97-0.24c0.31,0.29,0.59,0.54,0.87,0.8c0.38,0.34,0.96,0.33,1.28-0.06
		c0.36-0.41,0.75-0.85,1.2-1.38c0.33-0.38,1.02-0.63,1.51-0.54c1.49,0.26,3.28,0.56,5.3,0.92c0.5,0.09,0.74,0.53,0.55,1.01
		c-0.17,0.38-0.32,0.87-0.33,1.32c-0.03,0.48,0.15,0.96,0.34,1.45c0.18,0.48,0.71,0.74,1.2,0.64c0.38-0.12,0.72-0.23,0.8-0.44
		c0.5-1.32,0.82-2.68,1.2-4.18c0.13-0.48,0.63-0.76,1.14-0.72c1.47,0.1,3.11-0.35,4.62,0.85c0.35,0.28,1.2-0.05,2.22-0.34
		c0.48-0.14,0.74,0.16,0.55,0.62c-0.29,0.79-0.58,1.52-0.87,2.28c-0.08,0.19-0.29,0.49-0.24,0.55c0.56,0.62,1.06,1.35,1.76,1.74
		c0.78,0.46,1.74,0.84,2.61,0.81c1.14,0,2-0.62,1.62-2.07c-0.07-0.29,0.28-0.68,0.36-1.03c0.18-0.68,0.59-1.44,0.4-2
		c-0.36-0.97-1.21-1.32-2.22-0.66c-0.03,0.03-0.15-0.03-0.26-0.11c-0.13-0.09-0.22-0.28-0.2-0.48c0.01-0.17,0.42-0.27,0.94-0.25
		c1.25,0.02,2.55-0.02,3.47,0.55c0.87,0.59,1.5,0.77,2.05,0.6c0.47-0.16,1.05-0.3,1.45,0.01c0.54,0.48,1.07,0.93,1.51,0.88
		c0.57-0.09,1.08-0.7,1.74-1.41c0.35-0.38,0.96-0.57,1.31-0.47c0.37,0.13,1.08,0.17,1.61,0.18c1.96,0.06,3.84,0.47,5.6,1.57
		c0.38,0.24,1.4-0.43,2.02-0.84c0.15-0.11,0.27-0.29,0.35-0.5c0.11-0.31,0.28-0.15,0.36,0.35c0.07,0.47,0.15,0.9,0.21,1.34
		c0.07,0.5,0.52,1.03,1.02,1c1.33-0.04,1.56-1.12,1.56-2.48c0-0.53,0.38-0.78,0.85-0.6c0.36,0.16,0.67,0.28,0.95,0.41
		c0.37,0.19,0.85,0.72,1.03,0.62c1.36-0.76,2.15,0.17,3.18,0.73c0.36,0.21,1.33-0.62,1.95-1.07c0.19-0.1,0.32-0.29,0.46-0.46
		c0.22-0.28,0.28-0.08,0.09,0.39c-0.58,1.46-0.05,1.76,2.14,2.24c1.1,0.24,2.05,1.5,3.21,0.83c0.43-0.25,0.81-0.22,0.96,0.28
		c0.03,0.08,0.04,0.12,0.07,0.19c0.14,0.49-0.02,1.18-0.35,1.54c-1.05,1.16-0.95,1.47,0.63,2.72c0.41,0.32,0.34,0.67-0.16,0.78
		c-0.59,0.16-1.23,0.31-1.81,0.58c-0.16,0.04-0.15,1.25,0.12,1.43c0.48,0.34,1.1,0.49,1.95,0.76c0.49,0.13,1.1,0.68,0.83,1.12
		c-0.53,0.88-1.97,1.95-0.53,3.03c0.4,0.32,0.38,0.46-0.11,0.61c-1.98,0.54-1.11,2.57-1.68,3.9c-0.21,0.48-0.16,0.71,0.35,0.71
		c0.24,0,0.45,0,0.68,0c0.51,0,0.92-0.36,0.92-0.83c0-0.46,0.16-0.84,0.34-0.86c0.19-0.03,0.37,0.36,0.39,0.89
		c0.05,0.7,0.1,1.41,0.14,2.18c0.03,0.51-0.34,0.96-0.87,1.01c-0.52,0.08-1,0.12-1.48,0.12c-17.11-0.02-34.24-0.03-51.36-0.12
		c-1.88,0-2.62,0.38-2.53,2.43c0.21,5.53,0.3,11.06,0.25,16.55c-0.01,2.24,0.83,2.7,2.87,2.68c16.49-0.1,32.98-0.1,49.46-0.12
		c0.58,0,1.14,0,1.76,0c0.52,0,0.99,0.4,1.07,0.91c0.04,0.19,0.06,0.38,0.1,0.61c0.08,0.49-0.27,0.92-0.78,0.96
		c-0.66,0.05-1.27,0.08-1.88,0.08c-16.47,0-32.96,0-49.45,0c-3.11,0-3.1,0-3.06,3.16c0.06,6.59,0.09,13.16,0.15,19.76
		c0.01,2.33,0.17,2.39,2.25,1.39c0.31-0.13,0.81,0.14,1.14,0.03c0.45-0.17,0.87-0.38,1.33-0.58c0.44-0.24,0.58-0.76,0.29-1.17
		c-0.26-0.36-0.53-0.73-0.84-1.05c-0.19-0.2-0.42-0.34-0.66-0.53c-0.36-0.28-0.18-0.44,0.31-0.28c1.88,0.68,1.95,0.35,2.64-2.39
		c0.04-0.23,0.41-0.39,0.47-0.66c0.13-0.66,0.48-1.55,0.18-1.95c-0.28-0.35-0.82-0.49-1.53-0.7c-0.5-0.15-0.91-0.56-0.9-0.87
		c0-0.19,0.01-0.39,0.05-0.6c0.13-0.75,0.82-1.82,0.57-2.13c-0.4-0.42-1.04-0.63-1.76-0.88c-0.47-0.17-0.81-0.74-0.76-1.23
		c0.08-0.74,0.17-1.62,0.3-2.65c0.04-0.49,0.46-0.81,0.94-0.7c0.27,0.08,0.55,0.16,0.83,0.22c0.56,0.12,1.29,0.46,1.64,0.24
		c0.47-0.33,0.95-1.07,0.94-1.63c-0.03-1.4,0.39-1.56,1.22-1.31c0.49,0.16,0.57,0.63,0.23,1.02c-0.81,0.91-1.25,1.82-0.59,2.78
		c0.28,0.44,0.6,0.66,0.58,0.64c-0.01-0.02,0.36-0.07,0.86-0.24c0.8-0.28,1.3-0.82,1.07-2.11c-0.05-0.34,0.22-0.73,0.57-1.2
		c0.29-0.39,0.71-0.39,0.94,0.07c0.04,0.09,0.08,0.16,0.12,0.23c0.24,0.45,0.83,0.93,1.32,0.95c0.95,0.04,1.3-0.38,1.58-1.79
		c0.08-0.51,0.54-0.8,1.04-0.76c1.46,0.12,3.03-0.16,4.22,0.95c0.38,0.34,0.58,0.68,0.55,0.66c-0.03-0.02,0.36-0.02,0.89,0.01
		c0.29,0.01,0.6,0.02,0.94,0.04c0.52,0.03,0.67,0.36,0.33,0.74c-0.24,0.28-0.42,0.52-0.52,0.78c-0.19,0.52-0.32,1.21-0.12,1.65
		c0.18,0.38,0.94,0.81,1.31,0.71c0.55-0.13,1.24-0.63,1.4-1.11c0.38-1.18,0.62-2.41,0.89-3.66c0.1-0.51,0.6-0.86,1.1-0.78
		c2.1,0.31,4.08,0.58,6.04,0.87c0.5,0.06,0.92,0,0.94-0.17c0.01-0.16,0.17,0.08,0.4,0.55c0.06,0.12,0.12,0.28,0.19,0.41
		c0.21,0.46,0.48,0.89,0.56,0.99c0.1,0.09,0.59,0.09,1.09,0.02c0.13-0.01,0.27-0.03,0.41-0.04c0.5-0.08,0.77,0.18,0.58,0.58
		c-0.12,0.26-0.21,0.5-0.28,0.74c-0.15,0.68-0.45,1.48-0.21,1.98c0.17,0.39,1.33,0.71,1.7,0.49c0.46-0.28,0.62-1.14,0.85-1.76
		c0.15-0.41,0.18-0.84,0.3-1.26c0.13-0.36,0.25-0.74,0.37-1.12c0.17-0.48-0.09-0.98-0.58-1.14c-0.4-0.14-0.8-0.25-1.19-0.37
		c-0.12-0.04-0.23-0.04-0.34-0.04c-0.17-0.04-0.33-0.16-0.33-0.33c-0.02-0.14,0.39-0.27,0.91-0.24c0.9,0.04,1.79,0.08,2.68,0.21
		c0.89,0.12,1.77,0.36,2.69,0.47c0.5,0.07,1.21,0.36,1.6,0.71c1.31,1.17,1.68,1.1,2.84-0.5c0.31-0.4,0.94-0.64,1.46-0.64
		c1.31,0,2.75-0.45,3.94,0.24c0.46,0.25,0.69,0.73,0.63,0.96c-0.06,0.18-0.49,0.24-0.98,0.08c-0.78-0.24-1.57-0.49-2.32-0.81
		c-1.43-0.66-1.95,0.14-2.29,1.27c-0.15,0.49-0.1,1.01-0.18,1.52c-0.13,0.81-0.62,1.81-0.31,2.35c0.22,0.39,0.94,0.49,1.81,0.68
		c0.5,0.1,0.77,0.53,0.62,0.94c-0.08,0.23-0.18,0.47-0.24,0.74c-0.15,0.6-0.46,1.34-0.24,1.8c0.2,0.39,1.26,0.83,1.53,0.66
		c0.5-0.34,0.74-1.12,1.03-1.74c0.21-0.43,0.22-0.99,0.49-1.37c0.95-1.5,0.59-2.39-1.17-2.61c-0.34-0.04-0.83,0.09-0.98-0.08
		c-0.15-0.18-0.23-0.39-0.31-0.61c-0.11-0.36,0.07-0.65,0.4-0.65c0.23,0,0.42,0.02,0.6,0.08c0.65,0.25,1.29,0.57,2.11,0.97
		c0.46,0.22,0.71,0.79,0.57,1.29c-0.36,1.12-0.79,2.46-1.07,3.85c-0.08,0.4,0.03,0.87,0.16,1.29c0.16,0.48,0,1.19-0.34,1.55
		c-0.47,0.47-0.92,0.94-0.86,1.3c0.1,0.55,0.7,0.98,1.33,1.49c0.39,0.33,0.68,1.03,0.65,1.53c-0.1,1.83-0.23,3.86-0.36,6.08
		c-0.04,0.5-0.46,0.9-0.98,0.9c-0.82,0-1.68,0-2.53,0c-16.06,0.05-32.12,0.13-48.19,0.12c-1.75,0-2.41,0.57-2.45,2.29
		c-0.36,16.18-13.24,29.3-27.43,33.6c-2.34,0.74-4.78,1.42-7.21,1.6c-2.31,0.2-2.75,1.19-2.75,3.24
		c0.07,12.19,0.04,24.35,0.05,36.52c0,12.67,0.01,25.35,0,38c0,0.35-0.03,0.71-0.06,1.09c-0.04,0.5-0.52,0.88-0.94,0.6
		c-0.87-0.55-0.69-1.58-0.7-2.45c-0.07-7.37-0.11-14.71-0.16-22.08c-0.03-2.84,0-5.65-0.08-8.49c-0.09-2.91-0.49-3.27-3.42-3.27
		c-13.23,0-26.47,0-39.7,0c-4.81,0-9.63,0.08-14.43-0.08c-0.78-0.02-1.54-0.44-2.32-0.88c-0.44-0.23-0.77-0.6-0.71-0.86
		c0.05-0.27,0.53-0.46,1.03-0.46c0.63,0,1.26,0,1.89,0c18.19,0,36.38,0,54.55,0c3.02,0,3.05-0.06,3.07-3.13
		c0-6.35,0.01-12.72,0.01-19.1c-0.01-2.67-0.06-2.73-2.76-2.71c-24.2,0.11-48.39,0.25-72.6,0.38c-2.61,0.02-3.11-0.21-3.57-2.66
		c-0.09-0.5,0.25-0.81,0.75-0.71c0.46,0.09,0.88,0.17,1.32,0.25c0.62,0.11,1.34,0.43,1.84,0.22c0.4-0.17,0.91-1.22,0.73-1.44
		c-0.39-0.59-1.08-1.06-1.76-1.31c-1.24-0.41-2.5-0.74-3.57-1.03c-0.49-0.12-0.8-0.62-0.72-1.13c0.18-0.88,0.31-1.63,0.45-2.35
		c0.09-0.5,0.12-0.89,0.04-0.88c-0.1,0.01,0.05-0.33,0.31-0.77c0.12-0.22,0.23-0.39,0.35-0.6c0.25-0.45,0.09-0.99-0.37-1.22
		c-0.45-0.24-0.91-0.47-1.38-0.65c-1.21-0.46-2.6-0.64-3.62-1.35c-0.98-0.7-0.53-1.12-0.02-1.53c0.39-0.35,0.67-1.09,0.53-1.58
		c-0.32-1.24-1.31-1.5-2.84-1.15c-0.5,0.11-0.7-0.11-0.47-0.58c0.02-0.06,0.05-0.12,0.08-0.18c0.23-0.46,0.8-0.69,1.29-0.5
		c0.79,0.32,1.48,0.6,2.08,0.5c0.33-0.07,0.55-0.73,0.79-1.46c0.17-0.45,0.74-0.81,1.24-0.76c0.74,0.09,1.57,0.18,2.5,0.3
		c0.52,0.04,1.18,0.4,1.53,0.78c0.9,0.95,1.3,0.81,2.47-0.63c0.34-0.39,0.53-0.31,0.56,0.2c0.05,1.56,0.71,2.04,2.46,1.59
		c0.49-0.11,0.75,0.13,0.6,0.62c-0.17,0.51-0.31,0.95-0.4,1.39c-0.13,0.61-0.36,1.31-0.19,1.85c0.12,0.36,1.02,0.8,1.34,0.64
		c0.5-0.23,0.86-0.83,1.13-1.37c0.36-0.75,0.62-1.55,0.87-2.35c0.11-0.37,0.26-0.97,0.09-1.13c-0.5-0.42-1.13-0.68-1.71-0.96
		c-0.25-0.13-0.5-0.22-0.74-0.3c-0.41-0.15-0.68-0.45-0.59-0.66c0.09-0.23,0.56-0.33,1.06-0.27c1.26,0.16,2.6,0.2,3.38,0.88
		c1.59,1.39,2.41,1.02,3.03,0.1c0.29-0.41,0.61-0.41,0.76,0.05c0.21,0.58,0.43,1.17,0.84,1.56c0.17,0.17,0.53,0.09,0.92,0
		c0.48-0.13,1.25-0.07,1.71,0.18c0.92,0.46,1.76,0.91,2.6,1.36c0.46,0.23,0.77,0.59,0.7,0.78c-0.06,0.22-0.45,0.38-0.87,0.39
		c-0.31,0-0.57-0.01-0.72-0.16c-0.76-0.76-1.47-1.2-2.31-0.29c-0.29,0.33-0.46,1.32-0.32,1.41c0.45,0.27,0.97,0.46,1.5,0.59
		c0.49,0.12,1.27,0.34,1.7,0.59c0.51,0.32,0.99,0.61,1.46,0.54c1.06-0.15,1.3-1.09,0.82-2.16c-0.08-0.18,0.56-0.65,0.77-1.05
		c0.25-0.48,0.67-1.14,0.5-1.48c-0.21-0.47-0.88-0.76-1.4-1.04c-0.26-0.13-0.51-0.24-0.75-0.33c-0.44-0.14-0.68-0.5-0.53-0.8
		c0.15-0.3,0.65-0.39,1.11-0.18c1.66,0.74,3.07,1.56,4.55,1.69c1.29,0.11,1.69-0.77,1.45-1.74c-0.13-0.48,0.04-0.84,0.55-0.84
		c1.31,0,2.59-0.03,3.87,0.06c0.14,0.02,0.31,1.11,0.26,1.69c-0.06,0.69-0.71,1.62-0.48,1.97c0.38,0.48,1.37,0.54,2.05,0.83
		c0.31,0.13,0.81,0.36,0.81,0.55c0.02,0.32-0.07,0.62-0.18,1.04c-0.14,0.51-0.47,0.59-0.75,0.2c-0.23-0.33-0.38-0.53-0.56-0.61
		c-0.6-0.23-1.37-0.49-1.88-0.29c-0.35,0.15-0.7,1.21-0.51,1.56c0.26,0.49,1.03,0.71,1.62,0.99c0.55,0.29,1.2,0.41,1.72,0.72
		c1.06,0.66,2.29,0.17,2.1-0.67c-0.29-1.33,0.36-1.96,1.02-2.59c0.36-0.36,0.34-0.92-0.04-1.25c-0.42-0.37-0.84-0.72-1.28-1.05
		c-0.18-0.14-0.4-0.23-0.63-0.3c-0.34-0.12-0.5-0.56-0.31-0.98c0.16-0.42,0.4-0.33,0.75,0.01c1.01,1.03,2.92,0.32,3.82,1.27
		c0.36,0.36,0.81,0.68,1.28,0.47c1.02-0.45,1.67-1.09,0.8-2.47c-0.27-0.45-0.12-0.75,0.38-0.8c0.63-0.05,1.14-0.12,1.38,0.1
		c1.33,1.3,2.3,1.06,3.36,0.13c0.38-0.33,0.52-0.24,0.32,0.22c-0.43,1.03-0.89,2.05-1.08,3.13c-0.04,0.29,0.33,0.68,0.72,1.06
		c0.38,0.36,0.97,0.39,1.36,0.05c0.37-0.32,0.75-0.67,1-1.07c0.15-0.23,0.2-0.5,0.24-0.76c0.05-0.42,0.46-0.62,0.91-0.41
		c1.73,0.82,3.22,1.76,4.78,1.86c0.91,0.05,1.48,0.34,1.99,0.72c0.4,0.31,1.11,0.62,1.62,0.65c0.41,0.03,0.83,0.04,1.24,0.08
		c0.52,0.04,0.97,0.17,1.03,0.3c0.06,0.13-0.15,0.37-0.45,0.57c-0.2,0.15-0.37,0.29-0.48,0.46c-0.27,0.43-0.57,1.42-0.47,1.47
		c1.42,0.82,2.87,1.72,4.42,2.08c0.38,0.09,1-0.83,1.74-1.77c0.31-0.39,0.99-0.6,1.48-0.45c0.99,0.29,2.27,0.65,3.55,1
		c0.41,0.12,0.81,0.25,1.21,0.36c0.31,0.06,0.61,0.15,0.9,0.21c0.49,0.13,0.69,0.54,0.46,0.93c-0.15,0.24-0.28,0.5-0.35,0.77
		c-0.12,0.64-0.19,1.81,0.04,1.9c2.11,0.85,1.7,2.83,2.15,4.41c0.05,0.14,0.11,0.32,0.17,0.48c0.08,0.24,0.56,0.59,1.06,0.51
		c0.72-0.1,0.98-0.69,0.97-1.6c-0.01-2.85,0.02-5.67,0.06-8.51c0.02-1.29-0.51-1.88-1.85-2.02c-8.66-0.78-16.16-4.29-22.9-9.67
		c-0.79-0.63-2.05-0.91-3.09-0.89c-19.47,0.04-38.92,0.12-58.38,0.27c-1.65,0.01-2.7-0.35-2.85-2.17c-0.04-0.51,0.39-0.93,0.9-0.93
		c19.41,0,38.81,0,58.21,0c0.5,0,0.96-0.16,1.02-0.32c0.06-0.18-0.21-0.62-0.57-0.97c-4.08-4.06-5.74-9.26-6.74-14.73
		c-0.46-2.5-0.61-5.06-0.64-7.6c-0.15-16.9-0.21-33.82-0.33-50.73c-0.02-3.45,0.04-3.48,3.38-3.48c10.19,0,20.39-0.04,30.59,0.03
		c1.95,0.02,2.52-0.59,2.5-2.54c-0.2-15.01-0.31-30-0.38-45.01c0-1.89-0.58-2.64-2.59-2.57c-28.62,0.96-56.51,5.48-83.12,16.56
		c-2.54,1.04-5.02,2.2-7.69,3.39c-0.45,0.2-0.88-0.01-0.94-0.5c-0.02-0.28-0.04-0.56-0.04-0.84c0-8.57,0.03-17.14-0.05-25.69
		C30.26,22.91,30.88,21.86,32.65,21.07z"/>
	<path class="st0" d="M182.82,114.36c0.49,0.14,1.29,0.35,1.76,0.56c0.6,0.23,1.19,0.5,1.58,0.33c0.92-0.39,0.98-1.1,0.68-1.85
		c-0.19-0.46-0.42-0.79-0.39-0.77c0.02,0.03-0.38,0.02-0.87,0.1c-0.89,0.12-1.79,0.31-2.37-0.86c-0.07-0.14-1.1-0.06-1.3,0.18
		c-0.35,0.49-0.67,1.62-0.51,1.71C181.82,114.04,182.32,114.21,182.82,114.36z"/>
	<path class="st0" d="M199.74,113.77c-0.01,0-0.01,0-0.02,0c-0.5,0.15-0.97,0.22-1.06,0.15c-0.06-0.02-0.11-0.06-0.18-0.09
		c-0.74-0.33-1.46-0.7-2.22-0.88c-0.08-0.02-0.23,0.28-0.4,0.61c-0.17,0.38,0.06,0.89,0.49,1.11c0.45,0.24,0.9,0.47,1.37,0.7
		c0.32,0.16,0.7,0.21,1.04,0.34c0.34,0.11,0.68,0.25,1.03,0.38c0.47,0.18,0.9-0.08,0.95-0.57c0.03-0.3,0.07-0.55,0.08-0.8
		c0.07-0.52,0.05-1-0.05-1.08C200.7,113.56,200.23,113.62,199.74,113.77z"/>
	<path class="st0" d="M90.7,87c-0.01,16.61-0.06,33.23,0,49.83c0.03,5.53,1.32,10.82,4.13,15.62c5.54,9.52,14.19,14.75,24.58,17.37
		c3.1,0.81,6.51,1.6,9.58,1.1c9.16-1.48,17.38-5.4,24.4-11.56c6.41-5.62,9.98-12.53,9.89-21.35c-0.18-17.25-0.07-34.52-0.01-51.77
		c0.01-1.85-0.49-2.44-2.37-2.42c-11.17,0.08-22.33,0.04-33.52,0.04c-11.17-0.03-22.35-0.03-33.5-0.02
		C90.98,83.85,90.7,84.11,90.7,87z M126.83,86.26c10.33,0,20.65,0.06,30.98-0.04c2.1-0.02,2.83,0.5,2.81,2.72
		c-0.07,16.62,0.03,33.24-0.07,49.88c-0.04,7.75-4.04,13.7-9.55,18.7c-6.33,5.74-13.81,9.3-22.18,10.9
		c-1.4,0.27-2.97,0.01-4.39-0.27c-8.45-1.66-16.41-4.35-22.55-10.82c-5.67-5.99-8.48-13.33-8.63-21.34
		c-0.29-15.78-0.01-31.56-0.03-47.34c-0.01-1.85,0.54-2.43,2.43-2.41C106.02,86.32,116.42,86.28,126.83,86.26z"/>
	<path class="st0" d="M196.22,35.19c3.03,0.96,6.13,1.68,9.17,2.58c3.68,1.1,7.32,2.28,10.98,3.46c0.49,0.16,0.95-0.13,1-0.64
		c0.45-3.31,0.21-3.45-3.18-4.62c-3.94-1.36-7.93-2.59-11.91-3.8c-2.36-0.73-2.79-1.13-2.03-3.59c0.14-0.47,0.68-0.75,1.17-0.6
		c5.01,1.54,10.03,3.09,15.04,4.61c0.49,0.16,0.94-0.12,0.99-0.65c0.3-2.83,0.06-2.99-3-4.02c-4.45-1.49-8.97-2.81-13.49-4.19
		c-0.49-0.16-0.89-0.7-0.89-1.2c0-0.43,0-0.89,0-1.39c0-0.53,0.39-0.81,0.89-0.67c5.22,1.47,10.27,2.87,15.3,4.3
		c0.49,0.14,0.97-0.15,1.09-0.65c0.64-2.99,0.35-3.2-2.85-4.22c-3.42-1.1-6.88-2.1-10.35-3.05c-2.76-0.75-5.54-1.39-8.25-2.04
		c-0.49-0.13-0.97-0.08-1.07,0.08c-0.1,0.16-0.14,0.25-0.14,0.32c-0.03,6.16-0.07,12.33,0.01,18.46
		C194.68,34.22,195.59,35,196.22,35.19z"/>
	<path class="st0" d="M33.95,43.04c0,0.5,0.41,0.85,0.92,0.76c3.93-0.7,4.4-1.39,4.43-5.24c0-1.5,0.7-2.17,1.93-2.63
		c4.71-1.71,9.38-3.45,14.13-5.11c2.07-0.71,3.16-1.94,3.11-4.18c-0.05-2.13-0.1-4.24-0.04-6.35c0.07-2.07-1.14-3-2.9-3.24
		c-1.08-0.14-2.3-0.03-3.32,0.31c-5.68,1.89-11.34,3.88-16.96,5.97c-0.58,0.22-1.2,1.3-1.21,2c-0.12,4.4-0.06,8.77-0.07,13.15
		C33.95,39.98,33.95,41.49,33.95,43.04z M39.4,27.1c0-0.51,0.4-1.07,0.87-1.22c3.8-1.26,7.67-2.59,11.6-3.78
		c0.64-0.19,2.18,0.41,2.18,0.68c0.03,1.15-0.02,3.1-0.65,3.35c-4.23,1.76-8.61,3.22-13.14,4.81c-0.47,0.17-0.87-0.1-0.87-0.61
		C39.4,29.23,39.4,28.22,39.4,27.1z"/>
	<path class="st0" d="M120.32,18.96c4.03-0.03,8.05,0.12,12.08,0.12c1.35,0,2.26,0.47,2.24,1.88c-0.06,1.43-1.25,1.27-2.24,1.26
		c-3.38,0-6.78-0.05-10.18,0c-1.42,0.01-2.83,0.12-4.22,0.24c-0.52,0.03-0.92,0.46-0.92,0.97c0,0.72,0,1.37,0,2
		c0,0.5,0.41,0.92,0.92,0.92c5.27,0,10.41-0.11,15.53,0.04c5.42,0.17,5.58-1.96,5.79-6.17c0.04-0.7-0.21-1.41-0.29-2.1
		c-0.23-1.85-1.15-3-3.12-3.05c-4.17-0.13-8.32-0.26-12.48-0.36c-1.08-0.01-2.44,0.54-2.65-1.17c-0.23-1.84,1.13-2.03,2.47-2.08
		c2.62-0.1,5.24-0.23,7.84-0.27c1.96-0.04,3.92-0.03,6.03-0.01c0.5,0,0.94-0.27,0.95-0.57c0.03-0.2,0.04-0.38,0.06-0.57
		c0.34-2.13-0.41-2.99-2.72-2.94c-4.01,0.09-8.04-0.27-12.06-0.19c-6.48,0.12-7.68,0.15-7.27,8.27
		C116.25,17.99,117.5,18.98,120.32,18.96z"/>
	<path class="st0" d="M61.73,25.69c-0.02,1.69-0.04,3.35,0.01,5.02c0.08,3.05,1.65,4.18,4.56,3.44c4.8-1.19,9.58-2.44,14.39-3.51
		c3.1-0.7,4.28-1.83,4.34-4.96c0.06-3.61,0.05-7.2,0-10.81c-0.04-2.78-1.61-4.27-4.38-3.77c-5.33,0.96-10.64,2.15-15.96,3.23
		c-2.15,0.4-3.12,1.8-3.19,3.88c-0.03,1.88-0.01,3.76,0,5.63c0,0.5,0.06,0.92,0.11,0.92C61.68,24.78,61.73,25.18,61.73,25.69z
		 M68.68,17.89c3.09-0.69,6.19-1.34,9.31-1.87c1.54-0.27,2.42,0.49,2.38,2.14c-0.04,1.13-0.01,2.28-0.01,3.39
		c-0.05,5.4,0.81,4.45-4.6,5.88c-2.25,0.58-4.5,1.11-6.73,1.75c-1.7,0.51-2.58,0.08-2.57-1.8c0.01-2.2-0.03-4.38-0.01-6.56
		C66.46,19.3,67.19,18.21,68.68,17.89z"/>
	<path class="st0" d="M89.91,28.82c3.38,0.35,3.8-0.28,3.89-3.77c0-0.13,0.01-0.29,0-0.43c-0.17-1.43,0.48-2.01,1.93-2.1
		c2.23-0.14,4.49-0.41,6.74-0.66c3.88-0.43,4.4-0.08,5.65,3.61c0.2,0.58,0.84,1.36,1.35,1.43c0.93,0.12,1.88-0.03,3.1-0.13
		c0.51-0.05,0.77-0.46,0.59-0.96c-0.79-1.98-1.51-3.82-2.28-5.76c-0.18-0.48-0.12-1.21,0.11-1.67c0.89-1.86,1.08-3.21,0.89-6.36
		c-0.17-2.99-1.21-4.24-4.2-4.09c-5.77,0.33-11.55,0.87-17.3,1.44c-0.51,0.04-1.33,0.91-1.34,1.42C88.96,16.46,89,22.15,89,27.8
		C89,28.31,89.41,28.79,89.91,28.82z M94.06,13.93c0.05-0.42,0.69-1.06,1.13-1.11c3.15-0.37,6.3-0.62,9.45-0.91
		c1.49-0.13,2.19,0.54,2.28,2.04c0.1,1.54-0.03,3.05-1.82,3.27c-3.31,0.45-6.65,0.67-10.18,1c-0.49,0.03-0.91-0.33-0.93-0.85
		C93.98,16.16,93.94,15.04,94.06,13.93z"/>
	<path class="st0" d="M169.37,29.44c0.89,0.16,1.75,0.33,2.68,0.5c0.52,0.1,0.91-0.26,0.91-0.77c0-2.16,0-4.25,0-6.68
		c0-0.49,0.42-0.81,0.91-0.72c3.88,0.88,7.49,1.67,11.09,2.57c0.35,0.09,0.7,0.96,0.73,1.5c0.1,1.84-0.01,3.68,0.12,5.52
		c0.03,0.54,0.55,1.29,1.04,1.47c0.78,0.32,1.63,0.44,2.58,0.63c0.51,0.1,0.91-0.23,0.91-0.74c0-6.18,0.01-12.17-0.05-18.17
		c0-0.37-0.53-1-0.93-1.12c-0.84-0.24-1.71-0.35-2.73-0.51c-0.49-0.1-0.9,0.27-0.9,0.77c0,1.88,0,3.64,0,5.48
		c0,0.49-0.4,0.83-0.91,0.73c-3.8-0.79-7.32-1.47-10.82-2.3c-0.43-0.09-0.93-0.96-0.98-1.51c-0.14-1.47,0.04-2.97-0.08-4.45
		c-0.03-0.48-0.45-1.26-0.85-1.37c-0.85-0.25-1.75-0.33-2.71-0.43c-0.51-0.05-0.92,0.3-0.92,0.81c0,5.96,0,11.77,0,17.66
		C168.47,28.85,168.88,29.33,169.37,29.44z"/>
	<path class="st0" d="M145.69,26.81c2.69,0.16,5.37,0.44,8.03,0.74c3.48,0.36,6.93,0.77,10.4,1.16c0.51,0.03,1-0.3,1.1-0.8
		c0.54-2.75,0.16-3.01-2.83-3.42c-4.27-0.57-8.54-0.97-12.83-1.55c-0.59-0.08-1.56-0.74-1.58-1.14c-0.13-2.85-0.09-5.66-0.08-8.94
		c0-0.5,0.41-0.89,0.91-0.84c5.24,0.42,10.3,0.81,15.42,1.22c0.51,0.04,0.91-0.34,0.91-0.85c0-0.72,0-1.47,0-2.34
		c0-0.5-0.4-0.94-0.91-0.99c-6.06-0.48-11.96-1-17.84-1.38c-1.92-0.12-3.21,1.22-3.24,3.17c-0.08,4.46-0.03,8.91-0.06,13.36
		C143.09,25.99,143.96,26.7,145.69,26.81z"/>
	<path class="st0" d="M191.4,66.5c0.35,0.15,0.84-0.02,1.25,0.09c0.41,0.1,0.83,0.25,1.24,0.4c0.48,0.18,0.99-0.05,1.15-0.54
		c0.13-0.38,0.26-0.77,0.42-1.25c0.15-0.46,0.67-0.7,1.13-0.5c0.32,0.14,0.66,0.25,1.01,0.33c0.6,0.14,1.3,0.2,1.89,0.05
		c0.23-0.05,0.5-0.99,0.33-1.21c-0.37-0.48-0.96-0.84-1.54-1.11c-0.34-0.19-0.83-0.04-1.19-0.17c-0.44-0.16-0.85-0.35-1.26-0.54
		c-0.46-0.22-0.98-0.02-1.18,0.46c-0.14,0.35-0.3,0.74-0.49,1.19c-0.2,0.47-0.65,1-1.04,1.18c-0.38,0.19-0.68-0.04-0.69-0.52
		c-0.02-0.42-0.02-0.74,0.13-0.83c1.44-0.97,1.3-1.82,0.54-2.65c-0.34-0.38-1.07-0.5-1.5-0.23c-0.72,0.42-1.16,1.05-0.74,2.26
		c0.08,0.27-0.47,0.71-0.67,1.13c-0.19,0.44-0.58,1.14-0.39,1.38C190.15,65.93,190.8,66.23,191.4,66.5z"/>
	<path class="st0" d="M216.96,72.59c-0.48-0.14-0.96-0.38-1.46-0.52c-0.56-0.17-1.24-0.57-1.66-0.36c-0.28,0.1-0.46,0.36-0.68,0.67
		c-0.27,0.43-0.36,0.87-0.22,0.98c0.15,0.09,0.06,0.46-0.17,0.8c-0.15,0.23-0.29,0.46-0.33,0.68c-0.16,0.63-0.22,1.36-0.07,1.98
		c0.07,0.28,0.94,0.68,1.08,0.57c1.02-0.83,1.42,0.15,2.1,0.54c0.46,0.25,1.59,0.28,1.67,0.07c0.62-1.39,1.12-2.88,1.47-4.37
		c0.06-0.25-0.7-0.74-1.14-1.06C217.45,72.46,217.16,72.64,216.96,72.59z"/>
	<path class="st0" d="M141.7,68.89c0.36,0.16,1.3-0.18,1.42-0.5c0.42-1.04,0.68-2.13,1.04-3.5c0.14-0.48-0.13-1.04-0.6-1.27
		c-0.97-0.43-2.05-0.93-3.17-1.31c-0.38-0.13-0.97,0.25-1.42,0.5c-0.2,0.1-0.39,0.55-0.32,0.74c0.5,1.1-0.01,1.79-0.84,2.42
		c-0.18,0.12-0.31,0.7-0.27,0.71C138.91,67.46,140.27,68.26,141.7,68.89z"/>
	<path class="st0" d="M69.75,183.16c-0.38-0.18-0.75-0.37-1.13-0.56c-0.36-0.19-0.86-0.38-0.96-0.67c-0.1-0.33,0.21-0.76,0.32-1.16
		c0.2-0.67,0.56-1.37,0.47-2c-0.04-0.27-1.33-0.74-1.52-0.56c-0.5,0.49-0.74,1.26-1.03,1.93c-0.13,0.33-0.16,0.72-0.28,1.08
		c-0.11,0.38-0.25,0.81-0.37,1.21c-0.16,0.48,0.11,0.98,0.61,1.14c0.28,0.1,0.59,0.2,0.93,0.29c0.48,0.17,0.96,0.7,1.03,1.2
		c0.04,0.19,0.08,0.4,0.12,0.66c0.09,0.51,0.47,0.63,0.86,0.3c0.28-0.22,0.5-0.4,0.68-0.64c0.24-0.31,0.44-0.66,0.64-1.01
		C70.39,183.92,70.23,183.36,69.75,183.16z"/>
	<path class="st0" d="M151.5,77.16c0.19-0.42,0.15-0.95,0.3-1.4c0.16-0.61,0.76-1.48,0.56-1.72c-0.41-0.47-1.21-0.6-1.87-0.83
		c-0.38-0.12-0.78-0.22-1.17-0.31c-0.55-0.1-1.09-0.19-1.64-0.3c-0.51-0.09-0.82,0.24-0.73,0.75c0.04,0.16,0.08,0.36,0.13,0.55
		c0.09,0.48,0.19,0.9,0.22,0.9c0.04,0,0.46,0.06,0.97,0.08c0.08,0,0.16,0,0.27,0.02c0.51,0.03,0.74,0.4,0.52,0.88
		c-0.14,0.32-0.29,0.66-0.34,1c-0.09,0.52-0.02,1.22,0.29,1.6c0.24,0.33,1.1,0.55,1.39,0.36C150.9,78.4,151.22,77.76,151.5,77.16z"
		/>
	<path class="st0" d="M163.67,73.68c-0.52-0.07-1.04-0.11-1.56-0.15c-0.5-0.02-0.84,0.37-0.76,0.86c0.02,0.11,0.02,0.22,0.04,0.33
		c0.06,0.51,0.22,1,0.32,1.11c0.11,0.09,0.61,0.17,1.13,0.17c0.17,0,0.35,0,0.52,0c0.5,0,0.9,0.25,0.78,0.51
		c-0.09,0.24-0.2,0.33-0.27,0.43c-0.34,0.66-0.81,1.33-0.85,2.04c-0.02,0.24,1.34,0.94,1.57,0.77c0.54-0.42,0.81-1.23,1.15-1.87
		c0.18-0.39,0.28-0.82,0.42-1.24c0.17-0.53,0.64-1.24,0.44-1.55c-0.3-0.46-1.01-0.74-1.6-1.01
		C164.62,73.88,164.13,73.75,163.67,73.68z"/>
	<path class="st0" d="M53.54,179.82c0.51,0.25,0.97,0.68,1.51,0.85c0.46,0.15,1.17,0.21,1.47-0.04c0.39-0.35,0.73-1.1,0.63-1.56
		c-0.12-0.44-0.8-0.85-1.32-1.08c-0.64-0.29-1.46-0.25-2.08-0.58c-1.19-0.65-2.26-0.29-2.19,1.04c0.02,0.91,0.06,1.46-0.74,2.06
		c-0.33,0.25-0.3,1.51,0.04,1.89c0.3,0.35,1.26,0.21,1.89,0.11c0.18-0.03,0.34-0.18,0.51-0.34c0.24-0.25,0.42-0.43,0.38-0.42
		c-0.01,0.03-0.19-0.32-0.39-0.77c-0.2-0.45-0.21-0.89-0.05-1.03C53.36,179.86,53.47,179.78,53.54,179.82z"/>
	<path class="st0" d="M213.33,127.26c-0.03,0.05,0.03,0.14,0,0.22c-0.16,0.66-0.37,1.32-0.48,1.97c-0.11,0.58-0.28,1.26-0.05,1.72
		c0.17,0.36,1.1,0.75,1.34,0.61c0.5-0.33,0.84-0.99,1.09-1.57c0.15-0.35,0.2-0.76,0.27-1.3c0.07-0.5,0.41-0.6,0.75-0.21
		c1.02,1.11,1.79,1.82,2.81,0.36c0.24-0.36,0.04-1.57-0.22-1.68c-1.46-0.55-2.97-0.95-4.5-1.24
		C214.1,126.11,213.69,126.87,213.33,127.26z"/>
	<path class="st0" d="M100,172.91c0.16,0.05,0.3,0.09,0.49,0.11c0.27,0.04,0.44,0.31,0.41,0.59c-0.03,0.23-0.06,0.41-0.19,0.51
		c-1.35,1.07-0.83,1.79,0.17,2.75c0.37,0.35,0.88,0.27,1.15-0.14c0.32-0.53,0.59-0.98,0.81-1.42c0.24-0.55,0.35-1.17,0.49-1.76
		c0.12-0.56,0.44-1.27,0.24-1.65c-0.23-0.42-1.01-0.55-1.55-0.77c-0.52-0.19-1.06-0.37-1.6-0.44c-0.71-0.1-1.45-0.13-2.14-0.02
		c-0.17,0.04-0.42,1.08-0.27,1.2C98.59,172.29,99.31,172.61,100,172.91z"/>
	<path class="st0" d="M177.64,119.88c0.41-0.4,0.7-0.97,0.91-1.51c0.08-0.22,0.12-0.45,0.16-0.69c0.02-0.39,0.36-0.54,0.77-0.32
		c0.25,0.11,0.5,0.24,0.76,0.32c0.54,0.14,1.28,0.35,1.68,0.1c0.38-0.24,0.71-1.09,0.59-1.54c-0.14-0.46-1-1.18-1.27-1.08
		c-1.36,0.53-1.92-0.26-2.49-1.02c-0.31-0.4-0.87-0.39-1.24-0.02c-0.32,0.34-0.6,0.67-0.61,1.01c-0.06,1.13-0.14,2.12-0.92,3.07
		c-0.2,0.25,0.26,1.15,0.57,1.68C176.67,120.04,177.44,120.07,177.64,119.88z"/>
	<path class="st0" d="M153.85,69.02c0.43,0.22,0.93,0.3,1.43,0.4c0.61,0.13,1.32,0.45,1.81,0.25c0.35-0.12,0.75-1.24,0.58-1.42
		c-0.42-0.51-1.14-0.77-1.77-1.06c-0.24-0.1-0.52-0.15-0.87-0.19c-0.5-0.05-0.6-0.42-0.22-0.78c0.99-0.92,1.76-1.64,0.41-2.75
		c-0.32-0.25-1.54-0.12-1.65,0.12c-0.57,1.44-1.01,2.91-1.28,4.42C152.25,68.26,153.27,68.74,153.85,69.02z"/>
	<path class="st0" d="M205.68,67.54c0.53,0.25,1.16,0.33,1.75,0.43c0.64,0.1,1.33,0.36,1.9,0.2c0.3-0.09,0.68-1.17,0.5-1.37
		c-0.43-0.51-1.11-0.86-1.75-1.14c-0.33-0.15-0.68-0.18-1.24-0.23c-0.5-0.05-0.63-0.38-0.25-0.69c0.33-0.28,0.51-0.41,0.59-0.6
		c0.14-0.37,0.23-0.72,0.33-1.12c0.13-0.48-0.18-1-0.67-1.15c-0.39-0.12-0.77-0.2-1.01-0.05c-0.45,0.27-0.48,1.2-0.72,1.82
		c-0.16,0.46-0.36,0.89-0.54,1.33c-0.19,0.48-0.65,1.14-0.46,1.41C204.45,66.89,205.1,67.24,205.68,67.54z"/>
	<path class="st0" d="M178.03,77.08c0.19,0.12,0.37,0.2,0.58,0.21c0.72,0.05,1.47,0.04,2.13-0.21c0.17-0.06,0.19-1.41-0.05-1.51
		c-1.25-0.67-2.61-1.25-3.99-1.58c-0.36-0.08-1.44,0.96-1.37,1.28c0.32,1.19-0.25,1.81-0.91,2.65c-0.17,0.23,0.08,0.76,0.36,1.32
		c0.22,0.46,0.57,0.85,0.8,0.85c0.24,0.01,0.62-0.34,0.85-0.8c0.24-0.43,0.46-0.88,0.67-1.31c0.08-0.2,0.14-0.39,0.21-0.61
		C177.42,77.04,177.74,76.9,178.03,77.08z"/>
	<path class="st0" d="M203.43,71.51c-0.19-0.13-0.65,0.19-0.98,0.19c-0.37-0.03-0.75-0.19-1.11-0.26c-0.71-0.2-1.61-0.71-2.09-0.46
		c-0.85,0.47-0.74,1.09-0.43,1.71c0.23,0.46,0.86,0.99,1.33,0.79c0.55-0.22,1.13-0.6,1.49-0.14c0.33,0.39-0.01,1.14-0.34,1.51
		c-0.95,1.11-0.96,1.84-0.02,2.28c0.41,0.17,1.35,0.09,1.46-0.14c0.66-1.37,1.22-2.81,1.61-4.26
		C204.45,72.42,203.83,71.83,203.43,71.51z"/>
	<path class="st0" d="M204.33,124.75c0.44,0.18,0.84,0.35,1.25,0.55c0.44,0.19,0.83,0.52,1.28,0.69c0.48,0.17,1.12,0.46,1.46,0.28
		c0.46-0.25,0.83-0.87,1.07-1.4c0.26-0.58,0.41-1.25,0.5-1.88c0.09-0.62,0.27-1.38,0-1.86c-0.17-0.32-1.21-0.53-1.55-0.31
		c-0.43,0.29-0.6,1.03-0.8,1.62c-0.12,0.33-0.18,0.65-0.28,1.07c-0.1,0.5-0.45,0.61-0.78,0.2c-0.37-0.4-0.67-0.76-1.03-1.19
		c-0.33-0.38-0.79-0.35-1.02,0.12c-0.2,0.35-0.34,0.65-0.5,0.95C203.68,124.03,203.88,124.56,204.33,124.75z"/>
	<path class="st0" d="M189.27,70.96c-0.2-0.16-0.44-0.33-0.71-0.45c-0.63-0.29-1.35-0.44-2.05-0.55c-0.59-0.09-1.24-0.17-1.75,0.04
		c-0.31,0.13-0.63,0.96-0.48,1.21c0.27,0.46,0.88,1.04,1.34,1.01c1.87-0.07,2.66,0.14,1.01,1.92c-0.26,0.29,0.05,1.42,0.43,1.82
		c0.25,0.27,1.53,0.09,1.65-0.17c0.41-1.01,0.66-2.08,0.99-3.43C189.83,71.88,189.64,71.24,189.27,70.96z"/>
	<path class="st0" d="M91.04,178.15c0.05-0.51,0.37-0.68,0.79-0.39c0.28,0.19,0.57,0.35,0.88,0.37c0.35,0.03,0.72-0.06,1.11-0.18
		c0.47-0.15,0.75-0.67,0.62-1.16c-0.14-0.5-0.27-0.96-0.37-0.96c-1.31,0.05-2.32-0.96-3.3-1.08c-2.42-0.26-1.03,2.33-1.83,3.48
		c-0.28,0.43-0.55,0.85-0.32,1.31c0.19,0.33,0.39,0.63,0.66,0.76C90.27,180.73,90.92,179.9,91.04,178.15z"/>
	<path class="st0" d="M106.31,180.14c-0.3-0.18-0.59-0.36-0.9-0.58c-0.42-0.27-0.46-0.77-0.07-1.07c0.31-0.27,0.54-0.46,0.59-0.68
		c0.06-0.29,0.03-0.6-0.03-0.9c-0.09-0.51-0.58-0.86-1.09-0.81c-0.45,0.03-0.89,0.09-1.03,0.33c-0.64,1.04-1.05,2.27-1.29,3.47
		c-0.06,0.41,0.85,1.48,1.13,1.41c1.13-0.26,1.68,0.27,2.14,0.94c0.28,0.42,0.91,0.89,1.42,0.77c0.67-0.16,1.05-0.69,0.95-1.52
		C108.07,180.98,106.95,180.58,106.31,180.14z"/>
	<path class="st0" d="M166.4,72.78c0.37,0.11,0.75,0.26,1.13,0.39c0.23,0.05,0.54-0.07,0.71,0.03c2.14,1.2,2.14,1.2,2.73-1.26
		c0.04-0.12,0.15-0.22,0.22-0.36c1.19-2.08,1.34-2.34-0.44-2.91c-0.49-0.15-1.18,0.06-1.19,0.58c-0.02,0.76,0.3,1.7-0.26,2.24
		c-0.37,0.36-0.9,0.32-1,0.19c-0.07-0.09-0.13-0.16-0.19-0.17c-0.33-0.16-0.67-0.32-1.01-0.46c-0.46-0.2-1,0.02-1.2,0.47
		c-0.02,0.03-0.02,0.05-0.04,0.06C165.7,72.07,165.92,72.59,166.4,72.78z"/>
	<path class="st0" d="M137.92,81.37c0.07,0,0.15,0,0.23,0.01c0.5,0.03,1.05-0.33,1.21-0.82c0.04-0.18,0.1-0.35,0.15-0.51
		c0.16-0.48,0.59-0.67,0.95-0.43c0.23,0.14,0.48,0.28,0.73,0.36c0.55,0.12,1.33,0.27,1.73,0.01c0.36-0.24,0.62-1.39,0.42-1.55
		c-0.39-0.3-0.89-0.53-1.37-0.71c-0.48-0.22-0.91-0.26-0.98-0.12c-0.08,0.14-0.39-0.08-0.77-0.41c-1.1-0.94-2.14-0.96-2.46,0.11
		c-0.3,0.94-0.43,1.96-0.59,3.07C137.08,80.88,137.43,81.33,137.92,81.37z"/>
	<path class="st0" d="M177.61,128.63c-0.02-0.05-1.09,0.07-1.42,0.37c-0.29,0.25-0.24,0.89-0.34,1.35
		c-0.07,0.33-0.16,0.67-0.25,1.04c-0.12,0.48,0.09,1.27,0.62,1.25c0.57-0.03,0.95-0.68,1.43-1.19c0.34-0.37,0.9-0.28,1.08,0.06
		c0.13,0.2,0.27,0.39,0.46,0.51c0.42,0.26,1.1,0.47,1.48,0.32c0.43-0.18,0.91-0.83,0.91-1.28
		C181.57,128.29,178.3,130.55,177.61,128.63z"/>
	<path class="st0" d="M209.58,119.07c0.3,0.37,0.61,0.72,1,0.98c0.52,0.36,1.26,0.45,1.9,0.58c0.49,0.12,1.08,0.32,1.5,0.16
		c0.24-0.1,0.44-0.3,0.64-0.56c0.28-0.35,0.3-0.98,0.02-1.4c-0.2-0.3-0.38-0.54-0.62-0.64c-1.1-0.46-2.27-0.83-3.45-0.93
		c-0.28-0.03-0.59,0.2-0.9,0.5C209.31,118.09,209.26,118.69,209.58,119.07z"/>
	<path class="st0" d="M88.02,180.98c-0.63-0.36-1.42-0.45-2.15-0.55c-0.57-0.09-1.34-0.28-1.66,0c-0.37,0.3-0.59,1.19-0.41,1.63
		c0.18,0.42,0.92,0.63,1.46,0.87c0.62,0.25,1.27,0.42,1.88,0.69c0.18,0.06,0.35,0.16,0.56,0.29c0.29,0.18,0.8,0.02,1.15-0.37
		c0.34-0.38,0.66-0.75,0.65-1.1C89.46,181.92,88.63,181.3,88.02,180.98z"/>
	<path class="st0" d="M73.37,180.04c-0.46-0.24-1.04-0.29-1.56-0.4c-0.68-0.11-1.42-0.39-2.07-0.26c-0.23,0.05-0.56,1.19-0.35,1.58
		c0.16,0.33,0.49,0.56,0.81,0.8c0.43,0.29,0.89,0.38,1.03,0.18c0.14-0.18,0.5-0.1,0.8,0.16c0.19,0.16,0.38,0.3,0.6,0.37
		c0.58,0.18,1.3,0.29,1.83,0.09c0.34-0.11,0.74-1.1,0.59-1.26C74.65,180.76,74,180.37,73.37,180.04z"/>
	<path class="st0" d="M211.48,78.05c-0.5-0.2-1.01-0.38-1.54-0.5c-0.6-0.12-1.33-0.46-1.81-0.25c-0.39,0.16-0.81,1.13-0.66,1.5
		c0.14,0.32,0.45,0.57,0.76,0.82c0.41,0.29,0.84,0.39,0.98,0.22c0.12-0.16,0.53-0.08,0.94,0.18c0.24,0.16,0.48,0.32,0.77,0.38
		c0.61,0.17,1.39,0.32,1.89,0.04c0.33-0.19,0.53-1.24,0.29-1.62C212.86,78.4,212.08,78.25,211.48,78.05z"/>
	<path class="st0" d="M87.42,175.89c0.5-0.25,0.81-0.99,1.05-1.58c0.16-0.38-0.11-1.09,0.11-1.27c1.16-0.87,1-1.68,0.47-2.45
		c-0.27-0.44-0.94-0.6-1.42-0.41c-0.14,0.07-0.3,0.11-0.46,0.18c-0.46,0.2-0.89,0.75-0.94,1.26c-0.07,0.62-0.14,1.25-0.21,1.88
		c-0.06,0.62-0.35,1.34-0.11,1.8C86.11,175.69,87.09,176.07,87.42,175.89z"/>
	<path class="st0" d="M181.67,122.92c-0.16,0.6-0.35,1.39-0.1,1.85c0.2,0.37,1.2,0.69,1.56,0.49c0.48-0.26,0.74-1.01,1-1.6
		c0.23-0.51,0.35-1.08,0.45-1.64c0.12-0.62,0.41-1.37,0.15-1.83c-0.18-0.35-1.14-0.65-1.58-0.49c-0.27,0.11-0.49,0.35-0.69,0.65
		c-0.29,0.42-0.38,0.85-0.21,0.97c0.16,0.13,0.07,0.52-0.19,0.9C181.9,122.43,181.76,122.67,181.67,122.92z"/>
	<path class="st0" d="M194.77,117.95c0.25,0.48,1,0.74,1.56,1.02c0.53,0.28,1.1,0.46,1.67,0.64c0.47,0.16,1.07,0.48,1.42,0.31
		c0.32-0.15,0.56-0.46,0.85-0.85c0.31-0.4,0.23-0.95-0.19-1.25c-0.42-0.28-0.79-0.53-1.19-0.73c-0.59-0.29-1.24-0.49-1.87-0.62
		c-0.56-0.13-1.3-0.33-1.68-0.07C194.96,116.67,194.6,117.57,194.77,117.95z"/>
	<path class="st0" d="M160.68,75.98c-0.66,0.17-1.29,0.07-1.95-0.56c-0.35-0.32-1.32-0.16-1.87,0.09c-0.26,0.1-0.45,1.12-0.25,1.41
		c0.36,0.44,1.06,0.69,1.65,0.91c0.36,0.15,0.81-0.03,1.19,0.09c0.69,0.23,1.47,0.93,1.97,0.74c0.95-0.35,0.97-1.04,0.79-1.77
		c-0.14-0.48-0.39-0.96-0.5-1.05C161.61,75.72,161.16,75.86,160.68,75.98z"/>
	<path class="st0" d="M212.54,69.76c0.16-0.35,0.28-0.75,0.39-1.12c0.14-0.47-0.12-1.02-0.6-1.21c-0.38-0.16-0.76-0.26-0.99-0.15
		c-0.47,0.27-0.63,1.15-0.87,1.79c-0.14,0.34-0.16,0.7-0.23,1.06c-0.07,0.47-0.15,0.94-0.22,1.43c-0.06,0.5,0.29,0.99,0.77,1.07
		c0.42,0.07,0.77,0.1,0.88-0.05c0.27-0.32,0.4-0.76,0.48-1.23c0.1-0.48,0.1-0.93-0.03-0.99c-0.13-0.04-0.06-0.17,0.11-0.3
		C212.38,69.99,212.49,69.89,212.54,69.76z"/>
	<path class="st0" d="M82.86,179.83c-0.17-0.29-0.6-0.43-1.06-0.56c-0.5-0.14-1.04,0.12-1.22,0.6c-0.13,0.36-0.28,0.71-0.4,1.08
		c-0.12,0.39-0.27,0.84-0.34,1.26c-0.07,0.42-0.13,0.85-0.19,1.26c-0.06,0.5,0.25,0.98,0.69,1.08c0.34,0.08,0.66,0.12,0.77-0.01
		c0.28-0.3,0.46-0.7,0.61-1.11c0.16-0.49,0.19-0.92,0.08-1c-0.12-0.08-0.07-0.25,0.11-0.35c0.14-0.09,0.24-0.17,0.3-0.29
		C82.51,181.13,83.08,180.23,82.86,179.83z"/>
	<path class="st0" d="M166.93,69.69c0.44,0.3,1.51-0.26,2.26-0.55c0.15-0.04,0.27-0.19,0.38-0.34c0.17-0.23-0.15-0.47-0.5-0.85
		c-0.32-0.3-0.18-0.71,0.44-1.35c0.41-0.41,0.44-1.35,0.35-2.01c-0.03-0.22-1.17-0.62-1.38-0.43c-0.49,0.43-0.8,1.13-1.08,1.78
		c-0.22,0.41-0.09,1.1-0.38,1.34C165.97,68.11,166.02,69.11,166.93,69.69z"/>
	<path class="st0" d="M58.65,173.89c0.5-0.24,1.14-1.21,1.01-1.5c-0.47-0.96,0.01-1.27,0.56-1.85c0.35-0.38,0.34-1.3,0.13-1.85
		c-0.1-0.3-1.07-0.6-1.42-0.41c-0.27,0.13-0.49,0.39-0.71,0.68c-0.3,0.41-0.41,0.85-0.28,1c0.15,0.11,0.04,0.5-0.22,0.86
		c-0.17,0.23-0.31,0.45-0.4,0.69c-0.19,0.58-0.39,1.35-0.17,1.84C57.3,173.7,58.29,174.09,58.65,173.89z"/>
	<path class="st0" d="M78.31,178.11c-0.55,0-1.57,0.71-1.53,1.02c0.17,1.17-0.02,2.07-0.86,2.93c-0.15,0.17,0.33,1.3,0.78,1.62
		c0.29,0.23,1.4-0.06,1.53-0.37c0.39-1.02,0.66-2.1,0.98-3.44c0.11-0.48,0.02-1.14-0.27-1.43
		C78.76,178.26,78.53,178.11,78.31,178.11z"/>
	<path class="st0" d="M196.72,127.19c-0.14-0.2-1.16-0.15-1.43,0.13c-0.35,0.37-0.63,1.17-0.46,1.61c0.15,0.42,0.88,0.71,1.4,0.89
		c0.45,0.15,0.97,0.06,1.43,0.15c0.46,0.1,0.93,0.22,1.4,0.33c0.49,0.13,0.9-0.19,0.92-0.7c0.01-0.26,0.03-0.51,0.03-0.76
		c0.01-0.52,0.05-0.91,0.08-0.89c0.01,0-0.38,0.02-0.89,0.08C198.29,128.13,197.4,128.27,196.72,127.19z"/>
	<path class="st0" d="M209.86,65.44c0.65,0.43,1.47,0.72,2.23,0.77c0.42,0.03,0.85-0.09,1.28-0.21c0.48-0.16,0.78-0.68,0.69-1.18
		c-0.09-0.48-0.2-0.91-0.45-1.02c-0.91-0.41-1.96-0.58-3.23-0.84c-0.49-0.09-1.15,0-1.42,0.29c-0.18,0.19-0.33,0.41-0.31,0.61
		C208.72,64.46,209.31,65.1,209.86,65.44z"/>
	<path class="st0" d="M205.1,76.19c-0.49,0.26-0.77,0.98-1.03,1.56c-0.27,0.51-0.45,1.08-0.61,1.64c-0.14,0.5-0.45,1.08-0.31,1.48
		c0.08,0.26,0.42,0.43,0.94,0.71c0.44,0.25,0.98,0.09,1.17-0.37c0.22-0.47,0.41-0.89,0.57-1.28c0.23-0.54,0.49-1.04,0.64-1.6
		c0.16-0.54,0.41-1.29,0.19-1.64C206.39,76.31,205.45,76.01,205.1,76.19z"/>
	<path class="st0" d="M143.72,70.9c-0.1,0.67-0.31,1.38-0.14,1.99c0.06,0.29,1.21,0.63,1.33,0.49c0.43-0.52,0.65-1.22,0.94-1.86
		c0.16-0.37,0.29-0.76,0.49-1.11c0.14-0.24,0.29-0.47,0.51-0.75c0.3-0.39,0.22-0.99-0.17-1.3c-0.43-0.37-0.83-0.68-1.23-0.69
		c-0.43-0.03-1.01,0.92-1.32,1.51C143.85,69.66,143.83,70.31,143.72,70.9z"/>
	<path class="st0" d="M159.35,63.3c0.13,0.03,0.26-0.02,0.4-0.08c0.21-0.09,0.5,0,0.64,0.21c0.11,0.13,0.19,0.25,0.34,0.3
		c0.55,0.27,1.25,0.67,1.72,0.52c0.4-0.12,0.9-1.2,0.71-1.46c-0.32-0.54-1.06-0.85-1.68-1.17c-0.45-0.24-0.98-0.46-1.5-0.54
		c-0.69-0.08-1.46-0.19-2.06,0.06c-0.28,0.14-0.49,1.26-0.25,1.58C157.97,63.12,158.76,63.18,159.35,63.3z"/>
	<path class="st0" d="M138.36,71.08c0.21-0.08,0.37-0.29,0.56-0.59c0.28-0.38,0.16-0.93-0.22-1.26c-0.39-0.32-0.75-0.59-1.14-0.78
		c-0.74-0.33-1.56-0.51-2.36-0.6c-0.54-0.07-1.25-0.04-1.65,0.26c-0.29,0.23-0.4,1.07-0.21,1.42c0.26,0.45,0.85,0.78,1.38,0.98
		c0.68,0.28,1.39,0.41,2.11,0.54C137.33,71.13,137.9,71.24,138.36,71.08z"/>
	<path class="st0" d="M73.25,174.81c0.7-1.54,1.31-3.12,1.76-4.72c0.04-0.15-0.34-0.42-0.78-0.74c-0.42-0.29-1.01-0.23-1.36,0.14
		c-0.39,0.42-0.74,0.79-0.66,0.98c0.49,1.15-0.06,1.76-0.72,2.53c-0.24,0.28-0.14,1.25,0.14,1.47
		C72.04,174.81,73.19,174.94,73.25,174.81z"/>
	<path class="st0" d="M61.33,178.03c-0.04-0.58-0.14-1.13-0.26-1.7c-0.1-0.52-0.16-0.9-0.14-0.87c0.02,0.02-0.36,0.11-0.88,0.18
		c-0.78,0.11-1.54,0.11-2.16-0.79c-0.13-0.21-1.08-0.09-1.48,0.16c-0.34,0.2-0.62,1.15-0.57,1.18c1.38,0.79,2.78,1.55,4.24,2.19
		C60.41,178.51,61.35,178.12,61.33,178.03z"/>
	<path class="st0" d="M116.81,176.16c-0.36-0.25-0.67-0.43-0.94-0.38c-0.57,0.11-1.13,0.74-1.51,1.28c-0.36,0.54-0.54,1.25-0.7,1.91
		c-0.12,0.55-0.32,1.27-0.07,1.65c0.27,0.42,1.17,0.83,1.51,0.67c0.47-0.24,0.7-1.01,0.96-1.59c0.22-0.46,0.3-1.01,0.53-1.48
		c0.12-0.26,0.27-0.5,0.46-0.78C117.35,177.01,117.22,176.46,116.81,176.16z"/>
	<path class="st0" d="M205.91,121.82c0.57-0.2,1.12-0.75,1.45-1.29c0.4-0.66,0.64-1.47,0.8-2.25c0.11-0.49,0.13-1.28-0.15-1.48
		c-0.24-0.2-0.57-0.28-0.9-0.36c-0.51-0.1-1.02,0.24-1.13,0.7c-0.04,0.18-0.1,0.35-0.13,0.53c-0.13,0.5-0.14,0.99-0.04,1.08
		c0.11,0.09-0.01,0.28-0.27,0.4c-0.17,0.1-0.32,0.18-0.4,0.31c-0.27,0.5-0.61,1.13-0.49,1.59
		C204.76,121.41,205.59,121.91,205.91,121.82z"/>
	<path class="st0" d="M204.03,128.69c0.51-0.05,1.02-0.45,1.02-0.96c0-1.12-0.57-1.79-2.18-1.6c-0.33,0.03-0.8-0.12-1-0.37
		c-0.75-0.89-1.49-0.96-2.29-0.14c-0.68,0.7-0.59,1.26-0.17,1.74c0.34,0.38,0.67,0.58,0.66,0.58c-0.03-0.02,0.33-0.1,0.78-0.18
		c0.41-0.1,0.76-0.14,0.82-0.03C202.29,128.86,203.16,128.78,204.03,128.69z"/>
	<path class="st0" d="M182.19,126.43c-0.5-0.13-1.15-0.07-1.46,0.21c-0.24,0.18-0.47,0.4-0.43,0.52c0.27,0.69,0.84,1.33,1.46,1.73
		c0.56,0.38,1.35,0.61,2.03,0.65c0.37,0.03,0.75-0.04,1.15-0.12c0.5-0.13,0.84-0.62,0.81-1.11c-0.04-0.39-0.08-0.75-0.28-0.83
		C184.52,127.04,183.46,126.78,182.19,126.43z"/>
	<path class="st0" d="M199.35,74.35c-0.08-0.51-0.53-0.92-1.04-0.83c-0.71,0.16-1.44,0.33-2.03-0.62c-0.14-0.21-1.08-0.12-1.49,0.09
		c-0.32,0.17-0.65,0.93-0.51,1.21c0.25,0.49,0.77,0.95,1.31,1.19c0.44,0.2,1.2-0.11,1.53,0.16c0.72,0.61,1.46,1.56,2.2,0.43
		C199.58,75.6,199.49,74.98,199.35,74.35z"/>
	<path class="st0" d="M181.08,74.37c0.78,0.41,1.68,0.71,2.55,0.8c0.6,0.06,1.53-0.14,1.76-0.52c0.23-0.38-0.08-1.57-0.44-1.74
		c-0.99-0.44-2.06-0.69-3.33-1.02c-0.48-0.12-1.12,0.01-1.41,0.33c-0.19,0.23-0.32,0.47-0.31,0.69
		C179.92,73.44,180.56,74.07,181.08,74.37z"/>
	<path class="st0" d="M196.01,124.02c-0.18,0.52-0.28,1.28-0.01,1.68c0.25,0.4,1.09,0.74,1.5,0.59c0.43-0.14,0.74-0.86,0.98-1.39
		c0.24-0.51,0.38-1.1,0.46-1.68c0.09-0.68,0.2-1.41,0.04-2.07c-0.07-0.28-0.98-0.66-1.16-0.54c-0.31,0.24-0.56,0.54-0.8,0.86
		c-0.31,0.41-0.45,0.85-0.29,0.98c0.15,0.12,0.03,0.53-0.29,0.88C196.28,123.54,196.1,123.76,196.01,124.02z"/>
	<path class="st0" d="M191.44,120.63c0.21-0.02,0.43-0.02,0.62-0.03c0.53-0.01,0.92-0.01,0.9,0.01l0,0
		c0.02-0.02,0.15,0.34,0.32,0.77c0.15,0.46,0.12,0.93-0.07,1.06c-0.13,0.08-0.24,0.17-0.26,0.29c-0.17,0.66-0.4,1.37-0.29,2
		c0.05,0.3,1.19,0.72,1.29,0.62c0.44-0.51,0.72-1.17,0.99-1.81c0.15-0.33-0.02-0.87,0.19-1.1c0.74-0.8,1.39-1.75,0.25-2.43
		c-0.34-0.22-0.97,0.05-1.59,0.33c-0.46,0.2-0.85,0.31-0.82,0.29c-0.03,0.02,0.05-0.37,0.17-0.85c0.19-0.75,0.38-1.5,0.52-2.28
		c0.1-0.57,0.27-1.26,0.02-1.68c-0.17-0.35-1.13-0.68-1.39-0.49c-0.49,0.34-0.79,1-1.03,1.59c-0.13,0.38,0.05,0.87-0.04,1.26
		c-0.11,0.55-0.27,1.09-0.43,1.61C190.63,120.25,190.93,120.63,191.44,120.63z"/>
	<path class="st0" d="M158.6,74.42c0.31,0.16,0.78-0.07,1.02-0.5c0.25-0.45,0.51-0.87,0.71-1.33c0.24-0.52,0.4-1.11,0.59-1.67
		c0.15-0.48,0.59-1.2,0.43-1.41c-0.36-0.42-1.07-0.81-1.6-0.77c-2.04,0.18-0.87,2.31-1.52,3.38c-0.27,0.44-0.61,0.85-0.47,1.26
		c0.1,0.25,0.19,0.47,0.31,0.7C158.15,74.21,158.32,74.28,158.6,74.42z"/>
	<path class="st0" d="M197.34,76.97c-0.61-0.01-1.21-0.31-1.82-0.44c-0.55-0.11-1.26-0.43-1.61-0.22c-0.36,0.24-0.71,1.16-0.55,1.52
		c0.23,0.48,0.95,0.77,1.51,1.02c0.38,0.16,1.11-0.05,1.25,0.17c0.7,1.16,1.46,1,2.21,0.65c0.46-0.24,0.79-0.85,0.68-1.35
		C198.86,77.58,198.49,77,197.34,76.97z"/>
	<path class="st0" d="M190.97,126.32c0.1-0.24-0.16-0.65-0.6-0.92c-0.32-0.21-0.64-0.36-0.87-0.29c-1.23,0.39-1.95-0.23-2.87-0.78
		c-0.21-0.12-0.56-0.03-0.92,0.11c-0.48,0.18-0.77,0.73-0.68,1.23c0.08,0.38,0.18,0.7,0.39,0.83c1.11,0.61,2.35,1.09,3.6,1.3
		c0.3,0.04,0.67-0.2,1.03-0.5C190.45,126.98,190.86,126.55,190.97,126.32z"/>
	<path class="st0" d="M174.98,123.15c0.23,0.25,1.5,0.02,1.66-0.31c0.23-0.5,0.16-1.74-0.14-1.86c-0.99-0.42-2.06-0.65-3.34-0.95
		c-0.49-0.1-1.14,0.02-1.43,0.31c-0.21,0.22-0.4,0.48-0.35,0.61c0.22,0.65,1.13,1.63,1.39,1.54
		C173.8,122.1,174.31,122.43,174.98,123.15z"/>
	<path class="st0" d="M144.45,74.53c-0.24-0.33-1.24-0.36-1.74-0.17c-0.33,0.11-0.69,1.06-0.54,1.33c0.3,0.5,0.94,0.91,1.51,1.17
		c0.36,0.17,1.08-0.21,1.29,0.01c0.75,0.8,1.58,1.51,2.38,0.39c0.24-0.35,0.16-0.91,0.08-1.48c-0.06-0.49-0.11-0.95-0.15-0.95
		c-0.02,0-0.45,0.06-0.93,0.22C145.71,75.26,145.06,75.42,144.45,74.53z"/>
	<path class="st0" d="M188.14,121.1c-0.33-0.16-0.76-0.11-1.19-0.06c-0.5,0.1-0.89,0.56-0.86,1.07c0.02,0.47,0.06,0.92,0.25,1.01
		c0.96,0.44,2.02,0.65,3.31,0.98c0.5,0.1,1.17-0.03,1.48-0.37c0.22-0.24,0.41-0.51,0.35-0.67c-0.22-0.62-1.42-1.53-1.57-1.42
		C188.91,122.37,188.71,121.38,188.14,121.1z"/>
	<path class="st0" d="M185.76,67.9c0.24,0.46,0.45,0.88,0.58,0.85c1.28-0.25,2.09,0.29,3.05,0.98c0.2,0.18,0.78-0.14,1.48-0.47
		c0.45-0.23,0.55-0.69,0.24-1.09c-0.47-0.57-0.79-1.01-0.99-0.94c-1.22,0.25-1.99-0.31-2.92-0.9c-0.21-0.14-0.61,0.08-1.04,0.31
		C185.71,66.9,185.53,67.44,185.76,67.9z"/>
	<path class="st0" d="M203.36,70.21c0.37,0.37,0.7,0.69,0.94,0.65c1.15-0.28,1.91-0.04,2.63,0.9c0.15,0.19,1.2,0.07,1.39-0.22
		c0.3-0.42,0.43-1.53,0.27-1.63c-1.48-0.72-2.99-1.35-4.55-1.84c-0.15-0.05-0.43,0.33-0.79,0.77
		C202.95,69.26,203,69.84,203.36,70.21z"/>
	<path class="st0" d="M61.77,180.56c-0.2,0.51-0.41,1.27-0.17,1.63c0.23,0.4,1.16,0.8,1.5,0.61c0.5-0.26,0.79-1,1.06-1.57
		c0.22-0.45,0.23-0.98,0.35-1.46c0.13-0.62,0.54-1.34,0.36-1.84c-0.14-0.38-1.17-0.83-1.53-0.64c-0.29,0.13-0.51,0.43-0.71,0.76
		c-0.27,0.45-0.36,0.89-0.19,1.02c0.16,0.14,0.07,0.5-0.22,0.83C62.04,180.1,61.88,180.31,61.77,180.56z"/>
	<path class="st0" d="M158.12,66.87c0.92-0.27,1.34-0.05,1.87,0.64c0.25,0.32,1.07,0.43,1.49,0.29c0.26-0.09,0.46-0.32,0.68-0.63
		c0.28-0.4,0.21-1.01-0.17-1.34c-0.42-0.4-0.79-0.74-0.95-0.67c-1.09,0.55-1.56-0.24-2.31-0.66c-0.5-0.27-1.3-0.17-1.9,0
		c-0.19,0.05-0.43,0.98-0.24,1.25C156.97,66.23,157.74,66.98,158.12,66.87z"/>
	<path class="st0" d="M120.42,177.49c-0.42-0.43-1.25-0.83-1.76-0.71c-0.23,0.07-0.43,0.35-0.61,0.69c-0.24,0.45-0.32,0.9-0.16,0.99
		c0.16,0.1,0.09,0.47-0.15,0.83c-0.15,0.22-0.27,0.43-0.35,0.68c-0.18,0.58-0.35,1.3-0.18,1.83c0.09,0.32,1.15,0.72,1.31,0.57
		c0.51-0.46,0.84-1.14,1.15-1.79c0.23-0.48,0.37-1.02,0.51-1.55C120.32,178.51,120.63,177.71,120.42,177.49z"/>
	<path class="st0" d="M148.34,71.06c0.9,0.42,1.9,0.65,2.89,0.88c0.5,0.13,1.01,0.39,1.12,0.59c0.13,0.2,0.44,0.02,0.73-0.4
		c0.21-0.32,0.4-0.62,0.3-0.83c-0.26-0.67-0.92-1.24-1.54-1.67c-0.53-0.38-1.21-0.65-1.85-0.71c-0.44-0.05-0.9,0.02-1.36,0.08
		c-0.5,0.07-0.82,0.54-0.73,1.04C147.99,70.49,148.1,70.92,148.34,71.06z"/>
	<path class="st0" d="M191.89,75.53c-0.3-0.21-0.62-0.37-0.93-0.37c-0.47,0-1.08,0.7-1.36,1.22c-0.36,0.7-0.56,1.53-0.68,2.36
		c-0.08,0.53-0.08,1.34,0.25,1.63c0.34,0.29,1.47,0.26,1.61,0.01c0.57-1.03,1-2.17,1.52-3.47C192.5,76.44,192.33,75.83,191.89,75.53
		z"/>
	<path class="st0" d="M51.89,174.83c0.43-0.29,0.47-0.73,0.08-1.06c-0.84-0.72-1.35-1.24-1.53-1.14c-1.17,0.63-1.67-0.13-2.42-0.71
		c-0.32-0.24-1.31-0.06-1.61,0.28c-0.3,0.33-0.3,1.48-0.07,1.61c1.34,0.67,2.74,1.3,4.19,1.64
		C50.88,175.53,51.33,175.22,51.89,174.83z"/>
	<path class="st0" d="M74.86,175.42c0.11,0.27,0.35,0.46,0.63,0.67c0.42,0.28,0.86,0.38,0.97,0.24c0.13-0.16,0.51-0.04,0.9,0.25
		c0.23,0.19,0.47,0.35,0.75,0.43c0.57,0.19,1.31,0.3,1.84,0.08c0.3-0.1,0.61-1.09,0.43-1.4c-0.31-0.48-0.99-0.77-1.54-1.04
		c-0.51-0.24-1.08-0.41-1.63-0.52c-0.63-0.14-1.34-0.33-1.89-0.14C75.01,174.1,74.67,175.08,74.86,175.42z"/>
	<path class="st0" d="M75.45,176.93c-0.83-0.36-1.74-0.56-2.65-0.74c-0.5-0.11-1.08-0.46-1.31-0.77c-0.22-0.32-0.57-0.2-0.78,0.26
		c-0.2,0.43-0.39,0.88-0.38,1.3c0.01,0.5,0.86,1.44,1.12,1.38c1.1-0.29,1.76,0.03,2.55,0.77c0.25,0.25,1.4-0.16,1.82-0.55
		C76.04,178.36,75.79,177.05,75.45,176.93z"/>
	<path class="st0" d="M93.39,179.67c-0.35-0.37-0.83-0.78-1.1-0.94c-0.27-0.15-0.64,0.1-0.81,0.59c-0.12,0.31-0.23,0.62-0.35,0.92
		c-0.29,0.89-0.68,1.75-0.81,2.69c-0.08,0.55,0.1,1.49,0.46,1.71c0.42,0.21,1.72-0.18,1.72-0.37c0.08-1.45,0.72-2.63,1.39-3.83
		C93.94,180.29,93.69,179.99,93.39,179.67z"/>
	<path class="st0" d="M171.04,66.01c-0.17,0.18,0.06,1.23,0.36,1.38c1.24,0.59,2.53,1.12,3.87,1.41c0.28,0.06,0.64-0.21,1.05-0.54
		c0.39-0.33,0.47-0.88,0.16-1.3c-0.34-0.45-0.62-0.83-0.82-0.78c-1.21,0.18-2.01-0.38-2.94-0.93
		C172.39,65.05,171.47,65.58,171.04,66.01z"/>
	<path class="st0" d="M212.67,121.62c-0.35-0.38-0.8-0.34-1.1,0.09c-0.4,0.59-0.74,1.03-0.64,1.3c0.38,0.99,0.03,1.4-0.55,2.11
		c-0.19,0.22-0.05,0.7,0.11,1.24c0.14,0.47,0.67,0.8,1.15,0.69c0.43-0.06,0.78-0.16,0.82-0.32c0.31-1.3,0.64-2.55,1.23-3.75
		C213.79,122.77,213.29,122.27,212.67,121.62z"/>
	<path class="st0" d="M60.94,175.46c-0.02-0.02,0.37-0.04,0.88-0.1c0.82-0.08,1.63-0.14,2.19,0.87c0.12,0.19,1.12,0.15,1.39-0.12
		c0.38-0.36,0.69-1.04,0.64-1.57c-0.04-0.33-0.74-0.7-1.21-0.85c-0.53-0.18-1.15-0.08-1.71-0.15c-0.48-0.04-0.96-0.11-1.43-0.19
		c-0.51-0.08-0.88,0.27-0.85,0.79c0.02,0.14,0.04,0.29,0.06,0.43C60.92,175.08,60.95,175.48,60.94,175.46z"/>
	<path class="st0" d="M93.64,173.88c0.25,0.49,1.01,0.76,1.6,1.05c0.53,0.24,1.13,0.32,1.69,0.54c0.2,0.08,0.41,0.2,0.65,0.36
		c0.35,0.23,0.88,0.07,1.19-0.34c0.26-0.34,0.49-0.64,0.44-0.92c-0.04-0.5-0.75-1.06-1.28-1.33c-0.61-0.34-1.36-0.43-2.04-0.6
		c-0.55-0.12-1.29-0.51-1.62-0.28C93.86,172.6,93.48,173.53,93.64,173.88z"/>
	<path class="st0" d="M45.13,167.41c-0.46-0.09-0.95,0.23-1.1,0.71c-0.11,0.35-0.2,0.73-0.28,1.08c-0.03,0.12,0.02,0.27,0.06,0.39
		c0.09,0.2-0.19,0.61-0.6,0.89c-0.09,0.07-0.19,0.12-0.28,0.19c-0.42,0.28-0.45,0.78-0.07,1.14c0.18,0.17,0.36,0.36,0.55,0.55
		c0.36,0.35,0.83,0.29,1.08-0.15c0.24-0.44,0.48-0.87,0.7-1.31c0.22-0.43,0.5-0.87,0.6-1.33c0.12-0.61,0.33-1.34,0.09-1.83
		C45.77,167.55,45.46,167.48,45.13,167.41z"/>
	<path class="st0" d="M50.23,176.58c-0.43-0.28-1.56-0.35-1.65-0.15c-0.66,1.37-1.21,2.8-1.58,4.26c-0.06,0.24,0.35,0.61,0.88,1.12
		c0.36,0.34,0.81,0.29,1.03-0.19c0.65-1.34,1.21-2.43,1.63-3.58C50.72,177.65,50.55,176.77,50.23,176.58z"/>
	<path class="st0" d="M101.86,182.21c-0.54-0.29-1.05-0.65-1.63-0.78c-0.54-0.14-1.33-0.24-1.69,0.03c-0.33,0.28-0.52,1.4-0.32,1.56
		c0.39,0.29,0.88,0.47,1.38,0.66c0.48,0.17,0.92,0.23,0.99,0.09c0.06-0.12,0.2-0.1,0.3,0.01c0.07,0.08,0.13,0.17,0.23,0.2
		c0.63,0.29,1.26,0.67,1.91,0.69c0.22,0.01,0.8-1.18,0.72-1.25C103.19,182.94,102.52,182.59,101.86,182.21z"/>
	<path class="st0" d="M48.44,170.6c0.46,0.2,0.9,0.27,0.99,0.15c0.07-0.15,0.27,0.03,0.46,0.37c0.12,0.24,0.26,0.46,0.45,0.54
		c0.49,0.2,1.29,0.28,1.69,0.03c0.39-0.28,0.7-1.46,0.63-1.5c-1.27-0.72-2.6-1.34-3.95-1.9c-0.3-0.12-0.93,0-1.12,0.25
		c-0.32,0.36-0.63,1.28-0.54,1.35C47.47,170.17,47.94,170.39,48.44,170.6z"/>
	<path class="st0" d="M182.48,70.76c0.51-0.27,0.81-0.98,1.11-1.54c0.27-0.51,0.42-1.08,0.57-1.63c0.15-0.51,0.41-1.12,0.27-1.55
		c-0.1-0.26-0.38-0.47-0.78-0.75c-0.41-0.28-0.93-0.18-1.18,0.27c-0.25,0.45-0.44,0.83-0.62,1.21c-0.22,0.51-0.35,1.05-0.5,1.57
		c-0.15,0.61-0.53,1.29-0.35,1.77C181.16,70.48,182.15,70.92,182.48,70.76z"/>
	<path class="st0" d="M195.67,69.43c-0.25,0.5-0.63,1.37-0.4,1.62c0.34,0.42,1.17,0.74,1.74,0.65c0.38-0.06,0.75-0.8,0.98-1.35
		c0.27-0.61,0.42-1.26,0.55-1.93c0.12-0.56,0.32-1.24,0.12-1.7c-0.15-0.32-1.07-0.61-1.41-0.43c-0.26,0.14-0.47,0.38-0.65,0.66
		c-0.29,0.42-0.39,0.87-0.22,1.01c0.16,0.14,0.06,0.51-0.23,0.83C195.95,68.99,195.78,69.2,195.67,69.43z"/>
	<path class="st0" d="M180.98,119.37c-0.28-0.4-0.83-0.54-1.27-0.28c-0.35,0.21-0.67,0.43-0.84,0.74c-0.45,0.73-0.77,1.67-0.82,2.53
		c-0.02,0.46,0.13,0.92,0.33,1.38c0.19,0.48,0.55,0.96,0.85,1.05c0.31,0.09,0.75-0.18,1.04-0.61c0.2-0.3,0.36-0.59,0.31-0.84
		c-0.27-1.21,0.25-2.02,0.79-2.99C181.49,120.17,181.24,119.79,180.98,119.37z"/>
	<path class="st0" d="M111.82,177.79c-0.96-0.51-2.03-0.86-3.11-1.08c-0.42-0.08-1.14,0.25-1.39,0.6c-0.22,0.34-0.17,1.35,0.05,1.45
		c1.03,0.51,2.13,0.89,3.37,1.38c0.47,0.16,1.12,0.1,1.42-0.18c0.19-0.2,0.34-0.41,0.39-0.65
		C112.63,178.82,112.25,178.03,111.82,177.79z"/>
	<path class="st0" d="M172.13,74.64c0.12,0.18,0.35,0.34,0.65,0.51c0.4,0.24,0.97,0.13,1.32-0.28c0.33-0.37,0.59-0.71,0.52-0.9
		c-0.42-1.09,0.1-1.62,0.73-2.34c0.24-0.27,0.11-1.09-0.13-1.48c-0.19-0.33-0.92-0.61-1.24-0.48c-0.43,0.17-1.08,0.84-1,1.12
		c0.34,1.13-0.13,1.79-0.88,2.51C171.88,73.53,171.94,74.28,172.13,74.64z"/>
	<path class="st0" d="M53.6,182.65c-0.03,0.28-0.06,0.55-0.09,0.86c-0.04,0.51-0.33,1.25-0.63,1.65c-0.1,0.15-0.23,0.31-0.36,0.49
		c-0.3,0.39-0.13,0.72,0.36,0.72c0.48,0,0.9,0,1.25,0c0.51,0,1.02-0.4,1.1-0.9c0.09-0.44,0.17-0.82,0.28-1.2
		c0.17-0.66,0.77-1.48,0.56-1.92c-0.35-0.7-0.94-1.04-1.63-0.91c-0.5,0.08-0.81,0.35-0.8,0.32
		C53.67,181.75,53.64,182.15,53.6,182.65z"/>
	<path class="st0" d="M172.4,132.43c0.06,0,0.13-0.01,0.19-0.01c0.51-0.01,1.12-0.41,1.38-0.85c0.37-0.62,0.66-1.12,0.79-1.68
		c0.09-0.32,0.04-0.71-0.04-1.09c-0.09-0.51-0.56-0.85-1.08-0.81c-0.58,0.04-1.12,0.09-1.24,0.34c-0.41,0.99-0.55,2.07-0.75,3.23
		C171.57,132.07,171.9,132.44,172.4,132.43z"/>
	<path class="st0" d="M156.97,81.24c0.6,0.14,1.25,0.1,1.88,0.08c0.52-0.02,0.98,0.07,1.02,0.2c0.06,0.13,0.43-0.02,0.82-0.33
		c0.39-0.31,0.42-0.81,0.04-1.12c-0.21-0.2-0.45-0.38-0.74-0.51c-0.7-0.33-1.46-0.55-2.24-0.69c-0.57-0.1-1.23-0.11-1.73,0.08
		c-0.27,0.11-0.55,0.92-0.41,1.17C155.89,80.6,156.44,81.14,156.97,81.24z"/>
	<path class="st0" d="M65.22,185.03c-0.26-0.08-0.52-0.16-0.78-0.24c-0.48-0.15-0.91-0.17-0.95-0.06c-0.04,0.11-0.24-0.02-0.44-0.32
		c-0.14-0.16-0.28-0.33-0.45-0.41c-0.43-0.22-1.09-0.42-1.42-0.23c-0.37,0.23-0.7,0.91-0.68,1.35c0.03,0.46,0.55,1.21,0.87,1.23
		c1.23,0.05,2.44-0.04,3.68-0.1c0.5-0.02,0.95-0.25,0.99-0.51C66.07,185.49,65.7,185.17,65.22,185.03z"/>
	<path class="st0" d="M187.5,128.79c-0.4,0.09-0.72,0.89-0.86,1.41c-0.14,0.47-0.15,1-0.18,1.82c-0.02,0.5,0.3,0.69,0.7,0.39
		c0.79-0.53,1.47-0.93,2.01-1.52c0.32-0.33,0.41-1.4,0.15-1.68C188.92,128.84,188.03,128.63,187.5,128.79z"/>
	<path class="st0" d="M152.41,81.45c0.76-0.53,1.39-0.95,1.9-1.51c0.33-0.36,0.5-1.26,0.27-1.64c-0.23-0.39-1.09-0.72-1.54-0.6
		c-0.42,0.12-0.82,0.83-0.99,1.36c-0.18,0.51-0.2,1.05-0.28,2C151.72,81.58,152,81.74,152.41,81.45z"/>
	<path class="st0" d="M174.37,80.63c-1.08-0.43-2.16-0.87-3.29-1.17c-0.14-0.04-0.39,0.21-0.64,0.51c-0.3,0.36-0.31,0.86-0.04,1.17
		c0.21,0.19,0.39,0.37,0.61,0.38c1.04,0.09,2.12,0.06,3.18,0.04c0.51,0,0.95-0.14,0.99-0.3C175.21,81.1,174.85,80.83,174.37,80.63z"
		/>
	<path class="st0" d="M216.42,67.4c0.37,0.02,0.78-0.34,1.33-0.8c0.38-0.33,0.38-0.81,0-1.14c-0.58-0.5-1.03-0.91-1.33-0.83
		c-0.39,0.12-0.71,0.47-1.02,0.85c-0.32,0.41-0.28,1.01,0.08,1.36C215.78,67.15,216.1,67.4,216.42,67.4z"/>
	<path class="st0" d="M178.89,78.6c-0.35,0.05-0.67,0.32-0.97,0.6c-0.39,0.34-0.42,0.94-0.09,1.33c0.3,0.38,0.63,0.75,1.03,0.86
		c0.26,0.08,0.67-0.39,1.17-0.95c0.35-0.37,0.31-0.89-0.07-1.22C179.52,78.84,179.16,78.54,178.89,78.6z"/>
	<path class="st0" d="M188.44,64.96c0.32-0.24,0.58-0.49,0.57-0.69c-0.05-0.5-0.39-0.97-0.79-1.59c-0.3-0.42-0.77-0.44-1.12-0.09
		c-0.48,0.56-0.89,0.94-0.81,1.21c0.11,0.39,0.42,0.75,0.77,1.07C187.41,65.22,188.03,65.27,188.44,64.96z"/>
	<path class="st0" d="M95.45,180.22c-0.48,0.28-0.71,1.13-0.82,1.8c-0.04,0.17,0.09,0.36,0.24,0.54c0.2,0.28,0.71,0.46,1.15,0.41
		c0.32-0.04,0.61-0.08,0.72-0.25c0.35-0.53,0.62-1.41,0.4-1.95C96.99,180.39,95.81,179.99,95.45,180.22z"/>
	<path class="st0" d="M203.11,121c0.47-0.63,0.85-1.06,0.79-1.42c-0.08-0.57-0.85-1.41-1.36-1.43c-0.5-0.03-1.46,0.82-1.46,1.28
		c0.01,0.46,0.43,0.92,0.94,1.59C202.34,121.41,202.8,121.41,203.11,121z"/>
	<path class="st0" d="M78.62,169.46c0.49-0.46,0.89-0.83,0.82-1.06c-0.13-0.42-0.45-0.8-0.78-1.16c-0.36-0.38-0.94-0.4-1.31-0.07
		c-0.35,0.3-0.66,0.6-0.69,0.94c-0.02,0.37,0.34,0.77,0.75,1.28C77.75,169.79,78.27,169.81,78.62,169.46z"/>
	<path class="st0" d="M183.47,76.09c-0.35-0.34-0.87-0.29-1.17,0.12c-0.37,0.51-0.68,0.92-0.6,1.18c0.1,0.36,0.41,0.63,0.75,0.89
		c0.4,0.32,1.01,0.28,1.39-0.07c0.33-0.3,0.64-0.62,0.61-0.89C184.42,76.92,184,76.54,183.47,76.09z"/>
	<path class="st0" d="M185.23,118.89c0.52-0.58,0.93-1.01,0.88-1.38c-0.07-0.54-0.95-1.3-1.5-1.33c-0.46-0.03-1.3,0.87-1.34,1.39
		c-0.03,0.38,0.35,0.78,0.82,1.32C184.42,119.28,184.91,119.28,185.23,118.89z"/>
	<path class="st0" d="M146.03,78.6c-0.36-0.37-0.85-0.32-1.15,0.09c-0.42,0.58-0.76,1-0.69,1.34c0.07,0.35,0.39,0.62,0.73,0.89
		c0.4,0.32,1.02,0.27,1.38-0.07c0.32-0.34,0.62-0.67,0.66-1.02C146.99,79.49,146.55,79.1,146.03,78.6z"/>
	<path class="st0" d="M100.51,177.65c-0.58,0.13-1.39,0.9-1.39,1.42c-0.01,0.49,0.88,1.37,1.39,1.37c0.36,0,0.74-0.39,1.21-0.87
		c0.35-0.36,0.33-0.87-0.05-1.2C101.17,177.92,100.8,177.59,100.51,177.65z"/>
	<path class="st0" d="M191.07,129.48c-0.49,0.57-0.83,0.97-0.75,1.23c0.11,0.41,0.41,0.77,0.73,1.09c0.34,0.39,0.93,0.43,1.32,0.09
		c0.3-0.25,0.56-0.49,0.54-0.73c-0.02-0.49-0.35-0.96-0.79-1.62C191.82,129.11,191.38,129.1,191.07,129.48z"/>
	<path class="st0" d="M177.31,127.16c0.31,0.37,0.62,0.69,0.97,0.76c0.33,0.04,0.72-0.34,1.2-0.8c0.39-0.34,0.41-0.88,0.06-1.23
		c-0.46-0.5-0.8-0.89-1.02-0.82c-0.41,0.13-0.77,0.44-1.11,0.77C177.03,126.18,176.99,126.77,177.31,127.16z"/>
	<path class="st0" d="M120.64,181.2c-0.51,0.54-0.98,0.95-0.88,1.21c0.12,0.4,0.49,0.74,0.88,1.04c0.41,0.33,1.03,0.3,1.41-0.05
		c0.34-0.3,0.64-0.62,0.64-0.93c0.03-0.36-0.35-0.75-0.79-1.23C121.53,180.84,121.02,180.83,120.64,181.2z"/>
	<path class="st0" d="M215.95,125.36c0.39,0.03,0.78-0.34,1.29-0.8c0.39-0.33,0.39-0.83,0-1.14c-0.58-0.5-1.03-0.92-1.5-0.95
		c-0.41-0.04-1.22,1.01-1.24,1.6C214.48,124.53,215.4,125.33,215.95,125.36z"/>
	<path class="st0" d="M163.46,72.4c0.49-0.01,1.37-0.9,1.37-1.37c-0.03-0.39-0.42-0.78-0.91-1.28c-0.37-0.35-0.87-0.33-1.2,0.06
		c-0.44,0.54-0.81,0.95-0.77,1.31C162.02,71.64,162.92,72.4,163.46,72.4z"/>
	<path class="st0" d="M138.67,74.43c0.27,0.61,0.87,1.29,1.47,1.42c0.29,0.05,0.67-0.31,1.15-0.76c0.37-0.35,0.36-0.82-0.04-1.14
		c-0.54-0.39-0.94-0.71-1.39-0.75C139.49,73.17,138.58,74.21,138.67,74.43z"/>
	<path class="st0" d="M177.23,73.34c0.35,0.37,0.85,0.33,1.16-0.06c0.43-0.58,0.78-1.03,0.75-1.42c-0.05-0.45-1.03-1.06-1.63-1.11
		c-0.39-0.01-1.25,0.91-1.18,1.29C176.4,72.46,176.77,72.84,177.23,73.34z"/>
	<path class="st0" d="M134.65,81.41c0.46,0.01,1.37-0.97,1.33-1.43c-0.03-0.46-0.49-0.9-1.04-1.47c-0.35-0.36-0.83-0.32-1.12,0.09
		c-0.4,0.63-0.75,1.07-0.65,1.42C133.29,80.6,134.1,81.38,134.65,81.41z"/>
	<path class="st0" d="M201.52,78.19c-0.79,0.14-1.52,0.59-2.25,0.93c-0.04,0.02-0.06,0.05-0.09,0.08c-0.04,0.04,0.28,0.32,0.67,0.62
		c0.46,0.36,0.9,0.73,1.4,1.02c0.09,0.06,0.99-0.77,1.04-1.26C202.35,79.12,201.68,78.14,201.52,78.19z"/>
	<path class="st0" d="M184.13,64.39c0.38,0.04,0.81-0.3,1.35-0.75c0.42-0.3,0.43-0.77,0.06-1.11c-0.55-0.5-0.98-0.91-1.39-0.89
		c-0.3,0.01-0.61,0.32-0.91,0.69c-0.34,0.38-0.34,1-0.01,1.39C183.52,64.06,183.81,64.37,184.13,64.39z"/>
	<path class="st0" d="M170.95,77.32c0.12,0.59,0.82,1.45,1.33,1.5c0.39,0.02,0.79-0.37,1.34-0.84c0.39-0.35,0.38-0.82-0.02-1.13
		c-0.55-0.42-0.95-0.76-1.36-0.77C171.78,76.06,170.87,77.01,170.95,77.32z"/>
	<path class="st0" d="M135.66,66.96c0.36,0.02,0.72-0.38,1.2-0.89c0.34-0.36,0.33-0.9-0.04-1.22c-0.48-0.4-0.83-0.74-1.04-0.67
		c-0.42,0.17-0.76,0.5-1.1,0.85c-0.36,0.36-0.36,0.93,0,1.29C135,66.66,135.32,66.94,135.66,66.96z"/>
	<path class="st0" d="M202.84,66.06c0.32-0.43,0.41-1.23,0.27-1.79c-0.08-0.24-0.26-0.44-0.49-0.66c-0.34-0.29-0.91-0.24-1.25,0.1
		c-0.25,0.23-0.46,0.45-0.54,0.71c-0.11,0.53,0.11,1.35,0.49,1.74C201.55,66.43,202.62,66.35,202.84,66.06z"/>
	<path class="st0" d="M173.6,118.65c0.5,0.1,0.96-0.21,1.03-0.7c0.05-0.43,0.12-0.87,0.12-1.29c0-0.15-0.12-0.31-0.26-0.45
		c-0.2-0.2-0.33-0.37-0.32-0.34c0.02,0.01-0.24,0.08-0.58,0.14c-0.25,0.05-0.48,0.1-0.56,0.24c-0.31,0.58-0.73,1.53-0.47,1.89
		C172.75,118.44,173.16,118.54,173.6,118.65z"/>
	<path class="st0" d="M163.62,68.45c0.39,0.34,0.98,0.34,1.35-0.02c0.32-0.32,0.59-0.62,0.7-1c0.07-0.25-0.27-0.62-0.69-1.11
		c-0.32-0.38-0.85-0.39-1.19-0.03c-0.48,0.51-0.85,0.9-0.83,1.25C163,67.86,163.29,68.17,163.62,68.45z"/>
	<path class="st0" d="M110.94,181.56c-0.38-0.33-1-0.33-1.39-0.01c-0.3,0.27-0.57,0.51-0.59,0.79c-0.01,0.41,0.3,0.83,0.68,1.43
		c0.3,0.4,0.76,0.44,1.09,0.05c0.52-0.57,0.92-0.99,0.89-1.36C111.6,182.15,111.3,181.85,110.94,181.56z"/>
	<path class="st0" d="M133.2,63.55c-0.29-0.42-0.94-0.58-1.4-0.33c-1.18,0.65-1.3,1.16-0.58,2.32c0.28,0.43,0.91,0.56,1.35,0.32
		C133.78,65.14,133.94,64.62,133.2,63.55z"/>
	<path class="st0" d="M179.34,69.5c0.35-0.26,0.66-0.52,0.74-0.86c0.09-0.35-0.24-0.79-0.66-1.41c-0.29-0.42-0.75-0.47-1.11-0.11
		c-0.56,0.55-1,0.95-0.98,1.33c0.01,0.34,0.31,0.65,0.64,0.98C178.32,69.78,178.93,69.82,179.34,69.5z"/>
	<path class="st0" d="M201.48,124.31c0.41,0.02,0.84-0.38,1.42-0.85c0.39-0.32,0.38-0.78-0.04-1.07c-0.58-0.41-1.02-0.73-1.45-0.73
		c-0.45,0-1.34,0.91-1.28,1.23C200.28,123.47,200.98,124.31,201.48,124.31z"/>
	<path class="st0" d="M155.49,73.41c0.37,0.04,0.79-0.35,1.42-0.85c0.38-0.33,0.37-0.77-0.05-1.06c-0.67-0.45-1.09-0.78-1.51-0.76
		c-0.48,0.02-1.31,0.93-1.23,1.29C154.25,72.59,154.95,73.34,155.49,73.41z"/>
	<path class="st0" d="M210.33,128.15c-0.4-0.02-1.24,0.69-1.18,0.91c0.11,0.48,0.34,0.93,0.59,1.38c0.26,0.45,0.59,0.8,0.79,0.8
		c0.19,0,0.52-0.38,0.74-0.83c0.24-0.47,0.46-0.96,0.55-1.45C211.85,128.77,210.87,128.16,210.33,128.15z"/>
	<path class="st0" d="M202.5,129.6c-0.34,0.11-0.6,0.38-0.86,0.74c-0.31,0.39-0.29,1,0.05,1.38c0.3,0.33,0.59,0.61,0.85,0.58
		c0.4-0.04,0.78-0.46,1.28-0.95c0.37-0.35,0.33-0.85-0.09-1.15C203.2,129.85,202.8,129.52,202.5,129.6z"/>
	<path class="st0" d="M171.6,116.14c-0.56-0.48-0.96-0.88-1.45-0.98c-0.19-0.03-0.47,0.25-0.74,0.56c-0.34,0.38-0.34,0.98-0.01,1.38
		c0.31,0.35,0.62,0.68,1,0.86c0.22,0.09,0.62-0.25,1.17-0.68C171.97,116.97,171.97,116.47,171.6,116.14z"/>
	<path class="st0" d="M206.32,75.43c0.49-0.08,0.92-0.46,1.49-0.92c0.39-0.33,0.39-0.82,0.01-1.14c-0.53-0.43-0.93-0.8-1.14-0.71
		c-0.41,0.16-0.74,0.46-1.05,0.81c-0.36,0.37-0.37,1-0.04,1.38C205.85,75.2,206.11,75.47,206.32,75.43z"/>
	<path class="st0" d="M62.84,171.89c0.27,0.09,0.68-0.22,1.23-0.64c0.41-0.29,0.44-0.76,0.05-1.09c-0.55-0.45-0.94-0.84-1.35-0.85
		c-0.27,0-0.55,0.24-0.84,0.51c-0.36,0.34-0.38,0.95-0.05,1.33C62.19,171.47,62.48,171.76,62.84,171.89z"/>
	<path class="st0" d="M190.8,72.87c0.12,0.41,0.43,0.74,0.78,1.09c0.36,0.34,0.93,0.34,1.3,0c0.35-0.33,0.67-0.68,0.69-1.04
		c0.03-0.35-0.4-0.71-0.89-1.19c-0.37-0.37-0.89-0.35-1.23,0.03C191.05,72.22,190.73,72.62,190.8,72.87z"/>
	<path class="st0" d="M54.12,176.5c0.31,0.08,0.67-0.13,1.04-0.37c0.43-0.26,0.68-0.68,0.55-0.93c-0.11-0.25-0.55-0.7-0.97-0.99
		c-0.35-0.25-0.71-0.47-1.05-0.47c-0.25,0-0.5,0.25-0.73,0.57c-0.33,0.39-0.31,1,0.05,1.38C53.34,176.04,53.72,176.39,54.12,176.5z"
		/>
	<path class="st0" d="M207.04,127.58c-0.41,0.02-0.82,0.06-1.2,0.19c-0.18,0.04-0.34,0.2-0.48,0.38c-0.23,0.28-0.2,0.65,0.04,0.85
		c0.16,0.16,0.32,0.28,0.5,0.29c0.42,0.05,0.85,0.03,1.28-0.03c0.52-0.04,0.9-0.46,0.85-0.93
		C208,127.88,207.55,127.53,207.04,127.58z"/>
	<path class="st0" d="M155.81,75.4c0-0.32-0.32-0.67-0.71-1.06c-0.35-0.37-0.87-0.36-1.18,0.04c-0.14,0.19-0.28,0.34-0.39,0.5
		c-0.32,0.4-0.25,0.99,0.14,1.32c0.33,0.26,0.67,0.49,1.02,0.53C155.03,76.77,155.81,75.88,155.81,75.4z"/>
	<path class="st0" d="M187.77,119.9c0.39,0.33,0.86,0.28,1.13-0.16c0.36-0.6,0.67-1.07,0.58-1.43c-0.14-0.49-1.04-1.02-1.67-1.08
		c-0.35-0.02-1.14,1.01-1.05,1.4C186.87,119.05,187.27,119.41,187.77,119.9z"/>
	<path class="st0" d="M192.99,70.83c0.6-0.09,1.41-0.76,1.53-1.3c0.04-0.33-0.34-0.74-0.82-1.31c-0.34-0.4-0.82-0.4-1.15,0
		c-0.46,0.55-0.82,0.96-0.84,1.38C191.69,70.02,192.62,70.9,192.99,70.83z"/>
	<path class="st0" d="M150.42,67.86c0.5-0.58,0.92-0.99,0.89-1.37c-0.03-0.48-0.9-1.17-1.48-1.26c-0.39-0.06-1.26,0.77-1.27,1.23
		c-0.01,0.4,0.32,0.8,0.73,1.35C149.6,68.22,150.07,68.25,150.42,67.86z"/>
	<path class="st0" d="M170.39,63.26c0.43-0.56,0.76-0.98,0.74-1.38c-0.01-0.26-0.28-0.51-0.62-0.75c-0.4-0.31-1.01-0.26-1.36,0.1
		c-0.31,0.31-0.57,0.59-0.64,0.95c-0.05,0.27,0.3,0.63,0.75,1.14C169.63,63.68,170.09,63.65,170.39,63.26z"/>
	<path class="st0" d="M146.46,66.79c0.57-0.12,1.26-0.8,1.43-1.4c0.09-0.23-0.29-0.62-0.72-1.12c-0.34-0.38-0.85-0.39-1.2-0.01
		c-0.43,0.48-0.79,0.85-0.8,1.25C145.14,65.95,146.08,66.85,146.46,66.79z"/>
	<path class="st0" d="M215.31,79.01c-0.32,0.03-0.62,0.34-0.92,0.66c-0.34,0.39-0.31,0.99,0.08,1.31c0.26,0.22,0.54,0.43,0.83,0.47
		c0.34,0.04,0.74-0.2,1.31-0.52c0.44-0.23,0.49-0.68,0.11-1C216.11,79.4,215.7,78.98,215.31,79.01z"/>
	<path class="st0" d="M67.66,177.28c0.38,0.34,0.91,0.3,1.21-0.11c0.37-0.45,0.68-0.83,0.6-1.09c-0.11-0.33-0.39-0.62-0.72-0.89
		c-0.4-0.32-0.98-0.26-1.32,0.12c-0.28,0.31-0.52,0.63-0.56,0.99C66.84,176.56,67.21,176.89,67.66,177.28z"/>
	<path class="st0" d="M168.8,75.06c-0.33,0.1-0.62,0.41-0.88,0.77c-0.31,0.4-0.27,1.01,0.1,1.37c0.31,0.29,0.61,0.56,0.94,0.6
		c0.28,0.03,0.59-0.31,0.98-0.75c0.33-0.4,0.31-0.95-0.07-1.29C169.41,75.33,169.06,74.98,168.8,75.06z"/>
	<path class="st0" d="M201.1,69.99c0.36-0.01,0.71-0.35,1.17-0.79c0.35-0.36,0.35-0.89-0.03-1.23c-0.51-0.47-0.9-0.85-1.05-0.74
		c-0.61,0.31-1.19,0.94-1.42,1.6C199.68,69.04,200.64,70.01,201.1,69.99z"/>
	<path class="st0" d="M176.11,125.52c-0.06-0.41-0.43-0.79-0.88-1.27c-0.36-0.38-0.87-0.35-1.2,0.03c-0.39,0.46-0.7,0.82-0.65,1.1
		c0.12,0.56,0.84,1.29,1.38,1.37C175.19,126.79,176.17,125.9,176.11,125.52z"/>
	<path class="st0" d="M142.31,70.37c-0.51-0.46-0.89-0.8-1.13-0.72c-0.59,0.17-1.28,0.87-1.37,1.46c-0.07,0.37,0.83,1.3,1.28,1.29
		c0.38-0.01,0.75-0.36,1.23-0.83C142.7,71.21,142.7,70.73,142.31,70.37z"/>
	<path class="st0" d="M167.15,78.69c-0.43,0.55-0.75,0.99-0.65,1.24c0.14,0.37,0.44,0.66,0.8,0.95c0.39,0.31,0.99,0.28,1.33-0.08
		c0.28-0.32,0.51-0.59,0.5-0.88c-0.04-0.39-0.39-0.79-0.87-1.29C167.92,78.24,167.45,78.28,167.15,78.69z"/>
	<path class="st0" d="M207.91,115.49c0.35,0.07,0.77-0.29,1.33-0.7c0.39-0.32,0.42-0.81,0.07-1.16c-0.46-0.45-0.82-0.79-1.14-0.78
		c-0.34,0.04-0.67,0.28-1,0.54c-0.38,0.35-0.45,0.94-0.15,1.34C207.29,115.08,207.58,115.43,207.91,115.49z"/>
	<path class="st0" d="M173.15,64.43c0.4-0.03,0.79-0.37,1.29-0.83c0.38-0.34,0.39-0.85,0.01-1.19c-0.48-0.45-0.85-0.8-1.1-0.74
		c-0.61,0.16-1.3,0.86-1.45,1.44C171.82,63.46,172.73,64.46,173.15,64.43z"/>
	<path class="st0" d="M186.06,77.29c-0.38,0.56-0.7,0.98-0.68,1.4c0.01,0.39,0.96,1.12,1.41,1.08c0.53-0.05,1.38-0.86,1.34-1.29
		c-0.05-0.39-0.44-0.78-0.93-1.28C186.83,76.85,186.35,76.89,186.06,77.29z"/>
	<path class="st0" d="M77.03,172.44c0.11-0.02,0.23-0.02,0.34-0.05c0.51-0.04,0.81-0.47,0.67-0.97c-0.07-0.23-0.13-0.46-0.19-0.69
		c-0.15-0.48-0.56-0.85-0.97-0.83c-0.4,0.04-0.72,0.47-0.73,0.99c0,0.24,0,0.47-0.01,0.71C76.11,172.12,76.51,172.49,77.03,172.44z"
		/>
	<path class="st0" d="M193.58,114.48c0.41-0.07,0.79-0.44,1.25-0.91c0.36-0.37,0.32-0.86-0.09-1.17c-0.48-0.38-0.86-0.69-1.14-0.62
		c-0.58,0.15-1.21,0.89-1.33,1.48C192.19,113.6,193.18,114.55,193.58,114.48z"/>
	<path class="st0" d="M105.82,174.93c0.24,0.14,1.29-0.51,1.26-0.72c-0.08-0.71-0.47-1.41-0.75-2.12c-0.01-0.03-0.04-0.06-0.07-0.07
		c-0.04-0.04-0.38,0.23-0.78,0.56c-0.34,0.28-0.68,0.58-0.88,0.96C104.46,173.74,105.26,174.64,105.82,174.93z"/>
	<path class="st0" d="M95.87,183.67c-0.37-0.36-1.11-0.64-1.58-0.43c-0.73,0.35-0.79,1.09-0.63,2.04c0.07,0.5,0.54,0.72,0.99,0.46
		c0.48-0.21,0.94-0.46,1.41-0.71c0.46-0.24,0.53-0.7,0.14-1.04C96.09,183.86,95.98,183.77,95.87,183.67z"/>
	<path class="st0" d="M58.18,182.71c-0.56,0.08-1.24,0.87-1.36,1.46c-0.05,0.36,0.09,0.75,0.28,1.13c0.21,0.46,0.61,0.7,0.91,0.53
		c0.28-0.19,0.82-0.66,1.15-1.04c0.26-0.3,0.47-0.58,0.42-0.78C59.43,183.45,58.59,182.65,58.18,182.71z"/>
	<path class="st0" d="M93.26,170.03c0.29-0.22,0.53-0.46,0.52-0.65c-0.03-0.45-0.34-0.9-0.7-1.49c-0.28-0.42-0.73-0.44-1.07-0.06
		c-0.45,0.52-0.81,0.9-0.76,1.2c0.07,0.34,0.34,0.64,0.66,0.94C92.29,170.3,92.89,170.34,93.26,170.03z"/>
	<path class="st0" d="M85.44,179.2c0.37,0.35,0.91,0.34,1.24-0.04c0.46-0.49,0.85-0.89,0.79-1.2c-0.08-0.52-0.99-1.24-1.53-1.24
		c-0.45,0-1.16,0.89-1.25,1.45C84.65,178.43,85.01,178.77,85.44,179.2z"/>
	<path class="st0" d="M97.89,177.12c-0.12-0.11-0.25-0.22-0.39-0.36c-0.36-0.37-0.89-0.3-1.2,0.11c-0.39,0.48-0.69,0.88-0.67,1.25
		c0.03,0.43,1.04,1.23,1.4,1.11c0.35-0.11,0.65-0.42,0.93-0.76C98.29,178.08,98.27,177.49,97.89,177.12z"/>
	<path class="st0" d="M192.58,126.22c-0.55,0.1-1.24,0.81-1.37,1.37c-0.04,0.26,0.35,0.59,0.82,1.04c0.36,0.34,0.89,0.3,1.21-0.08
		c0.38-0.49,0.69-0.86,0.7-1.25C193.96,126.93,192.97,126.14,192.58,126.22z"/>
	<path class="st0" d="M215.4,70.82c0.35,0,0.68-0.32,1.11-0.7c0.38-0.36,0.38-0.87,0.01-1.21c-0.46-0.42-0.81-0.77-1.08-0.69
		c-0.55,0.12-1.17,0.84-1.31,1.42C214.06,69.94,214.95,70.82,215.4,70.82z"/>
	<path class="st0" d="M211.51,116.29c0.49,0.04,1.23-0.81,1.39-1.41c0.07-0.22-0.28-0.56-0.7-0.97c-0.37-0.35-0.93-0.36-1.3-0.02
		c-0.48,0.43-0.87,0.77-0.81,1C210.27,115.48,210.99,116.27,211.51,116.29z"/>
	<path class="st0" d="M91.5,173.78c0.23,0.08,0.61-0.22,1.09-0.58c0.41-0.32,0.45-0.81,0.09-1.19c-0.39-0.42-0.72-0.76-1.04-0.76
		c-0.27-0.01-0.55,0.18-0.81,0.43c-0.38,0.33-0.45,0.93-0.15,1.34C90.93,173.35,91.19,173.65,91.5,173.78z"/>
	<path class="st0" d="M73.38,184.31c-0.33-0.38-0.91-0.43-1.29-0.08c-0.19,0.17-0.39,0.34-0.59,0.52c-0.36,0.33-0.53,0.84-0.34,1.12
		c0.16,0.28,0.69,0.32,1.13,0.09c0.31-0.17,0.62-0.32,0.93-0.48c0.45-0.23,0.55-0.72,0.21-1.12
		C73.42,184.35,73.39,184.33,73.38,184.31z"/>
	<path class="st0" d="M59.97,179.35c-0.32-0.41-0.82-0.41-1.19-0.05c-0.4,0.42-0.72,0.76-0.72,1.12c-0.01,0.27,0.21,0.55,0.47,0.84
		c0.35,0.34,0.94,0.39,1.35,0.08c0.32-0.27,0.61-0.54,0.71-0.87C60.67,180.19,60.34,179.83,59.97,179.35z"/>
	<path class="st0" d="M208.62,75.01c-0.06,0.28,0.32,0.66,0.8,1.16c0.34,0.36,0.83,0.33,1.13-0.09c0.35-0.5,0.64-0.91,0.68-1.34
		c0.03-0.35-0.94-1.21-1.14-1.12C209.48,73.89,208.77,74.45,208.62,75.01z"/>
	<path class="st0" d="M113.77,182.25c-0.28,0.02-0.53,0.27-0.78,0.56c-0.35,0.37-0.35,0.99,0.01,1.37c0.26,0.29,0.52,0.55,0.81,0.58
		c0.33,0.04,0.69-0.29,1.15-0.68c0.38-0.33,0.37-0.84-0.01-1.15C114.49,182.55,114.13,182.22,113.77,182.25z"/>
	<path class="st0" d="M83.14,178.26c0.42-0.45,0.75-0.76,0.66-0.95c-0.22-0.6-0.78-1.18-1.36-1.51c-0.16-0.08-1.24,0.72-1.18,1.03
		c0.06,0.44,0.35,0.83,0.73,1.36C82.29,178.61,82.78,178.63,83.14,178.26z"/>
	<path class="st0" d="M84.77,184.44c-0.57-0.38-0.96-0.67-1.35-0.67c-0.22,0-0.44,0.19-0.68,0.44c-0.31,0.36-0.32,0.89-0.01,1.23
		c0.22,0.25,0.41,0.43,0.65,0.44c0.37,0.03,0.77-0.2,1.35-0.51C85.17,185.11,85.21,184.73,84.77,184.44z"/>
	<path class="st0" d="M194.02,80.1c-0.39-0.21-0.81-0.43-1.24-0.49c-0.16-0.03-0.38,0.25-0.61,0.6c-0.28,0.39-0.11,0.82,0.38,0.97
		c0.32,0.11,0.61,0.2,0.92,0.28c0.48,0.14,0.99,0.01,1.11-0.31C194.7,80.84,194.46,80.38,194.02,80.1z"/>
	<path class="st0" d="M196.06,131.09c-0.43-0.27-0.87-0.51-1.33-0.57c-0.2-0.01-0.48,0.48-0.81,1.04c-0.26,0.44-0.06,0.8,0.44,0.8
		c0.48,0,0.89,0,1.25,0c0.51,0,0.99-0.17,1.08-0.39C196.78,131.76,196.5,131.36,196.06,131.09z"/>
	<path class="st0" d="M206.18,130.54c-0.37-0.02-0.75,0.26-1.12,0.54c-0.42,0.32-0.68,0.7-0.58,0.91c0.09,0.2,0.59,0.35,1.08,0.35
		c0.44,0,0.93,0,1.51,0c0.51,0,0.64-0.3,0.32-0.7C206.88,131.04,206.53,130.54,206.18,130.54z"/>
	<path class="st0" d="M182.23,79.58c-0.32,0.01-0.65,0.24-0.96,0.5c-0.4,0.33-0.66,0.74-0.58,0.9c0.08,0.17,0.55,0.33,1.07,0.33
		c0.28,0,0.57,0,0.85,0c0.51,0,0.98-0.12,1.06-0.28c0.06-0.15-0.21-0.56-0.56-0.92C182.82,79.83,182.53,79.58,182.23,79.58z"/>
	<path class="st0" d="M149.27,79.61c-0.36-0.03-0.74,0.16-1.13,0.38c-0.44,0.26-0.73,0.68-0.67,0.91c0.08,0.25,0.54,0.47,1.06,0.48
		c0.28,0.02,0.55,0.03,0.83,0.05c0.52,0.03,0.99-0.06,1.08-0.21c0.08-0.15-0.11-0.56-0.41-0.98
		C149.8,79.91,149.55,79.62,149.27,79.61z"/>
	<path class="st0" d="M183.55,130.5c-0.28-0.03-0.65,0.48-1.16,1.1c-0.31,0.41-0.18,0.7,0.33,0.7c0.53,0,0.96,0,1.35,0
		c0.5,0,0.98-0.11,1.07-0.25c0.09-0.13-0.15-0.54-0.53-0.88C184.27,130.85,183.92,130.55,183.55,130.5z"/>
	<path class="st0" d="M217.68,131.2c-0.46-0.17-0.95-0.35-1.43-0.45c-0.11,0-0.27,0.24-0.43,0.5c-0.19,0.32,0.05,0.7,0.53,0.86
		c0.29,0.1,0.58,0.2,0.87,0.3c0.49,0.16,0.99,0.02,1.1-0.3C218.45,131.79,218.17,131.4,217.68,131.2z"/>
	<path class="st0" d="M105.59,183.67c-0.11,0.1-0.21,0.21-0.33,0.32c-0.35,0.36-0.28,0.81,0.2,1.01c0.4,0.17,0.78,0.32,1.04,0.18
		c1.09-0.55,0.67-1.01,0.22-1.47C106.39,183.34,105.94,183.27,105.59,183.67z"/>
	<path class="st0" d="M37.69,77.09c0.98-0.1,1.92-0.55,2.89-0.98c0.46-0.2,1.2-0.12,1.61,0.18c1.41,1.05,2.84,2.24,4.81,0.73
		c2.22-1.71,0.5-3.16-0.38-5.04c-0.22-0.46,0.06-1.03,0.51-1.25c19.33-9.05,38.91-15.72,60.72-9.13c0.48,0.14,0.7-0.1,0.46-0.54
		c-0.34-0.67-0.71-1.21-1.21-1.54c-1.95-1.25-3.96-2.45-6.06-3.42c-1.27-0.58-1.41-1.19-0.83-2.26c1.38-2.56,3.47-4.03,6.42-4.15
		c0.62-0.02,1.26-0.02,1.88-0.02c0.5,0.02,0.94-0.14,0.98-0.35c0.03-0.2-0.33-0.5-0.81-0.69c-0.7-0.29-1.43-0.58-2.15-0.64
		c-4.36-0.41-7.93,0.91-10.32,4.82c-0.49,0.8-1.18,2.04-1.86,2.1c-2.7,0.2-5.43,0.1-8.33,0.09c-0.5,0-0.84-0.39-0.72-0.89
		c1.26-5.14,4.7-8.07,8.4-10.82c0.41-0.3,0.35-0.65-0.16-0.71c-0.72-0.08-1.35-0.08-1.96,0.06c-5.93,1.3-9.3,5.26-11.22,10.75
		c-0.23,0.66-0.61,1.62-1.11,1.76c-2.96,0.85-5.96,1.55-9.15,2.31c-0.48,0.13-0.91-0.19-0.9-0.7c0.03-4.77,2.02-8.26,5.68-11.06
		c0.41-0.31,0.33-0.59-0.17-0.63c-1.23-0.08-2.4-0.05-3.38,0.36c-3.15,1.39-5.25,3.79-5.87,7.29c-0.28,1.58-0.6,3.21-0.65,4.82
		c-0.05,1.34-0.7,1.81-1.83,2.19c-2.68,0.87-5.38,1.75-8,2.8c-1.57,0.64-2.09,0.1-2.2-1.34c-0.23-2.87,0.42-5.5,2.29-7.74
		c1.02-1.2,2.12-2.36,3.46-3.88c0.34-0.37,0.2-0.7-0.3-0.68c-3.61,0.06-5.78,1.86-7.64,4.29c-2.5,3.32-2.58,7.05-2.01,10.94
		c0.08,0.56-0.07,1.48-0.47,1.75c-1.16,0.77-2.43,1.63-3.76,1.81C43.7,67.79,42.9,66.3,42,65.95c-0.99-0.4-2.37-0.68-3.24-0.27
		c-0.78,0.35-1.73,1.97-1.5,2.59c0.76,2.1,0.16,3.23-1.67,4.24c-1.53,0.85-1.24,2.45-0.47,3.53C35.55,76.7,36.84,77.17,37.69,77.09z
		"/>
	<path class="st0" d="M187.15,175.38c-1.26,0.71-2.59,1.66-3.3,2.85c-1.35,2.22-3.12,2.63-5.39,2.22c-0.76-0.15-1.52-0.27-2.3-0.36
		c-1.31-0.11-1.51-0.86-1.12-1.89c0.98-2.71,2.27-5.21,4.77-6.84c0.27-0.17,0.53-0.37,0.77-0.6c0.38-0.34,0.32-0.79-0.17-0.93
		c-2.3-0.64-4.99,0.37-6.66,2.76c-1.29,1.81-2.1,3.97-3.2,5.94c-0.38,0.7-0.87,1.71-1.48,1.85c-1.45,0.31-2.92,0.37-4.38,0.47
		c-0.52,0.03-1-0.33-1.08-0.84c-0.67-4.68,1.44-8.02,4.35-11.14c0.36-0.38,0.23-0.63-0.28-0.55c-0.96,0.16-1.81,0.4-2.6,0.82
		c-3.48,1.77-5.82,4.78-5.71,8.55c0.11,4.13-1.95,5.21-5.25,5.57c-0.14,0.03-0.27,0.09-0.41,0.15c-1.95,0.5-2.54,0.12-2.75-1.97
		c-0.26-2.9-0.01-5.68,2.18-7.88c0.36-0.36,0.29-0.71-0.24-0.71c-2.01,0-3.98,1.27-4.91,3.19c-1.17,2.41-1.62,4.9-0.87,7.61
		c0.2,0.75-0.11,2.11-0.67,2.5c-1.54,1.08-3.27,2.21-5.06,2.46c-0.94,0.12-2.11-1.62-3.18-2.52c-0.06-0.05-0.12-0.08-0.18-0.11
		c-1.43-1.03-2.7-0.65-3.76,0.52c-1.1,1.21-0.86,2.46,0.16,3.59c0.19,0.21,0.38,0.39,0.59,0.57c0.32,0.31,0.31,0.83-0.02,1.21
		c-2.75,3.16-2.85,3.86-1.5,5.38c1.36,1.55,2.52,1.58,5.32-0.06c0.44-0.26,1.12-0.23,1.47,0.16c1.25,1.37,2.27,3.35,4.75,1.66
		c0.45-0.31,0.9-1.13,0.8-1.62c-0.25-1.2-0.7-2.39-1.23-3.89c-0.17-0.48,0.06-1.06,0.51-1.3c2.43-1.28,5.05-2.84,7.83-3.93
		c6.2-2.42,12.8-2.89,19.36-3.34c6.48-0.45,12.56,0.74,17.6,5.26c0.13,0.13,0.34,0.19,0.68,0.29c0.42,0.12,0.6-0.17,0.49-0.68
		c-0.27-0.99-0.41-1.78-0.84-2.4c-0.86-1.27-2.05-2.31-3.09-3.46c-1.68-1.89-1.83-3.3,0-4.98c1.04-0.94,2.41-1.56,3.79-2.29
		c0.45-0.23,0.52-0.75,0.11-1.02C189.92,174.85,188.58,174.57,187.15,175.38z"/>
	<path class="st0" d="M176.9,205.96c-1.13,0.28-2.3,0.53-3.28,1.08c-1.4,0.79-2.55,1.99-3.79,3.07c-1.37,1.19-4.85,1.4-5.84,0.1
		c-1.25-1.63-0.19-3.13,0.88-4.35c0.93-1.04,2.14-1.81,3.28-2.65c0.36-0.28,0.77-0.5,1.4-0.82c0.47-0.24,0.43-0.54-0.07-0.64
		c-0.41-0.11-0.65-0.18-0.9-0.18c-3.48-0.03-7.37,2.69-8.39,6.39c-0.64,2.35-1.74,3.23-4.1,3.44c-1.5,0.15-2.02-0.25-2.43-1.55
		c-0.62-2.04,0.07-3.75,1.19-5.39c0.47-0.69,0.91-1.44,1.45-2.29c0.28-0.44,0.08-0.71-0.41-0.6c-4.32,1.13-6.74,5.59-6.05,10.05
		c0.26,1.69-1.31,3.51-3.4,3.59c-1.72,0.08-2.17-1.49-2.23-2.8c-0.06-1.33,0.13-2.65,0.31-4.03c0.06-0.52-0.13-0.86-0.39-0.75
		c-0.17,0.05-0.34,0.11-0.46,0.22c-2.58,1.79-3.28,4.8-1.68,8.1c0.72,1.48,0.61,2.39-0.71,3.42c-1.33,1.03-2.23,1.6-3.69,0.01
		c-0.58-0.62-2.47-0.64-3.35-0.19c-1.4,0.73-0.6,2.13,0.04,3.13c0.32,0.51,0.73,0.97,1.13,1.39c0.35,0.38,0.31,0.95-0.08,1.25
		c-0.28,0.23-0.51,0.43-0.59,0.7c-0.32,0.97-0.84,2.42-0.4,2.95c0.53,0.65,1.96,0.7,3.01,0.7c0.48,0,1.04-0.68,1.44-1.15
		c1.08-1.32,2.14-1.79,3.41-0.25c0.23,0.26,0.57,0.59,0.85,0.59c0.9,0.03,2.16,0.24,2.62-0.24c0.43-0.47,0.3-1.89-0.1-2.57
		c-0.4-0.68-1.09-1.18-1.81-1.74c-0.4-0.32-0.42-0.88-0.04-1.22c3.99-3.75,8.42-6.06,13.35-7.26c6.64-1.61,13.17-1.95,18.82,3.01
		c0.04,0.03,0.16,0,0.37-0.04c0.19-0.06,0.23-0.5,0.07-0.98c-0.13-0.38-0.27-0.77-0.5-1.08c-0.48-0.68-1.12-1.3-1.79-1.78
		c-1.66-1.2-1.61-2.49-0.34-3.88c1.15-1.27,2.35-2.49,3.52-3.72c0.35-0.37,0.62-0.82,0.61-0.98
		C177.81,205.85,177.4,205.83,176.9,205.96z"/>
	<path class="st0" d="M95.54,226.6c0.4,0.1,0.8,0.24,1.21,0.37c0.47,0.18,0.9-0.1,0.94-0.6c0.03-0.27,0.05-0.51,0.08-0.77
		c0.04-0.51-0.32-0.93-0.83-0.99c-0.29-0.02-0.59-0.07-0.89-0.08c-0.5-0.06-0.98-0.28-1.06-0.47c-0.08-0.2,0.15-0.51,0.51-0.69
		c0.25-0.11,0.45-0.26,0.56-0.43c0.27-0.49,0.43-1.52,0.23-1.63c-0.53-0.33-1.79-0.54-1.85-0.37c-0.72,1.5-1.29,3.09-1.77,4.68
		c-0.01,0.1,0.98,0.58,1.54,0.77C94.61,226.54,95.09,226.48,95.54,226.6z"/>
	<path class="st0" d="M106.03,229.93c0.48,0.43,1.2,0.64,1.86,0.89c0.34,0.11,0.73,0.11,1.07,0.21c0.41,0.12,0.82,0.24,1.22,0.37
		c0.48,0.16,1-0.12,1.15-0.61c0.09-0.33,0.2-0.67,0.32-1.09c0.14-0.48,0.6-1.14,0.89-1.56c0.65-0.86,0.49-1.59-0.76-1.96
		c-0.35-0.1-0.76,0.03-1.21,0.2c-0.47,0.19-0.85,0.31-0.82,0.3c0.02-0.02-0.03,0.37,0.13,0.85c0.23,0.61,0.57,1.25,0.03,1.64
		c-0.41,0.31-0.98,0.15-1.1-0.06c-0.08-0.14-0.18-0.26-0.29-0.3c-0.6-0.23-1.34-0.55-1.84-0.37
		C106.31,228.57,105.89,229.79,106.03,229.93z"/>
	<path class="st0" d="M116.42,231.95c-1.12,0.75-0.69,1.37-0.26,2.01c0.29,0.43,0.41,0.79,0.4,0.76c-0.03-0.02,0.35-0.14,0.86-0.21
		c0.74-0.1,1.45-0.03,2.1,0.7c0.23,0.27,1.17,0.31,1.44,0.08c0.39-0.35,0.69-1.08,0.64-1.6
		C121.49,232.74,117.25,231.41,116.42,231.95z"/>
	<path class="st0" d="M113.84,234.02c-0.6-0.12-1.34-0.24-1.87-0.03c-0.32,0.11-0.68,1.1-0.5,1.33c0.35,0.51,1.18,1.19,1.57,1.06
		c0.94-0.34,1.33,0,1.62,0.47c0.26,0.42,0.8,0.69,1.27,0.5c1.36-0.51,1.56-0.83,1.04-1.85c-0.22-0.46-0.43-0.79-0.4-0.77
		c0.02,0.01-0.36-0.06-0.85-0.21C115.07,234.34,114.47,234.14,113.84,234.02z"/>
	<path class="st0" d="M98.82,224.57c0.64-0.18,1.32-0.29,1.79,0.69c0.08,0.19,1.18,0.09,1.62-0.17c0.34-0.22,0.63-1.1,0.46-1.34
		c-0.37-0.5-1.02-0.84-1.61-1.11c-0.33-0.14-0.98,0.16-1.12-0.02c-0.74-0.98-1.73-1.33-2.41-0.36c-0.24,0.33-0.06,0.96,0.12,1.58
		C97.82,224.31,98.34,224.69,98.82,224.57z"/>
	<path class="st0" d="M115.54,238.45c-0.27-0.43-0.47-0.76-0.46-0.75c0.03,0.01-0.36,0.09-0.86,0.16c-0.46,0.06-0.88,0.09-1.04-0.09
		c-0.71-0.87-1.38-0.8-2.05-0.52c-0.45,0.18-0.96,0.78-0.94,1.3c0.09,2.16,3.46,0.48,3.95,2.22c0.04,0.1,0.84,0.12,1.11-0.05
		c0.38-0.25,0.89-0.81,0.83-1.12C115.97,239.2,115.76,238.83,115.54,238.45z"/>
	<path class="st0" d="M109.49,237.19c-0.3-0.19-0.58-0.37-0.88-0.56c-0.44-0.26-0.9-0.09-1.03,0.42c-0.12,0.45-0.26,0.9-0.39,1.33
		c-0.07,0.27-0.12,0.6-0.3,0.7c-1.46,0.88-1.1,1.71-0.48,2.5c0.31,0.42,0.87,0.44,1.28,0.12c0.49-0.44,1.01-0.83,0.95-0.99
		c-0.51-1.35,0.27-1.88,0.98-2.44C110.01,237.96,109.92,237.43,109.49,237.19z"/>
	<path class="st0" d="M112.24,225.17c0.38,0.32,0.8,0.45,0.92,0.29c0.11-0.16,0.5-0.07,0.87,0.2c0.22,0.16,0.46,0.28,0.71,0.36
		c0.59,0.19,1.27,0.27,1.83,0.12c0.33-0.08,0.76-0.95,0.64-1.11c-0.37-0.53-0.93-0.94-1.48-1.26c-0.59-0.33-1.25-0.58-1.91-0.74
		c-0.63-0.15-1.36-0.26-1.95-0.07c-0.28,0.09-0.59,1.07-0.41,1.36C111.63,224.66,111.92,224.93,112.24,225.17z"/>
	<path class="st0" d="M93.89,228.76c-0.23-0.63-0.88-1.2-1.49-1.59c-0.5-0.34-1.17-0.43-1.78-0.6c-0.54-0.15-1.34-0.51-1.59-0.3
		c-0.43,0.38-0.79,1.24-0.64,1.73c0.12,0.39,1.02,0.57,1.59,0.81c0.47,0.21,1,0.34,1.49,0.57c0.18,0.09,0.38,0.22,0.61,0.39
		c0.31,0.25,0.87,0.15,1.24-0.2C93.66,229.23,93.97,228.93,93.89,228.76z"/>
	<path class="st0" d="M118.98,236.25c-0.31,0.1-0.56,0.39-0.79,0.71c-0.32,0.39-0.45,0.81-0.3,0.95c0.16,0.12,0.08,0.51-0.16,0.92
		c-0.15,0.22-0.29,0.45-0.36,0.72c-0.16,0.51-0.33,1.26-0.09,1.61c0.27,0.37,1.21,0.78,1.48,0.6c0.46-0.3,0.68-1.04,0.94-1.63
		c0.21-0.44,0.35-0.91,0.49-1.38c0.16-0.62,0.53-1.36,0.34-1.85C120.39,236.5,119.41,236.1,118.98,236.25z"/>
	<path class="st0" d="M99.12,227.01c0.14,1.4-0.38,2.46-1.09,3.56c-0.1,0.15,0.21,0.56,0.6,1.05c0.32,0.4,0.85,0.47,1.25,0.17
		c0.42-0.34,0.77-0.61,0.78-0.87c0.04-1.11,0.35-1.97,1-2.88c0.2-0.29-0.35-1.51-0.81-1.75C100.44,226.1,99.1,226.79,99.12,227.01z"
		/>
	<path class="st0" d="M102.09,233.81c-0.93-0.4-1.98-0.57-3.27-0.85c-0.5-0.09-1.14,0-1.39,0.3c-0.16,0.19-0.3,0.42-0.29,0.62
		c0.01,0.51,0.64,1.12,1.16,1.39c0.74,0.42,1.6,0.71,2.43,0.82c0.36,0.03,0.72-0.04,1.09-0.12c0.49-0.13,0.79-0.63,0.7-1.13
		C102.44,234.37,102.35,233.92,102.09,233.81z"/>
	<path class="st0" d="M107.22,233.19c-0.18-0.64-0.9-1.25-1.54-1.64c-0.56-0.33-1.3-0.43-1.97-0.51c-0.3-0.02-0.62,0-0.92,0.03
		c-0.48,0.03-0.85,0.5-0.83,1.01c0.02,0.49,0.07,0.94,0.29,1.06c0.87,0.5,1.88,0.73,3.09,1.1c0.49,0.15,1.17,0.01,1.49-0.33
		C107.06,233.66,107.26,233.38,107.22,233.19z"/>
	<path class="st0" d="M115.24,227.32c-0.43-0.15-1.33,0.21-1.55,0.62c-0.6,1.07-1.12,2.26-1.28,3.46c-0.05,0.38,0.3,0.81,0.7,1.32
		c0.32,0.39,0.87,0.47,1.28,0.16c0.32-0.23,0.54-0.41,0.63-0.66c0.46-1.11,0.87-2.28,1.05-3.47
		C116.13,228.28,115.65,227.43,115.24,227.32z"/>
	<path class="st0" d="M108.37,227.01c0.18-0.04,0.35-0.09,0.53-0.14c0.49-0.13,0.89-0.21,0.87-0.19c-0.03,0.01-0.07-0.38-0.14-0.89
		c-0.06-0.51-0.1-0.99,0.12-1.17c1.27-1.09,1.03-1.94,0.42-2.76c-0.31-0.41-0.8-0.34-1.06,0.1c-0.35,0.6-0.72,1.21-1.05,1.82
		c-0.14,0.27-0.24,0.58-0.28,0.9c-0.07,0.55-0.14,1.11-0.2,1.65C107.52,226.84,107.88,227.16,108.37,227.01z"/>
	<path class="st0" d="M87.7,222.24c-0.4-0.34-1-0.35-1.4-0.02c-0.35,0.27-0.66,0.55-0.71,0.87c-0.06,0.37,0.3,0.78,0.71,1.34
		c0.33,0.39,0.82,0.43,1.19,0.08c0.53-0.53,0.99-0.92,0.93-1.24C88.38,222.9,88.06,222.58,87.7,222.24z"/>
	<path class="st0" d="M118.06,230.94c0.4,0,0.81-0.33,1.35-0.75c0.39-0.32,0.43-0.81,0.05-1.17c-0.45-0.46-0.82-0.82-1.1-0.76
		c-0.58,0.09-1.34,0.75-1.45,1.27C116.83,229.96,117.64,230.94,118.06,230.94z"/>
	<path class="st0" d="M117.46,242.63c-0.38,0.03-0.71,0.28-1.06,0.55c-0.41,0.3-0.48,0.89-0.19,1.32c0.27,0.35,0.54,0.66,0.86,0.73
		c0.35,0.06,0.78-0.23,1.35-0.61c0.42-0.27,0.47-0.76,0.13-1.14C118.11,242.99,117.75,242.62,117.46,242.63z"/>
	<path class="st0" d="M104.97,226.48c0.37,0,0.74-0.4,1.19-0.88c0.36-0.38,0.33-0.91-0.04-1.22c-0.51-0.45-0.91-0.81-1.12-0.71
		c-0.39,0.17-0.73,0.51-1.06,0.87c-0.33,0.38-0.3,0.96,0.05,1.33C104.32,226.19,104.64,226.48,104.97,226.48z"/>
	<path class="st0" d="M104.14,230.05c0.26,0.09,0.62-0.11,0.99-0.36c0.43-0.28,0.7-0.68,0.58-0.93c-0.09-0.24-0.51-0.68-0.91-0.99
		c-0.33-0.27-0.67-0.49-1.01-0.53c-0.39-0.02-1.31,1.04-1.22,1.18C102.93,229.08,103.5,229.84,104.14,230.05z"/>
	<path class="st0" d="M96.5,228.32c-0.37-0.36-0.92-0.36-1.27,0.02c-0.42,0.45-0.8,0.82-0.72,1.03c0.14,0.4,0.47,0.74,0.81,1.05
		c0.36,0.37,0.96,0.38,1.35,0.06c0.35-0.32,0.68-0.65,0.7-0.99C97.4,229.17,96.99,228.77,96.5,228.32z"/>
	<path class="st0" d="M94.88,231.62c-0.3-0.04-0.66,0.33-1.12,0.79c-0.36,0.36-0.36,0.85,0.03,1.19c0.49,0.43,0.89,0.83,1.25,0.79
		c0.33-0.04,0.61-0.38,0.9-0.74c0.31-0.4,0.27-1-0.08-1.38C95.55,231.98,95.23,231.67,94.88,231.62z"/>
	<path class="st0" d="M118.6,224.9c-0.39,0.47-0.71,0.86-0.65,1.13c0.07,0.35,0.34,0.62,0.65,0.9c0.36,0.34,0.99,0.34,1.38,0.03
		c0.36-0.28,0.65-0.58,0.66-0.86c0.02-0.37-0.37-0.76-0.86-1.25C119.44,224.47,118.93,224.51,118.6,224.9z"/>
	<path class="st0" d="M112.85,242.05c-0.34,0.28-0.3,1.22-0.1,1.77c0.08,0.25,0.3,0.43,0.56,0.61c0.36,0.28,0.88,0.25,1.12-0.06
		c0.17-0.2,0.32-0.41,0.37-0.64c0.11-0.54,0.12-1.43-0.2-1.67C114.19,241.74,113.17,241.72,112.85,242.05z"/>
	<path class="st0" d="M90.58,225.39c0.27,0.07,0.65-0.3,1.11-0.73c0.39-0.35,0.39-0.86-0.02-1.19c-0.47-0.43-0.84-0.76-1.26-0.83
		c-0.37-0.03-1.25,0.94-1.17,1.33C89.35,224.53,90.02,225.25,90.58,225.39z"/>
	<path class="st0" d="M109.34,232.98c-0.44-0.02-0.86-0.02-1.03,0.19c-0.76,0.95-0.35,1.64,0.92,2.42c0.43,0.26,0.84,0.03,0.88-0.47
		c0.03-0.42,0.06-0.79,0.08-1.14C110.23,233.44,109.85,233.02,109.34,232.98z"/>
	<path class="st0" d="M107.09,123.42c-1.53-2.44-2.71-2.56-4.22,0.01c-2.03,3.52-3.96,7.09-5.87,10.71
		c-0.14,0.25-0.18,0.56-0.18,0.9c-0.01,0.51,0.12,0.99,0.28,1.07c0.16,0.09,0.61-0.08,1.04-0.36c0.83-0.53,1.74-1.05,1.74-1.59
		c0.04-3.49,2.17-5.94,3.73-8.67c0.15-0.28,0.41-0.48,0.75-0.75c0.39-0.32,0.95-0.24,1.23,0.16c0.61,0.87,1.13,1.58,1.51,2.35
		c0.8,1.69,1.2,3.66,3.57,3.93c0.27,0.03,0.66,0.81,0.6,1.19c-0.06,0.35-0.58,0.77-0.99,0.87c-1.22,0.3-2.47,0.49-3.74,0.67
		c-1.43,0.21-2.13,0.88-1.98,2.42c0.2,2.19,0.53,4.4,0.34,6.58c-0.24,2.66,1.49,3.99,3.01,5.75c0.33,0.38,0.84,0.38,1.13-0.03
		c0.41-0.55,0.8-1.1,1.23-1.68c0.31-0.4,0.15-0.69-0.36-0.69c-2.35-0.02-2.88-1.52-2.9-3.56c0-1.04-0.25-2.1-0.25-3.15
		c0-3.31,0.83-3.94,3.94-3.09c2.21,0.59,4.44,1.26,6.59,0.1c1.18-0.63,2-0.55,3.05,0.21c2.39,1.69,5.04,2.47,8.01,2.08
		c0.84-0.12,1.69-0.08,2.56-0.05c0.52,0.01,0.82,0.16,0.68,0.33c-0.14,0.17-0.1,0.67,0.09,1.14c0.56,1.4,1.18,2.81,1.6,4.25
		c0.24,0.87,0.35,2.28-0.16,2.77c-2.04,2.02-4.41,3.7-6.51,5.65c-1.06,0.97-1.96,2.11-2.89,3.21c-0.32,0.38-0.44,0.88-0.25,1.09
		c0.2,0.24,0.69,0.17,1.11-0.12c0.63-0.4,1.25-0.81,1.82-1.31c0.57-0.49,0.89-1.35,1.51-1.72c2.71-1.67,5.48-3.23,8.23-4.83
		c1.21-0.71,1.77-1.66,1.61-3.14c-0.04-0.54,0.08-1.08,0.23-1.67c0.14-0.5,0.56-0.66,0.97-0.35c1.25,0.93,2.24,1.83,3.4,2.26
		c1.92,0.68,2.15,1.85,1.25,3.23c-1.54,2.31-3.39,4.44-5.03,6.71c-0.82,1.14-1.53,2.37-2.26,3.57c-0.26,0.43-0.37,0.9-0.25,1.01
		c0.12,0.13,0.62,0.16,1.12,0.04c0.49-0.08,0.99-0.2,1.5-0.3c0.51-0.1,0.81-0.58,0.77-1.1c-0.09-1.74,1.01-2.63,2.57-3.33
		c0.87-0.38,1.8-0.88,2.41-1.57c1.09-1.25,1.93-2.75,2.94-4.07c1.03-1.41,1.61-2.52,0.17-4.24c-2.59-3.13-2.32-4.54,0.01-7.85
		c0.99-1.38,1.71-3.13,1.96-4.81c0.41-2.64,0.93-3.1,3.56-2.39c0.93,0.25,1.94,0.26,2.95,0.28c0.48,0.03,0.91-0.04,0.91-0.2
		c0.01-0.16-0.31-0.53-0.72-0.84c-0.19-0.17-0.41-0.33-0.6-0.47c-0.41-0.3-0.51-0.91-0.26-1.37c0.44-0.7,0.83-1.37,1.19-1.96
		c0.26-0.45,0.11-0.6-0.36-0.36c-1.45,0.76-1.95,0.83-2.47,0.09c-0.28-0.42-0.1-1.03,0.33-1.33c0.58-0.37,1.17-0.77,1.78-1.18
		c0.43-0.28,0.37-0.65-0.09-0.82c-0.87-0.32-1.63-0.6-2.4-0.87c-0.47-0.19-0.64-0.66-0.32-1.07c0.95-1.22,1.91-2.18,1.5-3.67
		c-0.12-0.49-0.51-0.51-0.7-0.06c-0.12,0.28-0.25,0.54-0.43,0.7c-0.3,0.27-0.65,0.48-1.01,0.67c-0.44,0.27-0.85,0.06-0.96-0.44
		c-0.11-0.49-0.17-0.97,0-1.35c0.57-1.18,1.51-2.18,2.23-3.29c0.28-0.44,0.51-0.9,0.77-1.45c0.23-0.44,0.04-0.64-0.42-0.43
		c-2.87,1.38-5.45,2.63-5.83,5.97c-0.05,0.51-0.18,0.87-0.35,0.8c-0.15-0.08-0.46-0.51-0.7-0.96c-0.12-0.25-0.25-0.5-0.37-0.77
		c-0.23-0.43-0.74-0.55-1.02-0.13c-0.89,1.28-0.23,2.56,0.57,3.81c1.08,1.68,2.28,3.23,3.27,4.94c0.93,1.59,0.75,3.07-0.51,4.49
		c-0.34,0.39-0.89,0.33-1.24-0.06c-2.89-3.17-6.78-2.73-10.65-2.55c-1.7,0.08-3.4,0.1-5.09-0.05c-1.76-0.15-3.13-1.09-3.56-2.86
		c-0.44-1.9-0.15-3.74,1.44-5.02c1.5-1.22,2.91-0.54,4.25,0.43c0.04,0.03,0.13-0.02,0.34-0.1c0.17-0.08,0.18-0.51,0.03-1.01
		c-0.33-0.95-0.66-1.94-1.06-3.06c-0.14-0.49,0.1-0.73,0.57-0.53c0.69,0.31,1.29,0.57,1.87,0.82c0.46,0.19,0.93,0.29,1.03,0.21
		c0.12-0.08-0.02-0.5-0.27-0.95c-0.45-0.78-0.91-1.59-1.41-2.48c-0.25-0.44-0.04-0.72,0.46-0.65c0.34,0.05,0.66,0.12,1,0.16
		c0.49,0.08,0.7-0.23,0.37-0.62c-0.68-0.87-1.51-1.54-2.2-2.36c-0.55-0.64-0.93-1.39-1.33-2.16c-0.24-0.44-0.1-0.99,0.36-1.24
		c0.62-0.34,1.25-0.67,1.88-1.01c0.06-0.02,0.1-0.09,0.17-0.18c0.06-0.12-0.23-0.37-0.72-0.53c-1.63-0.5-3.19-0.39-4.89,0.13
		c-0.72,0.23-1.57,0.02-2.43-0.17c-0.51-0.1-0.76-0.55-0.61-1.04c0.24-0.68,0.46-1.38,0.68-2.08c0.03-0.06,0-0.13-0.05-0.29
		c-0.06-0.14-0.47-0.12-0.93,0.13c-3.47,1.86-6.27,5.32-11.03,4.6c-0.5-0.08-0.65,0.15-0.32,0.54c0.15,0.18,0.28,0.33,0.39,0.47
		c0.33,0.4,0.25,0.95-0.18,1.22c-2.1,1.44-4.19,2.88-6.53,4.48c-0.43,0.27-0.38,0.68,0.08,0.89c2.03,1.01,3.49,2.24,5.53,0.85
		c0.27-0.18,0.78-0.01,1.48,0.18c0.5,0.15,0.68,0.57,0.41,0.98c-0.71,1.07-1.28,1.98-1.88,2.83c-1.29,1.8-2.6,3.6-3.9,5.37
		c-0.34,0.44-0.66,0.9-0.98,1.34c-0.32,0.41-0.89,0.51-1.32,0.25C108.16,124.45,107.47,124.03,107.09,123.42z M124,106.74
		c1.81,0.03,2.97,1.38,3.44,3.95c0.66,3.66,0.26,6.36-1.11,7.34c-0.42,0.27-0.88-0.08-0.89-0.58c-0.12-3.4,0.23-6.9-1.79-9.89
		C123.36,107.15,123.51,106.73,124,106.74z"/>
	<path class="st0" d="M98.76,97.67c-0.55,0-1.15-0.19-1.66-0.5c-0.22-0.13-0.44-0.04-0.5,0.2l-0.17,0.67
		c-0.05,0.21,0.04,0.43,0.2,0.52c0.53,0.34,1.33,0.56,2.04,0.56c1.9,0,3.11-1.21,3.11-3.08c0-1.46-0.67-2.39-2.23-3.13
		c-1.17-0.55-1.56-0.99-1.56-1.77c0-0.62,0.37-1.34,1.4-1.34c0.59,0,1.03,0.2,1.31,0.35c0.21,0.11,0.44,0.02,0.5-0.21l0.19-0.65
		c0.05-0.19-0.04-0.43-0.22-0.53c-0.33-0.17-0.9-0.39-1.76-0.39c-1.69,0-2.87,1.21-2.87,2.91c0,1.39,0.74,2.34,2.31,3.03
		c1.08,0.5,1.46,0.99,1.46,1.82C100.3,97.09,99.71,97.67,98.76,97.67z"/>
	<path class="st0" d="M102.33,89.99l2.15,0.04v8.52c0,0.24,0.17,0.41,0.39,0.41h0.67c0.21,0,0.38-0.17,0.38-0.41l0.04-8.56h2.12
		c0.22,0,0.38-0.18,0.38-0.38v-0.68c0-0.21-0.16-0.41-0.38-0.41h-5.75c-0.23,0-0.4,0.2-0.4,0.41v0.68
		C101.94,89.81,102.12,89.99,102.33,89.99z"/>
	<path class="st0" d="M112.21,99.13c2.13,0,3.34-1.67,3.34-4.56v-5.65c0-0.21-0.19-0.41-0.4-0.41h-0.66c-0.22,0-0.39,0.2-0.39,0.41
		v5.74c0,1.4-0.32,3.04-1.84,3.04c-1.14,0-1.76-1.08-1.76-3.04v-5.74c0-0.21-0.17-0.41-0.4-0.41h-0.66c-0.23,0-0.39,0.2-0.39,0.41
		v5.71C109.04,98.54,111.03,99.13,112.21,99.13z"/>
	<path class="st0" d="M116.5,89.99l2.14,0.04v8.52c0,0.24,0.18,0.41,0.39,0.41h0.66c0.22,0,0.39-0.17,0.39-0.41l0.03-8.56h2.13
		c0.21,0,0.39-0.18,0.39-0.38v-0.68c0-0.21-0.18-0.41-0.39-0.41h-5.76c-0.22,0-0.39,0.2-0.39,0.41v0.68
		C116.1,89.81,116.28,89.99,116.5,89.99z"/>
	<path class="st0" d="M123.12,89.99l2.15,0.04v8.52c0,0.24,0.17,0.41,0.39,0.41h0.66c0.21,0,0.39-0.17,0.39-0.41l0.04-8.56h2.12
		c0.23,0,0.39-0.18,0.39-0.38v-0.68c0-0.21-0.16-0.41-0.39-0.41h-5.76c-0.21,0-0.39,0.2-0.39,0.41v0.68
		C122.73,89.81,122.91,89.99,123.12,89.99z"/>
	<path class="st0" d="M130.22,97.67c0.8,0.94,1.87,1.39,3.26,1.39c1,0,1.86-0.25,2.44-0.47c0.16-0.07,0.31-0.28,0.31-0.46v-4.41
		c0-0.22-0.17-0.41-0.39-0.41h-2.33c-0.22,0-0.4,0.19-0.4,0.41v0.62c0,0.21,0.18,0.39,0.4,0.39l1.3,0.02v2.59
		c0,0.05-0.06,0.11-0.07,0.13c-0.3,0.11-0.7,0.16-1.2,0.16c-1.85,0-3.03-1.48-3.03-3.89c0-2.38,1.21-3.85,3.17-3.85
		c0.61,0,1.12,0.09,1.58,0.31c0.21,0.09,0.44-0.02,0.5-0.23l0.16-0.65c0.06-0.21-0.05-0.42-0.25-0.53
		c-0.26-0.09-0.95-0.37-1.96-0.37c-2.81,0-4.68,2.15-4.69,5.39C129.02,95.37,129.45,96.77,130.22,97.67z"/>
	<path class="st0" d="M137.27,98.96h0.68c0.2,0,0.39-0.14,0.45-0.35l0.75-2.76c0.01-0.04,0.05-0.08,0.09-0.08h2.54
		c0.04,0,0.07,0.04,0.1,0.08l0.78,2.76c0.05,0.2,0.24,0.35,0.43,0.35h0.75c0.09,0,0.2-0.05,0.26-0.12c0.07-0.1,0.09-0.22,0.06-0.32
		l-2.74-9.67c-0.05-0.18-0.25-0.34-0.44-0.34h-0.88c-0.2,0-0.4,0.16-0.44,0.34l-2.72,9.67c-0.03,0.1-0.02,0.21,0.05,0.32
		C137.05,98.91,137.16,98.96,137.27,98.96z M139.49,94.44l0.75-2.72c0.12-0.37,0.19-0.74,0.27-1.07c0.08,0.34,0.17,0.7,0.27,1.09
		l0.77,2.67L139.49,94.44z"/>
	<path class="st0" d="M145.48,98.96h0.65c0.24,0,0.4-0.17,0.4-0.41l0.02-3.96h0.8c0.88,0.05,1.26,0.51,1.5,1.8
		c0.22,1.19,0.36,1.87,0.48,2.23c0.06,0.21,0.27,0.34,0.46,0.34h0.69c0.12,0,0.21-0.05,0.28-0.12c0.05-0.1,0.08-0.22,0.02-0.32
		c-0.15-0.47-0.34-1.41-0.56-2.55c-0.19-1-0.53-1.66-1.06-2.01c0.89-0.5,1.4-1.43,1.4-2.6c0-0.83-0.25-1.56-0.68-2.03
		c-0.58-0.62-1.35-0.9-2.56-0.9c-0.68,0-1.38,0.07-1.89,0.19c-0.21,0.02-0.35,0.21-0.35,0.41v9.52
		C145.09,98.79,145.26,98.96,145.48,98.96z M146.53,93.22v-3.25c0-0.04,0.02-0.08,0.04-0.08c0.14-0.03,0.41-0.08,0.83-0.08
		c0.79,0.02,1.74,0.33,1.74,1.7c0,1.08-0.66,1.74-1.71,1.74L146.53,93.22z"/>
	<path class="st0" d="M151.29,89.99l2.15,0.04v8.52c0,0.24,0.16,0.41,0.4,0.41h0.66c0.22,0,0.39-0.17,0.39-0.41l0.03-8.56h2.12
		c0.22,0,0.38-0.18,0.38-0.38v-0.68c0-0.21-0.16-0.41-0.38-0.41h-5.76c-0.22,0-0.38,0.2-0.38,0.41v0.68
		C150.92,89.81,151.07,89.99,151.29,89.99z"/>
</g>
</svg>
