<?xml version="1.0" encoding="utf-8"?>
<!-- Generator: Adobe Illustrator 24.0.0, SVG Export Plug-In . SVG Version: 6.00 Build 0)  -->
<svg version="1.1" id="Layer_1" xmlns="http://www.w3.org/2000/svg" xmlns:xlink="http://www.w3.org/1999/xlink" x="0px" y="0px"
	 viewBox="0 0 250 250" style="enable-background:new 0 0 250 250;" xml:space="preserve">
<g>
	<g>
		<g>
			<g>
				<g>
					<path d="M92.4,57.5c0,1.7-1.5,3.2-3.2,3.2H63.3c-1.8,0-3.2-1.5-3.2-3.2c0-1.8,1.4-3.2,3.2-3.2h25.9
						C91,54.3,92.4,55.7,92.4,57.5z"/>
				</g>
			</g>
		</g>
	</g>
	<g>
		<g>
			<g>
				<g>
					<path d="M190.4,57.5c0,1.8-1.4,3.2-3.2,3.2H109c-1.7,0-3.2-1.5-3.2-3.2c0-1.8,1.4-3.2,3.2-3.2h78.2
						C189,54.3,190.4,55.7,190.4,57.5z"/>
				</g>
			</g>
		</g>
	</g>
	<g>
		<g>
			<g>
				<g>
					<path d="M92.4,82.7c0,1.8-1.4,3.2-3.2,3.2H63.3c-1.8,0-3.2-1.4-3.2-3.2s1.4-3.2,3.2-3.2h25.9C91,79.5,92.4,80.9,92.4,82.7z"/>
				</g>
			</g>
		</g>
	</g>
	<g>
		<g>
			<g>
				<g>
					<path d="M190.4,82.7c0,1.8-1.4,3.2-3.2,3.2H109c-1.8,0-3.2-1.4-3.2-3.2s1.5-3.2,3.2-3.2h78.2C189.1,79.5,190.4,80.8,190.4,82.7
						z"/>
				</g>
			</g>
		</g>
	</g>
	<g>
		<g>
			<g>
				<g>
					<path d="M92.4,108.2c0,1.7-1.5,3.1-3.2,3.1H63.3c-1.8,0-3.2-1.4-3.2-3.1c0-1.8,1.4-3.3,3.2-3.3h25.9
						C91,104.9,92.4,106.4,92.4,108.2z"/>
				</g>
			</g>
		</g>
	</g>
	<g>
		<g>
			<g>
				<g>
					<path d="M190.4,108.2c0,1.7-1.4,3.1-3.2,3.1H109c-1.7,0-3.2-1.4-3.2-3.1c0-1.8,1.4-3.3,3.2-3.3h78.2
						C189,104.9,190.4,106.4,190.4,108.2z"/>
				</g>
			</g>
		</g>
	</g>
	<g>
		<g>
			<path d="M249.6,233.4l-28.3-54.2c-0.5-1.2-1.6-1.8-2.8-1.8h-92.2v-23.7h89.1c1.7,0,3.1-1.5,3.1-3.3V15.1c0-1.8-1.4-3.2-3.1-3.2
				H29c-1.8,0-3.2,1.5-3.2,3.2v135.6c0,1.7,1.4,3.2,3.2,3.2h91.3v23.7H33.5c-1,0-2,0.6-2.5,1.5L0.4,233.3c-0.5,0.8-0.5,2.2,0,3.2
				c0.4,1,1.6,1.6,2.5,1.6H247c1.3,0,2.1-1,2.6-1.7C250.1,235.5,250.1,234.5,249.6,233.4z M31.9,147.8V18.3h180.4v129.5H31.9z
				 M8.5,231.4l0.5-0.7l26.7-47.4h1l86.3,0.2h93.6l0.4,1.1l24.6,46.9H8.5z"/>
		</g>
	</g>
	<g>
		<g>
			<g>
				<g>
					<path d="M88.3,198.9c0,1.7-1.6,3.2-3.3,3.2H72.4c-1.8,0-3.3-1.4-3.3-3.2c0-1.8,1.5-3.2,3.3-3.2H85
						C86.8,195.7,88.3,197.2,88.3,198.9z"/>
				</g>
			</g>
		</g>
	</g>
	<g>
		<g>
			<g>
				<g>
					<path d="M119.5,198.9c0,1.7-1.5,3.2-3.2,3.2h-12.7c-1.7,0-3.1-1.5-3.1-3.2c0-1.7,1.4-3.2,3.1-3.2h12.7
						C118.1,195.7,119.5,197.2,119.5,198.9z"/>
				</g>
			</g>
		</g>
	</g>
	<g>
		<g>
			<g>
				<g>
					<path d="M150.5,198.9c0,1.7-1.4,3.2-3.1,3.2h-12.7c-1.8,0-3.2-1.5-3.2-3.2c0-1.7,1.4-3.2,3.2-3.2h12.7
						C149.1,195.7,150.5,197.2,150.5,198.9z"/>
				</g>
			</g>
		</g>
	</g>
	<g>
		<g>
			<g>
				<g>
					<path d="M182.6,198.9c0,1.7-1.5,3.2-3.1,3.2h-12.8c-1.7,0-3.1-1.5-3.1-3.2c0-1.7,1.4-3.2,3.1-3.2h12.8
						C181.2,195.7,182.6,197.2,182.6,198.9z"/>
				</g>
			</g>
		</g>
	</g>
	<g>
		<g>
			<g>
				<g>
					<path d="M197.5,216c0,1.8-1.4,3.1-3.2,3.1h-12.7c-1.7,0-3.2-1.4-3.2-3.1c0-1.8,1.5-3.2,3.2-3.2h12.7
						C196.1,212.9,197.5,214.2,197.5,216z"/>
				</g>
			</g>
		</g>
	</g>
	<g>
		<g>
			<g>
				<g>
					<path d="M72.6,216c0,1.7-1.5,3.1-3.2,3.1H56.6c-1.7,0-3.1-1.4-3.1-3.1c0-1.8,1.4-3.2,3.1-3.2h12.8
						C71.1,212.9,72.6,214.2,72.6,216z"/>
				</g>
			</g>
		</g>
	</g>
	<g>
		<g>
			<g>
				<g>
					<path d="M103.8,216c0,1.8-1.4,3.1-3.2,3.1H87.9c-1.7,0-3.2-1.4-3.2-3.1c0-1.8,1.5-3.2,3.2-3.2h12.7
						C102.4,212.9,103.8,214.2,103.8,216z"/>
				</g>
			</g>
		</g>
	</g>
	<g>
		<g>
			<g>
				<g>
					<path d="M134.9,216c0,1.8-1.5,3.1-3.3,3.1h-12.6c-1.8,0-3.3-1.4-3.3-3.1c0-1.8,1.5-3.2,3.3-3.2h12.6
						C133.5,212.9,134.9,214.2,134.9,216z"/>
				</g>
			</g>
		</g>
	</g>
	<g>
		<g>
			<g>
				<g>
					<path d="M166.9,216c0,1.8-1.4,3.1-3.2,3.1H151c-1.7,0-3.2-1.4-3.2-3.1c0-1.8,1.5-3.2,3.2-3.2h12.7
						C165.7,212.9,166.8,214.5,166.9,216z"/>
				</g>
			</g>
		</g>
	</g>
</g>
</svg>
