<svg xmlns="http://www.w3.org/2000/svg" viewBox="0 0 32.75 29.69"><defs><style>.a{fill:none;stroke:#000;stroke-linecap:round;stroke-linejoin:round;stroke-width:0.75px;}</style></defs><title>744</title><path class="a" d="M4.29,22.73a.42.42,0,0,0-.32.19L.05,29.86a.43.43,0,0,0,0,.41.38.38,0,0,0,.33.2H31.62a.44.44,0,0,0,.34-.22.4.4,0,0,0,0-.38l-3.62-6.93a.38.38,0,0,0-.35-.23Zm23.29-3.06a.41.41,0,0,0,.4-.42V1.94a.4.4,0,0,0-.4-.41H3.71a.41.41,0,0,0-.41.41V19.29a.41.41,0,0,0,.41.41Z" transform="translate(0.37 -1.15)"/><line class="a" x1="8.03" y1="6.26" x2="11.72" y2="6.26"/><line class="a" x1="8.14" y1="24.29" x2="10.48" y2="24.29"/><line class="a" x1="13.07" y1="24.29" x2="15.41" y2="24.29"/><line class="a" x1="18" y1="24.29" x2="20.34" y2="24.29"/><line class="a" x1="22.93" y1="24.29" x2="25.27" y2="24.29"/><line class="a" x1="5.05" y1="26.42" x2="7.39" y2="26.42"/><line class="a" x1="9.98" y1="26.42" x2="12.32" y2="26.42"/><line class="a" x1="14.91" y1="26.42" x2="17.25" y2="26.42"/><line class="a" x1="19.84" y1="26.42" x2="22.18" y2="26.42"/><line class="a" x1="24.79" y1="26.42" x2="27.12" y2="26.42"/><line class="a" x1="14.71" y1="6.26" x2="24.54" y2="6.26"/><line class="a" x1="8.03" y1="9.28" x2="11.72" y2="9.28"/><line class="a" x1="14.71" y1="9.28" x2="24.54" y2="9.28"/><line class="a" x1="8.03" y1="12.31" x2="11.72" y2="12.31"/><line class="a" x1="14.71" y1="12.31" x2="24.54" y2="12.31"/><line class="a" x1="16.38" y1="18.7" x2="16.38" y2="21.57"/></svg>