<svg xmlns="http://www.w3.org/2000/svg" viewBox="0 0 27.82 32.75"><defs><style>.a{fill:none;stroke:#000;stroke-linecap:round;stroke-linejoin:round;stroke-width:0.75px;}</style></defs><title>748</title><path class="a" d="M25,14.13v-3h2.41a.64.64,0,0,0,.58-.4.63.63,0,0,0-.16-.68L15.69.17a.61.61,0,0,0-.85,0L2.66,10.1a.62.62,0,0,0-.15.68.61.61,0,0,0,.57.4H5.49V26.65a.62.62,0,0,0,.62.62h5.05" transform="translate(-2.09 0.38)"/><line class="a" x1="3.41" y1="11.67" x2="15.29" y2="2.02"/><path class="a" d="M15.71,16.44a7.63,7.63,0,0,0-.1,1.31v.16A3.63,3.63,0,0,0,16.32,20l.1.16a5,5,0,0,0,1,1.1l.09.08a2.1,2.1,0,0,1,.5.56c0,.14.06.28.09.44a8,8,0,0,0,.38,1.57,2.45,2.45,0,0,0,.62.94,1.83,1.83,0,0,0,1.2.44,1.74,1.74,0,0,0,1.11-.43,2.92,2.92,0,0,0,.63-.87,4.6,4.6,0,0,0,.47-2.14v-.42a5.47,5.47,0,0,1,.07-1.23,2.15,2.15,0,0,1,.65-1l0,0a2.43,2.43,0,0,0,.79-1.68,5.13,5.13,0,0,0-.09-1,7.15,7.15,0,0,1-4.14,13,7.22,7.22,0,0,1-3.19-.75,4.16,4.16,0,0,0,.47-.41,2.11,2.11,0,0,0,.73-2.46,2.66,2.66,0,0,0-2.6-1.22h0a6.58,6.58,0,0,0-2,.34,7.19,7.19,0,0,1,2.53-8.5Z" transform="translate(-2.09 0.38)"/><path class="a" d="M16.71,28.71a7,7,0,0,1-2.14-1.64,7.11,7.11,0,0,1-1.37-2.28" transform="translate(-2.09 0.38)"/><path class="a" d="M16.29,31.22a9.55,9.55,0,0,0,3.24.78h1.1a9.46,9.46,0,0,0,4.44-17.48h0" transform="translate(-2.09 0.38)"/><path class="a" d="M15.71,16.44a7.4,7.4,0,0,1,1.54-.82,7.2,7.2,0,0,1,4.91-.09,5.56,5.56,0,0,1,1.81.93" transform="translate(-2.09 0.38)"/></svg>