<?xml version="1.0" encoding="utf-8"?>
<!-- Generator: Adobe Illustrator 24.0.0, SVG Export Plug-In . SVG Version: 6.00 Build 0)  -->
<svg version="1.1" id="Layer_1" xmlns="http://www.w3.org/2000/svg" xmlns:xlink="http://www.w3.org/1999/xlink" x="0px" y="0px"
	 viewBox="0 0 256 256" style="enable-background:new 0 0 256 256;" xml:space="preserve">
<g>
	<g>
		<path d="M215.7,163.4c0-20-11.4-37.4-27.9-46.2c0.1-0.2,0.2-0.4,0.2-0.6V82.1l19,21.3c1.4,1.5,3.9,1.6,5.4,0.3
			c1.6-1.4,1.7-3.8,0.3-5.4l-25-28c-0.4-0.9-1-1.5-1.7-1.8l-0.2-0.2L125.6,1.3C125,0.5,124,0,123,0c-1.1-0.1-2.1,0.3-2.8,1l-94,86.2
			c-0.7,0.7-1.2,1.6-1.3,2.6c0,1,0.4,2.1,1,2.8c0.7,0.7,1.7,1.2,2.7,1.3c1,0.1,2-0.4,2.7-1l16.9-15.5v97.3c0,6.9,5.6,12.5,12.5,12.5
			h55.7c0.3,0,0.6-0.2,0.9-0.2c8.6,16.9,26.1,28.6,46.3,28.6C192.3,215.4,215.7,192.1,215.7,163.4z M111.5,163.4
			c0,5.6,0.9,11,2.6,16.2H60.7c-2.7,0-4.9-2.2-4.9-4.9L55.7,70.6l0.4-0.5l66.4-61l57.8,64.5v40.4c-5.3-1.8-10.9-2.8-16.7-2.8
			c-7.2,0-14.1,1.4-20.7,4.3l-0.4,0.2c-9.5,4.2-17.2,11-22.6,19.2C114.6,143.3,111.5,153.1,111.5,163.4z M120.1,163.1
			c0-24.1,19.6-43.7,43.7-43.7s43.7,19.6,43.7,43.7s-19.6,43.8-43.7,43.8S120.1,187.3,120.1,163.1z"/>
		<path d="M231.3,163.7c0-23.4-11.8-44.7-31.7-57l-0.1-0.1c-2.3-1.2-4.5-0.4-5.9,2.3c-0.4,1.7,0.4,3.6,1.9,4.3
			c17.5,11,28,29.8,28,50.5c0,32.7-26.6,59.2-59.2,59.2c-8.2,0-16.2-1.7-23.7-5c-1.9-0.9-4.3,0.1-5.1,2c-0.9,1.9,0.1,4.3,2,5.1
			c7.3,3.2,15,5.1,23,5.5v6.6h-15.1c-1.7-0.1-3.3,1.2-3.8,2.8l-3.2,11c-0.3,1.1-0.1,2.4,0.7,3.3c0.7,1,1.9,1.7,3,1.7c0,0,0,0,0.1,0
			h44.2c1.2,0,2.3-0.6,3.1-1.7c0.7-0.9,1-2.2,0.7-3.3l-3.2-11.2c-0.9-1.7-2.1-2.7-3.7-2.7h-15.1v-6.6
			C203.6,228.6,231.3,199.3,231.3,163.7z M180.2,245l1,3.2h-33.9l0.9-3.2H180.2z"/>
		<path d="M90.9,72.1c-10.8,0-19.3,8.5-19.3,19.3v14.4c0,4.9,3.6,8.5,8.5,8.5h21.7c4.9,0,8.4-3.6,8.4-8.5V91.4
			C110.2,80.6,101.7,72.1,90.9,72.1z M102.3,105.9l-0.6,0.6H80.1l-0.6-0.6V91.4c0-6.4,5.1-11.4,11.4-11.4s11.4,5.1,11.4,11.4
			C102.3,91.4,102.3,105.9,102.3,105.9z"/>
	</g>
</g>
</svg>
