<?xml version="1.0" encoding="utf-8"?>
<!-- Generator: Adobe Illustrator 24.0.0, SVG Export Plug-In . SVG Version: 6.00 Build 0)  -->
<svg version="1.1" id="Layer_1" xmlns="http://www.w3.org/2000/svg" xmlns:xlink="http://www.w3.org/1999/xlink" x="0px" y="0px"
	 viewBox="0 0 256 256" style="enable-background:new 0 0 256 256;" xml:space="preserve">
<style type="text/css">
	.st0{fill:#8699A3;}
</style>
<g>
	<g>
		<path class="st0" d="M215.67,163.39c0-20.04-11.36-37.39-27.93-46.15c0.08-0.16,0.16-0.39,0.16-0.63V82.13l19.01,21.3
			c1.42,1.5,3.87,1.58,5.36,0.32c1.58-1.42,1.66-3.79,0.32-5.36l-25.01-28c-0.39-0.95-1.03-1.5-1.66-1.81l-0.24-0.24L125.58,1.27
			c-0.63-0.79-1.58-1.26-2.6-1.26c-1.1-0.08-2.05,0.32-2.76,1.03L26.26,87.26c-0.71,0.71-1.18,1.58-1.26,2.6
			c0,1.03,0.39,2.05,1.03,2.76c0.71,0.71,1.66,1.18,2.68,1.26c1.03,0.08,1.97-0.39,2.68-1.03l16.88-15.54v97.35
			c0,6.86,5.6,12.46,12.46,12.46h55.69c0.32,0,0.55-0.16,0.87-0.24c8.6,16.88,26.11,28.56,46.31,28.56
			C192.32,215.45,215.67,192.1,215.67,163.39z M111.54,163.39c0,5.6,0.95,11.04,2.6,16.17H60.74c-2.68,0-4.89-2.21-4.89-4.89
			L55.69,70.61l0.39-0.47l66.42-60.98l57.82,64.53v40.39c-5.29-1.81-10.89-2.76-16.72-2.76c-7.18,0-14.12,1.42-20.67,4.26
			l-0.39,0.16c-9.47,4.18-17.2,10.96-22.56,19.25C114.62,143.27,111.54,153.05,111.54,163.39z M120.06,163.15
			c0-24.14,19.56-43.7,43.7-43.7s43.7,19.56,43.7,43.7c0,24.14-19.56,43.78-43.7,43.78S120.06,187.29,120.06,163.15z"/>
		<path class="st0" d="M231.29,163.7c0-23.43-11.83-44.73-31.71-57.04l-0.08-0.08c-2.29-1.18-4.5-0.39-5.92,2.29
			c-0.39,1.66,0.39,3.55,1.89,4.34c17.51,10.97,28,29.82,28,50.49c0,32.66-26.59,59.24-59.24,59.24c-8.2,0-16.17-1.66-23.67-4.97
			c-1.89-0.87-4.34,0.08-5.13,1.97c-0.87,1.89,0.08,4.26,1.97,5.13c7.26,3.16,14.99,5.05,22.96,5.52v6.55H145.3
			c-1.66-0.08-3.31,1.18-3.79,2.84l-3.16,11.04c-0.32,1.1-0.08,2.37,0.71,3.31c0.71,1.03,1.89,1.66,3,1.66c0,0,0,0,0.08,0h44.18
			c1.18,0,2.29-0.63,3.08-1.66c0.71-0.95,1.03-2.21,0.71-3.31l-3.23-11.2c-0.87-1.74-2.13-2.68-3.71-2.68H168.1v-6.55
			C203.6,228.55,231.29,199.28,231.29,163.7z M180.17,244.96l1.03,3.23h-33.92l0.95-3.23H180.17z"/>
		<path class="st0" d="M90.87,72.11c-10.81,0-19.33,8.52-19.33,19.33v14.44c0,4.89,3.55,8.52,8.52,8.52h21.69
			c4.89,0,8.44-3.63,8.44-8.52V91.44C110.2,80.63,101.68,72.11,90.87,72.11z M102.31,105.88l-0.55,0.63H80.06l-0.63-0.63V91.44
			c0-6.39,5.05-11.44,11.44-11.44s11.44,5.05,11.44,11.44V105.88z"/>
	</g>
</g>
</svg>
