<svg xmlns="http://www.w3.org/2000/svg" viewBox="0 0 250 250"><path d="M159.8 187.9H91c-5.9 0-10.8-4.6-10.8-10.2V97.3c0-4.4 3-8.3 7.4-9.7l28.6-8.8c5.4-1.6 11.2-1.7 16.5-.1l30.2 8.9c4.5 1.3 7.6 5.2 7.6 9.7v80.4c0 5.7-4.8 10.2-10.7 10.2zM124.7 86c-2 0-4 .3-6 .9l-28.6 8.8c-.9.3-1.5.9-1.5 1.7v80.5c0 1 1.1 1.8 2.4 1.8h68.8c1.3 0 2.4-.8 2.4-1.8V97.4c0-.7-.6-1.4-1.5-1.7l-30.2-8.9c-1.9-.6-3.9-.8-5.8-.8zM181.8 72c-.2 0-.4 0-.6 0L125 69l-.8-4.2.3 4.2-55 3a8.83 8.83 0 01-9.3-10.2L61.9 42c0-.1 0-.3.1-.4.8-4.3 4.5-7.3 8.7-7.3h109.6c4.3 0 8 3.1 8.7 7.4 0 .1 0 .3.1.4l1.7 19.9c.4 2.4-.3 5.1-2 7.1-1.9 1.8-4.4 2.9-7 2.9zm-57-11.4c.3 0 .5 0 .8 0l56.2 3c.1 0 .2 0 .4-.2.1-.2.2-.3.1-.5 0-.1 0-.3 0-.3l-1.7-19.8c-.1-.2-.3-.4-.5-.4H70.6c-.2 0-.4.1-.5.4l-1.7 19.7c0 .1 0 .2 0 .4s0 .4.1.5c.2.2.3.2.4.2l55-3c.4 0 .6 0 .9 0zm-60.5 1.6z"/><path d="M103.7 169.2c0 .5-.4.9-.9.9h-2.3a.9.9 0 01-.9-.9v-64c0-.5.4-.9.9-.9h2.3c.5 0 .9.4.9.9v64z"/><path d="M102.7 170.7h-2.3c-.9 0-1.5-.7-1.5-1.6v-64c0-.8.7-1.6 1.5-1.6h2.3c.8 0 1.6.7 1.6 1.6v64c0 .9-.7 1.6-1.6 1.6zm-2.3-65.9c-.2 0-.3.2-.3.3v64c0 .2.2.3.3.3h2.3c.2 0 .3-.2.3-.3v-64c0-.2-.2-.3-.3-.3h-2.3zM115.6 169.2c0 .5-.4.9-.9.9h-2.3a.9.9 0 01-.9-.9v-64c0-.5.4-.9.9-.9h2.3c.5 0 .9.4.9.9v64z"/><path d="M114.7 170.7h-2.3c-.9 0-1.5-.7-1.5-1.6v-64c0-.8.7-1.6 1.5-1.6h2.3c.8 0 1.6.7 1.6 1.6v64c-.1.9-.7 1.6-1.6 1.6zm-2.3-65.9c-.2 0-.3.2-.3.3v64c0 .2.2.3.3.3h2.3c.2 0 .3-.2.3-.3v-64c0-.2-.2-.3-.3-.3h-2.3zM127.6 169.2c0 .5-.4.9-.9.9h-2.3a.9.9 0 01-.9-.9v-64c0-.5.4-.9.9-.9h2.3c.5 0 .9.4.9.9v64z"/><path d="M126.7 170.7h-2.3c-.9 0-1.5-.7-1.5-1.6v-64c0-.8.7-1.6 1.5-1.6h2.3c.8 0 1.6.7 1.6 1.6v64c-.1.9-.8 1.6-1.6 1.6zm-2.4-65.9c-.2 0-.3.2-.3.3v64c0 .2.2.3.3.3h2.3c.2 0 .3-.2.3-.3v-64c0-.2-.2-.3-.3-.3h-2.3zM139.6 169.2c0 .5-.4.9-.9.9h-2.3a.9.9 0 01-.9-.9v-64c0-.5.4-.9.9-.9h2.3c.5 0 .9.4.9.9v64z"/><path d="M138.6 170.7h-2.3c-.9 0-1.6-.7-1.6-1.6v-64c0-.8.7-1.6 1.6-1.6h2.3c.8 0 1.6.7 1.6 1.6v64c0 .9-.7 1.6-1.6 1.6zm-2.3-65.9c-.2 0-.3.2-.3.3v64c0 .2.2.3.3.3h2.3c.2 0 .3-.2.3-.3v-64c0-.2-.2-.3-.3-.3h-2.3z"/><g><path d="M151.6 169.2c0 .5-.4.9-.9.9h-2.3a.9.9 0 01-.9-.9v-64c0-.5.4-.9.9-.9h2.3c.5 0 .9.4.9.9v64z"/><path d="M150.6 170.7h-2.3c-.9 0-1.6-.7-1.6-1.6v-64c0-.8.7-1.6 1.6-1.6h2.3c.8 0 1.6.7 1.6 1.6v64c0 .9-.7 1.6-1.6 1.6zm-2.3-65.9c-.2 0-.3.2-.3.3v64c0 .2.2.3.3.3h2.3c.2 0 .3-.2.3-.3v-64c0-.2-.2-.3-.3-.3h-2.3z"/></g><g><path d="M229.9 234.4c-11.1 0-20.1-9-20.1-20.1v-7.8h-169v7.8a20.1 20.1 0 01-40.2 0v-12c-1.2-21.4-1.5-47.4 3-56.8-1.4-3.9-2.1-8-2.1-12.2 0-17.7 12.2-32.7 29.3-36.9L37.5 32c0-.1 0-.2 0-.3C39.3 20.3 48.4 12 59.2 12h132.3c10.7 0 19.9 8.2 21.6 19.6 0 .1 0 .3 0 .3l6.6 64.7a39.7 39.7 0 0118.4 11.6c6.1 6.9 9.5 15.8 9.5 24.9 0 4.6-.8 9.1-2.5 13.3 4.4 10 4.9 38.4 4.8 55.8v12c.1 11.2-8.9 20.2-20 20.2zM36.7 198.1H214c2.3 0 4.2 1.9 4.2 4.2v12c0 6.4 5.2 11.7 11.7 11.7 6.4 0 11.7-5.2 11.7-11.7v-12c.2-22.3-1.3-48.7-4.1-52.5-1.4-1.2-1.6-3-.9-4.7a29 29 0 002.6-11.9c0-7.1-2.6-14-7.4-19.4-4.4-4.9-10.3-8.4-16.8-9.7-1.8-.4-3.1-1.9-3.3-3.7l-6.8-67.7c-1.1-7.2-6.8-12.4-13.3-12.4H59.2c-6.6 0-12.3 5.3-13.4 12.6L39 100.2c-.2 1.9-1.6 3.4-3.5 3.7-14.8 2.4-25.5 14.7-25.5 29.3 0 3.8.7 7.6 2.2 11.1.7 1.7.2 3.7-1.2 4.9-2.7 3.7-3.1 30.4-1.9 52.9v12.3c0 6.4 5.2 11.7 11.7 11.7s11.7-5.2 11.7-11.7v-12c0-2.4 1.9-4.3 4.2-4.3z"/></g><g><path d="M205.7 155.9c-12.6 0-22.8-10-22.8-22.2s10.2-22.2 22.8-22.2c12.6 0 22.8 10 22.8 22.2s-10.2 22.2-22.8 22.2zm0-36c-8 0-14.4 6.2-14.4 13.8 0 7.6 6.5 13.8 14.4 13.8 8 0 14.4-6.2 14.4-13.8 0-7.6-6.4-13.8-14.4-13.8z"/></g><g><path d="M44.5 155.9c-12.6 0-22.8-10-22.8-22.2s10.2-22.2 22.8-22.2 22.8 10 22.8 22.2c.1 12.2-10.2 22.2-22.8 22.2zm0-36c-8 0-14.4 6.2-14.4 13.8 0 7.6 6.5 13.8 14.4 13.8S59 141.3 59 133.7c0-7.6-6.5-13.8-14.5-13.8z"/></g></svg>