<?xml version="1.0" encoding="utf-8"?>
<!-- Generator: Adobe Illustrator 24.0.0, SVG Export Plug-In . SVG Version: 6.00 Build 0)  -->
<svg version="1.1" id="Layer_1" xmlns="http://www.w3.org/2000/svg" xmlns:xlink="http://www.w3.org/1999/xlink" x="0px" y="0px"
	 viewBox="0 0 250 250" style="enable-background:new 0 0 250 250;" xml:space="preserve">
<g>
	<g>
		<path d="M159.8,187.9H91c-5.9,0-10.8-4.6-10.8-10.2V97.3c0-4.4,3-8.3,7.4-9.7l28.6-8.8c5.4-1.6,11.2-1.7,16.5-0.1l30.2,8.9
			c4.5,1.3,7.6,5.2,7.6,9.7v80.4C170.5,183.4,165.7,187.9,159.8,187.9z M124.7,86c-2,0-4,0.3-6,0.9l-28.6,8.8
			c-0.9,0.3-1.5,0.9-1.5,1.7v80.5c0,1,1.1,1.8,2.4,1.8h68.8c1.3,0,2.4-0.8,2.4-1.8V97.4c0-0.7-0.6-1.4-1.5-1.7l-30.2-8.9
			C128.6,86.2,126.6,86,124.7,86z"/>
	</g>
	<g>
		<path d="M181.8,72c-0.2,0-0.4,0-0.6,0L125,69l-0.8-4.2l0.3,4.2l-55,3c-2.8,0.2-5.5-1-7.3-3.1c-1.7-2-2.4-4.6-2-7.1l1.7-19.8
			c0-0.1,0-0.3,0.1-0.4c0.8-4.3,4.5-7.3,8.7-7.3h109.6c4.3,0,8,3.1,8.7,7.4c0,0.1,0,0.3,0.1,0.4l1.7,19.9c0.4,2.4-0.3,5.1-2,7.1
			C186.9,70.9,184.4,72,181.8,72z M124.8,60.6c0.3,0,0.5,0,0.8,0l56.2,3c0.1,0,0.2,0,0.4-0.2c0.1-0.2,0.2-0.3,0.1-0.5
			c0-0.1,0-0.3,0-0.3l-1.7-19.8c-0.1-0.2-0.3-0.4-0.5-0.4H70.6c-0.2,0-0.4,0.1-0.5,0.4l-1.7,19.7c0,0.1,0,0.2,0,0.4
			c0,0.2,0,0.4,0.1,0.5c0.2,0.2,0.3,0.2,0.4,0.2l55-3C124.3,60.6,124.5,60.6,124.8,60.6z M64.3,62.2L64.3,62.2L64.3,62.2z"/>
	</g>
	<g>
		<path d="M103.7,169.2c0,0.5-0.4,0.9-0.9,0.9h-2.3c-0.5,0-0.9-0.4-0.9-0.9v-64c0-0.5,0.4-0.9,0.9-0.9h2.3c0.5,0,0.9,0.4,0.9,0.9
			V169.2z"/>
		<path d="M102.7,170.7h-2.3c-0.9,0-1.5-0.7-1.5-1.6v-64c0-0.8,0.7-1.6,1.5-1.6h2.3c0.8,0,1.6,0.7,1.6,1.6v64
			C104.3,170,103.6,170.7,102.7,170.7z M100.4,104.8c-0.2,0-0.3,0.2-0.3,0.3v64c0,0.2,0.2,0.3,0.3,0.3h2.3c0.2,0,0.3-0.2,0.3-0.3
			v-64c0-0.2-0.2-0.3-0.3-0.3H100.4z"/>
	</g>
	<g>
		<path d="M115.6,169.2c0,0.5-0.4,0.9-0.9,0.9h-2.3c-0.5,0-0.9-0.4-0.9-0.9v-64c0-0.5,0.4-0.9,0.9-0.9h2.3c0.5,0,0.9,0.4,0.9,0.9
			V169.2z"/>
		<path d="M114.7,170.7h-2.3c-0.9,0-1.5-0.7-1.5-1.6v-64c0-0.8,0.7-1.6,1.5-1.6h2.3c0.8,0,1.6,0.7,1.6,1.6v64
			C116.2,170,115.6,170.7,114.7,170.7z M112.4,104.8c-0.2,0-0.3,0.2-0.3,0.3v64c0,0.2,0.2,0.3,0.3,0.3h2.3c0.2,0,0.3-0.2,0.3-0.3
			v-64c0-0.2-0.2-0.3-0.3-0.3H112.4z"/>
	</g>
	<g>
		<path d="M127.6,169.2c0,0.5-0.4,0.9-0.9,0.9h-2.3c-0.5,0-0.9-0.4-0.9-0.9v-64c0-0.5,0.4-0.9,0.9-0.9h2.3c0.5,0,0.9,0.4,0.9,0.9
			V169.2z"/>
		<path d="M126.7,170.7h-2.3c-0.9,0-1.5-0.7-1.5-1.6v-64c0-0.8,0.7-1.6,1.5-1.6h2.3c0.8,0,1.6,0.7,1.6,1.6v64
			C128.2,170,127.5,170.7,126.7,170.7z M124.3,104.8c-0.2,0-0.3,0.2-0.3,0.3v64c0,0.2,0.2,0.3,0.3,0.3h2.3c0.2,0,0.3-0.2,0.3-0.3
			v-64c0-0.2-0.2-0.3-0.3-0.3H124.3z"/>
	</g>
	<g>
		<path d="M139.6,169.2c0,0.5-0.4,0.9-0.9,0.9h-2.3c-0.5,0-0.9-0.4-0.9-0.9v-64c0-0.5,0.4-0.9,0.9-0.9h2.3c0.5,0,0.9,0.4,0.9,0.9
			V169.2z"/>
		<path d="M138.6,170.7h-2.3c-0.9,0-1.6-0.7-1.6-1.6v-64c0-0.8,0.7-1.6,1.6-1.6h2.3c0.8,0,1.6,0.7,1.6,1.6v64
			C140.2,170,139.5,170.7,138.6,170.7z M136.3,104.8c-0.2,0-0.3,0.2-0.3,0.3v64c0,0.2,0.2,0.3,0.3,0.3h2.3c0.2,0,0.3-0.2,0.3-0.3
			v-64c0-0.2-0.2-0.3-0.3-0.3H136.3z"/>
	</g>
	<g>
		<path d="M151.6,169.2c0,0.5-0.4,0.9-0.9,0.9h-2.3c-0.5,0-0.9-0.4-0.9-0.9v-64c0-0.5,0.4-0.9,0.9-0.9h2.3c0.5,0,0.9,0.4,0.9,0.9
			V169.2z"/>
		<path d="M150.6,170.7h-2.3c-0.9,0-1.6-0.7-1.6-1.6v-64c0-0.8,0.7-1.6,1.6-1.6h2.3c0.8,0,1.6,0.7,1.6,1.6v64
			C152.2,170,151.5,170.7,150.6,170.7z M148.3,104.8c-0.2,0-0.3,0.2-0.3,0.3v64c0,0.2,0.2,0.3,0.3,0.3h2.3c0.2,0,0.3-0.2,0.3-0.3
			v-64c0-0.2-0.2-0.3-0.3-0.3H148.3z"/>
	</g>
	<g>
		<path d="M229.9,234.4c-11.1,0-20.1-9-20.1-20.1v-7.8h-169v7.8c0,11.1-9,20.1-20.1,20.1s-20.1-9-20.1-20.1v-12
			c-1.2-21.4-1.5-47.4,3-56.8c-1.4-3.9-2.1-8-2.1-12.2c0-17.7,12.2-32.7,29.3-36.9L37.5,32c0-0.1,0-0.2,0-0.3
			C39.3,20.3,48.4,12,59.2,12h132.3c10.7,0,19.9,8.2,21.6,19.6c0,0.1,0,0.3,0,0.3l6.6,64.7c7.1,2.1,13.5,6.1,18.4,11.6
			c6.1,6.9,9.5,15.8,9.5,24.9c0,4.6-0.8,9.1-2.5,13.3c4.4,10,4.9,38.4,4.8,55.8v12C250,225.4,241,234.4,229.9,234.4z M36.7,198.1
			H214c2.3,0,4.2,1.9,4.2,4.2v12c0,6.4,5.2,11.7,11.7,11.7c6.4,0,11.7-5.2,11.7-11.7v-12c0.2-22.3-1.3-48.7-4.1-52.5
			c-1.4-1.2-1.6-3-0.9-4.7c1.7-3.8,2.6-7.8,2.6-11.9c0-7.1-2.6-14-7.4-19.4c-4.4-4.9-10.3-8.4-16.8-9.7c-1.8-0.4-3.1-1.9-3.3-3.7
			l-6.8-67.7c-1.1-7.2-6.8-12.4-13.3-12.4H59.2c-6.6,0-12.3,5.3-13.4,12.6L39,100.2c-0.2,1.9-1.6,3.4-3.5,3.7
			c-14.8,2.4-25.5,14.7-25.5,29.3c0,3.8,0.7,7.6,2.2,11.1c0.7,1.7,0.2,3.7-1.2,4.9c-2.7,3.7-3.1,30.4-1.9,52.9l0,12.3
			c0,6.4,5.2,11.7,11.7,11.7s11.7-5.2,11.7-11.7v-12C32.5,200,34.4,198.1,36.7,198.1z"/>
	</g>
	<g>
		<path d="M205.7,155.9c-12.6,0-22.8-10-22.8-22.2c0-12.2,10.2-22.2,22.8-22.2c12.6,0,22.8,10,22.8,22.2
			C228.5,145.9,218.3,155.9,205.7,155.9z M205.7,119.9c-8,0-14.4,6.2-14.4,13.8c0,7.6,6.5,13.8,14.4,13.8c8,0,14.4-6.2,14.4-13.8
			C220.1,126.1,213.7,119.9,205.7,119.9z"/>
	</g>
	<g>
		<path d="M44.5,155.9c-12.6,0-22.8-10-22.8-22.2c0-12.2,10.2-22.2,22.8-22.2s22.8,10,22.8,22.2C67.4,145.9,57.1,155.9,44.5,155.9z
			 M44.5,119.9c-8,0-14.4,6.2-14.4,13.8c0,7.6,6.5,13.8,14.4,13.8S59,141.3,59,133.7C59,126.1,52.5,119.9,44.5,119.9z"/>
	</g>
</g>
</svg>
