<svg xmlns="http://www.w3.org/2000/svg" viewBox="0 0 20.46 32.75"><defs><style>.a{fill:none;stroke:#000;stroke-linecap:round;stroke-linejoin:round;stroke-width:0.75px;}</style></defs><title>754</title><path class="a" d="M16.78,27.48a.86.86,0,0,0-.61.25.88.88,0,0,0-.25.61.86.86,0,0,0,.25.61.85.85,0,0,0,1.22,0,.85.85,0,0,0,.25-.61A.86.86,0,0,0,16.78,27.48Z" transform="translate(-5.77 0.38)"/><path class="a" d="M16.07,8.31V2.16a2.16,2.16,0,1,0-4.31,0v.61" transform="translate(-5.77 0.38)"/><path class="a" d="M15.69,8.56a3.22,3.22,0,0,1-2.77,1.63,3.94,3.94,0,0,1-2.84-1.42.3.3,0,0,0-.43,0,.32.32,0,0,0-.1.33l2.36,6.68H6.39a.32.32,0,0,0-.25.31V28.92a.3.3,0,0,0,.08.2l2.47,2.77a.28.28,0,0,0,.23.11H23.08a.28.28,0,0,0,.23-.11l2.47-2.77a.3.3,0,0,0,.08-.2V16.05a.31.31,0,0,0-.31-.31H20.09l2.36-6.68a.31.31,0,0,0-.21-.39.33.33,0,0,0-.32.1,3.94,3.94,0,0,1-2.84,1.42,3.22,3.22,0,0,1-2.77-1.63Z" transform="translate(-5.77 0.38)"/><path class="a" d="M12.61,5" transform="translate(-5.77 0.38)"/><path class="a" d="M16.65,26.19h0a.84.84,0,0,1,.07-.39,1,1,0,0,1,.23-.23,7.24,7.24,0,0,0,1.29-.92A2.47,2.47,0,0,0,19,22.81a2.67,2.67,0,0,0-5.34,0" transform="translate(-5.77 0.38)"/><line class="a" x1="6.14" y1="16.11" x2="14.32" y2="16.11"/><line class="a" x1="9.92" y1="8.93" x2="9.98" y2="15.8"/></svg>