<?xml version="1.0" encoding="utf-8"?>
<!-- Generator: Adobe Illustrator 24.0.0, SVG Export Plug-In . SVG Version: 6.00 Build 0)  -->
<svg version="1.1" id="Layer_1" xmlns="http://www.w3.org/2000/svg" xmlns:xlink="http://www.w3.org/1999/xlink" x="0px" y="0px"
	 viewBox="0 0 256 256" style="enable-background:new 0 0 256 256;" xml:space="preserve">
<path d="M1.9,149.8l2.4,10.8l3.3,10.7l4.4,10.2l5.1,9.9l6.1,9.4l6.8,8.8l7.6,8.2l8.2,7.6l8.9,6.7l9.4,6l9.9,5.1l10.3,4.3l10.7,3.3
	l10.9,2.4l11.1,1.4l11.1,0.5l11.2-0.5l11.1-1.4l10.8-2.4l10.6-3.3l10.3-4.3l9.9-5.1l9.4-6l8.9-6.7l8.2-7.6l7.6-8.2l6.8-8.9l6-9.4
	l5.1-9.9l4.3-10.3l3.3-10.6l2.4-10.9l1.4-11.1l0.5-11.1l-0.5-11.1l-1.4-11.1l-2.5-10.8l-3.3-10.6L244,73.7l-5.1-9.9l-6-9.4l-6.8-8.8
	l-7.6-8.2l-8.2-7.6l-8.9-6.7l-9.3-6l-9.9-5.1l-10.3-4.3l-10.6-3.3l-10.9-2.4l-11.1-1.4L128,0l-11.2,0.5l-11.1,1.4L94.8,4.4L84.2,7.7
	L73.9,12L64,17.1l-9.4,6l-8.9,6.7l-8.2,7.6l-7.6,8.2l-6.7,8.8l-6.1,9.3L12,73.7L7.7,84L4.3,94.6l-2.4,10.9l-1.4,11.1L0,127.6
	l0.5,11.1L1.9,149.8z M2.3,116.7l1.4-10.9l2.4-10.7l3.3-10.5l4.3-10.1l5.1-9.8l5.9-9.2l6.7-8.7l7.5-8.1l8.1-7.5l8.8-6.6l9.2-5.9
	l9.8-5l10.2-4.2l10.5-3.3L106,3.7l11-1.4l11-0.5l11,0.5l10.9,1.4l10.7,2.4l10.5,3.3l10.1,4.2l9.8,5l9.2,5.9l8.8,6.6l8.1,7.4l7.5,8.1
	l6.7,8.7l5.9,9.2l5.1,9.7l4.2,10.1l3.3,10.5l2.4,10.7l1.4,10.9l0.5,10.9l-0.5,10.9l-1.4,10.9l-2.4,10.7l-3.3,10.5l-4.2,10.1l-5,9.7
	l-6,9.2l-6.6,8.7l-7.5,8.1l-8.1,7.4l-8.7,6.6l-9.2,5.9l-9.8,5l-10.2,4.3l-10.5,3.3l-10.7,2.4l-11,1.4l-11,0.5l-10.9-0.5l-11-1.4
	L95.3,249l-10.5-3.3l-10.2-4.2l-9.8-5l-9.2-5.9l-8.8-6.6l-8.1-7.5l-7.5-8.1l-6.6-8.7l-6-9.2l-5.1-9.7l-4.2-10.1l-3.3-10.5l-2.4-10.6
	l-1.4-10.9l-0.5-11L2.3,116.7z"/>
<path d="M96.3,213.1l7.6-1.2l7.5-1.9l7.2-2.6l7.1-3.2l6.6-3.9l6.3-4.4l5.9-5l5.4-5.5l4.9-6l4.2-6.4l3.7-6.7l3.1-7l2.4-7.3l1.7-7.5
	l1.1-7.6l0.4-7.7l-0.4-7.7l-1.1-7.6l-1.7-7.4l-2.4-7.3l-3.1-7l-3.7-6.8l-4.2-6.4l-4.9-5.9l-5.4-5.5l-5.9-5l-6.3-4.4l-6.6-3.9
	l-7.1-3.2l-7.2-2.5l-7.5-1.9l-7.6-1.2l-7.7-0.5l-3.8,0v168.4l3.8,0.1L96.3,213.1z M90.6,99.8l0.8-1.2l1.1-0.9l1.2-0.6l1.3-0.4l1.4,0
	l1.3,0.3l1.3,0.6l1.1,0.8l0.8,1.1h1.2l-0.1-1.2l-0.1-1.3l-0.2-1.2l-0.3-1.2L99.7,94l-2.8-1.2l-1.1-0.7l-0.7-0.8l-0.4-0.9l-0.1-1
	l0.3-1l0.5-0.9l0.9-0.6l1-0.4l1.1-0.2l1.1,0.1l0.8,0.3l0.8,0.4l0.8,0.5l0.9,0.7l1.4,0.9l1.5,0.9l1.8,0.8l-0.1,2.1l0.3,2.1l0.7,2.1
	l1.1,1.9l1.4,1.6l1.7,1.3l-1.7,1.3l-1.3,1.6l-1.1,1.8l-0.7,2l-0.2,2l0.1,2.3l-1.8,0.6l-1.8,0.8l-1.6,1l-1.5,1.2l-1.2,1l-0.9,0.3
	l-1,0.1l-1-0.3l-0.8-0.6l-0.6-0.8l-0.3-1l0.1-1l0.4-0.9l1-1.4l1.8-1.2l2-1l0.8-0.4l0.3-1l0.2-1.6l0.1-1.6l-1.1-0.1l-0.8,1.1
	l-1.1,0.8l-1.3,0.7l-1.4,0.3l-1.4,0l-1.3-0.4l-1.2-0.6l-1-0.9l-0.8-1.1l-0.5-1.3l-0.2-1.4l0.2-1.3L90.6,99.8z M146.4,86.7l1.9,2
	l1.7,2.2l1.5,2.3l1.4,2.4l1.2,2.5l0.9,2.5l0.8,2.6l0.4,2.7l0.2,2.6l-0.1,2.6l-0.4,2.6l-0.6,2.9l-1,2.7l-1.4,2.6l-1.8,2.3l-2.2,2.1
	l-1.8,1.4l-2.4,1.2l-2.5,0.8l-2.6,0.4h-2.7h-23.1h-0.4l-0.4,0.2l-0.3,0.3l-0.2,0.4l-0.1,0.5l0.1,0.4l0.2,0.4l0.3,0.3l0.4,0.2h0.4
	h21.9l2.4,0.1l2.3,0.4l2.2,0.8l2,1.2l1.8,1.4l1.6,1.7l1.2,2l1,2.1l0.5,2.3l0.2,2.4l-0.2,2.3l-0.5,2.3l-1,2.1l-1.2,2l-1.6,1.7
	l-1.8,1.5l-2,1.1l-2.2,0.8l-2.3,0.4l-2.4,0H114h-0.5l-0.3,0.2l-0.3,0.3l-0.2,0.4v0.4v0.4l0.2,0.4l0.3,0.3l0.3,0.2l0.5,0h17.1
	l1.9,0.2l1.7,0.6l1.5,1l1.3,1.3l1,1.5l0.5,1.7l0.2,1.8l-0.2,1.8l-0.5,1.7l-1,1.5l-1.3,1.3l-1.5,0.9l-1.7,0.6l-1.9,0.2H120l-0.2,0.1
	l-0.2,0.1l-0.2,0.2l-0.1,0.2l0.1,0.3l0.2,0.2l0.2,0.1l0.2,0.1h8.6l0.8,0.1l0.9,0.2l0.6,0.4l0.6,0.7l0.3,0.8l0.1,0.8l-0.1,0.8
	l-0.3,0.8l-0.7,1.3l-1.3,1.2l-1.4,1.1l-0.8,0.4l-0.3,0.3l0.3-0.7v-0.7l-0.2-0.7l-0.5-0.5l-0.7-0.3h-0.8h-6.9l-1.5,0l-1.5-0.4
	L114,186l-1.2-1.1l-0.9-1.2l-0.5-1.5l-0.2-1.6l0.2-1.5l0.5-1.5l0.9-1.3l1.2-1.1l1.4-0.8l1.5-0.4l1.5-0.1h11l0.4-0.1l0.4-0.2l0.3-0.4
	l0.1-0.4l-0.1-0.5l-0.3-0.3l-0.4-0.2l-0.4-0.1h-17.7l-2.2-0.1l-2.1-0.5l-2-1l-1.7-1.4l-1.4-1.7l-1.1-1.9l-0.7-2.1l-0.2-2.2l0.2-2.2
	l0.7-2.1l1.1-1.9l1.4-1.6l1.7-1.3l2-0.9l2.1-0.6l2.2-0.1h22.1h0.5l0.4-0.3l0.3-0.4l0.1-0.5l-0.1-0.5l-0.3-0.4l-0.4-0.2l-0.5-0.1
	h-22.1l-2.8-0.3l-2.7-0.8l-2.6-1.2l-2.3-1.7l-2-2l-1.6-2.4l-1.2-2.6l-0.7-2.8l-0.3-2.8l0.3-2.9l0.7-2.7l1.2-2.6l1.6-2.3l2-2l2.3-1.7
	l2.6-1.3l2.7-0.7l2.8-0.4h11.6l1,0l0.6-0.1l0.6-0.4l0.4-0.6l0.1-0.6l-0.1-0.6l-0.3-0.3l-0.4-0.2h-1h-14.6l0.1-2.2l0.5-2.1l1.1-1.8
	l1.6-1.5l1.9-1.1l2.1-0.4h5.3v-1.7h-5.3l-2.1-0.2l-2-0.9l-1.7-1.4l-1.2-1.8l-0.6-2l0-2.2h11.4l0.6-1.9l0.7-1.2l0.3-0.5h18.4l3.8-4.2
	L146.4,86.7z M137.1,81.1h-30.3v-2.9h30.3V81.1z M137.1,81.6v3h-30.3v-3H137.1z M131.7,69.8l0.2-0.6l0.2-0.5l0.4-0.5l0.5-0.4
	l0.6-0.3l0.6-0.1l0.6,0.1l0.6,0.2l0.6,0.3l0.5,0.5l0.3,0.5l0.2,0.6l0.1,0.6l-0.1,0.7l-0.2,0.5l-0.3,0.6l-0.5,0.4l-0.6,0.4l-0.6,0.2
	l-0.6,0l-0.6-0.1l-0.6-0.2l-0.5-0.4l-0.4-0.4l-0.2-0.6l-0.2-0.6L131.7,69.8L131.7,69.8z M125.4,69.8l0.1-0.6l0.3-0.5l0.4-0.5
	l0.5-0.4l0.6-0.3l0.7-0.1l0.6,0.1l0.6,0.2l0.6,0.3l0.4,0.5l0.4,0.5l0.2,0.6l0.1,0.6l-0.1,0.7l-0.2,0.5l-0.4,0.6l-0.4,0.4l-0.6,0.4
	l-0.6,0.2l-0.6,0l-0.7-0.1l-0.6-0.2l-0.5-0.4l-0.4-0.4l-0.3-0.6l-0.1-0.6V69.8z M119.1,69.8l0.1-0.6l0.3-0.5l0.4-0.5l0.5-0.4
	l0.6-0.3l0.6-0.1l0.6,0.1l0.6,0.2l0.6,0.3l0.5,0.5l0.3,0.5l0.3,0.6l0.1,0.6l-0.1,0.7l-0.3,0.5l-0.3,0.6l-0.5,0.4l-0.6,0.4l-0.6,0.2
	l-0.6,0l-0.6-0.1l-0.6-0.2l-0.5-0.4l-0.4-0.4l-0.3-0.6l-0.1-0.6V69.8z M112.9,69.8l0.2-0.6l0.3-0.5l0.4-0.5l0.5-0.4l0.6-0.3l0.6-0.1
	l0.7,0.1l0.6,0.2l0.6,0.3l0.4,0.5l0.4,0.5l0.2,0.6l0.1,0.6l-0.1,0.7l-0.2,0.5l-0.4,0.6l-0.4,0.4l-0.6,0.4l-0.6,0.2l-0.7,0l-0.6-0.1
	l-0.6-0.2l-0.5-0.4l-0.4-0.4l-0.3-0.6l-0.2-0.6V69.8z M106.6,69.8l0.2-0.6l0.2-0.5l0.4-0.5l0.5-0.4l0.6-0.3l0.6-0.1l0.6,0.1l0.6,0.2
	l0.6,0.3l0.5,0.5l0.3,0.5l0.2,0.6l0.1,0.6l-0.1,0.7l-0.2,0.5l-0.3,0.6l-0.5,0.4l-0.6,0.4l-0.6,0.2l-0.6,0l-0.6-0.1l-0.6-0.2
	l-0.5-0.4l-0.4-0.4l-0.2-0.6l-0.2-0.6V69.8z M106.6,74.6h30.3v2.9h-30.3V74.6z"/>
<polygon points="127.9,22.2 128.4,22.2 129,21.9 129.5,21.6 129.9,21.1 130.2,20.5 130.4,19.7 130.4,19.1 130.2,18.5 129.8,17.8 
	129.3,17.4 128.8,17.1 128.1,16.9 127.7,16.9 125.7,16.9 125.6,22.2 127.7,22.2 "/>
<path d="M7.7,148.7l2.3,10.3l3.2,10.1l4.1,9.8l4.9,9.4l2.7,4.1l3.1,4.8l6.4,8.4l7.2,7.9l1.1,1l4.7,4.3l2.1,1.9l8.4,6.5l9,5.7
	l2.8,1.4l6.7,3.5l9.9,4.1l10.1,3.2l10.4,2.3l10.6,1.4l10.7,0.4l0.3,0l10.3-0.4l10.6-1.4l10.4-2.3l2-0.6l8.2-2.6l9.9-4.1l9.4-4.9
	l9-5.7l8.5-6.4l6.8-6.2l1.1-1l7.2-7.9l6.5-8.4l4.1-6.4l1.6-2.5l4.9-9.4l4.1-9.8l3.1-10.1l2.3-10.4l1.4-10.5l0.5-10.7l-0.5-10.5
	l-1.4-10.6L246,96.1L242.8,86l-4.1-9.8l-4.9-9.4l-1.6-2.5l-4.1-6.4l-6.5-8.4l-7.2-7.9l-1.1-1l-6.8-6.2l-8.5-6.5l-9-5.7l-9.4-4.9
	l-9.9-4l-8.2-2.6l-1.9-0.6l-10.4-2.3l-10.6-1.4l-10.3-0.4H128l-10.7,0.4l-10.6,1.4L96.4,10l-10.2,3.2l-9.9,4l-6.7,3.5l-2.8,1.4
	l-9,5.7l-8.4,6.4l-2.1,1.9l-4.7,4.3l-1.1,1l-7.1,7.8L28,57.8l-3.1,4.8l-2.7,4.2l-4.9,9.4L13.2,86L10,96.1l-2.3,10.4L6.3,117
	l-0.4,10.6l0.4,10.6L7.7,148.7z M237,102.3l1.2,0.6l1.1,0.8l1.1,0.9l1,1.1l0.8,1.2l0.7,1.3l0.6,1.5l0.4,1.5l0.2,1.6l0.1,1.6
	l-0.1,1.6l-0.2,1.5l-0.4,1.3l-0.6,1.3l-0.7,1.3l-0.9,1.2l-1.1,1l-1.2,0.9l-1.3,0.7l-1.4,0.6l-1.4,0.4l-1.4,0.2l-1.2,0H232l-1.4,0
	l-1.4-0.2l-1.3-0.5l-1.4-0.6l-1.3-0.8l-1.1-1l-1-1.1l-0.9-1.3l-0.7-1.3l-0.6-1.4l-0.4-1.4l-0.3-1.4l-0.1-1.6l0.1-1.6l0.2-1.6
	l0.4-1.4l0.5-1.3l0.7-1.2l0.8-1.2l1-1.1l1.1-0.9l1.2-0.8l1.2-0.6l1.4-0.4l1.3-0.3l1.4-0.1h0.8h0.7l1.5,0.1l1.4,0.4L237,102.3z
	 M229.2,69.5l6.2,12.4l-4.4,2.2l-3.4-6.8l-3.4,1.8l2.9,5.7l-4.5,2.3l-2.9-5.7l-3.6,1.8l3.4,6.8l-4.8,2.4l-6.3-12.5L229.2,69.5z
	 M197.2,33.5l5.1,4.6l-4.8,12.2l11.5-6.2l5.1,4.5l-12.4,19.9l-4.8-4.2l8-12.1l-13.1,7.4l-2.6-2.3l5.5-14.2l-10.8,9.4l-4.8-4.3
	L197.2,33.5z M149,27.9l0.2-1.4l0.3-1.3l0.5-1.4l0.6-1.3l0.8-1.2l0.9-1.1l1-0.9l1-0.8l1.1-0.7l1.4-0.5l1.4-0.4l1.4-0.2l1.5-0.1
	l0.4,0l1.1,0.1l1.6,0.3l1.5,0.5l1.4,0.6l1.4,0.8l1.2,0.9l1.1,1l0.9,1.1l0.9,1.2l0.6,1.4l0.5,1.4l0.3,1.5l0.1,1.5l-0.1,1.5l-0.3,1.5
	l-0.5,1.4l-0.5,1.3l-0.7,1.2l-0.9,1l-1,1.1l-1.1,0.9l-1.3,0.8l-1.4,0.6l-1.4,0.4l-1.5,0.2l-1.5,0l-0.5,0l-1-0.1l-1.5-0.2l-1.4-0.4
	l-1.5-0.6l-1.4-0.8l-1.3-0.8l-1.1-1l-1-1l-0.8-1.1l-0.7-1.3l-0.5-1.3l-0.3-1.4l-0.2-1.4L149,27.9z M120.1,11.7l8.2,0.1h0.6l1.7,0.1
	l1.1,0.3l1.1,0.3l0.9,0.5l0.9,0.6l0.7,0.7l0.6,0.8l0.5,0.9l0.4,1l0.2,1l0,1l-0.1,1l-0.2,1l-0.3,0.8l-0.4,0.8l-0.6,0.8l-0.7,0.7
	l-0.8,0.5l-0.8,0.5l-0.8,0.3l7.2,9.5l-7.6-0.1l-5.8-8.6l-0.1,8.5l-6.2,0L120.1,11.7z M92.6,47l7.2-2.8l7.4-2.1l7.5-1.5l7.7-0.8
	l5.8-0.1l1.9,0l7.8,0.4l7.6,1.2l7.5,1.8l7.3,2.4l1.1,0.5l5.9,2.6l6.8,3.7l6.5,4.2l6.1,4.8l5.6,5.3l5.2,5.7l4.6,6.1l4.1,6.5l3.5,6.9
	l3,7.1l0.4,1.2l1.9,6.1l1.6,7.5l1,7.7l0.3,7.7l-0.3,7.7l-1,7.7l-1.6,7.5l-1.9,6.1l-0.4,1.2l-3,7.2l-3.5,6.8l-4.1,6.5l-4.6,6.2
	l-5.2,5.7l-5.6,5.3l-6.1,4.8l-6.4,4.3l-6.8,3.6l-5.9,2.6l-1.1,0.5l-7.3,2.4l-7.5,1.8l-7.6,1.2l-7.8,0.5l-1.9,0l-5.8-0.1l-7.7-0.9
	l-7.5-1.5l-7.4-2.1l-7.2-2.7l-6.9-3.4L79,204l-6.2-4.5l-3.1-2.6l-2.9-2.4l-5.4-5.5l-4.9-5.9l-4.4-6.3l-3.8-6.8l-1-2l-2.3-4.9
	l-2.4-6.7l-0.2-0.6l-2-7.4l-1.3-7.6l-0.7-7.7v-7.7l0.7-7.6l1.3-7.6l2-7.4l0.2-0.6l2.4-6.7l2.3-5l1-2l3.8-6.7l4.4-6.3l4.9-6l5.4-5.5
	l2.9-2.4l3.1-2.6l6.2-4.5l6.7-4L92.6,47z M62.2,32.2l20.9,13.4l-5.3,3.8L74,47l-7,5.1l1.3,4.3L63,60.2l-6.8-23.6L62.2,32.2z
	 M43.1,48.3l3.8,3.2l-4.7,5.6l2.8,2.4l4-4.7l4,3.3l-3.9,4.7l7.2,6l-4.1,4.9L34.4,58.8L43.1,48.3z M23,78.3l16,7.5l3-6.3l0.8,0.4
	l4.2,2L41.1,94l-21-10L23,78.3z M13.3,109.1l24.2-5.8l-0.9,6.5l-4.3,1l-1.2,8.5l3.9,2l-0.9,6.4l-21.8-11.5L13.3,109.1z"/>
<polygon points="129.1,107.8 128,107.8 127.9,107.8 126.8,107.8 125.8,108.1 124.8,108.5 123.8,109.1 123.1,109.8 122.5,110.7 
	122,111.6 121.7,112.6 121.6,113.6 121.6,114.7 121.8,115.8 122.2,116.7 122.8,117.7 123.5,118.4 124.3,119.1 125.3,119.6 
	126.3,119.9 127.3,120.1 128,120.1 128.4,120.1 129.5,119.9 130.4,119.6 131.4,119.1 132.2,118.5 133,117.7 133.7,116.8 
	134.1,115.9 134.4,114.8 134.4,113.8 134.3,112.7 134,111.6 133.5,110.6 132.9,109.8 132.1,109.1 131.1,108.5 130.2,108.1 "/>
<polygon points="131.6,117.1 132.3,111.7 123.7,113.3 "/>
</svg>
