<svg xmlns="http://www.w3.org/2000/svg" viewBox="0 0 256 256"><path d="M1.9 149.8l2.4 10.8 3.3 10.7 4.4 10.2 5.1 9.9 6.1 9.4 6.8 8.8 7.6 8.2 8.2 7.6 8.9 6.7 9.4 6 9.9 5.1 10.3 4.3 10.7 3.3 10.9 2.4 11.1 1.4 11.1.5 11.2-.5 11.1-1.4 10.8-2.4 10.6-3.3 10.3-4.3 9.9-5.1 9.4-6 8.9-6.7 8.2-7.6 7.6-8.2 6.8-8.9 6-9.4 5.1-9.9 4.3-10.3 3.3-10.6 2.4-10.9 1.4-11.1.5-11.1-.5-11.1-1.4-11.1-2.5-10.8-3.3-10.6-4.2-10.1-5.1-9.9-6-9.4-6.8-8.8-7.6-8.2-8.2-7.6-8.9-6.7-9.3-6-9.9-5.1-10.3-4.3-10.6-3.3L150.4 2 139.3.6 128 0l-11.2.5-11.1 1.4-10.9 2.5-10.6 3.3L73.9 12 64 17.1l-9.4 6-8.9 6.7-8.2 7.6-7.6 8.2-6.7 8.8-6.1 9.3-5.1 10L7.7 84 4.3 94.6l-2.4 10.9-1.4 11.1-.5 11 .5 11.1 1.4 11.1zm.4-33.1l1.4-10.9 2.4-10.7 3.3-10.5 4.3-10.1 5.1-9.8 5.9-9.2 6.7-8.7 7.5-8.1 8.1-7.5 8.8-6.6 9.2-5.9 9.8-5L85 9.5l10.5-3.3L106 3.7l11-1.4 11-.5 11 .5 10.9 1.4 10.7 2.4 10.5 3.3 10.1 4.2 9.8 5 9.2 5.9 8.8 6.6 8.1 7.4 7.5 8.1 6.7 8.7 5.9 9.2 5.1 9.7 4.2 10.1 3.3 10.5 2.4 10.7 1.4 10.9.5 10.9-.5 10.9-1.4 10.9-2.4 10.7-3.3 10.5-4.2 10.1-5 9.7-6 9.2-6.6 8.7-7.5 8.1-8.1 7.4-8.7 6.6-9.2 5.9-9.8 5-10.2 4.3-10.5 3.3L150 251l-11 1.4-11 .5-10.9-.5-11-1.4-10.8-2-10.5-3.3-10.2-4.2-9.8-5-9.2-5.9-8.8-6.6-8.1-7.5-7.5-8.1-6.6-8.7-6-9.2-5.1-9.7-4.2-10.1L6 160.2l-2.4-10.6-1.4-10.9-.5-11 .6-11z"/><path d="M96.3 213.1l7.6-1.2 7.5-1.9 7.2-2.6 7.1-3.2 6.6-3.9 6.3-4.4 5.9-5 5.4-5.5 4.9-6 4.2-6.4 3.7-6.7 3.1-7 2.4-7.3 1.7-7.5 1.1-7.6.4-7.7-.4-7.7-1.1-7.6-1.7-7.4-2.4-7.3-3.1-7-3.7-6.8-4.2-6.4-4.9-5.9-5.4-5.5-5.9-5-6.3-4.4-6.6-3.9-7.1-3.2-7.2-2.5-7.5-1.9-7.6-1.2-7.7-.5h-3.8v168.4l3.8.1 7.7-.4zM90.6 99.8l.8-1.2 1.1-.9 1.2-.6 1.3-.4h1.4l1.3.3 1.3.6 1.1.8.8 1.1h1.2l-.1-1.2-.1-1.3-.2-1.2-.3-1.2-1.7-.6-2.8-1.2-1.1-.7-.7-.8-.4-.9-.1-1 .3-1 .5-.9.9-.6 1-.4 1.1-.2 1.1.1.8.3.8.4.8.5.9.7 1.4.9 1.5.9 1.8.8-.1 2.1.3 2.1.7 2.1 1.1 1.9 1.4 1.6 1.7 1.3-1.7 1.3-1.3 1.6-1.1 1.8-.7 2-.2 2 .1 2.3-1.8.6-1.8.8-1.6 1-1.5 1.2-1.2 1-.9.3-1 .1-1-.3-.8-.6-.6-.8-.3-1 .1-1 .4-.9 1-1.4 1.8-1.2 2-1 .8-.4.3-1 .2-1.6.1-1.6-1.1-.1-.8 1.1-1.1.8-1.3.7-1.4.3h-1.4l-1.3-.4-1.2-.6-1-.9-.8-1.1-.5-1.3-.2-1.4.2-1.3.6-1.2zm55.8-13.1l1.9 2 1.7 2.2 1.5 2.3 1.4 2.4 1.2 2.5.9 2.5.8 2.6.4 2.7.2 2.6-.1 2.6-.4 2.6-.6 2.9-1 2.7-1.4 2.6-1.8 2.3-2.2 2.1-1.8 1.4-2.4 1.2-2.5.8-2.6.4h-26.2l-.4.2-.3.3-.2.4-.1.5.1.4.2.4.3.3.4.2H135.7l2.4.1 2.3.4 2.2.8 2 1.2 1.8 1.4 1.6 1.7 1.2 2 1 2.1.5 2.3.2 2.4-.2 2.3-.5 2.3-1 2.1-1.2 2-1.6 1.7-1.8 1.5-2 1.1-2.2.8-2.3.4H113.5l-.3.2-.3.3-.2.4v.8l.2.4.3.3.3.2h17.6l1.9.2 1.7.6 1.5 1 1.3 1.3 1 1.5.5 1.7.2 1.8-.2 1.8-.5 1.7-1 1.5-1.3 1.3-1.5.9-1.7.6-1.9.2H120l-.2.1-.2.1-.2.2-.1.2.1.3.2.2.2.1.2.1h8.6l.8.1.9.2.6.4.6.7.3.8.1.8-.1.8-.3.8-.7 1.3-1.3 1.2-1.4 1.1-.8.4-.3.3.3-.7v-.7l-.2-.7-.5-.5-.7-.3h-9.2l-1.5-.4-1.2-1-1.2-1.1-.9-1.2-.5-1.5-.2-1.6.2-1.5.5-1.5.9-1.3 1.2-1.1 1.4-.8 1.5-.4 1.5-.1h11l.4-.1.4-.2.3-.4.1-.4-.1-.5-.3-.3-.4-.2-.4-.1h-17.7l-2.2-.1-2.1-.5-2-1-1.7-1.4-1.4-1.7-1.1-1.9-.7-2.1-.2-2.2.2-2.2.7-2.1 1.1-1.9 1.4-1.6 1.7-1.3 2-.9 2.1-.6 2.2-.1h22.6l.4-.3.3-.4.1-.5-.1-.5-.3-.4-.4-.2-.5-.1h-22.1l-2.8-.3-2.7-.8-2.6-1.2-2.3-1.7-2-2-1.6-2.4-1.2-2.6-.7-2.8-.3-2.8.3-2.9.7-2.7 1.2-2.6 1.6-2.3 2-2 2.3-1.7 2.6-1.3 2.7-.7 2.8-.4h12.6l.6-.1.6-.4.4-.6.1-.6-.1-.6-.3-.3-.4-.2h-15.6l.1-2.2.5-2.1 1.1-1.8 1.6-1.5 1.9-1.1 2.1-.4h5.3v-1.7h-5.3l-2.1-.2-2-.9-1.7-1.4-1.2-1.8-.6-2v-2.2h11.4l.6-1.9.7-1.2.3-.5h18.4l3.8-4.2 1.9 2.1zm-9.3-5.6h-30.3v-2.9h30.3v2.9zm0 .5v3h-30.3v-3h30.3zm-5.4-11.8l.2-.6.2-.5.4-.5.5-.4.6-.3.6-.1.6.1.6.2.6.3.5.5.3.5.2.6.1.6-.1.7-.2.5-.3.6-.5.4-.6.4-.6.2h-.6l-.6-.1-.6-.2-.5-.4-.4-.4-.2-.6-.2-.6v-.9zm-6.3 0l.1-.6.3-.5.4-.5.5-.4.6-.3.7-.1.6.1.6.2.6.3.4.5.4.5.2.6.1.6-.1.7-.2.5-.4.6-.4.4-.6.4-.6.2h-.6l-.7-.1-.6-.2-.5-.4-.4-.4-.3-.6-.1-.6v-.9zm-6.3 0l.1-.6.3-.5.4-.5.5-.4.6-.3.6-.1.6.1.6.2.6.3.5.5.3.5.3.6.1.6-.1.7-.3.5-.3.6-.5.4-.6.4-.6.2h-.6l-.6-.1-.6-.2-.5-.4-.4-.4-.3-.6-.1-.6v-.9zm-6.2 0l.2-.6.3-.5.4-.5.5-.4.6-.3.6-.1.7.1.6.2.6.3.4.5.4.5.2.6.1.6-.1.7-.2.5-.4.6-.4.4-.6.4-.6.2h-.7l-.6-.1-.6-.2-.5-.4-.4-.4-.3-.6-.2-.6v-.9zm-6.3 0l.2-.6.2-.5.4-.5.5-.4.6-.3.6-.1.6.1.6.2.6.3.5.5.3.5.2.6.1.6-.1.7-.2.5-.3.6-.5.4-.6.4-.6.2h-.6l-.6-.1-.6-.2-.5-.4-.4-.4-.2-.6-.2-.6v-.9zm0 4.8h30.3v2.9h-30.3v-2.9zM127.9 22.2h.5l.6-.3.5-.3.4-.5.3-.6.2-.8v-.6l-.2-.6-.4-.7-.5-.4-.5-.3-.7-.2h-2.4l-.1 5.3h2.1z"/><path d="M7.7 148.7L10 159l3.2 10.1 4.1 9.8 4.9 9.4 2.7 4.1 3.1 4.8 6.4 8.4 7.2 7.9 1.1 1 4.7 4.3 2.1 1.9 8.4 6.5 9 5.7 2.8 1.4 6.7 3.5 9.9 4.1 10.1 3.2 10.4 2.3 10.6 1.4 10.7.4h.3l10.3-.4 10.6-1.4 10.4-2.3 2-.6 8.2-2.6 9.9-4.1 9.4-4.9 9-5.7 8.5-6.4 6.8-6.2 1.1-1 7.2-7.9 6.5-8.4 4.1-6.4 1.6-2.5 4.9-9.4 4.1-9.8 3.1-10.1 2.3-10.4 1.4-10.5.5-10.7-.5-10.5-1.4-10.6-2.4-10.3-3.2-10.1-4.1-9.8-4.9-9.4-1.6-2.5-4.1-6.4-6.5-8.4-7.2-7.9-1.1-1-6.8-6.2-8.5-6.5-9-5.7-9.4-4.9-9.9-4-8.2-2.6-1.9-.6-10.4-2.3-10.6-1.4-10.3-.4h-.3l-10.7.4-10.6 1.4L96.4 10l-10.2 3.2-9.9 4-6.7 3.5-2.8 1.4-9 5.7-8.4 6.4-2.1 1.9-4.7 4.3-1.1 1-7.1 7.8-6.4 8.6-3.1 4.8-2.7 4.2-4.9 9.4-4.1 9.8L10 96.1l-2.3 10.4L6.3 117l-.4 10.6.4 10.6 1.4 10.5zM237 102.3l1.2.6 1.1.8 1.1.9 1 1.1.8 1.2.7 1.3.6 1.5.4 1.5.2 1.6.1 1.6-.1 1.6-.2 1.5-.4 1.3-.6 1.3-.7 1.3-.9 1.2-1.1 1-1.2.9-1.3.7-1.4.6-1.4.4-1.4.2h-2.9l-1.4-.2-1.3-.5-1.4-.6-1.3-.8-1.1-1-1-1.1-.9-1.3-.7-1.3-.6-1.4-.4-1.4-.3-1.4-.1-1.6.1-1.6.2-1.6.4-1.4.5-1.3.7-1.2.8-1.2 1-1.1 1.1-.9 1.2-.8 1.2-.6 1.4-.4 1.3-.3 1.4-.1h1.5l1.5.1 1.4.4 1.2.5zm-7.8-32.8l6.2 12.4-4.4 2.2-3.4-6.8-3.4 1.8 2.9 5.7-4.5 2.3-2.9-5.7-3.6 1.8 3.4 6.8-4.8 2.4-6.3-12.5 20.8-10.4zm-32-36l5.1 4.6-4.8 12.2 11.5-6.2 5.1 4.5-12.4 19.9-4.8-4.2 8-12.1-13.1 7.4-2.6-2.3 5.5-14.2-10.8 9.4-4.8-4.3 18.1-14.7zM149 27.9l.2-1.4.3-1.3.5-1.4.6-1.3.8-1.2.9-1.1 1-.9 1-.8 1.1-.7 1.4-.5 1.4-.4 1.4-.2 1.5-.1h.4l1.1.1 1.6.3 1.5.5 1.4.6 1.4.8 1.2.9 1.1 1 .9 1.1.9 1.2.6 1.4.5 1.4.3 1.5.1 1.5-.1 1.5-.3 1.5-.5 1.4-.5 1.3-.7 1.2-.9 1-1 1.1-1.1.9-1.3.8-1.4.6-1.4.4-1.5.2h-2l-1-.1-1.5-.2-1.4-.4-1.5-.6-1.4-.8-1.3-.8-1.1-1-1-1-.8-1.1-.7-1.3-.5-1.3-.3-1.4-.2-1.4.3-1.5zm-28.9-16.2l8.2.1h.6l1.7.1 1.1.3 1.1.3.9.5.9.6.7.7.6.8.5.9.4 1 .2 1v1l-.1 1-.2 1-.3.8-.4.8-.6.8-.7.7-.8.5-.8.5-.8.3 7.2 9.5-7.6-.1-5.8-8.6-.1 8.5h-6.2l.3-23zM92.6 47l7.2-2.8 7.4-2.1 7.5-1.5 7.7-.8 5.8-.1h1.9l7.8.4 7.6 1.2 7.5 1.8 7.3 2.4 1.1.5 5.9 2.6 6.8 3.7 6.5 4.2 6.1 4.8 5.6 5.3 5.2 5.7 4.6 6.1 4.1 6.5 3.5 6.9 3 7.1.4 1.2 1.9 6.1 1.6 7.5 1 7.7.3 7.7-.3 7.7-1 7.7-1.6 7.5-1.9 6.1-.4 1.2-3 7.2-3.5 6.8-4.1 6.5-4.6 6.2-5.2 5.7-5.6 5.3-6.1 4.8-6.4 4.3-6.8 3.6-5.9 2.6-1.1.5-7.3 2.4-7.5 1.8-7.6 1.2-7.8.5h-1.9l-5.8-.1-7.7-.9-7.5-1.5-7.4-2.1-7.2-2.7-6.9-3.4-6.8-4-6.2-4.5-3.1-2.6-2.9-2.4-5.4-5.5-4.9-5.9-4.4-6.3-3.8-6.8-1-2-2.3-4.9-2.4-6.7-.2-.6-2-7.4-1.3-7.6-.7-7.7v-7.7l.7-7.6 1.3-7.6 2-7.4.2-.6 2.4-6.7 2.3-5 1-2 3.8-6.7 4.4-6.3 4.9-6 5.4-5.5 2.9-2.4 3.1-2.6 6.2-4.5 6.7-4 6.9-3.5zM62.2 32.2l20.9 13.4-5.3 3.8L74 47l-7 5.1 1.3 4.3-5.3 3.8-6.8-23.6 6-4.4zM43.1 48.3l3.8 3.2-4.7 5.6 2.8 2.4 4-4.7 4 3.3-3.9 4.7 7.2 6-4.1 4.9-17.8-14.9 8.7-10.5zM23 78.3l16 7.5 3-6.3.8.4 4.2 2L41.1 94l-21-10 2.9-5.7zm-9.7 30.8l24.2-5.8-.9 6.5-4.3 1-1.2 8.5 3.9 2-.9 6.4-21.8-11.5 1-7.1z"/><path d="M129.1 107.8H126.8l-1 .3-1 .4-1 .6-.7.7-.6.9-.5.9-.3 1-.1 1v1.1l.2 1.1.4.9.6 1 .7.7.8.7 1 .5 1 .3 1 .2h1.1l1.1-.2.9-.3 1-.5.8-.6.8-.8.7-.9.4-.9.3-1.1v-1l-.1-1.1-.3-1.1-.5-1-.6-.8-.8-.7-1-.6-.9-.4z"/><path d="M131.6 117.1l.7-5.4-8.6 1.6z"/></svg>