<?xml version="1.0" encoding="utf-8"?>
<!-- Generator: Adobe Illustrator 24.0.0, SVG Export Plug-In . SVG Version: 6.00 Build 0)  -->
<svg version="1.1" id="Layer_1" xmlns="http://www.w3.org/2000/svg" xmlns:xlink="http://www.w3.org/1999/xlink" x="0px" y="0px"
	 viewBox="0 0 256 256" style="enable-background:new 0 0 256 256;" xml:space="preserve">
<style type="text/css">
	.st0{fill:#8699A3;}
</style>
<path class="st0" d="M1.93,149.79l2.44,10.81l3.33,10.66l4.37,10.25l5.07,9.86l6.07,9.39l6.78,8.82l7.56,8.2l8.22,7.55l8.88,6.72
	l9.38,6.03l9.95,5.1l10.29,4.32l10.66,3.29l10.87,2.43l11.14,1.43l11.07,0.49l11.16-0.49l11.12-1.44l10.84-2.43l10.65-3.32
	l10.33-4.31l9.9-5.11l9.42-6.03l8.87-6.72l8.24-7.57l7.57-8.18l6.78-8.85l6.03-9.36l5.11-9.88l4.27-10.27l3.33-10.61l2.45-10.86
	l1.42-11.11l0.53-11.08l-0.53-11.08l-1.42-11.07l-2.47-10.84l-3.33-10.64l-4.27-10.23l-5.13-9.86l-6.03-9.37l-6.8-8.84l-7.58-8.22
	l-8.25-7.56l-8.88-6.71l-9.33-6.04l-9.95-5.09L171.75,7.7l-10.65-3.32l-10.93-2.44l-11.11-1.43L127.98,0l-11.16,0.52l-11.13,1.43
	L94.82,4.41L84.18,7.73L73.86,12l-9.88,5.11l-9.4,6.03l-8.88,6.73l-8.2,7.56l-7.6,8.24l-6.73,8.83l-6.07,9.32L12,73.73L7.66,83.98
	L4.34,94.59l-2.41,10.86l-1.43,11.07L0,127.58l0.49,11.11L1.93,149.79z M2.32,116.69l1.39-10.9l2.41-10.73L9.38,84.6l4.26-10.1
	l5.05-9.77l5.95-9.19l6.67-8.7l7.47-8.14l8.11-7.45l8.75-6.63l9.24-5.94l9.76-5.03L84.8,9.44l10.47-3.26l10.74-2.43L117,2.33
	l10.99-0.5l10.95,0.49l10.95,1.41l10.74,2.42l10.49,3.27l10.13,4.21l9.84,5.02l9.19,5.95l8.76,6.63l8.13,7.43l7.47,8.12l6.66,8.7
	l5.95,9.23l5.06,9.72l4.23,10.09l3.29,10.47l2.42,10.7l1.42,10.91l0.53,10.92l-0.53,10.94l-1.4,10.94l-2.41,10.7l-3.3,10.46
	l-4.22,10.12l-5.03,9.73l-5.96,9.24l-6.63,8.73l-7.5,8.05l-8.14,7.44l-8.74,6.64l-9.25,5.94l-9.75,5.02l-10.22,4.26L160.64,249
	l-10.68,2.4l-10.98,1.42l-11,0.48l-10.91-0.47l-10.98-1.41l-10.74-2.39l-10.48-3.27l-10.15-4.25l-9.76-5.02l-9.25-5.93l-8.8-6.62
	l-8.06-7.46l-7.5-8.08l-6.64-8.71l-5.96-9.25l-5.07-9.7l-4.23-10.11l-3.3-10.5l-2.42-10.65l-1.41-10.94l-0.46-10.96L2.32,116.69z"/>
<path class="st0" d="M96.26,213.11l7.61-1.19l7.49-1.91l7.2-2.56l7.05-3.21l6.61-3.85l6.31-4.43l5.85-4.99l5.39-5.46l4.88-5.98
	l4.25-6.35l3.72-6.73l3.14-7.03l2.37-7.28l1.7-7.5l1.09-7.6l0.35-7.66l-0.35-7.66l-1.09-7.62l-1.7-7.44l-2.37-7.3l-3.14-7.03
	l-3.72-6.76l-4.25-6.39l-4.88-5.92l-5.39-5.5l-5.85-4.99l-6.31-4.39l-6.61-3.86l-7.05-3.23l-7.2-2.53l-7.49-1.92l-7.61-1.21
	l-7.7-0.51l-3.82,0.05v168.39l3.82,0.13L96.26,213.11z M90.61,99.77l0.75-1.18l1.09-0.92l1.21-0.63l1.33-0.38l1.4-0.04l1.34,0.29
	l1.27,0.62l1.09,0.85l0.78,1.12h1.16l-0.06-1.21l-0.12-1.26l-0.21-1.24l-0.28-1.21l-1.67-0.56l-2.79-1.18l-1.07-0.68l-0.72-0.84
	l-0.38-0.86l-0.05-1.03l0.31-0.98l0.54-0.86l0.86-0.64l0.98-0.41l1.05-0.21l1.14,0.1l0.8,0.33l0.83,0.4l0.77,0.5l0.89,0.71
	l1.37,0.94l1.51,0.9l1.81,0.84l-0.11,2.12l0.28,2.12l0.68,2.11l1.08,1.86l1.37,1.62l1.72,1.34l-1.69,1.34l-1.29,1.59l-1.1,1.81
	l-0.66,1.99l-0.25,2.04l0.13,2.34l-1.78,0.55l-1.76,0.83l-1.62,1.01l-1.48,1.16l-1.24,0.97l-0.94,0.34l-1.01,0.05l-0.99-0.3
	l-0.77-0.61l-0.55-0.85l-0.27-0.96l0.1-0.99l0.41-0.93l1.03-1.36l1.77-1.24l1.98-1.02l0.84-0.44l0.33-1.01l0.18-1.58l0.06-1.61
	l-1.09-0.07l-0.82,1.14l-1.05,0.85l-1.29,0.66l-1.39,0.27l-1.38-0.01l-1.35-0.37l-1.21-0.63l-1.02-0.93l-0.76-1.1l-0.51-1.34
	l-0.23-1.36l0.23-1.35L90.61,99.77z M146.43,86.69l1.88,2.02l1.67,2.17l1.54,2.28l1.37,2.37l1.17,2.52l0.92,2.53l0.77,2.63
	l0.35,2.69l0.25,2.56l-0.11,2.63l-0.39,2.6l-0.59,2.86l-1.01,2.72l-1.44,2.61l-1.79,2.32l-2.21,2.09l-1.78,1.38l-2.39,1.19
	l-2.52,0.83l-2.64,0.42h-2.69h-23.07h-0.45l-0.39,0.18l-0.35,0.33l-0.23,0.38l-0.08,0.47l0.08,0.41l0.23,0.37l0.35,0.33l0.39,0.18
	h0.45h21.94l2.35,0.07l2.27,0.41l2.19,0.78l2.03,1.17l1.84,1.43l1.57,1.71l1.24,1.99l0.97,2.13l0.54,2.27l0.22,2.35l-0.22,2.28
	l-0.54,2.3l-0.97,2.11l-1.24,1.97l-1.57,1.74l-1.84,1.46l-2.03,1.11l-2.19,0.82l-2.27,0.41l-2.35,0.04h-21.61h-0.49l-0.35,0.21
	l-0.33,0.27l-0.22,0.37v0.42v0.42l0.22,0.35l0.33,0.31l0.35,0.17l0.49,0.03h17.06l1.88,0.22l1.66,0.55l1.53,0.98l1.3,1.29l0.99,1.53
	l0.53,1.67l0.25,1.82l-0.25,1.79l-0.53,1.71l-0.99,1.52l-1.3,1.27l-1.53,0.95l-1.66,0.63l-1.88,0.19h-11.09l-0.16,0.08l-0.19,0.11
	l-0.17,0.25l-0.09,0.22l0.09,0.26l0.17,0.25l0.19,0.1l0.16,0.08h8.65l0.81,0.08l0.86,0.25l0.63,0.44l0.58,0.67l0.31,0.76l0.13,0.82
	l-0.1,0.78l-0.28,0.77l-0.72,1.27l-1.28,1.16l-1.43,1.09l-0.77,0.44l-0.33,0.26l0.33-0.68v-0.7l-0.2-0.73l-0.49-0.53l-0.69-0.31
	h-0.75h-6.88l-1.5-0.03l-1.53-0.38l-1.37-0.76l-1.15-1.06l-0.88-1.25l-0.54-1.5l-0.24-1.55l0.24-1.52l0.54-1.49l0.88-1.26l1.15-1.05
	l1.37-0.76l1.53-0.35l1.5-0.07h11.01l0.44-0.07l0.42-0.25l0.26-0.35l0.09-0.43l-0.09-0.48l-0.26-0.34l-0.42-0.24l-0.44-0.05h-17.7
	l-2.21-0.12l-2.14-0.53l-2.01-0.99l-1.69-1.36l-1.44-1.67l-1.07-1.91l-0.68-2.1l-0.25-2.18l0.25-2.19l0.68-2.13l1.07-1.94l1.44-1.63
	l1.69-1.33l2.01-0.95l2.14-0.58l2.21-0.15h22.13h0.53l0.43-0.26l0.31-0.44l0.09-0.46l-0.09-0.53l-0.31-0.38l-0.43-0.25l-0.53-0.07
	h-22.13l-2.85-0.29l-2.72-0.8l-2.55-1.25l-2.33-1.68l-2.01-2.03l-1.6-2.36l-1.17-2.56l-0.69-2.76l-0.27-2.82l0.27-2.86l0.69-2.68
	l1.17-2.6l1.6-2.34l2.01-2.03l2.33-1.65l2.55-1.27l2.72-0.74l2.85-0.4h11.63l0.98-0.03l0.64-0.08l0.56-0.38l0.36-0.55L126,113
	l-0.14-0.57l-0.31-0.26l-0.44-0.2h-1h-14.6l0.09-2.17l0.54-2.1l1.13-1.85l1.62-1.47l1.88-1.07l2.13-0.44h5.32v-1.74h-5.32
	l-2.13-0.25l-1.96-0.87l-1.68-1.36l-1.19-1.83l-0.61-2.04l0.02-2.17h11.42l0.55-1.86l0.72-1.18l0.35-0.53h18.37l3.81-4.21
	L146.43,86.69z M137.06,81.1h-30.28v-2.94h30.28V81.1z M137.06,81.62v3h-30.28v-3H137.06z M131.68,69.8l0.16-0.6l0.24-0.53
	l0.42-0.51l0.49-0.39l0.63-0.26l0.6-0.08l0.61,0.05l0.61,0.16l0.57,0.29l0.47,0.47l0.33,0.51l0.23,0.6l0.08,0.6l-0.08,0.66
	l-0.23,0.54l-0.33,0.58l-0.47,0.4l-0.57,0.36l-0.61,0.15l-0.61,0.02l-0.6-0.09L133,72.5l-0.49-0.41l-0.42-0.44l-0.24-0.58l-0.16-0.6
	V69.8z M125.45,69.8l0.09-0.6l0.29-0.53l0.42-0.51l0.51-0.39l0.56-0.26l0.66-0.08l0.59,0.05l0.62,0.16l0.58,0.29l0.43,0.47
	l0.39,0.51l0.19,0.6l0.05,0.6l-0.05,0.66l-0.19,0.54l-0.39,0.58l-0.43,0.4l-0.58,0.36l-0.62,0.15l-0.59,0.02l-0.66-0.09l-0.56-0.24
	l-0.51-0.41l-0.42-0.44l-0.29-0.58l-0.09-0.6V69.8z M119.13,69.8l0.14-0.6l0.3-0.53l0.41-0.51l0.52-0.39l0.57-0.26l0.63-0.08
	l0.64,0.05l0.62,0.16l0.56,0.29l0.46,0.47l0.27,0.51l0.28,0.6l0.06,0.6l-0.06,0.66l-0.28,0.54l-0.27,0.58l-0.46,0.4l-0.56,0.36
	l-0.62,0.15l-0.64,0.02l-0.63-0.09l-0.57-0.24l-0.52-0.41l-0.41-0.44l-0.3-0.58l-0.14-0.6V69.8z M112.88,69.8l0.16-0.6l0.28-0.53
	l0.4-0.51l0.49-0.39l0.58-0.26l0.62-0.08l0.68,0.05l0.57,0.16l0.56,0.29l0.44,0.47l0.36,0.51l0.19,0.6l0.11,0.6l-0.11,0.66
	l-0.19,0.54l-0.36,0.58l-0.44,0.4l-0.56,0.36l-0.57,0.15l-0.68,0.02l-0.62-0.09l-0.58-0.24l-0.49-0.41l-0.4-0.44l-0.28-0.58
	l-0.16-0.6V69.8z M106.61,69.8l0.16-0.6l0.25-0.53l0.41-0.51l0.49-0.39l0.63-0.26l0.61-0.08l0.59,0.05l0.63,0.16l0.55,0.29
	l0.47,0.47l0.35,0.51l0.22,0.6l0.09,0.6l-0.09,0.66l-0.22,0.54l-0.35,0.58l-0.47,0.4l-0.55,0.36l-0.63,0.15l-0.59,0.02l-0.61-0.09
	l-0.63-0.24l-0.49-0.41l-0.41-0.44l-0.25-0.58l-0.16-0.6V69.8z M106.61,74.6h30.34v2.93h-30.34V74.6z"/>
<polygon class="st0" points="127.86,22.19 128.41,22.17 128.96,21.93 129.46,21.59 129.89,21.09 130.23,20.48 130.4,19.71 
	130.4,19.11 130.23,18.45 129.79,17.79 129.31,17.37 128.78,17.09 128.1,16.93 127.7,16.93 125.71,16.89 125.64,22.17 127.7,22.19 
	"/>
<path class="st0" d="M7.72,148.71L10,159.06l3.22,10.14l4.05,9.81l4.93,9.43l2.7,4.15l3.08,4.82l6.42,8.41l7.22,7.85l1.07,0.96
	l4.72,4.27l2.09,1.9l8.44,6.49l9,5.73l2.77,1.43l6.68,3.47l9.86,4.06l10.13,3.2l10.42,2.28l10.55,1.43l10.65,0.44l0.33-0.03
	l10.33-0.41l10.58-1.43l10.36-2.28l2-0.63l8.16-2.57l9.89-4.06l9.42-4.9l9.02-5.73l8.46-6.43l6.78-6.21l1.1-0.97l7.16-7.85
	l6.48-8.42l4.14-6.43l1.62-2.54l4.91-9.43l4.11-9.78L246,159.1l2.32-10.39l1.39-10.52l0.47-10.65L249.71,117l-1.39-10.56L246,96.06
	l-3.16-10.07l-4.11-9.85l-4.91-9.4l-1.62-2.52l-4.14-6.43l-6.48-8.42l-7.16-7.87l-1.1-0.97l-6.78-6.17l-8.46-6.45l-9.02-5.73
	l-9.42-4.92l-9.89-4.04l-8.16-2.61l-1.93-0.6l-10.43-2.27l-10.58-1.44l-10.33-0.42h-0.31l-10.67,0.42l-10.55,1.44L96.43,10
	L86.25,13.2l-9.86,4.04l-6.68,3.49l-2.77,1.44l-9,5.72l-8.44,6.42l-2.09,1.93l-4.7,4.28l-1.09,0.99l-7.14,7.85l-6.5,8.42l-3.08,4.78
	l-2.7,4.18l-4.91,9.4l-4.07,9.85l-3.2,10.07l-2.3,10.38L6.28,117l-0.43,10.55l0.43,10.65L7.72,148.71z M237.04,102.29l1.19,0.61
	l1.13,0.75l1.07,0.93l0.96,1.11l0.82,1.24l0.68,1.29l0.59,1.48l0.41,1.52l0.22,1.55l0.07,1.62l-0.1,1.58l-0.25,1.52l-0.39,1.35
	l-0.57,1.35l-0.68,1.26l-0.94,1.17l-1.08,1.04l-1.23,0.93l-1.26,0.69l-1.43,0.63l-1.43,0.39l-1.45,0.21l-1.18,0.04h-0.19l-1.4-0.04
	l-1.38-0.23l-1.3-0.48l-1.39-0.63l-1.26-0.77l-1.12-0.97l-1.02-1.11l-0.88-1.27l-0.69-1.32l-0.63-1.37l-0.38-1.41l-0.26-1.45
	l-0.14-1.59l0.09-1.55l0.2-1.59l0.4-1.38l0.5-1.31l0.68-1.19l0.82-1.21l0.97-1.08l1.09-0.94l1.23-0.77l1.22-0.64l1.35-0.42
	l1.28-0.33l1.44-0.11h0.76h0.71l1.48,0.11l1.38,0.38L237.04,102.29z M229.21,69.46l6.23,12.41l-4.43,2.25l-3.4-6.81l-3.38,1.75
	l2.88,5.66L222.59,87l-2.93-5.67l-3.56,1.82l3.45,6.79l-4.77,2.37l-6.3-12.46L229.21,69.46z M197.21,33.55l5.15,4.58l-4.83,12.17
	l11.47-6.2l5.13,4.55l-12.37,19.94l-4.81-4.22l7.96-12.08l-13.13,7.44l-2.6-2.29l5.49-14.18l-10.79,9.43l-4.84-4.3L197.21,33.55z
	 M148.97,27.92l0.16-1.35l0.28-1.33l0.49-1.36l0.62-1.3l0.83-1.24l0.94-1.09l1.01-0.92l1.04-0.79l1.15-0.74l1.35-0.51l1.37-0.35
	l1.45-0.18l1.52-0.07l0.4,0.03l1.15,0.07l1.57,0.32l1.54,0.51l1.45,0.61l1.41,0.82l1.19,0.89l1.1,0.98l0.93,1.11l0.86,1.16
	l0.61,1.36l0.46,1.43l0.31,1.45l0.09,1.49l-0.09,1.52l-0.31,1.46l-0.46,1.36l-0.52,1.26l-0.66,1.25l-0.85,1.04l-1.02,1.07
	l-1.13,0.93l-1.29,0.75l-1.39,0.61l-1.4,0.43l-1.5,0.23l-1.54,0.04l-0.49-0.04l-0.98-0.06l-1.49-0.25l-1.4-0.44l-1.46-0.57
	l-1.44-0.76l-1.27-0.84l-1.1-0.99l-0.96-1.01l-0.8-1.14l-0.71-1.28l-0.52-1.32l-0.33-1.44l-0.23-1.41L148.97,27.92z M120.13,11.68
	l8.21,0.09h0.61l1.67,0.08l1.12,0.34l1.13,0.33l0.87,0.52l0.91,0.6l0.71,0.69l0.62,0.84l0.49,0.91l0.35,1.02l0.23,1l0.02,0.95
	l-0.08,1.03l-0.19,1.01l-0.33,0.82l-0.41,0.79l-0.56,0.82l-0.66,0.67l-0.77,0.54l-0.84,0.46l-0.82,0.29l7.22,9.53l-7.63-0.1
	l-5.82-8.6l-0.1,8.51l-6.18-0.05L120.13,11.68z M92.59,46.98l7.23-2.78l7.44-2.13l7.54-1.49l7.72-0.79l5.82-0.12l1.86-0.03
	l7.77,0.43l7.64,1.18l7.54,1.84l7.31,2.4L161.6,46l5.93,2.59l6.81,3.66l6.5,4.21l6.08,4.75l5.62,5.31l5.18,5.73l4.65,6.14l4.09,6.52
	l3.54,6.9l2.97,7.11l0.36,1.24l1.88,6.14l1.65,7.49l1.02,7.67l0.28,7.66l-0.28,7.69l-1.02,7.66l-1.65,7.54l-1.88,6.14l-0.36,1.19
	l-2.97,7.16l-3.54,6.83l-4.09,6.52l-4.65,6.22l-5.18,5.68l-5.62,5.28l-6.13,4.75l-6.45,4.28l-6.81,3.64l-5.93,2.57l-1.14,0.48
	l-7.31,2.45l-7.54,1.78l-7.64,1.19l-7.77,0.49l-1.86-0.03l-5.82-0.13l-7.72-0.86l-7.54-1.46l-7.44-2.14l-7.25-2.73l-6.89-3.39
	L79,203.98l-6.23-4.49l-3.06-2.6l-2.86-2.44l-5.39-5.51l-4.93-5.92l-4.37-6.32l-3.79-6.76l-0.97-2.03l-2.33-4.95l-2.39-6.68
	l-0.16-0.58l-2.01-7.44l-1.31-7.6l-0.67-7.68v-7.7l0.67-7.63l1.31-7.61l2.01-7.43l0.16-0.59l2.39-6.74l2.33-4.96l0.97-2.03
	l3.79-6.67l4.37-6.35l4.93-5.96l5.39-5.52l2.86-2.4l3.06-2.61L79,54.26l6.67-3.96L92.59,46.98z M62.19,32.22l20.93,13.4l-5.32,3.82
	l-3.77-2.43l-6.99,5.07l1.29,4.26l-5.29,3.81l-6.79-23.65L62.19,32.22z M43.13,48.34l3.78,3.2l-4.66,5.56l2.83,2.38l3.98-4.71
	l3.99,3.28l-3.92,4.65l7.17,5.99l-4.07,4.88L34.4,58.79L43.13,48.34z M22.95,78.29l15.95,7.53l3.05-6.32l0.76,0.37l4.18,2.01
	l-5.77,12.07l-20.95-9.96L22.95,78.29z M13.3,109.05l24.17-5.84l-0.93,6.52l-4.31,1.01l-1.16,8.51l3.93,2.03l-0.88,6.4l-21.84-11.53
	L13.3,109.05z"/>
<polygon class="st0" points="129.13,107.85 128.01,107.77 127.91,107.77 126.79,107.85 125.78,108.11 124.81,108.52 123.85,109.07 
	123.1,109.8 122.52,110.65 122,111.6 121.71,112.61 121.55,113.63 121.61,114.7 121.79,115.77 122.23,116.73 122.75,117.65 
	123.5,118.43 124.35,119.11 125.29,119.6 126.3,119.93 127.33,120.08 128.01,120.08 128.41,120.08 129.46,119.93 130.45,119.6 
	131.41,119.11 132.25,118.5 133.03,117.74 133.69,116.83 134.1,115.87 134.37,114.79 134.45,113.75 134.29,112.68 134.02,111.6 
	133.53,110.58 132.89,109.8 132.08,109.07 131.13,108.52 130.2,108.11 "/>
<polygon class="st0" points="131.6,117.14 132.29,111.72 123.72,113.32 "/>
</svg>
