<svg xmlns="http://www.w3.org/2000/svg" viewBox="0 0 32.75 30.8"><defs><style>.a{fill:none;stroke:#000;stroke-linecap:round;stroke-linejoin:round;stroke-width:0.75px;}</style></defs><title>766</title><path class="a" d="M10.2,15.25a.34.34,0,0,0,.16-.38,6,6,0,0,1,0-3.1.33.33,0,0,0-.16-.37l-1.54-.89A8.15,8.15,0,0,1,10,8.12L11.58,9A.35.35,0,0,0,12,9a6.08,6.08,0,0,1,2.69-1.55.33.33,0,0,0,.25-.32V5.3a8.52,8.52,0,0,1,2.76,0V7.09a.33.33,0,0,0,.24.32A6.08,6.08,0,0,1,20.61,9,.35.35,0,0,0,21,9l1.54-.89a7.81,7.81,0,0,1,1.38,2.39l-1.54.89a.34.34,0,0,0-.16.37,6,6,0,0,1,0,3.1.36.36,0,0,0,.16.38l1.54.89a8.06,8.06,0,0,1-1.38,2.39L21,17.64a.32.32,0,0,0-.4.05,6.18,6.18,0,0,1-2.69,1.55.33.33,0,0,0-.24.32v1.78a8,8,0,0,1-2.76,0V19.56a.33.33,0,0,0-.25-.32A6.18,6.18,0,0,1,12,17.69a.32.32,0,0,0-.4-.05L10,18.53a8.28,8.28,0,0,1-1.38-2.39Z" transform="translate(0.38 -0.6)"/><path class="a" d="M16.29,9.85a3.48,3.48,0,1,1-3.47,3.47A3.48,3.48,0,0,1,16.29,9.85Z" transform="translate(0.38 -0.6)"/><path class="a" d="M25.64,30.88l-1.95-6.1h7.2A1.11,1.11,0,0,0,32,23.67V2.08A1.11,1.11,0,0,0,30.89,1H1.11A1.11,1.11,0,0,0,0,2.08V23.67a1.11,1.11,0,0,0,1.11,1.11h9.24l-2.14,6.1M5.54,31h23" transform="translate(0.38 -0.6)"/><line class="a" x1="9.33" y1="24.18" x2="23.42" y2="24.18"/></svg>