<?xml version="1.0" encoding="utf-8"?>
<!-- Generator: Adobe Illustrator 24.0.0, SVG Export Plug-In . SVG Version: 6.00 Build 0)  -->
<svg version="1.1" id="Layer_1" xmlns="http://www.w3.org/2000/svg" xmlns:xlink="http://www.w3.org/1999/xlink" x="0px" y="0px"
	 viewBox="0 0 256 256" style="enable-background:new 0 0 256 256;" xml:space="preserve">
<style type="text/css">
	.st0{fill:#8699A3;}
</style>
<g>
	<g>
		<g>
			<path class="st0" d="M142.8,241.51c62.53,0,113.2-50.68,113.2-113.21C256,65.7,205.33,15,142.8,15
				c-62.52,0-113.2,50.7-113.2,113.3C29.59,190.83,80.27,241.51,142.8,241.51z M142.8,23.29c57.85,0,105.01,47.12,105.01,105
				c0,57.78-47.17,104.92-105.01,104.92c-57.83,0-105.01-47.14-105.01-104.92C37.78,70.42,84.97,23.29,142.8,23.29z"/>
			<path class="st0" d="M142.8,229.42c55.82,0,101.17-45.36,101.17-101.12c0-55.89-45.35-101.19-101.17-101.19
				c-55.81,0-101.11,45.31-101.11,101.19C41.68,184.06,86.99,229.42,142.8,229.42z M112.47,70.47c2.72,0,5.76,0.95,9.14,2.84
				c0.51-2.6,2.15-5.44,4.15-6.13c-0.18,0.08-0.36,0.1-0.52,0.16l-11.96-27.98c4.95,0,10.07,2.13,10.07,6.18
				c0,1.18-0.44,2.58-1.56,4.14c0,0.16,0.08,0.23,0.22,0.23c0.08,0,0.12,0,0.22-0.07c0.82-1.03,2.08-1.58,3.5-1.58
				c2.59,0,4.69,2.12,4.69,4.72c0,2.49-2.1,4.62-4.69,4.62c-0.36,0-0.68,0-0.91-0.09c0.12,1.06,3.59,2.89,7.32,2.89
				c3.06,0,6.32-1.22,8.23-4.93c-0.74,0.61-1.78,0.92-2.7,0.92c-2.74,0-4.86-2.03-4.86-4.61c0-2.63,2.13-4.72,4.86-4.72
				c0.85,0,1.75,0.23,2.44,0.72c-0.84-0.9-1.52-2.01-1.52-3.4c0-2.6,2.15-4.71,4.79-4.71c2.6,0,4.7,2.11,4.7,4.71
				c0,1.22-0.51,2.34-1.28,3.16c0.6-0.35,1.37-0.49,2.18-0.49c2.6,0,4.69,2.08,4.69,4.72c0,2.58-2.09,4.61-4.69,4.61
				c-1.22,0-2.33-0.42-3.12-1.06c0.62,2.06,4.15,5.45,8.67,5.45c2.31,0,4.86-0.92,7.43-3.27c-0.34,0.09-0.62,0.09-0.85,0.09
				c-2.73,0-4.86-2.13-4.86-4.62c0-2.6,2.14-4.72,4.86-4.72c1.29,0,2.52,0.56,3.36,1.58c0.08,0.07,0.16,0.07,0.24,0.07
				c0.11,0,0.23-0.07,0.23-0.23c-1.11-1.56-1.6-2.96-1.6-4.18c0-4.02,5.12-6.15,10.01-6.15l-11.74,27.66
				c0.77,0.69,1.53,1.62,2.09,2.61c2.65-1,5.03-1.25,6.81-1.25c1.76,0,2.91,0.25,3.17,0.32c0,0,1.42,0.35,1.64,0.75
				c-1.52,3.74-2.73,5.94-4.16,8.05c6.02,6.13,8.33,13.85,7.2,23.88c-1.74-1.16-5.02-2.61-7.04-3.02c3.12,4.89,4.12,9.08,4.12,13.91
				c0,3.6-0.74,7.17-2.18,10.56l-1.11,2.67c-1.7-2.67-3.38-4.59-5.48-6.25c0.51,1.63,1.15,5.23,1.15,7.69
				c0,6.49-2.54,12.3-8.66,16.03c-1.06-3.07-3.66-7.6-5.99-10.44c0.28,6-0.04,12.87-2.29,17.62c-4.59,6.06-10.95,9.63-20.74,11.87
				c1.64-4.06,3.15-14.76,2.38-27.99c-1.95,2.92-4.28,8.48-5.02,15.58c-2.38-1.88-9.45-7.38-9.45-16.64c0-3.82,1.32-7.67,3.9-11.58
				c-3.6,1.31-5.84,3.63-8.27,8.26c-0.84-6.64,0.3-13.93,3.89-19.14c-8.69-0.35-11.25-5.46-10.79-13.06
				c2.52,2.04,5.2,3.63,8.79,3.63c3.52,0,8.1-1.59,12.72-7.52c-2.01-1.2-4.07-1.82-5.44-2.29c-1.74-0.53-4.5-1.17-7.04-4.38
				c-0.96-1.16-2.55-1.62-4.59-1.62c-2.38,0-5.98,0.67-11.66,3.35C100.31,74.77,107,70.47,112.47,70.47z M99.18,91.85
				c5.23,0.03,9.23-1.84,12.73-1.84c2.68,0,7.27,1.34,9.37,5.97c-1.18-0.9-3.66-2.22-7.63-2.22c-2.85,0-8.03,2.87-12.31,2.87
				c-6.71,0-10.62-5.49-12.79-10.4C90.66,88.32,94.16,91.78,99.18,91.85z M90.94,184.84c-8.53,0-14.52-1.39-14.52-8.23
				c0-7.71,9.01-9.37,16.15-9.37c8.9,0,17.34,1.52,17.34,8.89H97.66c0-3.13-2.06-3.61-5.09-3.61c-2.55,0-4.43,0.75-4.43,2.62
				c0,2.06,1.64,2.8,6.03,2.8c10.9,0,15.74,1.91,16.46,6.97l7.17-17.18h15.57l7.63,18.42l7.66-18.42h15.54l8.48,20.42v-20.42h24.89
				c6.33,0,7.91,4.38,7.91,6.95c0,2.46-1.04,5.67-5.83,6.39c5.45,0.49,6.64,4.74,6.64,7.19c0,2.79-2.03,7.49-7.5,7.49h-33.7
				l-1.82-4.47h-13.74l-1.82,4.47h-13.41l-1.88-4.47h-13.77l-1.81,4.47h-10.69l0.99-2.48c-1.6,1.5-4.53,3.24-14.17,3.24
				c-9.17,0-17.48-1.97-17.64-9.57h12.25c0,1.84,1.22,3.76,5.18,3.76c4.82,0,5.33-1.64,5.33-2.75
				C98.07,186.2,96.75,184.84,90.94,184.84z"/>
		</g>
	</g>
	<path class="st0" d="M30.66,77.71c-0.61-0.17-1.29-0.11-2.06-0.17c-0.08,1.09-1.12,2.41-3.24,2.41c-2,0-3-1.14-3.31-2.08
		c-0.43-0.05-1.05-0.14-1.48-0.28c0.04,3.42,2.52,4.49,4.86,4.49C27.14,82.09,29.9,81.48,30.66,77.71z"/>
	<path class="st0" d="M14.87,84.87c1.76,2.34,3.98,2.88,4.46,3.01c3.29,0.93,8.85,2.9,8.85,5.49c0,0.48-0.14,1.06-0.7,1.74
		c-5.55,7.18-10.79,8.97-15.11,8.97c-1.99,0-3.74-0.36-5.14-0.88c1.02,3.31,4.39,4.18,7.15,4.18c2.12,0,4.21-0.31,8.29-1.3
		c-4.38,3.45-8.08,7.73-8.94,14.4c3.87-2.85,7.9-3.45,12.11-3.57c-4.98,5.31-7.96,10.68-7.96,16.05c0,5.41,2.57,8.59,4.13,10.51
		c1.99-8.92,6.52-14.52,9.44-17.23c1.77,12.44,0.9,25.96-0.16,31.22c5.19-1.82,9.94-4.32,13.52-9.03c2.08-3.8,2.28-14.38,1.6-22.94
		c4.77,2.89,8.73,8.22,10.67,12.43c2.81-2.59,4.24-6.23,4.24-10.98c0-5.51-1.73-10.18-3.38-13.87c3.85,1.21,7.13,3.05,9.89,6.05
		c0.74-2.29,1.16-4.63,1.16-6.9c0-8.41-4.6-14.54-7.86-17.64c5.11,0,8.14,0.84,10.99,1.88c0.17-5.19-1.15-11.69-6.08-16.64
		c-4.33,4.95-8.45,7.9-16.72,10.72c7.27,5.78,5.21,14.12-1.72,22.51c-0.57-3.5-1.64-6.6-4.01-9.36c0.43,4.62-0.58,13.08-10.25,17.64
		c0.36-3.57-0.17-6.89-0.91-10c-0.68,0.74-1.84,1.82-3.07,2.68c-0.2-0.88-0.43-2.63-0.31-3.84c1.74-1.39,3.33-3.22,4.81-5.3
		c1.44,3.61,2.34,8.52,2.52,10.72c3.41-3.14,5.99-8.89,2.54-19.42c5.19,2.63,7.76,5.3,9.75,9.75c5.32-8.95-0.28-13.69-8.48-16.82
		c9.77-0.98,21.6-5.42,27.43-17.52c-3.93-0.18-10.29,1.28-16.18,8.98c-0.74-0.46-1.69-1.27-2.1-1.95c2.43-3.36,5.39-6.02,8.49-7.77
		c-0.16-0.4-0.5-0.83-0.74-1.03H23.52c-1.17,0-2.38,2.21-2.95,4.68c0.88,0.26,2.06,0.35,3.17,0.35c1.29,0,2.48-0.14,3.91-0.14
		c2.31,0,6.11,0.3,8.24,1.67c-0.38,1.02-0.78,1.71-1.36,2.32c-0.44-0.22-0.86-0.4-1.37-0.54c-1.14,5.51-5.09,6.71-7.63,6.71
		c-6.81,0-8.08-5.2-7.64-8.19c-3.38-2.02-6.29-3.07-8.8-3.07c-5.85,0-8.21,6.33-9.08,10.13c3.07-1.05,5.7-1.6,7.96-1.6
		C10.89,82.13,13.18,83.02,14.87,84.87z"/>
	<polygon class="st0" points="53.02,174.4 48.81,184.76 57.27,184.76 	"/>
	<polygon class="st0" points="22.19,174.4 17.93,184.76 26.37,184.76 	"/>
	<path class="st0" d="M90.39,176.4c0-1.13-0.9-2.02-2.02-2.02h-8.73v4.01h8.73C89.48,178.4,90.39,177.54,90.39,176.4z"/>
	<path class="st0" d="M91.06,186.37c0-1.05-0.96-1.92-2.06-1.92h-9.36v3.94H89C90.11,188.4,91.06,187.52,91.06,186.37z"/>
</g>
</svg>
