<?xml version="1.0" encoding="utf-8"?>
<!-- Generator: Adobe Illustrator 24.0.0, SVG Export Plug-In . SVG Version: 6.00 Build 0)  -->
<svg version="1.1" id="Layer_1" xmlns="http://www.w3.org/2000/svg" xmlns:xlink="http://www.w3.org/1999/xlink" x="0px" y="0px"
	 viewBox="0 0 256 256" style="enable-background:new 0 0 256 256;" xml:space="preserve">
<g>
	<g>
		<g>
			<path d="M142.8,241.5c62.5,0,113.2-50.7,113.2-113.2C256,65.7,205.3,15,142.8,15C80.3,15,29.6,65.7,29.6,128.3
				C29.6,190.8,80.3,241.5,142.8,241.5z M142.8,23.3c57.8,0,105,47.1,105,105c0,57.8-47.2,104.9-105,104.9
				c-57.8,0-105-47.1-105-104.9C37.8,70.4,85,23.3,142.8,23.3z"/>
			<path d="M142.8,229.4c55.8,0,101.2-45.4,101.2-101.1c0-55.9-45.4-101.2-101.2-101.2C87,27.1,41.7,72.4,41.7,128.3
				C41.7,184.1,87,229.4,142.8,229.4z M112.5,70.5c2.7,0,5.8,0.9,9.1,2.8c0.5-2.6,2.2-5.4,4.2-6.1c-0.2,0.1-0.4,0.1-0.5,0.2l-12-28
				c4.9,0,10.1,2.1,10.1,6.2c0,1.2-0.4,2.6-1.6,4.1c0,0.2,0.1,0.2,0.2,0.2c0.1,0,0.1,0,0.2-0.1c0.8-1,2.1-1.6,3.5-1.6
				c2.6,0,4.7,2.1,4.7,4.7c0,2.5-2.1,4.6-4.7,4.6c-0.4,0-0.7,0-0.9-0.1c0.1,1.1,3.6,2.9,7.3,2.9c3.1,0,6.3-1.2,8.2-4.9
				c-0.7,0.6-1.8,0.9-2.7,0.9c-2.7,0-4.9-2-4.9-4.6c0-2.6,2.1-4.7,4.9-4.7c0.9,0,1.8,0.2,2.4,0.7c-0.8-0.9-1.5-2-1.5-3.4
				c0-2.6,2.1-4.7,4.8-4.7c2.6,0,4.7,2.1,4.7,4.7c0,1.2-0.5,2.3-1.3,3.2c0.6-0.3,1.4-0.5,2.2-0.5c2.6,0,4.7,2.1,4.7,4.7
				c0,2.6-2.1,4.6-4.7,4.6c-1.2,0-2.3-0.4-3.1-1.1c0.6,2.1,4.1,5.5,8.7,5.5c2.3,0,4.9-0.9,7.4-3.3c-0.3,0.1-0.6,0.1-0.9,0.1
				c-2.7,0-4.9-2.1-4.9-4.6c0-2.6,2.1-4.7,4.9-4.7c1.3,0,2.5,0.6,3.4,1.6c0.1,0.1,0.2,0.1,0.2,0.1c0.1,0,0.2-0.1,0.2-0.2
				c-1.1-1.6-1.6-3-1.6-4.2c0-4,5.1-6.2,10-6.2L161.6,67c0.8,0.7,1.5,1.6,2.1,2.6c2.6-1,5-1.2,6.8-1.2c1.8,0,2.9,0.2,3.2,0.3
				c0,0,1.4,0.3,1.6,0.8c-1.5,3.7-2.7,5.9-4.2,8.1c6,6.1,8.3,13.8,7.2,23.9c-1.7-1.2-5-2.6-7-3c3.1,4.9,4.1,9.1,4.1,13.9
				c0,3.6-0.7,7.2-2.2,10.6l-1.1,2.7c-1.7-2.7-3.4-4.6-5.5-6.2c0.5,1.6,1.1,5.2,1.1,7.7c0,6.5-2.5,12.3-8.7,16
				c-1.1-3.1-3.7-7.6-6-10.4c0.3,6,0,12.9-2.3,17.6c-4.6,6.1-10.9,9.6-20.7,11.9c1.6-4.1,3.1-14.8,2.4-28c-1.9,2.9-4.3,8.5-5,15.6
				c-2.4-1.9-9.4-7.4-9.4-16.6c0-3.8,1.3-7.7,3.9-11.6c-3.6,1.3-5.8,3.6-8.3,8.3c-0.8-6.6,0.3-13.9,3.9-19.1
				c-8.7-0.3-11.2-5.5-10.8-13.1c2.5,2,5.2,3.6,8.8,3.6c3.5,0,8.1-1.6,12.7-7.5c-2-1.2-4.1-1.8-5.4-2.3c-1.7-0.5-4.5-1.2-7-4.4
				c-1-1.2-2.6-1.6-4.6-1.6c-2.4,0-6,0.7-11.7,3.3C100.3,74.8,107,70.5,112.5,70.5z M99.2,91.8c5.2,0,9.2-1.8,12.7-1.8
				c2.7,0,7.3,1.3,9.4,6c-1.2-0.9-3.7-2.2-7.6-2.2c-2.8,0-8,2.9-12.3,2.9c-6.7,0-10.6-5.5-12.8-10.4C90.7,88.3,94.2,91.8,99.2,91.8z
				 M90.9,184.8c-8.5,0-14.5-1.4-14.5-8.2c0-7.7,9-9.4,16.2-9.4c8.9,0,17.3,1.5,17.3,8.9H97.7c0-3.1-2.1-3.6-5.1-3.6
				c-2.6,0-4.4,0.8-4.4,2.6c0,2.1,1.6,2.8,6,2.8c10.9,0,15.7,1.9,16.5,7l7.2-17.2h15.6l7.6,18.4l7.7-18.4h15.5l8.5,20.4v-20.4h24.9
				c6.3,0,7.9,4.4,7.9,6.9c0,2.5-1,5.7-5.8,6.4c5.4,0.5,6.6,4.7,6.6,7.2c0,2.8-2,7.5-7.5,7.5h-33.7l-1.8-4.5h-13.7l-1.8,4.5h-13.4
				l-1.9-4.5h-13.8l-1.8,4.5h-10.7l1-2.5c-1.6,1.5-4.5,3.2-14.2,3.2c-9.2,0-17.5-2-17.6-9.6h12.2c0,1.8,1.2,3.8,5.2,3.8
				c4.8,0,5.3-1.6,5.3-2.8C98.1,186.2,96.8,184.8,90.9,184.8z"/>
		</g>
	</g>
	<path d="M30.7,77.7c-0.6-0.2-1.3-0.1-2.1-0.2c-0.1,1.1-1.1,2.4-3.2,2.4c-2,0-3-1.1-3.3-2.1c-0.4-0.1-1-0.1-1.5-0.3
		c0,3.4,2.5,4.5,4.9,4.5C27.1,82.1,29.9,81.5,30.7,77.7z"/>
	<path d="M14.9,84.9c1.8,2.3,4,2.9,4.5,3c3.3,0.9,8.9,2.9,8.9,5.5c0,0.5-0.1,1.1-0.7,1.7c-5.5,7.2-10.8,9-15.1,9
		c-2,0-3.7-0.4-5.1-0.9c1,3.3,4.4,4.2,7.2,4.2c2.1,0,4.2-0.3,8.3-1.3c-4.4,3.4-8.1,7.7-8.9,14.4c3.9-2.8,7.9-3.4,12.1-3.6
		c-5,5.3-8,10.7-8,16.1c0,5.4,2.6,8.6,4.1,10.5c2-8.9,6.5-14.5,9.4-17.2c1.8,12.4,0.9,26-0.2,31.2c5.2-1.8,9.9-4.3,13.5-9
		c2.1-3.8,2.3-14.4,1.6-22.9c4.8,2.9,8.7,8.2,10.7,12.4c2.8-2.6,4.2-6.2,4.2-11c0-5.5-1.7-10.2-3.4-13.9c3.8,1.2,7.1,3.1,9.9,6.1
		c0.7-2.3,1.2-4.6,1.2-6.9c0-8.4-4.6-14.5-7.9-17.6c5.1,0,8.1,0.8,11,1.9c0.2-5.2-1.2-11.7-6.1-16.6c-4.3,4.9-8.5,7.9-16.7,10.7
		c7.3,5.8,5.2,14.1-1.7,22.5c-0.6-3.5-1.6-6.6-4-9.4c0.4,4.6-0.6,13.1-10.2,17.6c0.4-3.6-0.2-6.9-0.9-10c-0.7,0.7-1.8,1.8-3.1,2.7
		c-0.2-0.9-0.4-2.6-0.3-3.8c1.7-1.4,3.3-3.2,4.8-5.3c1.4,3.6,2.3,8.5,2.5,10.7c3.4-3.1,6-8.9,2.5-19.4c5.2,2.6,7.8,5.3,9.8,9.8
		c5.3-8.9-0.3-13.7-8.5-16.8c9.8-1,21.6-5.4,27.4-17.5c-3.9-0.2-10.3,1.3-16.2,9c-0.7-0.5-1.7-1.3-2.1-1.9c2.4-3.4,5.4-6,8.5-7.8
		c-0.2-0.4-0.5-0.8-0.7-1H23.5c-1.2,0-2.4,2.2-3,4.7c0.9,0.3,2.1,0.3,3.2,0.3c1.3,0,2.5-0.1,3.9-0.1c2.3,0,6.1,0.3,8.2,1.7
		c-0.4,1-0.8,1.7-1.4,2.3c-0.4-0.2-0.9-0.4-1.4-0.5c-1.1,5.5-5.1,6.7-7.6,6.7c-6.8,0-8.1-5.2-7.6-8.2c-3.4-2-6.3-3.1-8.8-3.1
		c-5.8,0-8.2,6.3-9.1,10.1c3.1-1.1,5.7-1.6,8-1.6C10.9,82.1,13.2,83,14.9,84.9z"/>
	<polygon points="53,174.4 48.8,184.8 57.3,184.8 	"/>
	<polygon points="22.2,174.4 17.9,184.8 26.4,184.8 	"/>
	<path d="M90.4,176.4c0-1.1-0.9-2-2-2h-8.7v4h8.7C89.5,178.4,90.4,177.5,90.4,176.4z"/>
	<path d="M91.1,186.4c0-1.1-1-1.9-2.1-1.9h-9.4v3.9H89C90.1,188.4,91.1,187.5,91.1,186.4z"/>
</g>
</svg>
