<?xml version="1.0" encoding="utf-8"?>
<!-- Generator: Adobe Illustrator 24.0.0, SVG Export Plug-In . SVG Version: 6.00 Build 0)  -->
<svg version="1.1" id="Layer_1" xmlns="http://www.w3.org/2000/svg" xmlns:xlink="http://www.w3.org/1999/xlink" x="0px" y="0px"
	 viewBox="0 0 256 256" style="enable-background:new 0 0 256 256;" xml:space="preserve">
<style type="text/css">
	.st0{fill:#8699A3;}
</style>
<g>
	<path class="st0" d="M98.67,179.34c0,0-9.59,7.39,4.16,13.62c0,0,8.4,2.9,14.3,9.21c0,0,3.82,3.63,10.25,3.79v0.05h0.45h0.05l0,0
		h0.27l0,0c0.02,0,0.02,0,0.02,0h0.32v-0.03c6.52-0.16,10.4-3.81,10.4-3.81c5.91-6.31,14.31-9.21,14.31-9.21
		c13.76-6.23,4.13-13.62,4.13-13.62l-6.57-5.66c-1.48-1.63,0.57-2.53,0.57-2.53l2.82-0.65c47.72-9.53,59.63-14.42,59.63-14.42
		c26.21-8.49,36.53-23.63,40.46-32.76c3.25-7.44,1.05-17.68,1.05-17.68c-7.35-27.08-42.41-40.72-42.41-40.72
		c-9.38-3.42-5.62,1.94-5.62,1.94s40.32,18.57,40.32,44.4c0,32.02-43.98,41.61-43.98,41.61C243.6,140.15,243.71,113,243.71,113
		c-0.68-27.16-36.46-46.14-36.46-46.14c-13.82-7.86-21.31-9.79-21.31-9.79c-18-6-12.15,1-12.15,1s54.32,17.11,54.32,54.88
		c0,38.55-75.72,50.94-75.72,50.94c71.2-13.22,71.23-50.66,71.23-50.66c0-33.73-49.83-55.17-49.83-55.17
		c-7.48-4.08-20.19-7.38-20.19-7.38c-11.74-2.51-5.08,2.66-5.08,2.66c47.71,27.88,47.71,58.69,47.71,58.69
		c0,34.25-31.38,42.8-31.38,42.8c-9.14,3.52-26.78,6.41-26.78,6.41c-2.85,0.83-4.86,2.78-4.86,5.1c0,0.92,0.22,1.87,0.9,2.57
		c1.71,1.84,7.52,6.15,7.52,6.15c2.08,2,3.32,4.41,3.32,7.04c0,6.39-7.41,11.65-16.59,11.76h-0.68
		c-9.16-0.11-16.58-5.37-16.58-11.76c0-2.63,1.2-5.05,3.3-7.04c0,0,5.78-4.31,7.51-6.15c0.69-0.7,0.91-1.65,0.91-2.57
		c0-2.32-1.98-4.27-4.85-5.1c0,0-17.69-2.88-26.8-6.41c0,0-31.38-8.55-31.38-42.8c0,0,0-30.82,47.71-58.69c0,0,6.67-5.16-5.08-2.66
		c0,0-12.69,3.31-20.14,7.38c0,0-49.88,21.44-49.88,55.17c0,0,0,37.44,71.26,50.66c0,0-75.73-12.4-75.73-50.94
		c0-37.78,54.35-54.88,54.35-54.88s5.82-7-12.19-1c0,0-7.5,1.93-21.31,9.79c0,0-35.78,18.98-36.49,46.14c0,0,0.14,27.14,40.13,39.87
		c0,0-43.99-9.58-43.99-41.61c0-25.83,40.35-44.4,40.35-44.4s3.77-5.37-5.6-1.94c0,0-35.07,13.64-42.42,40.72
		c0,0-2.24,10.24,1.05,17.68c3.92,9.13,14.23,24.27,40.44,32.76c0,0,11.91,4.89,59.64,14.42l2.81,0.65c0,0,2.06,0.9,0.59,2.53
		L98.67,179.34z"/>
</g>
</svg>
