<?xml version="1.0" encoding="utf-8"?>
<!-- Generator: Adobe Illustrator 24.0.0, SVG Export Plug-In . SVG Version: 6.00 Build 0)  -->
<svg version="1.1" id="Layer_1" xmlns="http://www.w3.org/2000/svg" xmlns:xlink="http://www.w3.org/1999/xlink" x="0px" y="0px"
	 viewBox="0 0 256 256" style="enable-background:new 0 0 256 256;" xml:space="preserve">
<g>
	<path d="M98.7,179.3c0,0-9.6,7.4,4.2,13.6c0,0,8.4,2.9,14.3,9.2c0,0,3.8,3.6,10.2,3.8v0.1h0.4h0.1l0,0h0.3l0,0c0,0,0,0,0,0h0.3v0
		c6.5-0.2,10.4-3.8,10.4-3.8c5.9-6.3,14.3-9.2,14.3-9.2c13.8-6.2,4.1-13.6,4.1-13.6l-6.6-5.7c-1.5-1.6,0.6-2.5,0.6-2.5l2.8-0.6
		c47.7-9.5,59.6-14.4,59.6-14.4c26.2-8.5,36.5-23.6,40.5-32.8c3.2-7.4,1.1-17.7,1.1-17.7c-7.4-27.1-42.4-40.7-42.4-40.7
		c-9.4-3.4-5.6,1.9-5.6,1.9s40.3,18.6,40.3,44.4c0,32-44,41.6-44,41.6c40-12.7,40.1-39.9,40.1-39.9c-0.7-27.2-36.5-46.1-36.5-46.1
		c-13.8-7.9-21.3-9.8-21.3-9.8c-18-6-12.1,1-12.1,1s54.3,17.1,54.3,54.9c0,38.6-75.7,50.9-75.7,50.9c71.2-13.2,71.2-50.7,71.2-50.7
		c0-33.7-49.8-55.2-49.8-55.2c-7.5-4.1-20.2-7.4-20.2-7.4c-11.7-2.5-5.1,2.7-5.1,2.7c47.7,27.9,47.7,58.7,47.7,58.7
		c0,34.2-31.4,42.8-31.4,42.8c-9.1,3.5-26.8,6.4-26.8,6.4c-2.9,0.8-4.9,2.8-4.9,5.1c0,0.9,0.2,1.9,0.9,2.6c1.7,1.8,7.5,6.1,7.5,6.1
		c2.1,2,3.3,4.4,3.3,7c0,6.4-7.4,11.6-16.6,11.8h-0.7c-9.2-0.1-16.6-5.4-16.6-11.8c0-2.6,1.2-5.1,3.3-7c0,0,5.8-4.3,7.5-6.1
		c0.7-0.7,0.9-1.6,0.9-2.6c0-2.3-2-4.3-4.8-5.1c0,0-17.7-2.9-26.8-6.4c0,0-31.4-8.6-31.4-42.8c0,0,0-30.8,47.7-58.7
		c0,0,6.7-5.2-5.1-2.7c0,0-12.7,3.3-20.1,7.4c0,0-49.9,21.4-49.9,55.2c0,0,0,37.4,71.3,50.7c0,0-75.7-12.4-75.7-50.9
		c0-37.8,54.3-54.9,54.3-54.9s5.8-7-12.2-1c0,0-7.5,1.9-21.3,9.8c0,0-35.8,19-36.5,46.1c0,0,0.1,27.1,40.1,39.9c0,0-44-9.6-44-41.6
		c0-25.8,40.3-44.4,40.3-44.4s3.8-5.4-5.6-1.9c0,0-35.1,13.6-42.4,40.7c0,0-2.2,10.2,1,17.7c3.9,9.1,14.2,24.3,40.4,32.8
		c0,0,11.9,4.9,59.6,14.4l2.8,0.6c0,0,2.1,0.9,0.6,2.5L98.7,179.3z"/>
</g>
</svg>
