<?xml version="1.0" encoding="utf-8"?>
<!-- Generator: Adobe Illustrator 24.0.0, SVG Export Plug-In . SVG Version: 6.00 Build 0)  -->
<svg version="1.1" id="Layer_1" xmlns="http://www.w3.org/2000/svg" xmlns:xlink="http://www.w3.org/1999/xlink" x="0px" y="0px"
	 viewBox="0 0 256 256" style="enable-background:new 0 0 256 256;" xml:space="preserve">
<g>
	<g>
		<path d="M128.1,172.5c24.6,0,44.6-19.9,44.6-44.6c0-24.6-20-44.6-44.6-44.6s-44.6,20-44.6,44.6
			C83.6,152.5,103.5,172.5,128.1,172.5z M128.1,86.6c22.8,0,41.3,18.5,41.3,41.3c0,22.8-18.5,41.3-41.3,41.3
			c-22.8,0-41.3-18.5-41.3-41.3C86.9,105.1,105.4,86.6,128.1,86.6z"/>
		<path d="M6.9,110.1c2,2.5,4.5,5.3,7.3,8.5h0c2.6,2.9,5.6,6.2,8.9,9.5h0c2.7,2.7,5.6,5.6,8.7,8.5h0c3.3,3.1,6.9,6.3,10.7,9.5h0
			c3.4,2.9,6.9,5.7,10.7,8.5h0c4.2,3.1,8.6,6.2,13.1,9.2h0h14.4H88c9.9,11,24.2,17.9,40.1,17.9s30.3-6.9,40.1-17.9h21.2h0
			c40.6-26.3,66.4-62.6,66.4-62.6h0H175C165.8,85,148.2,74,128.1,74c-20.1,0-37.6,11-46.9,27.3H78H0h0C0,101.3,2.4,104.7,6.9,110.1
			C6.9,110.1,6.9,110.1,6.9,110.1z M34,136.7c-3-2.8-5.9-5.6-8.8-8.5h49.1c0,2.9,0.2,5.7,0.7,8.5H34z M222.1,136.7h-40.7
			c0.4-2.8,0.7-5.6,0.7-8.5h48.8C228,131.1,225,133.9,222.1,136.7z M247.3,110.1c-2.1,2.5-4.6,5.4-7.4,8.5h-58.6
			c-0.5-2.9-1.2-5.8-2.2-8.5H247.3z M178.9,146.2h32.3c-3.6,3-7.2,5.8-10.8,8.5h-25.4C176.5,152,177.8,149.1,178.9,146.2z
			 M128.1,81.2c25.8,0,46.7,20.9,46.7,46.7c0,25.7-20.9,46.6-46.7,46.6s-46.7-20.9-46.7-46.6C81.5,102.1,102.4,81.2,128.1,81.2z
			 M81.4,154.7H55.6c-3.6-2.7-7.2-5.6-10.8-8.5h32.6C78.5,149.1,79.8,152,81.4,154.7z M77.2,110.1c-1,2.7-1.7,5.6-2.2,8.5H16.1
			c-2.8-3.1-5.3-6-7.4-8.5H77.2z"/>
		<rect x="122.5" y="116.5" width="5.6" height="23.1"/>
		<path d="M106,139.6l5.8-13.6v13.6h5.7v-23.1h-5.6h-0.1h-0.6l-6.6,15.2l-6-15.2h-6.4v23.1h4.8c0,0,0-9.3,0-13.9l5.5,13.9H106z"/>
		<polygon points="138,125.7 148.7,139.6 153.1,139.6 153.1,116.5 148.2,116.5 148.2,130.5 148.2,130.5 137.4,116.5 133.1,116.5 
			133.1,139.6 138,139.6 		"/>
		<rect x="158.1" y="116.5" width="5.6" height="23.1"/>
	</g>
</g>
</svg>
