<?xml version="1.0" encoding="utf-8"?>
<!-- Generator: Adobe Illustrator 24.0.0, SVG Export Plug-In . SVG Version: 6.00 Build 0)  -->
<svg version="1.1" id="Layer_1" xmlns="http://www.w3.org/2000/svg" xmlns:xlink="http://www.w3.org/1999/xlink" x="0px" y="0px"
	 viewBox="0 0 256 256" style="enable-background:new 0 0 256 256;" xml:space="preserve">
<style type="text/css">
	.st0{fill:#8699A3;}
</style>
<g>
	<g>
		<path class="st0" d="M128.15,172.47c24.63,0,44.58-19.95,44.58-44.57c0-24.64-19.96-44.6-44.58-44.6
			c-24.62,0-44.58,19.96-44.58,44.6C83.57,152.52,103.54,172.47,128.15,172.47z M128.15,86.63c22.8,0,41.27,18.48,41.27,41.28
			c0,22.78-18.47,41.26-41.27,41.26c-22.79,0-41.26-18.48-41.26-41.26C86.89,105.11,105.36,86.63,128.15,86.63z"/>
		<path class="st0" d="M6.95,110.13c2.02,2.46,4.48,5.34,7.33,8.51h-0.02c2.64,2.95,5.63,6.16,8.94,9.53h0.02
			c2.7,2.72,5.6,5.59,8.71,8.49h-0.02c3.35,3.12,6.92,6.31,10.72,9.52h0.02c3.38,2.86,6.94,5.69,10.66,8.51H53.3
			c4.18,3.15,8.56,6.21,13.14,9.18h0.01h14.37h7.19c9.87,11.02,24.2,17.95,40.14,17.95c15.94,0,30.28-6.93,40.14-17.95h21.25h0.02
			c40.63-26.32,66.43-62.6,66.43-62.6h-0.02h-80.94c-9.27-16.3-26.8-27.27-46.9-27.27c-20.09,0-37.61,10.97-46.88,27.27h-3.28H0.02
			H0c0,0,2.42,3.39,6.93,8.86H6.95z M33.96,136.66c-2.97-2.76-5.91-5.59-8.79-8.49h49.08c0.01,2.88,0.25,5.73,0.7,8.49H33.96z
			 M222.06,136.66h-40.7c0.45-2.76,0.7-5.61,0.71-8.49h48.78C227.97,131.07,225.03,133.9,222.06,136.66z M247.27,110.13
			c-2.08,2.49-4.55,5.37-7.39,8.51h-58.6c-0.5-2.93-1.25-5.77-2.19-8.51H247.27z M178.89,146.18h32.33
			c-3.58,2.96-7.19,5.81-10.83,8.51h-25.44C176.5,151.98,177.82,149.13,178.89,146.18z M128.15,81.23
			c25.77,0,46.66,20.89,46.66,46.67c0,25.75-20.89,46.63-46.66,46.63c-25.77,0-46.66-20.89-46.66-46.63
			C81.5,102.13,102.39,81.23,128.15,81.23z M81.36,154.69H55.63c-3.63-2.7-7.24-5.55-10.82-8.51h32.62
			C78.49,149.13,79.81,151.98,81.36,154.69z M77.24,110.13c-0.96,2.74-1.69,5.58-2.2,8.51h-58.9c-2.84-3.14-5.31-6.01-7.38-8.51
			H77.24z"/>
		<rect x="122.52" y="116.48" class="st0" width="5.64" height="23.09"/>
		<path class="st0" d="M105.98,139.57l5.8-13.58v13.58h5.69v-23.09h-5.55h-0.14h-0.56l-6.55,15.22l-6-15.22h-6.37v23.09h4.84
			c0,0,0-9.29,0-13.9l5.52,13.9H105.98z"/>
		<polygon class="st0" points="137.98,125.65 148.7,139.57 153.06,139.57 153.06,116.48 148.16,116.48 148.16,130.51 148.16,130.52 
			137.36,116.48 133.14,116.48 133.14,139.57 137.98,139.57 		"/>
		<rect x="158.12" y="116.48" class="st0" width="5.64" height="23.09"/>
	</g>
</g>
</svg>
