<?xml version="1.0" encoding="utf-8"?>
<!-- Generator: Adobe Illustrator 24.0.0, SVG Export Plug-In . SVG Version: 6.00 Build 0)  -->
<svg version="1.1" id="Layer_1" xmlns="http://www.w3.org/2000/svg" xmlns:xlink="http://www.w3.org/1999/xlink" x="0px" y="0px"
	 viewBox="0 0 256 256" style="enable-background:new 0 0 256 256;" xml:space="preserve">
<path d="M250.7,241.1H224V82.4c0-2.9-2.4-5.3-5.3-5.3h-75V42.6c0-2.3-1.5-4.4-3.7-5L31.5,4.2C29.9,3.7,28.2,4,26.8,5
	c-1.4,1-2.1,2.6-2.1,4.2v231.8H5.3c-2.9,0-5.3,2.4-5.3,5.3s2.4,5.3,5.3,5.3h245.5c2.9,0,5.3-2.4,5.3-5.3S253.6,241.1,250.7,241.1z
	 M213.4,87.6v153.5h-15.5V201c0-2.9-2.4-5.3-5.3-5.3h-26.4c-2.9,0-5.3,2.4-5.3,5.3v40.1h-17.3V87.6H213.4z M187.4,241.1h-15.8v-34.8
	h15.8V241.1z M35.2,16.4l97.9,30.1v194.6h-24v-43.5c0-2.9-2.4-5.3-5.3-5.3H67.2c-2.9,0-5.3,2.4-5.3,5.3v43.5H35.2V16.4z M98.6,241.1
	h-26v-38.3h26C98.5,202.8,98.5,241.1,98.6,241.1z"/>
</svg>
