<?xml version="1.0" encoding="utf-8"?>
<!-- Generator: Adobe Illustrator 24.0.0, SVG Export Plug-In . SVG Version: 6.00 Build 0)  -->
<svg version="1.1" id="Layer_1" xmlns="http://www.w3.org/2000/svg" xmlns:xlink="http://www.w3.org/1999/xlink" x="0px" y="0px"
	 viewBox="0 0 256 256" style="enable-background:new 0 0 256 256;" xml:space="preserve">
<style type="text/css">
	.st0{fill:#8699A3;}
</style>
<path class="st0" d="M250.73,241.1h-26.76V82.37c0-2.91-2.36-5.27-5.27-5.27h-75.02V42.64c0-2.32-1.51-4.36-3.72-5.04L31.5,4.23
	c-1.6-0.49-3.33-0.2-4.68,0.8c-1.35,0.99-2.14,2.57-2.14,4.24V241.1H5.27c-2.91,0-5.27,2.36-5.27,5.27c0,2.91,2.36,5.27,5.27,5.27
	h245.46c2.91,0,5.27-2.36,5.27-5.27C256,243.46,253.64,241.1,250.73,241.1z M213.42,87.64V241.1H197.9v-40.08
	c0-2.91-2.36-5.27-5.27-5.27h-26.37c-2.91,0-5.27,2.36-5.27,5.27v40.08h-17.31V87.64H213.42z M187.35,241.1h-15.82v-34.81h15.82
	V241.1z M35.22,16.41l97.91,30.13V241.1H109.1v-43.54c0-2.91-2.36-5.27-5.27-5.27H67.25c-2.91,0-5.27,2.36-5.27,5.27v43.54H35.22
	V16.41z M98.55,241.1H72.52v-38.27h26.03V241.1z"/>
</svg>
