<svg xmlns="http://www.w3.org/2000/svg" viewBox="0 0 32.75 32.11"><defs><style>.a{fill:none;stroke:#000;stroke-linecap:round;stroke-linejoin:round;stroke-width:0.75px;}</style></defs><title>8</title><path class="a" d="M32,31.68m-28.75,0,17.47-.74,0-17.66h8.84V30.94m-9-23.15h4.91v5.5M9.31,30.94V.32L20,2.72V30.94m-2.05,0v-4a.38.38,0,0,0-.37-.38H12.21a.37.37,0,0,0-.37.38v4" transform="translate(0.38 0.05)"/><line class="a" x1="26.68" y1="16.47" x2="27.36" y2="16.47"/><line class="a" x1="26.68" y1="19.22" x2="27.36" y2="19.22"/><line class="a" x1="26.68" y1="21.96" x2="27.36" y2="21.96"/><line class="a" x1="23.11" y1="16.47" x2="23.78" y2="16.47"/><line class="a" x1="23.11" y1="19.22" x2="23.78" y2="19.22"/><line class="a" x1="23.11" y1="21.96" x2="23.78" y2="21.96"/><line class="a" x1="17.07" y1="6.04" x2="17.75" y2="6.04"/><line class="a" x1="17.07" y1="9.98" x2="17.75" y2="9.98"/><line class="a" x1="17.07" y1="13.92" x2="17.75" y2="13.92"/><line class="a" x1="17.07" y1="17.86" x2="17.75" y2="17.86"/><line class="a" x1="17.07" y1="21.8" x2="17.75" y2="21.8"/><line class="a" x1="14.7" y1="6.04" x2="15.37" y2="6.04"/><line class="a" x1="14.7" y1="9.98" x2="15.37" y2="9.98"/><line class="a" x1="14.7" y1="13.92" x2="15.37" y2="13.92"/><line class="a" x1="14.7" y1="17.86" x2="15.37" y2="17.86"/><line class="a" x1="14.7" y1="21.8" x2="15.37" y2="21.8"/><line class="a" x1="12.32" y1="6.04" x2="13" y2="6.04"/><line class="a" x1="12.32" y1="9.98" x2="13" y2="9.98"/><line class="a" x1="12.32" y1="13.92" x2="13" y2="13.92"/><line class="a" x1="12.32" y1="17.86" x2="13" y2="17.86"/><line class="a" x1="12.32" y1="21.8" x2="13" y2="21.8"/><path class="a" d="M26.56,30.94v-4a.38.38,0,0,0-.37-.38H22.8a.37.37,0,0,0-.37.38v4" transform="translate(0.38 0.05)"/><line class="a" x1="0.38" y1="31.73" x2="32.38" y2="31.73"/><polyline class="a" points="9.69 0.38 5.52 5.09 5.52 31.47"/></svg>