<?xml version="1.0" encoding="utf-8"?>
<!-- Generator: Adobe Illustrator 24.0.0, SVG Export Plug-In . SVG Version: 6.00 Build 0)  -->
<svg version="1.1" id="Layer_1" xmlns="http://www.w3.org/2000/svg" xmlns:xlink="http://www.w3.org/1999/xlink" x="0px" y="0px"
	 viewBox="0 0 256 256" style="enable-background:new 0 0 256 256;" xml:space="preserve">
<style type="text/css">
	.st0{fill:#8699A3;}
</style>
<g>
	<path class="st0" d="M181.66,32.38v199.79c26.3-17.29,64.59-69.83,74.34-99.89C246.25,103.01,207.95,49.67,181.66,32.38z
		 M198.71,72.04c15.92,18.67,31.8,42.72,39.16,60.28c-7.18,17.53-23.25,41.46-39.16,60.28V72.04z"/>
	<path class="st0" d="M0,132.27c0,66.81,54.06,120.18,120.12,120.18c20.23,0,36.74-4.46,50.29-13.49v-60.04
		c-13.55,9.72-31.56,15.71-45.05,15.71c-37.67,0-64.56-27.82-64.56-62.35c0-34.55,26.89-61.66,64.56-61.66
		c13.49,0,31.5,5.27,45.05,15.14v-60.1C156.85,17.27,140.34,12,120.12,12C54.06,12,0,66.15,0,132.27z"/>
</g>
</svg>
