<?xml version="1.0" encoding="utf-8"?>
<!-- Generator: Adobe Illustrator 24.0.0, SVG Export Plug-In . SVG Version: 6.00 Build 0)  -->
<svg version="1.1" id="Layer_1" xmlns="http://www.w3.org/2000/svg" xmlns:xlink="http://www.w3.org/1999/xlink" x="0px" y="0px"
	 viewBox="0 0 256 256" style="enable-background:new 0 0 256 256;" xml:space="preserve">
<g>
	<path d="M181.7,32.4v199.8c26.3-17.3,64.6-69.8,74.3-99.9C246.2,103,207.9,49.7,181.7,32.4z M198.7,72
		c15.9,18.7,31.8,42.7,39.2,60.3c-7.2,17.5-23.2,41.5-39.2,60.3V72z"/>
	<path d="M0,132.3c0,66.8,54.1,120.2,120.1,120.2c20.2,0,36.7-4.5,50.3-13.5v-60c-13.6,9.7-31.6,15.7-45.1,15.7
		c-37.7,0-64.6-27.8-64.6-62.3c0-34.6,26.9-61.7,64.6-61.7c13.5,0,31.5,5.3,45.1,15.1V25.7C156.9,17.3,140.3,12,120.1,12
		C54.1,12,0,66.2,0,132.3z"/>
</g>
</svg>
