<?xml version="1.0" encoding="utf-8"?>
<!-- Generator: Adobe Illustrator 24.0.0, SVG Export Plug-In . SVG Version: 6.00 Build 0)  -->
<svg version="1.1" id="Layer_1" xmlns="http://www.w3.org/2000/svg" xmlns:xlink="http://www.w3.org/1999/xlink" x="0px" y="0px"
	 viewBox="0 0 256 256" style="enable-background:new 0 0 256 256;" xml:space="preserve">
<g>
	<path d="M39.5,74.6C15.3,89,0,108.5,0,128.4c0,19.8,15.2,39.1,39.3,53.3c23.1,13.5,54.5,22.5,88.3,22.5c34.2,0,65.6-8.8,88.8-22.4
		c24.3-14.2,39.5-33.5,39.5-53.4S240.7,89,216.3,74.6C193.2,61,161.8,52,127.7,52C93.8,52,62.6,61,39.5,74.6z M252.3,128.4
		c0,18.4-14.6,36.6-37.7,50.1c-22.7,13.2-53.5,21.9-86.9,21.9c-33.3,0-63.9-8.7-86.4-21.9c-23-13.6-37.5-31.7-37.5-50.1
		c0-18.4,14.6-36.8,37.6-50.5c22.5-13.3,53.1-22.2,86.3-22.2c33.4,0,64.1,8.8,86.7,22.2C237.6,91.5,252.3,109.9,252.3,128.4z"/>
	<polygon points="80.7,72 68.9,102.1 16.3,113.4 68.9,124.6 81.3,156.5 93.9,125.2 150.8,113.4 93.2,100.8 	"/>
	<polygon points="145.8,130.2 123.3,135.2 145.8,140.3 151.4,154 156.5,140.9 180.9,135.2 156.5,130.2 150.8,117.7 	"/>
	<polygon points="210.9,117.7 205.3,130.2 183.4,135.2 205.3,140.3 210.9,154 215.9,140.9 240.3,135.2 215.9,130.2 	"/>
	<polygon points="195.3,117.2 200.3,103.3 224.7,98.3 200.3,93.3 194.6,80.7 189.6,93.3 167.1,98.3 189.6,103.3 	"/>
	<polygon points="172.1,147.7 166.5,160.3 144.6,165.3 166.5,170.3 172.1,183.4 177.7,170.3 202.2,165.3 177.1,159.6 	"/>
	<polygon points="107,151.5 102,164.7 79.5,169.7 102,174.1 107.7,187.8 112.6,174.6 137.1,169.7 112.6,164 	"/>
</g>
</svg>
