<svg xmlns="http://www.w3.org/2000/svg" viewBox="0 0 256 256"><path d="M39.5 74.6C15.3 89 0 108.5 0 128.4c0 19.8 15.2 39.1 39.3 53.3 23.1 13.5 54.5 22.5 88.3 22.5 34.2 0 65.6-8.8 88.8-22.4 24.3-14.2 39.5-33.5 39.5-53.4S240.7 89 216.3 74.6C193.2 61 161.8 52 127.7 52c-33.9 0-65.1 9-88.2 22.6zm212.8 53.8c0 18.4-14.6 36.6-37.7 50.1-22.7 13.2-53.5 21.9-86.9 21.9-33.3 0-63.9-8.7-86.4-21.9-23-13.6-37.5-31.7-37.5-50.1 0-18.4 14.6-36.8 37.6-50.5 22.5-13.3 53.1-22.2 86.3-22.2 33.4 0 64.1 8.8 86.7 22.2 23.2 13.6 37.9 32 37.9 50.5z"/><path d="M80.7 72l-11.8 30.1-52.6 11.3 52.6 11.2 12.4 31.9 12.6-31.3 56.9-11.8-57.6-12.6zM145.8 130.2l-22.5 5 22.5 5.1 5.6 13.7 5.1-13.1 24.4-5.7-24.4-5-5.7-12.5zM210.9 117.7l-5.6 12.5-21.9 5 21.9 5.1 5.6 13.7 5-13.1 24.4-5.7-24.4-5zM195.3 117.2l5-13.9 24.4-5-24.4-5-5.7-12.6-5 12.6-22.5 5 22.5 5zM172.1 147.7l-5.6 12.6-21.9 5 21.9 5 5.6 13.1 5.6-13.1 24.5-5-25.1-5.7zM107 151.5l-5 13.2-22.5 5 22.5 4.4 5.7 13.7 4.9-13.2 24.5-4.9-24.5-5.7z"/></svg>