<?xml version="1.0" encoding="utf-8"?>
<!-- Generator: Adobe Illustrator 24.0.0, SVG Export Plug-In . SVG Version: 6.00 Build 0)  -->
<svg version="1.1" id="Layer_1" xmlns="http://www.w3.org/2000/svg" xmlns:xlink="http://www.w3.org/1999/xlink" x="0px" y="0px"
	 viewBox="0 0 256 256" style="enable-background:new 0 0 256 256;" xml:space="preserve">
<style type="text/css">
	.st0{fill:#8699A3;}
</style>
<g>
	<path class="st0" d="M39.5,74.64C15.27,89.01,0,108.52,0,128.35c0,19.75,15.23,39.09,39.34,53.28
		c23.09,13.54,54.46,22.46,88.31,22.46c34.19,0,65.64-8.82,88.81-22.38c24.27-14.23,39.55-33.53,39.55-53.36
		s-15.35-39.37-39.67-53.73C193.18,60.98,161.76,52,127.7,52C93.83,52,62.57,61.03,39.5,74.64z M252.26,128.35
		c0,18.42-14.56,36.58-37.66,50.1c-22.66,13.2-53.46,21.9-86.9,21.9c-33.27,0-63.9-8.7-86.43-21.9
		c-23.05-13.55-37.52-31.68-37.52-50.1c0-18.39,14.59-36.8,37.64-50.47c22.53-13.34,53.13-22.19,86.31-22.19
		c33.36,0,64.13,8.76,86.72,22.16C237.62,91.52,252.26,109.91,252.26,128.35z"/>
	<polygon class="st0" points="80.73,72.02 68.86,102.06 16.29,113.36 68.86,124.55 81.35,156.52 93.87,125.23 150.84,113.36 
		93.24,100.85 	"/>
	<polygon class="st0" points="145.84,130.24 123.26,135.2 145.84,140.28 151.43,153.98 156.48,140.91 180.87,135.2 156.48,130.24 
		150.84,117.74 	"/>
	<polygon class="st0" points="210.9,117.74 205.29,130.24 183.36,135.2 205.29,140.28 210.9,153.98 215.94,140.91 240.33,135.2 
		215.94,130.24 	"/>
	<polygon class="st0" points="195.31,117.15 200.3,103.3 224.69,98.31 200.3,93.26 194.64,80.74 189.62,93.26 167.13,98.31 
		189.62,103.3 	"/>
	<polygon class="st0" points="172.12,147.73 166.47,160.27 144.6,165.26 166.47,170.27 172.12,183.4 177.72,170.27 202.19,165.26 
		177.11,159.62 	"/>
	<polygon class="st0" points="107.02,151.48 102.02,164.69 79.49,169.68 102.02,174.05 107.68,187.8 112.63,174.64 137.05,169.68 
		112.63,164.02 	"/>
</g>
</svg>
