<svg xmlns="http://www.w3.org/2000/svg" viewBox="0 0 32.75 31.43"><defs><style>.a{fill:none;stroke:#000;stroke-linecap:round;stroke-linejoin:round;stroke-width:0.75px;}</style></defs><title>84</title><path class="a" d="M31.11,18.14a2.29,2.29,0,0,0-2.46-.64c.35-2.65.33-5.68-1.17-7.06-2.08-1.94-9.33-1.94-11.42,0-1.53,1.41-1.51,4.51-1.16,7.19a2.26,2.26,0,0,0-2.75.51,2.45,2.45,0,0,0-.84,2.33,4.76,4.76,0,0,0,2.11,2.8l.12,4.46a.61.61,0,0,0,.6.59h0l.32,2.5a.6.6,0,0,0,.6.52h.95a.63.63,0,0,0,.62-.52l.32-2.5a.61.61,0,0,0,.41-.21h8.44a.63.63,0,0,0,.43.21l.32,2.5a.6.6,0,0,0,.6.52h1a.6.6,0,0,0,.6-.52l.32-2.5h0a.61.61,0,0,0,.61-.59l.12-4.46A4.76,4.76,0,0,0,32,20.47,2.46,2.46,0,0,0,31.11,18.14Z" transform="translate(0.37 -0.28)"/><line class="a" x1="14.49" y1="28.02" x2="17.6" y2="28.02"/><line class="a" x1="26.47" y1="28.02" x2="29.58" y2="28.02"/><line class="a" x1="16.91" y1="22.35" x2="27.29" y2="22.35"/><path class="a" d="M14.9,17.63a15.76,15.76,0,0,1,.86,4.77c-.09,2.06.05,5.72.05,5.72" transform="translate(0.37 -0.28)"/><path class="a" d="M28.59,17.63a15.76,15.76,0,0,0-.86,4.77c.09,2.06,0,5.72,0,5.72" transform="translate(0.37 -0.28)"/><path class="a" d="M6.31,9.47h4.44A.6.6,0,0,0,11,9.42a.68.68,0,0,0,.38-.89l-3-7.44A.68.68,0,0,0,7.78.66H3.67A.66.66,0,0,0,3,1.09l-3,7.44a.66.66,0,0,0,.07.64.67.67,0,0,0,.57.3H6.31Z" transform="translate(0.37 -0.28)"/><path class="a" d="M5.81,30.06V9.62" transform="translate(0.37 -0.28)"/><line class="a" x1="3" y1="30.19" x2="9.21" y2="30.19"/></svg>