<svg xmlns="http://www.w3.org/2000/svg" viewBox="0 0 28.2 32.75"><defs><style>.a{fill:none;stroke:#000;stroke-linecap:round;stroke-linejoin:round;stroke-width:0.75px;}</style></defs><title>85</title><path class="a" d="M18.61,11.35A1.77,1.77,0,0,1,20.33,10a2.52,2.52,0,0,1,.47.06l.65.19-.92-4.61L22,6.34A.63.63,0,0,0,22.84,6l1.09-2.56a.61.61,0,0,0-.25-.78L20.43.54A3.31,3.31,0,0,0,17.94.07L16.69.32c-.06,0-.12.06-.12.16a2.14,2.14,0,0,1-1.81,1.74,2.06,2.06,0,0,1-2.34-.9.18.18,0,0,0-.16-.09L11,1.48A3.58,3.58,0,0,0,8.86,2.85L6.68,6a.61.61,0,0,0,.06.81l2,1.93a.63.63,0,0,0,.9,0L10.7,7.53l2.58,9.37a.65.65,0,0,0,.72.47l3.46-.69Z" transform="translate(-1.9 0.38)"/><path class="a" d="M29.37,14.46l-8.24-2.19a.48.48,0,0,0-.59.38l-3.68,17a.46.46,0,0,0,.34.56l1.91.5a.5.5,0,0,0,.59-.32l4.24-12.35a.07.07,0,0,1,.13,0l-2.5,12.82a.48.48,0,0,0,.34.57l1.91.49a.48.48,0,0,0,.59-.31l5.3-16.62A.47.47,0,0,0,29.37,14.46Z" transform="translate(-1.9 0.38)"/><line class="a" x1="3.56" y1="26.04" x2="15.13" y2="26.04"/><line class="a" x1="0.38" y1="29.32" x2="11.95" y2="29.32"/></svg>