<svg xmlns="http://www.w3.org/2000/svg" viewBox="0 0 28.45 32.75"><defs><style>.a{fill:none;stroke:#000;stroke-linecap:round;stroke-linejoin:round;stroke-width:0.75px;}</style></defs><title>864</title><path class="a" d="M29.85,14.33v-6A9.32,9.32,0,0,0,28.1,2.83,8.17,8.17,0,0,0,24.52,0a.39.39,0,0,0-.3,0,8.29,8.29,0,0,0-3.58,2.8A9.38,9.38,0,0,0,18.9,8.34v6a1.36,1.36,0,0,0,1.35,1.36h2.07v1.48l-.84,11.74a3,3,0,0,0,.77,2.24,2.57,2.57,0,0,0,1.91.85h.43a2.59,2.59,0,0,0,1.91-.85,3,3,0,0,0,.77-2.24l-.84-11.74V15.69h2.06A1.36,1.36,0,0,0,29.85,14.33Z" transform="translate(-1.78 0.38)"/><path class="a" d="M2.15.4V14.25a1.44,1.44,0,0,0,1.43,1.44h2v1.48L4.74,28.91a3,3,0,0,0,.77,2.24A2.59,2.59,0,0,0,7.42,32h.43a2.59,2.59,0,0,0,1.91-.85,3,3,0,0,0,.77-2.24L9.69,17.17V15.69h2a1.45,1.45,0,0,0,1.44-1.44V.4" transform="translate(-1.78 0.38)"/><line class="a" x1="3.99" y1="0.77" x2="3.99" y2="11.62"/><line class="a" x1="7.46" y1="0.77" x2="7.46" y2="11.62"/><line class="a" x1="11.1" y1="11.77" x2="0.52" y2="11.77"/><line class="a" x1="7.9" y1="16.07" x2="3.64" y2="16.07"/><line class="a" x1="7.9" y1="18.22" x2="4.05" y2="18.22"/><line class="a" x1="24.49" y1="18.22" x2="20.63" y2="18.22"/><line class="a" x1="20.54" y1="16.06" x2="24.66" y2="16.06"/><line class="a" x1="22.6" y1="0.69" x2="22.6" y2="15.87"/></svg>