<?xml version="1.0" encoding="utf-8"?>
<!-- Generator: Adobe Illustrator 24.0.0, SVG Export Plug-In . SVG Version: 6.00 Build 0)  -->
<svg version="1.1" id="Layer_1" xmlns="http://www.w3.org/2000/svg" xmlns:xlink="http://www.w3.org/1999/xlink" x="0px" y="0px"
	 viewBox="0 0 256 256" style="enable-background:new 0 0 256 256;" xml:space="preserve">
<g>
	<path d="M218.3,4.1c0,0-67.4,68.6-73.6,73.6c-6.2,6.2-7.5,8.7-7.5,18.7v150.9c0,5,3.7,8.7,8.7,8.7h73.6c5,0,8.7-3.7,8.7-8.7V7.8
		C229.5,0.3,225.8-3.4,218.3,4.1z"/>
	<path d="M108.6,256c5,0,8.7-3.7,8.7-8.7V96.4c0-8.7-1.2-12.5-7.5-17.5c-6.2-6.2-73.6-74.8-73.6-74.8C28.7-2.2,25,0.3,25,7.8V246
		c0,5,3.7,8.7,8.7,8.7h74.8V256z"/>
</g>
</svg>
