<svg xmlns="http://www.w3.org/2000/svg" viewBox="0 0 250 250" enable-background="new 0 0 250 250"><style type="text/css">.st0{fill-rule:evenodd;clip-rule:evenodd;}</style><path d="M235.5 43.6c-44.8-51-133.5-23-181.3 17.5C-4 115.3-13.4 178.9 16.8 212.8c25.8 24.1 62.1 23 93.4 19.7 25.2-4.8 53-15.6 78.2-35.4 20.4-16.1 39.1-38.2 53.1-68.1 20.3-43.2-1.6-80.5-6-85.4zm-50.6 146.8c-12.6 11.5-94.1 62.1-147.8 9.9C-7.3 157 32.2 89 56.4 68.8c4.4-2.2 29.7-31.2 76.4-37.2 34.7-4.5 64.1 5 81.8 24.7 9.2 10.3 15.2 23.4 17.1 38.8 5.4 44.9-34.1 83.8-46.8 95.3zM73.5 70.7v110.9H120v-53.7c0-7.4-1.4-13.4-9.9-21.4L73.5 70.7zM178.2 70.7v110.9h-46.4v-53.7c0-7.4 1.4-13.4 9.9-21.4l36.5-35.8z" class="st0"/></svg>