<?xml version="1.0" encoding="utf-8"?>
<!-- Generator: Adobe Illustrator 24.0.0, SVG Export Plug-In . SVG Version: 6.00 Build 0)  -->
<svg version="1.1" id="Layer_1" xmlns="http://www.w3.org/2000/svg" xmlns:xlink="http://www.w3.org/1999/xlink" x="0px" y="0px"
	 viewBox="0 0 250 250" style="enable-background:new 0 0 250 250;" xml:space="preserve">
<style type="text/css">
	.st0{fill-rule:evenodd;clip-rule:evenodd;}
</style>
<g>
	<path class="st0" d="M235.5,43.6c-44.8-51-133.5-23-181.3,17.5c-58.2,54.2-67.6,117.8-37.4,151.7c25.8,24.1,62.1,23,93.4,19.7
		c25.2-4.8,53-15.6,78.2-35.4c20.4-16.1,39.1-38.2,53.1-68.1C261.8,85.8,239.9,48.5,235.5,43.6L235.5,43.6L235.5,43.6L235.5,43.6z
		 M184.9,190.4c-12.6,11.5-94.1,62.1-147.8,9.9C-7.3,157,32.2,89,56.4,68.8c4.4-2.2,29.7-31.2,76.4-37.2c34.7-4.5,64.1,5,81.8,24.7
		c9.2,10.3,15.2,23.4,17.1,38.8C237.1,140,197.6,178.9,184.9,190.4L184.9,190.4L184.9,190.4L184.9,190.4z"/>
	<path class="st0" d="M73.5,70.7v110.9H120v-53.7l0,0c0-7.4-1.4-13.4-9.9-21.4l0,0L73.5,70.7L73.5,70.7L73.5,70.7z"/>
	<path class="st0" d="M178.2,70.7v110.9h-46.4v-53.7l0,0c0-7.4,1.4-13.4,9.9-21.4l0,0L178.2,70.7L178.2,70.7L178.2,70.7z"/>
</g>
</svg>
