<?xml version="1.0" encoding="utf-8"?>
<!-- Generator: Adobe Illustrator 24.0.0, SVG Export Plug-In . SVG Version: 6.00 Build 0)  -->
<svg version="1.1" id="Layer_1" xmlns="http://www.w3.org/2000/svg" xmlns:xlink="http://www.w3.org/1999/xlink" x="0px" y="0px"
	 viewBox="0 0 256 256" style="enable-background:new 0 0 256 256;" xml:space="preserve">
<g>
	<g>
		<polygon points="194.7,186.6 201.6,186.6 198.1,148.2 		"/>
		<path d="M32.7,93.1L33,222c0.2,15.2,18.8,17.5,18.8,17.5l53.3,0.5c20.3-0.5,25.1,16.1,25.1,16.1c7.6-15.6,22.6-16.1,22.6-16.1
			l50.1,0.5c0.1,0,19.5,2,20.3-16v-2.3c0-0.1,0-0.1,0-0.2l0.1-128.8C223.3,93.1,32.7,93.1,32.7,93.1z M60.9,111
			c-1.2-1.2-2.5-1.8-4.1-1.8c-1.9,0-3.5,0.6-4.8,1.8c-1.3,1.2-2,2.8-2,4.6v7.8v15.6h0c0.4,5.4,5.1,12,5.1,12h0l10.1,13.3l0,0
			c0.6,0.7,5.7,7.6,5.9,14.9l0,0l0,0l0,0v13.9l0,0v1.1v2l0,0v13c0,3.8-1.6,7.1-4.8,9.6c-2.9,2.4-6.3,3.6-10.2,3.6
			c-3.7,0-6.9-1.2-9.8-3.7c-2.9-2.5-4.3-5.6-4.3-9.3l0-16.6l0,0v-6.2h8.5v6.3l0,0l-0.1,14.9c0,1.6,0.6,3,1.8,4.2
			c1.2,1.2,2.5,1.8,4.1,1.8c1.9,0,3.5-0.6,4.8-1.8c1.3-1.2,2-2.8,2-4.6l0-13.2v-14.9c-0.4-4.8-4.6-9.6-4.6-9.6l2.4-1.9l-2.4,1.9
			l-10-13.3l0,0c-0.7-0.8-5.8-8.4-6.4-17.3h0v-9.2h0l0-6.7v-1.1l0,0v-8.2c0-3.8,1.6-7,4.8-9.6c2.9-2.4,6.3-3.6,10.2-3.6
			c3.7,0,6.9,1.3,9.8,3.7c2.8,2.5,4.3,5.5,4.2,9.2v16.6l0,0v6.1h-8.5v-8.5l0,0v-12.7C62.6,113.6,62.1,112.2,60.9,111z M89.5,222.3
			H81V100.7h8.5C89.5,100.7,89.5,222.3,89.5,222.3z M137.2,222.3h-8.5v-55.5l-6,45.9l0,0l-1.3,9.6h-6.1l-1-8l-0.3-1.7l0,0l-6-45.8
			v55.5h-8.5V100.7h8.5l0,0l0,0l10.3,78.8l10.3-78.8h0h8.5L137.2,222.3L137.2,222.3z M176.2,128v8.4h-8.5V128l0,0l0-12.8
			c0-1.6-0.6-3-1.7-4.2c-1.2-1.2-2.6-1.8-4.1-1.8c-1.9,0-3.5,0.6-4.8,1.8c-1.3,1.2-2,2.8-2,4.6v12.7v56.3l0,0v10v12.7
			c0,1.8,0.6,3.4,2,4.6c1.3,1.2,2.9,1.8,4.8,1.8c1.6,0,3-0.6,4.1-1.8c1.2-1.2,1.7-2.7,1.7-4.2l0-12.8l0,0v-8.4h8.4v6.2l0,0l0,16.6
			c0,3.7-1.4,6.8-4.2,9.2c-2.9,2.5-6.1,3.7-9.8,3.7c-3.9,0-7.3-1.2-10.2-3.6c-3.2-2.5-4.8-5.8-4.8-9.6v-8.3l0,0v-5.9v-1.8l0,0v-9.3
			l0,0v-53.9l0,0V128v-5.9l0,0v-8.3c0-3.8,1.6-7,4.8-9.6c2.9-2.4,6.3-3.6,10.2-3.6c3.7,0,7,1.3,9.8,3.7c2.8,2.5,4.3,5.5,4.2,9.2V128
			L176.2,128L176.2,128z M204.8,222.3l-2.4-27h-8.5l-2.4,27h-8.5l10.9-121.6v-0.1h6.7h1.8l0,0l10.9,121.6L204.8,222.3L204.8,222.3z"
			/>
		<path d="M32.7,89.6L32.7,89.6l190.6,0.1v-0.1V0H32.7V89.6z M42.4,19.4c0.4-0.1,0.8-0.2,1-0.2h0.5l0,0c0.2,0,0.4,0,0.5,0h0.5
			c0.4,0,0.7,0,1.1-0.1c0.2,0,0.4-0.1,0.7-0.3l0.4-0.2c1.1-0.4,2.2-0.8,3.4-0.9c2.9-0.2,5.8,0.8,8.4,1.8c0.6,0.2,1.2,0.4,1.8,0.6
			l0.3,0.2c0,0,2.6,1.5,5.2,1.5c1.7,0,3-0.6,4-1.8l0.2-0.2L81,15.2c0.8-0.6,4.2-2.8,10.4-2.8c1.2,0,2.4,0,3.5,0.2l63.4,3.2
			c9.9,0.5,9.9,1,9.9,2.3c0,1.6-1.4,1.8-7.2,2.1c-17.2,1.7-63.4,7.2-69.8,11.3c-0.8,0.4-1.8,1.2-1.8,1.7c0,0.3,0.2,0.6,0.7,1
			c2.2,1.2,43.2,22,71.4,29l33.9,9.6c18.1,3.2,18.6,4,19,4.6l0.3,0.5l-0.1,0.6c-0.1,0.5-0.5,1.1-1.7,1.1c-1,0-3.6-0.3-6.9-0.6
			c-4-0.4-8.5-0.9-10.5-0.9h-0.2c-27.6-2.9-58.6-6.1-88.1-15.4c-3.5-1.1-7-2-10.4-3c-14.6-4.1-28.4-7.9-39.7-19.5
			c-2.9-3-5.3-6.1-7.1-9.5c-0.9-1.7-2.5-3-4-4.4c-0.5-0.4-1-0.8-1.4-1.3c-0.5-0.5-1.1-1-1.6-1.6l-0.2-0.2c-0.4-0.5-1-1.2-1.3-1.9
			L41,19.9L42.4,19.4z"/>
	</g>
</g>
</svg>
