<?xml version="1.0" encoding="utf-8"?>
<!-- Generator: Adobe Illustrator 24.0.0, SVG Export Plug-In . SVG Version: 6.00 Build 0)  -->
<svg version="1.1" id="Layer_1" xmlns="http://www.w3.org/2000/svg" xmlns:xlink="http://www.w3.org/1999/xlink" x="0px" y="0px"
	 viewBox="0 0 256 256" style="enable-background:new 0 0 256 256;" xml:space="preserve">
<style type="text/css">
	.st0{fill:#8699A3;}
</style>
<g>
	<g>
		<polygon class="st0" points="194.67,186.57 201.57,186.57 198.1,148.2 		"/>
		<path class="st0" d="M32.7,93.13l0.31,128.83c0.23,15.16,18.78,17.46,18.78,17.46l53.26,0.47c20.3-0.47,25.14,16.12,25.14,16.12
			c7.56-15.56,22.62-16.12,22.62-16.12l50.13,0.53c0.08,0,19.54,2.02,20.26-16.01v-2.26c0-0.07,0-0.12,0-0.19l0.09-128.83H32.7z
			 M60.89,110.96c-1.16-1.2-2.54-1.78-4.1-1.78c-1.88,0-3.47,0.58-4.8,1.85c-1.28,1.21-1.95,2.76-1.95,4.62v7.76v15.65h-0.02
			c0.38,5.39,5.1,11.99,5.1,11.99h-0.03l10.09,13.31l0,0c0.61,0.72,5.71,7.58,5.9,14.86l0,0l0,0l0,0v13.85l0,0v1.11v1.96l0,0v12.96
			c0,3.83-1.61,7.06-4.81,9.61c-2.89,2.4-6.32,3.59-10.2,3.59c-3.68,0-6.94-1.24-9.78-3.67c-2.87-2.47-4.28-5.58-4.28-9.27
			l0.02-16.59l0,0v-6.19h8.47v6.26l0,0l-0.07,14.95c0,1.61,0.61,3.03,1.79,4.25c1.16,1.2,2.52,1.77,4.09,1.81
			c1.9,0,3.48-0.61,4.78-1.84c1.31-1.25,1.96-2.8,1.96-4.63l0.02-13.2v-14.94c-0.4-4.79-4.62-9.6-4.62-9.6l2.37-1.87l-2.37,1.87
			l-10.05-13.26l0,0c-0.67-0.79-5.78-8.45-6.41-17.33h0.05v-9.16H42l0.02-6.69v-1.07l0,0v-8.24c0-3.82,1.62-7.02,4.78-9.56
			c2.9-2.42,6.33-3.62,10.23-3.62c3.68,0,6.93,1.27,9.79,3.71c2.83,2.47,4.27,5.52,4.25,9.24v16.62l0,0v6.12h-8.46v-8.47l0,0v-12.73
			C62.61,113.56,62.06,112.18,60.89,110.96z M89.52,222.29h-8.48v-121.6h8.48V222.29z M137.17,222.29h-8.5v-55.53l-6.03,45.86
			l0.03,0.02l-1.27,9.65h-6.13l-1.03-7.99l-0.26-1.68l0,0l-5.96-45.79v55.46h-8.5v-121.6h8.5l0,0l0,0l10.3,78.83l10.32-78.83h0.03
			h8.5V222.29L137.17,222.29z M176.19,127.97v8.42h-8.46v-8.42l0,0l0.02-12.8c0-1.58-0.58-2.97-1.74-4.22
			c-1.17-1.2-2.55-1.78-4.13-1.78c-1.89,0-3.47,0.58-4.75,1.85c-1.33,1.24-1.98,2.76-1.98,4.62v12.68v56.31l0,0v10v12.7
			c0,1.83,0.64,3.38,1.98,4.65c1.28,1.2,2.85,1.8,4.75,1.8c1.58,0,2.97-0.57,4.13-1.77c1.16-1.24,1.74-2.66,1.74-4.25l-0.02-12.78
			l0,0v-8.44h8.44v6.21l0,0l0.02,16.59c0,3.7-1.42,6.81-4.24,9.24c-2.87,2.47-6.15,3.68-9.84,3.68c-3.87,0.02-7.26-1.19-10.2-3.61
			c-3.2-2.51-4.79-5.77-4.79-9.6v-8.28l0,0v-5.89v-1.82l0,0v-9.26l0,0v-53.94l0,0v-1.85v-5.89l0,0v-8.26c0-3.82,1.58-7.02,4.79-9.56
			c2.95-2.42,6.33-3.62,10.2-3.62c3.68,0,6.96,1.27,9.84,3.71c2.82,2.47,4.26,5.54,4.24,9.24V127.97L176.19,127.97L176.19,127.97z
			 M204.79,222.29l-2.45-26.99h-8.46l-2.45,26.99h-8.53l10.95-121.55v-0.05h6.72h1.8l0,0l10.95,121.6H204.79z"/>
		<path class="st0" d="M32.7,89.55v0.05h190.6v-0.05V0H32.7V89.55z M42.36,19.41c0.42-0.14,0.81-0.17,1.05-0.17h0.48l0,0
			c0.21,0,0.38,0,0.54,0h0.48c0.38,0,0.73-0.02,1.08-0.09c0.17-0.02,0.41-0.12,0.67-0.26l0.38-0.17c1.08-0.42,2.16-0.81,3.36-0.9
			c2.86-0.19,5.81,0.83,8.37,1.75c0.62,0.2,1.21,0.39,1.75,0.57l0.33,0.17c0,0,2.56,1.52,5.19,1.52c1.68,0,2.97-0.59,3.97-1.78
			l0.21-0.24l10.81-4.59c0.8-0.64,4.16-2.8,10.4-2.8c1.15,0,2.36,0.04,3.53,0.19l63.41,3.2c9.88,0.47,9.88,0.97,9.88,2.27
			c0.03,1.64-1.4,1.77-7.18,2.11c-17.2,1.72-63.44,7.24-69.8,11.26c-0.8,0.38-1.8,1.2-1.82,1.72c-0.04,0.28,0.24,0.61,0.74,0.97
			c2.25,1.16,43.2,22.02,71.38,28.97l33.92,9.58c18.09,3.24,18.62,4.02,19.01,4.6l0.31,0.5l-0.11,0.61
			c-0.08,0.53-0.49,1.13-1.7,1.13c-1.02,0-3.63-0.27-6.88-0.58c-4-0.39-8.48-0.89-10.46-0.89h-0.22
			c-27.57-2.86-58.62-6.11-88.14-15.39c-3.47-1.12-7.02-2.05-10.42-3.03c-14.59-4.09-28.36-7.93-39.68-19.5
			c-2.88-2.96-5.28-6.14-7.08-9.46c-0.94-1.72-2.47-3.03-4.01-4.43c-0.5-0.42-0.98-0.83-1.43-1.31c-0.55-0.46-1.11-1.02-1.61-1.6
			l-0.17-0.17c-0.44-0.54-1.02-1.16-1.32-1.92l-0.62-1.33L42.36,19.41z"/>
	</g>
</g>
</svg>
