<svg xmlns="http://www.w3.org/2000/svg" viewBox="0 0 256 256"><path d="M194.7 186.6h6.9l-3.5-38.4z"/><path d="M32.7 93.1L33 222c.2 15.2 18.8 17.5 18.8 17.5l53.3.5c20.3-.5 25.1 16.1 25.1 16.1 7.6-15.6 22.6-16.1 22.6-16.1l50.1.5c.1 0 19.5 2 20.3-16v-2.3c0-.1 0-.1 0-.2l.1-128.8c0-.1-190.6-.1-190.6-.1zM60.9 111a5.54 5.54 0 00-4.1-1.8c-1.9 0-3.5.6-4.8 1.8-1.3 1.2-2 2.8-2 4.6V139c.4 5.4 5.1 12 5.1 12l10.1 13.3c.6.7 5.7 7.6 5.9 14.9v30c0 3.8-1.6 7.1-4.8 9.6a15.5 15.5 0 01-10.2 3.6c-3.7 0-6.9-1.2-9.8-3.7-2.9-2.5-4.3-5.6-4.3-9.3v-22.8h8.5v6.3l-.1 14.9c0 1.6.6 3 1.8 4.2 1.2 1.2 2.5 1.8 4.1 1.8 1.9 0 3.5-.6 4.8-1.8 1.3-1.2 2-2.8 2-4.6v-28.1c-.4-4.8-4.6-9.6-4.6-9.6l2.4-1.9-2.4 1.9-10-13.3c-.7-.8-5.8-8.4-6.4-17.3v-25.2c0-3.8 1.6-7 4.8-9.6 2.9-2.4 6.3-3.6 10.2-3.6 3.7 0 6.9 1.3 9.8 3.7 2.8 2.5 4.3 5.5 4.2 9.2V136.3h-8.5v-21.2c0-1.5-.5-2.9-1.7-4.1zm28.6 111.3H81V100.7h8.5s0 121.6 0 121.6zm47.7 0h-8.5v-55.5l-6 45.9-1.3 9.6h-6.1l-1-8-.3-1.7-6-45.8v55.5h-8.5V100.7h8.5l10.3 78.8 10.3-78.8h8.5l.1 121.6zm39-94.3v8.4h-8.5V115.2c0-1.6-.6-3-1.7-4.2a5.7 5.7 0 00-4.1-1.8c-1.9 0-3.5.6-4.8 1.8-1.3 1.2-2 2.8-2 4.6v91.7c0 1.8.6 3.4 2 4.6 1.3 1.2 2.9 1.8 4.8 1.8 1.6 0 3-.6 4.1-1.8 1.2-1.2 1.7-2.7 1.7-4.2V186.5h8.4v22.8c0 3.7-1.4 6.8-4.2 9.2-2.9 2.5-6.1 3.7-9.8 3.7-3.9 0-7.3-1.2-10.2-3.6a11.8 11.8 0 01-4.8-9.6v-95.2c0-3.8 1.6-7 4.8-9.6 2.9-2.4 6.3-3.6 10.2-3.6 3.7 0 7 1.3 9.8 3.7 2.8 2.5 4.3 5.5 4.2 9.2V128h.1zm28.6 94.3l-2.4-27h-8.5l-2.4 27H183l10.9-121.6v-.1h8.5l10.9 121.6-8.5.1zM32.7 89.6l190.6.1V0H32.7v89.6zm9.7-70.2c.4-.1.8-.2 1-.2h.5c.2 0 .4 0 .5 0h.5c.4 0 .7 0 1.1-.1.2 0 .4-.1.7-.3l.4-.2c1.1-.4 2.2-.8 3.4-.9 2.9-.2 5.8.8 8.4 1.8.6.2 1.2.4 1.8.6l.3.2s2.6 1.5 5.2 1.5c1.7 0 3-.6 4-1.8l.2-.2L81 15.2c.8-.6 4.2-2.8 10.4-2.8 1.2 0 2.4 0 3.5.2l63.4 3.2c9.9.5 9.9 1 9.9 2.3 0 1.6-1.4 1.8-7.2 2.1-17.2 1.7-63.4 7.2-69.8 11.3-.8.4-1.8 1.2-1.8 1.7 0 .3.2.6.7 1 2.2 1.2 43.2 22 71.4 29l33.9 9.6c18.1 3.2 18.6 4 19 4.6l.3.5-.1.6c-.1.5-.5 1.1-1.7 1.1-1 0-3.6-.3-6.9-.6-4-.4-8.5-.9-10.5-.9h-.2c-27.6-2.9-58.6-6.1-88.1-15.4-3.5-1.1-7-2-10.4-3-14.6-4.1-28.4-7.9-39.7-19.5-2.9-3-5.3-6.1-7.1-9.5-.9-1.7-2.5-3-4-4.4-.5-.4-1-.8-1.4-1.3-.5-.5-1.1-1-1.6-1.6l-.2-.2c-.4-.5-1-1.2-1.3-1.9l-.5-1.4 1.4-.5z"/></svg>