<?xml version="1.0" encoding="utf-8"?>
<!-- Generator: Adobe Illustrator 24.0.0, SVG Export Plug-In . SVG Version: 6.00 Build 0)  -->
<svg version="1.1" id="Layer_1" xmlns="http://www.w3.org/2000/svg" xmlns:xlink="http://www.w3.org/1999/xlink" x="0px" y="0px"
	 viewBox="0 0 256 256" style="enable-background:new 0 0 256 256;" xml:space="preserve">
<g>
	<path d="M256,128c0-28.3-57.3-51.2-128-51.2C57.3,76.8,0,99.7,0,128c0,28.3,57.3,51.2,128,51.2C198.7,179.2,256,156.3,256,128z
		 M128,174.9c-63.6,0-115.2-21-115.2-46.9c0-24.1,44.5-43.9,101.9-46.6c0.2,0,0.4,0.2,0.4,0.4L104.7,139c0,0.2,0.1,0.5,0.3,0.5
		c0.1,0,0.2,0,0.3-0.1c2.3-1.8,4.5-3.7,6.7-5.9c10.6-10.6,16.4-23.2,16-32.6c0-0.3,0-0.5,0-0.8c0-5.2-3.1-9.6-7.5-11.7
		c-0.2-0.1-0.2-0.3-0.2-0.4l1.2-6.7c0-0.2,0.2-0.3,0.4-0.3c2-0.1,4-0.1,6-0.1c63.6,0,115.2,21,115.2,46.9
		C243.2,153.9,191.6,174.9,128,174.9z"/>
	<path d="M155.7,89.1c-0.2,0-0.4,0.1-0.5,0.3c6,12.4,1.5,28.3-10.4,40.7c-0.1,0.5,0,0.7,0.2,0.7c3.8,0.3,7.6,0.8,11.1,1.2
		c0.2,0,0.3,0.1,0.3,0.3l0.6,3.3c-0.1,0.4-0.3,0.5-0.5,0.5c-3.7-1-6.8-0.8-7.3,0.7c-0.5,1.4,1.6,3.4,4.7,5c3.7,2.1,5.9,4.6,5.9,7.4
		c0,7.1-14.3,12.8-32,12.8c-14.2,0-27.5-1.5-39.1-4.2c-0.2-0.1-0.4-0.3-0.3-0.5l0.8-4.5c0.1-0.2,0.3-0.4,0.5-0.3
		c5.7,1.9,13.1,3.1,21.1,3.1c9.5,0,18-1.7,23.9-4.3c5.1-2.3,8.1-5.3,8.1-8.6c0-2.4-1.7-4.6-4.6-6.6c-0.1-0.1-0.3-0.1-0.5,0.1
		c-2.2,1.7-4.6,3.2-7.1,4.7c-8.7,5-17.8,7.7-26.4,8.1h-0.3c-3.5,0-6.4-2.9-6.4-6.4c0-0.4,0.1-0.8,0.1-1.2l9.6-52.7
		c0-0.3-0.2-0.5-0.4-0.5c-44.1,4-77.1,20.2-77.1,39.6c0,22.4,43.9,40.5,98.1,40.5c54.2,0,98.1-18.2,98.1-40.6
		C226.1,109.6,196.4,94,155.7,89.1z"/>
</g>
</svg>
