<?xml version="1.0" encoding="utf-8"?>
<!-- Generator: Adobe Illustrator 24.0.0, SVG Export Plug-In . SVG Version: 6.00 Build 0)  -->
<svg version="1.1" id="Layer_1" xmlns="http://www.w3.org/2000/svg" xmlns:xlink="http://www.w3.org/1999/xlink" x="0px" y="0px"
	 viewBox="0 0 256 256" style="enable-background:new 0 0 256 256;" xml:space="preserve">
<style type="text/css">
	.st0{fill:#8699A3;}
</style>
<g>
	<path class="st0" d="M256,127.99c0-28.27-57.31-51.2-128.01-51.2C57.32,76.79,0,99.72,0,127.99c0,28.26,57.32,51.22,127.99,51.22
		C198.69,179.21,256,156.26,256,127.99z M127.99,174.93c-63.6,0-115.21-21.01-115.21-46.94c0-24.06,44.55-43.95,101.86-46.64
		c0.23,0.03,0.43,0.21,0.43,0.4l-10.41,57.29c-0.02,0.24,0.11,0.47,0.34,0.52c0.08,0.02,0.2,0,0.31-0.05
		c2.28-1.75,4.53-3.74,6.68-5.89c10.63-10.64,16.44-23.19,15.98-32.58c0.02-0.26,0.02-0.54,0.02-0.82c0-5.19-3.05-9.62-7.46-11.65
		c-0.16-0.08-0.2-0.26-0.18-0.45l1.23-6.68c0.03-0.19,0.21-0.31,0.41-0.31c1.99-0.06,4-0.06,6.01-0.06
		c63.65,0,115.2,20.98,115.2,46.92C243.2,153.92,191.65,174.93,127.99,174.93z"/>
	<path class="st0" d="M155.71,89.12c-0.23-0.03-0.45,0.13-0.47,0.35c5.96,12.41,1.48,28.26-10.36,40.69c-0.15,0.49,0,0.69,0.24,0.73
		c3.83,0.31,7.57,0.76,11.1,1.25c0.16,0.03,0.29,0.15,0.31,0.34l0.62,3.32c-0.09,0.37-0.28,0.49-0.47,0.47
		c-3.68-0.96-6.77-0.76-7.29,0.68c-0.49,1.4,1.56,3.42,4.74,5.03c3.72,2.07,5.86,4.61,5.86,7.36c0,7.05-14.3,12.78-32,12.78
		c-14.2,0-27.53-1.53-39.12-4.19c-0.25-0.06-0.39-0.28-0.34-0.51l0.79-4.48c0.05-0.21,0.28-0.37,0.49-0.31
		c5.73,1.94,13.08,3.15,21.12,3.15c9.48,0,18.04-1.68,23.9-4.27c5.05-2.26,8.12-5.26,8.12-8.55c0-2.36-1.7-4.61-4.56-6.56
		c-0.14-0.08-0.32-0.08-0.48,0.05c-2.21,1.68-4.55,3.24-7.08,4.71c-8.66,4.98-17.82,7.67-26.37,8.14h-0.33
		c-3.53,0-6.44-2.91-6.44-6.44c0-0.41,0.06-0.81,0.13-1.19l9.6-52.74c-0.03-0.34-0.2-0.54-0.42-0.54
		c-44.11,3.98-77.13,20.21-77.13,39.61c0,22.4,43.94,40.55,98.12,40.55c54.19,0,98.13-18.16,98.13-40.55
		C226.13,109.57,196.4,94.04,155.71,89.12z"/>
</g>
</svg>
