<svg xmlns="http://www.w3.org/2000/svg" viewBox="0 0 256 256"><path d="M254.6 83.3l-52.3-40.8c-.4-.4-.8-.7-1.3-.9L131 8.5a4.9 4.9 0 00-4.1 0L57 41.6c-.5.2-.9.5-1.2.8L1.5 83.2c-.9 1-1.5 2.2-1.5 3.5v17.4c0 2.6 2.1 4.8 4.8 4.8h8.3v133.5c0 2.6 2.1 4.8 4.8 4.8h220.3c2.6 0 4.8-2.1 4.8-4.8V108.9h8.3c2.6 0 4.8-2.1 4.8-4.8V86.7c-.1-1.3-.6-2.5-1.5-3.4zM75.9 237.6v-87.9l45.2 87.9H75.9zm3-102.8h96.5L128.5 231l-49.6-96.2zm101.2 102.8h-44.4l44.4-90.7v90.7zm53.3 0h-43.7V130.1c0-2.6-2.1-4.8-4.8-4.8H71.1a4.8 4.8 0 00-4.8 4.8v107.6H22.6V106.9l47.6-34.5 58.6-27.8 58.6 27.7 45.9 34.5.1 130.8zm13-138.3h-7.1l-45.8-34.4c-.4-.4-.8-.7-1.3-.9l-61.3-29a4.9 4.9 0 00-4.1 0L65.5 64c-.4.2-.8.5-1.2.8L16.7 99.3H9.6V88.8l52.2-38.9L129 18.1l67.2 31.8 50.3 38.8v10.6z"/></svg>