<?xml version="1.0" encoding="utf-8"?>
<!-- Generator: Adobe Illustrator 24.0.0, SVG Export Plug-In . SVG Version: 6.00 Build 0)  -->
<svg version="1.1" id="Layer_1" xmlns="http://www.w3.org/2000/svg" xmlns:xlink="http://www.w3.org/1999/xlink" x="0px" y="0px"
	 viewBox="0 0 256 256" style="enable-background:new 0 0 256 256;" xml:space="preserve">
<path d="M254.6,83.3l-52.3-40.8l0,0c-0.4-0.4-0.8-0.7-1.3-0.9L131,8.5c-1.3-0.6-2.8-0.6-4.1,0L57,41.6c-0.5,0.2-0.9,0.5-1.2,0.8
	L1.5,83.2C0.6,84.2,0,85.4,0,86.7v17.4c0,2.6,2.1,4.8,4.8,4.8h8.3v133.5c0,2.6,2.1,4.8,4.8,4.8h220.3c2.6,0,4.8-2.1,4.8-4.8V108.9
	h8.3c2.6,0,4.8-2.1,4.8-4.8V86.7C256,85.4,255.5,84.2,254.6,83.3z M75.9,237.6v-87.9l45.2,87.9H75.9z M78.9,134.8h44.8h9.6h42.1
	L128.5,231L78.9,134.8z M180.1,237.6h-44.4l44.4-90.7V237.6z M233.4,237.6h-43.7V130.1c0-2.6-2.1-4.8-4.8-4.8H71.1
	c-2.6,0-4.8,2.1-4.8,4.8v107.6H22.6V106.9l47.6-34.5l58.6-27.8l58.6,27.7l45.9,34.5L233.4,237.6L233.4,237.6z M246.4,99.3h-7.1
	l-45.8-34.4c-0.4-0.4-0.8-0.7-1.3-0.9L130.9,35c-1.3-0.6-2.8-0.6-4.1,0L65.5,64c-0.4,0.2-0.8,0.5-1.2,0.8L16.7,99.3H9.6V88.8
	l52.2-38.9L129,18.1l67.2,31.8l50.3,38.8V99.3z"/>
</svg>
