<?xml version="1.0" encoding="utf-8"?>
<!-- Generator: Adobe Illustrator 24.0.0, SVG Export Plug-In . SVG Version: 6.00 Build 0)  -->
<svg version="1.1" id="Layer_1" xmlns="http://www.w3.org/2000/svg" xmlns:xlink="http://www.w3.org/1999/xlink" x="0px" y="0px"
	 viewBox="0 0 256 256" style="enable-background:new 0 0 256 256;" xml:space="preserve">
<style type="text/css">
	.st0{fill:#8699A3;}
</style>
<path class="st0" d="M254.57,83.33l-52.28-40.81l-0.02-0.02c-0.39-0.38-0.82-0.68-1.29-0.9L131.04,8.46c-1.29-0.61-2.8-0.61-4.09,0
	L56.99,41.61c-0.46,0.22-0.87,0.5-1.22,0.84L1.5,83.25C0.55,84.16,0,85.42,0,86.73v17.39c0,2.64,2.14,4.78,4.78,4.78h8.32v133.53
	c0,2.64,2.14,4.78,4.77,4.78h220.26c2.63,0,4.77-2.14,4.77-4.78V108.9h8.32c2.64,0,4.78-2.14,4.78-4.78V86.73
	C256,85.44,255.5,84.23,254.57,83.33z M75.89,237.65v-87.87l45.18,87.87H75.89z M78.95,134.84h44.75h9.56h42.13l-46.93,96.15
	L78.95,134.84z M180.11,237.65h-44.37l44.37-90.72V237.65z M233.35,237.65h-43.68V130.06c0-2.64-2.14-4.78-4.78-4.78H71.11
	c-2.64,0-4.78,2.14-4.78,4.78v107.59H22.65V106.9l47.62-34.55l58.6-27.77l58.56,27.75l45.93,34.54V237.65z M246.44,99.35h-7.1
	l-45.79-34.41c-0.38-0.37-0.83-0.69-1.3-0.91l-61.33-29.06c-1.29-0.61-2.8-0.61-4.09,0L65.47,64.04c-0.42,0.21-0.82,0.48-1.2,0.83
	L16.73,99.35H9.56V88.8l52.21-38.87l67.22-31.86l67.17,31.83l50.28,38.83V99.35z"/>
</svg>
