<svg xmlns="http://www.w3.org/2000/svg" viewBox="0 0 32.75 27.37"><defs><style>.a{fill:none;stroke:#000;stroke-linecap:round;stroke-linejoin:round;stroke-width:0.75px;}</style></defs><title>9</title><line class="a" x1="0.51" y1="11.51" x2="17.75" y2="11.51"/><line class="a" x1="0.38" y1="16.29" x2="8.78" y2="16.29"/><line class="a" x1="0.38" y1="21" x2="7.85" y2="21"/><path class="a" d="M22.22,13.82" transform="translate(0.38 -2.31)"/><line class="a" x1="24.18" y1="16.29" x2="32.38" y2="16.29"/><line class="a" x1="25.22" y1="21" x2="32.38" y2="21"/><line class="a" x1="22.88" y1="11.57" x2="32.38" y2="11.57"/><line class="a" x1="22.05" y1="11.34" x2="26.59" y2="26.75"/><line class="a" x1="15.89" y1="11.6" x2="15.79" y2="26.91"/><line class="a" x1="19.68" y1="17.57" x2="21.2" y2="27"/><line class="a" x1="12.73" y1="11.75" x2="10.75" y2="26.96"/><line class="a" x1="9.95" y1="11.79" x2="6.48" y2="26.78"/><line class="a" x1="4.86" y1="6.63" x2="4.86" y2="11.03"/><path class="a" d="M4.51,8.77a.49.49,0,0,0-.36.15,1.91,1.91,0,0,1-3.3-1.3A1.88,1.88,0,0,1,2.33,5.78a.49.49,0,0,0,.36-.59.08.08,0,0,0,0,0,1.77,1.77,0,0,1-.09-.56,1.92,1.92,0,0,1,3.83,0,1.77,1.77,0,0,1-.09.56.51.51,0,0,0,.32.62h0a1.89,1.89,0,0,1,1.4,2.28A1.9,1.9,0,0,1,5.8,9.47a2,2,0,0,1-.94-.55.47.47,0,0,0-.35-.15Z" transform="translate(0.38 -2.31)"/><path class="a" d="M13.29,9.52V2.69H25V9.52Z" transform="translate(0.38 -2.31)"/><line class="a" x1="19.66" y1="7.43" x2="19.66" y2="17.23"/><line class="a" x1="16.59" y1="3.57" x2="22.59" y2="3.57"/></svg>