<svg xmlns="http://www.w3.org/2000/svg" viewBox="0 0 256 256"><path d="M58.9 187l12.9 20.2c1.2 1.8 7.8 11.3 16 21 1.7 2 10.3 12.2 16.4 16.8 11.5 9.9 20.1 11 23.2 11 .4 0 .6 0 .7 0 .2 0 .4 0 .6 0 10.2 0 21.1-9.1 23.1-10.9 5.9-4.5 14.1-14 16.6-16.9 8.7-10.5 15.7-20.9 15.8-20.9.1-.1 13.1-20.4 15.7-24.6 9.4-15.3 12.7-22.4 12.8-22.6 5-9.8 9.9-22.8 10.9-25.2l.1-.1c.6-1.8 8.6-24.2 8.7-24.3.1-.4 8.2-28.6 8.2-28.6a81.5 81.5 0 002.8-16.7v-1.6c0-13.5-6.8-21.8-7.4-22.6-.5-.7-5.1-7.2-15.2-12.2-2.2-1-13.9-6.6-28.4-12.2-.4-.1-17.4-6.6-31.7-10.7-.1 0-12.4-3.6-21.6-4.9-.6-.1-6.5-1-10.8-1h-.5c-4.3 0-10.4.9-10.7 1-8.4 1.2-19.4 4.3-21.6 4.9C81 10 63.9 16.5 63.8 16.5c-14.3 5.5-26 11.1-28.3 12.2-9.8 4.8-14.5 11.1-15.3 12.2-.8.9-7.5 9.2-7.5 22.9v1.3c0 .1.3 7.7 2.8 16.7l8.3 28.7c.1.3 8.6 24.3 8.6 24.3 0 .1 5.6 14.7 10.9 25.3.4.8 3.7 8 12.7 22.6.1 0 1.2 1.7 2.9 4.3zM35 133.9c-8-22.5-8.5-24.2-8.6-24.2l-8.2-28.5C15.8 72.3 15.5 65 15.5 65v-1.2c0-12.9 6.6-20.8 6.9-21.2.5-.7 4.9-6.8 14.4-11.5 2.2-1 13.8-6.5 28-12 .2 0 17-6.5 31.5-10.6 2.1-.6 13-3.6 21.2-4.8.1 0 6.2-.9 10.3-.9h.5c4.1 0 9.8.8 10.4.9 8.9 1.3 21.1 4.8 21.3 4.9 14.2 4 31.1 10.5 31.3 10.5 14.4 5.5 26 11 28.2 12.1 9.6 4.8 13.9 11 14.2 11.4.7.8 6.9 8.5 6.9 21v1.5c0 .1-.3 7.3-2.7 16.1-7.6 26.6-8.1 28.5-8.1 28.5-7 19.5-8.4 23.4-8.7 24.3-.9 2.5-5.8 15.3-10.8 25 0 .1-3.4 7.2-12.7 22.4-7.2 11.2-15.5 24.2-15.7 24.4-.1.1-7 10.4-15.7 20.8-2.3 2.7-10.4 12.1-16.1 16.4-1.2 1-11.9 10.3-21.4 10.3h-.7c-.1 0-.3 0-.6 0-2.2 0-10.3-.7-21.5-10.3-6-4.6-14.4-14.5-16.1-16.6-8.2-9.7-15-19.6-15.8-20.7l-12.9-20.1c-1.6-2.6-2.7-4.3-2.8-4.3-8.9-14.5-12.2-21.6-12.5-22.4-5.3-10.5-10.8-25-10.8-25z"/><path d="M101.4 50.4c.2 2 1.5 2.8 4.5 2.6l11.6-.9c1.8-.1 3-.5 3.6-1.2.4-.4.5-.9.5-1.6 0-.1 0-.2 0-.3l-.4-6.2c-.2-2-1.5-2.8-4.6-2.6l-11.7.9c-1.8.2-3 .6-3.6 1.2-.4.5-.6 1.2-.5 2v.3l.6 5.8zM163.6 53c.5.8 1.6 1.3 3.4 1.6l11.5 2c3 .5 4.4-.1 4.8-2l1.1-6.2c0-.1 0-.2 0-.3.2-1.8-.9-2.8-3.8-3.3l-11.5-2c-1.8-.3-3-.2-3.8.3-.5.3-.8.9-1 1.8l-1.1 6.2c-.1.4-.1.8 0 1.2.2.2.3.5.4.7zM70.1 52.2c1.2-.3 12.9-2.7 12.9-2.7 2.5-.5 3.3-1.2 3.4-1.8 0-.1 0-.2 0-.3 0-.1 0-.3-.1-.4l-.3-1.5c-.2-1-.4-1.8-4.9-.8 0 0-11 2.4-12.2 2.6 0 .2.1.4.2.6.4 1.2.9 3.5 1 4.3zM55.8 52.7c-.4-1.1-1-1.5-3.6-.6 0 0-11.4 4-12.5 4.4 0 .1.1.3.2.6.4 1.2 1.2 3.5 1.5 4.2 2.6-.9 12.8-4.5 12.8-4.5 1.2-.4 2-.9 2.2-1.5 0-.1 0-.1 0-.2s.1-.2.1-.3c0-.2 0-.3-.1-.6l-.6-1.5z"/><path d="M76.9 203.8c.1.1 7 10.2 15.6 20.4.1.1 9.5 11.4 15.6 16v.1c11.9 10.2 19.6 9.5 19.7 9.5H128.1c8.5.4 19.6-9.4 19.7-9.5l.1-.1.1-.1c6.1-4.6 15.6-15.9 15.8-16 8.5-10.2 15.3-20.3 15.4-20.4 0 0 15.7-24.4 15.6-24.3 9.1-14.8 12.4-22 12.5-22.1 5.2-10.4 10.6-24.5 10.6-24.7 0 0 8.6-24 8.6-24.1.2-.7 8.1-28.4 8.1-28.4 2.3-8.3 2.6-15.2 2.6-15.3.5-12.3-6-20-6.1-20.1l-.1-.1-.1-.1c-.1-.1-4-5.9-12.9-10.3-.1-.1-12.5-6-27.9-12-.2-.1-16.8-6.4-31-10.4-.1 0-12.2-3.5-20.8-4.8-.1 0-6-.9-9.9-.9h-.5c-3.8 0-9.7.9-9.8.9-8.6 1.3-20.7 4.7-20.8 4.8-14.3 4.1-31 10.4-31.1 10.4-15.4 6-27.7 11.9-27.8 12-8.9 4.4-13 10.3-13 10.3l-.4.2c-.1.1-6.1 7.4-6.1 19.1 0 .4 0 .7 0 1.1 0 .1.3 7.1 2.6 15.3 0 0 8.2 28.3 8.2 28.4.2.6 8.5 24.1 8.5 24.1.1.1 5.5 14.3 10.7 24.7v.1c0 .1 3.3 7.2 12.3 22 .1-.1 15.7 24.3 15.7 24.3zM196.8 45.9l.2-.6 4.9 1.6s12 17.1 13.4 19c.7-2.1 4.3-13.3 4.3-13.3l4 1.3-.2.6-5.3 16.5-4.9-1.6s-12-17.1-13.4-19c-.7 2.1-4.3 13.3-4.3 13.3l-3.8-1.3h-.2l5.3-16.5zm-37.5 3.5l.8-4.5c.9-4.8 3.6-6.4 9.3-5.3l12.1 2.2c5.1.9 7.3 3 7.1 6.8 0 .5-.1.9-.2 1.4l-.8 4.5c-.9 4.8-3.6 6.3-9.3 5.3l-12.1-2.2c-4.8-.8-7-2.8-7.1-6.2.1-.6.1-1.2.2-2zm-29-12.2v-.7l25.7 1.3v.7l-.1 2.5s-9.6-.5-10.7-.5c-.1 1.2-.8 14.8-.8 14.8l-4.2-.3s.6-11.1.7-14.1c0-.3 0-.6.1-.7-1.2 0-10.4-.6-10.7-.6v-2.4zm-25.8.6l12.2-.9c5.8-.4 8.4 1.4 8.7 6.2l.3 4.5c0 .6 0 1.2 0 1.7-.3 3.7-2.7 5.4-7.7 5.8l-12.2.9c-3.2.2-5.3-.2-6.7-1.4-1.2-1-1.8-2.6-2-4.9l-.3-4.5c0-.4 0-.7 0-1 .1-4 2.4-6 7.7-6.4zm-22.9 3.5c3.4-.7 5.5-.7 6.8.2 1.2.8 1.7 2.2 1.9 3.5l.3 1.3c.1.3.1.7.1 1 0 .1 0 .2 0 .3-.1 1-.7 1.8-1.4 2.3 0 0-1.1.8-2.9 1.4l.6.4 7.3 4.9-.8.2-4.1.9-7.3-4.9c-3.3.7-10.5 2.3-11.4 2.4 0 .1.1.4.2.6.4 1.8 1.2 5.8 1.2 5.8H72l-4 .9-3.6-17-.1-.5 17.3-3.7zm47.2 25.5c36.2 0 65.6 29.4 65.6 65.6S165 198 128.8 198c-36.2 0-65.6-29.4-65.6-65.6 0-36.2 29.5-65.6 65.6-65.6zM60.6 55.1c-.1 1.8-1.5 3.3-5.6 4.7 0 0-11.5 4-12.7 4.4 0 .1.1.3.2.6.6 1.7 1.9 5.6 1.9 5.6l-.2.1-3.8 1.3-5.7-16.4-.2-.6 17.2-6c2.3-.8 4.2-1.1 5.7-.4 1.1.5 1.8 1.5 2.4 3.1.4 1.2.8 2.3.8 3.3 0 .1 0 .2 0 .3z"/><path d="M125.7 155.6c0 .4 0 .7 0 1 .7-3.4 2.7-13.8 1.5-22.9 0-.1 0-.2 0-.3h.3c0-.1 0-.1 0-.2H147c-2.1-.9-12-4.7-27.9-4.6.1.1.2.2.3.3 1.4 1.8 5.5 8.5 6.3 26.7zM149.9 109.4c.3.2.5.3.8.5-.5-.9-1.7-2.7-5.1-4.5-.1-.1-.3-.2-.5-.3h.6c-.1-.1-.2-.1-.3-.2l13.4-.5h.9c-2.3-1-16.4-6.7-30.4-2.2.1 0 .2.1.4.1 2.7.8 14.6 3.9 20.2 7.1z"/><path d="M128.8 194.4c34.3 0 62-27.7 62-62 0-34.2-27.8-62-62-62s-62 27.8-62 62c0 34.3 27.8 62 62 62zm-58.6-59.7c.2 0 .4-.1.6-.1-.2-.1-.3-.1-.3-.1 19-2.3 32.9 1.6 36.7 2.8.2.1.4.1.6.2-7.3-11.8-30.5-22.4-34.3-24.1-.3-.2-.6-.2-.6-.2.2 0 .4 0 .6-.1-.2-.1-.3-.1-.3-.1 19.9-1.5 34.6 4.9 38.6 6.9.2.1.4.2.6.3-8.9-16.9-28-25.8-28-25.8.6-.7 1.3-1.4 1.9-2 3.3-3.4 6.8-6.2 10.2-8.5 17.6-11.7 34.7-9.7 34.7-9.7-.2 0-.4.1-.6.1.2.1.3.1.3.1-.3.1-.6.2-.9.2-2.3.6-4.4 1.7-6.4 3-1.1.8-2.2 1.6-3.2 2.5-5 4.3-8.2 9.3-8.2 9.3 9.5-4.3 28-2.7 28-2.7 24.8 10 43.8 32.2 43.8 32.2-.2 0-.3 0-.5-.1.1.2.2.3.2.3-.2 0-.4 0-.6-.1-5.4-.8-11.9-.9-14-.9.2.1.4.2.6.3 11 5.9 14.9 12.3 14.9 12.3a36.34 36.34 0 01-13.4 16.6c-2.4 1.6-4.2 2.2-4.2 2.2 1.3-2.6 3-8.3 3-8.3l-7.8-3.5c-5-1.5-8 .5-8 .5-7 2.7-14.3 6-14.3 6-.5.2-.9.5-1.3.7-.4.3-.9.6-1.2 1-4.8 4.4-1.7 10.9-1.7 10.9 5.9 5.6 7.5 10.2 9.8 12.2 2.2 2 4 .8 4 .8l6-3.5c-2.2 7.8-6.1 12.9-10.3 16.3-.7.6-1.5 1.1-2.2 1.7-7.2 4.8-14.5 5-14.5 5-11-34.7-52.6-52.2-57.7-54.3-.5-.2-.6-.3-.6-.3z"/></svg>