<?xml version="1.0" encoding="utf-8"?>
<!-- Generator: Adobe Illustrator 24.0.0, SVG Export Plug-In . SVG Version: 6.00 Build 0)  -->
<svg version="1.1" id="Layer_1" xmlns="http://www.w3.org/2000/svg" xmlns:xlink="http://www.w3.org/1999/xlink" x="0px" y="0px"
	 viewBox="0 0 256 256" style="enable-background:new 0 0 256 256;" xml:space="preserve">
<style type="text/css">
	.st0{fill:#8699A3;}
</style>
<g>
	<g>
		<path class="st0" d="M58.88,187.02l12.94,20.19c1.24,1.81,7.81,11.32,15.96,21.01c1.68,1.97,10.3,12.16,16.45,16.84
			c11.53,9.85,20.05,10.95,23.2,10.95c0.36,0,0.65-0.04,0.69-0.04c0.19,0,0.37,0,0.56,0l0,0c10.24,0,21.1-9.13,23.11-10.91
			c5.85-4.49,14.1-13.98,16.58-16.88c8.69-10.49,15.74-20.87,15.77-20.91c0.08-0.13,13.09-20.42,15.74-24.55
			c9.4-15.33,12.67-22.37,12.78-22.63c4.97-9.84,9.92-22.75,10.85-25.23l0.05-0.12c0.62-1.78,8.65-24.19,8.67-24.27
			c0.09-0.37,8.17-28.63,8.17-28.63c2.49-9.13,2.82-16.61,2.83-16.71l0.03-1.56c0-13.46-6.76-21.82-7.45-22.6
			c-0.49-0.73-5.06-7.23-15.21-12.25c-2.19-1.04-13.94-6.58-28.39-12.17c-0.18-0.06-17.18-6.55-31.53-10.61
			c-0.12-0.03-12.36-3.56-21.63-4.95C138.41,0.87,132.53,0,128.26,0h-0.53c-4.29,0-10.45,0.93-10.7,0.97
			c-8.37,1.25-19.42,4.31-21.62,4.95C81.03,10,63.92,16.47,63.79,16.53c-14.29,5.52-26,11.08-28.33,12.17
			C25.68,33.55,21,39.76,20.24,40.89c-0.76,0.87-7.49,9.25-7.49,22.92l0.03,1.27c0,0.07,0.31,7.67,2.83,16.74l8.29,28.68
			c0.1,0.3,8.58,24.26,8.58,24.26c0.04,0.13,5.58,14.73,10.94,25.27c0.36,0.79,3.69,7.97,12.66,22.6
			C56.08,182.67,57.18,184.39,58.88,187.02z M35,133.85c-7.97-22.54-8.54-24.17-8.56-24.22L18.2,81.1
			c-2.43-8.8-2.74-16.08-2.74-16.1l-0.02-1.22c0-12.92,6.57-20.84,6.93-21.24c0.47-0.69,4.9-6.78,14.37-11.45
			c2.18-1.04,13.82-6.54,28.02-12.04c0.15-0.05,17-6.48,31.45-10.56c2.11-0.58,13-3.63,21.22-4.85c0.06,0,6.19-0.94,10.29-0.94h0.53
			c4.07,0,9.75,0.8,10.41,0.94c8.94,1.32,21.13,4.82,21.27,4.88c14.24,4.02,31.14,10.48,31.3,10.53
			c14.36,5.54,26.01,11.03,28.21,12.09c9.63,4.75,13.94,11.03,14.22,11.43c0.71,0.83,6.89,8.48,6.89,20.97L240.54,65
			c-0.02,0.11-0.33,7.28-2.74,16.1c-7.58,26.59-8.13,28.48-8.14,28.53c-6.98,19.52-8.37,23.43-8.66,24.27l-0.01-0.03
			c-0.94,2.48-5.83,15.28-10.75,25.02c-0.04,0.07-3.35,7.24-12.67,22.39c-7.17,11.22-15.5,24.17-15.67,24.45
			c-0.07,0.07-7.02,10.37-15.7,20.8c-2.34,2.72-10.42,12.05-16.14,16.42c-1.2,1.04-11.92,10.32-21.4,10.32h-0.62
			c-0.14,0-0.35,0-0.63,0c-2.2,0-10.28-0.74-21.52-10.32c-5.97-4.56-14.43-14.53-16.12-16.56c-8.18-9.72-15.01-19.63-15.76-20.72
			l-12.9-20.1c-1.64-2.57-2.73-4.28-2.77-4.33c-8.89-14.5-12.17-21.56-12.53-22.39C40.55,148.41,35.04,133.95,35,133.85z"/>
		<path class="st0" d="M101.42,50.36c0.15,2.04,1.46,2.77,4.54,2.56L117.6,52c1.85-0.12,2.99-0.5,3.59-1.22
			c0.36-0.41,0.48-0.94,0.5-1.63c0-0.1,0.03-0.18,0.02-0.3l-0.45-6.23c-0.17-2.05-1.47-2.81-4.55-2.58l-11.65,0.87
			c-1.84,0.17-2.99,0.56-3.59,1.23c-0.4,0.51-0.56,1.15-0.51,1.97l0.03,0.32L101.42,50.36z"/>
		<path class="st0" d="M163.64,53c0.51,0.75,1.61,1.27,3.43,1.6l11.49,2.04c3.02,0.55,4.4-0.06,4.76-2.04l1.11-6.15
			c0.02-0.14,0.02-0.24,0.04-0.35c0.17-1.77-0.95-2.76-3.79-3.27l-11.49-2.05c-1.83-0.35-3.02-0.24-3.79,0.28
			c-0.5,0.34-0.83,0.94-0.98,1.76l-1.11,6.15c-0.08,0.44-0.08,0.84,0,1.19C163.36,52.48,163.46,52.76,163.64,53z"/>
		<path class="st0" d="M70.13,52.19c1.18-0.27,12.86-2.74,12.86-2.74c2.51-0.52,3.28-1.17,3.45-1.78c0.03-0.09,0.04-0.2,0.04-0.32
			c0-0.14-0.04-0.28-0.05-0.42l-0.33-1.47c-0.21-1.02-0.36-1.79-4.87-0.82c0,0-11,2.36-12.17,2.59c0.03,0.18,0.07,0.37,0.15,0.64
			C69.47,49.14,69.96,51.42,70.13,52.19z"/>
		<path class="st0" d="M55.82,52.73c-0.39-1.13-1.05-1.52-3.63-0.62c0,0-11.41,3.96-12.55,4.38c0.05,0.12,0.12,0.34,0.21,0.57
			c0.42,1.23,1.19,3.45,1.46,4.22c2.64-0.89,12.78-4.45,12.78-4.45c1.22-0.42,1.99-0.92,2.25-1.47c0.03-0.06,0.03-0.13,0.04-0.18
			c0.04-0.14,0.08-0.21,0.08-0.34c0-0.19-0.04-0.35-0.11-0.6L55.82,52.73z"/>
		<path class="st0" d="M76.89,203.81c0.07,0.08,6.96,10.22,15.55,20.4c0.09,0.15,9.49,11.43,15.61,16.03l0.04,0.06l0.04,0.02
			c11.89,10.2,19.61,9.54,19.68,9.54l0.19-0.03h0.13c8.53,0.37,19.57-9.37,19.69-9.48l0.05-0.05l0.05-0.06
			c6.15-4.6,15.64-15.89,15.75-16.03c8.46-10.16,15.33-20.31,15.37-20.37c0,0,15.66-24.4,15.65-24.34
			c9.07-14.83,12.42-21.98,12.47-22.12c5.24-10.37,10.57-24.54,10.61-24.68c0,0,8.58-23.97,8.63-24.12c0.19-0.66,8.1-28.4,8.08-28.4
			c2.29-8.3,2.62-15.24,2.62-15.31c0.49-12.34-6.03-20.05-6.08-20.11l-0.09-0.11l-0.06-0.09c-0.05-0.06-4.02-5.93-12.89-10.32
			c-0.13-0.06-12.48-6.01-27.95-11.96c-0.17-0.08-16.77-6.39-31.03-10.44c-0.1-0.03-12.23-3.49-20.83-4.77
			c-0.08-0.03-5.99-0.91-9.9-0.91h-0.53c-3.82,0-9.72,0.88-9.78,0.91c-8.61,1.28-20.72,4.74-20.85,4.77
			c-14.27,4.05-30.95,10.36-31.11,10.44c-15.37,5.96-27.71,11.9-27.82,11.96c-8.93,4.39-13,10.29-13.03,10.33l-0.13,0.17
			c-0.06,0.08-6.14,7.37-6.14,19.07c0,0.37,0.01,0.72,0.03,1.07c0,0.06,0.34,7.1,2.61,15.28c0,0,8.17,28.35,8.21,28.43
			c0.21,0.64,8.52,24.12,8.5,24.11c0.06,0.15,5.48,14.32,10.72,24.69l0.04,0.08c0.04,0.08,3.27,7.2,12.33,21.98
			C61.3,179.43,76.92,203.83,76.89,203.81z M196.84,45.92l0.22-0.61l4.92,1.61c0,0,11.99,17.06,13.35,19.03
			c0.68-2.12,4.34-13.29,4.34-13.29l3.99,1.32l-0.21,0.6l-5.37,16.47l-4.92-1.63c0,0-11.99-17.07-13.37-19.01
			c-0.69,2.09-4.31,13.28-4.31,13.28l-3.8-1.26l-0.21-0.05L196.84,45.92z M159.34,49.41l0.79-4.45c0.85-4.77,3.65-6.4,9.34-5.34
			l12.06,2.15c5.08,0.93,7.27,3.01,7.06,6.83c-0.04,0.46-0.07,0.91-0.18,1.41l-0.79,4.5c-0.85,4.75-3.64,6.32-9.34,5.3l-12.06-2.15
			c-4.77-0.84-6.97-2.75-7.06-6.17C159.16,50.84,159.19,50.17,159.34,49.41z M130.29,37.15l0.03-0.68l25.7,1.33l-0.04,0.68
			l-0.14,2.5c0,0-9.57-0.5-10.73-0.55c-0.05,1.19-0.78,14.8-0.78,14.8l-4.16-0.26h-0.03c0,0,0.56-11.11,0.72-14.1
			c0.01-0.32,0.02-0.56,0.05-0.65c-1.16-0.05-10.35-0.56-10.73-0.57h-0.03L130.29,37.15z M104.53,37.8l12.22-0.92
			c5.76-0.44,8.36,1.44,8.74,6.24l0.35,4.52c0.04,0.64,0.04,1.22,0.01,1.74c-0.3,3.67-2.71,5.39-7.72,5.79l-12.23,0.89
			c-3.19,0.25-5.34-0.17-6.74-1.39c-1.19-1.02-1.82-2.57-1.99-4.86l-0.34-4.53c-0.03-0.39-0.02-0.7-0.02-1.05
			C96.86,40.16,99.21,38.19,104.53,37.8z M81.58,41.34c3.38-0.74,5.47-0.66,6.8,0.19c1.24,0.81,1.67,2.21,1.92,3.45l0.3,1.34
			c0.08,0.34,0.11,0.66,0.11,0.97c0,0.09-0.02,0.2-0.03,0.31c-0.12,1.05-0.68,1.78-1.43,2.33c0,0-1.07,0.83-2.87,1.38l0.62,0.42
			l7.35,4.92l-0.76,0.17l-4.13,0.89l-7.26-4.87c-3.29,0.72-10.52,2.27-11.44,2.44c0.04,0.11,0.08,0.37,0.15,0.63
			c0.37,1.77,1.23,5.8,1.23,5.8l-0.14,0.01l-3.98,0.88l-3.59-16.96l-0.15-0.62L81.58,41.34z M128.83,66.83
			c36.17,0,65.6,29.42,65.6,65.59c0,36.17-29.43,65.61-65.6,65.61c-36.16,0-65.59-29.44-65.59-65.61
			C63.24,96.25,92.67,66.83,128.83,66.83z M60.59,55.14c-0.13,1.81-1.51,3.3-5.58,4.74c0,0-11.52,3.99-12.66,4.38
			c0.05,0.14,0.12,0.35,0.2,0.61c0.59,1.72,1.94,5.59,1.94,5.59l-0.21,0.08l-3.78,1.31l-5.68-16.38l-0.22-0.61l17.18-5.98
			c2.32-0.8,4.17-1.14,5.69-0.42c1.06,0.51,1.85,1.55,2.39,3.11c0.44,1.23,0.75,2.31,0.75,3.27C60.62,54.94,60.6,55.03,60.59,55.14z
			"/>
		<path class="st0" d="M125.65,155.59c0.02,0.35,0.03,0.67,0.03,1.01c0.73-3.43,2.68-13.84,1.53-22.86
			c-0.03-0.08-0.03-0.18-0.04-0.29h0.31c0-0.06-0.01-0.11-0.01-0.18h18.56h0.98c-2.08-0.89-12-4.71-27.87-4.57
			c0.08,0.06,0.15,0.17,0.26,0.29C120.76,130.74,124.94,137.38,125.65,155.59z"/>
		<path class="st0" d="M149.94,109.42c0.28,0.17,0.53,0.32,0.78,0.51c-0.46-0.87-1.72-2.71-5.05-4.48
			c-0.15-0.05-0.31-0.18-0.47-0.26h0.62c-0.11-0.08-0.21-0.13-0.33-0.18l13.43-0.46l0.9-0.02c-2.31-1.02-16.36-6.73-30.39-2.23
			c0.09,0.03,0.23,0.05,0.37,0.11C132.45,103.07,144.34,106.15,149.94,109.42z"/>
		<path class="st0" d="M128.83,194.44c34.27,0,62.03-27.73,62.03-62.01c0-34.25-27.76-62.01-62.03-62.01
			c-34.25,0-62.03,27.76-62.03,62.01C66.8,166.7,94.58,194.44,128.83,194.44z M70.16,134.72c0.21-0.04,0.41-0.06,0.62-0.08
			c-0.19-0.08-0.34-0.12-0.34-0.12c19.01-2.33,32.88,1.58,36.74,2.83c0.24,0.05,0.43,0.13,0.6,0.22
			c-7.28-11.78-30.47-22.4-34.31-24.13c-0.35-0.16-0.56-0.24-0.56-0.24c0.22-0.03,0.43-0.03,0.64-0.05
			c-0.23-0.08-0.35-0.12-0.35-0.12c19.92-1.51,34.59,4.92,38.62,6.92c0.24,0.14,0.44,0.21,0.6,0.3c-8.87-16.93-28-25.78-28-25.78
			c0.64-0.72,1.28-1.4,1.92-2.04c3.34-3.41,6.8-6.17,10.21-8.46c17.57-11.67,34.69-9.67,34.69-9.67c-0.21,0.03-0.4,0.07-0.6,0.12
			c0.19,0.06,0.3,0.06,0.3,0.06c-0.3,0.06-0.58,0.16-0.86,0.22c-2.26,0.6-4.4,1.68-6.39,3.01c-1.14,0.77-2.22,1.61-3.22,2.5
			c-4.99,4.32-8.24,9.3-8.24,9.3c9.49-4.26,28-2.71,28-2.71c24.77,9.98,43.76,32.25,43.76,32.25c-0.18-0.03-0.34-0.03-0.51-0.08
			c0.15,0.19,0.22,0.26,0.22,0.26c-0.21-0.03-0.4-0.04-0.61-0.07c-5.36-0.76-11.94-0.88-13.99-0.92c0.2,0.1,0.37,0.21,0.56,0.29
			c11.03,5.87,14.85,12.28,14.85,12.28c-2.79,6.82-6.7,11.24-10.08,14.06c-1.19,1.02-2.33,1.86-3.32,2.47
			c-2.43,1.58-4.16,2.18-4.16,2.18c1.26-2.55,3-8.29,3-8.29l-7.75-3.52c-5.01-1.48-8,0.52-8,0.52c-7.01,2.74-14.26,6.02-14.26,6.02
			c-0.48,0.22-0.92,0.49-1.33,0.74c-0.45,0.29-0.88,0.61-1.24,0.98c-4.82,4.45-1.66,10.85-1.66,10.85
			c5.94,5.56,7.51,10.23,9.76,12.23c2.25,2.02,4,0.78,4,0.78l6-3.54c-2.19,7.82-6.12,12.92-10.32,16.29
			c-0.73,0.59-1.48,1.14-2.24,1.66c-7.2,4.84-14.48,4.99-14.48,4.99c-11.01-34.67-52.6-52.24-57.74-54.28
			C70.33,134.77,70.16,134.72,70.16,134.72z"/>
	</g>
</g>
</svg>
