<?xml version="1.0" encoding="utf-8"?>
<!-- Generator: Adobe Illustrator 24.0.0, SVG Export Plug-In . SVG Version: 6.00 Build 0)  -->
<svg version="1.1" id="Layer_1" xmlns="http://www.w3.org/2000/svg" xmlns:xlink="http://www.w3.org/1999/xlink" x="0px" y="0px"
	 viewBox="0 0 256 256" style="enable-background:new 0 0 256 256;" xml:space="preserve">
<g>
	<g>
		<path d="M58.9,187l12.9,20.2c1.2,1.8,7.8,11.3,16,21c1.7,2,10.3,12.2,16.4,16.8c11.5,9.9,20.1,11,23.2,11c0.4,0,0.6,0,0.7,0
			c0.2,0,0.4,0,0.6,0l0,0c10.2,0,21.1-9.1,23.1-10.9c5.9-4.5,14.1-14,16.6-16.9c8.7-10.5,15.7-20.9,15.8-20.9
			c0.1-0.1,13.1-20.4,15.7-24.6c9.4-15.3,12.7-22.4,12.8-22.6c5-9.8,9.9-22.8,10.9-25.2l0.1-0.1c0.6-1.8,8.6-24.2,8.7-24.3
			c0.1-0.4,8.2-28.6,8.2-28.6c2.5-9.1,2.8-16.6,2.8-16.7l0-1.6c0-13.5-6.8-21.8-7.4-22.6c-0.5-0.7-5.1-7.2-15.2-12.2
			c-2.2-1-13.9-6.6-28.4-12.2C192,16.5,175,10,160.7,5.9c-0.1,0-12.4-3.6-21.6-4.9c-0.6-0.1-6.5-1-10.8-1h-0.5
			c-4.3,0-10.4,0.9-10.7,1c-8.4,1.2-19.4,4.3-21.6,4.9C81,10,63.9,16.5,63.8,16.5c-14.3,5.5-26,11.1-28.3,12.2
			C25.7,33.5,21,39.8,20.2,40.9c-0.8,0.9-7.5,9.2-7.5,22.9l0,1.3c0,0.1,0.3,7.7,2.8,16.7l8.3,28.7c0.1,0.3,8.6,24.3,8.6,24.3
			c0,0.1,5.6,14.7,10.9,25.3c0.4,0.8,3.7,8,12.7,22.6C56.1,182.7,57.2,184.4,58.9,187z M35,133.9c-8-22.5-8.5-24.2-8.6-24.2
			l-8.2-28.5C15.8,72.3,15.5,65,15.5,65l0-1.2c0-12.9,6.6-20.8,6.9-21.2c0.5-0.7,4.9-6.8,14.4-11.5c2.2-1,13.8-6.5,28-12
			c0.2,0,17-6.5,31.5-10.6c2.1-0.6,13-3.6,21.2-4.8c0.1,0,6.2-0.9,10.3-0.9h0.5c4.1,0,9.8,0.8,10.4,0.9c8.9,1.3,21.1,4.8,21.3,4.9
			c14.2,4,31.1,10.5,31.3,10.5c14.4,5.5,26,11,28.2,12.1c9.6,4.8,13.9,11,14.2,11.4c0.7,0.8,6.9,8.5,6.9,21l0,1.5
			c0,0.1-0.3,7.3-2.7,16.1c-7.6,26.6-8.1,28.5-8.1,28.5c-7,19.5-8.4,23.4-8.7,24.3l0,0c-0.9,2.5-5.8,15.3-10.8,25
			c0,0.1-3.4,7.2-12.7,22.4c-7.2,11.2-15.5,24.2-15.7,24.4c-0.1,0.1-7,10.4-15.7,20.8c-2.3,2.7-10.4,12.1-16.1,16.4
			c-1.2,1-11.9,10.3-21.4,10.3H128c-0.1,0-0.3,0-0.6,0c-2.2,0-10.3-0.7-21.5-10.3c-6-4.6-14.4-14.5-16.1-16.6
			c-8.2-9.7-15-19.6-15.8-20.7l-12.9-20.1c-1.6-2.6-2.7-4.3-2.8-4.3c-8.9-14.5-12.2-21.6-12.5-22.4C40.5,148.4,35,133.9,35,133.9z"
			/>
		<path d="M101.4,50.4c0.2,2,1.5,2.8,4.5,2.6l11.6-0.9c1.8-0.1,3-0.5,3.6-1.2c0.4-0.4,0.5-0.9,0.5-1.6c0-0.1,0-0.2,0-0.3l-0.4-6.2
			c-0.2-2-1.5-2.8-4.6-2.6l-11.7,0.9c-1.8,0.2-3,0.6-3.6,1.2c-0.4,0.5-0.6,1.2-0.5,2l0,0.3L101.4,50.4z"/>
		<path d="M163.6,53c0.5,0.8,1.6,1.3,3.4,1.6l11.5,2c3,0.5,4.4-0.1,4.8-2l1.1-6.2c0-0.1,0-0.2,0-0.3c0.2-1.8-0.9-2.8-3.8-3.3
			l-11.5-2c-1.8-0.3-3-0.2-3.8,0.3c-0.5,0.3-0.8,0.9-1,1.8l-1.1,6.2c-0.1,0.4-0.1,0.8,0,1.2C163.4,52.5,163.5,52.8,163.6,53z"/>
		<path d="M70.1,52.2c1.2-0.3,12.9-2.7,12.9-2.7c2.5-0.5,3.3-1.2,3.4-1.8c0-0.1,0-0.2,0-0.3c0-0.1,0-0.3-0.1-0.4l-0.3-1.5
			c-0.2-1-0.4-1.8-4.9-0.8c0,0-11,2.4-12.2,2.6c0,0.2,0.1,0.4,0.2,0.6C69.5,49.1,70,51.4,70.1,52.2z"/>
		<path d="M55.8,52.7c-0.4-1.1-1-1.5-3.6-0.6c0,0-11.4,4-12.5,4.4c0,0.1,0.1,0.3,0.2,0.6c0.4,1.2,1.2,3.5,1.5,4.2
			c2.6-0.9,12.8-4.5,12.8-4.5c1.2-0.4,2-0.9,2.2-1.5c0-0.1,0-0.1,0-0.2c0-0.1,0.1-0.2,0.1-0.3c0-0.2,0-0.3-0.1-0.6L55.8,52.7z"/>
		<path d="M76.9,203.8c0.1,0.1,7,10.2,15.6,20.4c0.1,0.1,9.5,11.4,15.6,16l0,0.1l0,0c11.9,10.2,19.6,9.5,19.7,9.5l0.2,0h0.1
			c8.5,0.4,19.6-9.4,19.7-9.5l0.1-0.1l0.1-0.1c6.1-4.6,15.6-15.9,15.8-16c8.5-10.2,15.3-20.3,15.4-20.4c0,0,15.7-24.4,15.6-24.3
			c9.1-14.8,12.4-22,12.5-22.1c5.2-10.4,10.6-24.5,10.6-24.7c0,0,8.6-24,8.6-24.1c0.2-0.7,8.1-28.4,8.1-28.4
			c2.3-8.3,2.6-15.2,2.6-15.3c0.5-12.3-6-20-6.1-20.1l-0.1-0.1l-0.1-0.1c-0.1-0.1-4-5.9-12.9-10.3c-0.1-0.1-12.5-6-27.9-12
			c-0.2-0.1-16.8-6.4-31-10.4c-0.1,0-12.2-3.5-20.8-4.8c-0.1,0-6-0.9-9.9-0.9h-0.5c-3.8,0-9.7,0.9-9.8,0.9
			c-8.6,1.3-20.7,4.7-20.8,4.8c-14.3,4.1-31,10.4-31.1,10.4c-15.4,6-27.7,11.9-27.8,12c-8.9,4.4-13,10.3-13,10.3L25,44.7
			c-0.1,0.1-6.1,7.4-6.1,19.1c0,0.4,0,0.7,0,1.1c0,0.1,0.3,7.1,2.6,15.3c0,0,8.2,28.3,8.2,28.4c0.2,0.6,8.5,24.1,8.5,24.1
			c0.1,0.1,5.5,14.3,10.7,24.7l0,0.1c0,0.1,3.3,7.2,12.3,22C61.3,179.4,76.9,203.8,76.9,203.8z M196.8,45.9l0.2-0.6l4.9,1.6
			c0,0,12,17.1,13.4,19c0.7-2.1,4.3-13.3,4.3-13.3l4,1.3l-0.2,0.6L218.1,71l-4.9-1.6c0,0-12-17.1-13.4-19
			c-0.7,2.1-4.3,13.3-4.3,13.3l-3.8-1.3l-0.2,0L196.8,45.9z M159.3,49.4l0.8-4.5c0.9-4.8,3.6-6.4,9.3-5.3l12.1,2.2
			c5.1,0.9,7.3,3,7.1,6.8c0,0.5-0.1,0.9-0.2,1.4l-0.8,4.5c-0.9,4.8-3.6,6.3-9.3,5.3l-12.1-2.2c-4.8-0.8-7-2.8-7.1-6.2
			C159.2,50.8,159.2,50.2,159.3,49.4z M130.3,37.2l0-0.7l25.7,1.3l0,0.7l-0.1,2.5c0,0-9.6-0.5-10.7-0.5c-0.1,1.2-0.8,14.8-0.8,14.8
			l-4.2-0.3h0c0,0,0.6-11.1,0.7-14.1c0-0.3,0-0.6,0.1-0.7c-1.2,0-10.4-0.6-10.7-0.6h0L130.3,37.2z M104.5,37.8l12.2-0.9
			c5.8-0.4,8.4,1.4,8.7,6.2l0.3,4.5c0,0.6,0,1.2,0,1.7c-0.3,3.7-2.7,5.4-7.7,5.8l-12.2,0.9c-3.2,0.2-5.3-0.2-6.7-1.4
			c-1.2-1-1.8-2.6-2-4.9l-0.3-4.5c0-0.4,0-0.7,0-1C96.9,40.2,99.2,38.2,104.5,37.8z M81.6,41.3c3.4-0.7,5.5-0.7,6.8,0.2
			c1.2,0.8,1.7,2.2,1.9,3.5l0.3,1.3c0.1,0.3,0.1,0.7,0.1,1c0,0.1,0,0.2,0,0.3c-0.1,1-0.7,1.8-1.4,2.3c0,0-1.1,0.8-2.9,1.4l0.6,0.4
			l7.3,4.9l-0.8,0.2l-4.1,0.9l-7.3-4.9c-3.3,0.7-10.5,2.3-11.4,2.4c0,0.1,0.1,0.4,0.2,0.6c0.4,1.8,1.2,5.8,1.2,5.8l-0.1,0l-4,0.9
			l-3.6-17L64.3,45L81.6,41.3z M128.8,66.8c36.2,0,65.6,29.4,65.6,65.6S165,198,128.8,198c-36.2,0-65.6-29.4-65.6-65.6
			C63.2,96.2,92.7,66.8,128.8,66.8z M60.6,55.1c-0.1,1.8-1.5,3.3-5.6,4.7c0,0-11.5,4-12.7,4.4c0,0.1,0.1,0.3,0.2,0.6
			c0.6,1.7,1.9,5.6,1.9,5.6l-0.2,0.1l-3.8,1.3l-5.7-16.4l-0.2-0.6l17.2-6c2.3-0.8,4.2-1.1,5.7-0.4c1.1,0.5,1.8,1.5,2.4,3.1
			c0.4,1.2,0.8,2.3,0.8,3.3C60.6,54.9,60.6,55,60.6,55.1z"/>
		<path d="M125.7,155.6c0,0.4,0,0.7,0,1c0.7-3.4,2.7-13.8,1.5-22.9c0-0.1,0-0.2,0-0.3h0.3c0-0.1,0-0.1,0-0.2H146h1
			c-2.1-0.9-12-4.7-27.9-4.6c0.1,0.1,0.2,0.2,0.3,0.3C120.8,130.7,124.9,137.4,125.7,155.6z"/>
		<path d="M149.9,109.4c0.3,0.2,0.5,0.3,0.8,0.5c-0.5-0.9-1.7-2.7-5.1-4.5c-0.1-0.1-0.3-0.2-0.5-0.3h0.6c-0.1-0.1-0.2-0.1-0.3-0.2
			l13.4-0.5l0.9,0c-2.3-1-16.4-6.7-30.4-2.2c0.1,0,0.2,0.1,0.4,0.1C132.4,103.1,144.3,106.2,149.9,109.4z"/>
		<path d="M128.8,194.4c34.3,0,62-27.7,62-62c0-34.2-27.8-62-62-62c-34.2,0-62,27.8-62,62C66.8,166.7,94.6,194.4,128.8,194.4z
			 M70.2,134.7c0.2,0,0.4-0.1,0.6-0.1c-0.2-0.1-0.3-0.1-0.3-0.1c19-2.3,32.9,1.6,36.7,2.8c0.2,0.1,0.4,0.1,0.6,0.2
			c-7.3-11.8-30.5-22.4-34.3-24.1c-0.3-0.2-0.6-0.2-0.6-0.2c0.2,0,0.4,0,0.6-0.1c-0.2-0.1-0.3-0.1-0.3-0.1
			c19.9-1.5,34.6,4.9,38.6,6.9c0.2,0.1,0.4,0.2,0.6,0.3c-8.9-16.9-28-25.8-28-25.8c0.6-0.7,1.3-1.4,1.9-2c3.3-3.4,6.8-6.2,10.2-8.5
			c17.6-11.7,34.7-9.7,34.7-9.7c-0.2,0-0.4,0.1-0.6,0.1c0.2,0.1,0.3,0.1,0.3,0.1c-0.3,0.1-0.6,0.2-0.9,0.2c-2.3,0.6-4.4,1.7-6.4,3
			c-1.1,0.8-2.2,1.6-3.2,2.5c-5,4.3-8.2,9.3-8.2,9.3c9.5-4.3,28-2.7,28-2.7c24.8,10,43.8,32.2,43.8,32.2c-0.2,0-0.3,0-0.5-0.1
			c0.1,0.2,0.2,0.3,0.2,0.3c-0.2,0-0.4,0-0.6-0.1c-5.4-0.8-11.9-0.9-14-0.9c0.2,0.1,0.4,0.2,0.6,0.3c11,5.9,14.9,12.3,14.9,12.3
			c-2.8,6.8-6.7,11.2-10.1,14.1c-1.2,1-2.3,1.9-3.3,2.5c-2.4,1.6-4.2,2.2-4.2,2.2c1.3-2.6,3-8.3,3-8.3l-7.8-3.5c-5-1.5-8,0.5-8,0.5
			c-7,2.7-14.3,6-14.3,6c-0.5,0.2-0.9,0.5-1.3,0.7c-0.4,0.3-0.9,0.6-1.2,1c-4.8,4.4-1.7,10.9-1.7,10.9c5.9,5.6,7.5,10.2,9.8,12.2
			c2.2,2,4,0.8,4,0.8l6-3.5c-2.2,7.8-6.1,12.9-10.3,16.3c-0.7,0.6-1.5,1.1-2.2,1.7c-7.2,4.8-14.5,5-14.5,5
			c-11-34.7-52.6-52.2-57.7-54.3C70.3,134.8,70.2,134.7,70.2,134.7z"/>
	</g>
</g>
</svg>
