<?xml version="1.0" encoding="utf-8"?>
<!-- Generator: Adobe Illustrator 24.0.0, SVG Export Plug-In . SVG Version: 6.00 Build 0)  -->
<svg version="1.1" id="Layer_1" xmlns="http://www.w3.org/2000/svg" xmlns:xlink="http://www.w3.org/1999/xlink" x="0px" y="0px"
	 viewBox="0 0 21.9 14.6" style="enable-background:new 0 0 21.9 14.6;" xml:space="preserve">
<style type="text/css">
	.st0{fill:#8699A3;}
</style>
<path class="st0" d="M10.3,3.9c0.2,0.2,0.2,1,0.2,1.4l-0.1,9.3c0.2,0,0.4,0,0.6,0c0.2,0,0.4,0,0.6,0l-0.1-9.3c0-0.4,0-1.2,0.2-1.4
	c0.1-0.2,0.4-0.3,0.7-0.3c3.3,0.1,6.9,0.7,9,1.2c-0.3-0.5-0.6-1-1-1.5c-1-1-2.3-1.9-3.9-2.5C14.7,0.3,12.8,0,10.9,0
	C9.1,0,7.2,0.3,5.6,0.9C4,1.5,2.6,2.4,1.6,3.4c-0.4,0.5-0.8,1-1,1.5c2.1-0.5,5.7-1.2,9-1.2C9.9,3.7,10.2,3.8,10.3,3.9z"/>
<path class="st0" d="M13,6.9c0,0.1,0,0.2,0,0.3c0.6,3.5,1.3,6.5,1.5,7c4.3-1,7.4-3.7,7.4-6.9c0-0.4,0-0.8-0.1-1.2
	c-3.1-0.7-5.1-0.8-7.2-0.9C12.8,5.1,12.8,5.7,13,6.9z"/>
<path class="st0" d="M5.6,13.7c0.6,0.2,1.2,0.4,1.8,0.5c0.1-0.5,0.9-3.6,1.5-7.1c0-0.1,0-0.1,0-0.2c0.2-1.2,0.2-1.8-1.6-1.7
	c-2,0.1-4.1,0.2-7.2,0.9C0,6.5,0,6.9,0,7.3c0,1.4,0.6,2.7,1.6,3.9C2.6,12.2,4,13.1,5.6,13.7z"/>
</svg>
