<?xml version="1.0" encoding="utf-8"?>
<!-- Generator: Adobe Illustrator 24.0.0, SVG Export Plug-In . SVG Version: 6.00 Build 0)  -->
<svg version="1.1" id="Layer_1" xmlns="http://www.w3.org/2000/svg" xmlns:xlink="http://www.w3.org/1999/xlink" x="0px" y="0px"
	 viewBox="0 0 256 256" style="enable-background:new 0 0 256 256;" xml:space="preserve">
<g>
	<path d="M120.4,87.6c2.3,2.3,2.3,11.7,2.3,16.4l-1.2,108.7c2.3,0,4.7,0,7,0s4.7,0,7,0L134.4,104c0-4.7,0-14,2.3-16.4
		c1.2-2.3,4.7-3.5,8.2-3.5c38.6,1.2,80.7,8.2,105.2,14c-3.5-5.8-7-11.7-11.7-17.5c-11.7-11.7-26.9-22.2-45.6-29.2
		c-21-5.8-43.2-9.4-65.4-9.4c-21,0-43.2,3.5-61.9,10.5S30.4,70.1,18.7,81.7C14,87.6,9.4,93.4,7,99.3c24.5-5.8,66.6-14,105.2-14
		C115.7,85.2,119.2,86.4,120.4,87.6z"/>
	<path d="M152,122.7c0,1.2,0,2.3,0,3.5c7,40.9,15.2,76,17.5,81.8c50.3-11.7,86.5-43.2,86.5-80.7c0-4.7,0-9.3-1.2-14
		c-36.2-8.2-59.6-9.3-84.2-10.5C149.6,101.6,149.6,108.6,152,122.7z"/>
	<path d="M65.5,202.1c7,2.3,14,4.7,21,5.8c1.2-5.8,10.5-42.1,17.5-83c0-1.2,0-1.2,0-2.3c2.3-14,2.3-21-18.7-19.9
		c-23.4,1.2-47.9,2.3-84.2,10.5C0,118,0,122.7,0,127.3c0,16.4,7,31.6,18.7,45.6C30.4,184.6,46.8,195.1,65.5,202.1z"/>
</g>
</svg>
