<?xml version="1.0" encoding="utf-8"?>
<!-- Generator: Adobe Illustrator 24.0.0, SVG Export Plug-In . SVG Version: 6.00 Build 0)  -->
<svg version="1.1" id="Layer_1" xmlns="http://www.w3.org/2000/svg" xmlns:xlink="http://www.w3.org/1999/xlink" x="0px" y="0px"
	 viewBox="0 0 256 256" style="enable-background:new 0 0 256 256;" xml:space="preserve">
<style type="text/css">
	.st0{fill:#8699A3;}
</style>
<g>
	<path class="st0" d="M120.4,87.59c2.34,2.34,2.34,11.69,2.34,16.37l-1.17,108.71c2.34,0,4.68,0,7.01,0s4.68,0,7.01,0l-1.17-108.71
		c0-4.68,0-14.03,2.34-16.37c1.17-2.34,4.68-3.51,8.18-3.51c38.58,1.17,80.66,8.18,105.21,14.03c-3.51-5.84-7.01-11.69-11.69-17.53
		c-11.69-11.69-26.89-22.21-45.59-29.22C171.84,45.51,149.63,42,127.42,42c-21.04,0-43.25,3.51-61.95,10.52
		c-18.7,7.01-35.07,17.53-46.76,29.22c-4.68,5.84-9.35,11.69-11.69,17.53c24.55-5.84,66.63-14.03,105.21-14.03
		C115.73,85.25,119.23,86.42,120.4,87.59z"/>
	<path class="st0" d="M151.96,122.66c0,1.17,0,2.34,0,3.51c7.01,40.91,15.2,75.98,17.53,81.83c50.26-11.69,86.5-43.25,86.5-80.66
		c0-4.68,0-9.35-1.17-14.03c-36.24-8.18-59.62-9.35-84.16-10.52C149.63,101.62,149.63,108.63,151.96,122.66z"/>
	<path class="st0" d="M65.46,202.15c7.01,2.34,14.03,4.68,21.04,5.84c1.17-5.84,10.52-42.08,17.53-83c0-1.17,0-1.17,0-2.34
		c2.34-14.03,2.34-21.04-18.7-19.87c-23.38,1.17-47.93,2.34-84.16,10.52C0,117.98,0,122.66,0,127.33c0,16.37,7.01,31.56,18.7,45.59
		C30.39,184.61,46.76,195.13,65.46,202.15z"/>
</g>
</svg>
