<?xml version="1.0" encoding="utf-8"?>
<!-- Generator: Adobe Illustrator 24.0.0, SVG Export Plug-In . SVG Version: 6.00 Build 0)  -->
<svg version="1.1" id="Layer_1" xmlns="http://www.w3.org/2000/svg" xmlns:xlink="http://www.w3.org/1999/xlink" x="0px" y="0px"
	 viewBox="0 0 256 256" style="enable-background:new 0 0 256 256;" xml:space="preserve">
<style type="text/css">
	.st0{fill:#8699A3;}
</style>
<g>
	<g>
		<path class="st0" d="M127.98,0L127.98,0L127.98,0C92.74,0,60.74,14.36,37.54,37.57C14.35,60.76,0,92.74,0,127.99l0,0v0.03
			c0,35.24,14.35,67.23,37.52,90.43c23.22,23.2,55.21,37.56,90.46,37.56l0,0l0,0c35.26,0,67.25-14.36,90.43-37.56
			c23.2-23.2,37.58-55.19,37.58-90.46l0,0l0,0c0-35.25-14.39-67.23-37.54-90.42C195.24,14.36,163.24,0,127.98,0z M252.93,127.99
			v0.03c0,34.38-14.03,65.62-36.66,88.25c-22.62,22.65-53.87,36.67-88.29,36.67l0,0l0,0c-34.42,0-65.64-14.01-88.27-36.67
			C17.08,193.64,3.04,162.4,3.04,128.02v-0.03l0,0c0-34.4,14.04-65.62,36.68-88.26C62.35,17.09,93.56,3.07,127.98,3.07l0,0l0,0
			c34.42,0,65.67,14.03,88.29,36.66C238.9,62.37,252.93,93.59,252.93,127.99L252.93,127.99z"/>
		<path class="st0" d="M161.72,43.96c2.89,1.22,5.07,1.97,6.59,2.25c1.48,0.26,2.94,0.23,4.35-0.06c1.83-0.39,3.41-1.18,4.78-2.4
			c1.37-1.21,2.47-2.82,3.28-4.77c0.85-1.97,1.19-3.85,1.15-5.69c-0.1-1.83-0.63-3.58-1.61-5.11c-0.77-1.21-1.77-2.31-3.06-3.23
			c-1.28-0.94-3.65-2.13-7.11-3.59l-4.62-1.95l-9.41,22.17l4.63,1.97L161.72,43.96z M169.37,26.89l1,0.43
			c2.4,1.01,3.88,2.25,4.57,3.7c0.67,1.44,0.57,3.22-0.37,5.34c-0.89,2.11-2.08,3.44-3.56,3.94c-1.55,0.53-3.44,0.27-5.84-0.73
			l-1.01-0.45L169.37,26.89z"/>
		<path class="st0" d="M116.54,34.82c1.16,1.2,2.58,2.09,4.13,2.75c1.57,0.61,3.23,0.93,4.95,0.93c1.69,0,3.32-0.33,4.93-0.93
			c1.57-0.66,2.95-1.55,4.17-2.75c1.23-1.18,2.15-2.56,2.77-4.05c0.65-1.54,0.98-3.17,0.98-4.9c0-1.72-0.33-3.34-0.98-4.85
			c-0.64-1.55-1.54-2.89-2.77-4.08c-1.19-1.17-2.57-2.09-4.17-2.73c-1.58-0.62-3.23-0.96-4.93-0.96c-1.71,0-3.38,0.34-4.95,0.96
			c-1.55,0.64-2.97,1.57-4.13,2.73c-1.25,1.22-2.17,2.56-2.84,4.08c-0.62,1.52-0.95,3.13-0.95,4.85c0,1.7,0.33,3.33,0.95,4.87
			C114.37,32.26,115.28,33.64,116.54,34.82z M121.11,20.84c1.19-1.37,2.68-2.05,4.51-2.05c1.77,0,3.3,0.67,4.48,2.05
			c1.2,1.33,1.81,3.02,1.81,5.03c0,2.04-0.58,3.75-1.77,5.1c-1.19,1.31-2.69,1.98-4.51,1.98c-1.86,0-3.38-0.67-4.53-1.98
			c-1.18-1.32-1.75-3.03-1.75-5.1C119.33,23.84,119.94,22.15,121.11,20.84z"/>
		<path class="st0" d="M188.1,58.22l4.19,5.03l4.11-1.81l6.01,7.13l-2.53,3.72l4.18,4.97l13.09-21.85l-5.28-6.31L188.1,58.22z
			 M210.29,56.52c-0.33,0.43-0.54,0.78-0.68,0.98l-4.51,6.98l-4.19-5l7.62-3.25c0.48-0.2,0.95-0.44,1.46-0.68
			c0.49-0.23,1.01-0.52,1.55-0.78C211.02,55.48,210.62,56.06,210.29,56.52z"/>
		<polygon class="st0" points="41.61,50.38 39.23,44.32 37.56,46.24 38.01,50.25 33.99,50.4 32.32,52.29 38.64,53.82 		"/>
		<path class="st0" d="M42.31,64.51c1.35,1.16,2.71,1.7,4.12,1.64c1.42-0.08,3.14-0.77,5.17-2.17c1.47-0.96,2.5-1.5,3.16-1.59
			c0.65-0.11,1.27,0.13,1.89,0.67c0.53,0.48,0.8,1.06,0.8,1.81c-0.03,0.72-0.31,1.43-0.88,2.1c-0.64,0.72-1.46,1.23-2.5,1.6
			c-1.03,0.37-2.31,0.53-3.77,0.53l1.72,5.44c1.77-0.16,3.32-0.55,4.66-1.23c1.33-0.67,2.52-1.62,3.64-2.88
			c1.85-2.13,2.7-4.32,2.63-6.6c-0.09-2.3-1.06-4.28-3-5.94c-0.75-0.67-1.55-1.17-2.36-1.49c-0.82-0.32-1.63-0.44-2.45-0.39
			c-1.22,0.04-2.97,0.85-5.26,2.39l-0.27,0.18c-1.05,0.73-1.87,1.11-2.41,1.22c-0.56,0.08-1.09-0.08-1.55-0.46
			c-0.44-0.4-0.65-0.91-0.6-1.53c0.06-0.63,0.33-1.22,0.84-1.81c0.49-0.6,1.15-1.07,1.91-1.46c0.74-0.37,1.61-0.63,2.58-0.76
			l-2.23-4.66c-1.23,0.3-2.36,0.81-3.44,1.47c-1.04,0.67-1.99,1.52-2.86,2.5c-1.61,1.84-2.39,3.84-2.28,5.95
			C39.67,61.18,40.59,63.02,42.31,64.51z"/>
		<polygon class="st0" points="85.1,49.09 80.37,39.37 92.17,45.64 99.51,42.02 85.42,35.2 88.26,20.74 81.4,24.07 79.34,37.25 
			74.55,27.44 68.73,30.28 79.26,51.92 		"/>
		<path class="st0" d="M216.08,167.76c-0.82-0.87-1.6-1.71-2.45-2.57c-4.6,7-5.38,15.15-4.35,23.81c-1.76,2.12-3.57,4.24-5.36,6.36
			c-0.39-2.42-0.82-4.83-1.25-7.24c0.51-0.57,1-1.17,1.53-1.73c-0.66-5.01-4.82-5.01-5.5-1.5c-0.43,0.99-0.54,2.12,1.36,4.12
			c0.33,2.92,0.68,5.8,1.01,8.7c-5.51,4.62-10.93,10.1-16.46,14.69c-0.08-0.38-0.3-1.67-0.37-2.12c2.58-4.33,5.04-8.73,9.97-11.44
			c1.53-3.44,2.51-6.5,1.51-9.46c-6.72,4.68-12.22,10.05-15.98,16.45c-0.54,2.93-1.06,5.9-1.6,8.83c-2.06,1.33-4.15,2.65-6.22,3.98
			c0.03-1.77,1.06-3.58,1.11-5.36c4.95-6.28-2.35-8.81-4.11-3.13c0.63,3.71,0.63,6.72-0.75,9.74c-7.26,2.85-13.76,5.72-21.04,8.6
			c-0.07-0.64,0.78-2.36,0.74-2.99c4.13-4.01,7.84-5.61,14.31-6.61c2.77-2.28,3.88-4.66,3.37-7.6c-5.93,1.05-11.88,2.7-16.82,6.12
			c-4.66,2.87-7.67,6.72-8.31,11.57c-2.84,0.25-5.64,0.5-8.5,0.76c1.8-1.97,3.57-3.93,5.36-5.87c0.96-0.46,1.91-0.93,2.86-1.36
			c1.22-5.45-1.33-5.37-4.48-4.5c-0.96,1.06-1.31,2.36-1.23,3.74c-1.98,2.15-4,4.32-6.74,5.67c-2.73-2.98-4.73-5.14-6.73-7.28
			c0.25-1.43-0.14-2.67-1.22-3.75c-3.14-0.87-5.72-0.98-4.52,4.47c1.05,1,2.01,1.61,2.89,1.37c1.8,1.96,3.56,3.91,5.35,5.89
			c-2.82-0.26-5.65-0.52-8.46-0.78c-0.67-4.83-3.72-8.7-8.37-11.58c-4.95-3.41-10.84-5.03-16.8-6.09c-0.51,2.92,0.56,5.3,3.37,7.59
			c6.47,0.98,10.17,2.61,14.33,6.58c-0.06,0.63,0.76,2.4,0.73,3.01c-7.27-2.87-13.77-5.75-21.05-8.61
			c-1.35-3.02-1.35-6.02-0.76-9.72c-1.79-5.68-9.03-3.17-4.1,3.14c0.04,1.78,1.08,3.56,1.11,5.34c-2.07-1.33-4.16-2.66-6.23-3.97
			c-0.51-2.95-1.08-5.89-1.62-8.84c-3.72-6.39-9.22-11.76-15.95-16.46c-0.97,2.97-0.02,6.03,1.51,9.48
			c4.92,2.68,7.39,7.08,9.98,11.45c-0.09,0.41-0.31,1.7-0.39,2.12c-5.52-4.6-10.94-10.08-16.45-14.71c0.33-2.89,0.67-5.82,1-8.73
			c1.91-1.97,1.81-3.11,1.4-4.1c-0.69-3.5-4.85-3.5-5.5,1.51c0.49,0.57,1,1.14,1.5,1.74c-0.42,2.39-0.85,4.8-1.25,7.2
			c-1.82-2.09-3.56-4.21-5.38-6.36c1.02-8.65,0.27-16.78-4.37-23.78c-0.79,0.86-1.61,1.71-2.43,2.57c-1.65-0.63-2.19-2.38-1.57-5.31
			c-2.48-2.21-4.05-1.41-4.57,2.35c1.47,1.37,2.64,2.92,2.12,5.61c-1.52-0.82-3.02-1.62-4.49-2.47c-0.06,1.86-0.08,3.75-0.12,5.61
			c-0.78-0.42-1.56-0.96-2.62-2.35c-0.67-1.35-1.33-2.69-2.01-4.01c-3.48-0.82-4.81,0.49-3.97,4.01c1.03,0.52,2.07,1.05,3.1,1.6
			c1.41,0.75,2.33,1.65,2.77,2.72c-1.68,0.42-3.35,0.84-5,1.25c5.25,6.74,11.22,12.48,19.79,14.57c1.65,1.58,4.47,4.28,6.11,5.88
			c-1.16,0.39-3.68-0.06-4.83,0.35c-0.83-0.7-1.36-1.66-2.15-2.36c-3.5-0.26-6.22,0.11-3.34,4.85c1.31,0.84,2.98,0.99,4.95,0.51
			c2.53-0.35,5-0.65,7.51-0.99c5.67,4.84,12.22,10.09,17.95,14.94c-5.21-0.91-11.38-2.97-16.21-8.21c-3.1-2.45-6.62-3.22-10.72-2
			c3.84,5.08,8.24,9.16,13.08,12.59c6.84,3.74,13.39,3.82,20.19,2.2c1.84,0.82,3.71,1.62,5.59,2.39c-2.14,0.76-4.29,1.49-6.48,2.25
			c-1.48-0.84-2.99-0.68-4.51,0.49c-1.22,2.4-0.94,3.96,0.8,4.73c1.39,1,2.96,0.52,4.69-1.46c3.11-1.11,6.18-2.18,9.22-3.26
			c2.58,0.74,5.18,1.5,7.74,2.24c4.93,1.54,9.88,3.09,14.8,4.61c-3.4,1.47-7.72,1.44-13.44-0.73c-5.24-2.99-9.55-2.34-13.46,0
			c4.67,4.67,11.15,7.48,19.44,8.49c6.77-1.06,11.54-3.55,15.94-6.26c1.88,0.06,3.75,0.08,5.62,0.14c-5.46,4.02-9.66,8.67-9.48,15.7
			c4-6.54,8.75-11.07,15.96-12.77c7.23,3.33,11.97,7.86,15.97,14.39c0.19-7.02-4.02-11.67-9.46-15.7c1.87-0.06,3.72-0.08,5.6-0.1
			c4.43,2.69,9.15,5.15,15.93,6.23c8.29-1.02,14.79-3.82,19.44-8.49c-3.91-2.31-8.2-2.99-13.46,0c-5.72,2.2-10.06,2.2-13.46,0.74
			c4.95-1.53,9.89-3.05,14.81-4.61c2.58-0.72,5.13-1.49,7.75-2.22c3.07,1.07,6.11,2.14,9.18,3.23c1.76,1.99,3.35,2.48,4.76,1.47
			c1.74-0.76,1.98-2.31,0.73-4.7c-1.53-1.2-3-1.34-4.48-0.52c-2.16-0.76-4.34-1.49-6.48-2.25c1.88-0.79,3.72-1.58,5.6-2.37
			c6.81,1.6,13.37,1.52,20.17-2.23c4.85-3.43,9.25-7.49,13.08-12.57c-4.07-1.23-7.6-0.45-10.71,1.98
			c-4.84,5.24-11.01,7.31-16.17,8.24c5.68-4.88,12.25-10.1,17.9-14.95c2.51,0.33,5.01,0.63,7.51,0.97c2,0.5,3.65,0.34,4.95-0.48
			c2.87-4.75,0.14-5.12-3.34-4.89c-0.82,0.72-1.34,1.67-2.12,2.39c-1.14-0.4-3.69,0.04-4.84-0.37c1.63-1.58,4.4-4.28,6.09-5.86
			c8.56-2.1,14.55-7.8,19.79-14.58c-1.63-0.42-3.34-0.83-4.99-1.23c0.42-1.09,1.35-1.98,2.75-2.75c1.01-0.52,2.1-1.08,3.13-1.61
			c0.81-3.5-0.55-4.83-4-4c-0.68,1.33-1.34,2.66-2.01,4c-1.09,1.4-1.88,1.94-2.62,2.37c-0.02-1.87-0.07-3.75-0.09-5.62
			c-1.5,0.82-3,1.66-4.49,2.47c-0.57-2.68,0.65-4.2,2.09-5.6c-0.52-3.77-2.06-4.56-4.59-2.35
			C218.29,165.38,217.77,167.17,216.08,167.76z"/>
		<path class="st0" d="M113.79,71.49c7.22,5.34,11.19,8.75,14.84,17.05l-3.18,1.84c-5.99-7.89-13.08-16.02-21.26-20.65
			c-8.79-4.66-29.23,18.42-26.7,19.49c8.18,3.85,18.78,8.81,24.82,13.16l-2.61,4.16c-8.31-4.84-21.6-11.45-28.28-11.04
			c-3.44,0.51-10.82,24.49-7.1,25.43c7.73,0.64,22.16,8.43,28.82,11.8c4.65,3.7,18.88,27.66,13.14,31.04
			c-1.86,1.12-7.56-0.16-13.38-3.05c-26.67-10.82-28.68,1.24-23.68,4.94c4.02,2.5,2.64,6.95,2.84,8.05
			c-0.22,6.73,6.96,11.98,20.8,2.57c28.34,0.35,44.48,0.98,72.89,1.38c2.6,8.32,20.54-0.11,26.32-7
			c-2.42-5.86-23.23-20.46-25.91-5.58l-7.48-1.42c16.1-34.29,11.23-98.98-26.45-105.32C126.48,57.4,103.07,63.56,113.79,71.49z
			 M136.73,138.72c3.11-3.08,8.2-3,11.38,0.12c3.15,3.18,3.21,8.29,0.1,11.4c-3.07,3.07-8.18,3.03-11.35-0.15
			C133.69,146.91,133.66,141.8,136.73,138.72z"/>
		<path class="st0" d="M128.75,43.91h-0.04c-23.35,0.01-44.52,9.56-59.89,24.91c-15.37,15.37-24.91,36.56-24.91,59.91l0,0l0,0
			c0,23.37,9.54,44.58,24.87,59.95c15.4,15.35,36.57,24.88,59.97,24.88l0,0l0,0c23.33,0,44.53-9.52,59.89-24.88
			c15.37-15.37,24.89-36.58,24.89-59.95l0,0l0,0c0-23.35-9.52-44.53-24.89-59.91C173.28,53.45,152.08,43.91,128.75,43.91
			L128.75,43.91L128.75,43.91z M210.48,128.73L210.48,128.73L210.48,128.73c0,22.54-9.18,42.99-24.01,57.79
			c-14.8,14.79-35.22,23.96-57.72,23.96l0,0l0,0c-22.55,0-42.94-9.18-57.76-23.96c-14.82-14.81-23.97-35.25-24-57.79l0,0l0,0
			c0-22.49,9.18-42.94,24-57.74c14.82-14.79,35.22-23.96,57.72-23.96h0.04l0,0c22.51,0,42.92,9.18,57.72,23.96
			C201.3,85.79,210.48,106.24,210.48,128.73z"/>
	</g>
</g>
</svg>
