<?xml version="1.0" encoding="utf-8"?>
<!-- Generator: Adobe Illustrator 24.0.0, SVG Export Plug-In . SVG Version: 6.00 Build 0)  -->
<svg version="1.1" id="Layer_1" xmlns="http://www.w3.org/2000/svg" xmlns:xlink="http://www.w3.org/1999/xlink" x="0px" y="0px"
	 viewBox="0 0 256 256" style="enable-background:new 0 0 256 256;" xml:space="preserve">
<style type="text/css">
	.st0{fill:#8699A3;}
</style>
<g>
	<path class="st0" d="M127.99,0C57.31,0,0,57.31,0,128.03c0,70.65,57.31,127.96,127.99,127.96c70.71,0,128.01-57.31,128.01-127.96
		C256,57.31,198.7,0,127.99,0z M127.99,252.8c-68.91,0-124.76-55.88-124.76-124.77C3.23,59.08,59.08,3.24,127.99,3.24
		c68.93,0,124.78,55.84,124.78,124.79C252.77,196.91,196.92,252.8,127.99,252.8z"/>
	<path class="st0" d="M127.99,12.01c-64.05,0-115.98,51.93-115.98,116.02c0,64.02,51.93,115.96,115.98,115.96
		c64.06,0,116.01-51.94,116.01-115.96C244,63.94,192.05,12.01,127.99,12.01z M127.99,233.72c-58.39,0-105.73-47.31-105.73-105.69
		c0-58.37,47.34-105.74,105.73-105.74c58.41,0,105.73,47.36,105.73,105.74C233.72,186.42,186.4,233.72,127.99,233.72z"/>
	<path class="st0" d="M176.76,167.03c0,1.28,0,2.65,0,3.96c0,1.16-0.91,2.46-2.08,2.46c-0.84,0-1.7,0.04-2.56,0
		c-3.02-0.03-3.58-3.77-2.97-5.91c6.45-23.15,8.04-37.17,7.94-47.4c-0.08-10.81-0.33-21.64-5.23-36
		c-4.72-13.76-9.03-27.22-31.78-47.84c-1.54-1.39-3.12-2.1-5.19-2.21c-2.23-0.17-4.08-0.24-6.35-0.24c-9.45,0-18.57,1.39-27.19,3.97
		c-3.22,0.96-2.76,3.24-0.98,4.73c8.6,7.38,20.26,18.43,28.29,32.19c-5.08,0.53-8.98-2.34-12.23-5.47
		C105.68,59.08,94.5,51.78,85.6,46.79c-1.55-0.88-3.07-1.22-4.61-0.35C71.21,52.13,64.6,57.5,56.83,66.5
		c-1.33,1.57-0.45,2.73,0.85,3.41c8.47,4.5,21.8,13.07,33.99,24.16c-2.48,2.1-6.41,1.44-12.14-1.58
		c-10.99-5.79-21.54-9.08-29.6-11.15c-1.73-0.47-3.58,0.04-4.46,1.56c-5.17,8.98-8.72,19.71-10.39,30.57
		c-0.33,2.1,1.09,3.94,3.17,4.34c18.78,3.26,52.25,12.11,57.83,50.66c0.48,3.37-2.6,6.37-6.64,4.44
		c-5.65-2.64-11.29-5.26-16.93-7.93c-0.6-0.29-1.26-0.51-1.91-0.51c-9.1,0-17.54,0-26.62,0c-3.76,0-5.33,3.62-2.86,6.43
		c6.41,7.39,12.25,15.3,17.29,23.75c0.43,0.75,0.95,1.04,1.8,1.04c3.88,0,7.76,0,11.62,0c0.79,0,1.45-0.19,2.15-0.61
		c3.65-2.13,7.29-4.26,10.94-6.41c0.71-0.36,1.37-0.36,2.14-0.36c28.02,0,58.07,0,87.56,0c1.16,0,2.14,0.73,2.14,1.93
		c0,1.38,0,2.85,0,4.32c0,1.56,1.39,2.73,2.94,2.52c10.85-1.79,20.8-6.73,28.69-14.13c1.27-1.19,1.27-3.2,0-4.34
		c-7.89-7.41-17.85-12.39-28.69-14.09C178.14,164.26,176.76,165.45,176.76,167.03z M145.07,138.91c6.51,0,11.81,5.29,11.81,11.83
		c0,6.49-5.29,11.79-11.81,11.79c-6.51,0-11.77-5.3-11.77-11.79C133.3,144.2,138.56,138.91,145.07,138.91z"/>
</g>
</svg>
