<svg xmlns="http://www.w3.org/2000/svg" viewBox="0 0 256 256">
<path d="M128,0C57.3,0,0,57.3,0,128c0,70.6,57.3,128,128,128c70.7,0,128-57.3,128-128C256,57.3,198.7,0,128,0z M128,252.8C59.1,252.8,3.2,196.9,3.2,128C3.2,59.1,59.1,3.2,128,3.2c68.9,0,124.8,55.8,124.8,124.8C252.8,196.9,196.9,252.8,128,252.8z"/>
<path d="M128,12C63.9,12,12,63.9,12,128c0,64,51.9,116,116,116c64.1,0,116-51.9,116-116C244,63.9,192.1,12,128,12z M128,233.7c-58.4,0-105.7-47.3-105.7-105.7C22.3,69.7,69.6,22.3,128,22.3c58.4,0,105.7,47.4,105.7,105.7C233.7,186.4,186.4,233.7,128,233.7z"/>
<path d="M176.8,167c0,1.3,0,2.6,0,4c0,1.2-0.9,2.5-2.1,2.5c-0.8,0-1.7,0-2.6,0c-3,0-3.6-3.8-3-5.9c6.4-23.1,8-37.2,7.9-47.4c-0.1-10.8-0.3-21.6-5.2-36c-4.7-13.8-9-27.2-31.8-47.8c-1.5-1.4-3.1-2.1-5.2-2.2c-2.2-0.2-4.1-0.2-6.4-0.2c-9.4,0-18.6,1.4-27.2,4c-3.2,1-2.8,3.2-1,4.7c8.6,7.4,20.3,18.4,28.3,32.2c-5.1,0.5-9-2.3-12.2-5.5c-10.7-10.2-21.9-17.5-30.8-22.5c-1.6-0.9-3.1-1.2-4.6-0.3c-9.8,5.7-16.4,11.1-24.2,20.1c-1.3,1.6-0.5,2.7,0.8,3.4c8.5,4.5,21.8,13.1,34,24.2c-2.5,2.1-6.4,1.4-12.1-1.6c-11-5.8-21.5-9.1-29.6-11.2c-1.7-0.5-3.6,0-4.5,1.6c-5.2,9-8.7,19.7-10.4,30.6c-0.3,2.1,1.1,3.9,3.2,4.3c18.8,3.3,52.2,12.1,57.8,50.7c0.5,3.4-2.6,6.4-6.6,4.4c-5.7-2.6-11.3-5.3-16.9-7.9c-0.6-0.3-1.3-0.5-1.9-0.5c-9.1,0-17.5,0-26.6,0c-3.8,0-5.3,3.6-2.9,6.4c6.4,7.4,12.2,15.3,17.3,23.8c0.4,0.8,1,1,1.8,1c3.9,0,7.8,0,11.6,0c0.8,0,1.4-0.2,2.2-0.6c3.7-2.1,7.3-4.3,10.9-6.4c0.7-0.4,1.4-0.4,2.1-0.4c28,0,58.1,0,87.6,0c1.2,0,2.1,0.7,2.1,1.9c0,1.4,0,2.9,0,4.3c0,1.6,1.4,2.7,2.9,2.5c10.9-1.8,20.8-6.7,28.7-14.1c1.3-1.2,1.3-3.2,0-4.3c-7.9-7.4-17.9-12.4-28.7-14.1C178.1,164.3,176.8,165.4,176.8,167z M145.1,138.9c6.5,0,11.8,5.3,11.8,11.8c0,6.5-5.3,11.8-11.8,11.8c-6.5,0-11.8-5.3-11.8-11.8C133.3,144.2,138.6,138.9,145.1,138.9z"/>
</svg>