<svg xmlns="http://www.w3.org/2000/svg" viewBox="0 0 32.75 30.37"><defs><style>.a{fill:none;stroke:#000;stroke-linecap:round;stroke-linejoin:round;stroke-width:0.75px;}</style></defs><title>924</title><path class="a" d="M0,1.19l3.45.13L7.84,15.53H4.06a.61.61,0,0,0-.62.61h0V20.9a.62.62,0,0,0,.62.62H32" transform="translate(0.38 -0.82)"/><path class="a" d="M31,12.5v3.25a.2.2,0,0,1-.2.21H12.28a.22.22,0,0,1-.21-.21V12.5a.23.23,0,0,1,.21-.21H30.75A.22.22,0,0,1,31,12.5Z" transform="translate(0.38 -0.82)"/><path class="a" d="M28.53,8.75a.2.2,0,0,1-.2.2H9.86a.2.2,0,0,1-.2-.2V5.49a.2.2,0,0,1,.2-.2H28.33a.2.2,0,0,1,.2.2Z" transform="translate(0.38 -0.82)"/><path class="a" d="M26,30.81a2.92,2.92,0,1,1,2.91-2.92A2.92,2.92,0,0,1,26,30.81Z" transform="translate(0.38 -0.82)"/><path class="a" d="M8.31,30.81a2.92,2.92,0,1,1,2.92-2.92A2.91,2.91,0,0,1,8.31,30.81Z" transform="translate(0.38 -0.82)"/></svg>