<svg xmlns="http://www.w3.org/2000/svg" viewBox="0 0 256 256"><path d="M78.8 226.5zM128 256c70.5 0 128-57.4 128-128S198.5 0 128 0C57.4-1.6 0 55.8 0 126.4 0 198.6 57.4 256 128 256zm0-244.5c64 0 114.9 50.9 114.9 114.9S192 241.2 128 241.2 13.1 190.4 13.1 126.4C13.1 64 65.6 11.5 128 11.5z"/><path d="M106.7 167.4c8.2 23 21.3 39.4 23 41 1.6-1.6 21.3-27.9 27.9-59.1 8.2 23 21.3 39.4 23 41 1.6-1.6 29.5-39.4 29.5-77.1V50.9h-60.7v18h-49.2V87h-51v64c0 37.7 29.5 73.8 29.5 77.1 1.7-3.3 21.4-29.5 28-60.7zm52.5-108.3h41v55.8c0 27.9-19.7 54.2-19.7 55.8-1.6-1.6-19.7-27.9-19.7-55.8V59.1h-1.6zm-49.3 18.1h41V133c0 27.9-19.7 54.1-19.7 55.8-1.6-1.6-19.7-27.9-19.7-55.8V77.2h-1.6zm-50.8 18h41V151c0 27.9-19.7 54.1-19.7 55.8-1.6-1.6-21.3-27.9-21.3-55.8V95.2z"/><path d="M198.5 106.7V62.4h-37.7l36.1 64c0-3.3 1.6-9.9 1.6-19.7zM180.5 190.4h-1.6zM129.6 208.4zM196.9 182.2c-1.6 0-4.9 1.6-4.9 4.9 0 1.6 1.6 4.9 4.9 4.9s4.9-1.6 4.9-4.9c-1.6-3.3-3.3-4.9-4.9-4.9zm0 8.2c-1.6 0-3.3-1.6-3.3-3.3s1.6-3.3 3.3-3.3 3.3 1.6 3.3 3.3-1.7 3.3-3.3 3.3z"/><path d="M198.5 185.4c-1.6-1.6-1.6-1.6-1.6-1.6h-1.6v4.9-1.6h1.6l1.6 1.6v-3.3c0 1.7 0 1.7 0 0zm-1.6 1.7l-1.6-1.6h1.6s1.6 0 1.6 1.6h-1.6zM91.9 178.9l-31.2-55.8s0 9.8 0 27.9 9.8 37.7 18 50.9c5-5 9.9-13.2 13.2-23zM98.4 142.8v-46H60.7l36.1 64c0-3.2 1.6-8.2 1.6-18zM142.8 160.8l-31.2-54.2s0 9.8 0 27.9 9.8 37.7 18 50.9c3.3-6.5 8.2-13.1 13.2-24.6zM147.7 124.7V78.8h-36.1l36.1 64c0-3.3 0-8.2 0-18.1zM192 142.8l-31.2-54.1s0 9.8 0 27.9 9.8 37.7 18.1 50.9c4.9-6.7 9.8-13.2 13.1-24.7z"/></svg>