<?xml version="1.0" encoding="utf-8"?>
<!-- Generator: Adobe Illustrator 24.0.0, SVG Export Plug-In . SVG Version: 6.00 Build 0)  -->
<svg version="1.1" id="Layer_1" xmlns="http://www.w3.org/2000/svg" xmlns:xlink="http://www.w3.org/1999/xlink" x="0px" y="0px"
	 viewBox="0 0 256 256" style="enable-background:new 0 0 256 256;" xml:space="preserve">
<g>
	<path d="M78.8,226.5L78.8,226.5L78.8,226.5z"/>
	<path d="M128,256c70.5,0,128-57.4,128-128S198.5,0,128,0C57.4-1.6,0,55.8,0,126.4C0,198.6,57.4,256,128,256z M128,11.5
		c64,0,114.9,50.9,114.9,114.9S192,241.2,128,241.2S13.1,190.4,13.1,126.4C13.1,64,65.6,11.5,128,11.5z"/>
	<path d="M106.7,167.4c8.2,23,21.3,39.4,23,41c1.6-1.6,21.3-27.9,27.9-59.1c8.2,23,21.3,39.4,23,41c1.6-1.6,29.5-39.4,29.5-77.1
		V50.9h-60.7v18h-49.2V87H49.2v64c0,37.7,29.5,73.8,29.5,77.1C80.4,224.8,100.1,198.6,106.7,167.4z M159.2,59.1h41v55.8
		c0,27.9-19.7,54.2-19.7,55.8c-1.6-1.6-19.7-27.9-19.7-55.8V59.1H159.2z M109.9,77.2h41v55.8c0,27.9-19.7,54.1-19.7,55.8
		c-1.6-1.6-19.7-27.9-19.7-55.8V77.2H109.9z M59.1,95.2h41V151c0,27.9-19.7,54.1-19.7,55.8c-1.6-1.6-21.3-27.9-21.3-55.8L59.1,95.2
		L59.1,95.2z"/>
	<path d="M198.5,106.7V62.4h-37.7l36.1,64C196.9,123.1,198.5,116.5,198.5,106.7z"/>
	<polygon points="180.5,190.4 180.5,190.4 178.9,190.4 	"/>
	<path d="M129.6,208.4L129.6,208.4L129.6,208.4z"/>
	<path d="M196.9,182.2c-1.6,0-4.9,1.6-4.9,4.9c0,1.6,1.6,4.9,4.9,4.9s4.9-1.6,4.9-4.9C200.2,183.8,198.5,182.2,196.9,182.2z
		 M196.9,190.4c-1.6,0-3.3-1.6-3.3-3.3s1.6-3.3,3.3-3.3s3.3,1.6,3.3,3.3S198.5,190.4,196.9,190.4z"/>
	<path d="M198.5,185.4L198.5,185.4c-1.6-1.6-1.6-1.6-1.6-1.6h-1.6v4.9l0,0v-1.6h1.6l1.6,1.6l0,0V185.4
		C198.5,187.1,198.5,187.1,198.5,185.4z M196.9,187.1L196.9,187.1l-1.6-1.6h1.6c0,0,1.6,0,1.6,1.6H196.9z"/>
	<path d="M91.9,178.9l-31.2-55.8c0,0,0,9.8,0,27.9s9.8,37.7,18,50.9C83.7,196.9,88.6,188.7,91.9,178.9z"/>
	<path d="M98.4,142.8V96.8H60.7l36.1,64C96.8,157.6,98.4,152.6,98.4,142.8z"/>
	<path d="M142.8,160.8l-31.2-54.2c0,0,0,9.8,0,27.9s9.8,37.7,18,50.9C132.9,178.9,137.8,172.3,142.8,160.8z"/>
	<path d="M147.7,124.7V78.8h-36.1l36.1,64C147.7,139.5,147.7,134.6,147.7,124.7z"/>
	<path d="M192,142.8l-31.2-54.1c0,0,0,9.8,0,27.9s9.8,37.7,18.1,50.9C183.8,160.8,188.7,154.3,192,142.8z"/>
</g>
</svg>
