<?xml version="1.0" encoding="utf-8"?>
<!-- Generator: Adobe Illustrator 24.0.0, SVG Export Plug-In . SVG Version: 6.00 Build 0)  -->
<svg version="1.1" id="Layer_1" xmlns="http://www.w3.org/2000/svg" xmlns:xlink="http://www.w3.org/1999/xlink" x="0px" y="0px"
	 viewBox="0 0 15.7 15.7" style="enable-background:new 0 0 15.7 15.7;" xml:space="preserve">
<style type="text/css">
	.st0{fill:#8699A3;}
</style>
<polygon class="st0" points="4.8,13.9 4.8,13.9 4.8,13.9 "/>
<path class="st0" d="M7.8,15.7c4.3,0,7.8-3.5,7.8-7.8c0-4.3-3.5-7.8-7.8-7.8C3.5,0,0,3.5,0,7.8C0,12.2,3.5,15.7,7.8,15.7z M7.8,0.8
	c3.9,0,7,3.1,7,7c0,3.9-3.1,7-7,7c-3.9,0-7-3.1-7-7C0.8,4,4,0.8,7.8,0.8z"/>
<path class="st0" d="M6.5,10.3c0.5,1.4,1.3,2.4,1.4,2.5c0.1-0.1,1.3-1.7,1.7-3.6c0.5,1.4,1.3,2.4,1.4,2.5c0.1-0.1,1.8-2.4,1.8-4.7
	V3.2H9.1v1.1H6.1v1.1H3v3.9c0,2.3,1.8,4.5,1.8,4.7C4.9,13.8,6.1,12.2,6.5,10.3z M9.7,3.7h2.5v3.4c0,1.7-1.2,3.3-1.2,3.4
	c-0.1-0.1-1.2-1.7-1.2-3.4V3.7L9.7,3.7z M6.7,4.8h2.5v3.4c0,1.7-1.2,3.3-1.2,3.4c-0.1-0.1-1.2-1.7-1.2-3.4V4.8z M3.6,5.9h2.5v3.4
	c0,1.7-1.2,3.3-1.2,3.4C4.8,12.6,3.6,11,3.6,9.3V5.9L3.6,5.9z"/>
<path class="st0" d="M12.1,6.6V3.9H9.8L12,7.8C12,7.6,12.1,7.2,12.1,6.6z"/>
<polygon class="st0" points="11,11.7 11,11.7 10.9,11.7 "/>
<polygon class="st0" points="7.9,12.8 7.9,12.8 7.9,12.8 "/>
<path class="st0" d="M12,11.2c-0.1,0-0.3,0.1-0.3,0.3c0,0.1,0.1,0.3,0.3,0.3c0.2,0,0.3-0.1,0.3-0.3C12.2,11.3,12.1,11.2,12,11.2z
	 M12,11.7c-0.1,0-0.2-0.1-0.2-0.2c0-0.1,0.1-0.2,0.2-0.2c0.1,0,0.2,0.1,0.2,0.2C12.2,11.6,12.1,11.7,12,11.7z"/>
<path class="st0" d="M12.1,11.4C12.1,11.4,12.1,11.4,12.1,11.4c-0.1-0.1-0.1-0.1-0.1-0.1h-0.1v0.3h0v-0.1H12l0.1,0.1h0L12.1,11.4
	C12.1,11.5,12.1,11.5,12.1,11.4z M12,11.5L12,11.5l-0.1-0.1H12c0,0,0.1,0,0.1,0.1C12.1,11.5,12,11.5,12,11.5z"/>
<path class="st0" d="M5.6,11L3.7,7.6c0,0,0,0.6,0,1.7c0,1.1,0.6,2.3,1.1,3.1C5.1,12.1,5.4,11.6,5.6,11z"/>
<path class="st0" d="M6,8.8V6H3.7l2.2,3.9C5.9,9.7,6,9.4,6,8.8z"/>
<path class="st0" d="M8.7,9.9L6.8,6.6c0,0,0,0.6,0,1.7c0,1.1,0.6,2.3,1.1,3.1C8.1,11,8.4,10.6,8.7,9.9z"/>
<path class="st0" d="M9,7.7V4.9H6.8L9,8.8C9,8.6,9,8.3,9,7.7z"/>
<path class="st0" d="M11.7,8.8L9.8,5.5c0,0,0,0.6,0,1.7c0,1.1,0.6,2.3,1.1,3.1C11.2,9.9,11.5,9.5,11.7,8.8z"/>
</svg>
