<?xml version="1.0" encoding="utf-8"?>
<!-- Generator: Adobe Illustrator 24.0.0, SVG Export Plug-In . SVG Version: 6.00 Build 0)  -->
<svg version="1.1" id="Layer_1" xmlns="http://www.w3.org/2000/svg" xmlns:xlink="http://www.w3.org/1999/xlink" x="0px" y="0px"
	 viewBox="0 0 256 256" style="enable-background:new 0 0 256 256;" xml:space="preserve">
<style type="text/css">
	.st0{fill:#8699A3;}
</style>
<g>
	<path class="st0" d="M78.76,226.47L78.76,226.47L78.76,226.47z"/>
	<path class="st0" d="M127.98,256c70.55,0,127.98-57.43,127.98-127.98S198.54,0.03,127.98,0.03C57.43-1.61,0,55.82,0,126.38
		C0,198.57,57.43,256,127.98,256z M127.98,11.52c63.99,0,114.86,50.86,114.86,114.86s-50.86,114.86-114.86,114.86
		S13.13,190.37,13.13,126.38C13.13,64.03,65.63,11.52,127.98,11.52z"/>
	<path class="st0" d="M106.65,167.4c8.2,22.97,21.33,39.38,22.97,41.02c1.64-1.64,21.33-27.89,27.89-59.07
		c8.2,22.97,21.33,39.38,22.97,41.02c1.64-1.64,29.53-39.38,29.53-77.12V50.9h-60.71v18.05h-49.22V87H49.22v63.99
		c0,37.74,29.53,73.84,29.53,77.12C80.4,224.82,100.09,198.57,106.65,167.4z M159.16,59.1h41.02v55.79
		c0,27.89-19.69,54.15-19.69,55.79c-1.64-1.64-19.69-27.89-19.69-55.79V59.1H159.16z M109.93,77.15h41.02v55.79
		c0,27.89-19.69,54.15-19.69,55.79c-1.64-1.64-19.69-27.89-19.69-55.79V77.15H109.93z M59.07,95.2h41.02v55.79
		c0,27.89-19.69,54.15-19.69,55.79c-1.64-1.64-21.33-27.89-21.33-55.79V95.2L59.07,95.2z"/>
	<path class="st0" d="M198.54,106.69v-44.3H160.8l36.1,63.99C196.9,123.09,198.54,116.53,198.54,106.69z"/>
	<polygon class="st0" points="180.49,190.37 180.49,190.37 178.85,190.37 	"/>
	<path class="st0" d="M129.62,208.42L129.62,208.42L129.62,208.42z"/>
	<path class="st0" d="M196.9,182.16c-1.64,0-4.92,1.64-4.92,4.92c0,1.64,1.64,4.92,4.92,4.92c3.28,0,4.92-1.64,4.92-4.92
		C200.18,183.8,198.54,182.16,196.9,182.16z M196.9,190.37c-1.64,0-3.28-1.64-3.28-3.28c0-1.64,1.64-3.28,3.28-3.28
		c1.64,0,3.28,1.64,3.28,3.28C200.18,188.73,198.54,190.37,196.9,190.37z"/>
	<path class="st0" d="M198.54,185.45L198.54,185.45c-1.64-1.64-1.64-1.64-1.64-1.64h-1.64v4.92l0,0v-1.64h1.64l1.64,1.64l0,0V185.45
		C198.54,187.09,198.54,187.09,198.54,185.45z M196.9,187.09L196.9,187.09l-1.64-1.64h1.64c0,0,1.64,0,1.64,1.64H196.9z"/>
	<path class="st0" d="M91.89,178.88l-31.18-55.79c0,0,0,9.84,0,27.89s9.84,37.74,18.05,50.86C83.68,196.93,88.6,188.73,91.89,178.88
		z"/>
	<path class="st0" d="M98.45,142.78V96.84H60.71l36.1,63.99C96.81,157.55,98.45,152.63,98.45,142.78z"/>
	<path class="st0" d="M142.75,160.83l-31.18-54.15c0,0,0,9.84,0,27.89s9.84,37.74,18.05,50.86
		C132.91,178.88,137.83,172.32,142.75,160.83z"/>
	<path class="st0" d="M147.67,124.74V78.79h-36.1l36.1,63.99C147.67,139.5,147.67,134.58,147.67,124.74z"/>
	<path class="st0" d="M191.97,142.78L160.8,88.64c0,0,0,9.84,0,27.89s9.84,37.74,18.05,50.86
		C183.77,160.83,188.69,154.27,191.97,142.78z"/>
</g>
</svg>
