<svg xmlns="http://www.w3.org/2000/svg" viewBox="0 0 256 256" enable-background="new 0 0 256 256"><style type="text/css">.st0{fill-rule:evenodd;clip-rule:evenodd;}</style><path d="M129.18 161.6l2.62 1.25c1.5.58 2.47.33 2.82.18.36-.16 1.75-1.64 2.05-2.9.14-.52.07-.96-.2-1.3-1.03-1.2-2.83-6.74-3.5-9.73-.25-1.1.05-4.18.3-6.65.2-2.12.32-3.44.2-3.78-.17-.52-.95-1.03-1.85-1.6l-1.43-.97c-.77-.62-.8-1.47-.85-2.38l-.15-1.42c-.33-1.3-7.03-8.15-8.06-8.2-1.5-.1-1.9 1.54-2 2.53-.05.58.62 3.17 1.23 5.47l.67 2.77c.7 4.35 5.32 12.03 7.3 15.3l.93 1.6c.4.9.25 1.64-.47 2.05-.7.4-6.72-.23-9.6-.9-1.23-.28-2.75-.9-4.24-1.5-1.7-.67-3.32-1.33-4.25-1.38-1.08-.06-1.6.16-2 .35l-.65.17-.65-.2c-.8-.36-2.3-1-6.36-1.37-5.93-.56-6.38.64-6.62 1.28-.3.82 3.33 4.67 3.98 5.2.82.66 3.5 1.67 5.12 1.4 1.86-.3 4.9-.68 5.27-.6l.6.37.57.4c.52.2 3.83.4 4.83.45 1.16.06 4.2.7 6.4 1.16l2.5.5c.96.2 3.46 1.44 5.48 2.45zM190.55 84.67c-.13-.16-.24-.17-.3-.15-.07.02-.16.08-.18.27-.1.82-1.15 2.94-1.97 3.25-1.67.65-2.53 2.6-3.16 4.03-.32.73-.63 1.44-.88 1.44-.1 0-.22-.1-.35-.34-1.02-1.77-.44-4.48.02-6.67l.1-.53c.4-1.84 2.54-4.42 3.83-5.97l.57-.68c.88-1.1 1.1-4.8.94-5.08-.05-.02-.1.02-.1.05-.03 0-.05.03-.06.05 0 0-.02 0-.02 0s0 .02 0 .02c-.05.06-.1.06-.14.25-.23 1.16-2.35 3.5-5.96 6.64-.74.64-1.6 1.8-2.28 2.73-.45.6-.97 1.3-1.1 1.34-.9-4.78.72-7.5 1.5-8.83l.35-.66c1.53-4.16 5.47-7.3 5.5-7.34.06-.12.06-.25-.03-.33-.15-.12-.43-.07-.86.15l-.24.12c-1.37.67-5.52 2.7-8.06 7.55-1.82 3.5-2.53 7.4-2.53 10.35 0 1.5.18 2.75.5 3.58.88 2.38 2.45 8.3 2.93 10.62.3 1.44.35 6.38.35 9.48 0 1.5 0 2.58 0 2.6 0 0-.8 2.52-.8 2.52 0 .03-.37 2-3.58 5.27-3.23 3.3-6.83 4.35-6.86 4.36-1.44.1-2.76.05-2.8-.14 0-3.77-6.46-12.54-9.77-15.43-3.38-2.95-6.07-5.06-10.65-7.85-4.66-2.84-9.84-14.73-9.9-14.85 0 0-.45-1.6-.45-1.6s-.25-3.22-.32-4.05c.17.1.4.23.4.23l1.58.93c.02.02 1.82.7 1.82.7.02.02 2.4.48 2.4.48s1.32.7 1.32.7c0-.02 1.23.8 1.23.8l1.92 1.37s1.97 1.03 1.97 1.03c.04 0 2.36.13 2.36.13l.05-.18s-2.7-1.26-2.7-1.26c0-.04-.96-1.7-.96-1.7s-1.13-1.62-1.13-1.62c-.04-.03-1.4-.84-1.4-.84-.04-.02-1.72-.25-1.73-.25 0 0-.33-.3-.5-.46.14-.1.42-.28.42-.28 0 .02 1.86.24 1.86.24 0 .02 1.65 1.14 1.65 1.14l1.8 1.4c.03 0 1.7.65 1.7.65l.22.1-.74-1.92c-.02-.04-1.38-1.3-1.38-1.3s-2.04-1.74-2.04-1.74c-.02-.03-1.6-.84-1.6-.84-.02 0-1.7-.57-1.7-.57s-1.8-1.16-1.8-1.16.02-.12.03-.23c.24.1 2.5 1 2.5 1s2.15.58 2.15.58 1.8.7 1.8.7c0-.02 2.6 1.25 2.6 1.25s2.16.48 2.16.48c.05 0 2.66-.45 2.66-.45.03-.02 2.53-1.75 2.53-1.75.02-.05.48-1.08.48-1.08l.1-.24-.8.33s-2.26 1.16-2.26 1.16l-1.56.35s-1.76-.34-1.77-.34c0-.02-1.44-1.35-1.44-1.35l-2.03-1.96c-.03 0-1.83-.94-1.83-.94-.03 0-2.17-.36-2.17-.36s-1.3-.67-1.33-.68c0 0 0-.03 0-.06 0-.16-.03-.5-.05-.66.23.02 2.7.23 2.7.23.02 0 2.96-.24 2.96-.24s1.67.35 1.67.35 1.68.7 1.68.7c.02 0 1.72.22 1.72.22l.3.04-1.9-1.84c-.03 0-1.95-1.4-1.95-1.4-.02 0-1.6-.6-1.6-.6-.04 0-2.68-.22-2.74-.22.02 0 .03-.05.03-.1 0-.17-.02-.4-.03-.52.16-.03 1.25-.2 1.25-.2s2 .45 2 .45c0 .02 1.9 1.15 1.9 1.15s2.04.7 2.04.7c.06 0 3-.46 3-.46l.17-.04-.9-1.18c-.04-.04-1.5-.5-1.52-.5 0 0-1.2-.9-1.2-.9l-1.82-1.28c-.03 0-1.38-.47-1.38-.47-.03 0-2.15-.35-2.16-.35 0-.02-1.05-1-1.07-1 .03 0 .1-.34.12-.5.18.06 1.12.33 1.12.33l1.45.7c.02 0 2.06.65 2.06.65l-.46-.9c-.02-.04-.8-.85-.8-.85s-.5-.65-.7-.9c.14-.03.3-.08.3-.08 0 .03 2.2 1.15 2.2 1.15s1.7.58 1.7.58S152 66.3 152 66.3c0 .02 2.5 1.42 2.5 1.42l.26.14-.46-1.22c0-.03-1.37-1.76-1.37-1.76s-1.13-1.95-1.13-1.95c0-.02-2.05-2.1-2.05-2.1-.02-.02-2.62-1.4-2.62-1.4 0-.02-1-1.14-1-1.14s-1.8-1.86-1.8-1.86c0-.02-.2-.66-.28-.98.3.1 1.76.58 1.76.58s2.04.57 2.04.57c0 .02 1.45.92 1.45.92s1.2 1.48 1.2 1.48c.04.03 1.97.84 1.97.84.03 0 4.9.64 4.9.64l.3.04-1.35-1.42c-.03-.03-2.64-1.18-2.64-1.18s-1.56-1.14-1.56-1.14c0-.02-.87-1.6-.87-1.6l-.9-1.6c-.03-.02-1.5-1.4-1.5-1.4-.02-.03-1.83-1.07-1.83-1.07l-1.8-1.48s-.42-.9-.7-1.5c.46.44 1.24 1.2 1.24 1.2l2.37 2.08c.03.02 1.84.83 1.84.83l1.55 1.25 1.8 1.84c.06.03 2.88.43 2.88.43l.35.05-2.86-2.48c0-.04-.66-2.03-.66-2.03-.03-.05-1.5-1.44-1.5-1.44l-.78-.92c0-.02-.78-2.4-.78-2.4-.03-.03-1.6-1.64-1.6-1.64s-2.6-2.42-2.6-2.43c0-.05-.1-.42-.14-.66.2.1.47.25.47.25l2.38 1.38c.02 0 2.85.82 2.85.82s2.95.7 2.95.7 3.4.54 3.4.54l-.8-1.63c-.06-.05-1.75-.74-1.75-.74s-1.57-.92-1.57-.92c-.02 0-1.93-.8-1.93-.8l-1.7-.7s-1.1-1.42-1.7-2.2c.6.4 1.5 1 1.5 1 .03.03 1.5.14 1.5.14h4.65s1.88 1.03 1.88 1.03 1.6 1.73 1.6 1.73l.2.23-.18-1.95c-.02-.06-1.04-1.33-1.04-1.33-.03-.02-2.75-1.52-2.75-1.52-.02 0-2.17-.8-2.17-.8-.02-.02-3.27-.6-3.3-.6 0-.03-.6-.77-.6-.77-.02 0-2.4-2.2-2.4-2.2 0-.02-1.14-.6-1.14-.6s-.37-.37-.6-.6c.34 0 1.22 0 1.22 0 0 .02 1.87 1.14 1.87 1.14s2.5.8 2.5.8c.02 0 3.17.47 3.18.47 0 .03 1.18 1.36 1.18 1.36.02 0 1.72 1.06 1.72 1.06.03 0 1.96.34 1.96.34l.27.04-4.02-4.93c-.03-.02-1.95-1.06-1.95-1.06-.02-.02-2.27-.7-2.27-.7 0-.04-2-2.3-2-2.3s-2.5-1.5-2.5-1.5c-.03-.02-1.47-.37-1.8-.45.1-.18.48-.8.48-.8 0 .02 2-.88 2-.88s2.9-.57 2.9-.57c.08-.07.3-.76.3-.76-.04-.12-1.28-.92-1.28-.92-.02 0-1.5-.48-1.5-.48-.08 0-.87.47-.87.47s-2.45.1-2.45.1-2.9-.68-2.9-.68-3-2.52-3-2.52c-.03-.02-1.4-.7-1.4-.7-.02-.02-4.98-.6-5-.6 0-.06-1.17-1.8-1.17-1.8s-1.6-1.74-1.6-1.74-2.03-1.84-2.03-1.84l-.06.13-.7 1.5c0-.02-.66 1.02-.66 1.02s0 0 0 .03c0 .2.1 1.2.1 1.2.03.05.68.72.7.75-.03 0-.25 1.05-.25 1.05-.02-.07-2.73.04-2.73.04s-2.22-1.03-2.22-1.03-1.7-.57-1.7-.57c-.04 0-4 .1-4 .1-.1.06-.76 1.1-.76 1.1l-.1.13s1.74.25 1.74.25c0 .02.26.18.4.27-.14.1-.44.36-.44.36 0-.02-2.42-.13-2.42-.13-.04 0-1.74.7-1.74.7l-.18.08.84.57c.05.02 3.67.14 3.67.14s2.68.68 2.7.68c0 .04.5.77.5.77s.36.5.5.7c-.17.1-1.15.64-1.15.64.02 0-3.27 1.37-3.27 1.37s-6.78 3.8-6.78 3.8-4.47.67-4.47.67c-.03 0-1.75.96-1.75.96-.04.03-1.4 1.93-1.4 1.93-.03.03-.8 2.4-.8 2.4-.06 4.03.1 4.12.16 4.16.14.07 1.3.73 2.2.25 1.03-.55 3.2-1.1 4.34-1.34.56-.1.82.1.87.3.07.23-.1.54-.52.65l-.23.07c-1.97.54-3.98 1.18-3.92 1.94l.35.58c.88.64 3.17.34 4.38.06l1.27-.35c1.1-.33 2.34-.7 3.4-.6.6.08 1.15.34 1.8.65.85.42 1.84.9 3.32 1 2.46.16 4.14.66 4.27.8.33.67.12 1.66-.05 2.46l-.13.72c-.7 6.24-7.66 13.3-11 16.68-.92.92-1.52 1.52-1.64 1.77l-.4.9c-.32.82-.58 1.53-1.65 1.96-.62.23-2.05 1.3-3.72 2.56-2.4 1.8-5.4 4.03-6.2 3.93-1.4-.17-7.8-4.6-8.08-4.86-6.26-6.05-8.87-4.8-10.44-4.07l-.2.14c-1.87.86-3.83 6.14-4 7.28l-.76 3.26-.58 2.4c-.17.8-.94 2.8-1.68 4.7l-1.5 4.2c-.26.96-.86 2.32-1.36 3.42l-.67 1.63c-.46 1.9-.47 12.37.34 13.3l.03.04.16.05c.8-.1 2.55-1.9 3.38-2.76l.2-.2c.7-.7 1.45-2.6 1.45-3.4 0-.8-.36-2.43-.5-2.87-1.14-3.46-.72-6.75-.5-8.33l.07-.7c.06-.73.8-1.55 1.5-2.32l.9-1.04c.5-.66 1.06-.88 1.54-1.07l.8-.45.14-.13c.53-.54 1.43-1.44 1.82-2.65l.77-3.3.17-.9c.04-.17.13-.26.28-.3.3-.07.76.17.95.43l5.54 6.42c1.43 1.2 2.88 2.65 2.88 2.97 0 0 0 0 0 .02 0 0-.03 0-.03 0-.77.08-4.68-.75-5.32-.93-5.3-1.56-7.72-1.3-9.58 1.04C73.32 87.3 74 95.5 74.43 96.4c.4.8 2.34 10.8 2.42 12.12.1 1.3.6 3.64 1.12 4.17l.14.14c.66.64 2.38 2.37 2.7 4.08.32 1.86 4.26 6.83 5.76 7.27.23.06.45 0 .66-.14 1.15-.82 1.67-4.8 1.73-6.47.07-2.1-.68-3.1-1.47-4.2l-.3-.4c-.6-.8-1.62-1.1-2.3-1.3-.3-.07-.7-.17-.7-.26 0-.03-.07-3.1-1.05-3.7-.76-.46-1.54-3.42-1.63-4.54-.1-1.12-.52-3.82-1.1-5-.6-1.2-1.08-3.38-.83-5.08.1-.73.62-.96 1.05-1.02.73-.12 1.56.2 1.7.45.3.58 5.88 3.95 7.76 4.68 1.17.44 2.75 1.78 4.15 2.97 1 .83 1.85 1.55 2.4 1.8.7.36 2.75.4 4.4.43.86.02 1.76.04 1.9.1-.68.28-.67 1.44-.6 1.82.67 4.83 18.24 18.1 19.6 18.84 1.57.83 7.2 6.72 7.7 7.52.52.8 1.02 1.66.92 2.3-.14 1 .26 2.1 1.04 3.03.74.85 1.72 1.36 2.63 1.36.8 0 1.3-.7 1.7-1.2l.08-.1c1.06-1.4 2.6-3.43 2.8-6.6.22-3.27 1.7-4.56 2.2-4.65.2-.04.38.03.43.17.06.15 0 .4-.3.6-.65.43-1.06 1.87-1.5 3.4 0 .02-.16 1.58-.16 1.58-.04 1.17-.08 2.5-1.25 3.77-1.74 1.9-3.74 6.24-4.26 11.73-.3 3.3 1.18 8.08 4.43 14.16l.22.43.88 1.46c.9 1.43 2.37 3.8 2.3 4.37-.08.8-.16 1.4-1.5 3.1-1.5 1.87-6.93 8.2-7.46 8.3-1.08 0-1.26.13-2.13.8l-.9.7c-1 .7-1.2 1.24-1.36 1.7-.12.36-.24.68-.7 1.02l-.36.24c-.07.05-.27.33-2.45 2.52-2.5 2.48-3.62 5.27-3.24 8.06.1.87.86 1.17 3.08 1.28 2.22.1 7.3-3.46 7.54-4.62l.08-.44c.2-1.05.52-2.8 1.1-3.06.7-.3 1.88-1.68 2.76-2.68l.17-.2c.46-.53.58-1.06.7-1.57.08-.42.17-.82.44-1.2.2-.26.5-.4.86-.57.68-.32 1.53-.74 2.14-2.27.6-1.5 4.25-4.12 6.9-6.02 1.36-.96 2.42-1.74 2.68-2.07.35-.46.56-1.33.56-2.26 0-1.1-.3-2.27-.98-2.92-1-.94-1.96-3.72-2.24-4.6 0 0 0 0 0-.02 0-.36-.03-1.02-.1-2.26 0-.06 0-.12 0-.17 0-3.26 4.85-6.45 6.94-7.83l.95-.66c7.6-6.7 9.08-11.8 9.36-13.2l.15-1.67c.05-1.16.08-2.26.8-2.4.26-.06.72.15 1 .5.16.17.4.54.24.97-.35.94-.46 10.38-.46 10.77.03.08.82 1 .82 1l.14.18.04-.22c0-.1.45-2.68.45-3.6 0-1 1.65-5.37 2.04-5.45 0 .03.03.06.03.06.2.6.44 2.1.44 3.66 0 1.55-.22 3.17-.97 4.1-1.14 1.42-2.04 3.64-2.63 5.1l-.55 1.26c-.05.1-.08.3-.08.54 0 1.2.62 3.75 1.02 4.22.1.12.18.12.24.1.13-.06.25-.23.25-1.23 0-3.8 3.2-6.57 3.23-6.6 2.83-2.24 3.45-6.4 3.45-9.57 0-2.4-.35-4.23-.36-4.28 0-.03-1.32-1.93-1.36-1.98.07.03.43-.27.56-.37.12.16 1.4 1.87 1.4 1.87.23.3.78 1.2.78 1.54 0 1.97.3 3.32.52 4.3l.05.23c.23 1.05 1.64 4.38 1.7 4.53l.15.35.05-.37c0-.02.22-1.76 0-3.26-.13-.84.03-1.87.2-2.98l.25-2.55c0-2.07-.3-3.38-1.03-4.57l-.4-.57c-.14-.22-.28-.45-.27-.5l.28-.12c5.98-2.02 8.76-6.42 9.9-8.85 1.18-2.58 1.24-6.55 1.24-7.32 0-1-.04-6.15-.9-8.8-.52-1.56-.36-3.24-.2-5.06l.2-3.1c0-2.12 1.12-3.7 2.2-5.23l1.3-2c.8-1.65.35-3.1 0-3.53zM24.45 20.76l-.9.5V76.9c0 29.7 6.98 59.28 20.75 87.9 32.34 67.14 82.47 90.63 82.98 90.85l.74.34.74-.35c.5-.23 50.6-23.72 82.93-90.85 13.77-28.62 20.76-58.2 20.76-87.9V21.27l-.9-.5C231.2 20.55 194.56 0 128.22 0 61.9 0 24.82 20.55 24.45 20.76zM128.22 3.6c59.9 0 94.97 16.85 100.66 19.8 0 2.08 0 53.5 0 53.5 0 29.15-6.87 58.2-20.4 86.35-29.64 61.5-74.23 85.63-80.46 88.78-6.24-3.15-50.86-27.3-80.5-88.78-13.53-28.15-20.4-57.2-20.4-86.36 0 0 0-51.4 0-53.5 5.74-2.94 41.2-19.8 101.1-19.8zM143.9 200.2c1.75 1.2.5 3.3-.8 3.62-1.34.36-2.5-1.12-3.14.5-.36.9.63 7.53 7.42 7.53 6.34 0 9.37-8.14 9.96-9.37.6-1.22 1-2.8.4-2.8-2.8 0-3.6 1.67-3.6 1.67s-.2-1.6 1.17-2.8c1.15-.97 2.65-.73 3.2-.73 1.12 0 .94-.84 1.63-2.52 1.56-3.93 2.64-4.1 3.65-5.9.84-1.46-.75-2.04-3.88-2.33-3.14-.3-4.83-.17-6.23.03-1.4.2-2.8.77-3.68 2.92-.48 1.17.38 2.3 2.03 2 1.65-.3 3.23-1.54 3.23-1.54s-.74 2.95-3.2 3.56c-2.28.56-4.97-.8-4.6-3.12.47-3 2.54-5.18 6.3-5.92 3.8-.76 7.55-.18 10.9.65 3.35.84 5.82.33 8.93.15 6.7-.36 10.85-1.94 10.85-1.94s-3.02 2.45-7.2 3.6c-4.2 1.13-7.94.66-9.14 1.13-.97.4-2.35 2.34-3.48 4.56-1.05 2.04-2.16 4.38-1.68 4.38 3.9.15 5.32-.7 5.32-.7s-.77 1.68-2.63 2.47c-1.3.53-3.47.53-3.47.53s-.98 2.5-2.1 4.73c-1.1 2.24-2.93 5.75-6.22 7.48-3.3 1.73-9.6 3.9-13.58-1.82-4.22-5.98-.4-12.8 3.65-10.02zM95.14 200.98c.77 2-.87 3.02-1.83 3.02-.95 0-2.14-.7-2.4.5-.22 1.18 2.56 7.32 9.02 7.32 6.46 0 9.46-3.74 9-7.1-.5-3.73-6.45-5.22-11.18-7.7-2.32-1.22-7.56-2.04-7.56-6.94 0-10.47 15.93-3.78 15.93-3.78s.04-1.3.8-1.37c.35-.03 1.07-.18 1.3 1 .25 1.2 1.3 7.5 1.3 7.5s-2.34-4.8-8.77-6.9c-1.14-.4-6.1-1.34-6.08 2.6.06 2.34 2.9 3.4 7.84 5.3 6.48 2.54 9.8 4.9 8.27 11.73-1.46 6.55-7.86 7.63-10.98 7.63s-10.27-2.2-10.27-9.38c0-5.08 5-4.97 5.6-3.44zM123.72 18.18c.1 0 1.37-.6 1.37-.6.04-.1-.25-1.32-.25-1.32-.02-.04-2.76-3.25-2.76-3.25l-.15-.15-.05.2-.3 1.3s-.88 2.1-.88 2.1l-.04.08 1.85.95s1.2.7 1.2.7zM138 51.45v-.02.02z" class="st0"/></svg>