<?xml version="1.0" encoding="utf-8"?>
<!-- Generator: Adobe Illustrator 24.0.0, SVG Export Plug-In . SVG Version: 6.00 Build 0)  -->
<svg version="1.1" id="Layer_1" xmlns="http://www.w3.org/2000/svg" xmlns:xlink="http://www.w3.org/1999/xlink" x="0px" y="0px"
	 viewBox="0 0 256 256" style="enable-background:new 0 0 256 256;" xml:space="preserve">
<g>
	<g>
		<path d="M206.2,17.9C204.2,7.3,195.2,0,184.4,0C147,0,109.6,0,72.2,0c-2.1,0-4.2,0.3-6.2,0.9c-9.5,2.6-16,11.1-16,20.7
			C50,57.1,50,92.5,50,128c0,35.3,0,70.6,0,105.9c0,1,0,2,0.2,3c1.5,10.9,10.7,19.1,21.7,19.1c37.5,0,75,0,112.5,0
			c1.6,0,3.2-0.2,4.8-0.5c10.3-2.1,17.5-11.1,17.5-21.7c0-70.6,0-141.1,0-211.7C206.7,20.7,206.5,19.2,206.2,17.9z M193.3,245.7
			c-2.6,2-5.7,2.9-9,2.9c-10.6,0-21.2,0-31.8,0c-26.7,0-53.4,0-80,0c-7.1,0-12.9-4.5-14.6-11.4c-0.4-1.4-0.4-3-0.4-4.5
			c0-69.1,0-138.2,0-207.4c0-1,0-2,0-3C57.5,14.8,62.4,9,69.8,7.6c1-0.2,2-0.2,3-0.2c37,0,74,0,111,0c5.6,0,10.1,2.1,13.3,6.8
			c1.5,2.3,2.3,4.8,2.3,7.6c0,0.7,0,1.4,0,2c0,34.8,0,69.5,0,104.2c0,35.1,0,70.2,0,105.3C199.3,238.5,197.4,242.6,193.3,245.7z"/>
		<path d="M63.7,53.3c0,49.9,0,99.7,0,149.5c43.2,0,86.2,0,129.4,0c0-49.9,0-99.7,0-149.5C149.9,53.3,106.8,53.3,63.7,53.3z
			 M119.2,179.4c0,3.3,0.5,6.4,2.2,9.3c1.2,2,2.8,3.4,4.7,4.6c0.1,0.1,0.3,0.2,0.6,0.4c-9.8,0-19.3,0-29.1,0
			c0.4-0.3,0.7-0.5,0.9-0.6c4.1-2.5,6-6.3,6.4-10.9c0.2-1.5,0.2-3,0.2-4.5c0-14.5,0-29,0-43.5c0-0.9,0.2-1.1,1.1-1.2
			c4.1-0.6,8.1-1.3,12.2-1.9c0.2-0.1,0.4-0.1,0.8-0.1c0,2.3,0,4.6,0,6.9c1.8-0.1,3.5-0.2,5.2-0.3c0.5,0,0.7,0.1,0.9,0.5
			c1,2.2,2.1,4.5,3.2,6.8c0,0.1,0,0.2,0.1,0.5c-3.1,0.1-6.2,0.3-9.3,0.5c0,0.4,0,0.8,0,1.1C119.2,157.7,119.2,168.5,119.2,179.4z
			 M132,178.6c0.5-0.6,0.9-1.1,1.3-1.6c2.7-3.8,3.5-8.1,3.1-12.6c-1.3-12.4-5.4-23.8-12.4-34.2c-0.7-1-1.3-2.3-2.2-2.7
			c-0.9-0.4-2.2,0.3-3.3,0.5c-6.5,1.4-13.1,2.3-19.8,2.4c-1.5,0.1-3,0-4.6,0c0,0.5,0,0.8,0,1c0,11,0,21.9,0,32.9
			c0,2.6,0.4,5.2,1.4,7.6c1.1,2.7,3.1,4.6,5.4,6.1c0.2,0.1,0.4,0.2,0.7,0.5c-9.8,0-19.3,0-29,0c0.5-0.4,1-0.7,1.4-1
			c3.7-2.3,5.4-5.8,5.9-10c0.2-1.4,0.2-2.8,0.2-4.2c0-28.3,0-56.6,0-84.9c0-1.9-0.2-3.8-0.5-5.7c-0.7-4-2.9-6.9-6.3-9
			c-0.2-0.1-0.3-0.2-0.7-0.4c0.3,0,0.6-0.1,0.7-0.1c14.6,0,29.3,0,43.9,0.1c6.1,0,12.1,0.8,17.8,3.2c7.2,2.9,12.4,8,15.6,15.1
			c5.1,11.4,2.2,25.6-7.9,34.7c-3.2,2.9-6.7,5.3-10.6,7.1c-0.1,0-0.1,0.1-0.2,0.1c1.3,1.8,2.7,3.6,4,5.4c3.6,5.2,6.4,10.9,8.8,16.8
			c2.8,7,4.7,14.2,6.4,21.5c1,4.3,2.9,8.1,6.2,11c0.1,0.1,0.1,0.2,0.2,0.4C149,178.6,140.6,178.6,132,178.6z M160.8,193.6
			c0.2-0.3,0.4-0.5,0.6-0.8c2.2-2.5,3.4-5.6,3.7-8.9c0.5-4.9-0.6-9.6-1.8-14.3c-1.9-7.5-4.9-14.5-9-21.1c-1.4-2.3-3.1-4.4-4.7-6.6
			c-0.3-0.4-0.6-0.5-1.1-0.3c-0.6,0.3-1.2,0.4-1.9,0.6c-1.3-2.6-2.6-5.3-3.9-8c0.8-0.3,1.5-0.6,2.3-0.9c4.9-1.9,9.4-4.6,12.9-8.7
			c3.4-3.8,5.2-8.3,5.8-13.3c0.5-4.6-0.1-9-2.1-13.2c-1.2-2.6-2.9-4.7-5.1-6.5c-0.2-0.2-0.4-0.5-0.5-0.7c-0.3-3.8-1.4-7.5-3-11
			c0-0.1,0-0.1,0-0.2c0.1,0,0.2-0.1,0.3-0.1c4.5,1,8.8,2.4,12.6,5.2c6.4,4.7,10.6,11,11.7,18.9c1.8,12.4-2.9,22.1-12.5,29.8
			c-0.9,0.8-1.9,1.4-2.9,2.1c-1,0.6-2,1.2-2.9,1.8c1.6,2.1,3.3,4.2,4.9,6.4c4.5,6.3,7.8,13.2,10.5,20.5c2.1,5.6,3.6,11.3,4.9,17.1
			c1,4.6,2.9,8.6,6.3,11.9c0.1,0.1,0.2,0.2,0.4,0.5C177.8,193.6,169.4,193.6,160.8,193.6z"/>
		<path d="M193.2,209c-43.2,0-86.3,0-129.5,0c0,0.3,0,0.6,0,0.9c0,8,0,16.1,0,24.2c0,1,0.2,2.1,0.6,3.1c1.5,3.4,4.2,5.2,7.9,5.2
			c7.8,0.1,15.6,0,23.5,0c29.6,0,59.2,0,88.8,0c4.9,0,8.6-3.8,8.6-8.6c0-7.9,0-15.8,0-23.8C193.2,209.7,193.2,209.4,193.2,209z
			 M94.8,236.4c-1.7,0-3.5,0-5.2-0.1c-0.3,0-0.8-0.3-1-0.6c-0.9-1.7-1.8-3.4-2.6-5.2c-0.9-1.9-2.2-2.8-4.3-2.7c-0.8,0.1-1.7,0-2.6,0
			c0.1,2.9-0.5,5.8,1.5,8.5c-2.6,0-5,0-7.6,0c1.6-2,1.5-4.3,1.5-6.6c0-3.2,0-6.5,0-9.7c0-2.1-0.5-3.8-1.6-5c0.6,0,1,0,1.5,0
			c4.1,0,8.2,0,12.2,0c1.5,0,3,0.1,4.2,1.1c1.9,1.5,2.5,3.6,2.2,5.9c-0.3,2.4-1.8,3.8-4,4.5c-0.2,0.1-0.4,0.1-0.7,0.2
			c1.7,1.1,2.3,2.7,3.2,4.3c0.6,1.1,1,2.1,1.6,3.1c0.5,0.8,1.2,1.5,1.9,2.3C95,236.3,94.9,236.4,94.8,236.4z M107.9,236.9
			c-6.5,0-11.1-4.7-11.1-11.2c0-6.6,4.6-11.2,11.1-11.2c6.6,0,11.2,4.6,11.2,11.1C119.1,232.3,114.4,236.9,107.9,236.9z
			 M127.1,236.2c1.9-2.4,1.4-5.1,1.5-7.8c0-0.2-0.1-0.5-0.3-0.7c-2.4-3.4-4.9-6.9-7.4-10.4c-0.6-0.9-1.5-1.6-2.2-2.3
			c2.6,0,5.3,0,8.1,0c-1,1-0.6,1.9,0.1,2.8c1.4,2.1,2.9,4.2,4.4,6.4c1.5-2.1,2.9-4.1,4.2-6.1c0.8-1.2,0.8-2.1,0.2-3
			c2.5,0,4.9,0,7.3,0c-3.7,3.8-6.4,8.5-9.6,12.7c-0.1,0.2-0.3,0.4-0.3,0.6c0,2.1-0.2,4.2,0.5,6.2c0.2,0.6,0.6,1.1,0.9,1.6
			C132.1,236.2,129.6,236.2,127.1,236.2z M160.8,235.4c-0.1,0.2-0.3,0.4-0.5,0.4c-4.9,1.5-9.6,1.6-13.9-1.6
			c-2.9-2.2-3.9-5.3-3.8-8.9c0.1-4.2,2-7.5,5.7-9.5c2.9-1.6,6.1-1.6,9.4-1.1c0.9,0.2,1.7,0.5,2.6,0.8c0.2,0.1,0.5,0.4,0.5,0.6
			c0.1,1.4,0,2.8,0,4.4c-1.3-1.3-2.6-1.9-4.2-2.1c-3.7-0.5-6.5,0.1-8.2,3.3c-1,1.8-1.1,3.8-0.7,5.8c0.8,3.9,3.7,5.9,7.7,5.5
			c2.2-0.2,4.3-0.6,6.1-2.3C161.2,232.5,161,233.9,160.8,235.4z M182.6,234.1c-0.1,0.7,0,1.8-0.5,2.1c-0.4,0.4-1.4,0.2-2.2,0.2
			c-4.6,0-9.3,0-13.9,0c-0.2,0-0.5,0-0.8,0c1.3-1.7,1.5-3.6,1.5-5.6c0-3.6,0-7.3,0-11c0-1.7-0.4-3.3-1.5-4.8c5.6,0,11.2,0,16.9,0
			c0,1.5,0,3,0,4.6c-3.4-1.8-7.1-0.7-10.8-1.1c0,1.8,0,3.4,0,5.2c2.8,0,5.6,0,8.6,0c-0.1,1.1-0.3,2.1-0.5,3.1c0,0.1-0.4,0.3-0.7,0.3
			c-2.2,0-4.3,0-6.5,0c-0.3,0-0.6,0-1,0c0,1.9,0,3.7,0,5.5c0.1,0.1,0.1,0.1,0.1,0.1c2.7,0,5.4,0.1,8.1-0.1c1.5-0.1,2.1-0.4,3.5-1.5
			C182.9,232.2,182.7,233.2,182.6,234.1z"/>
		<path d="M184.6,13.6c-37.1,0-74.1,0-111.1,0c-0.5,0-1.1,0-1.6,0c-4.5,0.1-8.2,3.8-8.2,8.3c0,8.1,0,16.3,0,24.4
			c0,0.2,0,0.4,0.1,0.6c43.2,0,86.2,0,129.4,0c0-0.3,0-0.7,0-0.9c0-8,0-15.9,0-23.8C193.2,17.3,189.4,13.6,184.6,13.6z M93.9,41.5
			c-1.2,0-2.4,0-3.5,0c-0.5,0-0.8-0.1-1.1-0.6c-0.8-1.6-1.7-3.3-2.5-4.9c-0.2-0.2-0.3-0.5-0.4-0.8c-0.8-1.9-2.3-2.7-4.3-2.5
			c-0.9,0.1-1.8,0-2.9,0c0.2,3-0.6,6.1,1.6,8.8c-2.7,0-5.3,0-8,0c1.4-1.5,1.6-3.4,1.6-5.2c0-3.8,0-7.7,0-11.5c0-2-0.2-3.9-1.7-5.6
			c0.3,0,0.5,0,0.7,0c4.1,0,8.2,0,12.2,0c1.3,0,2.6,0.1,3.9,0.4c2.8,0.7,4.3,3,4.3,6.1c0,2.9-1.5,4.8-4.4,5.7
			c-0.2,0-0.3,0.1-0.6,0.2c2,1.4,2.9,3.4,3.8,5.4c0.8,1.7,1.8,3.4,3.3,4.7C95.4,41.5,94.7,41.5,93.9,41.5z M109.6,42
			c-6.9,0-11.7-4.8-11.7-11.6c-0.1-7.1,4.6-11.9,11.6-11.9c6.9,0,11.7,4.6,11.8,11.4C121.3,37.2,116.7,42,109.6,42z M141.3,39.5
			c-0.3,1.9-0.3,1.9-2.2,1.9c-4.7,0-9.4,0-14.2,0c-0.1,0-0.3,0-0.6,0c1.5-1.6,1.7-3.4,1.7-5.3c0-4,0-8,0-12c0-1.8-0.3-3.6-1.6-5.1
			c2.7,0,5.3,0,8,0c-1.6,2.1-1.5,4.5-1.5,6.8c0,3.6,0,7.3,0,11c0,0.2,0,0.5,0,0.8c3.7-0.3,7.6,0.8,11-2
			C141.6,37,141.5,38.3,141.3,39.5z M161.1,41.5c-5.5,0-11,0-16.6,0c1.7-1.9,1.6-4.3,1.6-6.6c0-3.5,0.1-6.9-0.1-10.4
			c0-1.4-0.4-2.7-0.8-4.1c-0.1-0.5-0.5-0.9-0.8-1.4c2.7,0,5.2,0,8,0c-1.8,2-1.7,4.4-1.7,6.9c0,3.6,0,7.2,0,10.9c0,0.2,0,0.5,0,1
			c3.8-0.4,7.7,0.9,11.1-2.1C161.7,37.7,161.4,39.6,161.1,41.5z M180.4,40.4c-1.9,1.1-3.9,1.4-6,1.5c-2.7,0-5.3-0.3-7.9-1.3
			c-0.6-0.2-0.8-0.5-0.8-1.2c0-1.5,0-2.9,0-4.6c2.5,2.5,5.4,3.5,8.6,3.4c1.1,0,2.3-0.4,3.3-0.9c1.1-0.5,1.4-1.5,1.3-2.7
			c-0.1-1.1-0.9-1.7-1.8-2c-1.5-0.4-3-0.6-4.5-0.9c-1.2-0.3-2.4-0.6-3.5-1.2c-3.6-1.9-4.2-6.8-1.1-9.6c1.6-1.5,3.6-2.1,5.8-2.3
			c2.6-0.2,5.1,0.2,7.6,1.1c0.5,0.2,0.7,0.5,0.7,1c0,1.4,0,2.7,0,4.2c-2.3-2.3-5.1-2.6-7.9-2.6c-0.7,0-1.4,0.2-2.1,0.5
			c-0.7,0.3-1.2,0.8-1.2,1.8c0,0.9,0.5,1.5,1.3,1.8c1.2,0.4,2.4,0.6,3.6,1c1.2,0.3,2.4,0.5,3.6,0.9c2.5,0.9,4.4,2.2,4.6,5.2
			C184.2,36.5,183,38.8,180.4,40.4z"/>
		<path d="M138.6,89.7c-0.9-6.9-4.3-12.2-10.6-15.5c-4.2-2.3-8.7-3.1-13.3-3.2c-6.6-0.1-13.3,0-19.9,0c-0.2,0-0.4,0-0.7,0
			c0,17.3,0,34.5,0,51.8c0.6,0,1.1,0,1.6,0c4.4-0.4,8.9-0.7,13.3-1.4c6.2-0.9,12.2-2.9,17.6-6.3c4.7-3,8.3-6.9,10.4-12.2
			C138.8,98.7,139.2,94.3,138.6,89.7z M119.2,86.2c0,0.6,0,1.2,0,1.8c0,8.8,0,17.6,0,26.5c0,0.8-0.2,1.2-1,1.4
			c-4.1,1.5-8.4,2.4-12.7,3.1c-0.1,0-0.1,0-0.3-0.1c0-0.3,0-0.6,0-0.9c0-8.6,0-17.1,0-25.8c0-3.2-0.6-6.3-2.2-9.1
			c-1.1-1.9-2.8-3.2-4.6-4.4c-0.2-0.1-0.3-0.2-0.5-0.4c0-0.1,0-0.1,0.1-0.2c0.5,0,0.9,0,1.4,0c9.6,0,19.1,0,28.7,0
			c0.7,0,1.2,0.2,1.7,0.6c2.2,1.8,3.8,4,4.9,6.6c0.1,0.2,0.1,0.4,0.2,0.7C129.5,86.2,124.4,86.2,119.2,86.2z"/>
		<path d="M86.1,218.9c-2.3-0.3-4.7-0.3-7.1-0.4c0,2.1,0,3.9,0,5.8c2,0,3.8,0,5.8,0c0.5,0,0.9-0.1,1.4-0.2c1.4-0.4,2.1-1.4,2.1-2.7
			C88.2,220.1,87.5,219.1,86.1,218.9z"/>
		<path d="M108.5,218.4c-3-0.4-5.8,1.1-6.5,4.3c-0.2,1-0.3,2-0.5,2.9c0.1,0.9,0.2,1.8,0.3,2.6c0.5,2.8,2.8,4.7,5.7,4.9
			c2.8,0.2,5.5-1.5,6.2-4.1c0.4-1.5,0.5-3.1,0.4-4.6C113.9,220.9,112,218.8,108.5,218.4z"/>
		<path d="M86.4,23c-1.9-0.2-3.8-0.2-5.7-0.2c-0.5,0-0.9,0-1.4,0c0,2,0,3.9,0,5.8c0,0.1,0,0.2,0.1,0.4c0.7,0,1.3,0,2,0
			c1.6,0,3.3,0,4.9-0.2c2-0.2,2.9-1.4,2.8-3.2C88.9,24.2,88,23.1,86.4,23z"/>
		<path d="M111.4,22.8c-2.6-0.6-5-0.2-6.9,2c-1.3,1.6-1.6,3.5-1.6,5.6c0.1,0.8,0.1,1.6,0.2,2.4c0.5,2.9,2.8,5,5.7,5.2
			c3.5,0.2,6.1-1.5,7.1-4.5c0.5-1.7,0.6-3.5,0.2-5.3C115.6,25.4,114.2,23.4,111.4,22.8z"/>
	</g>
</g>
</svg>
