<?xml version="1.0" encoding="utf-8"?>
<!-- Generator: Adobe Illustrator 24.0.0, SVG Export Plug-In . SVG Version: 6.00 Build 0)  -->
<svg version="1.1" id="Layer_1" xmlns="http://www.w3.org/2000/svg" xmlns:xlink="http://www.w3.org/1999/xlink" x="0px" y="0px"
	 viewBox="0 0 256 256" style="enable-background:new 0 0 256 256;" xml:space="preserve">
<style type="text/css">
	.st0{fill:#8699A3;}
</style>
<g>
	<g>
		<path class="st0" d="M206.23,17.87c-2.07-10.54-11.04-17.86-21.81-17.86c-37.4,0-74.81-0.02-112.21,0c-2.06,0-4.18,0.31-6.15,0.86
			c-9.46,2.62-15.99,11.08-16.01,20.72C49.97,57.07,50.01,92.51,50.01,128c0,35.3,0,70.58,0.01,105.86c0,1.01,0.05,2.04,0.18,3.03
			c1.47,10.9,10.73,19.07,21.73,19.07c37.5,0.05,74.98,0.05,112.48,0c1.6,0,3.23-0.16,4.78-0.49c10.27-2.15,17.47-11.13,17.47-21.72
			c0-70.58,0-141.11-0.01-211.68C206.66,20.67,206.5,19.22,206.23,17.87z M193.29,245.7c-2.65,2.02-5.69,2.88-9.01,2.88
			c-10.61-0.02-21.22-0.02-31.83-0.02c-26.67,0-53.36,0.02-80.04,0c-7.14,0-12.87-4.46-14.56-11.37c-0.36-1.43-0.42-3-0.42-4.51
			c-0.01-69.12-0.01-138.25-0.01-207.36c0-1.02,0-2,0.01-2.96c0.08-7.54,4.93-13.36,12.32-14.74c0.99-0.16,2.01-0.19,3.02-0.19
			c36.99-0.02,73.97,0,110.95-0.02c5.63,0,10.11,2.07,13.28,6.8c1.52,2.26,2.3,4.83,2.31,7.58c0,0.69,0.01,1.36,0.01,2.05
			c0,34.76,0,69.5,0,104.21c0,35.13-0.02,70.24,0.01,105.28C199.33,238.49,197.4,242.65,193.29,245.7z"/>
		<path class="st0" d="M63.72,53.27c0,49.89,0,99.67,0,149.48c43.15,0,86.23,0,129.4,0c0-49.89,0-99.67,0-149.48
			C149.94,53.27,106.82,53.27,63.72,53.27z M119.2,179.35c0,3.28,0.53,6.43,2.23,9.3c1.15,1.99,2.84,3.39,4.72,4.63
			c0.12,0.1,0.27,0.18,0.61,0.44c-9.77,0-19.31,0-29.1,0c0.42-0.31,0.65-0.51,0.92-0.65c4.05-2.54,6-6.28,6.43-10.93
			c0.15-1.48,0.19-2.97,0.19-4.47c0-14.48,0.01-28.96-0.02-43.47c0-0.85,0.23-1.09,1.08-1.22c4.06-0.56,8.12-1.27,12.15-1.91
			c0.21-0.06,0.43-0.08,0.78-0.14c0,2.34,0,4.59,0,6.9c1.77-0.12,3.47-0.16,5.18-0.31c0.48-0.04,0.7,0.1,0.9,0.52
			c1.03,2.25,2.12,4.53,3.17,6.79c0.03,0.1,0.03,0.23,0.1,0.49c-3.1,0.14-6.15,0.31-9.34,0.49c0,0.39,0,0.76,0,1.15
			C119.19,157.71,119.19,168.53,119.2,179.35z M132,178.59c0.48-0.58,0.9-1.05,1.29-1.59c2.69-3.8,3.5-8.08,3.05-12.56
			c-1.26-12.41-5.36-23.83-12.39-34.17c-0.68-0.96-1.26-2.28-2.19-2.7c-0.88-0.36-2.19,0.31-3.3,0.52
			c-6.53,1.43-13.13,2.26-19.8,2.44c-1.49,0.06-2.97,0-4.58,0c0,0.49,0,0.76,0,0.98c0,10.96,0,21.9,0.01,32.85
			c0,2.61,0.39,5.19,1.38,7.6c1.09,2.69,3.07,4.6,5.43,6.15c0.19,0.11,0.36,0.24,0.69,0.5c-9.75,0-19.29,0-29.01,0
			c0.54-0.39,0.96-0.7,1.38-0.98c3.65-2.33,5.38-5.84,5.87-10.04c0.17-1.4,0.24-2.79,0.24-4.19c0.01-28.3,0.02-56.59-0.01-84.86
			c0-1.9-0.17-3.83-0.51-5.7c-0.67-3.96-2.89-6.94-6.29-9.03c-0.18-0.11-0.32-0.24-0.65-0.44c0.34-0.05,0.55-0.12,0.72-0.12
			c14.64,0.05,29.28-0.04,43.9,0.07c6.11,0.05,12.12,0.85,17.83,3.18c7.23,2.92,12.4,8.01,15.58,15.12
			c5.11,11.41,2.2,25.58-7.89,34.73c-3.19,2.87-6.71,5.31-10.63,7.08c-0.07,0.02-0.13,0.07-0.18,0.12c1.34,1.83,2.73,3.57,4.02,5.42
			c3.64,5.23,6.43,10.87,8.78,16.77c2.77,6.96,4.73,14.16,6.36,21.48c0.96,4.28,2.93,8.06,6.21,11.03c0.07,0.09,0.13,0.18,0.25,0.36
			C149.02,178.59,140.57,178.59,132,178.59z M160.8,193.6c0.25-0.33,0.43-0.54,0.61-0.78c2.25-2.54,3.37-5.58,3.73-8.93
			c0.5-4.9-0.55-9.64-1.75-14.27c-1.91-7.47-4.87-14.53-8.97-21.1c-1.42-2.28-3.13-4.38-4.69-6.6c-0.32-0.41-0.65-0.52-1.14-0.34
			c-0.59,0.26-1.24,0.38-1.87,0.57c-1.29-2.65-2.56-5.31-3.87-7.99c0.76-0.31,1.54-0.59,2.29-0.9c4.94-1.95,9.39-4.61,12.89-8.67
			c3.35-3.85,5.24-8.3,5.76-13.32c0.49-4.6-0.08-9.04-2.07-13.25c-1.22-2.56-2.93-4.71-5.09-6.53c-0.23-0.16-0.45-0.47-0.47-0.73
			c-0.34-3.85-1.37-7.53-2.97-11.01c-0.02-0.06-0.01-0.14-0.01-0.21c0.08-0.03,0.18-0.08,0.28-0.06c4.51,0.99,8.84,2.44,12.62,5.19
			c6.44,4.71,10.55,11.03,11.7,18.92c1.8,12.36-2.94,22.14-12.53,29.77c-0.95,0.75-1.92,1.44-2.91,2.08
			c-0.96,0.64-1.99,1.23-2.93,1.81c1.63,2.15,3.31,4.19,4.88,6.37c4.47,6.33,7.8,13.25,10.5,20.5c2.06,5.57,3.64,11.27,4.91,17.06
			c1,4.56,2.91,8.62,6.32,11.91c0.11,0.11,0.19,0.24,0.43,0.52C177.84,193.6,169.42,193.6,160.8,193.6z"/>
		<path class="st0" d="M193.16,209.01c-43.2,0-86.29,0-129.46,0c-0.02,0.31-0.04,0.6-0.04,0.88c-0.01,8.04-0.03,16.09,0.02,24.16
			c0,1.03,0.21,2.12,0.65,3.08c1.47,3.42,4.19,5.23,7.93,5.23c7.82,0.07,15.63,0.03,23.46,0.03c29.63,0,59.23,0,88.84,0
			c4.85,0,8.62-3.76,8.62-8.63c-0.01-7.93-0.01-15.84-0.01-23.81C193.16,209.66,193.16,209.35,193.16,209.01z M94.78,236.42
			c-1.74-0.02-3.48-0.02-5.23-0.1c-0.35-0.02-0.82-0.29-0.98-0.57c-0.92-1.7-1.8-3.44-2.62-5.21c-0.88-1.86-2.25-2.77-4.34-2.66
			c-0.85,0.09-1.69,0.03-2.62,0.03c0.1,2.89-0.53,5.82,1.5,8.49c-2.59,0-5.03,0-7.6,0c1.57-2.04,1.51-4.34,1.51-6.64
			c-0.01-3.23,0-6.48,0-9.71c0-2.15-0.49-3.76-1.58-4.98c0.56,0,1.02,0,1.48,0c4.07,0,8.15,0,12.23,0.03c1.49,0,3,0.13,4.24,1.12
			c1.91,1.51,2.5,3.55,2.23,5.88c-0.29,2.36-1.79,3.78-4.02,4.48c-0.19,0.07-0.37,0.12-0.65,0.18c1.66,1.07,2.35,2.72,3.17,4.26
			c0.55,1.05,1.02,2.08,1.64,3.06c0.54,0.81,1.25,1.5,1.91,2.27C95,236.34,94.89,236.42,94.78,236.42z M107.9,236.92
			c-6.49,0-11.14-4.66-11.13-11.17c0.01-6.61,4.57-11.22,11.14-11.2c6.56,0,11.15,4.58,11.16,11.14
			C119.07,232.31,114.45,236.94,107.9,236.92z M127.13,236.25c1.87-2.35,1.42-5.1,1.45-7.79c0.01-0.21-0.14-0.47-0.28-0.68
			c-2.45-3.45-4.88-6.91-7.39-10.37c-0.63-0.86-1.48-1.55-2.21-2.31c2.6,0,5.29,0,8.12,0c-0.97,0.99-0.55,1.87,0.05,2.75
			c1.44,2.09,2.88,4.22,4.37,6.45c1.48-2.13,2.89-4.12,4.25-6.14c0.79-1.19,0.82-2.07,0.18-3.02c2.5,0,4.93,0,7.34,0
			c-3.72,3.8-6.37,8.46-9.57,12.69c-0.14,0.18-0.28,0.41-0.28,0.58c0.01,2.08-0.25,4.21,0.5,6.2c0.22,0.57,0.58,1.09,0.89,1.65
			C132.12,236.25,129.65,236.25,127.13,236.25z M160.77,235.44c-0.05,0.16-0.28,0.37-0.48,0.42c-4.86,1.48-9.61,1.63-13.9-1.57
			c-2.93-2.19-3.92-5.33-3.83-8.85c0.1-4.23,1.97-7.46,5.72-9.51c2.95-1.57,6.15-1.63,9.38-1.09c0.86,0.16,1.71,0.47,2.58,0.76
			c0.2,0.07,0.48,0.36,0.49,0.56c0.06,1.4,0.04,2.8,0.04,4.4c-1.27-1.32-2.65-1.92-4.21-2.12c-3.74-0.53-6.51,0.1-8.16,3.3
			c-0.96,1.81-1.12,3.81-0.72,5.83c0.81,3.94,3.69,5.93,7.69,5.47c2.19-0.21,4.28-0.63,6.11-2.27
			C161.22,232.47,161.03,233.94,160.77,235.44z M182.6,234.1c-0.13,0.73-0.02,1.76-0.47,2.15c-0.42,0.39-1.42,0.18-2.17,0.18
			c-4.64,0-9.29,0-13.93,0c-0.25,0-0.5-0.02-0.84-0.02c1.33-1.71,1.5-3.62,1.49-5.59c-0.03-3.62-0.01-7.29-0.02-10.97
			c0-1.67-0.35-3.26-1.46-4.75c5.65,0,11.22,0,16.88,0c0,1.52,0,3.04,0,4.6c-3.41-1.75-7.11-0.73-10.76-1.09c0,1.76,0,3.41,0,5.2
			c2.79,0,5.64,0,8.59,0c-0.15,1.12-0.27,2.11-0.47,3.08c-0.02,0.14-0.45,0.26-0.69,0.26c-2.16,0.03-4.33,0-6.5,0
			c-0.3,0-0.6,0-0.99,0c0,1.93,0,3.72,0,5.54c0.07,0.05,0.11,0.11,0.15,0.11c2.7-0.02,5.4,0.05,8.1-0.06
			c1.52-0.05,2.08-0.41,3.49-1.51C182.86,232.25,182.72,233.16,182.6,234.1z"/>
		<path class="st0" d="M184.55,13.63c-37.05,0-74.08,0-111.12,0c-0.53,0-1.06,0-1.6,0c-4.51,0.11-8.15,3.78-8.17,8.31
			c-0.03,8.1-0.02,16.26,0,24.41c0,0.21,0.03,0.39,0.06,0.63c43.15,0,86.23,0,129.45,0c0-0.34,0-0.65,0-0.94c0-7.97,0-15.92,0-23.81
			C193.16,17.34,189.42,13.63,184.55,13.63z M93.9,41.48c-1.18,0-2.36-0.03-3.54,0c-0.51,0-0.85-0.11-1.08-0.59
			c-0.81-1.63-1.65-3.26-2.48-4.91c-0.15-0.24-0.3-0.53-0.42-0.82c-0.84-1.86-2.27-2.67-4.31-2.52c-0.92,0.06-1.85,0-2.86,0
			c0.19,3.02-0.61,6.08,1.61,8.75c-2.69,0-5.3,0-8.04,0c1.42-1.54,1.61-3.36,1.63-5.23c0.02-3.84,0.01-7.67,0.01-11.49
			c-0.01-1.99-0.17-3.94-1.66-5.6c0.33-0.02,0.53-0.05,0.74-0.05c4.08,0,8.16-0.02,12.23,0c1.31,0.03,2.61,0.12,3.86,0.38
			c2.79,0.71,4.32,2.99,4.34,6.09c0.02,2.93-1.47,4.82-4.42,5.7c-0.16,0.05-0.31,0.07-0.58,0.16c2,1.37,2.86,3.42,3.85,5.38
			c0.84,1.71,1.77,3.36,3.35,4.74C95.39,41.48,94.66,41.48,93.9,41.48z M109.63,42.05c-6.88,0.04-11.69-4.76-11.72-11.64
			c-0.05-7.13,4.62-11.86,11.61-11.88c6.93,0,11.72,4.62,11.76,11.41C121.3,37.25,116.73,42.03,109.63,42.05z M141.32,39.55
			c-0.27,1.93-0.28,1.9-2.24,1.9c-4.72,0-9.45,0-14.17,0.03c-0.14,0-0.28,0-0.64,0c1.5-1.62,1.72-3.42,1.72-5.3
			c-0.02-3.99,0-8-0.02-11.99c0-1.81-0.3-3.57-1.63-5.11c2.7,0,5.27,0,7.98,0c-1.58,2.1-1.49,4.49-1.49,6.84c0,3.63,0,7.29,0,10.98
			c0,0.23,0,0.51,0,0.85c3.73-0.28,7.61,0.78,11-1.99C141.64,37.05,141.51,38.29,141.32,39.55z M161.1,41.51c-5.53,0-11,0-16.56,0
			c1.67-1.92,1.65-4.26,1.65-6.58c0-3.47,0.06-6.93-0.05-10.4c-0.03-1.38-0.44-2.73-0.76-4.1c-0.1-0.47-0.52-0.86-0.84-1.37
			c2.67,0,5.25,0,7.97,0c-1.76,2.05-1.68,4.45-1.67,6.86c0,3.59,0,7.24,0,10.88c0,0.25,0,0.53,0,0.98c3.78-0.36,7.73,0.9,11.15-2.08
			C161.68,37.74,161.4,39.59,161.1,41.51z M180.43,40.37c-1.85,1.12-3.9,1.44-6.01,1.46c-2.67,0-5.33-0.31-7.85-1.3
			c-0.59-0.19-0.8-0.53-0.77-1.16c0.04-1.46,0.01-2.93,0.01-4.59c2.49,2.55,5.39,3.51,8.62,3.4c1.11-0.05,2.26-0.43,3.27-0.89
			c1.06-0.49,1.45-1.53,1.32-2.69c-0.14-1.13-0.86-1.73-1.83-1.96c-1.5-0.37-3.04-0.58-4.53-0.91c-1.19-0.31-2.43-0.6-3.5-1.16
			c-3.65-1.9-4.16-6.79-1.11-9.56c1.64-1.48,3.61-2.13,5.76-2.28c2.6-0.19,5.15,0.16,7.61,1.12c0.5,0.19,0.73,0.47,0.72,1.03
			c-0.03,1.36-0.01,2.68-0.01,4.17c-2.27-2.34-5.05-2.65-7.94-2.58c-0.71,0.03-1.44,0.2-2.09,0.5c-0.73,0.29-1.25,0.84-1.22,1.76
			c0.03,0.9,0.51,1.48,1.33,1.77c1.17,0.38,2.37,0.64,3.56,0.95c1.2,0.3,2.43,0.51,3.6,0.9c2.49,0.85,4.4,2.25,4.59,5.16
			C184.16,36.49,183.04,38.82,180.43,40.37z"/>
		<path class="st0" d="M138.61,89.74c-0.95-6.91-4.34-12.2-10.55-15.52c-4.15-2.28-8.69-3.09-13.34-3.17
			c-6.63-0.11-13.28-0.03-19.91-0.03c-0.22,0-0.42,0.03-0.69,0.03c0,17.26,0,34.48,0,51.77c0.59,0,1.09,0.02,1.59,0
			c4.45-0.45,8.92-0.67,13.33-1.37c6.24-0.95,12.2-2.89,17.58-6.31c4.69-3,8.29-6.94,10.42-12.17
			C138.77,98.71,139.21,94.27,138.61,89.74z M119.19,86.22c0,0.64,0,1.22,0,1.76c0,8.82-0.01,17.64,0.02,26.49
			c0.01,0.83-0.21,1.17-0.99,1.45c-4.13,1.53-8.41,2.44-12.74,3.08c-0.06,0-0.13-0.03-0.29-0.05c0-0.28,0-0.57,0-0.88
			c0-8.58,0.01-17.13-0.02-25.75c-0.01-3.2-0.57-6.28-2.24-9.05c-1.14-1.89-2.76-3.23-4.58-4.4c-0.17-0.12-0.35-0.25-0.52-0.38
			c0.02-0.05,0.03-0.11,0.07-0.19c0.47,0,0.94,0,1.39,0c9.56,0,19.13,0,28.7-0.02c0.66,0,1.18,0.17,1.67,0.62
			c2.19,1.83,3.84,4.01,4.88,6.64c0.06,0.18,0.12,0.4,0.2,0.68C129.54,86.22,124.42,86.22,119.19,86.22z"/>
		<path class="st0" d="M86.09,218.93c-2.33-0.26-4.69-0.29-7.07-0.37c0,2.05,0,3.9,0,5.81c1.96,0,3.85,0.03,5.77,0
			c0.48-0.04,0.95-0.08,1.4-0.23c1.36-0.38,2.1-1.4,2.06-2.7C88.21,220.12,87.48,219.06,86.09,218.93z"/>
		<path class="st0" d="M108.54,218.44c-2.98-0.35-5.76,1.11-6.54,4.26c-0.25,1-0.33,2.03-0.47,2.88c0.11,0.95,0.17,1.75,0.31,2.55
			c0.48,2.8,2.75,4.74,5.71,4.94c2.78,0.2,5.5-1.48,6.2-4.14c0.38-1.49,0.46-3.09,0.36-4.62
			C113.95,220.87,111.99,218.79,108.54,218.44z"/>
		<path class="st0" d="M86.36,22.97c-1.89-0.2-3.8-0.16-5.71-0.23c-0.47,0-0.93,0-1.43,0c0,2.05,0,3.9,0.02,5.8
			c0,0.11,0.01,0.21,0.05,0.42c0.71,0,1.35,0,1.99,0c1.63-0.05,3.27-0.02,4.89-0.16c1.97-0.22,2.92-1.4,2.8-3.22
			C88.88,24.22,87.99,23.13,86.36,22.97z"/>
		<path class="st0" d="M111.44,22.77c-2.64-0.62-5.04-0.16-6.89,2.02c-1.33,1.6-1.57,3.55-1.6,5.57c0.08,0.77,0.11,1.58,0.23,2.36
			c0.53,2.94,2.84,5.04,5.68,5.2c3.52,0.2,6.11-1.45,7.05-4.51c0.53-1.73,0.57-3.53,0.22-5.32
			C115.6,25.41,114.17,23.44,111.44,22.77z"/>
	</g>
</g>
</svg>
