<svg version="1.1" id="Layer_1" xmlns="http://www.w3.org/2000/svg" xmlns:xlink="http://www.w3.org/1999/xlink" x="0px" y="0px"
	 viewBox="0 0 256 256" style="enable-background:new 0 0 256 256;" xml:space="preserve">
<style type="text/css">
	.st0{fill:#8699A3;}
</style>
<g>
	<g>
		<polygon class="st0" points="163.27,222.65 158.63,221.52 158.32,221.47 153.9,220.99 149.34,221.03 149.07,221.03 144.45,221.63 
			140.33,222.7 140,222.8 135.71,224.52 131.64,226.79 133.41,229.06 136.36,227.56 139.47,226.46 140.33,226.3 142.66,225.77 
			145.98,225.47 149.34,226.2 152.53,226.86 154.87,227.07 156.96,227.15 158.32,227.13 158.8,227.13 160.44,226.92 162.36,226.53 
			164.22,225.93 166.02,225.23 166.04,225.23 167.77,224.38 166.02,223.71 		"/>
		<polygon class="st0" points="149.81,209.44 149.34,209.44 147.47,209.27 145.32,209.25 143.4,209.41 141.72,209.72 140.33,210.2 
			139.89,210.36 137.93,211.21 135.95,212.37 133.9,213.81 132.87,214.64 131.64,215.82 130.29,217.25 129.23,218.42 128.75,218.99 
			128.17,219.68 127.66,220.44 127.17,221.16 126.7,221.92 126.31,221 125.79,220.15 125.27,219.33 124.71,218.54 123.29,216.89 
			121.87,215.43 120.45,214.19 119.04,213.13 117.34,212.18 115.55,211.32 114.52,210.93 113.74,210.67 111.82,210.2 110.15,209.94 
			108.63,209.87 108.24,209.82 106.22,209.89 104.05,210.07 101.3,210.51 99.32,210.9 98.31,211.16 95.05,212.06 91.6,213.25 
			90.67,213.63 90.31,213.73 88.97,214.26 86.35,215.41 83.8,216.66 81.79,217.81 81.34,218.03 81.79,219.28 82.23,220.5 
			83.58,219.82 84.97,219.2 86.35,218.59 87.76,218.03 90.31,217.1 90.67,217 90.69,216.96 93.04,216.11 94.82,215.57 96.04,215.34 
			98.68,215 99.32,214.95 101.3,214.9 103.89,215.05 106.37,215.41 108.63,215.96 108.78,215.98 111.16,216.79 113.5,217.81 
			114.52,218.31 115.83,219.06 117.73,220.29 119.67,221.76 121.62,223.53 123.61,225.53 124.44,226.46 125.22,227.52 
			125.95,228.52 126.59,229.62 127.27,228.55 127.91,227.54 128.72,226.53 129.23,225.93 129.53,225.62 131.49,223.65 
			133.41,221.97 135.3,220.54 137.16,219.33 139.39,218.18 140.33,217.77 141.68,217.2 144.07,216.44 146.47,215.82 148.99,215.43 
			149.34,215.41 151.49,215.28 153.96,215.34 156.42,215.54 158.05,215.88 158.32,215.96 160.08,216.47 162.41,217.27 
			165.02,218.31 166.02,218.78 166.35,218.9 167.65,219.57 168.89,220.29 170.16,221.03 171.64,217.44 169.12,216.02 166.59,214.74 
			166.02,214.45 163.97,213.58 161.35,212.53 158.32,211.48 158,211.37 154.96,210.51 152.28,209.87 		"/>
		<path class="st0" d="M70.56,22.7c0-3.36-2.33-4.43-4.23-4.75c-0.82-0.17-1.56-0.17-1.98-0.17c-1.95,0-2.27,0.25-2.27,1.31v8.93
			c1.21-0.06,2.81-0.06,4.25-0.34C68.57,27.13,70.56,25.87,70.56,22.7z"/>
		<path class="st0" d="M96.3,39.65c0,0,0,0,0.02,0c4.03,0,7.7-3.22,7.7-11.23c0-8.21-4.03-11.16-7.7-11.16c-0.02,0-0.02,0-0.02,0
			c-3.69,0-7.73,2.96-7.73,11.16C88.57,36.43,92.3,39.65,96.3,39.65z"/>
		<polygon class="st0" points="99.32,183.76 101.25,182.3 103.79,180.2 106.25,178.05 108.63,175.81 109.78,174.75 113.19,171.34 
			114.52,169.96 116.54,167.86 119.74,164.25 119.74,156.04 114.52,163.71 114.2,164.09 114.26,164.59 114.2,165.03 114.2,165.47 
			114.1,165.88 113.84,166.89 113.59,167.79 113.25,168.59 112.86,169.28 112.31,170.05 111.71,170.75 111.12,171.39 110.4,171.98 
			109.7,172.44 108.97,172.83 108.63,172.97 108.11,173.2 107.15,173.51 106.68,173.66 106.25,173.71 105.81,173.82 105.33,173.82 
			105.22,174.13 105.08,174.47 104.9,174.83 104.69,175.12 104.24,175.79 103.79,176.34 103.32,176.85 102.83,177.32 102.25,177.78 
			101.61,178.18 100.99,178.51 100.34,178.82 99.73,179.03 99.32,179.11 99.04,179.18 98.31,179.34 97.5,179.44 97.14,179.44 
			96.76,179.44 96.4,179.44 96.04,179.39 93.58,180.9 96.04,186.26 98.68,184.31 		"/>
		<polygon class="st0" points="102.7,192.35 105.39,190.3 108.08,188.21 108.63,187.74 110.71,186.02 113.09,183.98 114.52,182.67 
			115.4,181.85 117.65,179.65 119.86,177.44 119.86,170.6 117.45,173.37 114.99,176.12 114.52,176.65 112.39,178.77 109.7,181.34 
			108.63,182.3 106.68,183.98 103.6,186.53 100.42,188.92 99.32,189.7 97.15,191.24 99.32,193.7 99.89,194.32 		"/>
		<path class="st0" d="M120.7,93.01l0.96,1.07l1.45-0.82l1.48-0.53l1.59-0.26l1.61-0.03l1.44,0.19l0.13,0.02l1.54,0.47l1.42,0.68
			l1.29,0.93l1.09-1.69l-3.88-4.22v-1.77l1.5-1.26l-0.43-1.84l-0.9-1.3l-1.36-0.78l-0.4-0.04l-1.44-0.27l-1.91,0.27l-1.45,0.74
			l-0.98,1.29l-0.54,1.91l1.33,1.26v1.7L120.7,93.01z M126.31,88.09v-0.2l0.05-0.18l0.06-0.18l0.08-0.19l0.1-0.13l0.14-0.18
			l0.16-0.1l0.16-0.16l0.18-0.08l0.18-0.06l0.16-0.02l0.21-0.04l0.19,0.04l0.19,0.02l0.21,0.06l0.16,0.08l0.18,0.12l0.11,0.14
			l0.11,0.13l0.1,0.14l0.11,0.2l0.08,0.22l0.05,0.18V88v0.22v0.08l-0.05,0.18l-0.08,0.22L129,88.88l-0.1,0.14l-0.11,0.16l-0.11,0.1
			l-0.18,0.12l-0.16,0.1l-0.21,0.06l-0.19,0.02h-0.19h-0.21l-0.16-0.02l-0.18-0.06l-0.18-0.1l-0.16-0.12l-0.16-0.12L126.59,89
			l-0.1-0.19l-0.08-0.16l-0.06-0.18l-0.05-0.18V88.09z"/>
		<polygon class="st0" points="172.88,185.53 174.44,186.11 181.94,188.92 182.36,187.78 183.5,184.62 182.36,184.08 177.48,181.83 
			174.44,184.27 		"/>
		<polygon class="st0" points="96.38,175.05 97.81,174.9 98.97,174.26 99.32,173.76 99.48,173.61 99.77,172.73 99.79,171.64 
			99.6,170.35 99.32,169.65 99.25,169.39 98.74,168.5 97.96,167.59 97.03,166.78 96.07,166.13 95.16,165.71 94.28,165.42 
			93.42,165.38 92.54,165.53 91.76,165.76 91.12,166.22 90.67,166.78 90.6,166.87 90.31,167.39 90.2,167.62 90.03,168.53 
			90.03,169.49 90.22,170.6 90.31,170.89 90.45,171.07 90.67,171.49 90.83,171.72 91.45,172.59 92.3,173.66 92.69,174.08 
			94.67,174.83 		"/>
		<polygon class="st0" points="119.94,182.99 117.81,185.43 115.55,187.7 114.52,188.71 113.19,189.92 110.71,191.96 108.63,193.46 
			108.5,193.57 106.25,195.05 103.93,196.45 101.53,197.66 104.71,200.95 106.77,199.77 108.63,198.53 108.78,198.45 110.76,197.09 
			112.7,195.74 114.52,194.39 114.57,194.34 116.39,192.94 118.2,191.48 119.94,189.99 		"/>
		<polygon class="st0" points="116.39,199.81 114.99,200.96 114.52,201.39 113.62,202.03 112.16,202.94 110.65,203.7 109.08,204.35 
			110.6,204.38 112.11,204.48 113.59,204.8 114.52,205.04 115.01,205.19 116.33,205.78 117.6,206.4 118.8,207.17 119.9,208.03 
			119.9,195.68 118.85,197.11 117.67,198.53 		"/>
		<polygon class="st0" points="112.62,157.83 114.52,154.72 119.83,145.76 119.83,135.28 114.52,144.82 108.63,155.31 
			108.38,155.64 108.63,155.8 		"/>
		<polygon class="st0" points="90.31,177.47 90.11,176.8 89.56,175.92 88.81,175.01 87.86,174.21 86.91,173.53 85.97,173.09 
			85.13,172.83 84.25,172.78 83.39,172.9 82.56,173.2 81.97,173.66 81.79,173.87 81.45,174.26 81.05,175.03 80.86,175.95 
			80.86,176.93 81.08,178.05 81.24,178.48 81.68,179.13 81.79,179.28 82.31,180.01 83.13,181.07 83.51,181.5 85.49,182.23 
			87.2,182.5 88.64,182.32 89.79,181.65 90.31,180.99 90.31,180.95 90.6,180.15 90.65,179.06 90.45,177.76 		"/>
		<polygon class="st0" points="165.57,180.91 166.02,181.65 166.04,181.69 166.61,182.19 167.3,182.5 168.08,182.63 169.05,182.54 
			170.08,182.23 171.11,181.65 172.1,180.76 173.11,179.61 173.74,178.77 174.13,177.82 174.41,176.93 174.44,176.8 174.5,176.04 
			174.44,175.36 174.38,174.83 174.07,173.82 173.61,172.97 172.96,172.4 172.49,172.18 171.92,172.11 171.2,172.18 170.36,172.4 
			169.49,172.71 168.65,173.15 167.88,173.76 167.11,174.44 166.5,175.17 166.04,175.95 166.02,175.97 165.65,176.68 165.44,177.47 
			165.29,178.87 165.31,179.99 		"/>
		<polygon class="st0" points="100.24,164.16 100.67,164.77 101.3,165.69 102.12,166.71 102.52,167.19 104.47,167.88 106.2,168.15 
			107.62,167.96 108.63,167.42 108.78,167.28 109.3,166.66 109.59,165.76 109.62,164.72 109.44,163.42 109.08,162.44 108.63,161.69 
			108.53,161.57 107.8,160.65 106.82,159.84 105.92,159.17 104.95,158.76 104.07,158.5 103.24,158.45 102.37,158.57 101.59,158.86 
			100.97,159.31 100.42,159.91 100.06,160.68 99.84,161.58 99.84,162.57 100.06,163.71 		"/>
		<polygon class="st0" points="73.37,182.03 69.72,183.36 71.88,189.36 73.37,188.83 80.63,186.11 76.4,180.9 		"/>
		<polygon class="st0" points="116.8,224.33 114.9,223.4 114.52,223.22 112.91,222.62 109.75,221.78 108.63,221.63 106.35,221.25 
			102.7,221.06 99.32,221.14 98.82,221.14 95.21,221.5 91.68,222.15 90.67,222.43 90.31,222.51 88.24,223.09 84.84,224.33 
			85.7,225.47 86.68,226.43 87.88,227.21 89.19,227.75 90.31,227.83 90.67,227.77 92.73,227.67 96.45,227.36 99.32,227.07 
			101.43,226.86 108.63,225.89 111.22,225.57 113.19,226.04 114.52,226.53 115.01,226.79 116.72,227.83 118.25,229.08 
			120.21,226.79 118.56,225.44 		"/>
		<polygon class="st0" points="144.4,172.11 143.83,171.7 143.25,171.2 142.77,170.65 142.28,170.05 141.91,169.43 141.56,168.81 
			141.28,168.19 141.1,167.5 140.94,166.74 140.85,165.94 140.82,165.61 140.82,165.22 140.85,164.82 140.9,164.47 140.33,163.63 
			135.19,156.14 135.19,164.47 137.27,167.42 139.51,170.19 140.33,171.07 141.91,172.78 144.55,175.29 148.13,178.22 
			149.34,179.11 151.86,180.91 155.86,183.36 158.32,184.67 159.95,185.53 161.35,181.44 160.18,180.49 159.76,180.53 
			159.35,180.56 158.91,180.58 158.47,180.53 158.32,180.51 157.54,180.43 156.65,180.24 155.88,180.01 155.17,179.7 154.41,179.37 
			153.68,178.87 153.03,178.38 152.38,177.74 151.88,177.16 151.42,176.49 151,175.74 150.56,174.86 150.38,174.44 150.28,174.02 
			150.16,173.61 150.09,173.2 149.73,173.28 149.4,173.33 149.34,173.33 148.99,173.33 148.62,173.33 147.77,173.28 147.04,173.15 
			146.38,172.99 145.75,172.78 145.07,172.5 		"/>
		<polygon class="st0" points="146.31,167.79 146.78,168.57 147.35,169.08 148.06,169.33 148.85,169.43 149.34,169.41 
			149.79,169.39 150.85,169.08 151.86,168.5 152.88,167.62 153.86,166.51 154.47,165.63 154.89,164.7 155.17,163.78 155.25,162.88 
			155.12,161.69 154.85,160.63 154.41,159.84 153.73,159.22 153.24,159.02 152.69,158.98 151.97,159.02 151.14,159.22 
			150.24,159.55 149.42,160 149.34,160.07 148.59,160.57 147.89,161.3 147.25,162.06 146.78,162.78 146.41,163.54 146.19,164.34 
			146.03,165.71 146.08,166.82 		"/>
		<polygon class="st0" points="135.09,135.41 135.09,145.49 140.33,154.59 142.53,158.4 145.54,154.32 140.33,144.9 		"/>
		<polygon class="st0" points="156.24,174.31 156.71,175.03 157.29,175.59 157.96,175.87 158.32,175.92 158.75,175.98 
			159.71,175.92 160.75,175.59 161.76,175.01 162.78,174.16 163.75,173.02 164.37,172.13 164.82,171.23 165.04,170.32 
			165.13,169.41 165.04,168.19 164.76,167.19 164.25,166.35 163.63,165.76 163.17,165.57 162.56,165.53 161.87,165.57 
			161.04,165.76 160.15,166.07 159.3,166.53 158.52,167.11 158.32,167.34 157.8,167.83 157.18,168.57 156.71,169.28 156.32,170.05 
			156.14,170.89 155.98,172.21 155.98,173.33 		"/>
		<polygon class="st0" points="131.49,95.99 130.54,95.21 129.36,94.73 129.23,94.73 127.99,94.62 126.55,94.88 125.28,95.52 
			124.34,96.54 123.64,97.91 127.79,101.73 129.23,100.25 132.24,97.17 		"/>
		<path class="st0" d="M217.31,27.42l-0.16-0.88l-0.22-0.89l-0.28-0.9l-0.33-0.85l-0.89-1.88l-0.9-1.65l-0.96-1.5l-0.97-1.3
			l-1.28-1.32L209.97,15l-1.47-1.09l-1.57-1l-1.48-0.73l-1.63-0.68l-1.81-0.56l-1.97-0.47l-0.76-0.19l-0.87-0.07l-0.97-0.09
			l-1.06-0.03H61.3l-2.77,0.08l-1.37,0.06l-1.04,0.08l-0.71,0.06l-0.45,0.04l-1.94,0.42l-1.77,0.55l-1.66,0.62l-1.41,0.71
			l-1.54,0.91l-1.43,1.03l-1.36,1.18l-1.26,1.34l-1,1.24l-0.96,1.43l-0.9,1.57l-0.87,1.83l-0.33,0.86l-0.3,0.84l-0.24,0.87
			l-0.16,0.91l-0.36,2.98l-0.24,3.87L37.1,38.2l0.04,5.47l0.38,15.26l0.88,15.75l1.32,16.12l1.76,16.59l1.63,12.33l2.01,12.68
			l2.36,13.17l2.75,13.53l1.96,8.72l2.31,9.23l2.62,9.74l2.91,10.24l3.72,12.25l3.19,10.08l2.76,7.84l2.24,5.65l0.58,1.14l0.56,1.06
			l0.6,1.09l0.62,0.96l0.85,1.06l0.78,0.93l0.79,0.81l0.67,0.62l1.01,0.7l1.03,0.64l1.2,0.57l1.23,0.5l0.4,0.12l0.86,0.14l1.27,0.23
			l1.7,0.31l1.91,0.35l1.9,0.31l1.91,0.26l1.9,0.29l7.51,0.47l7.57,0.34l7.55,0.17l7.51-0.12l11.8-0.41l10.74-0.62l9.61-0.89
			l8.48-1.17l1.24-0.23l1.11-0.22l0.99-0.29l0.8-0.28l2.26-0.93l1.97-1.04l1.78-1.09l1.53-1.17l1.44-1.27l1.36-1.55l1.4-1.79
			l1.33-1.97l0.35-0.64l0.4-0.86l0.5-1.14l0.56-1.3l2.38-6.35l2.46-7.04l2.57-7.81l2.65-8.5l2.95-10.24l2.79-10.35l2.68-10.44
			l2.46-10.58l2.56-11.76l2.21-10.94l1.79-10.04l1.46-9.27l1.55-12.13l1.31-12.41l1.04-12.73l0.79-13l0.52-12.49l0.19-10.19
			l-0.12-7.79L217.31,27.42z M173.74,39.78c2.93-0.17,3.08-1.01,3.08-3.68V20.4c0-2.69-0.54-2.99-3.08-3.25v-0.69h10.01
			c0.31,0,0.65,0,1.01,0c3.32,0.2,8.19,1.26,8.19,6.32c0,4.9-4.72,5.73-6.53,6.09l7.47,9.2c0.76,0.99,1.65,1.62,3.13,1.71v0.67
			h-5.83l-6.42-8.31l-2.24-2.85l-1.99,0.08v7.13c0,2.43,0.35,3.11,3.24,3.29v0.67h-10.03V39.78L173.74,39.78z M145.57,39.78
			c2.32-0.17,3.15-0.49,3.15-3.29V20.4c0-2.89-0.83-3.06-3.15-3.25v-0.69h19.25l0.14,5.18h-0.91c-0.54-3.24-1.48-3.84-5.52-3.84
			h-4.87c-0.77,0-1.21,0-1.21,1.27v8.03H158c3.25,0,3.6-0.86,4.03-3.43h0.82v8.38h-0.82c-0.45-2.91-0.99-3.39-4.03-3.41l-5.57-0.12
			v9.01c0,1.52,0,1.52,5.42,1.52c4.53,0,6.35-1.07,7.92-4.76h1.04l-1.66,6.15h-19.58V39.78z M113.93,16.46h9.61v0.69
			c-2.02,0.11-2.69,0.18-2.69,1.32c0,0.55,0.64,2.02,1.48,3.86l5.44,12.32l5.34-13.34c0.05-0.22,0.7-1.75,0.7-2.51
			c0-1.47-1.33-1.6-2.69-1.65v-0.69h7.43v0.69c-1.71,0.11-2.2,0.57-3.3,3.34l-8.05,20.4h-0.54l-8.89-19.96
			c-1.53-3.31-2.15-3.72-3.83-3.78V16.46L113.93,16.46z M96.3,15.94c0,0,0,0,0.02,0c5.93,0,11.82,4.23,11.82,12.55
			c0,7.72-5.27,12.5-11.82,12.5c-0.02,0-0.02,0-0.02,0c-6.56,0-11.84-4.78-11.84-12.5C84.46,20.17,90.36,15.94,96.3,15.94z
			 M55.3,39.78c2.93-0.17,3.08-1.01,3.08-3.68V20.4c0-2.69-0.52-2.99-3.08-3.25v-0.69h10.03c0.28,0,0.65,0,1,0
			c3.33,0.2,8.2,1.26,8.2,6.32c0,4.9-4.7,5.73-6.55,6.09l7.44,9.2c0.83,0.99,1.7,1.62,3.19,1.71v0.67h-5.86l-6.41-8.31l-2.2-2.85
			l-2.05,0.08v7.13c0,2.43,0.37,3.11,3.28,3.29v0.67H55.32v-0.67H55.3z M209.5,57.66l-0.08,0.7l-0.06,0.9l-0.1,1.18l-1.28,12.9
			l-1.37,11.9l-1.42,10.93l-1.45,9.94l-2.56,14.82l-2.8,14.72l-3.06,14.69l-3.37,14.6l-1.22-0.92l-5.29-4l-3.08-2.1l-3.63-2.48
			l-4.3-2.62l-2.62-1.61l-5.8-3.21l-1.35-0.73l-2.13-1.09l-2.59-1.08l-1.63-0.62l-1.45-0.6l-3.56-1.27l-2.51-0.89l-1.46-0.38
			l-1.09-0.37l-2.57-0.72l-2.55-0.68l0.85,1.99l0.88,1.94l0.93,1.97l0.99,1.9l0.95,1.68l0.98,1.71l0.66,1.06l0.35,0.62l1.07,1.63
			l0.38-0.03h0.43l0.39,0.03l0.39,0.05l0.86,0.18l0.83,0.24l0.7,0.25l0.64,0.34l0.68,0.37l0.64,0.47l0.6,0.56l0.55,0.53l0.43,0.58
			v0.02l0.41,0.65l0.4,0.72l0.41,0.85l0.08,0.35l0.14,0.37l0.12,0.4v0.43l0.29-0.14l0.26-0.1l0.29-0.08l0.27-0.05l0.6-0.11l0.6-0.08
			h0.55l0.51,0.03l0.56,0.07l0.56,0.14l0.51,0.18l0.53,0.26l0.52,0.22l0.08,0.07l0.38,0.28l0.42,0.28l0.45,0.42l0.39,0.44l0.33,0.44
			l0.31,0.5l0.25,0.49l0.2,0.47l0.17,0.54l0.14,0.55l0.09,0.65l0.05,0.25v0.31v0.29l-0.05,0.28l0.35-0.09l0.31-0.04l0.36-0.03h0.3
			l0.74,0.03l0.67,0.04l0.62,0.12l0.56,0.16l0.62,0.2l0.62,0.28l0.14,0.05l0.47,0.29l0.54,0.31l0.52,0.47l0.49,0.43l0.47,0.5
			l0.37,0.52l0.39,0.54l0.28,0.62l0.28,0.56l0.18,0.62l0.13,0.6l0.12,0.61l0.07,0.71v0.69v0.37l-0.05,0.33l-0.06,0.31l-0.08,0.31
			l3.81,1.56l6.1,2.44l-4.4,12.44l-1.69-0.59l-7.92-2.83l-8.42-2.95l-0.84-0.29l-0.91,2.01l-0.98,1.94l-1.03,1.97l-1.14,1.91
			l-1.43,2.17l-1.4,1.92l-0.16,0.24l-1.58,2.03l-1.68,2.06l3.41,1.79l7.73,4.06l8.39,4.42l2.9,1.51l-0.61,4.62l-1.4,4.24l-0.89,1.57
			l-1.26,2.35l-2.96,3.58l-0.45,0.33l-0.76,0.43l-1.14,0.51l-1.45,0.6l-0.38,0.16l-1.53,0.59l-1.71,0.54l-1.53,0.44l-1.3,0.26
			l-1.66,0.25l-4.61,0.68l-4.34,0.33l-3.43,0.32l-5.58,0.19l-3.7,0.12l-7.39,0.11l-3.32,0.02l-10.2-0.18l-1.2-0.05l-5.89-0.26
			l-1.84-0.11l-7.47-0.62l-0.08-0.02l-6.27-0.89l-1.99-0.44l-0.31-0.06l-0.36-0.1l-1.12-0.28l-1.53-0.55l-1.4-0.61l-0.64-0.4
			l-0.79-0.53l-0.89-0.72l-1.01-0.84l-0.78-0.75l-0.36-0.37l-0.29-0.28l-0.57-0.65l-0.46-0.57l-0.21-0.33l-0.23-0.36l-0.23-0.43
			l-0.19-0.43l-4.81-11.09l7-3.37l8.52-4.16l0.36-0.16l8.65-4.2l0.45-0.18l-0.45-0.45l-0.39-0.44l-0.82-0.96l-0.76-0.92l-0.72-0.95
			l-1.41-1.97l-1.36-2.05l-1.22-2.04l-1.2-2.1l-0.57-1.12l-0.21-0.44l-0.31-0.61l-0.02-0.07l-0.47-1.06l-0.44-1.14l-7.64,2.68
			l-8.42,2.94l-3.54,1.22l-4.59-13.15l8.13-2.98l1.98-0.76l-0.03-0.47l0.03-0.44l0.06-0.4l0.05-0.4l0.25-1.02l0.27-0.83l0.33-0.81
			l0.36-0.65l0.51-0.74l0.54-0.65l0.62-0.64l0.71-0.54l0.7-0.45l0.74-0.33l0.84-0.36l0.45-0.16l0.46-0.16l0.45-0.16l0.44-0.03
			l0.41-0.06h0.47l0.11-0.39l0.16-0.36l0.16-0.39l0.2-0.37l0.48-0.75l0.47-0.67l0.45-0.59l0.51-0.55l0.59-0.53l0.64-0.49l0.65-0.43
			l0.73-0.33l0.68-0.31l0.49-0.16l0.27-0.11h0.09l0.68-0.2l0.88-0.16l0.42-0.08h0.35h0.43h0.39v-0.34l0.06-0.36l0.1-0.38l0.08-0.31
			l0.25-0.78l0.29-0.72l0.31-0.58l0.33-0.53l0.45-0.58l0.47-0.52l0.54-0.5l0.57-0.39l0.56-0.39l0.67-0.33l0.65-0.23l0.18-0.06
			l0.51-0.18l0.66-0.14l0.7-0.1h0.72l0.8,0.05l0.34,0.05l0.37,0.06l0.36,0.08l0.35,0.13l0.89-1.38l0.89-1.36l0.79-1.42l0.85-1.41
			l1.03-2l0.05-0.08l0.93-1.91l0.93-2.07l0.88-2.07l-2.75,0.81l-4.18,1.22l-5.12,1.79l-1.67,0.6l-6.67,2.71l-0.31,0.15l-0.36,0.16
			l-5.88,2.72l-2.64,1.41l-3.37,1.76l-5.05,2.99l-0.84,0.49l-5.65,3.76l-1.87,1.37l-3.63,2.63l-2.67-12.82l-2.44-12.88l-2.13-12.85
			l-1.86-13.02L49.9,94.12L48.26,78.4L47.4,66.22l-0.12-8.65l0.06-0.39l0.06-0.45l0.07-0.41l0.11-0.39l0.31-0.89l0.37-0.78l0.38-0.7
			l0.4-0.62l0.52-0.64l0.56-0.58l0.64-0.51l0.68-0.52l0.68-0.37l0.72-0.31l0.81-0.29l0.88-0.22l0.35-0.09l0.39-0.02l0.43-0.05h0.51
			h8.83h8.35h8.42h8.52h0.36h8.65h9.31h5.89h14.71h11.09h9.01h8.98h7.7h8.42h7.92h8.37h10.65h0.4l0.39,0.03l0.31,0.04l0.31,0.06
			l0.74,0.18l0.68,0.23l0.62,0.23l0.53,0.29l0.62,0.38l0.52,0.43l0.52,0.47l0.47,0.47l0.44,0.56l0.4,0.57l0.33,0.59l0.25,0.68
			l0.23,0.59l0.16,0.62l0.08,0.72l0.11,0.76V57.66L209.5,57.66z"/>
		<polygon class="st0" points="135.14,207.93 135.74,207.15 136.45,206.42 137.16,205.8 138.01,205.31 139.63,204.55 140.33,204.38 
			141.23,204.09 142.92,203.83 144.62,203.75 143.05,203.09 141.52,202.27 140.33,201.47 140.09,201.34 138.75,200.27 
			137.68,199.32 136.78,198.23 135.89,197.09 135.14,195.9 		"/>
		<polygon class="st0" points="155.36,189.07 152.43,186.77 149.5,184.43 149.34,184.27 146.63,181.98 143.67,179.37 140.74,176.65 
			140.33,176.23 137.9,173.87 135.09,171.03 135.09,177.87 137.12,179.61 139.16,181.38 140.33,182.38 141.18,183.12 143.25,184.86 
			146.26,187.42 149.32,189.99 149.34,190.01 152.35,192.53 155.41,195.05 158.32,191.45 158.42,191.29 158.32,191.17 		"/>
		<polygon class="st0" points="138.07,192.35 139.53,193.61 140.33,194.32 141.01,194.9 143.05,196.61 145.15,198.29 147.22,199.92 
			149.34,201.53 152.72,198.49 150.24,196.8 149.34,196.16 147.77,195.05 145.46,193.18 143.14,191.24 141.06,189.36 140.33,188.62 
			139.04,187.37 137.09,185.36 135.24,183.23 135.24,189.78 136.67,191.08 		"/>
		<polygon class="st0" points="124.24,103.88 124.24,213.19 129.23,213.19 130.29,213.19 130.29,103.88 129.23,103.88 		"/>
		<path class="st0" d="M189,22.7c0-3.36-2.33-4.43-4.25-4.75c-0.84-0.17-1.57-0.17-1.99-0.17c-1.94,0-2.24,0.25-2.24,1.31v8.93
			c1.19-0.06,2.74-0.06,4.23-0.34C187.01,27.13,189,25.87,189,22.7z"/>
		<path class="st0" d="M190.73,60.33c-0.86,12.7-2.04,25.27-3.59,37.91c-1.44,9.86-3.01,19.6-4.78,29.31
			c-1.31,7.09-2.72,14.18-4.19,21.36l4.19,2.91l6.68,4.58c0.58-2.46,1.15-4.89,1.69-7.39c3.28-14.95,6.15-29.93,8.39-45.1
			c2.15-16.61,3.74-33.01,4.12-49.78H191.1C191,56.19,190.87,58.27,190.73,60.33z"/>
		<path class="st0" d="M149.34,87.03c1.11-10.94,1.91-21.87,2.47-32.97h-2.47h-9.01h-11.09h-14.71h-5.89h-1.93
			c0.31,13.56,0.94,26.98,1.93,40.5c0.11,1.88,0.24,3.72,0.43,5.62c1.11,11.33,2.5,22.48,4.27,33.71l1.2-0.29l1.71-0.43
			c2.54-9.62,3.94-18.82,4.32-28.8l0.06-4.11c-2.3-2.03-2.65-3.39-2.8-6.46c0.39-2.21,0.81-3.32,2.05-5.18
			c-0.62-1.35-0.76-2.57-0.76-4.04c0.14-1.33,0.37-2.39,0.76-3.64c-0.37-0.36-0.68-0.72-1.01-1.08c-0.5-0.68-1.02-1.71-1.38-2.52
			c-0.07-0.5-0.22-0.98-0.3-1.45c0.04-2.77,1.15-5.6,1.99-8.22c0.43-1.17,0.58-2.29,2.04-2.29c1.38,0.53,1.45,1.2,1.71,2.6
			c0.7,3.56,1.4,7.14,2.04,10.65c0.29-0.95,1.24-1.32,3.4-1.34c0.36,0,0.64,0.02,0.88,0.11c0.84,0.22,1.27,0.83,1.8,1.32l2.38-12.49
			l0.39-0.48l1.58-0.93c2.09,1.12,2.56,6.31,2.56,8.66c-0.35,2.74-1,4.43-2.69,6.61c0.91,1.71,1.1,2.87,1.1,4.84
			c-0.23,1.42-0.52,2.47-1.06,3.78c0.95,1.87,1.3,3.11,1.3,5.18c-0.38,2.52-0.91,3.9-2.37,5.96l0.39,3.42
			c1.26,9.79,2.75,19.56,4.31,29.27l1.42,0.39l1.74,0.47c2.48-12.14,4.53-24.2,6.21-36.52C148.65,93.58,149.01,90.3,149.34,87.03z"
			/>
		<path class="st0" d="M68.75,101.12c-1.54-15.67-2.52-31.2-2.99-46.98h-0.75l-11.18-0.09c-0.58,17.19,1.44,33.81,3.33,50.78
			c1.92,17.05,5.15,33.84,7.86,50.78l8.35-4.85l2.93-1.74c-1.02-5.39-2.03-10.83-2.93-16.22C71.57,122.3,70.08,111.81,68.75,101.12z
			"/>
		<path class="st0" d="M104.52,92.51c-1.22-12.87-2.05-25.6-2.58-38.55h-2.62h-8.65h-0.36h-2.12c0.53,10.08,1.26,20.04,2.12,30.04
			c0.14,1.22,0.22,2.43,0.36,3.63c0.24,2.91,0.54,5.8,0.86,8.73c1.71,14.27,3.75,28.43,6.19,42.59l1.6-0.53l9.29-3.04l1.89-0.62
			c-0.64-3.84-1.28-7.67-1.89-11.56C107.06,113,105.64,102.81,104.52,92.51z"/>
		<path class="st0" d="M90.31,121.78c-0.83-6.18-1.6-12.39-2.33-18.58c-1.65-16.38-2.95-32.65-3.88-49.06h-2.31h-8.42h-2.97
			c0.51,15.23,1.48,30.32,2.91,45.55c0.02,0.28,0.06,0.57,0.1,0.89c1.74,15.44,3.98,30.55,6.61,45.87l1.77-0.8l8.52-3.81l0.36-0.17
			l2.46-1.09c-0.85-5.47-1.7-10.96-2.46-16.41C90.58,123.39,90.45,122.54,90.31,121.78z"/>
		<path class="st0" d="M166.3,94.73c1.61-13.55,2.75-26.9,3.42-40.54h-3.7h-7.7h-1.29c-0.78,14.04-1.99,27.89-3.63,41.85
			c-1.17,8.59-2.53,17.11-4.05,25.61c-0.75,4.34-1.6,8.68-2.46,13.03l2.46,0.73l8.98,2.7l0.41,0.07
			c2.86-13.71,5.27-27.36,7.29-41.29C166.11,96.19,166.21,95.44,166.3,94.73z"/>
		<path class="st0" d="M183.92,90.65c1.17-12.15,2.04-24.23,2.63-36.4l-4.18-0.09l-7.92-0.11h-0.06
			c-0.77,14.45-2.04,28.57-3.92,42.9c-1.27,8.56-2.77,17.01-4.44,25.39c-1.15,5.74-2.42,11.49-3.74,17.26l3.74,2.08l8.21,4.67
			c0.06-0.26,0.14-0.57,0.21-0.86c3.24-14.4,5.86-28.62,7.92-43.14C182.92,98.48,183.43,94.57,183.92,90.65z"/>
		<path class="st0" d="M227.17,25.25l-0.17-1.23l-0.31-1.22l-0.38-1.23l-0.47-1.18l-1.3-2.77l-1.35-2.49l-1.42-2.21l-1.48-1.95
			l-1.88-1.97l-1.96-1.84l-2.2-1.61l-2.28-1.44L209.84,3l-2.44-0.95l-2.64-0.86l-2.95-0.75l-1.09-0.22l-1.23-0.16l-1.3-0.04
			L196.82,0h-69.41H61.21l-2.99,0.05l-1.77,0.09L55.12,0.2l-0.9,0.09l-0.57,0.07L50.6,1.04l-2.69,0.8l-2.43,0.95l-2.17,1.02L41,5.18
			l-2.14,1.58l-1.99,1.77l-1.86,1.94l-1.51,1.85l-1.43,2.15l-1.4,2.43l-1.29,2.68l-0.47,1.2l-0.37,1.2l-0.35,1.21l-0.24,1.3
			l-0.49,3.57l-0.31,4.45L27,37.92v6.16l0.39,15.17l0.88,15.81l1.34,16.43l1.82,17.06l1.65,12.56l2.08,12.98l2.37,13.46l2.84,13.87
			l1.98,8.88l2.35,9.32l2.63,9.82l2.93,10.22l3.95,12.85l3.36,10.53l2.9,8.27l2.42,6.01l0.66,1.46l0.79,1.42l0.77,1.32l0.87,1.22
			l1.32,1.78l1.26,1.48l1.24,1.34l1.17,1l1.76,1.27l1.9,1.11l2.1,1.04l2.22,0.89l0.6,0.16l1.17,0.23l1.68,0.33l2.23,0.39l2.05,0.33
			l2.04,0.37l2.03,0.31l2.01,0.31l7.76,0.5l7.71,0.33l7.79,0.11l7.74-0.09l3.65-0.09l8.82-0.34l11.24-0.65l10.08-0.98l8.84-1.2
			l1.59-0.29l1.45-0.3l1.24-0.31l1.09-0.42l3.22-1.37l2.88-1.48l2.55-1.56l2.22-1.66l2.01-1.86l2.03-2.18l1.96-2.62l1.94-2.94
			l0.47-0.75l0.54-1.09l0.6-1.43l0.67-1.65l2.48-6.51l2.55-7.28l2.64-8.02l2.68-8.82l3.04-10.36l2.82-10.48l2.67-10.6l2.54-10.7
			l2.62-12.06l2.24-11.19l1.88-10.32l1.46-9.45l1.61-12.49l1.32-12.6l1.05-12.73l0.71-12.83l0.54-13.43l0.14-10.98l-0.14-8.58
			L227.17,25.25z M222.51,50.87L222,63.86l-0.74,12.9l-1.06,12.72l-1.3,12.47l-1.58,12.32l-1.48,9.35l-1.81,10.21l-2.23,11.07
			l-2.58,11.86l-2.49,10.66l-2.69,10.52l-2.83,10.38l-2.95,10.32l-2.66,8.62l-2.58,7.87l-2.51,7.19l-2.46,6.46l-0.61,1.53
			l-0.56,1.26l-0.49,0.97l-0.39,0.71l-1.62,2.41l-1.7,2.22l-1.64,1.81l-1.77,1.6l-1.84,1.38l-2.15,1.35l-2.41,1.22l-2.69,1.2
			l-0.96,0.31l-1.11,0.33l-1.3,0.27l-1.45,0.24l-8.63,1.17l-9.82,0.91l-10.99,0.68l-8.51,0.31l-3.62,0.12l-7.62,0.08l-7.67-0.13
			l-7.59-0.34l-7.64-0.51l-1.97-0.31l-1.94-0.31l-1.97-0.32l-1.95-0.33l-1.99-0.28l-1.52-0.31l-0.98-0.2l-0.5-0.13l-1.67-0.69
			l-1.64-0.79l-1.48-0.89l-1.33-0.95l-0.97-0.83l-0.98-1.03l-1.01-1.21l-1.09-1.44l-0.73-1.1l-0.69-1.16l-0.66-1.24l-0.64-1.32
			l-2.32-5.83l-2.83-8.08l-3.26-10.29l-3.79-12.49l-2.96-10.18l-2.65-9.75l-2.28-9.3l-1.99-8.87l-2.76-13.71l-2.39-13.3l-2.04-12.83
			l-1.63-12.43l-1.79-16.8l-1.38-16.31L32.6,59.06l-0.43-15.19v-5.82l0.14-5l0.29-4.09l0.42-3.35l0.2-1.05l0.31-1.07l0.33-1.01
			l0.39-0.98l1.09-2.24l1.14-2.01l1.17-1.79l1.24-1.54l1.56-1.66l1.65-1.42l1.82-1.29l1.9-1.2l1.78-0.86l1.99-0.73l2.29-0.69
			l2.46-0.54l0.44-0.12l0.87-0.04l1.2-0.05l1.55-0.09l2.89-0.05h66.15h69.14h1.23l1.14,0.1l1.01,0.09l0.93,0.19l2.43,0.6l2.27,0.75
			l2.01,0.78l1.78,0.93l1.95,1.22l1.79,1.32l1.66,1.54l1.56,1.65l1.27,1.61l1.13,1.84l1.14,2.07l1.07,2.31l0.45,1.03l0.3,1.07
			l0.24,1.01l0.19,1.07l0.45,5.76l0.16,8.18L222.51,50.87z"/>
	</g>
</g>
</svg>
