<svg xmlns="http://www.w3.org/2000/svg" viewBox="0 0 256 256"><path d="M163.3 222.6l-4.7-1.1h-.3l-4.4-.5h-4.8l-4.7.6-4.1 1.1-.3.1-4.3 1.7-4.1 2.3 1.8 2.3 3-1.5 3.1-1.1.8-.2 2.4-.5 3.3-.3 3.3.7 3.2.7 2.4.2H158.8l1.6-.2 2-.4 1.8-.6 1.8-.7 1.8-.8-1.8-.7z"/><path d="M149.8 209.4h-.5l-1.8-.1-2.2-.1-1.9.2-1.7.3-1.4.5-.4.2-2 .8-2 1.2-2 1.4-1 .8-1.3 1.2-1.3 1.4-1.1 1.2-.4.6-.6.7-.5.7-.5.8-.5.7-.4-.9-.5-.9-.5-.8-.6-.8-1.4-1.6-1.4-1.5-1.5-1.2-1.4-1.1-1.7-.9-1.7-.9-1.1-.4-.8-.2-1.9-.5-1.6-.3h-1.6l-.4-.1-2 .1-2.1.2-2.8.4-2 .4-1 .3-3.2.9-3.5 1.1-.9.4-.4.1-1.3.6-2.7 1.1-2.5 1.3-2 1.1-.5.2.5 1.3.4 1.2 1.4-.7 1.4-.6 1.3-.6 1.5-.6 2.5-.9.4-.1 2.3-.9 1.8-.5 1.2-.3 2.7-.3.6-.1h2l2.6.2 2.5.3 2.2.6h.2l2.4.8 2.3 1 1 .5 1.3.8 1.9 1.2 2 1.5 1.9 1.7 2 2 .8 1 .8 1 .7 1 .7 1.1.7-1 .6-1.1.8-1 .5-.6.3-.3 2-2 1.9-1.6 1.9-1.5 1.9-1.2 2.2-1.1.9-.4 1.4-.6 2.4-.8 2.4-.6 2.5-.4h.3l2.2-.1h2.5l2.4.2 1.7.4.2.1 1.8.5 2.3.8 2.6 1 1 .5.4.1 1.2.7 1.3.7 1.3.7 1.4-3.6-2.5-1.4-2.5-1.3-.6-.3-2-.8-2.6-1.1-3.1-1-.3-.1-3-.9-2.7-.6zM70.6 22.7c0-3.4-2.3-4.4-4.2-4.8-.8-.2-1.6-.2-2-.2-2 0-2.3.2-2.3 1.3v9c1.2-.1 2.8-.1 4.2-.3 2.3-.6 4.3-1.8 4.3-5zM96.3 39.7c4 0 7.7-3.2 7.7-11.2 0-8.2-4-11.2-7.7-11.2s-7.7 3-7.7 11.2c0 7.9 3.7 11.2 7.7 11.2zM99.3 183.8l1.9-1.5 2.6-2.1 2.4-2.1 2.4-2.3 1.2-1 3.4-3.5 1.3-1.3 2-2.1 3.2-3.7V156l-5.2 7.7-.3.4.1.5-.1.4v.5l-.1.4-.3 1-.2.9-.4.8-.3.7-.6.8-.6.7-.6.6-.7.6-.7.4-.7.4-.4.2-.5.2-.9.3-.5.2h-.5l-.4.1h-.5l-.1.3-.1.4-.2.3-.2.3-.5.7-.4.5-.5.6-.5.4-.6.5-.6.4-.6.3-.7.3-.6.2-.4.1-.3.1-.7.1-.8.1H96l-2.4 1.5 2.4 5.4 2.7-2zM102.7 192.4l2.7-2.1 2.7-2.1.5-.5 2.1-1.7 2.4-2 1.4-1.3.9-.8 2.3-2.3 2.2-2.2v-6.8l-2.5 2.8-2.4 2.7-.5.5-2.1 2.2-2.7 2.5-1.1 1-1.9 1.7-3.1 2.5-3.2 2.4-1.1.8-2.1 1.5 2.1 2.5.6.6zM120.7 93l1 1.1 1.4-.8 1.5-.5 1.6-.3h1.6l1.4.2h.1l1.5.5 1.4.7 1.3.9 1.1-1.7-3.9-4.2v-1.8l1.5-1.3-.4-1.8-.9-1.3-1.4-.8h-.4l-1.4-.3-1.9.3-1.4.7-1 1.3-.5 1.9 1.3 1.3v1.7l-3.5 4.2zm5.6-4.9v-.2l.1-.2.1-.2.1-.2.1-.1.1-.2.2-.1.2-.2.2-.1.2-.1h.8l.2.1.2.1.2.1.1.1.1.1.1.1.1.2.1.2.1.2v.6l-.1.2-.1.2-.2.2-.1.1-.1.2-.1.1-.2.1-.2.1-.2.1h-.8l-.2-.1-.2-.1-.2-.1-.2-.1-.1-.2-.1-.2-.1-.2-.1-.2-.1-.2.1-.1zM172.9 185.5l1.5.6 7.5 2.8.5-1.1 1.1-3.2-1.1-.5-4.9-2.3-3.1 2.5zM96.4 175.1l1.4-.2 1.2-.6.3-.5.2-.2.3-.9v-1.1l-.2-1.2-.3-.8-.1-.2-.5-.9-.7-.9-1-.8-.9-.7-.9-.4-.9-.3h-.9l-.9.1-.7.3-.7.4-.4.6-.1.1-.3.5-.1.2-.2.9v1l.2 1.1.1.3.1.2.3.4.1.2.6.9.9 1.1.4.4 2 .7zM119.9 183l-2.1 2.4-2.2 2.3-1.1 1-1.3 1.2-2.5 2.1-2.1 1.5-.1.1-2.3 1.5-2.3 1.3-2.4 1.3 3.2 3.2 2.1-1.1 1.8-1.3.2-.1 2-1.3 1.9-1.4 1.8-1.3.1-.1 1.8-1.4 1.8-1.4 1.7-1.5zM116.4 199.8L115 201l-.5.4-.9.6-1.4.9-1.5.8-1.6.7h1.5l1.5.1 1.5.3.9.2.5.2 1.3.6 1.3.6 1.2.8 1.1.8v-12.3l-1.1 1.4-1.1 1.4zM112.6 157.8l1.9-3.1 5.3-8.9v-10.5l-5.3 9.5-5.9 10.5-.2.3.2.2zM90.3 177.5l-.2-.7-.5-.9-.8-.9-.9-.8-1-.7-.9-.4-.9-.3h-.9l-.8.1-.8.3-.6.5-.2.2-.4.4-.3.7-.2.9v1l.2 1.2.1.4.5.6.1.2.5.7.8 1.1.4.4 2 .7 1.7.3 1.4-.2 1.2-.7.5-.6v-.1l.3-.8.1-1-.3-1.3zM165.6 180.9l.4.7v.1l.6.5.7.3.8.1 1-.1 1-.3 1-.6 1-.8 1-1.2.6-.8.4-1 .3-.9v-.1l.1-.8-.1-.6v-.6l-.3-1-.5-.8-.6-.6-.5-.2-.6-.1-.7.1-.8.2-.9.3-.9.4-.7.7-.8.6-.6.8-.5.7v.1l-.4.7-.2.8-.1 1.4v1.1z"/><path d="M100.2 164.2l.5.6.6.9.8 1 .4.5 2 .7 1.7.2 1.4-.1 1-.6.2-.1.5-.6.3-.9v-1.1l-.2-1.3-.3-1-.5-.7-.1-.1-.7-1-1-.8-.9-.6-1-.4-.8-.3-.9-.1-.8.2-.8.3-.6.4-.6.6-.3.8-.3.9v1l.3 1.1zM73.4 182l-3.7 1.4 2.2 6 1.5-.6 7.2-2.7-4.2-5.2zM116.8 224.3l-1.9-.9-.4-.2-1.6-.6-3.1-.8-1.2-.2-2.3-.4-3.6-.1h-3.9l-3.6.4-3.5.6-1 .3-.4.1-2.1.6-3.4 1.2.9 1.2 1 .9 1.2.8 1.3.6h1.5l2-.1 3.7-.3 2.9-.3 2.1-.2 7.2-1 2.6-.3 2 .4 1.3.5.5.3 1.7 1 1.5 1.3 2-2.3-1.6-1.4zM144.4 172.1l-.6-.4-.6-.5-.4-.6-.5-.5-.4-.7-.3-.6-.3-.6-.2-.7-.2-.8v-.8l-.1-.3v-.4l.1-.4v-.3l-.6-.9-5.1-7.5v8.4l2.1 2.9 2.2 2.8.8.9 1.6 1.7 2.7 2.5 3.5 2.9 1.2.9 2.6 1.8 4 2.5 2.4 1.3 1.6.8 1.5-4.1-1.2-.9h-.4l-.4.1h-.5l-.4-.1h-.2l-.8-.1-.9-.2-.7-.2-.7-.3-.8-.3-.7-.5-.7-.5-.6-.7-.5-.5-.5-.7-.4-.8-.4-.8-.2-.5-.1-.4-.1-.4-.1-.4-.4.1H147.8l-.8-.2-.6-.1-.6-.2-.7-.3z"/><path d="M146.3 167.8l.5.8.6.5.7.2.8.1h.9l1.1-.3 1-.6 1-.9 1-1.1.6-.9.4-.9.3-.9v-.9l-.1-1.2-.2-1.1-.5-.8-.7-.6-.5-.2H152l-.9.2-.9.4-.8.4-.1.1-.7.5-.7.7-.7.8-.4.7-.4.7-.2.8-.2 1.4.1 1.1zM135.1 135.4v10.1l5.2 9.1 2.2 3.8 3-4.1-5.2-9.4zM156.2 174.3l.5.7.6.6.7.3h.3l.5.1.9-.1 1.1-.3 1-.6 1-.8 1-1.2.6-.9.4-.9.2-.9.1-.9-.1-1.2-.2-1-.6-.8-.6-.6-.4-.2-.6-.1-.7.1-.9.2-.9.3-.8.4-.8.6-.2.2-.5.5-.6.8-.5.7-.4.8-.2.8-.1 1.3v1.1zM131.5 96l-1-.8-1.1-.5h-.2l-1.2-.1-1.4.3-1.3.6-1 1-.7 1.4 4.2 3.8 1.4-1.5 3-3z"/><path d="M217.3 27.4l-.2-.9-.2-.9-.3-.9-.3-.9-.9-1.9-.9-1.6-1-1.5-1-1.3-1.3-1.3L210 15l-1.5-1.1-1.6-1-1.5-.7-1.6-.7-1.8-.6-2-.5-.8-.2-.9-.1-1-.1h-136l-2.8.1-1.4.1-1 .1-.7.1h-.5l-1.9.4-1.8.6-1.6.6-1.4.7-1.5.9-1.4 1-1.4 1.2-1.3 1.3-1 1.2-1 1.4-.9 1.6-.9 1.8-.3.9-.3.8-.2 1-.2.9-.4 3-.2 3.9-.1 4.6v5.5l.4 15.3.9 15.8 1.3 16.1 1.8 16.6 1.6 12.3 2 12.7 2.4 13.2 2.8 13.5 2 8.7 2.3 9.2 2.6 9.7L60 197l3.7 12.2 3.2 10.1 2.8 7.8 2.2 5.6.6 1.1.6 1.1.6 1.1.6 1 .8 1.1.8.9.8.8.7.6 1 .7 1 .6 1.2.6 1.2.5.4.1.9.1 1.3.2 1.7.3 1.9.4 1.9.3 1.9.3 1.9.3 7.5.5 7.6.3 7.6.2 7.5-.1 11.8-.4 10.7-.6 9.6-.9 8.5-1.2 1.2-.2 1.1-.2 1-.3.8-.3 2.3-.9 2-1 1.8-1.1 1.5-1.2 1.4-1.3 1.4-1.6 1.4-1.8 1.3-2 .4-.6.4-.9.5-1.1.6-1.3 2.4-6.4 2.5-7 2.6-7.8 2.6-8.5 2.9-10.2 2.8-10.4 2.7-10.4 2.5-10.6 2.6-11.8 2.2-10.9 1.8-10 1.5-9.3 1.6-12.1 1.3-12.4 1-12.7.8-13 .5-12.5.2-10.2-.1-7.8-.7-5.4zm-43.6 12.4c2.9-.2 3.1-1 3.1-3.7V20.4c0-2.7-.5-3-3.1-3.2v-.7h10c.3 0 .6 0 1 0 3.3.2 8.2 1.3 8.2 6.3 0 4.9-4.7 5.7-6.5 6.1l7.5 9.2c.8 1 1.6 1.6 3.1 1.7v.7h-5.8l-6.4-8.3-2.2-2.9-2 .1v7.1c0 2.4.4 3.1 3.2 3.3v.7h-10l-.1-.7zm-28.1 0c2.3-.2 3.1-.5 3.1-3.3V20.4c0-2.9-.8-3.1-3.1-3.2v-.7h19.2l.1 5.2h-.9c-.5-3.2-1.5-3.8-5.5-3.8h-4.9c-.8 0-1.2 0-1.2 1.3v8h5.6c3.2 0 3.6-.9 4-3.4h.8V32h-.8c-.4-2.9-1-3.4-4-3.4l-5.6-.1v9c0 1.5 0 1.5 5.4 1.5 4.5 0 6.4-1.1 7.9-4.8h1l-1.7 6.2h-19.6l.2-.6zm-31.7-23.3h9.6v.7c-2 .1-2.7.2-2.7 1.3 0 .5.6 2 1.5 3.9l5.4 12.3 5.3-13.3c.1-.2.7-1.8.7-2.5 0-1.5-1.3-1.6-2.7-1.6v-.7h7.4v.7c-1.7.1-2.2.6-3.3 3.3L127 41h-.5l-8.9-20c-1.5-3.3-2.2-3.7-3.8-3.8l.1-.7zm-17.6-.6c5.9 0 11.8 4.2 11.8 12.6 0 7.7-5.3 12.5-11.8 12.5-6.6 0-11.8-4.8-11.8-12.5 0-8.3 5.9-12.6 11.8-12.6zm-41 23.9c2.9-.2 3.1-1 3.1-3.7V20.4c0-2.7-.5-3-3.1-3.2v-.7h10c.3 0 .7 0 1 0 3.3.2 8.2 1.3 8.2 6.3 0 4.9-4.7 5.7-6.6 6.1l7.4 9.2c.8 1 1.7 1.6 3.2 1.7v.7h-5.9l-6.4-8.3-2.2-2.9-2 .1v7.1c0 2.4.4 3.1 3.3 3.3v.7h-10v-.7zm154.2 17.9l-.1.7-.1.9-.1 1.2-1.2 12.8-1.4 11.9-1.4 10.9-1.4 9.9-2.6 14.8-2.8 14.7-3.1 14.7-3.4 14.6-1.2-.9-5.3-4-3.1-2.1-3.6-2.5-4.3-2.6-2.6-1.6-5.8-3.1-1.4-.7-2.1-1.1-2.6-1.1-1.6-.6-1.4-.6-3.6-1.3-2.5-.9-1.5-.4-1.1-.4-2.6-.7-2.6-.7.9 2 .9 1.9.9 2 1 1.9.9 1.7 1 1.7.7 1.1.4.6 1.1 1.6H152l.4.1.9.2.8.2.7.2.6.3.7.4.6.5.6.6.6.5.4.6.4.6.4.7.4.9.1.4.1.4.1.4v.4l.3-.1.3-.1.3-.1.3-.1.6-.1.6-.1h1.1l.6.1.6.1.5.2.5.3.5.2.1.1.4.3.4.3.4.4.4.4.3.4.3.5.2.5.2.5.2.5.1.6.1.6.1.2v.6l-.1.3.4-.1h2.4l.6.1.6.2.6.2.6.3.1.1.5.3.5.3.5.5.5.4.5.5.4.5.4.5.3.6.3.6.2.6.1.6.1.6.1.7v1.1l-.1.3-.1.3-.1.3 3.8 1.6 6.1 2.4L184 194l-1.7-.6-7.9-2.8-8.4-2.9-.8-.3-.9 2-1 1.9-1 2-1.1 1.9-1.4 2.2-1.4 1.9-.2.2-1.6 2-1.7 2.1 3.4 1.8 7.7 4.1 8.4 4.4 2.9 1.5-.6 4.6-1.4 4.2-.9 1.6-1.3 2.4-3 3.6-.4.3-.8.4-1.1.5-1.4.6-.4.2-1.5.6-1.7.5-1.5.4-1.3.3-1.7.2-4.6.7-4.3.3-3.4.3-5.6.2-3.7.1-7.4.1H126l-10.2-.2-1.2-.1-5.9-.3-1.8-.1-7.5-.6h-.1l-6.3-.9-2-.4-.3-.1-.4-.1-1.1-.3-1.5-.6-1.4-.6-.6-.4-.8-.5-.9-.7-1-.8-.8-.8-.4-.4-.3-.3-.6-.6-.5-.6-.2-.3-.2-.4-.2-.4-.2-.4-4.8-11.1 7-3.4 8.5-4.2.4-.2 8.7-4.2.4-.2-.4-.4-.4-.4-.8-1-.8-.9-.7-.9-1.4-2-1.4-2.1-1.2-2-1.2-2.1-.6-1.1-.2-.4-.3-.6v-.1l-.5-1.1-.4-1.1-7.6 2.7-8.4 2.9-3.5 1.2-4.8-12.9 8.1-3 2-.8v-.9l.1-.4.1-.4.2-1 .3-.8.3-.8.4-.6.5-.7.5-.6.6-.6.7-.5.7-.4.7-.3.8-.4.4-.2.5-.2.4-.2h.4l.4-.1h.7l.1-.4.2-.4.2-.4.2-.4.5-.8.5-.7.4-.6.5-.6.6-.5.6-.5.7-.4.7-.3.7-.3.5-.2.3-.1h.1l.7-.2.9-.2.4-.1h1v-.3l.1-.4.1-.3.1-.3.2-.8.3-.7.3-.6.3-.5.4-.6.5-.5.5-.5.6-.4.6-.4.7-.3.7-.2.2-.1.5-.2.7-.1.7-.1h.7l.8.1.3.1.4.1.4.1.3.1.9-1.4.9-1.4.8-1.4.8-1.4 1-2 .1-.1.9-1.9.9-2.1.9-2.1-2.8.8-4.2 1.2-5.1 1.8-1.7.6-6.7 2.7-.3.1-.4.2-5.9 2.7-2.6 1.4-3.4 1.8-5.1 3-.8.5-5.7 3.8-1.9 1.4-3.6 2.6-2.7-12.8-2.4-12.9-2.1-12.8-1.9-13-2.4-19.2-1.6-15.7-.9-12.2-.1-8.7.1-.4.1-.5.1-.4.1-.4.3-.9.4-.8.4-.7.4-.6.5-.6.6-.6.6-.5.7-.5.7-.4.7-.3.8-.3.9-.2.3-.1H202.4l.3.1.7.2.7.2.6.2.5.3.6.4.5.4.5.5.5.5.4.6.4.6.3.6.2.7.2.6.2.6.1.7.1.8.3.2z"/><path d="M135.1 207.9l.6-.8.7-.7.8-.6.8-.5 1.6-.7.7-.2.9-.3 1.7-.3h1.7l-1.5-.7-1.6-.8-1.2-.8-.2-.2-1.3-1-1.1-1-.9-1.1-.9-1.1-.8-1.2zM155.4 189.1l-3-2.3-2.9-2.4-.2-.1-2.7-2.3-2.9-2.6-3-2.8-.4-.4-2.4-2.3-2.8-2.9v6.9l2 1.7 2.1 1.8 1.1 1 .9.7 2 1.8 3.1 2.5 3 2.6 3.1 2.5 3 2.6 2.9-3.7.1-.1-.1-.1zM138.1 192.4l1.4 1.2.8.7.7.6 2.1 1.7 2 1.7 2.1 1.6 2.1 1.6 3.4-3-2.5-1.7-.9-.6-1.5-1.1-2.3-1.9-2.4-2-2-1.8-.8-.8-1.3-1.2-1.9-2-1.9-2.2v6.6l1.5 1.3zM124.2 103.9v109.3h6.1V103.9h-1.1zM189 22.7c0-3.4-2.3-4.4-4.2-4.8-.8-.2-1.6-.2-2-.2-1.9 0-2.2.2-2.2 1.3v9c1.2-.1 2.7-.1 4.2-.3 2.2-.6 4.2-1.8 4.2-5zM190.7 60.3c-.9 12.7-2 25.3-3.6 37.9-1.4 9.9-3 19.6-4.8 29.3-1.3 7.1-2.7 14.2-4.2 21.4l4.2 2.9 6.7 4.6c.6-2.5 1.1-4.9 1.7-7.4 3.3-14.9 6.1-29.9 8.4-45.1 2.1-16.6 3.7-33 4.1-49.8h-12.1c-.1 2.1-.2 4.2-.4 6.2z"/><path d="M149.3 87c1.1-10.9 1.9-21.9 2.5-33H106.7c.3 13.6.9 27 1.9 40.5.1 1.9.2 3.7.4 5.6 1.1 11.3 2.5 22.5 4.3 33.7l1.2-.3 1.7-.4c2.5-9.6 3.9-18.8 4.3-28.8l.1-4.1c-2.3-2-2.7-3.4-2.8-6.5.4-2.2.8-3.3 2.1-5.2-.6-1.3-.8-2.6-.8-4 .1-1.3.4-2.4.8-3.6-.4-.4-.7-.7-1-1.1-.5-.7-1-1.7-1.4-2.5-.1-.5-.2-1-.3-1.4 0-2.8 1.2-5.6 2-8.2.4-1.2.6-2.3 2-2.3 1.4.5 1.4 1.2 1.7 2.6.7 3.6 1.4 7.1 2 10.7.3-.9 1.2-1.3 3.4-1.3.4 0 .6 0 .9.1.8.2 1.3.8 1.8 1.3l2.4-12.5.4-.5 1.6-.9c2.1 1.1 2.6 6.3 2.6 8.7-.4 2.7-1 4.4-2.7 6.6.9 1.7 1.1 2.9 1.1 4.8-.2 1.4-.5 2.5-1.1 3.8.9 1.9 1.3 3.1 1.3 5.2-.4 2.5-.9 3.9-2.4 6l.4 3.4c1.3 9.8 2.8 19.6 4.3 29.3l1.4.4 1.7.5c2.5-12.1 4.5-24.2 6.2-36.5.4-3.5.8-6.8 1.1-10.1zM68.8 101.1c-1.5-15.7-2.5-31.2-3-47H65L53.8 54c-.6 17.2 1.4 33.8 3.3 50.8 1.9 17.1 5.2 33.8 7.9 50.8l8.3-4.9 2.9-1.7c-1-5.4-2-10.8-2.9-16.2-1.7-10.5-3.2-21-4.5-31.7zM104.5 92.5a710.8 710.8 0 01-2.6-38.5H88.1c.5 10.1 1.3 20 2.1 30 .1 1.2.2 2.4.4 3.6.2 2.9.5 5.8.9 8.7 1.7 14.3 3.8 28.4 6.2 42.6l1.6-.5 9.3-3 1.9-.6c-.6-3.8-1.3-7.7-1.9-11.6-1.5-10.2-3-20.4-4.1-30.7zM90.3 121.8c-.8-6.2-1.6-12.4-2.3-18.6-1.7-16.4-2.9-32.7-3.9-49.1H70.4c.5 15.2 1.5 30.3 2.9 45.5 0 .3.1.6.1.9 1.7 15.4 4 30.5 6.6 45.9l1.8-.8 8.5-3.8.4-.2 2.5-1.1c-.8-5.5-1.7-11-2.5-16.4-.1-.7-.3-1.6-.4-2.3zM166.3 94.7c1.6-13.6 2.8-26.9 3.4-40.5H157c-.8 14-2 27.9-3.6 41.8-1.2 8.6-2.5 17.1-4.1 25.6-.8 4.3-1.6 8.7-2.5 13l2.5.7 9 2.7.4.1c2.9-13.7 5.3-27.4 7.3-41.3.1-.6.2-1.4.3-2.1zM183.9 90.7c1.2-12.2 2-24.2 2.6-36.4l-4.2-.1-7.9-.1h-.1c-.8 14.5-2 28.6-3.9 42.9-1.3 8.6-2.8 17-4.4 25.4-1.1 5.7-2.4 11.5-3.7 17.3l3.7 2.1 8.2 4.7c.1-.3.1-.6.2-.9 3.2-14.4 5.9-28.6 7.9-43.1.6-4 1.1-7.9 1.6-11.8z"/><path d="M227.2 25.2L227 24l-.3-1.2-.4-1.2-.5-1.2-1.3-2.8-1.4-2.5-1.4-2.2-1.5-1.9-1.9-2-2-1.8-2.2-1.6-2.1-1.5-2.2-1.1-2.4-1-2.6-.9-2.9-.8-1.1-.2-1.2-.2H61.2l-3 .1-1.8.1-1.3.1-.9.1-.6.1-3 .7-2.7.8-2.4 1-2.2 1L41 5.2l-2.1 1.6-2 1.8-1.9 1.9-1.5 1.9-1.4 2.1-1.4 2.4-1.3 2.7-.5 1.2-.4 1.2-.4 1.2-.1 1.3-.5 3.6-.3 4.5-.2 5.3v6.2l.4 15.2.9 15.8 1.3 16.4 1.8 17.1 1.6 12.6 2.1 13 2.4 13.5 2.8 13.9 2 8.9 2.3 9.3 2.6 9.8 2.9 10.2 4 12.9 3.4 10.5 2.9 8.3 2.4 6 .7 1.5.8 1.4.8 1.3.9 1.2 1.3 1.8 1.3 1.5 1.2 1.3 1.2 1 1.8 1.3 1.9 1.1 2.1 1 2.2.9.6.2 1.2.2 1.7.3 2.2.4 2.1.3 2 .4 2 .3 2 .3 7.8.5 7.7.3 7.8.1 7.7-.1 3.7-.1 8.8-.3 11.2-.6 10.1-1 8.8-1.2 1.6-.3 1.4-.3 1.2-.3 1.1-.4 3.2-1.4 2.9-1.5 2.6-1.6 2.2-1.7 2-1.9 2-2.2 2-2.6 1.9-2.9.5-.8.5-1.1.6-1.4.7-1.6 2.5-6.5 2.6-7.3 2.6-8 2.7-8.8 3-10.4 2.8-10.5 2.7-10.6 2.5-10.7 2.6-12.1 2.2-11.2 1.9-10.3 1.5-9.4 1.6-12.5 1.3-12.6 1.1-12.7.7-12.8.5-13.4.1-11-.1-8.6-.4-6.2zm-4.7 25.7l-.5 13-.7 12.9-1.1 12.7-1.3 12.5-1.6 12.3-1.5 9.3-1.8 10.2-2.2 11.1-2.6 11.9-2.5 10.7L204 178l-2.8 10.4-2.9 10.3-2.7 8.6-2.6 7.9-2.5 7.2-2.5 6.5-.6 1.5-.6 1.3-.5 1-.4.7-1.6 2.4-1.7 2.2-1.6 1.8-1.8 1.6-1.8 1.4-2.1 1.4-2.4 1.2-2.7 1.2-1 .3-1.1.3-1.3.3-1.4.2-8.6 1.2-9.8.9-11 .7-8.5.3-3.6.1-7.6.1-7.7-.1-7.6-.3-7.6-.5-2-.3-1.9-.3-2-.3-1.9-.3-2-.3-1.5-.3-1-.2-.5-.1-1.7-.7-1.6-.8-1.5-.9-1.3-.9-1-.8-1-1-1-1.2-1.1-1.4-.7-1.1-.7-1.2-.7-1.2-.6-1.3-2.3-5.8-2.8-8.1-3.3-10.3-3.8-12.5-3-10.2-2.7-9.8-2.3-9.3-2-8.9-2.8-13.7-2.4-13.3-2-12.8-1.6-12.8-1.8-16.8-1.4-16.3-.9-15.8-.4-15.2v-5.8l.1-5 .3-4.1.4-3.4.2-1 .3-1.1.3-1 .4-1 1.1-2.2 1.1-2 1.2-1.8 1.2-1.5 1.6-1.7 1.7-1.4 1.8-1.3 1.9-1.2 1.8-.9 2-.7 2.3-.7 2.5-.5.4-.1h.9l1.2-.1 1.5-.1 2.9-.1h136.5l1.1.1 1 .1.9.2 2.4.6 2.3.8 2 .8 1.8.9 1.9 1.2 1.8 1.3 1.7 1.5 1.6 1.6 1.3 1.6 1.1 1.8 1.1 2.1 1.1 2.3.4 1 .3 1.1.2 1 .2 1.1.4 5.8.2 8.2-.1 10.6z"/></svg>