<?xml version="1.0" encoding="utf-8"?>
<!-- Generator: Adobe Illustrator 24.0.0, SVG Export Plug-In . SVG Version: 6.00 Build 0)  -->
<svg version="1.1" id="Layer_1" xmlns="http://www.w3.org/2000/svg" xmlns:xlink="http://www.w3.org/1999/xlink" x="0px" y="0px"
	 viewBox="0 0 256 256" style="enable-background:new 0 0 256 256;" xml:space="preserve">
<style type="text/css">
	.st0{fill:#8699A3;}
</style>
<g>
	<g>
		<path class="st0" d="M189.35,72.61c1.21,0.39,2.54,0.38,3.99-0.09c2.35-0.76,4.02-2.34,5.08-4.75c1.04-2.39,1.17-4.85,0.36-7.35
			c-0.51-1.65-1.33-2.65-2.42-3.02c-1.48-0.47-2.98-0.45-4.59,0.07c-2.29,0.73-3.86,2.32-4.73,4.76c-0.92,2.6-1.04,4.99-0.35,7.15
			C187.23,71.13,188.1,72.2,189.35,72.61z"/>
		<path class="st0" d="M236.89,103.51c-5.33-4.82-8.73-12.93-0.92-25.81c2.75-4.56,1.18-8.46,0.79-9.66
			c-0.13-0.44-0.36-0.79-0.65-1.02c-1.78-1.29-3.33-1.73-4.68-1.29c-0.86,0.25-1.74,0.92-2.66,1.99c-0.92,1.05-1.83,2.12-2.69,3.17
			c-1.37,1.54-3.32,4.5-5.82,8.87c-1.06,1.82-2.19,3.86-3.39,6.11c0.85-2.84,1.1-4.76,1.2-5.75c1.17-10.08-5.82-8.94-6.8-8.31
			c-1.14,0.79-2.33,2.25-5.57,10.48c-1.61,4.57-6.5,14.29-7.66,16.72c-1.3,2.68-2.2,4.09-2.76,4.27c-0.43,0.15-0.76-0.04-0.92-0.6
			c-0.38-1.22-0.31-4.21,0.26-9.01c0.6-5.16,0.41-8.36,0.27-9.76c-0.94-9.42-7.24-6.38-8.98-3.73c-0.6,0.92-1.56,2.46-2.91,5.64
			c-1.15,2.8-9.39,22.94-10.8,25.04c-0.28,0.55-0.74,1.04-1.41,1.51c-0.67,0.45-1.17,0.66-1.46,0.58c-0.94-0.2-1.37-1.23-1.25-3.15
			c0.02-0.67,2.9-16.18,3.74-20.08c0.69-0.22,1.56-0.5,2.64-0.83c1.08-0.35,1.78-0.59,2.13-0.69c1.1-0.37,1.77-0.74,2.02-1.13
			l0.73-2.37c0.12-0.48,0.14-0.86,0.08-1.11c-0.28-0.84-2.49-0.59-6.67,0.76c0.18-1.27,0.31-1.9,0.32-1.84
			c0.22-1.73,0.13-3.19-0.25-4.38c-0.35-1.1-1.04-2.05-2.04-2.82c-0.83-0.55-1.7-1.11-2.57-1.66c-1.09-0.64-1.92-0.85-2.52-0.66
			c-0.64,0.21-1.12,0.84-1.37,1.94c-1.57,6.6-2.44,10.28-2.59,10.99c-0.16,0.49-0.43,1.2-0.8,2.07c-3.31,1.06-5.05,2.15-5.31,3.27
			c-0.07,0.59-0.06,1.06,0.07,1.48c0.39,1.24,1.39,1.62,2.98,1.1c-2.61,6.26-8.84,20.14-9.69,20.88c-0.41-1.28-1.15-2.59-2.22-3.92
			c-1.8-2.16-2.78-3.36-2.93-3.59c-1.25-1.85-2.01-3.13-2.21-3.84c-0.23-0.69-0.15-1.4,0.2-2.13c0.38-0.71,1.39-1.13,3.02-1.21
			c0.25-0.02,0.51-0.07,0.76-0.15c0.95-0.3,1.71-1,2.3-2.06c0.6-1.07,0.74-2.14,0.41-3.18c-0.91-2.84-3.02-3.71-6.34-2.64
			c-1.89,0.61-3.92,2.09-6.08,4.44c-2.16,2.33-3.98,5.06-5.45,8.17c-2.92,6.61-5.12,11.68-6.62,15.22
			c-0.21,0.21-0.37,0.45-0.52,0.74c-0.79,1.69-1.57,3.28-2.36,4.76c-0.64,1.18-1.31,1.9-1.96,2.11c-1.33,0.43-1.97-0.54-1.91-2.94
			c0.84-5.66,1.63-10.67,2.37-15.04c0.37-2.82,0.4-4.71,0.11-5.65c-0.35-1.09-1.37-1.44-3.04-1.01c-1.22,0.27-2.74,1.29-4.59,3.01
			c-1.84,1.73-2.93,3.13-3.29,4.24c-2.45,7-4.6,12.4-6.46,16.19c-0.91,1.82-1.73,3.05-2.48,3.61c-0.62,0.41-1.06,0.26-1.27-0.42
			c-0.16-0.5-0.15-1.17,0.02-1.99c0.66-4.54,1.09-7.97,1.32-10.38c0.12-0.85,0.07-1.56-0.11-2.12c-0.22-0.73-1.04-1.71-2.38-2.87
			c-2.44-2.14-4.15-3.07-5.14-2.74c-0.54,0.17-1.01,0.7-1.4,1.54c-3.58,8.43-6.61,15.76-9.12,21.98c-0.32,0.66-0.54,1.23-0.67,1.74
			c0,0.02,0,0,0,0c-0.05,0.09-0.05,0.16-0.06,0.24c-0.02,0.04-0.03,0.07-0.04,0.11c-0.66,1.87-3.92,9.95-5.1,5.62
			c-1.07-3.84,0.05-11.65,3.04-20.81c0.15-0.5,6.42-1.16,6.59-1.64c0.13-0.4,1.2-4.43,1.32-4.84c0.2-0.6-5.86,1.27-5.64,0.69
			c6.44-18.78,15.99-39.64,13.06-40.26c-12.03-2.42-40.03,36.5-43.42,45.52c-4.34,1.35-9.05,0.99-12.31,0.99
			c-2.41,0-1.23,6.61-1.23,6.61c0.57,3.05,5.56,2.35,9.6,0.76c-4.43,10.03-27.23,37.53-37.6,37.53c-0.78,0,0.47,16.49-6.26,28.4
			c-10.06,17.77,8.14-11.68,31.63-35.15c6.65-6.67,22.45-31.27,23.87-32.96c3.1-0.95,9.82-2.92,9.98-2.42c0,0-9.67,19.16-6.33,26.68
			c7.87,17.67,20.88-11.77,21.36-12.55c0.01-0.04,0.03-0.05,0.03-0.08c0.96-1.36,2.85-5.47,5.65-12.45c-1.13,4.5-2,8.45-2.57,11.82
			c-0.63,3.71-0.58,6.8,0.19,9.19c0.83,2.61,2.45,3.56,4.86,2.82c3.58-1.1,8.62-8.97,15.1-23.62c-0.64,4.56-1.09,8.07-1.34,10.51
			c-0.06,0.74,0.05,1.49,0.29,2.23c0.47,1.51,1.31,2.64,2.5,3.49c1.39,0.92,2.84,1.15,4.4,0.64c1.04-0.32,2.06-1,3.07-1.97
			c4.16-3.98,7.79-9.71,10.92-17.17c0.2-0.48,0.35-0.91,0.45-1.3c0.65-1.49,1.78-4.07,3.36-7.78c1.95-4.55,3.51-7.45,4.69-8.77
			c0.03,1.63,0.49,3.86,1.44,6.63c1.09,3.13,1.71,5.36,1.86,6.67c-2.68,0.48-4.52,0.89-5.45,1.2c-1.64,0.51-3.13,1.4-4.5,2.68
			c-1.63,1.58-2.05,3.59-1.26,6.13c0.47,1.49,1.38,2.85,2.7,4.06c2.13,2.01,5.4,1.69,10.27,0.77c9.84-1.88,17.46-27.9,18.27-30.1
			c-1.87,8.41-2.48,14.45-1.84,18.02c0.22,1.45,1.11,2.65,2.6,3.54c1.65,1.08,3.61,1.7,5.39,0.67c8.5-4.86,18.89-27.83,19.79-30.16
			c-1.01,6.98-1.56,11.17-1.68,12.58c-0.21,2.59-0.03,4.82,0.57,6.66c0.28,0.91,0.94,1.71,1.99,2.4c1.32,0.91,2.73,1.12,4.22,0.63
			c2.25-0.71,5.11-3.7,8.59-8.91c3.23-4.85,8.3-17.64,9.95-21.68c-1.26,8.07-2.07,13.17-2.37,15.31c-0.01,0.18-0.31,1.48-0.89,3.92
			c-0.39,1.55-0.44,2.77-0.18,3.61c0.59,1.84,1.79,2.48,3.58,1.9c1.33-0.44,2.7-1.56,4.1-3.41c1.37-1.85,2.39-3.81,3.05-5.88
			c0.66-2.09,1.97-5.47,3.95-10.12c1.71-4.09,2.91-6.75,3.56-8.05c0.66-1.29,1.41-2.06,2.26-2.34c0.35-0.1,0.56-0.04,0.63,0.21
			c0.09,0.25,0.08,0.58,0,1c-1.97,10.72,1.86,20.01,3.86,22.75l0,0c-2.42,0.76-4.76,1.65-6.96,2.69
			c-10.03,4.73-187.54,65.15-160.46,56.69c34.19-10.67,27.33,12.69,33.27,6.77c12.41-12.41,115.58-55.24,135.72-64.12
			c0.16-0.08,0.33-0.15,0.48-0.2c6.51,4.67,24.56,12.94,24.56,0.91C256.02,102.81,246.96,101.71,236.89,103.51z M71.07,116.35
			c-4.15,1.37-5.54,1.56-10.6,2.41c1.43-4.47,14.91-28.24,18.84-30.74c0.9-0.56,1.67-0.93,2.26-1.12c1.1-0.35,1.77-0.16,1.99,0.58
			c0.22,0.7,0.08,1.83-0.47,3.39C81.71,94.79,71.68,113.66,71.07,116.35z M135.13,127.35c-0.33,0.1-0.71,0.15-1.11,0.1
			c-1.1-0.19-1.8-0.75-2.07-1.64c-0.24-0.72-0.01-1.43,0.61-2.18c0.36-0.46,2.26-1.01,5.72-1.68
			C137.82,125.02,136.77,126.81,135.13,127.35z M249.25,109.68c-0.47,0.03-5.04-1.05-9.44-3.93
			C246.57,106.06,251.34,109.53,249.25,109.68z"/>
	</g>
</g>
</svg>
