<svg xmlns="http://www.w3.org/2000/svg" viewBox="0 0 256 256">
<path d="M189.4,72.6c1.2,0.4,2.5,0.4,4-0.1c2.4-0.8,4-2.3,5.1-4.8c1-2.4,1.2-4.8,0.4-7.3c-0.5-1.7-1.3-2.7-2.4-3c-1.5-0.5-3-0.5-4.6,0.1c-2.3,0.7-3.9,2.3-4.7,4.8c-0.9,2.6-1,5-0.4,7.2C187.2,71.1,188.1,72.2,189.4,72.6z"/>
<path d="M236.9,103.5c-5.3-4.8-8.7-12.9-0.9-25.8c2.8-4.6,1.2-8.5,0.8-9.7c-0.1-0.4-0.4-0.8-0.6-1c-1.8-1.3-3.3-1.7-4.7-1.3c-0.9,0.2-1.7,0.9-2.7,2c-0.9,1.1-1.8,2.1-2.7,3.2c-1.4,1.5-3.3,4.5-5.8,8.9c-1.1,1.8-2.2,3.9-3.4,6.1c0.9-2.8,1.1-4.8,1.2-5.8c1.2-10.1-5.8-8.9-6.8-8.3c-1.1,0.8-2.3,2.2-5.6,10.5c-1.6,4.6-6.5,14.3-7.7,16.7c-1.3,2.7-2.2,4.1-2.8,4.3
c-0.4,0.2-0.8,0-0.9-0.6c-0.4-1.2-0.3-4.2,0.3-9c0.6-5.2,0.4-8.4,0.3-9.8c-0.9-9.4-7.2-6.4-9-3.7c-0.6,0.9-1.6,2.5-2.9,5.6c-1.1,2.8-9.4,22.9-10.8,25c-0.3,0.6-0.7,1-1.4,1.5c-0.7,0.4-1.2,0.7-1.5,0.6c-0.9-0.2-1.4-1.2-1.2-3.2c0-0.7,2.9-16.2,3.7-20.1c0.7-0.2,1.6-0.5,2.6-0.8c1.1-0.3,1.8-0.6,2.1-0.7c1.1-0.4,1.8-0.7,2-1.1l0.7-2.4c0.1-0.5,0.1-0.9,0.1-1.1c-0.3-0.8-2.5-0.6-6.7,0.8c0.2-1.3,0.3-1.9,0.3-1.8c0.2-1.7,0.1-3.2-0.2-4.4c-0.4-1.1-1-2.1-2-2.8c-0.8-0.6-1.7-1.1-2.6-1.7c-1.1-0.6-1.9-0.8-2.5-0.7c-0.6,0.2-1.1,0.8-1.4,1.9c-1.6,6.6-2.4,10.3-2.6,11c-0.2,0.5-0.4,1.2-0.8,2.1c-3.3,1.1-5.1,2.2-5.3,3.3c-0.1,0.6-0.1,1.1,0.1,1.5c0.4,1.2,1.4,1.6,3,1.1c-2.6,6.3-8.8,20.1-9.7,20.9c-0.4-1.3-1.1-2.6-2.2-3.9c-1.8-2.2-2.8-3.4-2.9-3.6
c-1.2-1.8-2-3.1-2.2-3.8c-0.2-0.7-0.1-1.4,0.2-2.1c0.4-0.7,1.4-1.1,3-1.2c0.2,0,0.5-0.1,0.8-0.2c0.9-0.3,1.7-1,2.3-2.1c0.6-1.1,0.7-2.1,0.4-3.2c-0.9-2.8-3-3.7-6.3-2.6c-1.9,0.6-3.9,2.1-6.1,4.4c-2.2,2.3-4,5.1-5.4,8.2c-2.9,6.6-5.1,11.7-6.6,15.2c-0.2,0.2-0.4,0.4-0.5,0.7c-0.8,1.7-1.6,3.3-2.4,4.8c-0.6,1.2-1.3,1.9-2,2.1c-1.3,0.4-2-0.5-1.9-2.9c0.8-5.7,1.6-10.7,2.4-15c0.4-2.8,0.4-4.7,0.1-5.7c-0.3-1.1-1.4-1.4-3-1c-1.2,0.3-2.7,1.3-4.6,3c-1.8,1.7-2.9,3.1-3.3,4.2c-2.4,7-4.6,12.4-6.5,16.2c-0.9,1.8-1.7,3.1-2.5,3.6c-0.6,0.4-1.1,0.3-1.3-0.4c-0.2-0.5-0.2-1.2,0-2c0.7-4.5,1.1-8,1.3-10.4c0.1-0.8,0.1-1.6-0.1-2.1c-0.2-0.7-1-1.7-2.4-2.9c-2.4-2.1-4.2-3.1-5.1-2.7c-0.5,0.2-1,0.7-1.4,1.5c-3.6,8.4-6.6,15.8-9.1,22c-0.3,0.7-0.5,1.2-0.7,1.7c0,0,0,0,0,0c-0.1,0.1-0.1,0.2-0.1,0.2c0,0,0,0.1,0,0.1c-0.7,1.9-3.9,9.9-5.1,5.6c-1.1-3.8,0.1-11.6,3-20.8
c0.2-0.5,6.4-1.2,6.6-1.6c0.1-0.4,1.2-4.4,1.3-4.8c0.2-0.6-5.9,1.3-5.6,0.7c6.4-18.8,16-39.6,13.1-40.3c-12-2.4-40,36.5-43.4,45.5c-4.3,1.3-9,1-12.3,1c-2.4,0-1.2,6.6-1.2,6.6c0.6,3,5.6,2.3,9.6,0.8c-4.4,10-27.2,37.5-37.6,37.5c-0.8,0,0.5,16.5-6.3,28.4c-10.1,17.8,8.1-11.7,31.6-35.2c6.7-6.7,22.5-31.3,23.9-33c3.1-0.9,9.8-2.9,10-2.4c0,0-9.7,19.2-6.3,26.7c7.9,17.7,20.9-11.8,21.4-12.6c0,0,0-0.1,0-0.1c1-1.4,2.8-5.5,5.7-12.4c-1.1,4.5-2,8.4-2.6,11.8c-0.6,3.7-0.6,6.8,0.2,9.2c0.8,2.6,2.4,3.6,4.9,2.8c3.6-1.1,8.6-9,15.1-23.6c-0.6,4.6-1.1,8.1-1.3,10.5c-0.1,0.7,0.1,1.5,0.3,2.2c0.5,1.5,1.3,2.6,2.5,3.5c1.4,0.9,2.8,1.1,4.4,0.6c1-0.3,2.1-1,3.1-2c4.2-4,7.8-9.7,10.9-17.2c0.2-0.5,0.3-0.9,0.4-1.3c0.7-1.5,1.8-4.1,3.4-7.8
c1.9-4.6,3.5-7.4,4.7-8.8c0,1.6,0.5,3.9,1.4,6.6c1.1,3.1,1.7,5.4,1.9,6.7c-2.7,0.5-4.5,0.9-5.4,1.2c-1.6,0.5-3.1,1.4-4.5,2.7c-1.6,1.6-2.1,3.6-1.3,6.1c0.5,1.5,1.4,2.8,2.7,4.1c2.1,2,5.4,1.7,10.3,0.8c9.8-1.9,17.5-27.9,18.3-30.1c-1.9,8.4-2.5,14.4-1.8,18c0.2,1.4,1.1,2.7,2.6,3.5c1.6,1.1,3.6,1.7,5.4,0.7c8.5-4.9,18.9-27.8,19.8-30.2c-1,7-1.6,11.2-1.7,12.6c-0.2,2.6,0,4.8,0.6,6.7c0.3,0.9,0.9,1.7,2,2.4c1.3,0.9,2.7,1.1,4.2,0.6c2.2-0.7,5.1-3.7,8.6-8.9c3.2-4.8,8.3-17.6,9.9-21.7c-1.3,8.1-2.1,13.2-2.4,15.3c0,0.2-0.3,1.5-0.9,3.9c-0.4,1.6-0.4,2.8-0.2,3.6c0.6,1.8,1.8,2.5,3.6,1.9c1.3-0.4,2.7-1.6,4.1-3.4c1.4-1.8,2.4-3.8,3.1-5.9
c0.7-2.1,2-5.5,3.9-10.1c1.7-4.1,2.9-6.8,3.6-8.1c0.7-1.3,1.4-2.1,2.3-2.3c0.4-0.1,0.6,0,0.6,0.2c0.1,0.2,0.1,0.6,0,1c-2,10.7,1.9,20,3.9,22.8l0,0c-2.4,0.8-4.8,1.7-7,2.7c-10,4.7-187.5,65.2-160.5,56.7c34.2-10.7,27.3,12.7,33.3,6.8c12.4-12.4,115.6-55.2,135.7-64.1c0.2-0.1,0.3-0.2,0.5-0.2c6.5,4.7,24.6,12.9,24.6,0.9C256,102.8,247,101.7,236.9,103.5zM71.1,116.3c-4.2,1.4-5.5,1.6-10.6,2.4c1.4-4.5,14.9-28.2,18.8-30.7c0.9-0.6,1.7-0.9,2.3-1.1c1.1-0.3,1.8-0.2,2,0.6c0.2,0.7,0.1,1.8-0.5,3.4C81.7,94.8,71.7,113.7,71.1,116.3z M135.1,127.3c-0.3,0.1-0.7,0.2-1.1,0.1c-1.1-0.2-1.8-0.8-2.1-1.6c-0.2-0.7,0-1.4,0.6-2.2c0.4-0.5,2.3-1,5.7-1.7C137.8,125,136.8,126.8,135.1,127.3z M249.2,109.7c-0.5,0-5-1.1-9.4-3.9C246.6,106.1,251.3,109.5,249.2,109.7z"/>
</svg>