<?xml version="1.0" encoding="utf-8"?>
<!-- Generator: Adobe Illustrator 24.0.0, SVG Export Plug-In . SVG Version: 6.00 Build 0)  -->
<svg version="1.1" id="Layer_1" xmlns="http://www.w3.org/2000/svg" xmlns:xlink="http://www.w3.org/1999/xlink" x="0px" y="0px"
	 viewBox="0 0 256 256" style="enable-background:new 0 0 256 256;" xml:space="preserve">
<style type="text/css">
	.st0{fill:#8699A3;}
</style>
<g>
	<path class="st0" d="M0.69,95.05c0.26,0.14,2.34,1.19,3.05,1.57c0.71,0.39,3.66,1.86,3.66,1.86s-0.03,0.13-0.04,0.27
		c-0.06,0.13-0.25,1.1-0.37,1.69c-0.13,0.61-0.38,1.86-0.45,2.16c-0.05,0.31-0.1,0.71,0.28,0.88c0.38,0.18,2.23,1.07,3.01,1.42
		c0.79,0.34,3.82,1.74,3.82,1.74s-0.03,0.87,0.03,1.25c0.01,0.42,0.15,1.81,0.21,2.12c0.06,0.34,0.04,0.93,0.51,1.23
		c0.46,0.3,1.26,0.61,2.09,0.88c0.85,0.23,1.18,0.35,2.4,0.68c1.22,0.33,2.76,0.73,2.76,0.73s0.15,0.84,0.41,1.85
		c0.23,0.99,0.45,2.15,0.73,2.75c0.28,0.57,0.55,0.7,0.88,0.87c0.33,0.14,1.79,0.41,2.36,0.52c0.56,0.13,1.77,0.31,2.62,0.43
		c0.83,0.1,2.72,0.28,2.72,0.28s0.1,0.19,0.19,0.36c0.07,0.19,0.81,1.27,1.19,1.79c0.36,0.56,0.74,1.14,1.15,1.57
		c0.4,0.43,0.64,0.83,1.1,0.98c0.45,0.18,2.14,0.48,3.27,0.66c1.1,0.15,3.12,0.4,4.09,0.5c0.98,0.11,2.84,0.13,2.84,0.13
		s0.17,0.73,0.4,1.36c0.24,0.63,0.4,1.02,1,1.8c0.61,0.8,1.02,0.91,1.64,1.05c0.64,0.1,2.21,0.24,2.77,0.24
		c0.59,0.03,3.46,0.04,4,0.04c0.55,0,2.62-0.04,2.62-0.04s0.09,0.33,0.19,0.58c0.11,0.26,0.65,1.28,0.87,1.58
		c0.26,0.38,0.45,0.68,0.98,1.15c0.53,0.46,0.93,0.65,1.51,0.72c0.6,0.09,1.75-0.05,2.75-0.17c1-0.09,2.66-0.43,3.37-0.61
		c0.7-0.16,2.53-0.61,2.53-0.61s0.39,0.75,0.78,1.3c0.4,0.58,0.77,0.98,1.05,1.22c0.29,0.21,0.5,0.43,1.69,0.5
		c1.19,0.08,2.49-0.32,3.64-0.58c1.15-0.26,2.83-0.82,2.83-0.82s0.03,0.21,0.16,0.71c0.16,0.45,0.66,1.79,1.24,3.24
		c0.58,1.44,1.05,2.43,1.7,3.63c0.63,1.19,1.3,2.36,2.2,3.59c0.9,1.22,1.97,2.52,2.64,3.27c0.67,0.76,3.51,3.56,4.35,4.3
		c0.83,0.73,2.96,2.28,3.89,2.93c0.92,0.63,2.48,1.57,3.4,2.08c0.92,0.5,3.14,1.59,4.18,2.05c0.95,0.45,2.42,1.02,2.42,1.02
		s0.29,0.61,0.47,1.05c0.17,0.43,1.07,2.12,1.2,2.35c0.06,0.19,0.42,0.24,0.66,0.19c0.23-0.05,1.54-0.56,1.98-0.74
		c0.44-0.2,1.67-0.65,1.67-0.65s0.64,1,0.94,1.44c0.28,0.4,0.98,1.4,1.08,1.6c0.12,0.17,0.43,0.17,0.58,0.13
		c0.15-0.08,0.95-0.59,1.52-0.88c0.54-0.27,1.89-0.99,1.89-0.99s0.68,0.82,0.87,1.07c0.23,0.26,1.32,1.52,1.46,1.72
		c0.15,0.19,0.4,0.23,0.58,0.12c0.19-0.08,1.19-0.87,1.58-1.16c0.38-0.26,1.54-1.1,1.54-1.1s0.93,0.95,1.27,1.27
		c0.39,0.38,1.32,1.24,1.54,1.34c0.23,0.11,0.38-0.02,0.38-0.02s0.2-0.17,0.3-0.28c0.1-0.13,0.9-0.87,1.23-1.21
		c0.33-0.3,1.24-1.19,1.24-1.19s0.25,0.23,0.5,0.38c0.27,0.16,1.05,0.8,1.54,1.14c0.45,0.37,0.88,0.7,1.1,0.77
		c0.19,0.1,0.35,0.12,0.45,0.02c0.09-0.07,1.07-1.2,1.37-1.61c0.37-0.5,1.06-1.33,1.06-1.33s1.22,0.68,1.51,0.87
		c0.29,0.14,1.71,0.95,1.86,0.99c0.18,0.06,0.43,0.13,0.57-0.01c0.12-0.1,0.83-1.19,1.09-1.57c0.24-0.41,0.98-1.49,0.98-1.49
		s1.09,0.45,1.57,0.65c0.49,0.18,1.81,0.68,2.08,0.78c0.26,0.06,0.51,0.01,0.65-0.18c0.11-0.17,0.65-1.2,0.93-1.81
		c0.29-0.68,0.84-1.72,0.84-1.72s1.39-0.55,2.57-1.08c1.19-0.57,3.95-2.03,5.45-2.96c1.51-0.92,3.44-2.34,4.53-3.19
		c1.07-0.88,3.07-2.67,3.53-3.13c0.48-0.49,1.22-1.29,1.74-1.83c0.55-0.51,2.73-3.25,3.26-4.05c0.46-0.65,1.92-3.05,2.21-3.6
		c0.31-0.6,1.2-2.46,1.39-2.9c0.19-0.45,0.87-2.46,0.87-2.46s0.53,0.24,1.15,0.43c0.65,0.2,1.4,0.42,2.01,0.5
		c0.61,0.1,1.1,0.14,1.39,0.1c0.3-0.05,0.9-0.45,1.25-0.71c0.34-0.26,0.78-0.79,1.05-1.1c0.27-0.37,0.65-1.12,0.65-1.12
		s0.4,0.15,0.74,0.25c0.3,0.1,1.73,0.5,2.31,0.67c0.55,0.13,1.86,0.43,2.45,0.51c0.6,0.07,1.31,0.24,2.03,0.14
		c0.7-0.09,1.13-0.62,1.5-0.95c0.31-0.26,0.78-0.98,0.99-1.38c0.23-0.36,0.51-1.22,0.51-1.22s0.44,0.2,0.88,0.34
		c0.41,0.13,1.94,0.43,2.7,0.52c0.75,0.11,2.33,0.21,3.07,0.23c0.71,0.02,1.47-0.04,2.06-0.11c0.62-0.07,0.73-0.26,1.07-0.58
		c0.3-0.27,0.55-0.7,0.71-1.06c0.19-0.34,0.5-1.13,0.65-1.62c0.13-0.46,0.35-1.3,0.35-1.3s0.76-0.02,1.22,0
		c0.5,0.01,1.88,0.03,2.58,0.03c0.71,0,3.35-0.08,3.77-0.09c0.42-0.03,1.07-0.06,1.77-0.2c0.68-0.13,0.89-0.4,1.13-0.63
		c0.23-0.23,0.5-0.62,0.73-1.14c0.2-0.55,0.4-1.25,0.45-1.54c0.07-0.28,0.26-1.42,0.26-1.42s0.38,0.1,0.83,0.15
		c0.59,0.05,1.47,0.15,2.27,0.21c0.84,0.04,2.48,0.04,3.03,0.04c0.55,0,1.69-0.04,1.93-0.13c0.23-0.07,0.73-0.4,1.04-0.68
		c0.3-0.26,0.92-0.96,1.27-1.45c0.32-0.5,0.82-1.46,0.99-1.91c0.18-0.45,0.58-1.93,0.58-1.93s0.53-0.01,1.07-0.05
		c0.53-0.05,2.09-0.22,2.89-0.3c0.83-0.11,1.67-0.29,2.34-0.43c0.65-0.16,0.92-0.37,1.3-0.69c0.37-0.32,0.73-1.02,0.87-1.42
		c0.14-0.4,0.31-1.32,0.36-1.86c0.06-0.53,0.1-1.7,0.1-1.7s0.33,0,0.73-0.01c0.38-0.06,1.32-0.2,1.99-0.34
		c0.68-0.11,2.03-0.53,2.38-0.71c0.38-0.18,0.95-0.5,1.2-0.8c0.26-0.36,0.66-1.07,0.8-1.61c0.16-0.61,0.16-1.31,0.19-1.93
		c0.03-0.58-0.05-1.57-0.05-1.57s1.29-0.33,1.96-0.51c0.71-0.18,2.28-0.86,2.7-1.02c0.4-0.16,1.48-0.8,1.57-0.85
		c0.09-0.06,0.04-0.84,0.04-1.19c0-0.34-0.29-1.45-0.48-2.01c-0.18-0.52-0.72-1.78-0.72-1.78s1.8-0.77,2.49-1.03
		c0.7-0.29,2.82-1.37,3.02-1.5c0.2-0.09,0.34-0.19,0.51-0.4c0.16-0.19,0.59-0.95,0.68-1.1c0.06-0.14-0.05-0.26-0.29-0.51
		c-0.23-0.28-0.85-1.12-1.45-1.83c-0.64-0.7-2.14-2.13-2.31-2.23c-0.16-0.14-0.56-0.14-1.54-0.06c-0.86,0.06-6.02,0.47-8.4,0.71
		c-2.39,0.28-7.18,0.47-8.56,0.5c-1.44,0.05-6-0.16-8.2-0.28c-2.16-0.1-13-0.75-15.46-0.74c-2.47,0.06-14.45,0.59-16.47,0.71
		c-1.99,0.1-8.9,0.4-11.03,0.43c-3.21,0.04-6.29-0.33-7.6-0.48c-1.31-0.15-5.98-0.61-7.94-0.66c-1.98-0.03-3.25,0.11-4.83,0.23
		c-1.61,0.12-4.4,0.56-6.24,0.95c-1.8,0.38-3.95,1.04-3.95,1.04s-2.94-1.34-4.32-1.88c-1.4-0.55-5.01-1.65-8.19-2.34
		c-3.17-0.7-7.76-1.07-11-1.07c-3.23,0-6.51,0.37-9.57,0.87c-3.04,0.45-7.04,1.57-8.58,2.09c-1.52,0.51-4.5,1.69-4.5,1.69
		s-1.8-0.57-3.37-0.8c-1.56-0.28-8.53-0.72-10.74-0.72c-2.21,0-13.39,0.48-15.74,0.57c-2.35,0.06-9.43-0.29-12.01-0.45
		c-2.59-0.13-13.01-0.52-15.26-0.5c-2.26,0.03-11.57,0.17-13.18,0.27c-1.64,0.11-8.91,0.53-9.9,0.53c-0.97,0-5.55,0-7.31,0
		c-1.72,0-6.12-0.2-7.11-0.32c-1-0.1-4.71-0.5-5.07-0.53c-0.33-0.04-0.75,0.05-1.12,0.42c-0.35,0.36-0.76,0.83-1.3,1.44
		C1.9,91.16,0,93.39,0,93.39s0.07,0.26,0.19,0.7C0.3,94.54,0.42,94.88,0.69,95.05z M14.28,103.76c-0.31-0.14-2.38-1.05-2.95-1.32
		c-0.59-0.27-1.59-0.67-1.78-0.92c-0.19-0.23-0.09-0.58-0.09-0.88c0-0.3-0.01-0.68-0.34-0.96c-0.34-0.28-0.76-0.58-0.76-0.58
		l0.14-0.67c0,0,1.83-0.01,2.4,0.03c0.57,0.03,3.95,0.15,5.13,0.15c1.17,0,4.85,0.11,5.74,0.08c0.88-0.05,5.85,0.08,6.92,0.08
		c1.07,0,6.27,0.03,7.34,0.03c1.07,0.04,7.02,0.05,7.94,0.05c0.92,0,5.82,0,6.95,0.03c1.14,0.01,6.06-0.03,7.16-0.03
		c1.1,0,3.95,0.04,4.57,0.03c0.61-0.03,1.1-0.05,1.24-0.1c0.11-0.04,0.52-0.23,0.75-0.1c0.26,0.13,0.36,0.38,0.46,0.53
		c0.11,0.12,0.33,0.32,0.45,0.39c0.13,0.1,0.4,0.21,0.55,0.45c0.17,0.23,0.17,0.23,0.42,0.42c0.25,0.2,0.31,0.28,0.21,0.4
		c-0.09,0.11-0.46,0.58-0.63,0.85c-0.15,0.24-0.22,0.5-0.3,0.58c-0.1,0.08-0.64,0.15-0.64,0.15s0.32-0.26,0.28-0.47
		c-0.06-0.2-0.43-0.72-1.2-0.77c-0.81-0.04-2.73,0.12-3.61,0.22c-0.87,0.1-6.66,0.6-7.66,0.69c-1.03,0.1-9.03,0.66-10.4,0.78
		c-1.37,0.1-7.7,0.48-8.91,0.55c-1.22,0.1-5.98,0.33-7.44,0.42c-1.47,0.11-4.87,0.24-6.17,0.31c-1.27,0.05-3.83,0.11-4.32,0.05
		C15.25,104.18,14.62,103.9,14.28,103.76z M95.1,134.63c0.07,0.19,0.15,0.36,0.03,0.41c-0.19,0.08-0.58,0.35-0.7,0.4
		c-0.14,0.06-0.44,0.05-0.62-0.22c-0.1-0.18-0.58-0.21-0.92-0.51c-0.37-0.25-0.34-0.45-0.32-0.75c0.01-0.29,0.18-1.37,0.1-1.63
		c-0.1-0.21-0.32-0.7-0.32-0.7s0.54-1.29,0.67-1.52c0.15-0.23,0.31-0.61,0.31-0.61s0.13,0.66,0.28,0.99c0.13,0.3,0.45,0.65,0.55,1
		c0.08,0.25,0.62,1.64,0.71,1.88c0.1,0.2,0.26,0.55,0.2,0.77C95.01,134.31,95.03,134.47,95.1,134.63z M89.39,120.68
		c-0.29-0.52-0.48-0.55-0.71-0.62c-0.27-0.07-0.36,0.03-0.72-0.16c-0.4-0.2-0.59-0.6-0.83-0.65c-0.25-0.04-0.21-0.08-0.41,0
		c-0.3,0.15-0.49,0.04-0.49,0.04s1.19-1.1,1.78-1.69c0.56-0.58,1.69-1.68,2.19-2.16c0.48-0.51,1.37-1.35,1.37-1.35
		s0.19,0.3,0.6,0.33c0.42,0.04,0.82,0.09,1.12,0.1c0.32,0.04,0.85,0.04,1-0.11c0.16-0.18,0.39-0.23,0.39-0.23s-0.26,0.34-0.56,0.75
		c-0.34,0.42-1.2,1.64-1.69,2.37c-0.48,0.76-1.59,2.38-1.77,2.68c-0.19,0.31-0.6,0.95-0.74,1.17c-0.12,0.13-0.28,0.37-0.28,0.37
		S89.66,121.16,89.39,120.68z M88.77,106.76c0,0-0.92,0.72-1.24,1.02c-0.31,0.32-0.85,0.81-0.97,0.88c-0.14,0.07-0.6-0.18-0.9-0.33
		c-0.29-0.12-0.96-0.32-1.2-0.34c-0.27-0.02-0.46-0.02-0.46-0.02s0.66-0.59,1.12-0.95c0.44-0.36,1.29-0.92,1.67-1.23
		c0.43-0.26,0.73-0.47,0.84-0.51c0.13-0.01,0.27,0.06,0.37,0.14c0.06,0.09,0.33,0.09,0.4,0.27c0.06,0.23,0,0.43,0.06,0.54
		c0.09,0.14,0.26,0.09,0.31,0.2C88.8,106.55,88.77,106.76,88.77,106.76z M88.78,107.63c0.32-0.25,0.92-0.71,0.92-0.71
		s0.28,0.03,0.25,0.2c-0.06,0.16,0.16,0.2,0.26,0.2c0.14,0,0.46-0.09,0.55-0.06c0.1,0.06,0.23,0.12,0.23,0.3
		c0,0.2,0.01,0.36,0.1,0.39c0.06,0.02,0.25-0.03,0.26,0.06c0.02,0.09,0.04,0.19,0.04,0.19s-1.02,1.04-1.45,1.41
		c-0.43,0.43-1.11,1.12-1.19,1.23c-0.09,0.11-0.15,0.2-0.15,0.2s-0.15-0.41-0.53-0.74c-0.34-0.31-0.5-0.43-0.83-0.51
		c-0.37-0.1-0.68-0.1-0.68-0.1s0.78-0.73,1.17-1.07C88.11,108.26,88.5,107.89,88.78,107.63z M86.42,104.21
		c-0.14,0.23-0.22,0.43-0.61,0.82c-0.45,0.43-0.79,0.61-1.06,0.86c-0.28,0.24-0.68,0.57-0.9,0.61c-0.21,0.04-0.56-0.16-0.75-0.2
		c-0.17-0.04-0.71-0.24-0.85-0.33c-0.14-0.09-0.35-0.16-0.51-0.15c-0.16,0.02-0.64,0.12-0.64,0.12l0.01-0.36c0,0,1.1-0.6,1.48-0.82
		c0.34-0.23,1.53-0.78,2.01-1.08c0.53-0.26,1.07-0.46,1.36-0.45c0.3,0.04,0.55,0.14,0.58,0.26
		C86.58,103.66,86.56,103.98,86.42,104.21z M84.59,101.95c-0.2,0.1-1.35,0.75-1.79,0.93c-0.43,0.19-1.4,0.67-1.69,0.7
		c-0.3,0.01-0.61-0.06-0.91-0.16c-0.27-0.07-0.4-0.13-0.53-0.14c-0.15-0.01-0.47,0-0.47,0s0.04-0.1,0.04-0.19
		c0-0.09,0.04-0.23,0.04-0.23s0.97-0.53,1.78-0.87c0.83-0.34,2.47-0.94,2.82-1.02c0.36-0.08,0.72-0.22,0.92-0.08
		c0.2,0.11,0.37,0.21,0.31,0.36C85.08,101.41,84.8,101.83,84.59,101.95z M84.25,98.95c-0.1,0.06-0.12,0.13-0.32,0.33
		c-0.2,0.25-0.39,0.48-0.6,0.58c-0.23,0.08-0.77,0.21-1.4,0.4c-0.62,0.14-1.59,0.46-1.94,0.53c-0.33,0.13-0.43,0.22-0.97,0.13
		c-0.55-0.13-0.72-0.17-0.95-0.22c-0.24-0.05-0.25,0-0.39,0.05c-0.12,0.04-0.18,0-0.18,0v-0.25c0-0.1,0.01-0.19,0.01-0.19
		s1.01-0.45,1.71-0.69c0.76-0.23,2.06-0.55,2.68-0.68c0.59-0.1,1.03-0.3,1.25-0.21c0.24,0.06,0.54,0.06,0.71,0.06l0.31-0.05
		C84.18,98.72,84.33,98.9,84.25,98.95z M78.01,102.45c0.34,0.14,0.67,0.29,0.71,0.49c0.06,0.24-0.06,0.55-0.2,0.72
		c-0.11,0.2-0.14,0.36-0.17,0.5c-0.06,0.15-0.06,0.43-0.06,0.43s-0.2,0.17-0.43,0.2l-0.36,0.1c0,0,0.02-0.25-0.14-0.43
		c-0.16-0.18-0.62-0.37-0.92-0.28c-0.31,0.1-1.49,0.58-1.95,0.77c-0.45,0.2-1.76,0.8-2.18,0.98c-0.45,0.19-0.75,0.34-1.2,0.29
		c-0.45-0.09-0.84-0.12-1.19-0.29c-0.34-0.16-0.8-0.4-0.95-0.44c-0.17-0.04-0.49-0.1-0.49-0.1s0.05-0.3,0.22-0.45
		c0.15-0.13,0.58-0.21,0.8-0.35c0.22-0.1,0.9-0.31,1.61-0.57c0.7-0.26,2.04-0.65,2.58-0.8c0.58-0.19,1.79-0.55,2.09-0.69
		c0.33-0.11,0.71-0.37,1.01-0.34C77.11,102.19,77.68,102.33,78.01,102.45z M71.32,108.52l1.54-0.73c0.52-0.25,2.53-1.15,3.15-1.47
		c0.61-0.29,1.62-0.77,1.84-0.84c0.22-0.1,0.45-0.26,0.71-0.3c0.24-0.01,0.83,0.14,1.16,0.2c0.33,0.07,0.78,0.13,0.88,0.3
		c0.12,0.21,0.17,0.64,0.12,0.75c-0.06,0.13-0.18,0.55-0.16,0.7c0.01,0.19,0.06,0.6,0.06,0.6l-0.46,0.22
		c-0.24,0.15-0.54,0.26-0.54,0.26s-0.08-0.26-0.29-0.43c-0.2-0.18-0.56-0.28-0.86-0.18c-0.19,0.06-1.37,0.73-1.83,1.02
		c-0.41,0.28-1.54,0.99-1.7,1.07c-0.2,0.11-0.35,0.35-0.92,0.3c-0.54-0.04-0.79-0.11-1.06-0.24c-0.26-0.13-0.83-0.53-0.98-0.64
		c-0.15-0.1-0.71-0.24-0.71-0.4C71.27,108.55,71.32,108.52,71.32,108.52z M76.42,110.86c0.67-0.4,2.3-1.3,2.93-1.67
		c0.63-0.33,1.25-0.82,1.59-0.87c0.31-0.04,1.14-0.03,1.56-0.03c0.43,0,0.71,0,0.75,0.21c0.04,0.21-0.03,0.4-0.06,0.6
		c-0.03,0.16,0,0.68,0,0.68l-3.14,2.48c-0.51,0.38-1.72,1.45-1.78,1.47c-0.09,0.02-0.49-0.3-0.97-0.49
		c-0.49-0.2-0.77-0.23-0.98-0.26c-0.18-0.02-0.5-0.18-0.81-0.32c-0.29-0.13-0.39-0.19-0.61-0.24c-0.21-0.04-0.66,0.15-0.66,0.15
		l-0.06-0.29C74.18,112.28,75.74,111.28,76.42,110.86z M79.3,113.88c0.55-0.5,2.21-1.84,2.65-2.2c0.44-0.36,1.54-1.22,1.71-1.35
		c0.16-0.14,0.33-0.15,0.53-0.15c0.2,0,0.69-0.14,0.9-0.14c0.22,0,0.61-0.04,0.66,0.26c0.01,0.29,0.17,0.85,0.15,1.07
		c-0.03,0.21,0,0.47,0.06,0.59c0.09,0.15,0.16,0.23,0.16,0.23s-0.19,0.2-0.49,0.5c-0.32,0.28-1.25,1.19-1.67,1.59
		c-0.44,0.4-1.27,1.22-1.57,1.53c-0.32,0.34-0.8,0.81-0.8,0.81s-0.12-0.48-0.4-0.73c-0.27-0.23-0.95-0.37-1.34-0.37
		c-0.42-0.02-0.93-0.41-1.13-0.46c-0.2-0.05-0.43,0.06-0.43,0.06s-0.25,0.09-0.33-0.11C77.96,115.02,78.77,114.33,79.3,113.88z
		 M84.08,115.21c0.4-0.42,1.8-1.72,2.14-2.06c0.32-0.31,0.59-0.65,0.95-0.83c0.39-0.12,0.83-0.35,1.01-0.27
		c0.2,0.07,0.34,0.32,0.45,0.61c0.09,0.3,0.36,0.68,0.87,0.87c0.51,0.15,0.81,0.2,1.07,0.18c0.23-0.02,0.36-0.03,0.36-0.03
		s-0.53,0.52-0.8,0.79c-0.25,0.28-1.07,1.07-1.54,1.5c-0.47,0.43-1.69,1.68-2.02,1.98c-0.36,0.34-0.84,0.75-0.84,0.75
		s-0.01-0.34-0.26-0.57c-0.36-0.33-0.78-0.29-1.19-0.27c-0.39,0.02-0.64-0.08-0.89-0.3c-0.24-0.19-0.43-0.4-0.55-0.41
		c-0.12-0.02-0.42,0.13-0.48,0.17c-0.07,0.04-0.4,0.04-0.4,0.04L84.08,115.21z M92.39,112.42l0.12-0.19c0,0,0.62-0.75,1.14-1.3
		l1.27-1.36c0.24-0.25,0.37-0.45,0.37-0.45s-0.34,0.83-0.41,1.17c-0.09,0.35-0.17,1.05-0.17,1.37c0,0.31-0.12,0.62-0.21,1.03
		c-0.06,0.36-0.06,0.71-0.06,0.71s-0.25,0.18-0.44,0.25c-0.18,0.09-0.4,0.26-0.4,0.26s-0.04-0.57-0.26-0.87
		c-0.21-0.29-0.31-0.34-0.5-0.45C92.67,112.47,92.39,112.42,92.39,112.42z M90.38,123.94c0.11,0,0.71-0.05,1.2-0.15
		c0.48-0.08,1.24-0.25,1.42-0.21c0.18,0.08,0.18,0.21,0.2,0.38c0.01,0.15,0.03,1.71,0.04,2.22c0.02,0.52,0.02,1.63-0.08,2.02
		c-0.1,0.42-1.3,2.73-1.59,3.39c-0.26,0.63-1.04,2.05-1.15,2.31c-0.13,0.31-0.19,0.36-0.28,0.46c-0.1,0.1-0.3-0.24-0.58-0.59
		c-0.4-0.49-0.82-0.41-1.24-0.31c-0.42,0.1-2.78,0.75-3.17,0.82c-0.43,0.1-1.14,0.28-1.53,0.24c-0.38-0.09-0.56-0.33-0.75-0.65
		c-0.19-0.32-0.4-0.5-0.67-0.5c-0.28,0-0.5-0.08-0.5-0.08s2.19-2.33,2.67-2.83c0.49-0.5,3.13-3.34,3.7-3.97
		c0.56-0.61,1.52-1.76,1.76-2.06C90.08,124.12,90.27,123.94,90.38,123.94z M93.6,121.59c-0.16,0.34-0.28,0.56-0.3,0.69l-0.07,0.41
		c0,0-0.27,0.2-0.4,0.25l-0.38,0.09v-0.35c0-0.11-0.24-0.4-0.37-0.66c-0.14-0.24-0.27-0.54-0.12-1.04c0.14-0.47,0.38-1.05,0.53-1.47
		c0.2-0.4,0.34-0.81,0.63-1.49c0.28-0.68,0.51-1.22,0.87-1.71c0.35-0.52,0.5-0.78,0.65-0.98c0.16-0.21,0.36-0.28,0.36-0.28
		s0.14,0.24,0.28,0.43c0.14,0.18,0.35,0.38,0.31,0.52c-0.05,0.16-0.7,1.45-0.85,1.81c-0.13,0.35-0.6,1.87-0.71,2.33
		C93.89,120.59,93.74,121.26,93.6,121.59z M95.03,108.32c-0.43,0.5-1.85,2.03-2.4,2.7c-0.57,0.68-1.02,1.22-1.2,1.39
		c-0.25,0.26-0.44,0.55-0.44,0.55h-0.17c0,0,0.2-0.3,0.15-0.63c-0.05-0.27-0.3-0.77-0.56-0.91c-0.26-0.13-0.33-0.18-0.51-0.13
		c-0.16,0.07-0.31,0.13-0.45,0.17c-0.13,0.03-0.23,0.04-0.23,0.04s0.64-0.71,0.94-1.01c0.29-0.32,1.07-1.02,1.35-1.29
		c0.27-0.28,0.53-0.45,0.64-0.45c0.1,0,0.56,0.17,0.88,0.06c0.31-0.16,0.87-0.7,0.92-1.11c0.02-0.42-0.18-0.82-0.45-1.02
		c-0.27-0.2-0.67-0.36-0.92-0.35c-0.27,0.03-0.6,0.09-0.85,0.23c-0.19,0.08-0.38,0.11-0.38,0.11s0.02-0.2,0.05-0.5
		c0.04-0.32-0.11-0.62-0.28-0.85c-0.16-0.28-0.51-0.49-0.92-0.55c-0.38-0.04-0.56,0.06-0.71-0.04c-0.16-0.1-0.04-0.34-0.17-0.65
		c-0.12-0.29-0.32-0.7-0.68-0.84c-0.4-0.14-0.72-0.21-0.92-0.21c-0.17,0-0.17-0.12-0.17-0.35c0-0.33-0.09-0.96-0.27-1.12
		c-0.18-0.17-0.6-0.47-0.85-0.5C86.18,101,86,100.95,86,100.8c0-0.12,0.17-0.45,0.17-0.74c0-0.29-0.04-0.71-0.41-0.94
		c-0.32-0.25-0.7-0.35-0.87-0.61c-0.14-0.22-0.39-0.49-0.45-0.5c-0.08-0.02-0.39-0.02-0.6,0c-0.21,0.01-0.75,0.11-1.12,0.18
		c-0.38,0.06-0.58,0.16-0.78,0.1c-0.2-0.07-0.64-0.21-0.93-0.21c-0.28,0-0.99,0.03-1.45,0.08c-0.49,0.05-0.97,0.1-1.35,0.09
		c-0.38-0.03-0.64-0.14-0.96-0.27c-0.31-0.14-0.41-0.19-0.58-0.29c-0.19-0.11-0.28-0.21-0.28-0.21s0.03-0.15,0.05-0.27
		c0.04-0.12,0.13-0.27,0.13-0.27s1.42-0.06,2.47-0.1c1.03-0.01,2.33,0,3.02,0.12c0.7,0.08,1.85,0.16,2.27,0.13
		c0.43-0.01,1.09-0.08,2.16-0.05c1.05,0.05,2.94,0.12,4.2,0.29c1.23,0.19,2.38,0.44,3.41,0.8c1.02,0.34,2.89,1.13,3.49,1.84
		c0.6,0.72,1.03,1.29,0.98,2.2c-0.09,0.92-0.46,1.86-0.73,2.43c-0.3,0.57-1.01,1.79-1.14,1.99
		C96.56,106.83,95.47,107.82,95.03,108.32z M76.77,99.82c0.2,0.15,0.42,0.43,0.35,0.57c-0.07,0.16-0.15,0.26-0.26,0.41
		c-0.1,0.16-0.07,0.24-0.1,0.38c-0.04,0.17-0.04,0.43-0.04,0.43s-0.55,0.19-0.64,0.19c-0.1,0-0.24,0.05-0.24,0.05
		s0.14-0.39,0.04-0.45c-0.11-0.06-0.51-0.35-0.91-0.36c-0.39-0.06-1.56,0.26-1.93,0.38c-0.38,0.15-1.82,0.54-2.35,0.71
		c-0.55,0.15-1.04,0.4-1.47,0.37c-0.44-0.06-0.82-0.24-1.21-0.43c-0.36-0.16-0.45-0.25-0.58-0.31c-0.11-0.09-0.4-0.24-0.4-0.24
		s0.31-0.46,0.44-0.55c0.1-0.06,0.92-0.33,1.25-0.41c0.32-0.11,1.86-0.48,2.55-0.62c0.69-0.18,2.02-0.4,2.63-0.58
		c0.62-0.16,1.2-0.38,1.4-0.38c0.17,0,0.47,0.09,0.67,0.26C76.17,99.36,76.56,99.66,76.77,99.82z M75.83,97.33
		c-0.1,0.14-0.24,0.48-0.31,0.7c-0.1,0.23-0.03,0.48-0.16,0.49c-0.13,0.05-0.72,0.13-0.72,0.13s0.1-0.26-0.05-0.39
		c-0.19-0.1-0.59-0.25-0.93-0.23c-0.35,0-2.08,0.18-2.63,0.23c-0.53,0.06-2.09,0.26-2.39,0.31c-0.32,0.05-0.65,0-0.88-0.09
		c-0.24-0.09-1.07-0.45-1.32-0.6c-0.23-0.19-0.35-0.27-0.43-0.29l-0.36-0.07l0.16-0.45c0.07-0.14,0.2-0.36,0.2-0.36s3.42,0,4.42,0
		c0.99,0.03,3.9,0.03,4.18,0.03c0.33,0,0.73,0.14,0.87,0.15l0.31,0.04C75.78,96.92,75.94,97.25,75.83,97.33z M19.32,110.04
		c-0.94-0.23-2.37-0.64-2.6-0.87c-0.25-0.25-0.37-0.5-0.43-0.78c-0.08-0.29-0.54-0.91-0.78-1.01c-0.21-0.12-0.78-0.43-0.78-0.43
		v-0.52c0,0,0.87,0,1.31-0.06c0.46-0.09,2.26-0.09,3.46-0.14c1.21-0.05,5.89-0.25,7.36-0.34c1.53-0.1,8.21-0.45,9.47-0.53
		c1.24-0.1,10.07-0.7,11.31-0.82c1.23-0.1,8.53-0.68,9.65-0.78c1.14-0.1,4.97-0.47,6.32-0.58c1.38-0.1,1.56-0.29,1.8-0.3
		c0.21-0.03,0.38-0.15,0.6,0.1c0.22,0.26,0.68,0.75,0.93,0.93c0.29,0.19,1.13,0.74,1.15,1.01c0,0.26-0.23,0.62-0.39,0.87
		c-0.1,0.25-0.1,0.77-0.1,0.77l-0.88,0.17c0,0,0.08-0.21,0.1-0.34c0-0.11-0.13-0.49-0.49-0.61c-0.36-0.18-0.97-0.23-1.59-0.13
		c-0.58,0.13-3.31,0.6-4.43,0.78c-1.1,0.19-7.52,1.27-9.1,1.49c-1.56,0.27-7.75,1.24-9.21,1.42c-1.47,0.24-7.16,0.96-9.16,1.14
		c-2.01,0.23-4.42,0.45-5.73,0.52c-1.35,0.08-2.73,0.2-3.7,0.1C22.42,110.96,20.27,110.29,19.32,110.04z M28.69,117.23
		c-1.09-0.16-2.29-0.4-2.7-0.48c-0.43-0.05-0.81-0.15-1.02-0.64c-0.18-0.5-0.14-0.87-0.46-1.2c-0.3-0.35-0.69-0.7-0.95-0.82
		c-0.25-0.08-0.64-0.07-0.7-0.2c-0.09-0.24-0.07-0.54-0.07-0.54s0.37,0.05,0.77,0c0.39-0.03,0.73-0.21,1.2-0.24
		c0.47-0.02,1.89-0.08,2.68-0.12c0.77-0.02,3.05-0.25,3.86-0.32c0.8-0.06,4.59-0.45,5.85-0.61c1.23-0.17,8-1.12,9.13-1.3
		c1.11-0.15,6.78-1,8.32-1.27c1.54-0.26,6.72-1.2,8.04-1.44c1.34-0.24,2.94-0.5,3.54-0.63c0.59-0.14,0.98-0.4,1.32-0.33
		c0.34,0.1,0.66,0.36,1.09,0.56c0.4,0.18,1.05,0.4,1.39,0.52c0.36,0.12,0.68,0.32,0.72,0.44c0.03,0.13,0,0.65-0.15,0.91
		c-0.14,0.24-0.24,0.46-0.29,0.73c-0.06,0.3-0.08,0.51-0.08,0.51l-0.82,0.31c0,0,0.14-0.38,0-0.56c-0.13-0.16-0.56-0.5-0.8-0.47
		c-0.26,0.02-0.61,0.06-0.99,0.18c-0.38,0.14-5.29,1.63-6.07,1.83l-5.85,1.62c-0.73,0.23-5.35,1.36-6.64,1.63
		c-1.33,0.29-6.16,1.25-7.36,1.47c-1.19,0.23-5.73,0.8-6.89,0.87c-1.17,0.09-1.37,0.13-2.28,0.06
		C31.56,117.65,29.81,117.42,28.69,117.23z M45.58,123.57c-0.65,0.06-3.21-0.16-4.25-0.3c-1.05-0.14-4.01-0.6-4.41-0.7
		c-0.41-0.15-0.66-0.3-0.89-0.59c-0.24-0.29-0.44-0.46-0.83-0.7c-0.4-0.17-0.88-0.45-1.2-0.55c-0.32-0.13-0.47-0.19-0.7-0.29
		c-0.21-0.08-0.44-0.1-0.57-0.2c-0.13-0.08-0.17-0.24-0.17-0.24s3.31-0.34,4.05-0.46c0.75-0.11,5.83-0.82,7.05-1.06
		c1.22-0.28,6.47-1.4,7.41-1.65c0.95-0.19,6.69-1.71,7.85-2.01c1.13-0.32,4.97-1.41,6.02-1.72c1.05-0.34,4.11-1.24,4.45-1.39
		c0.34-0.16,0.69-0.4,1.04-0.36c0.33,0.03,1.34,0.34,1.69,0.45c0.38,0.11,1.31,0.27,1.49,0.44c0.16,0.15,0.24,0.3,0.19,0.55
		c-0.03,0.26-0.01,1.63,0,1.74c0.04,0.17,0.37,0.45,0.37,0.45l-0.87,0.33c-0.19,0.09-0.58,0.24-0.58,0.24s0.09-0.4,0.02-0.51
		c-0.03-0.09-0.55-0.39-0.67-0.42c-0.18-0.03-0.31,0-0.7,0.13c-0.39,0.1-1.37,0.56-1.85,0.78c-0.5,0.21-3.39,1.35-4.25,1.69
		c-0.9,0.36-4.41,1.73-5.55,2.11c-1.12,0.4-6.24,2.16-7.19,2.45c-0.93,0.28-4.29,1.23-5.09,1.45
		C46.61,123.4,46.24,123.54,45.58,123.57z M55.24,128.13c-1.05,0.03-3.16-0.04-3.83-0.07c-0.65-0.03-1.61-0.07-2.1-0.23
		c-0.5-0.23-0.59-0.49-0.89-0.84c-0.3-0.38-0.9-0.72-1.19-0.8c-0.27-0.12-0.7-0.13-0.87-0.09c-0.09,0.01-0.13-0.41-0.13-0.41
		s1.08-0.23,1.38-0.41c0.29-0.11,2.03-0.63,2.57-0.8c0.55-0.16,2.5-0.67,3.32-0.95c0.8-0.26,4.62-1.57,5.36-1.84
		c0.76-0.23,5.31-1.93,6.19-2.29c0.91-0.35,5.95-2.4,6.68-2.68c0.71-0.31,1.45-0.61,1.69-0.77c0.26-0.18,1.08-0.58,1.47-0.66
		c0.38-0.1,1.14-0.23,1.49-0.2c0.35,0,0.6-0.03,0.75,0.14c0.13,0.19,0.19,0.38,0.18,0.67c-0.03,0.27,0.08,0.93,0.38,1.18
		c0.32,0.24,0.79,0.48,1.32,0.59c0.51,0.14,1.01,0.2,1.2,0.22c0.19,0.02,0.31,0,0.31,0s-1.02,0.63-1.3,0.75l-1.34,0.66
		c0,0-0.1-0.28-0.21-0.34c-0.13-0.04-0.63-0.04-1.03-0.01c-0.38,0.06-0.8,0.19-1.17,0.39c-0.34,0.23-3.84,2.1-4.53,2.44
		c-0.68,0.37-6.03,3.14-6.76,3.48c-0.73,0.34-4.18,2.01-4.72,2.28c-0.56,0.24-0.9,0.45-1.43,0.5
		C57.52,128.1,56.31,128.12,55.24,128.13z M66.48,131.58c-1.01,0.19-3.14,0.55-3.57,0.57c-0.43,0.03-1.02,0.03-1.37-0.37
		c-0.37-0.36-0.57-0.95-1.05-1.19c-0.49-0.24-0.81-0.39-1.13-0.36c-0.65,0.1-0.7-0.13-0.7-0.13s4.16-2.11,4.78-2.35
		c0.65-0.27,6.86-3.46,7.65-3.91c0.81-0.43,5.36-2.91,6.33-3.43c0.98-0.56,2.36-1.3,2.56-1.46c0.21-0.11,0.38-0.34,0.65-0.41
		c0.28-0.1,0.45-0.13,0.45-0.13s0.4,0.51,0.6,0.77c0.24,0.27,0.72,0.75,1.27,0.83c0.55,0.08,0.82,0.09,1.16,0.06
		c0.34-0.02,0.94-0.16,0.94-0.16s-1.51,1.43-1.77,1.64c-0.28,0.23-3.58,2.94-4.23,3.53c-0.67,0.57-3.07,2.47-3.61,2.88
		c-0.54,0.45-2.28,1.75-2.65,1.94c-0.4,0.2-1.36,0.56-1.94,0.71C70.24,130.78,67.48,131.36,66.48,131.58z M81.12,132.81
		c-0.18,0.13-0.72,0.03-1.05-0.17c-0.4-0.25-0.78-0.05-1.3,0.07c-0.5,0.13-1.41,0.41-2.01,0.55c-0.52,0.13-1.99,0.46-2.37,0.46
		c-0.38,0-0.8-0.04-1.05-0.27c-0.22-0.29-0.75-0.86-1.02-0.98c-0.27-0.13-0.6-0.19-0.76-0.13c-0.14,0.1-0.71,0.45-0.83,0.19
		c0,0,2.26-1.65,2.74-2.05c0.5-0.39,2.53-2,3.05-2.44c0.58-0.43,2.97-2.38,3.68-2.97c0.74-0.6,2.92-2.45,3.49-2.95
		c0.57-0.53,1.69-1.59,1.69-1.59s0.07,0.42,0.27,0.62c0.2,0.11,0.47,0.47,0.95,0.69c0.46,0.18,1.12,0.21,1.59,0.19
		c0.48-0.01,0.92-0.06,1.1-0.06c0.2,0,0.5,0.08,0.5,0.4c0.02,0.29,0.06,0.53,0.06,0.66c0,0.17,0.04,0.29,0.04,0.29l-3.34,3.7
		c-0.65,0.73-2.53,2.75-3.13,3.37C82.83,131.01,81.29,132.66,81.12,132.81z M106.81,159.89l-0.48,0.79l-0.42-0.2
		c0,0,0.31-0.25,0.2-0.49c-0.12-0.21-0.25-0.45-0.6-0.61c-0.31-0.18-1.82-0.8-2.48-1.12c-0.66-0.3-3.51-1.85-4.53-2.5
		c-1.02-0.69-3.53-2.41-4.74-3.36c-1.15-0.97-3.72-3.46-4.57-4.41c-0.85-0.94-2.64-3.28-3.17-4.13c-0.56-0.83-2.1-3.63-2.43-4.38
		c-0.31-0.73-0.5-1.22-0.81-1.52c-0.3-0.29-0.39-0.36-0.53-0.36c-0.13-0.03-0.45-0.04-0.45-0.04s-0.1-0.24-0.26-0.74
		c-0.13-0.37-0.24-0.75-0.24-0.75s0.68,0.85,1.1,0.84c0.45-0.03,0.6-0.14,0.79-0.18c0.16-0.06,0.57-0.08,0.73,0.02
		c0.16,0.07,0.39,0.37,0.38,0.64c-0.02,0.28,0.14,0.87,0.34,1.3c0.23,0.5,1.17,2.43,1.72,3.31c0.54,0.89,2.13,3.15,2.79,3.95
		c0.7,0.81,2.92,3.26,3.5,3.78c0.57,0.48,3.53,2.92,4.59,3.64c1.05,0.71,3.56,2.36,5.09,3.11c1.51,0.75,3.4,1.62,3.9,1.84
		c0.48,0.18,0.8,0.21,0.9,0.37c0.08,0.14,0.26,0.29,0.26,0.29L106.81,159.89z M107.74,158.24c-0.04,0.11-0.2,0.1-0.24,0
		c-0.06-0.1,0.2-0.39,0.2-0.73c0-0.37-0.2-0.88-0.41-1.07c-0.19-0.22-0.79-0.5-1.12-0.64c-0.34-0.16-1.93-0.91-2.73-1.33
		c-0.8-0.41-2.42-1.34-3.48-2.04c-1.05-0.68-2.45-1.64-3.39-2.35c-0.89-0.75-2.18-1.88-2.97-2.64c-0.8-0.79-2.13-2.26-2.96-3.35
		c-0.84-1.1-1.91-2.57-2.49-3.59c-0.59-1.07-1.19-2.34-1.39-2.55c-0.2-0.2-0.49-0.56-0.9-0.71c-0.42-0.12-0.66-0.22-0.84-0.23
		c-0.19,0-0.52,0-0.55-0.16c-0.02-0.13,0-0.23,0-0.23s0.63-0.03,1.1-0.23c0.5-0.2,1.86-0.58,2.4-0.73c0.54-0.14,1.17-0.42,1.44-0.49
		c0.27-0.09,0.47-0.16,0.64-0.13c0.16,0.03,0.24,0.13,0.43,0.37c0.18,0.26,0.41,0.82,0.64,1c0.26,0.21,0.63,0.55,1.13,0.48
		c0.52-0.06,1.04-0.11,1.46-0.28c0.41-0.18,1.19-0.69,1.39-0.8c0.16-0.09,0.43-0.27,0.51-0.19c0.09,0.09,0.21,0.27,0.35,0.3
		c0.11,0.04,0.3,0.19,0.37,0.34c0.08,0.13,1.2,1.76,1.82,2.52c0.6,0.73,1.5,1.76,2.13,2.35c0.61,0.58,2.4,2.14,3.11,2.65
		c0.73,0.5,2.79,1.89,3.71,2.38c0.94,0.48,2.06,1.1,2.95,1.47c0.92,0.38,1.88,0.75,2.13,0.88c0.28,0.13,0.38,0.25,0.53,0.42
		c0.2,0.13,0.3,0.32,0.21,0.5c-0.06,0.18-1.03,1.67-1.44,2.44c-0.41,0.77-1.17,1.99-1.51,2.54c-0.28,0.54-1.12,1.86-1.33,2.31
		C108.39,157.14,107.77,158.13,107.74,158.24z M113.19,160.08c-0.17,0.42-0.68,1.67-0.85,2.03c-0.15,0.31-0.28,0.63-0.28,0.63
		l-0.66,0.21c0,0,0.18-0.28,0.06-0.45c-0.11-0.16-0.45-0.5-0.65-0.53c-0.2-0.01-0.46,0.04-0.72,0.13c-0.28,0.11-0.63,0.11-0.75-0.13
		c-0.14-0.24-0.5-0.9-0.53-1.07c-0.04-0.16-0.16-0.4,0.03-0.73c0.16-0.35,1.35-2.54,1.61-2.94c0.26-0.4,1.64-2.71,1.95-3.27
		c0.29-0.56,1.07-1.86,1.2-2.16c0.15-0.28,0.25-0.5,0.14-0.74c-0.12-0.21-0.12-0.33-0.24-0.4c-0.13-0.05-0.35-0.09-0.35-0.09
		l0.7-1.17c0,0,0.39,0.12,0.75,0.12c0.38,0,0.78-0.02,1.21,0.1c0.45,0.13,1.03,0.46,1.11,0.7c0.1,0.25-0.13,0.69-0.38,1.28
		c-0.25,0.55-1.42,3.69-1.71,4.35C114.55,156.64,113.36,159.67,113.19,160.08z M118.82,160.4c-0.1,0.48-0.46,2.11-0.58,2.47
		c-0.1,0.37-0.32,1.04-0.35,1.1c-0.05,0.07-0.55,0.37-0.7,0.41c-0.12,0.04-0.3,0.13-0.3,0.13s0.2-0.26,0.13-0.46
		c-0.08-0.17-0.28-0.38-0.55-0.38c-0.28,0-0.59,0.21-0.8,0.14c-0.21-0.07-0.55-0.2-0.81-0.8c-0.26-0.59-0.28-0.69-0.19-1.15
		c0.1-0.48,1.21-3.13,1.45-3.78c0.24-0.64,1.27-3.28,1.5-3.9c0.27-0.63,0.62-1.47,0.58-1.73c-0.01-0.24-0.21-0.68-0.33-0.79
		c-0.13-0.13-0.3-0.22-0.38-0.19c-0.09,0.01-0.16-0.06-0.16-0.06l0.36-0.98c0,0,0.55,0.06,0.8,0.06c0.26,0,0.69-0.06,1.17,0.08
		c0.51,0.09,1.09,0.18,1.16,0.4c0.06,0.24,0.16,0.46,0.05,0.92c-0.12,0.47-1,4.01-1.12,4.65
		C119.59,157.13,118.92,159.93,118.82,160.4z M124.67,154.71c-0.05,0.54-0.37,4.22-0.37,4.55c0,0.33-0.09,1.94-0.14,2.47
		c-0.04,0.38-0.18,1.4-0.21,1.77c-0.04,0.36-0.24,1.02-0.24,1.1c0,0.08-0.05,0.18-0.05,0.18s-0.67,0.56-0.9,0.68
		c-0.23,0.1-0.23-0.13-0.39-0.28c-0.14-0.13-0.34-0.16-0.7-0.34c-0.33-0.14-0.85-0.66-1.1-1.02c-0.23-0.38-0.32-0.72-0.18-1.32
		c0.16-0.61,0.68-2.68,0.83-3.42c0.17-0.74,0.66-2.83,0.82-3.54c0.17-0.74,0.47-1.88,0.47-2.28c0-0.4-0.14-0.78-0.35-0.97
		c-0.22-0.2-0.27-0.22-0.4-0.28c-0.15-0.05-0.29-0.12-0.29-0.12l0.17-0.78c0,0,0.53,0,0.79-0.03c0.25-0.02,0.5-0.06,0.91-0.05
		c0.41,0,0.76,0,1.04,0.12c0.32,0.11,0.58,0.26,0.52,0.78C124.86,152.42,124.72,154.22,124.67,154.71z M93.73,125.62
		c0-13.25,14.34-24.94,33.3-24.94c18.96,0,33.3,11.69,33.3,24.94c0,13.3-14.34,24.97-33.3,24.97
		C108.07,150.6,93.73,138.92,93.73,125.62z M110.66,93.84c-0.31-0.24-0.81-0.56-1.15-0.6c-0.37-0.04-0.48,0.01-0.67-0.06
		c-0.18-0.06-0.44-0.3-0.44-0.3s0.88-0.33,1.25-0.47c0.38-0.16,2.09-0.77,3.25-1.08c1.12-0.34,2.34-0.63,3.78-0.92
		c1.47-0.29,3.6-0.61,5.33-0.79c1.69-0.16,3.91-0.33,5.22-0.29c1.31,0,4.34,0.18,5.57,0.32c1.22,0.15,3.63,0.43,5.06,0.77
		c1.44,0.32,4.13,0.98,5.3,1.39c1.19,0.43,2.6,0.85,2.75,1c0.15,0.15,0.31,0.32,0.53,0.4c0.2,0.09,0.43,0.24,0.43,0.24
		s-0.58,0.65-0.98,1.32c-1.15,1.99,0.22,4.5,2.06,5.88c2.41,1.78,6.79,4.49,7.54,8.54c0.19,0.93,0.13,2.66,0.13,2.66
		s-0.36-0.41-0.58-0.63c-0.18-0.22-0.27-1.22-0.51-1.76c-0.23-0.56-1.09-1.69-1.59-2.23c-0.53-0.51-1.46-1.49-3.38-2.72
		c-1.79-1.15-3.64-2.16-5.62-2.91c-1.98-0.74-3.36-1.31-5.75-1.85c-2.36-0.52-5.47-1.04-8.83-1.18c-3.36-0.09-6.26,0.19-8.24,0.42
		c-1.95,0.26-4.71,0.76-7.27,1.64c-2.54,0.83-3.17,1.15-3.96,1.53c-0.82,0.37-2.74,1.34-3.44,1.82c-0.7,0.45-1.84,1.24-2.53,1.68
		c-0.68,0.43-0.82,0.78-1.24,0.68c-0.57-0.13-0.75-0.68-0.75-0.68s0.51-0.59,1.01-1.09c0.48-0.5,1.63-1.48,2.36-2.08
		c0.74-0.6,2.14-1.82,2.38-2.05c0.24-0.21,0.87-0.97,0.87-0.97s0.2,0.43,0.56,0.3c0.37-0.1,0.93-0.53,1.29-1.07
		c0.35-0.55,0.95-1.81,0.8-2.87C111.08,94.78,110.94,94.03,110.66,93.84z M188.31,98.92c-0.16-0.26-0.5-0.56-0.91-0.68
		c-0.42-0.14-2.12-0.27-2.74-0.26c-0.58,0.02-2.06,0.04-2.74,0.02c-0.71-0.02-1.34-0.13-1.62-0.29c-0.3-0.11-0.2-0.06-0.34-0.11
		c-0.21-0.07-0.36,0.08-0.36,0.08s-0.12-0.36-0.12-0.46c0-0.07,0.03-0.19,0.03-0.19s0.74,0.04,1.25-0.06
		c0.52-0.06,2.01-0.31,2.97-0.44c0.95-0.16,2.79-0.46,3.38-0.6c0.6-0.1,1.34-0.23,1.59-0.1c0.24,0.09,0.43,0.34,0.46,0.6
		c0.04,0.25,0.24,0.82,0.31,1.04c0.08,0.23,0.26,0.6,0.23,0.71c-0.05,0.12-0.35,0.51-0.56,0.68c-0.23,0.2-0.75,0.72-0.75,0.72
		S188.47,99.17,188.31,98.92z M179.65,99.29c0.45,0.06,2.38,0.3,3.15,0.41c0.75,0.14,2.8,0.41,3.38,0.49
		c0.58,0.06,1.47,0.02,1.76,0.1c0.5,0.1,0.41,0.56,0.46,0.85c0.04,0.3,0.1,0.78,0.06,0.9c-0.04,0.11-0.3,0.38-0.62,0.62
		c-0.26,0.21-0.56,0.36-0.72,0.46c-0.18,0.1,0.05-0.39-0.14-0.56c-0.11-0.13-0.4-0.25-0.87-0.34c-0.45-0.1-1.17-0.27-1.6-0.34
		c-0.43-0.09-2.12-0.44-2.78-0.55c-0.68-0.14-1.44-0.2-1.89-0.4c-0.45-0.23-0.75-0.6-1-0.69c-0.25-0.13-0.57-0.18-0.57-0.18
		l-0.02-0.34c0,0,0.42-0.4,0.54-0.4C178.89,99.33,179.19,99.26,179.65,99.29z M185.35,106.68c-0.18-0.25-0.91-0.53-1.35-0.66
		c-0.49-0.13-1.84-0.55-2.6-0.78c-0.75-0.22-1.98-0.64-2.39-0.75c-0.41-0.12-0.92-0.24-1.2-0.42c-0.29-0.2-0.6-0.52-0.74-0.58
		c-0.11-0.09-0.45-0.12-0.45-0.12s-0.04-0.87,0.09-0.92c0.11-0.03,0.48,0.09,0.65,0.07c0.15-0.01,0.6-0.01,1.04,0.09
		c0.41,0.11,2.7,0.7,3.63,0.87c0.9,0.2,2.11,0.5,2.89,0.62c0.75,0.13,1.27,0.13,1.42,0.41c0.19,0.28,0.14,0.87,0.14,1.15
		c-0.01,0.3,0.08,0.99,0,1.07c-0.03,0.09-0.43,0.24-0.7,0.35c-0.27,0.11-0.39,0.17-0.39,0.17S185.52,106.92,185.35,106.68z
		 M183.99,110.56c-0.1,0.1-0.26,0.14-0.57,0.18c-0.32,0.04-0.5,0.1-0.5,0.1s0.28-0.29,0.03-0.53c-0.27-0.26-0.35-0.36-0.93-0.61
		c-0.57-0.19-1.51-0.58-1.93-0.75c-0.42-0.14-2.22-0.98-2.73-1.15c-0.5-0.18-1.55-0.58-1.9-0.78c-0.38-0.2-0.52-0.28-0.63-0.43
		c-0.09-0.15-0.47-0.2-0.47-0.2s0.08-0.3,0.13-0.61c0.06-0.32-0.01-0.5,0.09-0.53c0.11-0.04,0.3,0.09,0.53,0.04
		c0.24-0.01,0.47-0.04,0.62,0.07c0.19,0.1,0.98,0.37,1.37,0.52c0.4,0.15,2.49,0.9,3.18,1.15c0.68,0.26,1.92,0.73,2.48,0.88
		c0.53,0.21,0.91,0.27,1.11,0.45c0.2,0.19,0.38,0.46,0.36,0.82c-0.01,0.38,0.06,0.45-0.1,0.65c-0.13,0.18-0.16,0.23-0.2,0.31
		C183.92,110.26,184.08,110.46,183.99,110.56z M181,113.5c-0.11,0.1-0.43,0.12-0.63,0.19c-0.2,0.07-0.41,0.07-0.41,0.07
		s0.19-0.12,0.15-0.33c-0.05-0.19-0.22-0.46-0.59-0.56c-0.4-0.1-0.83-0.12-1.19-0.2c-0.33-0.08-0.63-0.23-1.17-0.53
		c-0.53-0.28-1.61-0.95-2.18-1.24c-0.55-0.3-1.59-0.85-1.95-1.08c-0.35-0.21-0.49-0.33-0.68-0.4c-0.18-0.06-0.41-0.08-0.53-0.03
		c-0.13,0.03-0.51-0.07-0.51-0.07s0.5-0.03,0.6-0.23c0.1-0.22,0.06-0.71,0.1-0.93c0.04-0.23,0.03-0.34,0.11-0.35
		c0.09-0.02,0.33,0.13,0.57,0.15c0.24,0.02,0.51,0,0.9,0.2c0.39,0.19,2.03,1.07,2.86,1.45c0.87,0.36,2.57,1.24,3.11,1.44
		c0.51,0.19,1.39,0.5,1.52,0.79c0.11,0.21,0.2,0.43,0.02,0.7c-0.13,0.21-0.23,0.37-0.17,0.5C180.98,113.22,181.11,113.4,181,113.5z
		 M175.49,115.79c-0.33-0.18-0.75-0.2-1.13-0.31c-0.36-0.13-1-0.56-1.37-0.87c-0.38-0.28-1.34-1.02-1.79-1.32
		c-0.46-0.32-1.12-0.87-1.44-1.02c-0.34-0.13-0.94-0.25-1.29-0.27c-0.34-0.02-0.75,0.02-0.81,0c-0.08-0.02-0.19,0.37-0.34,0.27
		c-0.14-0.14-0.2-0.15-0.38-0.27c-0.18-0.11-0.2-0.15-0.2-0.15l0.02-0.36c0,0,0.25-0.08,0.55-0.08c0.31,0,0.6,0.04,0.95-0.09
		c0.35-0.14,0.35-0.1,0.56-0.24c0.24-0.14,0.35-0.18,0.58-0.35c0.24-0.14,0.19-0.34,0.32-0.37c0.15,0,0.59-0.06,0.72,0
		c0.13,0.09,1.05,0.83,1.6,1.17c0.54,0.31,2.2,1.33,2.82,1.71c0.61,0.39,1.56,0.88,1.84,1.17c0.31,0.27,0.51,0.4,0.5,0.66
		c-0.02,0.26-0.23,0.44-0.33,0.63c-0.11,0.2-0.1,0.39-0.17,0.58c-0.08,0.13-0.13,0.3-0.13,0.3l-0.76,0.15c0,0,0.21-0.17,0.16-0.37
		C175.95,116.18,175.82,115.98,175.49,115.79z M171.77,118.64c-0.18-0.12-0.53-0.34-0.9-0.52c-0.38-0.2-0.95-0.68-1.44-1.07
		c-0.45-0.35-1.7-1.52-1.96-1.77c-0.29-0.26-1.14-0.98-1.36-1.09c-0.22-0.1-0.85-0.18-1.09-0.23c-0.24-0.06-0.58-0.14-0.58-0.14
		s-0.16,0.26-0.23,0.26c-0.16,0-0.13-0.01-0.13-0.01s0.01,0-0.13-0.13c-0.13-0.12-0.25-0.26-0.25-0.26s0.05-0.13,0.08-0.33
		c0.03-0.16,0.05-0.4,0.16-0.38c0.09,0,0.53,0.24,0.83,0.24c0.31,0,0.36-0.07,0.36-0.07s0.14-0.27,0.53-0.34
		c0.38-0.07,0.52-0.09,0.64-0.09c0.13,0,0.31-0.04,0.71,0.13c0.4,0.15,1.5,1.08,1.93,1.4c0.41,0.33,2.1,1.66,2.57,2.04
		c0.49,0.38,1.02,0.74,1.17,0.87c0.15,0.14,0.61,0.6,0.51,0.8c-0.11,0.21-0.35,0.45-0.41,0.65c-0.05,0.23-0.06,0.53-0.1,0.65
		c-0.04,0.14-0.3,0.19-0.42,0.17c-0.13-0.02-0.5-0.03-0.5-0.03s0.2-0.15,0.27-0.3C172.09,118.95,171.97,118.81,171.77,118.64z
		 M167.72,120.68c-0.24-0.16-0.51-0.29-0.92-0.5c-0.37-0.2-0.67-0.48-0.97-0.79c-0.26-0.33-0.9-1.15-1.2-1.52
		c-0.3-0.33-1.05-1.29-1.39-1.6c-0.36-0.34-0.71-0.66-1.14-0.74c-0.43-0.08-0.53-0.1-0.63-0.1c-0.11,0-0.27,0.26-0.23,0.35
		c0.03,0.08-0.19-0.1-0.35-0.33c-0.19-0.26-0.64-0.95-0.64-0.95s0.69,0.24,1.05,0.24c0.4,0,0.69,0.03,0.79-0.01
		c0.06-0.03,0.23-0.31,0.6-0.41c0.4-0.1,0.76-0.03,1.12,0.21c0.38,0.29,2.2,2.13,2.46,2.35c0.28,0.26,1.46,1.42,1.81,1.74
		c0.37,0.34,0.96,0.93,1.08,1.17c0.1,0.25,0.16,0.43,0.06,0.57c-0.08,0.12-0.21,0.22-0.26,0.4c-0.08,0.14-0.1,0.5-0.19,0.6
		c-0.09,0.12-0.21,0.23-0.46,0.23c-0.26,0-0.52-0.04-0.52-0.04s0.28-0.14,0.28-0.32C168.06,121.08,167.98,120.79,167.72,120.68z
		 M179.06,97.7c-0.12,0.18-0.1,0.41-0.1,0.48v0.17c0,0-0.12,0.06-0.25,0.16c-0.12,0.09-0.73,0.43-0.73,0.43s0-0.13-0.1-0.35
		c-0.1-0.24-0.46-0.44-0.71-0.49c-0.24-0.08-1.19-0.12-1.59-0.13c-0.4-0.01-1.35-0.06-1.76-0.09c-0.36-0.01-0.55-0.08-0.72-0.08
		c-0.18,0-0.33,0.01-0.46,0.11c-0.16,0.11-0.21,0.24-0.3,0.26c-0.1,0.01-0.26-0.02-0.33-0.02c-0.07,0-0.2,0.1,0.03,0.32
		c0.33,0.34,0.85,0.4,1.29,0.45c0.47,0.07,1.1,0.19,1.57,0.27c0.49,0.08,1.13,0.2,1.53,0.3c0.41,0.1,0.82,0.1,0.97,0.11
		c0.14,0.04,0.39,0.14,0.39,0.29c-0.04,0.13-0.07,0.28-0.11,0.42c-0.06,0.12-0.06,0.34-0.05,0.45c0.04,0.14-0.01,0.24-0.11,0.3
		c-0.12,0.08-0.57,0.22-0.68,0.29c-0.11,0.05-0.3,0.03-0.3,0.03s0.06-0.3,0-0.33c-0.07-0.09-0.21-0.27-0.57-0.36
		c-0.33-0.1-1.26-0.35-1.69-0.44c-0.44-0.08-1.17-0.29-1.68-0.38c-0.48-0.1-0.82-0.26-0.95-0.11c-0.14,0.13-0.18,0.23-0.28,0.23
		c-0.09,0.04-0.21-0.03-0.31,0.05c-0.09,0.1-0.22,0.22-0.13,0.32c0.09,0.11,0.4,0.31,0.73,0.41c0.32,0.14,1.41,0.4,1.86,0.58
		c0.49,0.13,1.31,0.46,1.74,0.56c0.43,0.09,0.9,0.22,0.98,0.48c0.09,0.23,0.08,0.46-0.08,0.61c-0.17,0.15-0.2,0.35-0.26,0.41
		c-0.03,0.1-0.1,0.34-0.1,0.34s-0.4,0.28-0.5,0.3l-0.38,0.17c0,0,0.13-0.19,0-0.49c-0.14-0.32-0.49-0.48-0.98-0.71
		c-0.46-0.23-1.41-0.57-1.77-0.7c-0.36-0.14-1.55-0.6-1.84-0.71c-0.25-0.08-0.56-0.19-0.82-0.15c-0.26,0.08-0.38,0.23-0.31,0.35
		c0.08,0.11,0.27,0.18,0.27,0.33c0,0.13,0,0.27-0.07,0.31c-0.08,0.01-0.09,0.04-0.09,0.04s0.6,0.43,1.02,0.61
		c0.43,0.21,1.47,0.73,1.75,0.9c0.26,0.13,1.12,0.53,1.31,0.68c0.2,0.14,0.61,0.39,0.53,0.59c-0.07,0.2-0.13,0.51-0.17,0.63
		c-0.03,0.11,0.04,0.19-0.15,0.28c-0.18,0.06-0.85,0.25-0.85,0.25s-0.01-0.15-0.04-0.25c-0.03-0.1-0.17-0.28-0.54-0.49
		c-0.35-0.19-1.63-0.97-1.97-1.14c-0.32-0.15-1.15-0.61-1.34-0.77c-0.17-0.16-0.63-0.54-0.8-0.63c-0.15-0.08-0.47-0.24-0.68-0.03
		c-0.19,0.16-0.27,0.51-0.17,0.63c0.11,0.13,0.37,0.35,0.37,0.35s-0.21,0.17-0.19,0.25c0.03,0.1,0.62,0.5,1.05,0.82
		c0.42,0.33,1.57,1.09,1.86,1.29c0.3,0.2,0.92,0.6,1.12,0.77c0.19,0.19,0.25,0.35,0.1,0.52c-0.15,0.13-0.2,0.34-0.2,0.34
		s0.03,0.18,0.03,0.28c0,0.12-0.04,0.19-0.04,0.19s-0.09,0.09-0.32,0.14c-0.23,0.03-0.58,0.06-0.58,0.06s-0.08-0.13-0.07-0.28
		c0.02-0.19-0.13-0.29-0.38-0.5c-0.29-0.24-1.15-0.87-1.61-1.17c-0.43-0.31-1.28-0.89-1.48-1.1c-0.2-0.18-0.56-0.73-0.76-0.9
		c-0.21-0.15-0.47-0.33-0.71-0.25c-0.23,0.1-0.5,0.27-0.51,0.5c-0.03,0.2-0.09,0.38,0.07,0.48c0.14,0.09,0.33,0.22,0.33,0.3
		c0,0.04-0.22,0.13-0.18,0.25c0.06,0.13,0.81,0.71,1.15,0.98c0.36,0.31,1.53,1.22,1.81,1.46c0.31,0.28,0.85,0.77,0.92,1.02
		c0.08,0.21,0.03,0.63-0.05,0.78c-0.1,0.11-0.33,0.16-0.59,0.2c-0.24,0.05-0.55,0.09-0.55,0.09s0.12-0.27,0.04-0.39
		c-0.04-0.12-0.55-0.43-0.93-0.74c-0.37-0.31-1.52-1.29-1.96-1.65c-0.43-0.35-0.87-0.79-1-1.1c-0.16-0.3-0.42-0.73-0.77-0.73
		c-0.38,0-0.74,0.06-0.96,0.35c-0.21,0.29-0.21,0.61-0.05,0.74c0.15,0.13,0.46,0.31,0.37,0.36l-0.33,0.2c0,0,0.33,0.19,0.78,0.59
		c0.5,0.41,1.37,1.14,1.7,1.44c0.34,0.31,0.99,0.95,1.13,1.05c0.11,0.11,0.31,0.43,0.3,0.66c-0.02,0.27-0.08,0.56-0.14,0.69
		c-0.08,0.13,0.02,0.2-0.16,0.3c-0.19,0.1-0.54,0.1-0.65,0.1c-0.12,0-0.23-0.06-0.23-0.06s0.29-0.21,0.28-0.33
		c-0.03-0.1-0.38-0.48-0.66-0.73c-0.23-0.21-1.48-1.27-1.93-1.69c-0.46-0.41-1.11-1.07-1.26-1.45c-0.15-0.43-0.15-0.9-0.38-1.24
		c-0.24-0.34-0.77-0.74-0.99-1.09c-0.26-0.35-1.03-1.54-1.39-2.27c-0.38-0.73-0.76-1.31-0.84-1.96c-0.09-0.62-0.01-1.02-0.14-1.22
		c-0.1-0.19-0.36-0.52-0.48-0.52c-0.14,0-0.56-0.04-0.56-0.04s0.28-0.45,1.04-0.97c0.67-0.44,1.72-0.9,2.38-1.1
		c0.66-0.2,3.06-0.75,4.14-0.85c1.11-0.09,4.04-0.1,4.99-0.13c0.96-0.01,2.8,0.04,3.4,0.03c0.64-0.03,1.51,0,2.16,0
		c0.65,0,1.91-0.03,2.29-0.03c0.41,0,1.17-0.05,1.39,0.03c0.23,0.04,0.63,0.11,0.66,0.28C179.11,97.37,179.18,97.52,179.06,97.7z
		 M160.78,110.34c0.28,0.21,0.8,0.55,0.94,0.63c0.19,0.08,0.79,0.72,0.95,0.92c0.18,0.21,0.58,0.58,0.55,0.81
		c-0.02,0.24-0.19,0.88-0.34,1.02c-0.15,0.17-0.37,0.36-0.56,0.37c-0.16,0-0.5-0.03-0.5-0.03s0.4-0.13,0.4-0.31
		c0-0.16-0.06-0.31-0.37-0.61c-0.28-0.28-0.4-0.4-0.71-0.83c-0.3-0.39-0.56-0.84-0.56-0.84l-0.2,0.07l-0.23,0.03
		c0,0-0.09-0.68-0.14-1.09c-0.1-0.37-0.23-0.7-0.29-0.88c-0.09-0.24-0.19-0.62-0.19-0.62S160.52,110.12,160.78,110.34z
		 M159.91,115.63l0.04-0.29c0,0,0.47,0.62,0.61,0.81c0.16,0.18,0.64,0.56,0.8,0.81c0.21,0.23,1.02,1.29,1.36,1.79
		c0.35,0.46,1.32,1.78,1.52,2.04c0.18,0.25,0.72,1,0.69,1.22c-0.06,0.23-0.09,0.5-0.19,0.71c-0.11,0.21-0.23,0.47-0.33,0.49
		c-0.09,0.01-0.64,0.03-0.64,0.03s0.15-0.21,0.15-0.33c0-0.14-0.24-0.54-0.57-0.7c-0.31-0.17-0.95-0.54-1.1-0.68
		c-0.15-0.18-0.61-1.34-0.8-1.76c-0.25-0.51-0.69-1.33-0.98-1.72c-0.26-0.39-0.43-0.79-0.55-0.83c-0.1-0.03-0.06,0.06-0.21,0.08
		c-0.17,0.03-0.29-0.08-0.29-0.08s0.25-0.57,0.29-0.82C159.75,116.17,159.87,115.75,159.91,115.63z M170.16,135.71
		c-0.38-0.26-0.94-0.5-1.35-0.66c-0.4-0.15-1.3-0.43-1.88-0.67c-0.56-0.21-0.88-0.4-1.09-0.65c-0.3-0.33-0.88-1.43-1.24-2.06
		c-0.33-0.63-1.34-2.53-1.6-3.03c-0.26-0.52-0.38-0.8-0.42-1.12c-0.04-0.31-0.06-1.44-0.16-1.74c-0.11-0.27-0.43-0.8-0.63-0.94
		c-0.2-0.18-0.27-0.2-0.37-0.26c-0.09-0.06-0.4-0.14-0.4-0.14s-0.04-0.4-0.04-0.48c0-0.1-0.03-0.22-0.03-0.22s0.78,0.08,1.23,0.08
		c0.48,0,0.88-0.05,1.09,0c0.19,0.04,0.45,0,0.65,0.25c0.2,0.24,0.3,0.65,0.43,0.9c0.06,0.25,1.5,2.29,1.76,2.61
		c0.23,0.3,1.29,1.72,1.72,2.31c0.46,0.59,1.7,2.19,2.06,2.65c0.36,0.45,1.1,1.22,1.27,1.49c0.18,0.28,0.65,0.92,0.73,1.09
		c0.08,0.14-0.11,0.34-0.22,0.5c-0.11,0.13-0.33,0.4-0.55,0.62c-0.22,0.19-0.54,0.45-0.64,0.48c-0.08,0.04,0.04-0.26,0.06-0.41
		C170.55,136.14,170.45,135.94,170.16,135.71z M162.26,136.26c-0.14-0.18-0.42-0.46-0.75-0.61c-0.34-0.18-0.98-0.52-1.05-0.72
		c-0.08-0.21-0.09-0.4,0.07-0.8c0.23-0.55,0.2-1.07,0.1-1.49c-0.1-0.41-0.17-0.54-0.24-0.66c-0.07-0.16-0.24-0.26-0.24-0.26
		s0.28-0.93,0.32-1.17l0.2-0.81c0,0,0.5,0.82,0.69,1.11c0.19,0.3,0.67,0.93,0.9,1.41c0.23,0.46,0.97,1.65,1.15,2.06
		c0.2,0.38,0.46,0.75,0.41,1.19c-0.03,0.41-0.38,0.92-0.48,1.1c-0.12,0.2-0.12,0.4-0.38,0.6c-0.26,0.21-0.68,0.26-0.68,0.26
		s0.27-0.25,0.3-0.46C162.57,136.76,162.39,136.42,162.26,136.26z M161.34,137.88c0.48,0.07,0.78,0.11,1.27,0.08
		c0.47-0.03,0.65-0.1,0.9-0.41c0.25-0.29,0.54-0.79,0.65-1.07c0.12-0.26,0.28-0.62,0.28-0.62s0.58,0.24,0.95,0.4l1.76,0.6
		c0.48,0.15,1.17,0.29,1.44,0.49c0.28,0.2,0.35,0.34,0.33,0.56c-0.03,0.19-0.21,0.69-0.39,1.05c-0.19,0.36-0.88,1.81-1.14,2.31
		c-0.29,0.46-1.39,2.25-1.96,3.05c-0.55,0.82-2.37,3.06-3.05,3.7c-0.65,0.65-1.47,1.49-1.96,1.74c-0.5,0.25-1.27,0.4-1.82,0.71
		l-2.75,1.73c-0.71,0.45-1.76,1.07-2.5,1.45c-0.74,0.39-2.6,1.3-3.17,1.59c-0.55,0.26-1.32,0.59-1.67,0.77
		c-0.36,0.15-0.66,0.31-0.95,0.27c-0.29-0.02-0.5-0.2-0.61-0.45c-0.14-0.22-1.02-1.76-1.35-2.34c-0.32-0.62-1.57-2.75-1.82-3.13
		c-0.26-0.39-0.36-0.59-0.93-0.8c-0.36-0.13-0.48-0.2-0.65-0.2c-0.2,0-0.3,0.03-0.56-0.05c-0.19-0.05-0.29-0.27-0.29-0.27
		s1.23-0.45,1.79-0.74c0.55-0.24,1.66-0.7,2.36-1.03c0.73-0.35,2.68-1.44,3.53-1.94c0.83-0.54,1.9-1.27,2.77-1.99
		c0.87-0.76,2.27-2.04,2.84-2.58c0.55-0.55,1.89-2.11,2.27-2.71c0.42-0.57,1.1-1.64,1.1-1.64l1.5,0.76
		C160.16,137.51,160.89,137.81,161.34,137.88z M129.68,164c-0.03,0.31-0.03,0.67-0.03,0.67s-0.85,0.87-1.1,1.1
		c-0.28,0.23-1.26,1.07-1.26,1.07s0.16-0.42,0.3-0.62c0.13-0.16,0.26-0.45,0.14-0.63c-0.09-0.17-0.83-0.95-1.07-1.15
		c-0.25-0.17-0.55-0.57-0.58-0.97c-0.04-0.34,0.14-2.87,0.27-3.94c0.1-1.05,0.23-3.43,0.31-4.25c0.08-0.81,0.18-1.79,0.04-2.14
		c-0.16-0.34-0.42-0.77-0.64-0.87c-0.21-0.1-0.55-0.19-0.55-0.19l0.01-0.73c0,0,0.73,0.02,0.88-0.01c0.17-0.06,0.88-0.17,1.39-0.16
		c0.5,0.04,1.03,0.16,1.08,0.45c0.03,0.24,0.05,1.15,0.07,1.69c0.02,0.55,0.23,3.37,0.24,3.83c0.03,0.45,0.28,3.59,0.32,4.34
		C129.58,162.25,129.69,163.69,129.68,164z M135.4,164.2c-0.04,0.11-0.6,0.82-0.87,1.09c-0.27,0.26-1.24,1.49-1.24,1.49
		s-0.09-0.36,0.03-0.53c0.14-0.14,0.41-0.39,0.38-0.66c-0.04-0.27-0.3-0.78-0.54-0.98c-0.21-0.23-0.75-0.51-1-0.77
		c-0.21-0.23-0.34-0.43-0.42-1.03c-0.03-0.63-0.28-3.78-0.36-4.8c-0.06-1.05-0.29-3.93-0.35-4.37c-0.06-0.43-0.14-0.85-0.44-1.17
		c-0.3-0.25-0.58-0.4-0.75-0.45c-0.19-0.07-0.36-0.08-0.36-0.08l-0.03-0.6c0,0,0.71-0.09,0.99-0.16c0.26-0.08,1-0.23,1.46-0.23
		c0.41,0,0.83,0.1,0.91,0.39c0.06,0.26,0.19,1.03,0.24,1.39c0.05,0.33,0.84,3.69,0.94,4.16c0.08,0.48,0.98,4.11,1.08,4.6
		c0.09,0.55,0.38,1.79,0.37,2.09C135.42,163.86,135.45,164.1,135.4,164.2z M140.57,164.2c-0.26,0.4-1.15,1.59-1.15,1.59
		s-0.04-0.47,0.04-0.62c0.09-0.13,0.17-0.43,0.13-0.61c-0.06-0.18-0.26-0.67-0.54-0.9c-0.25-0.22-0.78-0.39-1.05-0.63
		c-0.27-0.27-0.4-0.34-0.59-1.14c-0.22-0.78-0.72-2.93-0.87-3.56c-0.17-0.66-0.84-3.66-0.99-4.26c-0.16-0.59-0.29-1.41-0.55-1.72
		c-0.23-0.28-0.72-0.72-0.92-0.77c-0.19-0.04-0.44-0.03-0.52-0.03c-0.06,0-0.2,0.03-0.2,0.03l-0.14-0.61c0,0,0.4,0.01,0.81-0.1
		c0.36-0.13,1.24-0.5,1.61-0.53c0.36-0.04,0.92-0.04,0.99,0.11c0.1,0.15,0.23,0.52,0.4,0.95c0.15,0.46,1.24,3.19,1.47,3.92
		c0.29,0.74,1.46,3.63,1.69,4.22c0.2,0.6,0.79,1.92,0.86,2.21c0.06,0.26,0.33,1,0.26,1.22C141.26,163.16,140.82,163.81,140.57,164.2
		z M147.15,161.3c-0.1,0.25-0.69,1.3-0.8,1.59c-0.16,0.27-0.71,1.26-0.71,1.26s-0.06-0.82-0.2-1.2c-0.14-0.41-0.29-0.66-0.6-0.85
		c-0.3-0.23-0.85-0.35-1.08-0.5c-0.21-0.18-0.41-0.33-0.68-0.86c-0.28-0.54-1-2.53-1.25-3.14c-0.26-0.7-1.19-3-1.51-3.73
		c-0.3-0.77-0.8-2.09-1.05-2.4c-0.24-0.31-0.84-0.76-1.04-0.77c-0.2-0.04-0.49-0.09-0.55-0.08c-0.08,0.03-0.31,0.04-0.31,0.04
		l-0.21-0.48c0,0,1-0.23,1.51-0.37c0.46-0.19,1.04-0.38,1.37-0.46c0.35-0.07,0.51-0.09,0.67,0.1c0.18,0.17,0.36,0.51,0.45,0.75
		c0.09,0.26,1.11,2.04,1.44,2.6c0.36,0.62,1.31,2.29,1.61,2.82c0.28,0.53,1.32,2.2,1.52,2.57c0.25,0.36,0.48,0.83,0.68,1.13
		c0.17,0.29,0.45,0.96,0.6,1.26C147.13,160.87,147.23,161.09,147.15,161.3z M172.22,137.36c-0.1,0.32-0.48,1.34-0.73,1.88
		c-0.28,0.55-1.07,2.14-1.38,2.67c-0.28,0.5-1.6,2.6-2.15,3.36c-0.54,0.74-2.19,2.77-2.71,3.34c-0.5,0.56-2.52,2.52-3.01,3
		c-0.5,0.46-4.05,2.8-4.73,3.22c-0.71,0.41-2.97,1.74-3.49,2.01c-0.53,0.3-2.15,1.08-2.67,1.34c-0.54,0.29-1.98,0.93-2.31,1.02
		c-0.35,0.06-0.74,0-1.07-0.05c-0.28-0.04-0.43-0.04-0.55-0.04c-0.1,0-0.52,0.06-0.52,0.06l-0.14-0.26c0,0,1.32-0.53,2-0.87
		c0.67-0.31,3.56-1.65,4.38-2.14c0.82-0.48,2.5-1.42,3.39-2.01c0.87-0.6,2.95-2.12,3.71-2.79c0.77-0.66,2.96-2.8,3.35-3.26
		c0.36-0.48,2.1-2.11,2.51-2.51c0.39-0.4,1.12-1.09,1.6-1.79c0.53-0.77,1.68-2.65,1.92-3.19c0.24-0.58,0.5-0.99,0.45-1.24
		c-0.05-0.21-0.08-0.45-0.15-0.47c-0.06-0.03-0.46-0.16-0.46-0.16l0.16-0.5c0.07-0.14,0.1-0.27,0.1-0.27s0.44,0.01,0.65-0.09
		c0.24-0.1,0.78-0.5,1.1-0.84c0.35-0.31,0.74-0.75,0.87-0.97c0.14-0.22,0.19-0.28,0.19-0.28s0.18,0.06,0.18,0.16
		C172.71,135.87,172.34,137.06,172.22,137.36z M180.04,134.42c-0.16,0.25-0.51,0.82-0.76,1.07c-0.25,0.21-0.8,0.6-0.8,0.6
		s0.2-0.39,0.15-0.57c-0.05-0.2-0.45-0.57-0.75-0.66c-0.29-0.11-1.54-0.41-2.1-0.6c-0.53-0.15-1.74-0.63-2.06-0.9
		c-0.33-0.24-1.76-1.95-2.11-2.37c-0.31-0.4-1.57-2.03-2.01-2.6c-0.43-0.55-1.4-1.92-1.92-2.59c-0.53-0.67-1.35-1.74-1.56-1.95
		c-0.23-0.23-0.26-0.33-0.46-0.45c-0.2-0.16-0.29-0.26-0.29-0.26l0.15-0.53c0.05-0.2,0.05-0.33,0.05-0.33s0.65,0.04,1.15-0.01
		c0.5-0.09,0.78-0.21,1.22-0.16c0.45,0.03,0.65,0.13,0.85,0.55c0.23,0.46,0.87,1.15,1.32,1.59c0.47,0.45,2.66,2.47,3.33,3.11
		c0.66,0.62,2.79,2.68,3.54,3.33c0.73,0.67,1.75,1.56,2.04,1.82c0.25,0.28,0.9,0.91,1.05,1.08
		C180.24,133.78,180.2,134.16,180.04,134.42z M190.69,132.39c-0.21,0.47-0.78,1.42-0.93,1.62c-0.15,0.21-0.55,0.6-0.75,0.75
		c-0.19,0.16-0.28,0.17-0.28,0.17s0.3-0.35,0.23-0.56c-0.04-0.21-0.19-0.55-0.55-0.77c-0.37-0.18-1.09-0.26-1.63-0.42
		c-0.53-0.1-2.55-0.6-3.36-0.83c-0.77-0.19-1.42-0.38-1.93-0.75c-0.48-0.36-1.75-1.54-2.39-2.14c-0.6-0.55-1.92-1.77-2.67-2.44
		c-0.75-0.69-2.27-2.12-2.81-2.63c-0.53-0.54-2.03-1.84-2.28-2.13c-0.26-0.31-0.88-0.88-1.06-1.05c-0.18-0.16-0.33-0.14-0.43-0.36
		c-0.12-0.14-0.05-0.42-0.02-0.49c0.04-0.1,0.12-0.23,0.12-0.23s0.7,0.06,1.02-0.03c0.29-0.08,0.95-0.24,1.15-0.24
		c0.2,0,0.59-0.08,0.96,0.08c0.34,0.16,1.27,0.68,1.74,1.05c0.48,0.38,2.45,1.92,3.07,2.37c0.62,0.44,3.59,2.56,4.22,2.97
		c0.58,0.43,3.29,2.21,4.01,2.67c0.74,0.42,2.08,1.24,2.73,1.62c0.66,0.39,1.39,0.76,1.59,0.97
		C190.63,131.77,190.88,131.97,190.69,132.39z M202.1,129.43c-0.16,0.33-0.5,1.28-0.65,1.58c-0.18,0.31-0.43,0.92-0.66,1.14
		c-0.25,0.19-0.37,0.32-0.5,0.34c-0.16,0.04-0.18,0.02-0.18,0.02s0.28-0.32,0.28-0.43s-0.18-0.56-0.39-0.71
		c-0.2-0.16-0.5-0.29-0.74-0.29c-0.23,0-0.99,0-1.69-0.08c-0.71-0.07-1.87-0.21-2.73-0.4c-0.85-0.19-1.44-0.27-2.14-0.55
		c-0.7-0.31-2.27-1.15-3.09-1.62c-0.8-0.48-3.39-2.07-4.23-2.62c-0.77-0.51-4.5-3.16-5.07-3.58c-0.56-0.38-1.9-1.39-2.46-1.79
		c-0.53-0.42-1.32-1.03-1.62-1.19c-0.31-0.13-1.24-0.45-1.54-0.6c-0.29-0.1-0.65-0.22-0.75-0.43c-0.08-0.19-0.04-0.46-0.04-0.46
		s1.29-0.31,1.63-0.45c0.31-0.13,1.03-0.28,1.3-0.23c0.26,0.06,1.22,0.5,1.79,0.8c0.55,0.33,3.04,1.64,3.84,2.08
		c0.8,0.42,4.1,2.09,4.83,2.44c0.76,0.36,3.16,1.57,4.03,1.95c0.88,0.4,3.9,1.73,4.76,2.06c0.78,0.35,2.05,0.8,2.77,1.07
		c0.73,0.24,1.66,0.5,2.09,0.63c0.43,0.14,1.2,0.34,1.25,0.52C202.23,128.84,202.23,129.14,202.1,129.43z M214.07,124.63
		c-0.09,0.24-0.29,0.96-0.44,1.36c-0.16,0.43-0.38,1-0.61,1.27c-0.25,0.25-0.78,0.38-0.78,0.38s0.28-0.19,0.24-0.49
		c-0.04-0.25-0.14-0.4-0.35-0.53c-0.23-0.16-0.33-0.28-0.66-0.28c-0.31-0.04-1.1,0.05-1.72,0.08c-0.62,0.04-2.74,0.04-3.58,0.04
		c-0.83,0-1.67,0.06-2.3-0.02c-0.61-0.07-1.39-0.18-2.33-0.47c-0.97-0.27-3.35-1.12-4.42-1.56c-1.02-0.43-4.18-1.8-5.04-2.19
		c-0.82-0.38-3.95-1.93-4.98-2.45c-1.03-0.54-2.5-1.24-3.31-1.67c-0.78-0.44-2.53-1.39-2.96-1.62c-0.46-0.18-0.95-0.37-1.34-0.46
		c-0.38-0.06-0.92-0.27-1.09-0.34c-0.17-0.09-0.57-0.2-0.57-0.2l0.06-0.51c0,0,1.22-0.27,1.84-0.5c0.51-0.19,1.2-0.48,1.79-0.44
		c0.59,0.07,1.82,0.47,2.55,0.74c0.7,0.26,3.22,1.16,3.89,1.44c0.67,0.23,6.45,2.2,7.4,2.47c0.9,0.29,5.92,1.78,6.98,2.1
		c1.05,0.29,5.89,1.51,7.03,1.76c1.14,0.21,3.02,0.55,3.62,0.68c0.58,0.12,1.12,0.22,1.18,0.5
		C214.22,123.99,214.18,124.42,214.07,124.63z M225.32,120.16c-0.2,0.43-0.55,1.2-0.93,1.63c-0.39,0.45-0.66,0.8-0.91,0.94
		c-0.23,0.19-0.33,0.23-0.33,0.23s0.22-0.33,0.17-0.55c-0.05-0.23-0.39-0.51-0.71-0.55c-0.34-0.08-1.04-0.02-1.74-0.02
		c-0.71,0-2.77-0.1-4.59-0.37c-1.84-0.29-4.61-0.7-6.47-1.15c-1.89-0.43-4.55-1.08-6.45-1.62c-1.91-0.54-5.06-1.46-7.03-2.11
		c-1.99-0.69-4.53-1.51-5.63-1.91c-1.11-0.4-4.38-1.56-4.88-1.74c-0.5-0.21-0.83-0.28-1.22-0.33c-0.38-0.02-0.87,0.07-1.27,0
		c-0.4-0.03-0.88-0.18-1.1-0.25c-0.2-0.09-0.39-0.1-0.47-0.27c-0.1-0.19-0.06-0.32-0.06-0.32s0.67-0.03,0.98-0.1
		c0.31-0.09,1.1-0.24,1.43-0.34c0.35-0.12,0.48-0.19,0.51-0.36c0.01-0.18-0.03-0.67,0-0.88c0.06-0.18,0.16-0.42,0.16-0.42
		s0.73,0.18,1.04,0.21c0.33,0,1.37,0.2,1.81,0.31c0.44,0.11,5.41,1.35,6.2,1.59c0.78,0.19,6.46,1.56,7.43,1.77
		c0.98,0.17,5.62,1.21,6.65,1.41c1.04,0.23,7.94,1.5,9.09,1.7c1.13,0.16,5.06,0.79,5.98,0.87c0.94,0.08,2.28,0.25,2.57,0.31
		c0.24,0.08,0.51,0.19,0.45,0.51C225.91,118.82,225.54,119.73,225.32,120.16z M234.72,114.28c-0.1,0.33-0.28,1.01-0.47,1.25
		c-0.14,0.24-0.28,0.5-0.55,0.67c-0.28,0.13-0.38,0.17-0.38,0.17s0.19-0.39,0.1-0.6c-0.12-0.22-0.51-0.6-0.76-0.62
		c-0.23-0.03-1.13,0.14-1.72,0.23c-0.62,0.1-1.72,0.21-2.47,0.28c-0.74,0.04-1.69,0.13-2.17,0.11c-0.49-0.01-1.36-0.11-2.13-0.22
		c-0.79-0.12-3.64-0.52-4.69-0.68c-1-0.15-4.34-0.75-5.76-0.97c-1.39-0.27-6.36-1.27-7.31-1.51c-0.95-0.18-4.64-1-5.57-1.22
		c-0.92-0.21-4.96-1.17-5.88-1.39c-0.93-0.23-3.51-0.85-4.2-1c-0.7-0.18-2.11-0.51-2.5-0.6c-0.38-0.06-0.81-0.18-1.13-0.07
		c-0.33,0.07-1.02,0.27-1.22,0.34c-0.21,0.07-0.27,0.1-0.56,0.06c-0.36-0.06-0.53-0.25-0.53-0.25s0.7-0.2,1.09-0.4
		c0.38-0.15,0.98-0.32,1.17-0.63c0.19-0.3,0.23-0.37,0.2-0.59c-0.01-0.2-0.07-0.36-0.07-0.36s1.2,0.05,1.67,0.1
		c0.48,0.04,2.74,0.38,3.46,0.48c0.7,0.08,4.19,0.62,5.13,0.75c0.93,0.15,7.33,1.02,8.59,1.19c1.27,0.14,6.76,0.85,7.77,0.98
		c1.01,0.11,7.2,0.78,8.15,0.87c0.97,0.09,4.44,0.41,5.63,0.5c1.2,0.11,3.76,0.24,4.88,0.26c1.1,0.03,1.89-0.02,2.18,0.07
		c0.29,0.1,0.51,0.3,0.46,0.5C235.07,112.2,234.82,113.94,234.72,114.28z M242.25,107.57c-0.16,0.54-0.53,1.39-0.83,1.64
		c-0.26,0.24-0.66,0.44-0.66,0.44s0.15-0.34,0.05-0.54c-0.1-0.2-0.49-0.49-0.78-0.49c-0.26,0.02-1.88,0.44-2.67,0.52
		c-0.8,0.11-2.12,0.23-3.12,0.22c-1-0.01-3.29-0.11-4.48-0.19c-1.15-0.08-4.31-0.31-5.9-0.5c-1.58-0.16-5.89-0.64-7.89-0.87
		c-1.99-0.24-6.02-0.74-7.46-0.93c-1.4-0.17-6.02-0.8-7.27-0.99c-1.22-0.18-4.52-0.61-5.43-0.75c-0.92-0.16-3.76-0.56-4.57-0.68
		c-0.84-0.1-1.33-0.22-1.69-0.22c-0.38,0-0.65-0.03-1.1,0c-0.48,0.04-0.4,0.04-0.63,0.04c-0.2,0-0.25-0.01-0.49-0.04
		c-0.2-0.03-0.32-0.06-0.32-0.06s0.83-0.52,1.2-0.8c0.36-0.29,0.77-0.55,0.87-0.83c0.09-0.24,0.09-0.4,0.09-0.4s2.55,0.09,3.14,0.14
		c0.57,0.04,3.4,0.23,4.15,0.28c0.73,0.05,5.26,0.36,6.67,0.46c1.42,0.1,7.77,0.52,9.06,0.6c1.25,0.06,6.34,0.38,7.59,0.45
		c1.25,0.07,6.1,0.32,7.67,0.39c1.59,0.06,7.1,0.23,8.04,0.25c0.95,0.01,4.05,0.04,4.6,0.01c0.53-0.03,1.2-0.08,1.57-0.08
		c0.36,0,0.77,0.01,0.78,0.41C242.47,105.45,242.39,107.03,242.25,107.57z M248.43,100.95c0.01,0.29,0.14,0.66,0.06,0.75
		c-0.08,0.06-0.73,0.45-0.86,0.46c-0.13,0.06-0.29,0.08-0.29,0.08s0.13-0.21,0.03-0.4c-0.09-0.16-0.47-0.45-0.7-0.49
		c-0.24-0.03-0.59,0.04-1.07,0.23c-0.46,0.18-1.85,0.58-2.62,0.75c-0.8,0.17-1.14,0.27-2.48,0.31c-1.32,0.03-4.38,0.03-5.7-0.04
		c-1.3-0.07-5.18-0.17-7.02-0.26c-1.84-0.1-6.37-0.33-7.95-0.4c-1.6-0.06-6.46-0.36-7.62-0.44c-1.17-0.1-6.83-0.43-8.04-0.48
		c-1.17-0.1-7.11-0.48-8.07-0.58c-0.95-0.1-3.03-0.23-3.66-0.26c-0.63-0.03-1.52-0.13-1.85-0.22c-0.31-0.08-0.31-0.21-0.59-0.27
		c-0.25-0.04-0.6-0.06-0.6-0.06s0.7-0.78,0.89-0.98c0.18-0.23,0.38-0.5,0.48-0.54c0.15-0.03,0.6,0.03,0.9-0.06
		c0.39-0.16,2.83-0.1,3.49-0.16c0.63,0,5.16,0,6.15,0c0.98,0,7.37-0.1,8.42-0.09c1.07,0.04,5.69,0,6.87-0.03
		c1.17-0.04,6.88,0,8.24-0.07c1.35-0.03,8.46-0.08,9.65-0.12c1.17-0.03,6.67-0.11,7.66-0.14c1,0,2.99-0.04,3.61-0.09
		c0.61-0.05,1.17-0.1,1.42-0.06c0.24,0.01,0.27,0.26,0.36,0.4c0.04,0.16,0.38,1.25,0.56,1.77
		C248.28,99.96,248.41,100.63,248.43,100.95z M155.32,90.82c1.12-0.21,4.31-0.77,5.62-0.87c1.3-0.1,3.58-0.2,4.66-0.2
		c1.19,0,3.46,0.11,5.16,0.26c1.78,0.19,4.2,0.55,5.8,0.63c1.61,0.09,4.33,0.17,5.56,0.14c1.18-0.05,3.39-0.14,4.58-0.16
		c1.2,0,5.57-0.17,7.03-0.27c1.46-0.08,5.41-0.31,6.88-0.36c1.47-0.09,5.97-0.18,7.26-0.18c1.29,0,6.87,0.24,8.29,0.32
		c1.42,0.07,4.9,0.27,6.18,0.34c1.29,0.08,3.15,0.14,4.22,0.21c1.08,0.04,4.27-0.04,4.95-0.04c0.68,0,3.11-0.02,4.44-0.04
		c1.31-0.09,4.84-0.36,6.15-0.46c1.25-0.12,4.56-0.45,5.64-0.53c1.05-0.06,2.1-0.22,2.55-0.15c0.45,0.05,0.99,0.41,1.13,0.56
		c0.14,0.18,0.77,0.83,1.21,1.34c0.48,0.49,0.92,1.03,0.99,1.19c0.07,0.18,0.37,0.6,0.29,0.73c-0.04,0.16-0.1,0.44-0.26,0.54
		c-0.16,0.08-0.9,0.4-0.9,0.4s-0.05-0.34-0.31-0.45c-0.23-0.12-0.7-0.28-1.02-0.18c-0.31,0.14-1.39,0.59-1.99,0.86
		c-0.61,0.27-1.64,0.73-2.11,0.78c-0.49,0.07-2.32,0.15-3.56,0.17c-1.24,0.02-4.84,0.03-6.4,0.08c-1.57,0.05-6.85,0.08-7.97,0.1
		c-1.1,0.02-5.95,0.08-7.49,0.08c-1.56,0-5.87,0.09-7.27,0.07c-1.41-0.02-7.6,0.1-8.96,0.08c-1.35-0.01-5.22,0-6.25,0.04
		c-1.04,0.02-2.44,0.06-3.79,0.15c-1.32,0.11-3.22,0.3-3.76,0.31c-0.55,0.06-1.27-0.04-1.54-0.11c-0.25-0.09-0.27-0.13-0.43-0.15
		c-0.16-0.03-0.63-0.1-0.63-0.1l-0.1-0.24c0,0,0.6-0.11,1.09-0.23c0.51-0.08,0.91-0.32,1.79-0.51c0.87-0.17,3.05-0.58,4.15-0.76
		c1.08-0.19,6.02-1.05,7.44-1.24c1.42-0.18,5.09-0.6,6.39-0.7c1.29-0.09,4.96-0.38,6.27-0.43c1.29-0.09,4.16-0.21,4.9-0.19
		c0.74,0.03,3.23,0.06,4.2,0.12c0.98,0.07,1.52,0.07,1.52,0.07l0.18-0.66c0,0-1.05-0.05-1.91-0.1c-0.88-0.06-3.13-0.1-3.9-0.1
		c-0.77,0-3.53,0.02-4.57,0.09c-1.01,0.05-2.48-0.13-3.68-0.15c-1.47-0.08-4.76-0.02-6.1,0.06c-1.34,0.1-5.13,0.47-6.34,0.64
		c-1.21,0.13-5.31,0.73-7.21,1.08c-1.89,0.33-4.83,0.92-6.22,1.18c-1.37,0.26-3.13,0.6-4.73,0.77c-1.56,0.16-4.76,0.22-5.92,0.19
		c-1.17-0.03-4.6-0.1-6.35-0.09c-1.72,0.04-4.63,0.04-6.32,0.24c-1.69,0.21-3.1,0.53-3.98,0.83c-0.89,0.28-1.78,0.61-2.36,1.03
		c-0.62,0.44-0.88,0.92-0.87,1.09c0.03,0.14,0.06,0.27,0.06,0.27l0.48,0.14c0,0-0.44,0.36-0.7,0.56c-0.25,0.21-0.53,0.73-0.63,1.17
		c-0.07,0.43-0.23,1.47-0.24,1.92c-0.03,0.45-0.07,0.62,0.08,0.97c0.14,0.35,0.85,1.59,1.11,2.11c0.28,0.5,1,1.69,1.2,2.02
		c0.2,0.35,0.57,0.84,0.84,1.27c0.28,0.41,0.75,1.41,0.8,1.72c0.08,0.33,0.08,0.82,0.08,1.29v2.37c0,0.39-0.04,0.68-0.13,0.76
		c-0.08,0.1-0.3,0.29-0.31,0.49c0,0.2-0.15,0.65-0.19,0.9c-0.07,0.24-0.24,0.74-0.24,0.74s-0.28-0.6-0.28-0.66
		c-0.03-0.08,0.1-0.55,0.04-1.24c-0.04-0.68-1.08-2.89-1.32-5.11c-0.16-1.39-0.99-2.82-1.64-3.76c-0.64-0.95-1.04-1.89-1.77-3.12
		c-0.72-1.24-2.75-2.44-4.04-3.37c-1.01-0.68-2.29-2.25-2.29-3.48c0-0.56-0.31-1.45-0.99-1.07c0.12-0.3,0.4-0.57,0.74-0.88
		c0.67-0.55,1.9-1.32,3.02-1.72C151.46,91.81,154.2,91.09,155.32,90.82z M107.47,90.33c0.66-0.26,3.98-1.4,5.02-1.67
		c1.25-0.33,4.18-1.02,5.94-1.3c1.76-0.29,5.32-0.68,8.72-0.68c2.93,0,5.61,0.25,7.03,0.4c1.42,0.19,4.28,0.69,5.44,0.95
		c1.15,0.32,3.1,0.79,4.21,1.15c1.07,0.37,2.77,0.95,3.43,1.24c0.67,0.29,1.07,0.39,1.19,0.51c0.11,0.08,0.13,0.26,0.47,0.43
		c0.35,0.14,0.86,0.34,0.86,0.34s-0.18,0.16-0.46,0.28c-0.28,0.11-0.63,0.26-0.88,0.38c-0.28,0.13-0.54,0.27-0.54,0.27
		s0-0.38-0.15-0.5c-0.15-0.12-0.98-0.56-1.85-0.88c-0.83-0.3-2.04-0.75-3.27-1.08c-1.19-0.34-3.32-0.97-4.78-1.22
		c-1.43-0.25-2.96-0.54-4.37-0.67c-1.41-0.15-4.63-0.4-6.28-0.39c-1.68,0.02-4.86,0.19-6.44,0.4c-1.59,0.18-4.21,0.6-5.73,0.98
		c-1.52,0.39-3.57,0.89-4.35,1.14c-0.82,0.29-1.78,0.68-2.09,0.68c-0.31,0.04-0.96-0.06-1.17-0.06c-0.23,0-0.43,0-0.59,0.05
		c-0.1,0.03-0.45,0.21-0.6,0.15c-0.15-0.09-0.44-0.24-0.44-0.24S106.81,90.63,107.47,90.33z M3.34,90.66c0.4-0.46,0.9-1.1,1.1-1.15
		c0.21-0.08,1.08-0.08,1.62-0.04c0.53,0.04,3.88,0.35,4.55,0.4c0.65,0.05,3.51,0.14,4.25,0.17c0.78,0.03,4.38,0.06,5.57,0.1
		c1.23,0.03,4.97,0.11,6.09,0.07c1.12-0.05,4.26-0.34,5.23-0.39c0.95-0.05,3.98-0.28,5.4-0.31c1.44-0.04,4.33,0,5.25-0.06
		c0.92-0.06,4.6-0.09,5.87-0.09c1.27,0,4.87,0.15,6.07,0.15c1.22,0.05,6.44,0.34,7.8,0.4c1.36,0.06,8.12,0.3,9.62,0.33
		c1.48,0.03,3.7,0.1,4.87,0.03c1.19-0.06,6.86-0.31,8.58-0.36c1.72-0.05,6.25-0.11,8.1-0.06c1.84,0.03,6.23,0.46,7.72,0.65
		c1.51,0.19,2.95,0.55,3.4,0.58c0.42,0.01,1.07,0.05,1.32,0.28c0.23,0.2,0.47,0.7,0.91,0.97c0.45,0.26,1.08,0.39,1.3,0.67
		c0.23,0.28,0.24,0.9,0.38,1.15c0.14,0.24,0.66,1.08,0.71,1.67c0.09,0.54,0,1.51-0.35,2.15c-0.36,0.62-0.97,1.35-1.62,2.04
		c-0.67,0.69-1.71,1.42-2.6,2.21c-0.88,0.77-2.4,1.94-3.17,3.01c-0.79,1.07-1.27,1.8-1.44,2.87c-0.16,1.08-0.06,1.71-0.13,1.89
		c-0.05,0.19-0.2,0.64-0.48,0.9c-0.24,0.28-1.37,1.55-1.74,2.09c-0.41,0.54-1.07,1.51-1.23,1.78c-0.18,0.25-0.31,0.53-0.31,0.53
		l-0.26-0.46c0,0,0.56-0.65,0.63-0.8c0.2-0.26,0.08-1.04,0.2-2.33c0.29-3.36,4.49-7.11,3.91-10.54c-0.5-2.69-3.83-4.98-7.19-5.5
		c-1.92-0.31-8.27-0.78-9.64-0.83c-1.71-0.06-6.3-0.13-7.75-0.16c-1.44-0.02-5.23-0.03-6.35-0.09c-1.12-0.03-2.53-0.04-4.33-0.34
		c-1.83-0.33-3.11-0.68-4.9-1.24c-1.81-0.53-3.23-0.97-4.65-1.27c-1.42-0.33-3.23-0.61-4.44-0.71c-1.26-0.11-3.66-0.29-5.52-0.34
		c-1.83-0.03-6.35,0-7.81,0.03c-1.46,0.01-5.95,0.17-7.14,0.17c-1.19,0-2.44-0.01-3.03,0.03c-0.55,0.05-0.41,0.3-0.66,0.35
		c-0.28,0.05-1.64,0-2.43,0c-0.76,0-1.37-0.05-1.62-0.08c-0.29-0.01-0.7-0.01-0.7-0.01s-0.06,0.26,0.22,0.34
		c0.28,0.08,0.97,0.13,1.2,0.16c0.24,0.02,2.1,0.12,2.74,0.15c0.66,0.06,1.77,0.06,2.5,0.1c0.72,0.07,1.98,0.07,2.81,0.09
		c0.83,0.01,4.21,0,5.47,0.03c1.21,0.06,3.56,0.06,4.67,0.09c1.15,0.01,3.86,0.13,5.98,0.39c2.13,0.23,3.87,0.5,6.01,1
		c2.04,0.49,4.47,1.25,5.65,1.63c1.17,0.34,2.82,0.8,3.66,1c0.85,0.17,1.63,0.21,1.84,0.41c0.21,0.18,0.21,0.38,0.09,0.62
		c-0.12,0.28-0.23,0.38-0.34,0.63c-0.08,0.24-0.16,0.47-0.16,0.47h-0.77c0,0,0.14-0.15,0.16-0.34c0.03-0.16-0.43-0.41-0.9-0.53
		c-0.48-0.06-2.63-0.28-3.21-0.35c-0.57-0.08-2.69-0.27-3.86-0.25c-1.16,0.03-5.7-0.03-6.87,0c-1.15,0.04-5.41-0.05-6.49-0.02
		c-1.07,0.04-4.8,0-5.83-0.01c-1.01-0.02-3.39-0.02-4.33-0.02c-0.95,0-4.13,0-5.26-0.03c-1.12,0-4.99-0.1-5.72-0.09
		c-0.75,0.03-2.86-0.03-3.91-0.03c-1.05-0.04-4.67-0.16-5.66-0.16c-0.99,0-2.2-0.08-2.59-0.2c-0.38-0.1-2.44-1.17-3.29-1.59
		c-0.83-0.41-2.41-1.21-2.84-1.46c-0.43-0.21-0.87-0.51-0.98-0.56c-0.14-0.07-0.7,0.52-0.88,0.73c-0.16,0.22-0.46,0-0.46,0
		S2.94,91.14,3.34,90.66z"/>
	<path class="st0" d="M159.72,125.71c0-11.92-13.04-23.87-32.22-23.87c-19.17,0-32.2,11.96-32.2,23.87
		c0,11.92,13.03,23.89,32.2,23.89C146.68,149.59,159.72,137.63,159.72,125.71z M107.97,137.38c0-1.14,2.29-2.31,2.26-3.32l0,0
		v-16.72c0-0.85-2.39-1.24-2.39-2.84c0-0.08,0.03-0.2,0.06-0.36c0.56-1.33,4.1-4.22,9.81-6c2.72-0.8,5.91-1.4,9.57-1.45
		c1.87-0.02,3.66,0.13,5.34,0.35c7.3,1.07,12.44,4.55,12.95,9.06c0.04,0.38,0.06,0.73,0.06,1.12c0,2.6-1.22,4.9-5.21,7.16v0.06
		c4.43,2.06,6.24,6.22,6.2,9.32c-0.07,5.67-6.57,10.44-17.93,10.5c-0.8,0-1.6,0-2.35-0.06
		C114.82,143.62,107.97,138.51,107.97,137.38z"/>
	<path class="st0" d="M135.96,133.94c0-6.24-4.26-7.72-8.26-7.74c-4.21,0.03-8.64,1.3-8.64,7.74c0,6.4,4.5,7.5,8.47,7.5h0.3
		C132.02,141.44,135.96,139.55,135.96,133.94z"/>
	<path class="st0" d="M127.51,123.66c4.44-0.03,7.66-1.74,7.66-7.03c0-5.09-3.07-6.96-7.66-6.98c-4.21,0.03-7.68,2.1-7.68,6.98
		C119.83,122.12,123.27,123.62,127.51,123.66z"/>
</g>
</svg>
