<?xml version="1.0" encoding="utf-8"?>
<!-- Generator: Adobe Illustrator 24.0.0, SVG Export Plug-In . SVG Version: 6.00 Build 0)  -->
<svg version="1.1" id="Layer_1" xmlns="http://www.w3.org/2000/svg" xmlns:xlink="http://www.w3.org/1999/xlink" x="0px" y="0px"
	 viewBox="0 0 256 256" style="enable-background:new 0 0 256 256;" xml:space="preserve">
<g>
	<path d="M0.7,95.1c0.3,0.1,2.3,1.2,3,1.6c0.7,0.4,3.7,1.9,3.7,1.9s0,0.1,0,0.3c-0.1,0.1-0.2,1.1-0.4,1.7c-0.1,0.6-0.4,1.9-0.4,2.2
		c-0.1,0.3-0.1,0.7,0.3,0.9c0.4,0.2,2.2,1.1,3,1.4c0.8,0.3,3.8,1.7,3.8,1.7s0,0.9,0,1.2c0,0.4,0.1,1.8,0.2,2.1
		c0.1,0.3,0,0.9,0.5,1.2c0.5,0.3,1.3,0.6,2.1,0.9c0.9,0.2,1.2,0.3,2.4,0.7s2.8,0.7,2.8,0.7s0.1,0.8,0.4,1.8c0.2,1,0.5,2.2,0.7,2.8
		c0.3,0.6,0.5,0.7,0.9,0.9c0.3,0.1,1.8,0.4,2.4,0.5c0.6,0.1,1.8,0.3,2.6,0.4c0.8,0.1,2.7,0.3,2.7,0.3s0.1,0.2,0.2,0.4
		c0.1,0.2,0.8,1.3,1.2,1.8c0.4,0.6,0.7,1.1,1.2,1.6c0.4,0.4,0.6,0.8,1.1,1c0.5,0.2,2.1,0.5,3.3,0.7c1.1,0.2,3.1,0.4,4.1,0.5
		c1,0.1,2.8,0.1,2.8,0.1s0.2,0.7,0.4,1.4c0.2,0.6,0.4,1,1,1.8c0.6,0.8,1,0.9,1.6,1.1c0.6,0.1,2.2,0.2,2.8,0.2c0.6,0,3.5,0,4,0
		c0.5,0,2.6,0,2.6,0s0.1,0.3,0.2,0.6c0.1,0.3,0.7,1.3,0.9,1.6c0.3,0.4,0.5,0.7,1,1.1c0.5,0.5,0.9,0.6,1.5,0.7
		c0.6,0.1,1.8-0.1,2.8-0.2c1-0.1,2.7-0.4,3.4-0.6c0.7-0.2,2.5-0.6,2.5-0.6s0.4,0.8,0.8,1.3c0.4,0.6,0.8,1,1.1,1.2
		c0.3,0.2,0.5,0.4,1.7,0.5c1.2,0.1,2.5-0.3,3.6-0.6s2.8-0.8,2.8-0.8s0,0.2,0.2,0.7c0.2,0.4,0.7,1.8,1.2,3.2c0.6,1.4,1.1,2.4,1.7,3.6
		c0.6,1.2,1.3,2.4,2.2,3.6c0.9,1.2,2,2.5,2.6,3.3c0.7,0.8,3.5,3.6,4.3,4.3c0.8,0.7,3,2.3,3.9,2.9c0.9,0.6,2.5,1.6,3.4,2.1
		c0.9,0.5,3.1,1.6,4.2,2.1c0.9,0.4,2.4,1,2.4,1s0.3,0.6,0.5,1.1c0.2,0.4,1.1,2.1,1.2,2.4c0.1,0.2,0.4,0.2,0.7,0.2
		c0.2-0.1,1.5-0.6,2-0.7c0.4-0.2,1.7-0.6,1.7-0.6s0.6,1,0.9,1.4c0.3,0.4,1,1.4,1.1,1.6c0.1,0.2,0.4,0.2,0.6,0.1
		c0.2-0.1,0.9-0.6,1.5-0.9c0.5-0.3,1.9-1,1.9-1s0.7,0.8,0.9,1.1c0.2,0.3,1.3,1.5,1.5,1.7c0.2,0.2,0.4,0.2,0.6,0.1
		c0.2-0.1,1.2-0.9,1.6-1.2c0.4-0.3,1.5-1.1,1.5-1.1s0.9,0.9,1.3,1.3c0.4,0.4,1.3,1.2,1.5,1.3c0.2,0.1,0.4,0,0.4,0s0.2-0.2,0.3-0.3
		c0.1-0.1,0.9-0.9,1.2-1.2c0.3-0.3,1.2-1.2,1.2-1.2s0.2,0.2,0.5,0.4c0.3,0.2,1.1,0.8,1.5,1.1c0.4,0.4,0.9,0.7,1.1,0.8
		c0.2,0.1,0.4,0.1,0.4,0c0.1-0.1,1.1-1.2,1.4-1.6c0.4-0.5,1.1-1.3,1.1-1.3s1.2,0.7,1.5,0.9c0.3,0.1,1.7,0.9,1.9,1
		c0.2,0.1,0.4,0.1,0.6,0c0.1-0.1,0.8-1.2,1.1-1.6c0.2-0.4,1-1.5,1-1.5s1.1,0.4,1.6,0.6c0.5,0.2,1.8,0.7,2.1,0.8
		c0.3,0.1,0.5,0,0.6-0.2c0.1-0.2,0.6-1.2,0.9-1.8c0.3-0.7,0.8-1.7,0.8-1.7s1.4-0.6,2.6-1.1c1.2-0.6,3.9-2,5.4-3
		c1.5-0.9,3.4-2.3,4.5-3.2c1.1-0.9,3.1-2.7,3.5-3.1c0.5-0.5,1.2-1.3,1.7-1.8c0.6-0.5,2.7-3.2,3.3-4.1c0.5-0.6,1.9-3.1,2.2-3.6
		c0.3-0.6,1.2-2.5,1.4-2.9c0.2-0.4,0.9-2.5,0.9-2.5s0.5,0.2,1.1,0.4c0.6,0.2,1.4,0.4,2,0.5c0.6,0.1,1.1,0.1,1.4,0.1
		c0.3-0.1,0.9-0.4,1.2-0.7c0.3-0.3,0.8-0.8,1.1-1.1c0.3-0.4,0.6-1.1,0.6-1.1s0.4,0.1,0.7,0.2c0.3,0.1,1.7,0.5,2.3,0.7
		c0.6,0.1,1.9,0.4,2.4,0.5c0.6,0.1,1.3,0.2,2,0.1c0.7-0.1,1.1-0.6,1.5-0.9c0.3-0.3,0.8-1,1-1.4c0.2-0.4,0.5-1.2,0.5-1.2
		s0.4,0.2,0.9,0.3c0.4,0.1,1.9,0.4,2.7,0.5c0.8,0.1,2.3,0.2,3.1,0.2c0.7,0,1.5,0,2.1-0.1c0.6-0.1,0.7-0.3,1.1-0.6
		c0.3-0.3,0.6-0.7,0.7-1.1c0.2-0.3,0.5-1.1,0.6-1.6c0.1-0.5,0.4-1.3,0.4-1.3s0.8,0,1.2,0c0.5,0,1.9,0,2.6,0c0.7,0,3.4-0.1,3.8-0.1
		c0.4,0,1.1-0.1,1.8-0.2c0.7-0.1,0.9-0.4,1.1-0.6c0.2-0.2,0.5-0.6,0.7-1.1c0.2-0.6,0.4-1.2,0.4-1.5c0.1-0.3,0.3-1.4,0.3-1.4
		s0.4,0.1,0.8,0.2c0.6,0.1,1.5,0.2,2.3,0.2c0.8,0,2.5,0,3,0s1.7,0,1.9-0.1c0.2-0.1,0.7-0.4,1-0.7c0.3-0.3,0.9-1,1.3-1.4
		c0.3-0.5,0.8-1.5,1-1.9c0.2-0.4,0.6-1.9,0.6-1.9s0.5,0,1.1-0.1c0.5-0.1,2.1-0.2,2.9-0.3c0.8-0.1,1.7-0.3,2.3-0.4
		c0.6-0.2,0.9-0.4,1.3-0.7c0.4-0.3,0.7-1,0.9-1.4s0.3-1.3,0.4-1.9c0.1-0.5,0.1-1.7,0.1-1.7s0.3,0,0.7,0c0.4-0.1,1.3-0.2,2-0.3
		c0.7-0.1,2-0.5,2.4-0.7c0.4-0.2,0.9-0.5,1.2-0.8c0.3-0.4,0.7-1.1,0.8-1.6c0.2-0.6,0.2-1.3,0.2-1.9c0-0.6-0.1-1.6-0.1-1.6
		s1.3-0.3,2-0.5c0.7-0.2,2.3-0.9,2.7-1c0.4-0.2,1.5-0.8,1.6-0.8c0.1-0.1,0-0.8,0-1.2c0-0.3-0.3-1.4-0.5-2c-0.2-0.5-0.7-1.8-0.7-1.8
		s1.8-0.8,2.5-1c0.7-0.3,2.8-1.4,3-1.5c0.2-0.1,0.3-0.2,0.5-0.4c0.2-0.2,0.6-0.9,0.7-1.1c0.1-0.1-0.1-0.3-0.3-0.5
		c-0.2-0.3-0.9-1.1-1.4-1.8c-0.6-0.7-2.1-2.1-2.3-2.2c-0.2-0.1-0.6-0.1-1.5-0.1c-0.9,0.1-6,0.5-8.4,0.7c-2.4,0.3-7.2,0.5-8.6,0.5
		c-1.4,0.1-6-0.2-8.2-0.3c-2.2-0.1-13-0.8-15.5-0.7c-2.5,0.1-14.4,0.6-16.5,0.7c-2,0.1-8.9,0.4-11,0.4c-3.2,0-6.3-0.3-7.6-0.5
		c-1.3-0.2-6-0.6-7.9-0.7c-2,0-3.2,0.1-4.8,0.2c-1.6,0.1-4.4,0.6-6.2,0.9c-1.8,0.4-3.9,1-3.9,1s-2.9-1.3-4.3-1.9
		c-1.4-0.6-5-1.7-8.2-2.3c-3.2-0.7-7.8-1.1-11-1.1c-3.2,0-6.5,0.4-9.6,0.9c-3,0.4-7,1.6-8.6,2.1c-1.5,0.5-4.5,1.7-4.5,1.7
		s-1.8-0.6-3.4-0.8c-1.6-0.3-8.5-0.7-10.7-0.7S77,89.6,74.7,89.7c-2.3,0.1-9.4-0.3-12-0.4c-2.6-0.1-13-0.5-15.3-0.5
		c-2.3,0-11.6,0.2-13.2,0.3c-1.6,0.1-8.9,0.5-9.9,0.5c-1,0-5.6,0-7.3,0c-1.7,0-6.1-0.2-7.1-0.3c-1-0.1-4.7-0.5-5.1-0.5
		c-0.3,0-0.8,0.1-1.1,0.4c-0.3,0.4-0.8,0.8-1.3,1.4C1.9,91.2,0,93.4,0,93.4s0.1,0.3,0.2,0.7C0.3,94.5,0.4,94.9,0.7,95.1z
		 M14.3,103.8c-0.3-0.1-2.4-1.1-2.9-1.3c-0.6-0.3-1.6-0.7-1.8-0.9c-0.2-0.2-0.1-0.6-0.1-0.9c0-0.3,0-0.7-0.3-1
		c-0.3-0.3-0.8-0.6-0.8-0.6l0.1-0.7c0,0,1.8,0,2.4,0c0.6,0,3.9,0.2,5.1,0.2c1.2,0,4.9,0.1,5.7,0.1c0.9-0.1,5.9,0.1,6.9,0.1
		s6.3,0,7.3,0c1.1,0,7,0.1,7.9,0.1s5.8,0,7,0c1.1,0,6.1,0,7.2,0s4,0,4.6,0c0.6,0,1.1-0.1,1.2-0.1c0.1,0,0.5-0.2,0.8-0.1
		c0.3,0.1,0.4,0.4,0.5,0.5c0.1,0.1,0.3,0.3,0.4,0.4c0.1,0.1,0.4,0.2,0.6,0.4c0.2,0.2,0.2,0.2,0.4,0.4c0.2,0.2,0.3,0.3,0.2,0.4
		c-0.1,0.1-0.5,0.6-0.6,0.8c-0.2,0.2-0.2,0.5-0.3,0.6c-0.1,0.1-0.6,0.2-0.6,0.2s0.3-0.3,0.3-0.5c-0.1-0.2-0.4-0.7-1.2-0.8
		c-0.8,0-2.7,0.1-3.6,0.2c-0.9,0.1-6.7,0.6-7.7,0.7c-1,0.1-9,0.7-10.4,0.8c-1.4,0.1-7.7,0.5-8.9,0.6c-1.2,0.1-6,0.3-7.4,0.4
		c-1.5,0.1-4.9,0.2-6.2,0.3c-1.3,0.1-3.8,0.1-4.3,0.1C15.2,104.2,14.6,103.9,14.3,103.8z M95.1,134.6c0.1,0.2,0.2,0.4,0,0.4
		c-0.2,0.1-0.6,0.4-0.7,0.4c-0.1,0.1-0.4,0.1-0.6-0.2c-0.1-0.2-0.6-0.2-0.9-0.5c-0.4-0.2-0.3-0.4-0.3-0.8c0-0.3,0.2-1.4,0.1-1.6
		c-0.1-0.2-0.3-0.7-0.3-0.7s0.5-1.3,0.7-1.5c0.2-0.2,0.3-0.6,0.3-0.6s0.1,0.7,0.3,1c0.1,0.3,0.4,0.6,0.6,1c0.1,0.2,0.6,1.6,0.7,1.9
		c0.1,0.2,0.3,0.6,0.2,0.8C95,134.3,95,134.5,95.1,134.6z M89.4,120.7c-0.3-0.5-0.5-0.6-0.7-0.6c-0.3-0.1-0.4,0-0.7-0.2
		c-0.4-0.2-0.6-0.6-0.8-0.7c-0.2,0-0.2-0.1-0.4,0c-0.3,0.2-0.5,0-0.5,0s1.2-1.1,1.8-1.7c0.6-0.6,1.7-1.7,2.2-2.2
		c0.5-0.5,1.4-1.3,1.4-1.3s0.2,0.3,0.6,0.3c0.4,0,0.8,0.1,1.1,0.1c0.3,0,0.8,0,1-0.1c0.2-0.2,0.4-0.2,0.4-0.2s-0.3,0.3-0.6,0.8
		c-0.3,0.4-1.2,1.6-1.7,2.4c-0.5,0.8-1.6,2.4-1.8,2.7c-0.2,0.3-0.6,0.9-0.7,1.2c-0.1,0.1-0.3,0.4-0.3,0.4S89.7,121.2,89.4,120.7z
		 M88.8,106.8c0,0-0.9,0.7-1.2,1c-0.3,0.3-0.8,0.8-1,0.9c-0.1,0.1-0.6-0.2-0.9-0.3c-0.3-0.1-1-0.3-1.2-0.3c-0.3,0-0.5,0-0.5,0
		s0.7-0.6,1.1-0.9c0.4-0.4,1.3-0.9,1.7-1.2c0.4-0.3,0.7-0.5,0.8-0.5c0.1,0,0.3,0.1,0.4,0.1c0.1,0.1,0.3,0.1,0.4,0.3
		c0.1,0.2,0,0.4,0.1,0.5c0.1,0.1,0.3,0.1,0.3,0.2C88.8,106.6,88.8,106.8,88.8,106.8z M88.8,107.6c0.3-0.2,0.9-0.7,0.9-0.7
		s0.3,0,0.2,0.2c-0.1,0.2,0.2,0.2,0.3,0.2c0.1,0,0.5-0.1,0.6-0.1c0.1,0.1,0.2,0.1,0.2,0.3c0,0.2,0,0.4,0.1,0.4c0.1,0,0.2,0,0.3,0.1
		c0,0.1,0,0.2,0,0.2s-1,1-1.4,1.4c-0.4,0.4-1.1,1.1-1.2,1.2c-0.1,0.1-0.2,0.2-0.2,0.2s-0.2-0.4-0.5-0.7c-0.3-0.3-0.5-0.4-0.8-0.5
		c-0.4-0.1-0.7-0.1-0.7-0.1s0.8-0.7,1.2-1.1C88.1,108.3,88.5,107.9,88.8,107.6z M86.4,104.2c-0.1,0.2-0.2,0.4-0.6,0.8
		c-0.4,0.4-0.8,0.6-1.1,0.9c-0.3,0.2-0.7,0.6-0.9,0.6c-0.2,0-0.6-0.2-0.8-0.2c-0.2,0-0.7-0.2-0.8-0.3c-0.1-0.1-0.3-0.2-0.5-0.2
		c-0.2,0-0.6,0.1-0.6,0.1l0-0.4c0,0,1.1-0.6,1.5-0.8c0.3-0.2,1.5-0.8,2-1.1c0.5-0.3,1.1-0.5,1.4-0.4c0.3,0,0.6,0.1,0.6,0.3
		C86.6,103.7,86.6,104,86.4,104.2z M84.6,101.9c-0.2,0.1-1.3,0.8-1.8,0.9c-0.4,0.2-1.4,0.7-1.7,0.7c-0.3,0-0.6-0.1-0.9-0.2
		c-0.3-0.1-0.4-0.1-0.5-0.1c-0.2,0-0.5,0-0.5,0s0-0.1,0-0.2c0-0.1,0-0.2,0-0.2s1-0.5,1.8-0.9c0.8-0.3,2.5-0.9,2.8-1
		c0.4-0.1,0.7-0.2,0.9-0.1c0.2,0.1,0.4,0.2,0.3,0.4C85.1,101.4,84.8,101.8,84.6,101.9z M84.2,98.9c-0.1,0.1-0.1,0.1-0.3,0.3
		c-0.2,0.2-0.4,0.5-0.6,0.6c-0.2,0.1-0.8,0.2-1.4,0.4c-0.6,0.1-1.6,0.5-1.9,0.5c-0.3,0.1-0.4,0.2-1,0.1c-0.6-0.1-0.7-0.2-0.9-0.2
		c-0.2-0.1-0.2,0-0.4,0.1c-0.1,0-0.2,0-0.2,0v-0.2c0-0.1,0-0.2,0-0.2s1-0.4,1.7-0.7c0.8-0.2,2.1-0.6,2.7-0.7c0.6-0.1,1-0.3,1.2-0.2
		c0.2,0.1,0.5,0.1,0.7,0.1l0.3-0.1C84.2,98.7,84.3,98.9,84.2,98.9z M78,102.4c0.3,0.1,0.7,0.3,0.7,0.5c0.1,0.2-0.1,0.6-0.2,0.7
		c-0.1,0.2-0.1,0.4-0.2,0.5c-0.1,0.2-0.1,0.4-0.1,0.4s-0.2,0.2-0.4,0.2l-0.4,0.1c0,0,0-0.2-0.1-0.4c-0.2-0.2-0.6-0.4-0.9-0.3
		c-0.3,0.1-1.5,0.6-1.9,0.8c-0.4,0.2-1.8,0.8-2.2,1c-0.4,0.2-0.8,0.3-1.2,0.3c-0.4-0.1-0.8-0.1-1.2-0.3c-0.3-0.2-0.8-0.4-0.9-0.4
		c-0.2,0-0.5-0.1-0.5-0.1s0.1-0.3,0.2-0.4c0.2-0.1,0.6-0.2,0.8-0.3c0.2-0.1,0.9-0.3,1.6-0.6c0.7-0.3,2-0.7,2.6-0.8
		c0.6-0.2,1.8-0.6,2.1-0.7c0.3-0.1,0.7-0.4,1-0.3C77.1,102.2,77.7,102.3,78,102.4z M71.3,108.5l1.5-0.7c0.5-0.2,2.5-1.2,3.2-1.5
		c0.6-0.3,1.6-0.8,1.8-0.8c0.2-0.1,0.4-0.3,0.7-0.3c0.2,0,0.8,0.1,1.2,0.2c0.3,0.1,0.8,0.1,0.9,0.3c0.1,0.2,0.2,0.6,0.1,0.8
		c-0.1,0.1-0.2,0.6-0.2,0.7c0,0.2,0.1,0.6,0.1,0.6l-0.5,0.2c-0.2,0.2-0.5,0.3-0.5,0.3s-0.1-0.3-0.3-0.4c-0.2-0.2-0.6-0.3-0.9-0.2
		c-0.2,0.1-1.4,0.7-1.8,1c-0.4,0.3-1.5,1-1.7,1.1c-0.2,0.1-0.3,0.3-0.9,0.3c-0.5,0-0.8-0.1-1.1-0.2c-0.3-0.1-0.8-0.5-1-0.6
		c-0.2-0.1-0.7-0.2-0.7-0.4C71.3,108.6,71.3,108.5,71.3,108.5z M76.4,110.9c0.7-0.4,2.3-1.3,2.9-1.7c0.6-0.3,1.2-0.8,1.6-0.9
		c0.3,0,1.1,0,1.6,0c0.4,0,0.7,0,0.8,0.2s0,0.4-0.1,0.6c0,0.2,0,0.7,0,0.7l-3.1,2.5c-0.5,0.4-1.7,1.4-1.8,1.5c-0.1,0-0.5-0.3-1-0.5
		c-0.5-0.2-0.8-0.2-1-0.3c-0.2,0-0.5-0.2-0.8-0.3c-0.3-0.1-0.4-0.2-0.6-0.2c-0.2,0-0.7,0.2-0.7,0.2l-0.1-0.3
		C74.2,112.3,75.7,111.3,76.4,110.9z M79.3,113.9c0.6-0.5,2.2-1.8,2.7-2.2s1.5-1.2,1.7-1.3c0.2-0.1,0.3-0.2,0.5-0.2s0.7-0.1,0.9-0.1
		c0.2,0,0.6,0,0.7,0.3c0,0.3,0.2,0.8,0.2,1.1c0,0.2,0,0.5,0.1,0.6c0.1,0.2,0.2,0.2,0.2,0.2s-0.2,0.2-0.5,0.5
		c-0.3,0.3-1.2,1.2-1.7,1.6c-0.4,0.4-1.3,1.2-1.6,1.5c-0.3,0.3-0.8,0.8-0.8,0.8s-0.1-0.5-0.4-0.7c-0.3-0.2-0.9-0.4-1.3-0.4
		c-0.4,0-0.9-0.4-1.1-0.5c-0.2-0.1-0.4,0.1-0.4,0.1S78,115.2,78,115C78,115,78.8,114.3,79.3,113.9z M84.1,115.2
		c0.4-0.4,1.8-1.7,2.1-2.1c0.3-0.3,0.6-0.7,0.9-0.8c0.4-0.1,0.8-0.3,1-0.3c0.2,0.1,0.3,0.3,0.4,0.6c0.1,0.3,0.4,0.7,0.9,0.9
		c0.5,0.2,0.8,0.2,1.1,0.2c0.2,0,0.4,0,0.4,0s-0.5,0.5-0.8,0.8c-0.2,0.3-1.1,1.1-1.5,1.5s-1.7,1.7-2,2c-0.4,0.3-0.8,0.8-0.8,0.8
		s0-0.3-0.3-0.6c-0.4-0.3-0.8-0.3-1.2-0.3c-0.4,0-0.6-0.1-0.9-0.3c-0.2-0.2-0.4-0.4-0.6-0.4c-0.1,0-0.4,0.1-0.5,0.2
		c-0.1,0-0.4,0-0.4,0L84.1,115.2z M92.4,112.4l0.1-0.2c0,0,0.6-0.8,1.1-1.3l1.3-1.4c0.2-0.2,0.4-0.4,0.4-0.4s-0.3,0.8-0.4,1.2
		c-0.1,0.3-0.2,1.1-0.2,1.4c0,0.3-0.1,0.6-0.2,1c-0.1,0.4-0.1,0.7-0.1,0.7s-0.2,0.2-0.4,0.2c-0.2,0.1-0.4,0.3-0.4,0.3s0-0.6-0.3-0.9
		c-0.2-0.3-0.3-0.3-0.5-0.4C92.7,112.5,92.4,112.4,92.4,112.4z M90.4,123.9c0.1,0,0.7-0.1,1.2-0.2c0.5-0.1,1.2-0.2,1.4-0.2
		c0.2,0.1,0.2,0.2,0.2,0.4c0,0.2,0,1.7,0,2.2c0,0.5,0,1.6-0.1,2c-0.1,0.4-1.3,2.7-1.6,3.4c-0.3,0.6-1,2.1-1.2,2.3
		c-0.1,0.3-0.2,0.4-0.3,0.5c-0.1,0.1-0.3-0.2-0.6-0.6c-0.4-0.5-0.8-0.4-1.2-0.3s-2.8,0.8-3.2,0.8c-0.4,0.1-1.1,0.3-1.5,0.2
		c-0.4-0.1-0.6-0.3-0.8-0.6c-0.2-0.3-0.4-0.5-0.7-0.5c-0.3,0-0.5-0.1-0.5-0.1s2.2-2.3,2.7-2.8c0.5-0.5,3.1-3.3,3.7-4
		c0.6-0.6,1.5-1.8,1.8-2.1C90.1,124.1,90.3,123.9,90.4,123.9z M93.6,121.6c-0.2,0.3-0.3,0.6-0.3,0.7l-0.1,0.4c0,0-0.3,0.2-0.4,0.2
		l-0.4,0.1v-0.3c0-0.1-0.2-0.4-0.4-0.7c-0.1-0.2-0.3-0.5-0.1-1c0.1-0.5,0.4-1.1,0.5-1.5c0.2-0.4,0.3-0.8,0.6-1.5
		c0.3-0.7,0.5-1.2,0.9-1.7c0.3-0.5,0.5-0.8,0.7-1c0.2-0.2,0.4-0.3,0.4-0.3s0.1,0.2,0.3,0.4c0.1,0.2,0.3,0.4,0.3,0.5
		c-0.1,0.2-0.7,1.4-0.8,1.8c-0.1,0.3-0.6,1.9-0.7,2.3C93.9,120.6,93.7,121.3,93.6,121.6z M95,108.3c-0.4,0.5-1.8,2-2.4,2.7
		c-0.6,0.7-1,1.2-1.2,1.4c-0.2,0.3-0.4,0.6-0.4,0.6h-0.2c0,0,0.2-0.3,0.2-0.6c-0.1-0.3-0.3-0.8-0.6-0.9c-0.3-0.1-0.3-0.2-0.5-0.1
		c-0.2,0.1-0.3,0.1-0.4,0.2c-0.1,0-0.2,0-0.2,0s0.6-0.7,0.9-1c0.3-0.3,1.1-1,1.3-1.3c0.3-0.3,0.5-0.4,0.6-0.4c0.1,0,0.6,0.2,0.9,0.1
		c0.3-0.2,0.9-0.7,0.9-1.1c0-0.4-0.2-0.8-0.4-1s-0.7-0.4-0.9-0.3c-0.3,0-0.6,0.1-0.8,0.2c-0.2,0.1-0.4,0.1-0.4,0.1s0-0.2,0.1-0.5
		c0-0.3-0.1-0.6-0.3-0.8c-0.2-0.3-0.5-0.5-0.9-0.6c-0.4,0-0.6,0.1-0.7,0c-0.2-0.1,0-0.3-0.2-0.7c-0.1-0.3-0.3-0.7-0.7-0.8
		c-0.4-0.1-0.7-0.2-0.9-0.2c-0.2,0-0.2-0.1-0.2-0.3c0-0.3-0.1-1-0.3-1.1c-0.2-0.2-0.6-0.5-0.8-0.5c-0.3-0.1-0.4-0.1-0.4-0.3
		c0-0.1,0.2-0.4,0.2-0.7s0-0.7-0.4-0.9c-0.3-0.2-0.7-0.3-0.9-0.6c-0.1-0.2-0.4-0.5-0.4-0.5c-0.1,0-0.4,0-0.6,0
		c-0.2,0-0.8,0.1-1.1,0.2c-0.4,0.1-0.6,0.2-0.8,0.1c-0.2-0.1-0.6-0.2-0.9-0.2c-0.3,0-1,0-1.4,0.1c-0.5,0.1-1,0.1-1.3,0.1
		c-0.4,0-0.6-0.1-1-0.3c-0.3-0.1-0.4-0.2-0.6-0.3c-0.2-0.1-0.3-0.2-0.3-0.2s0-0.2,0.1-0.3c0-0.1,0.1-0.3,0.1-0.3s1.4-0.1,2.5-0.1
		c1,0,2.3,0,3,0.1c0.7,0.1,1.8,0.2,2.3,0.1c0.4,0,1.1-0.1,2.2-0.1c1.1,0.1,2.9,0.1,4.2,0.3c1.2,0.2,2.4,0.4,3.4,0.8
		c1,0.3,2.9,1.1,3.5,1.8c0.6,0.7,1,1.3,1,2.2c-0.1,0.9-0.5,1.9-0.7,2.4c-0.3,0.6-1,1.8-1.1,2C96.6,106.8,95.5,107.8,95,108.3z
		 M76.8,99.8c0.2,0.2,0.4,0.4,0.3,0.6c-0.1,0.2-0.2,0.3-0.3,0.4c-0.1,0.2-0.1,0.2-0.1,0.4c0,0.2,0,0.4,0,0.4s-0.6,0.2-0.6,0.2
		c-0.1,0-0.2,0.1-0.2,0.1s0.1-0.4,0-0.4c-0.1-0.1-0.5-0.3-0.9-0.4c-0.4-0.1-1.6,0.3-1.9,0.4c-0.4,0.2-1.8,0.5-2.3,0.7
		c-0.6,0.2-1,0.4-1.5,0.4c-0.4-0.1-0.8-0.2-1.2-0.4c-0.4-0.2-0.4-0.2-0.6-0.3c-0.1-0.1-0.4-0.2-0.4-0.2s0.3-0.5,0.4-0.6
		c0.1-0.1,0.9-0.3,1.2-0.4c0.3-0.1,1.9-0.5,2.6-0.6c0.7-0.2,2-0.4,2.6-0.6c0.6-0.2,1.2-0.4,1.4-0.4c0.2,0,0.5,0.1,0.7,0.3
		C76.2,99.4,76.6,99.7,76.8,99.8z M75.8,97.3c-0.1,0.1-0.2,0.5-0.3,0.7c-0.1,0.2,0,0.5-0.2,0.5c-0.1,0.1-0.7,0.1-0.7,0.1
		s0.1-0.3-0.1-0.4C74.4,98.2,74,98,73.7,98c-0.3,0-2.1,0.2-2.6,0.2c-0.5,0.1-2.1,0.3-2.4,0.3c-0.3,0.1-0.7,0-0.9-0.1
		c-0.2-0.1-1.1-0.4-1.3-0.6c-0.2-0.2-0.3-0.3-0.4-0.3l-0.4-0.1l0.2-0.4c0.1-0.1,0.2-0.4,0.2-0.4s3.4,0,4.4,0c1,0,3.9,0,4.2,0
		c0.3,0,0.7,0.1,0.9,0.2l0.3,0C75.8,96.9,75.9,97.2,75.8,97.3z M19.3,110c-0.9-0.2-2.4-0.6-2.6-0.9c-0.2-0.2-0.4-0.5-0.4-0.8
		c-0.1-0.3-0.5-0.9-0.8-1c-0.2-0.1-0.8-0.4-0.8-0.4v-0.5c0,0,0.9,0,1.3-0.1c0.5-0.1,2.3-0.1,3.5-0.1c1.2-0.1,5.9-0.2,7.4-0.3
		c1.5-0.1,8.2-0.4,9.5-0.5c1.2-0.1,10.1-0.7,11.3-0.8c1.2-0.1,8.5-0.7,9.6-0.8c1.1-0.1,5-0.5,6.3-0.6c1.4-0.1,1.6-0.3,1.8-0.3
		c0.2,0,0.4-0.2,0.6,0.1c0.2,0.3,0.7,0.8,0.9,0.9c0.3,0.2,1.1,0.7,1.2,1c0,0.3-0.2,0.6-0.4,0.9c-0.1,0.2-0.1,0.8-0.1,0.8l-0.9,0.2
		c0,0,0.1-0.2,0.1-0.3c0-0.1-0.1-0.5-0.5-0.6c-0.4-0.2-1-0.2-1.6-0.1c-0.6,0.1-3.3,0.6-4.4,0.8c-1.1,0.2-7.5,1.3-9.1,1.5
		c-1.6,0.3-7.8,1.2-9.2,1.4c-1.5,0.2-7.2,1-9.2,1.1c-2,0.2-4.4,0.4-5.7,0.5c-1.4,0.1-2.7,0.2-3.7,0.1C22.4,111,20.3,110.3,19.3,110z
		 M28.7,117.2c-1.1-0.2-2.3-0.4-2.7-0.5c-0.4-0.1-0.8-0.2-1-0.6c-0.2-0.5-0.1-0.9-0.5-1.2c-0.3-0.3-0.7-0.7-1-0.8
		c-0.2-0.1-0.6-0.1-0.7-0.2c-0.1-0.2-0.1-0.5-0.1-0.5s0.4,0.1,0.8,0c0.4,0,0.7-0.2,1.2-0.2c0.5,0,1.9-0.1,2.7-0.1
		c0.8,0,3-0.2,3.9-0.3c0.8-0.1,4.6-0.4,5.9-0.6c1.2-0.2,8-1.1,9.1-1.3c1.1-0.2,6.8-1,8.3-1.3c1.5-0.3,6.7-1.2,8-1.4
		c1.3-0.2,2.9-0.5,3.5-0.6c0.6-0.1,1-0.4,1.3-0.3c0.3,0.1,0.7,0.4,1.1,0.6c0.4,0.2,1.1,0.4,1.4,0.5c0.4,0.1,0.7,0.3,0.7,0.4
		c0,0.1,0,0.7-0.2,0.9c-0.1,0.2-0.2,0.5-0.3,0.7c-0.1,0.3-0.1,0.5-0.1,0.5l-0.8,0.3c0,0,0.1-0.4,0-0.6c-0.1-0.2-0.6-0.5-0.8-0.5
		c-0.3,0-0.6,0.1-1,0.2c-0.4,0.1-5.3,1.6-6.1,1.8l-5.8,1.6c-0.7,0.2-5.3,1.4-6.6,1.6c-1.3,0.3-6.2,1.2-7.4,1.5
		c-1.2,0.2-5.7,0.8-6.9,0.9c-1.2,0.1-1.4,0.1-2.3,0.1C31.6,117.7,29.8,117.4,28.7,117.2z M45.6,123.6c-0.7,0.1-3.2-0.2-4.2-0.3
		c-1-0.1-4-0.6-4.4-0.7c-0.4-0.2-0.7-0.3-0.9-0.6c-0.2-0.3-0.4-0.5-0.8-0.7c-0.4-0.2-0.9-0.4-1.2-0.6c-0.3-0.1-0.5-0.2-0.7-0.3
		c-0.2-0.1-0.4-0.1-0.6-0.2c-0.1-0.1-0.2-0.2-0.2-0.2s3.3-0.3,4-0.5c0.8-0.1,5.8-0.8,7-1.1c1.2-0.3,6.5-1.4,7.4-1.7
		c1-0.2,6.7-1.7,7.8-2c1.1-0.3,5-1.4,6-1.7c1.1-0.3,4.1-1.2,4.4-1.4c0.3-0.2,0.7-0.4,1-0.4c0.3,0,1.3,0.3,1.7,0.4
		c0.4,0.1,1.3,0.3,1.5,0.4c0.2,0.2,0.2,0.3,0.2,0.6c0,0.3,0,1.6,0,1.7c0,0.2,0.4,0.4,0.4,0.4l-0.9,0.3c-0.2,0.1-0.6,0.2-0.6,0.2
		s0.1-0.4,0-0.5c0-0.1-0.6-0.4-0.7-0.4c-0.2,0-0.3,0-0.7,0.1c-0.4,0.1-1.4,0.6-1.8,0.8c-0.5,0.2-3.4,1.3-4.2,1.7
		c-0.9,0.4-4.4,1.7-5.5,2.1c-1.1,0.4-6.2,2.2-7.2,2.4c-0.9,0.3-4.3,1.2-5.1,1.4C46.6,123.4,46.2,123.5,45.6,123.6z M55.2,128.1
		c-1,0-3.2,0-3.8-0.1c-0.7,0-1.6-0.1-2.1-0.2c-0.5-0.2-0.6-0.5-0.9-0.8c-0.3-0.4-0.9-0.7-1.2-0.8c-0.3-0.1-0.7-0.1-0.9-0.1
		c-0.1,0-0.1-0.4-0.1-0.4s1.1-0.2,1.4-0.4c0.3-0.1,2-0.6,2.6-0.8c0.5-0.2,2.5-0.7,3.3-0.9c0.8-0.3,4.6-1.6,5.4-1.8
		c0.8-0.2,5.3-1.9,6.2-2.3c0.9-0.3,5.9-2.4,6.7-2.7c0.7-0.3,1.4-0.6,1.7-0.8c0.3-0.2,1.1-0.6,1.5-0.7c0.4-0.1,1.1-0.2,1.5-0.2
		c0.3,0,0.6,0,0.8,0.1c0.1,0.2,0.2,0.4,0.2,0.7c0,0.3,0.1,0.9,0.4,1.2c0.3,0.2,0.8,0.5,1.3,0.6c0.5,0.1,1,0.2,1.2,0.2
		c0.2,0,0.3,0,0.3,0s-1,0.6-1.3,0.8l-1.3,0.7c0,0-0.1-0.3-0.2-0.3c-0.1,0-0.6,0-1,0c-0.4,0.1-0.8,0.2-1.2,0.4
		c-0.3,0.2-3.8,2.1-4.5,2.4c-0.7,0.4-6,3.1-6.8,3.5c-0.7,0.3-4.2,2-4.7,2.3c-0.6,0.2-0.9,0.4-1.4,0.5
		C57.5,128.1,56.3,128.1,55.2,128.1z M66.5,131.6c-1,0.2-3.1,0.6-3.6,0.6c-0.4,0-1,0-1.4-0.4c-0.4-0.4-0.6-0.9-1-1.2
		c-0.5-0.2-0.8-0.4-1.1-0.4c-0.7,0.1-0.7-0.1-0.7-0.1s4.2-2.1,4.8-2.3c0.7-0.3,6.9-3.5,7.7-3.9c0.8-0.4,5.4-2.9,6.3-3.4
		c1-0.6,2.4-1.3,2.6-1.5c0.2-0.1,0.4-0.3,0.7-0.4c0.3-0.1,0.4-0.1,0.4-0.1s0.4,0.5,0.6,0.8c0.2,0.3,0.7,0.8,1.3,0.8
		c0.6,0.1,0.8,0.1,1.2,0.1c0.3,0,0.9-0.2,0.9-0.2s-1.5,1.4-1.8,1.6c-0.3,0.2-3.6,2.9-4.2,3.5c-0.7,0.6-3.1,2.5-3.6,2.9
		c-0.5,0.4-2.3,1.8-2.7,1.9c-0.4,0.2-1.4,0.6-1.9,0.7C70.2,130.8,67.5,131.4,66.5,131.6z M81.1,132.8c-0.2,0.1-0.7,0-1.1-0.2
		c-0.4-0.2-0.8-0.1-1.3,0.1c-0.5,0.1-1.4,0.4-2,0.6c-0.5,0.1-2,0.5-2.4,0.5c-0.4,0-0.8,0-1.1-0.3c-0.2-0.3-0.8-0.9-1-1
		c-0.3-0.1-0.6-0.2-0.8-0.1c-0.1,0.1-0.7,0.4-0.8,0.2c0,0,2.3-1.6,2.7-2.1c0.5-0.4,2.5-2,3.1-2.4c0.6-0.4,3-2.4,3.7-3
		c0.7-0.6,2.9-2.4,3.5-2.9c0.6-0.5,1.7-1.6,1.7-1.6s0.1,0.4,0.3,0.6c0.2,0.1,0.5,0.5,0.9,0.7c0.5,0.2,1.1,0.2,1.6,0.2
		c0.5,0,0.9-0.1,1.1-0.1c0.2,0,0.5,0.1,0.5,0.4c0,0.3,0.1,0.5,0.1,0.7c0,0.2,0,0.3,0,0.3l-3.3,3.7c-0.7,0.7-2.5,2.7-3.1,3.4
		C82.8,131,81.3,132.7,81.1,132.8z M106.8,159.9l-0.5,0.8l-0.4-0.2c0,0,0.3-0.2,0.2-0.5c-0.1-0.2-0.2-0.4-0.6-0.6
		c-0.3-0.2-1.8-0.8-2.5-1.1c-0.7-0.3-3.5-1.9-4.5-2.5c-1-0.7-3.5-2.4-4.7-3.4c-1.2-1-3.7-3.5-4.6-4.4c-0.8-0.9-2.6-3.3-3.2-4.1
		c-0.6-0.8-2.1-3.6-2.4-4.4c-0.3-0.7-0.5-1.2-0.8-1.5c-0.3-0.3-0.4-0.4-0.5-0.4c-0.1,0-0.4,0-0.4,0s-0.1-0.2-0.3-0.7
		c-0.1-0.4-0.2-0.8-0.2-0.8s0.7,0.9,1.1,0.8c0.4,0,0.6-0.1,0.8-0.2c0.2-0.1,0.6-0.1,0.7,0c0.2,0.1,0.4,0.4,0.4,0.6
		c0,0.3,0.1,0.9,0.3,1.3c0.2,0.5,1.2,2.4,1.7,3.3c0.5,0.9,2.1,3.1,2.8,3.9c0.7,0.8,2.9,3.3,3.5,3.8c0.6,0.5,3.5,2.9,4.6,3.6
		c1.1,0.7,3.6,2.4,5.1,3.1c1.5,0.8,3.4,1.6,3.9,1.8c0.5,0.2,0.8,0.2,0.9,0.4c0.1,0.1,0.3,0.3,0.3,0.3L106.8,159.9z M107.7,158.2
		c0,0.1-0.2,0.1-0.2,0c-0.1-0.1,0.2-0.4,0.2-0.7c0-0.4-0.2-0.9-0.4-1.1c-0.2-0.2-0.8-0.5-1.1-0.6c-0.3-0.2-1.9-0.9-2.7-1.3
		c-0.8-0.4-2.4-1.3-3.5-2c-1.1-0.7-2.4-1.6-3.4-2.4c-0.9-0.8-2.2-1.9-3-2.6c-0.8-0.8-2.1-2.3-3-3.4c-0.8-1.1-1.9-2.6-2.5-3.6
		c-0.6-1.1-1.2-2.3-1.4-2.6c-0.2-0.2-0.5-0.6-0.9-0.7c-0.4-0.1-0.7-0.2-0.8-0.2c-0.2,0-0.5,0-0.6-0.2c0-0.1,0-0.2,0-0.2
		s0.6,0,1.1-0.2c0.5-0.2,1.9-0.6,2.4-0.7c0.5-0.1,1.2-0.4,1.4-0.5c0.3-0.1,0.5-0.2,0.6-0.1c0.2,0,0.2,0.1,0.4,0.4
		c0.2,0.3,0.4,0.8,0.6,1c0.3,0.2,0.6,0.6,1.1,0.5c0.5-0.1,1-0.1,1.5-0.3c0.4-0.2,1.2-0.7,1.4-0.8c0.2-0.1,0.4-0.3,0.5-0.2
		c0.1,0.1,0.2,0.3,0.3,0.3c0.1,0,0.3,0.2,0.4,0.3c0.1,0.1,1.2,1.8,1.8,2.5c0.6,0.7,1.5,1.8,2.1,2.4c0.6,0.6,2.4,2.1,3.1,2.6
		c0.7,0.5,2.8,1.9,3.7,2.4c0.9,0.5,2.1,1.1,2.9,1.5c0.9,0.4,1.9,0.8,2.1,0.9c0.3,0.1,0.4,0.2,0.5,0.4c0.2,0.1,0.3,0.3,0.2,0.5
		c-0.1,0.2-1,1.7-1.4,2.4s-1.2,2-1.5,2.5c-0.3,0.5-1.1,1.9-1.3,2.3C108.4,157.1,107.8,158.1,107.7,158.2z M113.2,160.1
		c-0.2,0.4-0.7,1.7-0.8,2c-0.2,0.3-0.3,0.6-0.3,0.6l-0.7,0.2c0,0,0.2-0.3,0.1-0.4c-0.1-0.2-0.4-0.5-0.7-0.5c-0.2,0-0.5,0-0.7,0.1
		c-0.3,0.1-0.6,0.1-0.8-0.1c-0.1-0.2-0.5-0.9-0.5-1.1c0-0.2-0.2-0.4,0-0.7c0.2-0.4,1.3-2.5,1.6-2.9c0.3-0.4,1.6-2.7,1.9-3.3
		c0.3-0.6,1.1-1.9,1.2-2.2c0.2-0.3,0.2-0.5,0.1-0.7c-0.1-0.2-0.1-0.3-0.2-0.4c-0.1-0.1-0.3-0.1-0.3-0.1l0.7-1.2c0,0,0.4,0.1,0.8,0.1
		c0.4,0,0.8,0,1.2,0.1c0.4,0.1,1,0.5,1.1,0.7c0.1,0.2-0.1,0.7-0.4,1.3c-0.2,0.6-1.4,3.7-1.7,4.4
		C114.6,156.6,113.4,159.7,113.2,160.1z M118.8,160.4c-0.1,0.5-0.5,2.1-0.6,2.5c-0.1,0.4-0.3,1-0.3,1.1c-0.1,0.1-0.6,0.4-0.7,0.4
		c-0.1,0-0.3,0.1-0.3,0.1s0.2-0.3,0.1-0.5c-0.1-0.2-0.3-0.4-0.6-0.4c-0.3,0-0.6,0.2-0.8,0.1c-0.2-0.1-0.6-0.2-0.8-0.8
		c-0.3-0.6-0.3-0.7-0.2-1.1c0.1-0.5,1.2-3.1,1.4-3.8c0.2-0.6,1.3-3.3,1.5-3.9c0.3-0.6,0.6-1.5,0.6-1.7c0-0.2-0.2-0.7-0.3-0.8
		c-0.1-0.1-0.3-0.2-0.4-0.2c-0.1,0-0.2-0.1-0.2-0.1l0.4-1c0,0,0.6,0.1,0.8,0.1c0.3,0,0.7-0.1,1.2,0.1c0.5,0.1,1.1,0.2,1.2,0.4
		c0.1,0.2,0.2,0.5,0.1,0.9c-0.1,0.5-1,4-1.1,4.6C119.6,157.1,118.9,159.9,118.8,160.4z M124.7,154.7c-0.1,0.5-0.4,4.2-0.4,4.6
		s-0.1,1.9-0.1,2.5c0,0.4-0.2,1.4-0.2,1.8c0,0.4-0.2,1-0.2,1.1s-0.1,0.2-0.1,0.2s-0.7,0.6-0.9,0.7c-0.2,0.1-0.2-0.1-0.4-0.3
		c-0.1-0.1-0.3-0.2-0.7-0.3c-0.3-0.1-0.8-0.7-1.1-1c-0.2-0.4-0.3-0.7-0.2-1.3c0.2-0.6,0.7-2.7,0.8-3.4c0.2-0.7,0.7-2.8,0.8-3.5
		c0.2-0.7,0.5-1.9,0.5-2.3s-0.1-0.8-0.3-1c-0.2-0.2-0.3-0.2-0.4-0.3c-0.2-0.1-0.3-0.1-0.3-0.1l0.2-0.8c0,0,0.5,0,0.8,0
		c0.2,0,0.5-0.1,0.9-0.1c0.4,0,0.8,0,1,0.1c0.3,0.1,0.6,0.3,0.5,0.8C124.9,152.4,124.7,154.2,124.7,154.7z M93.7,125.6
		c0-13.2,14.3-24.9,33.3-24.9s33.3,11.7,33.3,24.9c0,13.3-14.3,25-33.3,25C108.1,150.6,93.7,138.9,93.7,125.6z M110.7,93.8
		c-0.3-0.2-0.8-0.6-1.2-0.6c-0.4,0-0.5,0-0.7-0.1c-0.2-0.1-0.4-0.3-0.4-0.3s0.9-0.3,1.2-0.5c0.4-0.2,2.1-0.8,3.2-1.1
		c1.1-0.3,2.3-0.6,3.8-0.9c1.5-0.3,3.6-0.6,5.3-0.8c1.7-0.2,3.9-0.3,5.2-0.3c1.3,0,4.3,0.2,5.6,0.3c1.2,0.2,3.6,0.4,5.1,0.8
		c1.4,0.3,4.1,1,5.3,1.4c1.2,0.4,2.6,0.8,2.8,1s0.3,0.3,0.5,0.4c0.2,0.1,0.4,0.2,0.4,0.2s-0.6,0.7-1,1.3c-1.1,2,0.2,4.5,2.1,5.9
		c2.4,1.8,6.8,4.5,7.5,8.5c0.2,0.9,0.1,2.7,0.1,2.7s-0.4-0.4-0.6-0.6c-0.2-0.2-0.3-1.2-0.5-1.8c-0.2-0.6-1.1-1.7-1.6-2.2
		c-0.5-0.5-1.5-1.5-3.4-2.7c-1.8-1.2-3.6-2.2-5.6-2.9c-2-0.7-3.4-1.3-5.8-1.8c-2.4-0.5-5.5-1-8.8-1.2c-3.4-0.1-6.3,0.2-8.2,0.4
		c-1.9,0.3-4.7,0.8-7.3,1.6c-2.5,0.8-3.2,1.2-4,1.5c-0.8,0.4-2.7,1.3-3.4,1.8c-0.7,0.4-1.8,1.2-2.5,1.7c-0.7,0.4-0.8,0.8-1.2,0.7
		c-0.6-0.1-0.8-0.7-0.8-0.7s0.5-0.6,1-1.1c0.5-0.5,1.6-1.5,2.4-2.1c0.7-0.6,2.1-1.8,2.4-2.1c0.2-0.2,0.9-1,0.9-1s0.2,0.4,0.6,0.3
		c0.4-0.1,0.9-0.5,1.3-1.1c0.3-0.6,0.9-1.8,0.8-2.9C111.1,94.8,110.9,94,110.7,93.8z M188.3,98.9c-0.2-0.3-0.5-0.6-0.9-0.7
		c-0.4-0.1-2.1-0.3-2.7-0.3c-0.6,0-2.1,0-2.7,0c-0.7,0-1.3-0.1-1.6-0.3c-0.3-0.1-0.2-0.1-0.3-0.1c-0.2-0.1-0.4,0.1-0.4,0.1
		s-0.1-0.4-0.1-0.5c0-0.1,0-0.2,0-0.2s0.7,0,1.2-0.1c0.5-0.1,2-0.3,3-0.4c0.9-0.2,2.8-0.5,3.4-0.6c0.6-0.1,1.3-0.2,1.6-0.1
		c0.2,0.1,0.4,0.3,0.5,0.6c0,0.2,0.2,0.8,0.3,1c0.1,0.2,0.3,0.6,0.2,0.7c-0.1,0.1-0.4,0.5-0.6,0.7c-0.2,0.2-0.8,0.7-0.8,0.7
		S188.5,99.2,188.3,98.9z M179.6,99.3c0.4,0.1,2.4,0.3,3.1,0.4c0.8,0.1,2.8,0.4,3.4,0.5c0.6,0.1,1.5,0,1.8,0.1
		c0.5,0.1,0.4,0.6,0.5,0.8c0,0.3,0.1,0.8,0.1,0.9c0,0.1-0.3,0.4-0.6,0.6c-0.3,0.2-0.6,0.4-0.7,0.5c-0.2,0.1,0.1-0.4-0.1-0.6
		c-0.1-0.1-0.4-0.2-0.9-0.3c-0.4-0.1-1.2-0.3-1.6-0.3c-0.4-0.1-2.1-0.4-2.8-0.6c-0.7-0.1-1.4-0.2-1.9-0.4c-0.4-0.2-0.8-0.6-1-0.7
		c-0.2-0.1-0.6-0.2-0.6-0.2l0-0.3c0,0,0.4-0.4,0.5-0.4C178.9,99.3,179.2,99.3,179.6,99.3z M185.4,106.7c-0.2-0.2-0.9-0.5-1.4-0.7
		c-0.5-0.1-1.8-0.6-2.6-0.8c-0.8-0.2-2-0.6-2.4-0.8c-0.4-0.1-0.9-0.2-1.2-0.4c-0.3-0.2-0.6-0.5-0.7-0.6c-0.1-0.1-0.4-0.1-0.4-0.1
		s0-0.9,0.1-0.9c0.1,0,0.5,0.1,0.6,0.1c0.1,0,0.6,0,1,0.1c0.4,0.1,2.7,0.7,3.6,0.9c0.9,0.2,2.1,0.5,2.9,0.6c0.8,0.1,1.3,0.1,1.4,0.4
		c0.2,0.3,0.1,0.9,0.1,1.2c0,0.3,0.1,1,0,1.1c0,0.1-0.4,0.2-0.7,0.3s-0.4,0.2-0.4,0.2S185.5,106.9,185.4,106.7z M184,110.6
		c-0.1,0.1-0.3,0.1-0.6,0.2c-0.3,0-0.5,0.1-0.5,0.1s0.3-0.3,0-0.5c-0.3-0.3-0.4-0.4-0.9-0.6c-0.6-0.2-1.5-0.6-1.9-0.8
		c-0.4-0.1-2.2-1-2.7-1.2c-0.5-0.2-1.6-0.6-1.9-0.8c-0.4-0.2-0.5-0.3-0.6-0.4c-0.1-0.2-0.5-0.2-0.5-0.2s0.1-0.3,0.1-0.6
		c0.1-0.3,0-0.5,0.1-0.5c0.1,0,0.3,0.1,0.5,0c0.2,0,0.5,0,0.6,0.1c0.2,0.1,1,0.4,1.4,0.5c0.4,0.2,2.5,0.9,3.2,1.2
		c0.7,0.3,1.9,0.7,2.5,0.9c0.5,0.2,0.9,0.3,1.1,0.4c0.2,0.2,0.4,0.5,0.4,0.8c0,0.4,0.1,0.4-0.1,0.7c-0.1,0.2-0.2,0.2-0.2,0.3
		C183.9,110.3,184.1,110.5,184,110.6z M181,113.5c-0.1,0.1-0.4,0.1-0.6,0.2c-0.2,0.1-0.4,0.1-0.4,0.1s0.2-0.1,0.1-0.3
		c-0.1-0.2-0.2-0.5-0.6-0.6c-0.4-0.1-0.8-0.1-1.2-0.2c-0.3-0.1-0.6-0.2-1.2-0.5c-0.5-0.3-1.6-0.9-2.2-1.2c-0.6-0.3-1.6-0.8-1.9-1.1
		c-0.4-0.2-0.5-0.3-0.7-0.4c-0.2-0.1-0.4-0.1-0.5,0c-0.1,0-0.5-0.1-0.5-0.1s0.5,0,0.6-0.2c0.1-0.2,0.1-0.7,0.1-0.9
		c0-0.2,0-0.3,0.1-0.3c0.1,0,0.3,0.1,0.6,0.2c0.2,0,0.5,0,0.9,0.2c0.4,0.2,2,1.1,2.9,1.4c0.9,0.4,2.6,1.2,3.1,1.4
		c0.5,0.2,1.4,0.5,1.5,0.8c0.1,0.2,0.2,0.4,0,0.7c-0.1,0.2-0.2,0.4-0.2,0.5C181,113.2,181.1,113.4,181,113.5z M175.5,115.8
		c-0.3-0.2-0.8-0.2-1.1-0.3c-0.4-0.1-1-0.6-1.4-0.9c-0.4-0.3-1.3-1-1.8-1.3c-0.5-0.3-1.1-0.9-1.4-1c-0.3-0.1-0.9-0.2-1.3-0.3
		c-0.3,0-0.8,0-0.8,0c-0.1,0-0.2,0.4-0.3,0.3c-0.1-0.1-0.2-0.2-0.4-0.3c-0.2-0.1-0.2-0.2-0.2-0.2l0-0.4c0,0,0.2-0.1,0.6-0.1
		c0.3,0,0.6,0,0.9-0.1c0.4-0.1,0.4-0.1,0.6-0.2c0.2-0.1,0.4-0.2,0.6-0.3c0.2-0.1,0.2-0.3,0.3-0.4c0.1,0,0.6-0.1,0.7,0
		c0.1,0.1,1.1,0.8,1.6,1.2c0.5,0.3,2.2,1.3,2.8,1.7c0.6,0.4,1.6,0.9,1.8,1.2c0.3,0.3,0.5,0.4,0.5,0.7c0,0.3-0.2,0.4-0.3,0.6
		c-0.1,0.2-0.1,0.4-0.2,0.6c-0.1,0.1-0.1,0.3-0.1,0.3l-0.8,0.2c0,0,0.2-0.2,0.2-0.4C175.9,116.2,175.8,116,175.5,115.8z
		 M171.8,118.6c-0.2-0.1-0.5-0.3-0.9-0.5c-0.4-0.2-0.9-0.7-1.4-1.1c-0.4-0.3-1.7-1.5-2-1.8c-0.3-0.3-1.1-1-1.4-1.1
		c-0.2-0.1-0.9-0.2-1.1-0.2c-0.2-0.1-0.6-0.1-0.6-0.1s-0.2,0.3-0.2,0.3c-0.2,0-0.1,0-0.1,0s0,0-0.1-0.1c-0.1-0.1-0.2-0.3-0.2-0.3
		s0.1-0.1,0.1-0.3c0-0.2,0.1-0.4,0.2-0.4c0.1,0,0.5,0.2,0.8,0.2c0.3,0,0.4-0.1,0.4-0.1s0.1-0.3,0.5-0.3c0.4-0.1,0.5-0.1,0.6-0.1
		c0.1,0,0.3,0,0.7,0.1c0.4,0.2,1.5,1.1,1.9,1.4c0.4,0.3,2.1,1.7,2.6,2c0.5,0.4,1,0.7,1.2,0.9c0.1,0.1,0.6,0.6,0.5,0.8
		c-0.1,0.2-0.4,0.4-0.4,0.7c-0.1,0.2-0.1,0.5-0.1,0.7c0,0.1-0.3,0.2-0.4,0.2c-0.1,0-0.5,0-0.5,0s0.2-0.2,0.3-0.3
		C172.1,118.9,172,118.8,171.8,118.6z M167.7,120.7c-0.2-0.2-0.5-0.3-0.9-0.5c-0.4-0.2-0.7-0.5-1-0.8c-0.3-0.3-0.9-1.2-1.2-1.5
		c-0.3-0.3-1.1-1.3-1.4-1.6c-0.4-0.3-0.7-0.7-1.1-0.7c-0.4-0.1-0.5-0.1-0.6-0.1c-0.1,0-0.3,0.3-0.2,0.3c0,0.1-0.2-0.1-0.4-0.3
		c-0.2-0.3-0.6-0.9-0.6-0.9s0.7,0.2,1.1,0.2c0.4,0,0.7,0,0.8,0c0.1,0,0.2-0.3,0.6-0.4c0.4-0.1,0.8,0,1.1,0.2
		c0.4,0.3,2.2,2.1,2.5,2.3c0.3,0.3,1.5,1.4,1.8,1.7c0.4,0.3,1,0.9,1.1,1.2c0.1,0.2,0.2,0.4,0.1,0.6c-0.1,0.1-0.2,0.2-0.3,0.4
		c-0.1,0.1-0.1,0.5-0.2,0.6c-0.1,0.1-0.2,0.2-0.5,0.2c-0.3,0-0.5,0-0.5,0s0.3-0.1,0.3-0.3C168.1,121.1,168,120.8,167.7,120.7z
		 M179.1,97.7c-0.1,0.2-0.1,0.4-0.1,0.5v0.2c0,0-0.1,0.1-0.2,0.2c-0.1,0.1-0.7,0.4-0.7,0.4s0-0.1-0.1-0.3c-0.1-0.2-0.5-0.4-0.7-0.5
		c-0.2-0.1-1.2-0.1-1.6-0.1c-0.4,0-1.4-0.1-1.8-0.1c-0.4,0-0.6-0.1-0.7-0.1c-0.2,0-0.3,0-0.5,0.1c-0.2,0.1-0.2,0.2-0.3,0.3
		c-0.1,0-0.3,0-0.3,0s-0.2,0.1,0,0.3c0.3,0.3,0.9,0.4,1.3,0.4c0.5,0.1,1.1,0.2,1.6,0.3c0.5,0.1,1.1,0.2,1.5,0.3
		c0.4,0.1,0.8,0.1,1,0.1c0.1,0,0.4,0.1,0.4,0.3c0,0.1-0.1,0.3-0.1,0.4c-0.1,0.1-0.1,0.3-0.1,0.4c0,0.1,0,0.2-0.1,0.3
		c-0.1,0.1-0.6,0.2-0.7,0.3c-0.1,0.1-0.3,0-0.3,0s0.1-0.3,0-0.3c-0.1-0.1-0.2-0.3-0.6-0.4c-0.3-0.1-1.3-0.3-1.7-0.4
		c-0.4-0.1-1.2-0.3-1.7-0.4c-0.5-0.1-0.8-0.3-0.9-0.1c-0.1,0.1-0.2,0.2-0.3,0.2c-0.1,0-0.2,0-0.3,0.1c-0.1,0.1-0.2,0.2-0.1,0.3
		c0.1,0.1,0.4,0.3,0.7,0.4c0.3,0.1,1.4,0.4,1.9,0.6c0.5,0.1,1.3,0.5,1.7,0.6c0.4,0.1,0.9,0.2,1,0.5c0.1,0.2,0.1,0.5-0.1,0.6
		c-0.2,0.2-0.2,0.3-0.3,0.4c0,0.1-0.1,0.3-0.1,0.3s-0.4,0.3-0.5,0.3l-0.4,0.2c0,0,0.1-0.2,0-0.5c-0.1-0.3-0.5-0.5-1-0.7
		c-0.5-0.2-1.4-0.6-1.8-0.7c-0.4-0.1-1.6-0.6-1.8-0.7c-0.2-0.1-0.6-0.2-0.8-0.2c-0.3,0.1-0.4,0.2-0.3,0.3c0.1,0.1,0.3,0.2,0.3,0.3
		c0,0.1,0,0.3-0.1,0.3c-0.1,0-0.1,0-0.1,0s0.6,0.4,1,0.6c0.4,0.2,1.5,0.7,1.8,0.9c0.3,0.1,1.1,0.5,1.3,0.7c0.2,0.1,0.6,0.4,0.5,0.6
		c-0.1,0.2-0.1,0.5-0.2,0.6c0,0.1,0,0.2-0.1,0.3c-0.2,0.1-0.9,0.2-0.9,0.2s0-0.2,0-0.2s-0.2-0.3-0.5-0.5c-0.4-0.2-1.6-1-2-1.1
		c-0.3-0.2-1.1-0.6-1.3-0.8c-0.2-0.2-0.6-0.5-0.8-0.6c-0.1-0.1-0.5-0.2-0.7,0c-0.2,0.2-0.3,0.5-0.2,0.6c0.1,0.1,0.4,0.3,0.4,0.3
		s-0.2,0.2-0.2,0.2c0,0.1,0.6,0.5,1.1,0.8c0.4,0.3,1.6,1.1,1.9,1.3c0.3,0.2,0.9,0.6,1.1,0.8c0.2,0.2,0.2,0.3,0.1,0.5
		c-0.1,0.1-0.2,0.3-0.2,0.3s0,0.2,0,0.3c0,0.1,0,0.2,0,0.2s-0.1,0.1-0.3,0.1c-0.2,0-0.6,0.1-0.6,0.1s-0.1-0.1-0.1-0.3
		c0-0.2-0.1-0.3-0.4-0.5c-0.3-0.2-1.1-0.9-1.6-1.2c-0.4-0.3-1.3-0.9-1.5-1.1c-0.2-0.2-0.6-0.7-0.8-0.9c-0.2-0.2-0.5-0.3-0.7-0.2
		c-0.2,0.1-0.5,0.3-0.5,0.5c0,0.2-0.1,0.4,0.1,0.5c0.1,0.1,0.3,0.2,0.3,0.3c0,0-0.2,0.1-0.2,0.2c0.1,0.1,0.8,0.7,1.1,1
		c0.4,0.3,1.5,1.2,1.8,1.5c0.3,0.3,0.9,0.8,0.9,1c0.1,0.2,0,0.6-0.1,0.8c-0.1,0.1-0.3,0.2-0.6,0.2c-0.2,0.1-0.6,0.1-0.6,0.1
		s0.1-0.3,0-0.4c0-0.1-0.6-0.4-0.9-0.7c-0.4-0.3-1.5-1.3-2-1.7c-0.4-0.3-0.9-0.8-1-1.1c-0.2-0.3-0.4-0.7-0.8-0.7
		c-0.4,0-0.7,0.1-1,0.3c-0.2,0.3-0.2,0.6-0.1,0.7c0.1,0.1,0.5,0.3,0.4,0.4l-0.3,0.2c0,0,0.3,0.2,0.8,0.6c0.5,0.4,1.4,1.1,1.7,1.4
		c0.3,0.3,1,0.9,1.1,1.1c0.1,0.1,0.3,0.4,0.3,0.7c0,0.3-0.1,0.6-0.1,0.7c-0.1,0.1,0,0.2-0.2,0.3c-0.2,0.1-0.5,0.1-0.6,0.1
		c-0.1,0-0.2-0.1-0.2-0.1s0.3-0.2,0.3-0.3c0-0.1-0.4-0.5-0.7-0.7c-0.2-0.2-1.5-1.3-1.9-1.7c-0.5-0.4-1.1-1.1-1.3-1.4
		c-0.1-0.4-0.1-0.9-0.4-1.2c-0.2-0.3-0.8-0.7-1-1.1c-0.3-0.3-1-1.5-1.4-2.3c-0.4-0.7-0.8-1.3-0.8-2c-0.1-0.6,0-1-0.1-1.2
		c-0.1-0.2-0.4-0.5-0.5-0.5c-0.1,0-0.6,0-0.6,0s0.3-0.4,1-1c0.7-0.4,1.7-0.9,2.4-1.1s3.1-0.8,4.1-0.8c1.1-0.1,4-0.1,5-0.1
		c1,0,2.8,0,3.4,0c0.6,0,1.5,0,2.2,0c0.6,0,1.9,0,2.3,0c0.4,0,1.2-0.1,1.4,0c0.2,0,0.6,0.1,0.7,0.3
		C179.1,97.4,179.2,97.5,179.1,97.7z M160.8,110.3c0.3,0.2,0.8,0.6,0.9,0.6c0.2,0.1,0.8,0.7,0.9,0.9c0.2,0.2,0.6,0.6,0.6,0.8
		c0,0.2-0.2,0.9-0.3,1c-0.1,0.2-0.4,0.4-0.6,0.4c-0.2,0-0.5,0-0.5,0s0.4-0.1,0.4-0.3c0-0.2-0.1-0.3-0.4-0.6
		c-0.3-0.3-0.4-0.4-0.7-0.8c-0.3-0.4-0.6-0.8-0.6-0.8l-0.2,0.1l-0.2,0c0,0-0.1-0.7-0.1-1.1c-0.1-0.4-0.2-0.7-0.3-0.9
		c-0.1-0.2-0.2-0.6-0.2-0.6S160.5,110.1,160.8,110.3z M159.9,115.6l0-0.3c0,0,0.5,0.6,0.6,0.8c0.2,0.2,0.6,0.6,0.8,0.8
		c0.2,0.2,1,1.3,1.4,1.8c0.4,0.5,1.3,1.8,1.5,2c0.2,0.2,0.7,1,0.7,1.2c-0.1,0.2-0.1,0.5-0.2,0.7c-0.1,0.2-0.2,0.5-0.3,0.5
		c-0.1,0-0.6,0-0.6,0s0.1-0.2,0.1-0.3c0-0.1-0.2-0.5-0.6-0.7c-0.3-0.2-0.9-0.5-1.1-0.7c-0.1-0.2-0.6-1.3-0.8-1.8
		c-0.2-0.5-0.7-1.3-1-1.7c-0.3-0.4-0.4-0.8-0.6-0.8c-0.1,0-0.1,0.1-0.2,0.1c-0.2,0-0.3-0.1-0.3-0.1s0.2-0.6,0.3-0.8
		C159.8,116.2,159.9,115.8,159.9,115.6z M170.2,135.7c-0.4-0.3-0.9-0.5-1.4-0.7c-0.4-0.1-1.3-0.4-1.9-0.7c-0.6-0.2-0.9-0.4-1.1-0.6
		c-0.3-0.3-0.9-1.4-1.2-2.1c-0.3-0.6-1.3-2.5-1.6-3c-0.3-0.5-0.4-0.8-0.4-1.1c0-0.3-0.1-1.4-0.2-1.7c-0.1-0.3-0.4-0.8-0.6-0.9
		c-0.2-0.2-0.3-0.2-0.4-0.3c-0.1-0.1-0.4-0.1-0.4-0.1s0-0.4,0-0.5c0-0.1,0-0.2,0-0.2s0.8,0.1,1.2,0.1c0.5,0,0.9-0.1,1.1,0
		c0.2,0,0.4,0,0.6,0.2c0.2,0.2,0.3,0.7,0.4,0.9c0.1,0.2,1.5,2.3,1.8,2.6c0.2,0.3,1.3,1.7,1.7,2.3c0.5,0.6,1.7,2.2,2.1,2.6
		c0.4,0.4,1.1,1.2,1.3,1.5c0.2,0.3,0.6,0.9,0.7,1.1c0.1,0.1-0.1,0.3-0.2,0.5c-0.1,0.1-0.3,0.4-0.6,0.6c-0.2,0.2-0.5,0.4-0.6,0.5
		c-0.1,0,0-0.3,0.1-0.4C170.6,136.1,170.4,135.9,170.2,135.7z M162.3,136.3c-0.1-0.2-0.4-0.5-0.8-0.6c-0.3-0.2-1-0.5-1.1-0.7
		c-0.1-0.2-0.1-0.4,0.1-0.8c0.2-0.6,0.2-1.1,0.1-1.5c-0.1-0.4-0.2-0.5-0.2-0.7c-0.1-0.2-0.2-0.3-0.2-0.3s0.3-0.9,0.3-1.2l0.2-0.8
		c0,0,0.5,0.8,0.7,1.1c0.2,0.3,0.7,0.9,0.9,1.4c0.2,0.5,1,1.6,1.1,2.1c0.2,0.4,0.5,0.8,0.4,1.2c0,0.4-0.4,0.9-0.5,1.1
		c-0.1,0.2-0.1,0.4-0.4,0.6c-0.3,0.2-0.7,0.3-0.7,0.3s0.3-0.2,0.3-0.5C162.6,136.8,162.4,136.4,162.3,136.3z M161.3,137.9
		c0.5,0.1,0.8,0.1,1.3,0.1c0.5,0,0.6-0.1,0.9-0.4c0.2-0.3,0.5-0.8,0.6-1.1c0.1-0.3,0.3-0.6,0.3-0.6s0.6,0.2,0.9,0.4l1.8,0.6
		c0.5,0.1,1.2,0.3,1.4,0.5c0.3,0.2,0.4,0.3,0.3,0.6c0,0.2-0.2,0.7-0.4,1.1c-0.2,0.4-0.9,1.8-1.1,2.3c-0.3,0.5-1.4,2.2-2,3.1
		c-0.6,0.8-2.4,3.1-3.1,3.7c-0.6,0.6-1.5,1.5-2,1.7c-0.5,0.2-1.3,0.4-1.8,0.7l-2.8,1.7c-0.7,0.4-1.8,1.1-2.5,1.4
		c-0.7,0.4-2.6,1.3-3.2,1.6c-0.6,0.3-1.3,0.6-1.7,0.8c-0.4,0.1-0.7,0.3-0.9,0.3c-0.3,0-0.5-0.2-0.6-0.4c-0.1-0.2-1-1.8-1.4-2.3
		c-0.3-0.6-1.6-2.8-1.8-3.1c-0.3-0.4-0.4-0.6-0.9-0.8c-0.4-0.1-0.5-0.2-0.6-0.2c-0.2,0-0.3,0-0.6-0.1c-0.2-0.1-0.3-0.3-0.3-0.3
		s1.2-0.4,1.8-0.7c0.6-0.2,1.7-0.7,2.4-1c0.7-0.4,2.7-1.4,3.5-1.9c0.8-0.5,1.9-1.3,2.8-2c0.9-0.8,2.3-2,2.8-2.6
		c0.6-0.6,1.9-2.1,2.3-2.7c0.4-0.6,1.1-1.6,1.1-1.6l1.5,0.8C160.2,137.5,160.9,137.8,161.3,137.9z M129.7,164c0,0.3,0,0.7,0,0.7
		s-0.9,0.9-1.1,1.1c-0.3,0.2-1.3,1.1-1.3,1.1s0.2-0.4,0.3-0.6c0.1-0.2,0.3-0.4,0.1-0.6c-0.1-0.2-0.8-0.9-1.1-1.1
		c-0.2-0.2-0.6-0.6-0.6-1c0-0.3,0.1-2.9,0.3-3.9c0.1-1.1,0.2-3.4,0.3-4.2c0.1-0.8,0.2-1.8,0-2.1c-0.2-0.3-0.4-0.8-0.6-0.9
		c-0.2-0.1-0.6-0.2-0.6-0.2l0-0.7c0,0,0.7,0,0.9,0c0.2-0.1,0.9-0.2,1.4-0.2c0.5,0,1,0.2,1.1,0.4c0,0.2,0.1,1.1,0.1,1.7
		c0,0.6,0.2,3.4,0.2,3.8c0,0.4,0.3,3.6,0.3,4.3C129.6,162.2,129.7,163.7,129.7,164z M135.4,164.2c0,0.1-0.6,0.8-0.9,1.1
		c-0.3,0.3-1.2,1.5-1.2,1.5s-0.1-0.4,0-0.5c0.1-0.1,0.4-0.4,0.4-0.7c0-0.3-0.3-0.8-0.5-1c-0.2-0.2-0.8-0.5-1-0.8
		c-0.2-0.2-0.3-0.4-0.4-1c0-0.6-0.3-3.8-0.4-4.8c-0.1-1.1-0.3-3.9-0.4-4.4c-0.1-0.4-0.1-0.9-0.4-1.2c-0.3-0.2-0.6-0.4-0.8-0.4
		c-0.2-0.1-0.4-0.1-0.4-0.1l0-0.6c0,0,0.7-0.1,1-0.2c0.3-0.1,1-0.2,1.5-0.2c0.4,0,0.8,0.1,0.9,0.4c0.1,0.3,0.2,1,0.2,1.4
		c0.1,0.3,0.8,3.7,0.9,4.2c0.1,0.5,1,4.1,1.1,4.6c0.1,0.6,0.4,1.8,0.4,2.1C135.4,163.9,135.4,164.1,135.4,164.2z M140.6,164.2
		c-0.3,0.4-1.1,1.6-1.1,1.6s0-0.5,0-0.6c0.1-0.1,0.2-0.4,0.1-0.6c-0.1-0.2-0.3-0.7-0.5-0.9c-0.2-0.2-0.8-0.4-1.1-0.6
		c-0.3-0.3-0.4-0.3-0.6-1.1c-0.2-0.8-0.7-2.9-0.9-3.6c-0.2-0.7-0.8-3.7-1-4.3c-0.2-0.6-0.3-1.4-0.6-1.7c-0.2-0.3-0.7-0.7-0.9-0.8
		c-0.2,0-0.4,0-0.5,0c-0.1,0-0.2,0-0.2,0l-0.1-0.6c0,0,0.4,0,0.8-0.1c0.4-0.1,1.2-0.5,1.6-0.5c0.4,0,0.9,0,1,0.1
		c0.1,0.1,0.2,0.5,0.4,0.9c0.1,0.5,1.2,3.2,1.5,3.9c0.3,0.7,1.5,3.6,1.7,4.2c0.2,0.6,0.8,1.9,0.9,2.2c0.1,0.3,0.3,1,0.3,1.2
		C141.3,163.2,140.8,163.8,140.6,164.2z M147.1,161.3c-0.1,0.2-0.7,1.3-0.8,1.6c-0.2,0.3-0.7,1.3-0.7,1.3s-0.1-0.8-0.2-1.2
		c-0.1-0.4-0.3-0.7-0.6-0.9c-0.3-0.2-0.9-0.4-1.1-0.5c-0.2-0.2-0.4-0.3-0.7-0.9c-0.3-0.5-1-2.5-1.2-3.1c-0.3-0.7-1.2-3-1.5-3.7
		c-0.3-0.8-0.8-2.1-1.1-2.4c-0.2-0.3-0.8-0.8-1-0.8c-0.2,0-0.5-0.1-0.6-0.1c-0.1,0-0.3,0-0.3,0l-0.2-0.5c0,0,1-0.2,1.5-0.4
		c0.5-0.2,1-0.4,1.4-0.5c0.4-0.1,0.5-0.1,0.7,0.1c0.2,0.2,0.4,0.5,0.4,0.8c0.1,0.3,1.1,2,1.4,2.6c0.4,0.6,1.3,2.3,1.6,2.8
		c0.3,0.5,1.3,2.2,1.5,2.6c0.2,0.4,0.5,0.8,0.7,1.1c0.2,0.3,0.4,1,0.6,1.3C147.1,160.9,147.2,161.1,147.1,161.3z M172.2,137.4
		c-0.1,0.3-0.5,1.3-0.7,1.9c-0.3,0.6-1.1,2.1-1.4,2.7c-0.3,0.5-1.6,2.6-2.1,3.4c-0.5,0.7-2.2,2.8-2.7,3.3c-0.5,0.6-2.5,2.5-3,3
		c-0.5,0.5-4.1,2.8-4.7,3.2c-0.7,0.4-3,1.7-3.5,2c-0.5,0.3-2.1,1.1-2.7,1.3c-0.5,0.3-2,0.9-2.3,1c-0.4,0.1-0.7,0-1.1-0.1
		c-0.3,0-0.4,0-0.6,0c-0.1,0-0.5,0.1-0.5,0.1l-0.1-0.3c0,0,1.3-0.5,2-0.9c0.7-0.3,3.6-1.6,4.4-2.1c0.8-0.5,2.5-1.4,3.4-2
		c0.9-0.6,2.9-2.1,3.7-2.8c0.8-0.7,3-2.8,3.4-3.3c0.4-0.5,2.1-2.1,2.5-2.5c0.4-0.4,1.1-1.1,1.6-1.8c0.5-0.8,1.7-2.6,1.9-3.2
		c0.2-0.6,0.5-1,0.4-1.2c-0.1-0.2-0.1-0.4-0.1-0.5c-0.1,0-0.5-0.2-0.5-0.2l0.2-0.5c0.1-0.1,0.1-0.3,0.1-0.3s0.4,0,0.6-0.1
		c0.2-0.1,0.8-0.5,1.1-0.8c0.4-0.3,0.7-0.8,0.9-1c0.1-0.2,0.2-0.3,0.2-0.3s0.2,0.1,0.2,0.2C172.7,135.9,172.3,137.1,172.2,137.4z
		 M180,134.4c-0.2,0.2-0.5,0.8-0.8,1.1c-0.2,0.2-0.8,0.6-0.8,0.6s0.2-0.4,0.1-0.6c-0.1-0.2-0.4-0.6-0.8-0.7
		c-0.3-0.1-1.5-0.4-2.1-0.6c-0.5-0.1-1.7-0.6-2.1-0.9c-0.3-0.2-1.8-1.9-2.1-2.4c-0.3-0.4-1.6-2-2-2.6c-0.4-0.6-1.4-1.9-1.9-2.6
		c-0.5-0.7-1.4-1.7-1.6-1.9c-0.2-0.2-0.3-0.3-0.5-0.4c-0.2-0.2-0.3-0.3-0.3-0.3l0.1-0.5c0.1-0.2,0.1-0.3,0.1-0.3s0.6,0,1.1,0
		c0.5-0.1,0.8-0.2,1.2-0.2c0.4,0,0.6,0.1,0.9,0.6c0.2,0.5,0.9,1.2,1.3,1.6c0.5,0.4,2.7,2.5,3.3,3.1c0.7,0.6,2.8,2.7,3.5,3.3
		c0.7,0.7,1.8,1.6,2,1.8c0.2,0.3,0.9,0.9,1.1,1.1C180.2,133.8,180.2,134.2,180,134.4z M190.7,132.4c-0.2,0.5-0.8,1.4-0.9,1.6
		c-0.1,0.2-0.6,0.6-0.8,0.8c-0.2,0.2-0.3,0.2-0.3,0.2s0.3-0.4,0.2-0.6c0-0.2-0.2-0.6-0.6-0.8c-0.4-0.2-1.1-0.3-1.6-0.4
		c-0.5-0.1-2.6-0.6-3.4-0.8c-0.8-0.2-1.4-0.4-1.9-0.8c-0.5-0.4-1.8-1.5-2.4-2.1c-0.6-0.6-1.9-1.8-2.7-2.4c-0.8-0.7-2.3-2.1-2.8-2.6
		c-0.5-0.5-2-1.8-2.3-2.1c-0.3-0.3-0.9-0.9-1.1-1.1c-0.2-0.2-0.3-0.1-0.4-0.4c-0.1-0.1-0.1-0.4,0-0.5c0-0.1,0.1-0.2,0.1-0.2
		s0.7,0.1,1,0c0.3-0.1,0.9-0.2,1.1-0.2s0.6-0.1,1,0.1c0.3,0.2,1.3,0.7,1.7,1.1c0.5,0.4,2.4,1.9,3.1,2.4c0.6,0.4,3.6,2.6,4.2,3
		c0.6,0.4,3.3,2.2,4,2.7c0.7,0.4,2.1,1.2,2.7,1.6c0.7,0.4,1.4,0.8,1.6,1C190.6,131.8,190.9,132,190.7,132.4z M202.1,129.4
		c-0.2,0.3-0.5,1.3-0.6,1.6c-0.2,0.3-0.4,0.9-0.7,1.1c-0.2,0.2-0.4,0.3-0.5,0.3c-0.2,0-0.2,0-0.2,0s0.3-0.3,0.3-0.4
		s-0.2-0.6-0.4-0.7c-0.2-0.2-0.5-0.3-0.7-0.3c-0.2,0-1,0-1.7-0.1c-0.7-0.1-1.9-0.2-2.7-0.4c-0.9-0.2-1.4-0.3-2.1-0.6
		c-0.7-0.3-2.3-1.1-3.1-1.6c-0.8-0.5-3.4-2.1-4.2-2.6c-0.8-0.5-4.5-3.2-5.1-3.6c-0.6-0.4-1.9-1.4-2.5-1.8c-0.5-0.4-1.3-1-1.6-1.2
		c-0.3-0.1-1.2-0.4-1.5-0.6c-0.3-0.1-0.6-0.2-0.8-0.4c-0.1-0.2,0-0.5,0-0.5s1.3-0.3,1.6-0.4c0.3-0.1,1-0.3,1.3-0.2
		c0.3,0.1,1.2,0.5,1.8,0.8c0.6,0.3,3,1.6,3.8,2.1c0.8,0.4,4.1,2.1,4.8,2.4c0.8,0.4,3.2,1.6,4,1.9c0.9,0.4,3.9,1.7,4.8,2.1
		c0.8,0.3,2.1,0.8,2.8,1.1c0.7,0.2,1.7,0.5,2.1,0.6c0.4,0.1,1.2,0.3,1.2,0.5C202.2,128.8,202.2,129.1,202.1,129.4z M214.1,124.6
		c-0.1,0.2-0.3,1-0.4,1.4c-0.2,0.4-0.4,1-0.6,1.3c-0.2,0.2-0.8,0.4-0.8,0.4s0.3-0.2,0.2-0.5c0-0.2-0.1-0.4-0.4-0.5
		c-0.2-0.2-0.3-0.3-0.7-0.3c-0.3,0-1.1,0.1-1.7,0.1c-0.6,0-2.7,0-3.6,0c-0.8,0-1.7,0.1-2.3,0c-0.6-0.1-1.4-0.2-2.3-0.5
		c-1-0.3-3.4-1.1-4.4-1.6c-1-0.4-4.2-1.8-5-2.2c-0.8-0.4-3.9-1.9-5-2.4c-1-0.5-2.5-1.2-3.3-1.7c-0.8-0.4-2.5-1.4-3-1.6
		c-0.5-0.2-0.9-0.4-1.3-0.5c-0.4-0.1-0.9-0.3-1.1-0.3c-0.2-0.1-0.6-0.2-0.6-0.2l0.1-0.5c0,0,1.2-0.3,1.8-0.5
		c0.5-0.2,1.2-0.5,1.8-0.4c0.6,0.1,1.8,0.5,2.6,0.7c0.7,0.3,3.2,1.2,3.9,1.4c0.7,0.2,6.4,2.2,7.4,2.5c0.9,0.3,5.9,1.8,7,2.1
		c1.1,0.3,5.9,1.5,7,1.8c1.1,0.2,3,0.6,3.6,0.7c0.6,0.1,1.1,0.2,1.2,0.5C214.2,124,214.2,124.4,214.1,124.6z M225.3,120.2
		c-0.2,0.4-0.6,1.2-0.9,1.6c-0.4,0.4-0.7,0.8-0.9,0.9c-0.2,0.2-0.3,0.2-0.3,0.2s0.2-0.3,0.2-0.6c-0.1-0.2-0.4-0.5-0.7-0.6
		c-0.3-0.1-1,0-1.7,0c-0.7,0-2.8-0.1-4.6-0.4c-1.8-0.3-4.6-0.7-6.5-1.2c-1.9-0.4-4.6-1.1-6.4-1.6c-1.9-0.5-5.1-1.5-7-2.1
		c-2-0.7-4.5-1.5-5.6-1.9c-1.1-0.4-4.4-1.6-4.9-1.7c-0.5-0.2-0.8-0.3-1.2-0.3c-0.4,0-0.9,0.1-1.3,0c-0.4,0-0.9-0.2-1.1-0.2
		c-0.2-0.1-0.4-0.1-0.5-0.3c-0.1-0.2-0.1-0.3-0.1-0.3s0.7,0,1-0.1c0.3-0.1,1.1-0.2,1.4-0.3c0.4-0.1,0.5-0.2,0.5-0.4
		c0-0.2,0-0.7,0-0.9c0.1-0.2,0.2-0.4,0.2-0.4s0.7,0.2,1,0.2c0.3,0,1.4,0.2,1.8,0.3s5.4,1.3,6.2,1.6c0.8,0.2,6.5,1.6,7.4,1.8
		c1,0.2,5.6,1.2,6.6,1.4c1,0.2,7.9,1.5,9.1,1.7c1.1,0.2,5.1,0.8,6,0.9c0.9,0.1,2.3,0.2,2.6,0.3c0.2,0.1,0.5,0.2,0.4,0.5
		C225.9,118.8,225.5,119.7,225.3,120.2z M234.7,114.3c-0.1,0.3-0.3,1-0.5,1.2c-0.1,0.2-0.3,0.5-0.6,0.7c-0.3,0.1-0.4,0.2-0.4,0.2
		s0.2-0.4,0.1-0.6c-0.1-0.2-0.5-0.6-0.8-0.6c-0.2,0-1.1,0.1-1.7,0.2c-0.6,0.1-1.7,0.2-2.5,0.3c-0.7,0-1.7,0.1-2.2,0.1
		c-0.5,0-1.4-0.1-2.1-0.2c-0.8-0.1-3.6-0.5-4.7-0.7c-1-0.2-4.3-0.8-5.8-1c-1.4-0.3-6.4-1.3-7.3-1.5c-0.9-0.2-4.6-1-5.6-1.2
		c-0.9-0.2-5-1.2-5.9-1.4c-0.9-0.2-3.5-0.8-4.2-1c-0.7-0.2-2.1-0.5-2.5-0.6c-0.4-0.1-0.8-0.2-1.1-0.1c-0.3,0.1-1,0.3-1.2,0.3
		c-0.2,0.1-0.3,0.1-0.6,0.1c-0.4-0.1-0.5-0.2-0.5-0.2s0.7-0.2,1.1-0.4c0.4-0.2,1-0.3,1.2-0.6c0.2-0.3,0.2-0.4,0.2-0.6
		c0-0.2-0.1-0.4-0.1-0.4s1.2,0.1,1.7,0.1c0.5,0,2.7,0.4,3.5,0.5c0.7,0.1,4.2,0.6,5.1,0.8c0.9,0.2,7.3,1,8.6,1.2
		c1.3,0.1,6.8,0.8,7.8,1c1,0.1,7.2,0.8,8.1,0.9c1,0.1,4.4,0.4,5.6,0.5c1.2,0.1,3.8,0.2,4.9,0.3c1.1,0,1.9,0,2.2,0.1
		c0.3,0.1,0.5,0.3,0.5,0.5C235.1,112.2,234.8,113.9,234.7,114.3z M242.2,107.6c-0.2,0.5-0.5,1.4-0.8,1.6c-0.3,0.2-0.7,0.4-0.7,0.4
		s0.1-0.3,0.1-0.5c-0.1-0.2-0.5-0.5-0.8-0.5c-0.3,0-1.9,0.4-2.7,0.5c-0.8,0.1-2.1,0.2-3.1,0.2s-3.3-0.1-4.5-0.2
		c-1.1-0.1-4.3-0.3-5.9-0.5c-1.6-0.2-5.9-0.6-7.9-0.9c-2-0.2-6-0.7-7.5-0.9c-1.4-0.2-6-0.8-7.3-1c-1.2-0.2-4.5-0.6-5.4-0.8
		c-0.9-0.2-3.8-0.6-4.6-0.7c-0.8-0.1-1.3-0.2-1.7-0.2c-0.4,0-0.6,0-1.1,0c-0.5,0-0.4,0-0.6,0c-0.2,0-0.2,0-0.5,0
		c-0.2,0-0.3-0.1-0.3-0.1s0.8-0.5,1.2-0.8c0.4-0.3,0.8-0.6,0.9-0.8c0.1-0.2,0.1-0.4,0.1-0.4s2.6,0.1,3.1,0.1c0.6,0,3.4,0.2,4.1,0.3
		c0.7,0.1,5.3,0.4,6.7,0.5c1.4,0.1,7.8,0.5,9.1,0.6c1.2,0.1,6.3,0.4,7.6,0.4s6.1,0.3,7.7,0.4c1.6,0.1,7.1,0.2,8,0.2
		c0.9,0,4.1,0,4.6,0c0.5,0,1.2-0.1,1.6-0.1c0.4,0,0.8,0,0.8,0.4C242.5,105.4,242.4,107,242.2,107.6z M248.4,100.9
		c0,0.3,0.1,0.7,0.1,0.8c-0.1,0.1-0.7,0.4-0.9,0.5c-0.1,0.1-0.3,0.1-0.3,0.1s0.1-0.2,0-0.4c-0.1-0.2-0.5-0.4-0.7-0.5
		c-0.2,0-0.6,0-1.1,0.2c-0.5,0.2-1.9,0.6-2.6,0.8c-0.8,0.2-1.1,0.3-2.5,0.3c-1.3,0-4.4,0-5.7,0c-1.3-0.1-5.2-0.2-7-0.3
		c-1.8-0.1-6.4-0.3-7.9-0.4c-1.6-0.1-6.5-0.4-7.6-0.4c-1.2-0.1-6.8-0.4-8-0.5c-1.2-0.1-7.1-0.5-8.1-0.6c-0.9-0.1-3-0.2-3.7-0.3
		s-1.5-0.1-1.9-0.2c-0.3-0.1-0.3-0.2-0.6-0.3c-0.2,0-0.6-0.1-0.6-0.1s0.7-0.8,0.9-1c0.2-0.2,0.4-0.5,0.5-0.5c0.1,0,0.6,0,0.9-0.1
		c0.4-0.2,2.8-0.1,3.5-0.2c0.6,0,5.2,0,6.1,0c1,0,7.4-0.1,8.4-0.1c1.1,0,5.7,0,6.9,0c1.2,0,6.9,0,8.2-0.1c1.4,0,8.5-0.1,9.6-0.1
		c1.2,0,6.7-0.1,7.7-0.1c1,0,3,0,3.6-0.1c0.6-0.1,1.2-0.1,1.4-0.1c0.2,0,0.3,0.3,0.4,0.4c0,0.2,0.4,1.2,0.6,1.8
		C248.3,100,248.4,100.6,248.4,100.9z M155.3,90.8c1.1-0.2,4.3-0.8,5.6-0.9c1.3-0.1,3.6-0.2,4.7-0.2c1.2,0,3.5,0.1,5.2,0.3
		c1.8,0.2,4.2,0.6,5.8,0.6c1.6,0.1,4.3,0.2,5.6,0.1c1.2-0.1,3.4-0.1,4.6-0.2c1.2,0,5.6-0.2,7-0.3c1.5-0.1,5.4-0.3,6.9-0.4
		c1.5-0.1,6-0.2,7.3-0.2s6.9,0.2,8.3,0.3c1.4,0.1,4.9,0.3,6.2,0.3c1.3,0.1,3.1,0.1,4.2,0.2c1.1,0,4.3,0,4.9,0s3.1,0,4.4,0
		c1.3-0.1,4.8-0.4,6.1-0.5c1.2-0.1,4.6-0.4,5.6-0.5c1.1-0.1,2.1-0.2,2.6-0.2c0.4,0.1,1,0.4,1.1,0.6c0.1,0.2,0.8,0.8,1.2,1.3
		c0.5,0.5,0.9,1,1,1.2c0.1,0.2,0.4,0.6,0.3,0.7c0,0.2-0.1,0.4-0.3,0.5c-0.2,0.1-0.9,0.4-0.9,0.4s-0.1-0.3-0.3-0.4
		c-0.2-0.1-0.7-0.3-1-0.2c-0.3,0.1-1.4,0.6-2,0.9c-0.6,0.3-1.6,0.7-2.1,0.8c-0.5,0.1-2.3,0.2-3.6,0.2c-1.2,0-4.8,0-6.4,0.1
		c-1.6,0.1-6.9,0.1-8,0.1c-1.1,0-5.9,0.1-7.5,0.1c-1.6,0-5.9,0.1-7.3,0.1c-1.4,0-7.6,0.1-9,0.1c-1.4,0-5.2,0-6.2,0
		c-1,0-2.4,0.1-3.8,0.2c-1.3,0.1-3.2,0.3-3.8,0.3c-0.6,0.1-1.3,0-1.5-0.1c-0.2-0.1-0.3-0.1-0.4-0.2c-0.2,0-0.6-0.1-0.6-0.1l-0.1-0.2
		c0,0,0.6-0.1,1.1-0.2c0.5-0.1,0.9-0.3,1.8-0.5c0.9-0.2,3.1-0.6,4.1-0.8c1.1-0.2,6-1.1,7.4-1.2c1.4-0.2,5.1-0.6,6.4-0.7
		c1.3-0.1,5-0.4,6.3-0.4c1.3-0.1,4.2-0.2,4.9-0.2c0.7,0,3.2,0.1,4.2,0.1c1,0.1,1.5,0.1,1.5,0.1l0.2-0.7c0,0-1.1-0.1-1.9-0.1
		c-0.9-0.1-3.1-0.1-3.9-0.1c-0.8,0-3.5,0-4.6,0.1c-1,0.1-2.5-0.1-3.7-0.2c-1.5-0.1-4.8,0-6.1,0.1c-1.3,0.1-5.1,0.5-6.3,0.6
		c-1.2,0.1-5.3,0.7-7.2,1.1c-1.9,0.3-4.8,0.9-6.2,1.2c-1.4,0.3-3.1,0.6-4.7,0.8c-1.6,0.2-4.8,0.2-5.9,0.2c-1.2,0-4.6-0.1-6.4-0.1
		c-1.7,0-4.6,0-6.3,0.2c-1.7,0.2-3.1,0.5-4,0.8c-0.9,0.3-1.8,0.6-2.4,1c-0.6,0.4-0.9,0.9-0.9,1.1c0,0.1,0.1,0.3,0.1,0.3l0.5,0.1
		c0,0-0.4,0.4-0.7,0.6c-0.2,0.2-0.5,0.7-0.6,1.2c-0.1,0.4-0.2,1.5-0.2,1.9c0,0.4-0.1,0.6,0.1,1c0.1,0.3,0.9,1.6,1.1,2.1
		c0.3,0.5,1,1.7,1.2,2c0.2,0.3,0.6,0.8,0.8,1.3c0.3,0.4,0.8,1.4,0.8,1.7c0.1,0.3,0.1,0.8,0.1,1.3v2.4c0,0.4,0,0.7-0.1,0.8
		c-0.1,0.1-0.3,0.3-0.3,0.5c0,0.2-0.1,0.7-0.2,0.9c-0.1,0.2-0.2,0.7-0.2,0.7s-0.3-0.6-0.3-0.7c0-0.1,0.1-0.6,0-1.2
		c0-0.7-1.1-2.9-1.3-5.1c-0.2-1.4-1-2.8-1.6-3.8c-0.6-0.9-1-1.9-1.8-3.1c-0.7-1.2-2.8-2.4-4-3.4c-1-0.7-2.3-2.2-2.3-3.5
		c0-0.6-0.3-1.4-1-1.1c0.1-0.3,0.4-0.6,0.7-0.9c0.7-0.6,1.9-1.3,3-1.7C151.5,91.8,154.2,91.1,155.3,90.8z M107.5,90.3
		c0.7-0.3,4-1.4,5-1.7c1.2-0.3,4.2-1,5.9-1.3c1.8-0.3,5.3-0.7,8.7-0.7c2.9,0,5.6,0.2,7,0.4c1.4,0.2,4.3,0.7,5.4,0.9
		c1.1,0.3,3.1,0.8,4.2,1.2c1.1,0.4,2.8,0.9,3.4,1.2c0.7,0.3,1.1,0.4,1.2,0.5c0.1,0.1,0.1,0.3,0.5,0.4c0.4,0.1,0.9,0.3,0.9,0.3
		s-0.2,0.2-0.5,0.3c-0.3,0.1-0.6,0.3-0.9,0.4c-0.3,0.1-0.5,0.3-0.5,0.3s0-0.4-0.1-0.5s-1-0.6-1.9-0.9c-0.8-0.3-2-0.8-3.3-1.1
		c-1.2-0.3-3.3-1-4.8-1.2c-1.4-0.2-3-0.5-4.4-0.7c-1.4-0.2-4.6-0.4-6.3-0.4c-1.7,0-4.9,0.2-6.4,0.4c-1.6,0.2-4.2,0.6-5.7,1
		c-1.5,0.4-3.6,0.9-4.3,1.1c-0.8,0.3-1.8,0.7-2.1,0.7c-0.3,0-1-0.1-1.2-0.1c-0.2,0-0.4,0-0.6,0.1c-0.1,0-0.4,0.2-0.6,0.2
		c-0.2-0.1-0.4-0.2-0.4-0.2S106.8,90.6,107.5,90.3z M3.3,90.7c0.4-0.5,0.9-1.1,1.1-1.2c0.2-0.1,1.1-0.1,1.6,0c0.5,0,3.9,0.3,4.6,0.4
		c0.6,0.1,3.5,0.1,4.2,0.2c0.8,0,4.4,0.1,5.6,0.1c1.2,0,5,0.1,6.1,0.1c1.1-0.1,4.3-0.3,5.2-0.4c1-0.1,4-0.3,5.4-0.3
		c1.4,0,4.3,0,5.2-0.1s4.6-0.1,5.9-0.1s4.9,0.2,6.1,0.2c1.2,0.1,6.4,0.3,7.8,0.4c1.4,0.1,8.1,0.3,9.6,0.3c1.5,0,3.7,0.1,4.9,0
		c1.2-0.1,6.9-0.3,8.6-0.4s6.2-0.1,8.1-0.1c1.8,0,6.2,0.5,7.7,0.7c1.5,0.2,2.9,0.6,3.4,0.6c0.4,0,1.1,0.1,1.3,0.3
		c0.2,0.2,0.5,0.7,0.9,1c0.4,0.3,1.1,0.4,1.3,0.7c0.2,0.3,0.2,0.9,0.4,1.2c0.1,0.2,0.7,1.1,0.7,1.7c0.1,0.5,0,1.5-0.3,2.2
		c-0.4,0.6-1,1.3-1.6,2c-0.7,0.7-1.7,1.4-2.6,2.2c-0.9,0.8-2.4,1.9-3.2,3c-0.8,1.1-1.3,1.8-1.4,2.9c-0.2,1.1-0.1,1.7-0.1,1.9
		c-0.1,0.2-0.2,0.6-0.5,0.9c-0.2,0.3-1.4,1.6-1.7,2.1c-0.4,0.5-1.1,1.5-1.2,1.8c-0.2,0.2-0.3,0.5-0.3,0.5l-0.3-0.5
		c0,0,0.6-0.7,0.6-0.8c0.2-0.3,0.1-1,0.2-2.3c0.3-3.4,4.5-7.1,3.9-10.5c-0.5-2.7-3.8-5-7.2-5.5c-1.9-0.3-8.3-0.8-9.6-0.8
		c-1.7-0.1-6.3-0.1-7.8-0.2c-1.4,0-5.2,0-6.3-0.1c-1.1,0-2.5,0-4.3-0.3c-1.8-0.3-3.1-0.7-4.9-1.2c-1.8-0.5-3.2-1-4.7-1.3
		c-1.4-0.3-3.2-0.6-4.4-0.7c-1.3-0.1-3.7-0.3-5.5-0.3c-1.8,0-6.3,0-7.8,0c-1.5,0-6,0.2-7.1,0.2c-1.2,0-2.4,0-3,0
		c-0.5,0.1-0.4,0.3-0.7,0.3c-0.3,0.1-1.6,0-2.4,0c-0.8,0-1.4-0.1-1.6-0.1c-0.3,0-0.7,0-0.7,0s-0.1,0.3,0.2,0.3
		c0.3,0.1,1,0.1,1.2,0.2c0.2,0,2.1,0.1,2.7,0.2c0.7,0.1,1.8,0.1,2.5,0.1c0.7,0.1,2,0.1,2.8,0.1c0.8,0,4.2,0,5.5,0
		c1.2,0.1,3.6,0.1,4.7,0.1c1.2,0,3.9,0.1,6,0.4c2.1,0.2,3.9,0.5,6,1c2,0.5,4.5,1.2,5.7,1.6c1.2,0.3,2.8,0.8,3.7,1
		c0.9,0.2,1.6,0.2,1.8,0.4c0.2,0.2,0.2,0.4,0.1,0.6c-0.1,0.3-0.2,0.4-0.3,0.6c-0.1,0.2-0.2,0.5-0.2,0.5h-0.8c0,0,0.1-0.2,0.2-0.3
		c0-0.2-0.4-0.4-0.9-0.5c-0.5-0.1-2.6-0.3-3.2-0.3c-0.6-0.1-2.7-0.3-3.9-0.2c-1.2,0-5.7,0-6.9,0c-1.2,0-5.4-0.1-6.5,0
		c-1.1,0-4.8,0-5.8,0c-1,0-3.4,0-4.3,0c-1,0-4.1,0-5.3,0c-1.1,0-5-0.1-5.7-0.1c-0.8,0-2.9,0-3.9,0c-1,0-4.7-0.2-5.7-0.2
		s-2.2-0.1-2.6-0.2C9,96.2,7,95.1,6.1,94.7c-0.8-0.4-2.4-1.2-2.8-1.5c-0.4-0.2-0.9-0.5-1-0.6c-0.1-0.1-0.7,0.5-0.9,0.7
		c-0.2,0.2-0.5,0-0.5,0S2.9,91.1,3.3,90.7z"/>
	<path d="M159.7,125.7c0-11.9-13-23.9-32.2-23.9c-19.2,0-32.2,12-32.2,23.9c0,11.9,13,23.9,32.2,23.9
		C146.7,149.6,159.7,137.6,159.7,125.7z M108,137.4c0-1.1,2.3-2.3,2.3-3.3l0,0v-16.7c0-0.8-2.4-1.2-2.4-2.8c0-0.1,0-0.2,0.1-0.4
		c0.6-1.3,4.1-4.2,9.8-6c2.7-0.8,5.9-1.4,9.6-1.4c1.9,0,3.7,0.1,5.3,0.3c7.3,1.1,12.4,4.6,12.9,9.1c0,0.4,0.1,0.7,0.1,1.1
		c0,2.6-1.2,4.9-5.2,7.2v0.1c4.4,2.1,6.2,6.2,6.2,9.3c-0.1,5.7-6.6,10.4-17.9,10.5c-0.8,0-1.6,0-2.3-0.1
		C114.8,143.6,108,138.5,108,137.4z"/>
	<path d="M136,133.9c0-6.2-4.3-7.7-8.3-7.7c-4.2,0-8.6,1.3-8.6,7.7c0,6.4,4.5,7.5,8.5,7.5h0.3C132,141.4,136,139.6,136,133.9z"/>
	<path d="M127.5,123.7c4.4,0,7.7-1.7,7.7-7c0-5.1-3.1-7-7.7-7c-4.2,0-7.7,2.1-7.7,7C119.8,122.1,123.3,123.6,127.5,123.7z"/>
</g>
</svg>
