<svg xmlns="http://www.w3.org/2000/svg" id="Livello_1" x="0" y="0" version="1.1" viewBox="0 0 250 250" xml:space="preserve"><style>.st0{fill:#e6e7e8}.st2{fill:#8d9093}</style><path d="M124.54 249.55c-2.49-.94-20.6-9.76-25.48-12.41-33.8-18.37-56.28-40.43-74.61-73.22C12.06 141.76 5.46 118.13 3.3 88.19c-.49-6.74-.24-28.98.4-36.83l.28-3.43 4.93-3.77c17.93-13.7 39.23-25.4 57.98-31.82 10.72-3.67 23.57-6.62 36.67-8.4 9.63-1.31 32.82-1.42 42.19-.2 22.5 2.92 39.69 7.97 58.67 17.23 14.36 7.01 29.55 16.66 41.03 26.1l1.56 1.28.49 8.78c.61 10.85.27 31.9-.64 39.98a180.23 180.23 0 01-7.15 35.07c-3.25 10.87-5.24 15.91-10.04 25.38-9.56 18.88-19.86 33.23-34 47.35-16.5 16.47-32.33 27.12-59.42 39.97-10.05 4.77-10.73 5.04-11.71 4.67zm-86.85-86.71c-.48-.78-2.22-4.13-3.88-7.46-9.16-18.33-14.64-37.17-17-58.41-.82-7.42-1.27-30.19-.74-37.26l.37-4.93-1.2-1.67c-1.49-2.07-1.49-2.23.01-2.53.67-.13 2.16-.98 3.32-1.88a214.44 214.44 0 0122.84-14.99c10.5-5.68 11.31-5.97 34.3-12.34a305.15 305.15 0 0122.91-5.57c3.89-.74 5.67-1.48 3.54-1.48-.62 0-1.26-.21-1.41-.46-.45-.72 1.02-1.55 4.94-2.77 2-.62 3.81-1.3 4.02-1.5.78-.74-2.06-.94-6.97-.47-25.19 2.39-52.73 12.74-76.92 28.91-3.53 2.36-8.7 5.82-11.48 7.68l-5.06 3.38 1.74 1.61c1.59 1.47 1.71 1.73 1.42 3.06-.5 2.26-.31 27.71.26 34.65 1.24 14.98 3.45 26.3 8.04 41.11 4.08 13.17 10.67 26.81 16.19 33.48 1.57 1.89 1.96 1.81.76-.16zm185.69-9.76c5.76-11.43 8.48-18.47 10.84-28.05 1.2-4.89 2.13-11.87 1.5-11.29-.16.15-1.14 3.52-2.17 7.5-4.1 15.79-7.16 24.29-12.93 35.92-1.75 3.53-2.79 5.94-2.32 5.35.48-.6 2.77-4.84 5.08-9.43zM54.73 70.44c0-.23.37-.61.82-.85a6.79 6.79 0 001.81-2.05c.55-.89 2.46-3.25 4.25-5.25 9.15-10.22 17.74-16.72 28.95-21.9 5.05-2.34 8.24-3.45 15.14-5.31 3.18-.86 5.96-1.73 6.19-1.95.22-.22.9-.41 1.5-.42 1.04-.03 1.03-.06-.34-.74-1.35-.67-1.68-.66-6 .23-16.13 3.33-31.96 12.06-43.2 23.81-4.22 4.42-9.04 10.63-10.51 13.55a20.8 20.8 0 01-1.57 2.68c-.41.5-.44.75-.11.75.27 0 .49.32.49.71 0 .42.52-.01 1.29-1.07a8.24 8.24 0 001.29-2.19z" class="st0"/><path fill="#acafb2" d="M118.12 245.86c-16.25-7.66-26.32-13.17-36.19-19.77-25.11-16.8-44.15-38.29-59.04-66.6-7.95-15.12-13.84-33.42-16.77-52.05-2.04-13.05-2.49-20.97-2.18-38.95.15-8.95.39-17.11.53-18.13.23-1.73.52-2.06 4.38-5.14 19.67-15.67 45.27-28.84 68.33-35.16a174.82 174.82 0 0148.22-6.51c15.83 0 29.12 1.67 45.18 5.68 25 6.24 52.22 20.43 75.44 39.31 1.33 1.08 1.62 33.9.41 46.28-1.38 14.13-3.31 23.79-7.55 37.89-4.88 16.24-10.79 28.49-21.6 44.77-7.37 11.09-12.87 17.84-21.83 26.79-14.76 14.74-29.66 25.17-51.59 36.14-9.5 4.75-17.82 8.6-18.55 8.58-.3 0-3.54-1.41-7.19-3.13zm18.09-6.38c11.56-5.85 16.11-8.51 18.7-10.94l14.17-7.74 23.68-17.3 31.69-42.87L241.14 114l3.03-37.97-1.75-25.19-24.93-18.79-30.66-14.51c-8.6-3.94-27.16-8.66-42.16-10.73-7.72-1.07-27.26-1.31-35.84-.46-17.81 1.78-34.41 5.76-47.76 11.45-16.21 6.91-25.06 11.76-41.24 22.61-11.11 7.44-11.58 7.81-11.86 9.35-.16.88-.42 6.61-.58 12.74-.95 36.15 5.13 67 18.43 93.56 20.98 40.14 56.13 73.04 99.25 88.22 1.21.02 3.91-1.15 11.14-4.8z"/><path d="M117.69 228.84c-22.8-11.84-36.34-21.27-49.71-34.62-12.36-12.35-20.48-23.19-29.06-38.83-14.62-26.68-20.25-56.33-17.73-93.46l.27-4 4.11-3.1c19.05-14.38 39.18-24.56 58.5-29.6 14.74-3.84 24.97-5.12 40.9-5.12 14.69 0 22.64.87 36.62 4.01 17.51 3.93 36.5 12.36 53.54 23.75 7.02 4.69 13.7 9.77 14.09 10.71.21.51.41 8.83.43 18.48.04 16.02-.04 18.18-.93 24.63-3.62 26.29-10.92 45.78-25.21 67.24-14.33 21.53-32.84 38.72-56.05 52.05-4.55 2.61-20.55 11.14-21.63 11.53-.36.11-4.02-1.53-8.14-3.67z"/><path d="M134.73 202.73a88.64 88.64 0 0043.03-16.79c4.28-3.18 11.89-10.51 15.43-14.88a90.76 90.76 0 0018.15-38.33c1.11-5.23 1.18-6.22 1.19-16.49.01-9.52-.11-11.55-.93-15.85-4.96-25.86-20.48-47.54-43.44-60.68-8.05-4.61-18.42-8.27-28.42-10.02-6.67-1.17-19.76-1.4-26.13-.46-21.66 3.2-40.77 13.52-54.49 29.41-19.59 22.7-26.17 52.71-17.88 81.59 6.74 23.46 24.02 43.81 46.25 54.45a95.95 95.95 0 0028.05 8.04c4.72.52 14.42.53 19.19.01zm-22.18-10.88c-26.53-4.47-49.57-22.88-59.13-47.24-3.68-9.38-5.1-16.21-5.43-26.16-.27-8.17.29-13.97 2.02-20.83 7.5-29.81 30.53-51.86 60.12-57.57 6.57-1.27 7.03-1.23 7.83.68 1.79 4.29 3.44 13.19 5.08 27.55.69 1.31-.18 11.22 2.69 10.02.54-.34.82-1.36 1.07-3.85 1.73-17.9 4.53-32.75 6.55-34.84.53-.54 1.16-.53 5 .09 15.78 2.55 30.17 10.02 41.87 21.73 6.13 6.14 10 11.36 13.68 18.45 6.66 12.84 9.42 24.81 8.9 38.61a69.41 69.41 0 01-2.68 17.79c-7.41 27.22-29.94 48.57-57.62 54.63-2.69.59-5.81 1.2-6.94 1.35l-2.04.28-.69-1.63c-2.05-4.87-4.65-19.24-5.72-31.61-.26-3.06-.58-5.9-.7-6.32-.22-.76-1.64-1.04-2.04-.39-.12.2-.71 4.73-1.32 10.07-1.81 16.02-4.28 28.45-5.85 29.45-.69.42-.56.43-4.65-.26z" class="st0"/><path d="M118.12 197.37c-.35-.08-2.96-.34-5.78-.57a58.62 58.62 0 01-15.95-3.8c-2.44-.94-6.27-3.07-6.01-3.33.09-.09 1.69.44 3.57 1.17 8.27 3.23 11.35 3.88 19.89 4.19 6.19.23 8.29.46 9.6 1.05 1.28.58 1.53.85 1.07 1.14-.58.37-5.02.47-6.39.15zm7.72-.17c-.54-.34-.62-2.47-.51-14.88.07-7.96.58-16.2.55-18.33-.06-4.53.12-10.92-.51-10.92.41-.12.9.35.96 1.35.31 4.86.57 26.32 2.02 34.98.9 5.37 2.18 5.71 8.23 6.01 7.43-.31 11.5-1.18 19.41-4.17 2.57-.97 4.76-1.68 4.85-1.59.37.37-3.91 2.53-7.7 3.88a68.17 68.17 0 01-17.68 3.62c-6.74.57-8.79.58-9.62.05zM125.36 77.7c.64 0 .98-7.31.51-11.13-.69-5.71-.82-31.95-.16-32.61.92-.92 11.28.19 18.31 1.96a70.67 70.67 0 0117.77 6.71c4.72 2.45 9.27 5.39 8.89 5.76-.1.1-2.86-1.17-6.14-2.81-7.74-3.88-11.6-5.25-19.33-6.85-3.48-.73-7.81-1.69-9.62-2.16-4.23-1.08-5.3-1.06-6.59.14-.93.87-1.1 1.52-1.48 5.67-.31 3.49-.28 5.56.12 8.08-.08 6.5 1.39 10.22-2.28 27.24z" class="st2"/><path fill="#5f6269" d="M117.69 245c-15.75-7.48-24.89-12.44-34.26-18.58-22.79-14.93-40.44-33.8-55.21-59C14.56 144.1 7.18 119.44 5.02 89.9c-.52-7.17-.26-35.47.37-39.19.63-3.75.9-.93.51 5.38-2.35 38.43 4.49 75.43 18.96 102.55 13.58 25.45 29.99 44.62 51.8 60.51 8.76 6.39 24.03 15.33 40.17 23.54 6.93 3.52 8.59 4.21 9.75 4.02.77-.12 3.85-1.34 6.85-2.7 11.63-5.28 21.66-10.88 25.63-14.32 1.07-.93 5.91-4.5 10.74-7.94a279.57 279.57 0 0013.81-10.45c24.08-20.18 43.7-49.51 52.68-78.78 5.64-18.37 8.6-39.9 8.57-62.32-.01-9.34-.54-19.47-1.08-20.89-.22-.58-.05-.74.79-.74.96 0 1.1.22 1.34 2.03.65 5.09 1.04 24.01.67 32.47-.84 19.15-2.91 31.76-7.96 48.54-3.44 11.43-5.33 16.23-10.03 25.52-10.26 20.26-24.06 38.84-38.48 51.8-14.03 12.61-25.79 20.41-46.11 30.58-7.76 3.88-18.57 9.1-18.77 9.06-.02 0-3.42-1.61-7.54-3.57zm-.31-7.54c-11.36-5.92-26.36-15.52-31.21-19.98-1.9-1.75-1.88-1.74 4.76 2.41 6.41 4 14.9 8.65 24.72 13.55l9.31 4.64 5.89-2.92c19.59-9.72 31.93-17.35 43.66-26.98 18.16-14.91 31.87-31.59 43.12-52.46 12.31-22.84 18.24-48.29 18.26-78.45.01-8.19-.78-22.38-1.31-23.82-.59-1.57-17.71-13.51-26.92-18.77-9.8-5.59-22.02-11.05-34.71-15.51a98.46 98.46 0 01-6.85-2.56c-.7-.71 10.42 1.91 16.73 3.94a152 152 0 0132.08 14.93c4.44 2.76 17.16 12.02 20.91 15.22.9.77 1.03 1.4 1.44 6.75.58 7.71.18 30.76-.67 38.28a206.99 206.99 0 01-10.62 45.36c-2.55 6.91-9.42 21.08-13.4 27.62a314.68 314.68 0 01-15.17 21.84c-6.49 8.18-22.74 23.37-29.69 27.75-5.14 3.24-26.92 14.46-35.97 18.52a61.52 61.52 0 00-6.28 3.15c-.69.49-1.33.89-1.41.89-.08 0-3.08-1.53-6.67-3.4zm8.88-40.69c-.55-.35-.62-1.93-.5-10.8.16-11.47.88-15.66.94-5.48.05 8.18.55 13.29 1.35 13.88.88.65 1.28 2.39.55 2.39-.31 0-.82.09-1.14.21-.3.12-.85.03-1.2-.2zm-7.93-.44c-.35-.56 3.2-.56 4.07 0 .46.3.01.42-1.58.42-1.22.01-2.34-.18-2.49-.42zM64.59 61.95c0-.66 4.81-5.66 8.21-8.54 7.32-6.21 17.5-11.95 25.92-14.63 8.28-2.63 23.69-5.47 23.69-4.37 0 .25-.07.46-.16.46-1.47 0-8.99 1.73-14.83 3.42a101.24 101.24 0 00-31.7 15.93c-6.41 4.77-11.14 8.05-11.13 7.73zm61.55-6.52c-.49-3.25-.8-18.55-.41-19.92l.37-1.28 4.68.15a71.3 71.3 0 0117.08 2.88c3.64 1.06 9.22 3.33 9.22 3.75 0 .11-.92-.08-2.03-.42-4.61-1.4-21.16-5.31-23.54-5.56-2.26-.24-2.6-.17-2.85.54-.16.44-.59 1.34-.95 2-.51.92-.73 3.34-.97 10.49-.19 5.93-.41 8.6-.6 7.37zM18.38 99.02a209.5 209.5 0 01-1.55-20.47c-.3-8.58.32-22.96 1.02-23.66.29-.29.73.04 1.34 1.02.74 1.19.87 1.88.67 3.8-1.47 14.61-1.79 25.56-1.06 36.16.25 3.04.67 11.35-.42 3.15zM237.15 44.4c-4.38-2.93-8.06-5.76-8.09-6.21-.04-.69.98-.24 3.95 1.71 2.68 1.77 8.62 6.91 8.02 6.95-.11.01-1.86-1.09-3.88-2.45z"/><path d="M115.51 244.37c-23.92-11.41-37.81-20.17-52.45-33.09-21.48-18.96-39.89-46.48-49.15-73.48C6.1 115.04 2.97 90.69 4.17 62.07c.33-7.96.7-12.68 1.02-13.14.78-1.12 7.29-6.28 12.83-10.17a205.28 205.28 0 0144.45-23.5 181.06 181.06 0 01115.61-3.49c20.22 6.1 45.96 19.7 62.74 33.16 2.12 1.7 4.17 3.2 4.56 3.34 1.1.39 1.43 6.43 1.42 25.58-.01 18.08-.34 22.67-2.59 35.98-1.34 7.94-2.57 12.99-5.57 22.95-4.83 16.03-11.09 28.99-21.72 44.94-17.61 26.41-38.16 44.4-69.05 60.43-9.35 4.85-21.48 10.45-22.62 10.45-.5-.02-4.89-1.92-9.74-4.23zm18.43-1.57c6.89-3.22 10.96-5.45 12.45-6.84.59-.54 3.87-2.68 7.28-4.75 18.7-11.3 30.95-20.69 41.97-32.14 11.38-11.83 20-23.66 28.38-38.93 13.63-24.83 20.09-53.73 20.19-90.37.02-6.83-.12-14.06-.32-16.07-.34-3.57-.39-3.67-1.82-4.5-31.66-23.53-58.5-37.61-97.19-43.32-8.46-1.1-31.26-1.11-39.62-.02-18.02 2.35-33.54 6.32-44.32 11.31C40.98 26.44 35.35 29.5 21.76 38.5a575.49 575.49 0 01-11.83 7.68l-2.62 1.59-.26 2.87c-.63 6.85-.81 26.71-.31 34.34 2.37 36.47 11.01 63.18 29.37 90.79a159.8 159.8 0 0021.18 25.74c15.74 15.77 29.72 25.28 57.94 39.41 9.12 4.57 10.47 5.12 11.83 4.83.54-.11 3.64-1.44 6.88-2.95zm-16.89-4.87c-12.51-6.55-24.14-14.03-33.79-21.74-5.51-4.41-15.25-13.29-15.25-13.92 0-.24.82.26 1.82 1.12 8.3 7.1 20.45 15.59 30.3 21.19 7.24 4.11 23.74 12.45 24.64 12.45.91 0 17.97-8.54 24.61-12.32 30.09-17.13 51.52-39.03 68.19-69.69 7.15-13.16 12.62-29.17 15.29-44.76 1.88-11 3.03-30.95 2.41-41.65-.55-10.09 2-12.78-6.33-19.08-24.17-17.67-44.6-27.26-72.21-33.91-4.09-.98-7.85-1.96-8.35-2.16-1.55-.63 2.6-.5 7.96.25 23.48 3.27 42.66 10.49 62.22 23.45 5.59 3.7 16.48 11.95 18.2 13.78l1.07 1.14-.01 18.7c-.01 20.55-.28 24.35-2.8 38.02-4.02 21.89-10.95 41.12-21 58.25-2.67 4.56-9.89 15.21-14.89 21.99-5.99 8.11-21.63 23.53-29.74 29.31-3.09 2.21-26.38 14.08-36.63 18.68-3.38 1.51-6.32 3.1-6.55 3.52-.73 1.35-2.59.82-9.16-2.62zM19.63 91.19l.21 5.02c.7 16.89 5.73 36.82 13.39 53.09 4.08 8.66 10.03 18.59 16.91 28.19 1.77 2.47 4.25 5.94 5.51 7.7 1.26 1.76 5.93 6.87 10.38 11.35 4.45 4.48 7.53 7.66 6.85 7.06-16.62-14.67-28.93-30.57-38.25-49.44-9.68-19.59-14.39-35.47-17.02-57.39-.98-8.16-1.16-40.45-.24-42.07C19.29 51.34 40 37.53 50.44 32.65c4.18-1.96 12.18-5.05 12.96-5.02.29.01-1.79 1.14-4.63 2.5-9.6 4.61-17.56 9.39-28.25 16.99a142.93 142.93 0 01-7.6 4.99c-2.06 1.24-3.75 2.45-3.75 2.7l.46 36.38zm55.18 113.82c-.53-.68-.52-.69.16-.16.71.56.94.91.59.91-.09 0-.43-.34-.75-.75z" class="st2"/><path fill="#101a4b" d="M116.83 227.97c-29.85-15.44-48.72-30.7-64.8-52.41-14.69-19.84-23.85-40.48-28.3-63.81-2.25-11.79-2.62-16.71-2.6-34.48.01-9.07.16-17.16.33-17.99.27-1.29.98-1.98 5.12-4.99C40.79 43.97 51.5 37.76 65.26 31.86c19.43-8.33 45.31-12.79 67.03-11.55 34.52 1.97 61.33 11.94 91.4 33.99 5.16 3.78 5.38 3.99 5.05 4.85-.19.49-.31.49-.71.01a20.78 20.78 0 00-2.41-1.95c-1.06-.76-3.59-2.6-5.63-4.09a100.77 100.77 0 00-5.35-3.7 116.2 116.2 0 01-3.99-2.53c-3.06-2.02-5.9-3.53-15.22-8.13-11.82-5.83-14.45-7.05-15.85-7.38-.71-.17-3.02-.92-5.14-1.66-14.35-5.07-31.84-7.87-49.04-7.86-20.77.01-40.27 3.75-58.2 11.15a233.78 233.78 0 00-20.72 10.33c-8.46 5-20.85 13.68-22.3 15.61-1.09 1.46-1.5 6.62-1.54 19.42-.07 23.95 3.71 44.01 11.98 63.61 9.1 21.56 27.82 46.12 47.44 62.27 6.92 5.69 7.57 6.2 9.94 7.69 1.12.71 3.53 2.3 5.35 3.53 1.83 1.24 3.58 2.25 3.9 2.25.32 0 .58.19.58.43s.84.86 1.87 1.39a95.14 95.14 0 019.26 5.2c1.29.85 2.68 1.55 3.08 1.55.4 0 .85.19.99.42.14.23 1.07.8 2.06 1.27a38.3 38.3 0 012.45 1.25c.35.21 1.56.81 2.68 1.33s1.93 1.12 1.79 1.34c-.13.22-.38.39-.54.39-.15.01-4.04-1.94-8.64-4.32zm1.29-22.46c-.59-.1-3.19-.5-5.78-.9-2.59-.39-5.23-.97-5.87-1.29a6.43 6.43 0 00-2.35-.57c-1.65-.01-10.52-3.1-14.62-5.09a64.05 64.05 0 01-6.86-3.57 28.69 28.69 0 00-2.94-1.62c-.4 0-5.28-3.61-7.09-5.25-.98-.88-1.92-1.61-2.1-1.61-.18 0-.88-.53-1.57-1.18-5.89-5.59-8.64-8.39-8.44-8.59.13-.13 1.63 1.14 3.34 2.81 23.11 22.71 58.2 30.66 89.39 20.23 18.76-6.27 33.88-17.92 45.06-34.69 15.18-22.78 18.88-49.88 10.36-75.8-7.25-22.05-23.85-41.06-45.13-51.7-1.53-.76-2.55-1.39-2.26-1.4.76-.01 11.12 5 11.45 5.54.15.25.58.45.94.45s1.36.54 2.22 1.19c.86.65 2.12 1.47 2.8 1.82 3.48 1.76 15.43 13.27 19.78 19.05 13.39 17.79 19.31 38.42 17.51 61.03-.33 4.12-.8 8.36-1.05 9.42-.25 1.06-.67 2.89-.93 4.07-1.01 4.57-4.58 14.51-6.46 17.99-5.41 10-8.68 14.78-14.18 20.72-9.63 10.4-21.26 18.41-33.46 23.05-12.18 4.63-17.95 5.72-31.27 5.92-5.18.09-9.9.07-10.49-.03zm14.75-14.95c-2.33-5.59-5.74-26.43-5.75-35.23-.01-2.99.69-3.55 1.96-1.6.83 1.27 1.88 6.46 1.89 9.31 0 1.11.19 2.85.41 3.85.23 1 .82 4.97 1.32 8.81.92 7.14 2.56 13.88 3.68 15.12.55.62.51.72-.36.96-1.94.52-2.52.29-3.15-1.22zm-19.63.71c-.12-.19.35-.27 1.05-.17.69.1 1.26.26 1.26.35 0 .33-2.1.17-2.31-.18zm-2.29-.33c.14-.14.51-.16.82-.04.34.14.24.24-.26.26-.44.02-.7-.08-.56-.22zm-5.25-1.08a75.45 75.45 0 01-14.35-5.25C52.51 166 36.8 119.17 56.48 80.7a76.37 76.37 0 0152.81-40.27c5.55-1.14 8.13-1.03 8.32.33.11.73-.03.9-.54.7-.78-.3-8.18.91-10.73 1.76-.94.31-3.06.99-4.71 1.51-4.17 1.31-13.44 5.88-17.67 8.71-16.68 11.14-27.92 27.98-32.23 48.24-1.19 5.6-1.61 16.7-.88 23.04 1 8.61 3.37 16.63 7.16 24.24 2.22 4.46 3.68 6.84 8.09 13.19 1.78 2.57 8.8 9.73 12.65 12.91 2.62 2.17 9.15 6.71 9.64 6.71.26 0 .83.39 1.25.86.42.47 1.05.85 1.39.85.34 0 1.14.37 1.78.83.64.46 1.73.97 2.42 1.13.69.17 1.46.46 1.7.65.55.43 5.52 2.17 8.98 3.15 1.41.4 2.95.89 3.42 1.1 1.53.65-.27.42-3.63-.48zm36.16-48.95c-1.5-.65-6.09-4.76-5.72-5.13.13-.13.98.37 1.88 1.11a8.86 8.86 0 007.93 1.88c4.42-1.15 7-4.48 8.62-11.14.52-2.14 1.07-4.04 1.23-4.21.15-.17.72-.01 1.26.36.87.61.96.99.87 3.52-.06 1.56-.36 3.32-.67 3.92-.31.6-.57 1.51-.57 2.03 0 .52-.38 1.15-.84 1.39-.46.25-.96 1.07-1.1 1.84-.28 1.47-2.59 3.49-5.11 4.46-1.8.69-6.17.67-7.78-.03zm-71.11-.25c-7.03-.17-9.2-.35-9.78-.84-.71-.59-.71-.64.04-.93.43-.17 5.25-.32 10.7-.34 7.78-.02 10.01-.15 10.39-.61.27-.32 1.02-3.21 1.68-6.42.66-3.21 1.4-6.04 1.65-6.29.26-.26 1.72-.4 3.41-.32l2.96.13.13 1.32c.12 1.24.05 1.31-1.13 1.14-2.09-.31-2.89.45-3.65 3.5-.38 1.53-.7 3.13-.7 3.55 0 1.38-.86 3.89-1.65 4.87-1.09 1.3-3.23 1.49-14.05 1.24zm23.17.14c-1.28-.34-2.45-1.5-1.98-1.97.22-.22 4.71-.43 9.97-.48 5.27-.04 9.82-.23 10.11-.41.29-.18.53-1 .53-1.83 0-1.48-.03-1.5-1.61-1.37l-1.61.14-.1-16.06c-.06-10.46.05-15.81.32-15.36.23.39 1.06 2.64 1.86 5.02 1.31 3.92 1.41 4.52 1.02 6.58-.24 1.31-.32 5.76-.18 10.57l.24 8.31 1.31 1.35c1.73 1.78 1.79 3.76.15 4.83-1.01.66-2.35.77-10.17.84-4.94.03-9.39-.04-9.86-.16zm30.95-.18c-1.07-.63-.92-1.25.3-1.25.58 0 1.15-.17 1.28-.38.17-.28.7-34.95.67-43.81 0-.53.43-.76 1.6-.86 1.47-.12 1.62-.25 1.74-1.52.14-1.42.36-1.62 1.19-1.06a5.1 5.1 0 011.46 2.6c0 .23-.67 1.22-1.5 2.21l-1.5 1.79.2 12.27c.24 14.47.25 12.22-.12 21.42-.29 7.11-.34 7.46-1.31 8.24a3.71 3.71 0 01-4.01.35zm32.76-.39c-.76-.47-1.39-1.04-1.39-1.28 0-.28 3.39-.43 9.58-.43 10.31 0 10.77-.1 10.47-2.22-.1-.72-.46-1.02-1.32-1.12-.82-.09-1.18-.38-1.18-.94 0-.7.83-5.1 1.51-8.03.21-.9.45-.96 3.64-.96h3.42v1.49c0 1.4-.07 1.48-1.19 1.25-1.85-.37-3.01.88-3.54 3.78-.41 2.25-.37 2.56.51 3.74.81 1.1.89 1.53.55 2.89-.62 2.5-1.36 2.68-11.11 2.69-7.78-.01-8.69-.08-9.95-.86zm25.59-.08l-1.5-.93 1.07-.31c.59-.17 3.6-.33 6.7-.35 6.06-.05 6.15-.08 6.15-2.43 0-1.35.58-1.31 1.68.09 1.17 1.49 1.12 2.22-.26 3.67-1.14 1.2-1.17 1.2-6.75 1.2-4.99-.01-5.75-.11-7.09-.94zm-114.16-5.6c-.11-.29-.16-9.3-.1-20.02l.11-19.49 1.63-.13c1.28-.1 1.71-.36 2.03-1.2.22-.59.6-.95.84-.8.81.5.43 2.03-.86 3.5l-1.29 1.47.05 12.94c.03 7.12.19 15.35.36 18.29.22 3.69.17 5.44-.15 5.66-.74.5-2.39.37-2.62-.22zm32.47-.01c-.21-.28-1.09-3.79-1.95-7.8-.86-4-2.71-12.58-4.12-19.06a361.17 361.17 0 01-2.86-14.07c-.29-2.21-.27-2.28.56-1.84.47.25 1.07 1 1.33 1.65.58 1.46 3.3 12.28 4.35 17.26 1.69 8.04 4.69 19.86 5.62 22.15.31.76.47 1.45.36 1.54-.58.51-2.94.63-3.29.17zm64.32.01c-.11-.29-.15-9.4-.09-20.24l.11-19.7 1.42-.01c1.44-.01 2.21-.7 2.22-1.97.01-1.06 1.21-1.32 1.71-.38.82 1.54.5 3.22-.87 4.53l-1.3 1.25.13 18.29c.13 17.99.11 18.3-.73 18.52-1.42.39-2.38.28-2.6-.29zm25.76-.21c-.13-.41-2.08-9.33-4.35-19.81-4.2-19.44-4.98-23.98-4.12-23.98.73 0 2.15 1.71 2.63 3.17.48 1.47 1.97 8.23 2.57 11.69.22 1.23.77 3.73 1.23 5.57.46 1.83 1.07 4.49 1.34 5.9.28 1.41.8 3.82 1.16 5.35.65 2.79 1.63 7.04 2.26 9.85.18.82.48 1.84.65 2.25.27.64.07.75-1.42.75-1.26.01-1.78-.19-1.95-.74zm-49.34-.1c-1.23-.5-2.63-2.35-3.19-4.23-.25-.86-.57-5.51-.71-10.34-.25-9.28.26-17.1 1.36-20.83 1.1-3.71 3.77-5.21 6.59-3.71 1.54.82 3.02 2.87 2.47 3.42-.18.18-.52 0-.75-.41-.56-1.01-2.73-.96-3.78.09-1.94 1.94-2.79 9.53-2.48 22.12.24 9.95.43 10.97 2.42 12.77.5.45.9.98.9 1.18 0 .46-1.64.42-2.83-.06zm33.66-13.33c-.02-1.19 2.79-14.51 3.06-14.51.15 0 .6 2.17.99 4.82.94 6.36.92 5.97.31 7.08-.61 1.1-.28 1.98.62 1.64.35-.13.6.04.6.4 0 .4-.43.63-1.18.63-.65 0-1.9.12-2.78.27-1.21.19-1.62.11-1.62-.33zm-90.38-.27c-.04-.86 2.83-14.24 3.06-14.24.14 0 .51 1.71.8 3.79.41 2.88.43 4.15.06 5.27-.27.81-.53 2.38-.58 3.49l-.09 2.01h-1.62c-.88 0-1.62-.15-1.63-.32zm33.06-16.67c-2.2-5.38-4.11-10.43-4.24-11.23l-.24-1.46 1.28.95c.94.69 1.96 2.48 3.76 6.59 1.36 3.1 2.68 5.77 2.92 5.93.44.28.97 6.75.67 8.23-.07.43-1.95-3.63-4.15-9.01zm33.99 3.12c-.47-.34-.76-.69-.64-.77.12-.08.6-.36 1.07-.61.79-.43.88-1.04 1.07-7.14.12-3.67.36-6.81.53-6.99.18-.18.32.25.32.95 0 1.6.69 2.3 2.27 2.3 1.18 0 1.23.08.97 1.39-.15.77-.43 3.08-.62 5.15-.25 2.71-.58 4.09-1.21 4.93-.99 1.36-2.55 1.68-3.76.79zm-48.53-11.06c-.7-.7-.65-1.2.13-1.2.36 0 .64.38.64.86 0 1-.08 1.03-.77.34zm17.56 0c-.75-.75-.63-1.2.34-1.2.57 0 .86.29.86.86 0 .97-.44 1.1-1.2.34zm26.91-4.86c-1.64-1.16-1.44-1.31.71-.54.78.28 1.42.76 1.42 1.07 0 .78-.42.68-2.13-.53zm-22.26-11.3c-.5-.32-.51-.51-.08-1.04.32-.38.79-3.48 1.14-7.52 1.32-15.1 4.52-31.16 6.34-31.86.32-.12 2.19.06 4.17.4 19.53 3.38 35.69 12.96 47.99 28.42a20.55 20.55 0 012.03 3l.5 1.07-.77-1a86.2 86.2 0 00-2.7-3.21c-1.06-1.22-2.31-2.7-2.78-3.28-2.01-2.51-9.25-8.43-14.54-11.89-10.55-6.9-29.71-13.27-31.91-10.62-1.02 1.22-2.49 7.29-3.44 14.15a225.7 225.7 0 00-1.74 14.78c-.57 6.66-.69 7.1-2.02 8.14-1.19.97-1.33 1-2.19.46z"/><path fill="#fff" d="M126.58 116.59l.11-22.14 1.6-.13c1.45-.12 1.62-.26 1.73-1.5l.13-1.36-4.47-.14c-5.86-.18-5.94-.16-5.77 1.51.12 1.19.31 1.38 1.63 1.57l1.5.21.11 9.99c.06 5.49-.05 9.89-.24 9.77-.2-.12-2.44-5.34-5-11.61l-4.64-11.39-5.61.12-5.61.12v1.29c0 1.18.14 1.3 1.61 1.42l1.61.13-.11 20.21-.11 20.21h-3.86l-4.43-20.56c-5.37-24.9-5.06-23.62-5.88-23.94-1.78-.68-2.02.05-5.89 17.8-3.91 17.9-5.01 21.45-7.48 24.06a8.87 8.87 0 01-6.49 2.85h-2.16l.11-20.23.11-20.24 1.5-.21c1.33-.19 1.5-.36 1.5-1.5v-1.29H58.8l-.14 1.24c-.16 1.41.45 1.96 2.18 1.97l1.18.01v40.26h-1.04c-1.77 0-2.39.45-2.39 1.74 0 .67.15 1.3.32 1.41.18.11 5.52.07 11.86-.08l11.54-.28 1.31-6.42 1.31-6.42 3.52-.12c3.37-.12 3.53-.08 3.73.86a99.77 99.77 0 011.53 8.49c0 .57-.38.82-1.39.92-1.23.12-1.39.28-1.39 1.42v1.28l10.28.12c8.92.1 10.34.03 10.77-.55.88-1.21.21-2.29-1.5-2.43l-1.56-.13-.11-15.82c-.06-8.7.04-15.97.23-16.16.19-.19 3.3 7.03 6.92 16.03 8.92 22.2 7.94 20.1 9.34 19.94l1.18-.14.1-22.16zm-41.44 4.47c-.02-1.03 3.19-15.53 3.44-15.53.34 0 3.35 15.04 3.1 15.53-.09.18-1.6.32-3.35.32-1.75.01-3.19-.14-3.19-.32zm61.38 17.43c3.67-1.02 6.48-4.96 7.82-11 .82-3.68.65-4.39-1.07-4.39-1.56 0-1.58.03-2.62 4.12-1.14 4.46-2.56 6.81-4.51 7.45-2.84.94-5.36-.32-6.75-3.36-.84-1.84-.93-2.86-1.06-13.13-.21-15.77.73-21.55 3.75-23.12 3.98-2.06 7.35.82 8.55 7.28.52 2.82.87 3.36 2.02 3.14.72-.14.82-.77 1.04-6.79.14-3.65.16-6.87.06-7.17-.33-.96-2.22-.62-2.72.49l-.47 1.02-2.07-1.29c-1.87-1.16-2.34-1.27-4.87-1.11-2.23.14-3.16.43-4.59 1.44-5.01 3.54-8.51 12.75-8.51 22.42 0 11.18 4.41 21.2 10.49 23.86 1.6.69 3.36.73 5.51.14zm48.24-.6c.96-1.16.35-2.15-1.47-2.38l-1.69-.21-4.83-22.27c-2.66-12.25-4.83-22.32-4.84-22.38a3.92 3.92 0 00-1.28-.11c-1.49 0-1.21-.87-4.06 12.42-1.09 5.06-3.08 14.32-4.43 20.56l-2.45 11.35-2.04.13-2.04.13.11-20.26.11-20.26 1.5-.21c1.33-.19 1.5-.36 1.5-1.5v-1.29h-13.28v1.29c0 1.14.17 1.31 1.5 1.5l1.5.21v40.26l-1.5.21c-1.33.19-1.51.38-1.63 1.61l-.14 1.4 10.2-.11 10.2-.12.14-1.18c.12-1.02-.04-1.22-1.18-1.45-.72-.14-1.3-.38-1.29-.53.01-.15.45-2.39.98-4.98l.96-4.71 3.5-.12c3.35-.12 3.51-.08 3.71.86a97.67 97.67 0 011.53 8.52c0 .58-.31.81-1.06.81-.6 0-1.24.35-1.5.83-.57 1.07-.57 1.13.23 1.93.98.96 12.26 1 13.04.05zm-19.15-17.47c.11-.53.83-4.09 1.61-7.92.78-3.83 1.55-6.96 1.72-6.96.17 0 .94 3.33 1.71 7.39s1.49 7.63 1.6 7.92c.15.4-.68.54-3.32.54-3.43 0-3.52-.03-3.32-.97z"/><path d="M194.76 65.49c1.59 2.7 2.01 3.54 4.34 8.78 1.2 2.71 2.65 5.94 3.22 7.18a24.44 24.44 0 011.03 2.47c0 .11.79 2.06 1.76 4.32 2.24 5.23 3.26 10.22 3.83 18.67.76 11.28-.52 23.07-3.53 32.46-1.33 4.15-4.48 11.42-4.81 11.09-.1-.1.68-2.54 1.72-5.43 3.84-10.58 5.32-18.7 5.32-29.23 0-11.04-1.2-19.31-4.09-28.15-2.07-6.32-5.36-12.65-10.68-20.5-8.9-14.01-8.48-16.05 1.89-1.66z" class="st2"/><path fill="none" d="M0 0h250v250H0V0z"/></svg>