<?xml version="1.0" encoding="utf-8"?>
<!-- Generator: Adobe Illustrator 24.0.0, SVG Export Plug-In . SVG Version: 6.00 Build 0)  -->
<svg version="1.1" id="Livello_1" xmlns="http://www.w3.org/2000/svg" xmlns:xlink="http://www.w3.org/1999/xlink" x="0px" y="0px"
	 viewBox="0 0 250 250" style="enable-background:new 0 0 250 250;" xml:space="preserve">
<style type="text/css">
	.st0{fill:#E6E7E8;}
	.st1{fill:#ACAFB2;}
	.st2{fill:#8D9093;}
	.st3{fill:#5F6269;}
	.st4{fill:#101A4B;}
	.st5{fill:#FFFFFF;}
	.st6{fill:none;}
</style>
<path class="st0" d="M124.54,249.55c-2.49-0.94-20.6-9.76-25.48-12.41c-33.8-18.37-56.28-40.43-74.61-73.22
	C12.06,141.76,5.46,118.13,3.3,88.19c-0.49-6.74-0.24-28.98,0.4-36.83l0.28-3.43l4.93-3.77c17.93-13.7,39.23-25.4,57.98-31.82
	c10.72-3.67,23.57-6.62,36.67-8.4c9.63-1.31,32.82-1.42,42.19-0.2c22.5,2.92,39.69,7.97,58.67,17.23
	c14.36,7.01,29.55,16.66,41.03,26.1l1.56,1.28l0.49,8.78c0.61,10.85,0.27,31.9-0.64,39.98c-1.5,13.3-3.33,22.28-7.15,35.07
	c-3.25,10.87-5.24,15.91-10.04,25.38c-9.56,18.88-19.86,33.23-34,47.35c-16.5,16.47-32.33,27.12-59.42,39.97
	C126.2,249.65,125.52,249.92,124.54,249.55L124.54,249.55z M37.69,162.84c-0.48-0.78-2.22-4.13-3.88-7.46
	c-9.16-18.33-14.64-37.17-17-58.41c-0.82-7.42-1.27-30.19-0.74-37.26l0.37-4.93l-1.2-1.67c-1.49-2.07-1.49-2.23,0.01-2.53
	c0.67-0.13,2.16-0.98,3.32-1.88c5.59-4.36,16.84-11.75,22.84-14.99c10.5-5.68,11.31-5.97,34.3-12.34
	c9.18-2.54,16.99-4.44,22.91-5.57c3.89-0.74,5.67-1.48,3.54-1.48c-0.62,0-1.26-0.21-1.41-0.46c-0.45-0.72,1.02-1.55,4.94-2.77
	c2-0.62,3.81-1.3,4.02-1.5c0.78-0.74-2.06-0.94-6.97-0.47c-25.19,2.39-52.73,12.74-76.92,28.91c-3.53,2.36-8.7,5.82-11.48,7.68
	l-5.06,3.38l1.74,1.61c1.59,1.47,1.71,1.73,1.42,3.06c-0.5,2.26-0.31,27.71,0.26,34.65c1.24,14.98,3.45,26.3,8.04,41.11
	c4.08,13.17,10.67,26.81,16.19,33.48C38.5,164.89,38.89,164.81,37.69,162.84L37.69,162.84z M223.38,153.08
	c5.76-11.43,8.48-18.47,10.84-28.05c1.2-4.89,2.13-11.87,1.5-11.29c-0.16,0.15-1.14,3.52-2.17,7.5
	c-4.1,15.79-7.16,24.29-12.93,35.92c-1.75,3.53-2.79,5.94-2.32,5.35C218.78,161.91,221.07,157.67,223.38,153.08L223.38,153.08z
	 M54.73,70.44c0-0.23,0.37-0.61,0.82-0.85c0.45-0.24,1.27-1.16,1.81-2.05c0.55-0.89,2.46-3.25,4.25-5.25
	c9.15-10.22,17.74-16.72,28.95-21.9c5.05-2.34,8.24-3.45,15.14-5.31c3.18-0.86,5.96-1.73,6.19-1.95c0.22-0.22,0.9-0.41,1.5-0.42
	c1.04-0.03,1.03-0.06-0.34-0.74c-1.35-0.67-1.68-0.66-6,0.23c-16.13,3.33-31.96,12.06-43.2,23.81c-4.22,4.42-9.04,10.63-10.51,13.55
	c-0.53,1.06-1.24,2.26-1.57,2.68c-0.41,0.5-0.44,0.75-0.11,0.75c0.27,0,0.49,0.32,0.49,0.71c0,0.42,0.52-0.01,1.29-1.07
	C54.16,71.65,54.73,70.67,54.73,70.44L54.73,70.44z"/>
<path class="st1" d="M118.12,245.86c-16.25-7.66-26.32-13.17-36.19-19.77c-25.11-16.8-44.15-38.29-59.04-66.6
	c-7.95-15.12-13.84-33.42-16.77-52.05C4.08,94.39,3.63,86.47,3.94,68.49c0.15-8.95,0.39-17.11,0.53-18.13
	c0.23-1.73,0.52-2.06,4.38-5.14c19.67-15.67,45.27-28.84,68.33-35.16c16.45-4.51,31.27-6.51,48.22-6.51
	c15.83,0,29.12,1.67,45.18,5.68c25,6.24,52.22,20.43,75.44,39.31c1.33,1.08,1.62,33.9,0.41,46.28c-1.38,14.13-3.31,23.79-7.55,37.89
	c-4.88,16.24-10.79,28.49-21.6,44.77c-7.37,11.09-12.87,17.84-21.83,26.79c-14.76,14.74-29.66,25.17-51.59,36.14
	c-9.5,4.75-17.82,8.6-18.55,8.58C125.01,248.99,121.77,247.58,118.12,245.86L118.12,245.86z M136.21,239.48
	c11.56-5.85,16.11-8.51,18.7-10.94l14.17-7.74l23.68-17.3l31.69-42.87L241.14,114l3.03-37.97l-1.75-25.19l-24.93-18.79l-30.66-14.51
	c-8.6-3.94-27.16-8.66-42.16-10.73c-7.72-1.07-27.26-1.31-35.84-0.46C91.02,8.13,74.42,12.11,61.07,17.8
	c-16.21,6.91-25.06,11.76-41.24,22.61C8.72,47.85,8.25,48.22,7.97,49.76c-0.16,0.88-0.42,6.61-0.58,12.74
	c-0.95,36.15,5.13,67,18.43,93.56c20.98,40.14,56.13,73.04,99.25,88.22C126.28,244.3,128.98,243.13,136.21,239.48L136.21,239.48z"/>
<path d="M117.69,228.84c-22.8-11.84-36.34-21.27-49.71-34.62c-12.36-12.35-20.48-23.19-29.06-38.83
	C24.3,128.71,18.67,99.06,21.19,61.93l0.27-4l4.11-3.1c19.05-14.38,39.18-24.56,58.5-29.6c14.74-3.84,24.97-5.12,40.9-5.12
	c14.69,0,22.64,0.87,36.62,4.01c17.51,3.93,36.5,12.36,53.54,23.75c7.02,4.69,13.7,9.77,14.09,10.71c0.21,0.51,0.41,8.83,0.43,18.48
	c0.04,16.02-0.04,18.18-0.93,24.63c-3.62,26.29-10.92,45.78-25.21,67.24c-14.33,21.53-32.84,38.72-56.05,52.05
	c-4.55,2.61-20.55,11.14-21.63,11.53C125.47,232.62,121.81,230.98,117.69,228.84L117.69,228.84z"/>
<path class="st0" d="M134.73,202.73c15.58-1.7,30.56-7.54,43.03-16.79c4.28-3.18,11.89-10.51,15.43-14.88
	c8.94-11.05,15.13-24.13,18.15-38.33c1.11-5.23,1.18-6.22,1.19-16.49c0.01-9.52-0.11-11.55-0.93-15.85
	c-4.96-25.86-20.48-47.54-43.44-60.68c-8.05-4.61-18.42-8.27-28.42-10.02c-6.67-1.17-19.76-1.4-26.13-0.46
	c-21.66,3.2-40.77,13.52-54.49,29.41c-19.59,22.7-26.17,52.71-17.88,81.59c6.74,23.46,24.02,43.81,46.25,54.45
	c8.06,3.86,19.17,7.04,28.05,8.04C120.26,203.24,129.96,203.25,134.73,202.73L134.73,202.73z M112.55,191.85
	c-26.53-4.47-49.57-22.88-59.13-47.24c-3.68-9.38-5.1-16.21-5.43-26.16c-0.27-8.17,0.29-13.97,2.02-20.83
	c7.5-29.81,30.53-51.86,60.12-57.57c6.57-1.27,7.03-1.23,7.83,0.68c1.79,4.29,3.44,13.19,5.08,27.55
	c0.69,1.31-0.18,11.22,2.69,10.02c0.54-0.34,0.82-1.36,1.07-3.85c1.73-17.9,4.53-32.75,6.55-34.84c0.53-0.54,1.16-0.53,5,0.09
	c15.78,2.55,30.17,10.02,41.87,21.73c6.13,6.14,10,11.36,13.68,18.45c6.66,12.84,9.42,24.81,8.9,38.61
	c-0.27,7.01-0.91,11.3-2.68,17.79c-7.41,27.22-29.94,48.57-57.62,54.63c-2.69,0.59-5.81,1.2-6.94,1.35l-2.04,0.28l-0.69-1.63
	c-2.05-4.87-4.65-19.24-5.72-31.61c-0.26-3.06-0.58-5.9-0.7-6.32c-0.22-0.76-1.64-1.04-2.04-0.39c-0.12,0.2-0.71,4.73-1.32,10.07
	c-1.81,16.02-4.28,28.45-5.85,29.45C116.51,192.53,116.64,192.54,112.55,191.85L112.55,191.85z"/>
<path class="st2" d="M118.12,197.37c-0.35-0.08-2.96-0.34-5.78-0.57c-5.03-0.41-10.66-1.75-15.95-3.8
	c-2.44-0.94-6.27-3.07-6.01-3.33c0.09-0.09,1.69,0.44,3.57,1.17c8.27,3.23,11.35,3.88,19.89,4.19c6.19,0.23,8.29,0.46,9.6,1.05
	c1.28,0.58,1.53,0.85,1.07,1.14C123.93,197.59,119.49,197.69,118.12,197.37L118.12,197.37z M125.84,197.2
	c-0.54-0.34-0.62-2.47-0.51-14.88c0.07-7.96,0.58-16.2,0.55-18.33c-0.06-4.53,0.12-10.92-0.51-10.92c0.41-0.12,0.9,0.35,0.96,1.35
	c0.31,4.86,0.57,26.32,2.02,34.98c0.9,5.37,2.18,5.71,8.23,6.01c7.43-0.31,11.5-1.18,19.41-4.17c2.57-0.97,4.76-1.68,4.85-1.59
	c0.37,0.37-3.91,2.53-7.7,3.88c-5.39,1.92-11.02,3.07-17.68,3.62C128.72,197.72,126.67,197.73,125.84,197.2L125.84,197.2z"/>
<path class="st2" d="M125.36,77.7c0.64,0,0.98-7.31,0.51-11.13c-0.69-5.71-0.82-31.95-0.16-32.61c0.92-0.92,11.28,0.19,18.31,1.96
	c7.29,1.84,11.32,3.36,17.77,6.71c4.72,2.45,9.27,5.39,8.89,5.76c-0.1,0.1-2.86-1.17-6.14-2.81c-7.74-3.88-11.6-5.25-19.33-6.85
	c-3.48-0.73-7.81-1.69-9.62-2.16c-4.23-1.08-5.3-1.06-6.59,0.14c-0.93,0.87-1.1,1.52-1.48,5.67c-0.31,3.49-0.28,5.56,0.12,8.08
	C127.56,56.96,129.03,60.68,125.36,77.7L125.36,77.7z"/>
<path class="st3" d="M117.69,245c-15.75-7.48-24.89-12.44-34.26-18.58c-22.79-14.93-40.44-33.8-55.21-59
	c-13.66-23.32-21.04-47.98-23.2-77.52c-0.52-7.17-0.26-35.47,0.37-39.19c0.63-3.75,0.9-0.93,0.51,5.38
	c-2.35,38.43,4.49,75.43,18.96,102.55c13.58,25.45,29.99,44.62,51.8,60.51c8.76,6.39,24.03,15.33,40.17,23.54
	c6.93,3.52,8.59,4.21,9.75,4.02c0.77-0.12,3.85-1.34,6.85-2.7c11.63-5.28,21.66-10.88,25.63-14.32c1.07-0.93,5.91-4.5,10.74-7.94
	c4.84-3.44,11.05-8.14,13.81-10.45c24.08-20.18,43.7-49.51,52.68-78.78c5.64-18.37,8.6-39.9,8.57-62.32
	c-0.01-9.34-0.54-19.47-1.08-20.89c-0.22-0.58-0.05-0.74,0.79-0.74c0.96,0,1.1,0.22,1.34,2.03c0.65,5.09,1.04,24.01,0.67,32.47
	c-0.84,19.15-2.91,31.76-7.96,48.54c-3.44,11.43-5.33,16.23-10.03,25.52c-10.26,20.26-24.06,38.84-38.48,51.8
	c-14.03,12.61-25.79,20.41-46.11,30.58c-7.76,3.88-18.57,9.1-18.77,9.06C125.21,248.57,121.81,246.96,117.69,245L117.69,245z
	 M117.38,237.46c-11.36-5.92-26.36-15.52-31.21-19.98c-1.9-1.75-1.88-1.74,4.76,2.41c6.41,4,14.9,8.65,24.72,13.55l9.31,4.64
	l5.89-2.92c19.59-9.72,31.93-17.35,43.66-26.98c18.16-14.91,31.87-31.59,43.12-52.46c12.31-22.84,18.24-48.29,18.26-78.45
	c0.01-8.19-0.78-22.38-1.31-23.82c-0.59-1.57-17.71-13.51-26.92-18.77c-9.8-5.59-22.02-11.05-34.71-15.51
	c-3.64-1.28-6.73-2.43-6.85-2.56c-0.7-0.71,10.42,1.91,16.73,3.94c10.63,3.43,22.35,8.88,32.08,14.93
	c4.44,2.76,17.16,12.02,20.91,15.22c0.9,0.77,1.03,1.4,1.44,6.75c0.58,7.71,0.18,30.76-0.67,38.28
	c-1.66,14.79-5.68,31.94-10.62,45.36c-2.55,6.91-9.42,21.08-13.4,27.62c-3.2,5.27-11.53,17.25-15.17,21.84
	c-6.49,8.18-22.74,23.37-29.69,27.75c-5.14,3.24-26.92,14.46-35.97,18.52c-2.76,1.24-5.58,2.66-6.28,3.15
	c-0.69,0.49-1.33,0.89-1.41,0.89C123.97,240.86,120.97,239.33,117.38,237.46L117.38,237.46z M126.26,196.77
	c-0.55-0.35-0.62-1.93-0.5-10.8c0.16-11.47,0.88-15.66,0.94-5.48c0.05,8.18,0.55,13.29,1.35,13.88c0.88,0.65,1.28,2.39,0.55,2.39
	c-0.31,0-0.82,0.09-1.14,0.21C127.16,197.09,126.61,197,126.26,196.77L126.26,196.77z M118.33,196.33c-0.35-0.56,3.2-0.56,4.07,0
	c0.46,0.3,0.01,0.42-1.58,0.42C119.6,196.76,118.48,196.57,118.33,196.33L118.33,196.33z M64.59,61.95c0-0.66,4.81-5.66,8.21-8.54
	c7.32-6.21,17.5-11.95,25.92-14.63c8.28-2.63,23.69-5.47,23.69-4.37c0,0.25-0.07,0.46-0.16,0.46c-1.47,0-8.99,1.73-14.83,3.42
	C96.46,41.46,85.44,47,75.72,54.22C69.31,58.99,64.58,62.27,64.59,61.95L64.59,61.95z M126.14,55.43
	c-0.49-3.25-0.8-18.55-0.41-19.92l0.37-1.28l4.68,0.15c5.17,0.16,11.23,1.18,17.08,2.88c3.64,1.06,9.22,3.33,9.22,3.75
	c0,0.11-0.92-0.08-2.03-0.42c-4.61-1.4-21.16-5.31-23.54-5.56c-2.26-0.24-2.6-0.17-2.85,0.54c-0.16,0.44-0.59,1.34-0.95,2
	c-0.51,0.92-0.73,3.34-0.97,10.49C126.55,53.99,126.33,56.66,126.14,55.43L126.14,55.43z M18.38,99.02
	c-0.86-6.94-1.27-12.32-1.55-20.47c-0.3-8.58,0.32-22.96,1.02-23.66c0.29-0.29,0.73,0.04,1.34,1.02c0.74,1.19,0.87,1.88,0.67,3.8
	c-1.47,14.61-1.79,25.56-1.06,36.16C19.05,98.91,19.47,107.22,18.38,99.02L18.38,99.02z M237.15,44.4
	c-4.38-2.93-8.06-5.76-8.09-6.21c-0.04-0.69,0.98-0.24,3.95,1.71c2.68,1.77,8.62,6.91,8.02,6.95
	C240.92,46.86,239.17,45.76,237.15,44.4L237.15,44.4z"/>
<path class="st2" d="M115.51,244.37c-23.92-11.41-37.81-20.17-52.45-33.09c-21.48-18.96-39.89-46.48-49.15-73.48
	C6.1,115.04,2.97,90.69,4.17,62.07c0.33-7.96,0.7-12.68,1.02-13.14c0.78-1.12,7.29-6.28,12.83-10.17
	c13.43-9.43,29.6-17.98,44.45-23.5c37.04-13.77,77.5-14.99,115.61-3.49c20.22,6.1,45.96,19.7,62.74,33.16
	c2.12,1.7,4.17,3.2,4.56,3.34c1.1,0.39,1.43,6.43,1.42,25.58c-0.01,18.08-0.34,22.67-2.59,35.98c-1.34,7.94-2.57,12.99-5.57,22.95
	c-4.83,16.03-11.09,28.99-21.72,44.94c-17.61,26.41-38.16,44.4-69.05,60.43c-9.35,4.85-21.48,10.45-22.62,10.45
	C124.75,248.58,120.36,246.68,115.51,244.37L115.51,244.37z M133.94,242.8c6.89-3.22,10.96-5.45,12.45-6.84
	c0.59-0.54,3.87-2.68,7.28-4.75c18.7-11.3,30.95-20.69,41.97-32.14c11.38-11.83,20-23.66,28.38-38.93
	c13.63-24.83,20.09-53.73,20.19-90.37c0.02-6.83-0.12-14.06-0.32-16.07c-0.34-3.57-0.39-3.67-1.82-4.5
	c-31.66-23.53-58.5-37.61-97.19-43.32c-8.46-1.1-31.26-1.11-39.62-0.02c-18.02,2.35-33.54,6.32-44.32,11.31
	C40.98,26.44,35.35,29.5,21.76,38.5c-5.06,3.35-10.39,6.81-11.83,7.68l-2.62,1.59l-0.26,2.87c-0.63,6.85-0.81,26.71-0.31,34.34
	c2.37,36.47,11.01,63.18,29.37,90.79c6.33,9.53,12.59,17.12,21.18,25.74c15.74,15.77,29.72,25.28,57.94,39.41
	c9.12,4.57,10.47,5.12,11.83,4.83C127.6,245.64,130.7,244.31,133.94,242.8L133.94,242.8z M117.05,237.93
	c-12.51-6.55-24.14-14.03-33.79-21.74c-5.51-4.41-15.25-13.29-15.25-13.92c0-0.24,0.82,0.26,1.82,1.12
	c8.3,7.1,20.45,15.59,30.3,21.19c7.24,4.11,23.74,12.45,24.64,12.45c0.91,0,17.97-8.54,24.61-12.32
	c30.09-17.13,51.52-39.03,68.19-69.69c7.15-13.16,12.62-29.17,15.29-44.76c1.88-11,3.03-30.95,2.41-41.65
	c-0.55-10.09,2-12.78-6.33-19.08c-24.17-17.67-44.6-27.26-72.21-33.91c-4.09-0.98-7.85-1.96-8.35-2.16c-1.55-0.63,2.6-0.5,7.96,0.25
	c23.48,3.27,42.66,10.49,62.22,23.45c5.59,3.7,16.48,11.95,18.2,13.78l1.07,1.14l-0.01,18.7c-0.01,20.55-0.28,24.35-2.8,38.02
	c-4.02,21.89-10.95,41.12-21,58.25c-2.67,4.56-9.89,15.21-14.89,21.99c-5.99,8.11-21.63,23.53-29.74,29.31
	c-3.09,2.21-26.38,14.08-36.63,18.68c-3.38,1.51-6.32,3.1-6.55,3.52C125.48,241.9,123.62,241.37,117.05,237.93L117.05,237.93z
	 M19.63,91.19l0.21,5.02c0.7,16.89,5.73,36.82,13.39,53.09c4.08,8.66,10.03,18.59,16.91,28.19c1.77,2.47,4.25,5.94,5.51,7.7
	c1.26,1.76,5.93,6.87,10.38,11.35c4.45,4.48,7.53,7.66,6.85,7.06c-16.62-14.67-28.93-30.57-38.25-49.44
	c-9.68-19.59-14.39-35.47-17.02-57.39c-0.98-8.16-1.16-40.45-0.24-42.07c1.92-3.36,22.63-17.17,33.07-22.05
	c4.18-1.96,12.18-5.05,12.96-5.02c0.29,0.01-1.79,1.14-4.63,2.5c-9.6,4.61-17.56,9.39-28.25,16.99c-2.12,1.51-5.54,3.75-7.6,4.99
	c-2.06,1.24-3.75,2.45-3.75,2.7L19.63,91.19L19.63,91.19z M74.81,205.01c-0.53-0.68-0.52-0.69,0.16-0.16
	c0.71,0.56,0.94,0.91,0.59,0.91C75.47,205.76,75.13,205.42,74.81,205.01L74.81,205.01z"/>
<path class="st4" d="M116.83,227.97c-29.85-15.44-48.72-30.7-64.8-52.41c-14.69-19.84-23.85-40.48-28.3-63.81
	c-2.25-11.79-2.62-16.71-2.6-34.48c0.01-9.07,0.16-17.16,0.33-17.99c0.27-1.29,0.98-1.98,5.12-4.99
	C40.79,43.97,51.5,37.76,65.26,31.86c19.43-8.33,45.31-12.79,67.03-11.55c34.52,1.97,61.33,11.94,91.4,33.99
	c5.16,3.78,5.38,3.99,5.05,4.85c-0.19,0.49-0.31,0.49-0.71,0.01c-0.27-0.31-1.35-1.19-2.41-1.95c-1.06-0.76-3.59-2.6-5.63-4.09
	c-2.03-1.49-4.44-3.15-5.35-3.7c-0.91-0.54-2.71-1.68-3.99-2.53c-3.06-2.02-5.9-3.53-15.22-8.13c-11.82-5.83-14.45-7.05-15.85-7.38
	c-0.71-0.17-3.02-0.92-5.14-1.66c-14.35-5.07-31.84-7.87-49.04-7.86c-20.77,0.01-40.27,3.75-58.2,11.15
	c-4.96,2.04-16.09,7.6-20.72,10.33c-8.46,5-20.85,13.68-22.3,15.61c-1.09,1.46-1.5,6.62-1.54,19.42
	c-0.07,23.95,3.71,44.01,11.98,63.61c9.1,21.56,27.82,46.12,47.44,62.27c6.92,5.69,7.57,6.2,9.94,7.69c1.12,0.71,3.53,2.3,5.35,3.53
	c1.83,1.24,3.58,2.25,3.9,2.25c0.32,0,0.58,0.19,0.58,0.43s0.84,0.86,1.87,1.39c4.54,2.33,7.07,3.75,9.26,5.2
	c1.29,0.85,2.68,1.55,3.08,1.55c0.4,0,0.85,0.19,0.99,0.42c0.14,0.23,1.07,0.8,2.06,1.27c0.99,0.47,2.09,1.03,2.45,1.25
	c0.35,0.21,1.56,0.81,2.68,1.33c1.12,0.52,1.93,1.12,1.79,1.34c-0.13,0.22-0.38,0.39-0.54,0.39
	C125.32,232.3,121.43,230.35,116.83,227.97L116.83,227.97z M118.12,205.51c-0.59-0.1-3.19-0.5-5.78-0.9
	c-2.59-0.39-5.23-0.97-5.87-1.29c-0.64-0.31-1.69-0.57-2.35-0.57c-1.65-0.01-10.52-3.1-14.62-5.09c-0.39-0.19-1.49-0.71-2.43-1.15
	c-0.94-0.44-2.94-1.53-4.43-2.42c-1.5-0.89-2.82-1.62-2.94-1.62c-0.4,0-5.28-3.61-7.09-5.25c-0.98-0.88-1.92-1.61-2.1-1.61
	c-0.18,0-0.88-0.53-1.57-1.18c-5.89-5.59-8.64-8.39-8.44-8.59c0.13-0.13,1.63,1.14,3.34,2.81c23.11,22.71,58.2,30.66,89.39,20.23
	c18.76-6.27,33.88-17.92,45.06-34.69c15.18-22.78,18.88-49.88,10.36-75.8c-7.25-22.05-23.85-41.06-45.13-51.7
	c-1.53-0.76-2.55-1.39-2.26-1.4c0.76-0.01,11.12,5,11.45,5.54c0.15,0.25,0.58,0.45,0.94,0.45c0.36,0,1.36,0.54,2.22,1.19
	c0.86,0.65,2.12,1.47,2.8,1.82c3.48,1.76,15.43,13.27,19.78,19.05c13.39,17.79,19.31,38.42,17.51,61.03
	c-0.33,4.12-0.8,8.36-1.05,9.42c-0.25,1.06-0.67,2.89-0.93,4.07c-1.01,4.57-4.58,14.51-6.46,17.99c-5.41,10-8.68,14.78-14.18,20.72
	c-9.63,10.4-21.26,18.41-33.46,23.05c-12.18,4.63-17.95,5.72-31.27,5.92C123.43,205.63,118.71,205.61,118.12,205.51L118.12,205.51z
	 M132.87,190.56c-2.33-5.59-5.74-26.43-5.75-35.23c-0.01-2.99,0.69-3.55,1.96-1.6c0.83,1.27,1.88,6.46,1.89,9.31
	c0,1.11,0.19,2.85,0.41,3.85c0.23,1,0.82,4.97,1.32,8.81c0.92,7.14,2.56,13.88,3.68,15.12c0.55,0.62,0.51,0.72-0.36,0.96
	C134.08,192.3,133.5,192.07,132.87,190.56L132.87,190.56z M113.24,191.27c-0.12-0.19,0.35-0.27,1.05-0.17
	c0.69,0.1,1.26,0.26,1.26,0.35C115.55,191.78,113.45,191.62,113.24,191.27L113.24,191.27z M110.95,190.94
	c0.14-0.14,0.51-0.16,0.82-0.04c0.34,0.14,0.24,0.24-0.26,0.26C111.07,191.18,110.81,191.08,110.95,190.94L110.95,190.94z
	 M105.7,189.86c-5.59-1.5-9.5-2.92-14.35-5.25C52.51,166,36.8,119.17,56.48,80.7c10.69-20.89,29.97-35.59,52.81-40.27
	c5.55-1.14,8.13-1.03,8.32,0.33c0.11,0.73-0.03,0.9-0.54,0.7c-0.78-0.3-8.18,0.91-10.73,1.76c-0.94,0.31-3.06,0.99-4.71,1.51
	c-4.17,1.31-13.44,5.88-17.67,8.71c-16.68,11.14-27.92,27.98-32.23,48.24c-1.19,5.6-1.61,16.7-0.88,23.04
	c1,8.61,3.37,16.63,7.16,24.24c2.22,4.46,3.68,6.84,8.09,13.19c1.78,2.57,8.8,9.73,12.65,12.91c2.62,2.17,9.15,6.71,9.64,6.71
	c0.26,0,0.83,0.39,1.25,0.86c0.42,0.47,1.05,0.85,1.39,0.85c0.34,0,1.14,0.37,1.78,0.83c0.64,0.46,1.73,0.97,2.42,1.13
	c0.69,0.17,1.46,0.46,1.7,0.65c0.55,0.43,5.52,2.17,8.98,3.15c1.41,0.4,2.95,0.89,3.42,1.1
	C110.86,190.99,109.06,190.76,105.7,189.86L105.7,189.86z M141.86,140.91c-1.5-0.65-6.09-4.76-5.72-5.13
	c0.13-0.13,0.98,0.37,1.88,1.11c2.31,1.91,5.2,2.59,7.93,1.88c4.42-1.15,7-4.48,8.62-11.14c0.52-2.14,1.07-4.04,1.23-4.21
	c0.15-0.17,0.72-0.01,1.26,0.36c0.87,0.61,0.96,0.99,0.87,3.52c-0.06,1.56-0.36,3.32-0.67,3.92c-0.31,0.6-0.57,1.51-0.57,2.03
	c0,0.52-0.38,1.15-0.84,1.39c-0.46,0.25-0.96,1.07-1.1,1.84c-0.28,1.47-2.59,3.49-5.11,4.46
	C147.84,141.63,143.47,141.61,141.86,140.91L141.86,140.91z M70.75,140.66c-7.03-0.17-9.2-0.35-9.78-0.84
	c-0.71-0.59-0.71-0.64,0.04-0.93c0.43-0.17,5.25-0.32,10.7-0.34c7.78-0.02,10.01-0.15,10.39-0.61c0.27-0.32,1.02-3.21,1.68-6.42
	c0.66-3.21,1.4-6.04,1.65-6.29c0.26-0.26,1.72-0.4,3.41-0.32l2.96,0.13l0.13,1.32c0.12,1.24,0.05,1.31-1.13,1.14
	c-2.09-0.31-2.89,0.45-3.65,3.5c-0.38,1.53-0.7,3.13-0.7,3.55c0,1.38-0.86,3.89-1.65,4.87C83.71,140.72,81.57,140.91,70.75,140.66
	L70.75,140.66z M93.92,140.8c-1.28-0.34-2.45-1.5-1.98-1.97c0.22-0.22,4.71-0.43,9.97-0.48c5.27-0.04,9.82-0.23,10.11-0.41
	c0.29-0.18,0.53-1,0.53-1.83c0-1.48-0.03-1.5-1.61-1.37l-1.61,0.14l-0.1-16.06c-0.06-10.46,0.05-15.81,0.32-15.36
	c0.23,0.39,1.06,2.64,1.86,5.02c1.31,3.92,1.41,4.52,1.02,6.58c-0.24,1.31-0.32,5.76-0.18,10.57l0.24,8.31l1.31,1.35
	c1.73,1.78,1.79,3.76,0.15,4.83c-1.01,0.66-2.35,0.77-10.17,0.84C98.84,140.99,94.39,140.92,93.92,140.8L93.92,140.8z
	 M124.87,140.62c-1.07-0.63-0.92-1.25,0.3-1.25c0.58,0,1.15-0.17,1.28-0.38c0.17-0.28,0.7-34.95,0.67-43.81
	c0-0.53,0.43-0.76,1.6-0.86c1.47-0.12,1.62-0.25,1.74-1.52c0.14-1.42,0.36-1.62,1.19-1.06c0.54,0.36,1.46,1.99,1.46,2.6
	c0,0.23-0.67,1.22-1.5,2.21l-1.5,1.79l0.2,12.27c0.24,14.47,0.25,12.22-0.12,21.42c-0.29,7.11-0.34,7.46-1.31,8.24
	C127.78,141.16,126.05,141.31,124.87,140.62L124.87,140.62z M157.63,140.23c-0.76-0.47-1.39-1.04-1.39-1.28
	c0-0.28,3.39-0.43,9.58-0.43c10.31,0,10.77-0.1,10.47-2.22c-0.1-0.72-0.46-1.02-1.32-1.12c-0.82-0.09-1.18-0.38-1.18-0.94
	c0-0.7,0.83-5.1,1.51-8.03c0.21-0.9,0.45-0.96,3.64-0.96h3.42v1.49c0,1.4-0.07,1.48-1.19,1.25c-1.85-0.37-3.01,0.88-3.54,3.78
	c-0.41,2.25-0.37,2.56,0.51,3.74c0.81,1.1,0.89,1.53,0.55,2.89c-0.62,2.5-1.36,2.68-11.11,2.69
	C159.8,141.08,158.89,141.01,157.63,140.23L157.63,140.23z M183.22,140.15l-1.5-0.93l1.07-0.31c0.59-0.17,3.6-0.33,6.7-0.35
	c6.06-0.05,6.15-0.08,6.15-2.43c0-1.35,0.58-1.31,1.68,0.09c1.17,1.49,1.12,2.22-0.26,3.67c-1.14,1.2-1.17,1.2-6.75,1.2
	C185.32,141.08,184.56,140.98,183.22,140.15L183.22,140.15z M69.06,134.55c-0.11-0.29-0.16-9.3-0.1-20.02l0.11-19.49l1.63-0.13
	c1.28-0.1,1.71-0.36,2.03-1.2c0.22-0.59,0.6-0.95,0.84-0.8c0.81,0.5,0.43,2.03-0.86,3.5l-1.29,1.47l0.05,12.94
	c0.03,7.12,0.19,15.35,0.36,18.29c0.22,3.69,0.17,5.44-0.15,5.66C70.94,135.27,69.29,135.14,69.06,134.55L69.06,134.55z
	 M101.53,134.54c-0.21-0.28-1.09-3.79-1.95-7.8c-0.86-4-2.71-12.58-4.12-19.06c-1.41-6.48-2.69-12.81-2.86-14.07
	c-0.29-2.21-0.27-2.28,0.56-1.84c0.47,0.25,1.07,1,1.33,1.65c0.58,1.46,3.3,12.28,4.35,17.26c1.69,8.04,4.69,19.86,5.62,22.15
	c0.31,0.76,0.47,1.45,0.36,1.54C104.24,134.88,101.88,135,101.53,134.54L101.53,134.54z M165.85,134.55
	c-0.11-0.29-0.15-9.4-0.09-20.24l0.11-19.7l1.42-0.01c1.44-0.01,2.21-0.7,2.22-1.97c0.01-1.06,1.21-1.32,1.71-0.38
	c0.82,1.54,0.5,3.22-0.87,4.53l-1.3,1.25l0.13,18.29c0.13,17.99,0.11,18.3-0.73,18.52C167.03,135.23,166.07,135.12,165.85,134.55
	L165.85,134.55z M191.61,134.34c-0.13-0.41-2.08-9.33-4.35-19.81c-4.2-19.44-4.98-23.98-4.12-23.98c0.73,0,2.15,1.71,2.63,3.17
	c0.48,1.47,1.97,8.23,2.57,11.69c0.22,1.23,0.77,3.73,1.23,5.57c0.46,1.83,1.07,4.49,1.34,5.9c0.28,1.41,0.8,3.82,1.16,5.35
	c0.65,2.79,1.63,7.04,2.26,9.85c0.18,0.82,0.48,1.84,0.65,2.25c0.27,0.64,0.07,0.75-1.42,0.75
	C192.3,135.09,191.78,134.89,191.61,134.34L191.61,134.34z M142.27,134.24c-1.23-0.5-2.63-2.35-3.19-4.23
	c-0.25-0.86-0.57-5.51-0.71-10.34c-0.25-9.28,0.26-17.1,1.36-20.83c1.1-3.71,3.77-5.21,6.59-3.71c1.54,0.82,3.02,2.87,2.47,3.42
	c-0.18,0.18-0.52,0-0.75-0.41c-0.56-1.01-2.73-0.96-3.78,0.09c-1.94,1.94-2.79,9.53-2.48,22.12c0.24,9.95,0.43,10.97,2.42,12.77
	c0.5,0.45,0.9,0.98,0.9,1.18C145.1,134.76,143.46,134.72,142.27,134.24L142.27,134.24z M175.93,120.91
	c-0.02-1.19,2.79-14.51,3.06-14.51c0.15,0,0.6,2.17,0.99,4.82c0.94,6.36,0.92,5.97,0.31,7.08c-0.61,1.1-0.28,1.98,0.62,1.64
	c0.35-0.13,0.6,0.04,0.6,0.4c0,0.4-0.43,0.63-1.18,0.63c-0.65,0-1.9,0.12-2.78,0.27C176.34,121.43,175.93,121.35,175.93,120.91
	L175.93,120.91z M85.55,120.64c-0.04-0.86,2.83-14.24,3.06-14.24c0.14,0,0.51,1.71,0.8,3.79c0.41,2.88,0.43,4.15,0.06,5.27
	c-0.27,0.81-0.53,2.38-0.58,3.49l-0.09,2.01h-1.62C86.3,120.96,85.56,120.81,85.55,120.64L85.55,120.64z M118.61,103.97
	c-2.2-5.38-4.11-10.43-4.24-11.23l-0.24-1.46l1.28,0.95c0.94,0.69,1.96,2.48,3.76,6.59c1.36,3.1,2.68,5.77,2.92,5.93
	c0.44,0.28,0.97,6.75,0.67,8.23C122.69,113.41,120.81,109.35,118.61,103.97L118.61,103.97z M152.6,107.09
	c-0.47-0.34-0.76-0.69-0.64-0.77c0.12-0.08,0.6-0.36,1.07-0.61c0.79-0.43,0.88-1.04,1.07-7.14c0.12-3.67,0.36-6.81,0.53-6.99
	c0.18-0.18,0.32,0.25,0.32,0.95c0,1.6,0.69,2.3,2.27,2.3c1.18,0,1.23,0.08,0.97,1.39c-0.15,0.77-0.43,3.08-0.62,5.15
	c-0.25,2.71-0.58,4.09-1.21,4.93C155.37,107.66,153.81,107.98,152.6,107.09L152.6,107.09z M104.07,96.03c-0.7-0.7-0.65-1.2,0.13-1.2
	c0.36,0,0.64,0.38,0.64,0.86C104.84,96.69,104.76,96.72,104.07,96.03L104.07,96.03z M121.63,96.03c-0.75-0.75-0.63-1.2,0.34-1.2
	c0.57,0,0.86,0.29,0.86,0.86C122.83,96.66,122.39,96.79,121.63,96.03L121.63,96.03z M148.54,91.17c-1.64-1.16-1.44-1.31,0.71-0.54
	c0.78,0.28,1.42,0.76,1.42,1.07C150.67,92.48,150.25,92.38,148.54,91.17L148.54,91.17z M126.28,79.87c-0.5-0.32-0.51-0.51-0.08-1.04
	c0.32-0.38,0.79-3.48,1.14-7.52c1.32-15.1,4.52-31.16,6.34-31.86c0.32-0.12,2.19,0.06,4.17,0.4c19.53,3.38,35.69,12.96,47.99,28.42
	c0.84,1.06,1.76,2.41,2.03,3l0.5,1.07l-0.77-1c-0.42-0.55-1.63-1.99-2.7-3.21c-1.06-1.22-2.31-2.7-2.78-3.28
	c-2.01-2.51-9.25-8.43-14.54-11.89c-10.55-6.9-29.71-13.27-31.91-10.62c-1.02,1.22-2.49,7.29-3.44,14.15
	c-1.09,7.88-1.3,9.68-1.74,14.78c-0.57,6.66-0.69,7.1-2.02,8.14C127.28,80.38,127.14,80.41,126.28,79.87L126.28,79.87z"/>
<path class="st5" d="M126.58,116.59l0.11-22.14l1.6-0.13c1.45-0.12,1.62-0.26,1.73-1.5l0.13-1.36l-4.47-0.14
	c-5.86-0.18-5.94-0.16-5.77,1.51c0.12,1.19,0.31,1.38,1.63,1.57l1.5,0.21l0.11,9.99c0.06,5.49-0.05,9.89-0.24,9.77
	c-0.2-0.12-2.44-5.34-5-11.61l-4.64-11.39l-5.61,0.12l-5.61,0.12v1.29c0,1.18,0.14,1.3,1.61,1.42l1.61,0.13l-0.11,20.21l-0.11,20.21
	h-1.93h-1.93l-4.43-20.56c-5.37-24.9-5.06-23.62-5.88-23.94c-1.78-0.68-2.02,0.05-5.89,17.8c-3.91,17.9-5.01,21.45-7.48,24.06
	c-1.74,1.84-4.04,2.85-6.49,2.85h-2.16l0.11-20.23l0.11-20.24l1.5-0.21c1.33-0.19,1.5-0.36,1.5-1.5v-1.29h-6.64H58.8l-0.14,1.24
	c-0.16,1.41,0.45,1.96,2.18,1.97l1.18,0.01v20.13v20.13h-1.04c-1.77,0-2.39,0.45-2.39,1.74c0,0.67,0.15,1.3,0.32,1.41
	c0.18,0.11,5.52,0.07,11.86-0.08l11.54-0.28l1.31-6.42l1.31-6.42l3.52-0.12c3.37-0.12,3.53-0.08,3.73,0.86
	c0.76,3.57,1.53,7.83,1.53,8.49c0,0.57-0.38,0.82-1.39,0.92c-1.23,0.12-1.39,0.28-1.39,1.42v1.28l10.28,0.12
	c8.92,0.1,10.34,0.03,10.77-0.55c0.88-1.21,0.21-2.29-1.5-2.43l-1.56-0.13l-0.11-15.82c-0.06-8.7,0.04-15.97,0.23-16.16
	c0.19-0.19,3.3,7.03,6.92,16.03c8.92,22.2,7.94,20.1,9.34,19.94l1.18-0.14L126.58,116.59L126.58,116.59z M85.14,121.06
	c-0.02-1.03,3.19-15.53,3.44-15.53c0.34,0,3.35,15.04,3.1,15.53c-0.09,0.18-1.6,0.32-3.35,0.32
	C86.58,121.39,85.14,121.24,85.14,121.06L85.14,121.06z M146.52,138.49c3.67-1.02,6.48-4.96,7.82-11c0.82-3.68,0.65-4.39-1.07-4.39
	c-1.56,0-1.58,0.03-2.62,4.12c-1.14,4.46-2.56,6.81-4.51,7.45c-2.84,0.94-5.36-0.32-6.75-3.36c-0.84-1.84-0.93-2.86-1.06-13.13
	c-0.21-15.77,0.73-21.55,3.75-23.12c3.98-2.06,7.35,0.82,8.55,7.28c0.52,2.82,0.87,3.36,2.02,3.14c0.72-0.14,0.82-0.77,1.04-6.79
	c0.14-3.65,0.16-6.87,0.06-7.17c-0.33-0.96-2.22-0.62-2.72,0.49l-0.47,1.02l-2.07-1.29c-1.87-1.16-2.34-1.27-4.87-1.11
	c-2.23,0.14-3.16,0.43-4.59,1.44c-5.01,3.54-8.51,12.75-8.51,22.42c0,11.18,4.41,21.2,10.49,23.86
	C142.61,139.04,144.37,139.08,146.52,138.49L146.52,138.49z M194.76,137.89c0.96-1.16,0.35-2.15-1.47-2.38l-1.69-0.21l-4.83-22.27
	c-2.66-12.25-4.83-22.32-4.84-22.38c-0.01-0.06-0.58-0.11-1.28-0.11c-1.49,0-1.21-0.87-4.06,12.42c-1.09,5.06-3.08,14.32-4.43,20.56
	l-2.45,11.35l-2.04,0.13l-2.04,0.13l0.11-20.26l0.11-20.26l1.5-0.21c1.33-0.19,1.5-0.36,1.5-1.5v-1.29h-6.64h-6.64v1.29
	c0,1.14,0.17,1.31,1.5,1.5l1.5,0.21v20.13v20.13l-1.5,0.21c-1.33,0.19-1.51,0.38-1.63,1.61l-0.14,1.4l10.2-0.11l10.2-0.12l0.14-1.18
	c0.12-1.02-0.04-1.22-1.18-1.45c-0.72-0.14-1.3-0.38-1.29-0.53c0.01-0.15,0.45-2.39,0.98-4.98l0.96-4.71l3.5-0.12
	c3.35-0.12,3.51-0.08,3.71,0.86c0.77,3.62,1.53,7.84,1.53,8.52c0,0.58-0.31,0.81-1.06,0.81c-0.6,0-1.24,0.35-1.5,0.83
	c-0.57,1.07-0.57,1.13,0.23,1.93C182.7,138.8,193.98,138.84,194.76,137.89L194.76,137.89z M175.61,120.42
	c0.11-0.53,0.83-4.09,1.61-7.92c0.78-3.83,1.55-6.96,1.72-6.96c0.17,0,0.94,3.33,1.71,7.39c0.77,4.06,1.49,7.63,1.6,7.92
	c0.15,0.4-0.68,0.54-3.32,0.54C175.5,121.39,175.41,121.36,175.61,120.42L175.61,120.42z"/>
<path class="st2" d="M194.76,65.49c1.59,2.7,2.01,3.54,4.34,8.78c1.2,2.71,2.65,5.94,3.22,7.18c0.56,1.24,1.03,2.35,1.03,2.47
	c0,0.11,0.79,2.06,1.76,4.32c2.24,5.23,3.26,10.22,3.83,18.67c0.76,11.28-0.52,23.07-3.53,32.46c-1.33,4.15-4.48,11.42-4.81,11.09
	c-0.1-0.1,0.68-2.54,1.72-5.43c3.84-10.58,5.32-18.7,5.32-29.23c0-11.04-1.2-19.31-4.09-28.15c-2.07-6.32-5.36-12.65-10.68-20.5
	C183.97,53.14,184.39,51.1,194.76,65.49L194.76,65.49z"/>
<polygon class="st6" points="0,0 250,0 250,250 0,250 0,0 "/>
</svg>
