<svg xmlns="http://www.w3.org/2000/svg" viewBox="0 0 32.75 28.53"><defs><style>.a{fill:none;stroke:#000;stroke-linecap:round;stroke-linejoin:round;stroke-width:0.75px;}</style></defs><title>2</title><path class="a" d="M23.7,7H1.59A1.59,1.59,0,0,0,0,8.56V28.3a1.59,1.59,0,0,0,1.59,1.59H30.41A1.59,1.59,0,0,0,32,28.3V8.56" transform="translate(0.38 -1.74)"/><path class="a" d="M22.43,6.4c.93-3.39,3.13-4.88,6.05-4.08,4.22,1.16,3.66,5,3.22,6.62L28.61,20.16h0A3.74,3.74,0,0,1,27.41,22a3.05,3.05,0,0,1-2.9.57,3.17,3.17,0,0,1-2.27-1.88,3.86,3.86,0,0,1-.07-2.23h0l3.1-11.28a2.51,2.51,0,0,1,1-1.59,1.9,1.9,0,0,1,1.5-.12c1.08.3,1.45,1.25,1.06,2.69l-1.44,5.22" transform="translate(0.38 -1.74)"/></svg>