<svg xmlns="http://www.w3.org/2000/svg" viewBox="0 0 201.01 147.88"><title>2</title><path d="M192.21,173.93H7.79A8.3,8.3,0,0,1-.5,165.64V58.18a8.3,8.3,0,0,1,8.29-8.29H159.33a.5.5,0,0,1,0,1H7.79A7.3,7.3,0,0,0,.5,58.18V165.64a7.3,7.3,0,0,0,7.29,7.29H192.21a7.3,7.3,0,0,0,7.29-7.29V58.18a.5.5,0,0,1,1,0V165.64A8.3,8.3,0,0,1,192.21,173.93Z" transform="translate(0.5 -26.06)"/><path d="M168.08,128a18.5,18.5,0,0,1-4.92-.7c-5.7-1.55-9.66-4.84-11.43-9.5a18.87,18.87,0,0,1-.36-11.26h0L166.63,51.1c.6-2.09,1.72-6,5.15-8a9.89,9.89,0,0,1,7.71-.59c5.59,1.53,7.57,6.42,5.56,13.79L178,81.9a.49.49,0,0,1-.61.35.5.5,0,0,1-.35-.61l7.07-25.56c1.83-6.74.11-11.2-4.87-12.56a9,9,0,0,0-6.94.5c-3.08,1.76-4.12,5.4-4.68,7.36l0,.16-15.21,55.29s0,0,0,0a17.85,17.85,0,0,0,.34,10.59c1.66,4.35,5.38,7.43,10.77,8.9,6.58,1.8,11.12-.45,13.77-2.66a18.51,18.51,0,0,0,5.72-8.82v0l15.14-55c2.1-7.71,4.82-26.26-15.43-31.81-14-3.82-24.59,3.33-29,19.64a.5.5,0,0,1-.61.35.51.51,0,0,1-.35-.62c4.62-16.91,15.66-24.33,30.27-20.33,21.12,5.78,18.32,25,16.13,33l-15.13,55v0a19.57,19.57,0,0,1-6,9.33A15,15,0,0,1,168.08,128Z" transform="translate(0.5 -26.06)"/></svg>