<svg xmlns="http://www.w3.org/2000/svg" viewBox="0 0 33 33"><defs><style>.a{fill:none;stroke:#000;stroke-linecap:round;stroke-linejoin:round}</style></defs><title>3</title><path class="a" d="M16,1.85a14.15,14.15,0,1,0,0,28.3A13.8,13.8,0,0,0,26,26a13.89,13.89,0,0,0,4.18-10A14.19,14.19,0,0,0,16,1.85Z" transform="translate(0.5 0.5)"/><path class="a" d="M16,8.69a5.45,5.45,0,1,0,0,10.89,5.46,5.46,0,0,0,5.44-5.44A5.46,5.46,0,0,0,16,8.69Z" transform="translate(0.5 0.5)"/><line class="a" x1="16.5" y1="0.5" x2="16.5" y2="4.49"/><line class="a" x1="16.5" y1="28.51" x2="16.5" y2="32.5"/><line class="a" x1="0.5" y1="16.5" x2="4.49" y2="16.5"/><line class="a" x1="28.51" y1="16.5" x2="32.5" y2="16.5"/><path class="a" d="M27,24.91a25.1,25.1,0,0,0-11-2.45A25.44,25.44,0,0,0,5,24.89" transform="translate(0.5 0.5)"/></svg>