<svg xmlns="http://www.w3.org/2000/svg" viewBox="0 0 32.7 33"><defs><style>.a{fill:none;stroke:#000;stroke-linecap:round;stroke-linejoin:round;}</style></defs><title>4</title><path class="a" d="M13.23,0a13.09,13.09,0,1,0,0,26.17,12.71,12.71,0,0,0,9.21-3.82,12.79,12.79,0,0,0,3.87-9.27A13.12,13.12,0,0,0,13.23,0Z" transform="translate(0.35 0.5)"/><line class="a" x1="23.59" y1="22.1" x2="32.2" y2="31.08"/><line class="a" x1="20.95" y1="24.35" x2="28.84" y2="32.5"/><path class="a" d="M14.73,2.8a4.21,4.21,0,1,0,0,8.42,4.08,4.08,0,0,0,3-1.23,4.11,4.11,0,0,0,1.25-3A4.23,4.23,0,0,0,14.73,2.8Z" transform="translate(0.35 0.5)"/></svg>