<svg xmlns="http://www.w3.org/2000/svg" viewBox="0 0 32.74 33"><defs><style>.a{fill:none;stroke:#000;stroke-linecap:round;stroke-linejoin:round;}</style></defs><title>5</title><path class="a" d="M17.44,10.07a.33.33,0,0,0,.15-.37,6.3,6.3,0,0,1,0-3.11.32.32,0,0,0-.15-.37l-1.55-.89a8.23,8.23,0,0,1,1.39-2.4l1.54.9a.34.34,0,0,0,.4-.06,6.28,6.28,0,0,1,2.69-1.55.33.33,0,0,0,.24-.32V.12a8.05,8.05,0,0,1,2.77,0V1.9a.33.33,0,0,0,.24.32,6.28,6.28,0,0,1,2.69,1.55.34.34,0,0,0,.4.06l1.55-.9a8.2,8.2,0,0,1,1.38,2.4l-1.55.89a.32.32,0,0,0-.15.37,6.3,6.3,0,0,1,0,3.11.33.33,0,0,0,.15.37l1.55.89a8.15,8.15,0,0,1-1.38,2.39l-1.55-.89a.35.35,0,0,0-.4,0,6.2,6.2,0,0,1-2.69,1.56.33.33,0,0,0-.24.32v1.78a8.31,8.31,0,0,1-2.77,0V14.39a.32.32,0,0,0-.24-.32,6.2,6.2,0,0,1-2.69-1.56.35.35,0,0,0-.4,0l-1.54.89A8.18,8.18,0,0,1,15.89,11Z" transform="translate(0.37 0.5)"/><path class="a" d="M23.53,4.67a3.48,3.48,0,1,1-3.47,3.47A3.48,3.48,0,0,1,23.53,4.67Z" transform="translate(0.37 0.5)"/><path class="a" d="M4.63,30.45H18.1l12.74-9.68s1.43-1.29.92-2.35-2.19-.83-2.19-.83L22.28,19.5" transform="translate(0.37 0.5)"/><path class="a" d="M4.63,21.51l6.53-3.66,9.54.25s1.3.33,1.24,1.47-.59,1.8-1.1,1.94L14.06,23.3" transform="translate(0.37 0.5)"/><rect class="a" x="0.5" y="20.35" width="4.5" height="12.15"/><line class="a" x1="2.75" y1="20.35" x2="2.75" y2="32.5"/></svg>