<svg xmlns="http://www.w3.org/2000/svg" viewBox="0 0 33 32.92"><defs><style>.a{fill:none;stroke:#000;stroke-linecap:round;stroke-linejoin:round;}</style></defs><title>7</title><path class="a" d="M2.5,24.81,8.91,13.05l14.5-6.51s1.8-.64,2.49.32-.32,2.3-.32,2.3l-5.13,5.45" transform="translate(0.5 0.46)"/><path class="a" d="M10.31,29.06l6.29-4,4.32-8.45s.33-1.28-.69-1.77a1.94,1.94,0,0,0-2.21,0L13.22,20" transform="translate(0.5 0.46)"/><rect class="a" x="4.68" y="21.98" width="2.4" height="12.08" transform="translate(-21.04 20.23) rotate(-61.42)"/><path class="a" d="M20.08,6.11A4.94,4.94,0,1,1,25.89,12" transform="translate(0.5 0.46)"/><path class="a" d="M18.1,5.62A7,7,0,0,1,25,0,6.92,6.92,0,0,1,30,2.13a7,7,0,0,1,2,4.93v0A7,7,0,0,1,26.35,14" transform="translate(0.5 0.46)"/></svg>