<svg xmlns="http://www.w3.org/2000/svg" viewBox="0 0 32.89 33"><defs><style>.a{fill:none;stroke:#000;stroke-linecap:round;stroke-linejoin:round;}</style></defs><title>8</title><path class="a" d="M4.58,30.44H18.11l12.8-9.72s1.44-1.3.92-2.37-2.19-.83-2.19-.83l-7.33,1.92" transform="translate(0.45 0.5)"/><path class="a" d="M4.58,21.45l6.55-3.67,9.6.25S22,18.36,22,19.5s-.59,1.82-1.1,1.95l-6.82,1.81" transform="translate(0.45 0.5)"/><rect class="a" x="0.5" y="20.29" width="4.52" height="12.21"/><line class="a" x1="18.88" y1="15.31" x2="18.88" y2="2.29"/><polyline class="a" points="23.39 10.8 18.88 15.31 14.37 10.8"/><line class="a" x1="26.14" y1="0.5" x2="26.14" y2="13.53"/><polyline class="a" points="30.65 5.01 26.14 0.5 21.63 5.01"/><line class="a" x1="2.76" y1="20.29" x2="2.76" y2="32.5"/></svg>