<?xml version="1.0" encoding="utf-8"?>
<svg version="1.2" baseProfile="tiny" id="Layer_1" xmlns="http://www.w3.org/2000/svg" xmlns:xlink="http://www.w3.org/1999/xlink"
	 x="0px" y="0px" width="1024px" height="1024px" viewBox="0 0 1024 1024" xml:space="preserve">
<path d="M557.122,133.306c-26.133-21.511-64-21.511-90.132,0L33.567,488.15c-6.044,4.978-6.934,13.867-1.956,20.089l36.089,44.088
	c4.978,6.045,13.867,6.934,20.089,1.957l15.88-12.963l5.22-4.262l109.898-90.299l57.433-47.049l226.68-185.695
	c5.155-4.267,12.799-4.267,17.956,0l415.645,340.09c6.045,4.977,15.111,4.088,20.088-1.957l36.09-44.088
	c4.621-6.044,3.732-14.934-2.311-19.911"/>
<path fill="#FFFFFF" stroke="#000000" stroke-miterlimit="10" d="M101.359,538.884"/>
<line stroke="#000000" stroke-width="0.25" stroke-miterlimit="10" x1="94.764" y1="545.267" x2="210.638" y2="450.113"/>
<path d="M921.239,540.771"/>
<g>
	<path d="M443.396,897.777V590.967c0-20.962-9.528-33.349-33.349-33.349c-24.773,0-70.509,17.15-100.047,33.349v306.811H172.794
		V433.751h101.952l14.292,35.254c57.17-27.632,131.49-44.782,184.848-44.782c40.972,0,68.604,16.198,84.802,44.782
		c52.404-25.726,121.962-44.782,185.801-44.782c79.084,0,106.717,59.074,106.717,148.641v324.914H713.999V590.967
		c0-20.962-9.528-33.349-33.349-33.349c-24.773,0-70.51,17.15-100.048,33.349v306.811H443.396z"/>
</g>
</svg>
