<?xml version="1.0" encoding="utf-8"?>
<svg version="1.1" xmlns="http://www.w3.org/2000/svg" xmlns:xlink="http://www.w3.org/1999/xlink"
	 x="0px" y="0px" width="1024px" height="1024px" viewBox="0 0 1024 1024" xml:space="preserve">
<g>
	<path fill="white" d="M417.964,823.989V403.437c0-28.733-13.061-45.711-45.712-45.711c-33.958,0-96.648,23.508-137.137,45.711v420.552H47.042
		V187.937h139.749l19.591,48.323c78.364-37.875,180.236-61.384,253.375-61.384c56.161,0,94.037,22.203,116.241,61.384
		c71.832-35.262,167.176-61.384,254.682-61.384c108.403,0,146.278,80.975,146.278,203.746v445.367H788.886V403.437
		c0-28.733-13.061-45.711-45.712-45.711c-33.958,0-96.649,23.508-137.139,45.711v420.552H417.964z"/>
</g>
</svg>
