<?xml version="1.0" encoding="utf-8"?>
<svg version="1.2" baseProfile="tiny" id="Layer_1" xmlns="http://www.w3.org/2000/svg" xmlns:xlink="http://www.w3.org/1999/xlink"
	 x="0px" y="0px" width="3600px" height="1024px" viewBox="0 0 3600 1024" xml:space="preserve">
<g>
	<path d="M851.741,380.428c2.856,76.54,9.278,267.892,9.278,305.363c0,86.906-70.644,207.3-197.663,207.3
		c-129.16,0-243.333-89.297-274.018-250.354l114.888-108.431l10.703,7.973c11.417,106.041,86.343,216.066,187.675,216.066
		c17.124,0,52.091-7.174,62.794-15.944l-41.388-314.135L851.741,380.428z M582.006,218.575l89.914,75.742l-54.233,81.325
		l-88.485-71.756L582.006,218.575z"/>
	<path d="M1048.655,207.415l9.277,379.514h72.072v151.485H968.019l-56.372-484.757L1048.655,207.415z"/>
	<path d="M1100.014,738.414V586.929h259.747v151.485H1100.014z"/>
	<path d="M1349.748,738.414V586.929h259.746v151.485H1349.748z"/>
	<path d="M1650.136,260.073l4.282-46.243l176.972-51.825l3.567,3.986l-10.706,43.055L1650.136,260.073z"/>
	<path d="M1599.484,738.414V586.929h112.745c90.629,0,135.584-19.935,191.957-55.811l-0.715-6.381
		c-29.255-10.362-70.643-24.715-135.58-24.715c-39.248,0-67.079,7.175-115.603,27.907l16.414-173.017
		c19.98-7.972,64.222-12.757,85.629-12.757c94.195,0,170.55,43.055,254.04,120.394l20.691,150.687
		c-117.027,51.026-152.708,125.178-396.041,125.178H1599.484z M1821.411,790.238l89.91,75.742l-54.233,81.325l-88.482-71.756
		L1821.411,790.238z"/>
	<path d="M2133.91,260.073c-32.112,0-55.658-26.312-55.658-64.582c0-26.312,9.989-46.243,26.402-66.972l14.271-33.486
		c28.542,11.958,70.645,46.243,70.645,97.27C2189.569,229.774,2164.595,260.073,2133.91,260.073z M2131.771,206.656
		c18.553,0,25.688-11.963,25.688-14.354c0-3.188-10.703-20.729-24.264-27.907c-13.557,7.178-24.259,24.719-24.259,27.907
		C2108.937,193.899,2118.211,206.656,2131.771,206.656z"/>
	<path d="M2219.553,327.01c19.979,104.444,32.109,200.121,35.678,259.919h62.797v151.485h-68.505
		c-9.277,57.403-30.684,121.984-80.635,192.149l-175.543-88.499v-11.166c88.485-55.013,161.271-156.269,172.688-192.942
		c-2.853-21.527-43.529-161.054-75.639-227.231L2219.553,327.01z"/>
	<path d="M2310.871,738.414V586.929h259.746v151.485H2310.871z"/>
	<path d="M2560.604,738.414V586.929h259.747v151.485H2560.604z"/>
	<path d="M2870.256,217.019c42.103,0,77.783-9.568,98.479-18.34c-24.264-11.16-41.388-25.513-41.388-52.619
		c0-28.701,32.823-69.365,64.934-69.365c23.549,0,47.097,39.067,47.097,74.15c0,7.174,0,15.945-1.429,23.118
		c5.711,1.598,13.561,2.395,26.406,2.395l-27.83,38.271c-6.426,0-14.271,0-21.41-0.798c-25.688,27.105-71.358,46.243-106.324,46.243
		L2870.256,217.019z M2995.137,165.193c0.715-3.188,0.715-3.986,0.715-7.175c0-18.339-7.14-32.688-13.561-32.688
		c-7.135,0-17.839,7.972-21.405,15.945C2962.311,148.45,2975.87,159.615,2995.137,165.193z"/>
	<path d="M2810.338,738.414V586.929h17.839c18.552,0,47.812,16.743,72.786,35.078l2.142-2.39
		c-17.841-18.339-42.101-47.839-42.101-87.702c0-95.676,102.756-173.016,261.885-202.515l87.772,346.028l-114.89,89.297
		c-62.793-23.123-106.323-26.312-227.634-26.312H2810.338z M3085.068,614.035l3.569-3.188l-32.824-135.54
		c-38.534,5.582-80.636,26.312-80.636,63.783C2975.178,576.562,3013.711,605.264,3085.068,614.035z"/>
</g>
</svg>
