<?xml version="1.0" encoding="utf-8"?>
<svg version="1.1" id="logo" xmlns="http://www.w3.org/2000/svg" xmlns:xlink="http://www.w3.org/1999/xlink"
	 x="0px" y="0px" width="3200px" height="1024px" viewBox="203.867 91.39 3200 1024" xml:space="preserve">
<g>
	<path fill="#FFFFFF" d="M466.984,740.836V442.518c0-20.381-9.268-32.424-32.431-32.424c-24.086,0-68.559,16.674-97.273,32.424
		v298.318H203.867V289.654h99.135l13.897,34.277c55.586-26.87,127.846-43.542,179.732-43.542c39.837,0,66.699,15.749,82.45,43.542
		c50.956-25.018,118.586-43.542,180.661-43.542c76.896,0,103.76,57.44,103.76,144.524v315.923H730.097V442.518
		c0-20.381-9.266-32.424-32.429-32.424c-24.088,0-68.554,16.674-97.277,32.424v298.318H466.984z"/>
	<path fill="#FFFFFF" d="M956.074,567.587V462.898c0-92.642,43.542-182.51,203.818-182.51c160.274,0,203.818,89.869,203.818,182.51
		v104.688c0,92.646-43.544,182.516-203.818,182.516C999.616,750.104,956.074,660.232,956.074,567.587z M1230.299,571.293V459.19
		c0-42.612-22.232-66.7-70.404-66.7c-48.182,0-70.414,24.088-70.414,66.7v112.103c0,42.62,22.232,66.706,70.414,66.706
		C1208.064,637.999,1230.299,613.913,1230.299,571.293z"/>
	<path fill="#FFFFFF" d="M1589.72,289.654v298.318c0,20.381,9.261,32.423,32.423,32.423c24.088,0,68.561-16.674,97.276-32.423
		V289.654h133.413v451.182h-99.13l-13.896-34.277c-55.593,26.864-127.853,43.545-179.731,43.545
		c-76.896,0-103.766-57.441-103.766-144.526V289.654H1589.72z"/>
	<path fill="#FFFFFF" d="M2106.626,465.68v275.156h-133.412V289.654h111.181l9.26,43.543
		c27.794-18.533,85.238-45.396,121.369-52.809l11.112,125.998C2186.299,422.137,2135.35,445.294,2106.626,465.68z"/>
	<path fill="#FFFFFF" d="M2218.686,845.525c41.69-38.914,69.482-61.146,69.482-100.983V289.654h133.413v472.49
		c0,53.733-39.843,101.907-122.294,170.467L2218.686,845.525z M2288.168,233.138V91.39h133.413v141.748H2288.168z"/>
	<path fill="#FFFFFF" d="M2779.16,740.836l-9.267-28.725c-51.881,28.725-98.207,37.99-128.776,37.99
		c-83.379,0-117.662-60.224-117.662-137.118c0-90.793,41.696-126.924,134.336-126.924h97.28v-34.276
		c0-46.325-8.34-62.075-79.678-62.075c-39.835,0-79.672,4.637-122.293,12.973l-17.597-100.06
		c42.613-12.967,110.242-22.232,162.129-22.232c156.568,0,190.847,47.249,190.847,172.318v288.129H2779.16z M2755.072,578.707
		h-63.93c-28.716,0-39.836,7.413-39.836,32.423c0,25.016,10.19,35.205,36.132,35.205c27.792,0,47.249-6.483,67.634-15.749V578.707z"
		/>
	<path fill="#FFFFFF" d="M3262.727,740.836V442.518c0-20.381-9.267-32.424-32.428-32.424c-24.09,0-68.562,16.674-97.277,32.424
		v298.318h-133.412V289.654h99.136l13.896,34.277c55.585-26.87,127.845-43.542,179.731-43.542c76.896,0,103.76,57.44,103.76,144.524
		v315.923L3262.727,740.836L3262.727,740.836z"/>
</g>
<g>
	<path fill="#FFD300" d="M2280.406,1021.692h72.592v81.961h-72.592V1021.692z"/>
	<path fill="#FFD300" d="M2424.986,1000.033v-77.862c0-76.688,33.365-109.471,122.936-109.471c19.905,0,48.591,3.51,69.666,10.536
		l-8.781,58.546c-19.32-5.272-45.076-7.614-59.131-7.614c-40.976,0-53.27,12.299-53.27,47.423v79.03
		c0,35.125,12.294,47.416,53.27,47.416c18.151,0,38.639-2.343,59.131-7.606l8.781,58.538c-18.733,6.438-46.248,10.535-69.666,10.535
		C2458.352,1109.504,2424.986,1076.723,2424.986,1000.033z"/>
	<path fill="#FFD300" d="M2794.357,1109.504c-97.764,0-124.11-53.854-124.11-112.4v-72.003c0-58.539,26.347-112.4,124.11-112.4
		s124.108,53.861,124.108,112.4v72.003C2918.466,1055.65,2892.121,1109.504,2794.357,1109.504z M2794.357,873.58
		c-38.054,0-52.686,16.983-52.686,49.179v76.688c0,32.203,14.632,49.178,52.686,49.178c38.051,0,52.688-16.975,52.688-49.178
		v-76.688C2847.045,890.563,2832.408,873.58,2794.357,873.58z"/>
	<path fill="#FFD300" d="M3156.112,1103.653V904.609c0-15.222-6.439-22.827-22.831-22.827c-17.566,0-48.59,10.536-74.35,24.002
		v197.869h-71.42V818.552h54.441l7.027,24.001c35.711-17.562,80.788-29.853,114.153-29.853c27.515,0,44.494,11.123,53.862,30.44
		c34.537-17.562,80.201-30.44,114.738-30.44c47.42,0,64.398,33.369,64.398,84.303v206.65h-71.42V904.609
		c0-15.222-6.439-22.827-22.831-22.827c-17.566,0-52.103,11.124-74.35,24.002v197.869H3156.112z"/>
</g>
</svg>
