<?xml version="1.0" encoding="utf-8"?>
<svg version="1.1" xmlns="http://www.w3.org/2000/svg" xmlns:xlink="http://www.w3.org/1999/xlink"
	 x="0px" y="0px" width="3600px" height="1024px" viewBox="0 0 3600 1024" xml:space="preserve" fill="white">
<g>
	<path d="M466.985,740.836V442.518c0-20.381-9.268-32.424-32.431-32.424c-24.086,0-68.559,16.674-97.274,32.424v298.318H203.867
		V289.654h99.135l13.897,34.277c55.586-26.87,127.846-43.543,179.732-43.543c39.837,0,66.699,15.749,82.45,43.543
		c50.956-25.018,118.586-43.543,180.661-43.543c76.896,0,103.76,57.44,103.76,144.524v315.923H730.097V442.518
		c0-20.381-9.266-32.424-32.429-32.424c-24.088,0-68.554,16.674-97.277,32.424v298.318H466.985z"/>
	<path d="M956.074,567.587V462.898c0-92.641,43.542-182.51,203.819-182.51c160.274,0,203.818,89.869,203.818,182.51v104.688
		c0,92.646-43.544,182.516-203.818,182.516C999.616,750.103,956.074,660.232,956.074,567.587z M1230.299,571.293V459.19
		c0-42.612-22.233-66.7-70.405-66.7c-48.181,0-70.414,24.088-70.414,66.7v112.103c0,42.62,22.233,66.706,70.414,66.706
		C1208.065,637.999,1230.299,613.913,1230.299,571.293z"/>
	<path d="M1589.72,289.654v298.318c0,20.381,9.26,32.423,32.422,32.423c24.088,0,68.561-16.674,97.277-32.423V289.654h133.413
		v451.182h-99.13l-13.896-34.277c-55.593,26.864-127.853,43.544-179.732,43.544c-76.896,0-103.765-57.441-103.765-144.526V289.654
		H1589.72z"/>
	<path d="M2106.626,465.68v275.156h-133.412V289.654h111.18l9.26,43.543c27.794-18.533,85.238-45.396,121.369-52.809l11.113,125.998
		C2186.299,422.137,2135.35,445.294,2106.626,465.68z"/>
	<path d="M2218.686,845.525c41.69-38.914,69.482-61.146,69.482-100.983V289.654h133.413v472.49
		c0,53.733-39.843,101.907-122.294,170.466L2218.686,845.525z M2288.168,233.138V91.39h133.413v141.748H2288.168z"/>
	<path d="M2779.16,740.836l-9.266-28.725c-51.881,28.725-98.207,37.991-128.777,37.991c-83.379,0-117.662-60.224-117.662-137.119
		c0-90.793,41.697-126.923,134.337-126.923h97.28v-34.277c0-46.325-8.34-62.075-79.678-62.075
		c-39.835,0-79.672,4.637-122.293,12.973l-17.597-100.06c42.613-12.967,110.243-22.232,162.129-22.232
		c156.569,0,190.847,47.249,190.847,172.318v288.129H2779.16z M2755.072,578.707h-63.929c-28.716,0-39.836,7.413-39.836,32.423
		c0,25.016,10.19,35.205,36.131,35.205c27.792,0,47.249-6.483,67.634-15.749V578.707z"/>
	<path d="M3262.727,740.836V442.518c0-20.381-9.267-32.424-32.428-32.424c-24.09,0-68.562,16.674-97.277,32.424v298.318h-133.412
		V289.654h99.135l13.897,34.277c55.585-26.87,127.845-43.543,179.731-43.543c76.896,0,103.76,57.44,103.76,144.524v315.923H3262.727
		z"/>
</g>
</svg>
