<?xml version="1.0" encoding="utf-8"?>
<!DOCTYPE svg PUBLIC "-//W3C//DTD SVG 1.1//EN" "http://www.w3.org/Graphics/SVG/1.1/DTD/svg11.dtd">
<svg version="1.1" id="Layer_1" xmlns="http://www.w3.org/2000/svg" xmlns:xlink="http://www.w3.org/1999/xlink" x="0px" y="0px"
	 width="1024px" height="680px" viewBox="0 0 1024 680" enable-background="new 0 0 1024 680" xml:space="preserve">
<g>
	<path fill-rule="evenodd" clip-rule="evenodd" fill="#433326" d="M258.696,21.11c6.649,11.203,22.143,17.154,19.963,33.607
		c-4.215-3.25-8.439-6.504-12.665-9.759c-2.924-2.682-5.844-5.36-8.765-8.04c-3.203-5.604-8.101-8.453-14.474-8.902
		c-2.037-2.38-4.722-2.992-7.693-2.831c-7.99-1.819-15.966-3.385-23.549,1.438c-1.187,0.347-2.37,0.693-3.556,1.04
		c-26.506,5.163-43.064,29.794-40.092,59.634c2.284,22.914,24.094,44.819,48.085,48.297c22.891,3.318,45.591-8.725,53.937-28.617
		c0.724-0.126,1.055-0.554,0.997-1.285c0.691-0.821,1.385-1.642,2.076-2.463c4.011-3.796,3.534-9.111,4.693-13.871
		c1.551-0.302,3.1-0.604,4.648-0.907c0.309,25.196-13.463,44.534-38.708,50.461c-11.458,2.689-11.228,5.91-7.975,15.743
		c11.2,33.875,19.341,68.315,7.072,103.939l-0.247,0.267c-1.524-0.542-3.05-1.083-4.575-1.624
		c7.519-32.97,4.708-65.302-5.986-97.149c-2.766-4.23-5.223-8.707-8.363-12.637c-5.543-6.937-15.896-7.943-19.405-2.855
		c-9.079,13.161-24.627,23.194-22.748,42.826c0.954,9.958-0.411,20.209-2.622,30.284c-0.849,3.873-6.87,10.531,0.339,12.721
		c6.991,2.123,7.206-5.2,9.725-10.393c7.116-14.672,4.171-32.378,15.749-50.096c-3.433,36.58-4.409,69.525-42.153,83.34
		c-0.848-0.823-1.695-1.647-2.541-2.471c-2.713-13.487-6.431-26.796-6.073-41.19c-11.273,2.514-15.552,12.516-23.937,17.035
		c-8.872,4.781-17.199,10.574-25.763,15.925c-0.793-0.831-1.586-1.66-2.377-2.489c1.599-2.916,3.197-5.833,4.798-8.748l-0.017,0.014
		c1.176-1.113,2.35-2.224,3.525-3.335c0,0-0.008,0.083-0.008,0.081c7.003-1.226,11.839-6.109,17.157-10.177
		c4.427-0.619,8.052-2.35,9.626-6.932c3.547-8.435,12.104-13.816,14.131-23.178c6.618-10.726,10.763-22.113,10.535-34.995
		c-0.066-3.786,0.361-9.095,2.758-11.163c14.862-12.824,10.088-25.28,0.814-38.43c-4.422-6.267-3.826-14.006-4.437-21.297
		c0.352-6.687,0.705-13.375,1.054-20.064c4.238-8.04,8.482-16.076,12.727-24.113c19.205-18.549,41.998-23.866,67.789-18.64
		C247.59,20.206,253.182,20.465,258.696,21.11z M162.591,232.697c16.527-17.759,9.479-37.504,13.553-54.484
		C171.46,195.042,158.424,209.796,162.591,232.697z"/>
	<path fill-rule="evenodd" clip-rule="evenodd" fill="#433326" d="M823.562,376.27c-0.116,2.29-0.232,4.578-0.347,6.872
		c-4.542,4.768-4.446,11.464-7.076,16.979c-5.356,11.229-2.007,15.206,10.167,14.794c9.352-0.314,19.229-2.069,31.746,3.426
		c-24.053,7.689-47.953-4.74-66.812,12.562c15.254,9.715,5.391,25.855,9.824,38.556c-4.514,6.366-10.832,11.575-12.575,19.703
		c-0.537,0.617-0.671,1.313-0.406,2.087c-6.048,1.287-12.106,3.663-18.143,3.615c-10.235-0.082-12.067,5.129-11.801,13.77
		c1.309,42.143,2.501,84.291,3.28,126.447c0.126,6.816,3.71,10.053,8.486,13.186c-13.049-0.902-21.258,9.066-31.664,14.097
		c-2.345,0.095-4.689,0.19-7.031,0.285c-6.615,0.048-13.234,0.096-19.853,0.144c-10.536,0.066-20.748-0.482-24.722-12.95
		c0.448-0.544,0.895-1.081,1.34-1.618c22.194,8.992,44.176,15.547,63.747-5.554c1.308-44.399-0.313-88.738-2.8-133.057
		c1.851-9.558-1.629-15.995-11.717-15.884c-11.024,0.123-18.236-5.04-26.162-12.064c-12.981-11.508-23.513-6.916-26.076,10.098
		c-1.829,12.133-2.644,24.437-6.826,36.117c-4.815-9.018-12.436-11.593-22.402-11.502c-38.196,0.352-76.396,0.083-114.596,0.048
		c-9.496-5.454-11.9-15.953-17.071-24.404c-18.866-30.827-35.569-63.188-62.889-87.925c-28.164-25.502-61.268-15.55-69.385,20.719
		c-11.197-0.817-20.685,0.061-15.727,15.624c0.036,0.116-2.529,1.062-3.884,1.618c-8.438-6.516-18.299-2.4-27.432-3.705
		c-7.291-1.039-15.913,3.111-21.331-5.375c3.489-2.813,6.979-5.626,10.469-8.439c9.247-2.248,18.429-4.834,27.757-6.673
		c15.988-3.152,32.238-5.559,35.837-25.889c0.116-0.653,3.315-0.406,4.651-1.251c12.997-8.212,26.933-6.775,41.006-4.246
		c1.784,0.53,3.57,1.061,5.356,1.592c2.363,4.025,6.088,3.684,9.892,3.082c7.52,8.07,17.639,9.705,27.798,11.244l0.044-0.817
		c3.714,10.173,12.916,9.09,21.024,10.251l-0.458-0.344c1.707,1.617,3.413,3.232,5.119,4.85c-1.649,3.377-4.54,5.037-8.067,5.811
		c-4.821-4.135-10.614-6.209-16.622-7.832c-0.985-0.481-1.959-0.978-2.934-1.475c0.069,0.699,0.139,1.398,0.209,2.096
		c0.974-0.32,1.947-0.64,2.922-0.961c1.158,11.289,11.972,17.396,14.891,27.738c3.891,5.508,7.779,11.018,11.67,16.525
		c2.004,4.858,1.784,11.024,7.914,13.459c30.172,0.303,60.345,0.606,90.518,0.912c-20.909,5.15-42.264,1.993-63.36,3.49
		c-7.551,0.536-18.413-4.307-21.877,2.612c-3.77,7.527,4.952,14.782,10.22,21.138l0.168,0.162c-0.038,1.866-0.328,4.087,2.194,4.309
		c0.615,0.054,1.419-2.061,2.138-3.179c36.623-3.176,73.33-0.376,109.973-1.584c8.158-0.269,16.852,2.934,24.51-2.567
		c4.549-20.378,4.542-20.278-15.886-21.562c-6.285-0.395-13.728,1.669-17.194-6.469c1.315-1.335,2.631-2.672,3.945-4.007
		c14.047,0.214,28.097,0.7,42.137,0.493c4.946-0.073,12.858,3.101,13.444-5.392c0.439-6.382-1.161-13.132-9.483-15.897
		c-6.575-2.186-14.623-3.732-15.908-12.927c9.045,2.739,17.49,7.454,27.371,7.39c15.438-0.1,23.874-7.755,25.831-23.995
		c0.368-1.063,0.651-2.147,0.851-3.255c11.966,6.685,23.929,13.369,35.895,20.055c-8.143,1.477-15.446-2.246-23-4.033
		c-4.229-1-6.979-1.275-10.252,2.396c-7.745,8.689-7.688,18.201-4.377,28.334c3.09,9.455,11.152,7.686,18.283,7.781
		c5.615,0.074,11.234-0.141,16.85-0.051c5.936,0.096,9.534-2.128,10.127-8.529c0.818-8.819,2.002-17.605,3.027-26.406l0.181,0.103
		c0.492-0.385,0.983-0.771,1.476-1.157c-0.401-0.071-0.803-0.143-1.203-0.214c7.036-8.237,22.322-7.388,23.868-21.672
		c16.23-23.19,18.294-51.919,5.157-71.812c-3.637-18.705-14.288-34.614-20.785-52.179c-5.781-15.126-18.75-14.318-31.42-14.169
		c-17.504-10.183-34.333-4.873-51.086,2.222c-28.781-2.443-29.934-2.06-36.332,22.859c-6.722,26.179-12.608,52.574-18.859,78.874
		c-8.152,3.328-4.333-4.021-5.877-6.586c3.174-2.505,3.166-6.133,3.411-9.671c5.394-13.328,8.04-27.373,10.763-41.391
		c2.992-2.687,2.753-6.265,2.693-9.794c3.844-11.995,7.562-24.033,11.604-35.96c1.498-4.42,2.624-7.816-4.224-6.216
		c-8.409-7.449-17.979-13.949-25.024-22.521c-27.71-33.707-18.42-84.644,15.734-105.194c46.684-28.088,97.66-5.336,111.501,47.184
		c0.82,23.469-2.816,45.514-17.72,64.919c-6.118,7.965-3.477,14.042,7.54,13.272c8.702-0.607,16.521,2.303,24.556,4.613
		c12.08,9.161,14.985,23.962,22.211,36.11c-0.088,5.992,5.035,9.373,7.145,14.264c-0.541,14.152,10.728,25.113,10.59,39.157
		c-0.081,4.029-0.162,8.055-0.244,12.085C823.652,370.785,823.608,373.526,823.562,376.27z M746.122,238.82
		c2.527-0.206,4.197-1.38,4.547-4.038c19.712-25.659,16.914-61.184-6.379-81.008c-0.781-0.431-1.567-0.851-2.362-1.257
		c-6.048-10.547-15.623-15.498-27.262-17.174c-10.385-4.192-20.776-4.075-31.171-0.032c-1.25,0.235-2.502,0.471-3.755,0.707
		c-0.932,0.644-1.867,1.287-2.799,1.929c-0.862-0.098-1.347,0.282-1.454,1.143c-23.23,4.491-32.875,22.501-39.377,41.987
		c-9.877,29.599,6.59,61.534,37.58,76.062c25.818,12.103,56.912,4.464,71.962-17.677L746.122,238.82z M777.694,486.564
		c12.107-12.5,15.195-24.361,14.789-37.535c-0.091-2.98,2.546-7.352-2.463-8.263c-5.076-0.922-6.521,3.214-7.1,7.304
		C781.293,459.576,779.784,471.097,777.694,486.564z M727.267,484.199c-2.604-13.359-4.508-23.051-6.38-32.75
		c-0.962-4.98-4.218-6.383-8.634-5.094c-4.361,1.273-3.72,4.748-2.965,8.176C711.569,464.891,714.669,474.762,727.267,484.199z
		 M769.876,474.189c-0.758-0.068-1.516-0.136-2.271-0.204c0.35,0.299,0.682,0.808,1.055,0.841
		C769.044,474.859,769.469,474.43,769.876,474.189z"/>
	<path fill-rule="evenodd" clip-rule="evenodd" fill="#433326" d="M334.434,516.951c-10.159-7.199-21.729-3.529-32.513-3.398
		c-19.418,0.237-39.16-3.426-58.236,3.238c-15.66-30.949-22.99-64.091-25.881-98.4c1.354-14.408,2.706-28.818,4.06-43.24
		c1.126-0.678,2.252-1.341,3.378-2.004c1.021,1.428,2.045,2.854,3.066,4.281c0.049,2.303,0.095,4.605,0.141,6.909
		c-9.464,36.869-0.366,71.726,11.648,106.226c1.45,4.159,5.268,5.501,9.427,5.768c-0.002-0.002-0.207,0.324-0.207,0.324
		c4.908,5.728,11.535,3.295,17.433,3.336c48.395,0.352,96.791,0.467,145.188,0.652c2.668,1.723,3.103,0.345,2.817-2.03
		c-30.2-4.624-60.68,0.157-90.934-2.68c-0.076-2.133-0.154-4.267-0.232-6.399c-0.463-8.009,9.615-9.432,10.405-16.657
		c17.26-0.542,34.521-1.083,51.784-1.624c6.141,3.848,12.53,7.359,18.347,11.647c4.858,3.583,9.335,3.091,14.139,0.636
		c6.829-3.492,2.72-8.404,1.838-13.097c-1.202-6.396-6.285-12.639-2.422-20.735c7.871,5.783,8.377,13.569,10.755,20.142
		c7.646,21.14,14.444,42.584,22.04,63.741c11.254,31.359,48.945,59.53,89.938,33.209c0.461,0.446,0.915,0.897,1.364,1.354
		c-3.889,12.23-14.558,12.658-24.494,13.471c-15.249,1.249-23.332,7.202-20.614,24.19c2.297,14.36-2.879,27.504-10.319,39.708
		c-0.796,0.05-1.596,0.145-2.39,0.282c-11.285,3.098-22.798,3.592-34.404,3.02c-0.012-1.159-0.023-2.321-0.033-3.483
		c2.386-0.384,4.771-0.769,7.155-1.153c1.421-0.207,2.843-0.414,4.263-0.622c18.243,1.187,26.348-9.262,28.938-25.604
		c1.402-8.839,1.766-17.774-0.086-26.651c2.465-8.52-4.219-10.534-9.59-13.466c-17.007-9.282-29.415-22.432-35.697-41.138
		c-3.23-9.62-7.238-18.981-11.037-28.401c-1.924-4.767-4.422-10.975-9.655-10.684c-6.909,0.385-3.161,8.423-5.696,12.418
		c-8.232,4.313-18.394,0.876-26.291,6.541C372.694,516.7,353.564,516.824,334.434,516.951z"/>
	<path fill-rule="evenodd" clip-rule="evenodd" fill="#433326" d="M937.024,469.15c3.544,0.726,4.64,3.23,4.709,6.482
		c-22.439,0.193-44.883,0.388-67.326,0.582c-1.408,0.037-2.814,0.076-4.221,0.115c-0.984,0.027-1.915,0.27-2.791,0.724
		c-10.176-6.902-20.487-6.235-30.886-0.542c-4.829,0.295-12.55-3.836-10.519,6.927c1.485,7.876,0.038,16.67,13.431,16.356
		c35.382-0.829,70.796-0.172,106.196-0.393c4.746-0.029,10.28,1.945,14.147-2.966c10.067,2.693,0.92,9.221,2.708,13.567
		c-4.504,8.06-12.313,6.226-19.458,6.602c-25.117,1.322-50.504-3.297-75.38,3.389c-11.763-6.558-23.577-3.962-36.723-1.594
		c5.021,7.323,11.345,3.544,16.146,5.396c19.192,1.155,19.505,10.507,15.773,27.258c-5.425,24.347-5.987,49.833-7.947,74.773
		c-1.323,16.815-7.524,22.307-22.388,24.23c-6.615,0.855-13.092,2.732-19.874,2.204c2.975-5.846,12.853-6.648,11.461-15.682
		c5.406-4.309,5.815-10.498,6.625-16.71c3.981-30.625-3.007-60.478-6.506-90.529c-1.968-16.917-0.444-34.863-11.331-49.84
		c-0.396-3.615,0.188-7.558-3.377-10.115c4.147-5.504,10.146-3.516,15.504-3.648c16.185-0.398,32.377-0.554,48.564-0.805
		c1.242,1.379,2.484,2.758,3.727,4.137C897.194,473.555,917.106,472.762,937.024,469.15z"/>
	<path fill-rule="evenodd" clip-rule="evenodd" fill="#CC5E19" d="M824.084,636.581c1.392,9.033-8.486,9.836-11.461,15.682
		c-1.005,0.103-1.971,0.352-2.899,0.746c-12.699,0.39-25.188-1.229-37.57-3.898c-0.662-0.518-1.411-0.798-2.248-0.845
		c-4.776-3.133-8.36-6.369-8.486-13.186c-0.779-42.156-1.972-84.305-3.28-126.447c-0.267-8.641,1.565-13.852,11.801-13.77
		c6.036,0.048,12.095-2.328,18.146-3.605c-3.464,8.851-6.563,17.518-5.989,27.519c0.872,15.175,0.864,30.46,0.192,45.652
		C780.823,597.589,789.155,624.684,824.084,636.581z"/>
	<path fill-rule="evenodd" clip-rule="evenodd" fill="#433326" d="M337.558,591.392c8.684-4.979,7.767-13.668,6.023-20.831
		c-4.031-16.566-2.008-33.231-2.848-49.837c40.418-1.9,33.354-3.498,34.402,31.25c0.084,2.816-0.166,5.648,0.037,8.451
		c0.385,5.263-1.988,11.866,6.178,13.629c0.07,2.366,0.14,4.732,0.211,7.1c-3.426,2.68-3.197,6.459-3.074,10.209
		c-7.453,13.141-2.133,27.31-3.294,40.956c-4.849,11.125-15.216,8.85-24.188,9.962c-11.071-4.264-1.527-20.147-13.479-23.915
		C337.536,609.374,337.548,600.384,337.558,591.392z"/>
	<path fill-rule="evenodd" clip-rule="evenodd" fill="#433326" d="M778.892,659.082c-2.261-3.315-6.876-5.037-6.736-9.972
		c12.38,2.67,24.869,4.288,37.568,3.898C801.464,665.277,789.048,656.446,778.892,659.082z"/>
	<path fill-rule="evenodd" clip-rule="evenodd" fill="#666667" d="M847.059,523.797c-4.801-1.853-11.124,1.927-16.146-5.396
		c13.146-2.368,24.96-4.964,36.723,1.594C861.578,525.586,853.935,522.614,847.059,523.797z"/>
	<path fill-rule="evenodd" clip-rule="evenodd" fill="#433326" d="M544.706,537.006c6.555,0.271,6.215,7.098,9.748,10.248
		c0,2.228-0.004,4.453-0.007,6.681c-2.12,4.404-4.237,8.808-6.355,13.207c-2.105,0.33-4.216,0.665-6.319,1.003
		c-0.446-0.452-0.9-0.903-1.36-1.348c0.161-1.921,0.32-3.841,0.478-5.764c3.62-2.587,4.695-6.343,4.841-10.527
		c1.985-2.335,1.997-4.404-0.815-6.096C544.845,541.942,544.775,539.473,544.706,537.006z"/>
	<path fill-rule="evenodd" clip-rule="evenodd" fill="#1B2137" d="M711.357,662.791c6.618-0.048,13.237-0.096,19.853-0.144"/>
	<path fill-rule="evenodd" clip-rule="evenodd" fill="#433326" d="M103.499,492.922c15.863-34.531,38.84-66.074,44.18-105.035
		c2.854-2.916,3.039-6.647,3.189-10.391c8.475-24.48,11.031-31.969-6.754-34.34l0.197-0.264
		c-7.966-6.977-17.52-12.404-21.188-23.413c-2.252-6.758-5.977-5.106-11.762-2.863c-13.604,5.275-49.678-18.227-51.777-32.736
		c-0.795-5.5,1.42-11.348,5.124-13.741c10.235-6.617,15.014-18.229,24.79-24.987c4.072-1.691,8.144-3.379,12.215-5.068
		c0.791,0.829,1.584,1.659,2.375,2.486c-6.08,5.864-12.156,11.731-18.235,17.596c-22.318,21.53-21.627,27.406,5.216,44.375
		c0.478,0.302,0.977,0.579,1.411,0.932c10.831,8.806,20.464,5.224,23.58-6.342c6.515-24.181,28.251-33.163,43.803-48.327
		c0.846,0.824,1.693,1.648,2.519,2.45c-7.885,13.352-21.941,20.885-31.104,33.186c-6.34,8.512-10.161,16.871-3.546,26.084
		c7.192,10.017,12.122,24.126,29.112,20.718c14.441-4.93,22.263-17.64,32.428-27.597c0.657,13.128-11.27,19.952-15.434,31.184
		c-20.564,55.465-34.498,113.564-64.227,165.467c-6.488,11.33-10.827,23.559-14.549,36.026c-1.799,6.026-1.918,12.663,5.348,13.565
		c22.613,2.808,45.661,8.035,67.127-5.171c1.712-1.359,4.762-2.567,4.936-4.102c3.359-29.557,13.008-58.08,14.442-87.932
		c0.14-1.973,0.279-3.953,0.418-5.936c9.218-6.844-2.623-22.064,10.829-27.224c0.584,19.178-4.54,37.562-7.512,56.271
		c-3.312,20.839-11.669,41.055-8.334,62.777c-11.693,22.002-32.687,23.106-53.658,23.204c-9.459,0.045-18.915-2.162-28.398-3.121
		c-10.285-1.038-15.18-6.385-14.168-16.822C91.676,526.788,95.562,509.163,103.499,492.922z"/>
	<path fill-rule="evenodd" clip-rule="evenodd" fill="#CC5E19" d="M182.317,540.572c-3.335-21.723,5.021-41.938,8.334-62.777
		c2.972-18.708,8.096-37.093,7.512-56.271c-0.144-0.817-0.184-1.642-0.117-2.47c13.242-12.285,13.446-30.459,20.554-45.514
		c1.088,0.541,2.176,1.083,3.264,1.623c-1.354,14.408-2.706,28.818-4.06,43.228c-29.855,36.463-20.929,94.415,17.9,116.206
		c-2.904,3.763-9.521,2.741-10.904,8.463c0,0,0.087-0.017,0.088-0.014c-10.029,1.39-20.06,2.776-30.088,4.162
		c-1.884-0.219-3.768-0.436-5.652-0.654c-1.221-1.365-2.438-2.731-3.655-4.098C184.434,541.828,183.376,541.199,182.317,540.572z"/>
	<path fill-rule="evenodd" clip-rule="evenodd" fill="#E97E22" d="M235.704,534.598c-38.829-21.791-47.756-79.743-17.9-116.206
		c2.891,34.309,10.221,67.45,25.881,98.399c0.509,4.427,1.02,8.853,1.535,13.275C242.049,531.574,238.876,533.087,235.704,534.598z
		 M217.349,475.349c-1.588,0.302-3.177,0.603-4.768,0.902c3.299,7.44,0.437,16.567,10.66,26.209
		C220.73,490.904,219.041,483.127,217.349,475.349z"/>
	<path fill-rule="evenodd" clip-rule="evenodd" fill="#666667" d="M391.823,516.576c-7.441,4.018-11.093,9.383-10.383,18.689
		c0.981,12.854,0.035,25.855-0.088,38.791c-8.168-1.766-5.795-8.369-6.18-13.632c-0.203-2.803,0.047-5.635-0.037-8.451
		c-1.049-34.748,6.016-33.15-34.402-31.25c-2.101-1.256-4.203-2.516-6.303-3.776C353.564,516.824,372.694,516.7,391.823,516.576z"/>
	<path fill-rule="evenodd" clip-rule="evenodd" fill="#433326" d="M194.8,547.209c10.028-1.386,20.059-2.772,30.088-4.162
		C216.061,553.123,205.719,552.249,194.8,547.209z"/>
	<path fill-rule="evenodd" clip-rule="evenodd" fill="#433326" d="M235.704,534.598c3.172-1.511,6.345-3.023,9.516-4.531
		c-1.58,12.546-10.947,12.854-20.418,12.995C226.184,537.339,232.8,538.36,235.704,534.598z"/>
	<path fill-rule="evenodd" clip-rule="evenodd" fill="#433326" d="M185.492,542.457c1.217,1.366,2.435,2.732,3.655,4.098
		C187.93,545.188,186.711,543.821,185.492,542.457z"/>
	<path fill-rule="evenodd" clip-rule="evenodd" fill="#C2C2C2" d="M806.21,302.533c-7.226-12.146-10.131-26.947-22.211-36.108
		c9.657-0.272,19.315-0.545,28.976-0.819c10.117,0.025,20.235,0.051,30.353,0.078c18.03,0.287,36.059,0.622,54.088,0.831
		c5.51,0.064,11.6-1.69,14.229,5.581c-2.725,31.7-2.725,31.615-35.589,31.646c-11.678,0.012-23.358,0.549-35.038,0.844
		C829.578,301.113,817.84,302.737,806.21,302.533z"/>
	<path fill-rule="evenodd" clip-rule="evenodd" fill="#666667" d="M843.327,265.684c-10.117-0.026-20.235-0.053-30.353-0.078
		c-1.456-12.519,5.668-14.116,16.058-14.062C839.394,251.599,844.79,254.641,843.327,265.684z"/>
	<path fill-rule="evenodd" clip-rule="evenodd" fill="#433326" d="M391.499,204.126c0.146-2.197,0.295-4.393,0.44-6.592
		c1.017-2.338,2.035-4.675,3.054-7.01c0.257-1.942,0.516-3.884,0.777-5.816c6.738-1.655,6.713-8.536,9.794-12.95
		c15.993-22.932,46.47-40.88,91.539-25.262c48.196,24.131,50.923,85.62,20.727,118.214c-10.466,4.453-17.608,16.114-30.974,14.253
		c5.879-11.086,22.123-10.866,26.147-23.973c22.704-24.637,23.7-56.063,2.61-82.372c-20.573-25.667-54.599-31.74-82.945-14.806
		c-32.676,19.387-40.229,50.491-22.718,93.564c-1.375,1.262-2.749,2.522-4.124,3.784c-4.61-9.099-9.223-18.199-13.833-27.298
		c-0.188-6.751-0.374-13.501-0.559-20.252C391.459,206.45,391.479,205.289,391.499,204.126z"/>
	<path fill-rule="evenodd" clip-rule="evenodd" fill="#CC5E19" d="M265.996,44.959c4.224,3.254,8.448,6.507,12.663,9.758
		c1.65,5.662,3.309,11.327,4.967,16.992c-0.015,3.395-0.029,6.79-0.045,10.183c-0.424,2.186-0.848,4.37-1.275,6.557
		c-1.552,0.305-3.101,0.607-4.656,0.912c-3.337-6.872,3.227-17.144-7.389-21.526C268.839,60.209,267.417,52.584,265.996,44.959z"/>
	<path fill-rule="evenodd" clip-rule="evenodd" fill="#C2C2C2" d="M823.944,355.955c0.138-14.044-11.131-25.005-10.589-39.159
		c8.933-0.252,17.901,2.874,26.805-0.284c19.119,0.622,38.235,1.352,57.358,1.834c18.637,0.469,8.537,14.524,10.348,22.514
		c1.878,8.287,0.644,15.461-11.386,15.188C872.312,355.502,848.125,355.931,823.944,355.955z"/>
	<path fill-rule="evenodd" clip-rule="evenodd" fill="#C2C2C2" d="M823.562,376.27c0.047-2.743,0.091-5.484,0.139-8.229
		c21.947,0.151,43.918,0.993,65.831,0.198c12.812-0.465,16.866,3.824,15.087,16.308c-0.928,6.505,0.751,13.38,1.252,20.088
		c-16.047,6.313-31.565,4.644-46.027-4.2C847.457,392.857,835.635,384.36,823.562,376.27z"/>
	<path fill-rule="evenodd" clip-rule="evenodd" fill="#666667" d="M840.16,316.513c-8.903,3.158-17.872,0.032-26.805,0.284
		c-2.11-4.889-7.233-8.27-7.146-14.262c11.63,0.202,23.368-1.421,34.808,2.051C840.732,308.562,840.447,312.538,840.16,316.513z"/>
	<path fill-rule="evenodd" clip-rule="evenodd" fill="#666667" d="M873.563,464.934c-16.188,0.251-32.38,0.406-48.564,0.805
		c-5.357,0.133-11.356-1.855-15.504,3.646c-2.808,0.023-5.615,0.049-8.423,0.073c-4.442-12.7,5.421-28.841-9.833-38.556
		c18.859-17.303,42.76-4.873,66.812-12.562c-12.517-5.495-22.395-3.74-31.746-3.426c-12.174,0.412-15.523-3.565-10.167-14.794
		c2.63-5.515,2.534-12.211,7.078-16.979c9.956,7.149,19.23,15.642,30.028,21.147c17.376,8.862,23.421,21.943,20.728,40.57
		C873.024,451.434,873.654,458.236,873.563,464.934z"/>
	<path fill-rule="evenodd" clip-rule="evenodd" fill="#C2C2C2" d="M874.407,476.215c22.443-0.194,44.887-0.389,67.326-0.582
		c6.007,6.934,12.018,13.865,18.03,20.801c-3.865,4.914-9.399,2.939-14.146,2.969c-35.4,0.221-70.814-0.437-106.196,0.393
		c-13.393,0.313-11.945-8.48-13.431-16.356c-2.031-10.763,5.689-6.632,10.521-6.926c10.19,6.133,20.506,5.142,30.884,0.541
		c0.876-0.454,1.807-0.696,2.791-0.727C871.681,479.667,873.081,479.327,874.407,476.215z M844.044,495.546
		c15.396,0,30.791,0,46.188,0C874.839,493.238,859.445,491.748,844.044,495.546z"/>
	<path fill-rule="evenodd" clip-rule="evenodd" fill="#C2C2C2" d="M937.024,469.15c-19.918,3.611-39.83,4.404-59.734-0.08
		c2.01-5.799-2.465-12.679,2.981-17.906c12.853,1.085,25.703,2.096,38.546-0.11C924.885,457.087,930.954,463.118,937.024,469.15z"/>
	<path fill-rule="evenodd" clip-rule="evenodd" fill="#C2C2C2" d="M880.787,445.349c-4.513-4.771-5.826-10.673,0.439-13.718
		c7.323-3.561,15.96-5.553,23.62,0.053c2.478,1.812,3.926,5.033,5.844,7.61C902.345,449.318,890.27,440.933,880.787,445.349z"/>
	<path fill-rule="evenodd" clip-rule="evenodd" fill="#666667" d="M880.787,445.349c9.482-4.416,21.558,3.97,29.903-6.055
		c8.566-0.124,6.812,6.878,8.127,11.761c-12.843,2.205-25.693,1.194-38.546,0.109C880.442,449.227,880.614,447.287,880.787,445.349z
		"/>
	<path fill-rule="evenodd" clip-rule="evenodd" fill="#37536A" d="M110.021,228.016c-1.176,1.111-2.35,2.222-3.525,3.335
		C107.671,230.239,108.845,229.126,110.021,228.016z"/>
	<path fill-rule="evenodd" clip-rule="evenodd" fill="#CC5E19" d="M156.845,333.242c-16.99,3.408-21.92-10.701-29.112-20.718
		c-6.615-9.214-2.794-17.572,3.546-26.084c9.162-12.3,23.219-19.834,31.104-33.186c37.767-13.793,38.743-46.738,42.176-83.318
		c-11.578,17.718-8.633,35.424-15.749,50.096c-2.519,5.192-2.733,12.516-9.725,10.393c-7.209-2.19-1.188-8.849-0.339-12.721
		c2.211-10.075,3.576-20.325,2.622-30.284c-1.879-19.632,13.669-29.665,22.748-42.826c3.509-5.088,13.862-4.082,19.405,2.855
		c3.141,3.931,5.598,8.407,8.363,12.637c-10.775,1.517-17.571,5.098-13.705,18.453c1.963,6.779,0.984,14.652,0.266,21.924
		c-2.721,27.438-7.156,53.489-35.969,67.927C148.538,285.394,144.364,297.788,156.845,333.242z"/>
	<path fill-rule="evenodd" clip-rule="evenodd" fill="#CC5E19" d="M269.888,106.976c-8.346,19.892-31.046,31.936-53.937,28.617
		c-23.991-3.478-45.801-25.383-48.085-48.297c-2.973-29.839,13.586-54.471,40.097-59.634c-0.251,1.667-0.14,3.502-0.814,4.977
		c-13.886,30.302-3.998,56.934,24.864,72.215C245.085,111.778,257.26,107.102,269.888,106.976z"/>
	<path fill-rule="evenodd" clip-rule="evenodd" fill="#E97E22" d="M156.845,333.242c-12.48-35.454-8.307-47.849,25.631-64.852
		c28.812-14.438,33.248-40.489,35.969-67.927c0.719-7.272,1.697-15.145-0.266-21.924c-3.866-13.355,2.93-16.936,13.705-18.453
		c10.694,31.847,13.505,64.179,5.991,97.147c0.003-0.003,0.093,0.373,0.103,0.38c-19.343,10.683-28.945,31.109-45.039,45.044
		c-1.223,0.997-2.443,1.992-3.666,2.987C179.107,315.603,171.286,328.312,156.845,333.242z M194.372,281.738
		c-1.851,0.999-3.701,1.997-5.551,2.994c-9.314,2.806-16.839,8.595-24.02,14.806c-1.439,1.246-2.862,4.082-2.408,5.629
		c1.062,3.602,4.494,2.524,6.959,1.653c9.814-3.469,16.867-10.562,23.289-18.396c0.963-1.814,1.927-3.628,2.887-5.446
		c0.411-0.764,0.82-1.53,1.23-2.295C195.963,281.035,195.167,281.387,194.372,281.738z M221.46,248.544
		c-1.742,1.59-3.29,4.12-0.824,5.297c3.76,1.796,5.636-1.877,7.603-4.415c8.333-11.023,3.864-23.111,3.601-36.76
		c-6.352,9.237-5.12,18.577-7.793,26.808c-0.717,0.214-0.931,0.673-0.642,1.378C222.756,243.417,222.107,245.98,221.46,248.544z
		 M217.308,260.941c-0.974-0.347-2.202-1.191-2.721-0.873c-0.773,0.471-1.042,1.765-1.523,2.708
		c0.912,0.327,2.121,1.169,2.664,0.856C216.507,263.183,216.799,261.891,217.308,260.941z M209.59,270.841
		c-0.075-0.423-0.005-1.037-0.256-1.224c-0.345-0.258-0.93-0.195-1.413-0.269c0.123,0.691,0.246,1.385,0.369,2.078
		C208.723,271.231,209.157,271.037,209.59,270.841z"/>
	<path fill-rule="evenodd" clip-rule="evenodd" fill="#E97E22" d="M159.863,250.805c-15.552,15.164-37.288,24.146-43.803,48.327
		c-3.116,11.565-12.749,15.148-23.58,6.342c-0.435-0.353-0.934-0.63-1.411-0.932c-26.843-16.968-27.534-22.844-5.216-44.375
		c6.079-5.864,12.155-11.731,18.235-17.596c8.565-5.348,16.893-11.141,25.765-15.922c8.385-4.519,12.663-14.521,23.937-17.035
		C153.433,224.009,157.15,237.317,159.863,250.805z M120.114,265.367c-8.263,0.786-15.052,4.703-20.188,10.887
		c-2.949,3.549-8.895,8.322-3.714,12.846c5.495,4.797,8.78-2.008,11.604-5.693c4.431-5.778,8.238-12.035,12.303-18.089l0.361-0.392
		L120.114,265.367z"/>
	<path fill-rule="evenodd" clip-rule="evenodd" fill="#E97E22" d="M269.888,106.976c-12.628,0.126-24.803,4.803-37.875-2.121
		c-28.862-15.282-38.75-41.914-24.864-72.215c0.675-1.475,0.563-3.31,0.814-4.977c1.181-0.347,2.364-0.693,3.546-1.035
		c7.896,0.298,15.905,2.363,23.554-1.443c2.972-0.161,5.656,0.451,7.687,2.828c0.043,3.058,0.095,6.119,0.145,9.182
		c-13.229,5.378-13.251,13.624-5.318,23.81c12.27,15.758,20.428,17.516,32.686,6.831c10.615,4.382,4.052,14.654,7.389,21.526
		c-1.154,4.756-0.678,10.071-4.684,13.857c-0.691,0.819-1.386,1.645-2.081,2.473C270.942,106.422,270.611,106.85,269.888,106.976z"
		/>
	<path fill-rule="evenodd" clip-rule="evenodd" fill="#C2C2C2" d="M270.261,67.834c-12.258,10.685-20.416,8.927-32.686-6.831
		c-7.933-10.186-7.911-18.431,5.312-23.808c4.778-0.091,9.56-0.184,14.342-0.279c2.921,2.68,5.841,5.358,8.765,8.04
		C267.417,52.584,268.839,60.209,270.261,67.834z"/>
	<path fill-rule="evenodd" clip-rule="evenodd" fill="#666667" d="M162.591,232.697c-4.167-22.9,8.869-37.655,13.553-54.484
		C172.069,195.193,179.118,214.938,162.591,232.697z"/>
	<path fill-rule="evenodd" clip-rule="evenodd" fill="#CC5E19" d="M257.229,36.917c-4.782,0.095-9.563,0.188-14.342,0.279
		c-0.044-3.065-0.096-6.126-0.139-9.184C249.129,28.465,254.026,31.314,257.229,36.917z"/>
	<path fill-rule="evenodd" clip-rule="evenodd" fill="#CC5E19" d="M235.062,25.185c-7.648,3.806-15.657,1.741-23.554,1.443
		C219.097,21.8,227.072,23.365,235.062,25.185z"/>
	<path fill-rule="evenodd" clip-rule="evenodd" fill="#345070" d="M242.445,258.859c-0.327,2.778-1.435,5.025-4.177,6.159
		c-0.097-2.469-0.198-4.94-0.301-7.411c0,0-0.09-0.376-0.093-0.373C239.396,257.776,240.921,258.317,242.445,258.859z"/>
	<path fill-rule="evenodd" clip-rule="evenodd" fill="#CC5E19" d="M270.885,105.69c0.695-0.828,1.39-1.653,2.081-2.473
		C272.27,104.049,271.576,104.87,270.885,105.69z"/>
	<path fill-rule="evenodd" clip-rule="evenodd" fill="#666667" d="M643.306,468.957c3.467,8.14,10.909,6.076,17.194,6.471
		c20.428,1.284,20.435,1.185,15.886,21.562c-41.547,0.004-83.095-0.021-124.642,0.053c-4.911,0.009-10.216-1.447-14.341,2.807
		c-5.268-6.355-13.989-13.61-10.22-21.138c3.464-6.919,14.326-2.076,21.877-2.612c21.097-1.497,42.451,1.66,63.36-3.49
		c7.34-0.613,14.68-1.228,22.02-1.84c-37.556,0.531-75.111-3.516-112.537,0.928c-6.13-2.435-5.91-8.601-7.917-13.461
		c-0.004-0.002-0.153,0.527-0.153,0.527c13.133-8.209,27.818-6.909,42.292-6.909c25.308-0.001,50.614,0,75.919,0
		c-27.618-2.869-55.245-3.171-82.86-2.722c-11.282,0.183-22.099-0.58-32.313-5.666c-2.385-4.116-2.906-9.503-8.019-11.76
		c-1.665-3.188-3.331-6.373-4.998-9.561c3.527-0.773,6.418-2.434,8.069-5.811c3.01,0.693,6.02,1.386,9.028,2.078l-0.375-0.238
		c1.593,2.76,4.146,3.624,7.138,3.634l-0.314-0.231c1.562,2.807,4.205,3.486,7.124,3.628l-0.339-0.255
		c2.349,1.584,4.697,3.169,7.045,4.752c8.055,6.473,13.185,9.293,15.357-5.464c2.519-17.122,8.345-33.758,12.736-50.606
		c1.439-0.152,2.88-0.306,4.319-0.457c16.415-0.088,24.216-12.701,33.558-23.074c16.561-7.981,8.551-19.24,4.005-30.038
		c14.814-7.93,30.814-1.993,46.138-3.945c-2.727,14.021-5.373,28.066-10.767,41.392c-12.116,0.345-24.985-3.506-35.562,9.674
		c10.716,0,21.434,0,32.15,0c1.544,2.564-2.275,9.914,5.883,6.585c-1.842,22.758,3.154,42.202,25.571,53.404
		c1.294,0.647,1.896,2.673,2.821,4.057c1.285,9.194,9.333,10.741,15.908,12.927c8.322,2.766,9.923,9.516,9.483,15.897
		c-0.586,8.492-8.498,5.318-13.444,5.392c-14.04,0.207-28.09-0.279-42.142-0.49c-0.233-15.637-0.461-31.274-0.689-46.913
		c-2.145-4.142-5.206-8.718-9.527-9.015c-21.329-1.467-42.851-3.357-63.914,1.58c-7.426,1.741-11.767,7.326-4.964,15.146
		c1.69,5.374,6.061,5.85,10.67,5.766c19.357-0.355,38.714-0.743,58.07-1.117c1.963-0.486,3.926-0.973,5.887-1.46
		C642.954,442.281,643.13,455.619,643.306,468.957z"/>
	<path fill-rule="evenodd" clip-rule="evenodd" fill="#C2C2C2" d="M569.323,373.634c-4.392,16.848-10.218,33.483-12.736,50.605
		c-2.173,14.757-7.303,11.937-15.357,5.463c-1.254-3.211-4.031-4.156-7.045-4.751c0,0,0.339,0.255,0.337,0.255
		c-2.374-1.209-4.748-2.418-7.122-3.628c0,0,0.314,0.231,0.312,0.231c-1.474-2.988-4.402-3.116-7.136-3.634
		c0,0,0.375,0.238,0.373,0.239c-3.577-4.636-8.659-6.197-14.147-6.929c0,0,0.458,0.344,0.456,0.344
		c-4.513-8.533-12.487-9.967-21.022-10.251c0,0-0.044,0.817-0.037,0.808c-2.855-12.48,8.359-25.492-1.433-37.701
		c-1.073,7.779-15.284,12.215-5.387,23.199c2.118,2.35-1.589,5.916-5.968,5.267c-4.994-0.743-10.011-1.339-15.018-1.999
		c-3.804,0.602-7.528,0.943-9.892-3.082c1.119-9.195,3.352-17.71,2.124-27.783c-2.184-17.941-1.907-36.796,5.7-54.265
		c5.597-1.156,11.195-2.313,16.792-3.469c34.027-5.846,68.282-5.887,102.612-4.037c5.396,0.851,11.235,0.156,8.133,9.549
		c-4.703,14.246-8.368,28.902-11.356,43.613c-1.059,5.203-7.088,11.332,0.245,16.688l-0.104,1.456
		C571.54,371.092,570.431,372.363,569.323,373.634z M499.124,347.748c-2.674,0.328-3.857,1.432-3.271,3.322
		c0.233,0.756,1.867,1.764,2.521,1.561c1.271-0.398,2.304-1.57,3.433-2.422C500.775,349.263,499.744,348.315,499.124,347.748z"/>
	<path fill-rule="evenodd" clip-rule="evenodd" fill="#C2C2C2" d="M443.146,386.479c-14.073-2.529-28.009-3.966-41.006,4.246
		c-1.336,0.845-4.535,0.598-4.651,1.251c-3.599,20.33-19.849,22.736-35.837,25.889c-9.328,1.839-18.51,4.425-27.757,6.673
		c2.862-8.047-13.177-5.662-8.253-16.039c4.066-8.568,1.051-18.556,0.981-27.92c-0.454,0.146-0.755-0.336-0.874-1.443
		c6.998-1.841,13.995-3.682,24.28-6.389c-9.881-3.164-20.093,1.539-19.232-11.182c0.605-8.945-1.782-19.019,1.61-26.599
		c3.625-8.104,16.299,3.312,22.929-5.493c-5.496-5.117-12.057-1.854-17.743-3.188c-8.521-2.004-9.126-8.292-4.711-13.659
		c2.328-2.829,9.68-2.416,7.122-8.638c-2.923-7.114-8.855,3.129-12.851-1.242c0.912-2.051,2.818-4.227,2.58-6.136
		c-1.982-15.943,7-16.713,19.011-14.64c15.44,2.664,30.986,4.728,46.485,7.05c2.448,3.834,6.448,3.188,10.113,3.508
		c12.551,9.685,27.801,16.068,36.779,30.114C439.469,343.967,451.094,365.064,443.146,386.479z M351.407,346.686
		c-5.439-2.808-8.841-4.562-12.242-6.318c-0.39,1.563-1.465,3.342-1.053,4.651C339.993,350.997,344.009,350.722,351.407,346.686z
		 M347.661,361.287c-2.133-0.152-3.71-0.499-5.223-0.312c-1.771,0.215-1.875,1.211-0.214,1.838c0.959,0.362,2.154,0.351,3.185,0.17
		C346.052,362.869,346.588,362.13,347.661,361.287z"/>
	<path fill-rule="evenodd" clip-rule="evenodd" fill="#E97E22" d="M544.706,537.006c0.069,2.467,0.139,4.937,0.203,7.396
		c0.271,2.03,0.546,4.068,0.821,6.104c-0.146,4.185-1.221,7.94-4.837,10.524c-42.312,4.612-69.709-28.76-82.163-61.614
		c-8.017-21.148-13.388-42.946-19.788-64.51c-3.74-12.612-7.455-23.591-25.357-25.609c-15.229-1.716-13.086,12.85-21.786,15.518
		c8.117-36.269,41.221-46.221,69.385-20.719c27.319,24.736,44.022,57.098,62.889,87.925c5.171,8.451,7.575,18.95,17.071,24.404
		C542.331,523.284,543.519,530.145,544.706,537.006z M460.4,421.062c16.187,23.24,28.296,48.22,39.287,73.867
		c4.62,10.78,10.936,20.86,16.849,31.046c1.821,3.136,4.249,8.285,8.791,5.466c3.76-2.331,2.099-7.354,0.332-10.857
		c-4.549-9.036-9.186-18.058-14.35-26.75C496.165,468.351,483.989,440.852,460.4,421.062z"/>
	<path fill-rule="evenodd" clip-rule="evenodd" fill="#CC5E19" d="M687.976,648.223c-16.575-8.48-19.312-22.164-16.894-39.439
		c2.385-17.014,6.012-34.088,4.36-51.506c0.257-2.237,0.516-4.476,0.774-6.713c0.307-4.51,0.611-9.017,0.917-13.525
		c0.332-3.057,0.665-6.113,1.003-9.165c4.188-11.676,5.002-23.979,6.831-36.112c2.563-17.014,13.095-21.605,26.076-10.098
		c7.926,7.024,15.138,12.188,26.162,12.064c10.088-0.111,13.567,6.326,11.714,15.884c-2.736-0.635-5.521-1.107-8.196-1.936
		c-19.346-5.993-19.089-6.011-19.471,14.729c-0.257,14.071,0.682,28.095-1.611,42.233c-4.869,30.004-6.357,59.349,28.604,74.372
		c1.421,0.61,2.33,2.411,3.478,3.658C732.151,663.77,710.17,657.215,687.976,648.223z"/>
	<path fill-rule="evenodd" clip-rule="evenodd" fill="#E97E22" d="M714.666,135.342c11.639,1.676,21.214,6.626,27.235,17.169
		c-1.691,0.197-3.446,0.848-5.007,0.532c-9.54-1.925-21.269-9.106-27.21,2.932c-6.188,12.532,5.764,20.189,13.461,28.1
		c1.938,1.992,4.411,3.506,6.768,5.038c5.036,3.273,10.413,4.909,15.665,0.804c4.897-3.828,6.404-9.388,5.013-15.212
		c-1.688-7.076-4.165-13.963-6.303-20.932c23.295,19.824,26.093,55.35,6.388,81.005c-2.496,0.237-4.309,1.257-4.554,4.042
		c0,0-0.47,0.64-0.471,0.628c-3.296,0.03-6.69-0.436-9.867,0.192c-31.557,6.242-54.816-2.289-68.908-25.486
		c-15.507-25.529-12.746-49.604,8.611-75.066c0.107-0.861,0.592-1.24,1.451-1.126c0.932-0.639,1.867-1.292,2.802-1.945
		c1.253-0.235,2.505-0.471,3.751-0.703C693.882,135.327,704.274,135.335,714.666,135.342z"/>
	<path fill-rule="evenodd" clip-rule="evenodd" fill="#CC5E19" d="M391.799,424.814c8.7-2.668,6.557-17.233,21.786-15.518
		c17.902,2.019,21.617,12.997,25.357,25.609c6.4,21.563,11.771,43.361,19.788,64.51c12.454,32.854,39.851,66.227,82.163,61.614
		c-0.161,1.926-0.32,3.846-0.481,5.767c-40.993,26.319-78.685-1.852-89.938-33.211c-7.596-21.157-14.395-42.602-22.04-63.741
		c-2.378-6.572-2.884-14.358-10.755-20.142c-3.863,8.097,1.22,14.339,2.422,20.735c0.882,4.692,4.991,9.604-1.838,13.097
		c-4.804,2.455-9.28,2.947-14.139-0.636c-5.816-4.288-12.206-7.8-18.355-11.644c-0.82-0.773-1.633-1.547-2.457-2.325
		c-0.301-2.474-0.589-4.946-0.878-7.419c-0.768-6.93-2.155-13.523-9.283-16.977c-0.13-0.856-0.493-1.6-1.099-2.221l0.142-0.256
		c1.35-0.559,3.915-1.504,3.879-1.62C371.114,424.875,380.602,423.997,391.799,424.814z"/>
	<path fill-rule="evenodd" clip-rule="evenodd" fill="#E97E22" d="M824.084,636.581c-34.929-11.897-43.261-38.992-41.796-72.152
		c0.672-15.192,0.68-30.478-0.192-45.652c-0.574-10.001,2.525-18.668,5.989-27.519c-0.268-0.783-0.134-1.479,0.408-2.095
		c9.201-0.515,19.561,1.901,24.379-9.661c10.887,14.977,9.363,32.923,11.331,49.84c3.499,30.052,10.487,59.904,6.506,90.529
		C829.899,626.083,829.49,632.272,824.084,636.581z M812.224,557.275c-1.594-14.786-3.189-29.572-4.785-44.356
		c-5.509,17.239-1.121,33.584,0.561,50.1c0.218,10.669-0.029,21.377,0.843,31.992c0.448,5.444-2.383,15.371,5.824,14.742
		c6.936-0.53,4.836-10.404,4.152-16.013C817.327,581.5,814.503,569.422,812.224,557.275z"/>
	<path fill-rule="evenodd" clip-rule="evenodd" fill="#E97E22" d="M755.319,269.815c12.67-0.149,25.639-0.957,31.413,14.164
		c-1.208,4.922-5.465,8.814-1.489,15.125c7.238,11.487,9.521,24.871,11.176,38.248c0.456,3.682,0.098,8.928,5.705,8.254
		c4.818-0.578,3.858-6.086,5.4-9.442c13.137,19.894,11.073,48.622-5.153,71.812c-3.237,0.937-6.515,1.762-9.708,2.832
		c-22.564,7.555-31.164,3.098-41.266-20.776c-7.985-18.869,6.436-23.312,18.376-29.691c2.306-1.23,3.978-3.648,5.94-5.515
		c1.257,0.382,2.511,0.758,3.765,1.135c1.33,2.756,3.34,4.002,6.411,2.879c1.258,0.335,1.789,1.146,1.598,2.434
		c-5.558,10.256-3.116,18.248,6.407,24.928c4.868-6.014,4.012-11.857,2.484-17.784c9.202-1.612,5.499-6.318,2.275-10.419
		c-5.005-6.369-12.304-9.315-19.563-12.206c-0.396-17.478-2.934-34.619-10.885-50.32c-5.092-10.06-16.93-12.954-21.74-6.373
		c-4.738,6.478,1.246,40.677,8.307,47.461c-0.16,2.395-0.318,4.79-0.479,7.187c-0.602,0.89-1.203,1.78-1.804,2.671
		c-7.75,7.537-9.015,0.688-10.673-4.889c-3.85-12.94-7.596-25.911-11.382-38.869c0.06-2.188,0.121-4.373,0.181-6.561
		c0.865-1.277,1.732-2.556,2.601-3.833c1.029-0.765,1.21-1.7,0.544-2.804c-0.189-2.355-0.38-4.71-0.569-7.063
		C742.421,281.461,753.761,284.239,755.319,269.815z"/>
	<path fill-rule="evenodd" clip-rule="evenodd" fill="#666667" d="M575.73,298.516c-34.33-1.851-68.585-1.809-102.61,4.037
		c-3.117-2.816-9.996-4.999-1.639-9.745c1.639-1.698,3.275-3.396,4.914-5.095c5.289-0.847,10.821-1.406,10.554-8.865l-0.091,0.116
		c13.363,1.861,20.506-9.801,30.972-14.253c49.862-0.184,99.72-0.365,149.581-0.551c6.849-1.608,5.723,1.788,4.225,6.208
		c-4.041,11.927-7.76,23.965-11.604,35.957c-16.981-4.368-34.219-4.174-51.512-2.879c-2.14-0.186-4.285-0.363-6.43-0.541
		l0.066,0.023c-3.072-9.201-13.325-15.309-10.871-27.078c0.965-4.628-3.041-6.77-7.675-6.776
		c-12.933-0.015-26.04-1.277-39.562,4.979c10.534,3.475,19.835-0.403,30.94,0.868c-7.63,7.436-19.502-1.223-23.136,9.771
		c-12.819,1.798-25.637,3.594-38.454,5.391c0.089,0.926,0.18,1.853,0.271,2.778c21.751,0,43.502,0,65.254,0
		C577.86,294.745,576.796,296.631,575.73,298.516z"/>
	<path fill-rule="evenodd" clip-rule="evenodd" fill="#CC5E19" d="M677.44,431.229c-0.926-1.384-1.527-3.409-2.821-4.057
		c-22.417-11.202-27.413-30.646-25.571-53.404c6.245-26.299,12.132-52.693,18.854-78.873c6.398-24.919,7.551-25.302,36.332-22.861
		l0.078,0.136c-3.672,6.06-6.341,13.192-2.893,19.315c8.637,15.327,7.071,31.705,6.302,47.889
		c-0.37,7.764,4.031,22.283-3.976,22.007c-10.535-0.363-4.374-14.779-6.656-22.805c-1.604-5.645,4.121-15.462-8.206-15.469
		c-0.479-2.179-1.172-4.335-1.397-6.539c-0.688-6.715-0.439-15.597-8.829-15.887c-7.443-0.257-7.071,8.633-8.819,14.399
		c-5.541,18.274-0.61,37.188-3.367,55.43c-2.509,16.608,2.667,27.191,15.41,38.029c22.396,19.047,25.141,20.553,48.763,6.083
		c-1.957,16.24-10.393,23.896-25.831,23.995C694.931,438.684,686.485,433.969,677.44,431.229z"/>
	<path fill-rule="evenodd" clip-rule="evenodd" fill="#CC5E19" d="M675.487,139.088c-21.357,25.463-24.118,49.537-8.611,75.066
		c14.092,23.197,37.352,31.728,68.908,25.486c3.177-0.628,6.571-0.163,9.867-0.192c-15.049,22.152-46.143,29.791-71.961,17.688
		c-30.99-14.528-47.457-46.463-37.58-76.062C642.612,161.589,652.257,143.579,675.487,139.088z"/>
	<path fill-rule="evenodd" clip-rule="evenodd" fill="#E97E22" d="M730.643,414.624c-23.622,14.47-26.366,12.964-48.763-6.083
		c-12.743-10.838-17.919-21.421-15.41-38.029c2.757-18.242-2.174-37.156,3.367-55.43c1.748-5.766,1.376-14.657,8.819-14.399
		c8.39,0.29,8.141,9.172,8.829,15.887c0.226,2.204,0.918,4.36,1.401,6.541c0.667,12.239,5.86,26.816,1.01,36.205
		c-8.891,17.203,1.009,13.492,10.608,14.638c13.395,1.601,26.675,4.483,31.083,20.32c-0.031,5.698-0.063,11.397-0.095,17.097
		C731.294,412.477,731.011,413.561,730.643,414.624z M685.609,382.349c9.522,4.306,14.724,8.339,19.395,13.199
		c2.534,2.636,6.614,6.343,9.974,1.974c3.771-4.902,1.361-9.758-3.691-12.643C704.643,381.085,697.258,381.309,685.609,382.349z
		 M680.051,324.819c-3.057,12.974-4.794,21.323,2.804,31.335C684.271,345.332,684.972,337.076,680.051,324.819z"/>
	<path fill-rule="evenodd" clip-rule="evenodd" fill="#E97E22" d="M751.723,642.669c-1.147-1.247-2.057-3.048-3.478-3.658
		c-34.961-15.023-33.473-44.368-28.604-74.372c2.293-14.139,1.354-28.162,1.611-42.233c0.382-20.739,0.125-20.722,19.471-14.729
		c2.676,0.828,5.46,1.301,8.196,1.936C751.409,553.931,753.03,598.27,751.723,642.669z M732.663,602.272
		c1.609-0.043,3.22-0.086,4.83-0.13c3.418-25.093-0.645-50.034-0.078-75.069c-1.583,0.019-3.167,0.037-4.752,0.055
		C732.663,552.176,732.663,577.225,732.663,602.272z"/>
	<path fill-rule="evenodd" clip-rule="evenodd" fill="#CC5E19" d="M731.493,411.369c0.031-5.699,0.063-11.398,0.095-17.097
		c4.112,0.823,1.306,8.862,6.972,7.245c2.912-0.83,2.106-4.224,1.371-7.202c-6.856-27.758,6.769-42.7,35.783-39.495
		c-1.963,1.87-3.635,4.288-5.94,5.519c-11.94,6.38-26.361,10.822-18.376,29.691c10.102,23.874,18.701,28.331,41.266,20.776
		c3.193-1.07,6.471-1.896,9.708-2.832c-1.55,14.285-16.836,13.436-23.864,21.658c0.008-0.016-0.28,1.386-0.28,1.386
		s-0.181-0.103-0.169-0.095c-3.549,0.172-7.109,0.336-10.67,0.5C755.422,424.738,743.459,418.054,731.493,411.369z"/>
	<path fill-rule="evenodd" clip-rule="evenodd" fill="#666667" d="M767.388,431.424c3.561-0.164,7.121-0.328,10.67-0.5
		c-1.037,8.793-2.221,17.579-3.039,26.398c-0.593,6.401-4.191,8.625-10.127,8.529c-5.615-0.09-11.234,0.125-16.85,0.051
		c-7.131-0.096-15.193,1.674-18.283-7.781c-3.312-10.133-3.368-19.645,4.377-28.334c3.273-3.672,6.022-3.396,10.252-2.396
		C751.941,429.178,759.245,432.9,767.388,431.424z"/>
	<path fill-rule="evenodd" clip-rule="evenodd" fill="#C2C2C2" d="M744.288,153.773c2.138,6.968,4.615,13.855,6.303,20.932
		c1.392,5.824-0.115,11.385-5.013,15.212c-5.252,4.104-10.629,2.469-15.665-0.804c-2.356-1.532-4.829-3.046-6.768-5.038
		c-7.697-7.911-19.648-15.567-13.461-28.1c5.941-12.038,17.67-4.857,27.21-2.932c1.561,0.315,3.315-0.335,5.007-0.532
		C742.723,152.922,743.509,153.342,744.288,153.773z"/>
	<path fill-rule="evenodd" clip-rule="evenodd" fill="#666667" d="M443.146,386.479c7.948-21.414-3.677-42.512-1.023-63.838
		c6.98-12.121-1.271-17.579-9.99-22.831c8.909-1.217,15.76,5.581,24.195,6.212c-7.608,17.469-7.885,36.324-5.701,54.265
		c1.228,10.073-1.005,18.588-2.124,27.783C446.716,387.539,444.93,387.009,443.146,386.479z"/>
	<path fill-rule="evenodd" clip-rule="evenodd" fill="#C2C2C2" d="M807.524,336.163c-1.542,3.356-0.582,8.864-5.4,9.442
		c-5.607,0.674-5.249-4.572-5.705-8.254c-1.655-13.377-3.938-26.761-11.176-38.248c-3.976-6.311,0.281-10.203,1.489-15.125
		C793.236,301.549,803.888,317.458,807.524,336.163z"/>
	<path fill-rule="evenodd" clip-rule="evenodd" fill="#CC5E19" d="M755.319,269.815c-1.559,14.424-12.898,11.646-22.129,12.582
		c-4.945-16.627-18.539-8.829-28.879-10.226l-0.078-0.136C720.986,264.942,737.815,259.632,755.319,269.815z"/>
	<path fill-rule="evenodd" clip-rule="evenodd" fill="#C2C2C2" d="M537.403,499.85c4.125-4.254,9.43-2.798,14.341-2.807
		c41.547-0.074,83.095-0.049,124.642-0.053c-7.658,5.501-16.352,2.299-24.51,2.567c-36.643,1.208-73.35-1.592-109.975,1.582
		c-1.444-0.376-2.887-0.753-4.33-1.128L537.403,499.85z"/>
	<path fill-rule="evenodd" clip-rule="evenodd" fill="#F3F5F6" d="M458.394,391.152c5.007,0.66,10.023,1.256,15.018,1.999
		c4.379,0.649,8.086-2.917,5.968-5.267c-9.897-10.984,4.313-15.42,5.387-23.199c9.792,12.209-1.423,25.221,1.433,37.701
		C476.032,400.857,465.913,399.223,458.394,391.152z"/>
	<path fill-rule="evenodd" clip-rule="evenodd" fill="#E1DB3C" d="M777.694,486.564c2.09-15.468,3.599-26.988,5.227-38.494
		c0.579-4.09,2.023-8.226,7.1-7.304c5.009,0.911,2.372,5.282,2.463,8.263C792.89,462.203,789.802,474.064,777.694,486.564z"/>
	<path fill-rule="evenodd" clip-rule="evenodd" fill="#F3F5F6" d="M323.426,432.977c-4.165,1.105-6.598-0.336-7.005-4.756
		c4.447-7.191,0.324-13.4-2.279-19.785c3.219-0.402,6.589-0.52,6.43-5.195c-0.277-8.146,2.846-15.417,6.028-22.659
		c0.093,9.361,3.108,19.349-0.958,27.917c-4.924,10.377,11.115,7.992,8.253,16.039C330.404,427.351,326.915,430.163,323.426,432.977
		z"/>
	<path fill-rule="evenodd" clip-rule="evenodd" fill="#666667" d="M727.267,484.199c-12.598-9.438-15.697-19.309-17.979-29.668
		c-0.755-3.428-1.396-6.902,2.965-8.176c4.416-1.289,7.672,0.113,8.634,5.094C722.759,461.148,724.663,470.84,727.267,484.199z"/>
	<path fill-rule="evenodd" clip-rule="evenodd" fill="#C2C2C2" d="M521.903,471.697c37.426-4.443,74.981-0.396,112.537-0.928
		c-7.34,0.612-14.68,1.227-22.02,1.84C582.248,472.304,552.075,472,521.903,471.697z"/>
	<path fill-rule="evenodd" clip-rule="evenodd" fill="#CC5E19" d="M812.872,479.502c-4.818,11.562-15.178,9.146-24.379,9.661
		c1.738-8.13,8.057-13.339,12.57-19.705c2.816-0.024,5.624-0.05,8.432-0.073C813.061,471.944,812.476,475.887,812.872,479.502z"/>
	<path fill-rule="evenodd" clip-rule="evenodd" fill="#C2C2C2" d="M503.854,422.146c1.667,3.188,3.333,6.373,5.003,9.564
		c2.446,6.359-1.975,8.227-6.537,10.002c-2.919-10.343-13.732-16.449-14.891-27.738l-0.188,0.322
		C493.239,415.938,499.032,418.012,503.854,422.146z"/>
	<path fill-rule="evenodd" clip-rule="evenodd" fill="#E97E22" d="M502.319,441.713c4.562-1.775,8.983-3.643,6.537-10.002
		c5.107,2.253,5.629,7.64,8.019,11.732c-1.012,5.09-2.026,10.205-3.042,15.32c0,0,0.149-0.529,0.153-0.527
		C510.099,452.73,506.21,447.221,502.319,441.713z"/>
	<path fill-rule="evenodd" clip-rule="evenodd" fill="#1B2137" d="M646.557,418.042c0.229,15.639,0.456,31.276,0.689,46.913
		c-1.31,1.332-2.625,2.669-3.94,4.004c-0.176-13.34-0.352-26.678-0.523-40.021C643.323,425.054,642.931,420.852,646.557,418.042z"/>
	<path fill-rule="evenodd" clip-rule="evenodd" fill="#F3F5F6" d="M486.235,401.579c8.535,0.284,16.51,1.718,21.022,10.251
		C499.151,410.669,489.949,411.752,486.235,401.579z"/>
	<path fill-rule="evenodd" clip-rule="evenodd" fill="#CC5E19" d="M714.666,135.342c-10.392-0.007-20.784-0.015-31.175-0.028
		C693.89,131.268,704.281,131.15,714.666,135.342z"/>
	<path fill-rule="evenodd" clip-rule="evenodd" fill="#F3F5F6" d="M506.802,411.486c5.488,0.731,10.57,2.293,14.147,6.929
		c-3.007-0.693-6.017-1.386-9.026-2.079C510.215,414.719,508.509,413.104,506.802,411.486z"/>
	<path fill-rule="evenodd" clip-rule="evenodd" fill="#666667" d="M537.571,500.012c1.443,0.375,2.886,0.752,4.33,1.128
		c-0.717,1.12-1.521,3.234-2.136,3.181C537.243,504.099,537.533,501.878,537.571,500.012z"/>
	<path fill-rule="evenodd" clip-rule="evenodd" fill="#CC5E19" d="M746.122,238.82c0.245-2.785,2.058-3.804,4.554-4.042
		C750.319,237.44,748.649,238.614,746.122,238.82z"/>
	<path fill-rule="evenodd" clip-rule="evenodd" fill="#C2C2C2" d="M487.429,413.975c-0.975,0.321-1.948,0.641-2.922,0.961
		c-0.07-0.697-0.14-1.396-0.209-2.096c0.975,0.497,1.948,0.993,2.934,1.475C487.241,414.297,487.429,413.975,487.429,413.975z"/>
	<path fill-rule="evenodd" clip-rule="evenodd" fill="#666667" d="M769.876,474.196c-0.407,0.233-0.832,0.663-1.217,0.63
		c-0.373-0.033-0.705-0.542-1.055-0.841C768.36,474.054,769.118,474.121,769.876,474.196z"/>
	<path fill-rule="evenodd" clip-rule="evenodd" fill="#CC5E19" d="M679.74,136.017c-0.935,0.653-1.87,1.307-2.802,1.945
		C677.873,137.304,678.809,136.661,679.74,136.017z"/>
	<path fill-rule="evenodd" clip-rule="evenodd" fill="#666667" d="M778.227,431.019c0,0,0.288-1.401,0.28-1.386
		c0.393,0.086,0.794,0.157,1.195,0.229C779.21,430.248,778.719,430.634,778.227,431.019z"/>
	<path fill-rule="evenodd" clip-rule="evenodd" fill="#CC5E19" d="M442.911,641.938c-26.592-4.484-37.99-20.607-32.637-48.282
		c5.354-27.673,9.84-55.31,7.841-83.62c2.534-3.995-1.214-12.033,5.695-12.418c5.233-0.291,7.731,5.917,9.655,10.684
		c3.799,9.42,7.807,18.781,11.037,28.401c6.282,18.706,18.69,31.855,35.697,41.138c5.371,2.932,12.055,4.946,9.592,13.469
		c-14.373,0.548-21.352-10.796-30.381-18.867c-2.859-2.557-5.244-7.003-9.42-6.224c-5.156,0.962-2.722,6.494-4.13,9.793
		C436.62,597.667,439.602,619.775,442.911,641.938z"/>
	<path fill-rule="evenodd" clip-rule="evenodd" fill="#E97E22" d="M442.911,641.938c-3.31-22.162-6.291-44.271,2.95-65.927
		c1.408-3.299-1.026-8.831,4.13-9.793c4.176-0.779,6.561,3.667,9.42,6.224c9.029,8.071,16.008,19.415,30.381,18.867
		c1.85,8.874,1.486,17.81,0.084,26.648c-2.59,16.342-10.694,26.79-28.941,25.599c-1.421,0.204-2.839,0.417-4.259,0.627
		c-2.385,0.385-4.77,0.77-7.155,1.153c-1.248-0.764-2.493-1.527-3.736-2.286c-0.733-0.656-1.596-0.988-2.582-0.989L442.911,641.938z
		 M478.828,607.372c-4.051,6.276-11.22,11.106-9.15,19.746c0.136,0.565,3.442,1.249,4.418,0.597
		C481.493,622.764,482.645,615.797,478.828,607.372z"/>
	<path fill-rule="evenodd" clip-rule="evenodd" fill="#1B2137" d="M269.015,478.453c0.379-3.15,2.271-5.192,4.912-6.684
		c20.022,0.369,40.045,0.736,60.066,1.106c-0.79,7.226-10.868,8.648-10.402,16.655c-13.4-0.027-26.851-0.74-40.193,0.159
		C274.296,490.303,270.263,486.745,269.015,478.453z"/>
	<path fill-rule="evenodd" clip-rule="evenodd" fill="#131626" d="M269.015,478.453c1.248,8.292,5.281,11.85,14.383,11.237
		c13.343-0.899,26.793-0.187,40.193-0.159c0.075,2.135,0.153,4.269,0.229,6.401c-24.836,0.24-49.67,0.481-74.504,0.722
		c0,0,0.205-0.326,0.207-0.324C253.405,487.523,260.953,482.707,269.015,478.453z"/>
	<path fill-rule="evenodd" clip-rule="evenodd" fill="#C2C2C2" d="M249.316,496.654c24.834-0.24,49.668-0.481,74.504-0.722
		c30.254,2.837,60.733-1.944,90.934,2.682c-0.938,0.677-1.879,1.353-2.817,2.028c-48.396-0.186-96.793-0.301-145.188-0.652
		C260.852,499.949,254.225,502.382,249.316,496.654z"/>
	<path fill-rule="evenodd" clip-rule="evenodd" fill="#C2C2C2" d="M333.993,472.876c-20.021-0.37-40.044-0.737-60.066-1.106
		c0.797-1.089,1.597-2.179,2.399-3.268c35.667,0.144,71.331,0.286,106.997,0.431c0.812,0.776,1.625,1.55,2.445,2.323
		C368.515,471.793,351.253,472.334,333.993,472.876z"/>
	<path fill-rule="evenodd" clip-rule="evenodd" fill="#666667" d="M235.379,354.161c-0.136,1.95-0.271,3.901-0.401,5.854
		c-2.615,4.844-9.535,6.494-9.736,13.131c-1.126,0.663-2.252,1.326-3.378,2.004c-1.088-0.526-2.176-1.068-3.266-1.604
		c-0.048-3.28-0.095-6.565-0.141-9.851l-0.031,0.078c8.504-8.37,6.479-19.363,7.38-29.627c0.421-0.717,1.031-1.191,1.829-1.422
		c0.616,2.622,1.233,5.244,1.849,7.866C229.193,346.094,228.158,351.921,235.379,354.161z"/>
	<path fill-rule="evenodd" clip-rule="evenodd" fill="#CC5E19" d="M456.676,644.183c1.42-0.21,2.838-0.423,4.259-0.627
		C459.519,643.769,458.097,643.976,456.676,644.183z"/>
	<path fill-rule="evenodd" clip-rule="evenodd" fill="#666667" d="M411.937,500.643c0.938-0.676,1.879-1.352,2.817-2.028
		C415.039,500.987,414.604,502.365,411.937,500.643z"/>
	<path fill-rule="evenodd" clip-rule="evenodd" fill="#37536A" d="M874.407,476.215c-1.326,3.112-2.727,3.452-4.221,0.112
		C871.593,476.291,872.999,476.252,874.407,476.215z"/>
	<path fill-rule="evenodd" clip-rule="evenodd" fill="#433326" d="M677.134,537.039c-0.306,4.509-0.61,9.016-0.917,13.525
		C672.906,545.81,672.619,541.261,677.134,537.039z"/>
	<path fill-rule="evenodd" clip-rule="evenodd" fill="#CC5E19" d="M443.202,642.061c0.986,0.001,1.849,0.333,2.582,0.989
		C444.371,644.163,443.611,643.567,443.202,642.061z"/>
	<path fill-rule="evenodd" clip-rule="evenodd" fill="#CC5E19" d="M545.73,550.506c-0.275-2.036-0.551-4.074-0.821-6.104
		C547.728,546.102,547.716,548.171,545.73,550.506z"/>
	<path fill-rule="evenodd" clip-rule="evenodd" fill="#CC5E19" d="M189.272,305.646c1.223-0.995,2.443-1.99,3.666-2.987
		c7.195,2.534,10.213-4.698,15.5-6.628c-0.25,29.034-13.618,54.245-23.291,80.562c-2.936,7.986-8.797,15.917-3.096,25.091
		c-0.389,2.068-0.777,4.137-1.167,6.203c-2.907,0.578-5.264,1.882-6.206,4.913c-10.956,35.247-21.07,70.72-27.21,107.179
		c-2.128,12.637,0.409,22.242,16.404,21.715c1.166-0.038,2.441,3.271,3.665,5.023c-21.466,13.206-44.514,7.979-67.127,5.171
		c-7.266-0.902-7.146-7.539-5.348-13.565c3.722-12.468,8.061-24.696,14.549-36.026c29.729-51.902,43.662-110.002,64.227-165.467
		C178.003,325.598,189.93,318.773,189.272,305.646z"/>
	<path fill-rule="evenodd" clip-rule="evenodd" fill="#E97E22" d="M167.538,546.717c-1.224-1.753-2.499-5.062-3.665-5.023
		c-15.995,0.527-18.532-9.078-16.404-21.715c6.14-36.459,16.254-71.932,27.21-107.179c0.942-3.031,3.299-4.335,6.208-4.912
		c0.698,1.085,1.393,2.169,2.088,3.254c-0.007,3.474-0.014,6.946-0.021,10.419c-3.058,15.6-6.257,31.185-6.013,48.65
		c6.677-4.604,1.691-14.133,9.975-15.533c-1.435,29.857-11.083,58.381-14.442,87.938C172.3,544.149,169.25,545.357,167.538,546.717z
		 M168.647,524.044c1.74-13.974,3.478-27.948,5.306-42.632C159.898,491.215,157.391,504.527,168.647,524.044z"/>
	<path fill-rule="evenodd" clip-rule="evenodd" fill="#E97E22" d="M182.052,401.684c-5.701-9.174,0.16-17.104,3.096-25.091
		c9.673-26.317,23.041-51.528,23.291-80.562c3.318-5.811,7.449-10.667,14.698-13.267c5.401,16.907,7.113,33.221,4.498,49.961
		c-0.798,0.23-1.408,0.705-1.835,1.415c-6.756,8.806-8.445,18.878-7.374,29.634l0.031-0.078
		c-10.672,17.026-17.337,35.532-20.411,55.359c-0.066,0.828-0.026,1.652,0.117,2.47c-13.452,5.159-1.611,20.38-10.827,27.222
		c-6.356-9.129-0.461-18.076,0.395-27.099c4.846-14.886,9.691-29.77,14.536-44.651c12.63-19.121,12.408-41.132,13.002-62.991
		c-4.643,19.569-9.282,39.137-13.924,58.708c-7.732,8.584-11.521,19.488-17.218,29.271
		C183.419,401.997,182.728,401.897,182.052,401.684z"/>
	<path fill-rule="evenodd" clip-rule="evenodd" fill="#E1DB3C" d="M187.729,421.65c-0.854,9.02-6.75,17.967-0.394,27.096
		c-0.141,1.984-0.28,3.965-0.42,5.938c-8.283,1.395-3.298,10.924-9.975,15.527c-0.244-17.466,2.955-33.051,6.017-48.651
		C184.55,421.59,186.139,421.619,187.729,421.65z"/>
	<path fill-rule="evenodd" clip-rule="evenodd" fill="#433326" d="M198.046,419.055c3.074-19.827,9.739-38.333,20.411-55.359
		c0.046,3.285,0.093,6.57,0.141,9.851C211.492,388.596,211.288,406.77,198.046,419.055z"/>
	<path fill-rule="evenodd" clip-rule="evenodd" fill="#C2C2C2" d="M217.349,475.349c1.692,7.778,3.382,15.556,5.893,27.111
		c-10.224-9.642-7.361-18.769-10.66-26.209C214.172,475.951,215.761,475.65,217.349,475.349z"/>
	<path fill-rule="evenodd" clip-rule="evenodd" fill="#CC5E19" d="M320.091,343.194c-19.918-0.468-20.34-17.921-26.477-30.39
		c-1.751-4.356-2.869-8.687,0.607-12.797c1.566-3.731,3.143-7.463,4.72-11.194c10.559,4.179,8.358,17.743,17.162,23.302
		c2.914-7.327-1.438-15.718,3.396-22.709C319.696,307.335,319.894,325.264,320.091,343.194z"/>
	<path fill-rule="evenodd" clip-rule="evenodd" fill="#433326" d="M227.635,332.725c2.615-16.741,0.903-33.054-4.498-49.961
		c-7.249,2.601-11.38,7.456-14.698,13.267c-5.287,1.931-8.305,9.163-15.5,6.628c16.094-13.935,25.696-34.361,45.039-45.044
		c0.093,2.464,0.194,4.935,0.291,7.404c-12.354,12.045-5.759,27.055-4.568,40.212c1.087,11.992,2.11,23.4-1.107,35.009
		c-1.061-0.084-2.096,0.032-3.109,0.351C228.868,337.969,228.251,335.347,227.635,332.725z"/>
	<path fill-rule="evenodd" clip-rule="evenodd" fill="#433326" d="M298.938,288.815c-1.574,3.729-3.15,7.461-4.717,11.192
		c-6.599-16.964,0.625-28.035,15.311-35.936c1.635,0.562,3.273,1.131,4.912,1.698c-0.225,0.904-0.354,1.821-0.393,2.751
		C306.041,273.072,299.656,278.833,298.938,288.815z"/>
	<path fill-rule="evenodd" clip-rule="evenodd" fill="#345070" d="M394.993,190.524c-1.019,2.335-2.037,4.672-3.054,7.01"/>
	<path fill-rule="evenodd" clip-rule="evenodd" fill="#345070" d="M391.499,204.126c-0.021,1.163-0.04,2.323-0.063,3.484
		c-0.321-0.816-0.748-1.61-0.897-2.456C390.488,204.878,391.158,204.473,391.499,204.126z"/>
	<path fill-rule="evenodd" clip-rule="evenodd" fill="#E97E22" d="M432.669,157.813c28.347-16.934,62.372-10.86,82.945,14.806
		c21.09,26.309,20.094,57.734-2.608,82.368c-5.537,0.695-11.138,1.086-16.608,2.139c-23.717,4.567-44.273-2.993-58.758-20.817
		c-14.609-17.977-22.163-39.3-8.741-62.347C431.806,168.971,433.136,163.598,432.669,157.813z M488.994,166.405
		c-8.843-1.531-13.993,1.592-15.008,9.907c-1.055,8.648,17.181,29.885,26.041,30.267c9.405,0.403,12.771-5.772,13.232-13.937
		C514.029,178.982,502.928,167.478,488.994,166.405z"/>
	<path fill-rule="evenodd" clip-rule="evenodd" fill="#CC5E19" d="M432.669,157.813c0.467,5.785-0.863,11.158-3.771,16.149
		c-13.422,23.046-5.868,44.37,8.741,62.347c14.484,17.824,35.041,25.385,58.758,20.817c5.471-1.053,11.071-1.444,16.608-2.139
		c-4.026,13.111-20.271,12.891-26.149,23.977c0.002,0,0.093-0.116,0.093-0.116c-21.235,1.146-42.319,1.393-61.433-10.223
		c-5.1-5.829-6.497-14.998-15.565-17.249C392.44,208.304,399.993,177.2,432.669,157.813z"/>
	<path fill-rule="evenodd" clip-rule="evenodd" fill="#666667" d="M409.951,251.377c9.068,2.25,10.466,11.419,15.569,17.25
		c4.635,6.707,13.554,14.181-3.059,17.081c-2.312,0.02-4.625,0.04-6.938,0.058c-2.197-1.221-4.393-2.441-6.588-3.662
		c-1.527-3.045-5.527-4.882-4.486-9.183c4.811-4.461,5.912-9.204,1.098-14.398c0.085-1.121,0.173-2.244,0.273-3.363
		C407.202,253.899,408.576,252.639,409.951,251.377z"/>
	<path fill-rule="evenodd" clip-rule="evenodd" fill="#666667" d="M844.044,495.546c15.401-3.798,30.795-2.308,46.188,0
		C874.835,495.546,859.44,495.546,844.044,495.546z"/>
	<path fill-rule="evenodd" clip-rule="evenodd" fill="#C2C2C2" d="M192.642,288.423c-6.422,7.834-13.475,14.927-23.289,18.396
		c-2.465,0.871-5.897,1.949-6.959-1.653c-0.454-1.547,0.969-4.383,2.408-5.629c7.181-6.21,14.705-12,24.009-14.801
		C190.081,285.969,191.36,287.196,192.642,288.423z"/>
	<path fill-rule="evenodd" clip-rule="evenodd" fill="#C2C2C2" d="M224.046,239.475c2.673-8.23,1.441-17.57,7.793-26.808
		c0.264,13.648,4.732,25.736-3.593,36.751c-2.255-0.297-4.521-0.585-6.786-0.874c0.647-2.564,1.296-5.127,1.934-7.677
		c-0.008,0.017,0.769-0.499,0.769-0.499L224.046,239.475z"/>
	<path fill-rule="evenodd" clip-rule="evenodd" fill="#E1DB3C" d="M221.46,248.544c2.266,0.289,4.531,0.577,6.786,0.874
		c-1.975,2.545-3.851,6.219-7.61,4.423C218.17,252.664,219.718,250.135,221.46,248.544z"/>
	<path fill-rule="evenodd" clip-rule="evenodd" fill="#E1DB3C" d="M217.308,260.941c-0.509,0.95-0.801,2.242-1.58,2.691
		c-0.543,0.313-1.752-0.529-2.664-0.856c0.481-0.943,0.75-2.237,1.523-2.708C215.105,259.75,216.334,260.594,217.308,260.941z"/>
	<path fill-rule="evenodd" clip-rule="evenodd" fill="#E1DB3C" d="M192.642,288.423c-1.281-1.227-2.561-2.455-3.831-3.687
		c1.86-1.001,3.711-2,5.562-2.999c0.375,0.425,0.762,0.839,1.16,1.242C194.568,284.795,193.604,286.609,192.642,288.423z"/>
	<path fill-rule="evenodd" clip-rule="evenodd" fill="#E1DB3C" d="M209.59,270.841c-0.433,0.196-0.867,0.39-1.3,0.585
		c-0.123-0.693-0.246-1.387-0.369-2.078c0.483,0.073,1.068,0.01,1.413,0.269C209.585,269.805,209.515,270.418,209.59,270.841z"/>
	<path fill-rule="evenodd" clip-rule="evenodd" fill="#E1DB3C" d="M194.372,281.738c0.795-0.352,1.591-0.703,2.387-1.056
		c-0.41,0.765-0.819,1.531-1.227,2.297C195.134,282.578,194.747,282.163,194.372,281.738z"/>
	<path fill-rule="evenodd" clip-rule="evenodd" fill="#E1DB3C" d="M224.046,239.475l0.116,0.894c0,0-0.776,0.516-0.769,0.499
		C223.115,240.148,223.329,239.688,224.046,239.475z"/>
	<path fill-rule="evenodd" clip-rule="evenodd" fill="#C2C2C2" d="M120.127,265.317c-4.071,6.055-7.879,12.312-12.31,18.089
		c-2.824,3.685-6.109,10.491-11.604,5.693c-5.181-4.524,0.765-9.297,3.714-12.846c5.136-6.184,11.925-10.102,20.188-10.887
		L120.127,265.317z"/>
	<polygon fill-rule="evenodd" clip-rule="evenodd" fill="#C2C2C2" points="120.114,265.367 120.481,264.926 120.124,265.317 	"/>
	<path fill-rule="evenodd" clip-rule="evenodd" fill="#E97E22" d="M606.46,311.989c0.812,2.65,1.627,5.299,2.428,7.944
		c0.529,10.114,0.745,20.215-1.688,30.169c-9.342,10.373-17.143,22.986-33.564,23.082c-0.333-1.115-0.661-2.239-0.988-3.362
		c0,0,0.104-1.456,0.1-1.461c5.221-19.38,10.506-38.738,15.644-58.136c2.003-7.572,5.063-12.617,13.767-7.297
		c0,0-0.066-0.023-0.065-0.027C602.575,306.397,602.799,310.019,606.46,311.989z M597.036,328.681
		c-7.725,7.373-7.327,15.829-7.403,25.45C598.521,347.161,601.535,339.733,597.036,328.681z"/>
	<path fill-rule="evenodd" clip-rule="evenodd" fill="#433326" d="M513.833,458.764c1.016-5.115,2.03-10.23,3.042-15.32
		c10.21,5.109,21.026,5.872,32.309,5.689c27.615-0.449,55.242-0.147,82.86,2.722c-25.305,0-50.611-0.001-75.919,0
		C541.651,451.854,526.966,450.555,513.833,458.764z"/>
	<path fill-rule="evenodd" clip-rule="evenodd" fill="#433326" d="M607.2,350.102c2.433-9.954,2.217-20.055,1.688-30.169
		c0.793-0.106,1.569-0.063,2.327,0.134C615.751,330.861,623.761,342.12,607.2,350.102z"/>
	<path fill-rule="evenodd" clip-rule="evenodd" fill="#F3F5F6" d="M534.185,424.951c3.014,0.595,5.791,1.54,7.045,4.751
		C538.882,428.12,536.533,426.535,534.185,424.951z"/>
	<path fill-rule="evenodd" clip-rule="evenodd" fill="#F3F5F6" d="M527.399,421.578c2.374,1.21,4.748,2.419,7.122,3.628
		C531.604,425.064,528.961,424.385,527.399,421.578z"/>
	<path fill-rule="evenodd" clip-rule="evenodd" fill="#F3F5F6" d="M520.576,418.176c2.733,0.518,5.662,0.646,7.136,3.634
		C524.723,421.8,522.169,420.936,520.576,418.176z"/>
	<path fill-rule="evenodd" clip-rule="evenodd" fill="#433326" d="M572.647,369.821c0.327,1.123,0.655,2.247,0.988,3.362
		c-1.433,0.144-2.873,0.297-4.312,0.449C570.431,372.363,571.54,371.092,572.647,369.821z"/>
	<path fill-rule="evenodd" clip-rule="evenodd" fill="#433326" d="M602.157,302.928c-8.703-5.32-11.764-0.275-13.767,7.297
		c-5.138,19.397-10.423,38.756-15.644,58.136c-7.328-5.351-1.299-11.479-0.24-16.683c2.988-14.711,6.653-29.367,11.356-43.613
		c3.103-9.393-2.736-8.698-8.133-9.549c1.065-1.885,2.13-3.771,3.194-5.655c2.988-3.76,6.414-7.925-2.195-8.271
		c-8.277-0.33-16.584,0.038-24.876,0.1c3.634-10.994,15.506-2.335,23.136-9.771c-11.105-1.271-20.406,2.607-30.94-0.868
		c13.522-6.255,26.63-4.993,39.562-4.979c4.634,0.007,8.64,2.148,7.675,6.776C588.832,287.619,599.085,293.727,602.157,302.928z"/>
	<path fill-rule="evenodd" clip-rule="evenodd" fill="#433326" d="M422.462,285.708c16.612-2.9,7.693-10.375,3.059-17.081
		c19.109,11.614,40.193,11.366,61.429,10.221c0.268,7.459-5.265,8.018-10.549,8.877c-11.021-2.864-22.043-2.854-33.726-1.691
		c7.885,15.569,19.483,4.783,28.807,6.774c-8.357,4.746-1.479,6.929,1.639,9.745c-5.599,1.156-11.197,2.313-16.794,3.469
		c-8.435-0.632-15.285-7.429-24.194-6.212l-0.029-0.024c1.034-5.839-0.791-9.771-7.131-10.698
		C424.136,287.961,423.3,286.834,422.462,285.708z"/>
	<path fill-rule="evenodd" clip-rule="evenodd" fill="#F3F5F6" d="M499.124,347.748c0.62,0.567,1.651,1.515,2.683,2.461
		c-1.129,0.852-2.161,2.023-3.433,2.422c-0.653,0.203-2.287-0.805-2.521-1.561C495.267,349.18,496.45,348.076,499.124,347.748z"/>
	<path fill-rule="evenodd" clip-rule="evenodd" fill="#F3F5F6" d="M325.749,379.135c-2.997-2.523-0.615-5.66-0.965-8.484
		c2.416-2.28,3.35-4.587,0.114-6.96c-0.385-6.724-0.771-13.444-1.156-20.167c0.321-2.248,0.646-4.493,0.967-6.74
		c0.409-0.354,1.216-0.805,1.157-1.045c-0.224-0.917-0.727-1.768-1.124-2.644c-0.021-2.209-0.043-4.416-0.064-6.625
		c3.177-3.896,2.843-7.836,0.143-11.803c0.019-2.332,0.038-4.662,0.056-6.993c0.836-1.693,1.674-3.388,2.51-5.081l-0.232,0.152
		c3.995,4.372,9.928-5.872,12.851,1.242c2.558,6.222-4.794,5.809-7.122,8.638c-4.415,5.367-3.81,11.655,4.711,13.659
		c5.687,1.335,12.247-1.929,17.743,3.188c-6.63,8.805-19.304-2.61-22.929,5.493c-3.393,7.58-1.005,17.653-1.61,26.599
		c-0.86,12.721,9.352,8.018,19.232,11.182C339.744,375.453,332.747,377.294,325.749,379.135z"/>
	<path fill-rule="evenodd" clip-rule="evenodd" fill="#F3F5F6" d="M395.229,289.019c-15.499-2.322-31.045-4.386-46.485-7.05
		c-12.011-2.073-20.993-1.303-19.011,14.64c0.238,1.909-1.668,4.085-2.58,6.136l0.232-0.152c-0.865-0.337-1.753-0.413-2.662-0.228
		c-0.01-3.257-0.02-6.512-0.027-9.768c2.706-2.375,3.084-4.717-0.1-7.008c-0.275-4.564-0.549-9.128-0.823-13.688
		c1.808-0.1,3.612-0.202,5.42-0.303c16.715,1.902,33.401,3.932,49.069,10.653c6.161,0.997,12.553,1.411,16.982,6.754
		L395.229,289.019z"/>
	<path fill-rule="evenodd" clip-rule="evenodd" fill="#F3F5F6" d="M432.132,299.81c8.719,5.252,16.971,10.71,9.99,22.831
		c-8.979-14.046-24.229-20.43-36.779-30.114l-0.023,0.046c9.967-1.453,17.156,7.403,26.783,7.212L432.132,299.81z"/>
	<path fill-rule="evenodd" clip-rule="evenodd" fill="#F3F5F6" d="M351.407,346.686c-7.398,4.036-11.414,4.312-13.295-1.667
		c-0.412-1.31,0.663-3.088,1.053-4.651C342.566,342.123,345.968,343.878,351.407,346.686z"/>
	<path fill-rule="evenodd" clip-rule="evenodd" fill="#F3F5F6" d="M347.661,361.287c-1.073,0.843-1.609,1.582-2.252,1.695
		c-1.03,0.181-2.226,0.192-3.185-0.17c-1.661-0.627-1.557-1.623,0.214-1.838C343.951,360.788,345.528,361.135,347.661,361.287z"/>
	<path fill-rule="evenodd" clip-rule="evenodd" fill="#F3F5F6" d="M405.343,292.526c-3.665-0.32-7.665,0.327-10.113-3.508
		l0.016-0.013c3.789-0.03,7.968-1.157,10.074,3.567L405.343,292.526z"/>
	<path fill-rule="evenodd" clip-rule="evenodd" fill="#C2C2C2" d="M460.4,421.062c23.589,19.789,35.765,47.288,50.909,72.771
		c5.164,8.692,9.801,17.714,14.35,26.75c1.767,3.504,3.428,8.526-0.332,10.857c-4.542,2.819-6.97-2.33-8.791-5.466
		c-5.913-10.186-12.229-20.266-16.849-31.046C488.696,469.282,476.587,444.303,460.4,421.062z"/>
	<path fill-rule="evenodd" clip-rule="evenodd" fill="#433326" d="M373.158,444.527c7.12,3.461,8.508,10.055,9.272,16.988
		c-30.72,0.006-61.435,0.006-93.062,0.006c3.174-3.945,5.278-6.561,7.383-9.178c7.894,0.007,16.38,1.896,23.565-0.358
		C337.663,446.541,357.239,458.282,373.158,444.527z"/>
	<path fill-rule="evenodd" clip-rule="evenodd" fill="#131626" d="M296.752,452.344c-2.104,2.617-4.209,5.232-7.383,9.178
		c31.627,0,62.342,0,93.062-0.006c0.292,2.469,0.58,4.941,0.881,7.415c-35.654-0.143-71.318-0.285-106.985-0.429
		c-0.075-11.692,8.694-15.846,17.224-20.199C294.616,449.652,295.685,450.999,296.752,452.344z"/>
	<path fill-rule="evenodd" clip-rule="evenodd" fill="#666667" d="M296.752,452.344c-1.067-1.345-2.136-2.691-3.202-4.041
		c0.062-2.84,0.857-5.315,3.41-6.928c25.026,0.311,50.055,0.624,75.086,0.938c0.611,0.623,0.975,1.366,1.104,2.223
		c-15.911,13.747-35.487,2.006-52.833,7.45C313.132,454.24,304.646,452.351,296.752,452.344z"/>
	<path fill-rule="evenodd" clip-rule="evenodd" fill="#C2C2C2" d="M812.225,557.275c2.278,12.146,5.103,24.225,6.594,36.465
		c0.684,5.608,2.783,15.482-4.152,16.013c-8.207,0.629-5.376-9.298-5.824-14.742c-0.872-10.615-0.625-21.323-0.833-31.972
		C809.419,561.132,810.821,559.204,812.225,557.275z"/>
	<path fill-rule="evenodd" clip-rule="evenodd" fill="#E1DB3C" d="M812.225,557.275c-1.403,1.929-2.806,3.856-4.216,5.764
		c-1.691-16.536-6.079-32.881-0.57-50.12C809.034,527.703,810.63,542.489,812.225,557.275z"/>
	<path fill-rule="evenodd" clip-rule="evenodd" fill="#433326" d="M704.312,272.171c10.34,1.396,23.934-6.401,28.879,10.226
		c0.19,2.353,0.381,4.708,0.563,7.058c-0.702,0.834-0.879,1.772-0.537,2.809c-0.868,1.277-1.735,2.556-2.601,3.829
		c-1.247-1.3-2.498-2.599-3.748-3.896c0.217-2.139,0.435-4.278,0.65-6.419c-0.588-1.183-1.174-2.367-1.764-3.549
		c-5.373-4.75-12.359-5.305-16.362-0.45c-4.679,5.673-0.264,11.338,5.126,15.274c0.233,2.967,0.469,5.934,0.703,8.902
		c-0.211,17.942-0.246,35.89-0.725,53.828c-0.173,6.488,2.181,10.675,8.121,13.131c4.595,1.898,7.115-0.138,9.675-3.827
		c3.95-5.695,6.604-10.864,4.625-18.55c-3.476-13.505-9.394-26.488-9.696-40.752c1.071-2.377,2.143-4.751,3.214-7.128
		c3.786,12.958,7.532,25.929,11.382,38.869c1.658,5.577,2.923,12.426,10.664,4.896c0.6-0.889,1.206-1.785,1.812-2.678
		c0.16-2.396,0.318-4.792,0.479-7.187c7.851-7.272-2.682-15.891,1.942-23.761c8.162,6.249,10.424,15.45,11.6,24.605
		c0.935,7.263,3.797,9.919,10.775,8.389c7.26,2.891,14.559,5.837,19.563,12.206c3.224,4.101,6.927,8.807-2.261,10.452
		c-1.258-4.472-5.184-5.7-8.906-7.177c0.191-1.287-0.34-2.099-1.593-2.418c-1.388-2.604-3.808-2.957-6.416-2.895
		c-1.254-0.377-2.508-0.753-3.765-1.135c-29.015-3.209-42.64,11.733-35.783,39.491c0.735,2.979,1.541,6.372-1.371,7.202
		c-5.666,1.617-2.859-6.422-6.972-7.245c-4.408-15.837-17.688-18.72-31.083-20.32c-9.6-1.146-19.499,2.565-10.608-14.638
		c4.851-9.389-0.343-23.966-1.01-36.205c12.323,0.005,6.599,9.823,8.202,15.467c2.282,8.025-3.879,22.441,6.656,22.805
		c8.007,0.276,3.605-14.243,3.976-22.007c0.77-16.184,2.335-32.562-6.302-47.889C697.971,285.364,700.64,278.231,704.312,272.171z"
		/>
	<path fill-rule="evenodd" clip-rule="evenodd" fill="#CC5E19" d="M779.091,345.79c-6.979,1.53-9.841-1.126-10.775-8.389
		c-1.176-9.155-3.438-18.356-11.6-24.605c-4.624,7.871,5.908,16.489-1.942,23.761c-7.062-6.784-13.046-40.983-8.308-47.461
		c4.811-6.581,16.648-3.687,21.74,6.373C776.157,311.171,778.694,328.312,779.091,345.79z"/>
	<path fill-rule="evenodd" clip-rule="evenodd" fill="#C2C2C2" d="M787.487,361.271c3.723,1.477,7.648,2.705,8.906,7.177
		c1.513,5.894,2.369,11.737-2.499,17.751C784.371,379.52,781.93,371.527,787.487,361.271z"/>
	<path fill-rule="evenodd" clip-rule="evenodd" fill="#24395D" d="M730.436,302.657c-1.071,2.376-2.143,4.751-3.209,7.126
		c-3.349-3.312-7.311-4.718-12.005-3.828c-0.234-2.968-0.47-5.935-0.705-8.909c4.116-1.622,8.234-3.235,12.352-4.849
		c1.25,1.297,2.501,2.595,3.748,3.896C730.557,298.284,730.495,300.47,730.436,302.657z"/>
	<path fill-rule="evenodd" clip-rule="evenodd" fill="#CC5E19" d="M779.479,355.959c2.608-0.062,5.028,0.29,6.416,2.895
		C782.818,359.961,780.809,358.715,779.479,355.959z"/>
	<path fill-rule="evenodd" clip-rule="evenodd" fill="#CC5E19" d="M754.294,343.744c-0.606,0.893-1.213,1.789-1.812,2.678
		C753.091,345.524,753.692,344.634,754.294,343.744z"/>
	<path fill-rule="evenodd" clip-rule="evenodd" fill="#CC5E19" d="M733.217,292.264c-0.342-1.037-0.165-1.975,0.537-2.809
		C734.427,290.564,734.246,291.5,733.217,292.264z"/>
	<path fill-rule="evenodd" clip-rule="evenodd" fill="#C2C2C2" d="M551.854,284.69c8.292-0.062,16.599-0.43,24.876-0.1
		c8.609,0.345,5.184,4.511,2.195,8.271c-21.752-0.002-43.503-0.002-65.254-0.002c-0.092-0.925-0.183-1.852-0.271-2.778
		C526.217,288.284,539.034,286.488,551.854,284.69z"/>
	<path fill-rule="evenodd" clip-rule="evenodd" fill="#CC5E19" d="M471.481,292.808c-9.323-1.992-20.922,8.794-28.807-6.774
		c11.683-1.163,22.704-1.172,33.726,1.691C474.757,289.412,473.12,291.11,471.481,292.808z"/>
	<path fill-rule="evenodd" clip-rule="evenodd" fill="#433326" d="M606.46,311.989c-3.661-1.97-3.885-5.592-4.368-9.088
		c2.144,0.181,4.289,0.358,6.429,0.544C608.92,306.561,609.678,309.753,606.46,311.989z"/>
	<path fill-rule="evenodd" clip-rule="evenodd" fill="#C2C2C2" d="M685.609,382.349c11.648-1.04,19.033-1.264,25.677,2.53
		c5.053,2.885,7.463,7.74,3.691,12.643c-3.359,4.369-7.439,0.662-9.974-1.974C700.333,390.688,695.132,386.654,685.609,382.349z"/>
	<path fill-rule="evenodd" clip-rule="evenodd" fill="#E1DB3C" d="M680.051,324.819c4.921,12.257,4.221,20.513,2.804,31.335
		C675.257,346.143,676.994,337.793,680.051,324.819z"/>
	<path fill-rule="evenodd" clip-rule="evenodd" fill="#C2C2C2" d="M732.663,602.272c0-25.048,0-50.097,0-75.145
		c1.585-0.018,3.169-0.036,4.752-0.055c-0.566,25.035,3.496,49.977,0.078,75.069C735.883,602.187,734.272,602.229,732.663,602.272z"
		/>
	<path fill-rule="evenodd" clip-rule="evenodd" fill="#E1DB3C" d="M478.828,607.372c3.816,8.425,2.665,15.392-4.732,20.343
		c-0.976,0.652-4.282-0.031-4.418-0.597C467.608,618.479,474.777,613.648,478.828,607.372z"/>
	<path fill-rule="evenodd" clip-rule="evenodd" fill="#433326" d="M218.426,363.773c-1.071-10.756,0.618-20.828,7.374-29.634
		C224.905,344.41,226.93,355.403,218.426,363.773z"/>
	<path fill-rule="evenodd" clip-rule="evenodd" fill="#E1DB3C" d="M182.052,401.684c0.676,0.214,1.367,0.313,2.08,0.289
		c-0.383,3.049-0.77,6.109-1.156,9.169c-0.696-1.085-1.391-2.169-2.089-3.254C181.274,405.82,181.663,403.752,182.052,401.684z"/>
	<path fill-rule="evenodd" clip-rule="evenodd" fill="#C2C2C2" d="M168.647,524.044c-11.257-19.517-8.749-32.829,5.306-42.632
		C172.125,496.096,170.388,510.07,168.647,524.044z"/>
	<path fill-rule="evenodd" clip-rule="evenodd" fill="#C2C2C2" d="M182.975,411.142c0.388-3.06,0.774-6.12,1.157-9.169
		c5.691-9.771,9.48-20.676,17.214-29.251c0.309,1.431,0.614,2.853,0.921,4.274c-4.845,14.882-9.69,29.766-14.536,44.651
		c-1.592-0.028-3.181-0.058-4.772-0.088C182.961,418.088,182.968,414.615,182.975,411.142z"/>
	<path fill-rule="evenodd" clip-rule="evenodd" fill="#E1DB3C" d="M202.267,376.996c-0.307-1.422-0.612-2.844-0.921-4.274
		c4.641-19.579,9.28-39.147,13.923-58.716C214.675,335.864,214.896,357.875,202.267,376.996z"/>
	<path fill-rule="evenodd" clip-rule="evenodd" fill="#131626" d="M324.696,292.598c0.008,3.255,0.018,6.511,0.027,9.768
		c0.052,1.771,0.102,3.539,0.152,5.309c-0.018,2.332-0.037,4.662-0.055,6.99c-1.521,3.915-1.386,7.854-0.144,11.806
		c0.021,2.209,0.043,4.416,0.064,6.623c-0.01,1.23-0.021,2.461-0.033,3.69c-0.321,2.247-0.646,4.492-0.967,6.74
		c-1.218-0.108-2.435-0.217-3.651-0.327c-0.197-17.933-0.395-35.861-0.592-53.794c0.373-5.774,0.746-11.545,1.121-17.317
		l1.586,0.082l1.567-0.269c0.274,4.564,0.548,9.128,0.823,13.692C324.63,287.924,324.663,290.261,324.696,292.598z"/>
	<path fill-rule="evenodd" clip-rule="evenodd" fill="#C2C2C2" d="M324.898,363.69c3.235,2.373,2.302,4.68-0.114,6.96
		C324.821,368.328,324.86,366.01,324.898,363.69z"/>
	<path fill-rule="evenodd" clip-rule="evenodd" fill="#C2C2C2" d="M378.263,282.251c-15.668-6.722-32.354-8.751-49.062-10.655
		c0.017-1.63,0.024-3.26,0.033-4.889c4.93-9.224,13.467-9.524,22.326-9.028c8.977,1.642,17.624,5.771,27.108,3.614
		c8.595,3.877,17.188,7.753,25.782,11.63c-1.041,4.3,2.959,6.138,4.486,9.183c-0.475,0.678-0.943,1.36-1.41,2.045
		c-7.297-2.293-14.611-4.531-21.885-6.899C380.918,275.712,378.158,276.798,378.263,282.251z"/>
	<path fill-rule="evenodd" clip-rule="evenodd" fill="#CC5E19" d="M329.233,266.707c-0.009,1.628-0.017,3.259-0.033,4.889
		c-1.814,0.103-3.619,0.206-5.427,0.305c0-0.003-1.567,0.266-1.567,0.266s-1.586-0.082-1.588-0.08
		c-2.189-1.188-4.379-2.376-6.566-3.566c0.039-0.93,0.168-1.847,0.393-2.751C319.374,266.083,324.303,266.395,329.233,266.707z"/>
	<path fill-rule="evenodd" clip-rule="evenodd" fill="#E97E22" d="M314.052,268.521c2.188,1.189,4.377,2.378,6.566,3.566
		c-0.373,5.77-0.746,11.541-1.119,17.315c-4.833,6.995-0.481,15.386-3.396,22.713c-8.804-5.559-6.604-19.123-17.162-23.302
		C299.656,278.833,306.041,273.072,314.052,268.521z"/>
	<path fill-rule="evenodd" clip-rule="evenodd" fill="#C2C2C2" d="M488.994,166.405c13.934,1.073,25.035,12.577,24.266,26.237
		c-0.461,8.165-3.827,14.34-13.232,13.937c-8.86-0.381-27.096-21.618-26.041-30.267
		C475.001,167.997,480.151,164.875,488.994,166.405z"/>
	<path fill-rule="evenodd" clip-rule="evenodd" fill="#C2C2C2" d="M422.462,285.708c0.838,1.126,1.674,2.252,2.506,3.378
		c-3.292-0.702-7.691,1.521-9.316-3.546l-0.127,0.226C417.837,285.749,420.15,285.729,422.462,285.708z"/>
	<path fill-rule="evenodd" clip-rule="evenodd" fill="#C2C2C2" d="M408.937,282.105c2.195,1.221,4.391,2.441,6.588,3.662
		l0.127-0.226c-2.709-0.464-5.416-0.929-8.125-1.391C407.993,283.465,408.462,282.783,408.937,282.105z"/>
	<path fill-rule="evenodd" clip-rule="evenodd" fill="#C2C2C2" d="M597.036,328.681c4.499,11.053,1.484,18.48-7.403,25.45
		C589.709,344.51,589.312,336.054,597.036,328.681z"/>
	<path fill-rule="evenodd" clip-rule="evenodd" fill="#666667" d="M407.526,284.15c2.709,0.462,5.416,0.927,8.125,1.391
		c1.625,5.066,6.024,2.844,9.316,3.546c6.344,0.927,8.169,4.859,7.135,10.698c-9.627,0.19-16.816-8.665-26.783-7.212
		c-2.106-4.725-6.285-3.597-10.074-3.567c-4.43-5.343-10.821-5.758-16.982-6.754c-0.104-5.453,2.655-6.539,7.379-5
		C392.915,279.619,400.229,281.856,407.526,284.15z"/>
	<path fill-rule="evenodd" clip-rule="evenodd" fill="#C2C2C2" d="M324.678,326.47c-1.242-3.952-1.377-7.891,0.144-11.806
		C327.521,318.634,327.854,322.574,324.678,326.47z"/>
	<path fill-rule="evenodd" clip-rule="evenodd" fill="#C2C2C2" d="M324.876,307.674c-0.051-1.77-0.101-3.537-0.152-5.309
		c0.909-0.186,1.797-0.109,2.662,0.228C326.55,304.286,325.712,305.98,324.876,307.674z"/>
	<path fill-rule="evenodd" clip-rule="evenodd" fill="#C2C2C2" d="M324.711,336.783c0.01-1.229,0.021-2.46,0.031-3.69
		c0.397,0.878,0.9,1.729,1.124,2.646C325.925,335.979,325.118,336.43,324.711,336.783z"/>
	<path fill-rule="evenodd" clip-rule="evenodd" fill="#C2C2C2" d="M324.696,292.598c-0.033-2.337-0.066-4.673-0.1-7.008
		C327.78,287.881,327.402,290.223,324.696,292.598z"/>
	<path fill-rule="evenodd" clip-rule="evenodd" fill="#666667" d="M715.222,305.956c4.694-0.891,8.656,0.516,12.005,3.828
		c0.298,14.266,6.216,27.249,9.691,40.754c1.979,7.686-0.675,12.854-4.625,18.55c-2.56,3.689-5.08,5.726-9.675,3.827
		c-5.94-2.456-8.294-6.643-8.121-13.131C714.976,341.846,715.011,323.897,715.222,305.956z"/>
	<path fill-rule="evenodd" clip-rule="evenodd" fill="#666667" d="M726.868,292.198c-4.117,1.614-8.235,3.227-12.352,4.849
		c-5.388-3.929-9.803-9.594-5.124-15.267c4.003-4.855,10.989-4.3,16.356,0.448c0.585,1.183,1.178,2.367,1.77,3.551
		C727.303,287.919,727.085,290.059,726.868,292.198z"/>
	<path fill-rule="evenodd" clip-rule="evenodd" fill="#24395D" d="M727.519,285.778c-0.592-1.184-1.185-2.368-1.77-3.551
		C726.345,283.412,726.931,284.596,727.519,285.778z"/>
</g>
</svg>
