<?xml version="1.0" encoding="utf-8"?>
<!DOCTYPE svg PUBLIC "-//W3C//DTD SVG 1.1//EN" "http://www.w3.org/Graphics/SVG/1.1/DTD/svg11.dtd">
<svg version="1.1" id="Layer_1" xmlns="http://www.w3.org/2000/svg" xmlns:xlink="http://www.w3.org/1999/xlink" x="0px" y="0px"
	 width="1024px" height="1024px" viewBox="0 0 1024 1024" fill="#ffffff" xml:space="preserve">
<g>
	<path d="M190.943,311.395c11.912,0,22.061,4.233,30.441,12.695c8.462,8.464,12.696,18.611,12.696,30.443v79.126
		c0,2.219-1.109,3.328-3.328,3.328H218.92c-2.218,0-3.328-1.109-3.328-3.328v-79.126c0-6.736-2.423-12.529-7.271-17.378
		c-4.766-4.764-10.559-7.148-17.378-7.148c-10.682,0-17.831,1.768-21.446,5.299c-2.055,1.973-3.081,5.054-3.081,9.244v89.11
		c0,2.219-1.151,3.328-3.451,3.328h-11.709c-2.301,0-3.451-1.109-3.451-3.328v-89.11c0-4.19-1.028-7.271-3.081-9.244
		c-3.697-3.531-10.846-5.299-21.445-5.299c-6.821,0-12.614,2.385-17.378,7.148c-4.851,4.849-7.272,10.642-7.272,17.378v79.126
		c0,2.219-1.152,3.328-3.45,3.328H83.469c-2.219,0-3.328-1.109-3.328-3.328v-79.126c0-11.832,4.231-21.979,12.694-30.443
		c8.382-8.461,18.529-12.695,30.443-12.695c15.283,0,26.579,3.328,33.894,9.984C164.401,314.722,175.66,311.395,190.943,311.395z"/>
	<path d="M281.655,421.333c-10.354-10.433-15.529-22.965-15.529-37.59v-18.981c0-14.708,5.176-27.238,15.529-37.591
		c10.433-10.433,23.004-15.653,37.714-15.653c14.708,0,27.279,5.22,37.715,15.653c10.353,10.353,15.53,22.883,15.53,37.591v18.981
		c0,14.625-5.178,27.157-15.53,37.59c-10.436,10.436-23.007,15.653-37.715,15.653C304.659,436.987,292.088,431.77,281.655,421.333z
		 M294.72,340.236c-6.738,6.737-10.106,14.914-10.106,24.526v18.981c0,9.533,3.368,17.707,10.106,24.526
		c6.819,6.822,15.036,10.23,24.649,10.23c9.614,0,17.829-3.409,24.65-10.23c6.736-6.819,10.107-14.993,10.107-24.526v-18.981
		c0-9.612-3.371-17.789-10.107-24.526c-6.821-6.82-15.036-10.23-24.65-10.23C309.756,330.006,301.539,333.416,294.72,340.236z"/>
	<path d="M420.312,421.333c-10.436-10.353-15.652-22.881-15.652-37.59v-68.898c0-2.218,1.109-3.327,3.328-3.327h11.831
		c2.219,0,3.328,1.109,3.328,3.327v68.898c0,9.613,3.408,17.79,10.229,24.526c6.819,6.822,15.036,10.23,24.649,10.23
		c9.532,0,17.706-3.409,24.527-10.23c6.736-6.736,10.107-14.913,10.107-24.526v-68.898c0-2.218,1.149-3.327,3.45-3.327h11.832
		c2.218,0,3.328,1.109,3.328,3.327v68.898c0,14.709-5.22,27.238-15.653,37.59c-10.436,10.436-22.968,15.653-37.592,15.653
		C443.316,436.987,430.745,431.77,420.312,421.333z"/>
	<path d="M561.925,433.659c0,2.219-1.109,3.328-3.326,3.328h-11.832c-2.301,0-3.451-1.109-3.451-3.328v-77.894
		c0-12.159,4.355-22.596,13.062-31.305c8.709-8.708,19.146-13.065,31.307-13.065c9.367,0,17.951,2.794,25.76,8.382
		c4.438,3.204,8.051,6.945,10.846,11.215l3.328,4.808c0.572,0.739,0.863,1.438,0.863,2.095c0,0.985-0.576,1.891-1.727,2.711
		l-9.859,6.533c-0.494,0.328-1.068,0.492-1.727,0.492h-0.615c-0.986-0.165-1.725-0.658-2.219-1.479l-3.205-4.807
		c-1.971-2.792-4.148-4.972-6.531-6.533c-4.273-3.205-9.244-4.807-14.914-4.807c-7.148,0-13.23,2.547-18.24,7.641
		c-5.014,5.013-7.52,11.052-7.52,18.118V433.659z"/>
	<path d="M687.271,260.946c1.561,0,2.342,0.783,2.342,2.342v20.09c0,1.561-0.781,2.342-2.342,2.342h-14.543
		c-1.479,0-2.219-0.781-2.219-2.342v-20.09c0-1.559,0.74-2.342,2.219-2.342H687.271z"/>
	<path d="M828.146,433.659c0,2.219-1.068,3.328-3.205,3.328h-11.953c-2.137,0-3.205-1.109-3.205-3.328v-9.736
		c-10.107,8.709-21.734,13.064-34.881,13.064c-14.709,0-27.279-5.217-37.715-15.653c-10.354-10.433-15.529-23.004-15.529-37.714
		v-18.857c0-14.708,5.176-27.279,15.529-37.714c10.436-10.433,23.006-15.653,37.715-15.653c14.297,0,26.582,4.974,36.852,14.913
		c10.271,9.86,15.734,21.858,16.393,35.99V433.659z M774.901,418.5c9.615,0,17.83-3.409,24.65-10.23
		c6.82-6.819,10.23-15.036,10.23-24.65v-18.857c0-9.612-3.41-17.828-10.23-24.65c-6.82-6.736-15.035-10.106-24.65-10.106
		c-9.613,0-17.791,3.37-24.527,10.106c-6.82,6.822-10.229,15.038-10.229,24.65v18.857c0,9.614,3.408,17.831,10.229,24.65
		C757.11,415.091,765.288,418.5,774.901,418.5z"/>
	<path d="M966.802,433.659c0,2.219-1.109,3.328-3.328,3.328h-11.832c-2.217,0-3.326-1.109-3.326-3.328v-68.897
		c0-9.531-3.41-17.705-10.23-24.526c-6.738-6.82-14.914-10.23-24.525-10.23c-9.615,0-17.832,3.41-24.652,10.23
		c-6.818,6.821-10.229,14.995-10.229,24.526v68.897c0,2.219-1.068,3.328-3.205,3.328h-11.955c-2.219,0-3.328-1.109-3.328-3.328
		v-68.897c0-14.624,5.217-27.156,15.652-37.591c10.436-10.517,23.008-15.776,37.717-15.776c14.707,0,27.236,5.259,37.59,15.776
		c10.436,10.353,15.652,22.883,15.652,37.591V433.659z"/>
	<path d="M162.916,590.141c2.298,0,3.446,1.151,3.446,3.447V700.29c0,15.096-5.333,27.977-15.999,38.643s-23.507,16-38.521,16
		c-15.097,0-27.98-5.334-38.645-16c-10.666-10.666-15.999-23.547-15.999-38.643v-59.443c0-2.216,1.107-3.323,3.322-3.323h11.815
		c2.215,0,3.323,1.107,3.323,3.323v59.443c0,10.012,3.526,18.541,10.584,25.598c7.056,7.056,15.587,10.584,25.599,10.584
		c9.926,0,18.418-3.528,25.476-10.584c7.057-7.057,10.584-15.586,10.584-25.598V593.588c0-2.296,1.108-3.447,3.323-3.447H162.916z
		 M102.119,582.018c-2.215,0-3.323-1.107-3.323-3.322v-13.537c0-2.217,1.108-3.324,3.323-3.324h12.553
		c2.216,0,3.323,1.107,3.323,3.324v13.537c0,2.215-1.107,3.322-3.323,3.322H102.119z"/>
	<path d="M247.734,710.505c-9.764,0-17.518-2.872-23.261-8.615c-5.825-5.74-8.738-13.578-8.738-23.506V531.928
		c0-2.295,1.107-3.445,3.323-3.445h11.692c2.297,0,3.445,1.15,3.445,3.445v146.456c0,4.676,1.066,8.123,3.2,10.338
		c2.297,2.215,5.62,3.322,9.969,3.322h12.184v18.461H247.734z"/>
	<path d="M254.786,692.044h225v18.461h-225V692.044z"/>
	<path d="M570.146,585.096c16.08,0,29.824,5.703,41.229,17.105c11.404,11.405,17.107,25.15,17.107,41.23v24.121
		c0,13.458-3.775,23.958-11.324,31.507c-7.629,7.63-18.131,11.445-31.506,11.445H479.195v-18.461h106.456
		c8.451,0,14.646-1.969,18.584-5.906c3.857-3.939,5.785-10.133,5.785-18.585v-24.121c0-10.995-3.896-20.348-11.691-28.061
		c-7.795-7.795-17.189-11.691-28.184-11.691c-18.133,0-31.549,6.234-40.244,18.707l-3.447,4.799
		c-0.656,1.15-1.477,1.724-2.461,1.724c-0.656,0-1.354-0.287-2.092-0.861l-9.6-6.647c-1.149-0.737-1.724-1.599-1.724-2.583
		c0-0.657,0.247-1.395,0.739-2.216l3.445-4.8c7.303-10.585,17.559-18.133,30.768-22.646
		C553.571,586.449,561.776,585.096,570.146,585.096z M562.515,732.778c2.215,0,3.322,1.149,3.322,3.447v14.768
		c0,2.217-1.107,3.324-3.322,3.324h-12.307c-2.299,0-3.447-1.107-3.447-3.324v-14.768c0-2.298,1.148-3.447,3.447-3.447H562.515z"/>
	<path d="M728.038,710.505h-38.521v9.598c0,13.457-3.814,23.959-11.445,31.506c-7.629,7.631-18.131,11.445-31.506,11.445H633.89
		c-2.217,0-3.324-1.107-3.324-3.322v-11.814c0-2.215,1.107-3.322,3.324-3.322h12.676c8.451,0,14.604-1.971,18.461-5.908
		c3.938-3.939,5.908-10.133,5.908-18.584V593.71c0-2.295,1.146-3.446,3.445-3.446h11.814c2.215,0,3.322,1.151,3.322,3.446v98.334
		h38.521V710.505z"/>
	<path d="M725.897,692.044h93v18.461h-93V692.044z"/>
	<path d="M912.829,585.219c14.686,0,27.24,5.211,37.66,15.63c10.42,10.337,15.629,22.85,15.629,37.537v18.953
		c0,14.604-5.209,27.117-15.629,37.536c-10.42,10.42-22.975,15.63-37.66,15.63h-94.52v-18.461h41.352v-53.658
		c0-14.688,5.17-27.2,15.508-37.537C885.589,590.43,898.142,585.219,912.829,585.219z M947.659,638.386
		c0-9.6-3.406-17.764-10.215-24.492c-6.812-6.81-15.016-10.214-24.615-10.214s-17.764,3.404-24.49,10.214
		c-6.812,6.729-10.217,14.893-10.217,24.492v53.658h34.707c9.6,0,17.803-3.403,24.615-10.215
		c6.809-6.809,10.215-14.971,10.215-24.49V638.386z"/>
	<path d="M670.769,694.241V321.673c0-6.764,1.148-10.155,3.445-10.155h11.814c2.217,0,3.324,3.391,3.324,10.155v371.719
		C689.353,693.393,689.353,693.393,670.769,694.241z"/>
	<path d="M215.538,566.507V426.461c0-2.542,1.148-3.817,3.445-3.817h11.814c2.217,0,3.324,1.275,3.324,3.817v139.725
		C234.122,566.187,234.122,566.187,215.538,566.507z"/>
	<path d="M147.819,643.664V428.509c0-3.907,1.148-5.865,3.445-5.865h11.814c2.217,0,3.324,1.958,3.324,5.865v214.664
		C166.403,643.173,166.403,643.173,147.819,643.664z"/>
</g>
</svg>
