<?xml version="1.0" encoding="utf-8"?>
<!DOCTYPE svg PUBLIC "-//W3C//DTD SVG 1.1//EN" "http://www.w3.org/Graphics/SVG/1.1/DTD/svg11.dtd">
<svg version="1.1" id="Layer_1" xmlns="http://www.w3.org/2000/svg" xmlns:xlink="http://www.w3.org/1999/xlink" x="0px" y="0px"
	 width="1024px" height="1024px" viewBox="0 0 1024 1024" fill="#ffffff" xml:space="preserve">
<g>
	<path stroke="#ffffff" stroke-width="10" stroke-miterlimit="10" d="M230.133,336.387c10.58,0,19.627,3.753,27.147,11.259
		c7.519,7.44,11.278,16.44,11.278,27.002v67.356c0,1.793-0.933,2.689-2.795,2.689h-16.367c-1.864,0-2.795-0.896-2.795-2.689v-67.356
		c0-4.517-1.597-8.402-4.791-11.657c-3.261-3.188-7.153-4.783-11.677-4.783c-7.253,0-12.042,0.932-14.372,2.79
		c-1.397,1.131-2.095,2.956-2.095,5.48v75.526c0,1.793-0.933,2.689-2.795,2.689h-16.369c-1.796,0-2.694-0.896-2.694-2.689v-75.526
		c0-2.524-0.699-4.35-2.095-5.48c-2.396-1.858-7.187-2.79-14.373-2.79c-4.59,0-8.483,1.595-11.677,4.783
		c-3.261,3.255-4.891,7.141-4.891,11.657v67.356c0,1.793-0.933,2.689-2.794,2.689H139.71c-1.796,0-2.695-0.896-2.695-2.689v-67.356
		c0-10.562,3.725-19.562,11.179-27.002c7.517-7.506,16.567-11.259,27.146-11.259c11.777,0,20.925,2.357,27.446,7.074
		C209.24,338.744,218.357,336.387,230.133,336.387z"/>
	<path stroke="#ffffff" stroke-width="10" stroke-miterlimit="10" d="M308.182,431.043c-9.117-9.101-13.674-20.061-13.674-32.881
		v-15.344c0-12.819,4.557-23.747,13.674-32.781c9.114-9.101,20.092-13.65,32.935-13.65c12.841,0,23.819,4.55,32.936,13.65
		c9.116,9.034,13.674,19.962,13.674,32.781v15.344c0,12.82-4.558,23.78-13.674,32.881c-9.117,9.102-20.095,13.65-32.936,13.65
		C328.274,444.693,317.296,440.145,308.182,431.043z M323.651,365.382c-4.858,4.849-7.287,10.661-7.287,17.437v15.344
		c0,6.842,2.429,12.689,7.287,17.537c4.791,4.849,10.612,7.273,17.465,7.273s12.676-2.425,17.466-7.273
		c4.856-4.848,7.286-10.695,7.286-17.537v-15.344c0-6.775-2.43-12.588-7.286-17.437c-4.79-4.783-10.613-7.175-17.466-7.175
		C334.33,358.207,328.507,360.599,323.651,365.382z"/>
	<path stroke="#ffffff" stroke-width="10" stroke-miterlimit="10" d="M427.35,431.043c-9.117-9.101-13.674-20.061-13.674-32.881
		v-58.985c0-1.858,0.898-2.79,2.694-2.79h16.468c1.796,0,2.695,0.932,2.695,2.79v58.985c0,6.842,2.428,12.689,7.286,17.537
		c4.791,4.849,10.613,7.273,17.465,7.273c6.787,0,12.608-2.425,17.466-7.273c4.856-4.848,7.286-10.695,7.286-17.537v-58.985
		c0-1.858,0.898-2.79,2.695-2.79h16.368c1.863,0,2.795,0.932,2.795,2.79v58.985c0,12.82-4.558,23.78-13.674,32.881
		c-9.117,9.102-20.095,13.65-32.936,13.65C447.442,444.693,436.464,440.145,427.35,431.043z"/>
	<path stroke="#ffffff" stroke-width="10" stroke-miterlimit="10" d="M554.6,442.004c0,1.793-0.932,2.689-2.793,2.689h-16.27
		c-1.796,0-2.693-0.896-2.693-2.689v-66.46c0-10.761,3.824-19.96,11.477-27.6c7.719-7.705,16.967-11.558,27.746-11.558
		c8.516,0,16.169,2.458,22.955,7.373c3.594,2.591,6.82,5.913,9.682,9.964l4.49,6.676c0.4,0.665,0.6,1.262,0.6,1.794
		c0,0.797-0.432,1.461-1.297,1.992l-13.475,9.167c-0.599,0.333-1.165,0.498-1.696,0.498c-0.864,0-1.597-0.432-2.196-1.295
		l-4.49-6.676c-1.266-1.794-2.694-3.288-4.291-4.484c-3.195-2.125-6.623-3.188-10.281-3.188c-4.79,0-8.882,1.694-12.275,5.082
		c-3.461,3.388-5.191,7.473-5.191,12.255V442.004z"/>
	<path stroke="#ffffff" stroke-width="10" stroke-miterlimit="10" d="M664.088,331.604c1.859,0,2.793,0.896,2.793,2.689v103.425
		c0,10.495-3.76,19.463-11.279,26.902c-7.451,7.438-16.434,11.16-26.945,11.16h-8.186c-1.795,0-2.693-0.896-2.693-2.69V456.75
		c0-1.86,0.898-2.79,2.693-2.79h8.186c4.523,0,8.383-1.594,11.576-4.782c3.26-3.188,4.891-7.008,4.891-11.459V334.294
		c0-1.793,0.863-2.689,2.596-2.689H664.088z M664.088,290.553c1.859,0,2.793,0.932,2.793,2.79v20.824c0,1.794-0.934,2.69-2.793,2.69
		h-16.369c-1.732,0-2.596-0.896-2.596-2.69v-20.824c0-1.858,0.863-2.79,2.596-2.79H664.088z"/>
	<path stroke="#ffffff" stroke-width="10" stroke-miterlimit="10" d="M785.949,377.537v64.367c0,1.859-0.865,2.789-2.596,2.789
		h-16.469c-1.795,0-2.693-0.93-2.693-2.789v-4.484c-7.586,4.849-15.869,7.273-24.852,7.273c-12.775,0-23.721-4.549-32.836-13.65
		c-9.115-9.101-13.674-20.027-13.674-32.78v-15.345c0-12.818,4.559-23.779,13.674-32.881c9.115-9.032,20.061-13.551,32.836-13.551
		c11.979,0,22.355,3.952,31.141,11.856c8.781,7.839,13.838,17.571,15.168,29.194H785.949z M739.34,422.873
		c6.854,0,12.709-2.392,17.566-7.174c4.855-4.848,7.285-10.662,7.285-17.437v-15.345c0-6.841-2.43-12.688-7.285-17.536
		c-4.857-4.848-10.713-7.273-17.566-7.273c-6.787,0-12.609,2.426-17.465,7.273c-4.857,4.849-7.287,10.695-7.287,17.536v15.345
		c0,6.774,2.43,12.589,7.287,17.437C726.73,420.481,732.553,422.873,739.34,422.873z"/>
	<path stroke="#ffffff" stroke-width="10" stroke-miterlimit="10" d="M905.016,442.004c0,1.793-0.898,2.689-2.695,2.689h-16.367
		c-1.797,0-2.695-0.896-2.695-2.689v-59.186c0-6.775-2.43-12.588-7.285-17.437c-4.791-4.783-10.646-7.175-17.566-7.175
		c-6.787,0-12.609,2.392-17.465,7.175c-4.857,4.849-7.287,10.661-7.287,17.437v59.186c0,1.793-0.898,2.689-2.693,2.689h-16.27
		c-1.861,0-2.793-0.896-2.793-2.689v-59.186c0-12.819,4.557-23.747,13.674-32.781c9.047-9.101,19.992-13.65,32.834-13.65
		s23.82,4.55,32.936,13.65c9.117,9.034,13.674,19.962,13.674,32.781V442.004z"/>
</g>
<g>
	<path stroke="#ffffff" stroke-width="10" stroke-miterlimit="10" d="M209.963,585.295c1.764,0,2.649,0.896,2.649,2.692v89.97
		c0,13.166-4.577,24.403-13.726,33.713c-9.154,9.311-20.199,13.965-33.138,13.965c-12.878,0-23.889-4.654-33.04-13.965
		c-9.151-9.31-13.724-20.547-13.724-33.713v-51.568c0-1.86,0.881-2.792,2.644-2.792h15.981c1.828,0,2.746,0.932,2.746,2.792v51.568
		c0,7.117,2.485,13.199,7.45,18.254c4.967,5.118,10.947,7.68,17.943,7.68c7.057,0,13.069-2.562,18.037-7.68
		c4.965-5.055,7.453-11.137,7.453-18.254v-89.97c0-1.796,0.881-2.692,2.646-2.692H209.963z"/>
	<path stroke="#ffffff" stroke-width="10" stroke-miterlimit="10" d="M140.622,583.033c-1.865,0-2.796-0.897-2.796-2.693V564.48
		c0-1.795,0.931-2.692,2.796-2.692h14.986c1.798,0,2.699,0.897,2.699,2.692v15.859c0,1.796-0.901,2.693-2.699,2.693H140.622z"/>
	<path stroke="#ffffff" stroke-width="10" stroke-miterlimit="10" d="M274.921,690.857c-8.792,0-15.92-2.693-21.381-8.08
		c-5.395-5.319-8.091-12.467-8.091-21.445V539.346c0-1.86,0.898-2.793,2.696-2.793h16.485c1.799,0,2.696,0.933,2.696,2.793v121.986
		c0,2.928,0.565,4.955,1.702,6.086c1.13,1.131,3.128,1.695,5.993,1.695h14.986v21.744H274.921z"/>
	<path stroke="#ffffff" stroke-width="10" stroke-miterlimit="10" d="M268.559,669.113h254.526v21.744H268.559V669.113z"/>
	<path stroke="#ffffff" stroke-width="10" stroke-miterlimit="10" d="M557.981,582.436c13.986,0,25.911,4.953,35.77,14.861
		c9.924,9.909,14.884,21.844,14.884,35.809v19.549c0,11.97-3.396,21.312-10.19,28.029c-6.728,6.781-16.086,10.174-28.071,10.174
		h-98.216v-21.744h98.216c5.926,0,10.153-1.262,12.686-3.791c2.529-2.459,3.799-6.648,3.799-12.568v-19.648
		c0-7.913-2.832-14.695-8.495-20.348s-12.456-8.479-20.381-8.479c-13.587,0-23.545,4.555-29.872,13.665l-4.797,6.782
		c-0.599,0.864-1.3,1.297-2.098,1.297c-0.535,0-1.1-0.232-1.698-0.699l-13.388-9.176c-0.601-0.398-0.966-0.997-1.1-1.795
		c-0.066-0.199-0.099-0.398-0.099-0.6c0-0.531,0.133-1.029,0.399-1.494l4.696-6.684c5.062-7.247,11.823-12.9,20.285-16.957
		C538.764,584.496,547.99,582.436,557.981,582.436z M554.186,709.909c1.799,0,2.699,0.897,2.699,2.691v15.86
		c0,1.86-0.9,2.793-2.699,2.793h-15.089c-1.796,0-2.696-0.933-2.696-2.793v-15.86c0-1.794,0.9-2.691,2.696-2.691H554.186z"/>
	<path stroke="#ffffff" stroke-width="10" stroke-miterlimit="10" d="M692.156,690.857h-25.377v4.389
		c0,11.969-3.395,21.312-10.189,28.028c-6.727,6.782-16.086,10.173-28.074,10.173h-13.691c-1.795,0-2.695-0.932-2.695-2.792v-16.358
		c0-1.796,0.9-2.693,2.695-2.693h13.691c5.926,0,10.154-1.231,12.686-3.69c2.467-2.527,3.695-6.749,3.695-12.667V589.317
		c0-1.796,0.936-2.692,2.799-2.692h16.387c1.801,0,2.697,0.896,2.697,2.692v79.796h25.377V690.857z"/>
	<path stroke="#ffffff" stroke-width="10" stroke-miterlimit="10" d="M666.881,669.113h145.018v21.744H666.881V669.113z"/>
	<path stroke="#ffffff" stroke-width="10" stroke-miterlimit="10" d="M776.83,690.857v-21.744h35.068v-40.098
		c0-12.833,4.529-23.805,13.586-32.916c9.127-9.041,20.115-13.564,32.971-13.564c12.791,0,23.744,4.523,32.871,13.564
		c9.129,9.111,13.688,20.083,13.688,32.916v15.361c0,12.768-4.559,23.705-13.688,32.815c-9.127,9.111-20.08,13.665-32.871,13.665
		H776.83z M833.68,669.113h24.775c6.795-0.065,12.623-2.494,17.486-7.281c4.861-4.854,7.295-10.673,7.295-17.455v-15.361
		c0-6.848-2.434-12.701-7.295-17.555c-4.863-4.854-10.691-7.281-17.486-7.281c-6.859,0-12.686,2.428-17.482,7.281
		c-4.863,4.854-7.293,10.707-7.293,17.555V669.113z"/>
</g>
</svg>
