<svg xmlns="http://www.w3.org/2000/svg" viewBox="0 0 1024 1024">
<g>
    <path d="M937.188,552.079c13.396,0,20.109,5.351,20.109,16.032v93.325c0,10.688-6.714,16.031-20.109,16.031H308.025
            c-28.729,0-50.524,8.962-65.358,26.91c-12.928,15.26-19.392,33.781-19.392,55.538c0,22.901,10.294,42.56,30.883,58.973
            c20.579,16.032,44.999,24.048,73.259,24.048h151.545c12.926,0,19.391,5.343,19.391,16.031v93.326
            c0,10.68-6.465,16.031-19.391,16.031H327.417c-71.822,0-133.35-20.421-184.583-61.264c-50.754-40.46-76.131-89.517-76.131-147.146
            c0-59.928,22.734-109.55,68.231-148.863c45.487-39.308,103.174-58.974,173.091-58.974h5.028
            c-18.205-31.291-27.292-65.072-27.292-101.343V322.485c0-73.661,32.789-136.641,98.396-188.943
            c65.598-51.903,144.361-77.867,236.295-77.867c69.905,0,133.589,16.031,191.046,48.094
            c57.926,32.445,95.045,72.714,111.324,120.809l15.082,45.233c0.47,1.145,0.719,2.488,0.719,4.008c0,3.061-0.968,5.924-2.873,8.588
            c-2.872,3.435-6.942,5.725-12.209,6.87L810.78,313.324c-1.915,0.382-3.842,0.572-5.746,0.572c-3.353,0-6.714-0.764-10.055-2.29
            c-4.311-1.909-7.432-4.954-9.337-9.16l-14.364-45.233c-6.714-19.84-23.951-37.407-51.713-52.674
            c-30.165-16.405-63.202-24.621-99.113-24.621c-49.318,0-91.215,13.941-125.689,41.796c-34.474,27.865-51.711,61.462-51.711,100.77
            v128.251c0,24.048,7.42,45.805,22.265,65.271c18.673,24.048,44.529,36.071,77.567,36.071H937.188z"/>
</g>
</svg>
