<?xml version="1.0" encoding="utf-8"?>
<!-- Generator: Adobe Illustrator 24.0.0, SVG Export Plug-In . SVG Version: 6.00 Build 0)  -->
<svg version="1.1" id="Layer_1" xmlns="http://www.w3.org/2000/svg" xmlns:xlink="http://www.w3.org/1999/xlink" x="0px" y="0px"
	 viewBox="0 0 300 300" style="enable-background:new 0 0 300 300;" xml:space="preserve">
<style type="text/css">
	.st0{opacity:0.85;}
	.st1{stroke:#007AFF;stroke-width:0.25;stroke-miterlimit:10;}
</style>
<g class="st0">
	<g>
		<path class="st1" d="M245.9,298H44.5c-1.4,0-2.6-1.2-2.6-2.6V154c0-1.5,1.2-2.6,2.6-2.6c1.4,0,2.6,1.2,2.6,2.6v138.7h196.2V153.8
			c0-1.5,1.2-2.6,2.6-2.6s2.6,1.2,2.6,2.6v141.6C248.5,296.8,247.4,298,245.9,298z"/>
	</g>
	<g>
		<path class="st1" d="M273,179.9c-0.6,0-1.3-0.2-1.8-0.7L145.6,62.5L19.9,179.3c-1,1-2.7,0.9-3.7-0.2c-1-1.1-0.9-2.7,0.2-3.7
			L143.8,57c1-0.9,2.5-0.9,3.5,0l127.4,118.4c1.1,1,1.1,2.6,0.2,3.7C274.4,179.7,273.7,179.9,273,179.9z"/>
	</g>
	<g>
		<path class="st1" d="M2.6,160.6c-0.7,0-1.4-0.3-1.9-0.9c-1-1.1-0.9-2.7,0.2-3.7L125.1,40.9c1.1-1,2.7-0.9,3.7,0.2
			c1,1.1,0.9,2.7-0.2,3.7L4.3,159.9C3.8,160.4,3.2,160.6,2.6,160.6z"/>
	</g>
	<g>
		<path class="st1" d="M285.6,224.7H196c-1.4,0-2.6-1.2-2.6-2.6c0-1.5,1.2-2.6,2.6-2.6h89.6c0.9,0,9.2-0.4,9.2-11.5
			c0-11.2-9.1-11.9-10.2-11.9h-88.8c-1.4,0-2.6-1.2-2.6-2.6c0-1.5,1.2-2.6,2.6-2.6h88.9c5.3,0.2,15.3,4,15.3,17.2
			C300,221.2,290.6,224.7,285.6,224.7z"/>
	</g>
	<g>
		<path class="st1" d="M145.5,261.1c-29.8,0-54.1-24.6-54.1-54.9s24.3-54.9,54.1-54.9s54.1,24.6,54.1,54.9S175.4,261.1,145.5,261.1z
			 M145.5,156.6c-27,0-48.9,22.3-48.9,49.6c0,27.4,21.9,49.6,48.9,49.6s48.9-22.3,48.9-49.6C194.5,178.9,172.5,156.6,145.5,156.6z"
			/>
	</g>
</g>
</svg>
