<?xml version="1.0" encoding="utf-8"?>
<!-- Generator: Adobe Illustrator 24.0.0, SVG Export Plug-In . SVG Version: 6.00 Build 0)  -->
<svg version="1.1" id="Layer_1" xmlns="http://www.w3.org/2000/svg" xmlns:xlink="http://www.w3.org/1999/xlink" x="0px" y="0px"
	 viewBox="0 0 300 300" style="enable-background:new 0 0 300 300;" xml:space="preserve">
<g>
	<path d="M284.3,171.2h-33v-32.5l15,13.8c2.4,2.2,6.4,2,8.6-0.4c2.3-2.5,2.1-6.3-0.4-8.6l-38.3-35.1v-65c0-3.4-2.7-6.1-6.1-6.1
		h-39.8c-3.4,0-6.1,2.7-6.1,6.1v17.4l-34.7-31.7c-2.3-2.1-5.9-2.1-8.2,0L17.1,142.7c-2.5,2.3-2.6,6.1-0.4,8.6c1.1,1.2,2.6,1.9,4.2,2
		s3.2-0.5,4.4-1.6l14.2-13v144.2c0,3.4,2.7,6.1,6.1,6.1h199.6c3.4,0,6.1-2.7,6.1-6.1v-80.8h33c8.5,0,15.4-6.9,15.4-15.4
		C299.7,178.1,292.8,171.2,284.3,171.2z M196.4,49.5h27.7v47.7l-27.7-25.3V49.5z M239.1,276.7H51.7V127.5l93.7-85.7l93.7,85.7v43.6
		h-31.6c-2.8-11-8.4-21-16.5-29.1c-11.9-11.9-27.7-18.4-44.5-18.4l0,0c-16.8,0-32.7,6.5-44.5,18.4c-11.9,11.9-18.4,27.7-18.4,44.5
		s6.5,32.6,18.4,44.5c11.9,11.9,27.7,18.4,44.5,18.4l0,0c16.8,0,32.7-6.5,44.5-18.4c8.1-8.1,13.8-18.1,16.5-29.1h31.6V276.7z
		 M197.3,186.6c0,13.6-5.3,26.3-14.9,35.9c-19.8,19.8-52,19.8-71.9,0c-9.6-9.6-14.9-22.4-14.9-35.9c0-13.6,5.3-26.3,14.9-35.9
		c9.6-9.6,22.3-14.9,35.9-14.9s26.3,5.3,35.9,14.9C192,160.3,197.3,173,197.3,186.6z M284.3,189.9h-74.9c0.1-1.1,0.1-2.2,0.1-3.3
		s0-2.2-0.1-3.3h74.9c1.8,0,3.3,1.5,3.3,3.3C287.5,188.4,286,189.9,284.3,189.9z"/>
	<path d="M36.8,110.9l93.7-85.7c9.1-9.1,4.1-12.7,4.1-12.7c-2.3-2.1-5.9-2.1-8.2,0L2.2,126.1c-2.5,2.3-2.6,6.1-0.4,8.6
		c1.1,1.2,2.6,1.9,4.2,2c1.6,0.1,3.2-0.5,4.4-1.6l14.2-13L36.8,110.9z"/>
</g>
</svg>
