<?xml version="1.0" encoding="utf-8"?>
<!-- Generator: Adobe Illustrator 24.0.0, SVG Export Plug-In . SVG Version: 6.00 Build 0)  -->
<svg version="1.1" id="Layer_1" xmlns="http://www.w3.org/2000/svg" xmlns:xlink="http://www.w3.org/1999/xlink" x="0px" y="0px"
	 viewBox="0 0 300 300" style="enable-background:new 0 0 300 300;" xml:space="preserve">
<style type="text/css">
	.st0{opacity:0.85;}
	.st1{fill:#1C415E;}
</style>
<g class="st0">
	<g>
		<path class="st1" d="M246.24,282.5H44.56c-1.43,0-2.59-1.16-2.59-2.59V140.46c0-1.43,1.16-2.59,2.59-2.59
			c1.43,0,2.59,1.16,2.59,2.59v136.85h196.49v-137.1c0-1.43,1.16-2.59,2.59-2.59c1.43,0,2.59,1.16,2.59,2.59V279.9
			C248.84,281.34,247.68,282.5,246.24,282.5z"/>
	</g>
	<g>
		<path class="st1" d="M273.32,166.03c-0.63,0-1.26-0.23-1.75-0.68L145.73,50.13L19.89,165.35c-1.04,0.97-2.7,0.9-3.67-0.16
			c-0.97-1.06-0.89-2.7,0.16-3.67L143.98,44.7c0.99-0.91,2.51-0.91,3.51,0l127.59,116.83c1.05,0.97,1.13,2.61,0.16,3.67
			C274.72,165.75,274.02,166.03,273.32,166.03z"/>
	</g>
	<g>
		<path class="st1" d="M2.6,146.93c-0.7,0-1.4-0.28-1.92-0.85c-0.97-1.06-0.89-2.7,0.17-3.66l124.43-113.6
			c1.06-0.97,2.7-0.89,3.66,0.17c0.97,1.06,0.89,2.7-0.17,3.66L4.34,146.25C3.85,146.71,3.22,146.93,2.6,146.93z"/>
	</g>
	<g>
		<path class="st1" d="M285.95,210.2h-89.72c-1.43,0-2.59-1.16-2.59-2.59s1.16-2.59,2.59-2.59h89.72c0.93-0.01,9.24-0.44,9.24-11.35
			c0-11.01-9.14-11.73-10.19-11.78l-88.9,0c-1.43,0-2.59-1.16-2.59-2.59c0-1.43,1.16-2.59,2.59-2.59h89
			c5.34,0.18,15.28,3.95,15.28,16.97C300.38,206.74,290.94,210.2,285.95,210.2z"/>
	</g>
	<g>
		<path class="st1" d="M145.72,246.13c-29.87,0-54.16-24.3-54.16-54.17s24.3-54.16,54.16-54.16s54.17,24.3,54.17,54.16
			S175.59,246.13,145.72,246.13z M145.72,142.99c-27,0-48.97,21.97-48.97,48.97c0,27.01,21.97,48.98,48.97,48.98
			c27.01,0,48.98-21.97,48.98-48.98C194.7,164.96,172.73,142.99,145.72,142.99z"/>
	</g>
</g>
</svg>
