<svg xmlns="http://www.w3.org/2000/svg" viewBox="0 0 300 300">
<g><path d="M246.2,282.5H44.6c-1.4,0-2.6-1.2-2.6-2.6V140.5c0-1.4,1.2-2.6,2.6-2.6s2.6,1.2,2.6,2.6v136.8h196.5V140.2c0-1.4,1.2-2.6,2.6-2.6s2.6,1.2,2.6,2.6v139.7C248.8,281.3,247.7,282.5,246.2,282.5z"/></g>
<g><path d="M273.3,166c-0.6,0-1.3-0.2-1.8-0.7L145.7,50.1L19.9,165.4c-1,1-2.7,0.9-3.7-0.2s-0.9-2.7,0.2-3.7L144,44.7c1-0.9,2.5-0.9,3.5,0l127.6,116.8c1,1,1.1,2.6,0.2,3.7C274.7,165.8,274,166,273.3,166z"/></g>
<g><path d="M2.6,146.9c-0.7,0-1.4-0.3-1.9-0.9c-1-1.1-0.9-2.7,0.2-3.7L125.3,28.8c1.1-1,2.7-0.9,3.7,0.2c1,1.1,0.9,2.7-0.2,3.7L4.3,146.2C3.8,146.7,3.2,146.9,2.6,146.9z"/></g>
<g><path d="M286,210.2h-89.7c-1.4,0-2.6-1.2-2.6-2.6s1.2-2.6,2.6-2.6H286c0.9,0,9.2-0.4,9.2-11.4c0-11-9.1-11.7-10.2-11.8h-88.9c-1.4,0-2.6-1.2-2.6-2.6s1.2-2.6,2.6-2.6h89c5.3,0.2,15.3,3.9,15.3,17C300.4,206.7,290.9,210.2,286,210.2z"/></g>
<g><path d="M145.7,246.1c-29.9,0-54.2-24.3-54.2-54.2s24.3-54.2,54.2-54.2s54.2,24.3,54.2,54.2S175.6,246.1,145.7,246.1z M145.7,143c-27,0-49,22-49,49c0,27,22,49,49,49c27,0,49-22,49-49C194.7,165,172.7,143,145.7,143z"/></g>
</svg>
