<?xml version="1.0" encoding="utf-8"?>
<!-- Generator: Adobe Illustrator 24.0.0, SVG Export Plug-In . SVG Version: 6.00 Build 0)  -->
<svg version="1.1" id="Layer_1" xmlns="http://www.w3.org/2000/svg" xmlns:xlink="http://www.w3.org/1999/xlink" x="0px" y="0px"
	 viewBox="0 0 300 200" style="enable-background:new 0 0 300 200;" xml:space="preserve">
<g>
	<path d="M293,108.8c-2.5-10.9-6.1-16.7-11.4-18.1c-8.2-2.3-30.4-12.3-36.4-15.1c-15.3-32.6-45.7-37.1-76.4-37.1
		c-37.4,0-77.9,5.6-85.5,71.9c-3.4,4-5.2,9-5.2,14.3c0,11.5,9,21.1,20.5,21.9c1.3,0.1,2.6-0.3,3.5-1.2s1.5-2.1,1.5-3.4
		c0-1.8,0.2-3.7,0.7-5.7c2.7-11.6,12.9-19.7,24.8-19.7s22.1,8.1,24.8,19.7c0.5,2,0.7,3.9,0.7,5.8c0,2.6,2.1,4.6,4.6,4.6h57.6
		c2.6,0,4.6-2.1,4.6-4.6c0-1.9,0.2-3.8,0.7-5.8c2.3-10,10.3-17.5,20.4-19.3c1.6-0.3,3-0.4,4.4-0.4c0.7,0,1.5,0,2.4,0.1
		c10.9,1,19.9,8.9,22.4,19.6c0.5,2,0.7,3.9,0.7,5.8c0,2.6,2.1,4.6,4.6,4.6h0.6c6.5,0,12.7-2.9,16.9-7.9c0.5-0.4,0.8-0.9,1.1-1.4
		c2.7-3.8,4.1-8.2,4.1-12.7C299.8,118.7,297.3,113,293,108.8z M287.8,132.3C287.8,132.4,287.8,132.4,287.8,132.3
		c-1.8,2.3-4,3.8-6.6,4.6c-0.1-0.9-0.3-1.8-0.5-2.7c-3.4-14.6-15.7-25.4-30.6-26.7c-1.2-0.1-2.2-0.2-3.2-0.2c-1.9,0-3.9,0.2-6,0.6
		c-13.7,2.4-24.7,12.8-27.8,26.4c-0.2,1.1-0.4,2.1-0.6,3.2h-49c-0.1-1.1-0.3-2.1-0.6-3.2c-3.7-15.8-17.6-26.9-33.8-26.9
		s-30.3,11-33.9,26.8c-0.1,0.6-0.3,1.3-0.4,1.9c-4.4-2-7.4-6.5-7.4-11.5c0-3.4,1.3-6.6,3.7-9c0.7-0.7,1.2-1.7,1.3-2.8
		c5.8-54.4,32.4-65.1,76.4-65.1c32.4,0,56.5,5.7,68.7,33.2c0.5,1.2,1.5,2.1,2.7,2.5c3.7,1.7,29.3,13.4,39,16.1c0,0,2.7,1.2,5.1,12.6
		c0.2,1,0.8,1.9,1.6,2.6c3,2.5,4.7,6,4.7,9.8C290.5,127.4,289.5,130,287.8,132.3z"/>
	<path d="M129,122.7c-8.7,0-16.1,5.8-18.6,13.7c-0.6,1.8-0.9,3.7-0.9,5.7c0,10.7,8.7,19.4,19.4,19.4s19.4-8.7,19.4-19.4
		c0-2-0.3-3.9-0.9-5.7C145.1,128.5,137.7,122.7,129,122.7z M129,152.7c-5.9,0-10.6-4.7-10.6-10.6c0-2.1,0.6-4.1,1.7-5.7
		c1.9-2.9,5.2-4.9,8.9-4.9c3.8,0,7,2,8.9,4.9c1.1,1.6,1.7,3.6,1.7,5.7C139.6,147.9,134.9,152.7,129,152.7z"/>
	<path d="M246.7,122.7c-8.7,0-16.1,5.8-18.6,13.7c-0.6,1.8-0.9,3.7-0.9,5.7c0,10.7,8.7,19.4,19.4,19.4s19.4-8.7,19.4-19.4
		c0-2-0.3-3.9-0.9-5.7C262.8,128.5,255.4,122.7,246.7,122.7z M246.7,152.7c-5.9,0-10.6-4.7-10.6-10.6c0-2.1,0.6-4.1,1.7-5.7
		c1.9-2.9,5.2-4.9,8.9-4.9c3.8,0,7,2,8.9,4.9c1.1,1.6,1.7,3.6,1.7,5.7C257.3,147.9,252.5,152.7,246.7,152.7z"/>
	<path d="M62.4,114.7l-42.8-1c-2.1,0-3.8,1.7-3.8,3.7c0,1,0.4,2,1.1,2.7s1.7,1.1,2.7,1.1l12,0.1l10.3,0.1l17.1,0.8
		c8-0.3,7.3-4,7.3-4C66,116.2,64.3,114.7,62.4,114.7z"/>
	<path d="M62.4,98.3l-58.3-1C2,97.2,0.3,98.9,0.3,101c0,1,0.4,2,1.1,2.7s1.7,1.1,2.7,1.1l12,0.1l25.7,0.1l17.1,0.8
		c8-0.3,7.3-4,7.3-4C66,99.8,64.3,98.3,62.4,98.3z"/>
	<path d="M159,53.8c-41.2,0-52.6,25.9-52.9,39.6c0,1,0.4,2,1.1,2.8c0.7,0.7,1.7,1.2,2.8,1.2h49c2.1,0,3.9-1.7,3.9-3.9V57.7
		C162.9,55.5,161.1,53.8,159,53.8z M155.1,89.6h-40.8c1.8-8.3,9.2-26.6,40.8-28V89.6z"/>
	<path d="M171.7,53.8c-2.1,0-3.9,1.7-3.9,3.9v35.8c0,2.1,1.7,3.9,3.9,3.9h55.5c2.1,0,3.8-1.6,3.9-3.7c0-0.5,0.5-12.8-9.9-23.8
		C211,59.2,194.3,53.8,171.7,53.8z M175.6,89.6v-28c18.3,0.5,31.7,5.1,39.9,13.5c5.1,5.3,6.9,10.9,7.6,14.5H175.6z"/>
</g>
</svg>
