<svg xmlns="http://www.w3.org/2000/svg" viewBox="0 0 150 114"><defs><style>.a,.b{fill:none;stroke:#000;stroke-linecap:round;stroke-linejoin:round;}.b{fill-rule:evenodd;}</style></defs><title>2</title><line class="a" x1="100.8" y1="113.91" x2="50.04" y2="114"/><circle class="a" cx="112.59" cy="75.85" r="11.15"/><circle class="a" cx="37.66" cy="75.85" r="11.15"/><path class="b" d="M38,51.84C40.5,47.09,42.8,34,45.25,29.24c1.53-2.92,4.14-3.38,6.75-3.68a158.66,158.66,0,0,1,45.85,0c2.76.3,5.21.76,6.9,3.68,2.3,4.75,4.75,17.85,7.21,22.6C109,51.69,56.44,50.46,38,51.84Z"/><path class="b" d="M35.64,101.46v10a2.42,2.42,0,0,1-2.48,2.48H11.53a2.42,2.42,0,0,1-2.48-2.48s5.12-48.82,6-55.47h0s-7.22-4.72-1.15-11.19S25.2,48,25.2,48h.16c2.84-5.85,5.85-19.64,8.69-25.67a15.62,15.62,0,0,1,10.28-7.44,178,178,0,0,1,61.34,0A16.05,16.05,0,0,1,116,22.29c2.84,6,5.68,19.82,8.69,25.67,0,0,5.19-9.68,11.26-3.21s-1.16,11.19-1.16,11.19c.73,5.92,6.21,55.47,6.21,55.47a2.42,2.42,0,0,1-2.48,2.48H116.66a2.53,2.53,0,0,1-2.48-2.48v-10Z"/></svg>