<?xml version="1.0" encoding="utf-8"?>
<!-- Generator: Adobe Illustrator 24.0.0, SVG Export Plug-In . SVG Version: 6.00 Build 0)  -->
<svg version="1.1" id="Layer_1" xmlns="http://www.w3.org/2000/svg" xmlns:xlink="http://www.w3.org/1999/xlink" x="0px" y="0px"
	 viewBox="0 0 300 324.26" style="enable-background:new 0 0 300 324.26;" xml:space="preserve">
<style type="text/css">
	.st0{fill:none;}
</style>
<rect class="st0" width="300" height="324.26"/>
<g>
	<path d="M290.86,148.68c-3.38-14.75-8.25-22.6-15.43-24.49c-11.1-3.11-41.13-16.64-49.25-20.43c-20.7-44.11-61.84-50.2-103.38-50.2
		c-50.61,0-105.41,7.58-115.69,97.29c-4.6,5.41-7.04,12.18-7.04,19.35c0,15.56,12.18,28.55,27.74,29.63
		c1.76,0.14,3.52-0.41,4.74-1.62c1.22-1.22,2.03-2.84,2.03-4.6c0-2.44,0.27-5.01,0.95-7.71c3.65-15.7,17.46-26.66,33.56-26.66
		s29.9,10.96,33.56,26.66c0.68,2.71,0.95,5.28,0.95,7.85c0,3.52,2.84,6.22,6.22,6.22h77.94c3.52,0,6.22-2.84,6.22-6.22
		c0-2.57,0.27-5.14,0.95-7.85c3.11-13.53,13.94-23.68,27.6-26.12c2.16-0.41,4.06-0.54,5.95-0.54c0.95,0,2.03,0,3.25,0.14
		c14.75,1.35,26.93,12.04,30.31,26.52c0.68,2.71,0.95,5.28,0.95,7.85c0,3.52,2.84,6.22,6.22,6.22h0.81c8.8,0,17.18-3.92,22.87-10.69
		c0.68-0.54,1.08-1.22,1.49-1.89c3.65-5.14,5.55-11.1,5.55-17.18C300.06,162.08,296.68,154.36,290.86,148.68z M283.82,180.48
		C283.82,180.61,283.82,180.61,283.82,180.48c-2.44,3.11-5.41,5.14-8.93,6.22c-0.14-1.22-0.41-2.44-0.68-3.65
		c-4.6-19.76-21.24-34.37-41.41-36.13c-1.62-0.14-2.98-0.27-4.33-0.27c-2.57,0-5.28,0.27-8.12,0.81
		c-18.54,3.25-33.42,17.32-37.62,35.72c-0.27,1.49-0.54,2.84-0.81,4.33h-66.3c-0.14-1.49-0.41-2.84-0.81-4.33
		c-5.01-21.38-23.81-36.4-45.74-36.4s-41,14.88-45.87,36.26c-0.14,0.81-0.41,1.76-0.54,2.57c-5.95-2.71-10.01-8.8-10.01-15.56
		c0-4.6,1.76-8.93,5.01-12.18c0.95-0.95,1.62-2.3,1.76-3.79c7.85-73.61,43.84-88.09,103.38-88.09c43.84,0,76.45,7.71,92.96,44.92
		c0.68,1.62,2.03,2.84,3.65,3.38c5.01,2.3,39.65,18.13,52.77,21.79c0,0,3.65,1.62,6.9,17.05c0.27,1.35,1.08,2.57,2.16,3.52
		c4.06,3.38,6.36,8.12,6.36,13.26C287.47,173.85,286.12,177.37,283.82,180.48z"/>
	<path d="M68.95,167.49c-11.77,0-21.79,7.85-25.17,18.54c-0.81,2.44-1.22,5.01-1.22,7.71c0,14.48,11.77,26.25,26.25,26.25
		s26.25-11.77,26.25-26.25c0-2.71-0.41-5.28-1.22-7.71C90.73,175.34,80.72,167.49,68.95,167.49z M68.95,208.08
		c-7.98,0-14.34-6.36-14.34-14.34c0-2.84,0.81-5.55,2.3-7.71c2.57-3.92,7.04-6.63,12.04-6.63c5.14,0,9.47,2.71,12.04,6.63
		c1.49,2.16,2.3,4.87,2.3,7.71C83.29,201.59,76.93,208.08,68.95,208.08z"/>
	<path d="M228.21,167.49c-11.77,0-21.79,7.85-25.17,18.54c-0.81,2.44-1.22,5.01-1.22,7.71c0,14.48,11.77,26.25,26.25,26.25
		c14.48,0,26.25-11.77,26.25-26.25c0-2.71-0.41-5.28-1.22-7.71C249.99,175.34,239.98,167.49,228.21,167.49z M228.21,208.08
		c-7.98,0-14.34-6.36-14.34-14.34c0-2.84,0.81-5.55,2.3-7.71c2.57-3.92,7.04-6.63,12.04-6.63c5.14,0,9.47,2.71,12.04,6.63
		c1.49,2.16,2.3,4.87,2.3,7.71C242.55,201.59,236.06,208.08,228.21,208.08z"/>
	<path d="M109.54,74.26c-55.75,0-71.17,35.05-71.58,53.58c0,1.35,0.54,2.71,1.49,3.79c0.95,0.95,2.3,1.62,3.79,1.62h66.3
		c2.84,0,5.28-2.3,5.28-5.28V79.54C114.82,76.56,112.38,74.26,109.54,74.26z M104.26,122.7H49.06
		c2.44-11.23,12.45-35.99,55.21-37.89V122.7z"/>
	<path d="M126.72,74.26c-2.84,0-5.28,2.3-5.28,5.28v48.44c0,2.84,2.3,5.28,5.28,5.28h75.1c2.84,0,5.14-2.16,5.28-5.01
		c0-0.68,0.68-17.32-13.4-32.2C179.9,81.57,157.3,74.26,126.72,74.26z M132,122.7V84.81c24.76,0.68,42.89,6.9,53.99,18.27
		c6.9,7.17,9.34,14.75,10.28,19.62H132z"/>
</g>
</svg>
