<?xml version="1.0" encoding="utf-8"?>
<!-- Generator: Adobe Illustrator 24.0.0, SVG Export Plug-In . SVG Version: 6.00 Build 0)  -->
<svg version="1.1" id="Layer_1" xmlns="http://www.w3.org/2000/svg" xmlns:xlink="http://www.w3.org/1999/xlink" x="0px" y="0px"
	 viewBox="0 0 300 300" style="enable-background:new 0 0 300 300;" xml:space="preserve">
<style type="text/css">
	.st0{opacity:0.85;}
	.st1{fill:#1C415E;}
</style>
<g class="st0">
	<g>
		<path class="st1" d="M94.2,297.8c-1.42,0-2.57-1.15-2.57-2.57c0-1.42,1.15-2.58,2.57-2.58l113.48-0.19h0.01
			c1.42,0,2.57,1.15,2.57,2.57c0,1.42-1.15,2.58-2.57,2.58L94.2,297.8L94.2,297.8z"/>
	</g>
	<g>
		<path class="st1" d="M234.05,243.11c-15.16,0-27.49-12.34-27.49-27.5s12.33-27.5,27.49-27.5s27.5,12.33,27.5,27.5
			S249.21,243.11,234.05,243.11z M234.05,193.27c-12.32,0-22.34,10.02-22.34,22.35c0,12.32,10.02,22.35,22.34,22.35
			s22.35-10.02,22.35-22.35C256.4,203.29,246.37,193.27,234.05,193.27z"/>
	</g>
	<g>
		<path class="st1" d="M66.52,243.11c-15.16,0-27.5-12.34-27.5-27.5s12.34-27.5,27.5-27.5s27.5,12.33,27.5,27.5
			S81.68,243.11,66.52,243.11z M66.52,193.27c-12.32,0-22.35,10.02-22.35,22.35c0,12.32,10.03,22.35,22.35,22.35
			s22.35-10.02,22.35-22.35C88.87,203.29,78.84,193.27,66.52,193.27z"/>
	</g>
	<g>
		<path class="st1" d="M67.39,164.5c-0.86,0-1.67-0.43-2.15-1.15c-0.51-0.78-0.57-1.77-0.14-2.6c2.63-5.09,5.29-14.29,7.87-23.19
			c2.77-9.57,5.39-18.6,8.25-24.15c4.26-8.09,11.97-9,17.07-9.6c34.84-4.83,68.6-4.83,103.17,0.01c6.61,0.73,12.97,2.02,17.3,9.49
			c2.65,5.46,5.17,14.05,7.84,23.14c2.75,9.34,5.59,19,8.33,24.3c0.42,0.82,0.38,1.8-0.13,2.58c-0.5,0.78-1.38,1.26-2.3,1.17
			c-7.86-0.42-124.83-3-164.92-0.01C67.51,164.5,67.45,164.5,67.39,164.5z M131.41,157.92c39.98,0,83.22,0.88,97.17,1.29
			c-2.35-5.78-4.67-13.65-6.92-21.31c-2.49-8.49-5.08-17.27-7.45-22.18c-3.05-5.25-7.48-6.13-13.4-6.79
			c-34.16-4.78-67.45-4.78-101.87-0.01c-5.78,0.68-10.39,1.62-13.16,6.88c-2.62,5.07-5.29,14.29-7.87,23.2
			c-2.17,7.5-4.25,14.67-6.42,20.09C86.14,158.22,108.23,157.92,131.41,157.92z"/>
	</g>
	<g>
		<path class="st1" d="M291.89,287.97h-48.75c-4.4,0-8.12-3.72-8.12-8.12v-13.28H64.6v13.28c0,4.55-3.57,8.12-8.13,8.12H8.12
			c-4.56,0-8.12-3.57-8.12-8.12c0.13-1.23,10.83-91.37,13.3-110.09c-2.34-1.91-6.93-6.39-7.69-12.72
			c-0.62-5.16,1.4-10.28,6.01-15.19c4.12-4.39,8.59-6.29,13.21-5.69c6.13,0.8,10.94,5.94,13.66,9.63
			c2.65-6.14,5.39-13.81,8.05-21.28c3.16-8.87,6.43-18.04,9.59-24.74c5.21-9.23,13.49-15.25,24.69-18.05
			c46.43-8.01,91.58-8.01,138.19-0.04c10.94,2.73,19.2,8.72,24.75,17.85c3.13,6.62,6.03,14.88,9.1,23.63
			c2.77,7.88,5.61,15.97,8.48,22.41c2.75-3.66,7.49-8.61,13.49-9.4c4.64-0.59,9.09,1.3,13.21,5.69c4.61,4.92,6.63,10.03,6.01,15.19
			c-0.76,6.36-5.4,10.86-7.73,12.75c2.2,17.76,13.69,109.74,13.69,109.74C300.02,284.4,296.45,287.97,291.89,287.97z M62.03,261.42
			H237.6c1.42,0,2.57,1.15,2.57,2.57v15.85c0,1.7,1.57,2.97,2.97,2.97h48.75c1.76,0,2.98-1.22,2.98-2.97
			c-0.02,0.01-12.23-97.7-13.85-110.91c-0.12-0.97,0.33-1.93,1.14-2.47c0.06-0.04,6.07-4.08,6.78-10.07
			c0.42-3.57-1.15-7.28-4.66-11.03c-2.95-3.15-5.8-4.52-8.78-4.1c-5.73,0.75-10.78,8.01-12.25,10.74c-0.45,0.84-1.27,1.12-2.29,1.36
			c-0.96-0.01-1.83-0.55-2.27-1.4c-3.69-7.17-7.25-17.31-10.69-27.11c-3.03-8.62-5.88-16.77-8.77-22.9
			c-4.77-7.8-11.77-12.87-21.28-15.25c-45.86-7.83-90.42-7.83-136.07,0.04c-9.59,2.41-16.78,7.59-21.18,15.38
			c-2.96,6.31-6.19,15.36-9.31,24.11c-3.31,9.28-6.73,18.87-10.03,25.68c-0.43,0.89-1.33,1.45-2.32,1.45
			c-0.95,0-2.19-0.52-2.64-1.36c-1.47-2.74-6.55-10-12.26-10.74c-2.98-0.37-5.82,0.96-8.77,4.11c-3.53,3.76-5.09,7.48-4.66,11.06
			c0.71,5.93,6.7,10,6.76,10.04c0.95,0.62,1.37,1.77,1.07,2.85C16.41,185.1,5.25,279.19,5.13,280.15c0.02,1.45,1.24,2.67,2.99,2.67
			h48.35c1.76,0,2.98-1.22,2.98-2.97V264C59.45,262.57,60.6,261.42,62.03,261.42z"/>
	</g>
</g>
</svg>
