<svg xmlns="http://www.w3.org/2000/svg" viewBox="0 0 300 300"><path d="M94.2,297.8c-1.4,0-2.6-1.1-2.6-2.6s1.2-2.6,2.6-2.6l113.5-0.2h0c1.4,0,2.6,1.1,2.6,2.6s-1.1,2.6-2.6,2.6L94.2,297.8L94.2,297.8z"/><path d="M234.1,243.1c-15.2,0-27.5-12.3-27.5-27.5s12.3-27.5,27.5-27.5s27.5,12.3,27.5,27.5S249.2,243.1,234.1,243.1zM234.1,193.3c-12.3,0-22.3,10-22.3,22.4c0,12.3,10,22.4,22.3,22.4s22.3-10,22.3-22.4C256.4,203.3,246.4,193.3,234.1,193.3z"/><path d="M66.5,243.1c-15.2,0-27.5-12.3-27.5-27.5s12.3-27.5,27.5-27.5S94,200.4,94,215.6S81.7,243.1,66.5,243.1z M66.5,193.3c-12.3,0-22.3,10-22.3,22.4c0,12.3,10,22.4,22.3,22.4s22.3-10,22.3-22.4C88.9,203.3,78.8,193.3,66.5,193.3z"/><path d="M67.4,164.5c-0.9,0-1.7-0.4-2.2-1.1c-0.5-0.8-0.6-1.8-0.1-2.6c2.6-5.1,5.3-14.3,7.9-23.2c2.8-9.6,5.4-18.6,8.2-24.2c4.3-8.1,12-9,17.1-9.6c34.8-4.8,68.6-4.8,103.2,0c6.6,0.7,13,2,17.3,9.5c2.6,5.5,5.2,14.1,7.8,23.1c2.8,9.3,5.6,19,8.3,24.3c0.4,0.8,0.4,1.8-0.1,2.6c-0.5,0.8-1.4,1.3-2.3,1.2c-7.9-0.4-124.8-3-164.9,0C67.5,164.5,67.4,164.5,67.4,164.5z M131.4,157.9c40,0,83.2,0.9,97.2,1.3c-2.4-5.8-4.7-13.6-6.9-21.3c-2.5-8.5-5.1-17.3-7.4-22.2c-3.1-5.2-7.5-6.1-13.4-6.8c-34.2-4.8-67.4-4.8-101.9,0c-5.8,0.7-10.4,1.6-13.2,6.9c-2.6,5.1-5.3,14.3-7.9,23.2c-2.2,7.5-4.2,14.7-6.4,20.1C86.1,158.2,108.2,157.9,131.4,157.9z"/><path d="M291.9,288h-48.8c-4.4,0-8.1-3.7-8.1-8.1v-13.3H64.6v13.3c0,4.5-3.6,8.1-8.1,8.1H8.1c-4.6,0-8.1-3.6-8.1-8.1c0.1-1.2,10.8-91.4,13.3-110.1c-2.3-1.9-6.9-6.4-7.7-12.7c-0.6-5.2,1.4-10.3,6-15.2c4.1-4.4,8.6-6.3,13.2-5.7c6.1,0.8,10.9,5.9,13.7,9.6c2.7-6.1,5.4-13.8,8-21.3c3.2-8.9,6.4-18,9.6-24.7c5.2-9.2,13.5-15.2,24.7-18c46.4-8,91.6-8,138.2,0c10.9,2.7,19.2,8.7,24.8,17.8c3.1,6.6,6,14.9,9.1,23.6c2.8,7.9,5.6,16,8.5,22.4c2.8-3.7,7.5-8.6,13.5-9.4c4.6-0.6,9.1,1.3,13.2,5.7c4.6,4.9,6.6,10,6,15.2c-0.8,6.4-5.4,10.9-7.7,12.8c2.2,17.8,13.7,109.7,13.7,109.7C300,284.4,296.5,288,291.9,288z M62,261.4h175.6c1.4,0,2.6,1.1,2.6,2.6v15.9c0,1.7,1.6,3,3,3h48.8c1.8,0,3-1.2,3-3c0,0-12.2-97.7-13.9-110.9c-0.1-1,0.3-1.9,1.1-2.5c0.1,0,6.1-4.1,6.8-10.1c0.4-3.6-1.1-7.3-4.7-11c-3-3.1-5.8-4.5-8.8-4.1c-5.7,0.8-10.8,8-12.2,10.7c-0.5,0.8-1.3,1.1-2.3,1.4c-1,0-1.8-0.6-2.3-1.4c-3.7-7.2-7.2-17.3-10.7-27.1c-3-8.6-5.9-16.8-8.8-22.9c-4.8-7.8-11.8-12.9-21.3-15.2c-45.9-7.8-90.4-7.8-136.1,0c-9.6,2.4-16.8,7.6-21.2,15.4c-3,6.3-6.2,15.4-9.3,24.1c-3.3,9.3-6.7,18.9-10,25.7c-0.4,0.9-1.3,1.4-2.3,1.4c-1,0-2.2-0.5-2.6-1.4c-1.5-2.7-6.5-10-12.3-10.7c-3-0.4-5.8,1-8.8,4.1c-3.5,3.8-5.1,7.5-4.7,11.1c0.7,5.9,6.7,10,6.8,10c1,0.6,1.4,1.8,1.1,2.9C16.4,185.1,5.2,279.2,5.1,280.1c0,1.5,1.2,2.7,3,2.7h48.3c1.8,0,3-1.2,3-3V264C59.5,262.6,60.6,261.4,62,261.4z"/></svg>