<?xml version="1.0" encoding="utf-8"?>
<!-- Generator: Adobe Illustrator 24.0.0, SVG Export Plug-In . SVG Version: 6.00 Build 0)  -->
<svg version="1.1" id="Layer_1" xmlns="http://www.w3.org/2000/svg" xmlns:xlink="http://www.w3.org/1999/xlink" x="0px" y="0px"
	 viewBox="0 0 300 300" style="enable-background:new 0 0 300 300;" xml:space="preserve">
<style type="text/css">
	.st0{opacity:0.85;}
	.st1{stroke:#007AFF;stroke-width:0.25;stroke-miterlimit:10;}
</style>
<g class="st0">
	<g>
		<path class="st1" d="M297.1,298.4H2.9c-1.6,0-2.9-1.3-2.9-2.9V133.1c0-1.6,1.3-2.9,2.9-2.9s2.9,1.3,2.9,2.9v159.5h288.4V136.8
			c0-1.6,1.3-2.9,2.9-2.9s2.9,1.3,2.9,2.9v158.7C300,297.1,298.7,298.4,297.1,298.4z"/>
	</g>
	<g>
		<path class="st1" d="M297.1,153.3c-1.6,0-2.9-1.3-2.9-2.9V95.5H5.8v52.8c0,1.6-1.3,2.9-2.9,2.9S0,149.9,0,148.3V92.6
			c0-1.6,1.3-2.9,2.9-2.9h294.2c1.6,0,2.9,1.3,2.9,2.9v57.8C300,152,298.7,153.3,297.1,153.3z"/>
	</g>
	<g>
		<path class="st1" d="M219,91.6c-1.6,0-2.9-1.3-2.9-2.9V62.8H83.9v23.9c0,1.6-1.3,2.9-2.9,2.9s-2.9-1.3-2.9-2.9V59.9
			c0-1.6,1.3-2.9,2.9-2.9h138c1.6,0,2.9,1.3,2.9,2.9v28.8C221.9,90.3,220.6,91.6,219,91.6z"/>
	</g>
	<g>
		<path class="st1" d="M178.5,219.5h-57c-1.6,0-2.9-1.3-2.9-2.9v-21c0-1.6,1.3-2.9,2.9-2.9s2.9,1.3,2.9,2.9v18.1h51.3v-20.2
			c0-1.6,1.3-2.9,2.9-2.9s2.9,1.3,2.9,2.9v23C181.4,218.2,180.1,219.5,178.5,219.5z"/>
	</g>
	<g>
		<g>
			<path class="st1" d="M151.4,159.1c-0.2,0-0.4,0-0.6-0.1L3.4,128c-1.6-0.3-2.6-1.9-2.2-3.4c0.3-1.6,1.9-2.6,3.4-2.2l147.5,31
				c1.6,0.3,2.6,1.9,2.2,3.4C154,158.2,152.8,159.1,151.4,159.1z"/>
		</g>
		<g>
			<path class="st1" d="M152.6,159.1c-1.3,0-2.5-0.9-2.8-2.3c-0.3-1.6,0.6-3.1,2.2-3.4l143.5-31c1.5-0.3,3.1,0.7,3.4,2.2
				c0.3,1.6-0.6,3.1-2.2,3.4l-143.5,31C153,159.1,152.8,159.1,152.6,159.1z"/>
		</g>
		<g>
			<path class="st1" d="M151.4,192.9c-0.2,0-0.4,0-0.6-0.1l-147.5-31c-1.6-0.3-2.6-1.9-2.2-3.4c0.3-1.6,1.9-2.6,3.4-2.2l147.5,31
				c1.6,0.3,2.6,1.9,2.2,3.4C154,192,152.8,192.9,151.4,192.9z"/>
		</g>
		<g>
			<path class="st1" d="M152.6,192.9c-1.3,0-2.5-0.9-2.8-2.3c-0.3-1.6,0.6-3.1,2.2-3.4l143.5-31c1.5-0.3,3.1,0.7,3.4,2.2
				c0.3,1.6-0.6,3.1-2.2,3.4l-143.5,31C153,192.9,152.8,192.9,152.6,192.9z"/>
		</g>
	</g>
</g>
</svg>
