<svg xmlns="http://www.w3.org/2000/svg" viewBox="0 0 300 300">
<g><path d="M297.5,275.2H2.5c-1.4,0-2.5-1.1-2.5-2.5V128.9c0-1.4,1.1-2.5,2.5-2.5s2.5,1.1,2.5,2.5v141.2h289.8V132.2c0-1.4,1.1-2.5,2.5-2.5s2.5,1.1,2.5,2.5v140.4C300,274,298.9,275.2,297.5,275.2z"/></g>
<g><path d="M297.5,146.6c-1.4,0-2.5-1.1-2.5-2.5v-43.2H5.1v41.4c0,1.4-1.1,2.5-2.5,2.5S0,143.7,0,142.3V98.3c0-1.4,1.1-2.5,2.5-2.5h294.9c1.4,0,2.5,1.1,2.5,2.5v45.8C300,145.5,298.9,146.6,297.5,146.6z"/></g>
<g><path d="M210.6,97.4c-1.4,0-2.5-1.1-2.5-2.5V72.1H91.9v21c0,1.4-1.1,2.5-2.5,2.5s-2.5-1.1-2.5-2.5V69.5c0-1.4,1.1-2.5,2.5-2.5h121.3c1.4,0,2.5,1.1,2.5,2.5v25.3C213.2,96.3,212.1,97.4,210.6,97.4z"/></g>
<g><path d="M175.1,204.8h-50.1c-1.4,0-2.5-1.1-2.5-2.5v-18.4c0-1.4,1.1-2.5,2.5-2.5s2.5,1.1,2.5,2.5v15.9h45V182c0-1.4,1.1-2.5,2.5-2.5s2.5,1.1,2.5,2.5v20.3C177.6,203.6,176.5,204.8,175.1,204.8z"/></g>
<g><path d="M151.3,151.7c-0.2,0-0.4,0-0.5-0.1L3,124.4c-1.4-0.3-2.2-1.6-2-3c0.3-1.4,1.7-2.3,3-2l147.8,27.3c1.4,0.3,2.2,1.6,2,3C153.5,150.9,152.4,151.7,151.3,151.7z"/></g>
<g><path d="M152.3,151.7c-1.2,0-2.2-0.8-2.5-2c-0.3-1.4,0.6-2.7,1.9-3L296,119.4c1.4-0.3,2.7,0.6,3,1.9c0.3,1.4-0.6,2.7-2,3l-144.2,27.3C152.6,151.7,152.4,151.7,152.3,151.7z"/></g>
<g><path d="M151.3,181.4c-0.2,0-0.4,0-0.5-0.1L3,154.1c-1.4-0.3-2.2-1.6-2-3c0.3-1.4,1.7-2.2,3-2l147.8,27.3c1.4,0.3,2.2,1.6,2,3C153.5,180.6,152.4,181.4,151.3,181.4z"/></g>
<g><path d="M152.3,181.4c-1.2,0-2.2-0.8-2.5-2c-0.3-1.4,0.6-2.7,1.9-3L296,149.1c1.4-0.3,2.7,0.6,3,1.9c0.3,1.4-0.6,2.7-2,3l-144.2,27.3C152.6,181.4,152.4,181.4,152.3,181.4z"/></g>
<g><path d="M93.3,300c-1.4,0-2.6-1.1-2.6-2.6s1.2-2.6,2.6-2.6l113.5-0.2h0c1.4,0,2.6,1.1,2.6,2.6s-1.1,2.6-2.6,2.6L93.3,300L93.3,300z"/></g>
</svg>
