<?xml version="1.0" encoding="utf-8"?>
<!-- Generator: Adobe Illustrator 24.0.0, SVG Export Plug-In . SVG Version: 6.00 Build 0)  -->
<svg version="1.1" id="Layer_1" xmlns="http://www.w3.org/2000/svg" xmlns:xlink="http://www.w3.org/1999/xlink" x="0px" y="0px"
	 viewBox="0 0 300 300" style="enable-background:new 0 0 300 300;" xml:space="preserve">
<style type="text/css">
	.st0{opacity:0.85;}
	.st1{fill:#1C415E;}
</style>
<g class="st0">
	<g>
		<path class="st1" d="M297.46,275.16H2.54c-1.4,0-2.54-1.14-2.54-2.54V128.91c0-1.4,1.14-2.54,2.54-2.54s2.54,1.14,2.54,2.54
			v141.17h289.83V132.17c0-1.4,1.14-2.54,2.54-2.54s2.54,1.14,2.54,2.54v140.45C300,274.03,298.86,275.16,297.46,275.16z"/>
	</g>
	<g>
		<path class="st1" d="M297.46,146.62c-1.4,0-2.54-1.14-2.54-2.54v-43.22H5.08v41.39c0,1.4-1.14,2.54-2.54,2.54S0,143.66,0,142.26
			V98.33c0-1.4,1.14-2.54,2.54-2.54h294.92c1.4,0,2.54,1.14,2.54,2.54v45.76C300,145.49,298.86,146.62,297.46,146.62z"/>
	</g>
	<g>
		<path class="st1" d="M210.65,97.42c-1.4,0-2.54-1.14-2.54-2.54V72.09H91.89v20.97c0,1.4-1.14,2.54-2.54,2.54s-2.54-1.14-2.54-2.54
			V69.54c0-1.4,1.14-2.54,2.54-2.54h121.29c1.4,0,2.54,1.14,2.54,2.54v25.34C213.19,96.29,212.05,97.42,210.65,97.42z"/>
	</g>
	<g>
		<path class="st1" d="M175.06,204.78h-50.12c-1.4,0-2.54-1.14-2.54-2.54v-18.43c0-1.4,1.14-2.54,2.54-2.54s2.54,1.14,2.54,2.54
			v15.89h45.04v-17.71c0-1.4,1.14-2.54,2.54-2.54s2.54,1.14,2.54,2.54v20.26C177.6,203.64,176.47,204.78,175.06,204.78z"/>
	</g>
	<g>
		<g>
			<path class="st1" d="M151.26,151.73c-0.17,0-0.35-0.02-0.53-0.05L2.95,124.39c-1.38-0.29-2.25-1.64-1.97-3.01
				c0.29-1.37,1.66-2.26,3.01-1.96l147.78,27.28c1.38,0.29,2.25,1.64,1.97,3.01C153.49,150.9,152.43,151.73,151.26,151.73z"/>
		</g>
		<g>
			<path class="st1" d="M152.28,151.73c-1.17,0-2.22-0.81-2.48-2c-0.3-1.37,0.57-2.73,1.95-3.02L296,119.43
				c1.36-0.3,2.73,0.58,3.02,1.95c0.3,1.37-0.57,2.73-1.95,3.02l-144.25,27.28C152.64,151.71,152.45,151.73,152.28,151.73z"/>
		</g>
		<g>
			<path class="st1" d="M151.26,181.42c-0.17,0-0.35-0.02-0.53-0.05L2.95,154.09c-1.38-0.29-2.25-1.64-1.97-3.01
				c0.29-1.38,1.66-2.25,3.01-1.96l147.78,27.28c1.38,0.29,2.25,1.64,1.97,3.01C153.49,180.6,152.43,181.42,151.26,181.42z"/>
		</g>
		<g>
			<path class="st1" d="M152.28,181.42c-1.17,0-2.22-0.81-2.48-2c-0.3-1.37,0.57-2.73,1.95-3.02L296,149.12
				c1.36-0.29,2.73,0.58,3.02,1.95c0.3,1.37-0.57,2.73-1.95,3.02l-144.25,27.28C152.64,181.41,152.45,181.42,152.28,181.42z"/>
		</g>
	</g>
</g>
<g class="st0">
	<path class="st1" d="M93.26,300c-1.42,0-2.57-1.15-2.57-2.57c0-1.42,1.15-2.58,2.57-2.58l113.48-0.19h0.01
		c1.42,0,2.57,1.15,2.57,2.57c0,1.42-1.15,2.58-2.57,2.58L93.26,300L93.26,300z"/>
</g>
</svg>
