<?xml version="1.0" encoding="utf-8"?>
<!-- Generator: Adobe Illustrator 24.0.0, SVG Export Plug-In . SVG Version: 6.00 Build 0)  -->
<svg version="1.1" id="Layer_1" xmlns="http://www.w3.org/2000/svg" xmlns:xlink="http://www.w3.org/1999/xlink" x="0px" y="0px"
	 viewBox="0 0 300 300" style="enable-background:new 0 0 300 300;" xml:space="preserve">
<path d="M297.5,79.7c-1.3-3.2-3.4-6.2-6-8.6c-2.6-2.6-5.6-4.7-8.6-6c-1.7-0.9-3.4-1.5-5.2-1.7c-1.9-0.4-3.6-0.6-5.6-0.6h-58.6v-8.4
	c0-1.5-0.2-3-0.4-4.3c-0.4-1.3-0.9-2.6-1.3-3.9c-1.1-2.1-2.8-4.3-4.5-6c-1.9-1.9-4.1-3.4-6.2-4.5c-1.3-0.4-2.6-0.9-3.6-1.3
	c-1.5-0.2-2.8-0.4-4.3-0.4h-86.5c-1.5,0-2.8,0.2-4.3,0.4c-1.1,0.4-2.4,0.9-3.6,1.3c-2.1,1.1-4.3,2.6-6.2,4.5
	c-1.7,1.7-3.2,3.9-4.3,6.2c-0.6,1.1-1.1,2.4-1.3,3.6c-0.2,1.5-0.4,2.8-0.4,4.3v8.4H27.7c-1.9,0-3.6,0.2-5.6,0.6
	c-1.7,0.2-3.4,0.9-5.2,1.7c-3,1.5-6,3.4-8.6,6c-2.4,2.6-4.5,5.4-6,8.6C1.7,81.3,1,83,0.6,84.8C0.2,86.6,0,88.5,0,90.4v147.7
	c0,1.7,0.2,3.6,0.6,5.4c0.4,1.7,1.1,3.4,1.7,5.2c1.5,3.2,3.6,6.2,6,8.6c2.6,2.6,5.6,4.7,8.6,6.2c1.7,0.9,3.4,1.3,5.2,1.7
	c1.9,0.4,3.6,0.9,5.6,0.9h244.4c1.9,0,3.6-0.4,5.6-0.9c1.7-0.4,3.4-0.9,5.2-1.7c3.2-1.5,6-3.6,8.6-6c2.6-2.6,4.7-5.6,6.2-8.8
	c0.6-1.5,1.3-3.2,1.7-5.2c0.4-1.7,0.6-3.6,0.6-5.4V90.4c0-1.9-0.2-3.9-0.6-5.6C299,82.9,298.3,81.2,297.5,79.7z M102.4,54.4
	c0-0.2,0-0.4,0-0.4c0.2-0.2,0.2-0.4,0.2-0.9c0.4-0.4,0.9-1.1,1.3-1.5c0.4-0.4,1.1-0.9,1.5-1.3c0.4,0,0.6-0.2,0.9-0.2
	c0,0,0.2,0,0.4,0h86.5c0.2,0,0.4,0,0.6,0c0.2,0,0.4,0.2,0.6,0.2c0.6,0.4,1.3,0.9,1.7,1.3c0.4,0.4,0.9,1.1,1.3,1.7
	c0,0.2,0,0.4,0.2,0.6c0,0,0,0.2,0,0.4v8.4h-95.3L102.4,54.4L102.4,54.4z M16.5,88.5c0.2-0.6,0.4-1.3,0.6-1.9
	c0.6-1.5,1.7-2.8,2.8-3.9c1.1-1.3,2.6-2.1,3.9-2.8c0.6-0.4,1.3-0.6,2.1-0.6c0.4-0.2,1.1-0.2,1.7-0.2H272c0.6,0,1.3,0,1.9,0.2
	c0.6,0,1.3,0.2,1.9,0.6c1.5,0.6,2.8,1.5,4.1,2.8c1.1,1.1,2.1,2.4,2.8,3.9c0.1,0.3,0.2,0.6,0.3,0.8l-131.1,40.8L16.4,89.1
	C16.4,88.9,16.5,88.7,16.5,88.5z M283.7,238.1c0,0.4,0,1.1-0.2,1.7c-0.2,0.6-0.4,1.3-0.6,1.9c-0.9,1.5-1.7,2.8-3,4.1
	c-1.1,1.1-2.4,2.1-3.9,2.8c-0.6,0.4-1.3,0.6-2.1,0.6c-0.4,0.2-1.1,0.4-1.7,0.4H27.7c-0.6,0-1.3-0.2-1.7-0.4c-0.6,0-1.3-0.2-1.9-0.6
	c-1.5-0.6-2.8-1.7-4.1-2.8c-1.1-1.1-2.1-2.6-2.8-4.1c-0.2-0.6-0.4-1.3-0.6-1.9c-0.2-0.6-0.2-1.3-0.2-1.7V137.7L120,166
	c-0.2,0.6-0.4,1.3-0.6,1.9c-0.2,1.3-0.4,2.6-0.4,3.9v7.3c0,1.1,0.2,2.4,0.4,3.6s0.6,2.4,1.3,3.4c0.9,2.1,2.1,4.1,3.9,5.6
	c1.5,1.7,3.4,3.2,5.6,4.1c1.1,0.6,2.1,1.1,3.4,1.3c1.3,0.4,2.6,0.6,3.9,0.6h25.3c1.3,0,2.6-0.2,3.9-0.6c1.1-0.2,2.4-0.6,3.4-1.1
	c2.1-1.1,4.1-2.4,5.6-4.1c1.7-1.7,3.2-3.6,4.1-5.6c0.6-1.3,0.9-2.4,1.3-3.4c0.2-1.3,0.4-2.6,0.4-3.9v-7.3c0-1.5-0.2-2.8-0.4-4.1
	c-0.2-0.4-0.4-1.1-0.6-1.7l103.4-28.1v100.3H283.7z M137.1,181.2c-0.4-0.2-0.6-0.4-1.1-0.6c-0.2-0.4-0.4-0.9-0.6-1.3
	c-0.2,0-0.2-0.2-0.2-0.2v-7.3v-0.2c0,0,0-0.2,0.2-0.2c0-0.4,0.4-0.6,0.6-1.1c0.2-0.2,0.6-0.4,0.9-0.6c0.2,0,0.2,0,0.4,0h25.3
	c0.2,0,0.2,0,0.4,0c0.4,0.2,0.6,0.4,1.1,0.9c0.2,0.2,0.6,0.6,0.9,0.9c0,0.2,0,0.2,0,0.4v7.1c0,0.2,0,0.2-0.2,0.4
	c-0.2,0.4-0.4,0.9-0.6,1.1c-0.4,0.4-0.9,0.6-1.3,0.9h-0.2v0.2h-25.3v-0.2h-0.3V181.2z M283.7,120.9L165,153.3c-0.9,0-1.5,0-2.4,0
	h-25.3c-0.6,0-1.5,0-2.1,0L16.3,120.7v-14.8L87.2,126l21.3,5.9l40.6,12.4c1.4,0.4,2.8,0.4,4.2,0c0.8,0,1.7-0.1,2.5-0.3l35.7-11.2
	l21.1-6.4l71.1-22.2V120.9z"/>
</svg>
