<?xml version="1.0" encoding="utf-8"?>
<!-- Generator: Adobe Illustrator 24.0.0, SVG Export Plug-In . SVG Version: 6.00 Build 0)  -->
<svg version="1.1" id="Layer_1" xmlns="http://www.w3.org/2000/svg" xmlns:xlink="http://www.w3.org/1999/xlink" x="0px" y="0px"
	 viewBox="0 0 300 300" style="enable-background:new 0 0 300 300;" xml:space="preserve">
<style type="text/css">
	.st0{opacity:0.85;}
	.st1{fill-rule:evenodd;clip-rule:evenodd;stroke:#007AFF;stroke-width:0.25;stroke-miterlimit:10;}
	.st2{stroke:#007AFF;stroke-width:0.25;stroke-miterlimit:10;}
</style>
<g class="st0">
	<g>
		<path class="st1" d="M29.1,231.3c32.5,20.7,61.7,40.8,93.2,62.4l0,0c9.4,6.5,20.2,4.6,27-0.2c3.4-2.4,5.9-5.5,6.7-8.9
			c0.2-1.1,0.3-2.2,0.1-3.2c5.8,1.3,12,0.3,17.2-1.9l0,0l0,0c4.6-1.9,8.4-4.8,10-8.5c0.6-1.3,0.8-2.7,0.7-4.2
			c7.3,2.2,15.1,1,20.7-2.1c3.8-2.1,6.7-5.1,7.3-9c0.2-1.5,0.1-3-0.4-4.5c2.3,0.6,4.6,1,7,1.3c5.3,0.5,10.5-0.1,14.4-2.2l0,0
			c8.3-4.9,7.9-16.5,1.3-20.3c4.6-0.2,9.5-1.4,14.2-2.9c6-1.9,11.8-4.2,17.6-6.7l-30.4-70.3c-15.2-5.3-24.9-9-41.4-15l0,0
			c-17.4-6.8-32.9-13-47.7-10.4l0,0c-16.6,2.9-30.4,11.2-40,20.6l-40.8-2.2L29.1,231.3z M192.5,138.8L192.5,138.8
			c20,7.5,31.3,11.5,44,15.9l27.7,61.8c-3.3,1.4-10,4.3-17.1,6.5c-6.3,1.7-13.6,3.7-19.5,2.1c-20.9-15.8-38.2-30.6-58.7-45
			c-6.9-4.8-12.2-8.3-15.9-9.3l0,0c-12.9-3.7-26.1,5-33.6,7.4l0,0c-11.8,3.8-18.5,2.7-21.3,0c-1.4-1.4-2.1-3.2-2.2-5.7
			c0-2.5,0.7-5.6,2.2-9c6-13.4,24.4-30.5,48.9-34.9l0,0C162.8,126.4,180.5,134.3,192.5,138.8L192.5,138.8z M64.9,147.2l37.9,2
			c-3.6,4.2-6.4,8.5-8.3,12.6c-1.7,3.8-2.6,7.4-2.6,10.7s1.1,6.5,3.4,8.7c4.6,4.4,13,5,25.4,1l0,0c8.6-2.8,20.7-10.4,31.3-7.4l0,0
			c2.1,0.6,7.8,4,14.6,8.7c22.3,15.3,41.2,33,64.1,49l0,0c5.6,3.3,5.7,10.7,0.1,14l0,0c-2.8,1.5-7.4,2.2-12.1,1.7
			c-4.7-0.4-9.6-1.9-12.9-3.9l0,0c0,0,0,0-0.1,0l-46.2-28.7c-2.8-1.6-4.6,2.1-2.1,3.5l46.2,28.7c3.7,2.7,4.5,5.1,4.2,7.1
			c-0.3,2.1-2.2,4.3-5.2,6c-5.9,3.3-15.6,4.1-22.9-0.7c-11.7-7.7-24.1-15.4-36-23c-2.6-1.5-4.4,2.2-2.2,3.5
			c11.9,7.6,24,15.3,35.8,22.9c1.3,1,2,1.9,2.3,2.7c0.4,0.9,0.3,1.8-0.2,2.9c-0.9,2.1-3.9,4.7-7.9,6.4l0,0c-6.2,2.7-14.5,3.1-20-0.6
			c-12.5-7.9-25.3-16-36-22.8c-2.7-1.5-4.1,2.2-2.1,3.5l35.9,22.7l0,0c2.6,1.6,3,3.2,2.5,5.2c-0.4,2-2.2,4.5-5,6.4
			c-5.5,3.9-14.5,5.7-22.4,0.2l0,0c-31.6-21.8-61.1-42-93.8-62.8l32.7-72.9c0.1-0.2,0.1-0.3,0.1-0.5L64.9,147.2L64.9,147.2z"/>
	</g>
	<g>
		<path class="st2" d="M277.3,243c-0.8,0-1.5-0.4-1.9-1.2L225,131.3c-0.5-1.1,0-2.3,1-2.8s2.3,0,2.7,1L279.2,240
			c0.5,1.1,0,2.3-1,2.8C277.9,243,277.6,243,277.3,243z"/>
	</g>
	<g>
		<path class="st2" d="M297.9,243c-0.8,0-1.5-0.4-1.9-1.2l-50.5-110.5c-0.5-1.1,0-2.3,1-2.8s2.3,0,2.7,1L299.8,240
			c0.5,1.1,0,2.3-1,2.8C298.5,243,298.2,243,297.9,243z"/>
	</g>
	<g>
		<path class="st2" d="M22.7,243c-0.3,0-0.6-0.1-0.9-0.2c-1-0.5-1.5-1.7-1-2.8l50.5-110.5c0.5-1.1,1.7-1.5,2.7-1s1.5,1.7,1,2.8
			L24.5,241.8C24.2,242.6,23.4,243,22.7,243z"/>
	</g>
	<g>
		<path class="st2" d="M2.1,243c-0.3,0-0.6-0.1-0.9-0.2c-1-0.5-1.5-1.7-1-2.8l50.5-110.5c0.5-1.1,1.7-1.5,2.7-1s1.5,1.7,1,2.8
			L3.9,241.8C3.6,242.6,2.8,243,2.1,243z"/>
	</g>
</g>
</svg>
