<svg xmlns="http://www.w3.org/2000/svg" viewBox="0 0 150 114"><defs><style>.a{fill:none;stroke:#000;stroke-linecap:round;stroke-linejoin:round;}</style></defs><title>4</title><line class="a" x1="17.41" y1="85.39" x2="60.37" y2="114"/><line class="a" x1="134.57" y1="77.3" x2="91.61" y2="105.92"/><path class="a" d="M117.28,23.67S93.62,13.14,80.9,10.24,55.61,15.76,47.53,27.11s1,18.62,13.28,11.53c0,0,10.06-5.87,17.31-.9s33.22,25.17,33.22,25.17,4,3.06,10.42-.2a61,61,0,0,0,9.59-5.77"/><line class="a" x1="51.42" y1="22.39" x2="35.56" y2="21.73"/><path class="a" d="M19.84,63.63l40.93,32.5s5.74,2.9,10.71,0S75.8,90,75.61,89.31a10.35,10.35,0,0,0,11-1.15c5.75-4.2,2.46-7.62,2.46-7.62s6,3.54,11.61-.2,2.19-7.16,2.19-7.16,6.64,3.36,11.55-.32a6.31,6.31,0,0,0,2.08-8.38"/><line class="a" x1="102.89" y1="73.18" x2="77.8" y2="57.51"/><line class="a" x1="89.09" y1="80.54" x2="69.48" y2="68.28"/><line class="a" x1="75.61" y1="89.31" x2="55.16" y2="75.76"/><line class="a" x1="111.93" y1="11.78" x2="137.58" y2="67.86"/><line class="a" x1="123.77" y1="2.61" x2="149.42" y2="58.7"/><line class="a" x1="16.4" y1="73.18" x2="37.92" y2="15.39"/><line class="a" x1="0.58" y1="74.26" x2="22.1" y2="16.46"/></svg>