<?xml version="1.0" encoding="utf-8"?>
<!-- Generator: Adobe Illustrator 24.0.0, SVG Export Plug-In . SVG Version: 6.00 Build 0)  -->
<svg version="1.1" id="Layer_1" xmlns="http://www.w3.org/2000/svg" xmlns:xlink="http://www.w3.org/1999/xlink" x="0px" y="0px"
	 viewBox="0 0 300 300" style="enable-background:new 0 0 300 300;" xml:space="preserve">
<style type="text/css">
	.st0{opacity:0.85;}
	.st1{fill-rule:evenodd;clip-rule:evenodd;fill:#1C415E;}
	.st2{fill:#1C415E;}
</style>
<g class="st0">
	<g>
		<path class="st1" d="M11.03,202.51c39.05,30.75,57.83,52.36,97.74,80.21c0,0,0,0,0,0c11.98,8.37,25.68,5.86,34.26-0.27
			c4.29-3.06,7.47-7.03,8.44-11.49c0.3-1.36,0.32-2.77,0.09-4.14c7.3,1.72,13.26,0.41,19.75-2.39c0,0,0,0,0,0c0,0,0,0,0.01,0
			c5.81-2.49,10.63-6.13,12.7-10.92c0.72-1.66,1.04-3.52,0.85-5.37c9.29,2.86,16.17,1.25,23.22-2.75c4.76-2.7,8.44-6.61,9.25-11.53
			c0.31-1.91,0.12-3.86-0.56-5.79c2.86,0.8,5.85,1.34,8.83,1.62c6.68,0.61,10.26-0.07,15.25-2.85c0,0,0,0,0,0
			c10.58-6.31,9.96-21.15,1.69-26.09c5.77-0.29,12.04-1.85,18.04-3.71c7.61-2.41,15.02-5.45,22.34-8.63l-38.55-90.3
			c-19.3-6.85-28.49-11.54-49.45-19.29c0,0,0,0,0,0c-22.07-8.7-36.71-16.76-55.46-13.4c0,0,0,0,0,0
			c-21.01,3.78-38.52,14.33-50.69,26.51l-31.26-2.77L11.03,202.51z M250.37,102.06 M192.85,83.7
			C192.85,83.7,192.86,83.7,192.85,83.7c25.42,9.62,36.73,14.75,52.76,20.42l35.16,79.44c-4.17,1.8-12.64,5.57-21.68,8.37
			c-8,2.21-17.2,4.7-24.78,2.67c-26.45-20.25-42.38-39.28-68.34-57.82c-8.74-6.22-13.44-10.64-18.09-11.98c0,0-0.01,0-0.01,0
			c-16.38-4.75-33.12,6.45-42.6,9.57c0,0,0,0,0,0c-14.96,4.91-23.48,3.48-27.07-0.03c-1.79-1.76-2.7-4.14-2.73-7.36
			c-0.04-3.22,0.89-7.2,2.81-11.52c7.67-17.25,30.94-39.2,62.07-44.79c0,0,0,0,0,0C160.23,67.68,177.58,77.81,192.85,83.7
			L192.85,83.7z M56.51,94.44L84.06,97c-4.58,5.38-8.13,10.93-10.49,16.23c-2.15,4.84-3.33,9.51-3.28,13.8
			c0.05,4.3,1.43,8.31,4.34,11.16c5.83,5.71,16.44,6.41,32.18,1.25c0,0,0,0,0,0c10.96-3.6,26.31-13.39,39.65-9.51c0,0,0.01,0,0.01,0
			c2.73,0.78,7.93,5.1,16.55,11.23c28.3,19.62,46.2,42.4,75.29,62.97c0,0,0.01,0.01,0.01,0.01c7.06,4.21,7.26,13.7,0.06,17.99
			c0,0,0,0,0,0c-3.53,1.97-6.35,2.78-12.34,2.23c-5.99-0.55-12.13-2.41-16.33-5.04l0,0c-0.03,0-0.06-0.05-0.09-0.06l-53.54-36.83
			c-3.51-2.09-5.84,2.67-2.68,4.55l53.53,36.83c4.71,3.51,5.73,6.52,5.3,9.14c-0.43,2.63-2.77,5.55-6.64,7.74
			c-7.46,4.23-16.74,5.28-26.06-0.92c-14.86-9.85-28.5-19.8-43.6-29.56c-3.3-1.97-5.59,2.82-2.74,4.52
			c15.09,9.81,28.47,19.61,43.43,29.45c1.63,1.24,2.49,2.43,2.88,3.45c0.46,1.22,0.4,2.31-0.19,3.67c-1.18,2.71-4.95,6.03-9.97,8.18
			c0,0-0.01,0-0.01,0c-7.89,3.41-16.4,4-23.31-0.82c-15.89-10.19-32.05-20.55-45.65-29.27c-3.39-1.93-5.25,2.79-2.72,4.53
			l45.57,29.21c0,0,0,0,0,0c3.24,2.07,3.77,4.06,3.21,6.63c-0.56,2.57-2.82,5.76-6.34,8.27c-7.03,5.01-18.38,7.27-28.44,0.24
			c0,0,0,0,0,0c-40.1-27.98-58.69-48.25-98.47-80.69l41.48-93.66c0.09-0.19,0.15-0.4,0.19-0.61L56.51,94.44L56.51,94.44z"/>
	</g>
	<g>
		<path class="st2" d="M297.39,217.53c-0.98,0-1.92-0.58-2.37-1.56L230.94,74.02c-0.61-1.35-0.05-2.96,1.26-3.58
			c1.31-0.62,2.86-0.04,3.47,1.3l64.08,141.95c0.61,1.35,0.05,2.96-1.26,3.58C298.13,217.45,297.76,217.53,297.39,217.53z"/>
	</g>
	<g>
		<path class="st2" d="M297.39,163.66c-0.98,0-1.92-0.58-2.37-1.56l-44.4-97.47c-0.61-1.35-0.05-2.96,1.26-3.58
			c1.31-0.62,2.86-0.04,3.47,1.3l44.4,97.47c0.61,1.35,0.05,2.96-1.26,3.58C298.13,163.58,297.76,163.66,297.39,163.66z"/>
	</g>
	<g>
		<path class="st2" d="M2.61,217.53c0.98,0,1.92-0.58,2.37-1.56L69.06,74.02c0.61-1.35,0.05-2.96-1.26-3.58
			c-1.31-0.62-2.86-0.04-3.47,1.3L0.25,213.69c-0.61,1.35-0.05,2.96,1.26,3.58C1.87,217.45,2.24,217.53,2.61,217.53z"/>
	</g>
	<g>
		<path class="st2" d="M2.61,163.66c0.98,0,1.92-0.58,2.37-1.56l44.4-97.47c0.61-1.35,0.05-2.96-1.26-3.58
			c-1.31-0.62-2.86-0.04-3.47,1.3l-44.4,97.47c-0.61,1.35-0.05,2.96,1.26,3.58C1.87,163.58,2.24,163.66,2.61,163.66z"/>
	</g>
</g>
<g class="st0">
	<path class="st2" d="M29.07,252.75c-1.09-0.96-1.2-2.62-0.24-3.72c0.96-1.09,2.62-1.21,3.72-0.25l51.06,44.42l0,0
		c1.09,0.96,1.2,2.62,0.24,3.72c-0.96,1.09-2.62,1.21-3.72,0.25L29.07,252.75L29.07,252.75z"/>
</g>
<g class="st0">
	<path class="st2" d="M250.65,256.34c1.26-0.73,1.69-2.34,0.96-3.6c-0.73-1.26-2.34-1.7-3.6-0.97l-58.76,33.56l0,0
		c-1.26,0.73-1.69,2.34-0.96,3.6c0.73,1.26,2.34,1.7,3.6,0.97L250.65,256.34L250.65,256.34z"/>
</g>
</svg>
