<svg xmlns="http://www.w3.org/2000/svg" viewBox="0 0 300 300">
<g><path d="M11,202.5c39,30.8,57.8,52.4,97.7,80.2l0,0c12,8.4,25.7,5.9,34.3-0.3c4.3-3.1,7.5-7,8.4-11.5c0.3-1.4,0.3-2.8,0.1-4.1c7.3,1.7,13.3,0.4,19.8-2.4l0,0c0,0,0,0,0,0c5.8-2.5,10.6-6.1,12.7-10.9c0.7-1.7,1-3.5,0.9-5.4c9.3,2.9,16.2,1.2,23.2-2.8c4.8-2.7,8.4-6.6,9.2-11.5c0.3-1.9,0.1-3.9-0.6-5.8c2.9,0.8,5.9,1.3,8.8,1.6c6.7,0.6,10.3-0.1,15.2-2.9l0,0c10.6-6.3,10-21.1,1.7-26.1c5.8-0.3,12-1.9,18-3.7c7.6-2.4,15-5.4,22.3-8.6l-38.6-90.3c-19.3-6.8-28.5-11.5-49.4-19.3l0,0c-22.1-8.7-36.7-16.8-55.5-13.4l0,0c-21,3.8-38.5,14.3-50.7,26.5l-31.3-2.8L11,202.5z M192.9,83.7C192.9,83.7,192.9,83.7,192.9,83.7c25.4,9.6,36.7,14.8,52.8,20.4l35.2,79.4c-4.2,1.8-12.6,5.6-21.7,8.4c-8,2.2-17.2,4.7-24.8,2.7c-26.4-20.2-42.4-39.3-68.3-57.8c-8.7-6.2-13.4-10.6-18.1-12h0c-16.4-4.8-33.1,6.4-42.6,9.6l0,0c-15,4.9-23.5,3.5-27.1,0c-1.8-1.8-2.7-4.1-2.7-7.4c0-3.2,0.9-7.2,2.8-11.5c7.7-17.2,30.9-39.2,62.1-44.8l0,0C160.2,67.7,177.6,77.8,192.9,83.7L192.9,83.7z M56.5,94.4L84.1,97c-4.6,5.4-8.1,10.9-10.5,16.2c-2.2,4.8-3.3,9.5-3.3,13.8c0.1,4.3,1.4,8.3,4.3,11.2c5.8,5.7,16.4,6.4,32.2,1.2l0,0c11-3.6,26.3-13.4,39.7-9.5h0c2.7,0.8,7.9,5.1,16.6,11.2c28.3,19.6,46.2,42.4,75.3,63l0,0c7.1,4.2,7.3,13.7,0.1,18l0,0c-3.5,2-6.4,2.8-12.3,2.2c-6-0.6-12.1-2.4-16.3-5l0,0c0,0-0.1-0.1-0.1-0.1l-53.5-36.8c-3.5-2.1-5.8,2.7-2.7,4.6l53.5,36.8c4.7,3.5,5.7,6.5,5.3,9.1c-0.4,2.6-2.8,5.6-6.6,7.7c-7.5,4.2-16.7,5.3-26.1-0.9c-14.9-9.9-28.5-19.8-43.6-29.6c-3.3-2-5.6,2.8-2.7,4.5c15.1,9.8,28.5,19.6,43.4,29.4c1.6,1.2,2.5,2.4,2.9,3.4c0.5,1.2,0.4,2.3-0.2,3.7c-1.2,2.7-4.9,6-10,8.2h0c-7.9,3.4-16.4,4-23.3-0.8c-15.9-10.2-32.1-20.6-45.7-29.3c-3.4-1.9-5.2,2.8-2.7,4.5l45.6,29.2l0,0c3.2,2.1,3.8,4.1,3.2,6.6s-2.8,5.8-6.3,8.3c-7,5-18.4,7.3-28.4,0.2l0,0c-40.1-28-58.7-48.2-98.5-80.7l41.5-93.7c0.1-0.2,0.2-0.4,0.2-0.6L56.5,94.4L56.5,94.4z"/></g>
<g><path d="M297.4,217.5c-1,0-1.9-0.6-2.4-1.6L230.9,74c-0.6-1.3-0.1-3,1.3-3.6s2.9,0,3.5,1.3l64.1,142c0.6,1.4,0,3-1.3,3.6C298.1,217.4,297.8,217.5,297.4,217.5z"/></g>
<g><path d="M297.4,163.7c-1,0-1.9-0.6-2.4-1.6l-44.4-97.5c-0.6-1.3-0.1-3,1.3-3.6c1.3-0.6,2.9,0,3.5,1.3l44.4,97.5c0.6,1.4,0,3-1.3,3.6C298.1,163.6,297.8,163.7,297.4,163.7z"/></g>
<g><path d="M2.6,217.5c1,0,1.9-0.6,2.4-1.6L69.1,74c0.6-1.3,0.1-3-1.3-3.6c-1.3-0.6-2.9,0-3.5,1.3l-64.1,142c-0.6,1.4,0,3,1.3,3.6C1.9,217.4,2.2,217.5,2.6,217.5z"/></g>
<g><path d="M2.6,163.7c1,0,1.9-0.6,2.4-1.6l44.4-97.5c0.6-1.3,0-3-1.3-3.6c-1.3-0.6-2.9,0-3.5,1.3L0.2,159.8c-0.6,1.4,0,3,1.3,3.6C1.9,163.6,2.2,163.7,2.6,163.7z"/></g>
<g><path d="M29.1,252.8c-1.1-1-1.2-2.6-0.2-3.7c1-1.1,2.6-1.2,3.7-0.2l51.1,44.4l0,0c1.1,1,1.2,2.6,0.2,3.7c-1,1.1-2.6,1.2-3.7,0.2L29.1,252.8L29.1,252.8z"/></g>
<g><path d="M250.6,256.3c1.3-0.7,1.7-2.3,1-3.6c-0.7-1.3-2.3-1.7-3.6-1l-58.8,33.6l0,0c-1.3,0.7-1.7,2.3-1,3.6s2.3,1.7,3.6,1L250.6,256.3L250.6,256.3z"/></g>
</svg>
