<?xml version="1.0" encoding="utf-8"?>
<!-- Generator: Adobe Illustrator 24.0.0, SVG Export Plug-In . SVG Version: 6.00 Build 0)  -->
<svg version="1.1" id="Layer_1" xmlns="http://www.w3.org/2000/svg" xmlns:xlink="http://www.w3.org/1999/xlink" x="0px" y="0px"
	 viewBox="0 0 300 300" style="enable-background:new 0 0 300 300;" xml:space="preserve">
<path d="M299.9,51c0.1-0.4,0.1-0.7,0.1-1c0-10.1-8.2-18.3-18.3-18.3c-9.4,0-17.2,7.1-18.1,16.5c-0.1,0.5-0.2,0.9-0.2,1.4v0.1
	c0,0.3-0.1,0.6-0.1,0.8v15l-32.9-0.7l-76.1-17.9c-0.4-0.1-0.9-0.1-1.4-0.1c-1.8,0-3.6,0.6-4.8,1.5l-19.9,16.5H36.4v-14
	c0.1-0.4,0.1-0.7,0.1-1c0-9.9-8.2-18.1-18.3-18.1c-9.4,0-17.2,7.1-18.1,16.5C0.1,48.7,0,49.1,0,49.6v0.1c0,0.4,0,0.6,0,0.9v149
	c0,0.3,0,0.5,0.1,0.8v0.2c0,0.5,0.1,0.9,0.1,1.3c0.9,9.4,8.7,16.5,18.1,16.5c10.1,0,18.3-8.2,18.3-18.3c0-0.3,0-0.6-0.1-0.8v-12.2
	h4.3l0.2,0.3l42.4,68c5.5,8.8,16.2,12.8,24.4,12.9h0.1c8.6,0,16.5-4.9,21.2-13l1-1.8l1.7,1.1c5.9,3.8,12.2,4.6,16.6,4.6
	c6.8,0,13.2-1.9,18.5-5.6c3.4-2.4,6.3-5.5,8.3-9.2l0.8-1.5l1.6,0.6c3.7,1.4,7.5,2.1,11.4,2.1c6.6,0,13-1.9,18.4-5.6
	c3.6-2.5,6.6-5.8,8.5-9.5l0.8-1.5l1.6,0.6c4.4,1.6,9.6,2.4,15.9,2.4c11.3,0,19.6-7.9,23.6-15.3c5-9.4,5.3-19.2,0.7-26.8l-1.7-2.9
	h7.1v12.4c0,0.3,0,0.5,0.1,0.8v0.2c0,0.5,0.1,0.9,0.1,1.3c0.9,9.4,8.7,16.5,18.1,16.5c10.1,0,18.3-8.2,18.3-18.3
	c0-0.3,0-0.6-0.1-0.8V51z M18.3,206.8c-2.9,0-5.4-2.1-5.9-5v-0.1v-0.1c0.1-0.3,0.1-0.6,0.1-1.1c0-0.3,0-0.5-0.1-0.8V50.4
	c0-0.3,0.1-0.5,0.1-0.8c0-0.4,0-0.8-0.1-1.1v-0.1v-0.1c0.5-2.8,3-4.9,5.9-4.9s5.4,2.1,5.9,5v0.1v0.1c-0.1,0.3-0.1,0.6-0.1,1
	c0,0.3,0,0.6,0.1,0.9v0.1v149c-0.1,0.4-0.1,0.7-0.1,1c0,0.4,0,0.7,0.1,1v0.1v0.1C23.6,204.7,21.2,206.8,18.3,206.8z M229.3,218.1
	c-5.9,0-11.4-2.9-14.7-7.9c-1.6-2.4-35.6-57.4-37.8-61c-2-3.1-6.7-4.1-9.8-2.1c-3.1,2-4.2,6.6-2.2,9.7l0.7,1.1
	c12.2,18.7,32.7,50.3,34,52.9c2.4,4.6,2.3,10.1-0.4,14.5c-2.4,3.9-6.3,6.3-10.3,6.4h-0.1c-5,0-9.7-2.5-12.6-6.6
	c-1.2-1.8-19.8-31.1-27.6-43.7c-1.8-2.8-3-4.7-3.2-5c-1.4-2.2-4.1-3.6-6.7-3.4c-2.2,0.2-4.3,1.8-5.4,4.2c-1.2,2.4-1.1,5,0.1,6.9
	c1.3,2,24.2,37.6,25.6,40.3c2.6,4.4,2.6,9.5,0.1,14c-2.4,4.2-6.5,6.9-10.7,7c-0.1,0-0.2,0-0.3,0c-5.4,0-10.4-3-13.1-7.8
	c-0.9-1.6-13.4-24.3-18.7-33.9l-2.3-4.2c-1.3-2.5-4.3-4.1-7.1-3.8c-2.1,0.2-4.1,1.7-5.3,4.1c-1.1,2.3-1.2,4.7-0.1,6.6l1,1.5
	c3.6,5.7,14.5,22.9,16,25.7c2.4,4.4,2.2,9.7-0.4,14.2c-2.4,4.1-6.3,6.6-10.3,6.7h-0.3c-4.6,0-9-2.2-12-6
	c-1.3-1.7-44.5-71.2-44.9-71.9c-1.3-2-3.6-3.3-6-3.4h-8.2V79.2h75L94.2,93.5c-11,9.5-16.1,18.4-16.1,28c0,6.5,1.5,15.8,8.8,23.2
	c6.7,6.9,17,10.7,29.6,11c1.2,0,2.6-0.3,3.6-0.9l75-41.7l1,1.5c2.8,4.4,47.3,74.9,48.7,77.3c1.4,2.6,2.1,5.5,2.1,8.4
	C247,210.1,239.1,218.1,229.3,218.1z M247.7,172.8l-0.4-0.7l-43.4-72.3c-1.8-3.1-6.4-4.3-9.5-2.5l-78.8,43.9l-0.6-0.1
	c-10.3-0.7-15.4-3.8-17.9-6.3c-3.3-3.3-4.8-7.6-4.8-13.3c0-5.2,3.4-10.5,10.9-17.1l51.5-42.9l0.3,0.1l72.7,17.2
	c0.5,0.1,1.1,0.2,1.7,0.2h34.1v97.6L247.7,172.8z M281.7,206.8c-2.9,0-5.4-2.1-5.9-5v-0.2c0.1-0.3,0.1-0.6,0.1-1.1
	c0-0.3,0-0.5-0.1-0.8V50.4c0-0.3,0.1-0.5,0.1-0.8c0-0.4,0-0.8-0.1-1.1v-0.2c0.5-2.8,3-4.9,5.9-4.9s5.4,2.1,5.9,5v0.1v0.1
	c-0.1,0.3-0.1,0.6-0.1,1c0,0.3,0,0.6,0.1,0.9v0.1v149c-0.1,0.4-0.1,0.7-0.1,1c0,0.4,0,0.7,0.1,1v0.1v0.1
	C287,204.7,284.6,206.8,281.7,206.8z"/>
</svg>
