<svg xmlns="http://www.w3.org/2000/svg" viewBox="0 0 300 300"><path d="M7.6,263.6c-1.4,0-2.6-1.2-2.6-2.6c0-1.5,1.2-2.6,2.6-2.6l113.2-0.2h0c1.4,0,2.6,1.2,2.6,2.6c0,1.5-1.2,2.6-2.6,2.6L7.6,263.6L7.6,263.6z"/><path d="M49.7,284c-1.5,0-2.6-1.2-2.6-2.6c0-1.5,1.2-2.6,2.6-2.6l113.2-0.2h0c1.4,0,2.6,1.2,2.6,2.6c0,1.5-1.2,2.6-2.6,2.6L49.7,284L49.7,284z"/><path d="M165.4,116.2L142,43.6c-1.1-3.5-3.5-6.3-6.7-7.9c-3.2-1.7-6.9-2-10.3-0.9h0L9.4,72c-3.4,1.1-6.2,3.5-7.9,6.7c-1.7,3.2-2,6.9-0.9,10.4l37.1,115.5c1.9,5.7,7.2,9.4,13,9.4c1.4,0,2.7-0.2,4.1-0.6l57.8-18.6l8.1-2.6l4.7-7.1l-8.1,2.6l-64.2,20.7c-4.3,1.4-9-1-10.4-5.4L5.7,87.5c-0.7-2.1-0.5-4.4,0.5-6.3c1-2,2.7-3.4,4.8-4.1l115.5-37.2c2.1-0.7,4.4-0.5,6.3,0.5c2,1,3.4,2.7,4.1,4.8l24.6,76.5l2.1,6.4l3.7-5.6L165.4,116.2z"/><path d="M93.6,146.7c-3-9.3-11.7-15.3-21-15.3c-2.2,0-4.5,0.3-6.7,1c-5.6,1.8-10.1,5.7-12.8,10.9c-2.7,5.2-3.2,11.2-1.4,16.8c3,9.3,11.7,15.3,21,15.3c2.2,0,4.5-0.3,6.7-1.1c5.6-1.8,10.2-5.7,12.9-10.9C94.9,158.2,95.4,152.3,93.6,146.7z M87.5,161.1c-2,4-5.5,6.9-9.8,8.3c-8.8,2.8-18.2-2-21-10.8c-1.4-4.2-1-8.8,1-12.8c2-4,5.5-6.9,9.8-8.3c8.8-2.8,18.2,2,21,10.8C89.9,152.6,89.6,157.1,87.5,161.1z"/><path d="M122.1,91.1c-3.7-11.5-16.1-17.9-27.7-14.2c0,0,0,0,0,0c-11.5,3.7-17.9,16.1-14.2,27.7c3,9.3,11.7,15.2,21,15.2c2.2,0,4.5-0.3,6.7-1.1C119.4,115.1,125.7,102.7,122.1,91.1z M106.2,113.8c-8.8,2.8-18.2-2-21.1-10.8c-2.8-8.8,2-18.2,10.8-21c8.8-2.8,18.2,2,21.1,10.8C119.8,101.5,115,110.9,106.2,113.8z"/><path d="M244.8,168.1c-11.9-2.4-23.5,5.3-25.9,17.2c-2.4,11.9,5.3,23.5,17.2,25.9c1.4,0.3,2.9,0.4,4.3,0.4c10.3,0,19.5-7.2,21.6-17.6c0.3-1.5,0.5-2.9,0.5-4.4C262.5,179.4,255.3,170.2,244.8,168.1z M256.9,193c-1.8,9-10.7,14.9-19.7,13.1c-9-1.8-14.9-10.7-13.1-19.7c1.6-7.9,8.6-13.4,16.4-13.4c1.1,0,2.2,0.1,3.3,0.3c4.4,0.9,8.1,3.4,10.6,7.1C256.9,184.2,257.8,188.6,256.9,193z"/><path d="M166,183.4C166,183.4,166,183.4,166,183.4c-11.9-2.4-23.5,5.3-25.9,17.2c-2.4,11.9,5.3,23.5,17.2,25.9c1.5,0.3,2.9,0.4,4.3,0.4c10.3,0,19.5-7.2,21.6-17.6C185.6,197.5,177.9,185.8,166,183.4z M178,208.3c-1.8,9-10.7,14.9-19.7,13.1c-9-1.8-14.9-10.7-13.1-19.7c1.6-7.9,8.6-13.4,16.4-13.4c1.1,0,2.2,0.1,3.3,0.3c4.4,0.9,8.1,3.4,10.6,7.1C178,199.5,178.9,203.9,178,208.3z"/><path d="M213.3,215.1C213.3,215.1,213.3,215.1,213.3,215.1c-11.9-2.4-23.5,5.3-25.9,17.2c-2.4,11.9,5.3,23.5,17.2,25.9c1.5,0.3,2.9,0.4,4.3,0.4c10.3,0,19.5-7.2,21.6-17.6C232.9,229.2,225.2,217.6,213.3,215.1z M225.4,240c-1.8,9-10.7,14.9-19.7,13.1c-9-1.8-14.9-10.7-13.1-19.7c1.6-7.9,8.6-13.4,16.4-13.4c1.1,0,2.2,0.1,3.3,0.3C221.3,222.1,227.2,231,225.4,240z"/><path d="M294,168.8l-101.8-68.2c-6.3-4.2-14.8-2.5-19,3.8l-7.9,11.8l-3.7,5.6l-44.1,65.9l-4.7,7.1l-7.7,11.5c-2,3-2.7,6.6-2,10.3c0.7,3.6,2.8,6.7,5.8,8.7l101.8,68.1c2.3,1.5,4.9,2.3,7.6,2.3c0.9,0,1.8-0.1,2.7-0.3c3.6-0.7,6.7-2.8,8.7-5.8l68.2-101.8C301.9,181.5,300.3,173,294,168.8z M293.4,184.8l-68.2,101.8c-1.2,1.8-3.1,3.1-5.4,3.5c-2.2,0.4-4.4,0-6.3-1.2l-101.8-68.1c-1.8-1.2-3.1-3.1-3.5-5.4c-0.1-0.6-0.2-1.1-0.2-1.7c0-1.6,0.5-3.2,1.4-4.6l11.4-17l4.7-7.1l38.1-56.9l3.7-5.6l10.2-15.3c1.6-2.4,4.3-3.7,7-3.7c1.6,0,3.2,0.5,4.7,1.4l101.8,68.1C294.9,175.7,295.9,180.9,293.4,184.8z"/><path d="M211.4,145.8c-1.6-2.4-3.7-4.5-6-6.1c-2.4-1.6-5.1-2.7-7.9-3.3c-9-1.8-17.8,2.1-22.6,9.3c-1.5,2.2-2.6,4.6-3.2,7.3c-0.1,0.2-0.1,0.4-0.1,0.6c-1,4.9-0.2,9.8,1.8,14c0.8,1.7,1.9,3.3,3.1,4.7c3.1,3.6,7.3,6.2,12.3,7.2c1.4,0.3,2.9,0.4,4.3,0.4c10.3,0,19.5-7.2,21.6-17.6C215.8,156.6,214.7,150.7,211.4,145.8z M209.5,161.3c-1.8,9-10.7,14.9-19.7,13.1c-4.5-0.9-8.2-3.5-10.6-7.1c-2.4-3.6-3.4-8.1-2.5-12.6c0.1-0.6,0.3-1.2,0.5-1.8c2.2-6.9,8.8-11.6,15.9-11.6c1.1,0,2.2,0.1,3.3,0.3c4.4,0.9,8.1,3.4,10.6,7.2C209.5,152.4,210.4,156.9,209.5,161.3z"/></svg>