<svg xmlns="http://www.w3.org/2000/svg" viewBox="0 0 150 114"><defs><style>.a{fill:none;stroke:#000;stroke-linecap:round;stroke-linejoin:round;}</style></defs><title>5</title><line class="a" x1="16.37" y1="104.15" x2="65.36" y2="104.07"/><line class="a" x1="33.31" y1="114" x2="82.31" y2="113.92"/><path class="a" d="M54.38,75.79l-24.9,8a6.31,6.31,0,0,1-7.92-4.06L4.31,26.08a6.29,6.29,0,0,1,4.05-7.92L62,.89h0a6.33,6.33,0,0,1,4.81.4A6.2,6.2,0,0,1,69.93,5l10,30.94"/><path class="a" d="M35.33,48.59a7.78,7.78,0,1,0,9.78,5,7.79,7.79,0,0,0-9.78-5Z"/><path class="a" d="M48.55,22.77a7.77,7.77,0,1,0,9.78,5,7.8,7.8,0,0,0-9.78-5Z"/><path class="a" d="M96.33,42.24a7.77,7.77,0,1,0,7.6,9.3,7.77,7.77,0,0,0-6.07-9.15h0A7.93,7.93,0,0,0,96.33,42.24Z"/><path class="a" d="M118.34,57a7.77,7.77,0,1,0,7.6,9.31,7.77,7.77,0,0,0-6.07-9.15A7.37,7.37,0,0,0,118.34,57Z"/><path class="a" d="M81.7,64.07a7.77,7.77,0,1,0,7.61,9.31,7.78,7.78,0,0,0-6.08-9.15A7.23,7.23,0,0,0,81.7,64.07Z"/><path class="a" d="M103.71,78.81a7.79,7.79,0,1,0,1.53.16A7.3,7.3,0,0,0,103.71,78.81Z"/><path class="a" d="M108,113.94a6.3,6.3,0,0,1-3.51-1.07L57.19,81.21a6.37,6.37,0,0,1-1.74-8.8L87.12,25.12a6.36,6.36,0,0,1,8.81-1.75L143.19,55a6.35,6.35,0,0,1,1.74,8.8l-31.68,47.3a6.3,6.3,0,0,1-4,2.68A6.06,6.06,0,0,1,108,113.94Z"/></svg>