<?xml version="1.0" encoding="utf-8"?>
<!-- Generator: Adobe Illustrator 24.0.0, SVG Export Plug-In . SVG Version: 6.00 Build 0)  -->
<svg version="1.1" id="Layer_1" xmlns="http://www.w3.org/2000/svg" xmlns:xlink="http://www.w3.org/1999/xlink" x="0px" y="0px"
	 viewBox="0 0 300 300" style="enable-background:new 0 0 300 300;" xml:space="preserve">
<g>
	<path d="M297,115l-41.4-73.9C251.1,33.4,243,29,234.7,29c-3.9,0-8,1-11.7,3l-73.8,41.4c-11.5,6.5-15.6,21.1-9.2,32.6l41.3,73.7
		c3.1,5.5,8.3,9.7,14.4,11.4c2.1,0.6,4.3,0.9,6.5,0.9c4.1,0,8.1-1.1,11.7-3.1l73.8-41.4c5.6-3.1,9.6-8.2,11.3-14.4
		C300.8,127,300.1,120.6,297,115z M288.8,130.3c-0.6,2.2-2.1,4.1-4.1,5.2L205.4,180c-1.3,0.7-2.7,1.1-4.2,1.1
		c-0.8,0-1.6-0.1-2.4-0.3c-2.2-0.6-4.1-2.1-5.2-4.1l-44.5-79.3c-2.3-4.2-0.8-9.5,3.3-11.8L231.7,41c1.3-0.7,2.8-1.1,4.3-1.1
		c3.1,0,6.1,1.7,7.6,4.4l44.5,79.3C289.1,125.7,289.4,128,288.8,130.3z"/>
	<path d="M202.7,106c1.2-4.4,0.7-9.2-1.6-13.2c-4.7-8.3-15.2-11.3-23.6-6.6c-4,2.3-6.9,6-8.2,10.4s-0.7,9.1,1.6,13.1
		c3.2,5.6,9.1,8.8,15.1,8.8c2.8,0,5.8-0.7,8.4-2.2C198.5,114.1,201.4,110.4,202.7,106z M193.9,103.5c-0.6,2.1-2,3.9-3.9,4.9
		c-3.9,2.2-8.9,0.8-11.1-3.1c-2.2-3.9-0.8-8.9,3.1-11.1c1.3-0.7,2.6-1,4-1c2.9,0,5.6,1.5,7.1,4.2
		C194.2,99.2,194.5,101.5,193.9,103.5z"/>
	<path d="M266.2,111.2c-4.7-8.3-15.2-11.3-23.6-6.6c-8.3,4.7-11.3,15.2-6.6,23.6c3.2,5.6,9.1,8.8,15.1,8.8c2.8,0,5.7-0.7,8.4-2.2
		c4-2.2,6.9-5.9,8.2-10.3C269,120,268.5,115.4,266.2,111.2L266.2,111.2z M258.3,115.8c1,1.9,1.3,4.1,0.7,6.1c-0.6,2.1-2,3.8-3.9,4.8
		c-3.9,2.2-8.9,0.8-11.1-3.1c-2.2-3.9-0.8-8.9,3.1-11.1c1.3-0.7,2.6-1,4-1C254,111.5,256.7,113,258.3,115.8l3.9-2.3L258.3,115.8z"/>
	<path d="M245,77.9c0-2.9-0.8-5.8-2.2-8.4c-2.3-4-6-6.9-10.4-8.2c-4.4-1.2-9.1-0.7-13.1,1.6c-4,2.3-6.9,6-8.2,10.4
		c-1.3,4.5-0.7,9.1,1.6,13.2c2.3,4,6,6.9,10.4,8.2c1.5,0.4,3.1,0.7,4.7,0.7c4.6,0,9-1.8,12.2-5.1C243.2,86.8,245,82.5,245,77.9z
		 M233.4,83.7c-1.5,1.6-3.6,2.4-5.8,2.4c-0.7,0-1.5-0.1-2.2-0.3c-2.1-0.6-3.8-2-4.9-3.9c-2.2-3.9-0.8-8.9,3.1-11.1
		c1.3-0.7,2.6-1,4-1c2.9,0,5.6,1.5,7.1,4.2c0.7,1.2,1,2.6,1,4C235.8,80.1,235,82.1,233.4,83.7z"/>
	<path d="M209.3,125.8L209.3,125.8c-3,0-5.9,0.8-8.5,2.2c-4,2.3-6.9,6-8.2,10.4s-0.7,9.1,1.6,13.1c2.3,4,6,6.9,10.4,8.2
		c1.5,0.4,3.1,0.7,4.7,0.7c9.5,0,17.3-7.8,17.3-17.3c0-4.6-1.8-9-5.1-12.2C218.3,127.6,214,125.8,209.3,125.8z M209.4,151.2
		c-0.8,0-1.5-0.1-2.2-0.3c-2.1-0.6-3.8-2-4.9-3.9c-1.1-1.9-1.3-4.1-0.7-6.2c0.6-2.1,2-3.8,3.9-4.9c1.2-0.7,2.6-1,4-1
		c4.5,0,8.2,3.7,8.2,8.1C217.5,147.5,213.8,151.2,209.4,151.2z"/>
	<path d="M142.7,128.4L64,97.1c-8.3-3.3-17.4-1.5-23.8,3.7c-3.1,2.5-5.6,5.8-7.1,9.7L1.7,189.1c-4.9,12.3,1.1,26.2,13.4,31.1
		l78.5,31.3c5.8,2.4,12.5,2.3,18.3-0.2c2-0.9,3.9-2,5.7-3.4c3.2-2.6,5.6-5.9,7.1-9.7l31.3-78.6c2.4-5.9,2.3-12.4-0.3-18.3
		C153.3,135.3,148.6,130.8,142.7,128.4z M146.1,152.1l-33.7,84.5c-0.5,1.4-1.4,2.6-2.6,3.5c-0.6,0.5-1.3,0.9-2.1,1.3
		c-2.1,0.9-4.5,0.9-6.7,0.1l-84.5-33.7c-4.5-1.8-6.6-6.9-4.9-11.3L45.4,112c0.5-1.4,1.4-2.6,2.6-3.5c2.4-2,5.8-2.5,8.7-1.3
		l84.5,33.7c2.2,0.9,3.9,2.5,4.8,4.6C146.9,147.6,146.9,150,146.1,152.1z"/>
	<path d="M91.5,180.6c3.5-8.8-0.8-18.8-9.6-22.3c-4.3-1.7-8.9-1.7-13.1,0.1c-4.2,1.8-7.5,5.2-9.2,9.4c-3.5,8.8,0.8,18.8,9.6,22.3
		c2,0.8,4.2,1.2,6.4,1.2C82.6,191.4,88.8,187.2,91.5,180.6z M68.1,171.3c0.8-2,2.3-3.6,4.3-4.4c2-0.8,4.1-0.9,6.1-0.1
		c4.1,1.6,6.1,6.3,4.5,10.4c-0.8,2-2.3,3.6-4.3,4.4c-2,0.8-4.2,0.9-6.2,0.1C68.5,180,66.4,175.3,68.1,171.3z"/>
	<path d="M68.3,156.2c4.2-1.8,7.5-5.1,9.2-9.4c3.5-8.8-0.8-18.8-9.6-22.3c-4.3-1.7-8.9-1.7-13.1,0.1c-4.2,1.8-7.5,5.2-9.2,9.4
		c-3.5,8.8,0.8,18.8,9.6,22.3c2,0.8,4.2,1.2,6.4,1.2C63.9,157.6,66.2,157.2,68.3,156.2z M54.1,137.5c0.8-2,2.3-3.6,4.3-4.4
		c2-0.9,4.1-0.9,6.1-0.1c4.1,1.6,6.1,6.3,4.5,10.4c-0.8,2-2.3,3.6-4.3,4.4c-2,0.8-4.1,0.9-6.1,0.1C54.5,146.3,52.5,141.6,54.1,137.5
		z"/>
	<path d="M97.4,193.3c-8.8-3.5-18.8,0.8-22.3,9.6c-3.5,8.8,0.8,18.8,9.6,22.3c2,0.8,4.2,1.2,6.4,1.2c2.3,0,4.6-0.5,6.7-1.4
		c4.2-1.8,7.5-5.1,9.2-9.4C110.5,206.9,106.2,196.9,97.4,193.3z M98.5,212.3c-0.8,2-2.3,3.5-4.3,4.4c-2,0.8-4.1,0.9-6.1,0.1
		c-4.1-1.7-6.1-6.3-4.5-10.4c0.8-2,2.3-3.5,4.3-4.4c2-0.8,4.2-0.9,6.2-0.1C98.1,203.4,100.1,208.1,98.5,212.3z"/>
	<path d="M277.9,160.4l-66.8,36.3c-2.8,1.5-3.8,5-2.3,7.8c0.7,1.4,2,2.3,3.4,2.8c1.5,0.4,3,0.3,4.4-0.5l16.1-8.8l13.7-7.5l32.3-17.5
		c10.4-6.3,6.7-10.8,6.7-10.8C283.9,159.8,280.5,159,277.9,160.4z"/>
	<path d="M97.3,260.8l-70.1-29.3c-2.9-1.2-6.3,0.2-7.5,3.1c-0.6,1.4-0.6,3,0,4.4c0.6,1.4,1.7,2.5,3.1,3.1l16.9,7l14.4,6L88,269.5
		c11.4,4.2,12.6-1.6,12.6-1.6C101.5,265.1,100,262,97.3,260.8z"/>
</g>
</svg>
