<?xml version="1.0" encoding="utf-8"?>
<!-- Generator: Adobe Illustrator 24.0.0, SVG Export Plug-In . SVG Version: 6.00 Build 0)  -->
<svg version="1.1" id="Layer_1" xmlns="http://www.w3.org/2000/svg" xmlns:xlink="http://www.w3.org/1999/xlink" x="0px" y="0px"
	 viewBox="0 0 300 300" style="enable-background:new 0 0 300 300;" xml:space="preserve">
<style type="text/css">
	.st0{opacity:0.83;}
	.st1{fill:#1C415E;}
</style>
<g class="st0">
	<g>
		<path class="st1" d="M7.62,263.6c-1.45,0-2.64-1.18-2.64-2.63c0-1.46,1.17-2.64,2.63-2.64l113.16-0.2h0.01
			c1.45,0,2.64,1.18,2.64,2.63c0,1.46-1.17,2.64-2.63,2.64L7.62,263.6L7.62,263.6z"/>
	</g>
	<g>
		<path class="st1" d="M49.72,283.97c-1.45,0-2.64-1.18-2.64-2.63c0-1.46,1.17-2.64,2.63-2.64l113.16-0.2h0.01
			c1.45,0,2.64,1.18,2.64,2.63c0,1.46-1.17,2.64-2.63,2.64L49.72,283.97L49.72,283.97z"/>
	</g>
	<g>
		<g>
			<path class="st1" d="M165.37,116.19l-23.36-72.56c-1.09-3.45-3.47-6.27-6.71-7.93c-3.21-1.65-6.88-1.95-10.34-0.86h-0.01
				L9.45,72.02c-3.43,1.09-6.23,3.47-7.88,6.7c-1.67,3.23-1.97,6.91-0.85,10.36l37.13,115.51c1.87,5.74,7.23,9.41,12.96,9.41
				c1.36,0,2.74-0.21,4.1-0.65l57.85-18.62l8.09-2.6l4.72-7.06l-8.08,2.6l-64.19,20.66c-4.33,1.37-9.02-1.03-10.44-5.37L5.73,87.47
				c-0.68-2.11-0.5-4.36,0.52-6.34c1.01-1.97,2.72-3.42,4.81-4.09l115.5-37.18c2.11-0.67,4.35-0.49,6.34,0.54
				c1.96,1,3.42,2.71,4.09,4.83l24.64,76.54l2.06,6.39l3.74-5.58L165.37,116.19z"/>
		</g>
		<g>
			<path class="st1" d="M93.59,146.73c-3-9.31-11.66-15.26-20.98-15.26c-2.22,0-4.47,0.33-6.7,1.04c-5.59,1.8-10.14,5.67-12.84,10.9
				c-2.68,5.23-3.17,11.19-1.37,16.79c3.01,9.3,11.67,15.26,20.97,15.26c2.23,0,4.47-0.34,6.7-1.05c5.62-1.81,10.18-5.7,12.87-10.94
				C94.91,158.24,95.38,152.3,93.59,146.73z M87.54,161.07c-2.03,3.99-5.51,6.95-9.78,8.32c-8.78,2.82-18.2-2.03-21.05-10.8
				c-1.37-4.25-0.99-8.78,1.05-12.76c2.03-3.99,5.51-6.92,9.75-8.29c8.81-2.8,18.23,2.03,21.05,10.81
				C89.94,152.58,89.57,157.1,87.54,161.07z"/>
		</g>
		<g>
			<path class="st1" d="M122.05,91.13c-3.71-11.54-16.14-17.91-27.68-14.21c-0.01,0-0.01,0.01-0.01,0.01
				c-11.53,3.73-17.9,16.14-14.2,27.68c3.02,9.3,11.69,15.25,20.99,15.25c2.23,0,4.47-0.33,6.7-1.05
				C119.37,115.07,125.74,102.65,122.05,91.13z M106.22,113.79c-8.76,2.8-18.21-2.03-21.05-10.8c-2.81-8.77,2.03-18.2,10.8-21.05
				c8.8-2.8,18.23,2.03,21.05,10.8C119.84,101.51,114.99,110.94,106.22,113.79z"/>
		</g>
	</g>
	<g>
		<g>
			<path class="st1" d="M244.83,168.12c-11.89-2.37-23.51,5.34-25.93,17.21c-2.38,11.88,5.34,23.51,17.21,25.92
				c1.45,0.28,2.9,0.43,4.33,0.43c10.26,0,19.47-7.22,21.58-17.63c0.3-1.47,0.45-2.94,0.45-4.38
				C262.48,179.44,255.26,170.24,244.83,168.12z M256.87,193c-1.83,9.03-10.69,14.88-19.71,13.09
				c-9.03-1.84-14.89-10.68-13.08-19.71c1.6-7.93,8.62-13.41,16.42-13.41c1.08,0,2.19,0.11,3.29,0.33
				c4.37,0.88,8.15,3.42,10.62,7.15C256.88,184.17,257.76,188.63,256.87,193z"/>
		</g>
		<g>
			<path class="st1" d="M165.96,183.41c-0.01,0-0.01,0-0.01,0c-11.9-2.36-23.52,5.34-25.92,17.21c-2.38,11.89,5.34,23.51,17.2,25.92
				c1.46,0.29,2.91,0.44,4.33,0.44c10.26,0,19.47-7.22,21.58-17.64C185.57,197.46,177.86,185.83,165.96,183.41z M177.99,208.28
				c-1.83,9.03-10.69,14.89-19.71,13.08c-9.02-1.82-14.89-10.67-13.08-19.71c1.61-7.92,8.62-13.4,16.42-13.4
				c1.08,0,2.19,0.11,3.29,0.33c4.37,0.88,8.15,3.43,10.62,7.15C178,199.47,178.88,203.92,177.99,208.28z"/>
		</g>
		<g>
			<path class="st1" d="M213.34,215.15c-0.01,0-0.01,0-0.01,0c-11.87-2.38-23.52,5.33-25.93,17.2
				c-2.38,11.89,5.34,23.51,17.21,25.92c1.46,0.29,2.9,0.44,4.33,0.44c10.26,0,19.47-7.22,21.58-17.64
				C232.94,229.19,225.23,217.56,213.34,215.15z M225.37,240.02c-1.83,9.02-10.7,14.9-19.71,13.08
				c-9.02-1.83-14.89-10.68-13.08-19.71c1.61-7.92,8.62-13.4,16.42-13.4c1.08,0,2.2,0.1,3.29,0.32
				C221.34,222.15,227.2,230.99,225.37,240.02z"/>
		</g>
		<g>
			<path class="st1" d="M294,168.77l-101.76-68.15c-6.27-4.19-14.77-2.5-18.96,3.76l-7.92,11.81l-3.74,5.58l-44.14,65.91l-4.73,7.06
				l-7.67,11.46c-2.01,3.02-2.74,6.65-2.02,10.26c0.71,3.59,2.76,6.69,5.77,8.71l101.76,68.15c2.27,1.52,4.88,2.3,7.55,2.3
				c0.9,0,1.8-0.08,2.71-0.26c3.58-0.72,6.67-2.77,8.69-5.78l68.2-101.83C301.94,181.48,300.26,172.97,294,168.77z M293.37,184.8
				l-68.2,101.83c-1.25,1.84-3.14,3.11-5.35,3.54c-2.21,0.44-4.44,0-6.3-1.25l-101.76-68.15c-1.84-1.22-3.1-3.13-3.53-5.35
				c-0.11-0.57-0.17-1.12-0.17-1.69c0-1.64,0.49-3.23,1.4-4.61l11.39-17l4.72-7.06l38.12-56.92l3.74-5.58l10.24-15.28
				c1.63-2.41,4.28-3.72,7-3.72c1.6,0,3.23,0.46,4.66,1.42l101.76,68.15C294.91,175.73,295.94,180.95,293.37,184.8z"/>
			<path class="st1" d="M211.41,145.8c-1.62-2.45-3.67-4.52-6.03-6.1c-2.37-1.59-5.05-2.72-7.93-3.3c-8.97-1.8-17.78,2.15-22.6,9.27
				c-1.47,2.17-2.56,4.63-3.18,7.31c-0.05,0.2-0.1,0.41-0.14,0.62c-0.99,4.92-0.24,9.79,1.81,13.99c0.82,1.68,1.85,3.26,3.09,4.68
				c3.07,3.6,7.32,6.24,12.3,7.25c1.45,0.29,2.9,0.44,4.33,0.44c10.26,0,19.47-7.22,21.58-17.63
				C215.83,156.57,214.67,150.7,211.41,145.8z M209.49,161.27c-1.83,9.02-10.71,14.89-19.71,13.08c-4.48-0.91-8.18-3.54-10.55-7.08
				c-2.41-3.58-3.44-8.09-2.53-12.63c0.12-0.62,0.28-1.21,0.48-1.79c2.23-6.94,8.75-11.61,15.95-11.61c1.08,0,2.19,0.1,3.29,0.32
				c4.37,0.89,8.15,3.43,10.62,7.16C209.5,152.44,210.38,156.91,209.49,161.27z"/>
		</g>
	</g>
</g>
</svg>
