<?xml version="1.0" encoding="utf-8"?>
<!-- Generator: Adobe Illustrator 24.0.0, SVG Export Plug-In . SVG Version: 6.00 Build 0)  -->
<svg version="1.1" id="Layer_1" xmlns="http://www.w3.org/2000/svg" xmlns:xlink="http://www.w3.org/1999/xlink" x="0px" y="0px"
	 viewBox="0 0 300 300" style="enable-background:new 0 0 300 300;" xml:space="preserve">
<style type="text/css">
	.st0{opacity:0.85;}
	.st1{stroke:#007AFF;stroke-width:0.25;stroke-miterlimit:10;}
</style>
<g class="st0">
	<g>
		<path class="st1" d="M52.2,271.2c-1.3,0-2.3-1-2.3-2.3s1-2.3,2.3-2.3l100.8-0.2l0,0c1.3,0,2.3,1,2.3,2.3s-1,2.3-2.3,2.3
			L52.2,271.2L52.2,271.2z"/>
	</g>
	<g>
		<path class="st1" d="M88.8,288.9c-1.3,0-2.3-1-2.3-2.3s1-2.3,2.3-2.3l100.8-0.2l0,0c1.3,0,2.3,1,2.3,2.3s-1,2.3-2.3,2.3
			L88.8,288.9L88.8,288.9z"/>
	</g>
	<g>
		<g>
			<path class="st1" d="M44.1,228.1c-5,0-9.6-3.2-11.2-8.2L0.6,119.7c-1-3-0.7-6.2,0.7-9s3.9-4.9,6.8-5.8l100.3-32.3l0,0
				c3-0.9,6.2-0.7,9,0.8c2.8,1.4,4.9,3.9,5.8,6.9l32.3,100.3c1,3,0.7,6.2-0.7,9s-3.9,4.9-6.9,5.8L47.6,227.6
				C46.4,227.9,45.2,228.1,44.1,228.1z M109.8,76.9L9.6,109.2c-1.8,0.6-3.3,1.8-4.2,3.5s-1,3.7-0.5,5.5l32.2,100.3
				c1.2,3.8,5.3,5.8,9.1,4.7l100.3-32.3c1.8-0.6,3.3-1.8,4.2-3.5s1-3.7,0.5-5.5L118.9,81.6c-0.6-1.8-1.8-3.3-3.6-4.2
				C113.6,76.5,111.7,76.4,109.8,76.9z"/>
		</g>
		<g>
			<path class="st1" d="M63,194.7c-8.1,0-15.6-5.2-18.2-13.2c-1.6-4.9-1.1-10,1.2-14.6c2.3-4.5,6.3-7.9,11.1-9.5l0,0
				c10-3.2,20.8,2.3,24,12.3c1.6,4.8,1.2,10-1.2,14.5c-2.3,4.5-6.3,7.9-11.2,9.5C66.9,194.4,65,194.7,63,194.7z M58.6,161.7
				c-3.7,1.2-6.7,3.7-8.5,7.2s-2.1,7.4-0.9,11.1c2.5,7.6,10.6,11.8,18.3,9.4c3.7-1.2,6.7-3.8,8.5-7.2s2.1-7.4,0.9-11
				C74.4,163.5,66.2,159.3,58.6,161.7L58.6,161.7z"/>
		</g>
		<g>
			<path class="st1" d="M87.8,146.4c-8.1,0-15.6-5.2-18.2-13.2c-3.2-10,2.3-20.8,12.3-24l0,0c10-3.2,20.8,2.3,24,12.3
				s-2.3,20.8-12.3,24C91.6,146.1,89.7,146.4,87.8,146.4z M83.3,113.5c-7.6,2.5-11.8,10.7-9.4,18.3c2.5,7.6,10.7,11.8,18.3,9.4
				c7.6-2.5,11.8-10.7,9.4-18.3C99.1,115.2,90.9,111,83.3,113.5L83.3,113.5z"/>
		</g>
	</g>
	<g>
		<g>
			<path class="st1" d="M207.1,198.6c-1.2,0-2.5-0.1-3.8-0.4c-10.3-2.1-17-12.2-14.9-22.5s12.2-17,22.5-14.9l0,0
				c5,1,9.3,3.9,12.1,8.2s3.8,9.3,2.8,14.3C224,192.3,216,198.6,207.1,198.6z M207.2,164.9c-6.8,0-12.9,4.8-14.3,11.6
				c-1.6,7.8,3.5,15.5,11.4,17.1c7.8,1.6,15.5-3.5,17.1-11.4c0.8-3.8,0-7.7-2.1-10.9s-5.4-5.4-9.2-6.2l0,0
				C209.1,165,208.1,164.9,207.2,164.9z"/>
		</g>
		<g>
			<path class="st1" d="M248.2,226.1c-1.2,0-2.5-0.1-3.8-0.4c-10.3-2.1-17-12.2-14.9-22.5s12.2-17,22.5-14.9l0,0
				c10.3,2.1,17,12.2,14.9,22.5C265.2,219.8,257.2,226.1,248.2,226.1z M248.3,192.5c-6.8,0-12.9,4.8-14.3,11.6
				c-1.6,7.8,3.5,15.5,11.4,17.1c7.8,1.6,15.5-3.5,17.1-11.4c0.8-3.8,0-7.7-2.1-10.9s-5.4-5.4-9.2-6.2
				C250.2,192.6,249.2,192.5,248.3,192.5z"/>
		</g>
		<g>
			<path class="st1" d="M179.8,239.4c-1.2,0-2.5-0.1-3.8-0.4c-10.3-2.1-17-12.2-14.9-22.5s12.2-17,22.5-14.9l0,0
				c10.3,2.1,17,12.2,14.9,22.5C196.7,233.1,188.7,239.4,179.8,239.4z M179.8,205.8c-6.8,0-12.9,4.8-14.3,11.6
				c-1.6,7.8,3.5,15.5,11.4,17.1c7.8,1.6,15.5-3.5,17.1-11.4c0.8-3.8,0-7.7-2.1-10.9s-5.4-5.4-9.2-6.2
				C181.7,205.9,180.8,205.8,179.8,205.8z"/>
		</g>
		<g>
			<path class="st1" d="M220.9,266.9c-1.2,0-2.5-0.1-3.8-0.4c-10.3-2.1-17-12.2-14.9-22.5s12.2-17,22.5-14.9l0,0
				c10.3,2.1,17,12.2,14.9,22.5C237.8,260.7,229.8,266.9,220.9,266.9z M221,233.3c-6.8,0-12.9,4.8-14.3,11.6
				c-1.6,7.8,3.5,15.5,11.4,17.1c7.8,1.6,15.5-3.5,17.1-11.4c1.6-7.8-3.5-15.5-11.4-17.1C222.9,233.4,221.9,233.3,221,233.3z"/>
		</g>
		<g>
			<path class="st1" d="M228.9,299c-2.3,0-4.6-0.7-6.6-2L134,237.8c-2.6-1.7-4.4-4.4-5-7.6c-0.6-3.1,0-6.3,1.8-8.9l59.2-88.4
				c3.6-5.4,11-6.9,16.5-3.3l88.3,59.2c5.4,3.6,6.9,11,3.3,16.5l-59.2,88.4c-1.8,2.6-4.4,4.4-7.5,5C230.5,298.9,229.7,299,228.9,299
				z M199.8,132.3c-2.4,0-4.7,1.1-6.1,3.2l-59.2,88.4l0,0c-1.1,1.6-1.4,3.5-1.1,5.5c0.4,1.9,1.5,3.6,3.1,4.6l88.3,59.2
				c1.6,1.1,3.6,1.5,5.5,1.1s3.6-1.5,4.6-3.1l59.2-88.4c2.2-3.3,1.3-7.9-2-10.1l-88.3-59.2C202.6,132.7,201.2,132.3,199.8,132.3z
				 M132.6,222.6L132.6,222.6L132.6,222.6z"/>
		</g>
	</g>
</g>
</svg>
