<svg xmlns="http://www.w3.org/2000/svg" viewBox="0 0 91.58 91.44"><defs><style>.a,.b{fill:none;}.a{stroke:#475660;stroke-miterlimit:10;}.b{stroke:#007aff;stroke-linecap:round;stroke-linejoin:round;stroke-width:2px;}</style></defs><title>about-time</title><path class="a" d="M84.4,90.94H7.19A6.68,6.68,0,0,1,.5,84.26V7.18A6.68,6.68,0,0,1,7.19.5H84.4a6.68,6.68,0,0,1,6.68,6.68V84.26a6.68,6.68,0,0,1-6.68,6.68"/><line class="b" x1="36" y1="55.39" x2="21.7" y2="65.75"/><line class="b" x1="33.58" y1="64.29" x2="19.28" y2="74.64"/><path class="a" d="M44,34.3V45.94a1.49,1.49,0,0,0,1.51,1.5H55.54"/><path class="a" d="M40.22,23.24,44,20.35a1.2,1.2,0,0,0,.44-1,1,1,0,0,0-.5-.89L40.17,16"/><path class="a" d="M43.51,19.43A25.71,25.71,0,1,0,71.07,45.05"/><path class="a" d="M56.12,21.72A25.73,25.73,0,1,1,19.56,45.05"/></svg>