<svg xmlns="http://www.w3.org/2000/svg" viewBox="0 0 91.58 91.44"><defs><style>.a,.b{fill:none;}.a{stroke:#475660;stroke-miterlimit:10;}.b{stroke:#007aff;stroke-linecap:round;stroke-linejoin:round;stroke-width:2px;}</style></defs><title>about-location</title><path class="a" d="M84.4,90.94H7.19A6.68,6.68,0,0,1,.5,84.26V7.18A6.68,6.68,0,0,1,7.19.5H84.4a6.68,6.68,0,0,1,6.68,6.68V84.26a6.68,6.68,0,0,1-6.68,6.68"/><path class="a" d="M46.35,38.32a6.66,6.66,0,1,0-6.66-6.66,6.68,6.68,0,0,0,6.66,6.66m0-25.5A18.85,18.85,0,0,0,27.51,31.66c0,15.26,16.75,30.21,17.42,30.81a2.17,2.17,0,0,0,2.84,0c.75-.67,17.43-15.78,17.43-30.81A18.86,18.86,0,0,0,46.35,12.82"/><path class="a" d="M31,57.91c-9.5,1.94-15.63,5.83-15.63,9.72,0,5.46,12.71,9.5,30.28,9.5s30.29-4,30.29-9.5c0-4.19-5.83-7.85-15.63-9.72"/><line class="b" x1="31.02" y1="67.5" x2="16.72" y2="77.86"/><line class="b" x1="28.6" y1="76.4" x2="14.3" y2="86.75"/></svg>