<svg xmlns="http://www.w3.org/2000/svg" viewBox="0 0 91.58 91.44"><defs><style>.a,.b{fill:none;}.a{stroke:#475660;stroke-miterlimit:10;}.b{stroke:#007aff;stroke-linecap:round;stroke-linejoin:round;stroke-width:2px;}</style></defs><title>about-phone</title><path class="a" d="M84.4,90.94H7.19A6.68,6.68,0,0,1,.5,84.26V7.18A6.68,6.68,0,0,1,7.19.5H84.4a6.68,6.68,0,0,1,6.68,6.68V84.26a6.68,6.68,0,0,1-6.68,6.68"/><path class="a" d="M37.52,73.46l0,0a24.55,24.55,0,0,1-4.79-10.64,57.7,57.7,0,0,1-1.08-13l0-1.73a122.57,122.57,0,0,1,.69-13.81,38,38,0,0,1,3.43-12.37,18.39,18.39,0,0,1,5.53-6.63A15.55,15.55,0,0,1,51,12.39a20,20,0,0,1,4.07.55,5.6,5.6,0,0,1,4.33,4.24,17.21,17.21,0,0,1-.81,11.36,4.55,4.55,0,0,1-3.51,2.88l-2,.31L51.26,32l-.66.12A22.34,22.34,0,0,0,48,32.6a.87.87,0,0,0-.78.78L47,35c-.3,2-.63,4.06-.79,6.07a78.65,78.65,0,0,0,0,14c.08.83.23,1.67.38,2.55l.08.44a.72.72,0,0,0,.57.63c.91.28,1.85.51,2.78.7.73.16,1.47.31,2.19.43s1.3.24,1.95.38a4.82,4.82,0,0,1,3.66,3.3,17.61,17.61,0,0,1,.26,10.91,6,6,0,0,1-5,4.41c-5.66.87-10.46-.46-14.28-4a12.78,12.78,0,0,1-1.07-1.14l-.19-.24,0,0Z"/><line class="b" x1="40.6" y1="61.63" x2="26.3" y2="71.99"/><line class="b" x1="38.17" y1="70.53" x2="23.87" y2="80.89"/></svg>