<svg xmlns="http://www.w3.org/2000/svg" viewBox="0 0 33 31.42"><defs><style>.a{opacity:0.7;}.b,.c{fill:none;stroke-linecap:round;stroke-linejoin:round;}.b{stroke:#1c415e;}.c{stroke:#157ef9;}</style></defs><title>accinfo</title><g class="a"><circle class="b" cx="17.85" cy="15.15" r="14.65"/><path class="b" d="M17.39,10.38a2.06,2.06,0,0,1-1.48-.54,1.84,1.84,0,0,1-.55-1.38,1.79,1.79,0,0,1,.55-1.36,2.06,2.06,0,0,1,1.48-.54,2,2,0,0,1,1.46.54,1.8,1.8,0,0,1,.56,1.36,1.84,1.84,0,0,1-.56,1.37A2,2,0,0,1,17.39,10.38Zm-1.51,2h3L19.32,25H15.46Z" transform="translate(0.5 -0.29)"/></g><line class="c" x1="11.35" y1="18.52" x2="1.58" y2="25.53"/><line class="c" x1="10.27" y1="23.9" x2="0.5" y2="30.92"/></svg>