<?xml version="1.0" encoding="utf-8"?>
<!-- Generator: Adobe Illustrator 24.0.0, SVG Export Plug-In . SVG Version: 6.00 Build 0)  -->
<svg version="1.1" id="Layer_1" xmlns="http://www.w3.org/2000/svg" xmlns:xlink="http://www.w3.org/1999/xlink" x="0px" y="0px"
	 viewBox="0 0 54.29 28.42" style="enable-background:new 0 0 54.29 28.42;" xml:space="preserve">
<style type="text/css">
	.st0{fill:#FFFFFF;}
</style>
<g>
	<path d="M25.22,16.38c-0.08-0.22-0.27-0.42-0.55-0.56c-0.37-0.19-1.02-0.29-1.5-0.31l-0.11,0.87h0.18c0.82,0.02,1.04,0.16,1.1,0.22
		c0.07,0.09,0.1,0.2,0.09,0.3c-0.02,0.12-0.09,0.23-0.22,0.33c-0.34,0.27-0.76,0.53-1.3,0.81l-0.05,0.02l-0.12,1.05
		c0.2-0.1,0.46-0.25,0.67-0.37l0.13-0.07c0.47-0.31,1.7-1.3,1.7-2.19L25.22,16.38z M22.86,17.93c0.01,0,0.01-0.01,0.02-0.01
		l0.16-1.38C22.95,17.03,22.89,17.48,22.86,17.93z M22.33,18.26l0.32-2.79c-0.01,0-0.03,0.01-0.05,0.01
		c-0.03,0.01-0.05,0.01-0.07,0.01l-1.26,0.19c-0.49,0.09-1.01,0.22-1.51,0.37c-0.86,0.24-1.83,0.63-2.65,1.05l-0.07,0.03l-0.07-0.05
		l-3.18-2.91c-0.1-0.08-0.2-0.11-0.3-0.12L0.9,13.77c-0.16-0.03-0.27,0.05-0.31,0.08c-0.09,0.08-0.14,0.19-0.14,0.34l-0.19,8.66
		c0.01,0.13,0.05,0.24,0.12,0.31c0.06,0.06,0.15,0.13,0.29,0.15H0.7l12.6,0.27c0.07,0,0.2,0,0.31-0.11l3.83-3.39l0.07,0.03
		c0,0,0.09,0.04,0.13,0.05h0.04l0.04,0.06c0.09,0.13,0.23,0.21,0.37,0.2c0.87-0.09,1.83-0.28,2.79-0.56
		c0.44-0.12,0.81-0.25,1.26-0.43l0.05,0.12l0.13-1.12l-0.07,0.02c-0.55,0.22-1.08,0.4-1.61,0.55c-0.6,0.18-1.23,0.32-1.98,0.45
		c0,0-0.01,0-0.02,0c-0.07,0-0.14-0.05-0.18-0.11l-0.06-0.07l0.08-0.13c0.09-0.09,0.14-0.21,0.13-0.32
		c-0.01-0.11-0.39-0.53-0.72-0.85l-0.04-0.03l-0.02-0.23l0.08-0.04c0.65-0.32,1.31-0.56,2.11-0.8c0.67-0.19,1.34-0.34,1.97-0.44
		c0.11-0.03,0.24-0.05,0.38-0.06l0.17-0.02l-0.03,0.16C22.4,17.08,22.35,17.66,22.33,18.26z M17.36,18.95l-0.04,0.04l-4.16,3.69
		L1.09,22.43l0.2-7.77l12.02,0.25l0.03,0.04l2.8,2.57l-0.06,0.06l-0.01,0.12l-0.04,0.03c-0.1,0.08-0.2,0.16-0.29,0.24
		c-0.06,0.05-0.11,0.1-0.17,0.14c-0.47,0.38-0.58,1.09-0.58,1.1c-0.01,0.12,0,0.2,0.01,0.26c0.03,0.12,0.14,0.21,0.21,0.25
		c0.15,0.09,0.3,0.11,0.34,0.1c0.25-0.08,0.37-0.3,0.3-0.53l-0.01-0.02v-0.03c0.04-0.25,0.34-0.56,0.89-0.92l0.05-0.04l0.07,0.03
		c0.14,0.07,0.26,0.14,0.35,0.22c0.17,0.16,0.17,0.34,0.17,0.37V18.95z"/>
	<path class="st0" d="M22.86,17.93c0.01,0,0.01-0.01,0.02-0.01l0.16-1.38C22.95,17.03,22.89,17.48,22.86,17.93z M22.66,19.15
		l0.06,0.11l0.02-0.15C22.71,19.13,22.68,19.14,22.66,19.15z M22.32,18.43l0.01-0.01v-0.08L22.32,18.43z M22.66,15.35l-0.01,0.12
		c0.01,0,0.01,0,0.02,0L22.66,15.35z"/>
</g>
<g>
	<path d="M43.78,26.96l-12.3,0.02c-0.22,0-0.4,0.18-0.4,0.4s0.18,0.4,0.4,0.4l12.29-0.02c0.22,0,0.4-0.18,0.4-0.4
		C44.18,27.14,44,26.96,43.78,26.96z"/>
	<path d="M49.74,18.76c0-1.71-1.39-3.1-3.1-3.1c-1.71,0-3.1,1.39-3.1,3.1c0,1.71,1.39,3.1,3.1,3.1
		C48.35,21.86,49.74,20.47,49.74,18.76z M48.94,18.76c0,1.27-1.03,2.3-2.3,2.3s-2.3-1.03-2.3-2.3c0-1.27,1.03-2.3,2.3-2.3
		S48.94,17.49,48.94,18.76z"/>
	<path d="M28.49,15.66c-1.71,0-3.1,1.39-3.1,3.1c0,1.71,1.39,3.1,3.1,3.1c1.71,0,3.1-1.39,3.1-3.1
		C31.59,17.05,30.2,15.66,28.49,15.66z M30.79,18.76c0,1.27-1.03,2.3-2.3,2.3s-2.3-1.03-2.3-2.3c0-1.27,1.03-2.3,2.3-2.3
		S30.79,17.49,30.79,18.76z"/>
	<path d="M46.49,13.35c0.13,0,0.26-0.07,0.33-0.18c0.08-0.12,0.09-0.28,0.02-0.4c-0.29-0.56-0.59-1.59-0.89-2.58l-0.12,0.04l0,0
		l0.11-0.07c-0.29-0.99-0.56-1.92-0.86-2.53c-0.5-0.86-1.24-1.01-1.96-1.09C39.37,6,35.7,6,31.92,6.53
		c-0.54,0.06-1.45,0.17-1.94,1.11c-0.31,0.61-0.6,1.59-0.9,2.64c-0.28,0.96-0.56,1.95-0.84,2.49c-0.07,0.13-0.06,0.28,0.02,0.4
		c0.07,0.11,0.2,0.18,0.36,0.18c0,0,0,0,0,0c4.34-0.33,17-0.04,17.85,0C46.47,13.35,46.48,13.35,46.49,13.35z M45.87,12.52
		c-1.72-0.05-6.17-0.13-10.35-0.13c-2.76,0-4.88,0.04-6.31,0.11c0.21-0.57,0.42-1.27,0.63-2.01C30.12,9.53,30.4,8.54,30.68,8
		c0.27-0.52,0.72-0.61,1.33-0.68c3.72-0.52,7.32-0.51,11.01,0c0.62,0.07,1.06,0.15,1.36,0.67c0.26,0.53,0.54,1.52,0.8,2.38
		l0.01,0.04C45.41,11.15,45.63,11.92,45.87,12.52z"/>
	<path d="M52.43,13.85c0.3-0.25,0.75-0.74,0.83-1.42c0.07-0.6-0.16-1.18-0.68-1.74c-0.47-0.5-0.99-0.72-1.54-0.65
		c-0.6,0.08-1.08,0.5-1.41,0.9c-0.28-0.66-0.56-1.46-0.83-2.23c-0.33-0.95-0.65-1.85-1-2.58c-0.62-1.02-1.55-1.69-2.76-1.99
		c-5.07-0.87-9.98-0.87-15.02,0.01c-1.25,0.31-2.17,0.99-2.76,2.02c-0.34,0.73-0.7,1.72-1.04,2.69c-0.26,0.73-0.53,1.48-0.79,2.11
		c-0.34-0.41-0.83-0.85-1.43-0.92c-0.55-0.07-1.06,0.15-1.54,0.65c-0.53,0.56-0.76,1.15-0.68,1.74c0.08,0.68,0.53,1.16,0.82,1.41
		c-0.29,2.23-1.43,11.82-1.43,11.88c0,0.56,0.44,1,1,1h5.24c0.56,0,1-0.44,1-1V24.4h18.22v1.32c0,0.54,0.46,1,1,1h5.28
		c0.27,0,0.52-0.1,0.7-0.29c0.19-0.19,0.3-0.46,0.3-0.76C53.91,25.67,52.69,15.92,52.43,13.85z M47.02,23.6H28
		c-0.22,0-0.4,0.18-0.4,0.4v1.72c0,0.12-0.08,0.2-0.2,0.2h-5.24c-0.11,0-0.2-0.07-0.2-0.15l0.01-0.06
		c0.2-1.72,1.23-10.38,1.44-11.93c0.05-0.17-0.02-0.35-0.17-0.44c-0.06-0.04-0.61-0.44-0.68-1c-0.04-0.35,0.12-0.72,0.47-1.1
		c0.29-0.31,0.56-0.44,0.84-0.41c0.56,0.07,1.09,0.84,1.24,1.1c0.07,0.14,0.26,0.21,0.39,0.21c0.15,0,0.29-0.09,0.36-0.23
		c0.36-0.75,0.73-1.79,1.09-2.8c0.34-0.94,0.68-1.92,1-2.59c0.46-0.81,1.21-1.35,2.21-1.61c4.93-0.85,9.74-0.85,14.69-0.01
		c1,0.25,1.73,0.77,2.22,1.58c0.31,0.66,0.62,1.54,0.95,2.47c0.37,1.06,0.76,2.17,1.17,2.95c0.07,0.13,0.2,0.21,0.38,0.21
		c0,0,0,0,0.01,0c0.13-0.03,0.25-0.07,0.33-0.21c0.14-0.26,0.67-1.02,1.24-1.1c0.28-0.04,0.55,0.09,0.85,0.41
		c0.35,0.38,0.51,0.75,0.47,1.1c-0.07,0.58-0.67,1-0.68,1c-0.13,0.09-0.2,0.23-0.18,0.38c1.19,9.71,1.44,11.61,1.52,12h-0.02
		c0,0.12-0.08,0.2-0.2,0.2h-5.28c-0.09,0-0.2-0.09-0.2-0.2V24C47.43,23.78,47.25,23.6,47.02,23.6z"/>
</g>
</svg>
