<?xml version="1.0" encoding="utf-8"?>
<!-- Generator: Adobe Illustrator 24.0.0, SVG Export Plug-In . SVG Version: 6.00 Build 0)  -->
<svg version="1.1" id="Layer_1" xmlns="http://www.w3.org/2000/svg" xmlns:xlink="http://www.w3.org/1999/xlink" x="0px" y="0px"
	 viewBox="0 0 54.28 28.42" style="enable-background:new 0 0 54.28 28.42;" xml:space="preserve">
<style type="text/css">
	.st0{fill:#FFFFFF;stroke:#000000;stroke-width:0.75;stroke-miterlimit:10;}
	.st1{opacity:0.5;fill:#FFFFFF;stroke:#000000;stroke-width:0.5284;stroke-miterlimit:10;}
	.st2{opacity:0.5;}
</style>
<g>
	<g>
		<path class="st0" d="M4.76,0.39l11.99,5.88c0.05,0.03,0.09,0.06,0.11,0.12l1.93,4.98c0.05,0.13,0.15,0.23,0.28,0.27
			c0.13,0.04,0.27,0.02,0.39-0.06c0.07-0.05,0.17-0.05,0.24-0.01c0.75,0.49,1.55,1.13,2.31,1.85c0.9,0.86,1.67,1.78,2.23,2.64
			c0.25,0.45,0.9,1.91,0.52,2.64c-0.7,0.64-2.35-0.3-3.03-0.75l-1.08-0.78c-0.44-0.34-0.86-0.71-1.22-1.06
			c-0.72-0.68-1.42-1.5-1.95-2.24c-0.11-0.16-0.3-0.23-0.49-0.17l-4.32,1.21c-0.05,0.01-0.11,0.01-0.17-0.02L0.52,9.03
			C0.43,9,0.32,8.93,0.41,8.74L4.45,0.5c0.03-0.05,0.07-0.09,0.13-0.11C4.62,0.38,4.68,0.36,4.76,0.39z M19.33,12.83
			c0.02,0.06,0.02,0.12,0,0.15c-0.04,0.06-0.09,0.11-0.15,0.12l-0.81,0.23c-0.15,0.04-0.26,0.15-0.31,0.29
			c-0.02,0.09-0.03,0.2,0.01,0.29c0.01,0.04,0.04,0.08,0.07,0.13c0.47,0.62,0.99,1.19,1.6,1.77c0.55,0.52,1.11,0.99,1.66,1.4
			c0.62,0.5,1.5,0.92,1.56,0.95c0.93,0.45,1.22,0.36,1.31,0.33c0.3-0.13,0.56-0.49,0.32-0.99c-0.56-1.24-1.54-2.47-2.9-3.74
			c-0.54-0.53-1.11-0.99-1.66-1.4c-0.15-0.11-0.36-0.11-0.52-0.01C19.36,12.45,19.29,12.65,19.33,12.83z M4.56,1.3L1.11,8.33
			C1.06,8.44,1.05,8.57,1.09,8.68s0.11,0.2,0.23,0.25l11.16,5.47c0.09,0.04,0.21,0.06,0.31,0.03l3.71-1.03
			c0.13-0.04,0.24-0.13,0.29-0.25c0.05-0.12,0.05-0.26-0.01-0.38c-0.09-0.18-0.17-0.36-0.23-0.54c-0.09-0.26-0.11-0.73-0.11-0.89
			c0,0,0,0,0-0.01l0.09-0.27c0.03-0.07,0.07-0.12,0.11-0.17c0.04-0.04,0.11-0.07,0.17-0.08c0.04,0.01,0.1,0,0.15,0.05
			c0.08,0.08,0.12,0.19,0.02,0.29c-0.05,0.05-0.08,0.11-0.1,0.18c-0.1,0.3,0.05,0.8,0.42,1.47c0.1,0.18,0.31,0.27,0.52,0.21
			l0.53-0.14c0.12-0.03,0.21-0.12,0.28-0.24c0.06-0.11,0.07-0.24,0.01-0.35L16.53,6.8c-0.03-0.1-0.12-0.19-0.22-0.24L5.16,1.1
			C5.05,1.04,4.93,1.04,4.82,1.07S4.61,1.19,4.56,1.3z"/>
	</g>
</g>
<g>
	<path class="st1" d="M14.3,9.49c0.04,0.13,0.07,0.25,0.07,0.37c0.03,0.38-0.11,0.74-0.36,1.01l0,0.01
		c-0.16,0.17-0.35,0.3-0.58,0.38c-0.72,0.25-1.51-0.14-1.76-0.87c-0.25-0.72,0.14-1.51,0.86-1.75C13.26,8.39,14.05,8.77,14.3,9.49z
		 M11.98,10.29c0.19,0.56,0.8,0.86,1.36,0.67c0.56-0.19,0.86-0.8,0.67-1.36c-0.19-0.55-0.8-0.85-1.36-0.66
		C12.09,9.13,11.79,9.73,11.98,10.29z"/>
</g>
<path d="M45.96,23.3c-1.12,0-2.12,0.74-2.45,1.81c-0.08,0.24-0.11,0.5-0.11,0.75c0,1.41,1.15,2.56,2.56,2.56s2.56-1.15,2.56-2.56
	c0-0.26-0.04-0.51-0.11-0.75C48.08,24.02,47.1,23.3,45.96,23.3z M47.5,25.86c0,0.85-0.69,1.54-1.54,1.54
	c-0.85,0-1.54-0.69-1.54-1.54c0-0.15,0.02-0.31,0.07-0.45c0.2-0.64,0.8-1.09,1.47-1.09c0.67,0,1.28,0.45,1.47,1.09
	C47.48,25.55,47.5,25.71,47.5,25.86z"/>
<path d="M28.61,23.3c-1.12,0-2.12,0.74-2.45,1.81c-0.08,0.24-0.11,0.5-0.11,0.75c0,1.41,1.15,2.56,2.56,2.56
	c1.41,0,2.56-1.15,2.56-2.56c0-0.26-0.04-0.51-0.11-0.75C30.73,24.02,29.74,23.3,28.61,23.3z M30.15,25.86
	c0,0.85-0.69,1.54-1.54,1.54c-0.85,0-1.54-0.69-1.54-1.54c0-0.15,0.02-0.31,0.07-0.45c0.2-0.64,0.8-1.09,1.47-1.09
	s1.28,0.45,1.47,1.09C30.13,25.55,30.15,25.71,30.15,25.86z"/>
<path d="M53.28,20.38l-0.04-0.04l-0.01-0.06c-0.26-1.07-0.75-2.52-2.03-2.88c-1.03-0.29-3.6-1.43-5.04-2.08l-0.07-0.03l-0.04-0.07
	C43.61,10.34,39,9.67,34.37,9.67c-6.13,0-11.96,1.32-13.15,10.89l-0.01,0.06l-0.04,0.05c-0.49,0.66-0.76,1.47-0.76,2.28
	c0,1.98,1.55,3.65,3.54,3.8c0.03,0,0.06,0,0.09,0c0.31,0,0.61-0.12,0.84-0.33c0.25-0.23,0.4-0.56,0.4-0.91
	c0-0.23,0.03-0.47,0.09-0.71c0.34-1.46,1.62-2.48,3.12-2.48c1.5,0,2.78,1.02,3.12,2.48c0.06,0.25,0.09,0.49,0.09,0.72
	c0,0.68,0.56,1.23,1.24,1.23h8.52c0.68,0,1.24-0.55,1.24-1.23c0-0.24,0.03-0.47,0.09-0.72c0.29-1.25,1.3-2.21,2.57-2.43
	c0.2-0.04,0.36-0.05,0.54-0.05c0.1,0,0.2,0,0.32,0.01c1.38,0.13,2.51,1.12,2.82,2.47c0.06,0.25,0.09,0.49,0.09,0.72
	c0,0.68,0.56,1.23,1.24,1.23h0.09c1.11,0,2.16-0.48,2.9-1.33c0.09-0.09,0.17-0.18,0.24-0.3c0.45-0.65,0.69-1.4,0.69-2.17
	C54.28,22,53.93,21.09,53.28,20.38z M52.66,24.56l-0.13,0.21c-0.52,0.62-1.27,1.06-2.07,1.06h-0.23l-0.01-0.31
	c-0.01-0.29-0.04-0.67-0.11-0.97c-0.42-1.81-1.95-3.15-3.81-3.32c-0.16-0.01-0.28-0.01-0.4-0.01c-0.25,0-0.49,0.03-0.75,0.08
	c-1.71,0.3-3.06,1.61-3.45,3.3c-0.07,0.3-0.11,0.64-0.11,0.93l-0.01,0.31h-8.77l-0.01-0.31c-0.01-0.29-0.05-0.67-0.11-0.97
	c-0.46-1.97-2.18-3.34-4.2-3.34c-2.02,0-3.75,1.37-4.2,3.34c-0.07,0.29-0.1,0.58-0.11,0.86l-0.01,0.25l-0.25-0.03
	c-1.37-0.16-2.39-1.31-2.39-2.68c0-0.64,0.23-1.26,0.64-1.75l0.11-0.13l0.02-0.17c1.07-9.35,6.55-10.13,12.07-10.13
	c4.35,0,8.66,0.63,10.79,5.16l0.09,0.18l0.18,0.08c1.24,0.57,4.26,1.93,5.47,2.26c0.56,0.15,0.98,0.9,1.29,2.27l0.04,0.16l0.12,0.12
	c0.54,0.52,0.83,1.22,0.83,1.95C53.17,23.53,53,24.09,52.66,24.56z"/>
<g class="st2">
	<path d="M33.33,13.83v4.14h-5.8l0.04-0.18c0.12-1.44,1.42-3.89,5.52-3.96L33.33,13.83 M33.33,12.83c0,0-0.01,0-0.01,0l-0.23,0
		c-4.75,0.08-6.31,3.01-6.5,4.79l-0.03,0.11c-0.07,0.3,0,0.61,0.19,0.85s0.48,0.38,0.78,0.38h5.8c0.55,0,1-0.45,1-1v-4.14
		c0-0.27-0.11-0.52-0.3-0.71C33.85,12.93,33.6,12.83,33.33,12.83L33.33,12.83z"/>
</g>
<g class="st2">
	<path d="M35.97,13.83l0.22,0c2.41,0.03,4.24,0.62,5.28,1.72c0.84,0.88,0.99,1.85,1.01,2.23l0,0.03l0,0l0.01,0.16h-0.02h-6.52V13.83
		 M35.97,12.83c-0.26,0-0.52,0.1-0.7,0.29c-0.19,0.19-0.3,0.44-0.3,0.71v4.14c0,0.55,0.45,1,1,1h6.52c0.28,0,0.55-0.11,0.74-0.32
		c0.19-0.2,0.29-0.47,0.28-0.75l-0.01-0.12c0-0.02,0-0.03,0-0.05c-0.03-0.5-0.23-1.75-1.29-2.87c-1.24-1.3-3.31-2-6-2.03l-0.22,0
		C35.97,12.83,35.97,12.83,35.97,12.83L35.97,12.83z"/>
</g>
</svg>
