<svg xmlns="http://www.w3.org/2000/svg" xmlns:xlink="http://www.w3.org/1999/xlink" viewBox="0 0 195.97 64.44"><defs><style>.a{fill:url(#a);}.b{fill:#fff;}</style><radialGradient id="a" cx="899.65" cy="430.74" r="61.21" gradientTransform="translate(-979.77 -457.61) scale(1.2 1.14)" gradientUnits="userSpaceOnUse"><stop offset="0.01" stop-color="#e6bfa3"/><stop offset="0.56" stop-color="#e1b08a"/><stop offset="0.8" stop-color="#e1b68a"/><stop offset="1" stop-color="#e4bd95"/></radialGradient></defs><title>buy-premium-bg</title><path class="a" d="M3.82,0H192.16A3.72,3.72,0,0,1,196,3.62v57.2a3.72,3.72,0,0,1-3.81,3.62H3.82A3.72,3.72,0,0,1,0,60.82V3.62A3.72,3.72,0,0,1,3.82,0Z"/><path class="b" d="M85,12.24a1.84,1.84,0,0,1,1,.09,2.72,2.72,0,0,1,1.17,1.23,2,2,0,0,1-1.55.08,2.55,2.55,0,0,1-1.09-1.08,19.81,19.81,0,0,0-1.85,1.6,1.74,1.74,0,0,1,1-.14,2.37,2.37,0,0,1,1.35.92,2.17,2.17,0,0,1-1.5.46,2.32,2.32,0,0,1-1.24-.79,19.59,19.59,0,0,0-1.39,1.61,1.78,1.78,0,0,1,.79-.23,2.2,2.2,0,0,1,1.44.68,2.25,2.25,0,0,1-1.43.71,2.05,2.05,0,0,1-1.28-.52,24.26,24.26,0,0,0-1.32,2.07,1.93,1.93,0,0,1,1-.49,2.18,2.18,0,0,1,1.49.5,2.33,2.33,0,0,1-1.36.88,2,2,0,0,1-1.38-.42c-.38.71-.72,1.44-1,2.19a2,2,0,0,1,1-.64,2.08,2.08,0,0,1,1.52.29A2.47,2.47,0,0,1,79,22.31a2,2,0,0,1-1.41-.22c-.29.76-.55,1.54-.77,2.34a2.32,2.32,0,0,1,.94-.79,2.09,2.09,0,0,1,1.55.11A2.67,2.67,0,0,1,78.14,25a1.94,1.94,0,0,1-1.43-.07c-.2.82-.37,1.65-.5,2.51a2.49,2.49,0,0,1,.91-1,2,2,0,0,1,1.55-.1,2.87,2.87,0,0,1-1.07,1.36,2,2,0,0,1-1.45.13c-.11.84-.2,1.7-.24,2.57a2.71,2.71,0,0,1,.83-1.08A2,2,0,0,1,78.27,29a3,3,0,0,1-1,1.47,2,2,0,0,1-1.4.29c0,.23,0,.47,0,.7s0,.47,0,.7a2.06,2.06,0,0,1,1.4.29,3,3,0,0,1,1,1.48,2.05,2.05,0,0,1-1.53-.27,2.65,2.65,0,0,1-.83-1.08c0,.87.13,1.73.24,2.57a2,2,0,0,1,1.45.13,2.91,2.91,0,0,1,1.07,1.36,2,2,0,0,1-1.55-.1,2.53,2.53,0,0,1-.91-1c.13.85.3,1.69.5,2.5A2,2,0,0,1,78.14,38a2.72,2.72,0,0,1,1.19,1.2,2,2,0,0,1-1.55.12,2.34,2.34,0,0,1-.94-.8c.22.8.48,1.59.77,2.35A2,2,0,0,1,79,40.6a2.43,2.43,0,0,1,1.27,1.06,2.08,2.08,0,0,1-1.52.29,2,2,0,0,1-1-.64,23.09,23.09,0,0,0,1,2.19,2,2,0,0,1,1.38-.42,2.43,2.43,0,0,1,1.36.88,2.08,2.08,0,0,1-1.49.5,1.92,1.92,0,0,1-1-.48A22.62,22.62,0,0,0,80.42,46a2.05,2.05,0,0,1,1.28-.52,2.19,2.19,0,0,1,1.43.72,2.26,2.26,0,0,1-1.44.67,1.78,1.78,0,0,1-.79-.23,18.06,18.06,0,0,0,1.39,1.61,2.26,2.26,0,0,1,1.24-.78A2.13,2.13,0,0,1,85,48a2.37,2.37,0,0,1-1.35.92,1.74,1.74,0,0,1-1-.14,19.81,19.81,0,0,0,1.85,1.6,2.61,2.61,0,0,1,1.09-1.08,2,2,0,0,1,1.55.08,2.72,2.72,0,0,1-1.17,1.23,1.75,1.75,0,0,1-1,.09A16.71,16.71,0,0,0,87.25,52a2.8,2.8,0,0,1,.91-1.29,2.05,2.05,0,0,1,1.53-.25,2.89,2.89,0,0,1-1,1.46,1.82,1.82,0,0,1-1,.31h-.32l-.13.17a2.94,2.94,0,0,1-.16,3.33,3,3,0,0,1,0-3.41,16.81,16.81,0,0,1-2.55-1.57,3.41,3.41,0,0,1,.2,1.66A3,3,0,0,1,83.9,54a3.51,3.51,0,0,1-.27-1.85,3,3,0,0,1,.76-1.51,20.27,20.27,0,0,1-2.21-2,3.33,3.33,0,0,1-.08,1.69A2.73,2.73,0,0,1,81,51.69a3.55,3.55,0,0,1,0-1.88,2.78,2.78,0,0,1,1-1.29,21.78,21.78,0,0,1-1.83-2.2A3.41,3.41,0,0,1,80,48.08a2.51,2.51,0,0,1-1.24,1.13A3.55,3.55,0,0,1,79,47.35a2.42,2.42,0,0,1,1.19-1.11,21.21,21.21,0,0,1-1.49-2.38,3.33,3.33,0,0,1-.41,1.57,2.34,2.34,0,0,1-1.31,1,3.34,3.34,0,0,1,.4-1.82,2.35,2.35,0,0,1,1.2-1,25.42,25.42,0,0,1-1.14-2.48,3.35,3.35,0,0,1-.55,1.49,2.23,2.23,0,0,1-1.4.8A3.33,3.33,0,0,1,76,41.71a2.21,2.21,0,0,1,1.29-.78,25.94,25.94,0,0,1-.84-2.58,3,3,0,0,1-.65,1.41,2.08,2.08,0,0,1-1.46.63,3.33,3.33,0,0,1,.7-1.67,2.12,2.12,0,0,1,1.34-.63c-.21-.84-.38-1.7-.51-2.57a2.85,2.85,0,0,1-.76,1.23,2,2,0,0,1-1.51.42,3.07,3.07,0,0,1,.86-1.56,2,2,0,0,1,1.35-.44q-.18-1.34-.24-2.7a2.66,2.66,0,0,1-.86,1.18,2.06,2.06,0,0,1-1.53.27,2.89,2.89,0,0,1,1-1.47,2,2,0,0,1,1.43-.29c0-.21,0-.41,0-.62v-.17c0-.21,0-.42,0-.63a1.94,1.94,0,0,1-1.43-.28,3,3,0,0,1-1-1.47,2,2,0,0,1,1.53.26,2.74,2.74,0,0,1,.86,1.19q.06-1.38.24-2.7a2,2,0,0,1-1.35-.44,3.09,3.09,0,0,1-.86-1.57,2.06,2.06,0,0,1,1.51.43,2.83,2.83,0,0,1,.76,1.22c.13-.87.3-1.73.51-2.56a2.24,2.24,0,0,1-1.34-.63,3.35,3.35,0,0,1-.7-1.68,2.12,2.12,0,0,1,1.46.64,3,3,0,0,1,.65,1.4A26.63,26.63,0,0,1,77.33,22,2.26,2.26,0,0,1,76,21.2a3.36,3.36,0,0,1-.57-1.76,2.29,2.29,0,0,1,1.4.8,3.34,3.34,0,0,1,.55,1.5,24.38,24.38,0,0,1,1.14-2.48,2.38,2.38,0,0,1-1.2-1,3.33,3.33,0,0,1-.4-1.82,2.4,2.4,0,0,1,1.31,1A3.33,3.33,0,0,1,78.68,19a22,22,0,0,1,1.49-2.37A2.56,2.56,0,0,1,79,15.55a3.61,3.61,0,0,1-.26-1.86A2.5,2.5,0,0,1,80,14.83a3.4,3.4,0,0,1,.27,1.76,20.85,20.85,0,0,1,1.83-2.21,2.74,2.74,0,0,1-1-1.28,3.48,3.48,0,0,1,0-1.89,2.73,2.73,0,0,1,1.08,1.34,3.34,3.34,0,0,1,.08,1.69,20.27,20.27,0,0,1,2.21-2,3,3,0,0,1-.76-1.5,3.53,3.53,0,0,1,.27-1.86,3,3,0,0,1,.84,1.59,3.27,3.27,0,0,1-.19,1.65"/><path class="b" d="M109.89,12.24a2.16,2.16,0,0,0-1.11.09,2.83,2.83,0,0,0-1.28,1.23,2.33,2.33,0,0,0,1.68.08,2.66,2.66,0,0,0,1.19-1.08,20.55,20.55,0,0,1,2,1.6,2,2,0,0,0-1-.14,2.58,2.58,0,0,0-1.47.92,2.09,2.09,0,0,0,3-.33,21.09,21.09,0,0,1,1.52,1.61,2.15,2.15,0,0,0-.86-.23,2.48,2.48,0,0,0-1.58.68,2.57,2.57,0,0,0,1.56.71,2.36,2.36,0,0,0,1.4-.52q.77,1,1.44,2.07a2.24,2.24,0,0,0-1.09-.49,2.49,2.49,0,0,0-1.62.5,2.54,2.54,0,0,0,1.49.88,2.31,2.31,0,0,0,1.5-.42c.41.71.78,1.44,1.12,2.19a2.25,2.25,0,0,0-1-.64,2.48,2.48,0,0,0-1.67.29,2.7,2.7,0,0,0,1.4,1.07,2.35,2.35,0,0,0,1.53-.22c.31.76.59,1.54.83,2.34a2.42,2.42,0,0,0-1-.8,2.46,2.46,0,0,0-1.68.12A2.72,2.72,0,0,0,117.4,25a2.27,2.27,0,0,0,1.55-.07c.22.82.4,1.65.55,2.51a2.57,2.57,0,0,0-1-1,2.29,2.29,0,0,0-1.68-.1A2.83,2.83,0,0,0,118,27.63a2.33,2.33,0,0,0,1.58.13c.12.84.22,1.7.26,2.57a2.68,2.68,0,0,0-.9-1.08,2.33,2.33,0,0,0-1.67-.26,3,3,0,0,0,1.06,1.47,2.34,2.34,0,0,0,1.52.29c0,.23,0,.47,0,.7s0,.47,0,.7a2.41,2.41,0,0,0-1.52.29,3,3,0,0,0-1.06,1.48,2.42,2.42,0,0,0,1.67-.27,2.62,2.62,0,0,0,.9-1.08c0,.87-.14,1.73-.26,2.57a2.39,2.39,0,0,0-1.58.13,2.88,2.88,0,0,0-1.16,1.36,2.29,2.29,0,0,0,1.68-.1,2.61,2.61,0,0,0,1-1c-.15.85-.33,1.69-.55,2.5A2.34,2.34,0,0,0,117.4,38a2.76,2.76,0,0,0-1.3,1.2,2.07,2.07,0,0,0,2.7-.68c-.24.8-.52,1.59-.83,2.35a2.35,2.35,0,0,0-1.53-.22,2.65,2.65,0,0,0-1.4,1.06,2.48,2.48,0,0,0,1.67.29,2.25,2.25,0,0,0,1-.64,23.72,23.72,0,0,1-1.12,2.19,2.31,2.31,0,0,0-1.5-.42,2.65,2.65,0,0,0-1.49.88,2.37,2.37,0,0,0,1.62.5,2.33,2.33,0,0,0,1.09-.48A23.6,23.6,0,0,1,114.91,46a2.36,2.36,0,0,0-1.4-.52,2.5,2.5,0,0,0-1.56.72,2.56,2.56,0,0,0,1.58.67,2.15,2.15,0,0,0,.86-.23,19.37,19.37,0,0,1-1.52,1.61,2.11,2.11,0,0,0-3-.33,2.58,2.58,0,0,0,1.47.92,2,2,0,0,0,1-.14,20.55,20.55,0,0,1-2,1.6,2.71,2.71,0,0,0-1.19-1.08,2.39,2.39,0,0,0-1.68.08,2.83,2.83,0,0,0,1.28,1.23,2.06,2.06,0,0,0,1.11.09A19,19,0,0,1,107.47,52a2.88,2.88,0,0,0-1-1.29,2.42,2.42,0,0,0-1.67-.25,3,3,0,0,0,1.06,1.46,2.12,2.12,0,0,0,1.1.31h.35l.14.17A3.07,3.07,0,0,0,107,54a3.12,3.12,0,0,0,.65,1.73,3,3,0,0,0,.59-1.76,3.13,3.13,0,0,0-.59-1.65,19.59,19.59,0,0,0,2.78-1.57,3.16,3.16,0,0,0-.22,1.66,2.91,2.91,0,0,0,.92,1.58,3.28,3.28,0,0,0,.3-1.85,2.92,2.92,0,0,0-.83-1.51,20.34,20.34,0,0,0,2.4-2,3.36,3.36,0,0,0,.09,1.69,2.77,2.77,0,0,0,1.19,1.34,3.38,3.38,0,0,0,0-1.88,2.82,2.82,0,0,0-1.09-1.29,21.94,21.94,0,0,0,2-2.2,3.3,3.3,0,0,0,.3,1.76,2.66,2.66,0,0,0,1.35,1.13,3.34,3.34,0,0,0-.29-1.86,2.64,2.64,0,0,0-1.3-1.11,20.75,20.75,0,0,0,1.62-2.38,3.11,3.11,0,0,0,.45,1.57,2.56,2.56,0,0,0,1.43,1,3.25,3.25,0,0,0-.44-1.82,2.55,2.55,0,0,0-1.31-1,24,24,0,0,0,1.25-2.48,3.06,3.06,0,0,0,.6,1.49,2.48,2.48,0,0,0,1.52.8,3.12,3.12,0,0,0-.62-1.75,2.46,2.46,0,0,0-1.4-.78,23.78,23.78,0,0,0,.9-2.58,3,3,0,0,0,.72,1.41,2.38,2.38,0,0,0,1.59.63,3.15,3.15,0,0,0-.77-1.67,2.37,2.37,0,0,0-1.46-.63,22.17,22.17,0,0,0,.56-2.57,2.88,2.88,0,0,0,.83,1.23,2.37,2.37,0,0,0,1.65.42,3.08,3.08,0,0,0-.94-1.56,2.3,2.3,0,0,0-1.48-.44,24.19,24.19,0,0,0,.26-2.7,2.71,2.71,0,0,0,1,1.18,2.4,2.4,0,0,0,1.66.27,2.87,2.87,0,0,0-1-1.48,2.37,2.37,0,0,0-1.55-.28c0-.21,0-.41,0-.62v-.17c0-.21,0-.42,0-.63a2.25,2.25,0,0,0,1.55-.28,2.9,2.9,0,0,0,1-1.47,2.31,2.31,0,0,0-1.66.26,2.79,2.79,0,0,0-1,1.19,23.74,23.74,0,0,0-.26-2.7,2.36,2.36,0,0,0,1.48-.44,3.09,3.09,0,0,0,.94-1.57,2.4,2.4,0,0,0-1.65.43,2.86,2.86,0,0,0-.83,1.22,21.57,21.57,0,0,0-.56-2.56,2.5,2.5,0,0,0,1.46-.63,3.17,3.17,0,0,0,.77-1.68,2.42,2.42,0,0,0-1.59.64,2.93,2.93,0,0,0-.72,1.4,24.38,24.38,0,0,0-.9-2.57,2.53,2.53,0,0,0,1.4-.78,3.15,3.15,0,0,0,.62-1.76,2.55,2.55,0,0,0-1.52.8,3.05,3.05,0,0,0-.6,1.5,23,23,0,0,0-1.25-2.48,2.58,2.58,0,0,0,1.31-1,3.24,3.24,0,0,0,.44-1.82,2.62,2.62,0,0,0-1.43,1A3.11,3.11,0,0,0,116.8,19a21.54,21.54,0,0,0-1.62-2.37,2.73,2.73,0,0,0,1.3-1.12,3.34,3.34,0,0,0,.29-1.86,2.65,2.65,0,0,0-1.35,1.14,3.29,3.29,0,0,0-.3,1.76,21,21,0,0,0-2-2.21,2.78,2.78,0,0,0,1.09-1.28,3.42,3.42,0,0,0,0-1.89,2.77,2.77,0,0,0-1.19,1.34,3.23,3.23,0,0,0-.08,1.69,21.28,21.28,0,0,0-2.41-2,2.92,2.92,0,0,0,.83-1.5,3.3,3.3,0,0,0-.3-1.86,3,3,0,0,0-.91,1.59,3,3,0,0,0,.21,1.65"/></svg>