<svg xmlns="http://www.w3.org/2000/svg" viewBox="0 0 246.07 256"><title>calendar</title><path d="M32.86,255.62A27.72,27.72,0,0,1,5.34,227.76V46.09A27.48,27.48,0,0,1,32.77,18.74H54.22V4.49a4.12,4.12,0,0,1,8.24,0V18.74H193.54V4.49a4.12,4.12,0,0,1,8.24,0V18.74h21.53a27.42,27.42,0,0,1,27.35,27.52V186.62a4.15,4.15,0,0,1-1.23,3.06L180.3,254.43a4.2,4.2,0,0,1-2.82,1.19ZM13.58,227.76a19.48,19.48,0,0,0,19.28,19.63H172.19V204.54A21.89,21.89,0,0,1,194,182.78h48.38V91H13.58ZM194,191a13.63,13.63,0,0,0-13.6,13.51v38.34L236,191ZM32.66,27A19.17,19.17,0,0,0,13.58,46.26V82.78H242.42V46.06A19.23,19.23,0,0,0,223.24,27H201.78V46.22a4.12,4.12,0,0,1-8.24,0V27H62.46V46.22a4.12,4.12,0,0,1-8.24,0V27H32.66Z" transform="translate(-4.97)"/><path d="M197.66.75a3.75,3.75,0,0,1,3.75,3.74V19.11h21.9a27.06,27.06,0,0,1,27,27.15V186.64a3.75,3.75,0,0,1-1.1,2.76L180,254.16a3.79,3.79,0,0,1-2.54,1.09H32.86A27.34,27.34,0,0,1,5.72,227.76V46.09a27.1,27.1,0,0,1,27.05-27H54.59V4.49a3.75,3.75,0,0,1,7.49,0V19.11H193.92V4.49A3.75,3.75,0,0,1,197.66.75m0,49.21a3.75,3.75,0,0,1-3.74-3.74V26.6H62.08V46.22a3.75,3.75,0,0,1-7.49,0V26.6H32.65A19.57,19.57,0,0,0,13.21,46.26v36.9H242.79V46.06A19.59,19.59,0,0,0,223.24,26.6H201.41V46.22A3.75,3.75,0,0,1,197.66,50M32.86,247.76H172.57V204.54a21.53,21.53,0,0,1,21.49-21.39h48.73V90.64H13.21V227.76a19.85,19.85,0,0,0,19.65,20m147.2-4,1.26-1.17,54.26-50.62,1.39-1.3H194a14,14,0,0,0-14,13.9v39.19M197.66,0a4.49,4.49,0,0,0-4.49,4.49V18.36H62.83V4.49a4.5,4.5,0,0,0-9,0V18.36H32.77A27.8,27.8,0,0,0,5,46.09V227.76A28.1,28.1,0,0,0,32.86,256H177.49a4.6,4.6,0,0,0,3.07-1.3L249.69,190a4.48,4.48,0,0,0,1.34-3.33V46.26a27.81,27.81,0,0,0-27.72-27.9H202.16V4.49A4.5,4.5,0,0,0,197.66,0ZM14,82.41V46.26a18.8,18.8,0,0,1,18.7-18.91H53.84V46.22a4.5,4.5,0,0,0,9,0V27.35H193.17V46.22a4.5,4.5,0,0,0,9,0V27.35h21.08A18.8,18.8,0,0,1,242,46.06V82.41ZM32.86,247A19.1,19.1,0,0,1,14,227.76V91.39H242v91H194a22.22,22.22,0,0,0-22.22,22.14V247Zm148-5V204.54A13.22,13.22,0,0,1,194,191.39h41L180.81,242Z" transform="translate(-4.97)"/><path d="M62.33,135.21a7.15,7.15,0,1,1,7.15-7.15A7.15,7.15,0,0,1,62.33,135.21Z" transform="translate(-4.97)"/><path d="M62.33,121.28a6.78,6.78,0,1,1-6.77,6.78,6.79,6.79,0,0,1,6.77-6.78m0-.75a7.53,7.53,0,1,0,7.53,7.53,7.53,7.53,0,0,0-7.53-7.53Z" transform="translate(-4.97)"/><path d="M104.65,135.21a7.15,7.15,0,1,1,7.15-7.15A7.16,7.16,0,0,1,104.65,135.21Z" transform="translate(-4.97)"/><path d="M104.65,121.28a6.78,6.78,0,1,1-6.77,6.78,6.79,6.79,0,0,1,6.77-6.78m0-.75a7.53,7.53,0,1,0,7.53,7.53,7.53,7.53,0,0,0-7.53-7.53Z" transform="translate(-4.97)"/><path d="M147,135.21a7.15,7.15,0,1,1,7.15-7.15A7.15,7.15,0,0,1,147,135.21Z" transform="translate(-4.97)"/><path d="M147,121.28a6.78,6.78,0,1,1-6.77,6.78,6.79,6.79,0,0,1,6.77-6.78m0-.75a7.53,7.53,0,1,0,7.53,7.53,7.53,7.53,0,0,0-7.53-7.53Z" transform="translate(-4.97)"/><path d="M189.29,135.21a7.15,7.15,0,1,1,7.15-7.15A7.15,7.15,0,0,1,189.29,135.21Z" transform="translate(-4.97)"/><path d="M189.29,121.28a6.78,6.78,0,1,1-6.77,6.78,6.79,6.79,0,0,1,6.77-6.78m0-.75a7.53,7.53,0,1,0,7.53,7.53,7.53,7.53,0,0,0-7.53-7.53Z" transform="translate(-4.97)"/><circle cx="57.37" cy="166.14" r="7.15"/><path d="M62.33,159.37a6.78,6.78,0,1,1-6.77,6.77,6.78,6.78,0,0,1,6.77-6.77m0-.75a7.53,7.53,0,1,0,7.53,7.52,7.52,7.52,0,0,0-7.53-7.52Z" transform="translate(-4.97)"/><path d="M104.65,173.29a7.15,7.15,0,1,1,7.15-7.15A7.15,7.15,0,0,1,104.65,173.29Z" transform="translate(-4.97)"/><path d="M104.65,159.37a6.78,6.78,0,1,1-6.77,6.77,6.78,6.78,0,0,1,6.77-6.77m0-.75a7.53,7.53,0,1,0,7.53,7.52,7.52,7.52,0,0,0-7.53-7.52Z" transform="translate(-4.97)"/><circle cx="142.01" cy="166.14" r="7.15"/><path d="M147,159.37a6.78,6.78,0,1,1-6.77,6.77,6.78,6.78,0,0,1,6.77-6.77m0-.75a7.53,7.53,0,1,0,7.53,7.52,7.52,7.52,0,0,0-7.53-7.52Z" transform="translate(-4.97)"/><circle cx="184.33" cy="166.14" r="7.15"/><path d="M189.29,159.37a6.78,6.78,0,1,1-6.77,6.77,6.78,6.78,0,0,1,6.77-6.77m0-.75a7.53,7.53,0,1,0,7.53,7.52,7.52,7.52,0,0,0-7.53-7.52Z" transform="translate(-4.97)"/><circle cx="57.37" cy="204.23" r="7.15"/><path d="M62.33,197.46a6.78,6.78,0,1,1-6.77,6.77,6.78,6.78,0,0,1,6.77-6.77m0-.75a7.53,7.53,0,1,0,7.53,7.52,7.52,7.52,0,0,0-7.53-7.52Z" transform="translate(-4.97)"/><path d="M104.65,211.38a7.15,7.15,0,1,1,7.15-7.15A7.16,7.16,0,0,1,104.65,211.38Z" transform="translate(-4.97)"/><path d="M104.65,197.46a6.78,6.78,0,1,1-6.77,6.77,6.78,6.78,0,0,1,6.77-6.77m0-.75a7.53,7.53,0,1,0,7.53,7.52,7.52,7.52,0,0,0-7.53-7.52Z" transform="translate(-4.97)"/><circle cx="142.01" cy="204.23" r="7.15"/><path d="M147,197.46a6.78,6.78,0,1,1-6.77,6.77,6.78,6.78,0,0,1,6.77-6.77m0-.75a7.53,7.53,0,1,0,7.53,7.52,7.52,7.52,0,0,0-7.53-7.52Z" transform="translate(-4.97)"/></svg>