<?xml version="1.0" encoding="utf-8"?>
<!-- Generator: Adobe Illustrator 24.0.0, SVG Export Plug-In . SVG Version: 6.00 Build 0)  -->
<svg version="1.1" id="Layer_1" xmlns="http://www.w3.org/2000/svg" xmlns:xlink="http://www.w3.org/1999/xlink" x="0px" y="0px"
	 viewBox="0 0 512 512" style="enable-background:new 0 0 512 512;" xml:space="preserve">
<style type="text/css">
	.st0{fill:#8598A8;}
</style>
<path class="st0" d="M324.3,64c3.3,0,6.3,2.1,7.5,5.2l22.1,58.8H464c8.8,0,16,7.2,16,16v288c0,8.8-7.2,16-16,16H48
	c-8.8,0-16-7.2-16-16V144c0-8.8,7.2-16,16-16h110.2l20.1-53.6c2.3-6.2,8.3-10.4,15-10.4H324.3 M324.3,32h-131
	c-20,0-37.9,12.4-44.9,31.1L136,96H48c-26.5,0-48,21.5-48,48v288c0,26.5,21.5,48,48,48h416c26.5,0,48-21.5,48-48V144
	c0-26.5-21.5-48-48-48h-88l-14.3-38C355.9,42.3,341,32,324.3,32L324.3,32z M256,436c-82.8,0-150-67.2-150-150
	c0-76.6,51.9-150,150-150c82.8,0,150,67.2,150,150S338.8,436,256,436z M256,174c-77.7,0-113,56.9-113,113c0,62.3,50.7,113,113,113
	s113-50.7,113-113C369,218.9,318.3,174,256,174z"/>
</svg>
