<svg xmlns="http://www.w3.org/2000/svg" viewBox="0 0 460.551 460.551">
<linearGradient id="SVGID_1_" gradientUnits="userSpaceOnUse" x1="15.7749" y1="631.7979" x2="15.7749" y2="-60.2113" gradientTransform="matrix(1 0 0 -1 214.5 552.5508)"><stop offset="0" style="stop-color:#BA7418"/><stop offset="0.2909" style="stop-color:#F9D876"/><stop offset="0.3417" style="stop-color:#FADB83"/><stop offset="0.4351" style="stop-color:#FDE4A4"/><stop offset="0.4848" style="stop-color:#FFE9B9"/><stop offset="0.5325" style="stop-color:#FEE6AC"/><stop offset="0.62" style="stop-color:#FBDD8B"/><stop offset="0.6667" style="stop-color:#F9D876"/><stop offset="0.7299" style="stop-color:#F1CB6A"/><stop offset="0.8466" style="stop-color:#DCA94A"/><stop offset="1" style="stop-color:#BA7418"/></linearGradient>
<circle fill="url(#SVGID_1_)" cx="230.275" cy="230.275" r="230.025"/>
<linearGradient id="SVGID_2_" gradientUnits="userSpaceOnUse" x1="-157.3101" y1="148.6436" x2="225.9382" y2="533.0978" gradientTransform="matrix(1 0 0 -1 214.5 552.5508)"><stop offset="0" style="stop-color:#BA7418"/><stop offset="0.2909" style="stop-color:#F9D876"/><stop offset="0.3417" style="stop-color:#FADB83"/><stop offset="0.4351" style="stop-color:#FDE4A4"/><stop offset="0.4848" style="stop-color:#FFE9B9"/><stop offset="0.5325" style="stop-color:#FEE6AC"/><stop offset="0.62" style="stop-color:#FBDD8B"/><stop offset="0.6667" style="stop-color:#F9D876"/><stop offset="0.7299" style="stop-color:#F1CB6A"/><stop offset="0.8466" style="stop-color:#DCA94A"/><stop offset="1" style="stop-color:#BA7418"/></linearGradient>
<path fill="url(#SVGID_2_)" d="M410.924,153.961c-9.875-23.345-24.008-44.312-42.016-62.318 c-18.004-18.008-38.973-32.144-62.318-42.018c-24.17-10.223-49.846-15.406-76.315-15.406c-26.469,0-52.144,5.184-76.312,15.406 c-23.347,9.874-44.313,24.01-62.322,42.018c-18.004,18.006-32.139,38.974-42.016,62.318 C39.4,178.13,34.22,203.806,34.22,230.275c0,26.469,5.181,52.145,15.405,76.312c9.877,23.349,24.012,44.315,42.016,62.321 c18.009,18.004,38.976,32.142,62.322,42.016c24.169,10.226,49.844,15.407,76.312,15.407c26.47,0,52.146-5.183,76.315-15.407 c23.346-9.874,44.314-24.012,62.318-42.016c18.008-18.006,32.141-38.975,42.016-62.321 c10.226-24.168,15.408-49.844,15.408-76.312C426.332,203.806,421.148,178.13,410.924,153.961z"/>
<linearGradient id="SVGID_3_" gradientUnits="userSpaceOnUse" x1="-133.6406" y1="472.1709" x2="150.3417" y2="187.2811" gradientTransform="matrix(1 0 0 -1 214.5 552.5508)"><stop offset="0" style="stop-color:#BA7418"/><stop offset="0.2909" style="stop-color:#F9D876"/><stop offset="0.3417" style="stop-color:#FADB83"/><stop offset="0.4351" style="stop-color:#FDE4A4"/><stop offset="0.4848" style="stop-color:#FFE9B9"/><stop offset="0.5325" style="stop-color:#FEE6AC"/><stop offset="0.62" style="stop-color:#FBDD8B"/><stop offset="0.6667" style="stop-color:#F9D876"/><stop offset="0.7299" style="stop-color:#F1CB6A"/><stop offset="0.8466" style="stop-color:#DCA94A"/><stop offset="1" style="stop-color:#BA7418"/></linearGradient>
<path fill="url(#SVGID_3_)" d="M230.277,33.69c-108.57,0-196.588,88.015-196.588,196.584 c0,108.572,88.018,196.586,196.588,196.586c108.571,0,196.584-88.015,196.584-196.586 C426.861,121.706,338.849,33.69,230.277,33.69z M368.029,368.027c-17.893,17.891-38.728,31.938-61.924,41.75 c-24.017,10.158-49.529,15.311-75.829,15.311c-26.299,0-51.812-5.15-75.83-15.311c-23.197-9.812-44.03-23.859-61.925-41.75 c-17.889-17.892-31.937-38.727-41.748-61.924c-10.159-24.016-15.309-49.528-15.309-75.83c0-26.299,5.149-51.812,15.309-75.829 c9.812-23.195,23.859-44.031,41.748-61.921c17.895-17.893,38.728-31.939,61.925-41.75c24.018-10.159,49.531-15.309,75.83-15.309 c26.299,0,51.812,5.15,75.829,15.309c23.196,9.811,44.031,23.857,61.924,41.75c17.892,17.89,31.938,38.726,41.749,61.921 c10.159,24.017,15.309,49.53,15.309,75.829c0,26.301-5.149,51.814-15.309,75.83 C399.967,329.302,385.921,350.137,368.029,368.027z"/>
<linearGradient id="SVGID_4_" gradientUnits="userSpaceOnUse" x1="154.4893" y1="469.4619" x2="-181.6574" y2="112.7841" gradientTransform="matrix(1 0 0 -1 214.5 552.5508)"><stop offset="0" style="stop-color:#BA7418"/><stop offset="0.2909" style="stop-color:#F9D876"/><stop offset="0.3417" style="stop-color:#FADB83"/><stop offset="0.4351" style="stop-color:#FDE4A4"/><stop offset="0.4848" style="stop-color:#FFE9B9"/><stop offset="0.5325" style="stop-color:#FEE6AC"/><stop offset="0.62" style="stop-color:#FBDD8B"/><stop offset="0.6667" style="stop-color:#F9D876"/><stop offset="0.7299" style="stop-color:#F1CB6A"/><stop offset="0.8466" style="stop-color:#DCA94A"/><stop offset="1" style="stop-color:#BA7418"/></linearGradient>
<path fill="url(#SVGID_4_)" d="M413.047,153.065c-9.99-23.622-24.295-44.836-42.51-63.053 c-18.215-18.215-39.432-32.519-63.049-42.507c-24.457-10.345-50.434-15.591-77.212-15.591c-26.777,0-52.757,5.246-77.213,15.591 c-23.62,9.988-44.834,24.292-63.05,42.507c-18.217,18.217-32.518,39.431-42.511,63.053 c-10.343,24.454-15.589,50.434-15.589,77.209c0,26.779,5.246,52.757,15.589,77.212c9.993,23.621,24.294,44.834,42.511,63.052 c18.216,18.214,39.43,32.519,63.05,42.507c24.456,10.347,50.436,15.591,77.213,15.591c26.778,0,52.755-5.244,77.212-15.591 c23.617-9.988,44.834-24.293,63.049-42.507c18.215-18.218,32.52-39.431,42.51-63.052c10.344-24.455,15.59-50.434,15.59-77.212 C428.637,203.499,423.391,177.52,413.047,153.065z M306.105,409.777c-24.017,10.158-49.529,15.311-75.83,15.311 c-26.299,0-51.812-5.15-75.83-15.311c-23.197-9.812-44.03-23.859-61.925-41.75c-17.889-17.892-31.936-38.727-41.747-61.924 c-10.159-24.016-15.31-49.528-15.31-75.83c0-26.299,5.15-51.812,15.31-75.829c9.812-23.195,23.858-44.031,41.747-61.921 c17.895-17.894,38.728-31.939,61.925-41.751c24.018-10.159,49.531-15.309,75.83-15.309c26.3,0,51.813,5.149,75.83,15.309 c23.196,9.812,44.03,23.857,61.924,41.751c17.891,17.89,31.938,38.726,41.748,61.921c10.16,24.017,15.309,49.53,15.309,75.829 c0,26.301-5.148,51.814-15.309,75.83c-9.812,23.197-23.857,44.032-41.748,61.924 C350.137,385.918,329.303,399.966,306.105,409.777z"/>			
<linearGradient id="SVGID_5_" gradientUnits="userSpaceOnUse" x1="164.0186" y1="424.5" x2="-94.1433" y2="246.4772" gradientTransform="matrix(1 0 0 -1 214.5 552.5508)"><stop offset="0" style="stop-color:#BA7418"/><stop offset="0.2909" style="stop-color:#F9D876"/><stop offset="0.3417" style="stop-color:#FADB83"/><stop offset="0.4351" style="stop-color:#FDE4A4"/><stop offset="0.4848" style="stop-color:#FFE9B9"/><stop offset="0.5325" style="stop-color:#FEE6AC"/><stop offset="0.62" style="stop-color:#FBDD8B"/><stop offset="0.6667" style="stop-color:#F9D876"/><stop offset="0.7299" style="stop-color:#F1CB6A"/><stop offset="0.8466" style="stop-color:#DCA94A"/><stop offset="1" style="stop-color:#BA7418"/></linearGradient>
<path fill="url(#SVGID_5_)" d="M418.531,150.747c-10.289-24.329-25.023-46.179-43.785-64.94 c-18.762-18.763-40.615-33.494-64.941-43.784c-25.191-10.655-51.947-16.058-79.527-16.058c-27.582,0-54.338,5.402-79.528,16.058 c-24.332,10.29-46.178,25.021-64.945,43.784c-18.758,18.762-33.491,40.611-43.781,64.94 c-10.656,25.189-16.058,51.947-16.058,79.527c0,27.583,5.401,54.34,16.058,79.528c10.29,24.329,25.023,46.181,43.781,64.942 c18.768,18.762,40.613,33.493,64.945,43.783c25.19,10.654,51.946,16.058,79.528,16.058c27.58,0,54.335-5.402,79.527-16.058 c24.326-10.291,46.181-25.021,64.941-43.783c18.762-18.764,33.496-40.613,43.785-64.942 c10.653-25.188,16.055-51.944,16.055-79.528C434.586,202.694,429.186,175.937,418.531,150.747z M308.379,415.162 c-24.738,10.463-51.012,15.771-78.102,15.771c-27.091,0-53.37-5.309-78.104-15.771c-23.894-10.105-45.354-24.573-63.782-43.002 c-18.428-18.43-32.897-39.889-43.003-63.781c-10.463-24.736-15.766-51.016-15.766-78.104c0-27.089,5.303-53.365,15.766-78.103 c10.105-23.895,24.575-45.354,43.003-63.781c18.429-18.428,39.889-32.897,63.782-43.003 c24.734-10.463,51.014-15.768,78.104-15.768c27.09,0,53.364,5.305,78.102,15.768c23.896,10.105,45.355,24.575,63.779,43.003 c18.432,18.428,32.899,39.887,43.004,63.781c10.463,24.737,15.77,51.014,15.77,78.103c0,27.09-5.307,53.368-15.77,78.104 c-10.104,23.895-24.572,45.352-43.004,63.781C353.734,390.589,332.273,405.057,308.379,415.162z"/>
<path fill="#F5B034" d="M204.451,308.521V207.131c0-6.926-3.588-11.02-12.556-11.02c-9.326,0-26.545,5.667-37.663,11.02v101.391 h-51.653V155.179h38.382l5.381,11.649c21.521-9.132,49.499-14.799,69.588-14.799c15.423,0,25.824,5.354,31.921,14.799 c19.729-8.502,45.914-14.799,69.947-14.799c29.772,0,40.173,19.522,40.173,49.12v107.373H306.32V207.131 c0-6.926-3.588-11.02-12.557-11.02c-9.324,0-26.541,5.667-37.662,11.02v101.391H204.451z"/>
<path fill="#F5B034" d="M204.451,308.521V207.131c0-6.926-3.588-11.02-12.556-11.02c-9.326,0-26.545,5.667-37.663,11.02v101.391 h-51.653V155.179h38.382l5.381,11.649c21.521-9.132,49.499-14.799,69.588-14.799c15.423,0,25.824,5.354,31.921,14.799 c19.729-8.502,45.914-14.799,69.947-14.799c29.772,0,40.173,19.522,40.173,49.12v107.373H306.32V207.131 c0-6.926-3.588-11.02-12.557-11.02c-9.324,0-26.541,5.667-37.662,11.02v101.391H204.451z"/>
<path fill="none" stroke="#AA6705" stroke-width="2" stroke-miterlimit="10" d="M204.451,308.521V207.131 c0-6.926-3.588-11.02-12.556-11.02c-9.326,0-26.545,5.667-37.663,11.02v101.391h-51.653V155.179h38.382l5.381,11.649 c21.521-9.132,49.499-14.799,69.588-14.799c15.423,0,25.824,5.354,31.921,14.799c19.729-8.502,45.914-14.799,69.947-14.799 c29.772,0,40.173,19.522,40.173,49.12v107.373H306.32V207.131c0-6.926-3.588-11.02-12.557-11.02 c-9.324,0-26.541,5.667-37.662,11.02v101.391H204.451z"/>
</svg>