<svg viewBox="0 0 460 460" xmlns="http://www.w3.org/2000/svg">
<linearGradient id="f" x1="-413.22" x2="-413.22" y1="251.35" y2="-440.66" gradientTransform="matrix(1 0 0 -1 643.5 172.1)" gradientUnits="userSpaceOnUse"><stop stop-color="#BA7418" offset="0"/><stop stop-color="#F9D876" offset=".29"/><stop stop-color="#FADB83" offset=".341"/><stop stop-color="#FDE4A4" offset=".435"/><stop stop-color="#FFE9B9" offset=".484"/><stop stop-color="#FEE6AC" offset=".532"/><stop stop-color="#FBDD8B" offset=".62"/><stop stop-color="#F9D876" offset=".666"/><stop stop-color="#F1CB6A" offset=".729"/><stop stop-color="#DCA94A" offset=".846"/><stop stop-color="#BA7418" offset="1"/></linearGradient>
<circle cx="230.28" cy="230.28" r="230.02" fill="url(#f)"/>
<defs><filter x="34.22" y="34.219" width="392.11" height="392.11" filterUnits="userSpaceOnUse"><feColorMatrix values="1 0 0 0 0 0 1 0 0 0 0 0 1 0 0 0 0 0 1 0"/></filter></defs>
<mask id="e" x="34.22" y="34.219" width="392.112" height="392.112" maskUnits="userSpaceOnUse"/>
<linearGradient id="d" x1="-586.31" x2="-203.06" y1="-231.8" y2="152.65" gradientTransform="matrix(1 0 0 -1 643.5 172.1)" gradientUnits="userSpaceOnUse">
<stop stop-color="#BA7418" offset="0"/><stop stop-color="#F9D876" offset=".29"/><stop stop-color="#FADB83" offset=".341"/><stop stop-color="#FDE4A4" offset=".435"/><stop stop-color="#FFE9B9" offset=".484"/><stop stop-color="#FEE6AC" offset=".532"/><stop stop-color="#FBDD8B" offset=".62"/><stop stop-color="#F9D876" offset=".666"/><stop stop-color="#F1CB6A" offset=".729"/><stop stop-color="#DCA94A" offset=".846"/><stop stop-color="#BA7418" offset="1"/></linearGradient>
<path d="m410.92 153.96c-9.875-23.345-24.008-44.312-42.016-62.318-18.004-18.008-38.973-32.144-62.318-42.018-24.17-10.223-49.846-15.406-76.315-15.406s-52.144 5.184-76.312 15.406c-23.347 9.874-44.313 24.01-62.322 42.018-18.004 18.006-32.139 38.974-42.016 62.318-10.225 24.169-15.405 49.845-15.405 76.314s5.181 52.145 15.405 76.312c9.877 23.349 24.012 44.315 42.016 62.321 18.009 18.004 38.976 32.142 62.322 42.016 24.169 10.228 49.844 15.407 76.312 15.407 26.47 0 52.146-5.183 76.315-15.407 23.346-9.874 44.314-24.012 62.318-42.016 18.008-18.006 32.141-38.975 42.016-62.321 10.228-24.168 15.408-49.844 15.408-76.312 0-26.469-5.184-52.145-15.408-76.314z" fill="url(#d)" mask="url(#e)"/>
<linearGradient id="c" x1="-562.64" x2="-278.66" y1="91.721" y2="-193.17" gradientTransform="matrix(1 0 0 -1 643.5 172.1)" gradientUnits="userSpaceOnUse"><stop stop-color="#BA7418" offset="0"/><stop stop-color="#F9D876" offset=".29"/><stop stop-color="#FADB83" offset=".341"/><stop stop-color="#FDE4A4" offset=".435"/><stop stop-color="#FFE9B9" offset=".484"/><stop stop-color="#FEE6AC" offset=".532"/><stop stop-color="#FBDD8B" offset=".62"/><stop stop-color="#F9D876" offset=".666"/><stop stop-color="#F1CB6A" offset=".729"/><stop stop-color="#DCA94A" offset=".846"/><stop stop-color="#BA7418" offset="1"/></linearGradient>
<path d="m230.28 33.69c-108.57 0-196.59 88.015-196.59 196.58 0 108.57 88.018 196.59 196.59 196.59 108.57 0 196.58-88.017 196.58-196.59 0-108.57-88.012-196.58-196.58-196.58zm137.75 334.34c-17.895 17.891-38.729 31.938-61.924 41.75-24.019 10.158-49.529 15.311-75.831 15.311-26.299 0-51.812-5.15-75.83-15.311-23.197-9.812-44.03-23.859-61.925-41.75-17.889-17.894-31.937-38.729-41.748-61.924-10.159-24.018-15.309-49.528-15.309-75.832 0-26.299 5.149-51.812 15.309-75.829 9.812-23.195 23.859-44.031 41.748-61.921 17.895-17.893 38.728-31.939 61.925-41.75 24.018-10.159 49.531-15.309 75.83-15.309s51.812 5.15 75.831 15.309c23.194 9.811 44.029 23.857 61.924 41.75 17.892 17.89 31.938 38.726 41.749 61.921 10.159 24.017 15.309 49.53 15.309 75.829 0 26.301-5.149 51.814-15.309 75.832-9.811 23.199-23.857 44.034-41.749 61.924z" fill="url(#c)"/>
<linearGradient id="b" x1="-274.51" x2="-610.66" y1="89.012" y2="-267.66" gradientTransform="matrix(1 0 0 -1 643.5 172.1)" gradientUnits="userSpaceOnUse"><stop stop-color="#BA7418" offset="0"/><stop stop-color="#F9D876" offset=".29"/><stop stop-color="#FADB83" offset=".341"/><stop stop-color="#FDE4A4" offset=".435"/><stop stop-color="#FFE9B9" offset=".484"/><stop stop-color="#FEE6AC" offset=".532"/><stop stop-color="#FBDD8B" offset=".62"/><stop stop-color="#F9D876" offset=".666"/><stop stop-color="#F1CB6A" offset=".729"/><stop stop-color="#DCA94A" offset=".846"/><stop stop-color="#BA7418" offset="1"/></linearGradient>
<path d="m413.05 153.06c-9.99-23.622-24.295-44.836-42.51-63.053-18.215-18.215-39.432-32.519-63.049-42.507-24.457-10.345-50.434-15.591-77.212-15.591-26.777 0-52.757 5.246-77.213 15.591-23.62 9.988-44.834 24.292-63.05 42.507-18.217 18.217-32.518 39.431-42.511 63.053-10.343 24.454-15.589 50.434-15.589 77.209 0 26.779 5.246 52.757 15.589 77.212 9.993 23.621 24.294 44.834 42.511 63.052 18.216 18.214 39.43 32.519 63.05 42.507 24.456 10.347 50.436 15.591 77.213 15.591 26.778 0 52.755-5.244 77.212-15.591 23.617-9.988 44.834-24.293 63.049-42.507 18.215-18.218 32.52-39.431 42.51-63.052 10.344-24.455 15.59-50.436 15.59-77.212 0-26.775-5.246-52.754-15.59-77.209zm-106.94 256.71c-24.019 10.158-49.529 15.311-75.832 15.311-26.299 0-51.812-5.15-75.83-15.311-23.197-9.812-44.03-23.859-61.925-41.75-17.889-17.894-31.936-38.729-41.747-61.924-10.159-24.018-15.31-49.528-15.31-75.832 0-26.299 5.15-51.812 15.31-75.829 9.812-23.195 23.858-44.031 41.747-61.921 17.895-17.894 38.728-31.939 61.925-41.751 24.018-10.159 49.531-15.309 75.83-15.309 26.3 0 51.813 5.149 75.832 15.309 23.194 9.812 44.028 23.857 61.924 41.751 17.891 17.89 31.938 38.726 41.748 61.921 10.16 24.017 15.309 49.53 15.309 75.829 0 26.301-5.148 51.814-15.309 75.832-9.812 23.195-23.857 44.03-41.748 61.924-17.892 17.891-38.726 31.939-61.924 41.75z" fill="url(#b)"/>
<linearGradient id="a" x1="-264.98" x2="-523.14" y1="44.05" y2="-133.97" gradientTransform="matrix(1 0 0 -1 643.5 172.1)" gradientUnits="userSpaceOnUse"><stop stop-color="#BA7418" offset="0"/><stop stop-color="#F9D876" offset=".29"/><stop stop-color="#FADB83" offset=".341"/><stop stop-color="#FDE4A4" offset=".435"/><stop stop-color="#FFE9B9" offset=".484"/><stop stop-color="#FEE6AC" offset=".532"/><stop stop-color="#FBDD8B" offset=".62"/><stop stop-color="#F9D876" offset=".666"/><stop stop-color="#F1CB6A" offset=".729"/><stop stop-color="#DCA94A" offset=".846"/><stop stop-color="#BA7418" offset="1"/></linearGradient>
<path d="m418.53 150.75c-10.289-24.329-25.023-46.179-43.785-64.94-18.762-18.763-40.615-33.494-64.941-43.784-25.191-10.655-51.947-16.058-79.527-16.058-27.582 0-54.338 5.402-79.528 16.058-24.332 10.29-46.178 25.021-64.945 43.784-18.758 18.762-33.491 40.611-43.781 64.94-10.656 25.189-16.058 51.947-16.058 79.527 0 27.583 5.401 54.34 16.058 79.528 10.29 24.329 25.023 46.181 43.781 64.942 18.768 18.762 40.613 33.493 64.945 43.783 25.19 10.652 51.946 16.058 79.528 16.058 27.58 0 54.335-5.402 79.527-16.058 24.326-10.291 46.183-25.021 64.941-43.783 18.762-18.764 33.496-40.613 43.785-64.942 10.651-25.188 16.055-51.944 16.055-79.528 0-27.58-5.4-54.337-16.055-79.527zm-110.15 264.42c-24.738 10.463-51.012 15.771-78.102 15.771-27.091 0-53.37-5.309-78.104-15.771-23.894-10.105-45.354-24.573-63.782-43.002-18.428-18.43-32.897-39.889-43.003-63.781-10.463-24.736-15.766-51.016-15.766-78.104 0-27.089 5.303-53.365 15.766-78.103 10.105-23.895 24.575-45.354 43.003-63.781 18.429-18.428 39.889-32.897 63.782-43.003 24.734-10.463 51.014-15.768 78.104-15.768s53.364 5.305 78.102 15.768c23.896 10.105 45.355 24.575 63.779 43.003 18.432 18.428 32.897 39.887 43.004 63.781 10.463 24.737 15.77 51.014 15.77 78.103 0 27.09-5.307 53.368-15.77 78.104-10.104 23.895-24.572 45.352-43.004 63.781-18.424 18.429-39.885 32.897-63.779 43.002z" fill="url(#a)"/>
<path d="m204.45 308.52v-101.39c0-6.926-3.588-11.02-12.556-11.02-9.326 0-26.545 5.667-37.663 11.02v101.39h-51.653v-153.34h38.382l5.381 11.649c21.521-9.132 49.499-14.799 69.588-14.799 15.423 0 25.824 5.354 31.921 14.799 19.729-8.502 45.914-14.799 69.945-14.799 29.772 0 40.173 19.522 40.173 49.12v107.37h-51.649v-101.39c0-6.926-3.588-11.02-12.557-11.02-9.324 0-26.541 5.667-37.662 11.02v101.39h-51.65v-1e-3z" fill="#F5B034"/>
<path d="m204.45 308.52v-101.39c0-6.926-3.588-11.02-12.556-11.02-9.326 0-26.545 5.667-37.663 11.02v101.39h-51.653v-153.34h38.382l5.381 11.649c21.521-9.132 49.499-14.799 69.588-14.799 15.423 0 25.824 5.354 31.921 14.799 19.729-8.502 45.914-14.799 69.945-14.799 29.772 0 40.173 19.522 40.173 49.12v107.37h-51.649v-101.39c0-6.926-3.588-11.02-12.557-11.02-9.324 0-26.541 5.667-37.662 11.02v101.39h-51.65v-1e-3z" fill="#F5B034"/>
<path d="m204.45 308.52v-101.39c0-6.926-3.588-11.02-12.556-11.02-9.326 0-26.545 5.667-37.663 11.02v101.39h-51.653v-153.34h38.382l5.381 11.649c21.521-9.132 49.499-14.799 69.588-14.799 15.423 0 25.824 5.354 31.921 14.799 19.729-8.502 45.914-14.799 69.945-14.799 29.772 0 40.173 19.522 40.173 49.12v107.37h-51.649v-101.39c0-6.926-3.588-11.02-12.557-11.02-9.324 0-26.541 5.667-37.662 11.02v101.39h-51.65v-1e-3z" fill="none" stroke="#AA6705" stroke-miterlimit="10" stroke-width="2"/>
</svg>