<?xml version="1.0" encoding="utf-8"?>
<!-- Generator: Adobe Illustrator 24.0.0, SVG Export Plug-In . SVG Version: 6.00 Build 0)  -->
<svg version="1.1" id="Layer_1" xmlns="http://www.w3.org/2000/svg" xmlns:xlink="http://www.w3.org/1999/xlink" x="0px" y="0px"
	 viewBox="0 0 1865.8 379" style="enable-background:new 0 0 1865.8 379;" xml:space="preserve">
<style type="text/css">
	.st0{fill:#1C346F;stroke:#EEEEEE;stroke-miterlimit:10;}
	.st1{fill:#E0912F;}
	.st2{fill:#FFFFFF;}
	.st3{fill:#CF4044;}
	.st4{fill:#FFFFFF;stroke:#EEEEEE;stroke-miterlimit:10;}
	.st5{fill:#ECB73B;}
	.st6{fill:#2360A5;}
	.st7{fill:none;}
	.st8{fill:#00ACEC;}
	.st9{fill:#1B326C;}
</style>
<path class="st0" d="M637.8,0.5h590.4v378H637.8V0.5z"/>
<path class="st1" d="M1041.8,33.7c-43.5-0.1-85.1,17.6-115.3,49l-1.5,1.6c-2.4,2.5-4.7,5.2-6.9,7.9v0.1h32.4
	c4.5,5.4,8.5,11.1,12.2,17h-56.8c-1.7,2.7-3.3,5.4-4.8,8.2l-0.2,0.3c-1.5,2.8-2.9,5.6-4.3,8.4h75.3c2.5,5.5,4.8,11.2,6.8,17h-89
	c-1.9,5.6-3.4,11.2-4.6,17h98.2c0.7,3.1,1.2,6.3,1.7,9.5l2.1,0.6c3-3.4,6.5-6.3,10.4-8.7c0.5-0.3,0.9-0.4,1.3-0.6
	c8.4-6.8,19.5-9.4,30.1-6.9l7.1,1.8l4.2,1.6l-2.8,17.7c-4.7-2.7-10.1-4.2-15.6-4.4c-13,0-22.1,12.6-22.1,30.4
	c0,12.3,6.1,19.8,16.2,19.8c5.2-0.2,10.3-1.7,14.8-4.2l-3.1,18.5l-4.1,1l-0.7,4.1c-5,1.5-10.2,2.3-15.4,2.4
	c-9.9,0.4-19.3-4.4-24.8-12.7c-1.2,5.1-2.6,10.1-4.2,15h-88.8c1.9,5.8,4.2,11.4,6.8,16.9h75.3c-2.7,5.8-5.8,11.5-9.3,17h-56.8
	c3.7,6,7.8,11.6,12.2,17h32.4c-5,6-10.4,11.7-16.2,17c65.6,59.5,167,54.5,226.4-11c26.8-29.5,41.6-68,41.6-107.8
	c0-88.4-71.6-160.2-160.1-160.2C1041.9,33.7,1041.8,33.7,1041.8,33.7L1041.8,33.7z"/>
<path class="st1" d="M991.3,168.9l0.3-0.5C991.6,168.6,991.5,168.7,991.3,168.9z M994.6,164.7l0.3-0.4
	C994.9,164.4,994.8,164.6,994.6,164.7z M992.8,230.7l-1.2-1.2L992.8,230.7z"/>
<path class="st2" d="M1030.8,216.6c-4.6,2.5-9.6,3.9-14.8,4.2c-10.1,0-16.2-7.5-16.2-19.8c0-17.9,9.1-30.4,22.1-30.4
	c4.8,0,9.4,1.3,15.6,4.4l2.8-17.7c-1.4-0.6-2.8-1.1-4.2-1.6l-7.2-1.8c-12.3-2.9-25.3,1.1-33.9,10.4l-0.3,0.4
	c-1.2,1.3-2.3,2.7-3.3,4.1c-6.5,9.9-9.8,21.7-9.5,33.6c0,6.4,1.2,11.9,3,16.7c1.5,3.9,3.8,7.4,6.7,10.4l1.2,1.2
	c0.8,0.7,1.6,1.4,2.4,2c1.3,0.8,2.6,1.6,3.9,2.3l1.8,0.6c1.2,0.5,2.4,0.9,3.6,1.2l1.7,0.4c3.9,0.6,7.9,0.7,11.9,0.1
	c1.8-0.2,3.6-0.5,5.4-1l4.1-1L1030.8,216.6L1030.8,216.6z"/>
<path class="st3" d="M977.3,195h-1.2c-3-0.1-5.4,0-7.9,2.4c-2.3,6.8-4.2,18.6-7.2,38.7h-17.5l10.6-66.1h15.7l-1.6,10
	c5.3-7.8,8.6-10.8,14.3-10.8c0.6,0,1.2,0.1,1.7,0.2l0.6,0.1c-0.5-3.2-1.1-6.3-1.7-9.4H885c1.2-5.8,2.8-11.5,4.6-17h88.9
	c-1.9-5.8-4.2-11.4-6.8-17h-75.3c1.3-2.9,2.8-5.7,4.3-8.4l0.2-0.3c1.5-2.8,3.1-5.5,4.8-8.2h56.8c-3.7-5.9-7.8-11.6-12.2-17H918
	l0.1-0.1c2.3-2.7,4.6-5.3,6.9-7.9l1.5-1.6c2.5-2.5,5-5.1,7.6-7.5C868.5,15.8,767,20.8,707.6,86.4c-59.4,65.7-54.4,167.1,11.2,226.5
	c61.1,55.3,154.2,55.3,215.3,0c5.8-5.3,11.2-10.9,16.2-17H918c-4.4-5.4-8.5-11-12.2-17h56.8c3.4-5.4,6.5-11.1,9.3-17h-75.3
	c-1.3-2.7-2.5-5.5-3.6-8.3l-0.1-0.1c-1.1-2.8-2.2-5.7-3.2-8.6h88.9c1.6-4.9,3-9.9,4.2-15c-4.3-6.7-6.4-14.5-6.2-22.5
	C976.5,203.4,976.8,199.2,977.3,195L977.3,195z"/>
<path class="st4" d="M580.3,0.5v378H0.5V0.5H580.3z"/>
<path class="st5" d="M30.6,272.4h530.6v78.2H30.6L30.6,272.4L30.6,272.4z"/>
<path class="st6" d="M30.6,32.1h530.6v78.8H30.6L30.6,32.1L30.6,32.1z M340.4,128.7c14.7,0.9,21.2,1.3,40.4,11.2
	c-0.2,0-11.6,18.5-11.2,18.4c-22.6-14.6-46.8-9.4-48,4.1c-0.9,14.7,41,25.6,41.4,48.1c0.3,32.9-28.6,44.6-55.7,44.5
	c-18.6,0.1-25.1-0.4-40.4-10.2c0.1-0.2,7.7-21.7,7.6-22.5c5.1,2.6,18.2,12.1,31.7,12.3c17.1,0.1,23.8-8.7,23.6-15.3
	c-0.1-14.6-42.2-21.4-41.4-48.6C288.5,144.8,314.7,127.5,340.4,128.7z M165.1,132.9c0.2,0.1,2.7,82.4,2.5,82.3
	c0.1,0.1,47.1-82.2,47-82.3h27.1c0.4,0.1-73.7,120.7-74.1,120.6H136l-3.1-101.7c-0.3-6.5-5.6-15.6-21.5-16.8c-0.1-0.6,0.2-2,0-2
	L165.1,132.9L165.1,132.9z M251.4,132.9h33.7l-37.8,120.6h-33.7L251.4,132.9L251.4,132.9z M472.3,152.2c5.3,0.1,9.6-4.1,9.7-9.4
	c0-0.1,0-0.2,0-0.4c0.1-5.2-4-9.5-9.2-9.7c-0.2,0-0.4,0-0.5,0c-5.2-0.2-9.6,3.9-9.7,9.1c0,0.2,0,0.4,0,0.5c-0.1,5.3,4.1,9.6,9.4,9.7
	C472,152.2,472.2,152.2,472.3,152.2z M472.3,150.2c-4-0.1-7.2-3.4-7.2-7.4c0-0.1,0-0.2,0-0.2c0-4.5,3-7.5,7.2-7.6
	c4.2,0.1,7.2,3.2,7.2,7.6c0.2,4-2.8,7.4-6.8,7.6C472.5,150.2,472.4,150.2,472.3,150.2z M474.8,143.6c1.7-0.3,2.7-1.1,2.5-3.1
	c0.1-2.5-1.2-3.2-4.1-3.1h-5.1v10.2h2.5v-4.1h1.5l2.5,4.1h2.5L474.8,143.6L474.8,143.6z M470.8,141.5v-2.6h2c1.2-0.1,2.7-0.2,2.5,1
	c0.1,1.6-0.7,1.9-2,1.6L470.8,141.5L470.8,141.5z M542.8,344.4c5.5-0.1,9.8-4.6,9.7-10.1c0-0.1,0-0.1,0-0.2c0-5.3-4.3-9.7-9.7-9.7
	c0,0,0,0-0.1,0c-5.3,0-9.7,4.3-9.7,9.7C533,339.7,537.3,344.3,542.8,344.4z M542.8,341.9c-4.2,0.1-7.2-3.1-7.2-7.7
	c0-4.1,2.9-7.2,7.2-7.1c3.7-0.2,6.9,2.6,7.2,6.3c0,0.3,0,0.5,0,0.8C550.1,338.8,547.1,342,542.8,341.9z M545.4,335.2
	c1.7-0.1,2.7-0.9,2.5-3.1c0.1-2.3-1.2-3-4.1-3.1h-5.1v10.8h2.5v-4.6h1.5l2.5,4.6h2.5L545.4,335.2L545.4,335.2z M541.3,333.7v-3h2
	c1.2,0.2,2.7,0.1,2.5,1.5c0.1,1.3-0.7,1.6-2.1,1.5H541.3L541.3,333.7z M454.4,132.9c0.1,0.6,10.5,120.7,10.2,120.6h-32.8l-2.1-26.6
	H393c-0.2,0-13.3,26.6-13.3,26.6h-27.6l69.5-120.6L454.4,132.9L454.4,132.9z M425.8,166.5c-0.1,0,3.2,43.5,3.1,43.5h-27.1
	C401.8,210.1,425.7,166.9,425.8,166.5z"/>
<path class="st7" d="M454.4,132.9c0.1,0.6,10.5,120.7,10.2,120.6h-32.8l-2.1-26.6H393c-0.2,0-13.3,26.6-13.3,26.6h-27.6l69.5-120.6
	L454.4,132.9L454.4,132.9z"/>
<path class="st2" d="M425.8,166.5c-0.1,0,3.2,43.5,3.1,43.5h-27.1C401.8,210.1,425.7,166.9,425.8,166.5z"/>
<path class="st4" d="M1865.3,0.5v378h-587V0.5H1865.3z"/>
<path d="M1706.2,216.1c-1.2-11.2-8.6-17.9-22-17.9c-12.2,0-21.8,8.8-21.8,23c0,14.2,8.7,23.1,23.2,23.1c11.6,0,19.6-6.8,20.9-18.1
	h-13.8c-0.5,4.2-2.7,7.4-7.3,7.4c-7.3,0-8.6-5.8-8.6-11.9c0-8.4,3-12.7,8.1-12.7c4.5,0,7.3,2.6,7.8,7.2L1706.2,216.1L1706.2,216.1z"
	/>
<path d="M1742.6,244.3v-0.6c-1.6-1.3-1.7-2.3-1.7-4.1v-14.9c0-7.6-0.9-13.2-16-13.2c-12.6,0-17.4,3.9-17.4,10.7h12.2
	c0.3-2.7,2.7-3.1,4.5-3.1c1.3,0,4.1,0.3,4.1,2.6c0,6-22.7-0.6-22.7,13.8c0,6.6,5.3,9.6,11.4,9.6c4.4,0.3,8.7-1.3,12-4.3l0.6,3.4
	L1742.6,244.3L1742.6,244.3z M1722.7,238c-2.5,0-4-1.1-4-2.7c0-4.1,5.4-3.2,9.6-5.2C1728.6,234.5,1727.1,238,1722.7,238z
	 M1744.6,244.4h12.6v-11c0-6.8,2.6-9.3,7.8-9.3c0.9,0,1.7,0.2,2.6,0.3v-12.6l-1.6-0.2c-4.9,0-8,2.4-9.8,7.3h-0.1v-6.5h-11.5
	L1744.6,244.4L1744.6,244.4z"/>
<path d="M1784.9,236.1c-4.1,0-5-3.9-5-7.2c0-3.5,1.2-7.5,5.3-7.5c4.2,0,5.4,3.8,5.4,7.3C1790.6,232.4,1789.2,236.1,1784.9,236.1
	L1784.9,236.1z M1802.8,244.3v-43.7h-12.6v15.2c-2.7-3.2-5.5-4.1-9.5-4.1c-7.6,0-13.5,6.8-13.5,17.4c0,9,4.9,16.2,14.5,16.2
	c4.1,0,6.8-1.2,9.8-5.2v4.2L1802.8,244.3L1802.8,244.3z M1804.3,233.6c0.7,8.6,8.7,10.8,16,10.8c11.6,0,17.1-4.5,17.1-11.1
	c0-11.9-20.1-8.9-20.1-13.3c0-1.6,1.4-2.3,3.6-2.3c1,0,1.9,0.2,2.5,0.8c0.7,0.6,1.1,1.4,1.2,2.3h11.5c-0.8-8.4-8.9-10-15.8-10
	c-6.6,0-15.1,2.4-15.1,10.5c0,12.3,19.5,8.3,19.5,13.4c0,2.3-2.1,2.8-4,2.8c-1.1,0-2.2-0.3-3.1-1c-0.9-0.7-1.4-1.8-1.3-2.9h-12
	L1804.3,233.6z"/>
<path class="st8" d="M1410.2,171.6h-11.5v-25.3l-12.3,25.3l-6.6,0.2l-14.2-25.2v24.9l-19.3-0.1l-6.6-10.2l-17.1,0.1l-4.4,10.1
	l-12.5,0.1l18.3-41.4h13.8l16.3,30.8l0.1-30.8h16.1l12.6,22.5l9.9-22.5h17.1L1410.2,171.6z"/>
<path class="st2" d="M1334.8,151.9h-9l4.5-10.2L1334.8,151.9z"/>
<path class="st8" d="M1495.4,137.7c1.5,5.2-0.3,10.8-4.6,14.1c5.4,3.6,4.5,19.7,4.5,19.7h-11.6c0,0,1-12.6-2-13.9
	c-2.5-0.9-13.5-0.5-13.5-0.5l-0.2,14.7h-11.5l-0.2-41.6h29.3C1488.3,130.2,1493.7,132.8,1495.4,137.7L1495.4,137.7z"/>
<path class="st2" d="M1483.6,143.5c0,1.2-1.2,3-3.9,3.1l-12-0.1l0.2-6.7c0,0,4.5,0.1,10.4,0.1
	C1482.7,139.6,1483.5,142.4,1483.6,143.5L1483.6,143.5z"/>
<path class="st8" d="M1449.2,130.3v10.4h-19.7l-0.1,5.1h20.3l-0.1,10.3h-20.1l-0.2,5.2h20.5v10.4l-33-0.2l-0.2-41.1H1449.2z
	 M1583.6,223.4c-3.8-2.8-4.4-7.5-4-11.9c0.2-3.6,2.8-6.8,5.9-8.6c3-1.5,4.8-1.3,7.2-1.5h19v10.1h-18.4c-1.9,0-2.3,1.3-2.4,2.3
	c0.1,2.4,1.9,2.4,3.5,2.6c3.5,0,11.2-0.1,14,2.4c3.8,2.8,4.4,7.5,4,11.9c-0.4,3.7-2.6,6.9-5.9,8.7c-3,1.5-4.8,1.3-7.3,1.5h-19.3
	v-10.1h18.2c2.1,0,2.8-1.3,2.9-2.3c-0.2-2.3-1.9-2.4-3.5-2.6h-7c-1.6-0.1-3.2-0.4-4.7-1C1585.9,224.8,1584.3,224,1583.6,223.4
	L1583.6,223.4z M1621.2,223.4c-3.8-2.8-4.4-7.5-4-11.9c0.4-3.7,2.6-6.9,5.9-8.7c3-1.5,4.9-1.3,7.3-1.5l19.3,0.1v10h-18.5
	c-2.3,0.1-2.6,1.6-2.6,2.3c0.2,2.4,1.9,2.4,3.5,2.6c3.5,0,11.2-0.1,14,2.4c3.8,2.8,4.4,7.5,4,11.9c-0.2,3.6-2.8,6.8-5.9,8.6
	c-3,1.5-4.8,1.3-7.3,1.5l-19.4-0.1l-0.2-10h18.2c2.8,0,3.1-1.3,3.2-2.3c-0.2-2.4-1.9-2.4-3.5-2.5h-6.9c-1.6-0.1-3.2-0.4-4.7-1
	C1623.6,224.8,1621.9,224.1,1621.2,223.4L1621.2,223.4z M1574.5,210.9h-20v5.4l20.1-0.1l-0.1,10.2l-20-0.2l-0.1,4.9l20,0.1v9.3
	l-31.7,0.1l0.1-39.7h31.7L1574.5,210.9z"/>
<path class="st8" d="M1651,194.7h-27c-10.4,0.3-8.3,6.7-8.6,0.1c-0.1-0.3-27.3-0.1-27.3-0.1c-11.3,0.1-8.6,6.2-9-0.1
	c-0.2-0.3-42.4,0.1-42.4,0.1l0.1,3.6c-2.5-2.6-9.6-4.1-11.5-3.6H1491v3.7c0,0-4.3-3.6-7.1-3.7h-42.3l-6.7,7.6l-6.3-7.4l-49.9,0.2
	v52.4h49.8l6.3-7.6l6.7,7.6h31.3l0.1-13.1c0,0,15.9,0.9,18-3.9l0.2,5.7l-0.1,11.3h23.2l-0.1-13.4c2.4-0.1,5.6-0.5,5.6,2.1
	c0,3-0.3-5.8,0,11.2h85.4c1.5,0,1.8,0.1,3.1-0.2c1.8-0.4,3.8-2.7,5-4.4c-0.1,2,0.1,4.8,0.1,4.8l30.5,0.1c1.6-0.1,3.2-0.5,4.5-1.4
	c3.7-5.8,3.2-3.7,2.8,0.9v105.2h-346V178.3h17.3l4.2-9.9l9-0.1l5,10h30.5l-0.1-7.9l4.6,7.9h14.4l4.1-7.8l0.1,7.7h78.6l0.1-15
	c0,0,6.9-1.4,5.8,3v12h37.6l-0.1-4.5c0.1-0.4,2.7,4.3,9.7,4.5c12.8,0.1,14.9-0.3,23.8,0l5.4-9.4h10.4l4.7,9.4l30.2-0.2l0.2-10.5
	l6.6,10.6h24.5v-54.8l-23.3-0.1v9.5l-5.7-9.5l-27.1,0.1l-0.1,9.2l-4.8-9.2h-39.4c-13.1-0.1-15.3,6.6-15.3,6.6l0.1-6.6h-19.9
	c0,0-0.9,1.3-0.4,3.2c-1.6-1.6-3.2-3.4-7.9-3.2l-98.8-0.1c0,0-5.1,9.2-6.5,14.2c-2.4-4.6-4.5-9.3-6.5-14.1l-28-0.2l0.2,12.2
	c-1.4-3.2-6.3-12.1-6.3-12.1h-21.8l-15,33.1l0.1-124.5h346v162.6L1651,194.7z"/>
<path class="st8" d="M1500.8,130.2h10.4v41.3h-10.4V130.2z M1546.3,139.5c0,0-16-1.5-17.6,4.9c-1.9,3.4-1.9,10.8,1.2,14.5
	c2.3,2.1,5.4,3,8.5,2.1l2.3-3.4l13.7-27.5h12.4l15,31.8l-0.1-31.8h16c0.5,0,15.7,24.5,15.7,24.5l0.1-24.5h11l0.1,41.3h-13.1
	l-18.1-26.2v26.2h-19.9l-5.4-9.5l-17-0.1l-4.6,9.5c0,0-20.5,2.2-24.8-4.4c-5.6-6-6-15.5-4.5-23.6c0.9-4.6,3.7-8.7,7.7-11.2
	c5.7-3.1,21.3-2.1,21.3-2.1L1546.3,139.5L1546.3,139.5z"/>
<path class="st2" d="M1564.1,151.7h-9l4.6-10.2L1564.1,151.7z"/>
<path class="st8" d="M1434.6,211.9l9.3-10.9h37.8c4.5,1,7.6,5.2,9,9.4c1.3,5.6-0.5,11.4-4.9,15.2c-1.3,0.9-1.4,1.4-4.1,1.7h-15.7
	l-0.1,13.4h-21.9l-9.8-10.9c-2.7,2.7-10.1,10.9-10.1,10.9l-38.8,0.1v-39.9c34.1,0.4,39.1,0.2,39.1,0.2L1434.6,211.9L1434.6,211.9z"
	/>
<path class="st2" d="M1395.6,210.5v5.6h20l-0.1,10.6h-20l-0.1,5.3h20.1l9.5-10.7l-9.7-10.9L1395.6,210.5z M1453.5,231.9l-10.4-10.9
	l10.4-10.3V231.9z M1481.8,214.4c0,1.3-1.2,3-3.9,3.1h-12.1l0.1-6.5l10.6-0.2C1480.9,210.5,1481.6,213.3,1481.8,214.4L1481.8,214.4z
	"/>
<path class="st8" d="M1526.3,201H1498V241l11.2-0.2v-13.5l12.4,0.1c3.7,1.2,2.4,13.6,2.4,13.6h11.5c0,0,1.3-18.8-4.5-18.6
	c4.2-3.2,6-8.6,4.5-13.7C1534,203.8,1528.1,200.6,1526.3,201L1526.3,201z"/>
<path class="st2" d="M1519.3,210.4h-10.1v6.7h11.6c2.7-0.2,3.9-1.9,3.9-3.2C1524.6,212.8,1523.9,210.1,1519.3,210.4L1519.3,210.4z"
	/>
<path class="st8" d="M1667.4,353.1c5.4,0,9.8-4.4,9.8-9.8s-4.4-9.8-9.8-9.8c-5.4,0-9.8,4.4-9.8,9.8S1661.9,353.1,1667.4,353.1z
	 M1667.4,350.7c-4.3,0-7.2-3.1-7.2-7.5s3-7.5,7.2-7.5c4.2,0,7.2,3.1,7.2,7.5C1674.7,347.6,1671.6,350.7,1667.4,350.7z M1669.7,344.1
	c1.9-0.1,2.9-1,2.9-2.9c0-2.5-1.3-3.2-4.1-3.2h-5.1v10.6h2.2v-4.5h1.8l2.4,4.5h2.6L1669.7,344.1L1669.7,344.1z M1665.5,342.5v-2.9
	h2.4c1,0,2.5-0.1,2.5,1.3c0,1.3-0.9,1.6-2,1.6L1665.5,342.5L1665.5,342.5z"/>
<path class="st1" d="M1180.7,283.4c-0.3-2.9,1.8-5.4,4.6-5.7c2.9-0.3,5.4,1.8,5.7,4.6c0,0.4,0,0.7,0,1.1c-0.3,2.9-2.9,4.9-5.7,4.6
	C1182.9,287.8,1181,285.8,1180.7,283.4z M1185.9,287.4c2.2,0,3.9-1.7,3.9-3.9c0-2.2-1.7-3.9-3.9-3.9l0,0c-2.1,0-3.9,1.7-3.9,3.8
	c0,0,0,0,0,0.1C1182,285.6,1183.8,287.4,1185.9,287.4L1185.9,287.4z M1185.2,285.7h-1v-4.6h1.9c0.4,0,0.8,0,1.2,0.2
	c0.4,0.2,0.6,0.7,0.6,1.2c0,0.5-0.3,1-0.8,1.2l0.9,2h-1.2l-0.7-1.9h-0.8L1185.2,285.7L1185.2,285.7z M1185.2,283.1h0.6
	c0.2,0,0.5,0,0.6-0.1c0.2-0.1,0.2-0.3,0.2-0.5c0-0.2-0.1-0.3-0.2-0.5c-0.2-0.1-0.5-0.1-0.7-0.1h-0.6L1185.2,283.1L1185.2,283.1z"/>
<path class="st2" d="M1180.7,231.2c0-2.9,2.3-5.2,5.2-5.2s5.2,2.3,5.2,5.2l0,0c0,2.9-2.3,5.2-5.2,5.2S1180.7,234.1,1180.7,231.2z
	 M1185.9,235.2c2.2,0,3.9-1.7,3.9-3.9s-1.7-3.9-3.9-3.9c-2.2,0-3.9,1.8-3.9,3.9C1182,233.4,1183.8,235.2,1185.9,235.2z
	 M1185.2,233.5h-1v-4.6h1.9c0.4,0,0.8,0,1.2,0.2c0.4,0.2,0.6,0.7,0.6,1.2c0,0.5-0.3,1-0.8,1.2l0.9,2h-1.2l-0.7-1.8h-0.8
	L1185.2,233.5L1185.2,233.5z M1185.2,230.9h0.6l0.6-0.1c0.2-0.1,0.2-0.3,0.2-0.5c0-0.2-0.1-0.3-0.2-0.5c-0.2-0.1-0.5-0.1-0.7-0.1
	h-0.6L1185.2,230.9L1185.2,230.9z"/>
<path class="st9" d="M879.6,191.7h6.4l0.8-5.7h-6.3L879.6,191.7z M857.8,222.8c0-1.9,0.2-3.8,0.5-6l8.6-51.7h-3.6l-7.9,47.4l0.1,2.4
	c0,4.1-0.6,7.5-1.9,10.4c-0.1,0.8-0.2,1.7-0.2,2.5c0,9.4,5,14.5,13.2,14.5c4.1,0,7.8-0.6,13.1-2.2l0.7-4.2c-2.9,0.8-5.8,1.2-8.7,1.2
	C862.6,237.4,857.8,232.2,857.8,222.8L857.8,222.8z M919.4,183.4c-4.1,0-7.3,2.4-9.4,6.7c1.5-1,3.2-1.6,5-1.6c4.5,0,7.3,2.5,7.9,6.8
	h4.6l0.1-3.4C927.6,186.5,924.6,183.4,919.4,183.4z M889.8,207.7c0-9.8,2.5-18.3,6.7-25.1c-7.1,8.4-10.9,19.2-10.5,30.2
	c0,19.4,10.9,29.6,29.6,29.6c6.1,0,11.9-0.9,17.8-2.7l0.8-4.5c-4.8,1.3-9.8,2-14.8,2C900,237.3,889.8,227.1,889.8,207.7L889.8,207.7
	z"/>
<path class="st9" d="M906.7,210.7c0,1.1,0.1,2.1,0.3,3.1h30.6l1-5.1h-31.8L906.7,210.7z M708.1,173.9l-3.9,23.6l1,43.7h11.9l1.8-5.2
	h-9.3L708.1,173.9z M735.9,159.8h-3.3l-12,35.8l0.2,9.5L735.9,159.8z M743.8,173.5l-6.6,18.4l-7.8,49.2h17.4l0.9-5.2h-13.8
	L743.8,173.5z M694.1,159.8h-4.2l-13.6,81.4h16.9l0.9-5.2h-12.7L694.1,159.8z M796.8,189.8c0-4.4-3.1-6-11.2-6
	c-4.9,0-9.7,0.6-14.5,1.9l-4,1.1l1.8-10.8c-1.3,0.3-2.5,0.7-3.8,1l-2.4,14.9l3.4-1c4.7-1.3,9.5-2,14.4-2c7.5,0,11.1,1.2,11.6,4.8
	c1.3,0.1,2.6,0.2,3.9,0.3C796.6,192.7,796.8,191.2,796.8,189.8L796.8,189.8z M775.8,213.1c2.9-1.2,6.1-1.8,9.3-1.7
	c1.2,0,1.6,0.1,3.4,0.2c0,3.5-0.7,7-2.1,10.2c4.4-2.4,7.3-8,7.5-15.3c-1.3-0.2-2.6-0.3-3.9-0.3C782.1,206.3,777.3,208.6,775.8,213.1
	L775.8,213.1z M792.6,229.2c-4.4,5.4-11.2,8.4-18.2,8c-9.4,0-15.9-7.3-15.9-18.1c-0.1-5,1.2-9.9,3.9-14.1c-3.5,2.6-6.1,6.3-7.2,10.5
	c-0.8,2.8-1.2,5.7-1.3,8.6c0,10.7,7.1,18.1,15.5,18.1c9.3,0,14.4-2.8,18.2-8l-0.3,6.9h15l0.6-5.2h-10.6L792.6,229.2L792.6,229.2z
	 M1005.4,179.8c3.3-2.7,7.4-4.2,11.7-4.2c4.8,0,9.4,1.3,15.6,4.4l1.1-6.8c-3.7-1.7-7.8-2.7-11.9-2.7
	C1015.1,170.6,1008.9,174.1,1005.4,179.8L1005.4,179.8z M953.3,175h-3.6L939,241.2h17.4l0.9-5.2h-13.8L953.3,175z M1157.5,229.6
	c-4,4.7-9.9,7.4-16.1,7.3c-12.7,0-21-10.9-21-27.5c0-12.6,4.2-24,10.7-31.4c-4,2.8-7.2,6.5-9.5,10.8l0.1-0.1l-1.3-0.1
	c-4.6,0-7.2,2.1-9.6,10.9c0.9,5.2,2.5,10.3,4.8,15c0,16.6,8.6,27.5,21.3,27.5c6.4,0,11.3-2.3,16.1-7.3l-0.9,6.5h16.4l0.9-5.2h-12.8
	L1157.5,229.6L1157.5,229.6z M1168.3,159.8h-4.2l-2.3,14.2c1.3,1.2,2.5,2.5,3.5,3.9L1168.3,159.8z"/>
<path class="st9" d="M1152,185.2c-4.2,0-7.6,2.5-10.1,6.9c1.6-1.2,3.6-1.8,5.6-1.8c6,0,9.2,4.6,9.2,13c0.2,5.3-1,10.6-3.5,15.3
	c4.8-3.4,7.9-10.8,7.9-20.4C1161.2,189.7,1158,185.2,1152,185.2z M1096.6,175h-3.6l-10.6,66.2h17.4l0.9-5.2h-13.8L1096.6,175z
	 M1050.1,213.1c2.9-1.2,6.1-1.8,9.3-1.7c1.2,0,1.6,0.1,3.4,0.2c0,3.5-0.7,7-2.1,10.2c4.4-2.4,7.3-8,7.5-15.3
	c-1.3-0.2-2.6-0.3-3.9-0.3C1056.3,206.3,1051.6,208.6,1050.1,213.1L1050.1,213.1z M1066.9,229.2c-4.4,5.5-11.2,8.4-18.2,8
	c-9.4,0-15.9-7.3-15.9-18.1c-0.1-5,1.2-9.9,3.9-14.1c-4.1,3.1-7,7.6-8.2,12.6l2.3-1l-2.3,13.5c1.8,6.9,7.9,11.9,15.1,12.1
	c9.3,0,14.5-2.8,18.2-8l-0.3,6.9h15l0.6-5.2h-10.6L1066.9,229.2L1066.9,229.2z M1071,189.8c0-4.4-3-6-11.2-6
	c-4.9,0-9.7,0.6-14.5,1.9l-3.9,1.1l1.7-10.8c-1.3,0.3-2.5,0.7-3.8,1l-2.4,14.9l3.5-1c4.7-1.3,9.5-2,14.4-2c7.5,0,11.1,1.2,11.6,4.8
	c1.3,0.1,2.6,0.2,3.9,0.3C1070.8,192.7,1071,191.2,1071,189.8L1071,189.8z M812.7,196.1c0,7.9,3.8,13.8,13,18.1
	c7.1,3.3,8.3,3.9,8.3,6.9l-0.2,0.7c3.1-0.8,4.7-2.5,4.7-5.3c0-3-1.1-4-8.1-7.3c-9.2-4.3-13.3-10.1-13.3-18.5c0-4.3,0.9-8.3,2.8-11.8
	c-3.7,3-6.1,7.3-6.8,12C813,193,812.8,194.8,812.7,196.1L812.7,196.1z M835.1,189.5v0.2c1.1-0.3,2.3-0.5,3.5-0.5
	c3.4-0.1,8,0.3,13.1,1l0.9-5.6c-3-0.3-6-0.5-9-0.6C838,184,835.1,185.9,835.1,189.5L835.1,189.5z M819.1,236.6
	c-1.5-0.1-3-0.3-4.5-0.6l-3.9-0.8l1.4-9.1c-1.3-0.3-2.5-0.5-3.8-1l-1.5,11h-0.2l-0.5,4.2l0.3,0.1l3.2,0.6c1.5,0.3,3,0.5,4.6,0.7
	c4.1,0.3,7.6,0.6,9.8,0.6c13.1,0,20.8-3.5,24.6-10.2c-4.4,3.4-10.9,5.1-19.9,5.1C826.4,237.1,823.2,236.9,819.1,236.6z"/>
<path class="st3" d="M977.1,188.6c-0.5,0-1,0-1.5,0.1C976.1,188.6,976.6,188.6,977.1,188.6z M974.2,189l-1.2,0.5
	C973.4,189.3,973.8,189.1,974.2,189z M968.9,195.3l-0.8,2C968.3,196.6,968.6,196,968.9,195.3z M970.8,191.6
	c-0.3,0.4-0.6,0.9-0.9,1.4L970.8,191.6z"/>
<path class="st9" d="M1007.5,242.6c5.2-0.1,10.4-0.9,15.4-2.4l0.7-4.1c-3.7,0.9-7.5,1.4-11.3,1.4c-12.2,0.5-23.3-6.9-27.4-18.4
	c-2.1-5.3-3.1-11-3-16.7c0-8.8,1.5-16.8,4.2-23.6c2.6-7,7-13.2,12.7-18c-0.5,0.2-0.9,0.3-1.3,0.6c-3.9,2.4-7.4,5.3-10.4,8.7
	l-2.1-0.6v0.1c-2.9,5.3-5,11.2-6.6,19.2l-1.3-0.1c-0.5,0-1,0-1.5,0.1h-0.1c-0.4,0.1-0.8,0.2-1.2,0.3l-1.2,0.5
	c-0.3,0.2-0.8,0.5-1.1,0.8v0.1c-0.4,0.3-0.7,0.7-1,1.1v0.1c-0.3,0.4-0.6,0.9-0.9,1.4l-0.1,0.2c-0.3,0.6-0.6,1.1-0.8,1.7l-0.1,0.3
	l-0.8,2c2.5-2.4,5-2.5,7.9-2.4h1.2c-0.6,4.2-0.8,8.4-0.8,12.6c0,9.1,2.3,16.6,6.2,22.5C988.1,238,996.7,242.6,1007.5,242.6
	L1007.5,242.6z"/>
<path class="st2" d="M982.6,169.2c-5.7,0-9,3-14.3,10.8l1.5-10h-15.7L943.5,236h17.4c3.1-20.1,5-31.9,7.2-38.7
	c0.2-0.7,0.5-1.4,0.8-2l0.1-0.3c0.2-0.6,0.5-1.2,0.8-1.7l0.1-0.1c0.3-0.6,0.6-1.1,1-1.5v-0.1c0.3-0.4,0.6-0.8,1-1.1v-0.1
	c0.4-0.3,0.7-0.6,1.1-0.8c0.3-0.2,0.8-0.4,1.2-0.5l1.2-0.3h0.1c0.9-0.1,1.9-0.1,2.8-0.1c1.2-6.7,3.4-13.2,6.6-19.2l-0.6-0.1
	C983.7,169.3,983.2,169.2,982.6,169.2L982.6,169.2z M875.7,216.3c0-0.6,0.1-1.5,0.3-2.7l4.6-27.6h8.9l2.4-16.1h-8.9l2-9.8h-17.3
	l-9.5,56.9c-0.3,2-0.5,4-0.5,6c0,9.4,4.9,14.5,13.7,14.5c2.9,0,5.7-0.5,8.7-1.2c1.2-0.3,2.4-0.5,3.8-0.9l2.3-14.6
	c-1.5,0.5-3.1,0.7-4.7,0.6C877.5,221.2,875.7,219.7,875.7,216.3z M843.2,196.6c-7.1-3.3-8.1-4.1-8.1-7v-0.2c0-3.6,2.9-5.4,8.4-5.4
	c3.5,0,8.1,0.3,12.5,1l2.5-15.3c-5.1-0.8-10.2-1.2-15.3-1.3c-19.4,0-26.2,10.2-26.2,22.3c0,8.4,4.1,14.1,13.3,18.5
	c7.1,3.3,8.1,4.3,8.1,7.3c0,2.8-1.6,4.5-4.7,5.3c-1.7,0.4-3.5,0.6-5.3,0.6c-5.3-0.1-10.6-0.9-15.6-2.6l-2.4,15.3l3.9,0.8
	c4.7,0.7,9.4,1.1,14.1,1.2c18.3,0,26.8-7,26.8-22C855.5,205.9,851.9,200.6,843.2,196.6L843.2,196.6z M1186.4,154.7h-17.2l-3.8,23.2
	c-4.7-6.3-9.9-9-16.7-9c-15.4,0-28.4,18.5-28.4,40.6c0,16.6,8.4,27.5,21,27.5c6.4,0,11.3-2.3,16.1-7.3l-0.8,6.4h16.5L1186.4,154.7
	L1186.4,154.7z M1147.4,220.5c-6,0-9-4.4-9-13.1c0-13,5.6-22.2,13.5-22.2c6,0,9.2,4.6,9.2,13
	C1161.2,211.3,1155.5,220.5,1147.4,220.5L1147.4,220.5z M940.1,218.1c-5.6,2.7-11.8,4.2-18.1,4.2c-10.1,0-15.3-3.9-15.3-11.6
	l0.2-2.1h34.6c1.3-5.3,2.1-10.8,2.1-16.3c0-14.7-9.1-24.1-23.5-24.1c-9.9,0.2-19,5.7-23.7,14.4c-4.5,7.6-6.8,16.3-6.7,25.1
	c0,19.4,10.2,29.6,29.6,29.6c5,0,9.8-0.8,14.8-2c1-0.2,2-0.3,3.1-0.7L940.1,218.1L940.1,218.1z M927.5,195.2h-19.2
	c1.6-7.6,5.6-11.9,11.1-11.9c5.2,0,8.2,3.2,8.2,8.5L927.5,195.2L927.5,195.2z M764.7,154.7h-27l-16.9,50.3l-0.8-50.3h-25L681.4,236
	h16.3l10.4-62.2l1.5,62.2h11.9l22.3-62.5l-10,62.5h17.4L764.7,154.7z M808.2,224.4c0,0,4.1-26.4,4.6-30.2c0.3-2.1,0.4-4.2,0.5-6.3
	c0-12.7-7.9-19.4-22.9-19.4c-6.4,0-12.2,1-20.8,3.5l-2.4,14.9l4-1.2c4.7-1.3,9.6-1.9,14.5-1.9c8.1,0,11.2,1.6,11.2,6
	c0,1.5-0.2,2.9-0.7,4.3c-2.4-0.3-4.7-0.4-7.1-0.5c-12.7,0-21.8,4.1-26.6,11.5c-2.7,4.2-4,9.1-3.9,14.1c0,10.7,6.5,18.1,15.9,18.1
	c7,0.4,13.8-2.5,18.2-8l-0.3,6.8h14.4L808.2,224.4L808.2,224.4z M781.6,223.1c-3.8,0-6.3-2.6-6.3-6.7c0-6.7,5-10.1,14.8-10.1
	c1.3,0,2.6,0.1,3.9,0.3C793.8,216.4,788.6,223.1,781.6,223.1L781.6,223.1z M1086.1,200.9c1.2-7.3,1.4-9.8,1.4-13.1
	c0-12.7-7.9-19.4-22.9-19.4c-6.4,0-12.2,1-20.8,3.5l-2.4,14.9l4-1.1c4.7-1.3,9.6-1.9,14.5-1.9c8.2,0,11.2,1.6,11.2,6
	c0,1.5-0.2,2.9-0.7,4.3c-2.3-0.3-4.7-0.4-7.1-0.5c-12.7,0-21.8,4.1-26.6,11.5c-2.7,4.2-4.1,9.1-3.9,14.1c0,10.7,6.5,18.1,15.9,18.1
	c7,0.4,13.8-2.5,18.2-8l-0.3,6.8h14.4l1.6-11.6L1086.1,200.9L1086.1,200.9z M1055.8,223.1c-3.8,0-6.2-2.6-6.2-6.7
	c0-6.7,5-10.1,14.9-10.1c1.2,0,2,0.1,3.9,0.3C1068,216.4,1062.9,223.1,1055.8,223.1L1055.8,223.1z M1120.4,188.6
	c0.4,0,0.8,0,1.2,0.1c1.6-8,3.6-13.8,6.6-19.2l-0.6-0.1c-0.6-0.1-1.2-0.2-1.7-0.2c-5.7,0-9,3-14.3,10.8l1.5-10h-15.7l-10.6,66.1
	h17.4C1110.4,195.6,1112.1,188.6,1120.4,188.6L1120.4,188.6z"/>
</svg>
