<svg xmlns="http://www.w3.org/2000/svg" viewBox="0 0 324.42 48.58"><defs><style>.a{opacity:0.7;}.b{fill:#1c415e;}.c{fill:#007aff;}</style></defs><title>domain</title><g class="a"><path class="b" d="M29.5,16.73a11.14,11.14,0,0,0-8.84,4,11.2,11.2,0,0,0-8.86-4,11.44,11.44,0,0,0-8.35,3.45A11.49,11.49,0,0,0,0,28.53V42.1a2.75,2.75,0,0,0,.86,2.06A2.85,2.85,0,0,0,2.92,45H3A2.84,2.84,0,0,0,5,44.17a2.8,2.8,0,0,0,.87-2.07V28.53a5.62,5.62,0,0,1,1.73-4.17,5.62,5.62,0,0,1,4.16-1.72A5.65,5.65,0,0,1,16,24.36a5.66,5.66,0,0,1,1.73,4.17V42.1a2.75,2.75,0,0,0,.86,2.06,2.85,2.85,0,0,0,2.08.86h.05A2.94,2.94,0,0,0,23.6,42.1V28.53a5.89,5.89,0,0,1,5.9-5.89,5.89,5.89,0,0,1,5.92,5.89V42.1A2.94,2.94,0,0,0,38.34,45h0a2.85,2.85,0,0,0,2.08-.86,2.81,2.81,0,0,0,.84-2.06V28.53a11.78,11.78,0,0,0-11.8-11.8Z" transform="translate(0 -6.58)"/><path class="b" d="M61.49,16.73A14.15,14.15,0,0,0,47.34,30.87,14.15,14.15,0,0,0,61.49,45,14.13,14.13,0,0,0,75.63,30.87,14.13,14.13,0,0,0,61.49,16.73ZM69.73,31a7.87,7.87,0,0,1-2.43,5.82,7.79,7.79,0,0,1-5.81,2.42A8.21,8.21,0,0,1,53.25,31,8.23,8.23,0,0,1,67.31,25.1,7.9,7.9,0,0,1,69.73,31Z" transform="translate(0 -6.58)"/><path class="b" d="M102.48,16.73h0a2.85,2.85,0,0,0-2.08.86,2.82,2.82,0,0,0-.87,2.08v13.5a6,6,0,1,1-11.91,0V19.67a2.94,2.94,0,0,0-2.92-2.94h-.07a3,3,0,0,0-2.92,2.94v13.5a11.87,11.87,0,0,0,23.73,0V19.67a2.85,2.85,0,0,0-.85-2.07A2.76,2.76,0,0,0,102.48,16.73Z" transform="translate(0 -6.58)"/><path class="b" d="M126.48,21.77a2.77,2.77,0,0,0,.84-2.05v0a2.9,2.9,0,0,0-.84-2.08,2.85,2.85,0,0,0-2.08-.86H123a10.49,10.49,0,0,0-7.67,3.16,10.79,10.79,0,0,0-3.15,7.65V42.1a2.75,2.75,0,0,0,.86,2.06,2.85,2.85,0,0,0,2.06.86h.07a2.84,2.84,0,0,0,2-.85,2.8,2.8,0,0,0,.87-2.07V27.55a4.78,4.78,0,0,1,1.43-3.48A4.66,4.66,0,0,1,123,22.64h1.4A2.86,2.86,0,0,0,126.48,21.77Z" transform="translate(0 -6.58)"/><path class="b" d="M136.4,6.58a3.29,3.29,0,0,0-2.4,1,3.22,3.22,0,0,0-1,2.37,3.39,3.39,0,0,0,6.77,0,3.2,3.2,0,0,0-1-2.37A3.26,3.26,0,0,0,136.4,6.58Z" transform="translate(0 -6.58)"/><path class="b" d="M136.45,16.73h0a2.86,2.86,0,0,0-2.09.87,2.89,2.89,0,0,0-.83,2.07V44.34A4.72,4.72,0,0,1,132,47.83a4.62,4.62,0,0,1-3.45,1.43h-1.43a2.94,2.94,0,0,0-2.91,2.91v.08a2.81,2.81,0,0,0,.86,2,2.78,2.78,0,0,0,2,.87h1.43A10.42,10.42,0,0,0,136.21,52a10.68,10.68,0,0,0,3.15-7.66V19.67a2.93,2.93,0,0,0-.83-2.08A2.88,2.88,0,0,0,136.45,16.73Z" transform="translate(0 -6.58)"/><path class="b" d="M160.78,16.73a14.13,14.13,0,0,0-14.14,14.14A14.14,14.14,0,0,0,169,42.36a2.76,2.76,0,0,0,.86,1.8,2.81,2.81,0,0,0,2.05.86H172a2.84,2.84,0,0,0,2.05-.85,2.76,2.76,0,0,0,.87-2.07V30.87a14.13,14.13,0,0,0-14.15-14.14ZM169,30.87a8.24,8.24,0,1,1-14.08-5.82,7.92,7.92,0,0,1,5.84-2.41A8.25,8.25,0,0,1,169,30.87Z" transform="translate(0 -6.58)"/><path class="b" d="M202,20.21h0a11.87,11.87,0,0,0-20.25,8.39V42.1a2.75,2.75,0,0,0,.86,2.06,2.85,2.85,0,0,0,2.06.86h.07a2.84,2.84,0,0,0,2.05-.85,2.76,2.76,0,0,0,.87-2.07V28.6a6,6,0,1,1,11.91,0V42.1a2.75,2.75,0,0,0,.86,2.06,2.88,2.88,0,0,0,2.08.86h.05a2.94,2.94,0,0,0,2.92-2.92V28.6A11.48,11.48,0,0,0,202,20.21Z" transform="translate(0 -6.58)"/></g><path class="c" d="M220.77,35.54a4.72,4.72,0,1,1-4.72,4.72A4.7,4.7,0,0,1,220.77,35.54Z" transform="translate(0 -6.58)"/><path class="c" d="M242,16.29c5.49,0,9.13,2.18,9.13,5.24A3.33,3.33,0,0,1,247.74,25c-1.5,0-3.42-1.25-5.75-1.25-3.32,0-5.66,2.7-5.66,6.9s2.23,6.9,6,6.9c2.38,0,4.25-1.24,5.6-1.24a3.3,3.3,0,0,1,3.16,3.53c0,2.85-3.89,5.44-9.59,5.44-8,0-13.54-5.81-13.54-14.47C227.93,22.36,233.43,16.29,242,16.29Z" transform="translate(0 -6.58)"/><path class="c" d="M266.42,16.19c8.09,0,13.8,6.12,13.8,14.63s-5.71,14.63-13.8,14.63-13.85-6.12-13.85-14.63S258.38,16.19,266.42,16.19Zm0,21.48c3.11,0,5.4-2.7,5.4-7s-2.39-6.85-5.4-6.85S261,26.46,261,30.72,263.31,37.67,266.42,37.67Z" transform="translate(0 -6.58)"/><path class="c" d="M284.27,22.57c0-4,1.3-5.91,4.1-5.91a4.35,4.35,0,0,1,3.89,2.59,8.25,8.25,0,0,1,6.54-2.7,9.61,9.61,0,0,1,8.14,3.84,10.17,10.17,0,0,1,8.25-3.84c5.65,0,9.23,3.69,9.23,10.74V39c0,4-1.29,6-4.09,6s-4.05-2-4.05-6V29.78c0-4.15-1.09-6.22-3.74-6.22-3,0-4.1,2.07-4.1,6.12V39c0,4-1.29,6-4.09,6s-4.1-2-4.1-6V29.78c0-4.15-1-6.22-3.69-6.22-2.95,0-4.09,2.07-4.09,6.12V39c0,4-1.3,6-4.1,6s-4.1-2-4.1-6Z" transform="translate(0 -6.58)"/></svg>