<svg xmlns="http://www.w3.org/2000/svg" viewBox="0 0 80 80"><g>
<path d="M59.4,1c-4.1,0-7.5,3.1-7.8,7.1c0,0.2,0,63.8,0,64c0.4,4.3,4.3,7.5,8.6,7.1c4-0.4,7.1-3.8,7.1-7.8V8.9
		C67.3,4.6,63.8,1,59.4,1C59.4,1,59.4,1,59.4,1z M61.6,72c-0.2,1.1-1.1,1.8-2.2,1.8c-1.1,0-2-0.8-2.2-1.8c0-0.1,0-63.6,0-63.8
		c0.2-1.1,1.1-1.8,2.2-1.8c1.1,0,2,0.8,2.2,1.8C61.5,8.4,61.5,71.9,61.6,72z"/>
<path d="M39.1,1c-4.1,0-7.5,3.1-7.8,7.1c0,0.2,0,37.4,0,37.6c0.4,4.3,4.2,7.6,8.5,7.2c4.1-0.4,7.2-3.8,7.2-7.9V9
		C47,4.6,43.5,1.1,39.1,1C39.2,1,39.1,1,39.1,1z M41.2,45.6c-0.2,1.1-1.1,1.8-2.2,1.8c-1.1,0-2-0.8-2.2-1.8c0-0.1,0-37.2,0-37.4
		C37,7.2,38,6.4,39,6.4c1.1,0,2,0.8,2.2,1.8C41.2,8.4,41.2,45.5,41.2,45.6L41.2,45.6z"/>
<path d="M19.2,1c-3.9,0-7.1,3-7.5,6.8c0,0.2,0,46.7,0,46.8c0.3,4.1,3.8,7.3,8,7c4.1-0.3,7.2-3.7,7-7.8V8.6C26.7,4.4,23.4,1,19.2,1
		C19.2,1,19.2,1,19.2,1z M21.2,54.5c-0.2,1-1.1,1.7-2.1,1.8c-1,0-1.9-0.7-2.1-1.7c0-0.1,0-46.5,0-46.6c0.2-1.2,1.3-1.9,2.5-1.7
		c0.9,0.2,1.6,0.8,1.7,1.7C21.2,8.1,21.2,54.4,21.2,54.5L21.2,54.5z"/>
</g></svg>
