<svg xmlns="http://www.w3.org/2000/svg" viewBox="0 0 42.91 40.54"><defs><style>.a{fill:#e1b68a;}</style></defs><title>empty-coin</title><path class="a" d="M10.23,2.87a1.66,1.66,0,0,1,.89.08,2.42,2.42,0,0,1,1,1.07,1.8,1.8,0,0,1-1.34.07,2.21,2.21,0,0,1-.94-.94A16.19,16.19,0,0,0,8.24,4.54a1.49,1.49,0,0,1,.83-.13,2.07,2.07,0,0,1,1.16.8,1.77,1.77,0,0,1-1.29.4,2,2,0,0,1-1.08-.69c-.42.45-.82.91-1.21,1.4a1.54,1.54,0,0,1,.69-.19,1.87,1.87,0,0,1,1.25.58,2,2,0,0,1-1.24.62,1.81,1.81,0,0,1-1.11-.45A20.27,20.27,0,0,0,5.09,8.67,1.75,1.75,0,0,1,6,8.24a1.82,1.82,0,0,1,1.29.44,2.07,2.07,0,0,1-1.19.76,1.77,1.77,0,0,1-1.19-.36A20.41,20.41,0,0,0,4,11a1.86,1.86,0,0,1,.83-.55,1.82,1.82,0,0,1,1.32.25A2.16,2.16,0,0,1,5,11.59a1.67,1.67,0,0,1-1.21-.19,20.09,20.09,0,0,0-.67,2A2.07,2.07,0,0,1,4,12.74a1.76,1.76,0,0,1,1.34.11,2.35,2.35,0,0,1-1,1A1.68,1.68,0,0,1,3,13.83c-.18.71-.33,1.44-.44,2.17a2.25,2.25,0,0,1,.79-.89A1.7,1.7,0,0,1,4.72,15a2.49,2.49,0,0,1-.92,1.18,1.76,1.76,0,0,1-1.26.11c-.1.73-.17,1.47-.2,2.23a2.18,2.18,0,0,1,.71-.94,1.79,1.79,0,0,1,1.32-.23,2.65,2.65,0,0,1-.83,1.28,1.78,1.78,0,0,1-1.21.25c0,.2,0,.4,0,.61s0,.4,0,.61a1.67,1.67,0,0,1,1.21.25,2.6,2.6,0,0,1,.83,1.27,1.69,1.69,0,0,1-1.32-.23,2.18,2.18,0,0,1-.71-.94c0,.76.1,1.5.2,2.23a1.77,1.77,0,0,1,1.26.12A2.45,2.45,0,0,1,4.72,24a1.77,1.77,0,0,1-1.34-.09A2.25,2.25,0,0,1,2.59,23,21.93,21.93,0,0,0,3,25.2a1.68,1.68,0,0,1,1.23-.06,2.3,2.3,0,0,1,1,1.05,1.78,1.78,0,0,1-1.34.1,2.07,2.07,0,0,1-.81-.69,20.09,20.09,0,0,0,.67,2A1.72,1.72,0,0,1,5,27.44a2.21,2.21,0,0,1,1.11.92,1.77,1.77,0,0,1-1.32.25A1.78,1.78,0,0,1,4,28.06,20.41,20.41,0,0,0,4.87,30a1.77,1.77,0,0,1,1.19-.36,2.07,2.07,0,0,1,1.19.76A1.82,1.82,0,0,1,6,30.79a1.82,1.82,0,0,1-.87-.42c.36.62.74,1.22,1.15,1.79a1.76,1.76,0,0,1,1.11-.46,2,2,0,0,1,1.24.63,2,2,0,0,1-1.25.58,1.55,1.55,0,0,1-.69-.2c.39.49.79,1,1.21,1.4a1.94,1.94,0,0,1,1.08-.68,1.79,1.79,0,0,1,1.29.39,2,2,0,0,1-1.16.8,1.59,1.59,0,0,1-.83-.12,16.09,16.09,0,0,0,1.61,1.38,2.14,2.14,0,0,1,.94-.93,1.77,1.77,0,0,1,1.34.06,2.37,2.37,0,0,1-1,1.07,1.56,1.56,0,0,1-.89.08,15.72,15.72,0,0,0,1.92,1.15,2.48,2.48,0,0,1,.8-1.12A1.68,1.68,0,0,1,14.27,36a2.49,2.49,0,0,1-.84,1.26,1.65,1.65,0,0,1-.87.27h-.28l-.11.15A2.78,2.78,0,0,1,12.55,39a2.71,2.71,0,0,1-.53,1.5A2.87,2.87,0,0,1,11.56,39,2.75,2.75,0,0,1,12,37.59a15.26,15.26,0,0,1-2.21-1.36A3,3,0,0,1,10,37.66,2.63,2.63,0,0,1,9.26,39,3,3,0,0,1,9,37.43a2.72,2.72,0,0,1,.66-1.31,15.94,15.94,0,0,1-1.91-1.69,3.12,3.12,0,0,1-.07,1.46,2.37,2.37,0,0,1-.94,1.16,3,3,0,0,1,0-1.63,2.27,2.27,0,0,1,.86-1.11,19.67,19.67,0,0,1-1.58-1.92,3.11,3.11,0,0,1-.24,1.53,2.09,2.09,0,0,1-1.07,1A3.09,3.09,0,0,1,5,33.29a2.11,2.11,0,0,1,1-1,18.78,18.78,0,0,1-1.29-2.06,2.85,2.85,0,0,1-.35,1.36,2,2,0,0,1-1.14.85,3,3,0,0,1,.35-1.57,2.05,2.05,0,0,1,1-.83,21.07,21.07,0,0,1-1-2.15,2.75,2.75,0,0,1-.48,1.3A1.93,1.93,0,0,1,2,29.92a3,3,0,0,1,.49-1.52,1.9,1.9,0,0,1,1.12-.67,21.46,21.46,0,0,1-.72-2.23,2.58,2.58,0,0,1-.57,1.21A1.79,1.79,0,0,1,1,27.26a2.81,2.81,0,0,1,.61-1.45,1.84,1.84,0,0,1,1.16-.55A19.82,19.82,0,0,1,2.33,23a2.38,2.38,0,0,1-.66,1.06,1.75,1.75,0,0,1-1.31.37,2.68,2.68,0,0,1,.75-1.35,1.72,1.72,0,0,1,1.17-.38q-.15-1.15-.21-2.34a2.3,2.3,0,0,1-.74,1A1.71,1.71,0,0,1,0,21.65a2.57,2.57,0,0,1,.84-1.27,1.73,1.73,0,0,1,1.23-.25c0-.18,0-.36,0-.54v-.15c0-.18,0-.36,0-.54a1.71,1.71,0,0,1-1.23-.24A2.62,2.62,0,0,1,0,17.38a1.81,1.81,0,0,1,1.33.23,2.32,2.32,0,0,1,.74,1q.06-1.2.21-2.34a1.72,1.72,0,0,1-1.17-.38,2.73,2.73,0,0,1-.75-1.36,1.75,1.75,0,0,1,1.31.37A2.38,2.38,0,0,1,2.33,16a20.29,20.29,0,0,1,.45-2.22,1.84,1.84,0,0,1-1.16-.55A2.81,2.81,0,0,1,1,11.77a1.84,1.84,0,0,1,1.26.55,2.61,2.61,0,0,1,.57,1.22,20,20,0,0,1,.72-2.23,2,2,0,0,1-1.12-.68A2.93,2.93,0,0,1,2,9.11a2,2,0,0,1,1.21.7,2.72,2.72,0,0,1,.48,1.29A22.12,22.12,0,0,1,4.63,9a2,2,0,0,1-1-.82,3.09,3.09,0,0,1-.35-1.58,2,2,0,0,1,1.14.86,2.79,2.79,0,0,1,.35,1.35A18.64,18.64,0,0,1,6,6.71a2.2,2.2,0,0,1-1-1,3.09,3.09,0,0,1-.23-1.61,2.2,2.2,0,0,1,1.07,1,3.11,3.11,0,0,1,.24,1.53A18.42,18.42,0,0,1,7.65,4.73a2.36,2.36,0,0,1-.86-1.12A3,3,0,0,1,6.76,2,2.37,2.37,0,0,1,7.7,3.14a3.16,3.16,0,0,1,.07,1.47,17,17,0,0,1,1.91-1.7A2.68,2.68,0,0,1,9,1.61,2.89,2.89,0,0,1,9.26,0,2.68,2.68,0,0,1,10,1.37,3,3,0,0,1,9.82,2.8"/><path class="a" d="M31.77,2.87a2,2,0,0,0-1,.08A2.48,2.48,0,0,0,29.7,4a2.12,2.12,0,0,0,1.46.07,2.34,2.34,0,0,0,1-.94,17.78,17.78,0,0,1,1.75,1.39,1.75,1.75,0,0,0-.9-.13,2.33,2.33,0,0,0-1.28.8,2.1,2.1,0,0,0,1.42.4,2.13,2.13,0,0,0,1.17-.69,17.35,17.35,0,0,1,1.31,1.4,1.72,1.72,0,0,0-.74-.19,2.07,2.07,0,0,0-1.36.58,2.2,2.2,0,0,0,1.35.62,2.08,2.08,0,0,0,1.21-.45,19,19,0,0,1,1.24,1.79,1.87,1.87,0,0,0-.93-.43A2.08,2.08,0,0,0,35,8.68a2.28,2.28,0,0,0,1.29.76,2.06,2.06,0,0,0,1.3-.36,21,21,0,0,1,1,1.89,2.06,2.06,0,0,0-.9-.55,2.13,2.13,0,0,0-1.44.25,2.21,2.21,0,0,0,1.2.92,2,2,0,0,0,1.33-.19c.27.66.51,1.34.72,2a2.17,2.17,0,0,0-.88-.69,2.06,2.06,0,0,0-1.46.11,2.42,2.42,0,0,0,1.12,1,2,2,0,0,0,1.34-.06A20,20,0,0,1,40.09,16a2.26,2.26,0,0,0-.86-.89A2,2,0,0,0,37.77,15a2.53,2.53,0,0,0,1,1.18,2,2,0,0,0,1.36.11,20.28,20.28,0,0,1,.23,2.23,2.31,2.31,0,0,0-.78-.94,2.11,2.11,0,0,0-1.44-.23,2.6,2.6,0,0,0,.91,1.28,2.09,2.09,0,0,0,1.32.25c0,.2,0,.4,0,.61s0,.4,0,.61a2,2,0,0,0-1.32.25,2.55,2.55,0,0,0-.91,1.27,2,2,0,0,0,1.44-.23,2.31,2.31,0,0,0,.78-.94,20.28,20.28,0,0,1-.23,2.23,2.05,2.05,0,0,0-1.36.12,2.48,2.48,0,0,0-1,1.18,2.09,2.09,0,0,0,1.46-.09,2.26,2.26,0,0,0,.86-.89,19.48,19.48,0,0,1-.48,2.17,2,2,0,0,0-1.34-.06,2.42,2.42,0,0,0-1.12,1,2,2,0,0,0,1.46.11,2.17,2.17,0,0,0,.88-.69c-.21.69-.45,1.37-.72,2a2,2,0,0,0-1.33-.19,2.26,2.26,0,0,0-1.2.92,2.07,2.07,0,0,0,1.44.25,2,2,0,0,0,.9-.55,21,21,0,0,1-1,1.89,2.06,2.06,0,0,0-1.3-.36,2.28,2.28,0,0,0-1.29.76,2.08,2.08,0,0,0,1.41.44,2,2,0,0,0,.93-.42,20.33,20.33,0,0,1-1.24,1.79,2,2,0,0,0-1.21-.46,2.19,2.19,0,0,0-1.35.63,2.18,2.18,0,0,0,1.36.58,1.72,1.72,0,0,0,.74-.2,17.35,17.35,0,0,1-1.31,1.4,2.18,2.18,0,0,0-1.17-.69,2.15,2.15,0,0,0-1.42.4,2.22,2.22,0,0,0,1.28.8,1.86,1.86,0,0,0,.9-.12,17.67,17.67,0,0,1-1.75,1.38,2.27,2.27,0,0,0-1-.93A2.08,2.08,0,0,0,29.7,35a2.43,2.43,0,0,0,1.1,1.07,1.85,1.85,0,0,0,1,.08,16.42,16.42,0,0,1-2.1,1.15,2.53,2.53,0,0,0-.86-1.12A2,2,0,0,0,27.36,36a2.59,2.59,0,0,0,.92,1.26,1.94,1.94,0,0,0,.95.27h.3l.13.15A2.56,2.56,0,0,0,29.25,39a2.62,2.62,0,0,0,.56,1.5,2.39,2.39,0,0,0,0-2.95,17.32,17.32,0,0,0,2.41-1.36A2.78,2.78,0,0,0,32,37.66a2.5,2.5,0,0,0,.8,1.37,2.79,2.79,0,0,0,.26-1.6,2.61,2.61,0,0,0-.72-1.31,16.7,16.7,0,0,0,2.08-1.69,2.69,2.69,0,0,0,.08,1.46,2.43,2.43,0,0,0,1,1.16,2.87,2.87,0,0,0,0-1.63,2.42,2.42,0,0,0-.94-1.11,19.63,19.63,0,0,0,1.72-1.92,2.85,2.85,0,0,0,.26,1.53,2.19,2.19,0,0,0,1.17,1,2.88,2.88,0,0,0-.25-1.61,2.27,2.27,0,0,0-1.12-1,21.28,21.28,0,0,0,1.4-2.06,2.71,2.71,0,0,0,.38,1.36,2.16,2.16,0,0,0,1.25.85A2.89,2.89,0,0,0,39,30.91a2.24,2.24,0,0,0-1.14-.83A19.62,19.62,0,0,0,39,27.93a2.56,2.56,0,0,0,.52,1.3,2.17,2.17,0,0,0,1.32.69,2.73,2.73,0,0,0-.54-1.52A2.09,2.09,0,0,0,39,27.73a21.8,21.8,0,0,0,.78-2.23,2.54,2.54,0,0,0,.62,1.21,2,2,0,0,0,1.38.55,2.76,2.76,0,0,0-.67-1.45,2.09,2.09,0,0,0-1.26-.55A22.39,22.39,0,0,0,40.38,23a2.39,2.39,0,0,0,.72,1.06,2,2,0,0,0,1.42.37,2.66,2.66,0,0,0-.81-1.35,2,2,0,0,0-1.28-.38,22.6,22.6,0,0,0,.22-2.34,2.4,2.4,0,0,0,.82,1,2,2,0,0,0,1.44.23A2.48,2.48,0,0,0,42,20.38a2,2,0,0,0-1.34-.25c0-.18,0-.36,0-.54v0a.43.43,0,0,1,0-.05s0,0,0-.06v0c0-.18,0-.36,0-.54A2,2,0,0,0,42,18.66a2.53,2.53,0,0,0,.91-1.28,2.11,2.11,0,0,0-1.44.23,2.42,2.42,0,0,0-.82,1,22.09,22.09,0,0,0-.22-2.34,2,2,0,0,0,1.28-.38,2.71,2.71,0,0,0,.81-1.36,2,2,0,0,0-1.42.37A2.39,2.39,0,0,0,40.38,16c-.13-.75-.29-1.5-.49-2.22a2.09,2.09,0,0,0,1.26-.55,2.76,2.76,0,0,0,.67-1.45,2.09,2.09,0,0,0-1.38.55,2.57,2.57,0,0,0-.62,1.22A20.23,20.23,0,0,0,39,11.31a2.18,2.18,0,0,0,1.21-.68,2.71,2.71,0,0,0,.54-1.52,2.22,2.22,0,0,0-1.32.7A2.54,2.54,0,0,0,39,11.1,20.56,20.56,0,0,0,37.87,9,2.18,2.18,0,0,0,39,8.12a2.89,2.89,0,0,0,.38-1.57,2.21,2.21,0,0,0-1.25.86,2.65,2.65,0,0,0-.38,1.35,21.13,21.13,0,0,0-1.4-2,2.36,2.36,0,0,0,1.12-1,2.88,2.88,0,0,0,.25-1.61,2.31,2.31,0,0,0-1.17,1,2.85,2.85,0,0,0-.26,1.53,18.42,18.42,0,0,0-1.72-1.91,2.46,2.46,0,0,0,.94-1.12,2.87,2.87,0,0,0,0-1.63,2.43,2.43,0,0,0-1,1.16,2.72,2.72,0,0,0-.08,1.47,17.74,17.74,0,0,0-2.08-1.7,2.57,2.57,0,0,0,.72-1.3A2.81,2.81,0,0,0,32.83,0,2.55,2.55,0,0,0,32,1.37a2.76,2.76,0,0,0,.19,1.43"/></svg>