<?xml version="1.0" encoding="utf-8"?>
<svg version="1.1" xmlns="http://www.w3.org/2000/svg" viewBox="0 0 32 32" style="enable-background:new 0 0 32 32;">
<style type="text/css">.st0{fill:#007AFF;}</style>
<g>
	<g>
		<path class="st0" d="M22.6,17.1H10.7c-0.3,0-0.5-0.2-0.5-0.5s0.2-0.5,0.5-0.5h11.9c0.3,0,0.5,0.2,0.5,0.5S22.9,17.1,22.6,17.1z"/>
	</g>
	<g>
		<path class="st0" d="M19.6,21h-5.9c-0.3,0-0.5-0.2-0.5-0.5s0.2-0.5,0.5-0.5h5.9c0.3,0,0.5,0.2,0.5,0.5S19.9,21,19.6,21z"/>
	</g>
	<g>
		<path class="st0" d="M25,12.5H7.7c-0.3,0-0.5-0.2-0.5-0.5s0.2-0.5,0.5-0.5H25c0.3,0,0.5,0.2,0.5,0.5S25.3,12.5,25,12.5z"/>
	</g>
</g>
</svg>
