<svg xmlns="http://www.w3.org/2000/svg" viewBox="0 0 206.28 205.76"><defs><style>.a{fill:#007aff;}</style></defs><title>Untitled-1</title><path class="a" d="M185,0c0,43.63,0,129.24,0,205.76h21.33V0Zm-16.2,0H147.88c0,43.85-.06,129.31,0,205.76h21C168.83,129.25,168.82,43.65,168.79,0Z"/><path class="a" d="M109.66,0c0,48,0,144.84,0,205.76H131V0ZM93.46,0H72.54c-.05,48.24-.05,144.78,0,205.76h21C93.5,144.84,93.5,48,93.46,0Z"/><path class="a" d="M35.4,0c0,46.55,0,137.51,0,205.76H55.7V0ZM20,0H0C0,46.74,0,137.52,0,205.76H20C20,137.51,20,46.57,20,0Z"/></svg>