<svg xmlns="http://www.w3.org/2000/svg" viewBox="0 0 33 30.33"><defs><style>.a{opacity:0.7;}.b,.c{fill:none;stroke-linecap:round;stroke-linejoin:round;}.b{stroke:#1c415e;}.c{stroke:#157ef9;}</style></defs><title>help</title><g class="a"><circle class="b" cx="17.85" cy="15.15" r="14.65"/><circle class="b" cx="17.74" cy="22.91" r="1.65"/><path class="b" d="M23,12.44a5.8,5.8,0,1,0-11.59,0,1.66,1.66,0,0,0,3.31,0,2.49,2.49,0,1,1,2.49,2.48,1.65,1.65,0,0,0-1.66,1.65v3.19c0,.91.74,1,1.66,1s1.65-.06,1.65-1V18A5.81,5.81,0,0,0,23,12.44Z" transform="translate(0.5 -0.83)"/></g><line class="c" x1="11.35" y1="17.43" x2="1.58" y2="24.45"/><line class="c" x1="10.27" y1="22.82" x2="0.5" y2="29.83"/></svg>