<svg xmlns="http://www.w3.org/2000/svg" style="display:none;">
   
    <symbol id="burger" viewBox="0 0 21.28 15.15">
        <line stroke-width="2" x1="1" y1="14.15" x2="14.49" y2="14.15"/>
        <line stroke-width="2" x1="1" y1="7.57" x2="10.85" y2="7.57"/>
        <line stroke-width="2" x1="1" y1="1" x2="20.28" y2="1"/>
    </symbol>
    
    <symbol id="magnifier" viewBox="0 0 17.5 17.49">
    <title>magnifier</title>
    <path stroke-width="0.5" d="M24.23,22.9a.94.94,0,0,1-1.33,1.32l-3.76-3.75a.59.59,0,0,0-.71-.07,4.42,4.42,0,0,1-.4.26,7,7,0,1,1,3.55-6.12,7,7,0,0,1-.94,3.51,3.07,3.07,0,0,1-.24.37.59.59,0,0,0,.07.72Zm-9.69-3.2a5.16,5.16,0,1,0-5.16-5.16,5.16,5.16,0,0,0,5.16,5.16" transform="translate(-7.25 -7.25)"/>
    </symbol>
    
    <symbol id="close" viewBox="0 0 15.05 16.19">
        <line stroke-width="2" x1="1" y1="15.19" x2="14.05" y2="1"/>
        <line stroke-width="2" x1="14.05" y1="15.19" x2="1" y2="1"/>
    </symbol>
</svg>