<svg xmlns="http://www.w3.org/2000/svg" viewBox="0 0 205.44 48.58"><defs><style>.a{opacity:0.7;}.b{fill:#1c415e;}</style></defs><title>inline-logo-en</title><g class="a"><path class="b" d="M29.5,10.14a11.18,11.18,0,0,0-8.84,4,11.23,11.23,0,0,0-8.86-4A11.45,11.45,0,0,0,3.45,13.6,11.49,11.49,0,0,0,0,22V35.52a2.79,2.79,0,0,0,.86,2.06,2.85,2.85,0,0,0,2.06.86H3A2.81,2.81,0,0,0,5,37.58a2.78,2.78,0,0,0,.87-2.06V22a5.61,5.61,0,0,1,1.73-4.17,5.63,5.63,0,0,1,4.16-1.73A5.66,5.66,0,0,1,16,17.78,5.65,5.65,0,0,1,17.7,22V35.52a2.79,2.79,0,0,0,.86,2.06,2.85,2.85,0,0,0,2.08.86h.05a2.71,2.71,0,0,0,2-.86,2.74,2.74,0,0,0,.87-2.06V22a5.91,5.91,0,0,1,5.9-5.9A5.91,5.91,0,0,1,35.42,22V35.52a2.94,2.94,0,0,0,2.92,2.92h0a2.85,2.85,0,0,0,2.08-.86,2.81,2.81,0,0,0,.84-2.06V22a11.49,11.49,0,0,0-3.45-8.35A11.43,11.43,0,0,0,29.5,10.14Z"/><path class="b" d="M61.49,10.14a13.68,13.68,0,0,0-10,4.15,13.66,13.66,0,0,0-4.15,10,13.64,13.64,0,0,0,4.15,10,14.12,14.12,0,0,0,20,0,13.67,13.67,0,0,0,4.14-10,13.69,13.69,0,0,0-4.14-10A13.7,13.7,0,0,0,61.49,10.14Zm8.24,14.23a7.89,7.89,0,0,1-2.43,5.82,7.82,7.82,0,0,1-5.81,2.41,8.19,8.19,0,0,1-8.24-8.23,8.21,8.21,0,0,1,8.24-8.27,7.83,7.83,0,0,1,5.82,2.42A7.9,7.9,0,0,1,69.73,24.37Z"/><path class="b" d="M102.48,10.14h0a3,3,0,0,0-3,2.95v13.5a6,6,0,1,1-11.91,0V13.09A2.85,2.85,0,0,0,86.72,11a2.8,2.8,0,0,0-2.06-.87h-.07a2.78,2.78,0,0,0-2,.87,2.82,2.82,0,0,0-.87,2.08v13.5a11.87,11.87,0,0,0,23.73,0V13.09a2.84,2.84,0,0,0-.85-2.07A2.77,2.77,0,0,0,102.48,10.14Z"/><path class="b" d="M126.48,15.19a2.81,2.81,0,0,0,.84-2.06v0a2.88,2.88,0,0,0-.84-2.08,2.82,2.82,0,0,0-2.08-.87H123a10.49,10.49,0,0,0-7.67,3.17A10.78,10.78,0,0,0,112.18,21V35.52a2.79,2.79,0,0,0,.86,2.06,2.85,2.85,0,0,0,2.06.86h.07a2.81,2.81,0,0,0,2-.86,2.78,2.78,0,0,0,.87-2.06V21a4.82,4.82,0,0,1,1.43-3.49A4.7,4.7,0,0,1,123,16.05h1.4A2.85,2.85,0,0,0,126.48,15.19Z"/><path class="b" d="M136.4,0A3.25,3.25,0,0,0,134,1a3.22,3.22,0,0,0-1,2.37,3.25,3.25,0,0,0,1,2.4,3.29,3.29,0,0,0,2.4,1,3.25,3.25,0,0,0,2.37-1,3.27,3.27,0,0,0,1-2.41,3.2,3.2,0,0,0-1-2.37A3.22,3.22,0,0,0,136.4,0Z"/><path class="b" d="M136.45,10.14h0a2.92,2.92,0,0,0-2.92,2.95V37.76A4.73,4.73,0,0,1,132,41.25a4.62,4.62,0,0,1-3.45,1.43h-1.43a2.94,2.94,0,0,0-2.91,2.91v.08a2.94,2.94,0,0,0,2.91,2.91h1.43a10.39,10.39,0,0,0,7.64-3.16,10.66,10.66,0,0,0,3.15-7.65V13.09a2.9,2.9,0,0,0-.83-2.08A2.85,2.85,0,0,0,136.45,10.14Z"/><path class="b" d="M160.78,10.14a13.7,13.7,0,0,0-10,4.15,13.69,13.69,0,0,0-4.14,10,13.67,13.67,0,0,0,4.14,10A14.12,14.12,0,0,0,169,35.78a3,3,0,0,0,2.91,2.66H172a2.81,2.81,0,0,0,2.05-.86,2.74,2.74,0,0,0,.87-2.06V24.29a14.15,14.15,0,0,0-14.15-14.15ZM169,24.29a8.24,8.24,0,1,1-16.47,0,8.21,8.21,0,0,1,8.23-8.24,7.8,7.8,0,0,1,5.82,2.42A7.86,7.86,0,0,1,169,24.29Z"/><path class="b" d="M202,13.62h0a11.84,11.84,0,0,0-16.77,0,11.5,11.5,0,0,0-3.48,8.4v13.5a2.79,2.79,0,0,0,.86,2.06,2.85,2.85,0,0,0,2.06.86h.07a2.81,2.81,0,0,0,2.05-.86,2.74,2.74,0,0,0,.87-2.06V22a6,6,0,1,1,11.91,0v13.5a2.79,2.79,0,0,0,.86,2.06,2.88,2.88,0,0,0,2.08.86h.05a3,3,0,0,0,2.92-2.92V22A11.5,11.5,0,0,0,202,13.62Z"/></g></svg>