<svg xmlns="http://www.w3.org/2000/svg" viewBox="0 0 256 255"><defs><style>.a{fill:#1d1d1b;}</style></defs><title>location</title><path class="a" d="M130.94,8.8c36.2,0,65.63,28.94,65.63,63.9,0,54.44-65.63,112-65.63,112S65,128.29,65,72.7c0-35.24,29.71-63.9,65.9-63.9m0,89.4c14.42,0,26.19-11.46,26.19-25.5s-11.77-25.5-26.19-25.5-26.19,11.45-26.19,25.5c-.29,14,11.78,25.5,26.19,25.5m0-97.7C90,.5,56.8,32.86,56.8,72.7c0,58.45,65.9,115.76,68.56,118.05a8.76,8.76,0,0,0,11.17,0c2.95-2.58,68.57-60.46,68.57-118C205.1,32.86,171.84.5,130.94.5m0,89.68c-9.7,0-18-7.74-18-17.48a17.79,17.79,0,0,1,18-17.48c9.71,0,17.95,7.74,17.95,17.48a18,18,0,0,1-17.95,17.48" transform="translate(0 -0.5)"/><path class="a" d="M128,255.5c-59.15,0-128-11.74-128-45,0-19.76,25.6-37,68.57-45.84a4.58,4.58,0,0,1,5.29,3.44,4.26,4.26,0,0,1-3.53,5.16C33,180.72,8.83,195.62,8.83,210.51c0,20.93,50,36.4,119.18,36.4,68.85,0,119.16-15.18,119.16-36.4,0-16-22.95-30.08-61.49-37.24-2.36-.57-4.12-2.58-3.53-5.16a4.42,4.42,0,0,1,5.29-3.44C231,173,256,189.6,256,210.51c0,33.25-69.15,45-128,45" transform="translate(0 -0.5)"/></svg>