<svg xmlns="http://www.w3.org/2000/svg" viewBox="0 0 360 80">
<defs><style>.c1{fill:#fff;}.c2{fill:#1c415e;}</style></defs>
<path class="c1" d="M48.4,1a7.84,7.84,0,0,0-7.83,7.12c0,.19,0,63.81,0,64a7.89,7.89,0,0,0,15.74-.78V8.94A7.91,7.91,0,0,0,48.4,1Zm2.17,71a2.24,2.24,0,0,1-2.2,1.84A2.21,2.21,0,0,1,46.18,72c0-.14,0-63.62,0-63.76a2.21,2.21,0,0,1,2.19-1.83,2.24,2.24,0,0,1,2.2,1.84C50.54,8.43,50.54,71.89,50.57,72Z"/>
<path class="c1" d="M28.09,1a7.84,7.84,0,0,0-7.84,7.12c-.05.19-.05,37.4,0,37.6A7.89,7.89,0,0,0,36,45v-36A7.91,7.91,0,0,0,28.09,1Zm2.16,44.59a2.25,2.25,0,0,1-2.2,1.84,2.21,2.21,0,0,1-2.19-1.83c0-.14,0-37.22,0-37.36a2.21,2.21,0,0,1,2.19-1.83,2.24,2.24,0,0,1,2.2,1.84C30.22,8.43,30.22,45.49,30.25,45.63Z"/>
<path class="c1" d="M8.16,1A7.47,7.47,0,0,0,.69,7.82c0,.19,0,46.65,0,46.84a7.51,7.51,0,0,0,15-.75V8.57A7.53,7.53,0,0,0,8.16,1Zm2.06,53.5a2.14,2.14,0,0,1-2.09,1.75A2.12,2.12,0,0,1,6,54.55c0-.14,0-46.48,0-46.61a2.13,2.13,0,0,1,4.19,0C10.19,8.08,10.19,54.4,10.22,54.54Z"/>
<path class="c2" d="M132.81,15A14.86,14.86,0,0,0,121,20.43,14.9,14.9,0,0,0,109.09,15,15.17,15.17,0,0,0,98,19.57a15.26,15.26,0,0,0-4.58,11.07V48.85a3.81,3.81,0,0,0,3.75,3.75h.1a3.57,3.57,0,0,0,2.62-1.1A3.54,3.54,0,0,0,101,48.85V30.64a8.07,8.07,0,0,1,16.13,0V48.85a3.54,3.54,0,0,0,1.12,2.64,3.62,3.62,0,0,0,2.66,1.11H121a3.79,3.79,0,0,0,3.74-3.75V30.64a8.09,8.09,0,0,1,16.17,0V48.85a3.79,3.79,0,0,0,3.74,3.75h.07a3.76,3.76,0,0,0,3.75-3.75V30.64A15.65,15.65,0,0,0,132.81,15Z"/>
<path class="c2" d="M174.15,15a18.19,18.19,0,0,0-13.29,5.51,18.21,18.21,0,0,0-5.51,13.3,18.19,18.19,0,0,0,5.51,13.3,18.78,18.78,0,0,0,26.58,0A18.23,18.23,0,0,0,193,33.79a18.25,18.25,0,0,0-5.51-13.3A18.21,18.21,0,0,0,174.15,15ZM182,41.69a11,11,0,0,1-15.63,0,10.56,10.56,0,0,1-3.22-7.8,11,11,0,0,1,11.05-11.08,10.49,10.49,0,0,1,7.8,3.24,10.6,10.6,0,0,1,3.24,7.84A10.54,10.54,0,0,1,182,41.69Z"/>
<path class="c2" d="M227.56,15h-.06a3.67,3.67,0,0,0-2.68,1.12,3.62,3.62,0,0,0-1.11,2.66V36.87a8.15,8.15,0,1,1-16.29,0V18.76A3.81,3.81,0,0,0,203.67,15h-.1a3.58,3.58,0,0,0-2.63,1.12,3.63,3.63,0,0,0-1.12,2.66V36.87a15.75,15.75,0,0,0,31.49,0V18.76a3.69,3.69,0,0,0-1.1-2.66A3.57,3.57,0,0,0,227.56,15Z"/>
<path class="c2" d="M258.07,21.47a3.6,3.6,0,0,0,1.07-2.63v-.08a3.72,3.72,0,0,0-1.07-2.66A3.67,3.67,0,0,0,255.39,15h-1.88a13.85,13.85,0,0,0-10.15,4.2,14.19,14.19,0,0,0-4.18,10.14V48.85a3.53,3.53,0,0,0,1.11,2.64,3.58,3.58,0,0,0,2.63,1.11h.1a3.6,3.6,0,0,0,2.63-1.1,3.54,3.54,0,0,0,1.12-2.65V29.33a6.62,6.62,0,0,1,2-4.78,6.44,6.44,0,0,1,4.77-2h1.88A3.66,3.66,0,0,0,258.07,21.47Z"/>
<path class="c2" d="M270.7,1.38a4.2,4.2,0,0,0-3.09,1.28,4.18,4.18,0,0,0-1.28,3.07,4.24,4.24,0,0,0,1.28,3.1,4.23,4.23,0,0,0,3.09,1.27,4.18,4.18,0,0,0,3.06-1.27,4.14,4.14,0,0,0,1.32-3.1,4.12,4.12,0,0,0-1.31-3.07A4.18,4.18,0,0,0,270.7,1.38Z"/>
<path class="c2" d="M270.77,15h-.07A3.7,3.7,0,0,0,268,16.1,3.75,3.75,0,0,0,267,18.76V51.85a6.52,6.52,0,0,1-2,4.79,6.34,6.34,0,0,1-4.73,2H258.3a3.77,3.77,0,0,0-3.75,3.74v.1a3.79,3.79,0,0,0,3.75,3.75h1.92A13.81,13.81,0,0,0,270.34,62a14.18,14.18,0,0,0,4.18-10.15V18.76a3.68,3.68,0,0,0-1.08-2.66A3.63,3.63,0,0,0,270.77,15Z"/>
<path class="c2" d="M301.85,15a18.22,18.22,0,0,0-13.29,5.51,18.21,18.21,0,0,0-5.51,13.3,18.19,18.19,0,0,0,5.51,13.3,18.77,18.77,0,0,0,24.5,1.79,3.54,3.54,0,0,0,1.11,2.61,3.61,3.61,0,0,0,2.64,1.11h.09a3.79,3.79,0,0,0,3.75-3.75V33.79a18.25,18.25,0,0,0-5.51-13.3A18.21,18.21,0,0,0,301.85,15Zm0,29.86A11,11,0,0,1,290.8,33.79a11,11,0,0,1,11.05-11,10.45,10.45,0,0,1,7.8,3.25,10.55,10.55,0,0,1,3.25,7.8,10.57,10.57,0,0,1-3.25,7.83A10.5,10.5,0,0,1,301.85,44.84Z"/>
<path class="c2" d="M355.38,19.6a15.7,15.7,0,0,0-22.25,0,15.29,15.29,0,0,0-4.61,11.15v18.1a3.53,3.53,0,0,0,1.11,2.64,3.62,3.62,0,0,0,2.64,1.11h.1A3.61,3.61,0,0,0,335,51.5a3.57,3.57,0,0,0,1.12-2.65V30.75a8.15,8.15,0,1,1,16.29,0v18.1a3.59,3.59,0,0,0,1.1,2.64,3.68,3.68,0,0,0,2.68,1.11h.06A3.79,3.79,0,0,0,360,48.85V30.75A15.25,15.25,0,0,0,355.38,19.6Z" />
</svg>