<?xml version="1.0" encoding="utf-8"?>
<!-- Generator: Adobe Illustrator 16.0.0, SVG Export Plug-In . SVG Version: 6.00 Build 0)  -->
<!DOCTYPE svg PUBLIC "-//W3C//DTD SVG 1.1//EN" "http://www.w3.org/Graphics/SVG/1.1/DTD/svg11.dtd">
<svg version="1.1" id="Layer_1" xmlns="http://www.w3.org/2000/svg" xmlns:xlink="http://www.w3.org/1999/xlink" x="0px" y="0px"
	 width="300px" height="200px" viewBox="0 0 300 200" enable-background="new 0 0 300 200" xml:space="preserve">
<g>
	<g>
		<defs>
			<rect id="SVGID_1_" x="-445" y="-314.89" width="1190.55" height="841.89"/>
		</defs>
		<clipPath id="SVGID_2_">
			<use xlink:href="#SVGID_1_"  overflow="visible"/>
		</clipPath>
		<g opacity="0.75" clip-path="url(#SVGID_2_)">
			<g>
				<defs>
					<rect id="SVGID_3_" x="18.173" y="-12.847" width="264" height="199.92"/>
				</defs>
				<clipPath id="SVGID_4_">
					<use xlink:href="#SVGID_3_"  overflow="visible"/>
				</clipPath>
				<g clip-path="url(#SVGID_4_)">
					<defs>
						<rect id="SVGID_5_" x="18.173" y="-12.847" width="264" height="199.92"/>
					</defs>
					<clipPath id="SVGID_6_">
						<use xlink:href="#SVGID_5_"  overflow="visible"/>
					</clipPath>
					<g transform="matrix(1 0 0 1 0 -9.536743e-07)" clip-path="url(#SVGID_6_)">
						
							<image overflow="visible" width="1100" height="833" xlink:href="281172EB87A69D48.png"  transform="matrix(0.24 0 0 0.24 18.1729 -12.8467)">
						</image>
					</g>
				</g>
			</g>
		</g>
		<path clip-path="url(#SVGID_2_)" fill="#FFFFFF" d="M55.173,125.182c0-1.326-0.168-2.354-1.06-2.283l-2.248,0.151
			c-0.882,0.069-1.692,1.175-1.692,2.487v3.187c0,1.312,1.088,2.343,1.97,2.285l1.783-0.122c0.891-0.058,1.247-1.164,1.247-2.489
			V125.182z"/>
		<path clip-path="url(#SVGID_2_)" fill="#FFFFFF" d="M63.74,129.293l-2.926,0.129c-0.986,0.063-2.641,1.293-2.641,2.757v28.987
			c0,2.323,0.342,4.26-0.766,5.895c-1.105,1.63-1.95,2.424-3.488,2.418c-1.545-0.006-2.944-0.797-4.023-2.412
			c-1.075-1.604-1.723-3.494-1.723-5.774v-15.847c0-1.417-0.323-2.301-1.264-2.26l-2.658,0.084c-0.931,0.04-2.078,0.969-2.078,2.373
			v15.7c0,4.375,1.778,8.169,3.834,11.282c2.07,3.138,4.998,4.767,7.982,4.819c3.001,0.053,5.674-1.507,7.842-4.666
			c2.185-3.181,3.342-7.098,3.342-11.639v-29.263C65.172,130.398,64.75,129.227,63.74,129.293"/>
		<path clip-path="url(#SVGID_2_)" fill="#FFFFFF" d="M127.988,169.033l-2.737-0.013c-1.234-0.003-2.078,0.676-2.078,2.303v4.458
			c0,1.605,1.162,2.213,2.397,2.234l2.309,0.043c1.233,0.021,1.294-0.562,1.294-2.184v-4.507
			C129.173,169.725,129.221,169.036,127.988,169.033 M128.625,170.325L128.625,170.325L128.625,170.325L128.625,170.325z"/>
		<path clip-path="url(#SVGID_2_)" fill="#FFFFFF" d="M130.395,123.589c-2.071,0.14-4.117,0.724-6.088,1.73
			c-3.25,1.682-5.791,4.337-7.558,7.861l-0.767,1.473l-0.055,0.114c-0.226,0.518-0.341,1.033-0.341,1.534
			c0,0.503,0.123,1.445,0.917,2.091l2.086,1.836c0.969,0.975,2.224,0.601,2.85-0.779l0.759-1.44
			c1.742-3.396,4.414-5.152,8.197-5.355c2.228-0.12,3.44,0.785,5.045,2.791c1.604,1.982,1.733,4.376,1.733,7.319v7.447
			c0,2.132,0.316,3.867-0.338,4.745c-0.673,0.888-1.473,1.548-3.096,1.575l-21.953,0.371l-3.167,0.056l-7.275,0.122l-2.854,0.049
			l-7.319,0.122l-2.775,0.047l-6.598,0.11l-3.178,0.053l-0.333,0.006c-0.557,0.009-1.271-0.318-1.481-0.602
			c-0.21-0.311-0.633-1.102-0.633-1.974v-53.259v-0.694V78.845c0-3.714-0.597-6.82-2.44-9.163c-1.819-2.336-3.868-3.305-6.414-2.866
			c-2.696,0.465-4.73,1.598-6.242,3.384c-1.516-1.268-3.561-1.683-6.166-1.233c-2.419,0.417-5.012,2.049-6.686,4.862
			c-1.682,2.801-3.052,5.991-3.052,9.517v20.965c0,1.412,1.144,2.423,2.083,2.322l2.156-0.225c0.963-0.104,1.761-1.262,1.761-2.685
			V82.562c0-1.404,0.502-2.62,1.183-3.742c0.668-1.1,1.547-1.704,2.511-1.856c2.163-0.343,2.363,0.182,2.631,0.517
			c0.161,0.203-0.325,0.702-0.325,1.385v24.114c0,1.441,1.327,2.45,2.321,2.342l2.129-0.238c1.005-0.108,1.55-1.277,1.55-2.731
			V78.007c0-0.689,0.465-1.214,0.636-1.481c0.267-0.421,1.236-1.184,3.492-1.541c1.01-0.16,1.466,0.224,2.174,1.136
			c0.726,0.937,0.698,2.117,0.698,3.567v20.7v0.693v53.916c0,3.166,1.116,5.51,2.44,7.376c1.315,1.883,3.597,2.627,5.802,2.627
			h0.234l3.165,0.387l6.594,0.18l2.775,0.092l7.327,0.029l2.871,0.017l7.309-0.007l3.239-0.003l22.096-0.057
			c3.51-0.009,6.139-1.583,8.227-4.29c2.082-2.696,2.921-6.637,2.921-11.294v-7.528c0-5.474-1.312-10.145-4.315-13.841
			C137.883,125.023,134.501,123.311,130.395,123.589"/>
		<path clip-path="url(#SVGID_2_)" fill="#FFFFFF" d="M238.157,116.33c-5.08,0.344-9.845,2.689-13.365,6.925
			c-3.463,4.166-5.619,9.117-5.619,14.723v17.14l-7.462,0.122l-4.165,0.069l-9.701,0.161l-3.793,0.063l-9.744,0.162l-3.683,0.062
			l-7.122,0.119l-6.297,0.093l-5.033,0.072v-30.135c0-1.727-0.101-3.119-1.462-3.03l-2.967,0.19
			c-1.363,0.09-2.571,1.585-2.571,3.293v40.055c0,2.181,0.002,3.854-0.72,4.763c-0.688,0.885-1.642,1.436-3.346,1.423l-3.228-0.017
			c-1.303-0.011-2.707,0.896-2.707,2.555v3.687c0,1.661,1.453,3.034,2.756,3.062l3.203,0.065c3.698,0.081,6.099-1.381,8.296-4.098
			c2.219-2.718,2.745-6.657,2.745-11.443v-0.857l5.036-0.008l6.066-0.015l7.244-0.018l3.753-0.009l9.797-0.027l3.854-0.01
			l9.801-0.026l4.355-0.012l26.076-0.07c5.149-0.014,9.116-2.369,12.858-6.54c3.778-4.21,5.159-9.59,5.159-15.455v-6.919
			c0-5.896-1.381-10.876-5.158-14.788C247.272,117.754,243.305,115.98,238.157,116.33 M247.173,136.866v6.831
			c0,2.904-0.727,5.569-2.593,7.687c-1.859,2.108-4.397,3.369-6.983,3.412l-9.424,0.143v-17.351c0-2.856,1.299-5.254,3.101-7.364
			c1.778-2.126,4.102-3.227,6.666-3.365c2.586-0.139,4.674,0.754,6.539,2.738C246.34,131.555,247.173,133.938,247.173,136.866"/>
		<path clip-path="url(#SVGID_2_)" fill="#FFFFFF" d="M84.393,97.681c2.307,2.989,5.152,4.333,8.468,3.975
			c3.352-0.362,6.255-2.372,8.682-5.983c2.424-3.633,3.63-7.884,3.63-12.593v-5.558c0-4.736-1.207-8.617-3.634-11.546
			c-2.423-2.927-5.343-4.099-8.696-3.521c-3.317,0.571-6.552,2.724-8.86,6.36c-2.274,3.583-3.81,7.706-3.81,12.255v5.339
			c0,4.524,1.545,8.307,3.817,11.275L84.393,97.681z M86.173,85.562v-5.392c0-2.315,0.926-4.3,2.083-6.1
			c1.179-1.834,2.747-2.849,4.423-3.114c1.684-0.267,2.8,0.29,4.007,1.772c1.195,1.467,1.487,3.3,1.487,5.663v5.502
			c0,2.344-0.202,4.403-1.396,6.222c-1.207,1.821-2.424,2.818-4.108,3.024c-1.676,0.204-3.331-0.436-4.504-1.932
			C87.004,89.708,86.173,87.859,86.173,85.562"/>
		<path clip-path="url(#SVGID_2_)" fill="#FFFFFF" d="M122.855,98.417c3.672-0.397,6.738-2.527,9.405-6.322
			c2.696-3.807,3.913-8.286,3.913-13.262V57.649c0-1.637-0.717-2.702-1.972-2.485l-3.383,0.472
			c-1.257,0.217-2.645,1.562-2.645,3.181v20.959c0,2.48,0.031,4.626-1.285,6.525c-1.33,1.918-2.534,2.964-4.37,3.188
			c-1.845,0.225-3.752-0.412-5.053-1.987c-1.288-1.538-2.292-3.442-2.292-5.865V61.118c0-1.586-0.155-2.676-1.333-2.473
			l-3.064,0.436c-1.165,0.201-2.603,1.536-2.603,3.105v20.309c0,4.768,2.058,8.733,4.577,11.805
			C115.287,97.419,119.206,98.811,122.855,98.417"/>
		<path clip-path="url(#SVGID_2_)" fill="#FFFFFF" d="M143.302,96.321l2.584-0.313c1.303-0.14,2.287-1.544,2.287-3.212V68.385
			c0-1.75,0.741-3.247,1.726-4.652c0.978-1.416,2.269-2.2,3.674-2.423c1.117-0.177,2.131,0.062,3.039,0.774
			c0.448,0.298,0.907,0.778,1.279,1.383l0.793,1.341c0.337,0.654,0.894,1.036,1.552,1.073l0.391-0.033
			c0.448-0.068,0.876-0.289,1.229-0.638l2.573-2.518c0.908-0.95,1.046-1.966,1.046-2.487c0-0.62-0.177-1.188-0.478-1.616
			l-0.837-1.368c-0.811-1.412-1.866-2.602-3.141-3.541c-2.221-1.615-4.683-2.199-7.314-1.745c-3.384,0.584-6.448,2.607-8.826,6.05
			c-2.363,3.418-3.706,7.263-3.706,11.492v24.145C141.173,95.272,141.999,96.461,143.302,96.321"/>
		<path clip-path="url(#SVGID_2_)" fill="#FFFFFF" d="M169.914,42.979l3.737-0.697c1.235-0.224,1.521-1.892,1.521-3.411v-6.547
			c0-1.52-0.102-2.376-1.339-2.13l-4.059,0.77c-1.2,0.238-2.603,1.398-2.603,2.9v6.472
			C167.173,41.839,168.715,43.197,169.914,42.979"/>
		<path clip-path="url(#SVGID_2_)" fill="#FFFFFF" d="M161.386,97.905c-1.378,0.141-3.213,1.744-3.213,3.438v3.765
			c0,1.694,1.835,2.416,3.213,2.295l1.771-0.135c3.455-0.305,6.127-1.943,8.601-5.224c2.491-3.302,3.416-7.011,3.416-11.35V49.277
			c0-1.735-0.266-2.351-1.698-2.102l-3.344,0.551c-1.393,0.243-2.958,1.183-2.958,2.899v40.947c0,1.691,0.1,2.948-0.864,4.245
			c-0.96,1.293-1.986,1.799-3.337,1.937L161.386,97.905z"/>
		<path clip-path="url(#SVGID_2_)" fill="#FFFFFF" d="M198.131,90.289c3.032-0.328,5.856-1.448,8.424-3.5
			c0.128,1.596,1.116,2.624,2.544,2.47l3.513-0.378c1.554-0.168,2.601-1.592,2.601-3.426L215.21,60.74
			c-0.216-5.323-2.021-9.661-5.338-12.831c-3.296-3.182-7.253-4.398-11.741-3.624c-4.557,0.786-8.79,3.403-11.955,7.741
			c-3.109,4.291-5.003,9.156-5.003,14.468v6.2c0,5.314,1.894,9.717,5.007,13.14C189.341,89.28,193.574,90.781,198.131,90.289
			 M188.173,71.556v-6.272c0-2.711,1.668-5.078,3.279-7.254c1.594-2.153,3.931-3.378,6.233-3.743
			c2.323-0.368,4.302,0.248,5.961,1.92c1.673,1.71,2.526,3.877,2.526,6.652v6.421c0,2.776-0.632,5.203-2.304,7.382
			c-1.666,2.169-3.514,3.365-5.831,3.647c-2.301,0.281-5.033-0.428-6.633-2.165C189.794,76.422,188.173,74.268,188.173,71.556"/>
		<path clip-path="url(#SVGID_2_)" fill="#FFFFFF" d="M252.822,41.12c-3.731-3.561-8.077-4.905-13.254-4.012
			c-5.105,0.88-10.04,3.73-13.569,8.368c-3.501,4.569-5.826,9.734-5.826,15.322v23.927c0,1.849,1.958,3.084,3.577,2.909l3.398-0.388
			c1.619-0.175,2.024-1.658,2.024-3.529V59.494c0-2.836,1.563-5.375,3.364-7.69c1.809-2.326,4.286-3.679,6.865-4.087
			c2.592-0.411,4.442,0.253,6.288,2.043c1.873,1.795,2.482,4.084,2.482,6.991v24.836c0,1.919,1.712,3.232,3.455,3.044l3.794-0.412
			c1.769-0.191,2.751-1.771,2.751-3.715V55.351C258.173,49.444,256.601,44.631,252.822,41.12"/>
	</g>
</g>
</svg>
