<svg version="1.1" id="Layer_1" xmlns="http://www.w3.org/2000/svg" xmlns:xlink="http://www.w3.org/1999/xlink" x="0px" y="0px"
	 viewBox="0 0 110.5 25.8" style="enable-background:new 0 0 110.5 25.8;" xml:space="preserve">
<path d="M94.9,0c1.3,0,2.5,1,2.6,2.3v21c-0.1,1.4-1.4,2.5-2.8,2.4c-1.3-0.1-2.4-1.2-2.4-2.6V2.6C92.3,1.2,93.4,0,94.9,0L94.9,0z
	 M94.1,23.3c0.1,0.4,0.4,0.6,0.7,0.6s0.7-0.3,0.7-0.6V2.4c-0.1-0.4-0.4-0.6-0.7-0.6S94.2,2,94.1,2.4C94.2,2.4,94.2,23.3,94.1,23.3z"
	/>
<path d="M101.5,0c1.3,0,2.5,1,2.6,2.4v12.3c-0.1,1.4-1.3,2.5-2.7,2.5c-1.4-0.1-2.5-1.3-2.5-2.7V2.6C98.9,1.2,100.1,0,101.5,0z
	 M100.8,14.6c0.1,0.4,0.4,0.6,0.7,0.6s0.7-0.3,0.7-0.6V2.4c-0.1-0.4-0.4-0.6-0.7-0.6s-0.7,0.3-0.7,0.6V14.6z"/>
<path d="M108,0c1.3,0,2.3,1,2.5,2.2v15.4c-0.1,1.3-1.2,2.4-2.6,2.3c-1.3-0.1-2.4-1.2-2.3-2.6V2.5C105.6,1.1,106.7,0,108,0z
	 M107.4,17.6c0.1,0.4,0.4,0.6,0.8,0.6c0.3-0.1,0.5-0.3,0.6-0.6V2.3c-0.1-0.4-0.5-0.6-0.8-0.6c-0.3,0.1-0.5,0.3-0.6,0.6V17.6z"/>
<path d="M80.6,9.2C79,7.5,76.3,7.5,74.7,9l-0.1,0.1c-0.7,0.9-1.1,1.9-1.1,3.1v0.2v0.2h-3.4V7.4c0-0.3-0.1-0.6-0.4-0.9
	c-0.2-0.2-0.6-0.4-0.9-0.4c-0.7,0-1.2,0.5-1.2,1.2v0v6.7c0,0.6-0.2,1.1-0.6,1.5c-0.4,0.4-0.9,0.6-1.4,0.6H65c-0.7,0-1.2,0.6-1.2,1.2
	v0c0,0.3,0.1,0.6,0.4,0.9c0.2,0.2,0.5,0.4,0.9,0.4h0.6c1.2,0,2.4-0.5,3.2-1.3c0.6-0.6,1-1.3,1.2-2.1l0-0.1h4.4l0,0.1
	c0.8,0.9,1.9,1.4,3.1,1.3c1.1,0,2.2-0.4,3-1.3c0.7-0.9,1.1-1.9,1-3C81.7,11.1,81.3,10,80.6,9.2L80.6,9.2z M77.6,14.1
	c-0.4,0-0.8-0.2-1-0.5c-0.2-0.4-0.4-0.9-0.3-1.3c0-0.5,0.1-1,0.4-1.4c0.2-0.4,0.6-0.6,1-0.5c0.4,0,0.7,0.1,1,0.5
	c0.2,0.4,0.3,0.9,0.3,1.3C78.9,14.1,78,14.1,77.6,14.1z"/>
<path d="M9.9,8.3v5.6c0,1.3-0.5,2.6-1.4,3.5c-0.9,1-2.2,1.5-3.5,1.4c-1.3,0-2.6-0.5-3.5-1.4c-1-0.9-1.5-2.2-1.4-3.5V8.3
	c0-0.3,0.1-0.6,0.4-0.9C0.6,7.1,0.9,7,1.2,7c0.3,0,0.7,0.1,0.9,0.4c0.2,0.2,0.4,0.5,0.4,0.9v5.6c0,0.7,0.3,1.3,0.7,1.7
	c0.5,0.5,1.1,0.8,1.8,0.7c0.7,0,1.3-0.3,1.8-0.7s0.7-1.1,0.7-1.8V8.3c0-0.3,0.1-0.6,0.4-0.9C8,7.2,8.3,7,8.7,7h0
	C9,7,9.3,7.2,9.5,7.4C9.8,7.6,9.9,7.9,9.9,8.3z"/>
<path d="M6.5,4.2c0,0.4-0.2,0.8-0.4,1c-0.3,0.3-0.6,0.4-1,0.4C4.3,5.6,3.7,5,3.7,4.3v0c0-0.4,0.1-0.7,0.4-1s0.6-0.4,1-0.4
	c0.4,0,0.7,0.1,1,0.4C6.4,3.5,6.6,3.9,6.5,4.2z"/>
<path d="M60,17.5c0,0.8-0.7,1.4-1.4,1.4c-0.8,0-1.4-0.6-1.4-1.4c0-0.4,0.1-0.7,0.4-1c0.6-0.6,1.4-0.6,2,0C59.8,16.8,60,17.1,60,17.5
	z"/>
<path d="M16.4,12.6c-0.6,0-1.2-0.3-1.6-0.7c-0.4-0.5-0.7-1.1-0.7-1.8V4.5c0-0.7-0.5-1.2-1.1-1.2h0c-0.3,0-0.6,0.1-0.8,0.4
	C12,3.9,11.9,4.2,12,4.5v5.6c0,1.4,0.3,5,4.5,5h47.2c0.4,0,0.7-0.3,0.7-0.7l0-2.5c-0.2-3.5-3-5.8-5.8-5.8c-1.4,0-2.7,0.5-3.8,1.5
	l-0.2,0.2l-0.4,0.4c-0.2,0.2-0.3,0.5-0.3,0.9s0.1,0.6,0.3,0.9l0,0c0.2,0.2,0.5,0.4,0.8,0.4c0.3,0,0.6-0.1,0.9-0.3l0.4-0.4
	c0.7-0.8,1.6-1.1,2.5-1.1c1.8,0.1,3.2,2.1,3.2,4.1L16.4,12.6L16.4,12.6z"/>
</svg>
