<svg id="Layer_1" data-name="Layer 1" xmlns="http://www.w3.org/2000/svg" viewBox="0 0 584 203">
    <defs>
        <style>.cls-1{fill:#fff;}</style>
    </defs>
    <title>LOGO WHITE</title>
    <path class="cls-1" d="M151.71,53.38A13.59,13.59,0,0,0,124.59,52c-.08.33-.08,109.93,0,110.27A13.59,13.59,0,0,0,151.71,161Zm-9.88,108.69a3.86,3.86,0,0,1-3.79,3.17,3.81,3.81,0,0,1-3.78-3.15c.05-.24.05-109.62,0-109.86A3.81,3.81,0,0,1,138,49.08a3.86,3.86,0,0,1,3.79,3.17C141.78,52.49,141.78,161.83,141.83,162.07Z"/>
    <path class="cls-1" d="M103.08,39.77A13.52,13.52,0,0,0,89.57,52c-.08.33-.08,69.44,0,69.77a13.59,13.59,0,0,0,27.12-1.35V53.38A13.62,13.62,0,0,0,103.08,39.77Zm3.73,81.81a3.86,3.86,0,0,1-3.79,3.17,3.82,3.82,0,0,1-3.78-3.15c.05-.24.05-69.13,0-69.37A3.81,3.81,0,0,1,103,49.08a3.86,3.86,0,0,1,3.79,3.17C106.76,52.49,106.76,121.34,106.81,121.58Z"/>
    <path class="cls-1" d="M68.06,39.77A13.52,13.52,0,0,0,54.55,52c-.08.33-.08,87.84,0,88.18a13.59,13.59,0,0,0,27.12-1.35V53.38A13.62,13.62,0,0,0,68.06,39.77ZM71.79,140A3.86,3.86,0,0,1,68,143.15,3.81,3.81,0,0,1,64.22,140c0-.23,0-87.53,0-87.77A3.81,3.81,0,0,1,68,49.08a3.86,3.86,0,0,1,3.79,3.17C71.74,52.49,71.74,139.75,71.79,140Z"/>
    <path class="cls-1" d="M258.55,98.51v23.26a4.78,4.78,0,0,1-4.79,4.79h-.09a4.85,4.85,0,0,1-4.79-4.79V98.51a10.33,10.33,0,0,0-20.66,0v23.26a4.83,4.83,0,0,1-4.79,4.79h-.08a4.67,4.67,0,0,1-3.41-1.41,4.55,4.55,0,0,1-1.42-3.38V98.51a10.31,10.31,0,0,0-20.62,0v23.26a4.83,4.83,0,0,1-4.79,4.79H193a4.6,4.6,0,0,1-3.38-1.42,4.54,4.54,0,0,1-1.41-3.37V98.51a20,20,0,0,1,20-20,19.06,19.06,0,0,1,15.18,7,19,19,0,0,1,15.14-7,20,20,0,0,1,20,20Z"/>
    <path class="cls-1" d="M252.69,84.36a19.37,19.37,0,0,0-14.16-5.86,19,19,0,0,0-15.14,7,19.06,19.06,0,0,0-15.18-7,20,20,0,0,0-20,20v23.26a4.54,4.54,0,0,0,1.41,3.37,4.6,4.6,0,0,0,3.38,1.42h.12a4.83,4.83,0,0,0,4.79-4.79V98.51a10.31,10.31,0,0,1,20.62,0v23.26a4.55,4.55,0,0,0,1.42,3.38,4.67,4.67,0,0,0,3.41,1.41h.08a4.83,4.83,0,0,0,4.79-4.79V98.51a10.33,10.33,0,0,1,20.66,0v23.26a4.85,4.85,0,0,0,4.79,4.79h.09a4.78,4.78,0,0,0,4.79-4.79V98.51A19.44,19.44,0,0,0,252.69,84.36Zm5.65,37.41A4.38,4.38,0,0,1,257,125a4.46,4.46,0,0,1-3.26,1.35h-.09a4.32,4.32,0,0,1-3.24-1.37,4.27,4.27,0,0,1-1.34-3.21V98.51a10.54,10.54,0,0,0-21.07,0v23.26a4.64,4.64,0,0,1-4.59,4.58h-.08a4.47,4.47,0,0,1-3.27-1.35,4.32,4.32,0,0,1-1.35-3.23V98.51a10.52,10.52,0,0,0-21,0v23.26a4.33,4.33,0,0,1-1.36,3.24,4.44,4.44,0,0,1-3.22,1.34H193a4.43,4.43,0,0,1-3.23-1.35,4.33,4.33,0,0,1-1.36-3.23V98.51a19.8,19.8,0,0,1,19.81-19.8,18.86,18.86,0,0,1,15,6.89l.16.19.16-.19a18.77,18.77,0,0,1,15-6.89,19.79,19.79,0,0,1,19.81,19.8Z"/>
    <path class="cls-1" d="M308.36,85.54a24,24,0,0,0-41,17,24,24,0,1,0,41-17Zm-6.88,27.24a13.57,13.57,0,0,1-10.11,4.2A14.36,14.36,0,0,1,281.21,92.5a13.72,13.72,0,0,1,10.16-4.21,14.36,14.36,0,0,1,14.32,14.37A13.66,13.66,0,0,1,301.48,112.78Z"/>
    <path class="cls-1" d="M301.64,92.35a14.53,14.53,0,0,0-20.58,0,14.55,14.55,0,0,0,10.31,24.84,13.78,13.78,0,0,0,10.26-4.26,14.55,14.55,0,0,0,0-20.58Zm-10.27,24.43a14.17,14.17,0,0,1-10-24.14,13.53,13.53,0,0,1,10-4.14,13.39,13.39,0,0,1,10,4.14,14.15,14.15,0,0,1-10,24.14Zm10.27-24.43a14.53,14.53,0,0,0-20.58,0,14.55,14.55,0,0,0,10.31,24.84,13.78,13.78,0,0,0,10.26-4.26,14.55,14.55,0,0,0,0-20.58Zm-10.27,24.43a14.17,14.17,0,0,1-10-24.14,13.53,13.53,0,0,1,10-4.14,13.39,13.39,0,0,1,10,4.14,14.15,14.15,0,0,1-10,24.14Zm17-31.24a24,24,0,0,0-41,17,24,24,0,1,0,41-17Zm-.15,33.83a23.83,23.83,0,0,1-40.67-16.84,23.83,23.83,0,1,1,40.67,16.84ZM291.37,88.08a14.59,14.59,0,0,0-10.31,24.85,13.93,13.93,0,0,0,10.31,4.26,13.78,13.78,0,0,0,10.26-4.26,14.56,14.56,0,0,0-10.26-24.85Zm0,28.7a14.17,14.17,0,0,1-10-24.14,13.53,13.53,0,0,1,10-4.14,13.39,13.39,0,0,1,10,4.14,14.15,14.15,0,0,1-10,24.14Z"/>
    <path class="cls-1" d="M364.43,83.33v23.13a20.12,20.12,0,0,1-40.24,0V83.33a4.68,4.68,0,0,1,1.42-3.41A4.62,4.62,0,0,1,329,78.5h.13a4.62,4.62,0,0,1,3.37,1.42,4.68,4.68,0,0,1,1.42,3.41v23.13a10.41,10.41,0,1,0,20.82,0V83.33a4.85,4.85,0,0,1,4.84-4.83h.08A4.56,4.56,0,0,1,363,79.93,4.7,4.7,0,0,1,364.43,83.33Z"/>
    <path class="cls-1" d="M363,79.93a4.56,4.56,0,0,0-3.39-1.43h-.08a4.85,4.85,0,0,0-4.84,4.83v23.13a10.41,10.41,0,1,1-20.82,0V83.33a4.68,4.68,0,0,0-1.42-3.41,4.62,4.62,0,0,0-3.37-1.42H329a4.62,4.62,0,0,0-3.37,1.42,4.68,4.68,0,0,0-1.42,3.41v23.13a20.12,20.12,0,0,0,40.24,0V83.33A4.7,4.7,0,0,0,363,79.93Zm1.19,26.53a19.91,19.91,0,0,1-39.82,0V83.33a4.48,4.48,0,0,1,1.36-3.27A4.41,4.41,0,0,1,329,78.71h.13a4.41,4.41,0,0,1,3.22,1.35,4.48,4.48,0,0,1,1.36,3.27v23.13a10.62,10.62,0,1,0,21.24,0V83.33a4.63,4.63,0,0,1,4.63-4.62h.08a4.35,4.35,0,0,1,3.24,1.37,4.44,4.44,0,0,1,1.34,3.25Z"/>
    <path class="cls-1" d="M400,83.33v.09a4.61,4.61,0,0,1-1.37,3.37,4.68,4.68,0,0,1-3.42,1.42h-2.41a8.24,8.24,0,0,0-6.1,2.51,8.44,8.44,0,0,0-2.51,6.11v24.94a4.56,4.56,0,0,1-1.43,3.39,4.62,4.62,0,0,1-3.36,1.4h-.13a4.61,4.61,0,0,1-3.37-1.41,4.55,4.55,0,0,1-1.42-3.38v-25a18.17,18.17,0,0,1,5.35-13,17.7,17.7,0,0,1,13-5.36h2.41a4.68,4.68,0,0,1,3.42,1.42A4.77,4.77,0,0,1,400,83.33Z"/>
    <path class="cls-1" d="M398.64,79.92a4.68,4.68,0,0,0-3.42-1.42h-2.41a17.7,17.7,0,0,0-13,5.36,18.17,18.17,0,0,0-5.35,13v25a4.55,4.55,0,0,0,1.42,3.38,4.61,4.61,0,0,0,3.37,1.41h.13a4.62,4.62,0,0,0,3.36-1.4,4.56,4.56,0,0,0,1.43-3.39V96.83a8.44,8.44,0,0,1,2.51-6.11,8.24,8.24,0,0,1,6.1-2.51h2.41a4.68,4.68,0,0,0,3.42-1.42A4.61,4.61,0,0,0,400,83.42v-.09A4.77,4.77,0,0,0,398.64,79.92Zm1.17,3.49a4.42,4.42,0,0,1-1.32,3.23A4.48,4.48,0,0,1,395.22,88h-2.41a8.43,8.43,0,0,0-6.25,2.58A8.62,8.62,0,0,0,384,96.83v24.94a4.34,4.34,0,0,1-1.37,3.24,4.4,4.4,0,0,1-3.21,1.34h-.13a4.45,4.45,0,0,1-3.23-1.35,4.32,4.32,0,0,1-1.35-3.23v-25A18,18,0,0,1,380,84a17.57,17.57,0,0,1,12.83-5.29h2.41a4.47,4.47,0,0,1,3.27,1.35,4.6,4.6,0,0,1,1.32,3.27Z"/>
    <path class="cls-1" d="M420.38,66.67a5.63,5.63,0,0,1-5.59,5.59,5.57,5.57,0,1,1,3.92-9.51A5.26,5.26,0,0,1,420.38,66.67Z"/>
    <path class="cls-1" d="M418.71,62.75a5.48,5.48,0,1,0,1.67,3.92A5.26,5.26,0,0,0,418.71,62.75Zm-.15,7.75a5.37,5.37,0,1,1,0-7.6,5.06,5.06,0,0,1,1.61,3.77A5.18,5.18,0,0,1,418.56,70.5Z"/>
    <path class="cls-1" d="M419.67,83.33v42.29a18.11,18.11,0,0,1-5.35,13,17.63,17.63,0,0,1-12.93,5.35h-2.46a4.83,4.83,0,0,1-4.79-4.79V139a4.83,4.83,0,0,1,4.79-4.79h2.46a8.11,8.11,0,0,0,6.05-2.51,8.3,8.3,0,0,0,2.56-6.12V83.33a4.76,4.76,0,0,1,4.79-4.83h.09a4.68,4.68,0,0,1,3.41,1.42A4.73,4.73,0,0,1,419.67,83.33Z"/>
    <path class="cls-1" d="M418.29,79.92a4.68,4.68,0,0,0-3.41-1.42h-.09A4.76,4.76,0,0,0,410,83.33v42.28a8.3,8.3,0,0,1-2.56,6.12,8.11,8.11,0,0,1-6.05,2.51h-2.46a4.83,4.83,0,0,0-4.79,4.79v.12a4.83,4.83,0,0,0,4.79,4.79h2.46a17.63,17.63,0,0,0,12.93-5.35,18.11,18.11,0,0,0,5.35-13V83.33A4.73,4.73,0,0,0,418.29,79.92Zm1.17,45.7a17.91,17.91,0,0,1-5.29,12.82,17.36,17.36,0,0,1-12.78,5.3h-2.46a4.64,4.64,0,0,1-4.58-4.59V139a4.63,4.63,0,0,1,4.58-4.58h2.46a8.29,8.29,0,0,0,6.19-2.58,8.52,8.52,0,0,0,2.63-6.26V83.33a4.54,4.54,0,0,1,1.3-3.25,4.49,4.49,0,0,1,3.28-1.37h.09a4.46,4.46,0,0,1,3.26,1.35,4.6,4.6,0,0,1,1.32,3.27Z"/>
    <path class="cls-1" d="M471.59,85.54a24,24,0,0,0-41,17,24,24,0,0,0,38.36,19.28,4.53,4.53,0,0,0,1.42,3.34,4.61,4.61,0,0,0,3.37,1.41h.12a4.83,4.83,0,0,0,4.79-4.79V102.53A23.26,23.26,0,0,0,471.59,85.54Zm-17,31.32a14.35,14.35,0,0,1-10.16-24.45,13.73,13.73,0,0,1,10.16-4.2,14.36,14.36,0,0,1,14.33,14.32,14.31,14.31,0,0,1-14.33,14.33Z"/>
    <path class="cls-1" d="M464.87,92.27a14.53,14.53,0,0,0-20.57,0,14.56,14.56,0,1,0,20.57,0ZM454.6,116.65a14.13,14.13,0,0,1-10-24.09,13.52,13.52,0,0,1,10-4.15,14.13,14.13,0,0,1,10,24.13A13.42,13.42,0,0,1,454.6,116.65Zm10.27-24.38a14.53,14.53,0,0,0-20.57,0,14.56,14.56,0,1,0,20.57,0ZM454.6,116.65a14.13,14.13,0,0,1-10-24.09,13.52,13.52,0,0,1,10-4.15,14.13,14.13,0,0,1,10,24.13A13.42,13.42,0,0,1,454.6,116.65Zm17-31.11a24,24,0,0,0-41,17,24,24,0,0,0,38.36,19.28,4.53,4.53,0,0,0,1.42,3.34,4.61,4.61,0,0,0,3.37,1.41h.12a4.83,4.83,0,0,0,4.79-4.79V102.53A23.26,23.26,0,0,0,471.59,85.54Zm6.84,36.23a4.34,4.34,0,0,1-1.37,3.24,4.42,4.42,0,0,1-3.22,1.34h-.12a4.43,4.43,0,0,1-3.23-1.35,4.28,4.28,0,0,1-1.35-3.19v-.41l-.33.25a23.82,23.82,0,0,1-38-19.12,23.83,23.83,0,0,1,47.65,0ZM454.6,88a14.57,14.57,0,0,0-10.3,24.84,14.55,14.55,0,1,0,20.57-20.57A13.79,13.79,0,0,0,454.6,88Zm0,28.65a14.13,14.13,0,0,1-10-24.09,13.52,13.52,0,0,1,10-4.15,14.13,14.13,0,0,1,10,24.13A13.42,13.42,0,0,1,454.6,116.65Z"/>
    <path class="cls-1" d="M528.93,98.64v23.13a4.83,4.83,0,0,1-4.79,4.79h-.08a4.69,4.69,0,0,1-3.42-1.41,4.57,4.57,0,0,1-1.41-3.38V98.64a10.42,10.42,0,1,0-20.83,0v23.13a4.83,4.83,0,0,1-4.79,4.79h-.13a4.63,4.63,0,0,1-3.37-1.41,4.55,4.55,0,0,1-1.42-3.38V98.64a20.12,20.12,0,1,1,40.24,0Z"/>
    <path class="cls-1" d="M523,84.4a20.12,20.12,0,0,0-34.34,14.24v23.13a4.55,4.55,0,0,0,1.42,3.38,4.63,4.63,0,0,0,3.37,1.41h.13a4.83,4.83,0,0,0,4.79-4.79V98.64a10.42,10.42,0,1,1,20.83,0v23.13a4.57,4.57,0,0,0,1.41,3.38,4.69,4.69,0,0,0,3.42,1.41h.08a4.83,4.83,0,0,0,4.79-4.79V98.64A19.48,19.48,0,0,0,523,84.4Zm5.7,37.37a4.64,4.64,0,0,1-4.59,4.58h-.08a4.47,4.47,0,0,1-3.27-1.35,4.33,4.33,0,0,1-1.36-3.23V98.64a10.62,10.62,0,1,0-21.24,0v23.13a4.34,4.34,0,0,1-1.37,3.24,4.4,4.4,0,0,1-3.21,1.34h-.13a4.41,4.41,0,0,1-3.22-1.35,4.33,4.33,0,0,1-1.36-3.23V98.64a19.94,19.94,0,0,1,19.93-19.93,19.29,19.29,0,0,1,14.06,5.84,19.29,19.29,0,0,1,5.84,14.09Z"/>
</svg>