<svg xmlns="http://www.w3.org/2000/svg" viewBox="0 0 476 136"><defs><style>.c1{fill:#fff;}.c2{fill:#1c415e;}</style></defs>
<path class="c1" d="M97.71,14.38A13.59,13.59,0,0,0,70.59,13c-.08.33-.08,109.93,0,110.27A13.59,13.59,0,0,0,97.71,122ZM87.83,123.07A3.86,3.86,0,0,1,84,126.24a3.81,3.81,0,0,1-3.78-3.15c0-.24,0-109.62,0-109.86A3.81,3.81,0,0,1,84,10.08a3.86,3.86,0,0,1,3.79,3.17C87.78,13.49,87.78,122.83,87.83,123.07Z"/>
<path class="c1" d="M49.08.77A13.52,13.52,0,0,0,35.57,13c-.08.33-.08,69.44,0,69.77a13.59,13.59,0,0,0,27.12-1.35V14.38A13.62,13.62,0,0,0,49.08.77Zm3.73,81.81A3.86,3.86,0,0,1,49,85.75a3.82,3.82,0,0,1-3.78-3.15c0-.24,0-69.13,0-69.37A3.81,3.81,0,0,1,49,10.08a3.86,3.86,0,0,1,3.79,3.17C52.76,13.49,52.76,82.34,52.81,82.58Z"/>
<path class="c1" d="M14.06.77A13.52,13.52,0,0,0,.55,13c-.08.33-.08,87.84,0,88.18a13.59,13.59,0,0,0,27.12-1.35V14.38A13.62,13.62,0,0,0,14.06.77ZM17.79,101A3.86,3.86,0,0,1,14,104.15,3.81,3.81,0,0,1,10.22,101c0-.23,0-87.53,0-87.77A3.81,3.81,0,0,1,14,10.08a3.86,3.86,0,0,1,3.79,3.17C17.74,13.49,17.74,100.75,17.79,101Z"/>

<path class="c2" d="M204.55,59.51V82.77a4.78,4.78,0,0,1-4.79,4.79h-.09a4.85,4.85,0,0,1-4.79-4.79V59.51a10.33,10.33,0,0,0-20.66,0V82.77a4.83,4.83,0,0,1-4.79,4.79h-.08a4.67,4.67,0,0,1-3.41-1.41,4.55,4.55,0,0,1-1.42-3.38V59.51a10.31,10.31,0,0,0-20.62,0V82.77a4.83,4.83,0,0,1-4.79,4.79H139a4.6,4.6,0,0,1-3.38-1.42,4.54,4.54,0,0,1-1.41-3.37V59.51a20,20,0,0,1,20-20,19.06,19.06,0,0,1,15.18,7,19,19,0,0,1,15.14-7,20,20,0,0,1,20,20Z"/>
<path class="c2" d="M198.69,45.36a19.37,19.37,0,0,0-14.16-5.86,19,19,0,0,0-15.14,7,19.06,19.06,0,0,0-15.18-7,20,20,0,0,0-20,20V82.77a4.54,4.54,0,0,0,1.41,3.37A4.6,4.6,0,0,0,139,87.56h.12a4.83,4.83,0,0,0,4.79-4.79V59.51a10.31,10.31,0,0,1,20.62,0V82.77a4.55,4.55,0,0,0,1.42,3.38,4.67,4.67,0,0,0,3.41,1.41h.08a4.83,4.83,0,0,0,4.79-4.79V59.51a10.33,10.33,0,0,1,20.66,0V82.77a4.85,4.85,0,0,0,4.79,4.79h.09a4.78,4.78,0,0,0,4.79-4.79V59.51A19.44,19.44,0,0,0,198.69,45.36Zm5.65,37.41A4.38,4.38,0,0,1,203,86a4.46,4.46,0,0,1-3.26,1.35h-.09A4.32,4.32,0,0,1,196.43,86a4.27,4.27,0,0,1-1.34-3.21V59.51a10.54,10.54,0,0,0-21.07,0V82.77a4.64,4.64,0,0,1-4.59,4.58h-.08A4.47,4.47,0,0,1,166.08,86a4.32,4.32,0,0,1-1.35-3.23V59.51a10.52,10.52,0,0,0-21,0V82.77A4.33,4.33,0,0,1,142.33,86a4.44,4.44,0,0,1-3.22,1.34H139A4.43,4.43,0,0,1,135.76,86a4.33,4.33,0,0,1-1.36-3.23V59.51a19.8,19.8,0,0,1,19.81-19.8,18.86,18.86,0,0,1,15,6.89l.16.19.16-.19a18.77,18.77,0,0,1,15-6.89,19.79,19.79,0,0,1,19.81,19.8Z"/>
<path class="c2" d="M254.36,46.54a24,24,0,0,0-41,17,24,24,0,1,0,41-17Zm-6.88,27.24A13.57,13.57,0,0,1,237.37,78,14.29,14.29,0,0,1,223,63.66a14.31,14.31,0,0,1,14.33-14.37,14.36,14.36,0,0,1,14.32,14.37A13.66,13.66,0,0,1,247.48,73.78Z"/>
<path class="c2" d="M247.64,53.35a14.53,14.53,0,0,0-20.58,0,14.66,14.66,0,0,0,0,20.58,13.93,13.93,0,0,0,10.31,4.26,13.78,13.78,0,0,0,10.26-4.26,14.55,14.55,0,0,0,0-20.58ZM237.37,77.78a14.1,14.1,0,0,1-14.12-14.12A14.07,14.07,0,0,1,237.37,49.5a13.39,13.39,0,0,1,10,4.14,14.11,14.11,0,0,1,0,20A13.42,13.42,0,0,1,237.37,77.78Zm10.27-24.43a14.53,14.53,0,0,0-20.58,0,14.66,14.66,0,0,0,0,20.58,13.93,13.93,0,0,0,10.31,4.26,13.78,13.78,0,0,0,10.26-4.26,14.55,14.55,0,0,0,0-20.58ZM237.37,77.78a14.1,14.1,0,0,1-14.12-14.12A14.07,14.07,0,0,1,237.37,49.5a13.39,13.39,0,0,1,10,4.14,14.11,14.11,0,0,1,0,20A13.42,13.42,0,0,1,237.37,77.78Zm17-31.24a24,24,0,0,0-41,17,24,24,0,1,0,41-17Zm-.15,33.83a23.83,23.83,0,0,1-40.67-16.84,23.83,23.83,0,1,1,40.67,16.84ZM237.37,49.08a14.49,14.49,0,0,0-14.53,14.58,14.48,14.48,0,0,0,14.53,14.53,13.78,13.78,0,0,0,10.26-4.26,14.55,14.55,0,0,0,0-20.58A13.82,13.82,0,0,0,237.37,49.08Zm0,28.7a14.1,14.1,0,0,1-14.12-14.12A14.07,14.07,0,0,1,237.37,49.5a13.39,13.39,0,0,1,10,4.14,14.11,14.11,0,0,1,0,20A13.42,13.42,0,0,1,237.37,77.78Z"/>
<path class="c2" d="M310.43,44.33V67.46a20.12,20.12,0,0,1-40.24,0V44.33a4.68,4.68,0,0,1,1.42-3.41A4.62,4.62,0,0,1,275,39.5h.13a4.62,4.62,0,0,1,3.37,1.42,4.68,4.68,0,0,1,1.42,3.41V67.46a10.41,10.41,0,1,0,20.82,0V44.33a4.85,4.85,0,0,1,4.84-4.83h.08A4.56,4.56,0,0,1,309,40.93,4.7,4.7,0,0,1,310.43,44.33Z"/>
<path class="c2" d="M309,40.93a4.56,4.56,0,0,0-3.39-1.43h-.08a4.85,4.85,0,0,0-4.84,4.83V67.46a10.41,10.41,0,1,1-20.82,0V44.33a4.68,4.68,0,0,0-1.42-3.41,4.62,4.62,0,0,0-3.37-1.42H275a4.62,4.62,0,0,0-3.37,1.42,4.68,4.68,0,0,0-1.42,3.41V67.46a20.12,20.12,0,0,0,40.24,0V44.33A4.7,4.7,0,0,0,309,40.93Zm1.19,26.53a19.91,19.91,0,0,1-39.82,0V44.33a4.48,4.48,0,0,1,1.36-3.27A4.41,4.41,0,0,1,275,39.71h.13a4.41,4.41,0,0,1,3.22,1.35,4.48,4.48,0,0,1,1.36,3.27V67.46a10.62,10.62,0,1,0,21.24,0V44.33a4.63,4.63,0,0,1,4.63-4.62h.08a4.35,4.35,0,0,1,3.24,1.37,4.44,4.44,0,0,1,1.34,3.25Z"/>
<path class="c2" d="M346,44.33v.09a4.61,4.61,0,0,1-1.37,3.37,4.68,4.68,0,0,1-3.42,1.42h-2.41a8.24,8.24,0,0,0-6.1,2.51,8.44,8.44,0,0,0-2.51,6.11V82.77a4.56,4.56,0,0,1-1.43,3.39,4.62,4.62,0,0,1-3.36,1.4h-.13a4.61,4.61,0,0,1-3.37-1.41,4.55,4.55,0,0,1-1.42-3.38V57.82a18.17,18.17,0,0,1,5.35-13,17.7,17.7,0,0,1,13-5.36h2.41a4.68,4.68,0,0,1,3.42,1.42A4.77,4.77,0,0,1,346,44.33Z"/>
<path class="c2" d="M344.64,40.92a4.68,4.68,0,0,0-3.42-1.42h-2.41a17.7,17.7,0,0,0-13,5.36,18.17,18.17,0,0,0-5.35,13V82.77a4.55,4.55,0,0,0,1.42,3.38,4.61,4.61,0,0,0,3.37,1.41h.13a4.62,4.62,0,0,0,3.36-1.4,4.56,4.56,0,0,0,1.43-3.39V57.83a8.44,8.44,0,0,1,2.51-6.11,8.24,8.24,0,0,1,6.1-2.51h2.41a4.68,4.68,0,0,0,3.42-1.42A4.61,4.61,0,0,0,346,44.42v-.09A4.77,4.77,0,0,0,344.64,40.92Zm1.17,3.49a4.42,4.42,0,0,1-1.32,3.23A4.48,4.48,0,0,1,341.22,49h-2.41a8.43,8.43,0,0,0-6.25,2.58A8.62,8.62,0,0,0,330,57.83V82.77A4.34,4.34,0,0,1,328.62,86a4.4,4.4,0,0,1-3.21,1.34h-.13A4.45,4.45,0,0,1,322.05,86a4.32,4.32,0,0,1-1.35-3.23V57.82A18,18,0,0,1,326,45a17.57,17.57,0,0,1,12.83-5.29h2.41a4.47,4.47,0,0,1,3.27,1.35,4.6,4.6,0,0,1,1.32,3.27Z"/>
<path class="c2" d="M366.38,27.67a5.63,5.63,0,0,1-5.59,5.59,5.57,5.57,0,0,1-4-9.51,5.58,5.58,0,0,1,7.88,0A5.26,5.26,0,0,1,366.38,27.67Z"/>
<path class="c2" d="M364.71,23.75a5.57,5.57,0,0,0-7.88,7.88,5.58,5.58,0,0,0,7.87,0,5.33,5.33,0,0,0,1.68-4A5.26,5.26,0,0,0,364.71,23.75Zm-.15,7.75a5.36,5.36,0,0,1-9.15-3.83A5.16,5.16,0,0,1,357,23.89a5.22,5.22,0,0,1,3.82-1.56,5.13,5.13,0,0,1,3.78,1.57,5.06,5.06,0,0,1,1.61,3.77A5.18,5.18,0,0,1,364.56,31.5Z"/>
<path class="c2" d="M365.67,44.33V86.62a18.11,18.11,0,0,1-5.35,13,17.63,17.63,0,0,1-12.93,5.35h-2.46a4.83,4.83,0,0,1-4.79-4.79V100a4.83,4.83,0,0,1,4.79-4.79h2.46a8.11,8.11,0,0,0,6.05-2.51A8.3,8.3,0,0,0,356,86.61V44.33a4.76,4.76,0,0,1,4.79-4.83h.09a4.68,4.68,0,0,1,3.41,1.42A4.73,4.73,0,0,1,365.67,44.33Z"/>
<path class="c2" d="M364.29,40.92a4.68,4.68,0,0,0-3.41-1.42h-.09A4.76,4.76,0,0,0,356,44.33V86.61a8.3,8.3,0,0,1-2.56,6.12,8.11,8.11,0,0,1-6.05,2.51h-2.46a4.83,4.83,0,0,0-4.79,4.79v.12a4.83,4.83,0,0,0,4.79,4.79h2.46a17.63,17.63,0,0,0,12.93-5.35,18.11,18.11,0,0,0,5.35-13V44.33A4.73,4.73,0,0,0,364.29,40.92Zm1.17,45.7a17.91,17.91,0,0,1-5.29,12.82,17.36,17.36,0,0,1-12.78,5.3h-2.46a4.64,4.64,0,0,1-4.58-4.59V100a4.63,4.63,0,0,1,4.58-4.58h2.46a8.29,8.29,0,0,0,6.19-2.58,8.52,8.52,0,0,0,2.63-6.26V44.33a4.54,4.54,0,0,1,1.3-3.25,4.49,4.49,0,0,1,3.28-1.37h.09a4.46,4.46,0,0,1,3.26,1.35,4.6,4.6,0,0,1,1.32,3.27Z"/>
<path class="c2" d="M417.59,46.54a24,24,0,0,0-41,17,24,24,0,0,0,38.36,19.28,4.53,4.53,0,0,0,1.42,3.34,4.61,4.61,0,0,0,3.37,1.41h.12a4.83,4.83,0,0,0,4.79-4.79V63.53A23.26,23.26,0,0,0,417.59,46.54Zm-17,31.32a14.22,14.22,0,0,1-14.32-14.33A14.27,14.27,0,0,1,400.6,49.21a14.36,14.36,0,0,1,14.33,14.32A14.31,14.31,0,0,1,400.6,77.86Z"/>
<path class="c2" d="M410.87,53.27a14.53,14.53,0,0,0-20.57,0,14.63,14.63,0,0,0,0,20.58,14.56,14.56,0,0,0,24.84-10.31A13.86,13.86,0,0,0,410.87,53.27ZM400.6,77.65a14,14,0,0,1-14.12-14.12A14.1,14.1,0,0,1,400.6,49.41a14.17,14.17,0,0,1,14.12,14.12A14.1,14.1,0,0,1,400.6,77.65Zm10.27-24.38a14.53,14.53,0,0,0-20.57,0,14.63,14.63,0,0,0,0,20.58,14.56,14.56,0,0,0,24.84-10.31A13.86,13.86,0,0,0,410.87,53.27ZM400.6,77.65a14,14,0,0,1-14.12-14.12A14.1,14.1,0,0,1,400.6,49.41a14.17,14.17,0,0,1,14.12,14.12A14.1,14.1,0,0,1,400.6,77.65Zm17-31.11a24,24,0,0,0-41,17,24,24,0,0,0,38.36,19.28,4.53,4.53,0,0,0,1.42,3.34,4.61,4.61,0,0,0,3.37,1.41h.12a4.83,4.83,0,0,0,4.79-4.79V63.53A23.26,23.26,0,0,0,417.59,46.54Zm6.84,36.23A4.34,4.34,0,0,1,423.06,86a4.42,4.42,0,0,1-3.22,1.34h-.12A4.43,4.43,0,0,1,416.49,86a4.28,4.28,0,0,1-1.35-3.19V82.4l-.33.25a23.82,23.82,0,0,1-38-19.12,23.83,23.83,0,0,1,47.65,0ZM400.6,49a14.49,14.49,0,0,0-14.53,14.53,14.54,14.54,0,1,0,24.8-10.26A13.79,13.79,0,0,0,400.6,49Zm0,28.65a14,14,0,0,1-14.12-14.12A14.1,14.1,0,0,1,400.6,49.41a14.17,14.17,0,0,1,14.12,14.12A14.1,14.1,0,0,1,400.6,77.65Z"/>
<path class="c2" d="M474.93,59.64V82.77a4.83,4.83,0,0,1-4.79,4.79h-.08a4.69,4.69,0,0,1-3.42-1.41,4.57,4.57,0,0,1-1.41-3.38V59.64a10.42,10.42,0,1,0-20.83,0V82.77a4.83,4.83,0,0,1-4.79,4.79h-.13a4.63,4.63,0,0,1-3.37-1.41,4.55,4.55,0,0,1-1.42-3.38V59.64a20.12,20.12,0,1,1,40.24,0Z"/>
<path class="c2" d="M469,45.4a20.12,20.12,0,0,0-34.34,14.24V82.77a4.55,4.55,0,0,0,1.42,3.38,4.63,4.63,0,0,0,3.37,1.41h.13a4.83,4.83,0,0,0,4.79-4.79V59.64a10.42,10.42,0,1,1,20.83,0V82.77a4.57,4.57,0,0,0,1.41,3.38,4.69,4.69,0,0,0,3.42,1.41h.08a4.83,4.83,0,0,0,4.79-4.79V59.64A19.48,19.48,0,0,0,469,45.4Zm5.7,37.37a4.64,4.64,0,0,1-4.59,4.58h-.08A4.47,4.47,0,0,1,466.79,86a4.33,4.33,0,0,1-1.36-3.23V59.64a10.62,10.62,0,1,0-21.24,0V82.77A4.34,4.34,0,0,1,442.82,86a4.4,4.4,0,0,1-3.21,1.34h-.13A4.41,4.41,0,0,1,436.26,86a4.33,4.33,0,0,1-1.36-3.23V59.64a19.94,19.94,0,0,1,19.93-19.93,19.29,19.29,0,0,1,14.06,5.84,19.29,19.29,0,0,1,5.84,14.09Z"/>
</svg>