<svg xmlns="http://www.w3.org/2000/svg" viewBox="0 0 361 80">
<path d="M312.79,1a7.84,7.84,0,0,1,7.84,7.12c.05.19.05,63.81,0,64a7.88,7.88,0,0,1-15.73-.78V8.94A7.91,7.91,0,0,1,312.79,1Zm-2.16,71a2.24,2.24,0,0,0,2.2,1.84A2.21,2.21,0,0,0,315,72c0-.14,0-63.62,0-63.76a2.21,2.21,0,0,0-2.19-1.83,2.24,2.24,0,0,0-2.2,1.84C310.66,8.43,310.66,71.89,310.63,72Z"/>
<path d="M333.11,1A7.84,7.84,0,0,1,341,8.16c.05.19.05,37.4,0,37.6A7.88,7.88,0,0,1,325.22,45v-36A7.91,7.91,0,0,1,333.11,1ZM331,45.63a2.25,2.25,0,0,0,2.2,1.84,2.21,2.21,0,0,0,2.19-1.83c0-.14,0-37.22,0-37.36a2.21,2.21,0,0,0-2.19-1.83A2.24,2.24,0,0,0,331,8.29C331,8.43,331,45.49,331,45.63Z"/>
<path d="M353,1a7.47,7.47,0,0,1,7.47,6.78c0,.19,0,46.65,0,46.84a7.51,7.51,0,0,1-15-.75V8.57A7.53,7.53,0,0,1,353,1ZM351,54.54a2.13,2.13,0,0,0,4.19,0c0-.14,0-46.48,0-46.61A2.13,2.13,0,0,0,351,8C351,8.08,351,54.4,351,54.54Z"/>
<path d="M265.05,28.32a12.74,12.74,0,0,0-18.29-.08,13.7,13.7,0,0,0-3.31,9.35c0,.24,0,.48,0,.72l0,.47H233.17V23a3.67,3.67,0,0,0-1.08-2.64,3.63,3.63,0,0,0-2.69-1.09A3.67,3.67,0,0,0,225.71,23V43.5A6.11,6.11,0,0,1,223.83,48a5.89,5.89,0,0,1-4.4,1.83H217.6a3.74,3.74,0,0,0-3.7,3.69v.09a3.58,3.58,0,0,0,1.1,2.61,3.54,3.54,0,0,0,2.6,1.09h1.83a13.21,13.21,0,0,0,9.71-4,13.43,13.43,0,0,0,3.61-6.4l.09-.35h13.52l.13.16a11.8,11.8,0,0,0,9.38,4.06,11.31,11.31,0,0,0,9.08-4,13.67,13.67,0,0,0,3.16-9.18A13.78,13.78,0,0,0,265.05,28.32Zm-9.18,15a3.32,3.32,0,0,1-3-1.43,7.31,7.31,0,0,1-1-4.14,8,8,0,0,1,1.06-4.44,3.47,3.47,0,0,1,3.21-1.61,3.11,3.11,0,0,1,2.85,1.38,7.75,7.75,0,0,1,.92,4.09C259.84,43.35,257.16,43.35,255.87,43.35Z"/>
<path d="M31.32,25.45v17.2a14.61,14.61,0,0,1-4.43,10.68,14.67,14.67,0,0,1-10.7,4.42A14.63,14.63,0,0,1,5.53,53.33,14.61,14.61,0,0,1,1.1,42.65V25.45a3.47,3.47,0,0,1,1.12-2.62A3.48,3.48,0,0,1,4.8,21.76a3.63,3.63,0,0,1,2.7,1.1,3.51,3.51,0,0,1,1.09,2.59v17.2A7.31,7.31,0,0,0,10.8,48a7.29,7.29,0,0,0,5.39,2.24A7.34,7.34,0,0,0,21.62,48a7.31,7.31,0,0,0,2.21-5.38V25.45a3.5,3.5,0,0,1,1.11-2.62,3.56,3.56,0,0,1,2.59-1.07h.09a3.58,3.58,0,0,1,2.61,1.1A3.51,3.51,0,0,1,31.32,25.45Z"/>
<path d="M21.05,13.19a4.11,4.11,0,0,1-1.3,3.06,4.11,4.11,0,0,1-3,1.24,4.27,4.27,0,0,1-4.29-4.3,4.14,4.14,0,0,1,1.24-3,4.19,4.19,0,0,1,3.05-1.25,4.14,4.14,0,0,1,3,1.25A4,4,0,0,1,21.05,13.19Z"/>
<path d="M202.33,53.72A4.34,4.34,0,0,1,198,58a4.28,4.28,0,0,1-4.3-4.29,4.09,4.09,0,0,1,1.26-3,4.3,4.3,0,0,1,7.33,3Z"/>
<path d="M54.09,38.75a7.41,7.41,0,0,1-5.43-2.2,7.34,7.34,0,0,1-2.2-5.38V14a3.74,3.74,0,0,0-3.71-3.69h-.09a3.58,3.58,0,0,0-2.61,1.1A3.5,3.5,0,0,0,39,14v17.2c0,4.15,1,15.1,15.12,15.1h4l155,0a2.16,2.16,0,0,0,2.16-2.15l.06-7.5c-.73-10.68-10-17.73-19.61-17.73a21,21,0,0,0-12.78,4.47l-.58.52L181,25.21a3.53,3.53,0,0,0-1,2.6,3.58,3.58,0,0,0,1.08,2.6l.07.07a4.41,4.41,0,0,0,2.7,1.3,3.52,3.52,0,0,0,2.87-.88l1.25-1.26h0a10.76,10.76,0,0,1,8.42-3.29c6.21.38,10.95,6.26,10.95,12.43Z"/>
</svg>