<svg xmlns="http://www.w3.org/2000/svg" viewBox="0 0 110 25.75"><title>LogoMe</title><path d="M15.72,0a2.59,2.59,0,0,0-2.58,2.34c0,.07,0,21,0,21.07a2.6,2.6,0,0,0,5.18-.26V2.6A2.61,2.61,0,0,0,15.72,0Zm.71,23.37a.74.74,0,0,1-1.45,0s0-20.94,0-21a.74.74,0,0,1,1.45,0C16.42,2.43,16.42,23.32,16.43,23.37Z"/><path d="M9,0A2.59,2.59,0,0,0,6.45,2.34c0,.07,0,12.31,0,12.38a2.6,2.6,0,0,0,5.18-.26V2.6A2.61,2.61,0,0,0,9,0Zm.71,14.68a.73.73,0,0,1-.72.6.72.72,0,0,1-.72-.6V2.38A.72.72,0,0,1,9,1.78a.73.73,0,0,1,.72.6C9.73,2.43,9.73,14.63,9.74,14.68Z"/><path d="M2.47,0A2.46,2.46,0,0,0,0,2.23c0,.06,0,15.36,0,15.42a2.46,2.46,0,0,0,2.46,2.23A2.49,2.49,0,0,0,5,17.4V2.48A2.49,2.49,0,0,0,2.47,0Zm.68,17.61a.7.7,0,0,1-1.38,0s0-15.3,0-15.34a.7.7,0,0,1,1.38,0S3.14,17.56,3.15,17.61Z"/><path d="M41,5.45a4.48,4.48,0,0,0-3.6,1.65,4.77,4.77,0,0,0-7-.26A4.59,4.59,0,0,0,29,10.2v5.53a1.06,1.06,0,0,0,.33.8,1.1,1.1,0,0,0,.81.34h0a1.09,1.09,0,0,0,.8-.33,1.07,1.07,0,0,0,.34-.81V10.2a2.45,2.45,0,0,1,4.18-1.73,2.33,2.33,0,0,1,.72,1.73v5.53a1.14,1.14,0,0,0,1.15,1.14h0a1.06,1.06,0,0,0,.8-.33,1.11,1.11,0,0,0,.34-.81V10.2A2.46,2.46,0,0,1,41,7.75a2.46,2.46,0,0,1,2.46,2.45v5.53a1.14,1.14,0,0,0,1.14,1.14h0a1.14,1.14,0,0,0,1.14-1.14V10.2a4.6,4.6,0,0,0-1.4-3.36A4.56,4.56,0,0,0,41,5.45Z"/><path d="M53.54,5.45a5.52,5.52,0,0,0-4,1.67,5.54,5.54,0,0,0-1.68,4,5.54,5.54,0,0,0,1.68,4,5.71,5.71,0,0,0,8.07,0,5.54,5.54,0,0,0,1.68-4,5.54,5.54,0,0,0-1.68-4A5.53,5.53,0,0,0,53.54,5.45Zm2.37,8.11a3.33,3.33,0,0,1-4.74,0,3.21,3.21,0,0,1-1-2.37,3.35,3.35,0,0,1,3.35-3.37,3.15,3.15,0,0,1,2.37,1,3.19,3.19,0,0,1,1,2.38A3.18,3.18,0,0,1,55.91,13.56Z"/><path d="M69.77,5.45h0A1.14,1.14,0,0,0,68.6,6.59v5.5a2.48,2.48,0,1,1-4.95,0V6.59a1.14,1.14,0,0,0-1.14-1.14h0a1.11,1.11,0,0,0-.8.33,1.14,1.14,0,0,0-.34.81v5.5a4.79,4.79,0,0,0,9.57,0V6.59a1.1,1.1,0,0,0-.34-.8A1.05,1.05,0,0,0,69.77,5.45Z"/><path d="M79,7.42a1.13,1.13,0,0,0,.32-.8v0A1.17,1.17,0,0,0,79,5.78a1.14,1.14,0,0,0-.82-.33h-.57a4.18,4.18,0,0,0-3.08,1.27A4.3,4.3,0,0,0,73.3,9.8v5.93a1.07,1.07,0,0,0,.34.81,1.09,1.09,0,0,0,.8.33h0a1.13,1.13,0,0,0,.8-.33,1.11,1.11,0,0,0,.34-.81V9.8a2,2,0,0,1,.59-1.45,2,2,0,0,1,1.45-.6h.57A1.14,1.14,0,0,0,79,7.42Z"/><path d="M82.88,1.31a1.34,1.34,0,0,0-.95.39,1.3,1.3,0,0,0-.38.93A1.3,1.3,0,0,0,82.88,4a1.26,1.26,0,0,0,.92-.38,1.27,1.27,0,0,0,.4-1,1.27,1.27,0,0,0-.39-.93A1.31,1.31,0,0,0,82.88,1.31Z"/><path d="M82.9,5.45h0a1.11,1.11,0,0,0-.82.34,1.13,1.13,0,0,0-.32.8V16.65a2,2,0,0,1-.61,1.45,2,2,0,0,1-1.44.6h-.58A1.14,1.14,0,0,0,78,19.84v0A1.14,1.14,0,0,0,79.11,21h.58a4.2,4.2,0,0,0,3.07-1.27A4.28,4.28,0,0,0,84,16.65V6.59A1.11,1.11,0,0,0,82.9,5.45Z"/><path d="M92.34,5.45a5.7,5.7,0,0,0-5.71,5.71,5.7,5.7,0,0,0,9.11,4.58,1.14,1.14,0,0,0,1.14,1.13h0a1.09,1.09,0,0,0,.8-.33,1.11,1.11,0,0,0,.34-.81V11.16a5.54,5.54,0,0,0-1.68-4A5.52,5.52,0,0,0,92.34,5.45Zm0,9.07A3.35,3.35,0,0,1,89,11.16a3.36,3.36,0,1,1,6.71,0,3.35,3.35,0,0,1-3.35,3.36Z"/><path d="M108.6,6.85a4.78,4.78,0,0,0-8.16,3.38v5.5a1.1,1.1,0,0,0,.33.81,1.13,1.13,0,0,0,.81.33h0a1.14,1.14,0,0,0,1.13-1.14v-5.5a2.48,2.48,0,0,1,2.48-2.48,2.48,2.48,0,0,1,2.47,2.48v5.5a1.11,1.11,0,0,0,.34.81,1.13,1.13,0,0,0,.81.33h0A1.14,1.14,0,0,0,110,15.73v-5.5A4.63,4.63,0,0,0,108.6,6.85Z"/></svg>