<svg xmlns="http://www.w3.org/2000/svg" viewBox="0 0 80 80"><defs><style>.c1{fill:#fff;}</style></defs>
    <path class="c1" d="M48.4,1a7.84,7.84,0,0,0-7.83,7.12c0,.19,0,63.81,0,64a7.89,7.89,0,0,0,15.74-.78V8.94A7.91,7.91,0,0,0,48.4,1Zm2.17,71a2.24,2.24,0,0,1-2.2,1.84A2.21,2.21,0,0,1,46.18,72c0-.14,0-63.62,0-63.76a2.21,2.21,0,0,1,2.19-1.83,2.24,2.24,0,0,1,2.2,1.84C50.54,8.43,50.54,71.89,50.57,72Z"/>
    <path class="c1" d="M28.09,1a7.84,7.84,0,0,0-7.84,7.12c-.05.19-.05,37.4,0,37.6A7.89,7.89,0,0,0,36,45v-36A7.91,7.91,0,0,0,28.09,1Zm2.16,44.59a2.25,2.25,0,0,1-2.2,1.84,2.21,2.21,0,0,1-2.19-1.83c0-.14,0-37.22,0-37.36a2.21,2.21,0,0,1,2.19-1.83,2.24,2.24,0,0,1,2.2,1.84C30.22,8.43,30.22,45.49,30.25,45.63Z"/>
    <path class="c1" d="M8.16,1A7.47,7.47,0,0,0,.69,7.82c0,.19,0,46.65,0,46.84a7.51,7.51,0,0,0,15-.75V8.57A7.53,7.53,0,0,0,8.16,1Zm2.06,53.5a2.14,2.14,0,0,1-2.09,1.75A2.12,2.12,0,0,1,6,54.55c0-.14,0-46.48,0-46.61a2.13,2.13,0,0,1,4.19,0C10.19,8.08,10.19,54.4,10.22,54.54Z"/>
</svg>