<?xml version="1.0" encoding="utf-8"?>
<!-- Generator: Adobe Illustrator 24.0.0, SVG Export Plug-In . SVG Version: 6.00 Build 0)  -->
<svg version="1.1" id="Layer_1" xmlns="http://www.w3.org/2000/svg" xmlns:xlink="http://www.w3.org/1999/xlink" x="0px" y="0px"
	 viewBox="0 0 360 84" style="enable-background:new 0 0 360 84;" xml:space="preserve">
<style type="text/css">
	.st0{fill:#FFFFFF;}
</style>
<path class="st0" d="M48.4,0c-4.06-0.01-7.46,3.08-7.83,7.12c0,0.19,0,69.81,0,70c0.44,4.34,4.31,7.49,8.64,7.06
	c4.02-0.41,7.09-3.79,7.1-7.84V7.94C56.33,3.57,52.8,0.02,48.43,0C48.42,0,48.41,0,48.4,0z M50.57,77c-0.19,1.06-1.12,1.84-2.2,1.84
	c-1.08,0.01-2.01-0.77-2.19-1.84c0-0.14,0-69.62,0-69.76c0.19-1.06,1.11-1.84,2.19-1.83c1.08,0,2.01,0.78,2.2,1.84
	C50.54,7.43,50.54,76.89,50.57,77z"/>
<path class="st0" d="M28.09,0c-4.06-0.02-7.47,3.07-7.84,7.12c-0.05,0.19-0.05,43.4,0,43.6c0.38,4.34,4.21,7.55,8.55,7.17
	c4.09-0.36,7.22-3.79,7.2-7.89V8c0.05-4.37-3.45-7.95-7.82-8C28.15,0,28.12,0,28.09,0z M30.25,50.59c-0.2,1.06-1.12,1.83-2.2,1.84
	c-1.08,0.01-2-0.77-2.19-1.83c0-0.14,0-43.22,0-43.36c0.19-1.06,1.11-1.84,2.19-1.83c1.08,0,2.01,0.78,2.2,1.84
	c-0.03,0.18-0.03,43.24,0,43.38V50.59z"/>
<path class="st0" d="M8.16,0C4.28-0.01,1.03,2.95,0.69,6.82c0,0.19,0,52.65,0,52.84c0.26,4.14,3.83,7.28,7.97,7.02
	c4.06-0.26,7.18-3.7,7.03-7.77V7.57C15.71,3.41,12.36,0.02,8.2,0C8.19,0,8.17,0,8.16,0z M10.22,59.5c-0.19,1.01-1.06,1.74-2.09,1.75
	C7.1,61.28,6.2,60.56,6,59.55C6,59.41,6,7.07,6,6.94c0.21-1.16,1.32-1.92,2.48-1.71c0.87,0.16,1.55,0.84,1.71,1.71
	c0,0.14,0,52.46,0.03,52.6L10.22,59.5z"/>
<path class="st0" d="M132.81,13.67c-4.56-0.1-8.92,1.9-11.81,5.43c-2.92-3.55-7.31-5.55-11.91-5.43c-4.17-0.06-8.18,1.59-11.09,4.57
	c-2.97,2.91-4.63,6.91-4.58,11.07v18.21c0.03,2.06,1.69,3.72,3.75,3.75h0.1c0.99,0.01,1.94-0.39,2.62-1.1
	c0.73-0.69,1.13-1.65,1.11-2.65V29.31c0.16-4.45,3.89-7.94,8.35-7.78c4.23,0.15,7.63,3.55,7.78,7.78v18.21
	c-0.02,1,0.39,1.96,1.12,2.64c0.69,0.72,1.66,1.12,2.66,1.11H121c2.06-0.03,3.72-1.69,3.74-3.75V29.31c0.16-4.47,3.9-7.96,8.37-7.8
	c4.24,0.15,7.65,3.56,7.8,7.8v18.21c0.02,2.06,1.68,3.72,3.74,3.75h0.07c2.07-0.01,3.74-1.68,3.75-3.75V29.31
	C148.46,20.67,141.45,13.67,132.81,13.67C132.81,13.67,132.81,13.67,132.81,13.67z"/>
<path class="st0" d="M174.15,13.67c-5-0.07-9.81,1.93-13.29,5.51c-3.59,3.49-5.58,8.3-5.51,13.3c-0.07,5,1.92,9.81,5.51,13.3
	c7.33,7.34,19.22,7.35,26.56,0.02c0.01-0.01,0.01-0.01,0.02-0.02c3.61-3.49,5.62-8.3,5.56-13.32c0.06-5-1.93-9.81-5.51-13.3
	C183.99,15.57,179.16,13.59,174.15,13.67z M182,40.36c-4.28,4.32-11.24,4.35-15.56,0.07c-0.02-0.02-0.05-0.05-0.07-0.07
	c-2.11-2.04-3.28-4.87-3.22-7.8c-0.04-6.07,4.84-11.04,10.92-11.08c0.04,0,0.09,0,0.13,0c2.94-0.06,5.77,1.11,7.8,3.24
	c2.12,2.05,3.3,4.89,3.24,7.84C185.29,35.5,184.12,38.33,182,40.36z"/>
<path class="st0" d="M227.56,13.67h-0.06c-1.01-0.01-1.98,0.39-2.68,1.12c-0.72,0.69-1.12,1.66-1.11,2.66v18.09
	c0.16,4.5-3.36,8.27-7.86,8.43c-4.5,0.16-8.27-3.36-8.43-7.86c-0.01-0.19-0.01-0.38,0-0.57V17.43c-0.03-2.06-1.69-3.73-3.75-3.76
	h-0.1c-0.99-0.01-1.95,0.4-2.63,1.12c-0.72,0.69-1.13,1.66-1.12,2.66v18.09c0.22,8.7,7.45,15.57,16.14,15.35
	c8.39-0.21,15.14-6.96,15.35-15.35V17.43c0.01-1-0.39-1.96-1.1-2.66C229.52,14.05,228.56,13.65,227.56,13.67z"/>
<path class="st0" d="M258.07,20.14c0.7-0.69,1.09-1.64,1.07-2.63v-0.08c0.01-0.99-0.37-1.95-1.07-2.66c-0.7-0.72-1.67-1.12-2.68-1.1
	h-1.88c-3.82-0.06-7.49,1.46-10.15,4.2c-2.7,2.68-4.2,6.34-4.18,10.14v19.51c-0.02,1,0.38,1.96,1.11,2.64
	c0.68,0.72,1.64,1.12,2.63,1.11h0.1c0.99,0.01,1.94-0.39,2.63-1.1c0.73-0.68,1.14-1.65,1.12-2.65V28c-0.01-1.8,0.71-3.52,2-4.78
	c1.24-1.3,2.97-2.03,4.77-2h1.88C256.41,21.24,257.37,20.85,258.07,20.14z"/>
<path class="st0" d="M270.7,0.05c-1.16-0.02-2.28,0.44-3.09,1.28c-0.83,0.8-1.3,1.91-1.28,3.07c-0.02,1.17,0.45,2.29,1.28,3.1
	c0.81,0.83,1.93,1.29,3.09,1.27c1.15,0.02,2.26-0.44,3.06-1.27c0.86-0.8,1.34-1.93,1.32-3.1c0.02-1.16-0.46-2.28-1.31-3.07
	C272.97,0.5,271.86,0.04,270.7,0.05z"/>
<path class="st0" d="M270.77,13.67h-0.07c-1.01-0.02-1.99,0.38-2.7,1.1c-0.67,0.72-1.03,1.68-1,2.66v33.09c0.03,1.8-0.7,3.54-2,4.79
	c-1.22,1.3-2.94,2.03-4.73,2h-1.97c-2.06,0.01-3.73,1.68-3.75,3.74v0.1c0.02,2.06,1.69,3.73,3.75,3.75h1.92
	c3.81,0.05,7.48-1.48,10.12-4.23c2.7-2.68,4.21-6.34,4.18-10.15V17.43c0.01-1-0.37-1.96-1.08-2.66
	C272.74,14.05,271.77,13.65,270.77,13.67z"/>
<path class="st0" d="M301.85,13.67c-5-0.06-9.8,1.93-13.29,5.51c-3.59,3.49-5.58,8.3-5.51,13.3c-0.07,5,1.92,9.81,5.51,13.3
	c6.59,6.6,17.02,7.36,24.5,1.79c-0.01,0.99,0.39,1.93,1.11,2.61c0.69,0.72,1.64,1.12,2.64,1.11h0.09c2.06-0.02,3.73-1.69,3.75-3.75
	V32.46c0.06-5-1.93-9.81-5.51-13.3C311.65,15.59,306.85,13.6,301.85,13.67z M301.85,43.53c-6.08,0.03-11.02-4.87-11.05-10.95
	c0-0.04,0-0.08,0-0.12c0-6.08,4.92-11,11-11c0.02,0,0.03,0,0.05,0c2.94-0.06,5.77,1.12,7.8,3.25c2.12,2.03,3.3,4.86,3.25,7.8
	c0.06,2.95-1.12,5.79-3.25,7.83c-2.04,2.1-4.87,3.25-7.8,3.17V43.53z"/>
<path class="st0" d="M355.38,18.27c-6.12-6.14-16.06-6.17-22.2-0.05c-0.02,0.02-0.03,0.03-0.05,0.05c-3,2.93-4.67,6.96-4.61,11.15
	v18.1c-0.02,1,0.38,1.96,1.11,2.64c0.69,0.72,1.64,1.12,2.64,1.11h0.1c0.99,0.01,1.94-0.39,2.63-1.1c0.73-0.69,1.13-1.65,1.12-2.65
	v-18.1c-0.16-4.5,3.36-8.27,7.86-8.43c4.5-0.16,8.27,3.36,8.43,7.86c0.01,0.19,0.01,0.38,0,0.57v18.1c-0.01,0.99,0.38,1.95,1.1,2.64
	c0.7,0.72,1.67,1.12,2.68,1.11h0.06c2.06-0.02,3.73-1.69,3.75-3.75v-18.1C360.06,25.23,358.39,21.19,355.38,18.27z"/>
<g>
	<path class="st0" d="M97,82.4h-2.03v-2.08h1.82c0.45,0,0.79-0.32,0.79-0.74c0-0.42-0.34-0.74-0.79-0.74h-1.81v-2.1h1.91
		c0.45,0,0.79-0.32,0.79-0.74c0-0.42-0.34-0.74-0.79-0.74h-2.61c-0.78,0-0.86,0.56-0.86,0.79v7.02c0,0.24,0.08,0.79,0.86,0.79H97
		c0.45,0,0.79-0.32,0.79-0.74S97.45,82.4,97,82.4z"/>
	<path class="st0" d="M106.17,75.2c-0.17,0-0.57,0.06-0.74,0.59l-1.82,5.34l-1.82-5.33c-0.17-0.53-0.58-0.59-0.74-0.59
		c-0.44,0-0.77,0.32-0.77,0.75c0,0.14,0.05,0.34,0.18,0.68l2.33,6.58c0.06,0.18,0.26,0.74,0.83,0.74c0.38,0,0.66-0.25,0.83-0.74
		l2.33-6.58c0.13-0.35,0.18-0.54,0.18-0.68C106.94,75.52,106.61,75.2,106.17,75.2z"/>
	<path class="st0" d="M113.17,82.4h-2.03v-2.08h1.82c0.45,0,0.79-0.32,0.79-0.74c0-0.42-0.34-0.74-0.79-0.74h-1.81v-2.1h1.91
		c0.45,0,0.79-0.32,0.79-0.74c0-0.42-0.34-0.74-0.79-0.74h-2.61c-0.78,0-0.86,0.56-0.86,0.79v7.02c0,0.24,0.08,0.79,0.86,0.79h2.72
		c0.45,0,0.79-0.32,0.79-0.74S113.62,82.4,113.17,82.4z"/>
	<path class="st0" d="M120.07,80.36c1.36-0.07,2.34-1.13,2.34-2.59c0-1.25-0.94-2.51-2.75-2.51h-1.73c-0.79,0-0.87,0.56-0.87,0.79v7
		c0,0.65,0.42,0.88,0.77,0.88s0.77-0.23,0.77-0.88v-2.1l2.49,2.68c0.19,0.21,0.39,0.3,0.63,0.3c0.4,0,0.73-0.32,0.73-0.71
		c0-0.29-0.1-0.44-0.26-0.6L120.07,80.36z M120.86,77.91c0,0.7-0.41,1.04-1.26,1.04h-1.01v-2.21h1.01
		C120.47,76.74,120.86,77.1,120.86,77.91z"/>
	<path class="st0" d="M129.97,75.2c-0.33,0-0.56,0.14-0.72,0.42l-1.6,2.66l-1.59-2.66c-0.16-0.28-0.4-0.42-0.72-0.42
		c-0.4,0-0.71,0.29-0.71,0.68c0,0.19,0.07,0.37,0.3,0.75l1.96,3.26v3.18c0,0.65,0.42,0.88,0.77,0.88s0.77-0.23,0.77-0.88v-3.18
		l1.96-3.26c0.23-0.38,0.3-0.55,0.3-0.75C130.68,75.49,130.37,75.2,129.97,75.2z"/>
	<path class="st0" d="M137.15,75.26h-3.84c-0.45,0-0.79,0.32-0.79,0.74c0,0.42,0.34,0.74,0.79,0.74h1.15v6.32
		c0,0.65,0.42,0.88,0.77,0.88s0.77-0.23,0.77-0.88v-6.32h1.15c0.45,0,0.79-0.32,0.79-0.74C137.94,75.58,137.6,75.26,137.15,75.26z"
		/>
	<path class="st0" d="M146.38,75.2c-0.36,0-0.77,0.23-0.77,0.88v2.65h-3.57v-2.65c0-0.65-0.42-0.88-0.77-0.88s-0.77,0.23-0.77,0.88
		v6.98c0,0.65,0.42,0.88,0.77,0.88s0.77-0.23,0.77-0.88v-2.85h3.57v2.85c0,0.65,0.42,0.88,0.77,0.88s0.77-0.23,0.77-0.88v-6.98
		C147.15,75.43,146.74,75.2,146.38,75.2z"/>
	<path class="st0" d="M151.19,75.2c-0.36,0-0.77,0.23-0.77,0.88v6.98c0,0.65,0.42,0.88,0.77,0.88c0.36,0,0.77-0.23,0.77-0.88v-6.98
		C151.96,75.43,151.55,75.2,151.19,75.2z"/>
	<path class="st0" d="M161.11,75.2c-0.36,0-0.77,0.23-0.77,0.88v4.77l-3.56-5.21c-0.08-0.11-0.32-0.45-0.77-0.45
		c-0.45,0-0.77,0.35-0.77,0.84v7.02c0,0.65,0.42,0.88,0.77,0.88c0.36,0,0.77-0.23,0.77-0.88v-4.85l3.61,5.29
		c0.13,0.18,0.31,0.45,0.74,0.45c0.18,0,0.75-0.06,0.75-0.86v-7C161.88,75.43,161.46,75.2,161.11,75.2z"/>
	<path class="st0" d="M171.21,78.7h-1.51c-0.45,0-0.79,0.32-0.79,0.74s0.34,0.74,0.79,0.74h1c-0.07,0.91-0.42,2.29-1.95,2.29
		c-1.68,0-2.28-1.5-2.28-2.89c0-1.39,0.7-2.89,2.23-2.89c0.76,0,1.23,0.34,1.58,0.58c0.23,0.17,0.43,0.31,0.68,0.31
		c0.38,0,0.76-0.27,0.76-0.79c0-0.69-1.48-1.58-3.06-1.58c-2.61,0-3.8,2.27-3.8,4.37c0,2.02,1,4.37,3.82,4.37
		c2.37,0,3.58-1.43,3.58-4.26C172.26,79.05,171.88,78.7,171.21,78.7z"/>
	<path class="st0" d="M184.66,75.2c-0.32,0-0.56,0.14-0.72,0.42l-1.6,2.66l-1.6-2.66c-0.16-0.28-0.4-0.42-0.72-0.42
		c-0.4,0-0.71,0.29-0.71,0.68c0,0.19,0.07,0.37,0.3,0.75l1.96,3.25v3.18c0,0.65,0.42,0.88,0.77,0.88s0.77-0.23,0.77-0.88v-3.18
		l1.96-3.25c0.23-0.38,0.3-0.55,0.3-0.75C185.37,75.49,185.07,75.2,184.66,75.2z"/>
	<path class="st0" d="M191.34,75.2c-2.55,0-3.71,2.27-3.71,4.37s1.16,4.37,3.71,4.37c2.44,0,3.71-2.2,3.71-4.37
		S193.78,75.2,191.34,75.2z M191.34,82.46c-1.55,0-2.1-1.56-2.1-2.89s0.55-2.89,2.1-2.89c1.55,0,2.1,1.56,2.1,2.89
		S192.89,82.46,191.34,82.46z"/>
	<path class="st0" d="M203.91,75.2c-0.36,0-0.77,0.23-0.77,0.88v4.65c0,1.28-0.96,1.73-1.78,1.73s-1.78-0.45-1.78-1.73v-4.65
		c0-0.65-0.42-0.88-0.77-0.88s-0.77,0.23-0.77,0.88v4.75c0,2.14,1.72,3.11,3.32,3.11s3.32-0.97,3.32-3.11v-4.75
		C204.68,75.43,204.27,75.2,203.91,75.2z"/>
	<path class="st0" d="M208.98,75.2c-0.33,0-0.58,0.16-0.72,0.45l-0.63,1.39c-0.08,0.18-0.12,0.34-0.12,0.49
		c0,0.35,0.28,0.72,0.76,0.72c0.33,0,0.58-0.16,0.72-0.45l0.63-1.39c0.08-0.18,0.12-0.34,0.12-0.49
		C209.74,75.57,209.45,75.2,208.98,75.2z"/>
	<path class="st0" d="M217.84,75.2c-0.17,0-0.57,0.06-0.74,0.59l-1.82,5.34l-1.82-5.33c-0.17-0.53-0.58-0.59-0.74-0.59
		c-0.44,0-0.77,0.32-0.77,0.75c0,0.15,0.05,0.34,0.18,0.68l2.33,6.58c0.17,0.49,0.45,0.74,0.83,0.74c0.38,0,0.66-0.25,0.83-0.74
		l2.33-6.58c0.13-0.35,0.18-0.54,0.18-0.68C218.62,75.51,218.29,75.2,217.84,75.2z"/>
	<path class="st0" d="M224.84,82.4h-2.03v-2.08h1.82c0.45,0,0.79-0.32,0.79-0.74c0-0.42-0.34-0.74-0.79-0.74h-1.81v-2.1h1.91
		c0.45,0,0.79-0.32,0.79-0.74c0-0.42-0.34-0.74-0.79-0.74h-2.61c-0.78,0-0.86,0.56-0.86,0.79v7.02c0,0.24,0.08,0.79,0.86,0.79h2.72
		c0.45,0,0.79-0.32,0.79-0.74S225.3,82.4,224.84,82.4z"/>
	<path class="st0" d="M238.13,79.15c0.42-0.37,0.62-0.88,0.62-1.55c0-1.08-0.69-2.34-2.65-2.34h-1.42c-0.78,0-0.86,0.56-0.86,0.79
		v7.02c0,0.24,0.08,0.79,0.86,0.79h1.81c2.12,0,2.87-1.42,2.87-2.63C239.36,80.28,238.93,79.54,238.13,79.15z M237.81,81.22
		c0,0.78-0.48,1.17-1.41,1.17h-1.04v-2.35h1.03C237.24,80.04,237.81,80.52,237.81,81.22z M235.36,78.63v-1.89h0.81
		c0.71,0,1.04,0.46,1.04,0.9c0,0.58-0.45,0.99-1.06,0.99H235.36z"/>
	<path class="st0" d="M245.88,82.4h-2.03v-2.08h1.82c0.45,0,0.79-0.32,0.79-0.74c0-0.42-0.34-0.74-0.79-0.74h-1.81v-2.1h1.91
		c0.45,0,0.79-0.32,0.79-0.74c0-0.42-0.34-0.74-0.79-0.74h-2.61c-0.78,0-0.86,0.56-0.86,0.79v7.02c0,0.24,0.08,0.79,0.86,0.79h2.72
		c0.45,0,0.79-0.32,0.79-0.74S246.34,82.4,245.88,82.4z"/>
	<path class="st0" d="M253.35,82.4h-2.03v-2.08h1.82c0.45,0,0.79-0.32,0.79-0.74c0-0.42-0.34-0.74-0.79-0.74h-1.81v-2.1h1.91
		c0.45,0,0.79-0.32,0.79-0.74c0-0.42-0.34-0.74-0.79-0.74h-2.61c-0.78,0-0.86,0.56-0.86,0.79v7.02c0,0.24,0.08,0.79,0.86,0.79h2.72
		c0.45,0,0.79-0.32,0.79-0.74S253.8,82.4,253.35,82.4z"/>
	<path class="st0" d="M263.11,75.2c-0.36,0-0.77,0.23-0.77,0.88v4.77l-3.56-5.21c-0.08-0.11-0.31-0.45-0.77-0.45
		c-0.45,0-0.77,0.35-0.77,0.84v7.02c0,0.65,0.42,0.88,0.77,0.88c0.36,0,0.77-0.23,0.77-0.88v-4.85l3.61,5.29
		c0.13,0.18,0.32,0.45,0.74,0.45c0.18,0,0.75-0.06,0.75-0.86v-7C263.88,75.43,263.47,75.2,263.11,75.2z"/>
	<path class="st0" d="M275.48,82.4h-1.7v-6.32c0-0.65-0.42-0.88-0.77-0.88s-0.77,0.23-0.77,0.88v7.02c0,0.43,0.35,0.77,0.77,0.77
		h2.47c0.45,0,0.79-0.32,0.79-0.74S275.94,82.4,275.48,82.4z"/>
	<path class="st0" d="M282.31,75.2c-2.55,0-3.71,2.27-3.71,4.37s1.16,4.37,3.71,4.37c2.44,0,3.71-2.2,3.71-4.37
		S284.74,75.2,282.31,75.2z M282.31,82.46c-1.55,0-2.1-1.56-2.1-2.89s0.55-2.89,2.1-2.89c1.55,0,2.1,1.56,2.1,2.89
		S283.86,82.46,282.31,82.46z"/>
	<path class="st0" d="M292.42,75.2c-2.55,0-3.71,2.27-3.71,4.37s1.16,4.37,3.71,4.37c2.44,0,3.71-2.2,3.71-4.37
		S294.86,75.2,292.42,75.2z M292.42,82.46c-1.55,0-2.1-1.56-2.1-2.89s0.55-2.89,2.1-2.89c1.55,0,2.1,1.56,2.1,2.89
		S293.97,82.46,292.42,82.46z"/>
	<path class="st0" d="M301.56,79.35l3.14-2.82c0.27-0.23,0.31-0.44,0.31-0.63c0-0.34-0.25-0.71-0.72-0.71
		c-0.32,0-0.54,0.18-0.74,0.36l-2.9,2.61v-2.08c0-0.65-0.42-0.88-0.77-0.88s-0.77,0.23-0.77,0.88v6.98c0,0.65,0.42,0.88,0.77,0.88
		s0.77-0.23,0.77-0.88v-2.49l3.15,3c0.19,0.19,0.42,0.38,0.74,0.38c0.41,0,0.73-0.32,0.73-0.72c0-0.22-0.11-0.46-0.29-0.62
		L301.56,79.35z"/>
	<path class="st0" d="M308.59,75.2c-0.36,0-0.77,0.23-0.77,0.88v6.98c0,0.65,0.42,0.88,0.77,0.88s0.77-0.23,0.77-0.88v-6.98
		C309.36,75.43,308.94,75.2,308.59,75.2z"/>
	<path class="st0" d="M318.5,75.2c-0.36,0-0.77,0.23-0.77,0.88v4.77l-3.56-5.21c-0.08-0.11-0.31-0.45-0.77-0.45
		c-0.45,0-0.77,0.35-0.77,0.84v7.02c0,0.65,0.42,0.88,0.77,0.88c0.36,0,0.77-0.23,0.77-0.88v-4.85l3.61,5.29
		c0.13,0.18,0.32,0.45,0.74,0.45c0.18,0,0.75-0.06,0.75-0.86v-7C319.27,75.43,318.86,75.2,318.5,75.2z"/>
	<path class="st0" d="M328.61,78.7h-1.51c-0.45,0-0.79,0.32-0.79,0.74s0.34,0.74,0.79,0.74h1c-0.07,0.91-0.42,2.29-1.95,2.29
		c-1.68,0-2.28-1.5-2.28-2.89c0-1.39,0.7-2.89,2.23-2.89c0.76,0,1.23,0.33,1.57,0.58c0.23,0.17,0.43,0.31,0.68,0.31
		c0.38,0,0.76-0.27,0.76-0.79c0-0.69-1.48-1.58-3.06-1.58c-2.61,0-3.8,2.27-3.8,4.37c0,2.02,1,4.37,3.82,4.37
		c2.38,0,3.58-1.43,3.58-4.26C329.66,79.05,329.27,78.7,328.61,78.7z"/>
	<path class="st0" d="M341,75.26h-2.81c-0.43,0.02-0.75,0.35-0.75,0.77v7.02c0,0.65,0.42,0.88,0.77,0.88c0.36,0,0.77-0.23,0.77-0.88
		v-2.74h1.75c0.45,0,0.79-0.32,0.79-0.74c0-0.42-0.34-0.74-0.79-0.74h-1.75v-2.1H341c0.45,0,0.79-0.32,0.79-0.74
		C341.79,75.58,341.45,75.26,341,75.26z"/>
	<path class="st0" d="M347.91,75.2c-2.55,0-3.71,2.27-3.71,4.37s1.16,4.37,3.71,4.37c2.44,0,3.71-2.2,3.71-4.37
		S350.35,75.2,347.91,75.2z M347.91,82.46c-1.55,0-2.1-1.56-2.1-2.89s0.55-2.89,2.1-2.89c1.55,0,2.1,1.56,2.1,2.89
		S349.46,82.46,347.91,82.46z"/>
	<path class="st0" d="M359.74,82.63l-2.13-2.27c1.36-0.07,2.34-1.13,2.34-2.59c0-1.25-0.94-2.51-2.75-2.51h-1.73
		c-0.79,0-0.87,0.56-0.87,0.79v7c0,0.65,0.42,0.88,0.77,0.88s0.77-0.23,0.77-0.88v-2.09l2.49,2.68c0.19,0.21,0.39,0.3,0.63,0.3
		c0.4,0,0.73-0.32,0.73-0.71C360,82.95,359.9,82.79,359.74,82.63z M357.15,78.95h-1v-2.21h1c0.87,0,1.26,0.36,1.26,1.17
		C358.41,78.61,358,78.95,357.15,78.95z"/>
</g>
</svg>
