<svg version="1.1" viewBox="0 0 361 80" xmlns="http://www.w3.org/2000/svg">
<path d="m312.8 1c4.1 0 7.5 3.1 7.8 7.1v64c-0.4 4.3-4.2 7.5-8.5 7.2-4.1-0.4-7.3-3.8-7.2-8v-62.4c0-4.3 3.5-7.9 7.9-7.9zm-2.2 71c0.2 1.1 1.1 1.8 2.2 1.8s2-0.8 2.2-1.8v-63.8c-0.2-1.1-1.1-1.8-2.2-1.8s-2 0.8-2.2 1.8c0.1 0.2 0.1 63.7 0 63.8z"/>
<path d="m333.1 1c4.1 0 7.5 3.1 7.9 7.2v37.6c-0.2 4.4-3.9 7.7-8.3 7.5s-7.7-3.9-7.5-8.3v-36c0-4.4 3.5-7.9 7.9-8zm-2.1 44.6c0.2 1.1 1.1 1.8 2.2 1.8s2-0.8 2.2-1.8v-37.4c-0.2-1.1-1.1-1.8-2.2-1.8s-2 0.8-2.2 1.8v37.4z"/>
<path d="m353 1c3.9 0 7.1 2.9 7.5 6.8v46.8c-0.3 4.1-3.8 7.3-8 7-4.1-0.3-7.2-3.7-7-7.8v-45.2c-0.1-4.2 3.3-7.6 7.5-7.6zm-2 53.5c0.2 1.2 1.3 1.9 2.5 1.7 0.9-0.2 1.6-0.8 1.7-1.7v-46.6c-0.2-1.2-1.4-1.9-2.5-1.7-0.9 0.2-1.5 0.9-1.7 1.7v46.6z"/>
<path d="m266.2 24.3c-4.9-5.1-12.9-5.2-18-0.4l-0.3 0.3c-2.2 2.6-3.4 5.9-3.3 9.4v0.7 0.5h-10.3v-15.8c0-1-0.4-1.9-1.1-2.6s-1.7-1.1-2.7-1.1c-2 0-3.7 1.6-3.7 3.6v0.1 20.5c0 1.7-0.7 3.3-1.9 4.5-1.1 1.2-2.7 1.9-4.4 1.8h-1.8c-2 0-3.7 1.7-3.7 3.7v0.1c0 1 0.4 1.9 1.1 2.6s1.6 1.1 2.6 1.1h1.8c3.7 0.1 7.2-1.4 9.7-4 1.8-1.8 3-4 3.6-6.4l0.1-0.3h13.5l0.1 0.2c2.3 2.7 5.8 4.2 9.4 4.1 3.5 0.1 6.8-1.3 9.1-4 2.1-2.6 3.3-5.8 3.2-9.2 0.3-3.5-0.8-6.8-3-9.4zm-9.1 15c-1.2 0.1-2.3-0.5-3-1.4-0.7-1.3-1.1-2.7-1-4.1-0.1-1.6 0.3-3.1 1.1-4.4 0.7-1.1 1.9-1.7 3.2-1.6 1.1-0.1 2.2 0.4 2.9 1.4 0.7 1.3 1 2.7 0.9 4.1-0.2 6-2.8 6-4.1 6z"/>
<path d="m32.5 21.5v17.2c0.1 4-1.5 7.9-4.4 10.7-2.8 2.9-6.7 4.5-10.7 4.4-4 0-7.9-1.5-10.7-4.4-2.9-2.8-4.5-6.7-4.4-10.7v-17.2c0-1 0.4-1.9 1.1-2.6 0.7-0.8 1.6-1.2 2.6-1.1 1 0 2 0.4 2.7 1.1s1.1 1.6 1.1 2.6v17.2c0 2 0.8 3.9 2.2 5.3 1.4 1.5 3.4 2.3 5.4 2.2 2 0 4-0.8 5.4-2.2s2.2-3.4 2.2-5.4v-17.1c0-1 0.4-1.9 1.1-2.6s1.6-1.1 2.6-1.1h0.1c1 0 1.9 0.4 2.6 1.1 0.7 0.6 1.1 1.6 1.1 2.6z"/>
<path d="m22.2 9.2c0 1.2-0.5 2.3-1.3 3.1s-1.9 1.3-3 1.2c-2.4 0-4.3-1.9-4.3-4.2v-0.1c0-1.1 0.4-2.2 1.2-3s1.9-1.3 3.1-1.2c1.1 0 2.2 0.4 3 1.2 0.9 0.8 1.4 1.9 1.3 3z"/>
<path d="m203.5 49.7c0 2.4-2 4.3-4.3 4.3-2.4 0-4.3-1.9-4.3-4.3 0-1.1 0.4-2.2 1.3-3 1.7-1.7 4.4-1.7 6.1 0 0.7 0.8 1.2 1.9 1.2 3z"/>
<path d="m55.3 34.8c-2 0-4-0.8-5.4-2.2s-2.2-3.4-2.2-5.4v-17.2c0-2-1.7-3.7-3.7-3.7h-0.1c-1 0-1.9 0.4-2.6 1.1s-1.1 1.6-1 2.6v17.2c0 4.2 1 15.1 15.1 15.1h159c1.2 0 2.2-1 2.2-2.2l0.1-7.5c-0.7-10.7-10-17.7-19.6-17.7-4.6 0-9.1 1.6-12.8 4.5l-0.6 0.5-1.4 1.3c-0.7 0.7-1 1.6-1 2.6s0.4 1.9 1.1 2.6l0.1 0.1c0.7 0.7 1.7 1.2 2.7 1.3s2.1-0.2 2.9-0.9l1.2-1.3c2.2-2.3 5.3-3.5 8.4-3.3 6.2 0.4 10.9 6.3 10.9 12.4l-153.3 0.1z"/>
<path d="m62.4 73.8h-4c0-0.1-0.1-0.2-0.2-0.4s-0.1-0.4-0.2-0.6-0.1-0.4-0.2-0.6c0-0.2-0.1-0.4-0.1-0.6 0-0.4 0.1-0.7 0.2-1s0.3-0.5 0.5-0.6c0.2-0.2 0.4-0.3 0.7-0.3 0.6-0.2 1.3-0.1 1.8-0.1h0.1c0.2 0 0.4 0 0.5 0.1h0.1l0.1-0.1v-1c0-0.1-0.1-0.2-0.2-0.2-0.2 0-0.5 0-0.8-0.1-1-0.1-1.9 0-2.6 0.2-0.5 0.2-0.8 0.4-1.1 0.7s-0.5 0.6-0.7 1c-0.1 0.4-0.2 0.8-0.2 1.2 0 0.5 0.1 1 0.2 1.4l0.3 0.9h-4.4-0.3c-0.1 0-0.2 0-0.3-0.1-0.1 0-0.2-0.1-0.2-0.1l-0.1-0.1v-4.9c0-0.1-0.1-0.2-0.2-0.2h-1.3c-0.1 0-0.2 0.1-0.2 0.2v4.2c0 0.5-0.1 0.7-0.2 0.8s-0.3 0.2-0.7 0.2h-39-0.2c-0.4 0-0.6-0.1-0.7-0.3s-0.2-0.5-0.2-0.8v-4.1c0-0.1-0.1-0.2-0.1-0.2-0.1 0-0.3 0-0.5-0.1-0.2 0-0.4 0-0.6-0.1h-0.6-0.5c-1.2 0-2.2 0.3-2.8 0.8-0.7 0.5-1.1 1.3-1.1 2.5 0 0.9 0.3 1.7 0.9 2.2s1.6 0.7 2.8 0.7h1.3c0.2 0.3 0.4 0.5 0.8 0.6 0.3 0.1 0.7 0.2 1.2 0.2h0.6 39.3c0.6 0 1-0.1 1.3-0.2 0.2-0.1 0.4-0.2 0.5-0.3 0.2 0.2 0.3 0.3 0.5 0.4s0.5 0.2 0.9 0.2h10c0.1 0 0.2-0.1 0.2-0.2v-1c-0.1-0.1-0.2-0.2-0.3-0.2zm-55.4-4.1v3.3h-0.7c-0.8 0-1.3-0.1-1.7-0.4-0.4-0.2-0.6-0.6-0.6-1.2s0.2-1.1 0.6-1.3c0.4-0.3 0.9-0.4 1.6-0.4h0.4 0.4z"/>
<path d="m116.3 76.5c-0.2 0.2-0.3 0.4-0.3 0.7s0.1 0.5 0.3 0.7 0.4 0.3 0.7 0.3 0.5-0.1 0.7-0.3 0.3-0.4 0.3-0.7-0.1-0.5-0.3-0.7c-0.3-0.4-1-0.4-1.4 0z"/>
<path d="m124.3 68.4h-1.3c-0.1 0-0.2 0.1-0.2 0.2v5.2h-4.4-0.3c-0.1 0-0.2 0-0.3-0.1-0.1 0-0.2-0.1-0.2-0.1l-0.1-0.1v-4.9c0-0.1-0.1-0.2-0.2-0.2h-1.3c-0.1 0-0.2 0.1-0.2 0.2v4.2c0 0.5-0.1 0.7-0.2 0.8s-0.3 0.2-0.7 0.2h-4.1c-0.1-0.2-0.3-0.5-0.3-0.8-0.1-0.4-0.1-0.7-0.2-1.2-0.1-0.4-0.1-0.8-0.2-1.2s-0.2-0.8-0.5-1.2c-0.2-0.4-0.6-0.6-1-0.9-0.4-0.2-1-0.3-1.7-0.3-0.4 0-0.8 0-1.2 0.1-0.3 0.1-0.6 0.2-0.8 0.2-0.1 0-0.1 0.1-0.1 0.2v1c0 0.1 0 0.1 0.1 0.1h0.2c0.2 0 0.4-0.1 0.7-0.2s0.6-0.1 1-0.1 0.7 0.1 0.9 0.2 0.4 0.3 0.5 0.5 0.2 0.5 0.3 0.8 0.1 0.6 0.1 1c0 0.3 0.1 0.7 0.2 1 0 0.2 0.1 0.5 0.2 0.7h-27.5-0.3c-0.1 0-0.2 0-0.3-0.1-0.1 0-0.2-0.1-0.2-0.1l-0.1-0.1v-4.9c0-0.1-0.1-0.2-0.2-0.2h-1.3c-0.1 0-0.2 0.1-0.2 0.2v4.2c0 0.5-0.1 0.7-0.2 0.8-0.1 0.2-0.4 0.2-0.7 0.2h-7.7c-0.4 0-0.6-0.1-0.7-0.3s-0.2-0.5-0.2-0.8v-2.6c0-0.1-0.1-0.2-0.2-0.2h-1.3c-0.1 0-0.2 0.1-0.2 0.2v3c0 0.8 0.2 1.4 0.7 1.8 0.4 0.3 1 0.5 1.7 0.5h8.2c0.6 0 1-0.1 1.3-0.2 0.2-0.1 0.4-0.2 0.5-0.3 0.2 0.2 0.3 0.3 0.5 0.4 0.3 0.1 3.1 0.2 3.1 0.2h31.6c0.6 0 1-0.1 1.3-0.2 0.2-0.1 0.4-0.2 0.5-0.3 0.2 0.2 0.3 0.3 0.5 0.4 0.3 0.1 2.2 0.2 2.2 0.2h4.3c0.1 0 0.2-0.1 0.2-0.2v-6.5c0.2-0.3 0.1-0.4 0-0.4z"/>
<path d="m181 69.2c-0.4-0.3-0.9-0.5-1.5-0.6s-1.2-0.2-1.9-0.2h-0.8l3.3-3.6v-0.1s0-0.1-0.1-0.1l-0.8-0.8c-0.1-0.1-0.2-0.1-0.2 0l-4.3 4.6v0.1 1c0 0.1 0.1 0.2 0.2 0.2h2.7c0.6 0 1 0 1.4 0.1s0.7 0.2 0.9 0.4 0.4 0.4 0.5 0.8c0.1 0.3 0.2 0.7 0.2 1.2v1.5h-7.8-1.7c-0.1 0-0.2 0-0.3-0.1-0.1 0-0.2-0.1-0.2-0.1l-0.1-0.1v-4.9c0-0.1-0.1-0.2-0.2-0.2h-1.3c-0.1 0-0.2 0.1-0.2 0.2v4.2c0 0.5-0.1 0.7-0.2 0.8s-0.3 0.2-0.7 0.2h-24-0.3c-0.1 0-0.2 0-0.3-0.1-0.1 0-0.2-0.1-0.2-0.1l-0.1-0.1v-4.9c0-0.1-0.1-0.2-0.2-0.2h-1.3c-0.1 0-0.2 0.1-0.2 0.2v4.2c0 0.5-0.1 0.7-0.2 0.8-0.1 0.2-0.4 0.2-0.7 0.2h-7.7c-0.4 0-0.6-0.1-0.7-0.3s-0.2-0.5-0.2-0.8v-2.6c0-0.1-0.1-0.2-0.2-0.2h-1.3c-0.1 0-0.2 0.1-0.2 0.2v3c0 0.8 0.2 1.4 0.7 1.8 0.4 0.3 1 0.5 1.7 0.5h8.2c0.6 0 1-0.1 1.3-0.2 0.2-0.1 0.4-0.2 0.5-0.3 0.2 0.2 0.3 0.3 0.5 0.4s0.5 0.2 0.9 0.2h24.2c0.6 0 1-0.1 1.3-0.2 0.2-0.1 0.4-0.2 0.5-0.3 0.2 0.2 0.3 0.3 0.5 0.4 0.3 0.1 3.1 0.2 3.1 0.2h8.3c0.1 0 0.2-0.1 0.2-0.2v-3c0-0.7-0.1-1.3-0.3-1.8 0.1-0.7-0.3-1-0.7-1.3z"/>
<path d="m223.1 69.4c-0.3-0.3-0.6-0.6-1-0.8s-0.9-0.3-1.5-0.3c-0.5 0-1 0.1-1.5 0.3-0.4 0.2-0.8 0.4-1.1 0.7s-0.5 0.6-0.7 1c-0.1 0.4-0.2 0.8-0.2 1.2 0 0.5 0.1 1 0.2 1.5l0.3 0.9h-26.6c-0.3 0-0.6 0-0.7-0.2s-0.2-0.5-0.2-0.8v-8.7c0-0.1-0.1-0.2-0.2-0.2h-1.3c-0.1 0-0.2 0.1-0.2 0.2v8.8c0 0.8 0.2 1.4 0.7 1.8 0.4 0.3 1 0.5 1.7 0.5h29.8c0.5 0 1-0.1 1.4-0.3s0.7-0.5 1-0.8 0.5-0.7 0.6-1.1 0.2-0.9 0.2-1.3-0.1-0.8-0.2-1.2c0-0.5-0.2-0.9-0.5-1.2zm-0.9 2.3c0 0.3 0 0.5-0.1 0.8s-0.2 0.5-0.3 0.7-0.3 0.4-0.5 0.5-0.5 0.2-0.7 0.2h-1.1c0-0.1-0.1-0.2-0.1-0.3-0.1-0.2-0.1-0.4-0.2-0.6s-0.1-0.4-0.2-0.7c0-0.2-0.1-0.5-0.1-0.7 0-0.3 0.1-0.6 0.1-0.9 0.1-0.2 0.2-0.4 0.4-0.6 0.2-0.1 0.3-0.3 0.5-0.3 0.2-0.1 0.4-0.1 0.6-0.1 0.5 0 0.9 0.2 1.2 0.5 0.3 0.4 0.5 0.9 0.5 1.5z"/>
<path d="m269 70.3c-0.2-0.5-0.5-0.9-0.9-1.1-0.4-0.3-0.9-0.5-1.5-0.6s-1.2-0.2-1.9-0.2h-0.7l3.3-3.6v-0.1s0-0.1-0.1-0.1l-0.8-0.8c-0.1-0.1-0.2-0.1-0.2 0l-4.3 4.6v0.1 1c0 0.1 0.1 0.2 0.2 0.2h2.7c0.6 0 1 0 1.4 0.1s0.7 0.2 0.9 0.4 0.4 0.4 0.5 0.8c0.1 0.3 0.2 0.7 0.2 1.2v1.5h-30v-9.8c0-0.1-0.1-0.2-0.2-0.2h-1.3c-0.1 0-0.2 0.1-0.2 0.2v10.1c0 0.5 0 0.9-0.1 1.2s-0.2 0.6-0.4 0.8-0.4 0.3-0.7 0.4-0.7 0.1-1.2 0.1-0.9-0.1-1.2-0.2-0.5-0.3-0.7-0.5-0.3-0.5-0.4-0.8-0.1-0.8-0.1-1.2v-2.5c0-0.1-0.1-0.2-0.2-0.2h-1.3c-0.1 0-0.2 0.1-0.2 0.2v2.7c0 0.6 0.1 1.1 0.2 1.6s0.4 0.9 0.7 1.2 0.7 0.6 1.2 0.8 1.1 0.3 1.8 0.3c1.2 0 2.1-0.2 2.7-0.7 0.6-0.4 1-1.1 1.2-2h31.6c0.1 0 0.2-0.1 0.2-0.2v-3c0.1-0.6 0-1.2-0.2-1.7z"/>
<path d="m50.5 67.3c0.3 0 0.5-0.1 0.7-0.3s0.3-0.4 0.3-0.7-0.1-0.5-0.3-0.7c-0.4-0.4-1-0.4-1.4 0-0.2 0.2-0.3 0.4-0.3 0.7s0.1 0.5 0.3 0.7 0.4 0.3 0.7 0.3z"/>
<path d="m169.7 67.3c0.3 0 0.5-0.1 0.7-0.3s0.3-0.4 0.3-0.7-0.1-0.5-0.3-0.7c-0.4-0.4-1-0.4-1.4 0-0.2 0.2-0.3 0.4-0.3 0.7s0.1 0.5 0.3 0.7 0.5 0.3 0.7 0.3z"/>
<path d="m74.6 66.3c0.3 0 0.5-0.1 0.7-0.3s0.3-0.4 0.3-0.7-0.1-0.5-0.3-0.7c-0.4-0.4-1-0.4-1.4 0-0.2 0.2-0.3 0.4-0.3 0.7s0.1 0.5 0.3 0.7 0.4 0.3 0.7 0.3z"/>
<path d="m74.9 67.2c0 0.3 0.1 0.5 0.3 0.7s0.4 0.3 0.7 0.3 0.5-0.1 0.7-0.3 0.3-0.4 0.3-0.7-0.1-0.5-0.3-0.7c-0.4-0.4-1-0.4-1.4 0-0.2 0.2-0.3 0.5-0.3 0.7z"/>
<path d="m73.4 68.2c0.3 0 0.5-0.1 0.7-0.3s0.3-0.4 0.3-0.7-0.1-0.5-0.3-0.7c-0.4-0.4-1-0.4-1.4 0-0.2 0.2-0.3 0.4-0.3 0.7s0.1 0.5 0.3 0.7 0.4 0.3 0.7 0.3z"/>
<path d="m123.8 66.3c0 0.3 0.1 0.5 0.3 0.7s0.4 0.3 0.7 0.3 0.5-0.1 0.7-0.3 0.3-0.4 0.3-0.7-0.1-0.5-0.3-0.7c-0.4-0.4-1-0.4-1.4 0-0.2 0.2-0.3 0.5-0.3 0.7z"/>
<path d="m122.3 67.3c0.3 0 0.5-0.1 0.7-0.3s0.3-0.4 0.3-0.7-0.1-0.5-0.3-0.7c-0.4-0.4-1-0.4-1.4 0-0.2 0.2-0.3 0.4-0.3 0.7s0.1 0.5 0.3 0.7 0.4 0.3 0.7 0.3z"/>
<path d="m137.3 67.2c0 0.3 0.1 0.5 0.3 0.7s0.4 0.3 0.7 0.3 0.5-0.1 0.7-0.3 0.3-0.4 0.3-0.7-0.1-0.5-0.3-0.7c-0.4-0.4-1-0.4-1.4 0-0.2 0.2-0.3 0.5-0.3 0.7z"/>
<path d="m135.9 68.2c0.3 0 0.5-0.1 0.7-0.3s0.3-0.4 0.3-0.7-0.1-0.5-0.3-0.7c-0.4-0.4-1-0.4-1.4 0-0.2 0.2-0.3 0.4-0.3 0.7s0.1 0.5 0.3 0.7c0.1 0.2 0.4 0.3 0.7 0.3z"/>
</svg>
