<svg xmlns="http://www.w3.org/2000/svg" viewBox="0 0 33 28.28"><defs><style>.a{fill:none;stroke:#000;stroke-linecap:round;stroke-linejoin:round;}.b{opacity:0.9;}</style></defs><title>m-coin</title><path class="a" d="M23,29.64A14.75,14.75,0,0,0,25.3,3.7a14.52,14.52,0,0,0-2.6-1.34" transform="translate(0.5 -1.86)"/><path class="a" d="M9,29.64A14.75,14.75,0,0,1,6.7,3.7,14.52,14.52,0,0,1,9.3,2.36" transform="translate(0.5 -1.86)"/><g class="b"><path class="a" d="M10.61,8c-.87,0-1.23.64-1.31,1.51,0,0,0,11.47,0,11.51.08.87.44,1.51,1.31,1.51s1.29-.75,1.29-1.67V9.67c0-.92-.37-1.67-1.29-1.67" transform="translate(0.5 -1.86)"/><path class="a" d="M15.71,8c-.87,0-1.23.64-1.31,1.51,0,0,0,9.32,0,9.36.08.86.44,1.51,1.31,1.51S17,19.63,17,18.7v-9C17,8.75,16.63,8,15.71,8" transform="translate(0.5 -1.86)"/><path class="a" d="M21,8c-.87,0-1.23.64-1.31,1.51,0,0,0,15,0,15.07.08.86.44,1.51,1.31,1.51s1.29-.75,1.29-1.68V9.67C22.25,8.75,21.88,8,21,8" transform="translate(0.5 -1.86)"/></g></svg>