<svg version="1.1" id="armap" xmlns:inkscape="http://www.inkscape.org/namespaces/inkscape" xmlns:sodipodi="http://sodipodi.sourceforge.net/DTD/sodipodi-0.dtd" xmlns:svg="http://www.w3.org/2000/svg" xmlns="http://www.w3.org/2000/svg" viewBox="52.409 46.173 741.286 317.619">
<path id="ly" fill="#800000" stroke="#FFFFFF" stroke-width="1" stroke-miterlimit="3.9745" d="M308.789,127.143,c-1.237-1.045,1.413-2.276,2.098-2.587c2.062-0.939,3.174-1.478,4.423-3.465c1.004-1.597,2.011-2.376,1.619-4.434,c-0.338-1.774-1.195-3.562-1.01-5.413c0.254-2.538,3.394-1.888,3.896-3.708c0.54-1.961,2.17-2.972,3.841-3.752,c1.281-0.598,5.442-1.712,5.476-3.45c0.017-0.87-0.853-1.409-0.76-2.333c0.167-1.692,0.234-3.392,0.405-5.084,c1.661,1.135,3.892,1.708,5.677,2.785c1.874,1.13,4.001,1.514,6.181,1.28c2.205-0.237,3.828-1.607,6.097-0.803,c2.021,0.718,4.16,0.792,6.127,1.614c1.75,0.732,3.163,2.055,4.929,2.733c1.545,0.594,3.631-0.028,5.009,0.906,c1.623,1.101,1.927,2.99,2.238,4.758c0.4,2.262,1.305,4.065,3.102,5.584c3.245,2.744,7.254,2.101,11.157,2.796,c3.919,0.698,9.496,2.444,12.635,4.938c2.509,1.995,4.83,5.363,8.417,5.046c4.145-0.367,8.576-3.952,9.504-8.035,c0.429-1.885-0.871-3.352-1.46-5.05c-0.649-1.872-1.126-4.024-0.472-5.963c1.201-3.556,7.168-7.966,10.952-8.091,c1.958-0.064,3.103-1.455,4.914-1.591c1.849-0.139,3.82-0.171,5.624,0.262c2.11,0.506,3.951,1.507,5.952,2.276,c2.373,0.912,1.744,1.228,1.861,3.266c0.093,1.651,2.81,2,4.021,2.088c2.352,0.174,3.873,1.219,6.047,1.837,c2.158,0.614,4.423-0.096,6.612,0.298c1.241,0.222,3.113,2.65,2.671,3.926c-0.466,1.347-2.14,1.689-2.373,3.205,c-0.322,2.093,1.04,3.645,1.415,5.592c0.422,2.19-1.018,4.131-1.775,6.035c-0.806,2.02,1.304,4.419,1.654,6.51,c0.596,3.563,1.243,6.932,1.471,10.586l2.292,94.92c-3.204,0-6.409,0-9.613,0c0.088,1.814,0.019,3.635,0.18,5.447l-76.665-42.568,l-17.387,8.173c-1.473,0.395-3.277-1.963-4.136-2.802c-3.589-3.509-7.483-4.227-12.263-5.292c-1.706-0.381-3.938-0.575-5.459-1.5,c-1.205-0.734-1.774-2.803-2.273-4.001c-1.463-3.519-3.246-4.477-6.758-5.773c-1.165-0.43-2.28-1.401-3.557-1.369,c-1.249,0.032-2.598,1.392-3.77,0.149c-0.952-1.009-2.598-3.601-2.622-4.997c-0.051-2.92-0.339-3.987-1.977-6.473,c-1.261-1.917-5.453-5.321-3.648-7.872c2.082-2.943,5.267-1.817,3.901-6.644c-0.682-2.415-1.173-4.27-0.33-6.72,c0.723-2.099,1.15-3.832,0.36-6.001c-0.831-2.282-0.186-4.567,0.022-6.886c0.247-2.749-0.172-5.521-1.103-8.118,C311.357,131.153,310.197,129.056,308.789,127.143"/>
<g id="ye" transform="matrix(4.1453484,0,0,4.0668378,-4831.9096,-1805.3352)"><path id="path2592" fill="#800080" stroke="#FFFFFF" stroke-width="0.2" stroke-miterlimit="3.9745" d="M1342.531,510.998,c-0.752-0.028-0.327-1.569-1.073-1.657c0.334-0.532-0.906-2.181-1.12-2.762l-0.871-2.012c-2.209,0.434-4.428,0.91-6.602,1.203,c-1.814,0.56-2.729,1.461-3.139,2.443c-0.378,0.566-0.581,1.994-1.488,1.939c-0.618-0.037-0.55-0.963-1.144-0.893,c-0.749,0.088-1.361,0.074-2.12-0.032c-0.431-0.06-0.872-0.367-1.294-0.367c-0.467,0-0.932,0.045-1.397,0.089,c-0.57,0.054-1.052,0.31-1.642,0.277c-0.325-0.018-0.446-0.38-0.777-0.421c-0.318-0.04-0.562,0.175-0.695,0.443,c-0.146,0.293-0.192,0.648-0.137,0.97c0.035,0.208,0.327,0.415,0.169,0.629c-0.15,0.203-0.269,0.411-0.424,0.621,c-0.083,0.115-0.186,0.206-0.311,0.273c-0.298,0.149-0.146,0.262-0.085,0.589c0.097,0.517-0.098,0.757-0.19,1.228,c-0.085,0.436,0.281,0.815,0.239,1.249c-0.082-0.074-0.527-0.086-0.453,0.087c-0.016-0.036,0.448,0.225,0.448,0.224,c0.248,0.265,0.342,0.54,0.426,0.887c0.167,0.681,0.18,1.44,0.394,2.102c0.088,0.272,0.306,0.475,0.409,0.741,c0.124,0.32,0.007,0.666,0.001,0.993c-0.013,0.647,0.77,1.192,0.558,1.849c0.286,0.022,0.478-0.138,0.767-0.023,c0.308,0.123,0.519,0.224,0.858,0.157c0.699-0.139,1.01-0.627,1.739-0.245c-0.038-0.198,0.174-0.4,0.245-0.111,c0.121-0.133,0.191-0.287,0.288-0.434c0.154-0.233,0.403-0.228,0.609-0.384c0.459-0.346,0.511-0.696,1.143-0.841,c0.589-0.135,1.214-0.161,1.815-0.106c0.354,0.032,0.948-0.374,1.303-0.474c0.529-0.15,0.791-0.608,1.257-0.865,c0.143-0.079,0.344-0.258,0.5-0.304c0.171,0.005,0.333,0.046,0.489,0.121c0.175,0.008,0.346-0.013,0.513-0.063,c1.125-0.181,1.378-1.345,2.389-1.841c0.47-0.23,0.885-0.289,1.387-0.376c0.619-0.108,1.131-0.523,1.74-0.668,c0.423-0.101,0.852-0.181,1.262-0.329c0.41-0.148,0.556-0.475,0.903-0.652c0.288-0.147,0.908-0.129,0.997-0.519,c0.102-0.453-0.212-0.864-0.048-1.326C1340.697,511.471,1341.836,511.508,1342.531,510.998"/></g>
<path id="dz" fill="#D43F00" stroke="#FFFFFF" stroke-width="1" stroke-miterlimit="3.9745" d="M137.135,157.101l0.655-13.708,c-0.605-3.686,5.155-4.902,7.229-6.756c1.028-0.919,2.709-2.796,4.292-2.7c1.377,0.084,1.696-1.952,3.506-2.296,c2.947-0.561,4.459,2.243,6.231-1.588c0.55-1.187,2.386-0.69,3.441-0.826c1.9-0.247,3.813-0.5,5.606-1.151,c3.601-1.306,3.75-5.101,6.82-6.691c1.266-0.657,2.923-0.73,4.258-1.214c1.644-0.598,2.723-2.406,4.418-2.74,c0.621-0.122,3.961-0.389,2.595-2.116c-0.883-1.116-2.287-1.522-0.475-3.148c-2.592-0.699-0.252-3.364,1.65-3.208,c2.517,0.207,4.837-0.673,5.729-2.985c1.709-4.427,13.357-0.505,16.68-1.343c-3.81-1.687,2.782-3.747,0.712-5.312,c-0.978-0.739-2.072-1.392-2.866-2.338c-0.92-1.093-0.44-2.66-1.344-3.999c-0.944-1.4-0.421-2.552-0.148-3.945,c0.256-1.306-0.771-1.322-0.628-2.589c0.135-1.184,0.117-2.61,0.132-3.789c0.022-1.583-1.053-2.854,0.545-4.082,c-1.662-0.666-0.989-1.574-1.229-2.793c-0.32-1.624-3.191-2.151-3.819-3.822c3.078-0.008,4.394-0.741,7.009-2.052,c1.139-0.571,1.855-0.573,2.543-1.75c0.608-1.042,1.066-1.917,2.196-2.51c0.637-0.335,1.873-1.309,2.546-0.787,c0.874,0.677,1.977-0.5,2.558-1.021c1.509-1.353,3.581,2.053,5.123-1.059c2.068-4.17,9.194-5.974,13.369-6.446,c2.972-0.335,5.974-1.137,8.968-0.939c2.234,0.148,3.772-2.646,5.71-1.571c0.843,0.468,0.652,0.206,0.973-0.315,c0.07-0.113,3.42-0.065,3.918-0.259c2.895-1.126,5.817-0.701,8.86-0.785c2.536-0.069,3.139,0.446,5.069,1.875,c2.466,1.825,3.322-0.874,5.461-1.131c0.688-0.082,4.955-0.264,4.721-1.503c-0.421-2.232,2.685-0.857,3.424-0.371,c1.543,1.015,3.866,1.528,5.448,0.287c0.869-0.682,0.302-1.57,1.956-1.165c1.175,0.288,2.096,1.135,3.374,1.068,c-1.082,1.753,1.602,1.14,2.45,0.923c1.692-0.433,3.521-0.028,5.146-0.561c0.122,2.262-2.801,3.37-4.074,4.812,c3.469,0.734,0.141,5.519,0.842,7.711c1.217,3.809,0.709,6.688-0.109,10.445c-0.674,3.091-4.181,5.5-6.524,7.528,c-1.366,1.183-0.702,4.272,0.096,5.582c1.291,2.12,0.703,4.43,3.362,5.421c3.631,1.352,2.565,5.864,5.491,8.013,c1.357,0.998,2.959,1.719,4.108,2.971c1.552,1.693,1.78,4.469,2.141,6.617c0.746,4.438,2.892,9.37,2.892,13.844,c0,1.208-2.588,0.746-0.919,2.93c1.616,2.117,2.953,4.606,3.487,7.21c1.838,8.965-0.863,8.91,0.514,13.507,c0.657,2.193,0.692,3.796-0.177,5.931c-0.98,2.41-0.086,4.662,0.447,7.066c0.805,3.635-0.844,3.693-3.477,5.645,c-3.001,2.227,1.988,6.551,3.29,8.516c2.435,3.671,0.971,8.03,4.208,11.458c1.242,1.316,2.672-0.262,3.998-0.164,c1.679,0.125,3.5,1.367,5.075,1.928c3.597,1.281,4.805,4.242,6.131,7.593c0.63,1.587,1.265,1.779-0.488,2.755,c-18.242,11.415-36.643,22.835-52.188,37.682c-0.894,1.277-3.787,4.469-6.033,5.687c-1.705,0.925-4.213,1.009-6.092,1.391,c-2.554,0.519-5.114,1.011-7.665,1.541c-1.28,0.267-12.498,4.048-12.016,0.152c0.17-1.373,1.169-1.905,1.032-3.426,c-0.053-0.584,0.125-3.65-0.494-3.954c-1.886-0.925-4.24-1.349-6.321-1.741c-1.025-0.194-2.403-2.753-3.187-2.564,c-4.495,1.083-5.202-3.312-6.01-3.97c-0.955-0.776-2.602-0.847-3.476-1.499c-0.983-0.732-0.137-2.552-0.728-3.536,c-0.743-1.237-2.033-2.313-3.242-3.016c-2.072-1.203-4.013-2.632-5.911-4.078c-4.717-3.592-9.351-7.292-14.046-10.912,c-18.106-13.965-36.188-27.879-55.133-40.747C146.238,163.143,141.695,160.111,137.135,157.101"/>
<path id="jo" fill="#008080" stroke="#FFFFFF" stroke-width="1" stroke-miterlimit="3.9745" d="M550.401,134.496,c-0.178-3.043,1.072-5.942,1.102-8.968c0.033-3.479,1.617-6.059,2.045-9.37c0.18-1.379-0.227-2.787-0.115-4.188,c0.105-1.324,0.555-2.626,0.605-3.917c0.102-2.703-0.275-5.95-0.377-8.679c-0.084-2.316,2.861-1.604,4.207-0.691,c2.217,1.503,4.221,3.78,7.201,3.205c3.002-0.58,5.764-3.349,8.244-4.972c3.172-2.073,6.34-4.365,9.668-6.179,c1.027,3.228,2.373,6.343,3.508,9.533c-1.143,0.119-0.396,1.65,0.34,1.836c1.168,0.294,2.639,0.114,0.752,2.057,c-5.924,3.552-11.855,5.435-18.975,7.177l10.615,10.928c-0.955,0.46-3.48,0.404-4.16,1.244c-0.781,0.966,0.104,2.916-0.732,3.882,c-1.4,1.62-4.941,0.24-6.758,1.942c-2.072,1.942-2.752,5.592-5.713,6.736C559.178,137.107,553.116,135.186,550.401,134.496"/>
<g id="ae" transform="matrix(4.1453484,0,0,4.0668378,-4831.9096,-1805.3352)"><path id="path2704" fill="#B9B9B9" stroke="#FFFFFF" stroke-width="0.2" stroke-miterlimit="3.9745" d="M1342.643,491.029,c0.155,0.01,0.274-0.049,0.357-0.179c-0.202-0.167-0.458-0.128-0.579,0.112C1342.494,490.984,1342.568,491.006,1342.643,491.029"/><path id="path2784" fill="#B9B9B9" stroke="#FFFFFF" stroke-width="0.2" stroke-miterlimit="3.9745" d="M1337.487,490.627,c0.152-0.1,0.211-0.041,0.176,0.179c0.073-0.069,0.148-0.136,0.223-0.201c0.145,0.211,0.016,0.517,0.18,0.714,c0.158,0.191,0.524,0.147,0.738,0.134c0.278-0.016,0.513-0.06,0.727-0.253c0.098-0.087,0.21-0.343,0.343-0.372,c0.144-0.032,0.501,0.184,0.678,0.188c0.289,0.007,0.578,0.04,0.866,0.03c0.785-0.028,1.327,0.334,2.096-0.128,c-0.07-0.108-0.144-0.212-0.223-0.313c0.242-0.091,0.209,0.2,0.4,0.179c0.278-0.031,0.515-0.367,0.628-0.59,c0.309-0.607,0.348-0.953,0.889-1.404c0.526-0.439,0.741-1.232,1.238-1.642c0.55-0.454,0.881-0.575,1.04-1.321,c0.401,0.021,0.228,0.601,0.231,0.846c0.005,0.463,0.508,0.229,0.569,0.743c0.06,0.516,0.413,1.191,0.007,1.591,c-0.867,0.853-0.588,0.256-0.723-0.11c-0.132-0.357-0.405,0.297-0.363,0.517c0.031,0.167-0.045,0.168-0.02,0.347,c0.028,0.192,0.152,0.476,0.154,0.701c0.007,0.625,0.633,0.343,0.381,0.76c-0.2,0.332-0.855,0.04-1.108,0.342,c0.583,0.325-0.283,1.849-0.395,2.786c0.04,0.613-0.273,0.753-0.807,0.628c-0.657-0.154-1.337-0.216-2.004-0.315,c-0.7-0.104-1.399-0.206-2.101-0.294c-0.516-0.064-1.134,0.038-1.479-0.421c-0.351-0.466-0.686-0.938-1.054-1.392,c-0.258-0.317-0.522-0.629-0.781-0.944C1337.73,491.294,1337.688,490.965,1337.487,490.627"/></g>
<path id="sd" inkscape:connector-curvature="0" fill="#D43F00" stroke="#FFFFFF" stroke-width="1" stroke-miterlimit="3.97" d="M429.922,315.155c0.65-1.541,0.906-2.836,2.357-3.84c1.358-0.941,2.461-1.629,1.577-3.264c-2.323-4.292-0.231-5.154,3.006-7.695,c-0.873-0.819-2.326-4.28-0.905-5.02c2.259-1.176,2.536-3.295,4.095-5.241c1.945-2.431-1.332-4.718,1.779-6.229,c1.334-0.647,2.589,0.104,3.897-0.57c1.588-0.813,3.246-0.217,4.836,0.268l-0.926-46.936h9.613,c-0.121-7.264-0.387-14.642-0.637-21.902c12.413,0,24.999,0.114,37.411,0.114h18.275c2.385,0,4.217,0.404,5.627-1.813,c1.424-2.242,1.932,0.848,0.963,1.722c11.076,1.854,6.471-14.278,16.748-16.893c2.316-0.39,14.777,12.77,15.525,10.683,c0.389-1.083,0.969-3.438,2.783-2.505c1.385,0.711,3.676-2.681,4.541-3.541c0.656,2.798,2.598,3.761,5,4.993,c2.15,1.102,3.467,3.772,5.523,5.184c2.729,1.87,1.461,2.987,2.342,5.892c0.73,2.404,3.762,4.036,3.883,6.627,c-0.443-1.972-2.252-1.068-1.357,0.932c0.646,1.445,1.193,3.263,0.977,4.857c-0.484,3.6,0.637,6.9,0.83,10.562,c0.135,2.571,1.064,8.505,4.188,9.025c1.805,0.302,5.178,5.822,6.379,4.764c0.084,1.554,3.018,1.365,3.232,3.064,c-0.346,0.369-1.822,2.871-2.404,3.801c-0.768,1.22-3.938,2.335-5.332,2.854c-2.521,0.937-2.188,1.176-2.838,3.42,c-0.334,1.155-2.752,0.202-3.623,0.707c-1.199,0.693-1.004,3.322-1.246,4.603c-0.236,1.257,0.457,2.255,0.172,3.53,c-0.262,1.172-0.855,2.402-1.277,3.524c-1.086,2.886-1.475,6.065-2.748,8.406c-0.91,1.671-0.137,4.677-0.014,7.136,c0.115,2.293,0.65,5.902-0.061,9.176c-0.49,2.266-1.908,4.012-1.967,6.393c-0.021,0.843,0.201,4.438-1.021,4.605,c-1.838,0.252-3.377-0.6-4.566,1.25c-1.164,1.814-1.904,5.809-3.752,7.001c-1.92,1.24-0.592,4.79-2.355,6.833,c-0.725,0.838,1.525,0.795,0,3.912c-0.605,1.235-0.971,1.917-1.752,2.76c0.039-1.533-1.855-2.683-2.965-1.307,c-1.463,1.812-1.25,3.316-1.168,5.531c0.074,1.971-0.82,3.287-1.426,5.115c-0.75,2.254-0.734,2.617-0.549,4.957,c0,0-0.775-0.165-1.17-0.191c-0.486-0.031-1.1,0.373-1.459,0.045c-0.174-0.159-0.055-0.471-0.043-0.707,c0.016-0.387,0.045-0.785,0.176-1.148c0.146-0.404,0.527-0.697,0.662-1.105c0.141-0.422,0.119-0.882,0.133-1.326,c0.023-0.752,0.33-1.629-0.088-2.254c-0.217-0.322-0.736-0.271-1.061-0.486c-0.582-0.385-1.07-0.902-1.547-1.414,c-0.906-0.975-1.342-2.438-2.475-3.138c-0.436-0.269-1.121,0.03-1.502-0.31c-0.35-0.309-0.355-0.867-0.443-1.326,c-0.156-0.826-0.023-1.685-0.133-2.518c-0.213-1.643-0.846-3.215-1.016-4.861c-0.037-0.367-0.064-0.742,0-1.105,c0.291-1.666,1.432-3.107,1.723-4.773c0.031-0.174,0-0.529,0-0.529h-4.771l-1.061,0.043l0.617,2.829l-6.318-0.222,c0,0,0.648,0.617,0.973,0.929c0.518,0.499,1.299,0.827,1.545,1.503c0.26,0.709-0.174,1.5-0.221,2.254,c-0.066,1.088-0.484,2.254-0.088,3.27c0.246,0.631,1.434,0.781,1.414,1.459c-0.035,1.261-1.705,1.908-2.783,2.562,c-0.482,0.293-1.111,0.281-1.592,0.575c-0.258,0.157-0.465,0.39-0.662,0.618c-1.607,1.857-2.707,4.104-4.199,6.055,c-0.666,0.872-1.146,2.015-2.121,2.52c-0.617,0.32-1.383,0.181-2.078,0.177c-0.916-0.005-1.883,0.063-2.738-0.265,c-1.111-0.427-1.859-1.5-2.873-2.121c-0.395-0.242-0.83-0.406-1.238-0.619c-1.443-0.755-2.658-2.292-4.287-2.343,c-1.771-0.056-4.012,0.675-4.816,2.254c-0.389,0.763,0.445,1.665,0.486,2.519c0.014,0.311,0.145,0.723-0.088,0.929,c-1.15,1.015-3.176-0.706-4.598-0.133c-0.936,0.378-1.41,1.448-2.121,2.165c-0.336,0.342-0.574,0.832-1.016,1.018,c-1.998,0.835-4.471,0.81-6.496,0.044c-0.352-0.134-0.598-0.466-0.84-0.751c-0.443-0.52-0.5-1.408-1.105-1.725,c-0.994-0.518-2.238,0.111-3.359,0.133c-1.752,0.035-3.559-0.426-5.258,0c-0.908,0.229-1.549,1.191-2.477,1.326,c-1.309,0.191-2.875,0.057-3.889-0.795c-0.834-0.703-0.697-2.078-1.193-3.051c-0.596-1.168-1.658-2.086-2.121-3.314,c-0.273-0.725,0.262-1.826-0.354-2.297c-0.752-0.578-1.883,0.229-2.829,0.309c-1.47,0.125-3.017-0.193-4.419,0.266,c-0.749,0.245-1.673,0.559-1.989,1.281c-0.239,0.549,0.417,1.18,0.31,1.768c-0.067,0.371-0.322,0.692-0.574,0.973,c-0.823,0.916-2.532,1.055-2.961,2.209c-0.331,0.893,0.934,1.888,0.618,2.785c-0.256,0.731-1.462,0.766-1.812,1.458,c-0.644,1.276,0.57,3.067-0.177,4.286c-0.627,1.024-2.318,0.891-3.138,1.769c-0.233,0.251-0.442,0.929-0.442,0.929l-10.827,1.502,l-20.064-37.653L429.922,315.155z"/>
<path id="iq" fill="#D43F00" stroke="#FFFFFF" stroke-width="1" stroke-miterlimit="3.9745" d="M582.979,90.739,c5.607-2.698,10.533-5.331,15.52-8.692c1.586-1.068,3.297-2.391,4.209-3.755c1.75-2.621,0.354-6.085,0.703-7.065,c0.037-4.074,1.156-4.579,0.918-6.536c-0.266-2.188-3.439-6.03-0.99-7.903c1.402-1.071,3.143-1.026,4.59-2.211,c1.215-0.995,4.482-3.599,3.514-4.65c-0.443-0.48,0.445,0.045,1.109-0.153c1.098-0.325,1.455-1.337,1.934-2.196,c0.469-0.842,5.357-0.063,6.428,0.341c0.85,0.32,1.705,0.622,2.598,0.802c1.469,0.298,1.908-0.635,3.186-0.867,c3.223-0.586,1.023,3.555,2.85,3.393c1.332-0.118,1.859-2.095,3.324-2.041c1.861,0.068,1.795,3.168,2.611,4.241,c0.387,0.51,0.891,0.42,1.213,1.058c0.395,0.779-0.129,1.888,0.541,2.529c1.408,1.351,4.508,2.683,3.242,5.016,c2.092-0.458,2.951,1.383,3.883,1.729c1.783,0.662,1.809-0.725,5.654,0.272c-0.336,1.417-2.014,1.089-2.617,2.185,c-1.02,1.851,1.863,3.227,2.029,4.909c0.217,2.221-2.549-0.221-2.469,2.03c0.033,1.014-1.084,0.843-1.369,1.797,c-0.322,1.079,0.219,1.883,0.408,2.878c-0.699-0.004-1.346-0.186-1.941-0.546c-0.156,0.913-0.805,1.607-0.07,2.363,c0.801,0.823,1.402,1.175,0.959,2.524c-0.42,1.288-1.596,1.58-0.467,2.582c0.969,0.857,1.818,1.883,2.906,2.6,c1.086,0.716,6.746,5.475,3.521,6.364c1.258,0.301,0.939,1.737,1.977,1.5c1.49-0.34,2.324,0.59,3.518,1.252,c2.195,1.215,3.596,3.976,6.633,4.208c1.439,0.11,4.094,4.711,5.363,5.813c1.924,1.667,0.744,3.39,0.262,5.683,c-0.23,1.096-0.174,4.207,1.482,4.323c0.58,0.042,1.553-0.077,2.008,0.492c0.586,0.73,0.584,2.202,0.451,3.094,c-0.299,1.982,0.756,2.563,3.014,4.159c1.139,0.805,0.881,3.303,2.496,3.686c-0.834,0.062-5.809-0.633-5.918-1.526,c0.686,1.586-2.158,0.314-3.271,0.266c-1.607-0.068-3.686,0.304-4.414,1.822c-1.578,3.29-1.295,9.843-6.65,9.242l-13.518-1.517,c-4.525-0.635-4.695-2.968-8.834-5.52c-11.445-8.259-22.408-18.156-35.225-23.664c-4.604-1.979-8.693-1.811-12.855-2.711,c2.609-2.773-0.533-1.551-1.314-2.731c-0.195-0.293-0.355-0.877-0.188-1.172c0.654-0.736,0.006-1.485-0.402-2.56,C584.61,95.498,583.749,93.16,582.979,90.739"/>
<!--<path id="eh" fill="#008080" stroke="#FFFFFF" stroke-width="2.053" stroke-miterlimit="3.9745" d="M53.955,228.276,c-1.522-2.63,0.735-7.093,1.198-9.82c0.317-1.865,0.807-3.614,1.825-5.24c1.233-1.972,3.488-1.976,4.245-4.441,c0.388-1.263,0.364-3.209,1.644-3.963c0.726-0.426,0.297-1.857,0.864-2.673c0.906-1.305,4.555-5.761,3.54-7.455,c-0.683,0.431-1.257,1.033-1.658,1.725c1.595-3.442,5.633-5.976,8.286-8.632c3.533-3.539,2.851-7.197,4.57-11.538,c1.408-3.549,2.499-7.467,6.016-9.433c3.876-2.167,5.984-3.933,7.589-8.122c1.021-2.663,2.952-6.442,2.282-5.667l43.054-0.341,l-0.613,18.403l-31.946,0.361l-1.47,27.529c-1.901,1.346-4.602,1.493-6.588,2.705c-2.988,1.822-4.195,3.771-3.958,7.234,c0.138,2.012,1.712,12.497-0.467,13.102H56.831C54.104,222.012,53.668,226.382,53.955,228.276"/>-->
<path id="sy" fill="#800000" stroke="#FFFFFF" stroke-width="1" stroke-miterlimit="3.9745" d="M553.458,91.828,c0.807-1.002,2.359-3.086,3.791-3.359c-2.188-2.002,0.939-3.262,2.775-2.723c-1.613-1.924,0.791-2.158,1.348-3.997,c0.309-1.019-0.982-3.08-2.174-3.296c-1.357-0.247,1.229-2.158-0.875-1.579c-3.506,0.964-3.764-1.229-3.926-3.008,c-0.148-1.617,0.918-4.571-0.562-5.761c-1.186-0.955-0.264-3.492-0.309-4.888c-0.035-1.048,1.951,0.599,2.332,0.784,c0.031,0.139,0.486-0.93,1.33-1.431c1.041-0.617,0.338-2.006,0.52-2.971c0.906,0.214,1.869-0.04,2.777-0.089,c-0.725-1.459-1.199-1.837-1.406-3.592c-0.076-0.639-0.018-2.443,0.895-2.667c0.688-0.169,1.377-0.175,1.924,0.107,c1.473,0.76,1.762,2.051,3.279,1.819c1.852-0.284,3.08-0.499,4.848-1.248c1.812-0.768,3.139-1.835,5.174-1.548,c1.502,0.21,2.385,1.258,3.656,1.841c1.447,0.666,4.281,0.389,5.85,0.256c4.002-0.338,6.859-2.581,10.482-4.002,c3.664-1.437,7.666,0.579,11.426-0.893c1.918-0.751,4.736-3.628,5.016,0.871c0.064,1.048-2.539,3.172-3.291,3.901,c-1.359,1.322-2.879,1.229-4.412,2.112c-3.289,1.895,0.158,5.998,0.416,8.263c0.152,1.339-0.672,2.982-0.771,4.366,c-0.145,2.062,0,5.396-0.01,7.438c-0.025,4.775-20.521,13.91-30.924,20.896c-2.832,1.902-7.414,6.477-11.098,3.948,c-1.34-0.919-2.305-1.626-3.688-2.558c-2.398-1.618-3.477-0.407-3.875-0.463C553.891,98.06,554.842,92.42,553.458,91.828"/>
<g id="om" transform="matrix(4.1453484,0,0,4.0668378,-4831.9096,-1805.3352)"><path id="path4696" fill="#008080" stroke="#FFFFFF" stroke-width="0.2" stroke-miterlimit="3.9745" d="M1347.486,485.828,c0.064-0.18,0.146-0.35,0.245-0.513c0.211,0.236,0.414-0.085,0.313-0.291c0.181,0.098,0.545,0.714,0.09,0.603,c0.292,0.203,0.079,1.448-0.244,1.39C1347.452,486.939,1348.046,485.856,1347.486,485.828"/><path id="path4786" fill="#008080" stroke="#FFFFFF" stroke-width="0.2" stroke-miterlimit="3.9745" d="M1339.449,504.523,c3.264-0.75,5.307-1.537,6.785-2.339c0.605-1.153-0.046,0.663,0.244-0.621c0.236-1.049,0.4-2.096,0.638-3.095,c0.164-0.692,0.55-1.561,0.15-2.22c-0.288-0.474-0.872-0.879-1.053-1.402c-0.229-0.658,1.014-2.922,0.403-3.281,c0.274-0.327,0.813-0.044,1.051-0.357c0.261-0.343-0.159-0.229-0.245-0.402c-0.228-0.461-0.41-1.472-0.103-1.94,c0.143-0.218,0.435,0.117,0.39,0.29c-0.142,0.538,0.402-0.045,0.488-0.127c0.266-0.254,0.263-0.211,0.429,0.147,c0.276,0.595,0.636,1.157,1.074,1.644c0.693,0.77,1.664,1.047,2.652,1.246c0.462,0.093,0.855,0.275,1.325,0.327,c0.63,0.071,0.974,0.837,1.334,1.265c0.291,0.345,0.489,0.762,0.778,1.092c0.302,0.344,0.461,0.358,0.859,0.517,c0.934,0.373-0.122,1.699-0.309,2.247c-0.351,1.035-1.46,1.575-1.761,2.684c-0.071,0.262-0.167,1.018-0.582,0.894,c-0.328-0.098-0.264-0.725-0.684-0.464c-0.501,0.303-0.474,1.393-0.602,1.841c-0.169,0.586,0.022,1.04,0.177,1.607,c0.126,0.464,0.205,0.815-0.358,0.831c-0.905,0.027-1.901,0.294-2.124,1.27c-0.087,0.383-0.157,0.805-0.398,1.129,c-0.3,0.403-0.897,0.381-1.371,0.417c-0.574,0.043-0.804,0.136-1.142,0.588c-0.326,0.438-0.114,0.521-0.141,1.022,c-0.022,0.398-0.428,0.686-0.749,0.842c-0.155,0.075-0.31,0.175-0.467,0.051c-0.273-0.215-0.497-0.156-0.836-0.156,c-0.979,0-1.836,0.95-2.824,0.922c-0.64-0.018-0.352-1.584-1.039-1.659c0.291-0.304-0.419-1.372-0.564-1.64,c-0.505-0.934-1.103-2.172-1.434-3.181"/></g>
<g id="tn" transform="matrix(4.1453484,0,0,4.0668378,-4707.9567,-1622.0245)"><path id="path5410" fill="#000018" stroke="#FFFFFF" stroke-width="0.2" stroke-miterlimit="3.9745" d="M1206.038,419.323,c0.053-0.263,0.3-0.363,0.491-0.508c0.297-0.226,0.322-0.429,0.651-0.679c0.263-0.199,0.461-0.572,0.562-0.903,c0.204-0.663,0.147-1.18,0.18-1.816c0.021-0.401-0.232-0.749-0.178-1.152c0.061-0.457,0.568-1.325-0.164-1.483,c0.263-0.303,0.692-0.459,0.895-0.819c0.075-0.133,0.027-0.361,0.21-0.413c0.2-0.057,0.326-0.001,0.485-0.169,c0.347-0.367,0.708-0.53,1.195-0.669c0.226-0.064,0.536-0.234,0.777-0.138c0.286,0.114,0.001,0.253,0.032,0.468,c0.238,0,0.294-0.118,0.155-0.312c0.436,0.095,0.561,0.029,0.738,0.424c0.078,0.174-0.164,0.191,0.071,0.356,c0.18,0.127,0.209,0.347,0.041,0.492c0.014-0.014,0.2,0.206,0.391,0.127c0.259-0.107,0.478-0.318,0.69-0.497,c0.082-0.07,0.368-0.377,0.502-0.316c0.32,0.146,0.277,0.461,0.132,0.723c-0.278,0.503-1.228,0.986-1.26,1.558,c-0.024,0.43,0.23,0.948,0.619,1.157c0.588,0.317,0.568,0.331,0.708,1.006c0.176,0.849-0.417,1.731-1.069,2.246,c-0.648,0.512-1.64,0.8-0.997,1.794c0.141,0.219,0.33,0.424,0.571,0.534c0.269,0.122,0.378-0.046,0.625-0.011,c0.081,0.011,0.133,0.409,0.182,0.493c0.121,0.205,0.461-0.399,0.646-0.332c0.253,0.092,0.082,0.298,0.158,0.469,c0.106,0.238,0.47,0.453,0.09,0.491c0.2,0.214,0.636-0.021,0.822,0.224c0.156,0.206-0.102,1.004-0.045,1.305,c0.084,0.45,0.413,0.642-0.081,0.937c-0.488,0.292-1.486,0.616-1.776,1.018c-0.166,0.132-0.108,0.513-0.339,0.607,c-0.493,0.2-0.961,0.362-0.766,1.113c0.156,0.6,0.387,1.072,0.04,1.661c-0.406,0.687-0.762,0.949-1.473,1.262,c-0.17-1.121-0.491-2.199-0.711-3.308c-0.228-1.148-0.344-1.809-1.312-2.348c-0.453-0.251-0.656-0.555-0.769-1.057,c-0.1-0.442-0.3-0.755-0.701-0.991c-0.201-0.118-0.394-0.214-0.527-0.425c-0.136-0.216-0.089-0.509-0.226-0.727,C1206.014,420.258,1205.858,419.777,1206.038,419.323"/><path id="path5412" fill="#000018" stroke="#FFFFFF" stroke-width="0.2" stroke-miterlimit="3.9745" d="M1213.559,420.439,c-0.036-0.297-0.242-0.056-0.31-0.201c-0.167-0.355-0.003-0.469,0.296-0.465C1214.202,419.782,1213.792,420.174,1213.559,420.439"/></g>
<path id="eg" inkscape:connector-curvature="0" fill="#800080" stroke="#FFFFFF" stroke-width="1" stroke-miterlimit="3.9745" d="M453.981,127.506c-1.831-2.876,1.94-5.889,1.477-8.839c-0.498-3.167-3.438-5.377,1.208-9.136c0.098,2.308,2.84,1.481,4.261,1.067,c2.598-0.758,4.726,0.087,7.307,0.341c2.824,0.277,5.533,0.894,8.267,1.609c1.154,0.302,1.338,1.536,2.512,1.891,c1.043,0.315,1.836,0.188,2.869,0.081c0.693-0.073,1.016,0.991,1.799,1.15c0.855,0.174,1.732,0.178,2.596,0.262,c2.781,0.27,4.637,1.981,7.244,2.408c2.521,0.414,4.934-1.252,6.742-2.765c0.938-0.785,1.811-1.637,2.672-2.503,c0.736,0.563,1.291,1.144,2.223,0.999c-0.531-0.262-0.416-0.413-1.119-0.363c0.912-0.474,1.822-1.335,2.045-2.36,c1.574,0.923,3.055-0.735,4.627-0.724c-1.057,0.477-2.07,1.069-2.879,1.905c0.279-0.162,6.656-2.053,3.611-2.27,c2.254-0.731,3.717,1.799,5.881,1.498c1.033-0.144,2.008-1.146,3.104-0.77c1.02,0.348,1.5,1.796,2.404,2.359,c-0.916-0.628-1.854-2.007-3.061-2.087c0.357,0.941-0.963,2.72,0.598,3.085c1.695,0.397,0.902,0.81,2,1.816,c0-0.371,3.025-1.624,0.834-2.633c2.332,0.532,3.107,2.643,5.842,2.408c0.887-0.076,3.506-1.682,3.039,0.225,c1.695-1.057,3.598-0.44,5.42-0.979c1.604-0.473,3.209-1.089,4.496-2.185l7.812,20.236c-1.975,2.465-1.533,7.023-2.791,9.943,c-0.734,1.708-0.703,2.771-0.686,4.576c0.018,1.543-1.982,3.036-1.49,4.54c-0.955-0.866-2.232-1.257-3.287-1.98,c-1.338-0.919-2.273-2.258-3.189-3.553c-1.16-1.642-4.555-2.713-4.062-5.179c0.496-2.484-1.945-4.206-3.193-5.957,c-1.727-2.417-2.957-5.232-3.656-8.115c-1.16,1.222-2.393,3.887-1.184,5.282c2.068,2.39,1.854,5.322,3.586,7.791,c1.502,2.139,3.023,4.756,4.9,6.581c0.83,0.807,1.777,1.501,2.533,2.38c0.396,0.46,2.027,3.098,0.061,1.66,c1.592,1.218,0.275,2.769,1.285,3.772c1.354,1.347,2.074,2.774,2.783,4.471c0.348,0.834,0.924,1.549,1.418,2.3,c0.377,0.574-0.373,1.305-0.406,1.866c-0.047,0.75,1.203,1.863,1.543,2.51c0.783,1.48,1.637,2.925,2.428,4.403,c2.594,4.854,5.213,9.623,7.67,14.552c0.961,1.928,2.373,3.308,3.58,5.041c1.123,1.613,3.092,2.112,4.133,3.753,c-0.984,0.051-1.977-0.116-2.863-0.545c-0.516,16.711,23.111,22.363,9.855,21.19c-6.387,0.262-42.881,0.948-47.887,0.234,c0.143-0.493,0.725-1.536,0.365-2.042c-0.902-1.282-1.596,1.042-1.895,1.462c-1.199,1.682-7.191,0.671-9.111,0.671l-51.524-0.109,l-1.837-68.321c-0.192-3.194-0.112-6.544-0.562-9.708C455.941,133.983,455.229,129.959,453.981,127.506"/>
<g id="sa" transform="matrix(4.1453484,0,0,4.0668378,-4831.9096,-1805.3352)"><path id="path3380" fill="#DEAA87" stroke="#FFFFFF" stroke-width="0.2" stroke-miterlimit="3.9745" d="M1318.314,511.734,c0.03-0.281-0.141-0.949-0.395-1.11c-0.129-0.082-0.754-1.395-0.718-0.761c-0.058-1.134-0.844-1.426-1.47-2.194,c-0.237-0.291-0.571-0.711-0.682-1.066c-0.143-0.459-0.402-0.59-0.637-0.963c-0.138-0.219-0.02-0.41-0.179-0.634,c-0.113-0.16-0.302-0.668-0.377-0.873c-0.07-0.192-0.113-0.395-0.203-0.579c-0.083-0.17-0.255-0.193-0.338-0.343,c-0.08-0.143-0.002-0.339-0.112-0.464c-0.111-0.127-0.293-0.145-0.413-0.257c-0.303-0.282-0.654-0.567-0.921-0.881,c-0.325-0.381-0.705-0.222-1.071-0.491c-0.607-0.448-1.012-1.281-1.393-1.918c-0.222-0.371-0.158-0.583-0.177-0.975,c-0.021-0.424-0.327-0.775-0.359-1.204c-0.042-0.563,0.191-1.122,0.079-1.683c-0.051-0.255-0.191-0.472-0.327-0.687,c-0.072-0.113-0.508-0.676-0.016-0.292c-0.108-0.283-0.354-0.286-0.418-0.596c-0.057-0.277-0.193-0.58-0.302-0.841,c-0.299-0.724-0.884-1.217-1.431-1.738c-0.4-0.379-0.796-0.439-1.283-0.573c-0.208-0.057-0.307-0.452-0.368-0.621,c-0.131-0.362-0.384-0.609-0.611-0.911c0.785-0.286-0.308-1.574-0.564-1.885c-0.172-0.209-0.657-0.591-0.636-0.867,c0.036-0.476-0.577-0.751-0.783-1.179c-0.625-1.299-1.612-2.378-2.304-3.653c-0.211-0.388-0.447-0.987-0.912-1.118,c-0.211-0.06-1.043-0.198-1.059,0.192c-0.278-0.254,0.172-0.922,0.25-1.189c0.163-0.56,0.032-1.142,0.124-1.707,c0.116-0.716,0.004-0.27,0.105-0.697c0.534,0.159,2.004,0.553,2.537,0.437c1.059-0.231,1.042-1.77,2.037-1.927,c0.373-0.059,1.289,0.035,1.249-0.468c-0.091-1.147,0.407-0.803,1.102-1.037c-0.906-0.868-1.768-1.773-2.597-2.714,c1.61-0.336,2.678-0.699,4.576-1.713c0.804,0.154,2.237,0.242,3.119,0.65c2.961,1.371,5.401,3.467,7.971,5.423,c0.544,0.415,1.074,0.826,1.582,1.283c0.579,0.52,0.981,0.494,1.744,0.568c0.88,0.085,1.806,0.209,2.686,0.29,c0.323,0.03,0.482-0.135,0.833-0.059c0.474,0.102,0.964,0.16,1.446,0.203c0.511,0.046,0.551,0.64,0.714,1.016,c0.242,0.559,1.055,0.206,1.518,0.247c0.478,0.042,0.54,0.301,0.696,0.692c0.169,0.423,1.009,0.962,0.878,1.437,c-0.043-0.075-0.096-0.142-0.158-0.201c-0.143,0.34,0.2,0.301,0.158,0.602c0.006,0.005,1.436,0.137,0.89,0.557,c0.21,0.066,0.655,1.139,0.868,0.535c-0.143,0.538,1.149,1.143,1.448,1.47c-0.16-0.048-0.278-0.144-0.357-0.289,c0.008,0.593,0.367,0.602,0.495,1.078c0.075,0.279,0.045,0.868-0.361,0.504c0.037,0.316-0.065,0.379,0.222,0.438,c0.044,0.009,0.422,0.826,0.448,0.921c-0.084-0.072-0.165-0.147-0.245-0.223c0.247,0.362,0.688,0.566,0.884,0.967,c0.198,0.406,0.258,0.778,0.496,1.172c0.183,0.303,0.448,0.823,0.826,0.916c0.173,0.042,0.802-0.122,0.711,0.22,c0.067-0.174,0.217-0.237,0.378-0.134c-0.212,0.259-0.403,0.964,0.312,0.781c-0.047,0.012,0.366,0.817,0.406,0.874,c0.824,0.936,1.937,2.582,2.374,2.759c2.717,0.303,3.973,0.451,5.452,0.78c0.193-0.046,0.361-0.162,0.423-0.287,c0.33,0.763,1.079,1.162,1.205,1.657c0.114,0.447,0.082,0.744-0.035,1.204c-0.392,1.54-0.609,4.315-1.177,4.621,c-3.874,2.087-8.722,2.817-13.325,3.58c-0.597,0.211-1.171,0.481-1.716,0.797c-0.82,0.474-1.616,1.899-1.882,2.749,c-0.123,0.393-0.586,0.824-1.018,0.825c-0.452,0.002-0.535-0.733-0.904-0.857c-0.419-0.141-0.728,0.073-1.089,0.029,c-0.56-0.068-1.307,0.02-1.811-0.239c-0.604-0.311-1.049-0.168-1.719-0.167c-0.586,0.001-1.205,0.36-1.789,0.353,c-0.725-0.009-0.831-0.561-1.208-0.462c-0.506,0.133-0.64,0.797-0.668,1.216c-0.028,0.414,0.49,0.655,0.051,0.954,c-0.084,0.058-0.172,0.644-0.803,0.852C1318.281,511.803,1318.317,511.788,1318.314,511.734"/><path id="path5488" fill="#DEAA87" stroke="#FFFFFF" stroke-width="0.2" stroke-miterlimit="3.9745" d="M1332.061,482.502,c0.11-0.167,0.282-0.122,0.403,0C1332.33,482.527,1332.196,482.527,1332.061,482.502"/></g>
<path id="ma" fill="#008080" stroke="#FFFFFF" stroke-width="1" stroke-miterlimit="3.9745" d="M94.568,153.017,c0.445-0.48,1.888-2.727,2.396-2.909c1.818-0.649,3.808-0.733,5.688-1.139c3.49-0.754,7.028-1.836,9.661-4.312,c2.582-2.429,5.27-4.336,7.972-6.587c2.59-2.155,4.568-5.03,6.641-7.646c1.406-1.775,4.636-6.887,1.911-8.824,c-1.055-0.749-1.797-0.774-1.122-2.163c0.669-1.378,0.599-2.756,0.675-4.259c0.21-4.185,1.751-6.052,4.362-9.17,c1.492-1.783,1.082-3.597,1.709-5.647c0.455-1.484,1.698-2.634,2.829-3.644c2.417-2.16,4.332-4.819,7.363-6.163,c3.3-1.464,6.809-2.607,9.963-4.369c6.24-3.486,9.242-11.979,11.605-18.229c0.229-0.604,1.058-3.686,2.009-3.591,c1.167,0.117,2.344-0.347,3.337-0.87c1.256-0.661,1.496,0.975,1.862,1.854c0.706,1.7,1.646,2.855,3.173,3.919,c3.188,2.222,5.833,1.6,9.48,1.171c3.022-0.354,6.867,1.449,8.706-2.035c-0.027,1.135,0.289,1.417,0.45,2.279,c0.172,0.923,1.881,1.389,0.386-0.1c0.808,1.099,2.254,1.66,3.552,1.026c1.322-0.647,2.11,0.686,2.925,1.425,c0.874,0.793,2.434,1.242,2.956,2.36c0.596,1.278-0.695,2.45,1.118,3.177c-0.981,0.755-0.663,2.142-0.477,3.159,c0.295,1.609-0.25,3.023-0.064,4.576c0.15,1.247,0.975,2.042,0.658,3.381c-0.476,2.014-0.242,2.729,0.736,4.5,c0.498,0.901,0.046,1.705,0.544,2.53c0.739,1.228,1.897,1.716,2.988,2.562c2.012,1.56-4.006,4.149-0.788,5.346,c-3.322,0.837-14.97-3.083-16.68,1.343c-0.892,2.311-3.214,3.191-5.729,2.984c-1.902-0.158-4.243,2.509-1.65,3.208,c-2.195,1.97,1.834,3.428,0.873,4.363c-1.097,1.068-3.021,0.682-4.208,1.531c-1.242,0.89-2.604,2.224-4.074,2.722,c-1.112,0.376-2.367,0.343-3.411,0.916c-2.023,1.108-2.838,3.432-4.321,5.059c-1.699,1.865-4.84,2.594-7.311,2.689,c-1.856,0.071-3.853-0.692-4.602,1.478c-0.8,2.315-3.12,0.582-4.977,0.716c-1.31,0.095-2.072,0.736-2.915,1.629,c-0.856,0.908-1.866,0.716-2.933,1.135c-1.231,0.483-1.991,1.679-2.974,2.483c-1.045,0.855-2.339,1.387-3.407,2.236,c-2.083,1.655-3.91,1.896-3.702,4.761c0.207,2.85-0.1,6.008-0.425,8.841C137.19,153.921,98.52,153.017,94.568,153.017"/>
<g id="lb" transform="matrix(4.1453484,0,0,4.0668378,-4707.9567,-1622.0245)"><path id="lb-" fill="#D43F00" stroke="#FFFFFF" stroke-width="0.2" stroke-miterlimit="3.9745" d="M1268.095,421.913,c0.493-0.575,0.477-1.612,0.896-2.258c0.207-0.32-0.036-0.752,0.202-1.061c0.186-0.24,0.694-0.505,0.53-0.878,c0.191,0.04,0.481,0.122,0.664,0.013c0.421-0.251,0.123,0.227,0.186,0.371c-0.008-0.019,0.278,0.088,0.307,0.116,c0.213,0.204,0.093,0.159,0.253,0.454c0.343,0.626-0.751,0.727-0.316,1.256c-0.443-0.132-1.197,0.177-0.67,0.67,c-0.196,0.045-0.864,0.693-0.893,0.893c-0.048-0.026-0.085-0.063-0.111-0.112c-0.073,0.144-0.078,0.315-0.156,0.462,C1268.82,422.151,1268.338,421.717,1268.095,421.913"/><path id="lb." fill="#D43F00" fill-opacity="0" d="M1269.556,421.527c2.394,0,2.394-3.729,0-3.729,C1267.16,417.798,1267.16,421.527,1269.556,421.527"/></g>
<g id="kw" transform="matrix(4.1453484,0,0,4.0668378,-4707.9567,-1622.0245)"><g id="kw-" transform="translate(-29.9017,-45.0745)"><path id="path5440" fill="#008080" stroke="#FFFFFF" stroke-width="0.2" stroke-miterlimit="3.9745" d="M1328.378,475.336,c0.044,0.097-0.528,1.041,0.18,0.971C1329.17,476.246,1328.547,475.543,1328.378,475.336"/><path id="path5486" fill="#008080" stroke="#FFFFFF" stroke-width="0.2" stroke-miterlimit="3.9745" d="M1324.874,477.68,c0.994-0.362,0.532-2.375,1.568-2.566c0.4-0.074,0.972-0.111,1.498,0.323c0.136,0.112,0.486,0.839,0.348,1.016,c-0.295-0.414-0.715,0.288-0.871,0.491c0.453-0.06,0.958,0.116,1.07,0.606c0.136,0.596,0.591,1.126,0.792,1.728,c-0.384-0.22-1.34,0.151-1.717-0.113c-0.294-0.206-0.33-0.653-0.446-0.961C1326.96,477.79,1325.476,477.901,1324.874,477.68"/></g><path id="kw." fill="#008080" fill-opacity="0" d="M1297.294,433.666c2.395,0,2.395-3.729,0-3.729,C1294.899,429.937,1294.899,433.666,1297.294,433.666"/></g>
<g id="qa" transform="matrix(4.1453484,0,0,4.0668378,-4707.9567,-1622.0245)"><path id="qa-" fill="#B9B9B9" stroke="#FFFFFF" stroke-width="0.2" stroke-miterlimit="3.9745" d="M1305.508,442.852,c-0.013-0.121-0.188-0.864,0.155-0.514c-0.019-0.12-0.098-0.788,0.115-0.223c0.017-0.563,0.218-2.049,0.993-1.23,c0.195,0.206,0.568,0.35,0.57,0.672c0.001,0.225-0.11,0.368-0.161,0.573c-0.045,0.178,0.064,0.409,0.081,0.587,c0.017,0.178,0.206,0.181,0.255,0.335c0.082,0.251,0.021,0.478-0.081,0.71c-0.175,0.401-0.118,0.694-0.557,0.825,c-0.365,0.11-0.694,0.4-0.938-0.136C1305.717,443.962,1305.624,443.374,1305.508,442.852"/><path id="qa." fill="#B9B9B9" fill-opacity="0" d="M1306.346,445.088c2.394,0,2.394-3.729,0-3.729,C1303.951,441.36,1303.951,445.088,1306.346,445.088"/></g>
<g id="bh" transform="matrix(4.1453484,0,0,4.0668378,-4707.9567,-1622.0245)"><path id="bh-" fill="red" stroke="red" stroke-width="0.2" stroke-miterlimit="3.9745" d="M1304.615,440.463,c0.071,0.149,0.101,0.304,0.089,0.469c-0.041,0.214,0.218,0.368,0.267,0.558C1305.063,441.254,1305.074,439.973,1304.615,440.463"/><path id="bh." fill="#008080" fill-opacity="0" d="M1304.207,441.822c2.394,0,2.394-3.729,0-3.729,C1301.811,438.093,1301.811,441.822,1304.207,441.822"/></g>
</svg>