<svg xmlns="http://www.w3.org/2000/svg" xmlns:xlink="http://www.w3.org/1999/xlink" viewBox="0 0 200 84"><defs><style>.a{fill:url(#a);}.b{fill:#ff5f00;}.c{fill:#eb001b;}.d{fill:#f79e1b;}.e{fill:#fff;}</style><radialGradient id="a" cx="100.8" cy="-44.73" r="75.15" gradientTransform="translate(0 97.79) scale(0.99 1.25)" gradientUnits="userSpaceOnUse"><stop offset="0.01" stop-color="#e6bfa3"/><stop offset="0.56" stop-color="#e1b08a"/><stop offset="0.8" stop-color="#e1b68a"/><stop offset="1" stop-color="#e4bd95"/></radialGradient></defs><title>master-buy</title><path class="a" d="M4.16,0H195.84A4.46,4.46,0,0,1,200,4.72V79.28A4.46,4.46,0,0,1,195.84,84H4.16A4.46,4.46,0,0,1,0,79.28V4.72A4.46,4.46,0,0,1,4.16,0Z"/><rect class="b" x="83.37" y="12.11" width="33.27" height="59.78"/><path class="c" d="M85.48,42A38,38,0,0,1,100,12.11a38,38,0,1,0,0,59.78A38,38,0,0,1,85.48,42Z"/><path class="d" d="M161.51,42A38,38,0,0,1,100,71.89a38,38,0,0,0,0-59.78A38,38,0,0,1,161.51,42Z"/><path class="e" d="M62,48.4V42.52a3.49,3.49,0,0,0-3.68-3.72A3.61,3.61,0,0,0,55,40.47a3.45,3.45,0,0,0-3.1-1.67,3.1,3.1,0,0,0-2.74,1.39V39h-2V48.4h2.06V43.21a2.19,2.19,0,0,1,2.29-2.49c1.35,0,2,.88,2,2.47V48.4h2.05V43.21a2.21,2.21,0,0,1,2.3-2.49c1.39,0,2,.88,2,2.47V48.4ZM92.44,39H89.11V36.2h-2V39h-1.9V40.9h1.9v4.27c0,2.17.84,3.47,3.25,3.47a4.82,4.82,0,0,0,2.55-.73l-.59-1.74a3.82,3.82,0,0,1-1.8.53c-1,0-1.36-.63-1.36-1.57V40.9h3.33Zm17.38-.24a2.78,2.78,0,0,0-2.47,1.37V39h-2V48.4h2V43.15c0-1.55.67-2.41,2-2.41a3.25,3.25,0,0,1,1.27.24l.63-1.92a4.28,4.28,0,0,0-1.45-.26Zm-26.27,1a7,7,0,0,0-3.82-1c-2.37,0-3.9,1.14-3.9,3,0,1.53,1.14,2.47,3.23,2.76l1,.14c1.12.15,1.65.45,1.65,1,0,.72-.75,1.13-2.14,1.13a5,5,0,0,1-3.11-1l-1,1.59a6.79,6.79,0,0,0,4.05,1.22c2.71,0,4.28-1.28,4.28-3.06s-1.24-2.51-3.28-2.8l-1-.14c-.88-.12-1.58-.29-1.58-.92s.66-1.1,1.78-1.1a6,6,0,0,1,2.92.81Zm54.58-1a2.76,2.76,0,0,0-2.47,1.37V39h-2V48.4h2V43.15c0-1.55.67-2.41,2-2.41A3.25,3.25,0,0,1,139,41l.63-1.92a4.28,4.28,0,0,0-1.45-.26Zm-26.25,4.92a4.73,4.73,0,0,0,5,4.92,4.93,4.93,0,0,0,3.37-1.12l-1-1.65a4.09,4.09,0,0,1-2.45.85,3,3,0,0,1,0-6,4.08,4.08,0,0,1,2.45.84l1-1.64a4.88,4.88,0,0,0-3.37-1.12,4.73,4.73,0,0,0-5,4.92Zm19.08,0V39h-2v1.13a3.56,3.56,0,0,0-3-1.37,4.7,4.7,0,0,0-4.68,4.92A4.7,4.7,0,0,0,126,48.64a3.54,3.54,0,0,0,3-1.38V48.4h2Zm-7.58,0a2.83,2.83,0,1,1,2.84,3,2.8,2.8,0,0,1-2.84-3ZM98.79,38.8a4.58,4.58,0,0,0-4.66,4.92,4.62,4.62,0,0,0,4.8,4.92,5.71,5.71,0,0,0,3.84-1.32l-1-1.51a4.43,4.43,0,0,1-2.72,1,2.6,2.6,0,0,1-2.81-2.29h7c0-.25,0-.51,0-.78,0-2.92-1.82-4.92-4.45-4.92Zm0,1.82a2.33,2.33,0,0,1,2.37,2.28H96.26a2.42,2.42,0,0,1,2.49-2.28Zm51.11,3.1V35.28h-2v4.89a3.57,3.57,0,0,0-3-1.37,4.69,4.69,0,0,0-4.68,4.92,4.69,4.69,0,0,0,4.68,4.92,3.55,3.55,0,0,0,3-1.38V48.4h2Zm2.38,3.82a.61.61,0,0,1,.24,0,.64.64,0,0,1,.19.13.5.5,0,0,1,.13.19.55.55,0,0,1,0,.46.5.5,0,0,1-.13.19.64.64,0,0,1-.19.13.61.61,0,0,1-.24,0,.67.67,0,0,1-.24,0,.8.8,0,0,1-.19-.13.64.64,0,0,1-.13-.19.68.68,0,0,1,0-.46.64.64,0,0,1,.13-.19.8.8,0,0,1,.19-.13A.67.67,0,0,1,152.24,47.54Zm0,1.05a.48.48,0,0,0,.18,0,.46.46,0,0,0,.25-.25.55.55,0,0,0,0-.36.46.46,0,0,0-.25-.25.48.48,0,0,0-.18,0,.57.57,0,0,0-.18,0,.78.78,0,0,0-.15.1.56.56,0,0,0-.1.15.56.56,0,0,0,0,.36.56.56,0,0,0,.1.15l.15.1Zm0-.74a.25.25,0,0,1,.16,0,.15.15,0,0,1,.06.13.13.13,0,0,1-.05.11.23.23,0,0,1-.13.06l.18.2h-.14l-.16-.2h-.06v.2H152v-.55Zm-.14.11v.14h.14a.08.08,0,0,0,.07,0,.05.05,0,0,0,0,0,.07.07,0,0,0,0-.06h-.21Zm-9.86-4.24a2.83,2.83,0,1,1,2.84,3,2.81,2.81,0,0,1-2.84-3Zm-68.8,0V39h-2v1.13a3.54,3.54,0,0,0-3-1.37,4.7,4.7,0,0,0-4.69,4.92,4.7,4.7,0,0,0,4.69,4.92,3.52,3.52,0,0,0,3-1.38V48.4h2Zm-7.58,0a2.83,2.83,0,1,1,2.84,3A2.81,2.81,0,0,1,65.9,43.72Z"/></svg>