<svg xmlns="http://www.w3.org/2000/svg" viewBox="0 0 363.72 107.7"><title>mc-ar</title><path d="M8.51,91.29A5,5,0,0,0,4.8,92.66a6.05,6.05,0,0,0-1.36,4.4c0,.22,0,.43,0,.63s0,.4,0,.55a1.11,1.11,0,0,1-.28.68,2.46,2.46,0,0,1-.6.49c-.24.15-.5.31-.78.46a3.68,3.68,0,0,0-.82.6,2.83,2.83,0,0,0-.63.93,3.41,3.41,0,0,0-.25,1.4v4.9H2.65v-4.37a1.73,1.73,0,0,1,.2-.94,1.79,1.79,0,0,1,.5-.49c.21-.13.43-.26.65-.37a1.65,1.65,0,0,0,.52-.44,4,4,0,0,0,1.58,1.24,6.24,6.24,0,0,0,2.41.45,6.56,6.56,0,0,0,2.1-.33,4,4,0,0,0,1.61-1,4.68,4.68,0,0,0,1-1.78,8.49,8.49,0,0,0,.35-2.57,6.05,6.05,0,0,0-1.36-4.4A5,5,0,0,0,8.51,91.29ZM6.58,94.52a2.16,2.16,0,0,1,1.93-.87,2.17,2.17,0,0,1,1.94.87,4.48,4.48,0,0,1,.62,2.54,4.22,4.22,0,0,1-.61,2.57,2.31,2.31,0,0,1-2,.78,2.3,2.3,0,0,1-1.94-.78A4.3,4.3,0,0,1,6,97.06,4.48,4.48,0,0,1,6.58,94.52Z"/><rect x="15.32" y="99.51" width="2.83" height="3.09" rx="0.44"/><path d="M28.63,91.29a5,5,0,0,0-3.72,1.37,6.1,6.1,0,0,0-1.36,4.4c0,.22,0,.43,0,.63s0,.4,0,.55a1.17,1.17,0,0,1-.27.68,2.91,2.91,0,0,1-.6.49c-.25.15-.51.31-.79.46a3.92,3.92,0,0,0-.82.6,3,3,0,0,0-.63.93,3.58,3.58,0,0,0-.25,1.4v4.9h2.53v-4.37a1.74,1.74,0,0,1,.19-.94,1.79,1.79,0,0,1,.5-.49c.21-.13.43-.26.65-.37a1.65,1.65,0,0,0,.52-.44,4,4,0,0,0,1.58,1.24,6.29,6.29,0,0,0,2.42.45,6.61,6.61,0,0,0,2.1-.33,4.19,4.19,0,0,0,1.61-1,4.8,4.8,0,0,0,1-1.78,8.17,8.17,0,0,0,.36-2.57,6.1,6.1,0,0,0-1.36-4.4A5,5,0,0,0,28.63,91.29Zm-1.94,3.23a2.18,2.18,0,0,1,1.94-.87,2.16,2.16,0,0,1,1.93.87,4.4,4.4,0,0,1,.62,2.54,4.22,4.22,0,0,1-.61,2.57,2.3,2.3,0,0,1-1.94.78,2.29,2.29,0,0,1-1.94-.78,4.22,4.22,0,0,1-.62-2.57A4.48,4.48,0,0,1,26.69,94.52Z"/><rect x="35.83" y="99.51" width="2.83" height="3.09" rx="0.44"/><path d="M46.54,91.29H42.77a.4.4,0,0,0-.44.44v1.48a.41.41,0,0,0,.44.44h3c1.84,0,2.74.79,2.74,2.41v2a6.23,6.23,0,0,1-.08,1.07,1.22,1.22,0,0,1-.26.61,1.14,1.14,0,0,1-.57.33,4.7,4.7,0,0,1-1.11.11h-4.9a.41.41,0,0,0-.44.44v1.49a.41.41,0,0,0,.44.44h5.69a6.22,6.22,0,0,0,1.73-.22,2.63,2.63,0,0,0,1.23-.75,3.5,3.5,0,0,0,.72-1.43A8.9,8.9,0,0,0,51.15,98V96a4.61,4.61,0,0,0-1.3-3.6A4.84,4.84,0,0,0,46.54,91.29Z"/><rect x="44.6" y="86.83" width="2.63" height="2.75" rx="0.44"/><rect x="55.01" y="97.03" width="7.7" height="2.37" rx="0.44"/><path d="M77.24,93.36a4.92,4.92,0,0,0-1.86-1.51,7,7,0,0,0-3-.56,5.5,5.5,0,0,0-2.7.61,6.08,6.08,0,0,0-1.83,1.53.41.41,0,0,0-.11.29.51.51,0,0,0,.21.33L69.1,95a.43.43,0,0,0,.61,0A4,4,0,0,1,71,94a3.49,3.49,0,0,1,1.52-.34,3.53,3.53,0,0,1,1.58.31,2.34,2.34,0,0,1,1,.85,3.94,3.94,0,0,1,.55,1.37,8.45,8.45,0,0,1,.18,1.8,7.11,7.11,0,0,1-.08,1.13,1.25,1.25,0,0,1-.27.67,1,1,0,0,1-.57.34,4.55,4.55,0,0,1-1.1.11h-4a5.3,5.3,0,0,0-1.28.17,3.42,3.42,0,0,0-1.24.61,3.24,3.24,0,0,0-.94,1.17,4.07,4.07,0,0,0-.36,1.82,3.29,3.29,0,0,0,1.2,2.83,5.36,5.36,0,0,0,3.21.87h2.64a.41.41,0,0,0,.44-.45v-1.48a.41.41,0,0,0-.44-.44H70.47a2.66,2.66,0,0,1-1.64-.33,1.3,1.3,0,0,1-.38-1,1.64,1.64,0,0,1,.28-1,1.13,1.13,0,0,1,1-.37h4.86a5.85,5.85,0,0,0,1.71-.23,2.66,2.66,0,0,0,1.24-.78,3.48,3.48,0,0,0,.71-1.44A8.9,8.9,0,0,0,78.44,98a11.92,11.92,0,0,0-.26-2.48A5.76,5.76,0,0,0,77.24,93.36Z"/><rect x="80.4" y="99.51" width="2.83" height="3.09" rx="0.44"/><path d="M93.7,91.29A5,5,0,0,0,90,92.66a6.1,6.1,0,0,0-1.36,4.4c0,.22,0,.43,0,.63s0,.4,0,.55a1.18,1.18,0,0,1-.28.68,2.67,2.67,0,0,1-.6.49l-.78.46a3.46,3.46,0,0,0-.82.6,3,3,0,0,0-.64.93,3.59,3.59,0,0,0-.24,1.4v4.9h2.52v-4.37a1.73,1.73,0,0,1,.2-.94,1.79,1.79,0,0,1,.5-.49c.21-.13.43-.26.65-.37a1.77,1.77,0,0,0,.52-.44,4,4,0,0,0,1.57,1.24,6.29,6.29,0,0,0,2.42.45,6.56,6.56,0,0,0,2.1-.33,4.19,4.19,0,0,0,1.61-1,4.68,4.68,0,0,0,1-1.78,8.49,8.49,0,0,0,.35-2.57,6.1,6.1,0,0,0-1.36-4.4A5,5,0,0,0,93.7,91.29Zm-1.93,3.23a2.59,2.59,0,0,1,3.87,0,4.48,4.48,0,0,1,.62,2.54,4.22,4.22,0,0,1-.62,2.57,2.8,2.8,0,0,1-3.88,0,4.22,4.22,0,0,1-.61-2.57A4.48,4.48,0,0,1,91.77,94.52Z"/><rect x="100.48" y="99.51" width="2.83" height="3.09" rx="0.44"/><rect x="123.67" y="86.83" width="2.63" height="2.75" rx="0.44"/><rect x="122.01" y="83.62" width="2.63" height="2.75" rx="0.44"/><path d="M130.44,91.75h-1.63a.41.41,0,0,0-.45.44v6.86a1.36,1.36,0,0,1-.24.94,1.11,1.11,0,0,1-.8.24h-.59a2.94,2.94,0,0,1-1.57-.38,1.19,1.19,0,0,1-.55-1.08V94.39a.41.41,0,0,0-.44-.44h-1.64a.41.41,0,0,0-.44.44v4.66a1.42,1.42,0,0,1-.24.94,1.14,1.14,0,0,1-.81.24h-.59a2.88,2.88,0,0,1-1.56-.38,1.17,1.17,0,0,1-.56-1.08V94.39a.41.41,0,0,0-.44-.44h-1.64a.41.41,0,0,0-.44.44v7.48a3.16,3.16,0,0,1-1,2.6,4,4,0,0,1-2.58.81,5,5,0,0,1-1.31-.18,3.49,3.49,0,0,1-1.22-.57,2.87,2.87,0,0,1-.9-1.09,3.76,3.76,0,0,1-.35-1.75,5.68,5.68,0,0,1,.4-2.13,10.81,10.81,0,0,1,.87-1.74.39.39,0,0,0-.14-.59l-1.4-.77a.51.51,0,0,0-.4-.08.33.33,0,0,0-.21.16,10,10,0,0,0-1.19,2.39,8.79,8.79,0,0,0-.51,3,6.4,6.4,0,0,0,.45,2.47,5,5,0,0,0,3.23,2.94,7.89,7.89,0,0,0,2.55.39,6.41,6.41,0,0,0,4.6-1.54,5.63,5.63,0,0,0,1.61-4.14,2.94,2.94,0,0,0,1.87.58h1.23a3,3,0,0,0,2.66-1.15,2.33,2.33,0,0,0,.86.79,3.11,3.11,0,0,0,1.52.36h1.23a3.15,3.15,0,0,0,2.45-.85,3.79,3.79,0,0,0,.74-2.57v-7A.41.41,0,0,0,130.44,91.75Z"/><rect x="120.29" y="86.83" width="2.63" height="2.75" rx="0.44"/><path d="M163.24,91.75H161.6a.41.41,0,0,0-.44.44v6.86a1.36,1.36,0,0,1-.24.94,1.12,1.12,0,0,1-.81.24h-.59a2.88,2.88,0,0,1-1.56-.38,1.17,1.17,0,0,1-.56-1.08V94.39A.41.41,0,0,0,157,94h-1.64a.41.41,0,0,0-.44.44v4.66a1.36,1.36,0,0,1-.24.94,1.12,1.12,0,0,1-.81.24h-.59a2.88,2.88,0,0,1-1.56-.38,1.17,1.17,0,0,1-.56-1.08V94.39a.41.41,0,0,0-.44-.44H149a.41.41,0,0,0-.44.44v7.48a3.16,3.16,0,0,1-1,2.6,4,4,0,0,1-2.57.81,5.11,5.11,0,0,1-1.32-.18,3.58,3.58,0,0,1-1.22-.57,3,3,0,0,1-.9-1.09,3.89,3.89,0,0,1-.35-1.75,5.69,5.69,0,0,1,.41-2.13,10.81,10.81,0,0,1,.87-1.74.4.4,0,0,0-.15-.59l-1.4-.77a.5.5,0,0,0-.39-.08.32.32,0,0,0-.22.16,9.68,9.68,0,0,0-1.18,2.39,8.8,8.8,0,0,0-.52,3,6.4,6.4,0,0,0,.46,2.47,5.21,5.21,0,0,0,1.26,1.82,5.41,5.41,0,0,0,2,1.12,7.91,7.91,0,0,0,2.56.39,6.44,6.44,0,0,0,4.6-1.54,5.59,5.59,0,0,0,1.6-4.14,2.94,2.94,0,0,0,1.87.58h1.23a3,3,0,0,0,2.66-1.15,2.49,2.49,0,0,0,.86.79,3.14,3.14,0,0,0,1.53.36h1.23a3.12,3.12,0,0,0,2.44-.85,3.79,3.79,0,0,0,.74-2.57v-7A.41.41,0,0,0,163.24,91.75Z"/><path d="M183.44,101.75a3.79,3.79,0,0,0,.74-2.57v-7a.41.41,0,0,0-.44-.44H182.1a.41.41,0,0,0-.44.44v6.86a1.42,1.42,0,0,1-.24.94,1.12,1.12,0,0,1-.81.24h-2a2.82,2.82,0,0,1-1.58-.4,1.31,1.31,0,0,1-.54-1.16V96a4.58,4.58,0,0,0-1.31-3.6,4.83,4.83,0,0,0-3.31-1.14h-3.77a.4.4,0,0,0-.44.44v1.48a.41.41,0,0,0,.44.44h3c1.84,0,2.74.79,2.74,2.41v2a7.64,7.64,0,0,1-.07,1.07,1.32,1.32,0,0,1-.27.61,1.14,1.14,0,0,1-.57.33,4.7,4.7,0,0,1-1.11.11h-4.89a.4.4,0,0,0-.44.44v1.49a.4.4,0,0,0,.44.44h5.69a5.56,5.56,0,0,0,2.07-.34,2.45,2.45,0,0,0,1.13-.94,2.21,2.21,0,0,0,.91.88,3.47,3.47,0,0,0,1.65.4H181A3.14,3.14,0,0,0,183.44,101.75Z"/><rect x="179.09" y="104.61" width="2.63" height="2.75" rx="0.44"/><rect x="182.3" y="104.61" width="2.63" height="2.75" rx="0.44"/><rect x="197.49" y="86.83" width="2.62" height="2.75" rx="0.44"/><rect x="207.46" y="104.61" width="2.63" height="2.75" rx="0.44"/><rect x="210.69" y="104.61" width="2.63" height="2.75" rx="0.44"/><path d="M231.53,91.75h-1.65a.41.41,0,0,0-.44.44v6.86a1.36,1.36,0,0,1-.24.94,1.11,1.11,0,0,1-.8.24h-.64a2.65,2.65,0,0,1-1.53-.4,1.31,1.31,0,0,1-.54-1.16V94.39a.41.41,0,0,0-.44-.44h-1.64a.41.41,0,0,0-.44.44v4.66a1.36,1.36,0,0,1-.24.94,1.12,1.12,0,0,1-.81.24h-.64a2.65,2.65,0,0,1-1.53-.4,1.33,1.33,0,0,1-.54-1.16V94.39A.41.41,0,0,0,219,94h-1.64a.41.41,0,0,0-.44.44v4.66a1.42,1.42,0,0,1-.24.94,1.12,1.12,0,0,1-.81.24h-2.69a2.81,2.81,0,0,1-1.57-.4,1.31,1.31,0,0,1-.55-1.16V92.19a.41.41,0,0,0-.44-.44H209a.41.41,0,0,0-.44.44v6.86a1.36,1.36,0,0,1-.24.94,1.12,1.12,0,0,1-.81.24h-5.29a5.4,5.4,0,0,0,1.27-1.58,5.31,5.31,0,0,0,.62-2.52,5.8,5.8,0,0,0-.32-1.94,3.87,3.87,0,0,0-1-1.54,4.43,4.43,0,0,0-1.64-1,7,7,0,0,0-2.32-.35,6.89,6.89,0,0,0-2.31.35,4.55,4.55,0,0,0-1.65,1,4.11,4.11,0,0,0-1,1.54,5.76,5.76,0,0,0-.31,1.94,5.24,5.24,0,0,0,.62,2.51,5.64,5.64,0,0,0,1.28,1.59h-4.36a1.11,1.11,0,0,1-.8-.24,1.36,1.36,0,0,1-.24-.94V85.24a.41.41,0,0,0-.45-.44H188a.41.41,0,0,0-.45.44V99.18a3.79,3.79,0,0,0,.74,2.57,3.15,3.15,0,0,0,2.45.85h4.61c.5,0,1.08,0,1.72-.08a4.57,4.57,0,0,0,1.78-.51,3.68,3.68,0,0,0,1.56.51c.54,0,1.13.08,1.75.08h5.72a3,3,0,0,0,2.67-1.15,2.33,2.33,0,0,0,.86.79,3.08,3.08,0,0,0,1.52.36h3.33a3,3,0,0,0,2.66-1.15,2.49,2.49,0,0,0,.86.79,3.13,3.13,0,0,0,1.52.36h1.24a3,3,0,0,0,2.66-1.15,2.33,2.33,0,0,0,.86.79,3.11,3.11,0,0,0,1.52.36h1.23a3.15,3.15,0,0,0,2.45-.85,3.79,3.79,0,0,0,.74-2.57v-7A.41.41,0,0,0,231.53,91.75Zm-32.73,1.9a2.75,2.75,0,0,1,1.9.67,2.48,2.48,0,0,1,.74,1.94,3.18,3.18,0,0,1-.78,2.2,4.86,4.86,0,0,1-1.86,1.32,5,5,0,0,1-1.86-1.32,3.26,3.26,0,0,1-.77-2.2,2.53,2.53,0,0,1,.73-1.94A2.75,2.75,0,0,1,198.8,93.65Z"/><path d="M261,92.89a4.83,4.83,0,0,0-3.31-1.14h-1.88l4.38-5.14A.45.45,0,0,0,260,86l-1.26-1a.43.43,0,0,0-.57.12l-5.6,6.6-.15.18a.55.55,0,0,0-.13.36v1.43a.41.41,0,0,0,.44.45h4.12c1.84,0,2.74.78,2.74,2.4v1.59a7.64,7.64,0,0,1-.07,1.07,1.28,1.28,0,0,1-.27.61,1.14,1.14,0,0,1-.57.33,4.7,4.7,0,0,1-1.11.11h-7a3,3,0,0,1-1.46-.32,1.31,1.31,0,0,1-.64-.91V85.24a.4.4,0,0,0-.44-.44h-1.64a.41.41,0,0,0-.44.44V99.05a1.36,1.36,0,0,1-.24.94,1.11,1.11,0,0,1-.8.24h-2.82V88.86a.4.4,0,0,0-.44-.44H240a.4.4,0,0,0-.44.44v11.37h-4.86a.41.41,0,0,0-.44.44v1.49a.41.41,0,0,0,.44.44h10.58a2.91,2.91,0,0,0,2.65-1.13,2.43,2.43,0,0,0,.88.78,3.15,3.15,0,0,0,1.49.35h8.07a6.22,6.22,0,0,0,1.73-.22,2.63,2.63,0,0,0,1.23-.75,3.38,3.38,0,0,0,.72-1.43A8.79,8.79,0,0,0,262.3,98V96.49A4.58,4.58,0,0,0,261,92.89Z"/><path d="M258.11,36.49a12.93,12.93,0,0,0-18.59-.08,14,14,0,0,0-3.37,9.52c0,.24,0,.49,0,.73l0,.48H225.7v-16a3.74,3.74,0,0,0-1.09-2.69,3.88,3.88,0,0,0-5.43,0,3.76,3.76,0,0,0-1.06,2.67V52a6.21,6.21,0,0,1-1.9,4.54,6,6,0,0,1-4.48,1.86h-1.86a3.61,3.61,0,0,0-2.65,1.11,3.66,3.66,0,0,0-1.11,2.64v.1a3.67,3.67,0,0,0,1.11,2.65A3.61,3.61,0,0,0,209.88,66h1.86a13.44,13.44,0,0,0,9.87-4.09,13.7,13.7,0,0,0,3.67-6.52l.09-.35h13.74l.14.16a12,12,0,0,0,9.53,4.14A11.51,11.51,0,0,0,258,55.22a13.93,13.93,0,0,0,3.2-9.34A14.06,14.06,0,0,0,258.11,36.49Zm-9.33,15.3a3.39,3.39,0,0,1-3.07-1.45,7.41,7.41,0,0,1-1.07-4.22,8.12,8.12,0,0,1,1.08-4.52A3.52,3.52,0,0,1,249,40a3.17,3.17,0,0,1,2.9,1.4,8,8,0,0,1,.94,4.16C252.82,51.79,250.09,51.79,248.78,51.79Z"/><path d="M30.71,33.57V51.08A14.84,14.84,0,0,1,26.21,62a14.88,14.88,0,0,1-10.87,4.5A14.9,14.9,0,0,1,4.5,62,14.92,14.92,0,0,1,0,51.08V33.57A3.56,3.56,0,0,1,1.14,30.9a3.55,3.55,0,0,1,2.62-1.08,3.72,3.72,0,0,1,2.75,1.11,3.59,3.59,0,0,1,1.1,2.64V51.08a7.44,7.44,0,0,0,2.26,5.48,7.42,7.42,0,0,0,5.47,2.28,7.45,7.45,0,0,0,5.52-2.29,7.42,7.42,0,0,0,2.24-5.47V33.57a3.52,3.52,0,0,1,1.14-2.66,3.57,3.57,0,0,1,2.63-1.09H27a3.77,3.77,0,0,1,3.75,3.75Z"/><path d="M207.82,47.8v5a2.19,2.19,0,0,1-2.19,2.2H52.56a14.1,14.1,0,0,1-10.35-4.13A14.5,14.5,0,0,1,38,40.55V21.08a3.8,3.8,0,0,1,1.2-2.85A3.88,3.88,0,0,1,42,17h.1a3.9,3.9,0,0,1,2.84,1.19,3.84,3.84,0,0,1,1.2,2.85V40.53a6.63,6.63,0,0,0,6.41,6.57h.1c4.34,0,144.8,0,146.21,0h.5l0-.49c-.19-3.6-1.57-6.15-4.21-7.8a17.69,17.69,0,0,0-8.34-2.55h-.11a8.79,8.79,0,0,0-5.82,2.48l-1.27,1.29a3.6,3.6,0,0,1-2.92.89,4.54,4.54,0,0,1-2.74-1.32l-.07-.07a3.67,3.67,0,0,1-1.1-2.65,3.61,3.61,0,0,1,1.07-2.65l1.3-1.33a17.47,17.47,0,0,1,9.9-4.58c7.08-.51,13,1.25,17.1,5.07C205.85,36.93,207.82,41.89,207.82,47.8Z"/><path d="M20.28,21.09A4.13,4.13,0,0,1,19,24.2a4.14,4.14,0,0,1-3.05,1.26,4.32,4.32,0,0,1-4.36-4.37A4.18,4.18,0,0,1,12.81,18,4.36,4.36,0,0,1,19,18,4.12,4.12,0,0,1,20.28,21.09Z"/><path d="M194.36,62.35a4.39,4.39,0,1,1-1.29-3.06A4.13,4.13,0,0,1,194.36,62.35Z"/><path d="M363.72,10.46a10.45,10.45,0,0,0-20.85-1c-.06.26-.06,84.55,0,84.81a10.45,10.45,0,0,0,20.85-1Zm-7.59,83.6a3,3,0,0,1-5.83,0c0-.19,0-84.31,0-84.5a3,3,0,0,1,5.83,0C356.09,9.78,356.09,93.88,356.13,94.06Z"/><path d="M326.32,0a10.38,10.38,0,0,0-10.38,9.43c-.06.25-.06,53.4,0,53.66a10.46,10.46,0,0,0,20.86-1V10.46A10.48,10.48,0,0,0,326.32,0Zm2.87,62.92a3,3,0,0,1-5.82,0c0-.18,0-53.16,0-53.35a3,3,0,0,1,5.82,0C329.16,9.78,329.16,62.73,329.19,62.92Z"/><path d="M299.39,0A10.4,10.4,0,0,0,289,9.43c-.06.25-.06,67.56,0,67.82a10.46,10.46,0,0,0,20.86-1V10.46A10.48,10.48,0,0,0,299.39,0Zm2.87,77.07a3,3,0,0,1-2.91,2.44,2.92,2.92,0,0,1-2.91-2.42c0-.18,0-67.32,0-67.51a2.93,2.93,0,0,1,2.91-2.42,3,3,0,0,1,2.91,2.44C302.22,9.78,302.22,76.89,302.26,77.07Z"/></svg>