<?xml version="1.0" encoding="utf-8"?>
<!-- Generator: Adobe Illustrator 24.0.0, SVG Export Plug-In . SVG Version: 6.00 Build 0)  -->
<svg version="1.1" id="Layer_1" xmlns="http://www.w3.org/2000/svg" xmlns:xlink="http://www.w3.org/1999/xlink" x="0px" y="0px"
	 viewBox="0 0 156.81 40.01" style="enable-background:new 0 0 156.81 40.01;" xml:space="preserve">
<g>
	<path d="M47.14,33.24c0,0.27-0.18,0.41-0.35,0.41c-0.32,0-0.72-0.85-1.99-0.85c-1.61,0-2.49,1.73-2.49,3.3
		c0,1.58,0.78,3.08,2.63,3.08c1.35,0,1.76-0.75,2.03-0.75c0.19,0,0.32,0.12,0.32,0.39c0,0.33-0.99,1.08-2.4,1.08
		c-2.35,0-3.42-1.75-3.42-3.79c0-2.01,1.08-4.01,3.34-4.01C46.1,32.09,47.14,32.86,47.14,33.24"/>
	<path d="M44.9,40.01c-2.62,0-3.56-2.03-3.56-3.92c0-1.99,1.09-4.14,3.47-4.14c1.33,0,2.46,0.79,2.46,1.29
		c0,0.34-0.24,0.54-0.48,0.54c-0.16,0-0.29-0.11-0.47-0.25c-0.31-0.25-0.73-0.6-1.53-0.6c-1.47,0-2.35,1.61-2.35,3.16
		c0,1.42,0.65,2.94,2.49,2.94c0.88,0,1.33-0.33,1.63-0.55c0.16-0.12,0.27-0.2,0.41-0.2c0.29,0,0.46,0.19,0.46,0.52
		C47.43,39.23,46.39,40.01,44.9,40.01 M44.81,32.22c-2.21,0-3.2,1.94-3.2,3.87c0,1.77,0.86,3.65,3.29,3.65
		c1.41,0,2.27-0.75,2.27-0.94c0-0.25-0.13-0.25-0.19-0.25c-0.04,0-0.15,0.08-0.25,0.15c-0.31,0.23-0.82,0.6-1.79,0.6
		c-2.04,0-2.76-1.73-2.76-3.21c0-1.68,0.98-3.43,2.62-3.43c0.89,0,1.38,0.4,1.7,0.66c0.12,0.1,0.24,0.19,0.29,0.19
		c0.08,0,0.21-0.08,0.21-0.27C47,32.99,46.09,32.22,44.81,32.22"/>
	<path d="M50.82,39.1h2.02c0.25,0,0.41,0.16,0.41,0.35c0,0.19-0.16,0.36-0.41,0.36h-2.41c-0.22,0-0.39-0.17-0.39-0.39v-6.85
		c0-0.32,0.14-0.5,0.39-0.5c0.25,0,0.39,0.17,0.39,0.5V39.1z"/>
	<path d="M52.85,39.95h-2.41c-0.29,0-0.52-0.23-0.52-0.52v-6.85c0-0.39,0.2-0.63,0.52-0.63c0.33,0,0.52,0.24,0.52,0.63v6.39h1.89
		c0.31,0,0.54,0.21,0.54,0.49C53.39,39.74,53.16,39.95,52.85,39.95 M50.44,32.22c-0.07,0-0.25,0-0.25,0.36v6.85
		c0,0.14,0.11,0.25,0.25,0.25h2.41c0.16,0,0.27-0.09,0.27-0.22c0-0.13-0.11-0.22-0.27-0.22h-2.16v-6.66
		C50.69,32.22,50.51,32.22,50.44,32.22"/>
	<path d="M56.16,39.52c-0.1,0.19-0.16,0.35-0.43,0.35c-0.23,0-0.35-0.14-0.35-0.3c0-0.08,0.03-0.21,0.08-0.32l2.47-6.61
		c0.1-0.25,0.21-0.56,0.6-0.56c0.39,0,0.51,0.31,0.6,0.56l2.47,6.61c0.04,0.11,0.07,0.24,0.07,0.32c0,0.16-0.12,0.3-0.34,0.3
		c-0.27,0-0.36-0.16-0.43-0.35l-0.51-1.38h-3.73L56.16,39.52z M58.54,33.1h-0.02l-1.59,4.34h3.21L58.54,33.1z"/>
	<path d="M61.32,40.01c-0.35,0-0.47-0.23-0.56-0.44l-0.48-1.29h-3.54l-0.5,1.33c-0.09,0.19-0.2,0.4-0.53,0.4
		c-0.33,0-0.48-0.23-0.48-0.44c0-0.12,0.04-0.27,0.09-0.37l2.46-6.61c0.1-0.27,0.25-0.65,0.73-0.65c0.48,0,0.63,0.38,0.73,0.64
		l2.47,6.62c0.04,0.1,0.08,0.25,0.08,0.37C61.8,39.79,61.65,40.01,61.32,40.01 M56.57,38.01h3.91l0.54,1.47
		c0.08,0.2,0.13,0.27,0.3,0.27c0.13,0,0.21-0.06,0.21-0.17c0-0.06-0.03-0.17-0.07-0.27L59,32.69c-0.11-0.29-0.2-0.47-0.48-0.47
		c-0.27,0-0.36,0.18-0.47,0.47l-2.47,6.62c-0.04,0.1-0.07,0.21-0.07,0.27c0,0.11,0.08,0.17,0.21,0.17c0.16,0,0.2-0.06,0.29-0.25
		l0.01-0.02L56.57,38.01z M60.32,37.57h-3.59l1.69-4.61h0.19l0.05,0.09L60.32,37.57z M57.11,37.3h2.82l-1.41-3.84L57.11,37.3z"/>
	<path d="M63.94,38.96c0-0.2,0.16-0.38,0.37-0.38c0.09,0,0.28,0.11,0.37,0.18c0.09,0.08,0.72,0.4,1.27,0.4
		c1.08,0,1.77-0.86,1.77-1.67c0-1.84-3.64-1.13-3.64-3.46c0-1.24,1.06-1.93,2.22-1.96c0.84,0,1.74,0.47,1.74,0.84
		c0,0.24-0.18,0.41-0.32,0.41c-0.4,0-0.66-0.54-1.47-0.54c-0.81,0-1.39,0.56-1.39,1.19c0,1.69,3.64,1,3.64,3.46
		c0,1.39-0.96,2.43-2.43,2.43C64.78,39.88,63.94,39.39,63.94,38.96"/>
	<path d="M66.06,40.01c-1.39,0-2.25-0.55-2.25-1.05c0-0.28,0.22-0.51,0.5-0.51c0.14,0,0.37,0.14,0.46,0.22
		c0.06,0.05,0.66,0.37,1.18,0.37c1.01,0,1.63-0.79,1.63-1.53c0-0.77-0.73-1.05-1.57-1.36c-0.97-0.36-2.07-0.77-2.07-2.1
		c0-1.4,1.22-2.06,2.35-2.09c0.82,0,1.88,0.47,1.88,0.97c0,0.31-0.24,0.54-0.46,0.54c-0.2,0-0.37-0.11-0.54-0.22
		c-0.23-0.15-0.49-0.32-0.93-0.32c-0.7,0-1.26,0.47-1.26,1.06c0,0.67,0.69,0.93,1.48,1.22c1.01,0.38,2.16,0.8,2.16,2.24
		C68.62,38.96,67.57,40.01,66.06,40.01 M64.31,38.72c-0.13,0-0.23,0.11-0.23,0.24c0,0.32,0.77,0.78,1.98,0.78
		c1.35,0,2.3-0.94,2.3-2.3c0-1.25-1.01-1.62-1.99-1.98c-0.85-0.31-1.65-0.61-1.65-1.47c0-0.75,0.67-1.33,1.52-1.33
		c0.52,0,0.83,0.2,1.08,0.36c0.15,0.1,0.27,0.18,0.4,0.18c0.06,0,0.19-0.11,0.19-0.28c0-0.23-0.76-0.7-1.61-0.7
		c-1,0.03-2.08,0.61-2.08,1.82c0,1.14,0.92,1.48,1.89,1.84c0.86,0.32,1.75,0.65,1.75,1.61c0,0.87-0.73,1.8-1.9,1.8
		c-0.6,0-1.26-0.34-1.36-0.43C64.51,38.81,64.35,38.72,64.31,38.72"/>
	<path d="M70.83,38.96c0-0.2,0.16-0.38,0.37-0.38c0.09,0,0.28,0.11,0.37,0.18c0.09,0.08,0.72,0.4,1.27,0.4
		c1.08,0,1.77-0.86,1.77-1.67c0-1.84-3.64-1.13-3.64-3.46c0-1.24,1.06-1.93,2.22-1.96c0.84,0,1.74,0.47,1.74,0.84
		c0,0.24-0.18,0.41-0.32,0.41c-0.4,0-0.66-0.54-1.48-0.54c-0.81,0-1.39,0.56-1.39,1.19c0,1.69,3.64,1,3.64,3.46
		c0,1.39-0.96,2.43-2.43,2.43C71.67,39.88,70.83,39.39,70.83,38.96"/>
	<path d="M72.94,40.01c-1.39,0-2.24-0.55-2.24-1.05c0-0.28,0.22-0.51,0.5-0.51c0.14,0,0.37,0.14,0.46,0.22
		c0.06,0.05,0.66,0.37,1.18,0.37c1.01,0,1.63-0.79,1.63-1.53c0-0.77-0.73-1.05-1.57-1.36c-0.97-0.36-2.07-0.77-2.07-2.1
		c0-1.4,1.22-2.06,2.35-2.09c0.82,0,1.88,0.47,1.88,0.97c0,0.31-0.24,0.54-0.46,0.54c-0.2,0-0.37-0.11-0.54-0.22
		c-0.23-0.15-0.49-0.32-0.93-0.32c-0.7,0-1.26,0.47-1.26,1.06c0,0.67,0.68,0.93,1.48,1.22c1.01,0.38,2.16,0.8,2.16,2.24
		C75.51,38.96,74.45,40.01,72.94,40.01 M71.19,38.72c-0.13,0-0.23,0.11-0.23,0.24c0,0.32,0.77,0.78,1.98,0.78
		c1.35,0,2.3-0.94,2.3-2.3c0-1.25-1.01-1.62-1.99-1.98c-0.85-0.31-1.65-0.61-1.65-1.47c0-0.75,0.67-1.33,1.52-1.33
		c0.52,0,0.83,0.2,1.08,0.36c0.15,0.1,0.27,0.18,0.4,0.18c0.06,0,0.19-0.11,0.19-0.28c0-0.23-0.76-0.7-1.61-0.7
		c-1,0.03-2.08,0.61-2.08,1.82c0,1.14,0.92,1.48,1.89,1.84c0.86,0.32,1.75,0.65,1.75,1.61c0,0.87-0.73,1.8-1.9,1.8
		c-0.6,0-1.26-0.34-1.36-0.43C71.4,38.81,71.24,38.72,71.19,38.72"/>
	<path d="M78.98,39.38c0,0.32-0.14,0.49-0.39,0.49s-0.39-0.17-0.39-0.49v-6.8c0-0.32,0.14-0.49,0.39-0.49s0.39,0.17,0.39,0.49V39.38
		z"/>
	<path d="M78.59,40.01c-0.33,0-0.52-0.23-0.52-0.63v-6.8c0-0.39,0.19-0.63,0.52-0.63c0.33,0,0.52,0.24,0.52,0.63v6.8
		C79.12,39.78,78.92,40.01,78.59,40.01 M78.59,32.22c-0.07,0-0.25,0-0.25,0.36v6.8c0,0.36,0.19,0.36,0.25,0.36
		c0.07,0,0.25,0,0.25-0.36v-6.8C78.85,32.22,78.66,32.22,78.59,32.22"/>
	<path d="M83.09,39.38c0,0.32-0.14,0.49-0.39,0.49s-0.39-0.17-0.39-0.49v-6.85c0-0.21,0.17-0.38,0.39-0.39h2.72
		c0.25,0,0.41,0.16,0.41,0.36c0,0.19-0.16,0.36-0.41,0.36h-2.34v2.78h2.07c0.25,0,0.41,0.16,0.41,0.35c0,0.19-0.16,0.36-0.41,0.36
		h-2.07V39.38z"/>
	<path d="M82.7,40.01c-0.33,0-0.52-0.23-0.52-0.63v-6.85c0-0.28,0.22-0.51,0.52-0.52h2.73c0.31,0,0.54,0.21,0.54,0.49
		c0,0.28-0.24,0.49-0.54,0.49h-2.2v2.51h1.93c0.31,0,0.54,0.21,0.54,0.49c0,0.28-0.23,0.49-0.54,0.49h-1.93v2.9
		C83.22,39.78,83.03,40.01,82.7,40.01 M82.7,32.28c-0.14,0.01-0.25,0.12-0.25,0.25v6.85c0,0.36,0.19,0.36,0.25,0.36
		c0.07,0,0.25,0,0.25-0.36v-3.17h2.2c0.16,0,0.27-0.09,0.27-0.22c0-0.13-0.11-0.22-0.27-0.22h-2.2v-3.05h2.47
		c0.16,0,0.27-0.09,0.27-0.22c0-0.13-0.11-0.22-0.27-0.22H82.7z"/>
	<path d="M89.38,39.38c0,0.32-0.14,0.49-0.39,0.49s-0.39-0.17-0.39-0.49v-6.8c0-0.32,0.14-0.49,0.39-0.49s0.39,0.17,0.39,0.49V39.38
		z"/>
	<path d="M88.99,40.01c-0.33,0-0.52-0.23-0.52-0.63v-6.8c0-0.39,0.19-0.63,0.52-0.63c0.33,0,0.52,0.24,0.52,0.63v6.8
		C89.51,39.78,89.32,40.01,88.99,40.01 M88.99,32.22c-0.07,0-0.25,0-0.25,0.36v6.8c0,0.36,0.19,0.36,0.25,0.36
		c0.07,0,0.25,0,0.25-0.36v-6.8C89.24,32.22,89.06,32.22,88.99,32.22"/>
	<path d="M93.48,39.1h2.35c0.25,0,0.41,0.16,0.41,0.35c0,0.19-0.16,0.36-0.41,0.36h-2.65c-0.35,0-0.47-0.14-0.47-0.41v-6.85
		c0-0.27,0.13-0.41,0.47-0.41h2.54c0.25,0,0.41,0.16,0.41,0.36c0,0.19-0.16,0.36-0.41,0.36h-2.23v2.78h2.13
		c0.25,0,0.41,0.16,0.41,0.36c0,0.19-0.16,0.36-0.41,0.36h-2.14V39.1z"/>
	<path d="M95.83,39.95h-2.65c-0.4,0-0.61-0.18-0.61-0.54v-6.85c0-0.36,0.21-0.54,0.61-0.54h2.54c0.31,0,0.54,0.21,0.54,0.49
		c0,0.28-0.23,0.49-0.54,0.49h-2.09v2.51h2c0.31,0,0.54,0.21,0.54,0.49c0,0.28-0.23,0.49-0.54,0.49h-2.01v2.49h2.21
		c0.31,0,0.54,0.21,0.54,0.49C96.37,39.74,96.14,39.95,95.83,39.95 M93.18,32.28c-0.29,0-0.34,0.1-0.34,0.27v6.85
		c0,0.18,0.05,0.28,0.34,0.28h2.65c0.16,0,0.28-0.09,0.28-0.22c0-0.13-0.11-0.22-0.28-0.22h-2.48v-3.02h2.28
		c0.16,0,0.27-0.09,0.27-0.22c0-0.13-0.11-0.22-0.27-0.22h-2.26v-3.05h2.36c0.16,0,0.27-0.09,0.27-0.22c0-0.13-0.12-0.22-0.27-0.22
		H93.18z"/>
	<path d="M99.4,32.56c0-0.27,0.13-0.41,0.47-0.41h1.92c2.32,0,3.25,2.1,3.25,3.89c0,2.36-1.45,3.78-3.32,3.78h-1.85
		c-0.35,0-0.47-0.14-0.47-0.41V32.56z M100.17,39.1h1.51c1.86,0,2.52-1.41,2.52-3.21c0-1.46-0.65-3.04-2.48-3.04h-1.55V39.1z"/>
	<path d="M101.72,39.95h-1.85c-0.4,0-0.61-0.18-0.61-0.54v-6.85c0-0.36,0.21-0.54,0.61-0.54h1.92c2.33,0,3.39,2.08,3.39,4.02
		C105.17,38.34,103.75,39.95,101.72,39.95 M99.87,32.28c-0.29,0-0.34,0.1-0.34,0.27v6.85c0,0.18,0.05,0.27,0.34,0.27h1.85
		c1.9,0,3.18-1.46,3.18-3.64c0-1.87-0.96-3.75-3.12-3.75H99.87z M101.68,39.24h-1.64v-6.51h1.69c1.93,0,2.61,1.64,2.61,3.17
		C104.33,38.05,103.39,39.24,101.68,39.24 M100.31,38.97h1.37c1.97,0,2.38-1.67,2.38-3.07c0-1.4-0.61-2.9-2.34-2.9h-1.42V38.97z"/>
	<path d="M107.59,38.96c0-0.2,0.16-0.38,0.37-0.38c0.09,0,0.28,0.11,0.37,0.18c0.09,0.08,0.72,0.4,1.27,0.4
		c1.08,0,1.77-0.86,1.77-1.67c0-1.84-3.64-1.13-3.64-3.46c0-1.24,1.06-1.93,2.22-1.96c0.84,0,1.74,0.47,1.74,0.84
		c0,0.24-0.18,0.41-0.32,0.41c-0.4,0-0.66-0.54-1.48-0.54c-0.81,0-1.39,0.56-1.39,1.19c0,1.69,3.64,1,3.64,3.46
		c0,1.39-0.96,2.43-2.43,2.43C108.43,39.88,107.59,39.39,107.59,38.96"/>
	<path d="M109.7,40.01c-1.39,0-2.24-0.55-2.24-1.05c0-0.28,0.22-0.51,0.5-0.51c0.14,0,0.37,0.14,0.46,0.22
		c0.06,0.05,0.66,0.37,1.18,0.37c1.01,0,1.63-0.79,1.63-1.53c0-0.77-0.73-1.05-1.57-1.36c-0.97-0.36-2.07-0.77-2.07-2.1
		c0-1.4,1.22-2.06,2.35-2.09c0.82,0,1.88,0.47,1.88,0.97c0,0.31-0.24,0.54-0.46,0.54c-0.2,0-0.37-0.11-0.54-0.22
		c-0.23-0.15-0.49-0.32-0.93-0.32c-0.7,0-1.26,0.47-1.26,1.06c0,0.67,0.68,0.93,1.48,1.22c1.01,0.38,2.16,0.8,2.16,2.24
		C112.27,38.96,111.22,40.01,109.7,40.01 M107.96,38.72c-0.13,0-0.23,0.11-0.23,0.24c0,0.32,0.77,0.78,1.98,0.78
		c1.35,0,2.3-0.94,2.3-2.3c0-1.25-1.01-1.62-1.99-1.98c-0.85-0.31-1.65-0.61-1.65-1.47c0-0.75,0.67-1.33,1.52-1.33
		c0.52,0,0.83,0.2,1.08,0.36c0.15,0.1,0.27,0.18,0.4,0.18c0.06,0,0.19-0.11,0.19-0.28c0-0.23-0.76-0.7-1.61-0.7
		c-1,0.03-2.08,0.61-2.08,1.82c0,1.14,0.92,1.48,1.89,1.84c0.86,0.32,1.75,0.65,1.75,1.61c0,0.87-0.73,1.8-1.9,1.8
		c-0.6,0-1.26-0.34-1.36-0.43C108.16,38.81,108,38.72,107.96,38.72"/>
	<path d="M120.24,39.38c0,0.32-0.14,0.49-0.39,0.49s-0.39-0.17-0.39-0.49v-6.85c0-0.21,0.17-0.38,0.39-0.39h2.72
		c0.25,0,0.41,0.16,0.41,0.36c0,0.19-0.16,0.36-0.41,0.36h-2.34v2.78h2.07c0.25,0,0.41,0.16,0.41,0.35c0,0.19-0.16,0.36-0.41,0.36
		h-2.07V39.38z"/>
	<path d="M119.85,40.01c-0.33,0-0.52-0.23-0.52-0.63v-6.85c0-0.28,0.22-0.51,0.52-0.52h2.73c0.31,0,0.54,0.21,0.54,0.49
		c0,0.28-0.24,0.49-0.54,0.49h-2.2v2.51h1.93c0.31,0,0.54,0.21,0.54,0.49c0,0.28-0.23,0.49-0.54,0.49h-1.93v2.9
		C120.37,39.78,120.18,40.01,119.85,40.01 M119.85,32.28c-0.14,0.01-0.25,0.12-0.25,0.25v6.85c0,0.36,0.19,0.36,0.25,0.36
		c0.07,0,0.25,0,0.25-0.36v-3.17h2.2c0.16,0,0.27-0.09,0.27-0.22c0-0.13-0.11-0.22-0.27-0.22h-2.2v-3.05h2.47
		c0.16,0,0.27-0.09,0.27-0.22c0-0.13-0.11-0.22-0.27-0.22H119.85z"/>
	<path d="M130.32,39.1c0.25,0,0.41,0.16,0.41,0.35c0,0.19-0.16,0.36-0.41,0.36h-4.33c-0.44,0-0.65-0.18-0.65-0.43
		c0-0.15,0.1-0.34,0.31-0.67l3.85-5.86h-3.6c-0.25,0-0.41-0.16-0.41-0.36c0-0.19,0.16-0.36,0.41-0.36h4.32
		c0.27,0,0.37,0.15,0.37,0.29c0,0.12-0.05,0.25-0.15,0.39l-4.12,6.28H130.32z"/>
	<path d="M130.32,39.95h-4.33c-0.58,0-0.78-0.29-0.78-0.56c0-0.19,0.11-0.39,0.33-0.74l3.71-5.65h-3.35c-0.31,0-0.54-0.21-0.54-0.49
		c0-0.28,0.23-0.49,0.54-0.49h4.32c0.35,0,0.5,0.21,0.5,0.43c0,0.14-0.06,0.3-0.18,0.46l-3.98,6.07h3.76c0.31,0,0.54,0.21,0.54,0.49
		C130.86,39.74,130.63,39.95,130.32,39.95 M125.91,32.28c-0.16,0-0.28,0.09-0.28,0.22c0,0.13,0.11,0.22,0.28,0.22h3.84l-3.98,6.07
		c-0.18,0.29-0.29,0.47-0.29,0.6c0,0.26,0.32,0.3,0.51,0.3h4.33c0.16,0,0.27-0.09,0.27-0.22s-0.11-0.22-0.27-0.22h-4.25l4.26-6.49
		c0.09-0.12,0.13-0.23,0.13-0.31c0-0.1-0.08-0.16-0.23-0.16H125.91z"/>
	<path d="M135.88,36.6c0.25,0,0.41,0.16,0.41,0.36s-0.16,0.36-0.41,0.36h-2.09c-0.25,0-0.41-0.16-0.41-0.36s0.16-0.36,0.41-0.36
		H135.88z"/>
	<path d="M135.88,37.44h-2.09c-0.31,0-0.54-0.21-0.54-0.49c0-0.28,0.23-0.49,0.54-0.49h2.09c0.31,0,0.54,0.21,0.54,0.49
		C136.42,37.23,136.19,37.44,135.88,37.44 M133.79,36.73c-0.16,0-0.27,0.09-0.27,0.22s0.11,0.22,0.27,0.22h2.09
		c0.16,0,0.27-0.09,0.27-0.22s-0.11-0.22-0.27-0.22H133.79z"/>
	<path d="M140.12,39.1h2.02c0.25,0,0.41,0.16,0.41,0.35c0,0.19-0.16,0.36-0.41,0.36h-2.41c-0.22,0-0.39-0.17-0.39-0.39v-6.85
		c0-0.32,0.14-0.5,0.39-0.5s0.39,0.17,0.39,0.5V39.1z"/>
	<path d="M142.15,39.95h-2.41c-0.29,0-0.52-0.23-0.52-0.52v-6.85c0-0.39,0.2-0.63,0.52-0.63c0.33,0,0.52,0.24,0.52,0.63v6.39h1.89
		c0.31,0,0.54,0.21,0.54,0.49C142.69,39.74,142.46,39.95,142.15,39.95 M139.74,32.22c-0.07,0-0.25,0-0.25,0.36v6.85
		c0,0.14,0.11,0.25,0.25,0.25h2.41c0.16,0,0.27-0.09,0.27-0.22c0-0.13-0.11-0.22-0.27-0.22h-2.16v-6.66
		C139.99,32.22,139.8,32.22,139.74,32.22"/>
	<path d="M146.02,39.1h2.02c0.25,0,0.41,0.16,0.41,0.35c0,0.19-0.16,0.36-0.41,0.36h-2.41c-0.22,0-0.39-0.17-0.39-0.39v-6.85
		c0-0.32,0.14-0.5,0.39-0.5s0.39,0.17,0.39,0.5V39.1z"/>
	<path d="M148.04,39.95h-2.41c-0.29,0-0.52-0.23-0.52-0.52v-6.85c0-0.39,0.2-0.63,0.52-0.63c0.33,0,0.52,0.24,0.52,0.63v6.39h1.89
		c0.31,0,0.54,0.21,0.54,0.49C148.58,39.74,148.35,39.95,148.04,39.95 M145.63,32.22c-0.07,0-0.25,0-0.25,0.36v6.85
		c0,0.14,0.11,0.25,0.25,0.25h2.41c0.16,0,0.27-0.09,0.27-0.22c0-0.13-0.11-0.22-0.27-0.22h-2.16v-6.66
		C145.88,32.22,145.7,32.22,145.63,32.22"/>
	<path d="M156.52,33.24c0,0.27-0.18,0.41-0.35,0.41c-0.32,0-0.72-0.85-1.99-0.85c-1.61,0-2.49,1.73-2.49,3.3
		c0,1.58,0.78,3.08,2.63,3.08c1.35,0,1.76-0.75,2.04-0.75c0.19,0,0.32,0.12,0.32,0.39c0,0.33-0.99,1.08-2.4,1.08
		c-2.35,0-3.42-1.75-3.42-3.79c0-2.01,1.08-4.01,3.34-4.01C155.48,32.09,156.52,32.86,156.52,33.24"/>
	<path d="M154.28,40.01c-2.62,0-3.56-2.03-3.56-3.92c0-1.99,1.09-4.14,3.47-4.14c1.33,0,2.46,0.79,2.46,1.29
		c0,0.34-0.24,0.54-0.48,0.54c-0.16,0-0.29-0.11-0.46-0.25c-0.31-0.25-0.73-0.6-1.53-0.6c-1.47,0-2.35,1.61-2.35,3.16
		c0,1.42,0.65,2.94,2.49,2.94c0.88,0,1.33-0.33,1.63-0.55c0.16-0.12,0.27-0.2,0.41-0.2c0.29,0,0.46,0.19,0.46,0.52
		C156.81,39.23,155.77,40.01,154.28,40.01 M154.19,32.22c-2.21,0-3.2,1.94-3.2,3.87c0,1.77,0.86,3.65,3.29,3.65
		c1.41,0,2.27-0.75,2.27-0.94c0-0.25-0.13-0.25-0.19-0.25c-0.04,0-0.15,0.08-0.25,0.15c-0.31,0.23-0.82,0.6-1.79,0.6
		c-2.04,0-2.76-1.73-2.76-3.21c0-1.68,0.98-3.43,2.62-3.43c0.89,0,1.38,0.4,1.7,0.66c0.12,0.1,0.24,0.19,0.3,0.19
		c0.08,0,0.21-0.08,0.21-0.27C156.38,32.99,155.47,32.22,154.19,32.22"/>
	<g>
		<path d="M20.63,0c-1.76,0-3.22,1.32-3.39,3.07c-0.02,0.08-0.02,27.56,0,27.65c0.17,1.75,1.63,3.07,3.39,3.07
			c1.88,0,3.41-1.53,3.41-3.41c0-0.06,0-26.91,0-26.97C24.04,1.53,22.51,0,20.63,0z M21.56,30.67c-0.09,0.46-0.48,0.79-0.95,0.79
			c-0.47,0-0.87-0.33-0.95-0.79c0.01-0.06,0.01-27.49,0-27.55c0.08-0.46,0.48-0.79,0.95-0.79c0.47,0,0.86,0.33,0.95,0.79
			C21.55,3.19,21.55,30.61,21.56,30.67z"/>
		<path d="M11.85,0c-1.76,0-3.22,1.32-3.39,3.07c-0.02,0.08-0.02,16.16,0,16.24c0.17,1.75,1.63,3.07,3.39,3.07
			c1.88,0,3.41-1.53,3.41-3.41c0-0.06,0-15.51,0-15.57C15.26,1.53,13.73,0,11.85,0z M12.78,19.26c-0.09,0.46-0.48,0.79-0.95,0.79
			c-0.47,0-0.87-0.33-0.95-0.79c0.01-0.06,0.01-16.08,0-16.14c0.08-0.46,0.48-0.79,0.95-0.79c0.47,0,0.86,0.33,0.95,0.79
			C12.77,3.19,12.77,19.2,12.78,19.26z"/>
		<path d="M3.24,0C1.56,0,0.17,1.26,0.01,2.93C0,3.01,0,23.08,0.01,23.16c0.16,1.67,1.55,2.93,3.23,2.93c1.79,0,3.25-1.46,3.25-3.25
			c0-0.06,0-19.53,0-19.59C6.49,1.46,5.03,0,3.24,0z M4.13,23.11c-0.08,0.44-0.46,0.76-0.9,0.76c-0.45,0-0.83-0.32-0.9-0.75
			c0.01-0.06,0.01-20.08,0-20.14c0.08-0.44,0.45-0.75,0.9-0.75c0.44,0,0.82,0.32,0.9,0.76C4.12,3.04,4.12,23.05,4.13,23.11z"/>
		<path d="M57.09,6.02c-2.08,0-3.8,0.79-5.12,2.35c-1.32-1.56-3.05-2.35-5.13-2.35c-1.86,0-3.47,0.67-4.79,1.98
			c-1.31,1.32-1.98,2.93-1.98,4.78v7.86c0,0.45,0.16,0.84,0.48,1.14c0.32,0.32,0.7,0.48,1.14,0.48h0.04c0.44,0,0.82-0.16,1.14-0.47
			c0.32-0.31,0.48-0.7,0.48-1.15v-7.86c0-0.97,0.33-1.77,1.02-2.46c0.69-0.69,1.49-1.02,2.46-1.02c0.97,0,1.77,0.33,2.46,1.02
			c0.69,0.69,1.02,1.49,1.02,2.46v7.86c0,0.45,0.16,0.84,0.48,1.14c0.32,0.32,0.71,0.48,1.15,0.48h0.03c0.45,0,0.83-0.16,1.14-0.47
			c0.32-0.31,0.48-0.7,0.48-1.15v-7.86c0-0.97,0.33-1.77,1.02-2.46c0.69-0.69,1.49-1.02,2.46-1.02c0.98,0,1.79,0.33,2.48,1.02
			c0.69,0.69,1.02,1.49,1.02,2.46v7.86c0,0.45,0.16,0.84,0.48,1.14c0.31,0.32,0.69,0.48,1.14,0.48h0.03c0.45,0,0.83-0.16,1.15-0.48
			c0.31-0.31,0.47-0.69,0.47-1.14v-7.86c0-1.85-0.67-3.46-1.98-4.78C60.56,6.69,58.95,6.02,57.09,6.02z"/>
		<path d="M74.95,6.02c-2.23,0-4.16,0.8-5.74,2.38s-2.38,3.51-2.38,5.74s0.8,4.17,2.38,5.74s3.51,2.38,5.74,2.38
			c2.23,0,4.16-0.8,5.74-2.38c1.58-1.58,2.38-3.51,2.38-5.74s-0.8-4.17-2.38-5.74C79.11,6.82,77.18,6.02,74.95,6.02z M78.32,17.56
			c-0.94,0.94-2.04,1.4-3.37,1.4c-1.34,0-2.44-0.46-3.38-1.4c-0.94-0.94-1.39-2.05-1.39-3.37c0-1.34,0.45-2.44,1.39-3.39
			c0.94-0.94,2.05-1.4,3.39-1.4c1.33,0,2.44,0.46,3.37,1.4c0.94,0.94,1.4,2.05,1.4,3.39C79.72,15.52,79.26,16.62,78.32,17.56z"/>
		<path d="M98.02,6.02H98c-0.45,0-0.84,0.16-1.16,0.48c-0.32,0.32-0.48,0.71-0.48,1.15v7.82c0,0.98-0.33,1.8-1.02,2.49
			c-0.7,0.69-1.51,1.02-2.49,1.02c-0.99,0-1.81-0.33-2.5-1.02c-0.69-0.7-1.02-1.51-1.02-2.5V7.66c0-0.45-0.16-0.84-0.48-1.15
			c-0.32-0.32-0.7-0.48-1.14-0.48h-0.04c-0.44,0-0.82,0.16-1.14,0.48c-0.32,0.32-0.48,0.71-0.48,1.15v7.82
			c0,1.86,0.67,3.48,1.99,4.8c1.32,1.33,2.94,1.99,4.81,1.99c1.86,0,3.48-0.67,4.8-1.99c1.32-1.32,1.99-2.94,1.99-4.8V7.66
			c0-0.45-0.16-0.84-0.47-1.15C98.86,6.18,98.47,6.02,98.02,6.02z"/>
		<path d="M111.21,8.82c0.31-0.31,0.46-0.69,0.46-1.14V7.66c0-0.45-0.16-0.83-0.46-1.15c-0.32-0.32-0.71-0.48-1.16-0.48h-0.81
			c-1.71,0-3.18,0.61-4.38,1.81c-1.18,1.2-1.79,2.67-1.81,4.38v8.44c0,0.45,0.16,0.84,0.48,1.14c0.32,0.32,0.7,0.48,1.14,0.48h0.04
			c0.44,0,0.82-0.16,1.14-0.47c0.32-0.31,0.48-0.7,0.48-1.15v-8.43c0.01-0.82,0.29-1.49,0.85-2.07c0.57-0.57,1.25-0.85,2.06-0.85
			h0.81C110.5,9.31,110.89,9.14,111.21,8.82z"/>
		<path d="M116.66,0.15c-0.52,0-0.97,0.19-1.34,0.55c-0.37,0.37-0.55,0.81-0.55,1.33c0,0.52,0.19,0.97,0.55,1.34
			c0.36,0.37,0.81,0.55,1.34,0.55c0.51,0,0.96-0.19,1.32-0.55c0.38-0.37,0.57-0.82,0.57-1.34c0-0.52-0.19-0.96-0.56-1.33
			C117.62,0.33,117.18,0.15,116.66,0.15z"/>
		<path d="M116.69,6.02h-0.03c-0.45,0-0.83,0.16-1.16,0.48c-0.3,0.32-0.46,0.7-0.46,1.15v14.29c-0.01,0.82-0.29,1.5-0.87,2.07
			c-0.56,0.57-1.23,0.85-2.04,0.85h-0.83c-0.44,0-0.82,0.16-1.14,0.48c-0.32,0.32-0.48,0.7-0.48,1.14v0.04
			c0,0.44,0.16,0.82,0.48,1.14c0.32,0.32,0.7,0.48,1.14,0.48h0.83c1.71,0,3.18-0.61,4.37-1.81c1.18-1.19,1.79-2.66,1.81-4.38V7.66
			c0-0.45-0.16-0.83-0.47-1.15C117.53,6.18,117.14,6.02,116.69,6.02z"/>
		<path d="M130.12,6.02c-2.23,0-4.16,0.8-5.74,2.38c-1.58,1.58-2.38,3.51-2.38,5.74s0.8,4.17,2.38,5.74
			c1.58,1.58,3.51,2.38,5.74,2.38c1.8,0,3.43-0.54,4.84-1.61c0,0.45,0.17,0.82,0.48,1.13c0.32,0.32,0.7,0.48,1.14,0.48h0.04
			c0.44,0,0.82-0.16,1.14-0.47c0.32-0.31,0.48-0.7,0.48-1.15v-6.5c0-2.23-0.8-4.17-2.38-5.74C134.28,6.82,132.35,6.02,130.12,6.02z
			 M130.12,18.92c-1.33,0-2.44-0.45-3.38-1.39c-0.93-0.94-1.39-2.05-1.39-3.39c0-1.33,0.46-2.43,1.39-3.37
			c0.94-0.94,2.05-1.4,3.38-1.4c1.34,0,2.44,0.46,3.37,1.4c0.94,0.94,1.4,2.05,1.4,3.37c0,1.34-0.46,2.44-1.4,3.38
			C132.56,18.47,131.45,18.92,130.12,18.92z"/>
		<path d="M153.25,8.02c-1.32-1.33-2.94-1.99-4.8-1.99c-1.87,0-3.49,0.67-4.81,1.99c-1.32,1.32-1.99,2.94-1.99,4.81v7.82
			c0,0.45,0.16,0.84,0.48,1.14c0.32,0.32,0.7,0.48,1.14,0.48h0.04c0.44,0,0.82-0.16,1.14-0.47c0.32-0.31,0.48-0.7,0.48-1.15v-7.82
			c0-0.98,0.33-1.8,1.02-2.49c0.7-0.7,1.52-1.03,2.5-1.03c0.98,0,1.79,0.34,2.49,1.03c0.69,0.7,1.02,1.51,1.02,2.49v7.82
			c0,0.45,0.16,0.84,0.48,1.14c0.32,0.32,0.71,0.48,1.16,0.48h0.03c0.45,0,0.83-0.16,1.14-0.47c0.32-0.31,0.48-0.69,0.48-1.15v-7.82
			C155.24,10.96,154.57,9.34,153.25,8.02z"/>
	</g>
</g>
</svg>
