<svg xmlns="http://www.w3.org/2000/svg" viewBox="0 0 180.82 59.88">
<style type="text/css">.st0{fill:#1C415E;}.st1{fill:#FFFFFF;}.st2{fill:#007AFF;}</style>
<g>
<path class="st0" d="M180.82,52.33c0,4.17-3.38,7.55-7.55,7.55H7.55C3.38,59.88,0,56.5,0,52.33V7.55C0,3.38,3.38,0,7.55,0h165.72c4.17,0,7.55,3.38,7.55,7.55V52.33z"/>
<g>
<path class="st1" d="M52.55,39.48c-1.03,2.29-1.53,3.31-2.86,5.34c-1.86,2.83-4.47,6.34-7.71,6.37c-2.88,0.03-3.62-1.88-7.53-1.85c-3.91,0.02-4.72,1.89-7.6,1.86c-3.24-0.03-5.72-3.21-7.57-6.03c-5.19-7.9-5.73-17.17-2.53-22.1c2.28-3.5,5.86-5.55,9.24-5.55c3.43,0,5.59,1.88,8.43,1.88c2.75,0,4.43-1.89,8.4-1.89c3,0,6.18,1.63,8.45,4.46C43.84,26.03,45.04,36.64,52.55,39.48"/>
<path class="st1" d="M39.8,14.35c1.44-1.85,2.54-4.47,2.14-7.14c-2.36,0.16-5.12,1.66-6.72,3.62c-1.46,1.78-2.67,4.41-2.2,6.97C35.59,17.87,38.25,16.33,39.8,14.35"/>
</g>
<g>
<path class="st1" d="M68.39,26.46l-6.51,19.16h2.98l1.94-5.88h6.3l2,5.88h3.06l-6.54-19.16H68.39z M69.93,29.61c0.22,0.85,0.46,1.74,0.76,2.7l1.75,5.08h-4.99l1.73-5.11C69.45,31.45,69.7,30.55,69.93,29.61"/>
<path class="st1" d="M86.58,31.43c-1.97,0-3.55,0.76-4.61,2.21l-0.12-1.91h-2.65l0.02,0.24c0.08,1.19,0.11,2.5,0.11,4.37v14.76h2.9v-6.89c0.9,1.08,2.33,1.7,3.96,1.7c1.69,0,3.26-0.66,4.39-1.87c1.27-1.34,1.94-3.27,1.94-5.57c0-2.04-0.58-3.8-1.68-5.09C89.76,32.12,88.25,31.43,86.58,31.43 M85.86,33.82c2.58,0,3.74,2.39,3.74,4.77c0,3.06-1.48,4.96-3.85,4.96c-1.62,0-3.02-1.1-3.41-2.69c-0.07-0.25-0.1-0.57-0.1-0.94v-2.33c0-0.21,0.05-0.47,0.09-0.71c0.01-0.08,0.03-0.16,0.04-0.24C82.8,34.98,84.24,33.82,85.86,33.82"/>
<path class="st1" d="M101.51,31.43c-1.97,0-3.55,0.76-4.61,2.21l-0.11-1.91h-2.65l0.01,0.24c0.08,1.19,0.11,2.5,0.11,4.37v14.76h2.9v-6.89c0.9,1.08,2.33,1.7,3.96,1.7c1.69,0,3.26-0.66,4.39-1.87c1.27-1.34,1.94-3.27,1.94-5.57c0-2.04-0.58-3.8-1.68-5.09C104.69,32.12,103.18,31.43,101.51,31.43 M100.79,33.82c2.58,0,3.74,2.39,3.74,4.77c0,3.06-1.48,4.96-3.85,4.96c-1.62,0-3.02-1.1-3.41-2.69c-0.07-0.25-0.1-0.57-0.1-0.94v-2.33c0-0.21,0.05-0.47,0.09-0.72c0.01-0.08,0.03-0.15,0.04-0.23C97.72,34.98,99.16,33.82,100.79,33.82"/>
<path class="st1" d="M120.21,34.58c-2.71-1.05-3.57-1.87-3.57-3.39c0-1.28,1.02-2.57,3.29-2.57c1.88,0,3.08,0.65,3.4,0.85l0.25,0.15l0.82-2.42l-0.16-0.09c-0.48-0.29-1.87-0.95-4.22-0.95c-3.7,0-6.28,2.18-6.28,5.31c0,2.52,1.62,4.28,5.09,5.54c2.46,0.92,3.38,1.86,3.38,3.47c0,1.83-1.41,2.96-3.68,2.96c-1.48,0-3-0.43-4.18-1.18l-0.25-0.16l-0.78,2.47l0.14,0.1c1.09,0.73,3.15,1.26,4.9,1.26c4.98,0,6.75-3.04,6.75-5.64C125.09,37.6,123.68,35.95,120.21,34.58"/>
<path class="st1" d="M130.31,28.43l-2.84,0.89v2.41h-2.08v2.32h2.08v7.1c0,1.72,0.33,2.92,1,3.68c0.65,0.71,1.64,1.1,2.8,1.1c1.1,0,1.87-0.22,2.24-0.35l0.16-0.06l-0.14-2.32l-0.28,0.08c-0.37,0.11-0.74,0.16-1.35,0.16c-1.12,0-1.6-0.71-1.6-2.38v-7.01h3.5v-2.32h-3.5V28.43z"/>
<path class="st1" d="M140.99,31.43c-4.05,0-6.89,3.03-6.89,7.36c0,4.2,2.74,7.14,6.67,7.14h0.03c3.32,0,6.89-2.31,6.89-7.39c0-2.06-0.64-3.84-1.85-5.13C144.62,32.11,142.94,31.43,140.99,31.43 M140.91,33.71c2.61,0,3.79,2.54,3.79,4.91c0,2.91-1.62,5.01-3.85,5.01h-0.03c-2.2,0-3.79-2.07-3.79-4.93C137.03,36.22,138.23,33.71,140.91,33.71"/>
<path class="st1" d="M156.56,31.56l-0.17-0.04c-0.26-0.06-0.46-0.09-0.72-0.09c-1.52,0-2.88,0.89-3.63,2.33l-0.08-2.03h-2.6l0.02,0.24c0.08,1.15,0.11,2.44,0.11,4.17l-0.03,9.47h2.9v-7.39c0-0.4,0.03-0.78,0.08-1.12c0.33-1.77,1.52-2.92,3.05-2.92c0.3,0,0.53,0.02,0.78,0.05l0.31,0.03V31.56z"/>
<path class="st1" d="M163.07,31.4c-3.86,0-6.55,3.08-6.55,7.5c0,4.25,2.68,7,6.83,7c2.18,0,3.7-0.48,4.59-0.88l0.17-0.08l-0.56-2.16l-0.24,0.1c-0.79,0.32-1.84,0.65-3.63,0.65c-1.26,0-4.16-0.42-4.34-4.2l9.36,0.03l0.04-0.18c0.06-0.29,0.09-0.69,0.09-1.21C168.82,34.93,167.32,31.4,163.07,31.4 M162.88,33.6c0.88,0,1.6,0.27,2.13,0.81c0.83,0.85,0.98,2.1,1,2.7h-6.61C159.67,35.44,160.71,33.6,162.88,33.6"/>
</g>
<g>
<path class="st2" d="M71.39,11.66c-1.16,0-2.12,0.44-2.86,1.31c-0.74-0.87-1.7-1.31-2.86-1.31c-1.04,0-1.94,0.37-2.67,1.11c-0.73,0.74-1.1,1.64-1.1,2.67v4.39c0,0.25,0.09,0.47,0.27,0.64c0.18,0.18,0.39,0.27,0.64,0.27h0.02c0.25,0,0.46-0.09,0.63-0.26c0.18-0.17,0.27-0.39,0.27-0.64v-4.39c0-0.54,0.19-0.99,0.57-1.37c0.38-0.38,0.83-0.57,1.37-0.57s0.99,0.18,1.37,0.57c0.38,0.38,0.57,0.83,0.57,1.37v4.39c0,0.25,0.09,0.47,0.27,0.64c0.18,0.18,0.39,0.27,0.64,0.27h0.02c0.25,0,0.47-0.09,0.63-0.26c0.18-0.17,0.27-0.39,0.27-0.64v-4.39c0-0.54,0.19-0.99,0.57-1.37c0.38-0.38,0.83-0.57,1.37-0.57c0.55,0,1,0.18,1.38,0.57c0.38,0.38,0.57,0.83,0.57,1.37v4.39c0,0.25,0.09,0.47,0.27,0.63c0.17,0.18,0.39,0.27,0.64,0.27h0.02c0.25,0,0.47-0.09,0.64-0.27c0.17-0.17,0.26-0.38,0.26-0.64v-4.39c0-1.03-0.37-1.93-1.11-2.67C73.33,12.03,72.43,11.66,71.39,11.66z"/>
<path class="st2" d="M81.36,11.66c-1.24,0-2.32,0.45-3.2,1.33s-1.33,1.96-1.33,3.21s0.45,2.32,1.33,3.21s1.96,1.33,3.2,1.33c1.24,0,2.32-0.45,3.2-1.33c0.88-0.88,1.33-1.96,1.33-3.21s-0.45-2.32-1.33-3.21C83.68,12.11,82.6,11.66,81.36,11.66z M83.24,18.1c-0.52,0.53-1.14,0.78-1.88,0.78c-0.74,0-1.36-0.26-1.89-0.78c-0.52-0.53-0.78-1.14-0.78-1.88c0-0.75,0.25-1.36,0.77-1.89c0.53-0.53,1.14-0.78,1.89-0.78c0.74,0,1.36,0.25,1.88,0.78c0.53,0.53,0.78,1.15,0.78,1.89C84.02,16.96,83.76,17.57,83.24,18.1z"/>
<path class="st2" d="M94.23,11.66h-0.02c-0.25,0-0.47,0.09-0.64,0.27c-0.18,0.18-0.27,0.39-0.27,0.64v4.36c0,0.55-0.19,1-0.57,1.39c-0.39,0.38-0.84,0.57-1.39,0.57c-0.55,0-1.01-0.19-1.4-0.57c-0.38-0.39-0.57-0.85-0.57-1.39v-4.36c0-0.25-0.09-0.47-0.27-0.64c-0.18-0.18-0.39-0.27-0.64-0.27h-0.02c-0.25,0-0.46,0.09-0.64,0.27c-0.18,0.18-0.27,0.39-0.27,0.64v4.36c0,1.04,0.38,1.94,1.11,2.68c0.74,0.74,1.64,1.11,2.69,1.11c1.04,0,1.94-0.37,2.68-1.11c0.74-0.74,1.11-1.64,1.11-2.68v-4.36c0-0.25-0.09-0.47-0.26-0.64C94.7,11.75,94.48,11.66,94.23,11.66z"/>
<path class="st2" d="M101.59,13.22c0.17-0.17,0.26-0.39,0.26-0.64v-0.02c0-0.25-0.09-0.46-0.26-0.64c-0.18-0.18-0.39-0.27-0.64-0.27h-0.45c-0.95,0-1.78,0.34-2.45,1.01c-0.66,0.67-1,1.49-1.01,2.44v4.71c0,0.25,0.09,0.47,0.27,0.64c0.18,0.18,0.39,0.27,0.64,0.27h0.02c0.24,0,0.46-0.09,0.63-0.26c0.18-0.17,0.27-0.39,0.27-0.64v-4.7c0-0.46,0.16-0.83,0.47-1.15c0.32-0.32,0.7-0.47,1.15-0.47h0.45C101.19,13.49,101.41,13.4,101.59,13.22z"/>
<path class="st2" d="M104.63,8.38c-0.29,0-0.54,0.1-0.75,0.31c-0.2,0.2-0.31,0.45-0.31,0.74c0,0.29,0.1,0.54,0.31,0.75c0.2,0.2,0.45,0.31,0.75,0.31c0.29,0,0.54-0.1,0.74-0.31c0.21-0.2,0.32-0.46,0.32-0.75c0-0.29-0.11-0.54-0.31-0.74C105.17,8.49,104.92,8.38,104.63,8.38z"/>
<path class="st2" d="M104.65,11.66h-0.02c-0.25,0-0.47,0.09-0.65,0.27c-0.17,0.18-0.26,0.39-0.26,0.64v7.98c0,0.46-0.16,0.84-0.48,1.15c-0.31,0.32-0.69,0.47-1.14,0.47h-0.46c-0.24,0-0.46,0.09-0.64,0.27c-0.18,0.18-0.27,0.39-0.27,0.64v0.02c0,0.25,0.09,0.46,0.27,0.64c0.18,0.18,0.39,0.27,0.64,0.27h0.46c0.95,0,1.77-0.34,2.44-1.01c0.66-0.66,1-1.49,1.01-2.45v-7.98c0-0.25-0.09-0.46-0.26-0.64C105.11,11.75,104.9,11.66,104.65,11.66z"/>
<path class="st2" d="M112.14,11.66c-1.24,0-2.32,0.45-3.2,1.33c-0.88,0.88-1.33,1.96-1.33,3.21s0.45,2.32,1.33,3.21c0.88,0.88,1.96,1.33,3.2,1.33c1.01,0,1.91-0.3,2.7-0.9c0,0.25,0.09,0.46,0.27,0.63c0.18,0.18,0.39,0.27,0.64,0.27h0.02c0.25,0,0.46-0.09,0.63-0.26c0.18-0.17,0.27-0.39,0.27-0.64v-3.63c0-1.25-0.45-2.32-1.33-3.21C114.46,12.11,113.38,11.66,112.14,11.66z M112.14,18.86c-0.74,0-1.36-0.25-1.89-0.77c-0.52-0.53-0.78-1.15-0.78-1.89c0-0.74,0.25-1.35,0.78-1.88c0.53-0.53,1.14-0.78,1.89-0.78c0.74,0,1.36,0.26,1.88,0.78c0.53,0.53,0.78,1.14,0.78,1.88c0,0.75-0.26,1.36-0.78,1.89C113.5,18.61,112.88,18.86,112.14,18.86z"/>
<path class="st2" d="M125.04,12.77c-0.74-0.74-1.64-1.11-2.68-1.11c-1.04,0-1.95,0.37-2.69,1.11c-0.74,0.74-1.11,1.64-1.11,2.69v4.36c0,0.25,0.09,0.47,0.27,0.64c0.18,0.18,0.39,0.27,0.64,0.27h0.02c0.25,0,0.46-0.09,0.63-0.26c0.18-0.17,0.27-0.39,0.27-0.64v-4.36c0-0.55,0.19-1,0.57-1.39c0.39-0.39,0.85-0.58,1.4-0.58c0.55,0,1,0.19,1.39,0.58c0.38,0.39,0.57,0.84,0.57,1.39v4.36c0,0.25,0.09,0.47,0.27,0.64c0.18,0.18,0.39,0.27,0.64,0.27h0.02c0.25,0,0.47-0.09,0.63-0.26c0.18-0.17,0.27-0.39,0.27-0.64v-4.36C126.16,14.42,125.78,13.51,125.04,12.77z"/>
</g>
<g>
<path class="st1" d="M129.77,20.68l2.97-7.97h1.52l2.99,7.97h-1.75l-0.55-1.64h-2.89l-0.55,1.64H129.77z M132.51,17.7h2l-1-3L132.51,17.7z"/>
<path class="st1" d="M141.37,17.86h-1.47v2.82h-1.65V12.7h3.12c0.94,0,1.68,0.25,2.21,0.75c0.53,0.5,0.79,1.13,0.79,1.89c0,0.77-0.26,1.38-0.79,1.84C143.04,17.63,142.31,17.86,141.37,17.86z M139.9,14.03v2.5h1.47c0.47,0,0.81-0.11,1.02-0.33c0.21-0.22,0.31-0.51,0.31-0.85s-0.1-0.65-0.31-0.92c-0.21-0.26-0.55-0.4-1.02-0.4H139.9z"/>
<path class="st1" d="M148.87,17.86h-1.47v2.82h-1.65V12.7h3.12c0.94,0,1.68,0.25,2.21,0.75c0.53,0.5,0.79,1.13,0.79,1.89c0,0.77-0.26,1.38-0.79,1.84C150.54,17.63,149.81,17.86,148.87,17.86z M147.4,14.03v2.5h1.47c0.47,0,0.81-0.11,1.02-0.33c0.21-0.22,0.31-0.51,0.31-0.85s-0.1-0.65-0.31-0.92c-0.21-0.26-0.55-0.4-1.02-0.4H147.4z"/>
<path class="st1" d="M155.95,17.77v-0.11c0-0.86,0.25-1.58,0.73-2.16c0.49-0.58,1.18-0.86,2.07-0.86c0.9,0,1.6,0.29,2.08,0.86c0.49,0.58,0.73,1.29,0.73,2.16v0.11c0,0.86-0.24,1.58-0.73,2.15s-1.18,0.86-2.07,0.86c-0.9,0-1.59-0.29-2.08-0.86S155.95,18.64,155.95,17.77z M157.54,17.66v0.11c0,0.48,0.09,0.89,0.28,1.23c0.18,0.34,0.5,0.51,0.95,0.51c0.44,0,0.75-0.17,0.94-0.51c0.18-0.34,0.28-0.75,0.28-1.23v-0.11c0-0.47-0.09-0.88-0.28-1.22s-0.5-0.52-0.95-0.52c-0.45,0-0.76,0.17-0.94,0.52S157.54,17.19,157.54,17.66z"/>
<path class="st1" d="M165.35,15.92c-0.45,0-0.78,0.19-1,0.57v4.18h-1.58v-5.93h1.48l0.06,0.68c0.42-0.53,0.99-0.79,1.7-0.79c0.56,0,1.01,0.17,1.36,0.5c0.34,0.34,0.51,0.92,0.51,1.76v3.77h-1.59V16.9c0-0.38-0.08-0.64-0.24-0.77C165.89,15.99,165.66,15.92,165.35,15.92z"/>
</g>
</g>
</svg>