<svg version="1.1" id="Layer_1" xmlns="http://www.w3.org/2000/svg" xmlns:xlink="http://www.w3.org/1999/xlink" viewBox="0 0 180.52 59.78">
<style type="text/css">.s1{clip-path:url(#S_2_);fill:url(#S_3_);}
    .s2{clip-path:url(#S_5_);fill:url(#S_6_);}.s3{clip-path:url(#S_8_);fill:url(#S_9_);}
    .s4{clip-path:url(#S_11_);fill:url(#S_12_);}.st5{fill:#F9F9F9;}.s6{fill:#007AFF;}.s7{fill:#FFFFFF;}</style>
<path d="M180.52,52.24c0,4.16-3.38,7.54-7.54,7.54H7.54C3.38,59.78,0,56.4,0,52.24V7.54C0,3.38,3.38,0,7.54,0h165.44c4.16,0,7.54,3.38,7.54,7.54V52.24z" fill="#1C415E"/>
<g><g>
<defs><path id="S_1_" d="M16.85,9.76v20.45v20.87c0,0.5,0.22,0.83,0.56,0.95l22-21.82L17.6,8.58C17.16,8.71,16.85,9.1,16.85,9.76"/></defs>
<clipPath id="S_2_"><use xlink:href="#S_1_" style="overflow:visible;"/></clipPath>		
<linearGradient id="S_3_" gradientUnits="userSpaceOnUse" x1="-232.4178" y1="2221.7295" x2="-231.2333" y2="2221.7295" gradientTransform="matrix(0 37.7736 37.7736 0 -83894.5703 8787.1035)"><stop offset="0" style="stop-color:#257DAC"/><stop offset="0.1789" style="stop-color:#388CAE"/><stop offset="0.7321" style="stop-color:#6FB9B5"/><stop offset="1" style="stop-color:#85CAB8"/></linearGradient>
<rect x="16.85" y="8.58" class="s1" width="22.56" height="43.45"/>
</g><g>
<defs>
<path id="S_4_" d="M17.6,8.58l21.82,21.63l6.06-6.01l-9.11-5.26c0,0-0.04-0.02-0.11-0.06c-0.01-0.01-0.02-0.01-0.04-0.02h0c0,0-0.01-0.01-0.02-0.01l-0.01,0c0,0-0.01,0-0.01-0.01l-0.04-0.02c0,0,0,0,0,0L18.75,8.78c-0.29-0.16-0.58-0.24-0.84-0.24C17.8,8.54,17.69,8.56,17.6,8.58"/></defs>
<clipPath id="S_5_"><use xlink:href="#S_4_" style="overflow:visible;"/></clipPath>
<linearGradient id="S_6_" gradientUnits="userSpaceOnUse" x1="-213.297" y1="2323.5508" x2="-212.1125" y2="2323.5508" gradientTransform="matrix(24.1637 0 0 -24.1637 5170.8926 56164.9141)"><stop offset="0" style="stop-color:#51BBA8"/><stop offset="1" style="stop-color:#DAE495"/></linearGradient>
<rect x="17.6" y="8.54" class="s2" width="27.88" height="21.68"/>
</g><g>
<defs><path id="S_7_" d="M17.41,52.04c0.26,0.09,0.59,0.05,0.94-0.15l3.76-2.17c4.63-2.68,12.12-7,13.87-8.01L36,41.7c0.05-0.03,0.1-0.06,0.14-0.08l0.01-0.01c0,0,0,0,0,0l0.02-0.01c0.01,0,0.02-0.01,0.02-0.01l0.02-0.01c0,0,0.01,0,0.01-0.01l0.13-0.07c0,0,0,0,0,0l0,0c0,0,0,0,0,0h0l9.11-5.26l-6.06-6.01L17.41,52.04z"/></defs>
<clipPath id="S_8_"><use xlink:href="#S_7_" style="overflow:visible;"/></clipPath>		
<linearGradient id="S_9_" gradientUnits="userSpaceOnUse" x1="-283.3225" y1="2201.1895" x2="-282.138" y2="2201.1895" gradientTransform="matrix(0 19.0239 19.0239 0 -41843.6797 5420.1074)"><stop offset="0" style="stop-color:#E7403D"/><stop offset="0.1937" style="stop-color:#D24251"/><stop offset="0.7369" style="stop-color:#9B4884"/><stop offset="1" style="stop-color:#854A98"/></linearGradient>
<rect x="17.41" y="30.22" class="s3" width="28.06" height="21.9"/>
</g><g>
<defs><path id="S_10_" d="M39.42,30.22l6.06,6.01l0.13-0.07c0,0,0.01,0,0.01-0.01l0.03-0.02c0.04-0.02,0.08-0.05,0.13-0.08l0.02-0.01c0.01,0,0.02-0.01,0.02-0.01l0.06-0.03c0.01,0,0.02-0.01,0.03-0.01l0.01,0c0.04-0.03,0.09-0.05,0.14-0.08l8.24-4.76c0.92-0.57,0.84-1.32,0.07-1.78l-0.06-0.03c-0.01,0-0.02-0.01-0.03-0.01c-0.87-0.47-8.82-5.09-8.82-5.09L39.42,30.22z"/></defs>
<clipPath id="S_11_"><use xlink:href="#S_10_" style="overflow:visible;"/></clipPath>		
<linearGradient id="S_12_" gradientUnits="userSpaceOnUse" x1="-373.3227" y1="2165.1348" x2="-372.1382" y2="2165.1348" gradientTransform="matrix(0 10.1455 10.1455 0 -21919.0176 3811.7495)"><stop offset="0" style="stop-color:#F08379"/><stop offset="0.6121" style="stop-color:#F6AC76"/><stop offset="1" style="stop-color:#F9C274"/></linearGradient>
<rect x="39.42" y="24.21" class="s4" width="15.8" height="12.02"/>
</g></g>
<path class="st5" d="M142.71,41.01c-0.72,0-1.37-0.13-1.96-0.4c-0.59-0.26-1.09-0.67-1.49-1.22h-0.12c0.08,0.64,0.12,1.25,0.12,1.82v4.52h-1.66V29.82h1.35l0.23,1.5h0.08c0.43-0.6,0.93-1.04,1.49-1.3c0.57-0.27,1.22-0.4,1.95-0.4c1.46,0,2.58,0.5,3.37,1.49c0.79,0.99,1.19,2.39,1.19,4.19c0,1.8-0.4,3.2-1.21,4.2C145.26,40.51,144.14,41.01,142.71,41.01 M142.47,31.04c-1.12,0-1.93,0.31-2.44,0.93s-0.76,1.61-0.77,2.97v0.37c0,1.54,0.26,2.65,0.77,3.31c0.52,0.66,1.34,1,2.47,1c0.95,0,1.69-0.38,2.23-1.15c0.54-0.77,0.81-1.83,0.81-3.18c0-1.37-0.27-2.42-0.81-3.15C144.2,31.4,143.44,31.04,142.47,31.04"/>
<rect x="149.46" y="25.21" class="st5" width="1.66" height="15.6"/>
<path class="st5" d="M160.69,40.81l-0.33-1.56h-0.08c-0.55,0.69-1.09,1.16-1.64,1.4c-0.54,0.24-1.22,0.37-2.04,0.37c-1.09,0-1.94-0.28-2.56-0.84c-0.62-0.56-0.93-1.36-0.93-2.4c0-2.22,1.77-3.38,5.32-3.49l1.86-0.06v-0.68c0-0.86-0.19-1.5-0.56-1.91s-0.96-0.62-1.78-0.62c-0.92,0-1.95,0.28-3.11,0.84l-0.51-1.27c0.54-0.29,1.13-0.52,1.78-0.69c0.64-0.17,1.29-0.25,1.94-0.25c1.31,0,2.28,0.29,2.91,0.87c0.63,0.58,0.95,1.51,0.95,2.8v7.5H160.69z M156.93,39.64c1.04,0,1.85-0.28,2.44-0.85c0.59-0.57,0.89-1.36,0.89-2.39v-0.99l-1.66,0.07c-1.32,0.05-2.28,0.25-2.86,0.62c-0.58,0.36-0.88,0.93-0.88,1.7c0,0.6,0.18,1.06,0.55,1.37C155.76,39.48,156.27,39.64,156.93,39.64"/>
<path class="st5" d="M162.88,29.82h1.78l2.41,6.27c0.53,1.43,0.86,2.46,0.98,3.1h0.08c0.09-0.34,0.27-0.92,0.55-1.75c0.28-0.82,1.18-3.36,2.72-7.61h1.78l-4.72,12.51c-0.47,1.24-1.01,2.11-1.64,2.63c-0.62,0.52-1.39,0.77-2.3,0.77c-0.51,0-1.01-0.06-1.5-0.17v-1.33c0.37,0.08,0.78,0.12,1.23,0.12c1.14,0,1.96-0.64,2.45-1.93l0.61-1.56L162.88,29.82z"/>
<path class="st5" d="M111.89,30.84c0.53,0.44,1.63,1.36,1.63,3.1c0,1.7-0.96,2.5-1.93,3.26c-0.3,0.3-0.64,0.62-0.64,1.13c0,0.5,0.34,0.78,0.6,0.99l0.83,0.64c1.01,0.85,1.93,1.63,1.93,3.22c0,2.16-2.09,4.34-6.04,4.34c-3.33,0-4.94-1.58-4.94-3.29c0-0.83,0.41-2,1.77-2.8c1.42-0.87,3.35-0.99,4.39-1.06c-0.32-0.41-0.69-0.85-0.69-1.56c0-0.39,0.12-0.62,0.23-0.9c-0.25,0.02-0.51,0.05-0.74,0.05c-2.44,0-3.81-1.82-3.81-3.61c0-1.06,0.48-2.23,1.47-3.08c1.31-1.08,2.87-1.26,4.11-1.26h4.73l-1.47,0.83H111.89z M110.25,41.05c-0.18-0.02-0.3-0.02-0.53-0.02c-0.21,0-1.45,0.05-2.41,0.37c-0.51,0.18-1.98,0.73-1.98,2.37c0,1.63,1.59,2.8,4.05,2.8c2.2,0,3.38-1.06,3.38-2.48C112.76,42.91,112,42.29,110.25,41.05 M110.92,36.68c0.53-0.53,0.57-1.26,0.57-1.68c0-1.65-0.99-4.23-2.89-4.23c-0.6,0-1.24,0.3-1.61,0.76c-0.39,0.48-0.51,1.1-0.51,1.7c0,1.54,0.9,4.09,2.87,4.09C109.93,37.32,110.55,37.05,110.92,36.68"/>
<path class="st5" d="M97.42,40.68c-3.65,0-5.6-2.84-5.6-5.41c0-3.01,2.45-5.57,5.94-5.57c3.37,0,5.48,2.64,5.48,5.41C103.25,37.81,101.16,40.68,97.42,40.68 M100.29,38.82c0.55-0.73,0.69-1.65,0.69-2.55c0-2.02-0.96-5.87-3.81-5.87c-0.76,0-1.51,0.3-2.06,0.78c-0.89,0.8-1.06,1.81-1.06,2.8c0,2.27,1.12,6.01,3.9,6.01C98.84,39.99,99.76,39.55,100.29,38.82"/>
<path class="st5" d="M84.99,40.68c-3.65,0-5.6-2.84-5.6-5.41c0-3.01,2.46-5.57,5.94-5.57c3.37,0,5.48,2.64,5.48,5.41C90.81,37.81,88.73,40.68,84.99,40.68 M87.85,38.82c0.55-0.73,0.69-1.65,0.69-2.55c0-2.02-0.96-5.87-3.81-5.87c-0.76,0-1.51,0.3-2.06,0.78c-0.9,0.8-1.06,1.81-1.06,2.8c0,2.27,1.12,6.01,3.9,6.01C86.41,39.99,87.33,39.55,87.85,38.82"/>
<path class="st5" d="M77.64,40.32l-3.3,0.76c-1.34,0.21-2.54,0.39-3.8,0.39c-6.37,0-8.79-4.68-8.79-8.35c0-4.47,3.43-8.62,9.32-8.62c1.24,0,2.44,0.18,3.53,0.48c1.73,0.48,2.54,1.08,3.04,1.43l-1.92,1.82l-0.81,0.18l0.58-0.92c-0.78-0.76-2.22-2.17-4.94-2.17c-3.65,0-6.39,2.77-6.39,6.8c0,4.33,3.14,8.42,8.16,8.42c1.48,0,2.24-0.3,2.93-0.58v-3.71l-3.48,0.18l1.84-0.99h4.89l-0.6,0.58c-0.16,0.14-0.19,0.19-0.23,0.37c-0.02,0.21-0.05,0.88-0.05,1.11V40.32z"/>
<path class="st5" d="M119.18,39.65c-0.76-0.07-0.92-0.21-0.92-1.11v-0.25v-12.8c0.01-0.05,0.01-0.1,0.01-0.15c0.09-0.81,0.32-0.94,1.04-1.36h-3.3l-1.73,0.83h1.76v0.01l0-0.01v13.48v0.76c0,0.46-0.09,0.53-0.62,1.22h4.08l0.85-0.51C119.96,39.72,119.57,39.7,119.18,39.65"/>
<path class="st5" d="M128.56,39.87c-0.25,0.14-0.5,0.3-0.75,0.41c-0.76,0.34-1.54,0.43-2.22,0.43c-0.73,0-1.88-0.05-3.05-0.89c-1.62-1.15-2.33-3.12-2.33-4.83c0-3.55,2.89-5.29,5.24-5.29c0.82,0,1.67,0.21,2.36,0.64c1.14,0.75,1.44,1.74,1.6,2.27l-5.38,2.18l-1.76,0.14c0.57,2.91,2.54,4.6,4.72,4.6c1.17,0,2.01-0.41,2.79-0.8L128.56,39.87z M126.41,33.04c0.43-0.16,0.66-0.3,0.66-0.62c0-0.92-1.03-1.97-2.27-1.97c-0.92,0-2.63,0.71-2.63,3.18c0,0.39,0.05,0.8,0.07,1.21L126.41,33.04z"/>
<polygon class="st5" points="130.77,29.85 130.77,31.37 130.59,31.37 130.59,29.85 130.09,29.85 130.09,29.7 131.27,29.7 131.27,29.85 "/>
<polygon class="st5" points="132.83,31.37 132.83,29.84 132.82,29.84 132.36,31.37 132.21,31.37 131.74,29.84 131.74,29.84 131.74,31.37 131.57,31.37 131.57,29.7 131.86,29.7 132.28,31.05 132.29,31.05 132.71,29.7 133,29.7 133,31.37 "/>
<g>
<path class="s6" d="M72.9,9.43c-1.16,0-2.12,0.44-2.86,1.31c-0.74-0.87-1.7-1.31-2.86-1.31c-1.04,0-1.94,0.37-2.67,1.11c-0.73,0.74-1.1,1.64-1.1,2.67v4.39c0,0.25,0.09,0.47,0.27,0.64c0.18,0.18,0.39,0.27,0.64,0.27h0.02c0.25,0,0.46-0.09,0.63-0.26c0.18-0.17,0.27-0.39,0.27-0.64v-4.39c0-0.54,0.19-0.99,0.57-1.37c0.38-0.38,0.83-0.57,1.37-0.57s0.99,0.18,1.37,0.57c0.38,0.38,0.57,0.83,0.57,1.37v4.39c0,0.25,0.09,0.47,0.27,0.64c0.18,0.18,0.39,0.27,0.64,0.27h0.02c0.25,0,0.47-0.09,0.63-0.26c0.18-0.17,0.27-0.39,0.27-0.64v-4.39c0-0.54,0.19-0.99,0.57-1.37c0.38-0.38,0.83-0.57,1.37-0.57c0.55,0,1,0.18,1.38,0.57c0.38,0.38,0.57,0.83,0.57,1.37v4.39c0,0.25,0.09,0.47,0.27,0.63c0.17,0.18,0.39,0.27,0.64,0.27h0.02c0.25,0,0.47-0.09,0.64-0.27c0.17-0.17,0.26-0.38,0.26-0.64v-4.39c0-1.03-0.37-1.93-1.11-2.67C74.84,9.81,73.94,9.43,72.9,9.43z"/>
<path class="s6" d="M82.86,9.43c-1.24,0-2.32,0.45-3.2,1.33s-1.33,1.96-1.33,3.21s0.45,2.32,1.33,3.21s1.96,1.33,3.2,1.33c1.24,0,2.32-0.45,3.2-1.33c0.88-0.88,1.33-1.96,1.33-3.21s-0.45-2.32-1.33-3.21C85.19,9.88,84.11,9.43,82.86,9.43z M84.74,15.87c-0.52,0.53-1.14,0.78-1.88,0.78c-0.74,0-1.36-0.26-1.89-0.78c-0.52-0.53-0.78-1.14-0.78-1.88c0-0.75,0.25-1.36,0.77-1.89c0.53-0.53,1.14-0.78,1.89-0.78c0.74,0,1.36,0.25,1.88,0.78c0.53,0.53,0.78,1.15,0.78,1.89C85.53,14.73,85.27,15.35,84.74,15.87z"/>
<path class="s6" d="M95.74,9.43h-0.02c-0.25,0-0.47,0.09-0.64,0.27c-0.18,0.18-0.27,0.39-0.27,0.64v4.36c0,0.55-0.19,1-0.57,1.39c-0.39,0.38-0.84,0.57-1.39,0.57c-0.55,0-1.01-0.19-1.4-0.57c-0.38-0.39-0.57-0.85-0.57-1.39v-4.36c0-0.25-0.09-0.47-0.27-0.64c-0.18-0.18-0.39-0.27-0.64-0.27h-0.02c-0.25,0-0.46,0.09-0.64,0.27c-0.18,0.18-0.27,0.39-0.27,0.64v4.36c0,1.04,0.38,1.94,1.11,2.68c0.74,0.74,1.64,1.11,2.69,1.11c1.04,0,1.94-0.37,2.68-1.11c0.74-0.74,1.11-1.64,1.11-2.68v-4.36c0-0.25-0.09-0.47-0.26-0.64C96.21,9.52,95.99,9.43,95.74,9.43z"/>
<path class="s6" d="M103.09,11c0.17-0.17,0.26-0.39,0.26-0.64v-0.02c0-0.25-0.09-0.46-0.26-0.64c-0.18-0.18-0.39-0.27-0.64-0.27H102c-0.95,0-1.78,0.34-2.45,1.01c-0.66,0.67-1,1.49-1.01,2.44v4.71c0,0.25,0.09,0.47,0.27,0.64c0.18,0.18,0.39,0.27,0.64,0.27h0.02c0.24,0,0.46-0.09,0.63-0.26c0.18-0.17,0.27-0.39,0.27-0.64v-4.7c0-0.46,0.16-0.83,0.47-1.15c0.32-0.32,0.7-0.47,1.15-0.47h0.45C102.7,11.27,102.92,11.17,103.09,11z"/>
<path class="s6" d="M106.14,6.15c-0.29,0-0.54,0.1-0.75,0.31c-0.2,0.2-0.31,0.45-0.31,0.74c0,0.29,0.1,0.54,0.31,0.75c0.2,0.2,0.45,0.31,0.75,0.31c0.29,0,0.54-0.1,0.74-0.31c0.21-0.2,0.32-0.46,0.32-0.75c0-0.29-0.11-0.54-0.31-0.74C106.68,6.26,106.43,6.15,106.14,6.15z"/>
<path class="s6" d="M106.16,9.43h-0.02c-0.25,0-0.47,0.09-0.65,0.27c-0.17,0.18-0.26,0.39-0.26,0.64v7.98c0,0.46-0.16,0.84-0.48,1.15c-0.31,0.32-0.69,0.47-1.14,0.47h-0.46c-0.24,0-0.46,0.09-0.64,0.27c-0.18,0.18-0.27,0.39-0.27,0.64v0.02c0,0.25,0.09,0.46,0.27,0.64c0.18,0.18,0.39,0.27,0.64,0.27h0.46c0.95,0,1.77-0.34,2.44-1.01c0.66-0.66,1-1.49,1.01-2.45v-7.98c0-0.25-0.09-0.46-0.26-0.64C106.62,9.52,106.41,9.43,106.16,9.43z"/>
<path class="s6" d="M113.65,9.43c-1.24,0-2.32,0.45-3.2,1.33c-0.88,0.88-1.33,1.96-1.33,3.21s0.45,2.32,1.33,3.21c0.88,0.88,1.96,1.33,3.2,1.33c1.01,0,1.91-0.3,2.7-0.9c0,0.25,0.09,0.46,0.27,0.63c0.18,0.18,0.39,0.27,0.64,0.27h0.02c0.25,0,0.46-0.09,0.63-0.26c0.18-0.17,0.27-0.39,0.27-0.64v-3.63c0-1.25-0.45-2.32-1.33-3.21C115.97,9.88,114.89,9.43,113.65,9.43z M113.65,16.63c-0.74,0-1.36-0.25-1.89-0.77c-0.52-0.53-0.78-1.15-0.78-1.89c0-0.74,0.25-1.35,0.78-1.88c0.53-0.53,1.14-0.78,1.89-0.78c0.74,0,1.36,0.26,1.88,0.78c0.53,0.53,0.78,1.14,0.78,1.88c0,0.75-0.26,1.36-0.78,1.89C115.01,16.38,114.39,16.63,113.65,16.63z"/>
<path class="s6" d="M126.55,10.55c-0.74-0.74-1.64-1.11-2.68-1.11c-1.04,0-1.95,0.37-2.69,1.11c-0.74,0.74-1.11,1.64-1.11,2.69v4.36c0,0.25,0.09,0.47,0.27,0.64c0.18,0.18,0.39,0.27,0.64,0.27h0.02c0.25,0,0.46-0.09,0.63-0.26c0.18-0.17,0.27-0.39,0.27-0.64v-4.36c0-0.55,0.19-1,0.57-1.39c0.39-0.39,0.85-0.58,1.4-0.58c0.55,0,1,0.19,1.39,0.58c0.38,0.39,0.57,0.84,0.57,1.39v4.36c0,0.25,0.09,0.47,0.27,0.64c0.18,0.18,0.39,0.27,0.64,0.27h0.02c0.25,0,0.47-0.09,0.63-0.26c0.18-0.17,0.27-0.39,0.27-0.64v-4.36C127.67,12.19,127.29,11.29,126.55,10.55z"/>
</g><g>
<path class="s7" d="M131.28,18.45l2.97-7.97h1.52l2.99,7.97h-1.75l-0.55-1.64h-2.89l-0.55,1.64H131.28z M134.02,15.48h2l-1-3L134.02,15.48z"/>
<path class="s7" d="M142.88,15.63h-1.47v2.82h-1.65v-7.97h3.12c0.94,0,1.68,0.25,2.21,0.75c0.53,0.5,0.79,1.13,0.79,1.89c0,0.77-0.26,1.38-0.79,1.84C144.55,15.41,143.82,15.63,142.88,15.63z M141.41,11.81v2.5h1.47c0.47,0,0.81-0.11,1.02-0.33c0.21-0.22,0.31-0.51,0.31-0.85s-0.1-0.65-0.31-0.92c-0.21-0.26-0.55-0.4-1.02-0.4H141.41z"/>
<path class="s7" d="M150.38,15.63h-1.47v2.82h-1.65v-7.97h3.12c0.94,0,1.68,0.25,2.21,0.75c0.53,0.5,0.79,1.13,0.79,1.89c0,0.77-0.26,1.38-0.79,1.84C152.05,15.41,151.32,15.63,150.38,15.63z M148.91,11.81v2.5h1.47c0.47,0,0.81-0.11,1.02-0.33c0.21-0.22,0.31-0.51,0.31-0.85s-0.1-0.65-0.31-0.92c-0.21-0.26-0.55-0.4-1.02-0.4H148.91z"/>
<path class="s7" d="M157.46,15.55v-0.11c0-0.86,0.25-1.58,0.73-2.16s1.18-0.86,2.07-0.86c0.9,0,1.6,0.29,2.08,0.86s0.73,1.29,0.73,2.16v0.11c0,0.86-0.24,1.58-0.73,2.15s-1.18,0.86-2.07,0.86c-0.9,0-1.59-0.29-2.08-0.86S157.46,16.41,157.46,15.55z M159.05,15.43v0.11c0,0.48,0.09,0.89,0.28,1.23c0.18,0.34,0.5,0.51,0.95,0.51c0.44,0,0.75-0.17,0.94-0.51c0.18-0.34,0.28-0.75,0.28-1.23v-0.11c0-0.47-0.09-0.88-0.28-1.22s-0.5-0.52-0.95-0.52c-0.45,0-0.76,0.17-0.94,0.52S159.05,14.96,159.05,15.43z"/>
<path class="s7" d="M166.86,13.7c-0.45,0-0.78,0.19-1,0.57v4.18h-1.58v-5.93h1.48l0.06,0.68c0.42-0.53,0.99-0.79,1.7-0.79c0.56,0,1.01,0.17,1.36,0.5c0.34,0.34,0.51,0.92,0.51,1.76v3.77h-1.59v-3.78c0-0.38-0.08-0.64-0.24-0.77C167.4,13.76,167.17,13.7,166.86,13.7z"/>
</g></svg>