<svg xmlns="http://www.w3.org/2000/svg" viewBox="0 0 20.75 19.92"><defs><style>.a{fill:none;stroke:#1c415e;stroke-linecap:round;stroke-linejoin:round;stroke-width:0.75px;}</style></defs><title>msaved</title><path class="a" d="M11.86,25.3a1.7,1.7,0,0,1-2.61-1.9L10,18.77s-3.35-3.24-3.35-3.24a1.7,1.7,0,0,1,1-3.07l4.65-.68s2.05-4.19,2.05-4.19a1.69,1.69,0,0,1,3.22,0l2.08,4.21s4.62.66,4.62.66a1.7,1.7,0,0,1,1,3.07L22,18.8s.8,4.6.8,4.6a1.7,1.7,0,0,1-2.61,1.9L16,23.11s-4.12,2.19-4.12,2.19" transform="translate(-5.63 -6.04)"/></svg>