<svg xmlns="http://www.w3.org/2000/svg" viewBox="0 0 19.52 20.75"><defs><style>.a{fill:none;stroke:#1c415e;stroke-linecap:round;stroke-linejoin:round;stroke-width:0.75px;}</style></defs><title>msettings</title><path class="a" d="M8.51,18.36a.39.39,0,0,0,.19-.45,7.72,7.72,0,0,1,0-3.82.41.41,0,0,0-.19-.46L6.62,12.54A9.92,9.92,0,0,1,8.31,9.6l1.9,1.1a.41.41,0,0,0,.49-.07A7.61,7.61,0,0,1,14,8.73a.41.41,0,0,0,.3-.4V6.14a10.21,10.21,0,0,1,3.4,0V8.33a.41.41,0,0,0,.3.4,7.61,7.61,0,0,1,3.3,1.9.41.41,0,0,0,.49.07l1.9-1.1a9.92,9.92,0,0,1,1.69,2.94l-1.89,1.09a.41.41,0,0,0-.19.46,7.72,7.72,0,0,1,0,3.82.39.39,0,0,0,.19.45l1.89,1.1a9.92,9.92,0,0,1-1.69,2.94l-1.9-1.1a.41.41,0,0,0-.49.07,7.61,7.61,0,0,1-3.3,1.9.41.41,0,0,0-.3.4v2.19a10.21,10.21,0,0,1-3.4,0V23.67a.41.41,0,0,0-.3-.4,7.61,7.61,0,0,1-3.3-1.9.41.41,0,0,0-.49-.07l-1.9,1.1a9.92,9.92,0,0,1-1.69-2.94Z" transform="translate(-6.24 -5.62)"/><path class="a" d="M16,11.73A4.27,4.27,0,1,1,11.73,16,4.28,4.28,0,0,1,16,11.73Z" transform="translate(-6.24 -5.62)"/></svg>