<svg xmlns="http://www.w3.org/2000/svg" viewBox="0 0 33 31.85"><defs><style>.a{fill:none;stroke:#000;stroke-linecap:round;stroke-linejoin:round;}</style></defs><title>myads</title><path class="a" d="M32,10.21v15.5c0,3.75-3.05,5.71-6.79,5.71H6.79c-3.74,0-6.79-2-6.79-5.71V7.37A6.8,6.8,0,0,1,6.79.58H25.21A6.8,6.8,0,0,1,32,7.37Z" transform="translate(0.5 -0.08)"/><polygon class="a" points="8.75 9.19 24.25 9.19 19.34 9.19 8.75 9.19 8.75 9.19"/><polygon class="a" points="8.75 16.16 24.25 16.16 19.34 16.16 8.75 16.16 8.75 16.16"/><polygon class="a" points="8.75 23.13 24.25 23.13 19.34 23.13 8.75 23.13 8.75 23.13"/></svg>