<svg xmlns="http://www.w3.org/2000/svg" viewBox="0 0 33 33"><defs><style>.a,.b{fill:none;stroke:#fd636a;stroke-miterlimit:10;}.a{opacity:0.7;}</style></defs><title>notice</title><circle class="a" cx="16.5" cy="16.5" r="16"/><path class="b" d="M14.18,21.45a1.75,1.75,0,0,1,.52-1.29,1.86,1.86,0,0,1,1.39-.53,1.88,1.88,0,0,1,1.39.53A1.79,1.79,0,0,1,18,21.45a1.76,1.76,0,0,1-.52,1.27,1.91,1.91,0,0,1-1.39.52,1.89,1.89,0,0,1-1.39-.52A1.72,1.72,0,0,1,14.18,21.45ZM17.89,5.9,17.5,17.77H14.66L14.28,5.9Z" transform="translate(0.5 0.5)"/></svg>