<svg xmlns="http://www.w3.org/2000/svg" viewBox="0 0 259.92 133.54"><defs><style>.a{stroke:#000;stroke-linecap:round;stroke-linejoin:round;stroke-width:4px;}</style></defs><title>odometer</title><path class="a" d="M128,63.23a128.1,128.1,0,0,0-128,128H1.58v1.58h17.8v-3.16H3.2a124.35,124.35,0,0,1,35.46-85.48l11.4,11.4,2.24-2.24-11.4-11.4a124.37,124.37,0,0,1,85.48-35.46V82.61h3.16V66.43A124.38,124.38,0,0,1,215,101.9l-11.41,11.4,2.24,2.23,11.4-11.4a124.31,124.31,0,0,1,35.46,85.48H236.54v3.16h17.8v-1.58h1.58A128.1,128.1,0,0,0,128,63.23Z" transform="translate(2 -61.23)"/><path class="a" d="M191.83,126.87l-53.1,51.64a16.63,16.63,0,0,0-27.48,12.68h3.16A13.57,13.57,0,0,1,128,177.64a13.41,13.41,0,0,1,8.5,3.08l-9.6,9.34,2.2,2.27,9.61-9.34a13.35,13.35,0,0,1,2.84,8.2h3.16a16.59,16.59,0,0,0-3.74-10.41L194,129.13Z" transform="translate(2 -61.23)"/></svg>