<svg xmlns="http://www.w3.org/2000/svg" viewBox="0 0 621.01 129.06"><defs><style>.a{fill:#00953b;}.b{fill:#3c3c3d;}.c{fill:#009845;}</style></defs><title>payfort</title><polygon class="a" points="620.27 5.58 504.32 93.28 461.07 48.83 460.76 49.05 493.92 115.04 500.23 127.6 510.77 117.03 621.01 6.43 620.27 5.58"/><path class="b" d="M400.46,129.06a3.59,3.59,0,0,1-3.59-3.59V79.92a3.57,3.57,0,0,1,1.21-2.68l9.57-8.51V49.5L395.12,37.63A3.58,3.58,0,0,1,394,35V3.59A3.59,3.59,0,0,1,397.59,0h33a3.59,3.59,0,0,1,3.59,3.59v27h10.64V17.3a3.59,3.59,0,0,1,3.59-3.59h23.88a3.59,3.59,0,0,1,3.59,3.59V30.59h10.65v-27A3.6,3.6,0,0,1,490.12,0h32.6a3.59,3.59,0,0,1,3.59,3.59V31.91a3.57,3.57,0,0,1-1.24,2.71L512.66,45.4V58.34a3.59,3.59,0,0,1-7.18,0V43.76a3.6,3.6,0,0,1,1.23-2.71l12.42-10.78V7.18H493.71v27a3.59,3.59,0,0,1-3.59,3.59H472.28a3.59,3.59,0,0,1-3.59-3.59V20.89H452V34.18a3.59,3.59,0,0,1-3.59,3.59H430.58A3.58,3.58,0,0,1,427,34.18v-27H401.18v26.3l12.53,11.86A3.58,3.58,0,0,1,414.83,48V70.34a3.63,3.63,0,0,1-1.2,2.69l-9.57,8.5v43.94A3.6,3.6,0,0,1,400.46,129.06Z"/><path class="c" d="M0,62.89a1.81,1.81,0,0,1,1.82-1.82H23.65a21.36,21.36,0,1,1,.1,42.71H9.86v22.5A1.88,1.88,0,0,1,8,128.1H1.82A1.81,1.81,0,0,1,0,126.28Zm23.46,31.5c6.61,0,11.78-5.36,11.78-12.26A11.47,11.47,0,0,0,23.46,70.64H9.86V94.39Z"/><path class="c" d="M38.88,125.61l29.4-64.45a2.26,2.26,0,0,1,1.63-1h1a2.26,2.26,0,0,1,1.63,1l29.21,64.45a1.69,1.69,0,0,1-1.63,2.49H94a2.23,2.23,0,0,1-2.2-1.44L85.9,113.54H54.59l-5.84,13.12a2.41,2.41,0,0,1-2.2,1.44h-6A1.69,1.69,0,0,1,38.88,125.61Zm43.39-20.3L70.49,79.07H70L58.33,105.31Z"/><path class="c" d="M119.91,86.16l17.23-24.23a2.06,2.06,0,0,1,1.54-.86h7.18a1.77,1.77,0,0,1,1.53,2.77L124.7,95.73v30.55a1.89,1.89,0,0,1-1.82,1.82h-6.33a1.81,1.81,0,0,1-1.81-1.82V95.83l-22.41-32a1.77,1.77,0,0,1,1.53-2.77H101a1.89,1.89,0,0,1,1.53.86l17.24,24.23Z"/><path class="b" d="M153.24,62.89a1.81,1.81,0,0,1,1.82-1.82h39.65a1.81,1.81,0,0,1,1.81,1.82V73.32a1.81,1.81,0,0,1-1.81,1.82H168.18V88.93H190a1.88,1.88,0,0,1,1.82,1.82v10.44A1.88,1.88,0,0,1,190,103H168.18v23.27a1.88,1.88,0,0,1-1.82,1.82h-11.3a1.81,1.81,0,0,1-1.82-1.82Z"/><path class="b" d="M233.3,60.11a34.48,34.48,0,1,1-34.37,34.57A34.41,34.41,0,0,1,233.3,60.11Zm0,53.63a19.16,19.16,0,1,0-19.05-19.06A19.19,19.19,0,0,0,233.3,113.74Z"/><path class="b" d="M274.49,62.89a1.82,1.82,0,0,1,1.82-1.82h28.63a20.4,20.4,0,0,1,20.88,20.68c0,8.81-5.26,15.9-14.17,19.25l13.12,24.32a1.81,1.81,0,0,1-1.63,2.78H310.4a1.77,1.77,0,0,1-1.53-.86l-12.74-25.38h-6.6v24.42a1.88,1.88,0,0,1-1.82,1.82h-11.4a1.82,1.82,0,0,1-1.82-1.82ZM303.7,89.7A7.37,7.37,0,0,0,311,82a7,7,0,0,0-7.28-7.28H289.53V89.7Z"/><path class="b" d="M345.46,75.14h-13.7a1.82,1.82,0,0,1-1.82-1.82V62.89a1.82,1.82,0,0,1,1.82-1.82h42.52a1.81,1.81,0,0,1,1.82,1.82V73.32a1.81,1.81,0,0,1-1.82,1.82H360.59v51.14a1.88,1.88,0,0,1-1.82,1.82H347.28a1.88,1.88,0,0,1-1.82-1.82Z"/><path class="b" d="M153.36,5.9a.9.9,0,0,1,.87-1.33h2.05a.93.93,0,0,1,.87.56l12.76,28.69h.21L182.87,5.13a1,1,0,0,1,.87-.56h2a.91.91,0,0,1,.88,1.33L171.09,40.38a1,1,0,0,1-.87.56h-.51a1.05,1.05,0,0,1-.88-.56Z"/><path class="b" d="M195.94,16.25A10.41,10.41,0,0,1,206.65,27a13.74,13.74,0,0,1-.1,1.43,1.11,1.11,0,0,1-1.08,1H188.25c.11,3.94,3.44,8.09,7.74,8.09a11,11,0,0,0,6.41-1.94c.82-.57,1.18-.77,1.79.15l.62.87c.46.72.66,1-.21,1.64A14.51,14.51,0,0,1,195.94,41c-7.17,0-11.48-5.64-11.48-12.4S188.77,16.25,195.94,16.25Zm6.92,10.19a6.92,6.92,0,0,0-6.92-6.76,7.74,7.74,0,0,0-7.63,6.76Z"/><path class="b" d="M211.31,17.89a1.18,1.18,0,0,1,1.13-1.13h.82a1,1,0,0,1,1,.82l.41,1.69a9.4,9.4,0,0,1,7.27-3c1.79,0,4.71.25,4.15,1.89L225.46,20a.9.9,0,0,1-1.39.56,6,6,0,0,0-2.56-.66,7.47,7.47,0,0,0-6.4,3v16.4A1.17,1.17,0,0,1,214,40.43h-1.54a1.14,1.14,0,0,1-1.13-1.12Z"/><path class="b" d="M228.58,7.9a2.8,2.8,0,1,1,2.77,2.76A2.78,2.78,0,0,1,228.58,7.9Zm1,10a1.18,1.18,0,0,1,1.13-1.13h1.54a1.22,1.22,0,0,1,1.13,1.13V39.31a1.17,1.17,0,0,1-1.13,1.12h-1.54a1.14,1.14,0,0,1-1.13-1.12Z"/><path class="b" d="M241.9,20h-3.79A1.14,1.14,0,0,1,237,18.91v-1a1.11,1.11,0,0,1,1.13-1.13h3.79V13.63c0-6.2,3.69-9.58,9-9.58a14,14,0,0,1,8.15,2.82,1,1,0,0,1,.25,1.33l-1,1.44c-.36.51-.92.46-1.49,0a9.86,9.86,0,0,0-6-2.2c-3.28,0-5.18,2.1-5.18,6.14v3.13h14.66a1.18,1.18,0,0,1,1.13,1.13V39.31a1.14,1.14,0,0,1-1.13,1.12h-1.54a1.17,1.17,0,0,1-1.13-1.12V20h-12V39.31a1.13,1.13,0,0,1-1.12,1.12H243a1.14,1.14,0,0,1-1.13-1.12Z"/><path class="b" d="M277.82,16.25A10.41,10.41,0,0,1,288.53,27a13.74,13.74,0,0,1-.1,1.43,1.1,1.1,0,0,1-1.08,1H270.14c.1,3.94,3.43,8.09,7.73,8.09a11,11,0,0,0,6.41-1.94c.82-.57,1.18-.77,1.79.15l.62.87c.46.72.66,1-.21,1.64A14.51,14.51,0,0,1,277.82,41c-7.17,0-11.48-5.64-11.48-12.4S270.65,16.25,277.82,16.25Zm6.92,10.19a6.92,6.92,0,0,0-6.92-6.76,7.75,7.75,0,0,0-7.63,6.76Z"/><path class="b" d="M302.93,16.25a14.68,14.68,0,0,1,6.56,1.48v-12a1.17,1.17,0,0,1,1.13-1.12h1.43a1.21,1.21,0,0,1,1.18,1.12V39.31a1.18,1.18,0,0,1-1.18,1.12h-.92c-.51,0-.82-.41-1-1l-.3-1.54A11.42,11.42,0,0,1,302.32,41c-6,0-10.61-5.69-10.61-12.46S295.81,16.25,302.93,16.25Zm-.15,21.31c4.25,0,6.71-3.79,6.71-3.79V21a15.61,15.61,0,0,0-6.05-1.33c-5.07,0-7.89,4.2-7.89,8.92S298.47,37.56,302.78,37.56Z"/><path class="b" d="M330.45,5.69a1.12,1.12,0,0,1,1.07-1.12h1.54a1.21,1.21,0,0,1,1.13,1.12v12a14.36,14.36,0,0,1,6.55-1.48c7.07,0,11.17,5.38,11.17,12.29S347.35,41,341.31,41a10.34,10.34,0,0,1-7.48-3.08l-.31,1.54a1.05,1.05,0,0,1-1,1h-.92a1.13,1.13,0,0,1-1.12-1.12ZM340.9,37.56c4.3,0,7.17-4.35,7.17-9s-2.71-8.92-7.89-8.92a13.84,13.84,0,0,0-6,1.49v12.5S336.64,37.56,340.9,37.56Z"/><path class="b" d="M353.86,18c-.3-.77,0-1.28.93-1.28h2.15a1.06,1.06,0,0,1,1,.67l6.71,18.8h.11l8-18.8a1.06,1.06,0,0,1,1-.67h1.9c.92,0,1.28.56.92,1.33L361.8,51.91a1.25,1.25,0,0,1-1,.72h-1.84c-.93,0-1.34-.62-1-1.44l4.56-10.81Z"/></svg>