<svg xmlns="http://www.w3.org/2000/svg" viewBox="0 0 33 24.96"><defs><style>.a{opacity:0.7;}.b,.c{fill:none;stroke-linecap:round;stroke-linejoin:round;}.b{stroke:#1c415e;}.c{stroke:#157ef9;}</style></defs><title>paymethod</title><g class="a"><line class="b" x1="18.03" y1="6.24" x2="18.03" y2="17.82"/><path class="b" d="M15,17.3a2.85,2.85,0,0,0,1.2,2.42,2.48,2.48,0,0,0,2.67,0,2.18,2.18,0,0,0,.84-2.48,2.78,2.78,0,0,0-1.81-1.56l-.46-.13-.62-.17A2.78,2.78,0,0,1,15,13.86a2.18,2.18,0,0,1,.85-2.47,2.44,2.44,0,0,1,2.66,0,2.85,2.85,0,0,1,1.21,2.42" transform="translate(0.5 -3.52)"/></g><g class="a"><path class="b" d="M2.72,8.43V19.59a4,4,0,0,0,4,4H28a4,4,0,0,0,4-4V8.43" transform="translate(0.5 -3.52)"/><path class="b" d="M11.09,8H32a4,4,0,0,0-4-4H6.74a4,4,0,0,0-4,4h8.37Z" transform="translate(0.5 -3.52)"/></g><line class="c" x1="11.36" y1="12.05" x2="1.58" y2="19.07"/><line class="c" x1="10.28" y1="17.44" x2="0.5" y2="24.46"/></svg>