<svg xmlns="http://www.w3.org/2000/svg" xmlns:xlink="http://www.w3.org/1999/xlink" viewBox="0 0 200 84"><defs><style>.a{fill:url(#a);}.b{fill:#009de2;}.b,.c,.d{fill-rule:evenodd;}.c{fill:#113984;}.d{fill:#172c70;}</style><radialGradient id="a" cx="100.8" cy="-44.73" r="75.15" gradientTransform="translate(0 97.79) scale(0.99 1.25)" gradientUnits="userSpaceOnUse"><stop offset="0.01" stop-color="#e6bfa3"/><stop offset="0.56" stop-color="#e1b08a"/><stop offset="0.8" stop-color="#e1b68a"/><stop offset="1" stop-color="#e4bd95"/></radialGradient></defs><title>paypal-buy</title><path class="a" d="M4.16,0H195.84A4.46,4.46,0,0,1,200,4.72V79.28A4.46,4.46,0,0,1,195.84,84H4.16A4.46,4.46,0,0,1,0,79.28V4.72A4.46,4.46,0,0,1,4.16,0Z"/><path class="b" d="M37.23,32.25H47.62c5.58,0,7.68,2.82,7.36,7-.54,6.85-4.68,10.64-10.18,10.64H42c-.75,0-1.26.5-1.47,1.85l-1.19,7.86c-.07.51-.34.81-.75.84H32.11c-.62,0-.83-.47-.67-1.48l4-25.2A1.59,1.59,0,0,1,37.23,32.25Z"/><path class="c" d="M82.35,31.78c3.5,0,6.74,1.9,6.3,6.65-.53,5.62-3.56,8.75-8.32,8.76H76.17c-.6,0-.89.49-1,1.49l-.8,5.12c-.12.77-.51,1.15-1.1,1.15H69.35c-.62,0-.83-.39-.7-1.28l3.2-20.5c.16-1,.55-1.39,1.23-1.39ZM76,42.76h3.15c2-.07,3.29-1.44,3.42-3.9A2.38,2.38,0,0,0,80,36.26h-3l-1,6.49ZM99.17,53.38c.35-.32.71-.49.66-.09l-.13,1c-.06.49.14.76.6.76h3.44c.58,0,.86-.24,1-1.13l2.12-13.3c.11-.67-.06-1-.56-1h-3.78c-.34,0-.51.19-.6.71l-.14.82c-.07.43-.27.5-.45.07-.64-1.52-2.28-2.2-4.57-2.15-5.31.11-8.88,4.13-9.27,9.3a6.39,6.39,0,0,0,6.34,7.12,6.84,6.84,0,0,0,5.34-2.06Zm-2.88-2a3.46,3.46,0,0,1-3.54-4.06,4.93,4.93,0,0,1,4.75-4.05A3.45,3.45,0,0,1,101,47.28a5,5,0,0,1-4.75,4.06Zm17.3-11.81h-3.47c-.72,0-1,.52-.78,1.19l4.33,12.68-4.27,6c-.36.51-.08,1,.42,1h3.92a1.21,1.21,0,0,0,1.17-.57l13.31-19.11c.41-.58.22-1.2-.45-1.2h-3.71c-.64,0-.89.25-1.26.78l-5.55,8.05-2.47-8.07C114.63,39.78,114.26,39.53,113.59,39.53Z"/><path class="b" d="M142.08,31.78c3.51,0,6.74,1.9,6.3,6.65-.53,5.62-3.56,8.75-8.32,8.76H135.9c-.6,0-.88.49-1,1.49l-.8,5.12c-.12.77-.52,1.15-1.11,1.15h-3.87c-.62,0-.83-.39-.69-1.28l3.2-20.5c.15-1,.54-1.39,1.22-1.39Zm-6.31,11h3.16c2-.07,3.28-1.44,3.41-3.9a2.38,2.38,0,0,0-2.58-2.6h-3l-1,6.49ZM158.9,53.38c.36-.32.72-.49.66-.09l-.12,1c-.07.49.13.76.59.76h3.44c.58,0,.86-.24,1-1.13l2.12-13.3c.11-.67-.05-1-.56-1h-3.78c-.34,0-.51.19-.6.71l-.14.82c-.07.43-.26.5-.45.07-.64-1.52-2.27-2.2-4.57-2.15-5.3.11-8.88,4.13-9.26,9.3a6.38,6.38,0,0,0,6.33,7.12,6.84,6.84,0,0,0,5.34-2.06Zm-2.88-2a3.46,3.46,0,0,1-3.54-4.06,4.94,4.94,0,0,1,4.75-4.05,3.45,3.45,0,0,1,3.54,4.05A4.94,4.94,0,0,1,156,51.34ZM171.89,55h-4a.47.47,0,0,1-.49-.55l3.49-22.09a.69.69,0,0,1,.66-.55h4a.47.47,0,0,1,.49.55l-3.49,22.09A.69.69,0,0,1,171.89,55Z"/><path class="c" d="M30.73,23.58h10.4c2.93,0,6.41.09,8.73,2.14A7,7,0,0,1,52,31.62C51.4,39.56,46.65,44,40.28,44H35.15c-.87,0-1.45.58-1.7,2.15L32,55.27c-.09.59-.35.94-.82,1H24.79c-.71,0-1-.55-.77-1.73L28.63,25.3A1.84,1.84,0,0,1,30.73,23.58Z"/><path class="d" d="M33.6,45.24l1.82-11.5a1.59,1.59,0,0,1,1.81-1.49H47.62a10.24,10.24,0,0,1,4.2.76c-1,7.07-5.62,11-11.61,11H35.08A1.51,1.51,0,0,0,33.6,45.24Z"/></svg>