<svg xmlns="http://www.w3.org/2000/svg" viewBox="0 0 30.41 68.69"><defs><style>.a{fill:none;stroke:#000;stroke-miterlimit:10;stroke-width:2px;}</style></defs><title>phone</title><path class="a" d="M6.43,61.58l0,0A24.7,24.7,0,0,1,1.61,50.9a56.64,56.64,0,0,1-1.08-13l0-1.72a120.05,120.05,0,0,1,.7-13.81A37.79,37.79,0,0,1,4.68,10,18.45,18.45,0,0,1,10.2,3.37,15.7,15.7,0,0,1,19.9.51,20.85,20.85,0,0,1,24,1.06,5.57,5.57,0,0,1,28.3,5.3a17.14,17.14,0,0,1-.81,11.36A4.53,4.53,0,0,1,24,19.54c-.65.11-1.31.22-2,.31l-1.83.29-.65.11a21.92,21.92,0,0,0-2.56.48.86.86,0,0,0-.79.78l-.25,1.62c-.31,2-.64,4.06-.8,6.08a80.46,80.46,0,0,0,0,14c.08.84.23,1.67.38,2.56l.08.44a.74.74,0,0,0,.58.63c.91.28,1.84.51,2.78.7.73.16,1.47.31,2.19.43s1.29.24,1.94.37a4.84,4.84,0,0,1,3.66,3.3A17.61,17.61,0,0,1,27,62.52a6,6,0,0,1-5,4.42c-5.66.87-10.46-.46-14.28-4a12.66,12.66,0,0,1-1.06-1.14l-.19-.23,0-.05Z" transform="translate(0.5 0.5)"/></svg>