<svg xmlns="http://www.w3.org/2000/svg" xmlns:xlink="http://www.w3.org/1999/xlink" viewBox="0 0 415.03 83.92"><defs><style>.a{fill:none;}.b{opacity:0.46;}.c{fill:#d6b37c;}.d{clip-path:url(#a);}.e{fill:url(#b);}.f{clip-path:url(#c);}.g{fill:url(#d);}.h{clip-path:url(#e);}.i{fill:url(#f);}.j{clip-path:url(#g);}.k{fill:url(#h);}</style><clipPath id="a" transform="translate(0 0)"><path class="a" d="M371.9,26c0,.08,0,21.48,0,21.56a1.26,1.26,0,0,0,1.26,1.05,1.29,1.29,0,0,0,1.27-1.06c0-.08,0-21.47,0-21.55a1.29,1.29,0,0,0-1.27-1.06A1.26,1.26,0,0,0,371.9,26"/></clipPath><linearGradient id="b" x1="-174.31" y1="2699.64" x2="-172.83" y2="2699.64" gradientTransform="matrix(1.72, 0, 0, -1.72, 670.94, 4668.17)" gradientUnits="userSpaceOnUse"><stop offset="0" stop-color="#d7b477"/><stop offset="0.23" stop-color="#d7b477"/><stop offset="0.76" stop-color="#deb682"/><stop offset="1" stop-color="#e3b788"/></linearGradient><clipPath id="c" transform="translate(0 0)"><path class="a" d="M383.62,26c0,.08,0,36.71,0,36.79a1.28,1.28,0,0,0,1.27,1.06,1.3,1.3,0,0,0,1.27-1.06c0-.08,0-36.71,0-36.79a1.3,1.3,0,0,0-1.27-1.06A1.28,1.28,0,0,0,383.62,26"/></clipPath><linearGradient id="d" x1="-172.04" y1="2698.32" x2="-170.56" y2="2698.32" gradientTransform="matrix(1.72, 0, 0, -1.72, 678.73, 4672.87)" xlink:href="#b"/><clipPath id="e" transform="translate(0 0)"><path class="a" d="M360.46,25.75c0,.07,0,26.82,0,26.9a1.21,1.21,0,0,0,1.2,1,1.22,1.22,0,0,0,1.21-1c0-.07,0-26.81,0-26.88a1.22,1.22,0,0,0-1.21-1,1.21,1.21,0,0,0-1.2,1"/></clipPath><linearGradient id="f" x1="-155.01" y1="2739.45" x2="-153.53" y2="2739.45" gradientTransform="matrix(1.63, 0, 0, -1.63, 613.82, 4516.89)" xlink:href="#b"/><clipPath id="g" transform="translate(0 0)"><path class="a" d="M357.37,52.71c0-.11,0-26.92,0-27a4.34,4.34,0,0,1,8.65.43V52.28a4.34,4.34,0,0,1-8.65.43m11.29-5.13c0-.12,0-21.59,0-21.7a4.52,4.52,0,0,1,4.52-4.11,4.57,4.57,0,0,1,4.56,4.56V47.12a4.56,4.56,0,0,1-4.56,4.56,4.52,4.52,0,0,1-4.52-4.1m11.72,15.23c0-.11,0-36.82,0-36.93a4.55,4.55,0,0,1,9.08.45v36a4.55,4.55,0,0,1-9.08.45M331.11,42a42,42,0,1,0,42-42,42,42,0,0,0-42,42"/></clipPath><linearGradient id="h" x1="-596.24" y1="1911.57" x2="-594.76" y2="1911.57" gradientTransform="matrix(56.8, 0, 0, -56.8, 34199.38, 108625.72)" gradientUnits="userSpaceOnUse"><stop offset="0.09" stop-color="#d7b477"/><stop offset="0.28" stop-color="#d7b478"/><stop offset="1" stop-color="#e3b788"/></linearGradient></defs><title>premium-ar</title><g class="b"><path class="c" d="M307.86,38a9.32,9.32,0,0,0-13.41,0A10,10,0,0,0,292,44.82c0,.18,0,.36,0,.53l0,.35h-7.57V34.13a2.71,2.71,0,0,0-.79-1.94,2.66,2.66,0,0,0-2-.79,2.69,2.69,0,0,0-2,.81,2.72,2.72,0,0,0-.76,1.92v15a4.48,4.48,0,0,1-1.37,3.27,4.3,4.3,0,0,1-3.23,1.34h-1.34a2.61,2.61,0,0,0-1.91.8,2.65,2.65,0,0,0-.8,1.91v.07a2.73,2.73,0,0,0,2.71,2.71h1.34a9.69,9.69,0,0,0,7.12-3,9.89,9.89,0,0,0,2.65-4.7l.06-.26h9.91l.1.12a8.66,8.66,0,0,0,6.88,3,8.32,8.32,0,0,0,6.66-2.94,10.06,10.06,0,0,0,2.31-6.74A10.15,10.15,0,0,0,307.86,38Zm-6.73,11a2.44,2.44,0,0,1-2.22-1,5.35,5.35,0,0,1-.77-3,5.84,5.84,0,0,1,.78-3.26,2.55,2.55,0,0,1,2.35-1.18,2.3,2.3,0,0,1,2.09,1,5.66,5.66,0,0,1,.68,3C304,49.05,302.07,49.05,301.13,49.05Z" transform="translate(0 0)"/><path class="c" d="M141.11,33h-.06a2.94,2.94,0,0,0-2.91,2.9V48.54a5.4,5.4,0,1,1-10.8,0V35.91a2.77,2.77,0,0,0-.85-2,2.81,2.81,0,0,0-2.11-.86,2.94,2.94,0,0,0-2.9,2.9V48.54a11.27,11.27,0,1,0,22.53,0V35.91a2.92,2.92,0,0,0-2.9-2.9Z" transform="translate(0 0)"/><path class="c" d="M271.77,49.78v-3.6a13.93,13.93,0,0,0-4.19-10.51c-3-2.8-7.32-4.07-12.47-3.71a12.94,12.94,0,0,0-7.26,3.36l-.95,1a2.77,2.77,0,0,0-.82,2,2.84,2.84,0,0,0,.84,2l.06.05a3.46,3.46,0,0,0,2.09,1,2.83,2.83,0,0,0,2.26-.7l.91-.93a6.16,6.16,0,0,1,4.07-1.74h.08a12.73,12.73,0,0,1,5.92,1.81,6.38,6.38,0,0,1,2.94,5.49v.15h-.15c-4.18,0-102.39,0-105.48,0h-.07a4.32,4.32,0,0,1-3.14-1.39,4.37,4.37,0,0,1-1.3-3.16v-14a2.91,2.91,0,0,0-.92-2.19A3,3,0,0,0,152,23.8H152a3.12,3.12,0,0,0-3.1,3.1v14A10.65,10.65,0,0,0,152,48.52a10.36,10.36,0,0,0,7.6,3H270A1.77,1.77,0,0,0,271.77,49.78Z" transform="translate(0 0)"/><path class="c" d="M133.14,30.25a3.16,3.16,0,0,0,2.33-1,3.2,3.2,0,0,0,1-2.38,3.15,3.15,0,0,0-1-2.34,3.33,3.33,0,1,0-2.35,5.68Z" transform="translate(0 0)"/><path class="c" d="M258.73,53.35a3.24,3.24,0,0,0-2.37,1,3.33,3.33,0,1,0,5.7,2.35,3.36,3.36,0,0,0-3.33-3.32Z" transform="translate(0 0)"/></g><path class="c" d="M11.51,36.72a7,7,0,0,0-5.17,1.93c-1.26,1.27-1.9,3.31-1.9,6.08,0,.3,0,.59,0,.86s0,.54,0,.7a1.28,1.28,0,0,1-.3.77,3.66,3.66,0,0,1-.76.62c-.32.2-.67.4-1,.6a5.51,5.51,0,0,0-1.15.85,4.13,4.13,0,0,0-.91,1.33,5,5,0,0,0-.35,2v6.33a.5.5,0,0,0,.5.5H3.39a.5.5,0,0,0,.5-.5V53.16A2.05,2.05,0,0,1,4.11,52a2.2,2.2,0,0,1,.6-.58c.28-.18.56-.34.86-.5a2.2,2.2,0,0,0,.57-.42,5.49,5.49,0,0,0,2,1.51,8.5,8.5,0,0,0,3.34.62,8.63,8.63,0,0,0,2.91-.46,5.71,5.71,0,0,0,2.26-1.45,6.64,6.64,0,0,0,1.42-2.49,11.53,11.53,0,0,0,.49-3.53c0-2.76-.64-4.81-1.9-6.08A7,7,0,0,0,11.51,36.72ZM9.12,41.47a2.67,2.67,0,0,1,2.39-1.06,2.69,2.69,0,0,1,2.4,1.06,5.75,5.75,0,0,1,.78,3.26A5.49,5.49,0,0,1,13.92,48a2.84,2.84,0,0,1-2.41.94A2.85,2.85,0,0,1,9.1,48a5.56,5.56,0,0,1-.77-3.31A5.75,5.75,0,0,1,9.12,41.47Z" transform="translate(0 0)"/><rect class="c" x="54.25" y="55.12" width="3.04" height="3.2" rx="0.46"/><rect class="c" x="50.03" y="55.12" width="3.04" height="3.2" rx="0.46"/><path class="c" d="M84.62,37.34H82.41a.8.8,0,0,0-.84.85v9.22a1.58,1.58,0,0,1-.25,1.08,1.4,1.4,0,0,1-.9.25H77.08a1.6,1.6,0,0,1-1.09-.5,2.85,2.85,0,0,1-.55-2c0-.24,0-.49.06-.75s0-.52,0-.78c0-2.76-.63-4.81-1.9-6.08a7,7,0,0,0-5.17-1.93,7,7,0,0,0-5.17,1.93c-1.26,1.27-1.9,3.31-1.9,6.08v.7c0,.24,0,.48,0,.67a4.58,4.58,0,0,1-.17,1.35,2.16,2.16,0,0,1-.4.79,1.36,1.36,0,0,1-.5.38,1.45,1.45,0,0,1-.56.12H57.63a3.38,3.38,0,0,1-2-.5A1.49,1.49,0,0,1,55,46.9V38.19a.8.8,0,0,0-.85-.85H52a.8.8,0,0,0-.85.85v9.22c0,.72-.15,1-.24,1.08a1.41,1.41,0,0,1-.91.25H47.65c-.06,0-.11,0-.1,0h-13v-4c0-2.76-.63-4.81-1.86-6.08a6.85,6.85,0,0,0-5.14-1.93,7.52,7.52,0,0,0-2.73.5,6.44,6.44,0,0,0-2.3,1.53,7.21,7.21,0,0,0-1.55,2.59,10.32,10.32,0,0,0-.57,3.59,10.92,10.92,0,0,0,.48,3.47,5.45,5.45,0,0,0,1.44,2.35A5.52,5.52,0,0,0,24.57,52a10.3,10.3,0,0,0,2.88.38h3.18v.4a4.09,4.09,0,0,1-.21,1.42,1.86,1.86,0,0,1-.53.79,2,2,0,0,1-.82.42,4.52,4.52,0,0,1-1.14.13H23.8a.8.8,0,0,0-.85.85v2a.8.8,0,0,0,.85.84h4.27a8.49,8.49,0,0,0,2.59-.37,5.34,5.34,0,0,0,2.07-1.17,5.44,5.44,0,0,0,1.33-2,8.27,8.27,0,0,0,.46-2.93v-.33h16a4.42,4.42,0,0,0,3.58-1.36,3.37,3.37,0,0,0,1,.85,4.49,4.49,0,0,0,2.17.51h2.24a8.71,8.71,0,0,0,2.22-.31A3.44,3.44,0,0,0,63.53,51a5.62,5.62,0,0,0,1.88,1.17,9.68,9.68,0,0,0,6,0A5.42,5.42,0,0,0,73.31,51a3,3,0,0,0,.6.52,4.47,4.47,0,0,0,1.14.56,5.48,5.48,0,0,0,1.19.25c.38,0,.74.05,1.08.05h3.61a4.46,4.46,0,0,0,3.48-1.22,5.35,5.35,0,0,0,1-3.61v-9.4A.8.8,0,0,0,84.62,37.34Zm-54,7.39v4h-3a3.6,3.6,0,0,1-2.56-.8,4.14,4.14,0,0,1-.82-3,5.56,5.56,0,0,1,.91-3.35,2.74,2.74,0,0,1,2.34-1.17,2.58,2.58,0,0,1,2.35,1.05A6,6,0,0,1,30.63,44.73Zm41,0A5.56,5.56,0,0,1,70.85,48,3.56,3.56,0,0,1,66,48a5.56,5.56,0,0,1-.77-3.31,5.67,5.67,0,0,1,.79-3.26,3.22,3.22,0,0,1,4.78,0A5.67,5.67,0,0,1,71.62,44.73Zm-24,7.18Z" transform="translate(0 0)"/><path class="c" d="M105.2,37.34H103a.8.8,0,0,0-.84.85v9.22a1.58,1.58,0,0,1-.25,1.08,1.31,1.31,0,0,1-.9.25H98.45a3.42,3.42,0,0,1-2-.5,1.49,1.49,0,0,1-.63-1.34V38.19a.8.8,0,0,0-.84-.85h-2.2a.8.8,0,0,0-.85.85v15c0,1.68-.7,2.42-2.29,2.42h-.79a.8.8,0,0,0-.84.85v2a.8.8,0,0,0,.84.84h.93a6,6,0,0,0,4.49-1.6,6.3,6.3,0,0,0,1.55-4.58V51.88a4.47,4.47,0,0,0,2.26.54h3.4A4.42,4.42,0,0,0,105,51.2,5.28,5.28,0,0,0,106,47.59v-9.4A.8.8,0,0,0,105.2,37.34Z" transform="translate(0 0)"/><rect class="c" x="82.26" y="55.12" width="3.04" height="3.2" rx="0.46"/><rect class="c" x="100.81" y="55.12" width="3.04" height="3.2" rx="0.46"/><rect class="c" x="78.03" y="55.12" width="3.04" height="3.2" rx="0.46"/><g class="d"><rect class="e" x="371.9" y="24.89" width="2.53" height="23.67"/></g><g class="f"><rect class="g" x="383.62" y="24.89" width="2.53" height="38.91"/></g><g class="h"><rect class="i" x="360.46" y="24.74" width="2.42" height="28.91"/></g><g class="j"><rect class="k" x="331.11" width="83.92" height="83.92"/></g></svg>