<svg xmlns="http://www.w3.org/2000/svg" xmlns:xlink="http://www.w3.org/1999/xlink" viewBox="0 0 347.69 98.5"><defs><style>.a{fill:#e1b68a;}.b{clip-path:url(#a);}.c{clip-path:url(#b);}.d{clip-path:url(#c);}.e{clip-path:url(#d);}.f{clip-path:url(#e);}.g{clip-path:url(#f);}.h{clip-path:url(#g);}.i{clip-path:url(#h);}</style><clipPath id="a"><path class="a" d="M153.58,33.91a12.09,12.09,0,0,0-9.64-4.43A12.7,12.7,0,0,0,131.23,42.2V57a2.87,2.87,0,0,0,.89,2.14,2.91,2.91,0,0,0,2.15.91h.07a3.07,3.07,0,0,0,3-3.05V42.2a6.55,6.55,0,0,1,13.1,0V57a2.88,2.88,0,0,0,.9,2.15,3,3,0,0,0,2.17.9h.05a3.07,3.07,0,0,0,3-3.05V42.2a6.57,6.57,0,0,1,6.55-6.55,6.56,6.56,0,0,1,6.58,6.55V57a3.07,3.07,0,0,0,3,3.05h.06a3.06,3.06,0,0,0,3-3.05V42.2A12.72,12.72,0,0,0,163.2,29.48a12,12,0,0,0-9.62,4.43"/></clipPath><clipPath id="b"><path class="a" d="M190.41,51.17a8.57,8.57,0,0,1-2.61-6.33,8.93,8.93,0,0,1,9-9,9,9,0,0,1,9,9,9,9,0,0,1-15.33,6.33M186,34a15.25,15.25,0,0,0,0,21.59A15.27,15.27,0,0,0,212,44.76,15.26,15.26,0,0,0,186,34"/></clipPath><clipPath id="c"><path class="a" d="M240.09,29.48a3,3,0,0,0-2.17.91,2.93,2.93,0,0,0-.9,2.16v14.7a6.62,6.62,0,1,1-13.23,0V32.55a3.09,3.09,0,0,0-3-3.07h-.09a3.09,3.09,0,0,0-3,3.07v14.7a12.79,12.79,0,0,0,25.57,0V32.55a3,3,0,0,0-.89-2.16,2.92,2.92,0,0,0-2.16-.91Z"/></clipPath><clipPath id="d"><path class="a" d="M261.21,29.48A11.23,11.23,0,0,0,253,32.89a11.51,11.51,0,0,0-3.4,8.24V57a3.07,3.07,0,0,0,3,3.05h.08A3.07,3.07,0,0,0,255.75,57V41.13a5.35,5.35,0,0,1,1.59-3.88,5.2,5.2,0,0,1,3.87-1.6h1.54a3,3,0,0,0,2.17-.9,2.92,2.92,0,0,0,.87-2.14v-.06a3,3,0,0,0-3-3.07Z"/></clipPath><clipPath id="e"><path class="a" d="M272.66,19.47a3.55,3.55,0,0,0,2.52,6.05,3.41,3.41,0,0,0,2.48-1,3.49,3.49,0,0,0,0-5,3.56,3.56,0,0,0-5,0"/></clipPath><clipPath id="f"><path class="a" d="M275.18,29.48a3,3,0,0,0-3,3.07V59.42a5.32,5.32,0,0,1-1.63,3.89,5.17,5.17,0,0,1-3.84,1.6H265.1a2.92,2.92,0,0,0-2.14.89,3,3,0,0,0-.9,2.15V68a3.07,3.07,0,0,0,3,3h1.57a11.18,11.18,0,0,0,8.21-3.4,11.52,11.52,0,0,0,3.4-8.24V32.55a3.06,3.06,0,0,0-3-3.07Z"/></clipPath><clipPath id="g"><path class="a" d="M294.11,51.12a9,9,0,0,1,0-12.7,8.56,8.56,0,0,1,6.36-2.64,9,9,0,0,1,9,9,9,9,0,0,1-15.33,6.36M289.68,34a15.25,15.25,0,0,0,0,21.59A15.23,15.23,0,0,0,309.57,57a3.09,3.09,0,0,0,3.05,3h.07A3.07,3.07,0,0,0,315.74,57V44.76A15.26,15.26,0,0,0,289.68,34"/></clipPath><clipPath id="h"><path class="a" d="M325.88,33.23a12.38,12.38,0,0,0-3.75,9.05V57a2.88,2.88,0,0,0,.9,2.15,2.93,2.93,0,0,0,2.14.9h.08A3.07,3.07,0,0,0,328.3,57V42.28a6.62,6.62,0,1,1,13.23,0V57a2.91,2.91,0,0,0,.9,2.15,3,3,0,0,0,2.17.9h0a3.07,3.07,0,0,0,3-3.05V42.28a12.77,12.77,0,0,0-21.81-9.05"/></clipPath></defs><title>premium-en-v1</title><path class="a" d="M153.58,33.91a12.09,12.09,0,0,0-9.64-4.43A12.7,12.7,0,0,0,131.23,42.2V57a2.87,2.87,0,0,0,.89,2.14,2.91,2.91,0,0,0,2.15.91h.07a3.07,3.07,0,0,0,3-3.05V42.2a6.55,6.55,0,0,1,13.1,0V57a2.88,2.88,0,0,0,.9,2.15,3,3,0,0,0,2.17.9h.05a3.07,3.07,0,0,0,3-3.05V42.2a6.57,6.57,0,0,1,6.55-6.55,6.56,6.56,0,0,1,6.58,6.55V57a3.07,3.07,0,0,0,3,3.05h.06a3.06,3.06,0,0,0,3-3.05V42.2A12.72,12.72,0,0,0,163.2,29.48a12,12,0,0,0-9.62,4.43"/><g class="b"><rect class="a" x="131.23" y="29.48" width="44.69" height="30.54"/></g><path class="a" d="M190.41,51.17a8.57,8.57,0,0,1-2.61-6.33,8.93,8.93,0,0,1,9-9,9,9,0,0,1,9,9,9,9,0,0,1-15.33,6.33M186,34a15.25,15.25,0,0,0,0,21.59A15.27,15.27,0,0,0,212,44.76,15.26,15.26,0,0,0,186,34"/><g class="c"><rect class="a" x="181.5" y="29.48" width="30.53" height="30.54"/></g><path class="a" d="M240.09,29.48a3,3,0,0,0-2.17.91,2.93,2.93,0,0,0-.9,2.16v14.7a6.62,6.62,0,1,1-13.23,0V32.55a3.09,3.09,0,0,0-3-3.07h-.09a3.09,3.09,0,0,0-3,3.07v14.7a12.79,12.79,0,0,0,25.57,0V32.55a3,3,0,0,0-.89-2.16,2.92,2.92,0,0,0-2.16-.91Z"/><g class="d"><rect class="a" x="217.62" y="29.48" width="25.57" height="30.54"/></g><path class="a" d="M261.21,29.48A11.23,11.23,0,0,0,253,32.89a11.51,11.51,0,0,0-3.4,8.24V57a3.07,3.07,0,0,0,3,3.05h.08A3.07,3.07,0,0,0,255.75,57V41.13a5.35,5.35,0,0,1,1.59-3.88,5.2,5.2,0,0,1,3.87-1.6h1.54a3,3,0,0,0,2.17-.9,2.92,2.92,0,0,0,.87-2.14v-.06a3,3,0,0,0-3-3.07Z"/><g class="e"><rect class="a" x="249.58" y="29.48" width="16.21" height="30.54"/></g><path class="a" d="M272.66,19.47a3.55,3.55,0,0,0,2.52,6.05,3.41,3.41,0,0,0,2.48-1,3.49,3.49,0,0,0,0-5,3.56,3.56,0,0,0-5,0"/><g class="f"><rect class="a" x="271.63" y="18.44" width="7.1" height="7.08"/></g><path class="a" d="M275.18,29.48a3,3,0,0,0-3,3.07V59.42a5.32,5.32,0,0,1-1.63,3.89,5.17,5.17,0,0,1-3.84,1.6H265.1a2.92,2.92,0,0,0-2.14.89,3,3,0,0,0-.9,2.15V68a3.07,3.07,0,0,0,3,3h1.57a11.18,11.18,0,0,0,8.21-3.4,11.52,11.52,0,0,0,3.4-8.24V32.55a3.06,3.06,0,0,0-3-3.07Z"/><g class="g"><rect class="a" x="262.06" y="29.48" width="16.22" height="41.59"/></g><path class="a" d="M294.11,51.12a9,9,0,0,1,0-12.7,8.56,8.56,0,0,1,6.36-2.64,9,9,0,0,1,9,9,9,9,0,0,1-15.33,6.36M289.68,34a15.25,15.25,0,0,0,0,21.59A15.23,15.23,0,0,0,309.57,57a3.09,3.09,0,0,0,3.05,3h.07A3.07,3.07,0,0,0,315.74,57V44.76A15.26,15.26,0,0,0,289.68,34"/><g class="h"><rect class="a" x="285.2" y="29.48" width="30.53" height="30.54"/></g><path class="a" d="M325.88,33.23a12.38,12.38,0,0,0-3.75,9.05V57a2.88,2.88,0,0,0,.9,2.15,2.93,2.93,0,0,0,2.14.9h.08A3.07,3.07,0,0,0,328.3,57V42.28a6.62,6.62,0,1,1,13.23,0V57a2.91,2.91,0,0,0,.9,2.15,3,3,0,0,0,2.17.9h0a3.07,3.07,0,0,0,3-3.05V42.28a12.77,12.77,0,0,0-21.81-9.05"/><g class="i"><rect class="a" x="322.13" y="29.48" width="25.57" height="30.54"/></g><path class="a" d="M131.91,70.59a1.38,1.38,0,0,1,1.43-1.43h3.52a4.1,4.1,0,0,1,4.31,4.27A4,4,0,0,1,137,77.69h-2.18v2.63a1.43,1.43,0,1,1-2.86,0Zm2.86,4.56h1.54a1.74,1.74,0,0,0,1.89-1.72,1.67,1.67,0,0,0-1.89-1.73h-1.54Z"/><path class="a" d="M143.81,70.59a1.38,1.38,0,0,1,1.43-1.43h3.45c2.54,0,4.2,1.56,4.2,3.9A3.41,3.41,0,0,1,150,76.59l2.49,2.69a1.74,1.74,0,0,1,.6,1.23,1.41,1.41,0,0,1-1.47,1.33,1.49,1.49,0,0,1-1.36-.71l-3.51-4.43h0v3.62a1.43,1.43,0,1,1-2.86,0Zm2.86,4h1.89a1.39,1.39,0,1,0,0-2.77h-1.89Z"/><path class="a" d="M155.71,70.59a1.38,1.38,0,0,1,1.43-1.43h4.38A1.28,1.28,0,0,1,163,70.49a1.26,1.26,0,0,1-1.43,1.32h-3v2.28h2.71a1.33,1.33,0,1,1,0,2.65h-2.71v2.34h3.06a1.33,1.33,0,1,1,0,2.65h-4.49a1.38,1.38,0,0,1-1.43-1.43Z"/><path class="a" d="M166.87,70.86c.27-1.5,1.17-1.8,1.89-1.8,1.43,0,1.75.83,2.47,3.09l1.4,4.32h0l1.4-4.32c.72-2.26,1-3.09,2.47-3.09.72,0,1.62.3,1.89,1.8l1.13,6.46c.23,1.3.47,2.74.47,3.16a1.35,1.35,0,0,1-1.34,1.36c-1.29,0-1.52-.92-1.66-1.89l-.84-5.58h0l-1.92,6.18c-.29.92-.71,1.29-1.58,1.29s-1.28-.37-1.57-1.29l-1.92-6.18h0L168.27,80c-.14,1-.37,1.89-1.66,1.89a1.35,1.35,0,0,1-1.34-1.36c0-.42.24-1.86.47-3.16Z"/><path class="a" d="M185.64,80.32a1.43,1.43,0,1,1-2.86,0V70.57a1.43,1.43,0,1,1,2.86,0Z"/><path class="a" d="M191.55,76.68a2.59,2.59,0,0,0,5.18,0V70.57a1.43,1.43,0,1,1,2.86,0v6.11a5.45,5.45,0,0,1-10.9,0V70.57a1.43,1.43,0,1,1,2.86,0Z"/><path class="a" d="M203.86,70.86c.27-1.5,1.17-1.8,1.89-1.8,1.43,0,1.75.83,2.47,3.09l1.4,4.32h0l1.4-4.32c.72-2.26,1-3.09,2.47-3.09.72,0,1.62.3,1.89,1.8l1.13,6.46c.23,1.3.47,2.74.47,3.16a1.35,1.35,0,0,1-1.34,1.36c-1.29,0-1.52-.92-1.66-1.89l-.85-5.58h0l-1.93,6.18c-.28.92-.7,1.29-1.57,1.29s-1.29-.37-1.57-1.29l-1.92-6.18h0L205.26,80c-.15,1-.38,1.89-1.66,1.89a1.36,1.36,0,0,1-1.35-1.36c0-.42.25-1.86.48-3.16Z"/><path class="a" d="M67.92,16.77a6.12,6.12,0,0,0-6.12,5.56c0,.15,0,53.69,0,53.84a6.17,6.17,0,0,0,12.31-.61V22.94a6.18,6.18,0,0,0-6.18-6.17m1.7,59.3a1.75,1.75,0,0,1-3.44,0c0-.11,0-53.55,0-53.66A1.73,1.73,0,0,1,67.9,21a1.76,1.76,0,0,1,1.72,1.43c0,.11,0,53.53,0,53.64"/><path class="a" d="M52,16.77a6.12,6.12,0,0,0-6.12,5.56c0,.15,0,33,0,33.19a6.17,6.17,0,0,0,12.31-.61v-32A6.18,6.18,0,0,0,52,16.77m1.7,38.65A1.76,1.76,0,0,1,52,56.86a1.74,1.74,0,0,1-1.72-1.43c0-.11,0-32.9,0-33A1.74,1.74,0,0,1,52,21a1.76,1.76,0,0,1,1.72,1.44c0,.11,0,32.88,0,33"/><path class="a" d="M36.45,16.77a5.84,5.84,0,0,0-5.84,5.3c0,.15,0,40.27,0,40.41a5.87,5.87,0,0,0,11.72-.58V22.65a5.88,5.88,0,0,0-5.88-5.88m1.61,45.61a1.66,1.66,0,0,1-3.27,0c0-.1,0-40.13,0-40.23a1.66,1.66,0,0,1,3.27,0c0,.1,0,40.11,0,40.21"/><path class="a" d="M24.85,7A3.8,3.8,0,0,1,27,7.17a5.55,5.55,0,0,1,2.46,2.6,4.31,4.31,0,0,1-3.25.16,5.44,5.44,0,0,1-2.29-2.27A39.78,39.78,0,0,0,20,11a3.74,3.74,0,0,1,2-.3,5,5,0,0,1,2.83,1.94,4.44,4.44,0,0,1-3.15,1A4.74,4.74,0,0,1,19.09,12a43.49,43.49,0,0,0-2.92,3.4,3.58,3.58,0,0,1,1.65-.48,4.72,4.72,0,0,1,3,1.41,4.72,4.72,0,0,1-3,1.52,4.33,4.33,0,0,1-2.7-1.1,44.06,44.06,0,0,0-2.78,4.35,4.05,4.05,0,0,1,2.09-1,4.42,4.42,0,0,1,3.13,1.06,5,5,0,0,1-2.87,1.84,4.31,4.31,0,0,1-2.9-.87,49.65,49.65,0,0,0-2.16,4.6,4.47,4.47,0,0,1,2-1.35,4.35,4.35,0,0,1,3.21.62,5.33,5.33,0,0,1-2.69,2.24,4.14,4.14,0,0,1-2.95-.47,50.06,50.06,0,0,0-1.62,4.94,4.75,4.75,0,0,1,2-1.68,4.23,4.23,0,0,1,3.24.25,5.51,5.51,0,0,1-2.5,2.53,4.07,4.07,0,0,1-3-.13c-.44,1.71-.79,3.48-1.07,5.27a5.34,5.34,0,0,1,1.93-2.17,4.2,4.2,0,0,1,3.25-.2,6,6,0,0,1-2.25,2.86,4.18,4.18,0,0,1-3,.28,53.29,53.29,0,0,0-.5,5.41A5.43,5.43,0,0,1,7.4,42.78a4.23,4.23,0,0,1,3.22-.55,6.24,6.24,0,0,1-2,3.09,4.12,4.12,0,0,1-2.94.61c0,.5,0,1,0,1.48l0,1.48a4.23,4.23,0,0,1,2.94.61,6.21,6.21,0,0,1,2,3.1A4.25,4.25,0,0,1,7.4,52a5.47,5.47,0,0,1-1.72-2.27,53.29,53.29,0,0,0,.5,5.41,4.17,4.17,0,0,1,3,.27,6,6,0,0,1,2.25,2.87,4.23,4.23,0,0,1-3.25-.21A5.32,5.32,0,0,1,6.29,56c.28,1.79.63,3.55,1.07,5.27a4.11,4.11,0,0,1,3-.14,5.56,5.56,0,0,1,2.5,2.53,4.18,4.18,0,0,1-3.24.25,4.66,4.66,0,0,1-2-1.67,49,49,0,0,0,1.62,4.93,4.2,4.2,0,0,1,2.95-.46,5.38,5.38,0,0,1,2.69,2.23,4.25,4.25,0,0,1-3.21.62,4.39,4.39,0,0,1-2-1.35,49.84,49.84,0,0,0,2.16,4.61,4.31,4.31,0,0,1,2.9-.88,4.91,4.91,0,0,1,2.87,1.85,4.47,4.47,0,0,1-3.13,1.06,4.13,4.13,0,0,1-2.09-1,44.06,44.06,0,0,0,2.78,4.35,4.33,4.33,0,0,1,2.7-1.1,4.78,4.78,0,0,1,3,1.51,4.62,4.62,0,0,1-3,1.41,3.57,3.57,0,0,1-1.65-.47,43.33,43.33,0,0,0,2.92,3.39,4.8,4.8,0,0,1,2.62-1.66,4.49,4.49,0,0,1,3.15,1A4.94,4.94,0,0,1,22,84.1a3.65,3.65,0,0,1-2-.3,38.58,38.58,0,0,0,3.9,3.37,5.39,5.39,0,0,1,2.29-2.27,4.25,4.25,0,0,1,3.25.16A5.64,5.64,0,0,1,27,87.66a3.71,3.71,0,0,1-2.15.18,36,36,0,0,0,4.68,2.81,5.9,5.9,0,0,1,1.92-2.72,4.25,4.25,0,0,1,3.23-.53,6.33,6.33,0,0,1-2,3.08,3.88,3.88,0,0,1-2.12.64h-.68l-.27.37a6.2,6.2,0,0,1-.35,7,7,7,0,0,1-1.13-3.72,6.83,6.83,0,0,1,1.13-3.46A37.68,37.68,0,0,1,23.85,88a7.18,7.18,0,0,1,.41,3.48,6.34,6.34,0,0,1-1.77,3.33,7.29,7.29,0,0,1-.58-3.9,6.27,6.27,0,0,1,1.61-3.17,41.92,41.92,0,0,1-4.65-4.12,7.25,7.25,0,0,1-.17,3.55A5.63,5.63,0,0,1,16.42,90a7.43,7.43,0,0,1,.07-4,5.75,5.75,0,0,1,2.1-2.71,45.79,45.79,0,0,1-3.85-4.64,7.33,7.33,0,0,1-.58,3.71,5.2,5.2,0,0,1-2.6,2.38,7.57,7.57,0,0,1,.56-3.91,5.27,5.27,0,0,1,2.51-2.35,48.37,48.37,0,0,1-3.14-5,7,7,0,0,1-.85,3.3,4.93,4.93,0,0,1-2.77,2.08,7.27,7.27,0,0,1,.85-3.83,4.94,4.94,0,0,1,2.53-2,49.65,49.65,0,0,1-2.41-5.22A6.84,6.84,0,0,1,7.68,71a4.65,4.65,0,0,1-2.95,1.68A7.21,7.21,0,0,1,5.93,69a4.73,4.73,0,0,1,2.72-1.64A52.76,52.76,0,0,1,6.9,61.94a6.43,6.43,0,0,1-1.39,3,4.5,4.5,0,0,1-3.06,1.34A6.89,6.89,0,0,1,3.93,62.7a4.5,4.5,0,0,1,2.81-1.32c-.45-1.76-.8-3.57-1.08-5.4a6,6,0,0,1-1.6,2.58,4.34,4.34,0,0,1-3.17.9,6.49,6.49,0,0,1,1.8-3.3,4.34,4.34,0,0,1,2.86-.93A55.49,55.49,0,0,1,5,49.55,5.6,5.6,0,0,1,3.22,52,4.25,4.25,0,0,1,0,52.6a6.33,6.33,0,0,1,2-3.1,4.25,4.25,0,0,1,3-.6l0-1.3s0,0,0-.05,0-.09,0-.13,0-.1,0-.14,0,0,0,0c0-.44,0-.88,0-1.31a4.25,4.25,0,0,1-3-.6,6.33,6.33,0,0,1-2-3.1,4.25,4.25,0,0,1,3.22.56A5.6,5.6,0,0,1,5,45.28a55.49,55.49,0,0,1,.51-5.68,4.34,4.34,0,0,1-2.86-.93,6.49,6.49,0,0,1-1.8-3.3,4.34,4.34,0,0,1,3.17.9,6,6,0,0,1,1.6,2.58c.28-1.84.63-3.64,1.08-5.4a4.5,4.5,0,0,1-2.81-1.32,6.89,6.89,0,0,1-1.48-3.54,4.5,4.5,0,0,1,3.06,1.34,6.43,6.43,0,0,1,1.39,3,52.76,52.76,0,0,1,1.75-5.42,4.73,4.73,0,0,1-2.72-1.64,7.21,7.21,0,0,1-1.2-3.69,4.65,4.65,0,0,1,2.95,1.68A6.84,6.84,0,0,1,8.84,27a49.65,49.65,0,0,1,2.41-5.22,5.06,5.06,0,0,1-2.53-2,7.29,7.29,0,0,1-.85-3.83A4.93,4.93,0,0,1,10.64,18a7,7,0,0,1,.85,3.3,49.62,49.62,0,0,1,3.14-5A5.18,5.18,0,0,1,12.12,14,7.57,7.57,0,0,1,11.56,10a5.14,5.14,0,0,1,2.6,2.38,7.33,7.33,0,0,1,.58,3.71,44.62,44.62,0,0,1,3.85-4.65,5.71,5.71,0,0,1-2.1-2.7,7.61,7.61,0,0,1-.08-4A5.51,5.51,0,0,1,18.7,7.64a7.25,7.25,0,0,1,.17,3.55,39.17,39.17,0,0,1,4.65-4.12A6.27,6.27,0,0,1,21.91,3.9,7.29,7.29,0,0,1,22.49,0a6.34,6.34,0,0,1,1.77,3.33,7.18,7.18,0,0,1-.41,3.48"/><path class="a" d="M77.18,7a4.48,4.48,0,0,0-2.34.19,5.74,5.74,0,0,0-2.68,2.6,5.07,5.07,0,0,0,3.54.16,5.6,5.6,0,0,0,2.49-2.27A42.64,42.64,0,0,1,82.44,11a4.38,4.38,0,0,0-2.18-.3,5.41,5.41,0,0,0-3.09,1.94,5.1,5.1,0,0,0,3.43,1A5.26,5.26,0,0,0,83.46,12c1.11,1.07,2.17,2.21,3.18,3.4a4.14,4.14,0,0,0-1.8-.48,5.27,5.27,0,0,0-3.31,1.41,5.24,5.24,0,0,0,3.27,1.52,4.94,4.94,0,0,0,2.94-1.1,46.16,46.16,0,0,1,3,4.35,4.59,4.59,0,0,0-2.28-1,5.06,5.06,0,0,0-3.41,1.06,5.45,5.45,0,0,0,3.13,1.84,5,5,0,0,0,3.16-.87,48.54,48.54,0,0,1,2.36,4.6,5,5,0,0,0-2.2-1.35,5.09,5.09,0,0,0-3.5.62A5.65,5.65,0,0,0,91,28.17a4.87,4.87,0,0,0,3.22-.47A50.75,50.75,0,0,1,96,32.64,5.16,5.16,0,0,0,93.79,31a5,5,0,0,0-3.54.25A5.83,5.83,0,0,0,93,33.74a4.81,4.81,0,0,0,3.26-.13,50.33,50.33,0,0,1,1.16,5.27,5.45,5.45,0,0,0-2.1-2.17,5,5,0,0,0-3.54-.21,6.08,6.08,0,0,0,2.45,2.87,5,5,0,0,0,3.32.28,50.56,50.56,0,0,1,.54,5.41,5.52,5.52,0,0,0-1.88-2.28,5,5,0,0,0-3.51-.55,6.3,6.3,0,0,0,2.22,3.09,4.82,4.82,0,0,0,3.2.61c0,.5,0,1,0,1.48s0,1,0,1.48a5,5,0,0,0-3.2.61,6.26,6.26,0,0,0-2.22,3.1A5,5,0,0,0,96.19,52a5.56,5.56,0,0,0,1.88-2.27,50.56,50.56,0,0,1-.54,5.41,4.94,4.94,0,0,0-3.32.27,6.13,6.13,0,0,0-2.45,2.87,5,5,0,0,0,3.54-.21A5.43,5.43,0,0,0,97.4,56a50.9,50.9,0,0,1-1.16,5.27A4.86,4.86,0,0,0,93,61.08a5.88,5.88,0,0,0-2.73,2.53,5,5,0,0,0,3.54.25A5.07,5.07,0,0,0,96,62.19a49.64,49.64,0,0,1-1.77,4.93A4.94,4.94,0,0,0,91,66.66,5.7,5.7,0,0,0,88,68.89a5,5,0,0,0,3.5.62,4.88,4.88,0,0,0,2.2-1.35,48.72,48.72,0,0,1-2.36,4.61,5,5,0,0,0-3.16-.88,5.38,5.38,0,0,0-3.13,1.85,5.11,5.11,0,0,0,3.41,1.06,4.67,4.67,0,0,0,2.28-1,46.16,46.16,0,0,1-3,4.35A4.94,4.94,0,0,0,84.8,77a5.31,5.31,0,0,0-3.27,1.51,5.15,5.15,0,0,0,3.31,1.41,4.13,4.13,0,0,0,1.8-.47,46.48,46.48,0,0,1-3.18,3.39A5.32,5.32,0,0,0,80.6,81.2a5.16,5.16,0,0,0-3.43,1,5.35,5.35,0,0,0,3.09,1.94,4.27,4.27,0,0,0,2.18-.3,41.34,41.34,0,0,1-4.25,3.37A5.54,5.54,0,0,0,75.7,84.9a5,5,0,0,0-3.54.16,5.84,5.84,0,0,0,2.68,2.6,4.37,4.37,0,0,0,2.34.18,40.05,40.05,0,0,1-5.09,2.81A5.91,5.91,0,0,0,70,87.93a5,5,0,0,0-3.51-.53,6.11,6.11,0,0,0,2.23,3.08,4.48,4.48,0,0,0,2.31.64h.73l.3.37a6.39,6.39,0,0,0-1,3.36,6.54,6.54,0,0,0,1.38,3.65,6.6,6.6,0,0,0,1.23-3.72,6.52,6.52,0,0,0-1.23-3.46A41.47,41.47,0,0,0,78.27,88a6.67,6.67,0,0,0-.45,3.48,6.25,6.25,0,0,0,1.93,3.33,6.84,6.84,0,0,0,.64-3.9,6.2,6.2,0,0,0-1.76-3.17,45.18,45.18,0,0,0,5.07-4.12,6.61,6.61,0,0,0,.18,3.55A5.82,5.82,0,0,0,86.37,90a6.86,6.86,0,0,0-.08-4A5.89,5.89,0,0,0,84,83.34a47.64,47.64,0,0,0,4.2-4.64,6.84,6.84,0,0,0,.62,3.71,5.58,5.58,0,0,0,2.84,2.38,7,7,0,0,0-.6-3.91,5.68,5.68,0,0,0-2.74-2.35,45.71,45.71,0,0,0,3.41-5,6.6,6.6,0,0,0,.94,3.3,5.4,5.4,0,0,0,3,2.08,6.74,6.74,0,0,0-.92-3.83,5.39,5.39,0,0,0-2.76-2,50.94,50.94,0,0,0,2.63-5.22A6.4,6.4,0,0,0,95.89,71a5.25,5.25,0,0,0,3.21,1.68A6.72,6.72,0,0,0,97.79,69a5.19,5.19,0,0,0-3-1.64,51.06,51.06,0,0,0,1.91-5.42,6.22,6.22,0,0,0,1.51,3,5.18,5.18,0,0,0,3.34,1.34A6.67,6.67,0,0,0,100,62.7a5.11,5.11,0,0,0-3.07-1.32A50.81,50.81,0,0,0,98.09,56a5.82,5.82,0,0,0,1.75,2.58,5,5,0,0,0,3.45.9,6.33,6.33,0,0,0-2-3.3,5,5,0,0,0-3.12-.93,55.45,55.45,0,0,0,.56-5.68,5.64,5.64,0,0,0,2,2.49,5,5,0,0,0,3.51.56A6.31,6.31,0,0,0,102,49.5a5,5,0,0,0-3.26-.6l0-1.3s0,0,0-.05,0-.09,0-.13,0-.1,0-.14,0,0,0,0l0-1.31a5,5,0,0,0,3.26-.6,6.31,6.31,0,0,0,2.22-3.1,5,5,0,0,0-3.51.56,5.64,5.64,0,0,0-2,2.49,55.65,55.65,0,0,0-.56-5.69,5,5,0,0,0,3.12-.92,6.33,6.33,0,0,0,2-3.3,5,5,0,0,0-3.45.9,5.82,5.82,0,0,0-1.75,2.58,50.28,50.28,0,0,0-1.18-5.4A5.16,5.16,0,0,0,100,32.13a6.67,6.67,0,0,0,1.61-3.54,5.18,5.18,0,0,0-3.34,1.34,6.22,6.22,0,0,0-1.51,3,51.06,51.06,0,0,0-1.91-5.42,5.25,5.25,0,0,0,3-1.64,6.72,6.72,0,0,0,1.31-3.69,5.25,5.25,0,0,0-3.21,1.68A6.4,6.4,0,0,0,94.63,27,50.94,50.94,0,0,0,92,21.75a5.51,5.51,0,0,0,2.76-2,6.75,6.75,0,0,0,.92-3.83,5.4,5.4,0,0,0-3,2.08,6.6,6.6,0,0,0-.94,3.3,46.82,46.82,0,0,0-3.41-5A5.59,5.59,0,0,0,91.06,14a7,7,0,0,0,.6-3.91,5.48,5.48,0,0,0-2.83,2.38,6.77,6.77,0,0,0-.63,3.71A46.5,46.5,0,0,0,84,11.48a5.85,5.85,0,0,0,2.29-2.7,6.86,6.86,0,0,0,.08-4,5.76,5.76,0,0,0-2.49,2.82,6.61,6.61,0,0,0-.18,3.55,43.07,43.07,0,0,0-5.07-4.12A6.2,6.2,0,0,0,80.39,3.9,6.84,6.84,0,0,0,79.75,0a6.25,6.25,0,0,0-1.93,3.33,6.67,6.67,0,0,0,.45,3.48"/></svg>