<?xml version="1.0" encoding="utf-8"?>
<!-- Generator: Adobe Illustrator 24.0.0, SVG Export Plug-In . SVG Version: 6.00 Build 0)  -->
<svg version="1.1" id="Layer_1" xmlns="http://www.w3.org/2000/svg" xmlns:xlink="http://www.w3.org/1999/xlink" x="0px" y="0px"
	 viewBox="0 0 347.7 98.5" style="enable-background:new 0 0 347.7 98.5;" xml:space="preserve">
<style type="text/css">
	.st0{fill:#E1B68A;}
</style>
<title>premium-en-v1</title>
<g>
	<path class="st0" d="M311.4,16.8c-3.2,0-5.8,2.4-6.1,5.6c0,0.1,0,53.7,0,53.8c0.3,3.4,3.4,5.9,6.7,5.5c3.2-0.3,5.6-3,5.6-6.1V22.9
		C317.6,19.5,314.8,16.8,311.4,16.8 M313.1,76.1c-0.2,0.9-1.1,1.6-2,1.4c-0.7-0.1-1.3-0.7-1.4-1.4c0-0.1,0-53.5,0-53.7
		c0.2-0.8,0.9-1.4,1.7-1.4c0.8,0,1.6,0.6,1.7,1.4C313.1,22.5,313.1,76,313.1,76.1"/>
	<path class="st0" d="M295.5,16.8c-3.2,0-5.8,2.4-6.1,5.6c0,0.1,0,33,0,33.2c0.3,3.4,3.4,5.9,6.7,5.5c3.2-0.3,5.6-3,5.6-6.1v-32
		C301.6,19.5,298.9,16.8,295.5,16.8 M297.2,55.4c-0.2,0.8-0.9,1.4-1.7,1.4c-0.8,0-1.6-0.6-1.7-1.4c0-0.1,0-32.9,0-33
		c0.2-0.8,0.9-1.4,1.7-1.4c0.8,0,1.6,0.6,1.7,1.4C297.2,22.6,297.2,55.3,297.2,55.4"/>
	<path class="st0" d="M279.9,16.8c-3,0-5.6,2.3-5.8,5.3c0,0.1,0,40.3,0,40.4c0.3,3.2,3.1,5.6,6.3,5.4c3.1-0.2,5.5-2.9,5.4-6V22.6
		C285.8,19.4,283.1,16.8,279.9,16.8 M281.5,62.4c-0.2,0.9-1,1.5-1.9,1.3c-0.7-0.1-1.2-0.7-1.3-1.3c0-0.1,0-40.1,0-40.2
		c0.2-0.9,1-1.5,1.9-1.3c0.7,0.1,1.2,0.7,1.3,1.3C281.5,22.3,281.5,62.3,281.5,62.4"/>
	<path class="st0" d="M268.3,7c0.7-0.2,1.5-0.1,2.1,0.2c1.1,0.6,1.9,1.5,2.5,2.6c-1,0.5-2.2,0.5-3.2,0.2c-1-0.5-1.8-1.3-2.3-2.3
		c-1.4,1-2.7,2.1-3.9,3.3c0.6-0.3,1.3-0.4,2-0.3c1.1,0.3,2.1,1,2.8,1.9c-0.9,0.7-2,1.1-3.1,1c-1-0.2-1.9-0.8-2.6-1.6
		c-1,1.1-2,2.2-2.9,3.4c0.5-0.3,1.1-0.5,1.6-0.5c1.1,0.1,2.2,0.6,3,1.4c-0.8,0.9-1.8,1.4-3,1.5c-1,0-2-0.4-2.7-1.1
		c-1,1.4-1.9,2.8-2.8,4.4c0.6-0.5,1.3-0.9,2.1-1c1.1-0.1,2.3,0.3,3.1,1.1c-0.7,0.9-1.7,1.6-2.9,1.8c-1,0.1-2.1-0.2-2.9-0.9
		c-0.8,1.5-1.5,3-2.2,4.6c0.5-0.6,1.2-1.1,2-1.4c1.1-0.2,2.3,0,3.2,0.6c-0.6,1-1.6,1.8-2.7,2.2c-1,0.2-2.1,0-2.9-0.5
		c-0.6,1.6-1.2,3.3-1.6,4.9c0.5-0.7,1.2-1.3,2-1.7c1.1-0.4,2.2-0.3,3.2,0.2c-0.5,1.1-1.4,2-2.5,2.5c-1,0.3-2.1,0.3-3-0.1
		c-0.4,1.7-0.8,3.5-1.1,5.3c0.4-0.9,1.1-1.6,1.9-2.2c1-0.5,2.2-0.6,3.2-0.2c-0.4,1.2-1.2,2.2-2.2,2.9c-0.9,0.5-2,0.6-3,0.3
		c-0.3,1.8-0.4,3.6-0.5,5.4c0.3-0.9,0.9-1.7,1.7-2.3c1-0.6,2.1-0.8,3.2-0.5c-0.3,1.2-1,2.3-2,3.1c-0.9,0.6-1.9,0.8-2.9,0.6
		c0,0.5,0,1,0,1.5v1.5c1-0.2,2.1,0.1,2.9,0.6c1,0.8,1.7,1.9,2,3.1c-1.1,0.2-2.3,0-3.2-0.6c-0.8-0.6-1.4-1.4-1.7-2.3
		c0.1,1.8,0.2,3.6,0.5,5.4c1-0.3,2.1-0.2,3,0.3c1,0.7,1.8,1.7,2.2,2.9c-1.1,0.4-2.2,0.3-3.2-0.2c-0.8-0.5-1.5-1.2-1.9-2.1
		c0.3,1.8,0.6,3.5,1.1,5.3c0.9-0.4,2-0.5,3-0.1c1.1,0.5,2,1.4,2.5,2.5c-1,0.5-2.2,0.6-3.2,0.2c-0.8-0.4-1.5-0.9-2-1.7
		c0.5,1.7,1,3.3,1.6,4.9c0.9-0.5,1.9-0.7,2.9-0.5c1.1,0.4,2.1,1.2,2.7,2.2c-0.9,0.6-2.1,0.8-3.2,0.6c-0.8-0.3-1.5-0.7-2-1.3
		c0.6,1.6,1.4,3.1,2.2,4.6c0.8-0.6,1.9-0.9,2.9-0.9c1.1,0.3,2.2,0.9,2.9,1.8c-0.9,0.7-2,1.1-3.1,1.1c-0.8-0.1-1.5-0.5-2.1-1
		c0.8,1.5,1.8,3,2.8,4.3c0.7-0.7,1.7-1.1,2.7-1.1c1.1,0.1,2.2,0.7,3,1.5c-0.8,0.8-1.9,1.3-3,1.4c-0.6,0-1.1-0.2-1.7-0.5
		c0.9,1.2,1.9,2.3,2.9,3.4c0.7-0.8,1.6-1.4,2.6-1.7c1.1-0.1,2.3,0.3,3.1,1c-0.7,0.9-1.7,1.6-2.9,1.8c-0.7,0.1-1.4,0-2-0.3
		c1.2,1.2,2.5,2.3,3.9,3.4c0.5-1,1.3-1.8,2.3-2.3c1.1-0.4,2.2-0.3,3.2,0.2c-0.5,1.1-1.4,2-2.4,2.6c-0.7,0.3-1.4,0.3-2.1,0.2
		c1.5,1.1,3.1,2,4.7,2.8c0.4-1.1,1-2,1.9-2.7c1-0.6,2.1-0.8,3.2-0.5c-0.3,1.2-1,2.3-2,3.1c-0.6,0.4-1.4,0.6-2.1,0.6h-0.7l-0.3,0.4
		c1.3,2.2,1.2,5-0.3,7c-0.7-1.1-1.1-2.4-1.1-3.7c0.1-1.2,0.4-2.4,1.1-3.5c-1.9-0.9-3.7-2.1-5.4-3.3c0.4,1.1,0.6,2.3,0.4,3.5
		c-0.2,1.3-0.9,2.4-1.8,3.3c-0.5-1.2-0.7-2.6-0.6-3.9c0.2-1.2,0.8-2.3,1.6-3.2c-1.6-1.3-3.2-2.6-4.6-4.1c0.2,1.2,0.2,2.4-0.2,3.6
		c-0.4,1.2-1.2,2.2-2.3,2.8c-0.3-1.3-0.3-2.7,0.1-4c0.4-1.1,1.1-2,2.1-2.7c-1.4-1.5-2.7-3-3.9-4.6c0.1,1.3-0.1,2.5-0.6,3.7
		c-0.6,1.1-1.5,1.9-2.6,2.4c-0.2-1.3,0-2.7,0.6-3.9c0.6-1,1.4-1.9,2.5-2.3c-1.1-1.6-2.2-3.3-3.1-5c0,1.2-0.3,2.3-0.9,3.3
		c-0.6,1-1.6,1.7-2.8,2.1c-0.1-1.3,0.2-2.7,0.9-3.8c0.6-0.9,1.5-1.6,2.5-2c-0.9-1.7-1.7-3.4-2.4-5.2c-0.1,1.1-0.5,2.2-1.2,3.2
		c-0.7,0.9-1.8,1.5-2.9,1.7c0.1-1.3,0.5-2.6,1.2-3.7c0.7-0.8,1.7-1.4,2.7-1.6c-0.7-1.8-1.3-3.6-1.8-5.4c-0.2,1.1-0.7,2.1-1.4,3
		c-0.8,0.8-1.9,1.3-3.1,1.3c0.1-1.3,0.7-2.6,1.5-3.6c0.8-0.8,1.7-1.2,2.8-1.3c-0.5-1.8-0.8-3.6-1.1-5.4c-0.3,1-0.9,1.9-1.6,2.6
		c-0.9,0.7-2,1-3.2,0.9c0.3-1.3,0.9-2.4,1.8-3.3c0.8-0.6,1.8-1,2.9-0.9c-0.3-1.9-0.5-3.8-0.6-5.7c-0.4,1-1,1.8-1.8,2.5
		c-1,0.6-2.1,0.8-3.2,0.6c0.3-1.2,1-2.3,2-3.1c0.9-0.6,2-0.8,3-0.6v-1.3c0,0,0,0,0,0s0-0.1,0-0.1s0-0.1,0-0.1s0,0,0,0
		c0-0.4,0-0.9,0-1.3c-1,0.2-2.1,0-3-0.6c-1-0.8-1.7-1.9-2-3.1c1.1-0.2,2.3,0,3.2,0.6c0.8,0.6,1.4,1.5,1.8,2.4
		c0.1-1.9,0.2-3.8,0.5-5.7c-1,0-2-0.3-2.9-0.9c-0.9-0.9-1.5-2-1.8-3.3c1.1-0.1,2.3,0.2,3.2,0.9c0.7,0.7,1.3,1.6,1.6,2.6
		c0.3-1.8,0.6-3.6,1.1-5.4c-1.1-0.1-2.1-0.6-2.8-1.3c-0.8-1-1.3-2.2-1.5-3.5c1.2,0,2.2,0.5,3.1,1.3c0.7,0.9,1.2,1.9,1.4,3
		c0.5-1.8,1.1-3.6,1.8-5.4c-1.1-0.2-2-0.8-2.7-1.6c-0.7-1.1-1.1-2.4-1.2-3.7c1.2,0.2,2.2,0.8,2.9,1.7c0.7,0.9,1.1,2,1.2,3.1
		c0.7-1.8,1.5-3.5,2.4-5.2c-1-0.4-1.9-1.1-2.5-2c-0.6-1.2-0.9-2.5-0.9-3.8c1.1,0.3,2.1,1.1,2.8,2c0.6,1,0.8,2.1,0.9,3.3
		c0.9-1.7,2-3.4,3.1-5c-1.1-0.5-2-1.3-2.5-2.3c-0.5-1.3-0.7-2.6-0.6-4c1.1,0.5,2,1.3,2.6,2.4c0.5,1.2,0.7,2.4,0.6,3.7
		c1.2-1.6,2.5-3.2,3.9-4.6c-1-0.7-1.7-1.6-2.1-2.7c-0.4-1.3-0.4-2.7-0.1-4c1.1,0.7,1.9,1.7,2.3,2.9c0.4,1.2,0.4,2.4,0.2,3.5
		c1.4-1.5,3-2.9,4.6-4.1c-0.8-0.9-1.4-2-1.6-3.2c-0.2-1.3,0-2.7,0.6-3.9c0.9,0.9,1.5,2.1,1.8,3.3c0.2,1.2,0,2.4-0.4,3.5"/>
	<path class="st0" d="M320.6,7c-0.8-0.1-1.6-0.1-2.3,0.2c-1.2,0.5-2.1,1.5-2.7,2.6c1.1,0.5,2.4,0.5,3.5,0.2c1-0.5,1.9-1.3,2.5-2.3
		c1.5,1,2.9,2.1,4.2,3.3c-0.7-0.3-1.4-0.4-2.2-0.3c-1.2,0.3-2.3,1-3.1,1.9c1,0.7,2.2,1.1,3.4,1c1.1-0.2,2.1-0.8,2.9-1.6
		c1.1,1.1,2.2,2.2,3.2,3.4c-0.6-0.3-1.2-0.5-1.8-0.5c-1.2,0.1-2.4,0.6-3.3,1.4c0.9,0.9,2,1.4,3.3,1.5c1.1,0,2.1-0.4,2.9-1.1
		c1.1,1.4,2.1,2.8,3,4.4c-0.7-0.5-1.4-0.9-2.3-1c-1.2-0.1-2.4,0.3-3.4,1.1c0.8,1,1.9,1.6,3.1,1.8c1.1,0.1,2.2-0.2,3.2-0.9
		c0.9,1.5,1.7,3,2.4,4.6c-0.6-0.6-1.4-1.1-2.2-1.4c-1.2-0.2-2.4,0-3.5,0.6c0.7,1,1.8,1.8,3,2.2c1.1,0.2,2.2,0.1,3.2-0.5
		c0.7,1.6,1.3,3.3,1.8,4.9c-0.6-0.7-1.3-1.3-2.2-1.6c-1.2-0.4-2.4-0.3-3.5,0.2c0.6,1.1,1.6,2,2.8,2.5c1.1,0.3,2.2,0.3,3.3-0.1
		c0.5,1.7,0.9,3.5,1.2,5.3c-0.5-0.9-1.2-1.7-2.1-2.2c-1.1-0.5-2.4-0.6-3.5-0.2c0.5,1.2,1.3,2.2,2.5,2.9c1,0.5,2.2,0.6,3.3,0.3
		c0.3,1.8,0.5,3.6,0.5,5.4c-0.4-0.9-1.1-1.7-1.9-2.3c-1.1-0.6-2.3-0.8-3.5-0.5c0.4,1.2,1.2,2.3,2.2,3.1c1,0.6,2.1,0.8,3.2,0.6
		c0,0.5,0,1,0,1.5s0,1,0,1.5c-1.1-0.2-2.2,0.1-3.2,0.6c-1,0.8-1.8,1.9-2.2,3.1c1.2,0.2,2.4,0,3.5-0.6c0.8-0.6,1.5-1.4,1.9-2.3
		c-0.1,1.8-0.3,3.6-0.5,5.4c-1.1-0.3-2.3-0.2-3.3,0.3c-1.1,0.7-2,1.7-2.4,2.9c1.2,0.4,2.4,0.3,3.5-0.2c0.9-0.5,1.6-1.2,2.1-2.1
		c-0.3,1.8-0.7,3.5-1.2,5.3c-1-0.4-2.2-0.5-3.2-0.2c-1.2,0.5-2.1,1.4-2.7,2.5c1.1,0.5,2.4,0.6,3.5,0.2c0.9-0.3,1.6-0.9,2.2-1.7
		c-0.5,1.7-1.1,3.3-1.8,4.9c-1-0.5-2.1-0.7-3.2-0.5c-1.2,0.4-2.3,1.2-3,2.2c1.1,0.6,2.3,0.8,3.5,0.6c0.8-0.2,1.6-0.7,2.2-1.3
		c-0.7,1.6-1.5,3.1-2.4,4.6c-0.9-0.6-2-1-3.2-0.9c-1.2,0.2-2.3,0.9-3.1,1.8c1,0.8,2.2,1.1,3.4,1.1c0.8-0.1,1.6-0.5,2.3-1
		c-0.9,1.5-1.9,3-3,4.3c-0.8-0.7-1.9-1.1-2.9-1.2c-1.2,0.1-2.4,0.6-3.3,1.5c0.9,0.9,2.1,1.4,3.3,1.4c0.6,0,1.2-0.2,1.8-0.5
		c-1,1.2-2.1,2.3-3.2,3.4c-0.8-0.8-1.8-1.4-2.9-1.6c-1.2-0.1-2.4,0.3-3.4,1c0.8,1,1.9,1.7,3.1,1.9c0.7,0.1,1.5,0,2.2-0.3
		c-1.3,1.2-2.8,2.3-4.2,3.4c-0.6-1-1.4-1.8-2.5-2.3c-1.2-0.4-2.4-0.3-3.5,0.2c0.6,1.1,1.5,2,2.7,2.6c0.7,0.3,1.6,0.3,2.3,0.2
		c-1.6,1.1-3.3,2-5.1,2.8c-0.4-1.1-1.1-2-2.1-2.7c-1.1-0.6-2.3-0.8-3.5-0.5c0.4,1.2,1.2,2.3,2.2,3.1c0.7,0.4,1.5,0.6,2.3,0.6h0.7
		l0.3,0.4c-0.6,1-1,2.2-1,3.4c0.1,1.3,0.6,2.6,1.4,3.7c0.8-1.1,1.2-2.4,1.2-3.7c-0.1-1.2-0.5-2.4-1.2-3.5c2-0.9,4-2.1,5.8-3.3
		c-0.5,1.1-0.6,2.3-0.4,3.5c0.3,1.3,1,2.5,1.9,3.3c0.6-1.2,0.8-2.6,0.6-3.9c-0.3-1.2-0.9-2.3-1.8-3.2c1.8-1.2,3.5-2.6,5.1-4.1
		c-0.3,1.2-0.2,2.4,0.2,3.6c0.5,1.2,1.4,2.2,2.5,2.8c0.4-1.3,0.3-2.7-0.1-4c-0.5-1.1-1.3-2-2.3-2.7c1.5-1.5,2.9-3,4.2-4.6
		c-0.1,1.3,0.1,2.6,0.6,3.7c0.6,1.1,1.6,1.9,2.8,2.4c0.2-1.3,0-2.7-0.6-3.9c-0.6-1.1-1.6-1.9-2.7-2.3c1.2-1.6,2.4-3.3,3.4-5
		c0,1.2,0.3,2.3,0.9,3.3c0.7,1,1.8,1.8,3,2.1c0.1-1.3-0.2-2.7-0.9-3.8c-0.7-0.9-1.6-1.6-2.8-2c1-1.7,1.9-3.4,2.6-5.2
		c0.1,1.1,0.6,2.2,1.3,3.1c0.8,0.9,2,1.5,3.2,1.7c-0.1-1.3-0.5-2.6-1.3-3.7c-0.8-0.9-1.8-1.4-3-1.6c0.7-1.8,1.4-3.6,1.9-5.4
		c0.2,1.1,0.7,2.2,1.5,3c0.9,0.8,2.1,1.3,3.3,1.3c-0.1-1.3-0.7-2.6-1.5-3.6c-0.8-0.8-1.9-1.2-3.1-1.3c0.5-1.8,0.9-3.6,1.2-5.4
		c0.3,1,0.9,1.9,1.8,2.6c1,0.7,2.2,1,3.4,0.9c-0.3-1.3-1-2.4-2-3.3c-0.9-0.6-2-1-3.1-0.9c0.3-1.9,0.5-3.8,0.6-5.7
		c0.4,1,1.1,1.9,2,2.5c1.1,0.6,2.3,0.8,3.5,0.6c-0.4-1.2-1.2-2.3-2.2-3.1c-1-0.6-2.1-0.8-3.3-0.6v-1.3c0,0,0,0,0,0s0-0.1,0-0.1
		s0-0.1,0-0.1s0,0,0,0V46c1.1,0.2,2.3,0,3.3-0.6c1-0.8,1.8-1.9,2.2-3.1c-1.2-0.2-2.4-0.1-3.5,0.6c-0.9,0.6-1.6,1.5-2,2.5
		c-0.1-1.9-0.3-3.8-0.6-5.7c1.1,0,2.2-0.3,3.1-0.9c1-0.9,1.7-2,2-3.3c-1.2-0.1-2.4,0.2-3.5,0.9c-0.8,0.7-1.4,1.6-1.8,2.6
		c-0.3-1.8-0.7-3.6-1.2-5.4c1.2-0.1,2.3-0.6,3.1-1.4c0.9-1,1.4-2.2,1.6-3.5c-1.2,0-2.4,0.5-3.3,1.3c-0.8,0.8-1.3,1.9-1.5,3
		c-0.5-1.8-1.2-3.7-1.9-5.4c1.2-0.2,2.2-0.8,3-1.6c0.8-1.1,1.2-2.4,1.3-3.7c-1.2,0.2-2.4,0.8-3.2,1.7c-0.7,0.9-1.2,2-1.3,3.1
		c-0.8-1.8-1.7-3.6-2.6-5.2c1.1-0.4,2.1-1.1,2.8-2c0.7-1.2,1-2.5,0.9-3.8c-1.2,0.3-2.3,1.1-3,2.1c-0.6,1-0.9,2.1-0.9,3.3
		c-1-1.7-2.2-3.4-3.4-5c1.1-0.4,2.1-1.3,2.7-2.3c0.6-1.2,0.8-2.6,0.6-3.9c-1.2,0.4-2.2,1.3-2.8,2.4c-0.6,1.2-0.8,2.4-0.6,3.7
		c-1.3-1.7-2.7-3.2-4.2-4.7c1-0.6,1.8-1.6,2.3-2.7c0.4-1.3,0.5-2.7,0.1-4c-1.1,0.6-2,1.6-2.5,2.8c-0.4,1.1-0.4,2.4-0.2,3.6
		c-1.6-1.5-3.3-2.9-5.1-4.1c0.9-0.8,1.5-1.9,1.8-3.1c0.2-1.3,0-2.7-0.6-3.9c-1,0.9-1.7,2-1.9,3.3c-0.2,1.2,0,2.4,0.4,3.5"/>
</g>
<g>
	<path class="st0" d="M228.2,35.4c-3.6-3.7-9.5-3.8-13.2-0.2c-0.1,0.1-0.2,0.2-0.2,0.2c-1.6,1.9-2.5,4.3-2.4,6.8c0,0.2,0,0.4,0,0.5
		v0.3h-7.6V31.5c0-0.7-0.3-1.4-0.8-1.9c-0.5-0.5-1.3-0.8-2-0.8c-0.8,0-1.5,0.3-2,0.8c-0.5,0.5-0.8,1.2-0.8,1.9v15
		c0,1.2-0.5,2.4-1.4,3.3c-0.8,0.9-2,1.4-3.2,1.3h-1.3c-0.7,0-1.4,0.3-1.9,0.8c-0.5,0.5-0.8,1.2-0.8,1.9v0.1c0,1.5,1.2,2.7,2.7,2.7
		h1.3c2.7,0,5.3-1.1,7.1-3c1.3-1.3,2.2-2.9,2.6-4.7l0.1-0.3h9.9l0.1,0.1c1.7,2,4.2,3.1,6.9,3c2.6,0.1,5-1,6.7-2.9
		c1.6-1.9,2.4-4.3,2.3-6.7C230.4,39.7,229.6,37.3,228.2,35.4z M221.4,46.4c-0.9,0.1-1.7-0.3-2.2-1c-0.5-0.9-0.8-1.9-0.8-3
		c-0.1-1.1,0.2-2.3,0.8-3.3c0.5-0.8,1.4-1.3,2.4-1.2c0.8-0.1,1.6,0.3,2.1,1c0.5,0.9,0.7,2,0.7,3C224.3,46.5,222.4,46.5,221.4,46.4
		L221.4,46.4z"/>
	<path class="st0" d="M61.4,30.4L61.4,30.4c-1.7,0-2.9,1.3-3,2.9v12.6c0,3-2.4,5.4-5.4,5.4c-3,0-5.4-2.4-5.4-5.4l0,0V33.3
		c0-0.8-0.3-1.5-0.8-2c-0.6-0.6-1.3-0.9-2.1-0.9c-1.6,0-2.9,1.3-2.9,2.9v12.6c-0.2,6.2,4.7,11.4,10.9,11.6
		c6.2,0.2,11.4-4.7,11.6-10.9c0-0.2,0-0.4,0-0.7V33.3C64.3,31.7,63,30.4,61.4,30.4L61.4,30.4z"/>
	<path class="st0" d="M192.1,47.2v-3.6c0.2-3.9-1.4-7.8-4.2-10.5c-3-2.8-7.3-4.1-12.5-3.7c-2.7,0.3-5.3,1.5-7.3,3.4l-0.9,1
		c-0.5,0.5-0.8,1.2-0.8,2c0,0.8,0.3,1.5,0.8,2l0.1,0c0.6,0.6,1.3,0.9,2.1,1c0.8,0.1,1.6-0.1,2.3-0.7l0.9-0.9
		c1.1-1.1,2.5-1.7,4.1-1.7h0.1c2.1,0.1,4.1,0.7,5.9,1.8c1.9,1.2,3,3.3,2.9,5.5v0.2h-0.1c-4.2,0-102.4,0-105.5,0h-0.1
		c-1.2,0-2.3-0.5-3.1-1.4c-0.8-0.8-1.3-2-1.3-3.2v-14c0-0.8-0.3-1.6-0.9-2.2c-0.6-0.6-1.4-0.9-2.2-0.9l0,0c-1.7,0-3.1,1.4-3.1,3.1
		v14c0,2.9,1.1,5.6,3.1,7.6c2,2,4.8,3.1,7.6,3h110.4C191.3,48.9,192.1,48.1,192.1,47.2z"/>
	<path class="st0" d="M53.4,27.7c0.9,0,1.7-0.4,2.3-1c0.7-0.6,1-1.5,1-2.4c0-0.9-0.4-1.7-1-2.3c-1.3-1.3-3.4-1.3-4.7,0
		s-1.3,3.4,0,4.7C51.7,27.3,52.5,27.6,53.4,27.7L53.4,27.7z"/>
	<path class="st0" d="M179,50.8c-0.9,0-1.8,0.4-2.4,1c-1.3,1.3-1.3,3.4,0,4.7s3.4,1.3,4.7,0c0.6-0.6,1-1.5,1-2.3
		C182.3,52.3,180.9,50.8,179,50.8L179,50.8z"/>
</g>
<path class="st0" d="M134.5,61.7c-1.9-0.1-3.8,0.6-5.2,1.9c-1.3,1.3-1.9,3.3-1.9,6.1c0,0.3,0,0.6,0,0.9c0,0.3,0,0.5,0,0.7
	c0,0.3-0.1,0.6-0.3,0.8c-0.2,0.2-0.5,0.4-0.8,0.6c-0.3,0.2-0.7,0.4-1,0.6c-0.4,0.2-0.8,0.5-1.2,0.8c-0.4,0.4-0.7,0.8-0.9,1.3
	c-0.3,0.6-0.4,1.3-0.3,2v6.3c0,0.3,0.2,0.5,0.5,0.5h2.9c0.3,0,0.5-0.2,0.5-0.5v-5.6c0-0.4,0-0.8,0.2-1.2c0.2-0.2,0.4-0.4,0.6-0.6
	c0.3-0.2,0.6-0.3,0.9-0.5c0.2-0.1,0.4-0.3,0.6-0.4c0.5,0.7,1.2,1.2,2,1.5c1.1,0.4,2.2,0.6,3.3,0.6c1,0,2-0.1,2.9-0.5
	c0.9-0.3,1.6-0.8,2.3-1.5c0.6-0.7,1.1-1.6,1.4-2.5c0.3-1.1,0.5-2.3,0.5-3.5c0-2.8-0.6-4.8-1.9-6.1C138.2,62.3,136.4,61.6,134.5,61.7
	z M132.1,66.5c0.6-0.7,1.5-1.1,2.4-1.1c0.9-0.1,1.8,0.3,2.4,1.1c0.6,1,0.8,2.1,0.8,3.3c0.1,1.1-0.2,2.3-0.8,3.3
	c-0.6,0.7-1.5,1-2.4,0.9c-0.9,0.1-1.8-0.3-2.4-0.9c-0.6-1-0.9-2.2-0.8-3.3C131.2,68.6,131.5,67.4,132.1,66.5z"/>
<path class="st0" d="M177.7,80.1h2.1c0.3,0,0.5,0.2,0.5,0.5v2.3c0,0.3-0.2,0.5-0.5,0.5h-2.1c-0.3,0-0.5-0.2-0.5-0.5v-2.3
	C177.2,80.3,177.4,80.1,177.7,80.1z"/>
<path class="st0" d="M173.5,80.1h2.1c0.3,0,0.5,0.2,0.5,0.5v2.3c0,0.3-0.2,0.5-0.5,0.5h-2.1c-0.3,0-0.5-0.2-0.5-0.5v-2.3
	C173,80.3,173.2,80.1,173.5,80.1z"/>
<path class="st0" d="M207.6,62.3h-2.2c-0.4,0-0.8,0.3-0.8,0.8c0,0,0,0.1,0,0.1v9.2c0,0.4,0,0.8-0.2,1.1c-0.3,0.2-0.6,0.3-0.9,0.2
	H200c-0.4,0-0.8-0.2-1.1-0.5c-0.4-0.6-0.6-1.3-0.6-2c0-0.2,0-0.5,0.1-0.8c0.1-0.3,0-0.5,0-0.8c0-2.8-0.6-4.8-1.9-6.1
	c-1.4-1.3-3.3-2-5.2-1.9c-1.9-0.1-3.8,0.6-5.2,1.9c-1.3,1.3-1.9,3.3-1.9,6.1v0.7c0,0.2,0,0.5,0,0.7c0,0.5,0,0.9-0.2,1.3
	c-0.1,0.3-0.2,0.6-0.4,0.8c-0.1,0.2-0.3,0.3-0.5,0.4c-0.2,0.1-0.4,0.1-0.6,0.1h-2.1c-0.7,0-1.4-0.1-2-0.5c-0.4-0.3-0.7-0.8-0.6-1.3
	v-8.7c0-0.4-0.3-0.8-0.7-0.8c0,0-0.1,0-0.1,0H175c-0.4,0-0.8,0.3-0.9,0.7c0,0,0,0.1,0,0.1v9.2c0,0.7-0.1,1-0.2,1.1
	c-0.3,0.2-0.6,0.3-0.9,0.2h-2.4c-0.1,0-0.1,0-0.1,0h-13v-4c0-2.8-0.6-4.8-1.9-6.1c-1.4-1.3-3.2-2-5.1-1.9c-0.9,0-1.9,0.2-2.7,0.5
	c-0.9,0.3-1.7,0.9-2.3,1.5c-0.7,0.7-1.2,1.6-1.6,2.6c-0.4,1.2-0.6,2.4-0.6,3.6c0,1.2,0.1,2.3,0.5,3.5c0.3,0.9,0.8,1.7,1.4,2.3
	c0.6,0.6,1.4,1,2.2,1.2c0.9,0.3,1.9,0.4,2.9,0.4h3.2v0.4c0,0.5-0.1,1-0.2,1.4c-0.1,0.3-0.3,0.6-0.5,0.8c-0.2,0.2-0.5,0.3-0.8,0.4
	c-0.4,0.1-0.8,0.1-1.1,0.1h-4.1c-0.4,0-0.8,0.3-0.8,0.7c0,0,0,0.1,0,0.1v2c0,0.4,0.3,0.8,0.8,0.8c0,0,0.1,0,0.1,0h4.3
	c0.9,0,1.8-0.1,2.6-0.4c0.8-0.2,1.5-0.6,2.1-1.2c0.6-0.6,1-1.2,1.3-2c0.3-0.9,0.5-1.9,0.5-2.9v-0.3h16c1.3,0.1,2.7-0.4,3.6-1.4
	c0.3,0.3,0.6,0.6,1,0.8c0.7,0.3,1.4,0.5,2.2,0.5h2.2c0.8,0,1.5-0.1,2.2-0.3c0.7-0.2,1.3-0.6,1.8-1.1c0.5,0.5,1.2,0.9,1.9,1.2
	c1.9,0.6,4.1,0.6,6,0c0.7-0.3,1.4-0.7,1.9-1.2c0.2,0.2,0.4,0.4,0.6,0.5c0.4,0.2,0.7,0.4,1.1,0.6c0.4,0.1,0.8,0.2,1.2,0.2
	c0.4,0,0.7,0,1.1,0h3.6c1.3,0.1,2.6-0.3,3.5-1.2c0.8-1,1.1-2.3,1-3.6v-9.4C208.4,62.7,208,62.3,207.6,62.3
	C207.6,62.3,207.6,62.3,207.6,62.3z M153.6,69.7v4h-3c-0.9,0.1-1.8-0.2-2.6-0.8c-0.7-0.9-0.9-1.9-0.8-3c-0.1-1.2,0.3-2.4,0.9-3.3
	c0.5-0.8,1.4-1.2,2.3-1.2c0.9-0.1,1.8,0.3,2.3,1C153.4,67.4,153.7,68.6,153.6,69.7L153.6,69.7z M194.6,69.7c0.1,1.1-0.2,2.3-0.8,3.3
	c-1.4,1.3-3.5,1.3-4.8,0c-0.6-1-0.9-2.2-0.8-3.3c-0.1-1.1,0.2-2.3,0.8-3.3c1.2-1.3,3.2-1.4,4.5-0.2c0.1,0.1,0.2,0.2,0.2,0.2
	C194.4,67.4,194.7,68.6,194.6,69.7z"/>
<path class="st0" d="M228.2,62.3H226c-0.4,0-0.8,0.3-0.8,0.8c0,0,0,0.1,0,0.1v9.2c0,0.4,0,0.8-0.2,1.1c-0.3,0.2-0.6,0.3-0.9,0.2
	h-2.6c-0.7,0-1.4-0.1-2-0.5c-0.4-0.3-0.7-0.8-0.6-1.3v-8.7c0-0.4-0.3-0.8-0.7-0.8c0,0-0.1,0-0.1,0h-2.2c-0.4,0-0.8,0.3-0.8,0.7
	c0,0,0,0.1,0,0.1v15c0,1.7-0.7,2.4-2.3,2.4h-0.8c-0.4,0-0.8,0.3-0.8,0.8c0,0,0,0.1,0,0.1v2c0,0.4,0.3,0.8,0.8,0.8c0,0,0.1,0,0.1,0
	h0.9c1.7,0.1,3.3-0.5,4.5-1.6c1.1-1.3,1.7-2.9,1.6-4.6v-1.2c0.7,0.4,1.5,0.6,2.3,0.5h3.4c1.3,0.1,2.6-0.3,3.5-1.2
	c0.8-1,1.1-2.3,1-3.6v-9.4C229,62.7,228.7,62.4,228.2,62.3C228.2,62.3,228.2,62.3,228.2,62.3z"/>
<path class="st0" d="M205.7,80.1h2.1c0.3,0,0.5,0.2,0.5,0.5v2.3c0,0.3-0.2,0.5-0.5,0.5h-2.1c-0.3,0-0.5-0.2-0.5-0.5v-2.3
	C205.2,80.3,205.4,80.1,205.7,80.1z"/>
<path class="st0" d="M224.2,80.1h2.1c0.3,0,0.5,0.2,0.5,0.5v2.3c0,0.3-0.2,0.5-0.5,0.5h-2.1c-0.3,0-0.5-0.2-0.5-0.5v-2.3
	C223.8,80.3,224,80.1,224.2,80.1z"/>
<path class="st0" d="M201.5,80.1h2.1c0.3,0,0.5,0.2,0.5,0.5v2.3c0,0.3-0.2,0.5-0.5,0.5h-2.1c-0.3,0-0.5-0.2-0.5-0.5v-2.3
	C201,80.3,201.2,80.1,201.5,80.1z"/>
</svg>
