<?xml version="1.0" encoding="utf-8"?>
<!-- Generator: Adobe Illustrator 24.0.0, SVG Export Plug-In . SVG Version: 6.00 Build 0)  -->
<svg version="1.1" id="Layer_1" xmlns="http://www.w3.org/2000/svg" xmlns:xlink="http://www.w3.org/1999/xlink" x="0px" y="0px"
	 viewBox="0 0 283.32 58" style="enable-background:new 0 0 283.32 58;" xml:space="preserve">
<style type="text/css">
	.st0{fill:url(#SVGID_1_);}
	.st1{fill:url(#SVGID_2_);}
	.st2{fill:url(#SVGID_3_);}
	.st3{fill:url(#SVGID_4_);}
	.st4{fill:url(#SVGID_5_);}
	.st5{fill:url(#SVGID_6_);}
	.st6{fill:url(#SVGID_7_);}
	.st7{opacity:0.49;}
	.st8{clip-path:url(#SVGID_9_);fill:url(#SVGID_10_);}
	.st9{clip-path:url(#SVGID_12_);fill:url(#SVGID_13_);}
	.st10{clip-path:url(#SVGID_15_);fill:url(#SVGID_16_);}
	.st11{clip-path:url(#SVGID_18_);fill:url(#SVGID_19_);}
	.st12{clip-path:url(#SVGID_21_);fill:url(#SVGID_22_);}
	.st13{clip-path:url(#SVGID_24_);fill:url(#SVGID_25_);}
	.st14{clip-path:url(#SVGID_27_);fill:url(#SVGID_28_);}
	.st15{clip-path:url(#SVGID_30_);fill:url(#SVGID_31_);}
	.st16{fill:url(#SVGID_32_);}
	.st17{fill:#FFFFFF;}
</style>
<g>
	<g>
		<linearGradient id="SVGID_1_" gradientUnits="userSpaceOnUse" x1="205.7714" y1="32.1602" x2="214.9276" y2="32.1602">
			<stop  offset="0.0874" style="stop-color:#D7B477"/>
			<stop  offset="0.2799" style="stop-color:#D7B478"/>
			<stop  offset="1" style="stop-color:#E3B788"/>
		</linearGradient>
		<path class="st0" d="M207.2,38.52c-0.97,0-1.43-0.67-1.43-2.03v-8.68c0-1.4,0.39-2.02,1.98-2.02h2.58c2.88,0,4.6,1.68,4.6,4.28
			c0,2.63-1.59,4.26-4.37,4.26h-1.93v2.16C208.63,37.85,208.18,38.52,207.2,38.52z M209.87,31.74c1.31,0,1.96-0.57,1.96-1.66
			c0-1.13-0.64-1.64-1.96-1.64h-1.24v3.31H209.87z"/>
		<linearGradient id="SVGID_2_" gradientUnits="userSpaceOnUse" x1="216.4803" y1="32.2044" x2="225.5836" y2="32.2044">
			<stop  offset="0.0874" style="stop-color:#D7B477"/>
			<stop  offset="0.2799" style="stop-color:#D7B478"/>
			<stop  offset="1" style="stop-color:#E3B788"/>
		</linearGradient>
		<path class="st1" d="M219.34,36.49c0,1.36-0.46,2.03-1.43,2.03c-0.97,0-1.43-0.67-1.43-2.03v-8.68c0-1.4,0.39-2.02,1.98-2.02h2.23
			c3.09,0,4.79,1.61,4.79,3.92c0,1.79-1.11,3.08-3,3.39l2.26,2.51c0.57,0.64,0.85,1.18,0.85,1.64c0,0.74-0.57,1.34-1.36,1.34
			c-0.57,0-1.01-0.37-1.54-1.03l-3.34-4.19V36.49z M220.67,31.49c1.17,0,1.82-0.58,1.82-1.56c0-0.94-0.64-1.5-1.79-1.5h-1.36v3.06
			H220.67z"/>
		<linearGradient id="SVGID_3_" gradientUnits="userSpaceOnUse" x1="227.0303" y1="32.0808" x2="234.3484" y2="32.0808">
			<stop  offset="0.0874" style="stop-color:#D7B477"/>
			<stop  offset="0.2799" style="stop-color:#D7B478"/>
			<stop  offset="1" style="stop-color:#E3B788"/>
		</linearGradient>
		<path class="st2" d="M234.26,27.14c0,0.9-0.67,1.33-2.03,1.33h-2.33v2.24h2.02c1.36,0,2.03,0.42,2.03,1.33
			c0,0.9-0.67,1.33-2.03,1.33h-2.02v2.35h2.42c1.36,0,2.03,0.42,2.03,1.33s-0.67,1.33-2.03,1.33h-3.34c-1.52,0-1.94-0.44-1.94-1.8
			v-8.75c0-1.4,0.39-2.02,1.98-2.02h3.22C233.59,25.8,234.26,26.24,234.26,27.14z"/>
		<linearGradient id="SVGID_4_" gradientUnits="userSpaceOnUse" x1="235.1059" y1="32.0896" x2="249.8303" y2="32.0896">
			<stop  offset="0.0874" style="stop-color:#D7B477"/>
			<stop  offset="0.2799" style="stop-color:#D7B478"/>
			<stop  offset="1" style="stop-color:#E3B788"/>
		</linearGradient>
		<path class="st3" d="M236.75,27.6c0.23-1.31,0.73-1.96,1.94-1.96c1.06,0,1.71,0.55,2,1.7l1.91,7.51l1.79-7.53
			c0.26-1.11,0.92-1.68,1.96-1.68c1.26,0,1.79,0.67,2.02,2.07l1.4,8.64c0.05,0.3,0.07,0.53,0.07,0.69c0,0.94-0.6,1.5-1.45,1.5
			c-0.81,0-1.27-0.57-1.41-1.68l-0.9-7.51c-1.18,5.11-1.91,8.01-2.33,8.68c-0.25,0.39-0.62,0.51-1.2,0.51
			c-0.94,0-1.41-0.37-1.68-1.45l-1.86-7.74l-0.99,7.34c-0.18,1.25-0.62,1.84-1.5,1.84c-0.81,0-1.4-0.55-1.4-1.48
			c0-0.21,0.04-0.51,0.11-0.87L236.75,27.6z"/>
		<linearGradient id="SVGID_5_" gradientUnits="userSpaceOnUse" x1="251.2765" y1="32.0808" x2="254.14" y2="32.0808">
			<stop  offset="0.0874" style="stop-color:#D7B477"/>
			<stop  offset="0.2799" style="stop-color:#D7B478"/>
			<stop  offset="1" style="stop-color:#E3B788"/>
		</linearGradient>
		<path class="st4" d="M252.71,38.52c-0.97,0-1.43-0.67-1.43-2.03v-8.82c0-1.36,0.46-2.03,1.43-2.03c0.97,0,1.43,0.67,1.43,2.03
			v8.82C254.14,37.85,253.68,38.52,252.71,38.52z"/>
		<linearGradient id="SVGID_6_" gradientUnits="userSpaceOnUse" x1="256.4362" y1="32.1867" x2="267.2187" y2="32.1867">
			<stop  offset="0.0874" style="stop-color:#D7B477"/>
			<stop  offset="0.2799" style="stop-color:#D7B478"/>
			<stop  offset="1" style="stop-color:#E3B788"/>
		</linearGradient>
		<path class="st5" d="M256.44,27.67c0-1.36,0.46-2.03,1.43-2.03c0.97,0,1.43,0.67,1.43,2.03v4.98c0,2.23,0.87,3.34,2.53,3.34
			c1.66,0,2.53-1.11,2.53-3.34v-4.98c0-1.36,0.46-2.03,1.43-2.03c0.97,0,1.43,0.67,1.43,2.03v5.3c0,3.75-2.1,5.76-5.39,5.76
			c-3.29,0-5.39-2.01-5.39-5.76V27.67z"/>
		<linearGradient id="SVGID_7_" gradientUnits="userSpaceOnUse" x1="268.5942" y1="32.0896" x2="283.3192" y2="32.0896">
			<stop  offset="0.0874" style="stop-color:#D7B477"/>
			<stop  offset="0.2799" style="stop-color:#D7B478"/>
			<stop  offset="1" style="stop-color:#E3B788"/>
		</linearGradient>
		<path class="st6" d="M270.24,27.6c0.23-1.31,0.73-1.96,1.94-1.96c1.06,0,1.71,0.55,2,1.7l1.91,7.51l1.79-7.53
			c0.26-1.11,0.92-1.68,1.96-1.68c1.26,0,1.79,0.67,2.02,2.07l1.4,8.64c0.05,0.3,0.07,0.53,0.07,0.69c0,0.94-0.6,1.5-1.45,1.5
			c-0.81,0-1.27-0.57-1.41-1.68l-0.9-7.51c-1.18,5.11-1.91,8.01-2.33,8.68c-0.25,0.39-0.62,0.51-1.2,0.51
			c-0.94,0-1.41-0.37-1.68-1.45l-1.86-7.74l-0.99,7.34c-0.18,1.25-0.62,1.84-1.5,1.84c-0.81,0-1.4-0.55-1.4-1.48
			c0-0.21,0.04-0.51,0.11-0.87L270.24,27.6z"/>
	</g>
	<g class="st7">
		<g>
			<defs>
				<path id="SVGID_8_" d="M83.58,23.39c-1.44-1.7-3.32-2.57-5.59-2.57c-2.03,0-3.78,0.73-5.22,2.16c-1.43,1.44-2.15,3.2-2.15,5.21
					v8.57c0,0.49,0.18,0.91,0.52,1.24c0.35,0.35,0.77,0.52,1.25,0.52h0.04c0.48,0,0.9-0.17,1.24-0.52c0.35-0.34,0.53-0.76,0.53-1.25
					V28.2c0-1.05,0.36-1.94,1.12-2.68c0.75-0.75,1.62-1.11,2.68-1.11c1.06,0,1.93,0.36,2.68,1.11c0.75,0.75,1.11,1.63,1.11,2.68
					v8.57c0,0.49,0.18,0.91,0.52,1.25c0.35,0.35,0.77,0.52,1.26,0.52h0.03c0.49,0,0.91-0.18,1.24-0.52
					c0.35-0.34,0.53-0.76,0.53-1.25V28.2c0-1.05,0.36-1.94,1.12-2.68c0.75-0.75,1.62-1.11,2.68-1.11c1.07,0,1.95,0.36,2.7,1.11
					c0.75,0.75,1.11,1.63,1.11,2.68v8.57c0,0.49,0.18,0.91,0.52,1.24c0.33,0.35,0.76,0.53,1.24,0.53h0.03
					c0.49,0,0.91-0.17,1.26-0.52c0.34-0.34,0.51-0.75,0.51-1.24V28.2c0-2.02-0.73-3.77-2.16-5.21c-1.43-1.43-3.19-2.16-5.22-2.16
					C86.89,20.82,85.01,21.69,83.58,23.39"/>
			</defs>
			<clipPath id="SVGID_9_">
				<use xlink:href="#SVGID_8_"  style="overflow:visible;"/>
			</clipPath>
			
				<linearGradient id="SVGID_10_" gradientUnits="userSpaceOnUse" x1="-544.0142" y1="1874.0494" x2="-543.0142" y2="1874.0494" gradientTransform="matrix(25.9114 0 0 -25.9114 14166.8066 48588.9922)">
				<stop  offset="0" style="stop-color:#D7B477"/>
				<stop  offset="0.2337" style="stop-color:#D7B477"/>
				<stop  offset="0.7628" style="stop-color:#DEB682"/>
				<stop  offset="1" style="stop-color:#E3B788"/>
			</linearGradient>
			<rect x="70.62" y="20.82" class="st8" width="25.91" height="17.71"/>
		</g>
		<g>
			<defs>
				<path id="SVGID_11_" d="M104.93,33.4c-1.02-1.03-1.51-2.23-1.51-3.67c0-1.45,0.49-2.66,1.51-3.69c1.03-1.03,2.24-1.53,3.69-1.53
					c1.45,0,2.65,0.5,3.67,1.53c1.03,1.03,1.53,2.24,1.53,3.69c0,1.45-0.5,2.65-1.53,3.67c-1.02,1.03-2.22,1.53-3.67,1.53
					C107.16,34.93,105.96,34.43,104.93,33.4 M102.36,23.42c-1.72,1.72-2.59,3.83-2.59,6.26c0,2.43,0.87,4.54,2.59,6.26
					c1.72,1.72,3.83,2.59,6.26,2.59c2.43,0,4.54-0.87,6.26-2.59s2.59-3.83,2.59-6.26c0-2.43-0.87-4.54-2.59-6.26
					c-1.72-1.72-3.83-2.59-6.26-2.59C106.19,20.82,104.08,21.7,102.36,23.42"/>
			</defs>
			<clipPath id="SVGID_12_">
				<use xlink:href="#SVGID_11_"  style="overflow:visible;"/>
			</clipPath>
			
				<linearGradient id="SVGID_13_" gradientUnits="userSpaceOnUse" x1="-537.7441" y1="1898.0352" x2="-536.7441" y2="1898.0352" gradientTransform="matrix(17.7015 0 0 -17.7015 9618.668 33627.832)">
				<stop  offset="0" style="stop-color:#D7B477"/>
				<stop  offset="0.2337" style="stop-color:#D7B477"/>
				<stop  offset="0.7628" style="stop-color:#DEB682"/>
				<stop  offset="1" style="stop-color:#E3B788"/>
			</linearGradient>
			<rect x="99.77" y="20.82" class="st9" width="17.7" height="17.71"/>
		</g>
		<g>
			<defs>
				<path id="SVGID_14_" d="M133.73,20.82c-0.49,0-0.91,0.18-1.26,0.52c-0.35,0.35-0.52,0.77-0.52,1.26v8.52
					c0,1.07-0.36,1.96-1.11,2.71c-0.76,0.75-1.65,1.12-2.72,1.12c-1.08,0-1.97-0.36-2.73-1.11c-0.75-0.76-1.11-1.65-1.11-2.72V22.6
					c0-0.49-0.18-0.91-0.52-1.26c-0.35-0.35-0.76-0.52-1.24-0.52h-0.05c-0.48,0-0.89,0.18-1.24,0.52c-0.35,0.35-0.52,0.77-0.52,1.26
					v8.52c0,2.03,0.73,3.79,2.17,5.23c1.44,1.44,3.21,2.17,5.24,2.17c2.03,0,3.79-0.73,5.23-2.17c1.44-1.44,2.17-3.2,2.17-5.23V22.6
					c0-0.49-0.18-0.91-0.52-1.25c-0.34-0.35-0.76-0.53-1.25-0.53H133.73z"/>
			</defs>
			<clipPath id="SVGID_15_">
				<use xlink:href="#SVGID_14_"  style="overflow:visible;"/>
			</clipPath>
			
				<linearGradient id="SVGID_16_" gradientUnits="userSpaceOnUse" x1="-533.8984" y1="1912.7465" x2="-532.8984" y2="1912.7465" gradientTransform="matrix(14.8213 0 0 -14.8213 8033.7617 28379.0273)">
				<stop  offset="0" style="stop-color:#D7B477"/>
				<stop  offset="0.2337" style="stop-color:#D7B477"/>
				<stop  offset="0.7628" style="stop-color:#DEB682"/>
				<stop  offset="1" style="stop-color:#E3B788"/>
			</linearGradient>
			<rect x="120.7" y="20.82" class="st10" width="14.82" height="17.71"/>
		</g>
		<g>
			<defs>
				<path id="SVGID_17_" d="M145.98,20.82c-1.86,0-3.47,0.66-4.78,1.97c-1.29,1.3-1.95,2.91-1.97,4.78v9.19
					c0,0.49,0.18,0.91,0.52,1.25c0.35,0.35,0.76,0.52,1.24,0.52h0.05c0.48,0,0.89-0.17,1.24-0.52c0.35-0.34,0.53-0.76,0.53-1.25
					v-9.19c0.01-0.89,0.31-1.63,0.92-2.25c0.62-0.62,1.36-0.92,2.25-0.92h0.89c0.49,0,0.91-0.18,1.26-0.52
					c0.33-0.34,0.5-0.76,0.5-1.24V22.6c0-0.49-0.17-0.91-0.5-1.26c-0.35-0.35-0.77-0.52-1.26-0.52H145.98z"/>
			</defs>
			<clipPath id="SVGID_18_">
				<use xlink:href="#SVGID_17_"  style="overflow:visible;"/>
			</clipPath>
			
				<linearGradient id="SVGID_19_" gradientUnits="userSpaceOnUse" x1="-520.2656" y1="1964.897" x2="-519.2656" y2="1964.897" gradientTransform="matrix(9.3996 0 0 -9.3996 5029.5098 18498.8828)">
				<stop  offset="0" style="stop-color:#D7B477"/>
				<stop  offset="0.2337" style="stop-color:#D7B477"/>
				<stop  offset="0.7628" style="stop-color:#DEB682"/>
				<stop  offset="1" style="stop-color:#E3B788"/>
			</linearGradient>
			<rect x="139.23" y="20.82" class="st11" width="9.4" height="17.71"/>
		</g>
		<g>
			<defs>
				<path id="SVGID_20_" d="M152.62,15.02c-0.4,0.4-0.6,0.88-0.6,1.45c0,0.57,0.2,1.06,0.6,1.46c0.4,0.4,0.89,0.6,1.46,0.6
					c0.56,0,1.04-0.2,1.44-0.6c0.41-0.4,0.62-0.89,0.62-1.46c0-0.56-0.21-1.05-0.62-1.45c-0.4-0.4-0.88-0.6-1.44-0.6
					C153.5,14.42,153.01,14.62,152.62,15.02"/>
			</defs>
			<clipPath id="SVGID_21_">
				<use xlink:href="#SVGID_20_"  style="overflow:visible;"/>
			</clipPath>
			
				<linearGradient id="SVGID_22_" gradientUnits="userSpaceOnUse" x1="-472.464" y1="2147.7566" x2="-471.464" y2="2147.7566" gradientTransform="matrix(4.1178 0 0 -4.1178 2097.5442 8860.5752)">
				<stop  offset="0" style="stop-color:#D7B477"/>
				<stop  offset="0.2337" style="stop-color:#D7B477"/>
				<stop  offset="0.7628" style="stop-color:#DEB682"/>
				<stop  offset="1" style="stop-color:#E3B788"/>
			</linearGradient>
			<rect x="152.02" y="14.42" class="st12" width="4.12" height="4.1"/>
		</g>
		<g>
			<defs>
				<path id="SVGID_23_" d="M154.08,20.82c-0.49,0-0.91,0.18-1.26,0.53c-0.33,0.35-0.5,0.77-0.5,1.25v15.58
					c-0.01,0.9-0.32,1.64-0.94,2.26c-0.62,0.62-1.34,0.92-2.23,0.92h-0.91c-0.48,0-0.89,0.17-1.24,0.52
					c-0.35,0.35-0.52,0.76-0.52,1.24v0.04c0,0.48,0.18,0.9,0.52,1.24c0.35,0.35,0.77,0.52,1.24,0.52h0.91
					c1.86,0,3.46-0.66,4.76-1.97c1.29-1.3,1.95-2.9,1.97-4.78V22.6c0-0.49-0.17-0.91-0.51-1.26c-0.35-0.35-0.77-0.52-1.26-0.52
					H154.08z"/>
			</defs>
			<clipPath id="SVGID_24_">
				<use xlink:href="#SVGID_23_"  style="overflow:visible;"/>
			</clipPath>
			
				<linearGradient id="SVGID_25_" gradientUnits="userSpaceOnUse" x1="-520.2802" y1="1964.8413" x2="-519.2802" y2="1964.8413" gradientTransform="matrix(9.4033 0 0 -9.4033 5038.7954 18508.7793)">
				<stop  offset="0" style="stop-color:#D7B477"/>
				<stop  offset="0.2337" style="stop-color:#D7B477"/>
				<stop  offset="0.7628" style="stop-color:#DEB682"/>
				<stop  offset="1" style="stop-color:#E3B788"/>
			</linearGradient>
			<rect x="146.47" y="20.82" class="st13" width="9.4" height="24.11"/>
		</g>
		<g>
			<defs>
				<path id="SVGID_26_" d="M165.05,33.37c-1.02-1.03-1.51-2.24-1.51-3.69c0-1.45,0.5-2.65,1.51-3.67c1.03-1.03,2.23-1.53,3.69-1.53
					s2.66,0.5,3.67,1.53c1.03,1.03,1.53,2.23,1.53,3.67c0,1.45-0.5,2.66-1.53,3.69c-1.02,1.02-2.22,1.51-3.67,1.51
					S166.08,34.39,165.05,33.37 M162.48,23.42c-1.72,1.72-2.59,3.83-2.59,6.26c0,2.43,0.87,4.54,2.59,6.26s3.83,2.59,6.26,2.59
					c1.97,0,3.74-0.59,5.28-1.75c0.01,0.49,0.18,0.9,0.52,1.23c0.35,0.35,0.76,0.52,1.24,0.52h0.04c0.48,0,0.9-0.17,1.24-0.52
					c0.35-0.34,0.53-0.76,0.53-1.25v-7.09c0-2.43-0.87-4.54-2.59-6.26c-1.72-1.72-3.83-2.59-6.26-2.59
					C166.31,20.82,164.2,21.7,162.48,23.42"/>
			</defs>
			<clipPath id="SVGID_27_">
				<use xlink:href="#SVGID_26_"  style="overflow:visible;"/>
			</clipPath>
			
				<linearGradient id="SVGID_28_" gradientUnits="userSpaceOnUse" x1="-537.7441" y1="1898.0352" x2="-536.7441" y2="1898.0352" gradientTransform="matrix(17.7015 0 0 -17.7015 9678.7891 33627.832)">
				<stop  offset="0" style="stop-color:#D7B477"/>
				<stop  offset="0.2337" style="stop-color:#D7B477"/>
				<stop  offset="0.7628" style="stop-color:#DEB682"/>
				<stop  offset="1" style="stop-color:#E3B788"/>
			</linearGradient>
			<rect x="159.89" y="20.82" class="st14" width="17.7" height="17.71"/>
		</g>
		<g>
			<defs>
				<path id="SVGID_29_" d="M183.47,23c-1.44,1.44-2.17,3.2-2.17,5.25v8.52c0,0.49,0.18,0.91,0.52,1.25
					c0.35,0.35,0.77,0.52,1.24,0.52h0.05c0.48,0,0.9-0.17,1.24-0.52c0.35-0.34,0.53-0.76,0.53-1.25v-8.52
					c0-1.07,0.36-1.96,1.11-2.72c0.76-0.76,1.65-1.13,2.73-1.13c1.07,0,1.96,0.37,2.71,1.13c0.75,0.76,1.12,1.65,1.12,2.72v8.52
					c0,0.49,0.18,0.91,0.52,1.25c0.35,0.35,0.77,0.52,1.26,0.52h0.03c0.49,0,0.91-0.18,1.24-0.52c0.35-0.34,0.53-0.76,0.53-1.25
					v-8.52c0-2.04-0.73-3.8-2.17-5.25c-1.44-1.45-3.2-2.17-5.23-2.17C186.68,20.82,184.91,21.55,183.47,23"/>
			</defs>
			<clipPath id="SVGID_30_">
				<use xlink:href="#SVGID_29_"  style="overflow:visible;"/>
			</clipPath>
			
				<linearGradient id="SVGID_31_" gradientUnits="userSpaceOnUse" x1="-533.8984" y1="1912.7467" x2="-532.8983" y2="1912.7467" gradientTransform="matrix(14.8213 0 0 -14.8213 8094.3359 28378.9785)">
				<stop  offset="0" style="stop-color:#D7B477"/>
				<stop  offset="0.2337" style="stop-color:#D7B477"/>
				<stop  offset="0.7628" style="stop-color:#DEB682"/>
				<stop  offset="1" style="stop-color:#E3B788"/>
			</linearGradient>
			<rect x="181.29" y="20.82" class="st15" width="14.82" height="17.71"/>
		</g>
	</g>
	<g>
		<linearGradient id="SVGID_32_" gradientUnits="userSpaceOnUse" x1="0" y1="29" x2="58" y2="29">
			<stop  offset="0.0874" style="stop-color:#D7B477"/>
			<stop  offset="0.2799" style="stop-color:#D7B478"/>
			<stop  offset="1" style="stop-color:#E3B788"/>
		</linearGradient>
		<circle class="st16" cx="29" cy="29" r="29"/>
		<g>
			<path class="st17" d="M37.34,12.64c-1.7,0-3.12,1.28-3.28,2.98c-0.02,0.08-0.02,26.69,0,26.78c0.16,1.7,1.58,2.98,3.28,2.98
				c1.82,0,3.3-1.48,3.3-3.3V15.94C40.64,14.12,39.16,12.64,37.34,12.64 M38.24,42.33c-0.08,0.45-0.47,0.77-0.92,0.77
				c-0.46,0-0.84-0.32-0.92-0.76c0.01-0.06,0.01-26.62,0-26.68c0.08-0.44,0.46-0.76,0.92-0.76c0.45,0,0.84,0.32,0.92,0.77
				C38.23,15.72,38.23,42.27,38.24,42.33"/>
			<path class="st17" d="M28.84,12.64c-1.7,0-3.12,1.28-3.28,2.98c-0.02,0.08-0.02,15.65,0,15.73c0.16,1.7,1.58,2.98,3.28,2.98
				c1.82,0,3.3-1.48,3.3-3.3V15.94C32.14,14.12,30.66,12.64,28.84,12.64 M29.74,31.29c-0.08,0.45-0.47,0.77-0.92,0.77
				c-0.46,0-0.84-0.32-0.92-0.76c0.01-0.06,0.01-15.57,0-15.63c0.08-0.44,0.46-0.76,0.92-0.76c0.45,0,0.84,0.32,0.92,0.77
				C29.73,15.73,29.73,31.23,29.74,31.29"/>
			<path class="st17" d="M20.5,12.64c-1.62,0-2.97,1.22-3.12,2.84c-0.02,0.08-0.02,19.52,0,19.59c0.16,1.62,1.5,2.83,3.12,2.83
				c1.74,0,3.15-1.41,3.15-3.15V15.79C23.65,14.05,22.23,12.64,20.5,12.64 M21.36,35.01c-0.08,0.43-0.45,0.73-0.88,0.73
				c-0.44,0-0.8-0.31-0.88-0.73c0.01-0.06,0.01-19.44,0-19.5c0.07-0.42,0.44-0.73,0.88-0.73c0.43,0,0.8,0.31,0.88,0.73
				C21.35,15.58,21.35,34.96,21.36,35.01"/>
		</g>
	</g>
</g>
</svg>
