<svg xmlns="http://www.w3.org/2000/svg" xmlns:xlink="http://www.w3.org/1999/xlink" viewBox="0 0 32 32"><defs><style>.a{fill:url(#a);}.b{fill:#fff;}</style><linearGradient id="a" y1="16" x2="32" y2="16" gradientUnits="userSpaceOnUse"><stop offset="0.51" stop-color="#e1b68a"/><stop offset="1" stop-color="#ebd0b3"/></linearGradient></defs><title>premium-emblem</title><circle class="a" cx="16" cy="16" r="16"/><path class="b" d="M21.17,5.21a2,2,0,0,0-2,1.85c0,.05,0,17.83,0,17.88a2,2,0,0,0,4.08-.2V7.26a2.05,2.05,0,0,0-2-2m.57,19.69a.58.58,0,0,1-.57.48.56.56,0,0,1-.57-.47V7.09a.56.56,0,0,1,.57-.47.58.58,0,0,1,.57.47s0,17.78,0,17.81"/><path class="b" d="M15.9,5.21a2,2,0,0,0-2,1.85c0,.05,0,11,0,11a2,2,0,0,0,4.09-.2V7.26a2.05,2.05,0,0,0-2-2m.56,12.84a.58.58,0,0,1-1.14,0s0-10.92,0-11a.58.58,0,0,1,1.14,0s0,10.92,0,11"/><path class="b" d="M10.72,5.21A2,2,0,0,0,8.78,7s0,13.38,0,13.42a2,2,0,0,0,3.9-.19v-13a2,2,0,0,0-2-2m.54,15.15a.55.55,0,0,1-1.09,0S10.18,7,10.17,7a.55.55,0,0,1,1.09,0s0,13.32,0,13.35"/></svg>