<svg xmlns="http://www.w3.org/2000/svg" xmlns:xlink="http://www.w3.org/1999/xlink" viewBox="0 0 283.32 58" enable-background="new 0 0 283.32 58"><style type="text/css">.st0{fill:url(#SVGID_1_);} .st1{fill:url(#SVGID_2_);} .st2{fill:url(#SVGID_3_);} .st3{fill:url(#SVGID_4_);} .st4{fill:url(#SVGID_5_);} .st5{fill:url(#SVGID_6_);} .st6{fill:url(#SVGID_7_);} .st7{opacity:0.49;} .st8{clip-path:url(#SVGID_9_);fill:url(#SVGID_10_);} .st9{clip-path:url(#SVGID_12_);fill:url(#SVGID_13_);} .st10{clip-path:url(#SVGID_15_);fill:url(#SVGID_16_);} .st11{clip-path:url(#SVGID_18_);fill:url(#SVGID_19_);} .st12{clip-path:url(#SVGID_21_);fill:url(#SVGID_22_);} .st13{clip-path:url(#SVGID_24_);fill:url(#SVGID_25_);} .st14{clip-path:url(#SVGID_27_);fill:url(#SVGID_28_);} .st15{clip-path:url(#SVGID_30_);fill:url(#SVGID_31_);} .st16{fill:url(#SVGID_32_);} .st17{fill:#FFFFFF;}</style><linearGradient id="SVGID_1_" x1="205.771" x2="214.928" y1="32.16" y2="32.16" gradientUnits="userSpaceOnUse"><stop offset=".087" stop-color="#D7B477"/><stop offset=".28" stop-color="#D7B478"/><stop offset="1" stop-color="#E3B788"/></linearGradient><path d="M207.2 38.52c-.97 0-1.43-.67-1.43-2.03v-8.7c0-1.4.4-2 1.98-2h2.58c2.88 0 4.6 1.67 4.6 4.27 0 2.63-1.6 4.26-4.37 4.26h-1.93v2.16c0 1.35-.45 2.02-1.43 2.02zm2.67-6.78c1.3 0 1.96-.57 1.96-1.66 0-1.13-.64-1.64-1.96-1.64h-1.24v3.3h1.24z" class="st0"/><linearGradient id="SVGID_2_" x1="216.48" x2="225.584" y1="32.204" y2="32.204" gradientUnits="userSpaceOnUse"><stop offset=".087" stop-color="#D7B477"/><stop offset=".28" stop-color="#D7B478"/><stop offset="1" stop-color="#E3B788"/></linearGradient><path d="M219.34 36.5c0 1.35-.46 2.02-1.43 2.02-.96 0-1.42-.67-1.42-2.03v-8.7c0-1.4.4-2 1.98-2h2.23c3.08 0 4.78 1.6 4.78 3.9 0 1.8-1.1 3.1-3 3.4l2.26 2.5c.57.65.85 1.2.85 1.65 0 .74-.58 1.34-1.37 1.34-.57 0-1-.38-1.54-1.04l-3.35-4.2v3.13zm1.33-5c1.17 0 1.82-.6 1.82-1.57 0-.94-.65-1.5-1.8-1.5h-1.36v3.06h1.33z" class="st1"/><linearGradient id="SVGID_3_" x1="227.03" x2="234.348" y1="32.081" y2="32.081" gradientUnits="userSpaceOnUse"><stop offset=".087" stop-color="#D7B477"/><stop offset=".28" stop-color="#D7B478"/><stop offset="1" stop-color="#E3B788"/></linearGradient><path d="M234.26 27.14c0 .9-.67 1.33-2.03 1.33h-2.33v2.24h2.02c1.36 0 2.03.43 2.03 1.34 0 .9-.67 1.33-2.03 1.33h-2.02v2.35h2.42c1.36 0 2.03.42 2.03 1.33s-.67 1.33-2.03 1.33h-3.34c-1.52 0-1.94-.44-1.94-1.8v-8.75c0-1.4.4-2.02 1.98-2.02h3.22c1.35 0 2.02.44 2.02 1.34z" class="st2"/><linearGradient id="SVGID_4_" x1="235.106" x2="249.83" y1="32.09" y2="32.09" gradientUnits="userSpaceOnUse"><stop offset=".087" stop-color="#D7B477"/><stop offset=".28" stop-color="#D7B478"/><stop offset="1" stop-color="#E3B788"/></linearGradient><path d="M236.75 27.6c.23-1.3.73-1.96 1.94-1.96 1.05 0 1.7.55 2 1.7l1.9 7.5 1.8-7.52c.25-1.1.9-1.68 1.95-1.68 1.26 0 1.8.67 2.02 2.07l1.4 8.65c.05.3.07.53.07.7 0 .93-.6 1.5-1.45 1.5-.82 0-1.28-.58-1.42-1.7l-.9-7.5c-1.18 5.1-1.9 8-2.33 8.68-.25.4-.62.5-1.2.5-.94 0-1.4-.36-1.68-1.44L239 29.34l-.98 7.34c-.18 1.24-.62 1.83-1.5 1.83-.8 0-1.4-.55-1.4-1.48 0-.2.04-.5.1-.87l1.53-8.58z" class="st3"/><linearGradient id="SVGID_5_" x1="251.276" x2="254.14" y1="32.081" y2="32.081" gradientUnits="userSpaceOnUse"><stop offset=".087" stop-color="#D7B477"/><stop offset=".28" stop-color="#D7B478"/><stop offset="1" stop-color="#E3B788"/></linearGradient><path d="M252.7 38.52c-.96 0-1.42-.67-1.42-2.03v-8.83c0-1.36.46-2.03 1.43-2.03.98 0 1.44.67 1.44 2.03v8.82c0 1.35-.46 2.02-1.43 2.02z" class="st4"/><linearGradient id="SVGID_6_" x1="256.436" x2="267.219" y1="32.187" y2="32.187" gradientUnits="userSpaceOnUse"><stop offset=".087" stop-color="#D7B477"/><stop offset=".28" stop-color="#D7B478"/><stop offset="1" stop-color="#E3B788"/></linearGradient><path d="M256.44 27.67c0-1.36.46-2.03 1.43-2.03s1.43.67 1.43 2.03v4.98c0 2.23.87 3.34 2.53 3.34 1.66 0 2.53-1.12 2.53-3.35v-4.98c0-1.36.46-2.03 1.43-2.03.96 0 1.42.67 1.42 2.03v5.3c0 3.75-2.1 5.76-5.4 5.76-3.28 0-5.38-2-5.38-5.76v-5.3z" class="st5"/><linearGradient id="SVGID_7_" x1="268.594" x2="283.319" y1="32.09" y2="32.09" gradientUnits="userSpaceOnUse"><stop offset=".087" stop-color="#D7B477"/><stop offset=".28" stop-color="#D7B478"/><stop offset="1" stop-color="#E3B788"/></linearGradient><path d="M270.24 27.6c.23-1.3.73-1.96 1.94-1.96 1.06 0 1.7.55 2 1.7l1.9 7.5 1.8-7.52c.26-1.1.92-1.68 1.96-1.68 1.26 0 1.8.67 2.02 2.07l1.4 8.65c.05.3.07.53.07.7 0 .93-.6 1.5-1.45 1.5-.8 0-1.27-.58-1.4-1.7l-.9-7.5c-1.2 5.1-1.92 8-2.34 8.68-.25.4-.62.5-1.2.5-.94 0-1.4-.36-1.68-1.44l-1.86-7.75-1 7.34c-.17 1.24-.6 1.83-1.5 1.83-.8 0-1.4-.55-1.4-1.48 0-.2.05-.5.12-.87l1.52-8.58z" class="st6"/><g class="st7"><defs><path id="SVGID_8_" d="M83.58 23.4c-1.44-1.7-3.32-2.58-5.6-2.58-2.02 0-3.77.73-5.2 2.16-1.44 1.44-2.16 3.2-2.16 5.2v8.58c0 .5.18.9.52 1.24.35.35.77.52 1.25.52h.03c.48 0 .9-.17 1.24-.52.35-.34.53-.76.53-1.25V28.2c0-1.05.36-1.94 1.12-2.68.75-.75 1.62-1.1 2.68-1.1s1.93.35 2.68 1.1c.75.75 1.1 1.63 1.1 2.68v8.57c0 .5.2.9.53 1.25.36.35.78.52 1.27.52h.03c.5 0 .9-.18 1.24-.52.35-.34.53-.76.53-1.25V28.2c0-1.05.36-1.94 1.12-2.68.74-.75 1.6-1.1 2.67-1.1 1.07 0 1.95.35 2.7 1.1.75.75 1.1 1.63 1.1 2.68v8.57c0 .5.2.9.53 1.24.33.36.76.54 1.24.54h.03c.5 0 .9-.17 1.26-.52.34-.34.5-.75.5-1.24V28.2c0-2.02-.72-3.77-2.15-5.2-1.43-1.44-3.2-2.17-5.22-2.17-2.27 0-4.15.86-5.58 2.56"/></defs><clipPath id="SVGID_9_"><use xlink:href="#SVGID_8_" overflow="visible"/></clipPath><linearGradient id="SVGID_10_" x1="-544.014" x2="-543.014" y1="1874.049" y2="1874.049" gradientUnits="userSpaceOnUse" gradientTransform="matrix(25.911 0 0 -25.911 14166.807 48588.992)"><stop offset="0" stop-color="#D7B477"/><stop offset=".234" stop-color="#D7B477"/><stop offset=".763" stop-color="#DEB682"/><stop offset="1" stop-color="#E3B788"/></linearGradient><path d="M70.62 20.82h25.9v17.7h-25.9z" class="st8"/><defs><path id="SVGID_11_" d="M104.93 33.4c-1.02-1.03-1.5-2.23-1.5-3.67 0-1.45.48-2.66 1.5-3.7 1.03-1.02 2.24-1.52 3.7-1.52 1.44 0 2.64.5 3.66 1.54 1.02 1.03 1.52 2.24 1.52 3.7 0 1.44-.5 2.64-1.53 3.66-1.03 1.03-2.23 1.53-3.68 1.53-1.46 0-2.66-.5-3.7-1.53m-2.56-9.98c-1.72 1.72-2.6 3.83-2.6 6.26 0 2.43.88 4.54 2.6 6.26 1.72 1.72 3.83 2.6 6.26 2.6 2.43 0 4.54-.88 6.26-2.6s2.6-3.83 2.6-6.26c0-2.43-.88-4.54-2.6-6.26-1.72-1.72-3.83-2.6-6.26-2.6-2.43 0-4.54.88-6.26 2.6"/></defs><clipPath id="SVGID_12_"><use xlink:href="#SVGID_11_" overflow="visible"/></clipPath><linearGradient id="SVGID_13_" x1="-537.744" x2="-536.744" y1="1898.035" y2="1898.035" gradientUnits="userSpaceOnUse" gradientTransform="matrix(17.701 0 0 -17.701 9618.668 33627.832)"><stop offset="0" stop-color="#D7B477"/><stop offset=".234" stop-color="#D7B477"/><stop offset=".763" stop-color="#DEB682"/><stop offset="1" stop-color="#E3B788"/></linearGradient><path d="M99.77 20.82h17.7v17.7h-17.7z" class="st9"/><defs><path id="SVGID_14_" d="M133.73 20.82c-.5 0-.9.18-1.26.52-.35.35-.52.77-.52 1.26v8.52c0 1.07-.36 1.96-1.1 2.7-.77.76-1.66 1.13-2.73 1.13-1.08 0-1.97-.36-2.73-1.1-.76-.77-1.12-1.66-1.12-2.73V22.6c0-.5-.18-.9-.52-1.26-.35-.35-.76-.52-1.24-.52h-.05c-.48 0-.9.18-1.24.52-.35.35-.52.77-.52 1.26v8.52c0 2.03.74 3.8 2.18 5.23 1.44 1.44 3.2 2.17 5.24 2.17 2.03 0 3.8-.73 5.23-2.17 1.44-1.44 2.17-3.2 2.17-5.23V22.6c0-.5-.18-.9-.52-1.25s-.76-.53-1.25-.53h-.02z"/></defs><clipPath id="SVGID_15_"><use xlink:href="#SVGID_14_" overflow="visible"/></clipPath><linearGradient id="SVGID_16_" x1="-533.898" x2="-532.898" y1="1912.746" y2="1912.746" gradientUnits="userSpaceOnUse" gradientTransform="matrix(14.821 0 0 -14.821 8033.762 28379.027)"><stop offset="0" stop-color="#D7B477"/><stop offset=".234" stop-color="#D7B477"/><stop offset=".763" stop-color="#DEB682"/><stop offset="1" stop-color="#E3B788"/></linearGradient><path d="M120.7 20.82h14.82v17.7H120.7z" class="st10"/><defs><path id="SVGID_17_" d="M145.98 20.82c-1.86 0-3.47.66-4.78 1.97-1.3 1.3-1.95 2.9-1.97 4.77v9.2c0 .48.18.9.52 1.24.35.36.76.53 1.24.53h.04c.48 0 .9-.17 1.24-.52.35-.33.53-.75.53-1.24v-9.2c.02-.88.32-1.62.93-2.24.62-.62 1.36-.92 2.25-.92h.9c.48 0 .9-.18 1.25-.52.33-.34.5-.76.5-1.24v-.04c0-.5-.17-.9-.5-1.26-.35-.35-.77-.52-1.26-.52h-.9z"/></defs><clipPath id="SVGID_18_"><use xlink:href="#SVGID_17_" overflow="visible"/></clipPath><linearGradient id="SVGID_19_" x1="-520.266" x2="-519.266" y1="1964.897" y2="1964.897" gradientUnits="userSpaceOnUse" gradientTransform="matrix(9.4 0 0 -9.4 5029.51 18498.883)"><stop offset="0" stop-color="#D7B477"/><stop offset=".234" stop-color="#D7B477"/><stop offset=".763" stop-color="#DEB682"/><stop offset="1" stop-color="#E3B788"/></linearGradient><path d="M139.23 20.82h9.4v17.7h-9.4z" class="st11"/><defs><path id="SVGID_20_" d="M152.62 15.02c-.4.4-.6.88-.6 1.45s.2 1.06.6 1.46c.4.4.9.6 1.46.6.56 0 1.04-.2 1.44-.6.4-.4.62-.9.62-1.46 0-.56-.2-1.05-.62-1.45-.4-.4-.88-.6-1.44-.6-.58 0-1.07.2-1.46.6"/></defs><clipPath id="SVGID_21_"><use xlink:href="#SVGID_20_" overflow="visible"/></clipPath><linearGradient id="SVGID_22_" x1="-472.464" x2="-471.464" y1="2147.757" y2="2147.757" gradientUnits="userSpaceOnUse" gradientTransform="matrix(4.118 0 0 -4.118 2097.544 8860.575)"><stop offset="0" stop-color="#D7B477"/><stop offset=".234" stop-color="#D7B477"/><stop offset=".763" stop-color="#DEB682"/><stop offset="1" stop-color="#E3B788"/></linearGradient><path d="M152.02 14.42h4.12v4.1h-4.12z" class="st12"/><defs><path id="SVGID_23_" d="M154.08 20.82c-.5 0-.9.18-1.26.53-.33.35-.5.77-.5 1.25v15.58c0 .9-.32 1.64-.94 2.26-.62.62-1.34.92-2.23.92h-.9c-.5 0-.9.17-1.25.52s-.52.76-.52 1.24v.04c0 .48.18.9.52 1.24.35.35.77.52 1.24.52h.9c1.87 0 3.47-.66 4.77-1.97 1.3-1.3 1.96-2.9 1.98-4.78V22.6c0-.5-.17-.9-.5-1.26-.36-.35-.78-.52-1.27-.52h-.02z"/></defs><clipPath id="SVGID_24_"><use xlink:href="#SVGID_23_" overflow="visible"/></clipPath><linearGradient id="SVGID_25_" x1="-520.28" x2="-519.28" y1="1964.841" y2="1964.841" gradientUnits="userSpaceOnUse" gradientTransform="matrix(9.403 0 0 -9.403 5038.795 18508.779)"><stop offset="0" stop-color="#D7B477"/><stop offset=".234" stop-color="#D7B477"/><stop offset=".763" stop-color="#DEB682"/><stop offset="1" stop-color="#E3B788"/></linearGradient><path d="M146.47 20.82h9.4v24.1h-9.4z" class="st13"/><defs><path id="SVGID_26_" d="M165.05 33.37c-1.02-1.03-1.5-2.24-1.5-3.7 0-1.44.5-2.64 1.5-3.66 1.03-1.02 2.23-1.52 3.7-1.52s2.65.5 3.66 1.53c1.04 1.04 1.54 2.24 1.54 3.68 0 1.45-.5 2.66-1.53 3.7-1 1-2.2 1.5-3.66 1.5s-2.66-.5-3.7-1.5m-2.56-9.96c-1.72 1.72-2.6 3.83-2.6 6.26 0 2.43.88 4.54 2.6 6.26s3.83 2.6 6.26 2.6c1.97 0 3.74-.6 5.28-1.76 0 .5.18.9.52 1.23.35.36.76.53 1.24.53h.04c.48 0 .9-.17 1.24-.52.35-.33.53-.75.53-1.24v-7.1c0-2.42-.88-4.53-2.6-6.25-1.72-1.7-3.83-2.58-6.26-2.58-2.43 0-4.54.88-6.26 2.6"/></defs><clipPath id="SVGID_27_"><use xlink:href="#SVGID_26_" overflow="visible"/></clipPath><linearGradient id="SVGID_28_" x1="-537.744" x2="-536.744" y1="1898.035" y2="1898.035" gradientUnits="userSpaceOnUse" gradientTransform="matrix(17.701 0 0 -17.701 9678.789 33627.832)"><stop offset="0" stop-color="#D7B477"/><stop offset=".234" stop-color="#D7B477"/><stop offset=".763" stop-color="#DEB682"/><stop offset="1" stop-color="#E3B788"/></linearGradient><path d="M159.9 20.82h17.7v17.7h-17.7z" class="st14"/><defs><path id="SVGID_29_" d="M183.47 23c-1.44 1.44-2.17 3.2-2.17 5.25v8.52c0 .5.18.9.52 1.25.35.35.77.52 1.24.52h.05c.5 0 .9-.17 1.25-.52.35-.34.53-.76.53-1.25v-8.52c0-1.07.36-1.96 1.1-2.72.77-.76 1.66-1.13 2.74-1.13 1.07 0 1.96.37 2.7 1.13.76.76 1.13 1.65 1.13 2.72v8.52c0 .5.18.9.52 1.25.35.35.77.52 1.26.52h.03c.5 0 .9-.18 1.24-.52.35-.34.53-.76.53-1.25v-8.52c0-2.04-.73-3.8-2.17-5.25-1.44-1.45-3.2-2.17-5.23-2.17-2.05 0-3.82.72-5.26 2.17"/></defs><clipPath id="SVGID_30_"><use xlink:href="#SVGID_29_" overflow="visible"/></clipPath><linearGradient id="SVGID_31_" x1="-533.898" x2="-532.898" y1="1912.747" y2="1912.747" gradientUnits="userSpaceOnUse" gradientTransform="matrix(14.821 0 0 -14.821 8094.336 28378.979)"><stop offset="0" stop-color="#D7B477"/><stop offset=".234" stop-color="#D7B477"/><stop offset=".763" stop-color="#DEB682"/><stop offset="1" stop-color="#E3B788"/></linearGradient><path d="M181.3 20.82h14.8v17.7h-14.8z" class="st15"/></g><linearGradient id="SVGID_32_" x2="58" y1="29" y2="29" gradientUnits="userSpaceOnUse"><stop offset=".087" stop-color="#D7B477"/><stop offset=".28" stop-color="#D7B478"/><stop offset="1" stop-color="#E3B788"/></linearGradient><circle cx="29" cy="29" r="29" class="st16"/><path d="M37.34 12.64c-1.7 0-3.12 1.28-3.28 2.98-.02.08-.02 26.7 0 26.78.16 1.7 1.58 2.98 3.28 2.98 1.82 0 3.3-1.48 3.3-3.3V15.94c0-1.82-1.48-3.3-3.3-3.3m.9 29.7c-.08.44-.47.76-.92.76-.46 0-.84-.32-.92-.76 0-.06 0-26.62 0-26.68.08-.44.46-.76.92-.76.45 0 .84.32.92.77 0 .05 0 26.6 0 26.66M28.84 12.64c-1.7 0-3.12 1.28-3.28 2.98-.02.08-.02 15.65 0 15.73.16 1.7 1.58 2.98 3.28 2.98 1.82 0 3.3-1.48 3.3-3.3v-15.1c0-1.8-1.48-3.3-3.3-3.3m.9 18.66c-.08.44-.47.76-.92.76-.46 0-.84-.32-.92-.76 0-.06 0-15.57 0-15.63.08-.44.46-.76.92-.76.45 0 .84.33.92.78 0 .05 0 15.55 0 15.6M20.5 12.64c-1.62 0-2.97 1.22-3.12 2.84-.02.08-.02 19.52 0 19.6.16 1.6 1.5 2.82 3.12 2.82 1.74 0 3.15-1.4 3.15-3.15V15.8c0-1.75-1.42-3.16-3.15-3.16M21.36 35c-.08.44-.45.74-.88.74-.44 0-.8-.3-.88-.73 0-.05 0-19.43 0-19.5.07-.4.44-.72.88-.72.43 0 .8.3.88.73 0 .08 0 19.46 0 19.5" class="st17"/></svg>