<?xml version="1.0" encoding="utf-8"?>
<!-- Generator: Adobe Illustrator 24.0.0, SVG Export Plug-In . SVG Version: 6.00 Build 0)  -->
<svg version="1.1" id="Layer_1" xmlns="http://www.w3.org/2000/svg" xmlns:xlink="http://www.w3.org/1999/xlink" x="0px" y="0px"
	 viewBox="0 0 50.27 14.51" style="enable-background:new 0 0 50.27 14.51;" xml:space="preserve">
<style type="text/css">
	.st0{fill:url(#SVGID_1_);}
	.st1{fill:#FFFFFF;}
</style>
<g>
	<linearGradient id="SVGID_1_" gradientUnits="userSpaceOnUse" x1="0" y1="7.256" x2="50.2655" y2="7.256">
		<stop  offset="0.0874" style="stop-color:#E6A077"/>
		<stop  offset="1" style="stop-color:#E3B788"/>
	</linearGradient>
	<path class="st0" d="M50.27,0H2.72C1.22,0,0,1.22,0,2.72v9.08c0,1.5,1.22,2.72,2.72,2.72h47.55"/>
</g>
<g>
	<path class="st1" d="M5.8,9.89c-0.5,0-0.73-0.34-0.73-1.04V4.42c0-0.71,0.2-1.03,1.01-1.03h1.32c1.47,0,2.34,0.86,2.34,2.18
		c0,1.34-0.81,2.17-2.23,2.17H6.53v1.1C6.53,9.54,6.29,9.89,5.8,9.89z M7.16,6.42c0.67,0,1-0.29,1-0.85c0-0.58-0.32-0.84-1-0.84
		H6.53v1.69H7.16z"/>
	<path class="st1" d="M11.99,8.85c0,0.69-0.23,1.04-0.73,1.04c-0.5,0-0.73-0.34-0.73-1.04V4.42c0-0.71,0.2-1.03,1.01-1.03h1.14
		c1.58,0,2.44,0.82,2.44,2c0,0.91-0.57,1.57-1.53,1.73l1.15,1.28c0.29,0.32,0.43,0.6,0.43,0.84c0,0.38-0.29,0.68-0.69,0.68
		c-0.29,0-0.51-0.19-0.78-0.52l-1.7-2.14V8.85z M12.67,6.3c0.59,0,0.93-0.3,0.93-0.79c0-0.48-0.32-0.77-0.91-0.77h-0.69V6.3H12.67z"
		/>
	<path class="st1" d="M19.6,4.08c0,0.46-0.34,0.68-1.04,0.68h-1.19V5.9h1.03c0.69,0,1.04,0.22,1.04,0.68c0,0.46-0.34,0.68-1.04,0.68
		h-1.03v1.2h1.23c0.69,0,1.04,0.22,1.04,0.68S19.3,9.8,18.6,9.8h-1.7c-0.78,0-0.99-0.23-0.99-0.92V4.42c0-0.71,0.2-1.03,1.01-1.03
		h1.64C19.25,3.4,19.6,3.62,19.6,4.08z"/>
	<path class="st1" d="M20.87,4.31c0.12-0.67,0.37-1,0.99-1c0.54,0,0.87,0.28,1.02,0.87l0.97,3.83l0.91-3.84
		c0.14-0.57,0.47-0.86,1-0.86c0.64,0,0.91,0.34,1.03,1.05l0.71,4.41c0.03,0.15,0.04,0.27,0.04,0.35c0,0.48-0.31,0.77-0.74,0.77
		c-0.41,0-0.65-0.29-0.72-0.86l-0.46-3.83c-0.6,2.61-0.97,4.08-1.19,4.43c-0.13,0.2-0.32,0.26-0.61,0.26
		c-0.48,0-0.72-0.19-0.86-0.74l-0.95-3.95l-0.5,3.74c-0.09,0.64-0.32,0.94-0.77,0.94c-0.41,0-0.71-0.28-0.71-0.76
		c0-0.11,0.02-0.26,0.05-0.44L20.87,4.31z"/>
	<path class="st1" d="M29,9.89c-0.5,0-0.73-0.34-0.73-1.04v-4.5c0-0.69,0.23-1.04,0.73-1.04c0.5,0,0.73,0.34,0.73,1.04v4.5
		C29.74,9.54,29.5,9.89,29,9.89z"/>
	<path class="st1" d="M30.91,4.35c0-0.69,0.23-1.04,0.73-1.04c0.5,0,0.73,0.34,0.73,1.04v2.54c0,1.14,0.44,1.7,1.29,1.7
		c0.85,0,1.29-0.57,1.29-1.7V4.35c0-0.69,0.23-1.04,0.73-1.04c0.5,0,0.73,0.34,0.73,1.04v2.7c0,1.91-1.07,2.94-2.75,2.94
		c-1.68,0-2.75-1.03-2.75-2.94V4.35z"/>
	<path class="st1" d="M37.94,4.31c0.12-0.67,0.37-1,0.99-1c0.54,0,0.87,0.28,1.02,0.87l0.97,3.83l0.91-3.84
		c0.14-0.57,0.47-0.86,1-0.86c0.64,0,0.91,0.34,1.03,1.05l0.71,4.41c0.03,0.15,0.04,0.27,0.04,0.35c0,0.48-0.31,0.77-0.74,0.77
		c-0.41,0-0.65-0.29-0.72-0.86L42.7,5.21c-0.6,2.61-0.97,4.08-1.19,4.43c-0.13,0.2-0.32,0.26-0.61,0.26c-0.48,0-0.72-0.19-0.86-0.74
		l-0.95-3.95l-0.5,3.74c-0.09,0.64-0.32,0.94-0.77,0.94c-0.41,0-0.71-0.28-0.71-0.76c0-0.11,0.02-0.26,0.05-0.44L37.94,4.31z"/>
</g>
</svg>
