<svg xmlns="http://www.w3.org/2000/svg" style="display:none;">
<symbol viewBox="0 0 142 114" id="1">
<polyline points="26,50.5 26,113.8 120.5,113.8 120.5,48 "/>
<polyline points="130.7,56.5 73.4,9.4 73.4,9.4 19.2,56.5 "/>
<line x1="62.3" y1="0.2" x2="7.9" y2="48.9"/>
<path d="M95.9,79.7h40.7c0,0,5.5,0.2,5.5-6.1s-5.9-6.1-5.9-6.1H96.2"/>
<circle cx="73.4" cy="73" r="22.1"/>
</symbol>
<symbol viewBox="0 0 150 114" id="2">
    <line x1="100.8" y1="113.91" x2="50.04" y2="114"/>
    <circle cx="112.59" cy="75.85" r="11.15"/>
    <circle cx="37.66" cy="75.85" r="11.15"/>
    <path fill-rul="evenodd" d="M38,51.84C40.5,47.09,42.8,34,45.25,29.24c1.53-2.92,4.14-3.38,6.75-3.68a158.66,158.66,0,0,1,45.85,0c2.76.3,5.21.76,6.9,3.68,2.3,4.75,4.75,17.85,7.21,22.6C109,51.69,56.44,50.46,38,51.84Z"/>
    <path fill-rul="evenodd" d="M35.64,101.46v10a2.42,2.42,0,0,1-2.48,2.48H11.53a2.42,2.42,0,0,1-2.48-2.48s5.12-48.82,6-55.47h0s-7.22-4.72-1.15-11.19S25.2,48,25.2,48h.16c2.84-5.85,5.85-19.64,8.69-25.67a15.62,15.62,0,0,1,10.28-7.44,178,178,0,0,1,61.34,0A16.05,16.05,0,0,1,116,22.29c2.84,6,5.68,19.82,8.69,25.67,0,0,5.19-9.68,11.26-3.21s-1.16,11.19-1.16,11.19c.73,5.92,6.21,55.47,6.21,55.47a2.42,2.42,0,0,1-2.48,2.48H116.66a2.53,2.53,0,0,1-2.48-2.48v-10Z"/>
</symbol>
<symbol viewBox="6 0 138 114" id="3">
    <polyline points="12.44 48.37 12.44 114 137.56 114 137.56 49.95"/>
    <polyline points="12.44 54.83 12.44 31.15 137.56 31.15 137.56 55.71"/>
    <polyline points="45.65 30.38 45.65 19 104.35 19 104.35 31.27"/>
    <polyline points="62.87 71.2 62.87 80.12 87.13 80.12 87.13 70.32"/>
    <line x1="12.89" y1="41.24" x2="75.61" y2="54.45"/>
    <line x1="137.11" y1="41.24" x2="76.1" y2="54.45"/>
    <line x1="12.89" y1="55.61" x2="75.61" y2="68.82"/>
    <line x1="137.11" y1="55.61" x2="76.1" y2="68.82"/>
</symbol>
<symbol viewBox="0 0 150 114" id="4">
    <line x1="17.41" y1="85.39" x2="60.37" y2="114"/>
    <line x1="134.57" y1="77.3" x2="91.61" y2="105.92"/>
    <path d="M117.28,23.67S93.62,13.14,80.9,10.24,55.61,15.76,47.53,27.11s1,18.62,13.28,11.53c0,0,10.06-5.87,17.31-.9s33.22,25.17,33.22,25.17,4,3.06,10.42-.2a61,61,0,0,0,9.59-5.77"/>
    <line x1="51.42" y1="22.39" x2="35.56" y2="21.73"/>
    <path d="M19.84,63.63l40.93,32.5s5.74,2.9,10.71,0S75.8,90,75.61,89.31a10.35,10.35,0,0,0,11-1.15c5.75-4.2,2.46-7.62,2.46-7.62s6,3.54,11.61-.2,2.19-7.16,2.19-7.16,6.64,3.36,11.55-.32a6.31,6.31,0,0,0,2.08-8.38"/>
    <line x1="102.89" y1="73.18" x2="77.8" y2="57.51"/>
    <line x1="89.09" y1="80.54" x2="69.48" y2="68.28"/>
    <line x1="75.61" y1="89.31" x2="55.16" y2="75.76"/>
    <line x1="111.93" y1="11.78" x2="137.58" y2="67.86"/>
    <line x1="123.77" y1="2.61" x2="149.42" y2="58.7"/>
    <line x1="16.4" y1="73.18" x2="37.92" y2="15.39"/>
    <line x1="0.58" y1="74.26" x2="22.1" y2="16.46"/>
</symbol>
<symbol id="99" viewBox="0 0 150 114">
    <line x1="16.37" y1="104.15" x2="65.36" y2="104.07"/>
    <line x1="33.31" y1="114" x2="82.31" y2="113.92"/>
    <path d="M54.38,75.79l-24.9,8a6.31,6.31,0,0,1-7.92-4.06L4.31,26.08a6.29,6.29,0,0,1,4.05-7.92L62,.89h0a6.33,6.33,0,0,1,4.81.4A6.2,6.2,0,0,1,69.93,5l10,30.94"/>
    <path d="M35.33,48.59a7.78,7.78,0,1,0,9.78,5,7.79,7.79,0,0,0-9.78-5Z"/>
    <path d="M48.55,22.77a7.77,7.77,0,1,0,9.78,5,7.8,7.8,0,0,0-9.78-5Z"/>
    <path d="M96.33,42.24a7.77,7.77,0,1,0,7.6,9.3,7.77,7.77,0,0,0-6.07-9.15h0A7.93,7.93,0,0,0,96.33,42.24Z"/>
    <path d="M118.34,57a7.77,7.77,0,1,0,7.6,9.31,7.77,7.77,0,0,0-6.07-9.15A7.37,7.37,0,0,0,118.34,57Z"/>
    <path d="M81.7,64.07a7.77,7.77,0,1,0,7.61,9.31,7.78,7.78,0,0,0-6.08-9.15A7.23,7.23,0,0,0,81.7,64.07Z"/>
    <path d="M103.71,78.81a7.79,7.79,0,1,0,1.53.16A7.3,7.3,0,0,0,103.71,78.81Z"/>
    <path d="M108,113.94a6.3,6.3,0,0,1-3.51-1.07L57.19,81.21a6.37,6.37,0,0,1-1.74-8.8L87.12,25.12a6.36,6.36,0,0,1,8.81-1.75L143.19,55a6.35,6.35,0,0,1,1.74,8.8l-31.68,47.3a6.3,6.3,0,0,1-4,2.68A6.06,6.06,0,0,1,108,113.94Z"/>
</symbol>
</svg>