<svg xmlns="http://www.w3.org/2000/svg" viewBox="0 0 31.76 33"><defs><style>.a,.b{fill:none;stroke-linecap:round;stroke-linejoin:round;}.a{stroke:#1c415e;opacity:0.7;}.b{stroke:#157ef9;}</style></defs><title>signout</title><path class="a" d="M12.24.15A.72.72,0,0,1,13,.07a.71.71,0,0,1,.4.64v4a18.6,18.6,0,0,1,14,7.13,18.43,18.43,0,0,1,4,11.55,18.68,18.68,0,0,1-1.47,7.31.73.73,0,0,1-.66.43h-.14a.72.72,0,0,1-.58-.7A15.89,15.89,0,0,0,13.4,14.69v4a.71.71,0,0,1-.4.65.75.75,0,0,1-.76-.09l-11.35-9a.72.72,0,0,1,0-1.12Z" transform="translate(-0.12 0.5)"/><line class="b" x1="25.11" y1="18.2" x2="13.84" y2="26.29"/><line class="b" x1="23.86" y1="24.41" x2="12.59" y2="32.5"/></svg>