<svg xmlns="http://www.w3.org/2000/svg" viewBox="0 0 255.81 255.01"><title>size</title><path d="M230,178.14v-3.47a8.6,8.6,0,0,0-8.8-8.8H96.66a8.32,8.32,0,0,0-6.22,2.67l-64,63.93a8.59,8.59,0,0,0-2.58,6.22,8.76,8.76,0,0,0,2.58,6.23l2.66,2.66L.1,255.5l7.91-29,2.58,2.58a8.75,8.75,0,0,0,12.45,0l64.28-64a8.19,8.19,0,0,0,2.58-6.13V35.61a8.54,8.54,0,0,0-8.8-8.8l-3.56-.09L92.48.5l14.85,26.31h-3.47a8.54,8.54,0,0,0-8.8,8.8V152.27a8.62,8.62,0,0,0,8.8,8.89H221.23a8.62,8.62,0,0,0,8.8-8.89V148.8l25.88,14.67Z" transform="translate(-0.09 -0.5)"/><path d="M103.86,161.16a8.62,8.62,0,0,1-8.8-8.89V35.61a8.54,8.54,0,0,1,8.8-8.79h3.47L92.48.5,77.54,26.72l3.56.1a8.55,8.55,0,0,1,8.8,8.79V158.93a8.25,8.25,0,0,1-2.58,6.15L23,229.1a8.76,8.76,0,0,1-12.45,0L8,226.52l-7.92,29,29-7.92-2.67-2.67a8.7,8.7,0,0,1-2.57-6.22,8.54,8.54,0,0,1,2.57-6.21l64-63.94a8.34,8.34,0,0,1,6.23-2.66H221.23a8.6,8.6,0,0,1,8.8,8.8v3.46l25.87-14.67L230,148.81v3.46a8.62,8.62,0,0,1-8.8,8.89" transform="translate(-0.09 -0.5)"/></svg>