<?xml version="1.0" encoding="utf-8"?>
<svg version="1.1" xmlns="http://www.w3.org/2000/svg" viewBox="0 0 32 32" style="enable-background:new 0 0 32 32;">
<style type="text/css">
	.st0{fill:#007AFF;}
</style>
<g>
	<g>
		<path class="st0" d="M21.7,17H9.9c-0.3,0-0.5-0.2-0.5-0.5S9.6,16,9.9,16h11.9c0.3,0,0.5,0.2,0.5,0.5S22,17,21.7,17z"/>
	</g>
	<g>
		<path class="st0" d="M21.7,21.1h-5.9c-0.3,0-0.5-0.2-0.5-0.5s0.2-0.5,0.5-0.5h5.9c0.3,0,0.5,0.2,0.5,0.5S22,21.1,21.7,21.1z"/>
	</g>
	<g>
		<path class="st0" d="M21.7,12.6H4.5c-0.3,0-0.5-0.2-0.5-0.5s0.2-0.5,0.5-0.5h17.3c0.3,0,0.5,0.2,0.5,0.5S22,12.6,21.7,12.6z"/>
	</g>
	<g>
		<g>
			<path class="st0" d="M25.6,19.9v-8.1c0-0.3,0.2-0.5,0.5-0.5s0.5,0.2,0.5,0.5v8.1c0,0.3-0.2,0.5-0.5,0.5S25.6,20.2,25.6,19.9z"/>
		</g>
		<g>
			<path class="st0" d="M25.7,20.3l2.2-2.2c0.2-0.2,0.5-0.2,0.7,0s0.2,0.5,0,0.7L26.4,21c-0.2,0.2-0.5,0.2-0.7,0
				S25.5,20.5,25.7,20.3z"/>
		</g>
		<g>
			<path class="st0" d="M26.4,20.3l-2.2-2.2c-0.2-0.2-0.5-0.2-0.7,0s-0.2,0.5,0,0.7l2.2,2.2c0.2,0.2,0.5,0.2,0.7,0
				S26.6,20.5,26.4,20.3z"/>
		</g>
	</g>
</g>
</svg>
