<svg xmlns="http://www.w3.org/2000/svg" viewBox="0 0 32.34 33"><defs><style>.a,.b{fill:none;stroke-linecap:round;stroke-linejoin:round;}.a{stroke:#1c415e;opacity:0.7;}.b{stroke:#157ef9;}</style></defs><title>starred</title><path class="a" d="M11.78,26.57c-2.18,1.14-4.1-.24-3.68-2.67l1.12-6.51S4.5,12.82,4.5,12.82c-1.76-1.72-1-4,1.41-4.32l6.53-1s2.89-5.89,2.89-5.89c1.09-2.21,3.45-2.21,4.54,0l2.92,5.92s6.5.92,6.5.92c2.44.35,3.17,2.6,1.41,4.32L26,17.43S27.1,23.9,27.1,23.9c.41,2.42-1.5,3.82-3.68,2.67l-5.84-3.08s-5.8,3.08-5.8,3.08" transform="translate(0.17 0.5)"/><line class="b" x1="11.51" y1="19.92" x2="1.6" y2="27.04"/><line class="b" x1="10.42" y1="25.38" x2="0.5" y2="32.5"/></svg>