<svg xmlns="http://www.w3.org/2000/svg" viewBox="0 0 29.15 33"><defs><style>.a{fill:none;stroke:#000;stroke-linecap:round;stroke-linejoin:round;}</style></defs><title>state-9</title><path class="a" d="M30.57,15.28V27.86c0,3-2.47,4.64-5.51,4.64H7.94c-3,0-5.51-1.6-5.51-4.64V13A5.51,5.51,0,0,1,7.94,7.46H25.06A5.51,5.51,0,0,1,30.57,13Z" transform="translate(-1.93 0)"/><path class="a" d="M4.27,8.86C4.76,6.31,7,3.51,9.69,3.51H23.31c2.66,0,4.89,2.77,5.4,5.27" transform="translate(-1.93 0)"/><path class="a" d="M6.36,4.46c.83-1.89,2.79-4,5.07-4H21.57c2.28,0,4.24,2.07,5.07,4" transform="translate(-1.93 0)"/><path class="a" d="M6.36,3.24" transform="translate(-1.93 0)"/><polygon class="a" points="7.2 14.51 21.95 14.51 16.88 14.51 7.2 14.51 7.2 14.51"/><polygon class="a" points="7.2 20.17 21.95 20.17 16.88 20.17 7.2 20.17 7.2 20.17"/><polygon class="a" points="7.2 25.83 21.95 25.83 16.88 25.83 7.2 25.83 7.2 25.83"/></svg>