<svg xmlns="http://www.w3.org/2000/svg" viewBox="0 0 33 33"><defs><style>.a{fill:none;stroke:#000;stroke-linecap:round;stroke-linejoin:round;}</style></defs><title>state-3</title><path class="a" d="M25.93,13.91a9.53,9.53,0,1,0-12,12" transform="translate(0 0)"/><path class="a" d="M16.88.5V4.71" transform="translate(0 0)"/><path class="a" d="M10.79,6.34,8.69,2.69" transform="translate(0 0)"/><path class="a" d="M6.34,10.79,2.69,8.69" transform="translate(0 0)"/><path class="a" d="M4.71,16.88H.5" transform="translate(0 0)"/><path class="a" d="M6.34,23,2.69,25.07" transform="translate(0 0)"/><path class="a" d="M10.79,27.42l-2.1,3.64" transform="translate(0 0)"/><path class="a" d="M31.06,8.69l-3.64,2.1" transform="translate(0 0)"/><path class="a" d="M25.07,2.69,23,6.34" transform="translate(0 0)"/><path class="a" d="M32.5,23a9.53,9.53,0,0,1-18.59,3,9.46,9.46,0,0,1-.1-5.63A9.55,9.55,0,0,1,23,13.43,9.57,9.57,0,0,1,32.5,23Z" transform="translate(0 0)"/><line class="a" x1="23.99" y1="19.01" x2="23.99" y2="24.28"/><line class="a" x1="23.99" y1="24.28" x2="28.03" y2="25.3"/></svg>