<svg xmlns="http://www.w3.org/2000/svg" viewBox="0 0 33 33"><defs><style>.a{fill:none;stroke:#000;stroke-linecap:round;stroke-linejoin:round;}</style></defs><title>state-7</title><path class="a" d="M16.5,7.19a9.31,9.31,0,1,0,9.31,9.31A9.31,9.31,0,0,0,16.5,7.19Z"/><path class="a" d="M11.82,14.68a1.08,1.08,0,0,1,2.14,0"/><path class="a" d="M19,14.68a1.08,1.08,0,0,1,2.14,0"/><path class="a" d="M20.24,17.6a3.74,3.74,0,1,1-7.48,0"/><path class="a" d="M16.5.5V4.61"/><path class="a" d="M10.55,6.2,8.5,2.64"/><path class="a" d="M6.2,10.55,2.64,8.5"/><path class="a" d="M4.61,16.5H.5"/><path class="a" d="M6.2,22.45,2.64,24.5"/><path class="a" d="M10.55,26.8,8.5,30.36"/><path class="a" d="M16.5,28.39V32.5"/><path class="a" d="M22.45,26.8l2.05,3.56"/><path class="a" d="M26.8,22.45l3.56,2.05"/><path class="a" d="M32.5,16.5H28.39"/><path class="a" d="M30.36,8.5,26.8,10.55"/><path class="a" d="M24.5,2.64,22.45,6.2"/></svg>