<svg xmlns="http://www.w3.org/2000/svg" viewBox="0 0 33 32.21"><defs><style>.a{fill:none;stroke:#000;stroke-linecap:round;stroke-linejoin:round;}</style></defs><title>state-0</title><path class="a" d="M26.38,15.47V27a5.07,5.07,0,0,1-5.07,5.06H5.57A5.07,5.07,0,0,1,.5,27V12.54A5.08,5.08,0,0,1,5.57,7.47H18.92" transform="translate(0 -0.4)"/><path class="a" d="M32.12,6.56l-6.31-5.4a1.11,1.11,0,0,0-1.55.12l-8.2,9.78h0a1,1,0,0,0-.21.38v0a1,1,0,0,0,0,.4h0l.45,5.85a1.09,1.09,0,0,0,1.18,1l5.85-.45a1,1,0,0,0,.39-.11h0a1.13,1.13,0,0,0,.34-.27h0l8.21-9.78A1.11,1.11,0,0,0,32.12,6.56Z" transform="translate(0 -0.4)"/><line class="a" x1="23.69" y1="17.76" x2="16.06" y2="10.66"/><polygon class="a" points="6.74 17.09 15.64 17.09 15.64 17.09 6.74 17.09 6.74 17.09"/><polygon class="a" points="6.74 24.75 19.5 24.75 15.64 24.75 6.74 24.75 6.74 24.75"/></svg>