<svg xmlns="http://www.w3.org/2000/svg" viewBox="0 0 32 32"><defs><style>.a{stroke:#000;stroke-miterlimit:10;stroke-width:0.25px;}</style></defs><title>Untitled-4</title><path class="a" d="M10.05,28.81a.28.28,0,1,1,0-.55l12.1,0h0a.28.28,0,0,1,.28.27.29.29,0,0,1-.28.28l-12.1,0Z"/><path class="a" d="M25,23A2.94,2.94,0,1,1,27.9,20,2.94,2.94,0,0,1,25,23Zm0-5.32A2.39,2.39,0,1,0,27.35,20,2.39,2.39,0,0,0,25,17.66Z"/><path class="a" d="M7.1,23A2.94,2.94,0,1,1,10,20,2.94,2.94,0,0,1,7.1,23Zm0-5.32A2.39,2.39,0,1,0,9.48,20,2.39,2.39,0,0,0,7.1,17.66Z"/><path class="a" d="M7.19,14.59A.29.29,0,0,1,7,14.47a.28.28,0,0,1,0-.28,15.87,15.87,0,0,0,.84-2.47,17.65,17.65,0,0,1,.88-2.58,2.08,2.08,0,0,1,1.82-1,39,39,0,0,1,11,0,2.1,2.1,0,0,1,1.84,1,16.64,16.64,0,0,1,.84,2.47,18.13,18.13,0,0,0,.89,2.59.26.26,0,0,1,0,.27.24.24,0,0,1-.24.13c-.84,0-13.31-.32-17.59,0Zm6.83-.7c4.26,0,8.87.09,10.36.14-.25-.62-.5-1.46-.74-2.28a18.37,18.37,0,0,0-.79-2.36,1.61,1.61,0,0,0-1.43-.73,38.8,38.8,0,0,0-10.87,0c-.61.07-1.1.17-1.4.73a17.62,17.62,0,0,0-.84,2.48c-.23.8-.45,1.56-.68,2.14C9.19,13.92,11.54,13.89,14,13.89Z"/><path class="a" d="M31.14,27.76h-5.2a.88.88,0,0,1-.87-.87V25.48H6.89v1.41a.86.86,0,0,1-.87.87H.87A.86.86,0,0,1,0,26.89c0-.13,1.15-9.74,1.42-11.74A2.16,2.16,0,0,1,.6,13.79a2,2,0,0,1,.64-1.62,1.63,1.63,0,0,1,1.41-.6,2.41,2.41,0,0,1,1.46,1c.28-.65.57-1.47.85-2.27S5.65,8.4,6,7.68A4,4,0,0,1,8.62,5.76a42.92,42.92,0,0,1,14.74,0A4.14,4.14,0,0,1,26,7.66c.33.7.64,1.59,1,2.52s.6,1.7.91,2.39a2.31,2.31,0,0,1,1.43-1,1.62,1.62,0,0,1,1.41.6,2,2,0,0,1,.64,1.62,2.16,2.16,0,0,1-.82,1.36C30.77,17.05,32,26.86,32,26.86A.86.86,0,0,1,31.14,27.76ZM6.62,24.93H25.34a.27.27,0,0,1,.28.27v1.69a.33.33,0,0,0,.32.32h5.2a.3.3,0,0,0,.31-.32S30.15,16.47,30,15.06a.26.26,0,0,1,.12-.26,1.8,1.8,0,0,0,.72-1.07,1.49,1.49,0,0,0-.5-1.18,1.08,1.08,0,0,0-.93-.44c-.61.08-1.15.86-1.31,1.15a.32.32,0,0,1-.24.14.28.28,0,0,1-.25-.15,25.65,25.65,0,0,1-1.14-2.89,26.05,26.05,0,0,0-.93-2.44,3.59,3.59,0,0,0-2.27-1.63,42.39,42.39,0,0,0-14.52,0A3.43,3.43,0,0,0,6.47,7.94c-.31.67-.66,1.63-1,2.57s-.72,2-1.07,2.74a.28.28,0,0,1-.25.15.34.34,0,0,1-.28-.14c-.15-.29-.7-1.07-1.3-1.15a1.08,1.08,0,0,0-.94.44,1.5,1.5,0,0,0-.5,1.18,1.8,1.8,0,0,0,.72,1.07.27.27,0,0,1,.12.3C1.75,16.79.56,26.82.55,26.93a.3.3,0,0,0,.32.28H6a.3.3,0,0,0,.32-.32V25.2A.27.27,0,0,1,6.62,24.93Z"/></svg>