<?xml version="1.0" encoding="utf-8"?>
<!-- Generator: Adobe Illustrator 24.0.0, SVG Export Plug-In . SVG Version: 6.00 Build 0)  -->
<svg version="1.1" id="Layer_1" xmlns="http://www.w3.org/2000/svg" xmlns:xlink="http://www.w3.org/1999/xlink" x="0px" y="0px"
	 viewBox="0 0 201 84" style="enable-background:new 0 0 201 84;" xml:space="preserve">
<style type="text/css">
	.st0{fill:url(#SVGID_1_);}
	.st1{fill-rule:evenodd;clip-rule:evenodd;fill:#F7AA0F;}
	.st2{fill-rule:evenodd;clip-rule:evenodd;fill:#FFFFFF;}
</style>
<title>visa-buy</title>
<radialGradient id="SVGID_1_" cx="100.807" cy="147.736" r="75.1527" gradientTransform="matrix(0.997 0 0 -1.2473 0 226.2751)" gradientUnits="userSpaceOnUse">
	<stop  offset="1.000000e-02" style="stop-color:#E6BFA3"/>
	<stop  offset="0.56" style="stop-color:#E1B08A"/>
	<stop  offset="0.8" style="stop-color:#E1B68A"/>
	<stop  offset="1" style="stop-color:#E4BD95"/>
</radialGradient>
<path class="st0" d="M4.2,0h192.6c2.5,0.2,4.3,2.3,4.2,4.7v74.6c0.1,2.5-1.7,4.6-4.2,4.7H4.2c-2.5-0.2-4.3-2.3-4.2-4.7V4.7
	C-0.1,2.3,1.7,0.2,4.2,0z"/>
<g>
	<path class="st1" d="M45.3,82.6C71.6,71.3,108.6,61,157.6,71.3l0.5-12.4c-51.7-5.6-88.8,10.8-112.9,22.5L45.3,82.6L45.3,82.6z"/>
	<g>
		<polygon class="st2" points="72.8,49.8 84.3,12.1 94.5,12.1 83,49.8 72.8,49.8 		"/>
		<path class="st2" d="M68.3,12.2l-9.2,15.9c-2.3,4.2-3.7,6.3-4.4,9h-0.1c0.2-3.4-0.3-7.5-0.3-9.8l-1-15.1H36.1l-0.2,1
			c4.4,0,7,2.2,7.7,6.7L47,49.8h10.5l21.4-37.7H68.3z"/>
		<path class="st2" d="M147.6,49.8l-0.3-5.6h-12.7l-2.6,5.6h-11.1L141,12.2h13.6l3.4,37.6H147.6z M146.4,27.6
			c-0.1-2.9-0.1-5.9,0-8.9h-0.2c-0.6,1.9-3.3,7.5-4.5,10.3l-3.8,8.3h8.9L146.4,27.6L146.4,27.6z"/>
		<path class="st2" d="M105.2,50.9c-5.4,0.1-10.8-1.4-15.4-4.3l4.9-7.4c3.1,1.7,5.5,3.7,11,3.7c1.8,0,3.5-0.5,4.5-2.1
			c1.4-2.4-0.3-3.8-4.3-6l-2-1.3c-5.9-4-8.4-7.9-5.6-14.6c1.8-4.3,6.5-7.5,14.2-7.5c4.8,0.1,9.4,1.7,13.3,4.6l-5.6,6.6
			c-2.8-2.3-5.2-3.5-7.9-3.5c-2.1,0-3.8,0.8-4.4,1.9c-1.1,2.1,0.3,3.5,3.5,5.5l2.3,1.5c7.2,4.5,8.9,9.3,7.1,13.7
			C117.6,49.2,111.5,51,105.2,50.9L105.2,50.9z"/>
		<path class="st2" d="M160.7,18H160v-4.1h1.6c1,0,1.5,0.3,1.5,1.2c0,0.6-0.4,1.1-1,1.1c0,0-0.1,0-0.1,0l1.1,1.8h-0.8l-1.1-1.7h-0.7
			C160.7,16.2,160.7,18,160.7,18z M161.5,15.7c0.5,0,0.9-0.1,0.9-0.6s-0.5-0.6-0.9-0.6h-0.8v1.2H161.5z M161.5,19.6
			c-2,0-3.6-1.5-3.6-3.5c0-0.1,0-0.2,0-0.2c0-2,1.6-3.6,3.6-3.6c2,0,3.6,1.6,3.6,3.6c0.1,2-1.5,3.6-3.5,3.7
			C161.6,19.6,161.5,19.6,161.5,19.6z M161.5,12.8c-1.6,0-2.8,1.3-2.8,2.9c0,0,0,0.1,0,0.1c0,1.6,1.3,2.8,2.8,2.8s2.8-1.3,2.8-2.8
			c0.1-1.6-1.1-2.9-2.7-3C161.6,12.8,161.5,12.8,161.5,12.8z"/>
	</g>
</g>
</svg>
