<svg xmlns="http://www.w3.org/2000/svg" viewBox="0 0 180 100"><defs><style>.a{fill:#fff;}.a,.b,.c{fill-rule:evenodd;}.b{fill:#f8ab10;}.c{fill:#005597;}</style></defs><title>visa-card</title><polygon class="a" points="0 0 180 0 180 100 0 100 0 0 0 0"/><path class="b" d="M16.23,98.71c35.88-15.38,86.22-29.32,152.89-15.36l.7-16.91C99.48,58.76,49,81.16,16.23,97v1.67Z"/><polygon class="c" points="53.75 54.12 69.3 2.85 83.17 2.85 67.62 54.12 53.75 54.12 53.75 54.12"/><path class="c" d="M47.55,2.86,35.07,24.59c-3.18,5.7-5,8.57-5.93,12.17H29c.22-4.56-.41-10.16-.47-13.33L27.1,2.86H3.74L3.5,4.24c6,0,9.56,3,10.54,9.18l4.55,40.69H33L62,2.86Z"/><path class="c" d="M155.44,54.11l-.38-7.62H137.73l-3.54,7.63H119.13L146.44,2.94h18.49l4.62,51.17Zm-1.59-30.24a115.39,115.39,0,0,1,0-12h-.2c-.85,2.54-4.47,10.19-6.07,14L142.39,37h12.16l-.7-13.14Z"/><path class="c" d="M97.74,55.57A38.89,38.89,0,0,1,76.8,49.7l6.61-10.1c4.17,2.33,7.44,5,15,5,2.41,0,4.75-.63,6.07-2.92,1.93-3.34-.44-5.13-5.86-8.2l-2.68-1.74c-8-5.49-11.51-10.7-7.73-19.8C90.6,6.13,97,1.72,107.52,1.72a31,31,0,0,1,18,6.21L118,16.84c-3.88-3.13-7.08-4.71-10.76-4.71-2.93,0-5.15,1.13-5.92,2.65-1.44,2.86.47,4.81,4.69,7.43l3.18,2c9.76,6.15,12.08,12.6,9.64,18.63-4.21,10.38-12.44,12.7-21.05,12.7Z"/><path class="c" d="M173.35,10.78h-.92V5.22h2.11c1.34,0,2,.47,2,1.6a1.42,1.42,0,0,1-1.45,1.51l1.55,2.45h-1L174.2,8.4h-.85v2.38Zm1-3.16c.68,0,1.28-.07,1.28-.87S175,6,174.45,6h-1.1V7.62Zm0,5.3a4.83,4.83,0,0,1-4.94-5,4.93,4.93,0,1,1,9.85,0,4.86,4.86,0,0,1-4.91,5Zm0-9.16a3.89,3.89,0,0,0-3.87,4.14,3.87,3.87,0,1,0,7.71,0,3.89,3.89,0,0,0-3.84-4.14Z"/></svg>