<svg xmlns="http://www.w3.org/2000/svg" viewBox="0 0 32.5 32.42"><defs><style>.a,.b{fill:none;stroke:#000;}.a{stroke-miterlimit:10;}.b{stroke-linecap:round;stroke-linejoin:round;}</style></defs><title>wait</title><path class="a" d="M20.74,25.32H10.68a.23.23,0,0,1-.23-.23,13.12,13.12,0,0,1,.8-5.15,5.82,5.82,0,0,1,1.59-2.14A2.75,2.75,0,0,0,13.94,16a2.4,2.4,0,0,0-1-1.86c-1-1-2.45-2.26-2.45-7.2a.23.23,0,0,1,.23-.23H20.73A.23.23,0,0,1,21,7c0,5-1.39,6.3-2.4,7.25A2.57,2.57,0,0,0,17.48,16a2.36,2.36,0,0,0,1,1.86c1,1,2.44,2.27,2.45,7.19v0A.23.23,0,0,1,20.74,25.32Z" transform="translate(0.5 0.19)"/><path class="b" d="M15.71.31A15.71,15.71,0,1,0,31.42,16" transform="translate(0.5 0.19)"/><circle cx="21.02" cy="1.4" r="0.93"/><circle cx="25.75" cy="3.74" r="0.93"/><circle cx="29.3" cy="7.39" r="0.93"/><circle cx="31.57" cy="12.12" r="0.93"/></svg>